<?xml version="1.0" encoding="utf-8" standalone="no"?>
<!DOCTYPE svg PUBLIC "-//W3C//DTD SVG 1.1//EN"
  "http://www.w3.org/Graphics/SVG/1.1/DTD/svg11.dtd">
<!-- Created with matplotlib (https://matplotlib.org/) -->
<svg height="432pt" version="1.1" viewBox="0 0 864 432" width="864pt" xmlns="http://www.w3.org/2000/svg" xmlns:xlink="http://www.w3.org/1999/xlink">
 <defs>
  <style type="text/css">
*{stroke-linecap:butt;stroke-linejoin:round;}
  </style>
 </defs>
 <g id="figure_1">
  <g id="patch_1">
   <path d="M 0 432 
L 864 432 
L 864 0 
L 0 0 
z
" style="fill:#ffffff;"/>
  </g>
  <g id="axes_1">
   <g id="patch_2">
    <path d="M 56.05 404.2 
L 853.2 404.2 
L 853.2 28.8 
L 56.05 28.8 
z
" style="fill:#ffffff;"/>
   </g>
   <g id="PolyCollection_1">
    <defs>
     <path d="M 92.284091 -44.863636 
L 92.284091 -264.485865 
L 94.269521 -259.807537 
L 96.25495 -264.485865 
L 102.211239 -269.684019 
L 104.196669 -272.802931 
L 106.182098 -276.701521 
L 108.167528 -276.441629 
L 110.152958 -287.877608 
L 116.109247 -281.119977 
L 118.094676 -282.939347 
L 120.080106 -282.679434 
L 122.065535 -272.802931 
L 124.050965 -274.62228 
L 130.007254 -269.164213 
L 131.992684 -266.305213 
L 133.978113 -266.305213 
L 135.963543 -270.723649 
L 137.948973 -266.045321 
L 143.905262 -260.847167 
L 145.890691 -262.406603 
L 147.876121 -265.785408 
L 149.86155 -265.00569 
L 151.84698 -257.728255 
L 157.803269 -255.38908 
L 159.788699 -255.38908 
L 161.774128 -249.931034 
L 163.759558 -249.671101 
L 165.744988 -256.688624 
L 171.701276 -255.648993 
L 173.686706 -258.767865 
L 175.672136 -257.468342 
L 177.657565 -253.309819 
L 179.642995 -248.631491 
L 185.599284 -250.190926 
L 187.584714 -248.371578 
L 189.570143 -247.591839 
L 191.555573 -250.710732 
L 193.541002 -247.072034 
L 199.497291 -244.992773 
L 201.482721 -244.992773 
L 203.468151 -243.166307 
L 205.45358 -240.557048 
L 213.395299 -242.383533 
L 215.380729 -242.122595 
L 217.366158 -256.212524 
L 219.351588 -257.256236 
L 221.337017 -261.691961 
L 227.293306 -269.25874 
L 229.278736 -270.56337 
L 231.264166 -272.650794 
L 233.249595 -271.346164 
L 235.235025 -268.475987 
L 241.191314 -268.736925 
L 243.176743 -269.25874 
L 245.162173 -266.910439 
L 247.147603 -267.954131 
L 249.133032 -273.433548 
L 259.060181 -283.348689 
L 261.04561 -283.348689 
L 263.03104 -283.609607 
L 268.987329 -281.522203 
L 270.972758 -275.78189 
L 272.958188 -283.348689 
L 274.943618 -283.348689 
L 276.929047 -285.436072 
L 282.885336 -277.347417 
L 284.870766 -281.783142 
L 286.856196 -292.481037 
L 288.841625 -292.481037 
L 290.827055 -288.828106 
L 296.783344 -281.261286 
L 298.768773 -288.567168 
L 300.754203 -284.131443 
L 302.739633 -287.262538 
L 304.725062 -284.914237 
L 310.681351 -286.218867 
L 312.666781 -282.826833 
L 314.65221 -277.347417 
L 316.63764 -286.740702 
L 318.62307 -282.304998 
L 324.579359 -279.695759 
L 326.564788 -278.13019 
L 330.535648 -274.738177 
L 332.521077 -272.650794 
L 338.477366 -278.912964 
L 340.462796 -276.825561 
L 342.448225 -271.346164 
L 344.433655 -268.215069 
L 346.419085 -262.213776 
L 352.375374 -264.823056 
L 354.360803 -256.473462 
L 356.346233 -251.254963 
L 358.331663 -250.994045 
L 360.317092 -264.040262 
L 366.273381 -263.257488 
L 368.258811 -262.99657 
L 370.24424 -271.607082 
L 372.22967 -275.78189 
L 374.2151 -272.650794 
L 380.171389 -267.954131 
L 382.156818 -275.520951 
L 384.142248 -271.607082 
L 386.127677 -277.367311 
L 388.113107 -276.84365 
L 394.069396 -273.178044 
L 396.054826 -266.108674 
L 398.040255 -266.370515 
L 400.025685 -264.275892 
L 402.011115 -278.152792 
L 407.967403 -282.342037 
L 409.952833 -285.222162 
L 411.938263 -281.294736 
L 413.923692 -277.10547 
L 415.909122 -278.676452 
L 421.865411 -276.58183 
L 423.850841 -274.225366 
L 425.83627 -275.796328 
L 427.8217 -274.487186 
L 429.80713 -278.152792 
L 435.763418 -273.178044 
L 437.748848 -268.726958 
L 439.734278 -273.701705 
L 441.719707 -277.367311 
L 443.705137 -279.200113 
L 451.646856 -281.032895 
L 453.632285 -279.985594 
L 455.617715 -277.10547 
L 463.559433 -277.10547 
L 465.544863 -273.439885 
L 467.530293 -272.392563 
L 469.515722 -270.821601 
L 471.501152 -273.178044 
L 477.457441 -271.083421 
L 479.44287 -281.556556 
L 481.4283 -285.483982 
L 483.41373 -289.935068 
L 485.399159 -299.622722 
L 491.355448 -301.979186 
L 493.340878 -301.193684 
L 495.326308 -300.670044 
L 497.311737 -315.856086 
L 499.297167 -330.780307 
L 507.238885 -333.660431 
L 509.224315 -329.209345 
L 511.209745 -333.660431 
L 513.195174 -333.660431 
L 519.151463 -329.471165 
L 523.122323 -327.638362 
L 525.107752 -332.089449 
L 527.093182 -347.01367 
L 533.049471 -345.442708 
L 535.0349 -357.748646 
L 537.02033 -355.915843 
L 539.00576 -356.439504 
L 540.991189 -356.177663 
L 546.947478 -345.442708 
L 548.932908 -348.846473 
L 550.918337 -346.228189 
L 552.903767 -343.348085 
L 554.889197 -342.300764 
L 560.845486 -342.038923 
L 562.830915 -340.729781 
L 564.816345 -344.133566 
L 566.801775 -349.908951 
L 568.787204 -347.283776 
L 574.743493 -353.584196 
L 576.728923 -354.371748 
L 578.714352 -351.221538 
L 580.699782 -343.608531 
L 582.685212 -338.358182 
L 588.641501 -334.42042 
L 590.62693 -342.558462 
L 592.61236 -347.808811 
L 594.59779 -344.396084 
L 596.583219 -354.634266 
L 602.539508 -352.534126 
L 604.524938 -354.109231 
L 606.510367 -353.321678 
L 608.495797 -351.746573 
L 610.481227 -347.021259 
L 616.437516 -344.133566 
L 618.422945 -342.558462 
L 620.408375 -341.508392 
L 622.393804 -370.385315 
L 624.379234 -380.886014 
L 630.335523 -368.81021 
L 632.320953 -373.273007 
L 634.306382 -358.572028 
L 636.291812 -359.884615 
L 638.277242 -360.147133 
L 644.233531 -364.872448 
L 646.21896 -356.209371 
L 648.20439 -355.946853 
L 650.189819 -355.946853 
L 652.175249 -347.546294 
L 658.131538 -346.496224 
L 662.102397 -348.858881 
L 664.087827 -346.233706 
L 666.073257 -352.534126 
L 672.029545 -350.433986 
L 674.014975 -350.696503 
L 676.000405 -349.383916 
L 677.985834 -362.247273 
L 679.971264 -350.696503 
L 685.927553 -349.121399 
L 687.912983 -356.209371 
L 689.898412 -358.30951 
L 691.883842 -364.60993 
L 693.869271 -359.884615 
L 699.82556 -357.784476 
L 701.81099 -358.30951 
L 703.79642 -355.159301 
L 705.781849 -355.946853 
L 707.767279 -343.346014 
L 713.723568 -349.121399 
L 715.708998 -351.221538 
L 717.694427 -355.946853 
L 719.679857 -365.66 
L 721.665286 -366.185035 
L 727.621575 -357.259441 
L 729.607005 -357.784476 
L 731.592435 -354.634266 
L 733.577864 -350.696503 
L 735.563294 -352.796643 
L 741.519583 -352.009091 
L 743.505012 -346.758741 
L 745.490442 -345.971189 
L 759.38845 -347.808811 
L 761.373879 -360.40965 
L 763.359309 -360.934685 
L 771.301027 -358.572028 
L 773.286457 -357.784476 
L 775.271887 -370.91035 
L 777.257316 -372.222937 
L 783.213605 -370.647832 
L 785.199035 -386.136364 
L 787.184465 -386.136364 
L 789.169894 -374.848112 
L 791.155324 -376.160699 
L 797.111613 -370.385315 
L 799.097042 -377.735804 
L 801.082472 -379.573427 
L 803.067902 -359.884615 
L 805.053331 -357.521958 
L 811.00962 -357.521958 
L 812.99505 -350.171469 
L 814.980479 -360.672168 
L 816.965909 -373.798042 
L 816.965909 -44.863636 
L 816.965909 -44.863636 
L 814.980479 -44.863636 
L 812.99505 -44.863636 
L 811.00962 -44.863636 
L 805.053331 -44.863636 
L 803.067902 -44.863636 
L 801.082472 -44.863636 
L 799.097042 -44.863636 
L 797.111613 -44.863636 
L 791.155324 -44.863636 
L 789.169894 -44.863636 
L 787.184465 -44.863636 
L 785.199035 -44.863636 
L 783.213605 -44.863636 
L 777.257316 -44.863636 
L 775.271887 -44.863636 
L 773.286457 -44.863636 
L 771.301027 -44.863636 
L 763.359309 -44.863636 
L 761.373879 -44.863636 
L 759.38845 -44.863636 
L 745.490442 -44.863636 
L 743.505012 -44.863636 
L 741.519583 -44.863636 
L 735.563294 -44.863636 
L 733.577864 -44.863636 
L 731.592435 -44.863636 
L 729.607005 -44.863636 
L 727.621575 -44.863636 
L 721.665286 -44.863636 
L 719.679857 -44.863636 
L 717.694427 -44.863636 
L 715.708998 -44.863636 
L 713.723568 -44.863636 
L 707.767279 -44.863636 
L 705.781849 -44.863636 
L 703.79642 -44.863636 
L 701.81099 -44.863636 
L 699.82556 -44.863636 
L 693.869271 -44.863636 
L 691.883842 -44.863636 
L 689.898412 -44.863636 
L 687.912983 -44.863636 
L 685.927553 -44.863636 
L 679.971264 -44.863636 
L 677.985834 -44.863636 
L 676.000405 -44.863636 
L 674.014975 -44.863636 
L 672.029545 -44.863636 
L 666.073257 -44.863636 
L 664.087827 -44.863636 
L 662.102397 -44.863636 
L 658.131538 -44.863636 
L 652.175249 -44.863636 
L 650.189819 -44.863636 
L 648.20439 -44.863636 
L 646.21896 -44.863636 
L 644.233531 -44.863636 
L 638.277242 -44.863636 
L 636.291812 -44.863636 
L 634.306382 -44.863636 
L 632.320953 -44.863636 
L 630.335523 -44.863636 
L 624.379234 -44.863636 
L 622.393804 -44.863636 
L 620.408375 -44.863636 
L 618.422945 -44.863636 
L 616.437516 -44.863636 
L 610.481227 -44.863636 
L 608.495797 -44.863636 
L 606.510367 -44.863636 
L 604.524938 -44.863636 
L 602.539508 -44.863636 
L 596.583219 -44.863636 
L 594.59779 -44.863636 
L 592.61236 -44.863636 
L 590.62693 -44.863636 
L 588.641501 -44.863636 
L 582.685212 -44.863636 
L 580.699782 -44.863636 
L 578.714352 -44.863636 
L 576.728923 -44.863636 
L 574.743493 -44.863636 
L 568.787204 -44.863636 
L 566.801775 -44.863636 
L 564.816345 -44.863636 
L 562.830915 -44.863636 
L 560.845486 -44.863636 
L 554.889197 -44.863636 
L 552.903767 -44.863636 
L 550.918337 -44.863636 
L 548.932908 -44.863636 
L 546.947478 -44.863636 
L 540.991189 -44.863636 
L 539.00576 -44.863636 
L 537.02033 -44.863636 
L 535.0349 -44.863636 
L 533.049471 -44.863636 
L 527.093182 -44.863636 
L 525.107752 -44.863636 
L 523.122323 -44.863636 
L 519.151463 -44.863636 
L 513.195174 -44.863636 
L 511.209745 -44.863636 
L 509.224315 -44.863636 
L 507.238885 -44.863636 
L 499.297167 -44.863636 
L 497.311737 -44.863636 
L 495.326308 -44.863636 
L 493.340878 -44.863636 
L 491.355448 -44.863636 
L 485.399159 -44.863636 
L 483.41373 -44.863636 
L 481.4283 -44.863636 
L 479.44287 -44.863636 
L 477.457441 -44.863636 
L 471.501152 -44.863636 
L 469.515722 -44.863636 
L 467.530293 -44.863636 
L 465.544863 -44.863636 
L 463.559433 -44.863636 
L 455.617715 -44.863636 
L 453.632285 -44.863636 
L 451.646856 -44.863636 
L 443.705137 -44.863636 
L 441.719707 -44.863636 
L 439.734278 -44.863636 
L 437.748848 -44.863636 
L 435.763418 -44.863636 
L 429.80713 -44.863636 
L 427.8217 -44.863636 
L 425.83627 -44.863636 
L 423.850841 -44.863636 
L 421.865411 -44.863636 
L 415.909122 -44.863636 
L 413.923692 -44.863636 
L 411.938263 -44.863636 
L 409.952833 -44.863636 
L 407.967403 -44.863636 
L 402.011115 -44.863636 
L 400.025685 -44.863636 
L 398.040255 -44.863636 
L 396.054826 -44.863636 
L 394.069396 -44.863636 
L 388.113107 -44.863636 
L 386.127677 -44.863636 
L 384.142248 -44.863636 
L 382.156818 -44.863636 
L 380.171389 -44.863636 
L 374.2151 -44.863636 
L 372.22967 -44.863636 
L 370.24424 -44.863636 
L 368.258811 -44.863636 
L 366.273381 -44.863636 
L 360.317092 -44.863636 
L 358.331663 -44.863636 
L 356.346233 -44.863636 
L 354.360803 -44.863636 
L 352.375374 -44.863636 
L 346.419085 -44.863636 
L 344.433655 -44.863636 
L 342.448225 -44.863636 
L 340.462796 -44.863636 
L 338.477366 -44.863636 
L 332.521077 -44.863636 
L 330.535648 -44.863636 
L 326.564788 -44.863636 
L 324.579359 -44.863636 
L 318.62307 -44.863636 
L 316.63764 -44.863636 
L 314.65221 -44.863636 
L 312.666781 -44.863636 
L 310.681351 -44.863636 
L 304.725062 -44.863636 
L 302.739633 -44.863636 
L 300.754203 -44.863636 
L 298.768773 -44.863636 
L 296.783344 -44.863636 
L 290.827055 -44.863636 
L 288.841625 -44.863636 
L 286.856196 -44.863636 
L 284.870766 -44.863636 
L 282.885336 -44.863636 
L 276.929047 -44.863636 
L 274.943618 -44.863636 
L 272.958188 -44.863636 
L 270.972758 -44.863636 
L 268.987329 -44.863636 
L 263.03104 -44.863636 
L 261.04561 -44.863636 
L 259.060181 -44.863636 
L 249.133032 -44.863636 
L 247.147603 -44.863636 
L 245.162173 -44.863636 
L 243.176743 -44.863636 
L 241.191314 -44.863636 
L 235.235025 -44.863636 
L 233.249595 -44.863636 
L 231.264166 -44.863636 
L 229.278736 -44.863636 
L 227.293306 -44.863636 
L 221.337017 -44.863636 
L 219.351588 -44.863636 
L 217.366158 -44.863636 
L 215.380729 -44.863636 
L 213.395299 -44.863636 
L 205.45358 -44.863636 
L 203.468151 -44.863636 
L 201.482721 -44.863636 
L 199.497291 -44.863636 
L 193.541002 -44.863636 
L 191.555573 -44.863636 
L 189.570143 -44.863636 
L 187.584714 -44.863636 
L 185.599284 -44.863636 
L 179.642995 -44.863636 
L 177.657565 -44.863636 
L 175.672136 -44.863636 
L 173.686706 -44.863636 
L 171.701276 -44.863636 
L 165.744988 -44.863636 
L 163.759558 -44.863636 
L 161.774128 -44.863636 
L 159.788699 -44.863636 
L 157.803269 -44.863636 
L 151.84698 -44.863636 
L 149.86155 -44.863636 
L 147.876121 -44.863636 
L 145.890691 -44.863636 
L 143.905262 -44.863636 
L 137.948973 -44.863636 
L 135.963543 -44.863636 
L 133.978113 -44.863636 
L 131.992684 -44.863636 
L 130.007254 -44.863636 
L 124.050965 -44.863636 
L 122.065535 -44.863636 
L 120.080106 -44.863636 
L 118.094676 -44.863636 
L 116.109247 -44.863636 
L 110.152958 -44.863636 
L 108.167528 -44.863636 
L 106.182098 -44.863636 
L 104.196669 -44.863636 
L 102.211239 -44.863636 
L 96.25495 -44.863636 
L 94.269521 -44.863636 
L 92.284091 -44.863636 
z
" id="m80650668aa" style="stroke:#ffcee0;"/>
    </defs>
    <g clip-path="url(#pd6b9961fa0)">
     <use style="fill:#ffcee0;stroke:#ffcee0;" x="0" xlink:href="#m80650668aa" y="432"/>
    </g>
   </g>
   <g id="matplotlib.axis_1">
    <g id="xtick_1">
     <g id="line2d_1">
      <defs>
       <path d="M 0 0 
L 0 3.5 
" id="m0f8961a192" style="stroke:#000000;stroke-width:0.8;"/>
      </defs>
      <g>
       <use style="stroke:#000000;stroke-width:0.8;" x="90.298661" xlink:href="#m0f8961a192" y="404.2"/>
      </g>
     </g>
     <g id="text_1">
      <!-- 2022-11 -->
      <defs>
       <path d="M 19.1875 8.296875 
L 53.609375 8.296875 
L 53.609375 0 
L 7.328125 0 
L 7.328125 8.296875 
Q 12.9375 14.109375 22.625 23.890625 
Q 32.328125 33.6875 34.8125 36.53125 
Q 39.546875 41.84375 41.421875 45.53125 
Q 43.3125 49.21875 43.3125 52.78125 
Q 43.3125 58.59375 39.234375 62.25 
Q 35.15625 65.921875 28.609375 65.921875 
Q 23.96875 65.921875 18.8125 64.3125 
Q 13.671875 62.703125 7.8125 59.421875 
L 7.8125 69.390625 
Q 13.765625 71.78125 18.9375 73 
Q 24.125 74.21875 28.421875 74.21875 
Q 39.75 74.21875 46.484375 68.546875 
Q 53.21875 62.890625 53.21875 53.421875 
Q 53.21875 48.921875 51.53125 44.890625 
Q 49.859375 40.875 45.40625 35.40625 
Q 44.1875 33.984375 37.640625 27.21875 
Q 31.109375 20.453125 19.1875 8.296875 
z
" id="DejaVuSans-50"/>
       <path d="M 31.78125 66.40625 
Q 24.171875 66.40625 20.328125 58.90625 
Q 16.5 51.421875 16.5 36.375 
Q 16.5 21.390625 20.328125 13.890625 
Q 24.171875 6.390625 31.78125 6.390625 
Q 39.453125 6.390625 43.28125 13.890625 
Q 47.125 21.390625 47.125 36.375 
Q 47.125 51.421875 43.28125 58.90625 
Q 39.453125 66.40625 31.78125 66.40625 
z
M 31.78125 74.21875 
Q 44.046875 74.21875 50.515625 64.515625 
Q 56.984375 54.828125 56.984375 36.375 
Q 56.984375 17.96875 50.515625 8.265625 
Q 44.046875 -1.421875 31.78125 -1.421875 
Q 19.53125 -1.421875 13.0625 8.265625 
Q 6.59375 17.96875 6.59375 36.375 
Q 6.59375 54.828125 13.0625 64.515625 
Q 19.53125 74.21875 31.78125 74.21875 
z
" id="DejaVuSans-48"/>
       <path d="M 4.890625 31.390625 
L 31.203125 31.390625 
L 31.203125 23.390625 
L 4.890625 23.390625 
z
" id="DejaVuSans-45"/>
       <path d="M 12.40625 8.296875 
L 28.515625 8.296875 
L 28.515625 63.921875 
L 10.984375 60.40625 
L 10.984375 69.390625 
L 28.421875 72.90625 
L 38.28125 72.90625 
L 38.28125 8.296875 
L 54.390625 8.296875 
L 54.390625 0 
L 12.40625 0 
z
" id="DejaVuSans-49"/>
      </defs>
      <g transform="translate(69.407255 418.798437)scale(0.1 -0.1)">
       <use xlink:href="#DejaVuSans-50"/>
       <use x="63.623047" xlink:href="#DejaVuSans-48"/>
       <use x="127.246094" xlink:href="#DejaVuSans-50"/>
       <use x="190.869141" xlink:href="#DejaVuSans-50"/>
       <use x="254.492188" xlink:href="#DejaVuSans-45"/>
       <use x="290.576172" xlink:href="#DejaVuSans-49"/>
       <use x="354.199219" xlink:href="#DejaVuSans-49"/>
      </g>
     </g>
    </g>
    <g id="xtick_2">
     <g id="line2d_2">
      <g>
       <use style="stroke:#000000;stroke-width:0.8;" x="211.409869" xlink:href="#m0f8961a192" y="404.2"/>
      </g>
     </g>
     <g id="text_2">
      <!-- 2023-01 -->
      <defs>
       <path d="M 40.578125 39.3125 
Q 47.65625 37.796875 51.625 33 
Q 55.609375 28.21875 55.609375 21.1875 
Q 55.609375 10.40625 48.1875 4.484375 
Q 40.765625 -1.421875 27.09375 -1.421875 
Q 22.515625 -1.421875 17.65625 -0.515625 
Q 12.796875 0.390625 7.625 2.203125 
L 7.625 11.71875 
Q 11.71875 9.328125 16.59375 8.109375 
Q 21.484375 6.890625 26.8125 6.890625 
Q 36.078125 6.890625 40.9375 10.546875 
Q 45.796875 14.203125 45.796875 21.1875 
Q 45.796875 27.640625 41.28125 31.265625 
Q 36.765625 34.90625 28.71875 34.90625 
L 20.21875 34.90625 
L 20.21875 43.015625 
L 29.109375 43.015625 
Q 36.375 43.015625 40.234375 45.921875 
Q 44.09375 48.828125 44.09375 54.296875 
Q 44.09375 59.90625 40.109375 62.90625 
Q 36.140625 65.921875 28.71875 65.921875 
Q 24.65625 65.921875 20.015625 65.03125 
Q 15.375 64.15625 9.8125 62.3125 
L 9.8125 71.09375 
Q 15.4375 72.65625 20.34375 73.4375 
Q 25.25 74.21875 29.59375 74.21875 
Q 40.828125 74.21875 47.359375 69.109375 
Q 53.90625 64.015625 53.90625 55.328125 
Q 53.90625 49.265625 50.4375 45.09375 
Q 46.96875 40.921875 40.578125 39.3125 
z
" id="DejaVuSans-51"/>
      </defs>
      <g transform="translate(190.518463 418.798437)scale(0.1 -0.1)">
       <use xlink:href="#DejaVuSans-50"/>
       <use x="63.623047" xlink:href="#DejaVuSans-48"/>
       <use x="127.246094" xlink:href="#DejaVuSans-50"/>
       <use x="190.869141" xlink:href="#DejaVuSans-51"/>
       <use x="254.492188" xlink:href="#DejaVuSans-45"/>
       <use x="290.576172" xlink:href="#DejaVuSans-48"/>
       <use x="354.199219" xlink:href="#DejaVuSans-49"/>
      </g>
     </g>
    </g>
    <g id="xtick_3">
     <g id="line2d_3">
      <g>
       <use style="stroke:#000000;stroke-width:0.8;" x="328.550218" xlink:href="#m0f8961a192" y="404.2"/>
      </g>
     </g>
     <g id="text_3">
      <!-- 2023-03 -->
      <g transform="translate(307.658812 418.798437)scale(0.1 -0.1)">
       <use xlink:href="#DejaVuSans-50"/>
       <use x="63.623047" xlink:href="#DejaVuSans-48"/>
       <use x="127.246094" xlink:href="#DejaVuSans-50"/>
       <use x="190.869141" xlink:href="#DejaVuSans-51"/>
       <use x="254.492188" xlink:href="#DejaVuSans-45"/>
       <use x="290.576172" xlink:href="#DejaVuSans-48"/>
       <use x="354.199219" xlink:href="#DejaVuSans-51"/>
      </g>
     </g>
    </g>
    <g id="xtick_4">
     <g id="line2d_4">
      <g>
       <use style="stroke:#000000;stroke-width:0.8;" x="449.661426" xlink:href="#m0f8961a192" y="404.2"/>
      </g>
     </g>
     <g id="text_4">
      <!-- 2023-05 -->
      <defs>
       <path d="M 10.796875 72.90625 
L 49.515625 72.90625 
L 49.515625 64.59375 
L 19.828125 64.59375 
L 19.828125 46.734375 
Q 21.96875 47.46875 24.109375 47.828125 
Q 26.265625 48.1875 28.421875 48.1875 
Q 40.625 48.1875 47.75 41.5 
Q 54.890625 34.8125 54.890625 23.390625 
Q 54.890625 11.625 47.5625 5.09375 
Q 40.234375 -1.421875 26.90625 -1.421875 
Q 22.3125 -1.421875 17.546875 -0.640625 
Q 12.796875 0.140625 7.71875 1.703125 
L 7.71875 11.625 
Q 12.109375 9.234375 16.796875 8.0625 
Q 21.484375 6.890625 26.703125 6.890625 
Q 35.15625 6.890625 40.078125 11.328125 
Q 45.015625 15.765625 45.015625 23.390625 
Q 45.015625 31 40.078125 35.4375 
Q 35.15625 39.890625 26.703125 39.890625 
Q 22.75 39.890625 18.8125 39.015625 
Q 14.890625 38.140625 10.796875 36.28125 
z
" id="DejaVuSans-53"/>
      </defs>
      <g transform="translate(428.77002 418.798437)scale(0.1 -0.1)">
       <use xlink:href="#DejaVuSans-50"/>
       <use x="63.623047" xlink:href="#DejaVuSans-48"/>
       <use x="127.246094" xlink:href="#DejaVuSans-50"/>
       <use x="190.869141" xlink:href="#DejaVuSans-51"/>
       <use x="254.492188" xlink:href="#DejaVuSans-45"/>
       <use x="290.576172" xlink:href="#DejaVuSans-48"/>
       <use x="354.199219" xlink:href="#DejaVuSans-53"/>
      </g>
     </g>
    </g>
    <g id="xtick_5">
     <g id="line2d_5">
      <g>
       <use style="stroke:#000000;stroke-width:0.8;" x="570.772634" xlink:href="#m0f8961a192" y="404.2"/>
      </g>
     </g>
     <g id="text_5">
      <!-- 2023-07 -->
      <defs>
       <path d="M 8.203125 72.90625 
L 55.078125 72.90625 
L 55.078125 68.703125 
L 28.609375 0 
L 18.3125 0 
L 43.21875 64.59375 
L 8.203125 64.59375 
z
" id="DejaVuSans-55"/>
      </defs>
      <g transform="translate(549.881228 418.798437)scale(0.1 -0.1)">
       <use xlink:href="#DejaVuSans-50"/>
       <use x="63.623047" xlink:href="#DejaVuSans-48"/>
       <use x="127.246094" xlink:href="#DejaVuSans-50"/>
       <use x="190.869141" xlink:href="#DejaVuSans-51"/>
       <use x="254.492188" xlink:href="#DejaVuSans-45"/>
       <use x="290.576172" xlink:href="#DejaVuSans-48"/>
       <use x="354.199219" xlink:href="#DejaVuSans-55"/>
      </g>
     </g>
    </g>
    <g id="xtick_6">
     <g id="line2d_6">
      <g>
       <use style="stroke:#000000;stroke-width:0.8;" x="693.869271" xlink:href="#m0f8961a192" y="404.2"/>
      </g>
     </g>
     <g id="text_6">
      <!-- 2023-09 -->
      <defs>
       <path d="M 10.984375 1.515625 
L 10.984375 10.5 
Q 14.703125 8.734375 18.5 7.8125 
Q 22.3125 6.890625 25.984375 6.890625 
Q 35.75 6.890625 40.890625 13.453125 
Q 46.046875 20.015625 46.78125 33.40625 
Q 43.953125 29.203125 39.59375 26.953125 
Q 35.25 24.703125 29.984375 24.703125 
Q 19.046875 24.703125 12.671875 31.3125 
Q 6.296875 37.9375 6.296875 49.421875 
Q 6.296875 60.640625 12.9375 67.421875 
Q 19.578125 74.21875 30.609375 74.21875 
Q 43.265625 74.21875 49.921875 64.515625 
Q 56.59375 54.828125 56.59375 36.375 
Q 56.59375 19.140625 48.40625 8.859375 
Q 40.234375 -1.421875 26.421875 -1.421875 
Q 22.703125 -1.421875 18.890625 -0.6875 
Q 15.09375 0.046875 10.984375 1.515625 
z
M 30.609375 32.421875 
Q 37.25 32.421875 41.125 36.953125 
Q 45.015625 41.5 45.015625 49.421875 
Q 45.015625 57.28125 41.125 61.84375 
Q 37.25 66.40625 30.609375 66.40625 
Q 23.96875 66.40625 20.09375 61.84375 
Q 16.21875 57.28125 16.21875 49.421875 
Q 16.21875 41.5 20.09375 36.953125 
Q 23.96875 32.421875 30.609375 32.421875 
z
" id="DejaVuSans-57"/>
      </defs>
      <g transform="translate(672.977865 418.798437)scale(0.1 -0.1)">
       <use xlink:href="#DejaVuSans-50"/>
       <use x="63.623047" xlink:href="#DejaVuSans-48"/>
       <use x="127.246094" xlink:href="#DejaVuSans-50"/>
       <use x="190.869141" xlink:href="#DejaVuSans-51"/>
       <use x="254.492188" xlink:href="#DejaVuSans-45"/>
       <use x="290.576172" xlink:href="#DejaVuSans-48"/>
       <use x="354.199219" xlink:href="#DejaVuSans-57"/>
      </g>
     </g>
    </g>
    <g id="xtick_7">
     <g id="line2d_7">
      <g>
       <use style="stroke:#000000;stroke-width:0.8;" x="814.980479" xlink:href="#m0f8961a192" y="404.2"/>
      </g>
     </g>
     <g id="text_7">
      <!-- 2023-11 -->
      <g transform="translate(794.089073 418.798437)scale(0.1 -0.1)">
       <use xlink:href="#DejaVuSans-50"/>
       <use x="63.623047" xlink:href="#DejaVuSans-48"/>
       <use x="127.246094" xlink:href="#DejaVuSans-50"/>
       <use x="190.869141" xlink:href="#DejaVuSans-51"/>
       <use x="254.492188" xlink:href="#DejaVuSans-45"/>
       <use x="290.576172" xlink:href="#DejaVuSans-49"/>
       <use x="354.199219" xlink:href="#DejaVuSans-49"/>
      </g>
     </g>
    </g>
   </g>
   <g id="matplotlib.axis_2">
    <g id="ytick_1">
     <g id="line2d_8">
      <defs>
       <path d="M 0 0 
L -3.5 0 
" id="m794115a9ef" style="stroke:#000000;stroke-width:0.8;"/>
      </defs>
      <g>
       <use style="stroke:#000000;stroke-width:0.8;" x="56.05" xlink:href="#m794115a9ef" y="387.136364"/>
      </g>
     </g>
     <g id="text_8">
      <!-- 0 -->
      <g transform="translate(42.6875 390.935582)scale(0.1 -0.1)">
       <use xlink:href="#DejaVuSans-48"/>
      </g>
     </g>
    </g>
    <g id="ytick_2">
     <g id="line2d_9">
      <g>
       <use style="stroke:#000000;stroke-width:0.8;" x="56.05" xlink:href="#m794115a9ef" y="334.632867"/>
      </g>
     </g>
     <g id="text_9">
      <!-- 20000 -->
      <g transform="translate(17.2375 338.432086)scale(0.1 -0.1)">
       <use xlink:href="#DejaVuSans-50"/>
       <use x="63.623047" xlink:href="#DejaVuSans-48"/>
       <use x="127.246094" xlink:href="#DejaVuSans-48"/>
       <use x="190.869141" xlink:href="#DejaVuSans-48"/>
       <use x="254.492188" xlink:href="#DejaVuSans-48"/>
      </g>
     </g>
    </g>
    <g id="ytick_3">
     <g id="line2d_10">
      <g>
       <use style="stroke:#000000;stroke-width:0.8;" x="56.05" xlink:href="#m794115a9ef" y="282.129371"/>
      </g>
     </g>
     <g id="text_10">
      <!-- 40000 -->
      <defs>
       <path d="M 37.796875 64.3125 
L 12.890625 25.390625 
L 37.796875 25.390625 
z
M 35.203125 72.90625 
L 47.609375 72.90625 
L 47.609375 25.390625 
L 58.015625 25.390625 
L 58.015625 17.1875 
L 47.609375 17.1875 
L 47.609375 0 
L 37.796875 0 
L 37.796875 17.1875 
L 4.890625 17.1875 
L 4.890625 26.703125 
z
" id="DejaVuSans-52"/>
      </defs>
      <g transform="translate(17.2375 285.928589)scale(0.1 -0.1)">
       <use xlink:href="#DejaVuSans-52"/>
       <use x="63.623047" xlink:href="#DejaVuSans-48"/>
       <use x="127.246094" xlink:href="#DejaVuSans-48"/>
       <use x="190.869141" xlink:href="#DejaVuSans-48"/>
       <use x="254.492188" xlink:href="#DejaVuSans-48"/>
      </g>
     </g>
    </g>
    <g id="ytick_4">
     <g id="line2d_11">
      <g>
       <use style="stroke:#000000;stroke-width:0.8;" x="56.05" xlink:href="#m794115a9ef" y="229.625874"/>
      </g>
     </g>
     <g id="text_11">
      <!-- 60000 -->
      <defs>
       <path d="M 33.015625 40.375 
Q 26.375 40.375 22.484375 35.828125 
Q 18.609375 31.296875 18.609375 23.390625 
Q 18.609375 15.53125 22.484375 10.953125 
Q 26.375 6.390625 33.015625 6.390625 
Q 39.65625 6.390625 43.53125 10.953125 
Q 47.40625 15.53125 47.40625 23.390625 
Q 47.40625 31.296875 43.53125 35.828125 
Q 39.65625 40.375 33.015625 40.375 
z
M 52.59375 71.296875 
L 52.59375 62.3125 
Q 48.875 64.0625 45.09375 64.984375 
Q 41.3125 65.921875 37.59375 65.921875 
Q 27.828125 65.921875 22.671875 59.328125 
Q 17.53125 52.734375 16.796875 39.40625 
Q 19.671875 43.65625 24.015625 45.921875 
Q 28.375 48.1875 33.59375 48.1875 
Q 44.578125 48.1875 50.953125 41.515625 
Q 57.328125 34.859375 57.328125 23.390625 
Q 57.328125 12.15625 50.6875 5.359375 
Q 44.046875 -1.421875 33.015625 -1.421875 
Q 20.359375 -1.421875 13.671875 8.265625 
Q 6.984375 17.96875 6.984375 36.375 
Q 6.984375 53.65625 15.1875 63.9375 
Q 23.390625 74.21875 37.203125 74.21875 
Q 40.921875 74.21875 44.703125 73.484375 
Q 48.484375 72.75 52.59375 71.296875 
z
" id="DejaVuSans-54"/>
      </defs>
      <g transform="translate(17.2375 233.425093)scale(0.1 -0.1)">
       <use xlink:href="#DejaVuSans-54"/>
       <use x="63.623047" xlink:href="#DejaVuSans-48"/>
       <use x="127.246094" xlink:href="#DejaVuSans-48"/>
       <use x="190.869141" xlink:href="#DejaVuSans-48"/>
       <use x="254.492188" xlink:href="#DejaVuSans-48"/>
      </g>
     </g>
    </g>
    <g id="ytick_5">
     <g id="line2d_12">
      <g>
       <use style="stroke:#000000;stroke-width:0.8;" x="56.05" xlink:href="#m794115a9ef" y="177.122378"/>
      </g>
     </g>
     <g id="text_12">
      <!-- 80000 -->
      <defs>
       <path d="M 31.78125 34.625 
Q 24.75 34.625 20.71875 30.859375 
Q 16.703125 27.09375 16.703125 20.515625 
Q 16.703125 13.921875 20.71875 10.15625 
Q 24.75 6.390625 31.78125 6.390625 
Q 38.8125 6.390625 42.859375 10.171875 
Q 46.921875 13.96875 46.921875 20.515625 
Q 46.921875 27.09375 42.890625 30.859375 
Q 38.875 34.625 31.78125 34.625 
z
M 21.921875 38.8125 
Q 15.578125 40.375 12.03125 44.71875 
Q 8.5 49.078125 8.5 55.328125 
Q 8.5 64.0625 14.71875 69.140625 
Q 20.953125 74.21875 31.78125 74.21875 
Q 42.671875 74.21875 48.875 69.140625 
Q 55.078125 64.0625 55.078125 55.328125 
Q 55.078125 49.078125 51.53125 44.71875 
Q 48 40.375 41.703125 38.8125 
Q 48.828125 37.15625 52.796875 32.3125 
Q 56.78125 27.484375 56.78125 20.515625 
Q 56.78125 9.90625 50.3125 4.234375 
Q 43.84375 -1.421875 31.78125 -1.421875 
Q 19.734375 -1.421875 13.25 4.234375 
Q 6.78125 9.90625 6.78125 20.515625 
Q 6.78125 27.484375 10.78125 32.3125 
Q 14.796875 37.15625 21.921875 38.8125 
z
M 18.3125 54.390625 
Q 18.3125 48.734375 21.84375 45.5625 
Q 25.390625 42.390625 31.78125 42.390625 
Q 38.140625 42.390625 41.71875 45.5625 
Q 45.3125 48.734375 45.3125 54.390625 
Q 45.3125 60.0625 41.71875 63.234375 
Q 38.140625 66.40625 31.78125 66.40625 
Q 25.390625 66.40625 21.84375 63.234375 
Q 18.3125 60.0625 18.3125 54.390625 
z
" id="DejaVuSans-56"/>
      </defs>
      <g transform="translate(17.2375 180.921596)scale(0.1 -0.1)">
       <use xlink:href="#DejaVuSans-56"/>
       <use x="63.623047" xlink:href="#DejaVuSans-48"/>
       <use x="127.246094" xlink:href="#DejaVuSans-48"/>
       <use x="190.869141" xlink:href="#DejaVuSans-48"/>
       <use x="254.492188" xlink:href="#DejaVuSans-48"/>
      </g>
     </g>
    </g>
    <g id="ytick_6">
     <g id="line2d_13">
      <g>
       <use style="stroke:#000000;stroke-width:0.8;" x="56.05" xlink:href="#m794115a9ef" y="124.618881"/>
      </g>
     </g>
     <g id="text_13">
      <!-- 100000 -->
      <g transform="translate(10.875 128.4181)scale(0.1 -0.1)">
       <use xlink:href="#DejaVuSans-49"/>
       <use x="63.623047" xlink:href="#DejaVuSans-48"/>
       <use x="127.246094" xlink:href="#DejaVuSans-48"/>
       <use x="190.869141" xlink:href="#DejaVuSans-48"/>
       <use x="254.492188" xlink:href="#DejaVuSans-48"/>
       <use x="318.115234" xlink:href="#DejaVuSans-48"/>
      </g>
     </g>
    </g>
    <g id="ytick_7">
     <g id="line2d_14">
      <g>
       <use style="stroke:#000000;stroke-width:0.8;" x="56.05" xlink:href="#m794115a9ef" y="72.115385"/>
      </g>
     </g>
     <g id="text_14">
      <!-- 120000 -->
      <g transform="translate(10.875 75.914603)scale(0.1 -0.1)">
       <use xlink:href="#DejaVuSans-49"/>
       <use x="63.623047" xlink:href="#DejaVuSans-50"/>
       <use x="127.246094" xlink:href="#DejaVuSans-48"/>
       <use x="190.869141" xlink:href="#DejaVuSans-48"/>
       <use x="254.492188" xlink:href="#DejaVuSans-48"/>
       <use x="318.115234" xlink:href="#DejaVuSans-48"/>
      </g>
     </g>
    </g>
   </g>
   <g id="patch_3">
    <path d="M 56.05 404.2 
L 56.05 28.8 
" style="fill:none;stroke:#000000;stroke-linecap:square;stroke-linejoin:miter;stroke-width:0.8;"/>
   </g>
   <g id="patch_4">
    <path d="M 853.2 404.2 
L 853.2 28.8 
" style="fill:none;stroke:#000000;stroke-linecap:square;stroke-linejoin:miter;stroke-width:0.8;"/>
   </g>
   <g id="patch_5">
    <path d="M 56.05 404.2 
L 853.2 404.2 
" style="fill:none;stroke:#000000;stroke-linecap:square;stroke-linejoin:miter;stroke-width:0.8;"/>
   </g>
   <g id="patch_6">
    <path d="M 56.05 28.8 
L 853.2 28.8 
" style="fill:none;stroke:#000000;stroke-linecap:square;stroke-linejoin:miter;stroke-width:0.8;"/>
   </g>
   <g id="text_15">
    <!-- 000660.KS - 49.77% -->
    <defs>
     <path d="M 46 36.53125 
Q 46 50.203125 43.4375 55.78125 
Q 40.875 61.375 34.8125 61.375 
Q 28.765625 61.375 26.171875 55.78125 
Q 23.578125 50.203125 23.578125 36.53125 
Q 23.578125 22.703125 26.171875 17.03125 
Q 28.765625 11.375 34.8125 11.375 
Q 40.828125 11.375 43.40625 17.03125 
Q 46 22.703125 46 36.53125 
z
M 64.796875 36.375 
Q 64.796875 18.265625 56.984375 8.421875 
Q 49.171875 -1.421875 34.8125 -1.421875 
Q 20.40625 -1.421875 12.59375 8.421875 
Q 4.78125 18.265625 4.78125 36.375 
Q 4.78125 54.546875 12.59375 64.375 
Q 20.40625 74.21875 34.8125 74.21875 
Q 49.171875 74.21875 56.984375 64.375 
Q 64.796875 54.546875 64.796875 36.375 
z
" id="DejaVuSans-Bold-48"/>
     <path d="M 36.1875 35.984375 
Q 31.25 35.984375 28.78125 32.78125 
Q 26.3125 29.59375 26.3125 23.1875 
Q 26.3125 16.796875 28.78125 13.59375 
Q 31.25 10.40625 36.1875 10.40625 
Q 41.15625 10.40625 43.625 13.59375 
Q 46.09375 16.796875 46.09375 23.1875 
Q 46.09375 29.59375 43.625 32.78125 
Q 41.15625 35.984375 36.1875 35.984375 
z
M 59.421875 71 
L 59.421875 57.515625 
Q 54.78125 59.71875 50.671875 60.765625 
Q 46.578125 61.8125 42.671875 61.8125 
Q 34.28125 61.8125 29.59375 57.140625 
Q 24.90625 52.484375 24.125 43.3125 
Q 27.34375 45.703125 31.09375 46.890625 
Q 34.859375 48.09375 39.3125 48.09375 
Q 50.484375 48.09375 57.34375 41.546875 
Q 64.203125 35.015625 64.203125 24.421875 
Q 64.203125 12.703125 56.53125 5.640625 
Q 48.875 -1.421875 35.984375 -1.421875 
Q 21.78125 -1.421875 13.984375 8.171875 
Q 6.203125 17.78125 6.203125 35.40625 
Q 6.203125 53.46875 15.3125 63.796875 
Q 24.421875 74.125 40.28125 74.125 
Q 45.3125 74.125 50.046875 73.34375 
Q 54.78125 72.5625 59.421875 71 
z
" id="DejaVuSans-Bold-54"/>
     <path d="M 10.203125 18.890625 
L 27.78125 18.890625 
L 27.78125 0 
L 10.203125 0 
z
" id="DejaVuSans-Bold-46"/>
     <path d="M 9.1875 72.90625 
L 27.984375 72.90625 
L 27.984375 46.296875 
L 55.078125 72.90625 
L 76.90625 72.90625 
L 41.796875 38.375 
L 80.515625 0 
L 56.984375 0 
L 27.984375 28.71875 
L 27.984375 0 
L 9.1875 0 
z
" id="DejaVuSans-Bold-75"/>
     <path d="M 59.90625 70.609375 
L 59.90625 55.171875 
Q 53.90625 57.859375 48.1875 59.21875 
Q 42.484375 60.59375 37.40625 60.59375 
Q 30.671875 60.59375 27.4375 58.734375 
Q 24.21875 56.890625 24.21875 52.984375 
Q 24.21875 50.046875 26.390625 48.40625 
Q 28.5625 46.78125 34.28125 45.609375 
L 42.28125 44 
Q 54.4375 41.546875 59.5625 36.5625 
Q 64.703125 31.59375 64.703125 22.40625 
Q 64.703125 10.359375 57.546875 4.46875 
Q 50.390625 -1.421875 35.6875 -1.421875 
Q 28.765625 -1.421875 21.78125 -0.09375 
Q 14.796875 1.21875 7.8125 3.8125 
L 7.8125 19.671875 
Q 14.796875 15.96875 21.3125 14.078125 
Q 27.828125 12.203125 33.890625 12.203125 
Q 40.046875 12.203125 43.3125 14.25 
Q 46.578125 16.3125 46.578125 20.125 
Q 46.578125 23.53125 44.359375 25.390625 
Q 42.140625 27.25 35.5 28.71875 
L 28.21875 30.328125 
Q 17.28125 32.671875 12.21875 37.796875 
Q 7.171875 42.921875 7.171875 51.609375 
Q 7.171875 62.5 14.203125 68.359375 
Q 21.234375 74.21875 34.421875 74.21875 
Q 40.4375 74.21875 46.78125 73.3125 
Q 53.125 72.40625 59.90625 70.609375 
z
" id="DejaVuSans-Bold-83"/>
     <path id="DejaVuSans-Bold-32"/>
     <path d="M 5.421875 35.890625 
L 36.078125 35.890625 
L 36.078125 21.6875 
L 5.421875 21.6875 
z
" id="DejaVuSans-Bold-45"/>
     <path d="M 36.8125 57.421875 
L 16.21875 26.90625 
L 36.8125 26.90625 
z
M 33.6875 72.90625 
L 54.59375 72.90625 
L 54.59375 26.90625 
L 64.984375 26.90625 
L 64.984375 13.28125 
L 54.59375 13.28125 
L 54.59375 0 
L 36.8125 0 
L 36.8125 13.28125 
L 4.5 13.28125 
L 4.5 29.390625 
z
" id="DejaVuSans-Bold-52"/>
     <path d="M 10.015625 1.609375 
L 10.015625 15.09375 
Q 14.5 12.984375 18.59375 11.9375 
Q 22.703125 10.890625 26.703125 10.890625 
Q 35.109375 10.890625 39.796875 15.546875 
Q 44.484375 20.21875 45.3125 29.390625 
Q 42 26.953125 38.234375 25.734375 
Q 34.46875 24.515625 30.078125 24.515625 
Q 18.890625 24.515625 12.03125 31.03125 
Q 5.171875 37.546875 5.171875 48.1875 
Q 5.171875 59.96875 12.8125 67.046875 
Q 20.453125 74.125 33.296875 74.125 
Q 47.5625 74.125 55.375 64.5 
Q 63.1875 54.890625 63.1875 37.3125 
Q 63.1875 19.234375 54.046875 8.90625 
Q 44.921875 -1.421875 29 -1.421875 
Q 23.875 -1.421875 19.1875 -0.65625 
Q 14.5 0.09375 10.015625 1.609375 
z
M 33.203125 36.71875 
Q 38.140625 36.71875 40.625 39.90625 
Q 43.109375 43.109375 43.109375 49.515625 
Q 43.109375 55.859375 40.625 59.078125 
Q 38.140625 62.3125 33.203125 62.3125 
Q 28.265625 62.3125 25.78125 59.078125 
Q 23.296875 55.859375 23.296875 49.515625 
Q 23.296875 43.109375 25.78125 39.90625 
Q 28.265625 36.71875 33.203125 36.71875 
z
" id="DejaVuSans-Bold-57"/>
     <path d="M 6.6875 72.90625 
L 61.625 72.90625 
L 61.625 62.3125 
L 33.203125 0 
L 14.890625 0 
L 41.796875 59.078125 
L 6.6875 59.078125 
z
" id="DejaVuSans-Bold-55"/>
     <path d="M 77.484375 30.078125 
Q 74.03125 30.078125 72.125 27.078125 
Q 70.21875 24.078125 70.21875 18.5 
Q 70.21875 12.890625 72.09375 9.890625 
Q 73.96875 6.890625 77.484375 6.890625 
Q 81 6.890625 82.859375 9.890625 
Q 84.71875 12.890625 84.71875 18.5 
Q 84.71875 24.078125 82.828125 27.078125 
Q 80.953125 30.078125 77.484375 30.078125 
z
M 77.484375 38.28125 
Q 86.578125 38.28125 91.796875 33 
Q 97.015625 27.734375 97.015625 18.5 
Q 97.015625 9.28125 91.796875 3.921875 
Q 86.578125 -1.421875 77.484375 -1.421875 
Q 68.40625 -1.421875 63.15625 3.921875 
Q 57.90625 9.28125 57.90625 18.5 
Q 57.90625 27.6875 63.15625 32.984375 
Q 68.40625 38.28125 77.484375 38.28125 
z
M 32.71875 -1.421875 
L 21.921875 -1.421875 
L 67.484375 74.21875 
L 78.328125 74.21875 
z
M 22.703125 74.21875 
Q 31.78125 74.21875 36.984375 68.921875 
Q 42.1875 63.625 42.1875 54.390625 
Q 42.1875 45.171875 36.984375 39.84375 
Q 31.78125 34.515625 22.703125 34.515625 
Q 13.625 34.515625 8.421875 39.84375 
Q 3.21875 45.171875 3.21875 54.390625 
Q 3.21875 63.625 8.421875 68.921875 
Q 13.625 74.21875 22.703125 74.21875 
z
M 22.703125 66.015625 
Q 19.1875 66.015625 17.28125 62.984375 
Q 15.375 59.96875 15.375 54.390625 
Q 15.375 48.78125 17.28125 45.71875 
Q 19.1875 42.671875 22.703125 42.671875 
Q 26.21875 42.671875 28.09375 45.71875 
Q 29.984375 48.78125 29.984375 54.390625 
Q 29.984375 59.96875 28.078125 62.984375 
Q 26.171875 66.015625 22.703125 66.015625 
z
" id="DejaVuSans-Bold-37"/>
    </defs>
    <g transform="translate(56.05 22.8)scale(0.16 -0.16)">
     <use xlink:href="#DejaVuSans-Bold-48"/>
     <use x="69.580078" xlink:href="#DejaVuSans-Bold-48"/>
     <use x="139.160156" xlink:href="#DejaVuSans-Bold-48"/>
     <use x="208.740234" xlink:href="#DejaVuSans-Bold-54"/>
     <use x="278.320312" xlink:href="#DejaVuSans-Bold-54"/>
     <use x="347.900391" xlink:href="#DejaVuSans-Bold-48"/>
     <use x="417.480469" xlink:href="#DejaVuSans-Bold-46"/>
     <use x="455.46875" xlink:href="#DejaVuSans-Bold-75"/>
     <use x="532.958984" xlink:href="#DejaVuSans-Bold-83"/>
     <use x="604.980469" xlink:href="#DejaVuSans-Bold-32"/>
     <use x="639.794922" xlink:href="#DejaVuSans-Bold-45"/>
     <use x="681.298828" xlink:href="#DejaVuSans-Bold-32"/>
     <use x="716.113281" xlink:href="#DejaVuSans-Bold-52"/>
     <use x="785.693359" xlink:href="#DejaVuSans-Bold-57"/>
     <use x="855.273438" xlink:href="#DejaVuSans-Bold-46"/>
     <use x="893.261719" xlink:href="#DejaVuSans-Bold-55"/>
     <use x="962.841797" xlink:href="#DejaVuSans-Bold-55"/>
     <use x="1032.421875" xlink:href="#DejaVuSans-Bold-37"/>
    </g>
   </g>
  </g>
 </g>
 <defs>
  <clipPath id="pd6b9961fa0">
   <rect height="375.4" width="797.15" x="56.05" y="28.8"/>
  </clipPath>
 </defs>
</svg>
