<?xml version="1.0" encoding="utf-8" standalone="no"?>
<!DOCTYPE svg PUBLIC "-//W3C//DTD SVG 1.1//EN"
  "http://www.w3.org/Graphics/SVG/1.1/DTD/svg11.dtd">
<!-- Created with matplotlib (https://matplotlib.org/) -->
<svg height="432pt" version="1.1" viewBox="0 0 864 432" width="864pt" xmlns="http://www.w3.org/2000/svg" xmlns:xlink="http://www.w3.org/1999/xlink">
 <defs>
  <style type="text/css">
*{stroke-linecap:butt;stroke-linejoin:round;}
  </style>
 </defs>
 <g id="figure_1">
  <g id="patch_1">
   <path d="M 0 432 
L 864 432 
L 864 0 
L 0 0 
z
" style="fill:none;"/>
  </g>
  <g id="axes_1">
   <g id="patch_2">
    <path d="M 132.55 385.2 
L 840.323864 385.2 
L 840.323864 88.8 
L 132.55 88.8 
z
" style="fill:none;"/>
   </g>
   <g id="PolyCollection_1">
    <path clip-path="url(#p24c72d6203)" d="M 164.721539 993.436016 
L 164.721539 385.2 
L 168.218446 375.107591 
L 171.715352 363.669517 
L 175.212259 338.774898 
L 185.702978 332.719432 
L 189.199884 334.737956 
L 192.696791 336.083568 
L 196.193697 297.059598 
L 199.690604 258.708434 
L 213.678229 251.307303 
L 217.175136 262.745377 
L 220.672042 251.307303 
L 224.168949 251.307303 
L 234.659668 262.072571 
L 241.653481 266.782372 
L 245.150387 255.344298 
L 248.647294 216.993134 
L 259.138013 221.030076 
L 262.63492 189.407185 
L 266.131826 194.116986 
L 269.628732 192.771321 
L 273.125639 193.44418 
L 283.616358 221.030076 
L 287.113265 212.283333 
L 290.610171 219.011605 
L 294.107078 226.412684 
L 297.603984 229.104014 
L 308.094703 229.776873 
L 311.59161 233.141009 
L 315.088516 224.394213 
L 318.585423 209.553055 
L 322.082329 216.299036 
L 332.573048 200.108682 
L 336.069955 198.084888 
L 339.566861 206.180065 
L 343.063768 225.743409 
L 346.560674 239.23537 
L 357.051394 249.354341 
L 360.5483 228.441801 
L 364.045206 214.94984 
L 367.542113 223.719615 
L 371.039019 197.41029 
L 381.529739 202.807074 
L 385.026645 198.759486 
L 388.523551 200.78328 
L 392.020458 204.830869 
L 395.517364 216.973634 
L 406.008084 224.394213 
L 409.50499 228.441801 
L 413.001897 231.140193 
L 416.498803 156.934405 
L 419.995709 129.950482 
L 430.486429 160.981994 
L 433.983335 149.513827 
L 437.480242 187.291319 
L 440.977148 183.918328 
L 444.474055 183.24373 
L 454.964774 171.100965 
L 458.46168 193.362701 
L 461.958587 194.037299 
L 465.455493 194.037299 
L 468.9524 215.624438 
L 479.443119 218.32283 
L 486.436932 212.251447 
L 489.933838 218.997428 
L 493.430745 202.807074 
L 503.921464 208.203859 
L 507.41837 207.529261 
L 510.915277 210.902251 
L 514.412183 177.846946 
L 517.90909 207.529261 
L 528.399809 211.576849 
L 531.896716 193.362701 
L 535.393622 187.965917 
L 538.890528 171.775563 
L 542.387435 183.918328 
L 552.878154 189.315113 
L 556.375061 187.965917 
L 559.871967 196.061094 
L 563.368874 194.037299 
L 566.86578 226.418007 
L 577.356499 211.576849 
L 580.853406 206.180065 
L 584.350312 194.037299 
L 587.847219 169.077171 
L 591.344125 167.727975 
L 601.834844 190.664309 
L 605.331751 189.315113 
L 608.828657 197.41029 
L 612.325564 207.529261 
L 615.82247 202.132476 
L 626.313189 204.156271 
L 629.810096 217.648232 
L 633.307002 219.672026 
L 657.785347 214.94984 
L 661.282254 182.569132 
L 664.77916 181.219936 
L 678.766786 187.291319 
L 682.263693 189.315113 
L 685.760599 155.585209 
L 689.257505 152.212219 
L 699.748225 156.259807 
L 703.245131 116.458521 
L 706.742038 116.458521 
L 710.238944 145.466238 
L 713.73585 142.093248 
L 724.22657 156.934405 
L 727.723476 138.045659 
L 731.220383 133.323473 
L 734.717289 183.918328 
L 738.214196 189.989711 
L 748.704915 189.989711 
L 752.201821 208.878457 
L 755.698728 181.894534 
L 759.195634 148.16463 
L 762.692541 144.79164 
L 773.18326 96.220579 
L 776.680166 113.760129 
L 780.177073 132.648875 
L 783.673979 129.950482 
L 787.170886 113.085531 
L 797.661605 104.315756 
L 801.158511 116.458521 
L 804.655418 88.8 
L 808.152324 100.942765 
L 808.152324 993.436016 
L 808.152324 993.436016 
L 804.655418 993.436016 
L 801.158511 993.436016 
L 797.661605 993.436016 
L 787.170886 993.436016 
L 783.673979 993.436016 
L 780.177073 993.436016 
L 776.680166 993.436016 
L 773.18326 993.436016 
L 762.692541 993.436016 
L 759.195634 993.436016 
L 755.698728 993.436016 
L 752.201821 993.436016 
L 748.704915 993.436016 
L 738.214196 993.436016 
L 734.717289 993.436016 
L 731.220383 993.436016 
L 727.723476 993.436016 
L 724.22657 993.436016 
L 713.73585 993.436016 
L 710.238944 993.436016 
L 706.742038 993.436016 
L 703.245131 993.436016 
L 699.748225 993.436016 
L 689.257505 993.436016 
L 685.760599 993.436016 
L 682.263693 993.436016 
L 678.766786 993.436016 
L 664.77916 993.436016 
L 661.282254 993.436016 
L 657.785347 993.436016 
L 633.307002 993.436016 
L 629.810096 993.436016 
L 626.313189 993.436016 
L 615.82247 993.436016 
L 612.325564 993.436016 
L 608.828657 993.436016 
L 605.331751 993.436016 
L 601.834844 993.436016 
L 591.344125 993.436016 
L 587.847219 993.436016 
L 584.350312 993.436016 
L 580.853406 993.436016 
L 577.356499 993.436016 
L 566.86578 993.436016 
L 563.368874 993.436016 
L 559.871967 993.436016 
L 556.375061 993.436016 
L 552.878154 993.436016 
L 542.387435 993.436016 
L 538.890528 993.436016 
L 535.393622 993.436016 
L 531.896716 993.436016 
L 528.399809 993.436016 
L 517.90909 993.436016 
L 514.412183 993.436016 
L 510.915277 993.436016 
L 507.41837 993.436016 
L 503.921464 993.436016 
L 493.430745 993.436016 
L 489.933838 993.436016 
L 486.436932 993.436016 
L 479.443119 993.436016 
L 468.9524 993.436016 
L 465.455493 993.436016 
L 461.958587 993.436016 
L 458.46168 993.436016 
L 454.964774 993.436016 
L 444.474055 993.436016 
L 440.977148 993.436016 
L 437.480242 993.436016 
L 433.983335 993.436016 
L 430.486429 993.436016 
L 419.995709 993.436016 
L 416.498803 993.436016 
L 413.001897 993.436016 
L 409.50499 993.436016 
L 406.008084 993.436016 
L 395.517364 993.436016 
L 392.020458 993.436016 
L 388.523551 993.436016 
L 385.026645 993.436016 
L 381.529739 993.436016 
L 371.039019 993.436016 
L 367.542113 993.436016 
L 364.045206 993.436016 
L 360.5483 993.436016 
L 357.051394 993.436016 
L 346.560674 993.436016 
L 343.063768 993.436016 
L 339.566861 993.436016 
L 336.069955 993.436016 
L 332.573048 993.436016 
L 322.082329 993.436016 
L 318.585423 993.436016 
L 315.088516 993.436016 
L 311.59161 993.436016 
L 308.094703 993.436016 
L 297.603984 993.436016 
L 294.107078 993.436016 
L 290.610171 993.436016 
L 287.113265 993.436016 
L 283.616358 993.436016 
L 273.125639 993.436016 
L 269.628732 993.436016 
L 266.131826 993.436016 
L 262.63492 993.436016 
L 259.138013 993.436016 
L 248.647294 993.436016 
L 245.150387 993.436016 
L 241.653481 993.436016 
L 234.659668 993.436016 
L 224.168949 993.436016 
L 220.672042 993.436016 
L 217.175136 993.436016 
L 213.678229 993.436016 
L 199.690604 993.436016 
L 196.193697 993.436016 
L 192.696791 993.436016 
L 189.199884 993.436016 
L 185.702978 993.436016 
L 175.212259 993.436016 
L 171.715352 993.436016 
L 168.218446 993.436016 
L 164.721539 993.436016 
z
" style="fill:#0000ff;fill-opacity:0.1;stroke:#0000ff;stroke-opacity:0.1;"/>
   </g>
   <g id="matplotlib.axis_1">
    <g id="xtick_1">
     <g id="line2d_1">
      <defs>
       <path d="M 0 0 
L 0 3.5 
" id="mdd548330c0" style="stroke:#000000;stroke-width:0.8;"/>
      </defs>
      <g>
       <use style="stroke:#000000;stroke-width:0.8;" x="164.721539" xlink:href="#mdd548330c0" y="385.2"/>
      </g>
     </g>
     <g id="text_1">
      <!-- 05/23 -->
      <defs>
       <path d="M 31.78125 66.40625 
Q 24.171875 66.40625 20.328125 58.90625 
Q 16.5 51.421875 16.5 36.375 
Q 16.5 21.390625 20.328125 13.890625 
Q 24.171875 6.390625 31.78125 6.390625 
Q 39.453125 6.390625 43.28125 13.890625 
Q 47.125 21.390625 47.125 36.375 
Q 47.125 51.421875 43.28125 58.90625 
Q 39.453125 66.40625 31.78125 66.40625 
z
M 31.78125 74.21875 
Q 44.046875 74.21875 50.515625 64.515625 
Q 56.984375 54.828125 56.984375 36.375 
Q 56.984375 17.96875 50.515625 8.265625 
Q 44.046875 -1.421875 31.78125 -1.421875 
Q 19.53125 -1.421875 13.0625 8.265625 
Q 6.59375 17.96875 6.59375 36.375 
Q 6.59375 54.828125 13.0625 64.515625 
Q 19.53125 74.21875 31.78125 74.21875 
z
" id="DejaVuSans-48"/>
       <path d="M 10.796875 72.90625 
L 49.515625 72.90625 
L 49.515625 64.59375 
L 19.828125 64.59375 
L 19.828125 46.734375 
Q 21.96875 47.46875 24.109375 47.828125 
Q 26.265625 48.1875 28.421875 48.1875 
Q 40.625 48.1875 47.75 41.5 
Q 54.890625 34.8125 54.890625 23.390625 
Q 54.890625 11.625 47.5625 5.09375 
Q 40.234375 -1.421875 26.90625 -1.421875 
Q 22.3125 -1.421875 17.546875 -0.640625 
Q 12.796875 0.140625 7.71875 1.703125 
L 7.71875 11.625 
Q 12.109375 9.234375 16.796875 8.0625 
Q 21.484375 6.890625 26.703125 6.890625 
Q 35.15625 6.890625 40.078125 11.328125 
Q 45.015625 15.765625 45.015625 23.390625 
Q 45.015625 31 40.078125 35.4375 
Q 35.15625 39.890625 26.703125 39.890625 
Q 22.75 39.890625 18.8125 39.015625 
Q 14.890625 38.140625 10.796875 36.28125 
z
" id="DejaVuSans-53"/>
       <path d="M 25.390625 72.90625 
L 33.6875 72.90625 
L 8.296875 -9.28125 
L 0 -9.28125 
z
" id="DejaVuSans-47"/>
       <path d="M 19.1875 8.296875 
L 53.609375 8.296875 
L 53.609375 0 
L 7.328125 0 
L 7.328125 8.296875 
Q 12.9375 14.109375 22.625 23.890625 
Q 32.328125 33.6875 34.8125 36.53125 
Q 39.546875 41.84375 41.421875 45.53125 
Q 43.3125 49.21875 43.3125 52.78125 
Q 43.3125 58.59375 39.234375 62.25 
Q 35.15625 65.921875 28.609375 65.921875 
Q 23.96875 65.921875 18.8125 64.3125 
Q 13.671875 62.703125 7.8125 59.421875 
L 7.8125 69.390625 
Q 13.765625 71.78125 18.9375 73 
Q 24.125 74.21875 28.421875 74.21875 
Q 39.75 74.21875 46.484375 68.546875 
Q 53.21875 62.890625 53.21875 53.421875 
Q 53.21875 48.921875 51.53125 44.890625 
Q 49.859375 40.875 45.40625 35.40625 
Q 44.1875 33.984375 37.640625 27.21875 
Q 31.109375 20.453125 19.1875 8.296875 
z
" id="DejaVuSans-50"/>
       <path d="M 40.578125 39.3125 
Q 47.65625 37.796875 51.625 33 
Q 55.609375 28.21875 55.609375 21.1875 
Q 55.609375 10.40625 48.1875 4.484375 
Q 40.765625 -1.421875 27.09375 -1.421875 
Q 22.515625 -1.421875 17.65625 -0.515625 
Q 12.796875 0.390625 7.625 2.203125 
L 7.625 11.71875 
Q 11.71875 9.328125 16.59375 8.109375 
Q 21.484375 6.890625 26.8125 6.890625 
Q 36.078125 6.890625 40.9375 10.546875 
Q 45.796875 14.203125 45.796875 21.1875 
Q 45.796875 27.640625 41.28125 31.265625 
Q 36.765625 34.90625 28.71875 34.90625 
L 20.21875 34.90625 
L 20.21875 43.015625 
L 29.109375 43.015625 
Q 36.375 43.015625 40.234375 45.921875 
Q 44.09375 48.828125 44.09375 54.296875 
Q 44.09375 59.90625 40.109375 62.90625 
Q 36.140625 65.921875 28.71875 65.921875 
Q 24.65625 65.921875 20.015625 65.03125 
Q 15.375 64.15625 9.8125 62.3125 
L 9.8125 71.09375 
Q 15.4375 72.65625 20.34375 73.4375 
Q 25.25 74.21875 29.59375 74.21875 
Q 40.828125 74.21875 47.359375 69.109375 
Q 53.90625 64.015625 53.90625 55.328125 
Q 53.90625 49.265625 50.4375 45.09375 
Q 46.96875 40.921875 40.578125 39.3125 
z
" id="DejaVuSans-51"/>
      </defs>
      <g transform="translate(121.493414 414.995312)scale(0.3 -0.3)">
       <use xlink:href="#DejaVuSans-48"/>
       <use x="63.623047" xlink:href="#DejaVuSans-53"/>
       <use x="127.246094" xlink:href="#DejaVuSans-47"/>
       <use x="160.9375" xlink:href="#DejaVuSans-50"/>
       <use x="224.560547" xlink:href="#DejaVuSans-51"/>
      </g>
     </g>
    </g>
    <g id="xtick_2">
     <g id="line2d_2">
      <g>
       <use style="stroke:#000000;stroke-width:0.8;" x="479.443119" xlink:href="#mdd548330c0" y="385.2"/>
      </g>
     </g>
     <g id="text_2">
      <!-- 08/23 -->
      <defs>
       <path d="M 31.78125 34.625 
Q 24.75 34.625 20.71875 30.859375 
Q 16.703125 27.09375 16.703125 20.515625 
Q 16.703125 13.921875 20.71875 10.15625 
Q 24.75 6.390625 31.78125 6.390625 
Q 38.8125 6.390625 42.859375 10.171875 
Q 46.921875 13.96875 46.921875 20.515625 
Q 46.921875 27.09375 42.890625 30.859375 
Q 38.875 34.625 31.78125 34.625 
z
M 21.921875 38.8125 
Q 15.578125 40.375 12.03125 44.71875 
Q 8.5 49.078125 8.5 55.328125 
Q 8.5 64.0625 14.71875 69.140625 
Q 20.953125 74.21875 31.78125 74.21875 
Q 42.671875 74.21875 48.875 69.140625 
Q 55.078125 64.0625 55.078125 55.328125 
Q 55.078125 49.078125 51.53125 44.71875 
Q 48 40.375 41.703125 38.8125 
Q 48.828125 37.15625 52.796875 32.3125 
Q 56.78125 27.484375 56.78125 20.515625 
Q 56.78125 9.90625 50.3125 4.234375 
Q 43.84375 -1.421875 31.78125 -1.421875 
Q 19.734375 -1.421875 13.25 4.234375 
Q 6.78125 9.90625 6.78125 20.515625 
Q 6.78125 27.484375 10.78125 32.3125 
Q 14.796875 37.15625 21.921875 38.8125 
z
M 18.3125 54.390625 
Q 18.3125 48.734375 21.84375 45.5625 
Q 25.390625 42.390625 31.78125 42.390625 
Q 38.140625 42.390625 41.71875 45.5625 
Q 45.3125 48.734375 45.3125 54.390625 
Q 45.3125 60.0625 41.71875 63.234375 
Q 38.140625 66.40625 31.78125 66.40625 
Q 25.390625 66.40625 21.84375 63.234375 
Q 18.3125 60.0625 18.3125 54.390625 
z
" id="DejaVuSans-56"/>
      </defs>
      <g transform="translate(436.214994 414.995312)scale(0.3 -0.3)">
       <use xlink:href="#DejaVuSans-48"/>
       <use x="63.623047" xlink:href="#DejaVuSans-56"/>
       <use x="127.246094" xlink:href="#DejaVuSans-47"/>
       <use x="160.9375" xlink:href="#DejaVuSans-50"/>
       <use x="224.560547" xlink:href="#DejaVuSans-51"/>
      </g>
     </g>
    </g>
    <g id="xtick_3">
     <g id="line2d_3">
      <g>
       <use style="stroke:#000000;stroke-width:0.8;" x="808.152324" xlink:href="#mdd548330c0" y="385.2"/>
      </g>
     </g>
     <g id="text_3">
      <!-- 11/23 -->
      <defs>
       <path d="M 12.40625 8.296875 
L 28.515625 8.296875 
L 28.515625 63.921875 
L 10.984375 60.40625 
L 10.984375 69.390625 
L 28.421875 72.90625 
L 38.28125 72.90625 
L 38.28125 8.296875 
L 54.390625 8.296875 
L 54.390625 0 
L 12.40625 0 
z
" id="DejaVuSans-49"/>
      </defs>
      <g transform="translate(764.924199 414.995312)scale(0.3 -0.3)">
       <use xlink:href="#DejaVuSans-49"/>
       <use x="63.623047" xlink:href="#DejaVuSans-49"/>
       <use x="127.246094" xlink:href="#DejaVuSans-47"/>
       <use x="160.9375" xlink:href="#DejaVuSans-50"/>
       <use x="224.560547" xlink:href="#DejaVuSans-51"/>
      </g>
     </g>
    </g>
   </g>
   <g id="matplotlib.axis_2">
    <g id="ytick_1">
     <g id="line2d_4">
      <defs>
       <path d="M 0 0 
L -3.5 0 
" id="m2e5e2526b2" style="stroke:#000000;stroke-width:0.8;"/>
      </defs>
      <g>
       <use style="stroke:#000000;stroke-width:0.8;" x="132.55" xlink:href="#m2e5e2526b2" y="285.108039"/>
      </g>
     </g>
     <g id="text_4">
      <!-- 105000 -->
      <g transform="translate(11.025 296.505696)scale(0.3 -0.3)">
       <use xlink:href="#DejaVuSans-49"/>
       <use x="63.623047" xlink:href="#DejaVuSans-48"/>
       <use x="127.246094" xlink:href="#DejaVuSans-53"/>
       <use x="190.869141" xlink:href="#DejaVuSans-48"/>
       <use x="254.492188" xlink:href="#DejaVuSans-48"/>
       <use x="318.115234" xlink:href="#DejaVuSans-48"/>
      </g>
     </g>
    </g>
    <g id="ytick_2">
     <g id="line2d_5">
      <g>
       <use style="stroke:#000000;stroke-width:0.8;" x="132.55" xlink:href="#m2e5e2526b2" y="183.918328"/>
      </g>
     </g>
     <g id="text_5">
      <!-- 120000 -->
      <g transform="translate(11.025 195.315985)scale(0.3 -0.3)">
       <use xlink:href="#DejaVuSans-49"/>
       <use x="63.623047" xlink:href="#DejaVuSans-50"/>
       <use x="127.246094" xlink:href="#DejaVuSans-48"/>
       <use x="190.869141" xlink:href="#DejaVuSans-48"/>
       <use x="254.492188" xlink:href="#DejaVuSans-48"/>
       <use x="318.115234" xlink:href="#DejaVuSans-48"/>
      </g>
     </g>
    </g>
   </g>
   <g id="line2d_6">
    <path clip-path="url(#p24c72d6203)" d="M 164.721539 385.2 
L 168.218446 375.107591 
L 171.715352 363.669517 
L 175.212259 338.774898 
L 185.702978 332.719432 
L 189.199884 334.737956 
L 192.696791 336.083568 
L 196.193697 297.059598 
L 199.690604 258.708434 
L 213.678229 251.307303 
L 217.175136 262.745377 
L 220.672042 251.307303 
L 224.168949 251.307303 
L 234.659668 262.072571 
L 241.653481 266.782372 
L 245.150387 255.344298 
L 248.647294 216.993134 
L 259.138013 221.030076 
L 262.63492 189.407185 
L 266.131826 194.116986 
L 269.628732 192.771321 
L 273.125639 193.44418 
L 283.616358 221.030076 
L 287.113265 212.283333 
L 290.610171 219.011605 
L 294.107078 226.412684 
L 297.603984 229.104014 
L 308.094703 229.776873 
L 311.59161 233.141009 
L 315.088516 224.394213 
L 318.585423 209.553055 
L 322.082329 216.299036 
L 332.573048 200.108682 
L 336.069955 198.084888 
L 339.566861 206.180065 
L 343.063768 225.743409 
L 346.560674 239.23537 
L 357.051394 249.354341 
L 360.5483 228.441801 
L 364.045206 214.94984 
L 367.542113 223.719615 
L 371.039019 197.41029 
L 381.529739 202.807074 
L 385.026645 198.759486 
L 388.523551 200.78328 
L 392.020458 204.830869 
L 395.517364 216.973634 
L 406.008084 224.394213 
L 409.50499 228.441801 
L 413.001897 231.140193 
L 416.498803 156.934405 
L 419.995709 129.950482 
L 430.486429 160.981994 
L 433.983335 149.513827 
L 437.480242 187.291319 
L 440.977148 183.918328 
L 444.474055 183.24373 
L 454.964774 171.100965 
L 458.46168 193.362701 
L 461.958587 194.037299 
L 465.455493 194.037299 
L 468.9524 215.624438 
L 479.443119 218.32283 
L 486.436932 212.251447 
L 489.933838 218.997428 
L 493.430745 202.807074 
L 503.921464 208.203859 
L 507.41837 207.529261 
L 510.915277 210.902251 
L 514.412183 177.846946 
L 517.90909 207.529261 
L 528.399809 211.576849 
L 531.896716 193.362701 
L 535.393622 187.965917 
L 538.890528 171.775563 
L 542.387435 183.918328 
L 552.878154 189.315113 
L 556.375061 187.965917 
L 559.871967 196.061094 
L 563.368874 194.037299 
L 566.86578 226.418007 
L 577.356499 211.576849 
L 580.853406 206.180065 
L 584.350312 194.037299 
L 587.847219 169.077171 
L 591.344125 167.727975 
L 601.834844 190.664309 
L 605.331751 189.315113 
L 608.828657 197.41029 
L 612.325564 207.529261 
L 615.82247 202.132476 
L 626.313189 204.156271 
L 629.810096 217.648232 
L 633.307002 219.672026 
L 657.785347 214.94984 
L 661.282254 182.569132 
L 664.77916 181.219936 
L 678.766786 187.291319 
L 682.263693 189.315113 
L 685.760599 155.585209 
L 689.257505 152.212219 
L 699.748225 156.259807 
L 703.245131 116.458521 
L 706.742038 116.458521 
L 710.238944 145.466238 
L 713.73585 142.093248 
L 724.22657 156.934405 
L 727.723476 138.045659 
L 731.220383 133.323473 
L 734.717289 183.918328 
L 738.214196 189.989711 
L 748.704915 189.989711 
L 752.201821 208.878457 
L 755.698728 181.894534 
L 759.195634 148.16463 
L 762.692541 144.79164 
L 773.18326 96.220579 
L 776.680166 113.760129 
L 780.177073 132.648875 
L 783.673979 129.950482 
L 787.170886 113.085531 
L 797.661605 104.315756 
L 801.158511 116.458521 
L 804.655418 88.8 
L 808.152324 100.942765 
" style="fill:none;stroke:#000000;stroke-linecap:square;stroke-width:4;"/>
   </g>
   <g id="patch_3">
    <path d="M 132.55 385.2 
L 132.55 88.8 
" style="fill:none;stroke:#000000;stroke-linecap:square;stroke-linejoin:miter;stroke-width:0.8;"/>
   </g>
   <g id="patch_4">
    <path d="M 132.55 385.2 
L 840.323864 385.2 
" style="fill:none;stroke:#000000;stroke-linecap:square;stroke-linejoin:miter;stroke-width:0.8;"/>
   </g>
   <g id="text_6">
    <!-- 000660   46% -->
    <defs>
     <path d="M 46 36.53125 
Q 46 50.203125 43.4375 55.78125 
Q 40.875 61.375 34.8125 61.375 
Q 28.765625 61.375 26.171875 55.78125 
Q 23.578125 50.203125 23.578125 36.53125 
Q 23.578125 22.703125 26.171875 17.03125 
Q 28.765625 11.375 34.8125 11.375 
Q 40.828125 11.375 43.40625 17.03125 
Q 46 22.703125 46 36.53125 
z
M 64.796875 36.375 
Q 64.796875 18.265625 56.984375 8.421875 
Q 49.171875 -1.421875 34.8125 -1.421875 
Q 20.40625 -1.421875 12.59375 8.421875 
Q 4.78125 18.265625 4.78125 36.375 
Q 4.78125 54.546875 12.59375 64.375 
Q 20.40625 74.21875 34.8125 74.21875 
Q 49.171875 74.21875 56.984375 64.375 
Q 64.796875 54.546875 64.796875 36.375 
z
" id="DejaVuSans-Bold-48"/>
     <path d="M 36.1875 35.984375 
Q 31.25 35.984375 28.78125 32.78125 
Q 26.3125 29.59375 26.3125 23.1875 
Q 26.3125 16.796875 28.78125 13.59375 
Q 31.25 10.40625 36.1875 10.40625 
Q 41.15625 10.40625 43.625 13.59375 
Q 46.09375 16.796875 46.09375 23.1875 
Q 46.09375 29.59375 43.625 32.78125 
Q 41.15625 35.984375 36.1875 35.984375 
z
M 59.421875 71 
L 59.421875 57.515625 
Q 54.78125 59.71875 50.671875 60.765625 
Q 46.578125 61.8125 42.671875 61.8125 
Q 34.28125 61.8125 29.59375 57.140625 
Q 24.90625 52.484375 24.125 43.3125 
Q 27.34375 45.703125 31.09375 46.890625 
Q 34.859375 48.09375 39.3125 48.09375 
Q 50.484375 48.09375 57.34375 41.546875 
Q 64.203125 35.015625 64.203125 24.421875 
Q 64.203125 12.703125 56.53125 5.640625 
Q 48.875 -1.421875 35.984375 -1.421875 
Q 21.78125 -1.421875 13.984375 8.171875 
Q 6.203125 17.78125 6.203125 35.40625 
Q 6.203125 53.46875 15.3125 63.796875 
Q 24.421875 74.125 40.28125 74.125 
Q 45.3125 74.125 50.046875 73.34375 
Q 54.78125 72.5625 59.421875 71 
z
" id="DejaVuSans-Bold-54"/>
     <path id="DejaVuSans-Bold-32"/>
     <path d="M 36.8125 57.421875 
L 16.21875 26.90625 
L 36.8125 26.90625 
z
M 33.6875 72.90625 
L 54.59375 72.90625 
L 54.59375 26.90625 
L 64.984375 26.90625 
L 64.984375 13.28125 
L 54.59375 13.28125 
L 54.59375 0 
L 36.8125 0 
L 36.8125 13.28125 
L 4.5 13.28125 
L 4.5 29.390625 
z
" id="DejaVuSans-Bold-52"/>
     <path d="M 77.484375 30.078125 
Q 74.03125 30.078125 72.125 27.078125 
Q 70.21875 24.078125 70.21875 18.5 
Q 70.21875 12.890625 72.09375 9.890625 
Q 73.96875 6.890625 77.484375 6.890625 
Q 81 6.890625 82.859375 9.890625 
Q 84.71875 12.890625 84.71875 18.5 
Q 84.71875 24.078125 82.828125 27.078125 
Q 80.953125 30.078125 77.484375 30.078125 
z
M 77.484375 38.28125 
Q 86.578125 38.28125 91.796875 33 
Q 97.015625 27.734375 97.015625 18.5 
Q 97.015625 9.28125 91.796875 3.921875 
Q 86.578125 -1.421875 77.484375 -1.421875 
Q 68.40625 -1.421875 63.15625 3.921875 
Q 57.90625 9.28125 57.90625 18.5 
Q 57.90625 27.6875 63.15625 32.984375 
Q 68.40625 38.28125 77.484375 38.28125 
z
M 32.71875 -1.421875 
L 21.921875 -1.421875 
L 67.484375 74.21875 
L 78.328125 74.21875 
z
M 22.703125 74.21875 
Q 31.78125 74.21875 36.984375 68.921875 
Q 42.1875 63.625 42.1875 54.390625 
Q 42.1875 45.171875 36.984375 39.84375 
Q 31.78125 34.515625 22.703125 34.515625 
Q 13.625 34.515625 8.421875 39.84375 
Q 3.21875 45.171875 3.21875 54.390625 
Q 3.21875 63.625 8.421875 68.921875 
Q 13.625 74.21875 22.703125 74.21875 
z
M 22.703125 66.015625 
Q 19.1875 66.015625 17.28125 62.984375 
Q 15.375 59.96875 15.375 54.390625 
Q 15.375 48.78125 17.28125 45.71875 
Q 19.1875 42.671875 22.703125 42.671875 
Q 26.21875 42.671875 28.09375 45.71875 
Q 29.984375 48.78125 29.984375 54.390625 
Q 29.984375 59.96875 28.078125 62.984375 
Q 26.171875 66.015625 22.703125 66.015625 
z
" id="DejaVuSans-Bold-37"/>
    </defs>
    <g transform="translate(132.55 72.1625)scale(0.8 -0.8)">
     <use xlink:href="#DejaVuSans-Bold-48"/>
     <use x="69.580078" xlink:href="#DejaVuSans-Bold-48"/>
     <use x="139.160156" xlink:href="#DejaVuSans-Bold-48"/>
     <use x="208.740234" xlink:href="#DejaVuSans-Bold-54"/>
     <use x="278.320312" xlink:href="#DejaVuSans-Bold-54"/>
     <use x="347.900391" xlink:href="#DejaVuSans-Bold-48"/>
     <use x="417.480469" xlink:href="#DejaVuSans-Bold-32"/>
     <use x="452.294922" xlink:href="#DejaVuSans-Bold-32"/>
     <use x="487.109375" xlink:href="#DejaVuSans-Bold-32"/>
     <use x="521.923828" xlink:href="#DejaVuSans-Bold-52"/>
     <use x="591.503906" xlink:href="#DejaVuSans-Bold-54"/>
     <use x="661.083984" xlink:href="#DejaVuSans-Bold-37"/>
    </g>
   </g>
  </g>
 </g>
 <defs>
  <clipPath id="p24c72d6203">
   <rect height="296.4" width="707.773864" x="132.55" y="88.8"/>
  </clipPath>
 </defs>
</svg>
