<?xml version="1.0" encoding="utf-8" standalone="no"?>
<!DOCTYPE svg PUBLIC "-//W3C//DTD SVG 1.1//EN"
  "http://www.w3.org/Graphics/SVG/1.1/DTD/svg11.dtd">
<!-- Created with matplotlib (https://matplotlib.org/) -->
<svg height="432pt" version="1.1" viewBox="0 0 576 432" width="576pt" xmlns="http://www.w3.org/2000/svg" xmlns:xlink="http://www.w3.org/1999/xlink">
 <defs>
  <style type="text/css">
*{stroke-linecap:butt;stroke-linejoin:round;}
  </style>
 </defs>
 <g id="figure_1">
  <g id="patch_1">
   <path d="M 0 432 
L 576 432 
L 576 0 
L 0 0 
z
" style="fill:#ffffff;"/>
  </g>
  <g id="axes_1">
   <g id="patch_2">
    <path d="M 56.05 404.2 
L 565.2 404.2 
L 565.2 31.8 
L 56.05 31.8 
z
" style="fill:#ffffff;"/>
   </g>
   <g id="PolyCollection_1">
    <defs>
     <path d="M 79.193182 -44.727273 
L 79.193182 -288.710991 
L 80.461301 -295.929444 
L 84.26566 -288.710991 
L 85.53378 -300.982361 
L 86.801899 -304.591588 
L 88.070019 -298.816825 
L 89.338138 -324.081411 
L 93.142497 -316.862958 
L 94.410616 -321.915875 
L 95.678736 -318.306649 
L 96.946856 -316.141113 
L 98.214975 -312.531886 
L 102.019334 -308.200814 
L 103.287453 -305.313433 
L 104.555573 -306.757123 
L 105.823692 -316.141113 
L 107.091812 -311.810041 
L 110.896171 -305.313433 
L 112.16429 -308.200814 
L 113.43241 -314.697422 
L 114.700529 -315.419267 
L 115.968649 -312.531886 
L 119.773007 -321.19403 
L 121.041127 -312.531886 
L 122.309247 -309.644505 
L 123.577366 -312.531886 
L 124.845486 -326.246947 
L 128.649844 -323.359566 
L 129.917964 -323.359566 
L 131.186083 -324.081411 
L 132.454203 -308.200814 
L 133.722323 -305.313433 
L 137.526681 -309.644505 
L 138.794801 -305.313433 
L 140.06292 -304.591588 
L 141.33104 -311.088195 
L 142.599159 -301.704206 
L 146.403518 -302.426052 
L 147.671638 -306.035278 
L 148.939757 -304.591588 
L 150.207877 -300.982361 
L 155.280355 -303.869742 
L 156.548474 -302.426052 
L 157.816594 -308.200814 
L 159.084714 -313.253731 
L 160.352833 -311.810041 
L 164.157192 -328.412483 
L 165.425311 -323.359566 
L 166.693431 -326.246947 
L 167.96155 -324.803256 
L 169.22967 -326.246947 
L 173.034029 -334.187246 
L 174.302148 -324.081411 
L 175.570268 -326.968792 
L 176.838387 -327.690638 
L 178.106507 -327.690638 
L 184.447105 -336.352782 
L 185.715224 -336.352782 
L 186.983344 -350.067843 
L 190.787702 -343.571235 
L 192.055822 -343.571235 
L 193.323941 -341.405699 
L 194.592061 -341.405699 
L 195.860181 -350.067843 
L 199.664539 -355.842605 
L 200.932659 -361.617368 
L 202.200778 -377.497965 
L 203.468898 -376.776119 
L 204.737017 -376.776119 
L 208.541376 -366.670285 
L 209.809496 -368.113976 
L 211.077615 -355.842605 
L 212.345735 -363.061058 
L 213.613854 -355.842605 
L 217.418213 -360.895522 
L 218.686333 -355.842605 
L 219.954452 -350.067843 
L 221.222572 -352.955224 
L 222.490691 -345.014925 
L 226.29505 -345.014925 
L 227.563169 -345.736771 
L 230.099408 -342.127544 
L 231.367528 -341.405699 
L 235.171887 -354.398915 
L 236.440006 -349.345997 
L 237.708126 -337.074627 
L 238.976245 -336.352782 
L 240.244365 -333.176662 
L 244.048724 -337.074627 
L 245.316843 -327.690638 
L 246.584963 -328.268114 
L 247.853082 -329.278697 
L 249.121202 -330.578019 
L 252.92556 -335.630936 
L 254.19368 -334.187246 
L 255.4618 -343.571235 
L 256.729919 -339.240163 
L 257.998039 -337.074627 
L 261.802397 -332.454817 
L 263.070517 -332.743555 
L 264.338636 -332.166079 
L 265.606756 -334.909091 
L 266.874875 -336.352782 
L 270.679234 -330.866757 
L 271.947354 -334.909091 
L 273.215473 -332.310448 
L 274.483593 -321.771506 
L 275.751712 -323.937042 
L 279.556071 -323.359566 
L 280.824191 -333.321031 
L 282.09231 -330.578019 
L 283.36043 -328.268114 
L 284.628549 -332.02171 
L 288.432908 -329.134328 
L 289.701027 -323.070828 
L 290.969147 -321.049661 
L 292.237267 -321.338399 
L 293.505386 -319.461601 
L 297.309745 -319.028494 
L 298.577864 -313.3981 
L 299.845984 -316.285482 
L 301.114103 -316.429851 
L 302.382223 -322.348982 
L 307.454701 -323.648304 
L 308.722821 -322.78209 
L 309.99094 -327.835007 
L 315.063418 -343.571235 
L 316.331538 -349.345997 
L 317.599658 -347.902307 
L 318.867777 -349.345997 
L 320.135897 -352.955224 
L 323.940255 -350.789688 
L 325.208375 -344.29308 
L 326.476494 -352.233379 
L 327.744614 -351.511533 
L 329.012733 -357.286296 
L 332.817092 -355.12076 
L 334.085212 -350.789688 
L 335.353331 -337.796472 
L 336.621451 -342.127544 
L 337.88957 -337.074627 
L 342.962049 -335.630936 
L 344.230168 -332.743555 
L 345.498288 -339.240163 
L 346.766407 -339.962008 
L 350.570766 -339.962008 
L 353.107005 -340.683853 
L 354.375125 -334.187246 
L 355.643244 -334.187246 
L 359.447603 -334.187246 
L 360.715722 -334.909091 
L 361.983842 -332.310448 
L 363.251961 -334.187246 
L 364.520081 -337.074627 
L 368.32444 -331.444233 
L 369.592559 -331.299864 
L 370.860679 -318.884125 
L 372.128798 -320.905292 
L 373.396918 -317.440434 
L 377.201276 -317.440434 
L 378.469396 -313.109362 
L 379.737516 -311.521303 
L 381.005635 -309.500136 
L 382.273755 -308.633921 
L 386.078113 -318.01791 
L 387.346233 -317.151696 
L 388.614352 -313.975577 
L 389.882472 -326.968792 
L 391.150592 -326.246947 
L 394.95495 -323.648304 
L 396.22307 -329.711805 
L 397.491189 -336.352782 
L 398.759309 -333.032293 
L 400.027428 -339.962008 
L 403.831787 -342.849389 
L 405.099907 -346.458616 
L 406.368026 -339.962008 
L 407.636146 -339.962008 
L 408.904265 -342.127544 
L 412.708624 -337.796472 
L 413.976743 -334.909091 
L 415.244863 -330.144912 
L 416.512983 -350.067843 
L 417.781102 -349.345997 
L 421.585461 -372.445047 
L 422.85358 -381.107191 
L 424.1217 -373.166893 
L 425.389819 -366.670285 
L 426.657939 -367.39213 
L 430.462298 -383.272727 
L 431.730417 -366.670285 
L 432.998537 -373.166893 
L 434.266656 -369.557666 
L 435.534776 -365.226594 
L 439.339134 -363.782904 
L 441.875374 -365.94844 
L 443.143493 -359.451832 
L 444.411613 -351.511533 
L 448.215971 -354.398915 
L 449.484091 -363.782904 
L 450.75221 -355.842605 
L 452.02033 -375.332429 
L 453.28845 -349.345997 
L 457.092808 -352.955224 
L 458.360928 -359.451832 
L 459.629047 -358.729986 
L 460.897167 -354.398915 
L 462.165286 -354.398915 
L 465.969645 -350.067843 
L 467.237765 -350.789688 
L 468.505884 -353.677069 
L 469.774004 -357.286296 
L 471.042123 -355.12076 
L 474.846482 -350.067843 
L 476.114601 -361.617368 
L 477.382721 -365.226594 
L 478.650841 -370.279512 
L 479.91896 -376.054274 
L 483.723319 -364.504749 
L 484.991438 -361.617368 
L 486.259558 -358.729986 
L 487.527677 -347.902307 
L 488.795797 -345.014925 
L 492.600156 -342.849389 
L 493.868275 -334.909091 
L 495.136395 -335.630936 
L 504.013232 -320.760923 
L 505.281351 -318.16228 
L 506.549471 -320.327815 
L 511.621949 -320.760923 
L 512.890068 -323.359566 
L 514.158188 -324.22578 
L 515.426308 -321.627137 
L 519.230666 -318.595387 
L 520.498786 -316.862958 
L 521.766905 -313.686839 
L 523.035025 -306.612754 
L 524.303144 -304.880326 
L 528.107503 -302.137313 
L 529.375623 -314.697422 
L 530.643742 -317.729172 
L 531.911862 -307.3346 
L 533.179981 -312.387517 
L 536.98434 -313.3981 
L 538.25246 -315.274898 
L 539.520579 -315.708005 
L 540.788699 -320.183446 
L 542.056818 -334.187246 
L 542.056818 -44.727273 
L 542.056818 -44.727273 
L 540.788699 -44.727273 
L 539.520579 -44.727273 
L 538.25246 -44.727273 
L 536.98434 -44.727273 
L 533.179981 -44.727273 
L 531.911862 -44.727273 
L 530.643742 -44.727273 
L 529.375623 -44.727273 
L 528.107503 -44.727273 
L 524.303144 -44.727273 
L 523.035025 -44.727273 
L 521.766905 -44.727273 
L 520.498786 -44.727273 
L 519.230666 -44.727273 
L 515.426308 -44.727273 
L 514.158188 -44.727273 
L 512.890068 -44.727273 
L 511.621949 -44.727273 
L 506.549471 -44.727273 
L 505.281351 -44.727273 
L 504.013232 -44.727273 
L 495.136395 -44.727273 
L 493.868275 -44.727273 
L 492.600156 -44.727273 
L 488.795797 -44.727273 
L 487.527677 -44.727273 
L 486.259558 -44.727273 
L 484.991438 -44.727273 
L 483.723319 -44.727273 
L 479.91896 -44.727273 
L 478.650841 -44.727273 
L 477.382721 -44.727273 
L 476.114601 -44.727273 
L 474.846482 -44.727273 
L 471.042123 -44.727273 
L 469.774004 -44.727273 
L 468.505884 -44.727273 
L 467.237765 -44.727273 
L 465.969645 -44.727273 
L 462.165286 -44.727273 
L 460.897167 -44.727273 
L 459.629047 -44.727273 
L 458.360928 -44.727273 
L 457.092808 -44.727273 
L 453.28845 -44.727273 
L 452.02033 -44.727273 
L 450.75221 -44.727273 
L 449.484091 -44.727273 
L 448.215971 -44.727273 
L 444.411613 -44.727273 
L 443.143493 -44.727273 
L 441.875374 -44.727273 
L 439.339134 -44.727273 
L 435.534776 -44.727273 
L 434.266656 -44.727273 
L 432.998537 -44.727273 
L 431.730417 -44.727273 
L 430.462298 -44.727273 
L 426.657939 -44.727273 
L 425.389819 -44.727273 
L 424.1217 -44.727273 
L 422.85358 -44.727273 
L 421.585461 -44.727273 
L 417.781102 -44.727273 
L 416.512983 -44.727273 
L 415.244863 -44.727273 
L 413.976743 -44.727273 
L 412.708624 -44.727273 
L 408.904265 -44.727273 
L 407.636146 -44.727273 
L 406.368026 -44.727273 
L 405.099907 -44.727273 
L 403.831787 -44.727273 
L 400.027428 -44.727273 
L 398.759309 -44.727273 
L 397.491189 -44.727273 
L 396.22307 -44.727273 
L 394.95495 -44.727273 
L 391.150592 -44.727273 
L 389.882472 -44.727273 
L 388.614352 -44.727273 
L 387.346233 -44.727273 
L 386.078113 -44.727273 
L 382.273755 -44.727273 
L 381.005635 -44.727273 
L 379.737516 -44.727273 
L 378.469396 -44.727273 
L 377.201276 -44.727273 
L 373.396918 -44.727273 
L 372.128798 -44.727273 
L 370.860679 -44.727273 
L 369.592559 -44.727273 
L 368.32444 -44.727273 
L 364.520081 -44.727273 
L 363.251961 -44.727273 
L 361.983842 -44.727273 
L 360.715722 -44.727273 
L 359.447603 -44.727273 
L 355.643244 -44.727273 
L 354.375125 -44.727273 
L 353.107005 -44.727273 
L 350.570766 -44.727273 
L 346.766407 -44.727273 
L 345.498288 -44.727273 
L 344.230168 -44.727273 
L 342.962049 -44.727273 
L 337.88957 -44.727273 
L 336.621451 -44.727273 
L 335.353331 -44.727273 
L 334.085212 -44.727273 
L 332.817092 -44.727273 
L 329.012733 -44.727273 
L 327.744614 -44.727273 
L 326.476494 -44.727273 
L 325.208375 -44.727273 
L 323.940255 -44.727273 
L 320.135897 -44.727273 
L 318.867777 -44.727273 
L 317.599658 -44.727273 
L 316.331538 -44.727273 
L 315.063418 -44.727273 
L 309.99094 -44.727273 
L 308.722821 -44.727273 
L 307.454701 -44.727273 
L 302.382223 -44.727273 
L 301.114103 -44.727273 
L 299.845984 -44.727273 
L 298.577864 -44.727273 
L 297.309745 -44.727273 
L 293.505386 -44.727273 
L 292.237267 -44.727273 
L 290.969147 -44.727273 
L 289.701027 -44.727273 
L 288.432908 -44.727273 
L 284.628549 -44.727273 
L 283.36043 -44.727273 
L 282.09231 -44.727273 
L 280.824191 -44.727273 
L 279.556071 -44.727273 
L 275.751712 -44.727273 
L 274.483593 -44.727273 
L 273.215473 -44.727273 
L 271.947354 -44.727273 
L 270.679234 -44.727273 
L 266.874875 -44.727273 
L 265.606756 -44.727273 
L 264.338636 -44.727273 
L 263.070517 -44.727273 
L 261.802397 -44.727273 
L 257.998039 -44.727273 
L 256.729919 -44.727273 
L 255.4618 -44.727273 
L 254.19368 -44.727273 
L 252.92556 -44.727273 
L 249.121202 -44.727273 
L 247.853082 -44.727273 
L 246.584963 -44.727273 
L 245.316843 -44.727273 
L 244.048724 -44.727273 
L 240.244365 -44.727273 
L 238.976245 -44.727273 
L 237.708126 -44.727273 
L 236.440006 -44.727273 
L 235.171887 -44.727273 
L 231.367528 -44.727273 
L 230.099408 -44.727273 
L 227.563169 -44.727273 
L 226.29505 -44.727273 
L 222.490691 -44.727273 
L 221.222572 -44.727273 
L 219.954452 -44.727273 
L 218.686333 -44.727273 
L 217.418213 -44.727273 
L 213.613854 -44.727273 
L 212.345735 -44.727273 
L 211.077615 -44.727273 
L 209.809496 -44.727273 
L 208.541376 -44.727273 
L 204.737017 -44.727273 
L 203.468898 -44.727273 
L 202.200778 -44.727273 
L 200.932659 -44.727273 
L 199.664539 -44.727273 
L 195.860181 -44.727273 
L 194.592061 -44.727273 
L 193.323941 -44.727273 
L 192.055822 -44.727273 
L 190.787702 -44.727273 
L 186.983344 -44.727273 
L 185.715224 -44.727273 
L 184.447105 -44.727273 
L 178.106507 -44.727273 
L 176.838387 -44.727273 
L 175.570268 -44.727273 
L 174.302148 -44.727273 
L 173.034029 -44.727273 
L 169.22967 -44.727273 
L 167.96155 -44.727273 
L 166.693431 -44.727273 
L 165.425311 -44.727273 
L 164.157192 -44.727273 
L 160.352833 -44.727273 
L 159.084714 -44.727273 
L 157.816594 -44.727273 
L 156.548474 -44.727273 
L 155.280355 -44.727273 
L 150.207877 -44.727273 
L 148.939757 -44.727273 
L 147.671638 -44.727273 
L 146.403518 -44.727273 
L 142.599159 -44.727273 
L 141.33104 -44.727273 
L 140.06292 -44.727273 
L 138.794801 -44.727273 
L 137.526681 -44.727273 
L 133.722323 -44.727273 
L 132.454203 -44.727273 
L 131.186083 -44.727273 
L 129.917964 -44.727273 
L 128.649844 -44.727273 
L 124.845486 -44.727273 
L 123.577366 -44.727273 
L 122.309247 -44.727273 
L 121.041127 -44.727273 
L 119.773007 -44.727273 
L 115.968649 -44.727273 
L 114.700529 -44.727273 
L 113.43241 -44.727273 
L 112.16429 -44.727273 
L 110.896171 -44.727273 
L 107.091812 -44.727273 
L 105.823692 -44.727273 
L 104.555573 -44.727273 
L 103.287453 -44.727273 
L 102.019334 -44.727273 
L 98.214975 -44.727273 
L 96.946856 -44.727273 
L 95.678736 -44.727273 
L 94.410616 -44.727273 
L 93.142497 -44.727273 
L 89.338138 -44.727273 
L 88.070019 -44.727273 
L 86.801899 -44.727273 
L 85.53378 -44.727273 
L 84.26566 -44.727273 
L 80.461301 -44.727273 
L 79.193182 -44.727273 
z
" id="m17bc7935ce" style="stroke:#c6a2d2;"/>
    </defs>
    <g clip-path="url(#p4618b1aa40)">
     <use style="fill:#c6a2d2;stroke:#c6a2d2;" x="0" xlink:href="#m17bc7935ce" y="432"/>
    </g>
   </g>
   <g id="matplotlib.axis_1">
    <g id="xtick_1">
     <g id="line2d_1">
      <defs>
       <path d="M 0 0 
L 0 3.5 
" id="m7f625106dc" style="stroke:#000000;stroke-width:0.8;"/>
      </defs>
      <g>
       <use style="stroke:#000000;stroke-width:0.8;" x="76.656943" xlink:href="#m7f625106dc" y="404.2"/>
      </g>
     </g>
     <g id="text_1">
      <!-- 2022-11 -->
      <defs>
       <path d="M 19.1875 8.296875 
L 53.609375 8.296875 
L 53.609375 0 
L 7.328125 0 
L 7.328125 8.296875 
Q 12.9375 14.109375 22.625 23.890625 
Q 32.328125 33.6875 34.8125 36.53125 
Q 39.546875 41.84375 41.421875 45.53125 
Q 43.3125 49.21875 43.3125 52.78125 
Q 43.3125 58.59375 39.234375 62.25 
Q 35.15625 65.921875 28.609375 65.921875 
Q 23.96875 65.921875 18.8125 64.3125 
Q 13.671875 62.703125 7.8125 59.421875 
L 7.8125 69.390625 
Q 13.765625 71.78125 18.9375 73 
Q 24.125 74.21875 28.421875 74.21875 
Q 39.75 74.21875 46.484375 68.546875 
Q 53.21875 62.890625 53.21875 53.421875 
Q 53.21875 48.921875 51.53125 44.890625 
Q 49.859375 40.875 45.40625 35.40625 
Q 44.1875 33.984375 37.640625 27.21875 
Q 31.109375 20.453125 19.1875 8.296875 
z
" id="DejaVuSans-50"/>
       <path d="M 31.78125 66.40625 
Q 24.171875 66.40625 20.328125 58.90625 
Q 16.5 51.421875 16.5 36.375 
Q 16.5 21.390625 20.328125 13.890625 
Q 24.171875 6.390625 31.78125 6.390625 
Q 39.453125 6.390625 43.28125 13.890625 
Q 47.125 21.390625 47.125 36.375 
Q 47.125 51.421875 43.28125 58.90625 
Q 39.453125 66.40625 31.78125 66.40625 
z
M 31.78125 74.21875 
Q 44.046875 74.21875 50.515625 64.515625 
Q 56.984375 54.828125 56.984375 36.375 
Q 56.984375 17.96875 50.515625 8.265625 
Q 44.046875 -1.421875 31.78125 -1.421875 
Q 19.53125 -1.421875 13.0625 8.265625 
Q 6.59375 17.96875 6.59375 36.375 
Q 6.59375 54.828125 13.0625 64.515625 
Q 19.53125 74.21875 31.78125 74.21875 
z
" id="DejaVuSans-48"/>
       <path d="M 4.890625 31.390625 
L 31.203125 31.390625 
L 31.203125 23.390625 
L 4.890625 23.390625 
z
" id="DejaVuSans-45"/>
       <path d="M 12.40625 8.296875 
L 28.515625 8.296875 
L 28.515625 63.921875 
L 10.984375 60.40625 
L 10.984375 69.390625 
L 28.421875 72.90625 
L 38.28125 72.90625 
L 38.28125 8.296875 
L 54.390625 8.296875 
L 54.390625 0 
L 12.40625 0 
z
" id="DejaVuSans-49"/>
      </defs>
      <g transform="translate(55.765536 418.798437)scale(0.1 -0.1)">
       <use xlink:href="#DejaVuSans-50"/>
       <use x="63.623047" xlink:href="#DejaVuSans-48"/>
       <use x="127.246094" xlink:href="#DejaVuSans-50"/>
       <use x="190.869141" xlink:href="#DejaVuSans-50"/>
       <use x="254.492188" xlink:href="#DejaVuSans-45"/>
       <use x="290.576172" xlink:href="#DejaVuSans-49"/>
       <use x="354.199219" xlink:href="#DejaVuSans-49"/>
      </g>
     </g>
    </g>
    <g id="xtick_2">
     <g id="line2d_2">
      <g>
       <use style="stroke:#000000;stroke-width:0.8;" x="154.012235" xlink:href="#m7f625106dc" y="404.2"/>
      </g>
     </g>
     <g id="text_2">
      <!-- 2023-01 -->
      <defs>
       <path d="M 40.578125 39.3125 
Q 47.65625 37.796875 51.625 33 
Q 55.609375 28.21875 55.609375 21.1875 
Q 55.609375 10.40625 48.1875 4.484375 
Q 40.765625 -1.421875 27.09375 -1.421875 
Q 22.515625 -1.421875 17.65625 -0.515625 
Q 12.796875 0.390625 7.625 2.203125 
L 7.625 11.71875 
Q 11.71875 9.328125 16.59375 8.109375 
Q 21.484375 6.890625 26.8125 6.890625 
Q 36.078125 6.890625 40.9375 10.546875 
Q 45.796875 14.203125 45.796875 21.1875 
Q 45.796875 27.640625 41.28125 31.265625 
Q 36.765625 34.90625 28.71875 34.90625 
L 20.21875 34.90625 
L 20.21875 43.015625 
L 29.109375 43.015625 
Q 36.375 43.015625 40.234375 45.921875 
Q 44.09375 48.828125 44.09375 54.296875 
Q 44.09375 59.90625 40.109375 62.90625 
Q 36.140625 65.921875 28.71875 65.921875 
Q 24.65625 65.921875 20.015625 65.03125 
Q 15.375 64.15625 9.8125 62.3125 
L 9.8125 71.09375 
Q 15.4375 72.65625 20.34375 73.4375 
Q 25.25 74.21875 29.59375 74.21875 
Q 40.828125 74.21875 47.359375 69.109375 
Q 53.90625 64.015625 53.90625 55.328125 
Q 53.90625 49.265625 50.4375 45.09375 
Q 46.96875 40.921875 40.578125 39.3125 
z
" id="DejaVuSans-51"/>
      </defs>
      <g transform="translate(133.120829 418.798437)scale(0.1 -0.1)">
       <use xlink:href="#DejaVuSans-50"/>
       <use x="63.623047" xlink:href="#DejaVuSans-48"/>
       <use x="127.246094" xlink:href="#DejaVuSans-50"/>
       <use x="190.869141" xlink:href="#DejaVuSans-51"/>
       <use x="254.492188" xlink:href="#DejaVuSans-45"/>
       <use x="290.576172" xlink:href="#DejaVuSans-48"/>
       <use x="354.199219" xlink:href="#DejaVuSans-49"/>
      </g>
     </g>
    </g>
    <g id="xtick_3">
     <g id="line2d_3">
      <g>
       <use style="stroke:#000000;stroke-width:0.8;" x="228.831289" xlink:href="#m7f625106dc" y="404.2"/>
      </g>
     </g>
     <g id="text_3">
      <!-- 2023-03 -->
      <g transform="translate(207.939883 418.798437)scale(0.1 -0.1)">
       <use xlink:href="#DejaVuSans-50"/>
       <use x="63.623047" xlink:href="#DejaVuSans-48"/>
       <use x="127.246094" xlink:href="#DejaVuSans-50"/>
       <use x="190.869141" xlink:href="#DejaVuSans-51"/>
       <use x="254.492188" xlink:href="#DejaVuSans-45"/>
       <use x="290.576172" xlink:href="#DejaVuSans-48"/>
       <use x="354.199219" xlink:href="#DejaVuSans-51"/>
      </g>
     </g>
    </g>
    <g id="xtick_4">
     <g id="line2d_4">
      <g>
       <use style="stroke:#000000;stroke-width:0.8;" x="306.186582" xlink:href="#m7f625106dc" y="404.2"/>
      </g>
     </g>
     <g id="text_4">
      <!-- 2023-05 -->
      <defs>
       <path d="M 10.796875 72.90625 
L 49.515625 72.90625 
L 49.515625 64.59375 
L 19.828125 64.59375 
L 19.828125 46.734375 
Q 21.96875 47.46875 24.109375 47.828125 
Q 26.265625 48.1875 28.421875 48.1875 
Q 40.625 48.1875 47.75 41.5 
Q 54.890625 34.8125 54.890625 23.390625 
Q 54.890625 11.625 47.5625 5.09375 
Q 40.234375 -1.421875 26.90625 -1.421875 
Q 22.3125 -1.421875 17.546875 -0.640625 
Q 12.796875 0.140625 7.71875 1.703125 
L 7.71875 11.625 
Q 12.109375 9.234375 16.796875 8.0625 
Q 21.484375 6.890625 26.703125 6.890625 
Q 35.15625 6.890625 40.078125 11.328125 
Q 45.015625 15.765625 45.015625 23.390625 
Q 45.015625 31 40.078125 35.4375 
Q 35.15625 39.890625 26.703125 39.890625 
Q 22.75 39.890625 18.8125 39.015625 
Q 14.890625 38.140625 10.796875 36.28125 
z
" id="DejaVuSans-53"/>
      </defs>
      <g transform="translate(285.295175 418.798437)scale(0.1 -0.1)">
       <use xlink:href="#DejaVuSans-50"/>
       <use x="63.623047" xlink:href="#DejaVuSans-48"/>
       <use x="127.246094" xlink:href="#DejaVuSans-50"/>
       <use x="190.869141" xlink:href="#DejaVuSans-51"/>
       <use x="254.492188" xlink:href="#DejaVuSans-45"/>
       <use x="290.576172" xlink:href="#DejaVuSans-48"/>
       <use x="354.199219" xlink:href="#DejaVuSans-53"/>
      </g>
     </g>
    </g>
    <g id="xtick_5">
     <g id="line2d_5">
      <g>
       <use style="stroke:#000000;stroke-width:0.8;" x="383.541874" xlink:href="#m7f625106dc" y="404.2"/>
      </g>
     </g>
     <g id="text_5">
      <!-- 2023-07 -->
      <defs>
       <path d="M 8.203125 72.90625 
L 55.078125 72.90625 
L 55.078125 68.703125 
L 28.609375 0 
L 18.3125 0 
L 43.21875 64.59375 
L 8.203125 64.59375 
z
" id="DejaVuSans-55"/>
      </defs>
      <g transform="translate(362.650468 418.798437)scale(0.1 -0.1)">
       <use xlink:href="#DejaVuSans-50"/>
       <use x="63.623047" xlink:href="#DejaVuSans-48"/>
       <use x="127.246094" xlink:href="#DejaVuSans-50"/>
       <use x="190.869141" xlink:href="#DejaVuSans-51"/>
       <use x="254.492188" xlink:href="#DejaVuSans-45"/>
       <use x="290.576172" xlink:href="#DejaVuSans-48"/>
       <use x="354.199219" xlink:href="#DejaVuSans-55"/>
      </g>
     </g>
    </g>
    <g id="xtick_6">
     <g id="line2d_6">
      <g>
       <use style="stroke:#000000;stroke-width:0.8;" x="462.165286" xlink:href="#m7f625106dc" y="404.2"/>
      </g>
     </g>
     <g id="text_6">
      <!-- 2023-09 -->
      <defs>
       <path d="M 10.984375 1.515625 
L 10.984375 10.5 
Q 14.703125 8.734375 18.5 7.8125 
Q 22.3125 6.890625 25.984375 6.890625 
Q 35.75 6.890625 40.890625 13.453125 
Q 46.046875 20.015625 46.78125 33.40625 
Q 43.953125 29.203125 39.59375 26.953125 
Q 35.25 24.703125 29.984375 24.703125 
Q 19.046875 24.703125 12.671875 31.3125 
Q 6.296875 37.9375 6.296875 49.421875 
Q 6.296875 60.640625 12.9375 67.421875 
Q 19.578125 74.21875 30.609375 74.21875 
Q 43.265625 74.21875 49.921875 64.515625 
Q 56.59375 54.828125 56.59375 36.375 
Q 56.59375 19.140625 48.40625 8.859375 
Q 40.234375 -1.421875 26.421875 -1.421875 
Q 22.703125 -1.421875 18.890625 -0.6875 
Q 15.09375 0.046875 10.984375 1.515625 
z
M 30.609375 32.421875 
Q 37.25 32.421875 41.125 36.953125 
Q 45.015625 41.5 45.015625 49.421875 
Q 45.015625 57.28125 41.125 61.84375 
Q 37.25 66.40625 30.609375 66.40625 
Q 23.96875 66.40625 20.09375 61.84375 
Q 16.21875 57.28125 16.21875 49.421875 
Q 16.21875 41.5 20.09375 36.953125 
Q 23.96875 32.421875 30.609375 32.421875 
z
" id="DejaVuSans-57"/>
      </defs>
      <g transform="translate(441.27388 418.798437)scale(0.1 -0.1)">
       <use xlink:href="#DejaVuSans-50"/>
       <use x="63.623047" xlink:href="#DejaVuSans-48"/>
       <use x="127.246094" xlink:href="#DejaVuSans-50"/>
       <use x="190.869141" xlink:href="#DejaVuSans-51"/>
       <use x="254.492188" xlink:href="#DejaVuSans-45"/>
       <use x="290.576172" xlink:href="#DejaVuSans-48"/>
       <use x="354.199219" xlink:href="#DejaVuSans-57"/>
      </g>
     </g>
    </g>
    <g id="xtick_7">
     <g id="line2d_7">
      <g>
       <use style="stroke:#000000;stroke-width:0.8;" x="539.520579" xlink:href="#m7f625106dc" y="404.2"/>
      </g>
     </g>
     <g id="text_7">
      <!-- 2023-11 -->
      <g transform="translate(518.629173 418.798437)scale(0.1 -0.1)">
       <use xlink:href="#DejaVuSans-50"/>
       <use x="63.623047" xlink:href="#DejaVuSans-48"/>
       <use x="127.246094" xlink:href="#DejaVuSans-50"/>
       <use x="190.869141" xlink:href="#DejaVuSans-51"/>
       <use x="254.492188" xlink:href="#DejaVuSans-45"/>
       <use x="290.576172" xlink:href="#DejaVuSans-49"/>
       <use x="354.199219" xlink:href="#DejaVuSans-49"/>
      </g>
     </g>
    </g>
   </g>
   <g id="matplotlib.axis_2">
    <g id="ytick_1">
     <g id="line2d_8">
      <defs>
       <path d="M 0 0 
L -3.5 0 
" id="mbd3fb78511" style="stroke:#000000;stroke-width:0.8;"/>
      </defs>
      <g>
       <use style="stroke:#000000;stroke-width:0.8;" x="56.05" xlink:href="#mbd3fb78511" y="387.272727"/>
      </g>
     </g>
     <g id="text_8">
      <!-- 0 -->
      <g transform="translate(42.6875 391.071946)scale(0.1 -0.1)">
       <use xlink:href="#DejaVuSans-48"/>
      </g>
     </g>
    </g>
    <g id="ytick_2">
     <g id="line2d_9">
      <g>
       <use style="stroke:#000000;stroke-width:0.8;" x="56.05" xlink:href="#mbd3fb78511" y="315.088195"/>
      </g>
     </g>
     <g id="text_9">
      <!-- 50000 -->
      <g transform="translate(17.2375 318.887414)scale(0.1 -0.1)">
       <use xlink:href="#DejaVuSans-53"/>
       <use x="63.623047" xlink:href="#DejaVuSans-48"/>
       <use x="127.246094" xlink:href="#DejaVuSans-48"/>
       <use x="190.869141" xlink:href="#DejaVuSans-48"/>
       <use x="254.492188" xlink:href="#DejaVuSans-48"/>
      </g>
     </g>
    </g>
    <g id="ytick_3">
     <g id="line2d_10">
      <g>
       <use style="stroke:#000000;stroke-width:0.8;" x="56.05" xlink:href="#mbd3fb78511" y="242.903664"/>
      </g>
     </g>
     <g id="text_10">
      <!-- 100000 -->
      <g transform="translate(10.875 246.702882)scale(0.1 -0.1)">
       <use xlink:href="#DejaVuSans-49"/>
       <use x="63.623047" xlink:href="#DejaVuSans-48"/>
       <use x="127.246094" xlink:href="#DejaVuSans-48"/>
       <use x="190.869141" xlink:href="#DejaVuSans-48"/>
       <use x="254.492188" xlink:href="#DejaVuSans-48"/>
       <use x="318.115234" xlink:href="#DejaVuSans-48"/>
      </g>
     </g>
    </g>
    <g id="ytick_4">
     <g id="line2d_11">
      <g>
       <use style="stroke:#000000;stroke-width:0.8;" x="56.05" xlink:href="#mbd3fb78511" y="170.719132"/>
      </g>
     </g>
     <g id="text_11">
      <!-- 150000 -->
      <g transform="translate(10.875 174.51835)scale(0.1 -0.1)">
       <use xlink:href="#DejaVuSans-49"/>
       <use x="63.623047" xlink:href="#DejaVuSans-53"/>
       <use x="127.246094" xlink:href="#DejaVuSans-48"/>
       <use x="190.869141" xlink:href="#DejaVuSans-48"/>
       <use x="254.492188" xlink:href="#DejaVuSans-48"/>
       <use x="318.115234" xlink:href="#DejaVuSans-48"/>
      </g>
     </g>
    </g>
    <g id="ytick_5">
     <g id="line2d_12">
      <g>
       <use style="stroke:#000000;stroke-width:0.8;" x="56.05" xlink:href="#mbd3fb78511" y="98.5346"/>
      </g>
     </g>
     <g id="text_12">
      <!-- 200000 -->
      <g transform="translate(10.875 102.333818)scale(0.1 -0.1)">
       <use xlink:href="#DejaVuSans-50"/>
       <use x="63.623047" xlink:href="#DejaVuSans-48"/>
       <use x="127.246094" xlink:href="#DejaVuSans-48"/>
       <use x="190.869141" xlink:href="#DejaVuSans-48"/>
       <use x="254.492188" xlink:href="#DejaVuSans-48"/>
       <use x="318.115234" xlink:href="#DejaVuSans-48"/>
      </g>
     </g>
    </g>
   </g>
   <g id="patch_3">
    <path d="M 56.05 404.2 
L 56.05 31.8 
" style="fill:none;stroke:#000000;stroke-linecap:square;stroke-linejoin:miter;stroke-width:0.8;"/>
   </g>
   <g id="patch_4">
    <path d="M 565.2 404.2 
L 565.2 31.8 
" style="fill:none;stroke:#000000;stroke-linecap:square;stroke-linejoin:miter;stroke-width:0.8;"/>
   </g>
   <g id="patch_5">
    <path d="M 56.05 404.2 
L 565.2 404.2 
" style="fill:none;stroke:#000000;stroke-linecap:square;stroke-linejoin:miter;stroke-width:0.8;"/>
   </g>
   <g id="patch_6">
    <path d="M 56.05 31.8 
L 565.2 31.8 
" style="fill:none;stroke:#000000;stroke-linecap:square;stroke-linejoin:miter;stroke-width:0.8;"/>
   </g>
   <g id="text_13">
    <!-- 035420.KS - 18% -->
    <defs>
     <path d="M 46 36.53125 
Q 46 50.203125 43.4375 55.78125 
Q 40.875 61.375 34.8125 61.375 
Q 28.765625 61.375 26.171875 55.78125 
Q 23.578125 50.203125 23.578125 36.53125 
Q 23.578125 22.703125 26.171875 17.03125 
Q 28.765625 11.375 34.8125 11.375 
Q 40.828125 11.375 43.40625 17.03125 
Q 46 22.703125 46 36.53125 
z
M 64.796875 36.375 
Q 64.796875 18.265625 56.984375 8.421875 
Q 49.171875 -1.421875 34.8125 -1.421875 
Q 20.40625 -1.421875 12.59375 8.421875 
Q 4.78125 18.265625 4.78125 36.375 
Q 4.78125 54.546875 12.59375 64.375 
Q 20.40625 74.21875 34.8125 74.21875 
Q 49.171875 74.21875 56.984375 64.375 
Q 64.796875 54.546875 64.796875 36.375 
z
" id="DejaVuSans-Bold-48"/>
     <path d="M 46.578125 39.3125 
Q 53.953125 37.40625 57.78125 32.6875 
Q 61.625 27.984375 61.625 20.703125 
Q 61.625 9.859375 53.3125 4.21875 
Q 45.015625 -1.421875 29.109375 -1.421875 
Q 23.484375 -1.421875 17.84375 -0.515625 
Q 12.203125 0.390625 6.6875 2.203125 
L 6.6875 16.703125 
Q 11.96875 14.0625 17.15625 12.71875 
Q 22.359375 11.375 27.390625 11.375 
Q 34.859375 11.375 38.84375 13.953125 
Q 42.828125 16.546875 42.828125 21.390625 
Q 42.828125 26.375 38.75 28.9375 
Q 34.671875 31.5 26.703125 31.5 
L 19.1875 31.5 
L 19.1875 43.609375 
L 27.09375 43.609375 
Q 34.1875 43.609375 37.640625 45.828125 
Q 41.109375 48.046875 41.109375 52.59375 
Q 41.109375 56.78125 37.734375 59.078125 
Q 34.375 61.375 28.21875 61.375 
Q 23.6875 61.375 19.046875 60.34375 
Q 14.40625 59.328125 9.8125 57.328125 
L 9.8125 71.09375 
Q 15.375 72.65625 20.84375 73.4375 
Q 26.3125 74.21875 31.59375 74.21875 
Q 45.796875 74.21875 52.84375 69.546875 
Q 59.90625 64.890625 59.90625 55.515625 
Q 59.90625 49.125 56.53125 45.046875 
Q 53.171875 40.96875 46.578125 39.3125 
z
" id="DejaVuSans-Bold-51"/>
     <path d="M 10.59375 72.90625 
L 57.328125 72.90625 
L 57.328125 59.078125 
L 25.59375 59.078125 
L 25.59375 47.796875 
Q 27.734375 48.390625 29.90625 48.703125 
Q 32.078125 49.03125 34.421875 49.03125 
Q 47.75 49.03125 55.171875 42.359375 
Q 62.59375 35.6875 62.59375 23.78125 
Q 62.59375 11.96875 54.515625 5.265625 
Q 46.4375 -1.421875 32.078125 -1.421875 
Q 25.875 -1.421875 19.796875 -0.21875 
Q 13.71875 0.984375 7.71875 3.421875 
L 7.71875 18.21875 
Q 13.671875 14.796875 19.015625 13.078125 
Q 24.359375 11.375 29.109375 11.375 
Q 35.9375 11.375 39.859375 14.71875 
Q 43.796875 18.0625 43.796875 23.78125 
Q 43.796875 29.546875 39.859375 32.859375 
Q 35.9375 36.1875 29.109375 36.1875 
Q 25.046875 36.1875 20.453125 35.125 
Q 15.875 34.078125 10.59375 31.890625 
z
" id="DejaVuSans-Bold-53"/>
     <path d="M 36.8125 57.421875 
L 16.21875 26.90625 
L 36.8125 26.90625 
z
M 33.6875 72.90625 
L 54.59375 72.90625 
L 54.59375 26.90625 
L 64.984375 26.90625 
L 64.984375 13.28125 
L 54.59375 13.28125 
L 54.59375 0 
L 36.8125 0 
L 36.8125 13.28125 
L 4.5 13.28125 
L 4.5 29.390625 
z
" id="DejaVuSans-Bold-52"/>
     <path d="M 28.8125 13.8125 
L 60.890625 13.8125 
L 60.890625 0 
L 7.90625 0 
L 7.90625 13.8125 
L 34.515625 37.3125 
Q 38.09375 40.53125 39.796875 43.609375 
Q 41.5 46.6875 41.5 50 
Q 41.5 55.125 38.0625 58.25 
Q 34.625 61.375 28.90625 61.375 
Q 24.515625 61.375 19.28125 59.5 
Q 14.0625 57.625 8.109375 53.90625 
L 8.109375 69.921875 
Q 14.453125 72.015625 20.65625 73.109375 
Q 26.859375 74.21875 32.8125 74.21875 
Q 45.90625 74.21875 53.15625 68.453125 
Q 60.40625 62.703125 60.40625 52.390625 
Q 60.40625 46.4375 57.328125 41.28125 
Q 54.25 36.140625 44.390625 27.484375 
z
" id="DejaVuSans-Bold-50"/>
     <path d="M 10.203125 18.890625 
L 27.78125 18.890625 
L 27.78125 0 
L 10.203125 0 
z
" id="DejaVuSans-Bold-46"/>
     <path d="M 9.1875 72.90625 
L 27.984375 72.90625 
L 27.984375 46.296875 
L 55.078125 72.90625 
L 76.90625 72.90625 
L 41.796875 38.375 
L 80.515625 0 
L 56.984375 0 
L 27.984375 28.71875 
L 27.984375 0 
L 9.1875 0 
z
" id="DejaVuSans-Bold-75"/>
     <path d="M 59.90625 70.609375 
L 59.90625 55.171875 
Q 53.90625 57.859375 48.1875 59.21875 
Q 42.484375 60.59375 37.40625 60.59375 
Q 30.671875 60.59375 27.4375 58.734375 
Q 24.21875 56.890625 24.21875 52.984375 
Q 24.21875 50.046875 26.390625 48.40625 
Q 28.5625 46.78125 34.28125 45.609375 
L 42.28125 44 
Q 54.4375 41.546875 59.5625 36.5625 
Q 64.703125 31.59375 64.703125 22.40625 
Q 64.703125 10.359375 57.546875 4.46875 
Q 50.390625 -1.421875 35.6875 -1.421875 
Q 28.765625 -1.421875 21.78125 -0.09375 
Q 14.796875 1.21875 7.8125 3.8125 
L 7.8125 19.671875 
Q 14.796875 15.96875 21.3125 14.078125 
Q 27.828125 12.203125 33.890625 12.203125 
Q 40.046875 12.203125 43.3125 14.25 
Q 46.578125 16.3125 46.578125 20.125 
Q 46.578125 23.53125 44.359375 25.390625 
Q 42.140625 27.25 35.5 28.71875 
L 28.21875 30.328125 
Q 17.28125 32.671875 12.21875 37.796875 
Q 7.171875 42.921875 7.171875 51.609375 
Q 7.171875 62.5 14.203125 68.359375 
Q 21.234375 74.21875 34.421875 74.21875 
Q 40.4375 74.21875 46.78125 73.3125 
Q 53.125 72.40625 59.90625 70.609375 
z
" id="DejaVuSans-Bold-83"/>
     <path id="DejaVuSans-Bold-32"/>
     <path d="M 5.421875 35.890625 
L 36.078125 35.890625 
L 36.078125 21.6875 
L 5.421875 21.6875 
z
" id="DejaVuSans-Bold-45"/>
     <path d="M 11.71875 12.984375 
L 28.328125 12.984375 
L 28.328125 60.109375 
L 11.28125 56.59375 
L 11.28125 69.390625 
L 28.21875 72.90625 
L 46.09375 72.90625 
L 46.09375 12.984375 
L 62.703125 12.984375 
L 62.703125 0 
L 11.71875 0 
z
" id="DejaVuSans-Bold-49"/>
     <path d="M 34.8125 32.625 
Q 29.546875 32.625 26.703125 29.734375 
Q 23.875 26.859375 23.875 21.484375 
Q 23.875 16.109375 26.703125 13.25 
Q 29.546875 10.40625 34.8125 10.40625 
Q 40.046875 10.40625 42.828125 13.25 
Q 45.609375 16.109375 45.609375 21.484375 
Q 45.609375 26.90625 42.828125 29.765625 
Q 40.046875 32.625 34.8125 32.625 
z
M 21.09375 38.8125 
Q 14.453125 40.828125 11.078125 44.96875 
Q 7.71875 49.125 7.71875 55.328125 
Q 7.71875 64.546875 14.59375 69.375 
Q 21.484375 74.21875 34.8125 74.21875 
Q 48.046875 74.21875 54.921875 69.40625 
Q 61.8125 64.59375 61.8125 55.328125 
Q 61.8125 49.125 58.421875 44.96875 
Q 55.03125 40.828125 48.390625 38.8125 
Q 55.8125 36.765625 59.59375 32.15625 
Q 63.375 27.546875 63.375 20.515625 
Q 63.375 9.671875 56.171875 4.125 
Q 48.96875 -1.421875 34.8125 -1.421875 
Q 20.609375 -1.421875 13.359375 4.125 
Q 6.109375 9.671875 6.109375 20.515625 
Q 6.109375 27.546875 9.890625 32.15625 
Q 13.671875 36.765625 21.09375 38.8125 
z
M 25.484375 53.421875 
Q 25.484375 49.078125 27.90625 46.734375 
Q 30.328125 44.390625 34.8125 44.390625 
Q 39.203125 44.390625 41.59375 46.734375 
Q 44 49.078125 44 53.421875 
Q 44 57.765625 41.59375 60.078125 
Q 39.203125 62.40625 34.8125 62.40625 
Q 30.328125 62.40625 27.90625 60.0625 
Q 25.484375 57.71875 25.484375 53.421875 
z
" id="DejaVuSans-Bold-56"/>
     <path d="M 77.484375 30.078125 
Q 74.03125 30.078125 72.125 27.078125 
Q 70.21875 24.078125 70.21875 18.5 
Q 70.21875 12.890625 72.09375 9.890625 
Q 73.96875 6.890625 77.484375 6.890625 
Q 81 6.890625 82.859375 9.890625 
Q 84.71875 12.890625 84.71875 18.5 
Q 84.71875 24.078125 82.828125 27.078125 
Q 80.953125 30.078125 77.484375 30.078125 
z
M 77.484375 38.28125 
Q 86.578125 38.28125 91.796875 33 
Q 97.015625 27.734375 97.015625 18.5 
Q 97.015625 9.28125 91.796875 3.921875 
Q 86.578125 -1.421875 77.484375 -1.421875 
Q 68.40625 -1.421875 63.15625 3.921875 
Q 57.90625 9.28125 57.90625 18.5 
Q 57.90625 27.6875 63.15625 32.984375 
Q 68.40625 38.28125 77.484375 38.28125 
z
M 32.71875 -1.421875 
L 21.921875 -1.421875 
L 67.484375 74.21875 
L 78.328125 74.21875 
z
M 22.703125 74.21875 
Q 31.78125 74.21875 36.984375 68.921875 
Q 42.1875 63.625 42.1875 54.390625 
Q 42.1875 45.171875 36.984375 39.84375 
Q 31.78125 34.515625 22.703125 34.515625 
Q 13.625 34.515625 8.421875 39.84375 
Q 3.21875 45.171875 3.21875 54.390625 
Q 3.21875 63.625 8.421875 68.921875 
Q 13.625 74.21875 22.703125 74.21875 
z
M 22.703125 66.015625 
Q 19.1875 66.015625 17.28125 62.984375 
Q 15.375 59.96875 15.375 54.390625 
Q 15.375 48.78125 17.28125 45.71875 
Q 19.1875 42.671875 22.703125 42.671875 
Q 26.21875 42.671875 28.09375 45.71875 
Q 29.984375 48.78125 29.984375 54.390625 
Q 29.984375 59.96875 28.078125 62.984375 
Q 26.171875 66.015625 22.703125 66.015625 
z
" id="DejaVuSans-Bold-37"/>
    </defs>
    <g transform="translate(56.05 25.8)scale(0.2 -0.2)">
     <use xlink:href="#DejaVuSans-Bold-48"/>
     <use x="69.580078" xlink:href="#DejaVuSans-Bold-51"/>
     <use x="139.160156" xlink:href="#DejaVuSans-Bold-53"/>
     <use x="208.740234" xlink:href="#DejaVuSans-Bold-52"/>
     <use x="278.320312" xlink:href="#DejaVuSans-Bold-50"/>
     <use x="347.900391" xlink:href="#DejaVuSans-Bold-48"/>
     <use x="417.480469" xlink:href="#DejaVuSans-Bold-46"/>
     <use x="455.46875" xlink:href="#DejaVuSans-Bold-75"/>
     <use x="532.958984" xlink:href="#DejaVuSans-Bold-83"/>
     <use x="604.980469" xlink:href="#DejaVuSans-Bold-32"/>
     <use x="639.794922" xlink:href="#DejaVuSans-Bold-45"/>
     <use x="681.298828" xlink:href="#DejaVuSans-Bold-32"/>
     <use x="716.113281" xlink:href="#DejaVuSans-Bold-49"/>
     <use x="785.693359" xlink:href="#DejaVuSans-Bold-56"/>
     <use x="855.273438" xlink:href="#DejaVuSans-Bold-37"/>
    </g>
   </g>
  </g>
 </g>
 <defs>
  <clipPath id="p4618b1aa40">
   <rect height="372.4" width="509.15" x="56.05" y="31.8"/>
  </clipPath>
 </defs>
</svg>
