<?xml version="1.0" encoding="utf-8" standalone="no"?>
<!DOCTYPE svg PUBLIC "-//W3C//DTD SVG 1.1//EN"
  "http://www.w3.org/Graphics/SVG/1.1/DTD/svg11.dtd">
<!-- Created with matplotlib (https://matplotlib.org/) -->
<svg height="432pt" version="1.1" viewBox="0 0 864 432" width="864pt" xmlns="http://www.w3.org/2000/svg" xmlns:xlink="http://www.w3.org/1999/xlink">
 <defs>
  <style type="text/css">
*{stroke-linecap:butt;stroke-linejoin:round;}
  </style>
 </defs>
 <g id="figure_1">
  <g id="patch_1">
   <path d="M 0 432 
L 864 432 
L 864 0 
L 0 0 
z
" style="fill:none;"/>
  </g>
  <g id="axes_1">
   <g id="patch_2">
    <path d="M 113.425 385.2 
L 730.8 385.2 
L 730.8 88.8 
L 113.425 88.8 
z
" style="fill:none;"/>
   </g>
   <g id="PolyCollection_1">
    <path clip-path="url(#p6b4eb314a5)" d="M 141.4875 931.505882 
L 141.4875 116.405882 
L 144.537772 93.158824 
L 147.588043 100.423529 
L 150.638315 90.252941 
L 159.78913 90.252941 
L 162.839402 88.8 
L 165.889674 106.235294 
L 168.939946 107.688235 
L 171.990217 109.141176 
L 184.191304 106.235294 
L 187.241576 114.952941 
L 190.291848 116.405882 
L 193.34212 100.423529 
L 202.492935 101.876471 
L 208.593478 97.517647 
L 211.64375 110.594118 
L 214.694022 112.047059 
L 223.844837 109.141176 
L 226.895109 112.047059 
L 229.94538 122.217647 
L 232.995652 148.370588 
L 236.045924 152.729412 
L 245.196739 168.711765 
L 248.247011 180.335294 
L 251.297283 197.770588 
L 254.347554 200.676471 
L 257.397826 209.394118 
L 266.548641 205.035294 
L 269.598913 214.479412 
L 272.649185 219.564706 
L 275.699457 219.564706 
L 278.749728 218.111765 
L 287.900543 190.505882 
L 290.950815 205.761765 
L 294.001087 221.744118 
L 297.051359 191.958824 
L 300.10163 207.214706 
L 309.252446 207.214706 
L 312.302717 194.864706 
L 315.352989 181.788235 
L 318.403261 177.429412 
L 321.453533 164.352941 
L 330.604348 165.805882 
L 333.65462 178.882353 
L 336.704891 199.223529 
L 339.755163 197.770588 
L 342.805435 196.317647 
L 351.95625 207.214706 
L 355.006522 221.744118 
L 358.056793 237 
L 361.107065 196.317647 
L 364.157337 196.317647 
L 373.308152 186.147059 
L 376.358424 133.841176 
L 379.408696 158.541176 
L 382.458967 157.088235 
L 385.509239 178.882353 
L 394.660054 165.805882 
L 397.710326 178.882353 
L 400.760598 164.352941 
L 403.81087 167.258824 
L 406.861141 181.788235 
L 416.011957 194.864706 
L 422.1125 200.676471 
L 425.162772 215.932353 
L 428.213043 227.555882 
L 437.363859 228.282353 
L 440.41413 224.65 
L 443.464402 221.017647 
L 446.514674 218.111765 
L 449.564946 232.641176 
L 458.715761 234.094118 
L 461.766033 225.376471 
L 464.816304 219.564706 
L 467.866576 232.641176 
L 470.916848 220.291176 
L 480.067663 218.111765 
L 483.117935 221.017647 
L 486.168207 218.838235 
L 489.218478 223.197059 
L 492.26875 230.461765 
L 501.419565 230.461765 
L 504.469837 228.282353 
L 507.520109 237 
L 510.57038 229.735294 
L 513.620652 221.744118 
L 522.771467 225.376471 
L 525.821739 236.273529 
L 528.872011 247.170588 
L 531.922283 268.238235 
L 534.972554 276.955882 
L 544.12337 280.588235 
L 547.173641 295.844118 
L 550.223913 292.938235 
L 571.575815 327.082353 
L 574.626087 337.979412 
L 577.676359 320.544118 
L 589.877446 329.988235 
L 592.927717 311.826471 
L 595.977989 297.297059 
L 599.028261 303.835294 
L 608.179076 304.561765 
L 611.229348 309.647059 
L 614.27962 324.176471 
L 617.329891 343.064706 
L 620.380163 364.132353 
L 629.530978 380.114706 
L 632.58125 356.141176 
L 635.631522 365.585294 
L 638.681793 384.473529 
L 641.732065 383.020588 
L 650.88288 379.388235 
L 653.933152 382.294118 
L 656.983424 385.2 
L 660.033696 371.397059 
L 663.083967 331.441176 
L 672.234783 282.041176 
L 675.285054 295.844118 
L 678.335326 292.938235 
L 681.385598 268.964706 
L 684.43587 268.238235 
L 693.586685 277.682353 
L 696.636957 258.067647 
L 699.687228 229.735294 
L 702.7375 231.188235 
L 702.7375 931.505882 
L 702.7375 931.505882 
L 699.687228 931.505882 
L 696.636957 931.505882 
L 693.586685 931.505882 
L 684.43587 931.505882 
L 681.385598 931.505882 
L 678.335326 931.505882 
L 675.285054 931.505882 
L 672.234783 931.505882 
L 663.083967 931.505882 
L 660.033696 931.505882 
L 656.983424 931.505882 
L 653.933152 931.505882 
L 650.88288 931.505882 
L 641.732065 931.505882 
L 638.681793 931.505882 
L 635.631522 931.505882 
L 632.58125 931.505882 
L 629.530978 931.505882 
L 620.380163 931.505882 
L 617.329891 931.505882 
L 614.27962 931.505882 
L 611.229348 931.505882 
L 608.179076 931.505882 
L 599.028261 931.505882 
L 595.977989 931.505882 
L 592.927717 931.505882 
L 589.877446 931.505882 
L 577.676359 931.505882 
L 574.626087 931.505882 
L 571.575815 931.505882 
L 550.223913 931.505882 
L 547.173641 931.505882 
L 544.12337 931.505882 
L 534.972554 931.505882 
L 531.922283 931.505882 
L 528.872011 931.505882 
L 525.821739 931.505882 
L 522.771467 931.505882 
L 513.620652 931.505882 
L 510.57038 931.505882 
L 507.520109 931.505882 
L 504.469837 931.505882 
L 501.419565 931.505882 
L 492.26875 931.505882 
L 489.218478 931.505882 
L 486.168207 931.505882 
L 483.117935 931.505882 
L 480.067663 931.505882 
L 470.916848 931.505882 
L 467.866576 931.505882 
L 464.816304 931.505882 
L 461.766033 931.505882 
L 458.715761 931.505882 
L 449.564946 931.505882 
L 446.514674 931.505882 
L 443.464402 931.505882 
L 440.41413 931.505882 
L 437.363859 931.505882 
L 428.213043 931.505882 
L 425.162772 931.505882 
L 422.1125 931.505882 
L 416.011957 931.505882 
L 406.861141 931.505882 
L 403.81087 931.505882 
L 400.760598 931.505882 
L 397.710326 931.505882 
L 394.660054 931.505882 
L 385.509239 931.505882 
L 382.458967 931.505882 
L 379.408696 931.505882 
L 376.358424 931.505882 
L 373.308152 931.505882 
L 364.157337 931.505882 
L 361.107065 931.505882 
L 358.056793 931.505882 
L 355.006522 931.505882 
L 351.95625 931.505882 
L 342.805435 931.505882 
L 339.755163 931.505882 
L 336.704891 931.505882 
L 333.65462 931.505882 
L 330.604348 931.505882 
L 321.453533 931.505882 
L 318.403261 931.505882 
L 315.352989 931.505882 
L 312.302717 931.505882 
L 309.252446 931.505882 
L 300.10163 931.505882 
L 297.051359 931.505882 
L 294.001087 931.505882 
L 290.950815 931.505882 
L 287.900543 931.505882 
L 278.749728 931.505882 
L 275.699457 931.505882 
L 272.649185 931.505882 
L 269.598913 931.505882 
L 266.548641 931.505882 
L 257.397826 931.505882 
L 254.347554 931.505882 
L 251.297283 931.505882 
L 248.247011 931.505882 
L 245.196739 931.505882 
L 236.045924 931.505882 
L 232.995652 931.505882 
L 229.94538 931.505882 
L 226.895109 931.505882 
L 223.844837 931.505882 
L 214.694022 931.505882 
L 211.64375 931.505882 
L 208.593478 931.505882 
L 202.492935 931.505882 
L 193.34212 931.505882 
L 190.291848 931.505882 
L 187.241576 931.505882 
L 184.191304 931.505882 
L 171.990217 931.505882 
L 168.939946 931.505882 
L 165.889674 931.505882 
L 162.839402 931.505882 
L 159.78913 931.505882 
L 150.638315 931.505882 
L 147.588043 931.505882 
L 144.537772 931.505882 
L 141.4875 931.505882 
z
" style="fill:#0000ff;fill-opacity:0.1;stroke:#0000ff;stroke-opacity:0.1;"/>
   </g>
   <g id="matplotlib.axis_1">
    <g id="xtick_1">
     <g id="line2d_1">
      <defs>
       <path d="M 0 0 
L 0 3.5 
" id="m8cb3536cab" style="stroke:#000000;stroke-width:0.8;"/>
      </defs>
      <g>
       <use style="stroke:#000000;stroke-width:0.8;" x="141.4875" xlink:href="#m8cb3536cab" y="385.2"/>
      </g>
     </g>
     <g id="text_1">
      <!-- 05/23 -->
      <defs>
       <path d="M 31.78125 66.40625 
Q 24.171875 66.40625 20.328125 58.90625 
Q 16.5 51.421875 16.5 36.375 
Q 16.5 21.390625 20.328125 13.890625 
Q 24.171875 6.390625 31.78125 6.390625 
Q 39.453125 6.390625 43.28125 13.890625 
Q 47.125 21.390625 47.125 36.375 
Q 47.125 51.421875 43.28125 58.90625 
Q 39.453125 66.40625 31.78125 66.40625 
z
M 31.78125 74.21875 
Q 44.046875 74.21875 50.515625 64.515625 
Q 56.984375 54.828125 56.984375 36.375 
Q 56.984375 17.96875 50.515625 8.265625 
Q 44.046875 -1.421875 31.78125 -1.421875 
Q 19.53125 -1.421875 13.0625 8.265625 
Q 6.59375 17.96875 6.59375 36.375 
Q 6.59375 54.828125 13.0625 64.515625 
Q 19.53125 74.21875 31.78125 74.21875 
z
" id="DejaVuSans-48"/>
       <path d="M 10.796875 72.90625 
L 49.515625 72.90625 
L 49.515625 64.59375 
L 19.828125 64.59375 
L 19.828125 46.734375 
Q 21.96875 47.46875 24.109375 47.828125 
Q 26.265625 48.1875 28.421875 48.1875 
Q 40.625 48.1875 47.75 41.5 
Q 54.890625 34.8125 54.890625 23.390625 
Q 54.890625 11.625 47.5625 5.09375 
Q 40.234375 -1.421875 26.90625 -1.421875 
Q 22.3125 -1.421875 17.546875 -0.640625 
Q 12.796875 0.140625 7.71875 1.703125 
L 7.71875 11.625 
Q 12.109375 9.234375 16.796875 8.0625 
Q 21.484375 6.890625 26.703125 6.890625 
Q 35.15625 6.890625 40.078125 11.328125 
Q 45.015625 15.765625 45.015625 23.390625 
Q 45.015625 31 40.078125 35.4375 
Q 35.15625 39.890625 26.703125 39.890625 
Q 22.75 39.890625 18.8125 39.015625 
Q 14.890625 38.140625 10.796875 36.28125 
z
" id="DejaVuSans-53"/>
       <path d="M 25.390625 72.90625 
L 33.6875 72.90625 
L 8.296875 -9.28125 
L 0 -9.28125 
z
" id="DejaVuSans-47"/>
       <path d="M 19.1875 8.296875 
L 53.609375 8.296875 
L 53.609375 0 
L 7.328125 0 
L 7.328125 8.296875 
Q 12.9375 14.109375 22.625 23.890625 
Q 32.328125 33.6875 34.8125 36.53125 
Q 39.546875 41.84375 41.421875 45.53125 
Q 43.3125 49.21875 43.3125 52.78125 
Q 43.3125 58.59375 39.234375 62.25 
Q 35.15625 65.921875 28.609375 65.921875 
Q 23.96875 65.921875 18.8125 64.3125 
Q 13.671875 62.703125 7.8125 59.421875 
L 7.8125 69.390625 
Q 13.765625 71.78125 18.9375 73 
Q 24.125 74.21875 28.421875 74.21875 
Q 39.75 74.21875 46.484375 68.546875 
Q 53.21875 62.890625 53.21875 53.421875 
Q 53.21875 48.921875 51.53125 44.890625 
Q 49.859375 40.875 45.40625 35.40625 
Q 44.1875 33.984375 37.640625 27.21875 
Q 31.109375 20.453125 19.1875 8.296875 
z
" id="DejaVuSans-50"/>
       <path d="M 40.578125 39.3125 
Q 47.65625 37.796875 51.625 33 
Q 55.609375 28.21875 55.609375 21.1875 
Q 55.609375 10.40625 48.1875 4.484375 
Q 40.765625 -1.421875 27.09375 -1.421875 
Q 22.515625 -1.421875 17.65625 -0.515625 
Q 12.796875 0.390625 7.625 2.203125 
L 7.625 11.71875 
Q 11.71875 9.328125 16.59375 8.109375 
Q 21.484375 6.890625 26.8125 6.890625 
Q 36.078125 6.890625 40.9375 10.546875 
Q 45.796875 14.203125 45.796875 21.1875 
Q 45.796875 27.640625 41.28125 31.265625 
Q 36.765625 34.90625 28.71875 34.90625 
L 20.21875 34.90625 
L 20.21875 43.015625 
L 29.109375 43.015625 
Q 36.375 43.015625 40.234375 45.921875 
Q 44.09375 48.828125 44.09375 54.296875 
Q 44.09375 59.90625 40.109375 62.90625 
Q 36.140625 65.921875 28.71875 65.921875 
Q 24.65625 65.921875 20.015625 65.03125 
Q 15.375 64.15625 9.8125 62.3125 
L 9.8125 71.09375 
Q 15.4375 72.65625 20.34375 73.4375 
Q 25.25 74.21875 29.59375 74.21875 
Q 40.828125 74.21875 47.359375 69.109375 
Q 53.90625 64.015625 53.90625 55.328125 
Q 53.90625 49.265625 50.4375 45.09375 
Q 46.96875 40.921875 40.578125 39.3125 
z
" id="DejaVuSans-51"/>
      </defs>
      <g transform="translate(98.259375 414.995312)scale(0.3 -0.3)">
       <use xlink:href="#DejaVuSans-48"/>
       <use x="63.623047" xlink:href="#DejaVuSans-53"/>
       <use x="127.246094" xlink:href="#DejaVuSans-47"/>
       <use x="160.9375" xlink:href="#DejaVuSans-50"/>
       <use x="224.560547" xlink:href="#DejaVuSans-51"/>
      </g>
     </g>
    </g>
    <g id="xtick_2">
     <g id="line2d_2">
      <g>
       <use style="stroke:#000000;stroke-width:0.8;" x="416.011957" xlink:href="#m8cb3536cab" y="385.2"/>
      </g>
     </g>
     <g id="text_2">
      <!-- 08/23 -->
      <defs>
       <path d="M 31.78125 34.625 
Q 24.75 34.625 20.71875 30.859375 
Q 16.703125 27.09375 16.703125 20.515625 
Q 16.703125 13.921875 20.71875 10.15625 
Q 24.75 6.390625 31.78125 6.390625 
Q 38.8125 6.390625 42.859375 10.171875 
Q 46.921875 13.96875 46.921875 20.515625 
Q 46.921875 27.09375 42.890625 30.859375 
Q 38.875 34.625 31.78125 34.625 
z
M 21.921875 38.8125 
Q 15.578125 40.375 12.03125 44.71875 
Q 8.5 49.078125 8.5 55.328125 
Q 8.5 64.0625 14.71875 69.140625 
Q 20.953125 74.21875 31.78125 74.21875 
Q 42.671875 74.21875 48.875 69.140625 
Q 55.078125 64.0625 55.078125 55.328125 
Q 55.078125 49.078125 51.53125 44.71875 
Q 48 40.375 41.703125 38.8125 
Q 48.828125 37.15625 52.796875 32.3125 
Q 56.78125 27.484375 56.78125 20.515625 
Q 56.78125 9.90625 50.3125 4.234375 
Q 43.84375 -1.421875 31.78125 -1.421875 
Q 19.734375 -1.421875 13.25 4.234375 
Q 6.78125 9.90625 6.78125 20.515625 
Q 6.78125 27.484375 10.78125 32.3125 
Q 14.796875 37.15625 21.921875 38.8125 
z
M 18.3125 54.390625 
Q 18.3125 48.734375 21.84375 45.5625 
Q 25.390625 42.390625 31.78125 42.390625 
Q 38.140625 42.390625 41.71875 45.5625 
Q 45.3125 48.734375 45.3125 54.390625 
Q 45.3125 60.0625 41.71875 63.234375 
Q 38.140625 66.40625 31.78125 66.40625 
Q 25.390625 66.40625 21.84375 63.234375 
Q 18.3125 60.0625 18.3125 54.390625 
z
" id="DejaVuSans-56"/>
      </defs>
      <g transform="translate(372.783832 414.995312)scale(0.3 -0.3)">
       <use xlink:href="#DejaVuSans-48"/>
       <use x="63.623047" xlink:href="#DejaVuSans-56"/>
       <use x="127.246094" xlink:href="#DejaVuSans-47"/>
       <use x="160.9375" xlink:href="#DejaVuSans-50"/>
       <use x="224.560547" xlink:href="#DejaVuSans-51"/>
      </g>
     </g>
    </g>
    <g id="xtick_3">
     <g id="line2d_3">
      <g>
       <use style="stroke:#000000;stroke-width:0.8;" x="702.7375" xlink:href="#m8cb3536cab" y="385.2"/>
      </g>
     </g>
     <g id="text_3">
      <!-- 11/23 -->
      <defs>
       <path d="M 12.40625 8.296875 
L 28.515625 8.296875 
L 28.515625 63.921875 
L 10.984375 60.40625 
L 10.984375 69.390625 
L 28.421875 72.90625 
L 38.28125 72.90625 
L 38.28125 8.296875 
L 54.390625 8.296875 
L 54.390625 0 
L 12.40625 0 
z
" id="DejaVuSans-49"/>
      </defs>
      <g transform="translate(659.509375 414.995312)scale(0.3 -0.3)">
       <use xlink:href="#DejaVuSans-49"/>
       <use x="63.623047" xlink:href="#DejaVuSans-49"/>
       <use x="127.246094" xlink:href="#DejaVuSans-47"/>
       <use x="160.9375" xlink:href="#DejaVuSans-50"/>
       <use x="224.560547" xlink:href="#DejaVuSans-51"/>
      </g>
     </g>
    </g>
   </g>
   <g id="matplotlib.axis_2">
    <g id="ytick_1">
     <g id="line2d_4">
      <defs>
       <path d="M 0 0 
L -3.5 0 
" id="m5ab3d2ab0b" style="stroke:#000000;stroke-width:0.8;"/>
      </defs>
      <g>
       <use style="stroke:#000000;stroke-width:0.8;" x="113.425" xlink:href="#m5ab3d2ab0b" y="350.329412"/>
      </g>
     </g>
     <g id="text_4">
      <!-- 40000 -->
      <defs>
       <path d="M 37.796875 64.3125 
L 12.890625 25.390625 
L 37.796875 25.390625 
z
M 35.203125 72.90625 
L 47.609375 72.90625 
L 47.609375 25.390625 
L 58.015625 25.390625 
L 58.015625 17.1875 
L 47.609375 17.1875 
L 47.609375 0 
L 37.796875 0 
L 37.796875 17.1875 
L 4.890625 17.1875 
L 4.890625 26.703125 
z
" id="DejaVuSans-52"/>
      </defs>
      <g transform="translate(10.9875 361.727068)scale(0.3 -0.3)">
       <use xlink:href="#DejaVuSans-52"/>
       <use x="63.623047" xlink:href="#DejaVuSans-48"/>
       <use x="127.246094" xlink:href="#DejaVuSans-48"/>
       <use x="190.869141" xlink:href="#DejaVuSans-48"/>
       <use x="254.492188" xlink:href="#DejaVuSans-48"/>
      </g>
     </g>
    </g>
    <g id="ytick_2">
     <g id="line2d_5">
      <g>
       <use style="stroke:#000000;stroke-width:0.8;" x="113.425" xlink:href="#m5ab3d2ab0b" y="234.094118"/>
      </g>
     </g>
     <g id="text_5">
      <!-- 48000 -->
      <g transform="translate(10.9875 245.491774)scale(0.3 -0.3)">
       <use xlink:href="#DejaVuSans-52"/>
       <use x="63.623047" xlink:href="#DejaVuSans-56"/>
       <use x="127.246094" xlink:href="#DejaVuSans-48"/>
       <use x="190.869141" xlink:href="#DejaVuSans-48"/>
       <use x="254.492188" xlink:href="#DejaVuSans-48"/>
      </g>
     </g>
    </g>
    <g id="ytick_3">
     <g id="line2d_6">
      <g>
       <use style="stroke:#000000;stroke-width:0.8;" x="113.425" xlink:href="#m5ab3d2ab0b" y="117.858824"/>
      </g>
     </g>
     <g id="text_6">
      <!-- 56000 -->
      <defs>
       <path d="M 33.015625 40.375 
Q 26.375 40.375 22.484375 35.828125 
Q 18.609375 31.296875 18.609375 23.390625 
Q 18.609375 15.53125 22.484375 10.953125 
Q 26.375 6.390625 33.015625 6.390625 
Q 39.65625 6.390625 43.53125 10.953125 
Q 47.40625 15.53125 47.40625 23.390625 
Q 47.40625 31.296875 43.53125 35.828125 
Q 39.65625 40.375 33.015625 40.375 
z
M 52.59375 71.296875 
L 52.59375 62.3125 
Q 48.875 64.0625 45.09375 64.984375 
Q 41.3125 65.921875 37.59375 65.921875 
Q 27.828125 65.921875 22.671875 59.328125 
Q 17.53125 52.734375 16.796875 39.40625 
Q 19.671875 43.65625 24.015625 45.921875 
Q 28.375 48.1875 33.59375 48.1875 
Q 44.578125 48.1875 50.953125 41.515625 
Q 57.328125 34.859375 57.328125 23.390625 
Q 57.328125 12.15625 50.6875 5.359375 
Q 44.046875 -1.421875 33.015625 -1.421875 
Q 20.359375 -1.421875 13.671875 8.265625 
Q 6.984375 17.96875 6.984375 36.375 
Q 6.984375 53.65625 15.1875 63.9375 
Q 23.390625 74.21875 37.203125 74.21875 
Q 40.921875 74.21875 44.703125 73.484375 
Q 48.484375 72.75 52.59375 71.296875 
z
" id="DejaVuSans-54"/>
      </defs>
      <g transform="translate(10.9875 129.25648)scale(0.3 -0.3)">
       <use xlink:href="#DejaVuSans-53"/>
       <use x="63.623047" xlink:href="#DejaVuSans-54"/>
       <use x="127.246094" xlink:href="#DejaVuSans-48"/>
       <use x="190.869141" xlink:href="#DejaVuSans-48"/>
       <use x="254.492188" xlink:href="#DejaVuSans-48"/>
      </g>
     </g>
    </g>
   </g>
   <g id="line2d_7">
    <path clip-path="url(#p6b4eb314a5)" d="M 141.4875 116.405882 
L 144.537772 93.158824 
L 147.588043 100.423529 
L 150.638315 90.252941 
L 159.78913 90.252941 
L 162.839402 88.8 
L 165.889674 106.235294 
L 168.939946 107.688235 
L 171.990217 109.141176 
L 184.191304 106.235294 
L 187.241576 114.952941 
L 190.291848 116.405882 
L 193.34212 100.423529 
L 202.492935 101.876471 
L 208.593478 97.517647 
L 211.64375 110.594118 
L 214.694022 112.047059 
L 223.844837 109.141176 
L 226.895109 112.047059 
L 229.94538 122.217647 
L 232.995652 148.370588 
L 236.045924 152.729412 
L 245.196739 168.711765 
L 248.247011 180.335294 
L 251.297283 197.770588 
L 254.347554 200.676471 
L 257.397826 209.394118 
L 266.548641 205.035294 
L 269.598913 214.479412 
L 272.649185 219.564706 
L 275.699457 219.564706 
L 278.749728 218.111765 
L 287.900543 190.505882 
L 290.950815 205.761765 
L 294.001087 221.744118 
L 297.051359 191.958824 
L 300.10163 207.214706 
L 309.252446 207.214706 
L 312.302717 194.864706 
L 315.352989 181.788235 
L 318.403261 177.429412 
L 321.453533 164.352941 
L 330.604348 165.805882 
L 333.65462 178.882353 
L 336.704891 199.223529 
L 339.755163 197.770588 
L 342.805435 196.317647 
L 351.95625 207.214706 
L 355.006522 221.744118 
L 358.056793 237 
L 361.107065 196.317647 
L 364.157337 196.317647 
L 373.308152 186.147059 
L 376.358424 133.841176 
L 379.408696 158.541176 
L 382.458967 157.088235 
L 385.509239 178.882353 
L 394.660054 165.805882 
L 397.710326 178.882353 
L 400.760598 164.352941 
L 403.81087 167.258824 
L 406.861141 181.788235 
L 416.011957 194.864706 
L 422.1125 200.676471 
L 425.162772 215.932353 
L 428.213043 227.555882 
L 437.363859 228.282353 
L 440.41413 224.65 
L 443.464402 221.017647 
L 446.514674 218.111765 
L 449.564946 232.641176 
L 458.715761 234.094118 
L 461.766033 225.376471 
L 464.816304 219.564706 
L 467.866576 232.641176 
L 470.916848 220.291176 
L 480.067663 218.111765 
L 483.117935 221.017647 
L 486.168207 218.838235 
L 489.218478 223.197059 
L 492.26875 230.461765 
L 501.419565 230.461765 
L 504.469837 228.282353 
L 507.520109 237 
L 510.57038 229.735294 
L 513.620652 221.744118 
L 522.771467 225.376471 
L 525.821739 236.273529 
L 528.872011 247.170588 
L 531.922283 268.238235 
L 534.972554 276.955882 
L 544.12337 280.588235 
L 547.173641 295.844118 
L 550.223913 292.938235 
L 571.575815 327.082353 
L 574.626087 337.979412 
L 577.676359 320.544118 
L 589.877446 329.988235 
L 592.927717 311.826471 
L 595.977989 297.297059 
L 599.028261 303.835294 
L 608.179076 304.561765 
L 611.229348 309.647059 
L 614.27962 324.176471 
L 617.329891 343.064706 
L 620.380163 364.132353 
L 629.530978 380.114706 
L 632.58125 356.141176 
L 635.631522 365.585294 
L 638.681793 384.473529 
L 641.732065 383.020588 
L 650.88288 379.388235 
L 653.933152 382.294118 
L 656.983424 385.2 
L 660.033696 371.397059 
L 663.083967 331.441176 
L 672.234783 282.041176 
L 675.285054 295.844118 
L 678.335326 292.938235 
L 681.385598 268.964706 
L 684.43587 268.238235 
L 693.586685 277.682353 
L 696.636957 258.067647 
L 699.687228 229.735294 
L 702.7375 231.188235 
" style="fill:none;stroke:#000000;stroke-linecap:square;stroke-width:4;"/>
   </g>
   <g id="patch_3">
    <path d="M 113.425 385.2 
L 113.425 88.8 
" style="fill:none;stroke:#000000;stroke-linecap:square;stroke-linejoin:miter;stroke-width:0.8;"/>
   </g>
   <g id="patch_4">
    <path d="M 113.425 385.2 
L 730.8 385.2 
" style="fill:none;stroke:#000000;stroke-linecap:square;stroke-linejoin:miter;stroke-width:0.8;"/>
   </g>
   <g id="text_7">
    <!-- 035720.KS   -14% -->
    <defs>
     <path d="M 46 36.53125 
Q 46 50.203125 43.4375 55.78125 
Q 40.875 61.375 34.8125 61.375 
Q 28.765625 61.375 26.171875 55.78125 
Q 23.578125 50.203125 23.578125 36.53125 
Q 23.578125 22.703125 26.171875 17.03125 
Q 28.765625 11.375 34.8125 11.375 
Q 40.828125 11.375 43.40625 17.03125 
Q 46 22.703125 46 36.53125 
z
M 64.796875 36.375 
Q 64.796875 18.265625 56.984375 8.421875 
Q 49.171875 -1.421875 34.8125 -1.421875 
Q 20.40625 -1.421875 12.59375 8.421875 
Q 4.78125 18.265625 4.78125 36.375 
Q 4.78125 54.546875 12.59375 64.375 
Q 20.40625 74.21875 34.8125 74.21875 
Q 49.171875 74.21875 56.984375 64.375 
Q 64.796875 54.546875 64.796875 36.375 
z
" id="DejaVuSans-Bold-48"/>
     <path d="M 46.578125 39.3125 
Q 53.953125 37.40625 57.78125 32.6875 
Q 61.625 27.984375 61.625 20.703125 
Q 61.625 9.859375 53.3125 4.21875 
Q 45.015625 -1.421875 29.109375 -1.421875 
Q 23.484375 -1.421875 17.84375 -0.515625 
Q 12.203125 0.390625 6.6875 2.203125 
L 6.6875 16.703125 
Q 11.96875 14.0625 17.15625 12.71875 
Q 22.359375 11.375 27.390625 11.375 
Q 34.859375 11.375 38.84375 13.953125 
Q 42.828125 16.546875 42.828125 21.390625 
Q 42.828125 26.375 38.75 28.9375 
Q 34.671875 31.5 26.703125 31.5 
L 19.1875 31.5 
L 19.1875 43.609375 
L 27.09375 43.609375 
Q 34.1875 43.609375 37.640625 45.828125 
Q 41.109375 48.046875 41.109375 52.59375 
Q 41.109375 56.78125 37.734375 59.078125 
Q 34.375 61.375 28.21875 61.375 
Q 23.6875 61.375 19.046875 60.34375 
Q 14.40625 59.328125 9.8125 57.328125 
L 9.8125 71.09375 
Q 15.375 72.65625 20.84375 73.4375 
Q 26.3125 74.21875 31.59375 74.21875 
Q 45.796875 74.21875 52.84375 69.546875 
Q 59.90625 64.890625 59.90625 55.515625 
Q 59.90625 49.125 56.53125 45.046875 
Q 53.171875 40.96875 46.578125 39.3125 
z
" id="DejaVuSans-Bold-51"/>
     <path d="M 10.59375 72.90625 
L 57.328125 72.90625 
L 57.328125 59.078125 
L 25.59375 59.078125 
L 25.59375 47.796875 
Q 27.734375 48.390625 29.90625 48.703125 
Q 32.078125 49.03125 34.421875 49.03125 
Q 47.75 49.03125 55.171875 42.359375 
Q 62.59375 35.6875 62.59375 23.78125 
Q 62.59375 11.96875 54.515625 5.265625 
Q 46.4375 -1.421875 32.078125 -1.421875 
Q 25.875 -1.421875 19.796875 -0.21875 
Q 13.71875 0.984375 7.71875 3.421875 
L 7.71875 18.21875 
Q 13.671875 14.796875 19.015625 13.078125 
Q 24.359375 11.375 29.109375 11.375 
Q 35.9375 11.375 39.859375 14.71875 
Q 43.796875 18.0625 43.796875 23.78125 
Q 43.796875 29.546875 39.859375 32.859375 
Q 35.9375 36.1875 29.109375 36.1875 
Q 25.046875 36.1875 20.453125 35.125 
Q 15.875 34.078125 10.59375 31.890625 
z
" id="DejaVuSans-Bold-53"/>
     <path d="M 6.6875 72.90625 
L 61.625 72.90625 
L 61.625 62.3125 
L 33.203125 0 
L 14.890625 0 
L 41.796875 59.078125 
L 6.6875 59.078125 
z
" id="DejaVuSans-Bold-55"/>
     <path d="M 28.8125 13.8125 
L 60.890625 13.8125 
L 60.890625 0 
L 7.90625 0 
L 7.90625 13.8125 
L 34.515625 37.3125 
Q 38.09375 40.53125 39.796875 43.609375 
Q 41.5 46.6875 41.5 50 
Q 41.5 55.125 38.0625 58.25 
Q 34.625 61.375 28.90625 61.375 
Q 24.515625 61.375 19.28125 59.5 
Q 14.0625 57.625 8.109375 53.90625 
L 8.109375 69.921875 
Q 14.453125 72.015625 20.65625 73.109375 
Q 26.859375 74.21875 32.8125 74.21875 
Q 45.90625 74.21875 53.15625 68.453125 
Q 60.40625 62.703125 60.40625 52.390625 
Q 60.40625 46.4375 57.328125 41.28125 
Q 54.25 36.140625 44.390625 27.484375 
z
" id="DejaVuSans-Bold-50"/>
     <path d="M 10.203125 18.890625 
L 27.78125 18.890625 
L 27.78125 0 
L 10.203125 0 
z
" id="DejaVuSans-Bold-46"/>
     <path d="M 9.1875 72.90625 
L 27.984375 72.90625 
L 27.984375 46.296875 
L 55.078125 72.90625 
L 76.90625 72.90625 
L 41.796875 38.375 
L 80.515625 0 
L 56.984375 0 
L 27.984375 28.71875 
L 27.984375 0 
L 9.1875 0 
z
" id="DejaVuSans-Bold-75"/>
     <path d="M 59.90625 70.609375 
L 59.90625 55.171875 
Q 53.90625 57.859375 48.1875 59.21875 
Q 42.484375 60.59375 37.40625 60.59375 
Q 30.671875 60.59375 27.4375 58.734375 
Q 24.21875 56.890625 24.21875 52.984375 
Q 24.21875 50.046875 26.390625 48.40625 
Q 28.5625 46.78125 34.28125 45.609375 
L 42.28125 44 
Q 54.4375 41.546875 59.5625 36.5625 
Q 64.703125 31.59375 64.703125 22.40625 
Q 64.703125 10.359375 57.546875 4.46875 
Q 50.390625 -1.421875 35.6875 -1.421875 
Q 28.765625 -1.421875 21.78125 -0.09375 
Q 14.796875 1.21875 7.8125 3.8125 
L 7.8125 19.671875 
Q 14.796875 15.96875 21.3125 14.078125 
Q 27.828125 12.203125 33.890625 12.203125 
Q 40.046875 12.203125 43.3125 14.25 
Q 46.578125 16.3125 46.578125 20.125 
Q 46.578125 23.53125 44.359375 25.390625 
Q 42.140625 27.25 35.5 28.71875 
L 28.21875 30.328125 
Q 17.28125 32.671875 12.21875 37.796875 
Q 7.171875 42.921875 7.171875 51.609375 
Q 7.171875 62.5 14.203125 68.359375 
Q 21.234375 74.21875 34.421875 74.21875 
Q 40.4375 74.21875 46.78125 73.3125 
Q 53.125 72.40625 59.90625 70.609375 
z
" id="DejaVuSans-Bold-83"/>
     <path id="DejaVuSans-Bold-32"/>
     <path d="M 5.421875 35.890625 
L 36.078125 35.890625 
L 36.078125 21.6875 
L 5.421875 21.6875 
z
" id="DejaVuSans-Bold-45"/>
     <path d="M 11.71875 12.984375 
L 28.328125 12.984375 
L 28.328125 60.109375 
L 11.28125 56.59375 
L 11.28125 69.390625 
L 28.21875 72.90625 
L 46.09375 72.90625 
L 46.09375 12.984375 
L 62.703125 12.984375 
L 62.703125 0 
L 11.71875 0 
z
" id="DejaVuSans-Bold-49"/>
     <path d="M 36.8125 57.421875 
L 16.21875 26.90625 
L 36.8125 26.90625 
z
M 33.6875 72.90625 
L 54.59375 72.90625 
L 54.59375 26.90625 
L 64.984375 26.90625 
L 64.984375 13.28125 
L 54.59375 13.28125 
L 54.59375 0 
L 36.8125 0 
L 36.8125 13.28125 
L 4.5 13.28125 
L 4.5 29.390625 
z
" id="DejaVuSans-Bold-52"/>
     <path d="M 77.484375 30.078125 
Q 74.03125 30.078125 72.125 27.078125 
Q 70.21875 24.078125 70.21875 18.5 
Q 70.21875 12.890625 72.09375 9.890625 
Q 73.96875 6.890625 77.484375 6.890625 
Q 81 6.890625 82.859375 9.890625 
Q 84.71875 12.890625 84.71875 18.5 
Q 84.71875 24.078125 82.828125 27.078125 
Q 80.953125 30.078125 77.484375 30.078125 
z
M 77.484375 38.28125 
Q 86.578125 38.28125 91.796875 33 
Q 97.015625 27.734375 97.015625 18.5 
Q 97.015625 9.28125 91.796875 3.921875 
Q 86.578125 -1.421875 77.484375 -1.421875 
Q 68.40625 -1.421875 63.15625 3.921875 
Q 57.90625 9.28125 57.90625 18.5 
Q 57.90625 27.6875 63.15625 32.984375 
Q 68.40625 38.28125 77.484375 38.28125 
z
M 32.71875 -1.421875 
L 21.921875 -1.421875 
L 67.484375 74.21875 
L 78.328125 74.21875 
z
M 22.703125 74.21875 
Q 31.78125 74.21875 36.984375 68.921875 
Q 42.1875 63.625 42.1875 54.390625 
Q 42.1875 45.171875 36.984375 39.84375 
Q 31.78125 34.515625 22.703125 34.515625 
Q 13.625 34.515625 8.421875 39.84375 
Q 3.21875 45.171875 3.21875 54.390625 
Q 3.21875 63.625 8.421875 68.921875 
Q 13.625 74.21875 22.703125 74.21875 
z
M 22.703125 66.015625 
Q 19.1875 66.015625 17.28125 62.984375 
Q 15.375 59.96875 15.375 54.390625 
Q 15.375 48.78125 17.28125 45.71875 
Q 19.1875 42.671875 22.703125 42.671875 
Q 26.21875 42.671875 28.09375 45.71875 
Q 29.984375 48.78125 29.984375 54.390625 
Q 29.984375 59.96875 28.078125 62.984375 
Q 26.171875 66.015625 22.703125 66.015625 
z
" id="DejaVuSans-Bold-37"/>
    </defs>
    <g transform="translate(113.425 72.1625)scale(0.8 -0.8)">
     <use xlink:href="#DejaVuSans-Bold-48"/>
     <use x="69.580078" xlink:href="#DejaVuSans-Bold-51"/>
     <use x="139.160156" xlink:href="#DejaVuSans-Bold-53"/>
     <use x="208.740234" xlink:href="#DejaVuSans-Bold-55"/>
     <use x="278.320312" xlink:href="#DejaVuSans-Bold-50"/>
     <use x="347.900391" xlink:href="#DejaVuSans-Bold-48"/>
     <use x="417.480469" xlink:href="#DejaVuSans-Bold-46"/>
     <use x="455.46875" xlink:href="#DejaVuSans-Bold-75"/>
     <use x="532.958984" xlink:href="#DejaVuSans-Bold-83"/>
     <use x="604.980469" xlink:href="#DejaVuSans-Bold-32"/>
     <use x="639.794922" xlink:href="#DejaVuSans-Bold-32"/>
     <use x="674.609375" xlink:href="#DejaVuSans-Bold-32"/>
     <use x="709.423828" xlink:href="#DejaVuSans-Bold-45"/>
     <use x="750.927734" xlink:href="#DejaVuSans-Bold-49"/>
     <use x="820.507812" xlink:href="#DejaVuSans-Bold-52"/>
     <use x="890.087891" xlink:href="#DejaVuSans-Bold-37"/>
    </g>
   </g>
  </g>
 </g>
 <defs>
  <clipPath id="p6b4eb314a5">
   <rect height="296.4" width="617.375" x="113.425" y="88.8"/>
  </clipPath>
 </defs>
</svg>
