<?xml version="1.0" encoding="utf-8" standalone="no"?>
<!DOCTYPE svg PUBLIC "-//W3C//DTD SVG 1.1//EN"
  "http://www.w3.org/Graphics/SVG/1.1/DTD/svg11.dtd">
<!-- Created with matplotlib (https://matplotlib.org/) -->
<svg height="432pt" version="1.1" viewBox="0 0 576 432" width="576pt" xmlns="http://www.w3.org/2000/svg" xmlns:xlink="http://www.w3.org/1999/xlink">
 <defs>
  <style type="text/css">
*{stroke-linecap:butt;stroke-linejoin:round;}
  </style>
 </defs>
 <g id="figure_1">
  <g id="patch_1">
   <path d="M 0 432 
L 576 432 
L 576 0 
L 0 0 
z
" style="fill:#ffffff;"/>
  </g>
  <g id="axes_1">
   <g id="patch_2">
    <path d="M 49.675 404.2 
L 565.2 404.2 
L 565.2 31.8 
L 49.675 31.8 
z
" style="fill:#ffffff;"/>
   </g>
   <g id="PolyCollection_1">
    <defs>
     <path d="M 73.107955 -44.727273 
L 73.107955 -289.914248 
L 74.391952 -290.893047 
L 78.243945 -288.690768 
L 79.527942 -296.765786 
L 80.81194 -299.702165 
L 82.095937 -293.340027 
L 83.379935 -332.002237 
L 87.231927 -331.023456 
L 88.515925 -332.002237 
L 89.799922 -331.512837 
L 91.08392 -333.959816 
L 92.367917 -327.108278 
L 96.21991 -320.256759 
L 97.503907 -310.468843 
L 98.787905 -317.320381 
L 100.071902 -325.640098 
L 101.3559 -319.27796 
L 105.207892 -311.937042 
L 106.49189 -318.29918 
L 107.775887 -320.746159 
L 109.059885 -328.087078 
L 110.343882 -323.193119 
L 114.195875 -328.576477 
L 115.479872 -318.78856 
L 116.76387 -316.3416 
L 118.047867 -316.3416 
L 119.331865 -329.065877 
L 123.183857 -329.065877 
L 124.467855 -329.555257 
L 125.751852 -332.002237 
L 127.03585 -315.362801 
L 128.319847 -310.958242 
L 132.17184 -317.80978 
L 133.455837 -310.468843 
L 134.739835 -309.979462 
L 136.023833 -314.384021 
L 137.30783 -306.064303 
L 141.159823 -307.043083 
L 142.44382 -310.958242 
L 143.727818 -307.332719 
L 145.011815 -304.883042 
L 150.147805 -302.9233 
L 151.431803 -305.862913 
L 152.7158 -317.621366 
L 153.999798 -327.420076 
L 155.283795 -324.970399 
L 159.135788 -344.077884 
L 160.419785 -342.118142 
L 161.703783 -347.997369 
L 162.98778 -346.037627 
L 164.271778 -348.487304 
L 168.12377 -360.735693 
L 169.407768 -347.507433 
L 170.691765 -346.527562 
L 171.975763 -342.608078 
L 173.25976 -344.56782 
L 179.679748 -351.426918 
L 180.963745 -351.426918 
L 182.247743 -361.715564 
L 186.099735 -354.856466 
L 187.383733 -347.997369 
L 188.66773 -349.467175 
L 189.951728 -360.735693 
L 191.235725 -373.963952 
L 195.087718 -364.165241 
L 196.371715 -380.82305 
L 197.655713 -383.272727 
L 198.93971 -383.272727 
L 200.223708 -375.923694 
L 204.0757 -359.755822 
L 205.359698 -363.18537 
L 206.643696 -356.326273 
L 207.927693 -359.265886 
L 209.211691 -354.856466 
L 213.063683 -359.265886 
L 214.347681 -353.876595 
L 215.631678 -349.467175 
L 216.915676 -350.936982 
L 218.199673 -347.507433 
L 222.051666 -347.997369 
L 223.335663 -350.447046 
L 225.903658 -344.56782 
L 227.187656 -343.587949 
L 231.039648 -356.326273 
L 232.323646 -346.037627 
L 233.607643 -334.279174 
L 234.891641 -333.789238 
L 236.175638 -329.379818 
L 240.027631 -342.608078 
L 241.311628 -335.74898 
L 242.595626 -335.259045 
L 243.879623 -338.198658 
L 245.163621 -339.668465 
L 249.015613 -343.587949 
L 250.299611 -343.098013 
L 251.583608 -351.916853 
L 252.867606 -346.527562 
L 254.151603 -345.547691 
L 258.003596 -342.118142 
L 259.287593 -342.118142 
L 260.571591 -340.648336 
L 261.855588 -339.178529 
L 263.139586 -344.077884 
L 266.991578 -339.668465 
L 268.275576 -342.118142 
L 269.559573 -341.138271 
L 270.843571 -331.829496 
L 272.127568 -331.829496 
L 275.979561 -329.379818 
L 277.263559 -335.259045 
L 278.547556 -332.319432 
L 279.831554 -336.238916 
L 281.115551 -341.138271 
L 284.967544 -339.178529 
L 286.251541 -333.789238 
L 287.535539 -331.829496 
L 288.819536 -328.399947 
L 290.103534 -328.399947 
L 293.955526 -324.970399 
L 295.239524 -319.091172 
L 296.523521 -321.54085 
L 297.807519 -318.111301 
L 299.091516 -329.379818 
L 304.227506 -331.339561 
L 305.511504 -330.35969 
L 306.795501 -324.970399 
L 311.931491 -327.420076 
L 313.215489 -326.440205 
L 314.499486 -321.54085 
L 315.783484 -319.091172 
L 317.067481 -322.030785 
L 320.919474 -323.010656 
L 322.203471 -319.581108 
L 323.487469 -327.420076 
L 324.771466 -324.970399 
L 326.055464 -328.399947 
L 329.907456 -328.399947 
L 331.191454 -328.889883 
L 332.475451 -323.010656 
L 333.759449 -322.520721 
L 335.043446 -322.030785 
L 340.179436 -323.010656 
L 341.463434 -320.071043 
L 342.747432 -319.581108 
L 344.031429 -324.970399 
L 347.883422 -324.480463 
L 350.451417 -325.95027 
L 351.735414 -321.54085 
L 353.019412 -321.050914 
L 356.871404 -322.030785 
L 358.155402 -321.050914 
L 359.439399 -317.621366 
L 360.723397 -308.802526 
L 362.007394 -307.332719 
L 365.859387 -301.943428 
L 367.143384 -298.023944 
L 368.427382 -292.144718 
L 369.711379 -291.164847 
L 370.995377 -288.225234 
L 374.847369 -289.69504 
L 376.131367 -286.510459 
L 377.415364 -284.795685 
L 378.699362 -284.795685 
L 379.983359 -285.28562 
L 383.835352 -294.594395 
L 385.119349 -289.450072 
L 386.403347 -284.060781 
L 387.687344 -294.10446 
L 388.971342 -288.960137 
L 392.823334 -288.960137 
L 394.107332 -293.124589 
L 395.391329 -297.534009 
L 396.675327 -299.003815 
L 397.959324 -303.413235 
L 401.811317 -302.9233 
L 403.095314 -298.51388 
L 404.379312 -291.654782 
L 405.663309 -292.144718 
L 406.947307 -292.634653 
L 410.7993 -288.960137 
L 412.083297 -284.060781 
L 413.367295 -278.916458 
L 414.651292 -292.634653 
L 415.93529 -292.634653 
L 419.787282 -296.064202 
L 421.07128 -313.701881 
L 422.355277 -305.372977 
L 423.639275 -305.862913 
L 424.923272 -298.51388 
L 428.775265 -302.9233 
L 430.059262 -298.51388 
L 431.34326 -303.413235 
L 432.627257 -302.433364 
L 433.911255 -297.534009 
L 437.763247 -293.124589 
L 440.331242 -291.164847 
L 441.61524 -286.020524 
L 442.899237 -282.101039 
L 446.75123 -281.856072 
L 448.035227 -283.08091 
L 449.319225 -284.305749 
L 450.603222 -285.28562 
L 451.88722 -280.386265 
L 455.739212 -279.896329 
L 457.02321 -282.835943 
L 458.307207 -284.795685 
L 459.591205 -280.386265 
L 460.875202 -284.550717 
L 464.727195 -285.28562 
L 466.011192 -284.305749 
L 467.29519 -285.040653 
L 468.579187 -283.570846 
L 469.863185 -281.121168 
L 473.715177 -281.121168 
L 474.999175 -281.856072 
L 476.283172 -278.916458 
L 477.56717 -281.366136 
L 478.851167 -284.060781 
L 482.70316 -282.835943 
L 483.987158 -279.161426 
L 485.271155 -275.48691 
L 486.555153 -268.382844 
L 487.83915 -265.443231 
L 491.691143 -264.218392 
L 492.97514 -259.074069 
L 494.259138 -260.05394 
L 503.24712 -248.540455 
L 504.531118 -244.865939 
L 505.815115 -250.745165 
L 510.951105 -247.560584 
L 512.235103 -253.684778 
L 513.5191 -258.584134 
L 514.803098 -256.379424 
L 518.65509 -256.134456 
L 519.939088 -254.419682 
L 521.223085 -249.520326 
L 522.507083 -243.151164 
L 523.79108 -236.047099 
L 527.643073 -230.657808 
L 528.92707 -238.741745 
L 530.211068 -235.557164 
L 531.495065 -229.188002 
L 532.779063 -229.677937 
L 536.631055 -230.902776 
L 537.915053 -229.922905 
L 539.19905 -228.943034 
L 540.483048 -233.597421 
L 541.767045 -247.070649 
L 541.767045 -44.727273 
L 541.767045 -44.727273 
L 540.483048 -44.727273 
L 539.19905 -44.727273 
L 537.915053 -44.727273 
L 536.631055 -44.727273 
L 532.779063 -44.727273 
L 531.495065 -44.727273 
L 530.211068 -44.727273 
L 528.92707 -44.727273 
L 527.643073 -44.727273 
L 523.79108 -44.727273 
L 522.507083 -44.727273 
L 521.223085 -44.727273 
L 519.939088 -44.727273 
L 518.65509 -44.727273 
L 514.803098 -44.727273 
L 513.5191 -44.727273 
L 512.235103 -44.727273 
L 510.951105 -44.727273 
L 505.815115 -44.727273 
L 504.531118 -44.727273 
L 503.24712 -44.727273 
L 494.259138 -44.727273 
L 492.97514 -44.727273 
L 491.691143 -44.727273 
L 487.83915 -44.727273 
L 486.555153 -44.727273 
L 485.271155 -44.727273 
L 483.987158 -44.727273 
L 482.70316 -44.727273 
L 478.851167 -44.727273 
L 477.56717 -44.727273 
L 476.283172 -44.727273 
L 474.999175 -44.727273 
L 473.715177 -44.727273 
L 469.863185 -44.727273 
L 468.579187 -44.727273 
L 467.29519 -44.727273 
L 466.011192 -44.727273 
L 464.727195 -44.727273 
L 460.875202 -44.727273 
L 459.591205 -44.727273 
L 458.307207 -44.727273 
L 457.02321 -44.727273 
L 455.739212 -44.727273 
L 451.88722 -44.727273 
L 450.603222 -44.727273 
L 449.319225 -44.727273 
L 448.035227 -44.727273 
L 446.75123 -44.727273 
L 442.899237 -44.727273 
L 441.61524 -44.727273 
L 440.331242 -44.727273 
L 437.763247 -44.727273 
L 433.911255 -44.727273 
L 432.627257 -44.727273 
L 431.34326 -44.727273 
L 430.059262 -44.727273 
L 428.775265 -44.727273 
L 424.923272 -44.727273 
L 423.639275 -44.727273 
L 422.355277 -44.727273 
L 421.07128 -44.727273 
L 419.787282 -44.727273 
L 415.93529 -44.727273 
L 414.651292 -44.727273 
L 413.367295 -44.727273 
L 412.083297 -44.727273 
L 410.7993 -44.727273 
L 406.947307 -44.727273 
L 405.663309 -44.727273 
L 404.379312 -44.727273 
L 403.095314 -44.727273 
L 401.811317 -44.727273 
L 397.959324 -44.727273 
L 396.675327 -44.727273 
L 395.391329 -44.727273 
L 394.107332 -44.727273 
L 392.823334 -44.727273 
L 388.971342 -44.727273 
L 387.687344 -44.727273 
L 386.403347 -44.727273 
L 385.119349 -44.727273 
L 383.835352 -44.727273 
L 379.983359 -44.727273 
L 378.699362 -44.727273 
L 377.415364 -44.727273 
L 376.131367 -44.727273 
L 374.847369 -44.727273 
L 370.995377 -44.727273 
L 369.711379 -44.727273 
L 368.427382 -44.727273 
L 367.143384 -44.727273 
L 365.859387 -44.727273 
L 362.007394 -44.727273 
L 360.723397 -44.727273 
L 359.439399 -44.727273 
L 358.155402 -44.727273 
L 356.871404 -44.727273 
L 353.019412 -44.727273 
L 351.735414 -44.727273 
L 350.451417 -44.727273 
L 347.883422 -44.727273 
L 344.031429 -44.727273 
L 342.747432 -44.727273 
L 341.463434 -44.727273 
L 340.179436 -44.727273 
L 335.043446 -44.727273 
L 333.759449 -44.727273 
L 332.475451 -44.727273 
L 331.191454 -44.727273 
L 329.907456 -44.727273 
L 326.055464 -44.727273 
L 324.771466 -44.727273 
L 323.487469 -44.727273 
L 322.203471 -44.727273 
L 320.919474 -44.727273 
L 317.067481 -44.727273 
L 315.783484 -44.727273 
L 314.499486 -44.727273 
L 313.215489 -44.727273 
L 311.931491 -44.727273 
L 306.795501 -44.727273 
L 305.511504 -44.727273 
L 304.227506 -44.727273 
L 299.091516 -44.727273 
L 297.807519 -44.727273 
L 296.523521 -44.727273 
L 295.239524 -44.727273 
L 293.955526 -44.727273 
L 290.103534 -44.727273 
L 288.819536 -44.727273 
L 287.535539 -44.727273 
L 286.251541 -44.727273 
L 284.967544 -44.727273 
L 281.115551 -44.727273 
L 279.831554 -44.727273 
L 278.547556 -44.727273 
L 277.263559 -44.727273 
L 275.979561 -44.727273 
L 272.127568 -44.727273 
L 270.843571 -44.727273 
L 269.559573 -44.727273 
L 268.275576 -44.727273 
L 266.991578 -44.727273 
L 263.139586 -44.727273 
L 261.855588 -44.727273 
L 260.571591 -44.727273 
L 259.287593 -44.727273 
L 258.003596 -44.727273 
L 254.151603 -44.727273 
L 252.867606 -44.727273 
L 251.583608 -44.727273 
L 250.299611 -44.727273 
L 249.015613 -44.727273 
L 245.163621 -44.727273 
L 243.879623 -44.727273 
L 242.595626 -44.727273 
L 241.311628 -44.727273 
L 240.027631 -44.727273 
L 236.175638 -44.727273 
L 234.891641 -44.727273 
L 233.607643 -44.727273 
L 232.323646 -44.727273 
L 231.039648 -44.727273 
L 227.187656 -44.727273 
L 225.903658 -44.727273 
L 223.335663 -44.727273 
L 222.051666 -44.727273 
L 218.199673 -44.727273 
L 216.915676 -44.727273 
L 215.631678 -44.727273 
L 214.347681 -44.727273 
L 213.063683 -44.727273 
L 209.211691 -44.727273 
L 207.927693 -44.727273 
L 206.643696 -44.727273 
L 205.359698 -44.727273 
L 204.0757 -44.727273 
L 200.223708 -44.727273 
L 198.93971 -44.727273 
L 197.655713 -44.727273 
L 196.371715 -44.727273 
L 195.087718 -44.727273 
L 191.235725 -44.727273 
L 189.951728 -44.727273 
L 188.66773 -44.727273 
L 187.383733 -44.727273 
L 186.099735 -44.727273 
L 182.247743 -44.727273 
L 180.963745 -44.727273 
L 179.679748 -44.727273 
L 173.25976 -44.727273 
L 171.975763 -44.727273 
L 170.691765 -44.727273 
L 169.407768 -44.727273 
L 168.12377 -44.727273 
L 164.271778 -44.727273 
L 162.98778 -44.727273 
L 161.703783 -44.727273 
L 160.419785 -44.727273 
L 159.135788 -44.727273 
L 155.283795 -44.727273 
L 153.999798 -44.727273 
L 152.7158 -44.727273 
L 151.431803 -44.727273 
L 150.147805 -44.727273 
L 145.011815 -44.727273 
L 143.727818 -44.727273 
L 142.44382 -44.727273 
L 141.159823 -44.727273 
L 137.30783 -44.727273 
L 136.023833 -44.727273 
L 134.739835 -44.727273 
L 133.455837 -44.727273 
L 132.17184 -44.727273 
L 128.319847 -44.727273 
L 127.03585 -44.727273 
L 125.751852 -44.727273 
L 124.467855 -44.727273 
L 123.183857 -44.727273 
L 119.331865 -44.727273 
L 118.047867 -44.727273 
L 116.76387 -44.727273 
L 115.479872 -44.727273 
L 114.195875 -44.727273 
L 110.343882 -44.727273 
L 109.059885 -44.727273 
L 107.775887 -44.727273 
L 106.49189 -44.727273 
L 105.207892 -44.727273 
L 101.3559 -44.727273 
L 100.071902 -44.727273 
L 98.787905 -44.727273 
L 97.503907 -44.727273 
L 96.21991 -44.727273 
L 92.367917 -44.727273 
L 91.08392 -44.727273 
L 89.799922 -44.727273 
L 88.515925 -44.727273 
L 87.231927 -44.727273 
L 83.379935 -44.727273 
L 82.095937 -44.727273 
L 80.81194 -44.727273 
L 79.527942 -44.727273 
L 78.243945 -44.727273 
L 74.391952 -44.727273 
L 73.107955 -44.727273 
z
" id="mbcfbc99694" style="stroke:#c6a2d2;"/>
    </defs>
    <g clip-path="url(#p663d34affb)">
     <use style="fill:#c6a2d2;stroke:#c6a2d2;" x="0" xlink:href="#mbcfbc99694" y="432"/>
    </g>
   </g>
   <g id="matplotlib.axis_1">
    <g id="xtick_1">
     <g id="line2d_1">
      <defs>
       <path d="M 0 0 
L 0 3.5 
" id="mf01e9fe5d6" style="stroke:#000000;stroke-width:0.8;"/>
      </defs>
      <g>
       <use style="stroke:#000000;stroke-width:0.8;" x="70.53996" xlink:href="#mf01e9fe5d6" y="404.2"/>
      </g>
     </g>
     <g id="text_1">
      <!-- 2022-11 -->
      <defs>
       <path d="M 19.1875 8.296875 
L 53.609375 8.296875 
L 53.609375 0 
L 7.328125 0 
L 7.328125 8.296875 
Q 12.9375 14.109375 22.625 23.890625 
Q 32.328125 33.6875 34.8125 36.53125 
Q 39.546875 41.84375 41.421875 45.53125 
Q 43.3125 49.21875 43.3125 52.78125 
Q 43.3125 58.59375 39.234375 62.25 
Q 35.15625 65.921875 28.609375 65.921875 
Q 23.96875 65.921875 18.8125 64.3125 
Q 13.671875 62.703125 7.8125 59.421875 
L 7.8125 69.390625 
Q 13.765625 71.78125 18.9375 73 
Q 24.125 74.21875 28.421875 74.21875 
Q 39.75 74.21875 46.484375 68.546875 
Q 53.21875 62.890625 53.21875 53.421875 
Q 53.21875 48.921875 51.53125 44.890625 
Q 49.859375 40.875 45.40625 35.40625 
Q 44.1875 33.984375 37.640625 27.21875 
Q 31.109375 20.453125 19.1875 8.296875 
z
" id="DejaVuSans-50"/>
       <path d="M 31.78125 66.40625 
Q 24.171875 66.40625 20.328125 58.90625 
Q 16.5 51.421875 16.5 36.375 
Q 16.5 21.390625 20.328125 13.890625 
Q 24.171875 6.390625 31.78125 6.390625 
Q 39.453125 6.390625 43.28125 13.890625 
Q 47.125 21.390625 47.125 36.375 
Q 47.125 51.421875 43.28125 58.90625 
Q 39.453125 66.40625 31.78125 66.40625 
z
M 31.78125 74.21875 
Q 44.046875 74.21875 50.515625 64.515625 
Q 56.984375 54.828125 56.984375 36.375 
Q 56.984375 17.96875 50.515625 8.265625 
Q 44.046875 -1.421875 31.78125 -1.421875 
Q 19.53125 -1.421875 13.0625 8.265625 
Q 6.59375 17.96875 6.59375 36.375 
Q 6.59375 54.828125 13.0625 64.515625 
Q 19.53125 74.21875 31.78125 74.21875 
z
" id="DejaVuSans-48"/>
       <path d="M 4.890625 31.390625 
L 31.203125 31.390625 
L 31.203125 23.390625 
L 4.890625 23.390625 
z
" id="DejaVuSans-45"/>
       <path d="M 12.40625 8.296875 
L 28.515625 8.296875 
L 28.515625 63.921875 
L 10.984375 60.40625 
L 10.984375 69.390625 
L 28.421875 72.90625 
L 38.28125 72.90625 
L 38.28125 8.296875 
L 54.390625 8.296875 
L 54.390625 0 
L 12.40625 0 
z
" id="DejaVuSans-49"/>
      </defs>
      <g transform="translate(49.648553 418.798437)scale(0.1 -0.1)">
       <use xlink:href="#DejaVuSans-50"/>
       <use x="63.623047" xlink:href="#DejaVuSans-48"/>
       <use x="127.246094" xlink:href="#DejaVuSans-50"/>
       <use x="190.869141" xlink:href="#DejaVuSans-50"/>
       <use x="254.492188" xlink:href="#DejaVuSans-45"/>
       <use x="290.576172" xlink:href="#DejaVuSans-49"/>
       <use x="354.199219" xlink:href="#DejaVuSans-49"/>
      </g>
     </g>
    </g>
    <g id="xtick_2">
     <g id="line2d_2">
      <g>
       <use style="stroke:#000000;stroke-width:0.8;" x="148.863808" xlink:href="#mf01e9fe5d6" y="404.2"/>
      </g>
     </g>
     <g id="text_2">
      <!-- 2023-01 -->
      <defs>
       <path d="M 40.578125 39.3125 
Q 47.65625 37.796875 51.625 33 
Q 55.609375 28.21875 55.609375 21.1875 
Q 55.609375 10.40625 48.1875 4.484375 
Q 40.765625 -1.421875 27.09375 -1.421875 
Q 22.515625 -1.421875 17.65625 -0.515625 
Q 12.796875 0.390625 7.625 2.203125 
L 7.625 11.71875 
Q 11.71875 9.328125 16.59375 8.109375 
Q 21.484375 6.890625 26.8125 6.890625 
Q 36.078125 6.890625 40.9375 10.546875 
Q 45.796875 14.203125 45.796875 21.1875 
Q 45.796875 27.640625 41.28125 31.265625 
Q 36.765625 34.90625 28.71875 34.90625 
L 20.21875 34.90625 
L 20.21875 43.015625 
L 29.109375 43.015625 
Q 36.375 43.015625 40.234375 45.921875 
Q 44.09375 48.828125 44.09375 54.296875 
Q 44.09375 59.90625 40.109375 62.90625 
Q 36.140625 65.921875 28.71875 65.921875 
Q 24.65625 65.921875 20.015625 65.03125 
Q 15.375 64.15625 9.8125 62.3125 
L 9.8125 71.09375 
Q 15.4375 72.65625 20.34375 73.4375 
Q 25.25 74.21875 29.59375 74.21875 
Q 40.828125 74.21875 47.359375 69.109375 
Q 53.90625 64.015625 53.90625 55.328125 
Q 53.90625 49.265625 50.4375 45.09375 
Q 46.96875 40.921875 40.578125 39.3125 
z
" id="DejaVuSans-51"/>
      </defs>
      <g transform="translate(127.972401 418.798437)scale(0.1 -0.1)">
       <use xlink:href="#DejaVuSans-50"/>
       <use x="63.623047" xlink:href="#DejaVuSans-48"/>
       <use x="127.246094" xlink:href="#DejaVuSans-50"/>
       <use x="190.869141" xlink:href="#DejaVuSans-51"/>
       <use x="254.492188" xlink:href="#DejaVuSans-45"/>
       <use x="290.576172" xlink:href="#DejaVuSans-48"/>
       <use x="354.199219" xlink:href="#DejaVuSans-49"/>
      </g>
     </g>
    </g>
    <g id="xtick_3">
     <g id="line2d_3">
      <g>
       <use style="stroke:#000000;stroke-width:0.8;" x="224.619661" xlink:href="#mf01e9fe5d6" y="404.2"/>
      </g>
     </g>
     <g id="text_3">
      <!-- 2023-03 -->
      <g transform="translate(203.728254 418.798437)scale(0.1 -0.1)">
       <use xlink:href="#DejaVuSans-50"/>
       <use x="63.623047" xlink:href="#DejaVuSans-48"/>
       <use x="127.246094" xlink:href="#DejaVuSans-50"/>
       <use x="190.869141" xlink:href="#DejaVuSans-51"/>
       <use x="254.492188" xlink:href="#DejaVuSans-45"/>
       <use x="290.576172" xlink:href="#DejaVuSans-48"/>
       <use x="354.199219" xlink:href="#DejaVuSans-51"/>
      </g>
     </g>
    </g>
    <g id="xtick_4">
     <g id="line2d_4">
      <g>
       <use style="stroke:#000000;stroke-width:0.8;" x="302.943509" xlink:href="#mf01e9fe5d6" y="404.2"/>
      </g>
     </g>
     <g id="text_4">
      <!-- 2023-05 -->
      <defs>
       <path d="M 10.796875 72.90625 
L 49.515625 72.90625 
L 49.515625 64.59375 
L 19.828125 64.59375 
L 19.828125 46.734375 
Q 21.96875 47.46875 24.109375 47.828125 
Q 26.265625 48.1875 28.421875 48.1875 
Q 40.625 48.1875 47.75 41.5 
Q 54.890625 34.8125 54.890625 23.390625 
Q 54.890625 11.625 47.5625 5.09375 
Q 40.234375 -1.421875 26.90625 -1.421875 
Q 22.3125 -1.421875 17.546875 -0.640625 
Q 12.796875 0.140625 7.71875 1.703125 
L 7.71875 11.625 
Q 12.109375 9.234375 16.796875 8.0625 
Q 21.484375 6.890625 26.703125 6.890625 
Q 35.15625 6.890625 40.078125 11.328125 
Q 45.015625 15.765625 45.015625 23.390625 
Q 45.015625 31 40.078125 35.4375 
Q 35.15625 39.890625 26.703125 39.890625 
Q 22.75 39.890625 18.8125 39.015625 
Q 14.890625 38.140625 10.796875 36.28125 
z
" id="DejaVuSans-53"/>
      </defs>
      <g transform="translate(282.052102 418.798437)scale(0.1 -0.1)">
       <use xlink:href="#DejaVuSans-50"/>
       <use x="63.623047" xlink:href="#DejaVuSans-48"/>
       <use x="127.246094" xlink:href="#DejaVuSans-50"/>
       <use x="190.869141" xlink:href="#DejaVuSans-51"/>
       <use x="254.492188" xlink:href="#DejaVuSans-45"/>
       <use x="290.576172" xlink:href="#DejaVuSans-48"/>
       <use x="354.199219" xlink:href="#DejaVuSans-53"/>
      </g>
     </g>
    </g>
    <g id="xtick_5">
     <g id="line2d_5">
      <g>
       <use style="stroke:#000000;stroke-width:0.8;" x="381.267357" xlink:href="#mf01e9fe5d6" y="404.2"/>
      </g>
     </g>
     <g id="text_5">
      <!-- 2023-07 -->
      <defs>
       <path d="M 8.203125 72.90625 
L 55.078125 72.90625 
L 55.078125 68.703125 
L 28.609375 0 
L 18.3125 0 
L 43.21875 64.59375 
L 8.203125 64.59375 
z
" id="DejaVuSans-55"/>
      </defs>
      <g transform="translate(360.375951 418.798437)scale(0.1 -0.1)">
       <use xlink:href="#DejaVuSans-50"/>
       <use x="63.623047" xlink:href="#DejaVuSans-48"/>
       <use x="127.246094" xlink:href="#DejaVuSans-50"/>
       <use x="190.869141" xlink:href="#DejaVuSans-51"/>
       <use x="254.492188" xlink:href="#DejaVuSans-45"/>
       <use x="290.576172" xlink:href="#DejaVuSans-48"/>
       <use x="354.199219" xlink:href="#DejaVuSans-55"/>
      </g>
     </g>
    </g>
    <g id="xtick_6">
     <g id="line2d_6">
      <g>
       <use style="stroke:#000000;stroke-width:0.8;" x="460.875202" xlink:href="#mf01e9fe5d6" y="404.2"/>
      </g>
     </g>
     <g id="text_6">
      <!-- 2023-09 -->
      <defs>
       <path d="M 10.984375 1.515625 
L 10.984375 10.5 
Q 14.703125 8.734375 18.5 7.8125 
Q 22.3125 6.890625 25.984375 6.890625 
Q 35.75 6.890625 40.890625 13.453125 
Q 46.046875 20.015625 46.78125 33.40625 
Q 43.953125 29.203125 39.59375 26.953125 
Q 35.25 24.703125 29.984375 24.703125 
Q 19.046875 24.703125 12.671875 31.3125 
Q 6.296875 37.9375 6.296875 49.421875 
Q 6.296875 60.640625 12.9375 67.421875 
Q 19.578125 74.21875 30.609375 74.21875 
Q 43.265625 74.21875 49.921875 64.515625 
Q 56.59375 54.828125 56.59375 36.375 
Q 56.59375 19.140625 48.40625 8.859375 
Q 40.234375 -1.421875 26.421875 -1.421875 
Q 22.703125 -1.421875 18.890625 -0.6875 
Q 15.09375 0.046875 10.984375 1.515625 
z
M 30.609375 32.421875 
Q 37.25 32.421875 41.125 36.953125 
Q 45.015625 41.5 45.015625 49.421875 
Q 45.015625 57.28125 41.125 61.84375 
Q 37.25 66.40625 30.609375 66.40625 
Q 23.96875 66.40625 20.09375 61.84375 
Q 16.21875 57.28125 16.21875 49.421875 
Q 16.21875 41.5 20.09375 36.953125 
Q 23.96875 32.421875 30.609375 32.421875 
z
" id="DejaVuSans-57"/>
      </defs>
      <g transform="translate(439.983796 418.798437)scale(0.1 -0.1)">
       <use xlink:href="#DejaVuSans-50"/>
       <use x="63.623047" xlink:href="#DejaVuSans-48"/>
       <use x="127.246094" xlink:href="#DejaVuSans-50"/>
       <use x="190.869141" xlink:href="#DejaVuSans-51"/>
       <use x="254.492188" xlink:href="#DejaVuSans-45"/>
       <use x="290.576172" xlink:href="#DejaVuSans-48"/>
       <use x="354.199219" xlink:href="#DejaVuSans-57"/>
      </g>
     </g>
    </g>
    <g id="xtick_7">
     <g id="line2d_7">
      <g>
       <use style="stroke:#000000;stroke-width:0.8;" x="539.19905" xlink:href="#mf01e9fe5d6" y="404.2"/>
      </g>
     </g>
     <g id="text_7">
      <!-- 2023-11 -->
      <g transform="translate(518.307644 418.798437)scale(0.1 -0.1)">
       <use xlink:href="#DejaVuSans-50"/>
       <use x="63.623047" xlink:href="#DejaVuSans-48"/>
       <use x="127.246094" xlink:href="#DejaVuSans-50"/>
       <use x="190.869141" xlink:href="#DejaVuSans-51"/>
       <use x="254.492188" xlink:href="#DejaVuSans-45"/>
       <use x="290.576172" xlink:href="#DejaVuSans-49"/>
       <use x="354.199219" xlink:href="#DejaVuSans-49"/>
      </g>
     </g>
    </g>
   </g>
   <g id="matplotlib.axis_2">
    <g id="ytick_1">
     <g id="line2d_8">
      <defs>
       <path d="M 0 0 
L -3.5 0 
" id="m30b8b2adad" style="stroke:#000000;stroke-width:0.8;"/>
      </defs>
      <g>
       <use style="stroke:#000000;stroke-width:0.8;" x="49.675" xlink:href="#m30b8b2adad" y="387.272727"/>
      </g>
     </g>
     <g id="text_8">
      <!-- 0 -->
      <g transform="translate(36.3125 391.071946)scale(0.1 -0.1)">
       <use xlink:href="#DejaVuSans-48"/>
      </g>
     </g>
    </g>
    <g id="ytick_2">
     <g id="line2d_9">
      <g>
       <use style="stroke:#000000;stroke-width:0.8;" x="49.675" xlink:href="#m30b8b2adad" y="338.279174"/>
      </g>
     </g>
     <g id="text_9">
      <!-- 10000 -->
      <g transform="translate(10.8625 342.078393)scale(0.1 -0.1)">
       <use xlink:href="#DejaVuSans-49"/>
       <use x="63.623047" xlink:href="#DejaVuSans-48"/>
       <use x="127.246094" xlink:href="#DejaVuSans-48"/>
       <use x="190.869141" xlink:href="#DejaVuSans-48"/>
       <use x="254.492188" xlink:href="#DejaVuSans-48"/>
      </g>
     </g>
    </g>
    <g id="ytick_3">
     <g id="line2d_10">
      <g>
       <use style="stroke:#000000;stroke-width:0.8;" x="49.675" xlink:href="#m30b8b2adad" y="289.28562"/>
      </g>
     </g>
     <g id="text_10">
      <!-- 20000 -->
      <g transform="translate(10.8625 293.084839)scale(0.1 -0.1)">
       <use xlink:href="#DejaVuSans-50"/>
       <use x="63.623047" xlink:href="#DejaVuSans-48"/>
       <use x="127.246094" xlink:href="#DejaVuSans-48"/>
       <use x="190.869141" xlink:href="#DejaVuSans-48"/>
       <use x="254.492188" xlink:href="#DejaVuSans-48"/>
      </g>
     </g>
    </g>
    <g id="ytick_4">
     <g id="line2d_11">
      <g>
       <use style="stroke:#000000;stroke-width:0.8;" x="49.675" xlink:href="#m30b8b2adad" y="240.292067"/>
      </g>
     </g>
     <g id="text_11">
      <!-- 30000 -->
      <g transform="translate(10.8625 244.091286)scale(0.1 -0.1)">
       <use xlink:href="#DejaVuSans-51"/>
       <use x="63.623047" xlink:href="#DejaVuSans-48"/>
       <use x="127.246094" xlink:href="#DejaVuSans-48"/>
       <use x="190.869141" xlink:href="#DejaVuSans-48"/>
       <use x="254.492188" xlink:href="#DejaVuSans-48"/>
      </g>
     </g>
    </g>
    <g id="ytick_5">
     <g id="line2d_12">
      <g>
       <use style="stroke:#000000;stroke-width:0.8;" x="49.675" xlink:href="#m30b8b2adad" y="191.298513"/>
      </g>
     </g>
     <g id="text_12">
      <!-- 40000 -->
      <defs>
       <path d="M 37.796875 64.3125 
L 12.890625 25.390625 
L 37.796875 25.390625 
z
M 35.203125 72.90625 
L 47.609375 72.90625 
L 47.609375 25.390625 
L 58.015625 25.390625 
L 58.015625 17.1875 
L 47.609375 17.1875 
L 47.609375 0 
L 37.796875 0 
L 37.796875 17.1875 
L 4.890625 17.1875 
L 4.890625 26.703125 
z
" id="DejaVuSans-52"/>
      </defs>
      <g transform="translate(10.8625 195.097732)scale(0.1 -0.1)">
       <use xlink:href="#DejaVuSans-52"/>
       <use x="63.623047" xlink:href="#DejaVuSans-48"/>
       <use x="127.246094" xlink:href="#DejaVuSans-48"/>
       <use x="190.869141" xlink:href="#DejaVuSans-48"/>
       <use x="254.492188" xlink:href="#DejaVuSans-48"/>
      </g>
     </g>
    </g>
    <g id="ytick_6">
     <g id="line2d_13">
      <g>
       <use style="stroke:#000000;stroke-width:0.8;" x="49.675" xlink:href="#m30b8b2adad" y="142.30496"/>
      </g>
     </g>
     <g id="text_13">
      <!-- 50000 -->
      <g transform="translate(10.8625 146.104179)scale(0.1 -0.1)">
       <use xlink:href="#DejaVuSans-53"/>
       <use x="63.623047" xlink:href="#DejaVuSans-48"/>
       <use x="127.246094" xlink:href="#DejaVuSans-48"/>
       <use x="190.869141" xlink:href="#DejaVuSans-48"/>
       <use x="254.492188" xlink:href="#DejaVuSans-48"/>
      </g>
     </g>
    </g>
    <g id="ytick_7">
     <g id="line2d_14">
      <g>
       <use style="stroke:#000000;stroke-width:0.8;" x="49.675" xlink:href="#m30b8b2adad" y="93.311406"/>
      </g>
     </g>
     <g id="text_14">
      <!-- 60000 -->
      <defs>
       <path d="M 33.015625 40.375 
Q 26.375 40.375 22.484375 35.828125 
Q 18.609375 31.296875 18.609375 23.390625 
Q 18.609375 15.53125 22.484375 10.953125 
Q 26.375 6.390625 33.015625 6.390625 
Q 39.65625 6.390625 43.53125 10.953125 
Q 47.40625 15.53125 47.40625 23.390625 
Q 47.40625 31.296875 43.53125 35.828125 
Q 39.65625 40.375 33.015625 40.375 
z
M 52.59375 71.296875 
L 52.59375 62.3125 
Q 48.875 64.0625 45.09375 64.984375 
Q 41.3125 65.921875 37.59375 65.921875 
Q 27.828125 65.921875 22.671875 59.328125 
Q 17.53125 52.734375 16.796875 39.40625 
Q 19.671875 43.65625 24.015625 45.921875 
Q 28.375 48.1875 33.59375 48.1875 
Q 44.578125 48.1875 50.953125 41.515625 
Q 57.328125 34.859375 57.328125 23.390625 
Q 57.328125 12.15625 50.6875 5.359375 
Q 44.046875 -1.421875 33.015625 -1.421875 
Q 20.359375 -1.421875 13.671875 8.265625 
Q 6.984375 17.96875 6.984375 36.375 
Q 6.984375 53.65625 15.1875 63.9375 
Q 23.390625 74.21875 37.203125 74.21875 
Q 40.921875 74.21875 44.703125 73.484375 
Q 48.484375 72.75 52.59375 71.296875 
z
" id="DejaVuSans-54"/>
      </defs>
      <g transform="translate(10.8625 97.110625)scale(0.1 -0.1)">
       <use xlink:href="#DejaVuSans-54"/>
       <use x="63.623047" xlink:href="#DejaVuSans-48"/>
       <use x="127.246094" xlink:href="#DejaVuSans-48"/>
       <use x="190.869141" xlink:href="#DejaVuSans-48"/>
       <use x="254.492188" xlink:href="#DejaVuSans-48"/>
      </g>
     </g>
    </g>
    <g id="ytick_8">
     <g id="line2d_15">
      <g>
       <use style="stroke:#000000;stroke-width:0.8;" x="49.675" xlink:href="#m30b8b2adad" y="44.317853"/>
      </g>
     </g>
     <g id="text_15">
      <!-- 70000 -->
      <g transform="translate(10.8625 48.117072)scale(0.1 -0.1)">
       <use xlink:href="#DejaVuSans-55"/>
       <use x="63.623047" xlink:href="#DejaVuSans-48"/>
       <use x="127.246094" xlink:href="#DejaVuSans-48"/>
       <use x="190.869141" xlink:href="#DejaVuSans-48"/>
       <use x="254.492188" xlink:href="#DejaVuSans-48"/>
      </g>
     </g>
    </g>
   </g>
   <g id="patch_3">
    <path d="M 49.675 404.2 
L 49.675 31.8 
" style="fill:none;stroke:#000000;stroke-linecap:square;stroke-linejoin:miter;stroke-width:0.8;"/>
   </g>
   <g id="patch_4">
    <path d="M 565.2 404.2 
L 565.2 31.8 
" style="fill:none;stroke:#000000;stroke-linecap:square;stroke-linejoin:miter;stroke-width:0.8;"/>
   </g>
   <g id="patch_5">
    <path d="M 49.675 404.2 
L 565.2 404.2 
" style="fill:none;stroke:#000000;stroke-linecap:square;stroke-linejoin:miter;stroke-width:0.8;"/>
   </g>
   <g id="patch_6">
    <path d="M 49.675 31.8 
L 565.2 31.8 
" style="fill:none;stroke:#000000;stroke-linecap:square;stroke-linejoin:miter;stroke-width:0.8;"/>
   </g>
   <g id="text_16">
    <!-- 035720.KS - -17% -->
    <defs>
     <path d="M 46 36.53125 
Q 46 50.203125 43.4375 55.78125 
Q 40.875 61.375 34.8125 61.375 
Q 28.765625 61.375 26.171875 55.78125 
Q 23.578125 50.203125 23.578125 36.53125 
Q 23.578125 22.703125 26.171875 17.03125 
Q 28.765625 11.375 34.8125 11.375 
Q 40.828125 11.375 43.40625 17.03125 
Q 46 22.703125 46 36.53125 
z
M 64.796875 36.375 
Q 64.796875 18.265625 56.984375 8.421875 
Q 49.171875 -1.421875 34.8125 -1.421875 
Q 20.40625 -1.421875 12.59375 8.421875 
Q 4.78125 18.265625 4.78125 36.375 
Q 4.78125 54.546875 12.59375 64.375 
Q 20.40625 74.21875 34.8125 74.21875 
Q 49.171875 74.21875 56.984375 64.375 
Q 64.796875 54.546875 64.796875 36.375 
z
" id="DejaVuSans-Bold-48"/>
     <path d="M 46.578125 39.3125 
Q 53.953125 37.40625 57.78125 32.6875 
Q 61.625 27.984375 61.625 20.703125 
Q 61.625 9.859375 53.3125 4.21875 
Q 45.015625 -1.421875 29.109375 -1.421875 
Q 23.484375 -1.421875 17.84375 -0.515625 
Q 12.203125 0.390625 6.6875 2.203125 
L 6.6875 16.703125 
Q 11.96875 14.0625 17.15625 12.71875 
Q 22.359375 11.375 27.390625 11.375 
Q 34.859375 11.375 38.84375 13.953125 
Q 42.828125 16.546875 42.828125 21.390625 
Q 42.828125 26.375 38.75 28.9375 
Q 34.671875 31.5 26.703125 31.5 
L 19.1875 31.5 
L 19.1875 43.609375 
L 27.09375 43.609375 
Q 34.1875 43.609375 37.640625 45.828125 
Q 41.109375 48.046875 41.109375 52.59375 
Q 41.109375 56.78125 37.734375 59.078125 
Q 34.375 61.375 28.21875 61.375 
Q 23.6875 61.375 19.046875 60.34375 
Q 14.40625 59.328125 9.8125 57.328125 
L 9.8125 71.09375 
Q 15.375 72.65625 20.84375 73.4375 
Q 26.3125 74.21875 31.59375 74.21875 
Q 45.796875 74.21875 52.84375 69.546875 
Q 59.90625 64.890625 59.90625 55.515625 
Q 59.90625 49.125 56.53125 45.046875 
Q 53.171875 40.96875 46.578125 39.3125 
z
" id="DejaVuSans-Bold-51"/>
     <path d="M 10.59375 72.90625 
L 57.328125 72.90625 
L 57.328125 59.078125 
L 25.59375 59.078125 
L 25.59375 47.796875 
Q 27.734375 48.390625 29.90625 48.703125 
Q 32.078125 49.03125 34.421875 49.03125 
Q 47.75 49.03125 55.171875 42.359375 
Q 62.59375 35.6875 62.59375 23.78125 
Q 62.59375 11.96875 54.515625 5.265625 
Q 46.4375 -1.421875 32.078125 -1.421875 
Q 25.875 -1.421875 19.796875 -0.21875 
Q 13.71875 0.984375 7.71875 3.421875 
L 7.71875 18.21875 
Q 13.671875 14.796875 19.015625 13.078125 
Q 24.359375 11.375 29.109375 11.375 
Q 35.9375 11.375 39.859375 14.71875 
Q 43.796875 18.0625 43.796875 23.78125 
Q 43.796875 29.546875 39.859375 32.859375 
Q 35.9375 36.1875 29.109375 36.1875 
Q 25.046875 36.1875 20.453125 35.125 
Q 15.875 34.078125 10.59375 31.890625 
z
" id="DejaVuSans-Bold-53"/>
     <path d="M 6.6875 72.90625 
L 61.625 72.90625 
L 61.625 62.3125 
L 33.203125 0 
L 14.890625 0 
L 41.796875 59.078125 
L 6.6875 59.078125 
z
" id="DejaVuSans-Bold-55"/>
     <path d="M 28.8125 13.8125 
L 60.890625 13.8125 
L 60.890625 0 
L 7.90625 0 
L 7.90625 13.8125 
L 34.515625 37.3125 
Q 38.09375 40.53125 39.796875 43.609375 
Q 41.5 46.6875 41.5 50 
Q 41.5 55.125 38.0625 58.25 
Q 34.625 61.375 28.90625 61.375 
Q 24.515625 61.375 19.28125 59.5 
Q 14.0625 57.625 8.109375 53.90625 
L 8.109375 69.921875 
Q 14.453125 72.015625 20.65625 73.109375 
Q 26.859375 74.21875 32.8125 74.21875 
Q 45.90625 74.21875 53.15625 68.453125 
Q 60.40625 62.703125 60.40625 52.390625 
Q 60.40625 46.4375 57.328125 41.28125 
Q 54.25 36.140625 44.390625 27.484375 
z
" id="DejaVuSans-Bold-50"/>
     <path d="M 10.203125 18.890625 
L 27.78125 18.890625 
L 27.78125 0 
L 10.203125 0 
z
" id="DejaVuSans-Bold-46"/>
     <path d="M 9.1875 72.90625 
L 27.984375 72.90625 
L 27.984375 46.296875 
L 55.078125 72.90625 
L 76.90625 72.90625 
L 41.796875 38.375 
L 80.515625 0 
L 56.984375 0 
L 27.984375 28.71875 
L 27.984375 0 
L 9.1875 0 
z
" id="DejaVuSans-Bold-75"/>
     <path d="M 59.90625 70.609375 
L 59.90625 55.171875 
Q 53.90625 57.859375 48.1875 59.21875 
Q 42.484375 60.59375 37.40625 60.59375 
Q 30.671875 60.59375 27.4375 58.734375 
Q 24.21875 56.890625 24.21875 52.984375 
Q 24.21875 50.046875 26.390625 48.40625 
Q 28.5625 46.78125 34.28125 45.609375 
L 42.28125 44 
Q 54.4375 41.546875 59.5625 36.5625 
Q 64.703125 31.59375 64.703125 22.40625 
Q 64.703125 10.359375 57.546875 4.46875 
Q 50.390625 -1.421875 35.6875 -1.421875 
Q 28.765625 -1.421875 21.78125 -0.09375 
Q 14.796875 1.21875 7.8125 3.8125 
L 7.8125 19.671875 
Q 14.796875 15.96875 21.3125 14.078125 
Q 27.828125 12.203125 33.890625 12.203125 
Q 40.046875 12.203125 43.3125 14.25 
Q 46.578125 16.3125 46.578125 20.125 
Q 46.578125 23.53125 44.359375 25.390625 
Q 42.140625 27.25 35.5 28.71875 
L 28.21875 30.328125 
Q 17.28125 32.671875 12.21875 37.796875 
Q 7.171875 42.921875 7.171875 51.609375 
Q 7.171875 62.5 14.203125 68.359375 
Q 21.234375 74.21875 34.421875 74.21875 
Q 40.4375 74.21875 46.78125 73.3125 
Q 53.125 72.40625 59.90625 70.609375 
z
" id="DejaVuSans-Bold-83"/>
     <path id="DejaVuSans-Bold-32"/>
     <path d="M 5.421875 35.890625 
L 36.078125 35.890625 
L 36.078125 21.6875 
L 5.421875 21.6875 
z
" id="DejaVuSans-Bold-45"/>
     <path d="M 11.71875 12.984375 
L 28.328125 12.984375 
L 28.328125 60.109375 
L 11.28125 56.59375 
L 11.28125 69.390625 
L 28.21875 72.90625 
L 46.09375 72.90625 
L 46.09375 12.984375 
L 62.703125 12.984375 
L 62.703125 0 
L 11.71875 0 
z
" id="DejaVuSans-Bold-49"/>
     <path d="M 77.484375 30.078125 
Q 74.03125 30.078125 72.125 27.078125 
Q 70.21875 24.078125 70.21875 18.5 
Q 70.21875 12.890625 72.09375 9.890625 
Q 73.96875 6.890625 77.484375 6.890625 
Q 81 6.890625 82.859375 9.890625 
Q 84.71875 12.890625 84.71875 18.5 
Q 84.71875 24.078125 82.828125 27.078125 
Q 80.953125 30.078125 77.484375 30.078125 
z
M 77.484375 38.28125 
Q 86.578125 38.28125 91.796875 33 
Q 97.015625 27.734375 97.015625 18.5 
Q 97.015625 9.28125 91.796875 3.921875 
Q 86.578125 -1.421875 77.484375 -1.421875 
Q 68.40625 -1.421875 63.15625 3.921875 
Q 57.90625 9.28125 57.90625 18.5 
Q 57.90625 27.6875 63.15625 32.984375 
Q 68.40625 38.28125 77.484375 38.28125 
z
M 32.71875 -1.421875 
L 21.921875 -1.421875 
L 67.484375 74.21875 
L 78.328125 74.21875 
z
M 22.703125 74.21875 
Q 31.78125 74.21875 36.984375 68.921875 
Q 42.1875 63.625 42.1875 54.390625 
Q 42.1875 45.171875 36.984375 39.84375 
Q 31.78125 34.515625 22.703125 34.515625 
Q 13.625 34.515625 8.421875 39.84375 
Q 3.21875 45.171875 3.21875 54.390625 
Q 3.21875 63.625 8.421875 68.921875 
Q 13.625 74.21875 22.703125 74.21875 
z
M 22.703125 66.015625 
Q 19.1875 66.015625 17.28125 62.984375 
Q 15.375 59.96875 15.375 54.390625 
Q 15.375 48.78125 17.28125 45.71875 
Q 19.1875 42.671875 22.703125 42.671875 
Q 26.21875 42.671875 28.09375 45.71875 
Q 29.984375 48.78125 29.984375 54.390625 
Q 29.984375 59.96875 28.078125 62.984375 
Q 26.171875 66.015625 22.703125 66.015625 
z
" id="DejaVuSans-Bold-37"/>
    </defs>
    <g transform="translate(49.675 25.8)scale(0.2 -0.2)">
     <use xlink:href="#DejaVuSans-Bold-48"/>
     <use x="69.580078" xlink:href="#DejaVuSans-Bold-51"/>
     <use x="139.160156" xlink:href="#DejaVuSans-Bold-53"/>
     <use x="208.740234" xlink:href="#DejaVuSans-Bold-55"/>
     <use x="278.320312" xlink:href="#DejaVuSans-Bold-50"/>
     <use x="347.900391" xlink:href="#DejaVuSans-Bold-48"/>
     <use x="417.480469" xlink:href="#DejaVuSans-Bold-46"/>
     <use x="455.46875" xlink:href="#DejaVuSans-Bold-75"/>
     <use x="532.958984" xlink:href="#DejaVuSans-Bold-83"/>
     <use x="604.980469" xlink:href="#DejaVuSans-Bold-32"/>
     <use x="639.794922" xlink:href="#DejaVuSans-Bold-45"/>
     <use x="681.298828" xlink:href="#DejaVuSans-Bold-32"/>
     <use x="716.113281" xlink:href="#DejaVuSans-Bold-45"/>
     <use x="757.617188" xlink:href="#DejaVuSans-Bold-49"/>
     <use x="827.197266" xlink:href="#DejaVuSans-Bold-55"/>
     <use x="896.777344" xlink:href="#DejaVuSans-Bold-37"/>
    </g>
   </g>
  </g>
 </g>
 <defs>
  <clipPath id="p663d34affb">
   <rect height="372.4" width="515.525" x="49.675" y="31.8"/>
  </clipPath>
 </defs>
</svg>
