<?xml version="1.0" encoding="utf-8" standalone="no"?>
<!DOCTYPE svg PUBLIC "-//W3C//DTD SVG 1.1//EN"
  "http://www.w3.org/Graphics/SVG/1.1/DTD/svg11.dtd">
<!-- Created with matplotlib (https://matplotlib.org/) -->
<svg height="432pt" version="1.1" viewBox="0 0 576 432" width="576pt" xmlns="http://www.w3.org/2000/svg" xmlns:xlink="http://www.w3.org/1999/xlink">
 <defs>
  <style type="text/css">
*{stroke-linecap:butt;stroke-linejoin:round;}
  </style>
 </defs>
 <g id="figure_1">
  <g id="patch_1">
   <path d="M 0 432 
L 576 432 
L 576 0 
L 0 0 
z
" style="fill:#ffffff;"/>
  </g>
  <g id="axes_1">
   <g id="patch_2">
    <path d="M 36.925 404.2 
L 565.2 404.2 
L 565.2 31.8 
L 36.925 31.8 
z
" style="fill:#ffffff;"/>
   </g>
   <g id="PolyCollection_1">
    <defs>
     <path d="M 60.9375 -44.727273 
L 60.9375 -192.500725 
L 62.253253 -195.547595 
L 63.569007 -197.071031 
L 67.516267 -196.766344 
L 68.832021 -196.461657 
L 70.147774 -199.508536 
L 71.463527 -194.02416 
L 72.779281 -204.078852 
L 76.726541 -199.508536 
L 78.042295 -201.031972 
L 79.358048 -203.774155 
L 80.673801 -202.555407 
L 81.989555 -202.860094 
L 85.936815 -201.031972 
L 87.252568 -203.469468 
L 88.568322 -204.688226 
L 89.884075 -208.649167 
L 91.199829 -206.516348 
L 95.147089 -207.125722 
L 96.462842 -208.039793 
L 97.778596 -210.172592 
L 99.094349 -210.477289 
L 100.410103 -202.555407 
L 104.357363 -201.946033 
L 105.673116 -203.164781 
L 106.98887 -196.156969 
L 108.304623 -196.156969 
L 109.620377 -197.375718 
L 113.567637 -196.461657 
L 114.88339 -195.852282 
L 116.199144 -201.946033 
L 117.514897 -204.688226 
L 118.830651 -200.117911 
L 122.777911 -200.727285 
L 124.093664 -194.328847 
L 125.409418 -198.899162 
L 126.725171 -199.508536 
L 128.040925 -189.453845 
L 131.988185 -188.844471 
L 133.303938 -189.758532 
L 134.619692 -187.016349 
L 135.935445 -186.406975 
L 137.251199 -187.625723 
L 142.514212 -192.196038 
L 143.829966 -193.719473 
L 145.145719 -196.156969 
L 146.461473 -200.422598 
L 150.408733 -195.852282 
L 151.724486 -198.899162 
L 153.04024 -199.203849 
L 154.355993 -198.899162 
L 155.671747 -192.805412 
L 159.619007 -195.547595 
L 160.93476 -198.594475 
L 178.039555 -197.985101 
L 179.355308 -193.110099 
L 180.671062 -195.547595 
L 181.986815 -200.422598 
L 183.302568 -201.031972 
L 187.249829 -201.641346 
L 188.565582 -211.086663 
L 189.881336 -211.696037 
L 191.197089 -211.696037 
L 192.512842 -211.391341 
L 196.460103 -209.867915 
L 197.775856 -213.524159 
L 199.09161 -212.000715 
L 200.407363 -217.4851 
L 201.723116 -217.180404 
L 205.670377 -213.219482 
L 206.98613 -213.219482 
L 208.301884 -212.914785 
L 209.617637 -217.4851 
L 210.93339 -217.180404 
L 217.512158 -219.922597 
L 218.827911 -218.094474 
L 220.143664 -218.703849 
L 224.090925 -230.891349 
L 225.406678 -229.672601 
L 226.722432 -227.539782 
L 228.038185 -230.891349 
L 229.353938 -226.321034 
L 233.301199 -227.844479 
L 234.616952 -221.750719 
L 235.932705 -228.75853 
L 237.248459 -224.797608 
L 238.564212 -224.188215 
L 242.511473 -224.188215 
L 243.827226 -230.281975 
L 245.142979 -233.328845 
L 246.458733 -235.461664 
L 247.774486 -236.985109 
L 251.721747 -230.586653 
L 253.0375 -230.891349 
L 254.353253 -231.80542 
L 255.669007 -234.85229 
L 256.98476 -239.117909 
L 264.879281 -237.594483 
L 266.195034 -233.024168 
L 270.142295 -232.719471 
L 271.458048 -234.547594 
L 272.773801 -235.461664 
L 274.089555 -229.063227 
L 275.405308 -236.985109 
L 279.352568 -235.461664 
L 280.668322 -235.766342 
L 281.984075 -239.422605 
L 283.299829 -226.625731 
L 284.615582 -224.797608 
L 288.562842 -226.625731 
L 289.878596 -219.922597 
L 291.194349 -222.969467 
L 292.510103 -220.836667 
L 293.825856 -226.930408 
L 299.08887 -226.321034 
L 300.404623 -224.492912 
L 301.720377 -226.321034 
L 303.03613 -220.531971 
L 306.98339 -224.492912 
L 308.299144 -222.969467 
L 309.614897 -219.313223 
L 310.930651 -216.57103 
L 312.246404 -220.227293 
L 316.193664 -219.922597 
L 317.509418 -224.797608 
L 318.825171 -224.797608 
L 320.140925 -225.406982 
L 321.456678 -222.055415 
L 325.403938 -217.789778 
L 326.719692 -219.008545 
L 328.035445 -217.180404 
L 329.351199 -224.797608 
L 330.666952 -242.774172 
L 334.614212 -262.578858 
L 335.929966 -260.44604 
L 337.245719 -259.836666 
L 338.561473 -253.133532 
L 339.877226 -253.742906 
L 343.824486 -254.961673 
L 345.14024 -260.44604 
L 346.455993 -261.36011 
L 347.771747 -251.610106 
L 349.0875 -253.742906 
L 353.03476 -257.094473 
L 354.350514 -263.49291 
L 355.666267 -270.196044 
L 356.982021 -277.508533 
L 358.297774 -265.930406 
L 362.245034 -266.844477 
L 363.560788 -263.49291 
L 364.876541 -262.883536 
L 371.455308 -258.008543 
L 372.771062 -252.524158 
L 374.086815 -252.524158 
L 375.402568 -256.180421 
L 376.718322 -257.399169 
L 380.665582 -268.672599 
L 381.981336 -270.500721 
L 383.297089 -270.805418 
L 384.612842 -264.711658 
L 385.928596 -258.617917 
L 389.875856 -262.578858 
L 391.19161 -269.891347 
L 392.507363 -282.383545 
L 393.823116 -293.656975 
L 395.13887 -290.305408 
L 399.08613 -285.125737 
L 400.401884 -284.821041 
L 401.717637 -279.641352 
L 403.03339 -278.7273 
L 404.349144 -281.77417 
L 408.296404 -289.391356 
L 409.612158 -288.477285 
L 410.927911 -285.125737 
L 412.243664 -277.813229 
L 413.559418 -282.383545 
L 417.506678 -277.508533 
L 418.822432 -285.125737 
L 420.138185 -272.080734 
L 422.769692 -273.944287 
L 426.716952 -286.989158 
L 428.032705 -285.746789 
L 429.348459 -280.777314 
L 430.664212 -272.080734 
L 431.979966 -283.262052 
L 435.927226 -283.883236 
L 437.242979 -283.262052 
L 438.558733 -292.269224 
L 439.874486 -295.064554 
L 441.19024 -300.344621 
L 445.1375 -325.813178 
L 446.453253 -338.547456 
L 447.769007 -335.441535 
L 449.08476 -364.016013 
L 450.400514 -337.926272 
L 454.347774 -342.895746 
L 455.663527 -338.858048 
L 456.979281 -341.032193 
L 458.295034 -341.653378 
L 459.610788 -336.683903 
L 463.558048 -336.683903 
L 464.873801 -337.926272 
L 466.189555 -341.032193 
L 467.505308 -336.683903 
L 468.821062 -330.782652 
L 472.768322 -327.366138 
L 474.084075 -325.813178 
L 475.399829 -326.744954 
L 476.715582 -344.448707 
L 478.031336 -357.182986 
L 481.978596 -351.281735 
L 483.294349 -357.182986 
L 484.610103 -337.926272 
L 485.925856 -326.434362 
L 487.24161 -332.646205 
L 491.18887 -343.827523 
L 492.504623 -346.933445 
L 493.820377 -346.933445 
L 495.13613 -350.971143 
L 500.399144 -355.319433 
L 501.714897 -344.138115 
L 503.030651 -349.418182 
L 504.346404 -365.258382 
L 505.662158 -368.985488 
L 512.240925 -377.682068 
L 513.556678 -373.954962 
L 514.872432 -383.272727 
L 518.819692 -376.4397 
L 520.135445 -371.470225 
L 521.451199 -345.380484 
L 522.766952 -352.834696 
L 524.082705 -359.667723 
L 528.029966 -355.319433 
L 529.345719 -362.15246 
L 530.661473 -359.046539 
L 531.977226 -349.728774 
L 533.292979 -362.15246 
L 537.24024 -359.667723 
L 538.555993 -354.387656 
L 539.871747 -353.766472 
L 541.1875 -362.15246 
L 541.1875 -44.727273 
L 541.1875 -44.727273 
L 539.871747 -44.727273 
L 538.555993 -44.727273 
L 537.24024 -44.727273 
L 533.292979 -44.727273 
L 531.977226 -44.727273 
L 530.661473 -44.727273 
L 529.345719 -44.727273 
L 528.029966 -44.727273 
L 524.082705 -44.727273 
L 522.766952 -44.727273 
L 521.451199 -44.727273 
L 520.135445 -44.727273 
L 518.819692 -44.727273 
L 514.872432 -44.727273 
L 513.556678 -44.727273 
L 512.240925 -44.727273 
L 505.662158 -44.727273 
L 504.346404 -44.727273 
L 503.030651 -44.727273 
L 501.714897 -44.727273 
L 500.399144 -44.727273 
L 495.13613 -44.727273 
L 493.820377 -44.727273 
L 492.504623 -44.727273 
L 491.18887 -44.727273 
L 487.24161 -44.727273 
L 485.925856 -44.727273 
L 484.610103 -44.727273 
L 483.294349 -44.727273 
L 481.978596 -44.727273 
L 478.031336 -44.727273 
L 476.715582 -44.727273 
L 475.399829 -44.727273 
L 474.084075 -44.727273 
L 472.768322 -44.727273 
L 468.821062 -44.727273 
L 467.505308 -44.727273 
L 466.189555 -44.727273 
L 464.873801 -44.727273 
L 463.558048 -44.727273 
L 459.610788 -44.727273 
L 458.295034 -44.727273 
L 456.979281 -44.727273 
L 455.663527 -44.727273 
L 454.347774 -44.727273 
L 450.400514 -44.727273 
L 449.08476 -44.727273 
L 447.769007 -44.727273 
L 446.453253 -44.727273 
L 445.1375 -44.727273 
L 441.19024 -44.727273 
L 439.874486 -44.727273 
L 438.558733 -44.727273 
L 437.242979 -44.727273 
L 435.927226 -44.727273 
L 431.979966 -44.727273 
L 430.664212 -44.727273 
L 429.348459 -44.727273 
L 428.032705 -44.727273 
L 426.716952 -44.727273 
L 422.769692 -44.727273 
L 420.138185 -44.727273 
L 418.822432 -44.727273 
L 417.506678 -44.727273 
L 413.559418 -44.727273 
L 412.243664 -44.727273 
L 410.927911 -44.727273 
L 409.612158 -44.727273 
L 408.296404 -44.727273 
L 404.349144 -44.727273 
L 403.03339 -44.727273 
L 401.717637 -44.727273 
L 400.401884 -44.727273 
L 399.08613 -44.727273 
L 395.13887 -44.727273 
L 393.823116 -44.727273 
L 392.507363 -44.727273 
L 391.19161 -44.727273 
L 389.875856 -44.727273 
L 385.928596 -44.727273 
L 384.612842 -44.727273 
L 383.297089 -44.727273 
L 381.981336 -44.727273 
L 380.665582 -44.727273 
L 376.718322 -44.727273 
L 375.402568 -44.727273 
L 374.086815 -44.727273 
L 372.771062 -44.727273 
L 371.455308 -44.727273 
L 364.876541 -44.727273 
L 363.560788 -44.727273 
L 362.245034 -44.727273 
L 358.297774 -44.727273 
L 356.982021 -44.727273 
L 355.666267 -44.727273 
L 354.350514 -44.727273 
L 353.03476 -44.727273 
L 349.0875 -44.727273 
L 347.771747 -44.727273 
L 346.455993 -44.727273 
L 345.14024 -44.727273 
L 343.824486 -44.727273 
L 339.877226 -44.727273 
L 338.561473 -44.727273 
L 337.245719 -44.727273 
L 335.929966 -44.727273 
L 334.614212 -44.727273 
L 330.666952 -44.727273 
L 329.351199 -44.727273 
L 328.035445 -44.727273 
L 326.719692 -44.727273 
L 325.403938 -44.727273 
L 321.456678 -44.727273 
L 320.140925 -44.727273 
L 318.825171 -44.727273 
L 317.509418 -44.727273 
L 316.193664 -44.727273 
L 312.246404 -44.727273 
L 310.930651 -44.727273 
L 309.614897 -44.727273 
L 308.299144 -44.727273 
L 306.98339 -44.727273 
L 303.03613 -44.727273 
L 301.720377 -44.727273 
L 300.404623 -44.727273 
L 299.08887 -44.727273 
L 293.825856 -44.727273 
L 292.510103 -44.727273 
L 291.194349 -44.727273 
L 289.878596 -44.727273 
L 288.562842 -44.727273 
L 284.615582 -44.727273 
L 283.299829 -44.727273 
L 281.984075 -44.727273 
L 280.668322 -44.727273 
L 279.352568 -44.727273 
L 275.405308 -44.727273 
L 274.089555 -44.727273 
L 272.773801 -44.727273 
L 271.458048 -44.727273 
L 270.142295 -44.727273 
L 266.195034 -44.727273 
L 264.879281 -44.727273 
L 256.98476 -44.727273 
L 255.669007 -44.727273 
L 254.353253 -44.727273 
L 253.0375 -44.727273 
L 251.721747 -44.727273 
L 247.774486 -44.727273 
L 246.458733 -44.727273 
L 245.142979 -44.727273 
L 243.827226 -44.727273 
L 242.511473 -44.727273 
L 238.564212 -44.727273 
L 237.248459 -44.727273 
L 235.932705 -44.727273 
L 234.616952 -44.727273 
L 233.301199 -44.727273 
L 229.353938 -44.727273 
L 228.038185 -44.727273 
L 226.722432 -44.727273 
L 225.406678 -44.727273 
L 224.090925 -44.727273 
L 220.143664 -44.727273 
L 218.827911 -44.727273 
L 217.512158 -44.727273 
L 210.93339 -44.727273 
L 209.617637 -44.727273 
L 208.301884 -44.727273 
L 206.98613 -44.727273 
L 205.670377 -44.727273 
L 201.723116 -44.727273 
L 200.407363 -44.727273 
L 199.09161 -44.727273 
L 197.775856 -44.727273 
L 196.460103 -44.727273 
L 192.512842 -44.727273 
L 191.197089 -44.727273 
L 189.881336 -44.727273 
L 188.565582 -44.727273 
L 187.249829 -44.727273 
L 183.302568 -44.727273 
L 181.986815 -44.727273 
L 180.671062 -44.727273 
L 179.355308 -44.727273 
L 178.039555 -44.727273 
L 160.93476 -44.727273 
L 159.619007 -44.727273 
L 155.671747 -44.727273 
L 154.355993 -44.727273 
L 153.04024 -44.727273 
L 151.724486 -44.727273 
L 150.408733 -44.727273 
L 146.461473 -44.727273 
L 145.145719 -44.727273 
L 143.829966 -44.727273 
L 142.514212 -44.727273 
L 137.251199 -44.727273 
L 135.935445 -44.727273 
L 134.619692 -44.727273 
L 133.303938 -44.727273 
L 131.988185 -44.727273 
L 128.040925 -44.727273 
L 126.725171 -44.727273 
L 125.409418 -44.727273 
L 124.093664 -44.727273 
L 122.777911 -44.727273 
L 118.830651 -44.727273 
L 117.514897 -44.727273 
L 116.199144 -44.727273 
L 114.88339 -44.727273 
L 113.567637 -44.727273 
L 109.620377 -44.727273 
L 108.304623 -44.727273 
L 106.98887 -44.727273 
L 105.673116 -44.727273 
L 104.357363 -44.727273 
L 100.410103 -44.727273 
L 99.094349 -44.727273 
L 97.778596 -44.727273 
L 96.462842 -44.727273 
L 95.147089 -44.727273 
L 91.199829 -44.727273 
L 89.884075 -44.727273 
L 88.568322 -44.727273 
L 87.252568 -44.727273 
L 85.936815 -44.727273 
L 81.989555 -44.727273 
L 80.673801 -44.727273 
L 79.358048 -44.727273 
L 78.042295 -44.727273 
L 76.726541 -44.727273 
L 72.779281 -44.727273 
L 71.463527 -44.727273 
L 70.147774 -44.727273 
L 68.832021 -44.727273 
L 67.516267 -44.727273 
L 63.569007 -44.727273 
L 62.253253 -44.727273 
L 60.9375 -44.727273 
z
" id="m4af2874600" style="stroke:#f0939d;"/>
    </defs>
    <g clip-path="url(#p859b40c006)">
     <use style="fill:#f0939d;stroke:#f0939d;" x="0" xlink:href="#m4af2874600" y="432"/>
    </g>
   </g>
   <g id="matplotlib.axis_1">
    <g id="xtick_1">
     <g id="line2d_1">
      <defs>
       <path d="M 0 0 
L 0 3.5 
" id="m5a6725c99b" style="stroke:#000000;stroke-width:0.8;"/>
      </defs>
      <g>
       <use style="stroke:#000000;stroke-width:0.8;" x="59.621747" xlink:href="#m5a6725c99b" y="404.2"/>
      </g>
     </g>
     <g id="text_1">
      <!-- 2022-11 -->
      <defs>
       <path d="M 19.1875 8.296875 
L 53.609375 8.296875 
L 53.609375 0 
L 7.328125 0 
L 7.328125 8.296875 
Q 12.9375 14.109375 22.625 23.890625 
Q 32.328125 33.6875 34.8125 36.53125 
Q 39.546875 41.84375 41.421875 45.53125 
Q 43.3125 49.21875 43.3125 52.78125 
Q 43.3125 58.59375 39.234375 62.25 
Q 35.15625 65.921875 28.609375 65.921875 
Q 23.96875 65.921875 18.8125 64.3125 
Q 13.671875 62.703125 7.8125 59.421875 
L 7.8125 69.390625 
Q 13.765625 71.78125 18.9375 73 
Q 24.125 74.21875 28.421875 74.21875 
Q 39.75 74.21875 46.484375 68.546875 
Q 53.21875 62.890625 53.21875 53.421875 
Q 53.21875 48.921875 51.53125 44.890625 
Q 49.859375 40.875 45.40625 35.40625 
Q 44.1875 33.984375 37.640625 27.21875 
Q 31.109375 20.453125 19.1875 8.296875 
z
" id="DejaVuSans-50"/>
       <path d="M 31.78125 66.40625 
Q 24.171875 66.40625 20.328125 58.90625 
Q 16.5 51.421875 16.5 36.375 
Q 16.5 21.390625 20.328125 13.890625 
Q 24.171875 6.390625 31.78125 6.390625 
Q 39.453125 6.390625 43.28125 13.890625 
Q 47.125 21.390625 47.125 36.375 
Q 47.125 51.421875 43.28125 58.90625 
Q 39.453125 66.40625 31.78125 66.40625 
z
M 31.78125 74.21875 
Q 44.046875 74.21875 50.515625 64.515625 
Q 56.984375 54.828125 56.984375 36.375 
Q 56.984375 17.96875 50.515625 8.265625 
Q 44.046875 -1.421875 31.78125 -1.421875 
Q 19.53125 -1.421875 13.0625 8.265625 
Q 6.59375 17.96875 6.59375 36.375 
Q 6.59375 54.828125 13.0625 64.515625 
Q 19.53125 74.21875 31.78125 74.21875 
z
" id="DejaVuSans-48"/>
       <path d="M 4.890625 31.390625 
L 31.203125 31.390625 
L 31.203125 23.390625 
L 4.890625 23.390625 
z
" id="DejaVuSans-45"/>
       <path d="M 12.40625 8.296875 
L 28.515625 8.296875 
L 28.515625 63.921875 
L 10.984375 60.40625 
L 10.984375 69.390625 
L 28.421875 72.90625 
L 38.28125 72.90625 
L 38.28125 8.296875 
L 54.390625 8.296875 
L 54.390625 0 
L 12.40625 0 
z
" id="DejaVuSans-49"/>
      </defs>
      <g transform="translate(38.73034 418.798437)scale(0.1 -0.1)">
       <use xlink:href="#DejaVuSans-50"/>
       <use x="63.623047" xlink:href="#DejaVuSans-48"/>
       <use x="127.246094" xlink:href="#DejaVuSans-50"/>
       <use x="190.869141" xlink:href="#DejaVuSans-50"/>
       <use x="254.492188" xlink:href="#DejaVuSans-45"/>
       <use x="290.576172" xlink:href="#DejaVuSans-49"/>
       <use x="354.199219" xlink:href="#DejaVuSans-49"/>
      </g>
     </g>
    </g>
    <g id="xtick_2">
     <g id="line2d_2">
      <g>
       <use style="stroke:#000000;stroke-width:0.8;" x="139.882705" xlink:href="#m5a6725c99b" y="404.2"/>
      </g>
     </g>
     <g id="text_2">
      <!-- 2023-01 -->
      <defs>
       <path d="M 40.578125 39.3125 
Q 47.65625 37.796875 51.625 33 
Q 55.609375 28.21875 55.609375 21.1875 
Q 55.609375 10.40625 48.1875 4.484375 
Q 40.765625 -1.421875 27.09375 -1.421875 
Q 22.515625 -1.421875 17.65625 -0.515625 
Q 12.796875 0.390625 7.625 2.203125 
L 7.625 11.71875 
Q 11.71875 9.328125 16.59375 8.109375 
Q 21.484375 6.890625 26.8125 6.890625 
Q 36.078125 6.890625 40.9375 10.546875 
Q 45.796875 14.203125 45.796875 21.1875 
Q 45.796875 27.640625 41.28125 31.265625 
Q 36.765625 34.90625 28.71875 34.90625 
L 20.21875 34.90625 
L 20.21875 43.015625 
L 29.109375 43.015625 
Q 36.375 43.015625 40.234375 45.921875 
Q 44.09375 48.828125 44.09375 54.296875 
Q 44.09375 59.90625 40.109375 62.90625 
Q 36.140625 65.921875 28.71875 65.921875 
Q 24.65625 65.921875 20.015625 65.03125 
Q 15.375 64.15625 9.8125 62.3125 
L 9.8125 71.09375 
Q 15.4375 72.65625 20.34375 73.4375 
Q 25.25 74.21875 29.59375 74.21875 
Q 40.828125 74.21875 47.359375 69.109375 
Q 53.90625 64.015625 53.90625 55.328125 
Q 53.90625 49.265625 50.4375 45.09375 
Q 46.96875 40.921875 40.578125 39.3125 
z
" id="DejaVuSans-51"/>
      </defs>
      <g transform="translate(118.991299 418.798437)scale(0.1 -0.1)">
       <use xlink:href="#DejaVuSans-50"/>
       <use x="63.623047" xlink:href="#DejaVuSans-48"/>
       <use x="127.246094" xlink:href="#DejaVuSans-50"/>
       <use x="190.869141" xlink:href="#DejaVuSans-51"/>
       <use x="254.492188" xlink:href="#DejaVuSans-45"/>
       <use x="290.576172" xlink:href="#DejaVuSans-48"/>
       <use x="354.199219" xlink:href="#DejaVuSans-49"/>
      </g>
     </g>
    </g>
    <g id="xtick_3">
     <g id="line2d_3">
      <g>
       <use style="stroke:#000000;stroke-width:0.8;" x="217.512158" xlink:href="#m5a6725c99b" y="404.2"/>
      </g>
     </g>
     <g id="text_3">
      <!-- 2023-03 -->
      <g transform="translate(196.620751 418.798437)scale(0.1 -0.1)">
       <use xlink:href="#DejaVuSans-50"/>
       <use x="63.623047" xlink:href="#DejaVuSans-48"/>
       <use x="127.246094" xlink:href="#DejaVuSans-50"/>
       <use x="190.869141" xlink:href="#DejaVuSans-51"/>
       <use x="254.492188" xlink:href="#DejaVuSans-45"/>
       <use x="290.576172" xlink:href="#DejaVuSans-48"/>
       <use x="354.199219" xlink:href="#DejaVuSans-51"/>
      </g>
     </g>
    </g>
    <g id="xtick_4">
     <g id="line2d_4">
      <g>
       <use style="stroke:#000000;stroke-width:0.8;" x="297.773116" xlink:href="#m5a6725c99b" y="404.2"/>
      </g>
     </g>
     <g id="text_4">
      <!-- 2023-05 -->
      <defs>
       <path d="M 10.796875 72.90625 
L 49.515625 72.90625 
L 49.515625 64.59375 
L 19.828125 64.59375 
L 19.828125 46.734375 
Q 21.96875 47.46875 24.109375 47.828125 
Q 26.265625 48.1875 28.421875 48.1875 
Q 40.625 48.1875 47.75 41.5 
Q 54.890625 34.8125 54.890625 23.390625 
Q 54.890625 11.625 47.5625 5.09375 
Q 40.234375 -1.421875 26.90625 -1.421875 
Q 22.3125 -1.421875 17.546875 -0.640625 
Q 12.796875 0.140625 7.71875 1.703125 
L 7.71875 11.625 
Q 12.109375 9.234375 16.796875 8.0625 
Q 21.484375 6.890625 26.703125 6.890625 
Q 35.15625 6.890625 40.078125 11.328125 
Q 45.015625 15.765625 45.015625 23.390625 
Q 45.015625 31 40.078125 35.4375 
Q 35.15625 39.890625 26.703125 39.890625 
Q 22.75 39.890625 18.8125 39.015625 
Q 14.890625 38.140625 10.796875 36.28125 
z
" id="DejaVuSans-53"/>
      </defs>
      <g transform="translate(276.88171 418.798437)scale(0.1 -0.1)">
       <use xlink:href="#DejaVuSans-50"/>
       <use x="63.623047" xlink:href="#DejaVuSans-48"/>
       <use x="127.246094" xlink:href="#DejaVuSans-50"/>
       <use x="190.869141" xlink:href="#DejaVuSans-51"/>
       <use x="254.492188" xlink:href="#DejaVuSans-45"/>
       <use x="290.576172" xlink:href="#DejaVuSans-48"/>
       <use x="354.199219" xlink:href="#DejaVuSans-53"/>
      </g>
     </g>
    </g>
    <g id="xtick_5">
     <g id="line2d_5">
      <g>
       <use style="stroke:#000000;stroke-width:0.8;" x="378.034075" xlink:href="#m5a6725c99b" y="404.2"/>
      </g>
     </g>
     <g id="text_5">
      <!-- 2023-07 -->
      <defs>
       <path d="M 8.203125 72.90625 
L 55.078125 72.90625 
L 55.078125 68.703125 
L 28.609375 0 
L 18.3125 0 
L 43.21875 64.59375 
L 8.203125 64.59375 
z
" id="DejaVuSans-55"/>
      </defs>
      <g transform="translate(357.142669 418.798437)scale(0.1 -0.1)">
       <use xlink:href="#DejaVuSans-50"/>
       <use x="63.623047" xlink:href="#DejaVuSans-48"/>
       <use x="127.246094" xlink:href="#DejaVuSans-50"/>
       <use x="190.869141" xlink:href="#DejaVuSans-51"/>
       <use x="254.492188" xlink:href="#DejaVuSans-45"/>
       <use x="290.576172" xlink:href="#DejaVuSans-48"/>
       <use x="354.199219" xlink:href="#DejaVuSans-55"/>
      </g>
     </g>
    </g>
    <g id="xtick_6">
     <g id="line2d_6">
      <g>
       <use style="stroke:#000000;stroke-width:0.8;" x="459.610788" xlink:href="#m5a6725c99b" y="404.2"/>
      </g>
     </g>
     <g id="text_6">
      <!-- 2023-09 -->
      <defs>
       <path d="M 10.984375 1.515625 
L 10.984375 10.5 
Q 14.703125 8.734375 18.5 7.8125 
Q 22.3125 6.890625 25.984375 6.890625 
Q 35.75 6.890625 40.890625 13.453125 
Q 46.046875 20.015625 46.78125 33.40625 
Q 43.953125 29.203125 39.59375 26.953125 
Q 35.25 24.703125 29.984375 24.703125 
Q 19.046875 24.703125 12.671875 31.3125 
Q 6.296875 37.9375 6.296875 49.421875 
Q 6.296875 60.640625 12.9375 67.421875 
Q 19.578125 74.21875 30.609375 74.21875 
Q 43.265625 74.21875 49.921875 64.515625 
Q 56.59375 54.828125 56.59375 36.375 
Q 56.59375 19.140625 48.40625 8.859375 
Q 40.234375 -1.421875 26.421875 -1.421875 
Q 22.703125 -1.421875 18.890625 -0.6875 
Q 15.09375 0.046875 10.984375 1.515625 
z
M 30.609375 32.421875 
Q 37.25 32.421875 41.125 36.953125 
Q 45.015625 41.5 45.015625 49.421875 
Q 45.015625 57.28125 41.125 61.84375 
Q 37.25 66.40625 30.609375 66.40625 
Q 23.96875 66.40625 20.09375 61.84375 
Q 16.21875 57.28125 16.21875 49.421875 
Q 16.21875 41.5 20.09375 36.953125 
Q 23.96875 32.421875 30.609375 32.421875 
z
" id="DejaVuSans-57"/>
      </defs>
      <g transform="translate(438.719381 418.798437)scale(0.1 -0.1)">
       <use xlink:href="#DejaVuSans-50"/>
       <use x="63.623047" xlink:href="#DejaVuSans-48"/>
       <use x="127.246094" xlink:href="#DejaVuSans-50"/>
       <use x="190.869141" xlink:href="#DejaVuSans-51"/>
       <use x="254.492188" xlink:href="#DejaVuSans-45"/>
       <use x="290.576172" xlink:href="#DejaVuSans-48"/>
       <use x="354.199219" xlink:href="#DejaVuSans-57"/>
      </g>
     </g>
    </g>
    <g id="xtick_7">
     <g id="line2d_7">
      <g>
       <use style="stroke:#000000;stroke-width:0.8;" x="539.871747" xlink:href="#m5a6725c99b" y="404.2"/>
      </g>
     </g>
     <g id="text_7">
      <!-- 2023-11 -->
      <g transform="translate(518.98034 418.798437)scale(0.1 -0.1)">
       <use xlink:href="#DejaVuSans-50"/>
       <use x="63.623047" xlink:href="#DejaVuSans-48"/>
       <use x="127.246094" xlink:href="#DejaVuSans-50"/>
       <use x="190.869141" xlink:href="#DejaVuSans-51"/>
       <use x="254.492188" xlink:href="#DejaVuSans-45"/>
       <use x="290.576172" xlink:href="#DejaVuSans-49"/>
       <use x="354.199219" xlink:href="#DejaVuSans-49"/>
      </g>
     </g>
    </g>
   </g>
   <g id="matplotlib.axis_2">
    <g id="ytick_1">
     <g id="line2d_8">
      <defs>
       <path d="M 0 0 
L -3.5 0 
" id="m7f145a6a04" style="stroke:#000000;stroke-width:0.8;"/>
      </defs>
      <g>
       <use style="stroke:#000000;stroke-width:0.8;" x="36.925" xlink:href="#m7f145a6a04" y="387.272727"/>
      </g>
     </g>
     <g id="text_8">
      <!-- 0 -->
      <g transform="translate(23.5625 391.071946)scale(0.1 -0.1)">
       <use xlink:href="#DejaVuSans-48"/>
      </g>
     </g>
    </g>
    <g id="ytick_2">
     <g id="line2d_9">
      <g>
       <use style="stroke:#000000;stroke-width:0.8;" x="36.925" xlink:href="#m7f145a6a04" y="325.154295"/>
      </g>
     </g>
     <g id="text_9">
      <!-- 100 -->
      <g transform="translate(10.8375 328.953514)scale(0.1 -0.1)">
       <use xlink:href="#DejaVuSans-49"/>
       <use x="63.623047" xlink:href="#DejaVuSans-48"/>
       <use x="127.246094" xlink:href="#DejaVuSans-48"/>
      </g>
     </g>
    </g>
    <g id="ytick_3">
     <g id="line2d_10">
      <g>
       <use style="stroke:#000000;stroke-width:0.8;" x="36.925" xlink:href="#m7f145a6a04" y="263.035863"/>
      </g>
     </g>
     <g id="text_10">
      <!-- 200 -->
      <g transform="translate(10.8375 266.835082)scale(0.1 -0.1)">
       <use xlink:href="#DejaVuSans-50"/>
       <use x="63.623047" xlink:href="#DejaVuSans-48"/>
       <use x="127.246094" xlink:href="#DejaVuSans-48"/>
      </g>
     </g>
    </g>
    <g id="ytick_4">
     <g id="line2d_11">
      <g>
       <use style="stroke:#000000;stroke-width:0.8;" x="36.925" xlink:href="#m7f145a6a04" y="200.917431"/>
      </g>
     </g>
     <g id="text_11">
      <!-- 300 -->
      <g transform="translate(10.8375 204.71665)scale(0.1 -0.1)">
       <use xlink:href="#DejaVuSans-51"/>
       <use x="63.623047" xlink:href="#DejaVuSans-48"/>
       <use x="127.246094" xlink:href="#DejaVuSans-48"/>
      </g>
     </g>
    </g>
    <g id="ytick_5">
     <g id="line2d_12">
      <g>
       <use style="stroke:#000000;stroke-width:0.8;" x="36.925" xlink:href="#m7f145a6a04" y="138.798999"/>
      </g>
     </g>
     <g id="text_12">
      <!-- 400 -->
      <defs>
       <path d="M 37.796875 64.3125 
L 12.890625 25.390625 
L 37.796875 25.390625 
z
M 35.203125 72.90625 
L 47.609375 72.90625 
L 47.609375 25.390625 
L 58.015625 25.390625 
L 58.015625 17.1875 
L 47.609375 17.1875 
L 47.609375 0 
L 37.796875 0 
L 37.796875 17.1875 
L 4.890625 17.1875 
L 4.890625 26.703125 
z
" id="DejaVuSans-52"/>
      </defs>
      <g transform="translate(10.8375 142.598218)scale(0.1 -0.1)">
       <use xlink:href="#DejaVuSans-52"/>
       <use x="63.623047" xlink:href="#DejaVuSans-48"/>
       <use x="127.246094" xlink:href="#DejaVuSans-48"/>
      </g>
     </g>
    </g>
    <g id="ytick_6">
     <g id="line2d_13">
      <g>
       <use style="stroke:#000000;stroke-width:0.8;" x="36.925" xlink:href="#m7f145a6a04" y="76.680567"/>
      </g>
     </g>
     <g id="text_13">
      <!-- 500 -->
      <g transform="translate(10.8375 80.479786)scale(0.1 -0.1)">
       <use xlink:href="#DejaVuSans-53"/>
       <use x="63.623047" xlink:href="#DejaVuSans-48"/>
       <use x="127.246094" xlink:href="#DejaVuSans-48"/>
      </g>
     </g>
    </g>
   </g>
   <g id="patch_3">
    <path d="M 36.925 404.2 
L 36.925 31.8 
" style="fill:none;stroke:#000000;stroke-linecap:square;stroke-linejoin:miter;stroke-width:0.8;"/>
   </g>
   <g id="patch_4">
    <path d="M 565.2 404.2 
L 565.2 31.8 
" style="fill:none;stroke:#000000;stroke-linecap:square;stroke-linejoin:miter;stroke-width:0.8;"/>
   </g>
   <g id="patch_5">
    <path d="M 36.925 404.2 
L 565.2 404.2 
" style="fill:none;stroke:#000000;stroke-linecap:square;stroke-linejoin:miter;stroke-width:0.8;"/>
   </g>
   <g id="patch_6">
    <path d="M 36.925 31.8 
L 565.2 31.8 
" style="fill:none;stroke:#000000;stroke-linecap:square;stroke-linejoin:miter;stroke-width:0.8;"/>
   </g>
   <g id="text_14">
    <!-- 2345.TW - 114.81% -->
    <defs>
     <path d="M 28.8125 13.8125 
L 60.890625 13.8125 
L 60.890625 0 
L 7.90625 0 
L 7.90625 13.8125 
L 34.515625 37.3125 
Q 38.09375 40.53125 39.796875 43.609375 
Q 41.5 46.6875 41.5 50 
Q 41.5 55.125 38.0625 58.25 
Q 34.625 61.375 28.90625 61.375 
Q 24.515625 61.375 19.28125 59.5 
Q 14.0625 57.625 8.109375 53.90625 
L 8.109375 69.921875 
Q 14.453125 72.015625 20.65625 73.109375 
Q 26.859375 74.21875 32.8125 74.21875 
Q 45.90625 74.21875 53.15625 68.453125 
Q 60.40625 62.703125 60.40625 52.390625 
Q 60.40625 46.4375 57.328125 41.28125 
Q 54.25 36.140625 44.390625 27.484375 
z
" id="DejaVuSans-Bold-50"/>
     <path d="M 46.578125 39.3125 
Q 53.953125 37.40625 57.78125 32.6875 
Q 61.625 27.984375 61.625 20.703125 
Q 61.625 9.859375 53.3125 4.21875 
Q 45.015625 -1.421875 29.109375 -1.421875 
Q 23.484375 -1.421875 17.84375 -0.515625 
Q 12.203125 0.390625 6.6875 2.203125 
L 6.6875 16.703125 
Q 11.96875 14.0625 17.15625 12.71875 
Q 22.359375 11.375 27.390625 11.375 
Q 34.859375 11.375 38.84375 13.953125 
Q 42.828125 16.546875 42.828125 21.390625 
Q 42.828125 26.375 38.75 28.9375 
Q 34.671875 31.5 26.703125 31.5 
L 19.1875 31.5 
L 19.1875 43.609375 
L 27.09375 43.609375 
Q 34.1875 43.609375 37.640625 45.828125 
Q 41.109375 48.046875 41.109375 52.59375 
Q 41.109375 56.78125 37.734375 59.078125 
Q 34.375 61.375 28.21875 61.375 
Q 23.6875 61.375 19.046875 60.34375 
Q 14.40625 59.328125 9.8125 57.328125 
L 9.8125 71.09375 
Q 15.375 72.65625 20.84375 73.4375 
Q 26.3125 74.21875 31.59375 74.21875 
Q 45.796875 74.21875 52.84375 69.546875 
Q 59.90625 64.890625 59.90625 55.515625 
Q 59.90625 49.125 56.53125 45.046875 
Q 53.171875 40.96875 46.578125 39.3125 
z
" id="DejaVuSans-Bold-51"/>
     <path d="M 36.8125 57.421875 
L 16.21875 26.90625 
L 36.8125 26.90625 
z
M 33.6875 72.90625 
L 54.59375 72.90625 
L 54.59375 26.90625 
L 64.984375 26.90625 
L 64.984375 13.28125 
L 54.59375 13.28125 
L 54.59375 0 
L 36.8125 0 
L 36.8125 13.28125 
L 4.5 13.28125 
L 4.5 29.390625 
z
" id="DejaVuSans-Bold-52"/>
     <path d="M 10.59375 72.90625 
L 57.328125 72.90625 
L 57.328125 59.078125 
L 25.59375 59.078125 
L 25.59375 47.796875 
Q 27.734375 48.390625 29.90625 48.703125 
Q 32.078125 49.03125 34.421875 49.03125 
Q 47.75 49.03125 55.171875 42.359375 
Q 62.59375 35.6875 62.59375 23.78125 
Q 62.59375 11.96875 54.515625 5.265625 
Q 46.4375 -1.421875 32.078125 -1.421875 
Q 25.875 -1.421875 19.796875 -0.21875 
Q 13.71875 0.984375 7.71875 3.421875 
L 7.71875 18.21875 
Q 13.671875 14.796875 19.015625 13.078125 
Q 24.359375 11.375 29.109375 11.375 
Q 35.9375 11.375 39.859375 14.71875 
Q 43.796875 18.0625 43.796875 23.78125 
Q 43.796875 29.546875 39.859375 32.859375 
Q 35.9375 36.1875 29.109375 36.1875 
Q 25.046875 36.1875 20.453125 35.125 
Q 15.875 34.078125 10.59375 31.890625 
z
" id="DejaVuSans-Bold-53"/>
     <path d="M 10.203125 18.890625 
L 27.78125 18.890625 
L 27.78125 0 
L 10.203125 0 
z
" id="DejaVuSans-Bold-46"/>
     <path d="M 0.484375 72.90625 
L 67.671875 72.90625 
L 67.671875 58.6875 
L 43.5 58.6875 
L 43.5 0 
L 24.703125 0 
L 24.703125 58.6875 
L 0.484375 58.6875 
z
" id="DejaVuSans-Bold-84"/>
     <path d="M 2.984375 72.90625 
L 21 72.90625 
L 33.59375 19.921875 
L 46.09375 72.90625 
L 64.203125 72.90625 
L 76.703125 19.921875 
L 89.3125 72.90625 
L 107.171875 72.90625 
L 89.984375 0 
L 68.3125 0 
L 55.078125 55.421875 
L 42 0 
L 20.3125 0 
z
" id="DejaVuSans-Bold-87"/>
     <path id="DejaVuSans-Bold-32"/>
     <path d="M 5.421875 35.890625 
L 36.078125 35.890625 
L 36.078125 21.6875 
L 5.421875 21.6875 
z
" id="DejaVuSans-Bold-45"/>
     <path d="M 11.71875 12.984375 
L 28.328125 12.984375 
L 28.328125 60.109375 
L 11.28125 56.59375 
L 11.28125 69.390625 
L 28.21875 72.90625 
L 46.09375 72.90625 
L 46.09375 12.984375 
L 62.703125 12.984375 
L 62.703125 0 
L 11.71875 0 
z
" id="DejaVuSans-Bold-49"/>
     <path d="M 34.8125 32.625 
Q 29.546875 32.625 26.703125 29.734375 
Q 23.875 26.859375 23.875 21.484375 
Q 23.875 16.109375 26.703125 13.25 
Q 29.546875 10.40625 34.8125 10.40625 
Q 40.046875 10.40625 42.828125 13.25 
Q 45.609375 16.109375 45.609375 21.484375 
Q 45.609375 26.90625 42.828125 29.765625 
Q 40.046875 32.625 34.8125 32.625 
z
M 21.09375 38.8125 
Q 14.453125 40.828125 11.078125 44.96875 
Q 7.71875 49.125 7.71875 55.328125 
Q 7.71875 64.546875 14.59375 69.375 
Q 21.484375 74.21875 34.8125 74.21875 
Q 48.046875 74.21875 54.921875 69.40625 
Q 61.8125 64.59375 61.8125 55.328125 
Q 61.8125 49.125 58.421875 44.96875 
Q 55.03125 40.828125 48.390625 38.8125 
Q 55.8125 36.765625 59.59375 32.15625 
Q 63.375 27.546875 63.375 20.515625 
Q 63.375 9.671875 56.171875 4.125 
Q 48.96875 -1.421875 34.8125 -1.421875 
Q 20.609375 -1.421875 13.359375 4.125 
Q 6.109375 9.671875 6.109375 20.515625 
Q 6.109375 27.546875 9.890625 32.15625 
Q 13.671875 36.765625 21.09375 38.8125 
z
M 25.484375 53.421875 
Q 25.484375 49.078125 27.90625 46.734375 
Q 30.328125 44.390625 34.8125 44.390625 
Q 39.203125 44.390625 41.59375 46.734375 
Q 44 49.078125 44 53.421875 
Q 44 57.765625 41.59375 60.078125 
Q 39.203125 62.40625 34.8125 62.40625 
Q 30.328125 62.40625 27.90625 60.0625 
Q 25.484375 57.71875 25.484375 53.421875 
z
" id="DejaVuSans-Bold-56"/>
     <path d="M 77.484375 30.078125 
Q 74.03125 30.078125 72.125 27.078125 
Q 70.21875 24.078125 70.21875 18.5 
Q 70.21875 12.890625 72.09375 9.890625 
Q 73.96875 6.890625 77.484375 6.890625 
Q 81 6.890625 82.859375 9.890625 
Q 84.71875 12.890625 84.71875 18.5 
Q 84.71875 24.078125 82.828125 27.078125 
Q 80.953125 30.078125 77.484375 30.078125 
z
M 77.484375 38.28125 
Q 86.578125 38.28125 91.796875 33 
Q 97.015625 27.734375 97.015625 18.5 
Q 97.015625 9.28125 91.796875 3.921875 
Q 86.578125 -1.421875 77.484375 -1.421875 
Q 68.40625 -1.421875 63.15625 3.921875 
Q 57.90625 9.28125 57.90625 18.5 
Q 57.90625 27.6875 63.15625 32.984375 
Q 68.40625 38.28125 77.484375 38.28125 
z
M 32.71875 -1.421875 
L 21.921875 -1.421875 
L 67.484375 74.21875 
L 78.328125 74.21875 
z
M 22.703125 74.21875 
Q 31.78125 74.21875 36.984375 68.921875 
Q 42.1875 63.625 42.1875 54.390625 
Q 42.1875 45.171875 36.984375 39.84375 
Q 31.78125 34.515625 22.703125 34.515625 
Q 13.625 34.515625 8.421875 39.84375 
Q 3.21875 45.171875 3.21875 54.390625 
Q 3.21875 63.625 8.421875 68.921875 
Q 13.625 74.21875 22.703125 74.21875 
z
M 22.703125 66.015625 
Q 19.1875 66.015625 17.28125 62.984375 
Q 15.375 59.96875 15.375 54.390625 
Q 15.375 48.78125 17.28125 45.71875 
Q 19.1875 42.671875 22.703125 42.671875 
Q 26.21875 42.671875 28.09375 45.71875 
Q 29.984375 48.78125 29.984375 54.390625 
Q 29.984375 59.96875 28.078125 62.984375 
Q 26.171875 66.015625 22.703125 66.015625 
z
" id="DejaVuSans-Bold-37"/>
    </defs>
    <g transform="translate(36.925 25.8)scale(0.2 -0.2)">
     <use xlink:href="#DejaVuSans-Bold-50"/>
     <use x="69.580078" xlink:href="#DejaVuSans-Bold-51"/>
     <use x="139.160156" xlink:href="#DejaVuSans-Bold-52"/>
     <use x="208.740234" xlink:href="#DejaVuSans-Bold-53"/>
     <use x="278.320312" xlink:href="#DejaVuSans-Bold-46"/>
     <use x="316.308594" xlink:href="#DejaVuSans-Bold-84"/>
     <use x="384.521484" xlink:href="#DejaVuSans-Bold-87"/>
     <use x="494.824219" xlink:href="#DejaVuSans-Bold-32"/>
     <use x="529.638672" xlink:href="#DejaVuSans-Bold-45"/>
     <use x="571.142578" xlink:href="#DejaVuSans-Bold-32"/>
     <use x="605.957031" xlink:href="#DejaVuSans-Bold-49"/>
     <use x="675.537109" xlink:href="#DejaVuSans-Bold-49"/>
     <use x="745.117188" xlink:href="#DejaVuSans-Bold-52"/>
     <use x="814.697266" xlink:href="#DejaVuSans-Bold-46"/>
     <use x="852.685547" xlink:href="#DejaVuSans-Bold-56"/>
     <use x="922.265625" xlink:href="#DejaVuSans-Bold-49"/>
     <use x="991.845703" xlink:href="#DejaVuSans-Bold-37"/>
    </g>
   </g>
  </g>
 </g>
 <defs>
  <clipPath id="p859b40c006">
   <rect height="372.4" width="528.275" x="36.925" y="31.8"/>
  </clipPath>
 </defs>
</svg>
