<?xml version="1.0" encoding="utf-8" standalone="no"?>
<!DOCTYPE svg PUBLIC "-//W3C//DTD SVG 1.1//EN"
  "http://www.w3.org/Graphics/SVG/1.1/DTD/svg11.dtd">
<!-- Created with matplotlib (https://matplotlib.org/) -->
<svg height="432pt" version="1.1" viewBox="0 0 864 432" width="864pt" xmlns="http://www.w3.org/2000/svg" xmlns:xlink="http://www.w3.org/1999/xlink">
 <defs>
  <style type="text/css">
*{stroke-linecap:butt;stroke-linejoin:round;}
  </style>
 </defs>
 <g id="figure_1">
  <g id="patch_1">
   <path d="M 0 432 
L 864 432 
L 864 0 
L 0 0 
z
" style="fill:none;"/>
  </g>
  <g id="axes_1">
   <g id="patch_2">
    <path d="M 75.175 385.2 
L 796.55 385.2 
L 796.55 88.8 
L 75.175 88.8 
z
" style="fill:none;"/>
   </g>
   <g id="PolyCollection_1">
    <path clip-path="url(#pd73a204657)" d="M 107.964773 558.387209 
L 107.964773 384.338372 
L 111.528878 385.2 
L 115.092984 381.753488 
L 118.65709 370.552326 
L 129.349407 375.722093 
L 132.913513 373.998837 
L 136.477619 376.583721 
L 140.041724 362.797674 
L 143.60583 359.351163 
L 154.298147 361.936047 
L 157.862253 360.212791 
L 161.426359 357.627907 
L 164.990464 360.212791 
L 168.55457 355.043023 
L 179.246887 356.766279 
L 182.810993 354.181395 
L 186.375099 342.980233 
L 189.939205 351.596512 
L 193.50331 331.77907 
L 204.195627 336.087209 
L 207.759733 320.577907 
L 211.323839 317.131395 
L 214.887945 305.068605 
L 218.45205 301.622093 
L 229.144368 299.898837 
L 232.708473 308.515116 
L 236.272579 297.313953 
L 254.093108 305.930233 
L 257.657213 314.546512 
L 261.221319 310.238372 
L 264.785425 305.930233 
L 268.349531 296.452326 
L 279.041848 281.804651 
L 282.605954 264.572093 
L 286.170059 266.295349 
L 289.734165 274.05 
L 293.298271 281.804651 
L 303.990588 278.35814 
L 307.554694 260.263953 
L 311.118799 235.276744 
L 314.682905 222.352326 
L 318.247011 217.182558 
L 328.939328 220.62907 
L 332.503434 211.151163 
L 336.06754 217.182558 
L 339.631645 194.780233 
L 343.195751 168.931395 
L 353.888068 130.15814 
L 357.452174 130.15814 
L 361.01628 112.925581 
L 364.580385 123.265116 
L 368.144491 102.586047 
L 378.836808 147.390698 
L 382.400914 149.975581 
L 385.96502 190.472093 
L 393.093231 179.27093 
L 403.785548 141.359302 
L 407.349654 144.805814 
L 410.91376 156.006977 
L 414.477866 195.64186 
L 418.041971 173.239535 
L 428.734289 146.52907 
L 432.298394 133.604651 
L 435.8625 93.10814 
L 439.426606 88.8 
L 442.990711 117.233721 
L 453.683029 126.711628 
L 457.247134 112.925581 
L 460.81124 106.894186 
L 464.375346 106.032558 
L 467.939452 137.912791 
L 478.631769 148.252326 
L 482.195875 137.051163 
L 485.75998 130.15814 
L 489.324086 121.54186 
L 492.888192 143.944186 
L 503.580509 134.466279 
L 507.144615 136.189535 
L 510.70872 120.680233 
L 514.272826 124.126744 
L 517.836932 141.359302 
L 528.529249 165.484884 
L 532.093355 172.377907 
L 535.65746 164.623256 
L 539.221566 153.422093 
L 542.785672 156.868605 
L 553.477989 174.962791 
L 557.042095 180.994186 
L 560.606201 181.855814 
L 564.170306 180.994186 
L 567.734412 166.346512 
L 578.426729 168.931395 
L 581.990835 176.686047 
L 585.554941 162.038372 
L 589.119046 145.667442 
L 603.375469 119.818605 
L 606.939575 130.15814 
L 610.503681 126.711628 
L 614.067787 128.434884 
L 617.631892 119.818605 
L 635.452421 148.252326 
L 639.016527 148.252326 
L 642.580632 168.931395 
L 653.27295 176.686047 
L 656.837055 176.686047 
L 660.401161 197.365116 
L 663.965267 199.088372 
L 667.529373 205.981395 
L 678.22169 212.874419 
L 681.785795 198.226744 
L 685.349901 195.64186 
L 688.914007 209.427907 
L 692.478113 208.566279 
L 703.17043 203.396512 
L 706.734536 232.69186 
L 710.298641 229.245349 
L 713.862747 212.012791 
L 717.426853 213.736047 
L 728.11917 204.25814 
L 731.683276 206.843023 
L 735.247381 187.887209 
L 738.811487 180.994186 
L 742.375593 190.472093 
L 753.06791 203.396512 
L 756.632016 199.088372 
L 760.196122 198.226744 
L 763.760227 199.088372 
L 763.760227 558.387209 
L 763.760227 558.387209 
L 760.196122 558.387209 
L 756.632016 558.387209 
L 753.06791 558.387209 
L 742.375593 558.387209 
L 738.811487 558.387209 
L 735.247381 558.387209 
L 731.683276 558.387209 
L 728.11917 558.387209 
L 717.426853 558.387209 
L 713.862747 558.387209 
L 710.298641 558.387209 
L 706.734536 558.387209 
L 703.17043 558.387209 
L 692.478113 558.387209 
L 688.914007 558.387209 
L 685.349901 558.387209 
L 681.785795 558.387209 
L 678.22169 558.387209 
L 667.529373 558.387209 
L 663.965267 558.387209 
L 660.401161 558.387209 
L 656.837055 558.387209 
L 653.27295 558.387209 
L 642.580632 558.387209 
L 639.016527 558.387209 
L 635.452421 558.387209 
L 617.631892 558.387209 
L 614.067787 558.387209 
L 610.503681 558.387209 
L 606.939575 558.387209 
L 603.375469 558.387209 
L 589.119046 558.387209 
L 585.554941 558.387209 
L 581.990835 558.387209 
L 578.426729 558.387209 
L 567.734412 558.387209 
L 564.170306 558.387209 
L 560.606201 558.387209 
L 557.042095 558.387209 
L 553.477989 558.387209 
L 542.785672 558.387209 
L 539.221566 558.387209 
L 535.65746 558.387209 
L 532.093355 558.387209 
L 528.529249 558.387209 
L 517.836932 558.387209 
L 514.272826 558.387209 
L 510.70872 558.387209 
L 507.144615 558.387209 
L 503.580509 558.387209 
L 492.888192 558.387209 
L 489.324086 558.387209 
L 485.75998 558.387209 
L 482.195875 558.387209 
L 478.631769 558.387209 
L 467.939452 558.387209 
L 464.375346 558.387209 
L 460.81124 558.387209 
L 457.247134 558.387209 
L 453.683029 558.387209 
L 442.990711 558.387209 
L 439.426606 558.387209 
L 435.8625 558.387209 
L 432.298394 558.387209 
L 428.734289 558.387209 
L 418.041971 558.387209 
L 414.477866 558.387209 
L 410.91376 558.387209 
L 407.349654 558.387209 
L 403.785548 558.387209 
L 393.093231 558.387209 
L 385.96502 558.387209 
L 382.400914 558.387209 
L 378.836808 558.387209 
L 368.144491 558.387209 
L 364.580385 558.387209 
L 361.01628 558.387209 
L 357.452174 558.387209 
L 353.888068 558.387209 
L 343.195751 558.387209 
L 339.631645 558.387209 
L 336.06754 558.387209 
L 332.503434 558.387209 
L 328.939328 558.387209 
L 318.247011 558.387209 
L 314.682905 558.387209 
L 311.118799 558.387209 
L 307.554694 558.387209 
L 303.990588 558.387209 
L 293.298271 558.387209 
L 289.734165 558.387209 
L 286.170059 558.387209 
L 282.605954 558.387209 
L 279.041848 558.387209 
L 268.349531 558.387209 
L 264.785425 558.387209 
L 261.221319 558.387209 
L 257.657213 558.387209 
L 254.093108 558.387209 
L 236.272579 558.387209 
L 232.708473 558.387209 
L 229.144368 558.387209 
L 218.45205 558.387209 
L 214.887945 558.387209 
L 211.323839 558.387209 
L 207.759733 558.387209 
L 204.195627 558.387209 
L 193.50331 558.387209 
L 189.939205 558.387209 
L 186.375099 558.387209 
L 182.810993 558.387209 
L 179.246887 558.387209 
L 168.55457 558.387209 
L 164.990464 558.387209 
L 161.426359 558.387209 
L 157.862253 558.387209 
L 154.298147 558.387209 
L 143.60583 558.387209 
L 140.041724 558.387209 
L 136.477619 558.387209 
L 132.913513 558.387209 
L 129.349407 558.387209 
L 118.65709 558.387209 
L 115.092984 558.387209 
L 111.528878 558.387209 
L 107.964773 558.387209 
z
" style="fill:#0000ff;fill-opacity:0.1;stroke:#0000ff;stroke-opacity:0.1;"/>
   </g>
   <g id="matplotlib.axis_1">
    <g id="xtick_1">
     <g id="line2d_1">
      <defs>
       <path d="M 0 0 
L 0 3.5 
" id="m151972ddb1" style="stroke:#000000;stroke-width:0.8;"/>
      </defs>
      <g>
       <use style="stroke:#000000;stroke-width:0.8;" x="107.964773" xlink:href="#m151972ddb1" y="385.2"/>
      </g>
     </g>
     <g id="text_1">
      <!-- 05/23 -->
      <defs>
       <path d="M 31.78125 66.40625 
Q 24.171875 66.40625 20.328125 58.90625 
Q 16.5 51.421875 16.5 36.375 
Q 16.5 21.390625 20.328125 13.890625 
Q 24.171875 6.390625 31.78125 6.390625 
Q 39.453125 6.390625 43.28125 13.890625 
Q 47.125 21.390625 47.125 36.375 
Q 47.125 51.421875 43.28125 58.90625 
Q 39.453125 66.40625 31.78125 66.40625 
z
M 31.78125 74.21875 
Q 44.046875 74.21875 50.515625 64.515625 
Q 56.984375 54.828125 56.984375 36.375 
Q 56.984375 17.96875 50.515625 8.265625 
Q 44.046875 -1.421875 31.78125 -1.421875 
Q 19.53125 -1.421875 13.0625 8.265625 
Q 6.59375 17.96875 6.59375 36.375 
Q 6.59375 54.828125 13.0625 64.515625 
Q 19.53125 74.21875 31.78125 74.21875 
z
" id="DejaVuSans-48"/>
       <path d="M 10.796875 72.90625 
L 49.515625 72.90625 
L 49.515625 64.59375 
L 19.828125 64.59375 
L 19.828125 46.734375 
Q 21.96875 47.46875 24.109375 47.828125 
Q 26.265625 48.1875 28.421875 48.1875 
Q 40.625 48.1875 47.75 41.5 
Q 54.890625 34.8125 54.890625 23.390625 
Q 54.890625 11.625 47.5625 5.09375 
Q 40.234375 -1.421875 26.90625 -1.421875 
Q 22.3125 -1.421875 17.546875 -0.640625 
Q 12.796875 0.140625 7.71875 1.703125 
L 7.71875 11.625 
Q 12.109375 9.234375 16.796875 8.0625 
Q 21.484375 6.890625 26.703125 6.890625 
Q 35.15625 6.890625 40.078125 11.328125 
Q 45.015625 15.765625 45.015625 23.390625 
Q 45.015625 31 40.078125 35.4375 
Q 35.15625 39.890625 26.703125 39.890625 
Q 22.75 39.890625 18.8125 39.015625 
Q 14.890625 38.140625 10.796875 36.28125 
z
" id="DejaVuSans-53"/>
       <path d="M 25.390625 72.90625 
L 33.6875 72.90625 
L 8.296875 -9.28125 
L 0 -9.28125 
z
" id="DejaVuSans-47"/>
       <path d="M 19.1875 8.296875 
L 53.609375 8.296875 
L 53.609375 0 
L 7.328125 0 
L 7.328125 8.296875 
Q 12.9375 14.109375 22.625 23.890625 
Q 32.328125 33.6875 34.8125 36.53125 
Q 39.546875 41.84375 41.421875 45.53125 
Q 43.3125 49.21875 43.3125 52.78125 
Q 43.3125 58.59375 39.234375 62.25 
Q 35.15625 65.921875 28.609375 65.921875 
Q 23.96875 65.921875 18.8125 64.3125 
Q 13.671875 62.703125 7.8125 59.421875 
L 7.8125 69.390625 
Q 13.765625 71.78125 18.9375 73 
Q 24.125 74.21875 28.421875 74.21875 
Q 39.75 74.21875 46.484375 68.546875 
Q 53.21875 62.890625 53.21875 53.421875 
Q 53.21875 48.921875 51.53125 44.890625 
Q 49.859375 40.875 45.40625 35.40625 
Q 44.1875 33.984375 37.640625 27.21875 
Q 31.109375 20.453125 19.1875 8.296875 
z
" id="DejaVuSans-50"/>
       <path d="M 40.578125 39.3125 
Q 47.65625 37.796875 51.625 33 
Q 55.609375 28.21875 55.609375 21.1875 
Q 55.609375 10.40625 48.1875 4.484375 
Q 40.765625 -1.421875 27.09375 -1.421875 
Q 22.515625 -1.421875 17.65625 -0.515625 
Q 12.796875 0.390625 7.625 2.203125 
L 7.625 11.71875 
Q 11.71875 9.328125 16.59375 8.109375 
Q 21.484375 6.890625 26.8125 6.890625 
Q 36.078125 6.890625 40.9375 10.546875 
Q 45.796875 14.203125 45.796875 21.1875 
Q 45.796875 27.640625 41.28125 31.265625 
Q 36.765625 34.90625 28.71875 34.90625 
L 20.21875 34.90625 
L 20.21875 43.015625 
L 29.109375 43.015625 
Q 36.375 43.015625 40.234375 45.921875 
Q 44.09375 48.828125 44.09375 54.296875 
Q 44.09375 59.90625 40.109375 62.90625 
Q 36.140625 65.921875 28.71875 65.921875 
Q 24.65625 65.921875 20.015625 65.03125 
Q 15.375 64.15625 9.8125 62.3125 
L 9.8125 71.09375 
Q 15.4375 72.65625 20.34375 73.4375 
Q 25.25 74.21875 29.59375 74.21875 
Q 40.828125 74.21875 47.359375 69.109375 
Q 53.90625 64.015625 53.90625 55.328125 
Q 53.90625 49.265625 50.4375 45.09375 
Q 46.96875 40.921875 40.578125 39.3125 
z
" id="DejaVuSans-51"/>
      </defs>
      <g transform="translate(64.736648 414.995312)scale(0.3 -0.3)">
       <use xlink:href="#DejaVuSans-48"/>
       <use x="63.623047" xlink:href="#DejaVuSans-53"/>
       <use x="127.246094" xlink:href="#DejaVuSans-47"/>
       <use x="160.9375" xlink:href="#DejaVuSans-50"/>
       <use x="224.560547" xlink:href="#DejaVuSans-51"/>
      </g>
     </g>
    </g>
    <g id="xtick_2">
     <g id="line2d_2">
      <g>
       <use style="stroke:#000000;stroke-width:0.8;" x="435.8625" xlink:href="#m151972ddb1" y="385.2"/>
      </g>
     </g>
     <g id="text_2">
      <!-- 08/23 -->
      <defs>
       <path d="M 31.78125 34.625 
Q 24.75 34.625 20.71875 30.859375 
Q 16.703125 27.09375 16.703125 20.515625 
Q 16.703125 13.921875 20.71875 10.15625 
Q 24.75 6.390625 31.78125 6.390625 
Q 38.8125 6.390625 42.859375 10.171875 
Q 46.921875 13.96875 46.921875 20.515625 
Q 46.921875 27.09375 42.890625 30.859375 
Q 38.875 34.625 31.78125 34.625 
z
M 21.921875 38.8125 
Q 15.578125 40.375 12.03125 44.71875 
Q 8.5 49.078125 8.5 55.328125 
Q 8.5 64.0625 14.71875 69.140625 
Q 20.953125 74.21875 31.78125 74.21875 
Q 42.671875 74.21875 48.875 69.140625 
Q 55.078125 64.0625 55.078125 55.328125 
Q 55.078125 49.078125 51.53125 44.71875 
Q 48 40.375 41.703125 38.8125 
Q 48.828125 37.15625 52.796875 32.3125 
Q 56.78125 27.484375 56.78125 20.515625 
Q 56.78125 9.90625 50.3125 4.234375 
Q 43.84375 -1.421875 31.78125 -1.421875 
Q 19.734375 -1.421875 13.25 4.234375 
Q 6.78125 9.90625 6.78125 20.515625 
Q 6.78125 27.484375 10.78125 32.3125 
Q 14.796875 37.15625 21.921875 38.8125 
z
M 18.3125 54.390625 
Q 18.3125 48.734375 21.84375 45.5625 
Q 25.390625 42.390625 31.78125 42.390625 
Q 38.140625 42.390625 41.71875 45.5625 
Q 45.3125 48.734375 45.3125 54.390625 
Q 45.3125 60.0625 41.71875 63.234375 
Q 38.140625 66.40625 31.78125 66.40625 
Q 25.390625 66.40625 21.84375 63.234375 
Q 18.3125 60.0625 18.3125 54.390625 
z
" id="DejaVuSans-56"/>
      </defs>
      <g transform="translate(392.634375 414.995312)scale(0.3 -0.3)">
       <use xlink:href="#DejaVuSans-48"/>
       <use x="63.623047" xlink:href="#DejaVuSans-56"/>
       <use x="127.246094" xlink:href="#DejaVuSans-47"/>
       <use x="160.9375" xlink:href="#DejaVuSans-50"/>
       <use x="224.560547" xlink:href="#DejaVuSans-51"/>
      </g>
     </g>
    </g>
    <g id="xtick_3">
     <g id="line2d_3">
      <g>
       <use style="stroke:#000000;stroke-width:0.8;" x="763.760227" xlink:href="#m151972ddb1" y="385.2"/>
      </g>
     </g>
     <g id="text_3">
      <!-- 11/23 -->
      <defs>
       <path d="M 12.40625 8.296875 
L 28.515625 8.296875 
L 28.515625 63.921875 
L 10.984375 60.40625 
L 10.984375 69.390625 
L 28.421875 72.90625 
L 38.28125 72.90625 
L 38.28125 8.296875 
L 54.390625 8.296875 
L 54.390625 0 
L 12.40625 0 
z
" id="DejaVuSans-49"/>
      </defs>
      <g transform="translate(720.532102 414.995312)scale(0.3 -0.3)">
       <use xlink:href="#DejaVuSans-49"/>
       <use x="63.623047" xlink:href="#DejaVuSans-49"/>
       <use x="127.246094" xlink:href="#DejaVuSans-47"/>
       <use x="160.9375" xlink:href="#DejaVuSans-50"/>
       <use x="224.560547" xlink:href="#DejaVuSans-51"/>
      </g>
     </g>
    </g>
   </g>
   <g id="matplotlib.axis_2">
    <g id="ytick_1">
     <g id="line2d_4">
      <defs>
       <path d="M 0 0 
L -3.5 0 
" id="m27efbe695f" style="stroke:#000000;stroke-width:0.8;"/>
      </defs>
      <g>
       <use style="stroke:#000000;stroke-width:0.8;" x="75.175" xlink:href="#m27efbe695f" y="351.596512"/>
      </g>
     </g>
     <g id="text_4">
      <!-- 120 -->
      <g transform="translate(10.9125 362.994168)scale(0.3 -0.3)">
       <use xlink:href="#DejaVuSans-49"/>
       <use x="63.623047" xlink:href="#DejaVuSans-50"/>
       <use x="127.246094" xlink:href="#DejaVuSans-48"/>
      </g>
     </g>
    </g>
    <g id="ytick_2">
     <g id="line2d_5">
      <g>
       <use style="stroke:#000000;stroke-width:0.8;" x="75.175" xlink:href="#m27efbe695f" y="248.201163"/>
      </g>
     </g>
     <g id="text_5">
      <!-- 180 -->
      <g transform="translate(10.9125 259.598819)scale(0.3 -0.3)">
       <use xlink:href="#DejaVuSans-49"/>
       <use x="63.623047" xlink:href="#DejaVuSans-56"/>
       <use x="127.246094" xlink:href="#DejaVuSans-48"/>
      </g>
     </g>
    </g>
    <g id="ytick_3">
     <g id="line2d_6">
      <g>
       <use style="stroke:#000000;stroke-width:0.8;" x="75.175" xlink:href="#m27efbe695f" y="144.805814"/>
      </g>
     </g>
     <g id="text_6">
      <!-- 240 -->
      <defs>
       <path d="M 37.796875 64.3125 
L 12.890625 25.390625 
L 37.796875 25.390625 
z
M 35.203125 72.90625 
L 47.609375 72.90625 
L 47.609375 25.390625 
L 58.015625 25.390625 
L 58.015625 17.1875 
L 47.609375 17.1875 
L 47.609375 0 
L 37.796875 0 
L 37.796875 17.1875 
L 4.890625 17.1875 
L 4.890625 26.703125 
z
" id="DejaVuSans-52"/>
      </defs>
      <g transform="translate(10.9125 156.20347)scale(0.3 -0.3)">
       <use xlink:href="#DejaVuSans-50"/>
       <use x="63.623047" xlink:href="#DejaVuSans-52"/>
       <use x="127.246094" xlink:href="#DejaVuSans-48"/>
      </g>
     </g>
    </g>
   </g>
   <g id="line2d_7">
    <path clip-path="url(#pd73a204657)" d="M 107.964773 384.338372 
L 111.528878 385.2 
L 115.092984 381.753488 
L 118.65709 370.552326 
L 129.349407 375.722093 
L 132.913513 373.998837 
L 136.477619 376.583721 
L 140.041724 362.797674 
L 143.60583 359.351163 
L 154.298147 361.936047 
L 157.862253 360.212791 
L 161.426359 357.627907 
L 164.990464 360.212791 
L 168.55457 355.043023 
L 179.246887 356.766279 
L 182.810993 354.181395 
L 186.375099 342.980233 
L 189.939205 351.596512 
L 193.50331 331.77907 
L 204.195627 336.087209 
L 207.759733 320.577907 
L 211.323839 317.131395 
L 214.887945 305.068605 
L 218.45205 301.622093 
L 229.144368 299.898837 
L 232.708473 308.515116 
L 236.272579 297.313953 
L 254.093108 305.930233 
L 257.657213 314.546512 
L 261.221319 310.238372 
L 264.785425 305.930233 
L 268.349531 296.452326 
L 279.041848 281.804651 
L 282.605954 264.572093 
L 286.170059 266.295349 
L 289.734165 274.05 
L 293.298271 281.804651 
L 303.990588 278.35814 
L 307.554694 260.263953 
L 311.118799 235.276744 
L 314.682905 222.352326 
L 318.247011 217.182558 
L 328.939328 220.62907 
L 332.503434 211.151163 
L 336.06754 217.182558 
L 339.631645 194.780233 
L 343.195751 168.931395 
L 353.888068 130.15814 
L 357.452174 130.15814 
L 361.01628 112.925581 
L 364.580385 123.265116 
L 368.144491 102.586047 
L 378.836808 147.390698 
L 382.400914 149.975581 
L 385.96502 190.472093 
L 393.093231 179.27093 
L 403.785548 141.359302 
L 407.349654 144.805814 
L 410.91376 156.006977 
L 414.477866 195.64186 
L 418.041971 173.239535 
L 428.734289 146.52907 
L 432.298394 133.604651 
L 435.8625 93.10814 
L 439.426606 88.8 
L 442.990711 117.233721 
L 453.683029 126.711628 
L 457.247134 112.925581 
L 460.81124 106.894186 
L 464.375346 106.032558 
L 467.939452 137.912791 
L 478.631769 148.252326 
L 482.195875 137.051163 
L 485.75998 130.15814 
L 489.324086 121.54186 
L 492.888192 143.944186 
L 503.580509 134.466279 
L 507.144615 136.189535 
L 510.70872 120.680233 
L 514.272826 124.126744 
L 517.836932 141.359302 
L 528.529249 165.484884 
L 532.093355 172.377907 
L 535.65746 164.623256 
L 539.221566 153.422093 
L 542.785672 156.868605 
L 553.477989 174.962791 
L 557.042095 180.994186 
L 560.606201 181.855814 
L 564.170306 180.994186 
L 567.734412 166.346512 
L 578.426729 168.931395 
L 581.990835 176.686047 
L 585.554941 162.038372 
L 589.119046 145.667442 
L 603.375469 119.818605 
L 606.939575 130.15814 
L 610.503681 126.711628 
L 614.067787 128.434884 
L 617.631892 119.818605 
L 635.452421 148.252326 
L 639.016527 148.252326 
L 642.580632 168.931395 
L 653.27295 176.686047 
L 656.837055 176.686047 
L 660.401161 197.365116 
L 663.965267 199.088372 
L 667.529373 205.981395 
L 678.22169 212.874419 
L 681.785795 198.226744 
L 685.349901 195.64186 
L 688.914007 209.427907 
L 692.478113 208.566279 
L 703.17043 203.396512 
L 706.734536 232.69186 
L 710.298641 229.245349 
L 713.862747 212.012791 
L 717.426853 213.736047 
L 728.11917 204.25814 
L 731.683276 206.843023 
L 735.247381 187.887209 
L 738.811487 180.994186 
L 742.375593 190.472093 
L 753.06791 203.396512 
L 756.632016 199.088372 
L 760.196122 198.226744 
L 763.760227 199.088372 
" style="fill:none;stroke:#000000;stroke-linecap:square;stroke-width:4;"/>
   </g>
   <g id="patch_3">
    <path d="M 75.175 385.2 
L 75.175 88.8 
" style="fill:none;stroke:#000000;stroke-linecap:square;stroke-linejoin:miter;stroke-width:0.8;"/>
   </g>
   <g id="patch_4">
    <path d="M 75.175 385.2 
L 796.55 385.2 
" style="fill:none;stroke:#000000;stroke-linecap:square;stroke-linejoin:miter;stroke-width:0.8;"/>
   </g>
   <g id="text_7">
    <!-- 2382.TW   106% -->
    <defs>
     <path d="M 28.8125 13.8125 
L 60.890625 13.8125 
L 60.890625 0 
L 7.90625 0 
L 7.90625 13.8125 
L 34.515625 37.3125 
Q 38.09375 40.53125 39.796875 43.609375 
Q 41.5 46.6875 41.5 50 
Q 41.5 55.125 38.0625 58.25 
Q 34.625 61.375 28.90625 61.375 
Q 24.515625 61.375 19.28125 59.5 
Q 14.0625 57.625 8.109375 53.90625 
L 8.109375 69.921875 
Q 14.453125 72.015625 20.65625 73.109375 
Q 26.859375 74.21875 32.8125 74.21875 
Q 45.90625 74.21875 53.15625 68.453125 
Q 60.40625 62.703125 60.40625 52.390625 
Q 60.40625 46.4375 57.328125 41.28125 
Q 54.25 36.140625 44.390625 27.484375 
z
" id="DejaVuSans-Bold-50"/>
     <path d="M 46.578125 39.3125 
Q 53.953125 37.40625 57.78125 32.6875 
Q 61.625 27.984375 61.625 20.703125 
Q 61.625 9.859375 53.3125 4.21875 
Q 45.015625 -1.421875 29.109375 -1.421875 
Q 23.484375 -1.421875 17.84375 -0.515625 
Q 12.203125 0.390625 6.6875 2.203125 
L 6.6875 16.703125 
Q 11.96875 14.0625 17.15625 12.71875 
Q 22.359375 11.375 27.390625 11.375 
Q 34.859375 11.375 38.84375 13.953125 
Q 42.828125 16.546875 42.828125 21.390625 
Q 42.828125 26.375 38.75 28.9375 
Q 34.671875 31.5 26.703125 31.5 
L 19.1875 31.5 
L 19.1875 43.609375 
L 27.09375 43.609375 
Q 34.1875 43.609375 37.640625 45.828125 
Q 41.109375 48.046875 41.109375 52.59375 
Q 41.109375 56.78125 37.734375 59.078125 
Q 34.375 61.375 28.21875 61.375 
Q 23.6875 61.375 19.046875 60.34375 
Q 14.40625 59.328125 9.8125 57.328125 
L 9.8125 71.09375 
Q 15.375 72.65625 20.84375 73.4375 
Q 26.3125 74.21875 31.59375 74.21875 
Q 45.796875 74.21875 52.84375 69.546875 
Q 59.90625 64.890625 59.90625 55.515625 
Q 59.90625 49.125 56.53125 45.046875 
Q 53.171875 40.96875 46.578125 39.3125 
z
" id="DejaVuSans-Bold-51"/>
     <path d="M 34.8125 32.625 
Q 29.546875 32.625 26.703125 29.734375 
Q 23.875 26.859375 23.875 21.484375 
Q 23.875 16.109375 26.703125 13.25 
Q 29.546875 10.40625 34.8125 10.40625 
Q 40.046875 10.40625 42.828125 13.25 
Q 45.609375 16.109375 45.609375 21.484375 
Q 45.609375 26.90625 42.828125 29.765625 
Q 40.046875 32.625 34.8125 32.625 
z
M 21.09375 38.8125 
Q 14.453125 40.828125 11.078125 44.96875 
Q 7.71875 49.125 7.71875 55.328125 
Q 7.71875 64.546875 14.59375 69.375 
Q 21.484375 74.21875 34.8125 74.21875 
Q 48.046875 74.21875 54.921875 69.40625 
Q 61.8125 64.59375 61.8125 55.328125 
Q 61.8125 49.125 58.421875 44.96875 
Q 55.03125 40.828125 48.390625 38.8125 
Q 55.8125 36.765625 59.59375 32.15625 
Q 63.375 27.546875 63.375 20.515625 
Q 63.375 9.671875 56.171875 4.125 
Q 48.96875 -1.421875 34.8125 -1.421875 
Q 20.609375 -1.421875 13.359375 4.125 
Q 6.109375 9.671875 6.109375 20.515625 
Q 6.109375 27.546875 9.890625 32.15625 
Q 13.671875 36.765625 21.09375 38.8125 
z
M 25.484375 53.421875 
Q 25.484375 49.078125 27.90625 46.734375 
Q 30.328125 44.390625 34.8125 44.390625 
Q 39.203125 44.390625 41.59375 46.734375 
Q 44 49.078125 44 53.421875 
Q 44 57.765625 41.59375 60.078125 
Q 39.203125 62.40625 34.8125 62.40625 
Q 30.328125 62.40625 27.90625 60.0625 
Q 25.484375 57.71875 25.484375 53.421875 
z
" id="DejaVuSans-Bold-56"/>
     <path d="M 10.203125 18.890625 
L 27.78125 18.890625 
L 27.78125 0 
L 10.203125 0 
z
" id="DejaVuSans-Bold-46"/>
     <path d="M 0.484375 72.90625 
L 67.671875 72.90625 
L 67.671875 58.6875 
L 43.5 58.6875 
L 43.5 0 
L 24.703125 0 
L 24.703125 58.6875 
L 0.484375 58.6875 
z
" id="DejaVuSans-Bold-84"/>
     <path d="M 2.984375 72.90625 
L 21 72.90625 
L 33.59375 19.921875 
L 46.09375 72.90625 
L 64.203125 72.90625 
L 76.703125 19.921875 
L 89.3125 72.90625 
L 107.171875 72.90625 
L 89.984375 0 
L 68.3125 0 
L 55.078125 55.421875 
L 42 0 
L 20.3125 0 
z
" id="DejaVuSans-Bold-87"/>
     <path id="DejaVuSans-Bold-32"/>
     <path d="M 11.71875 12.984375 
L 28.328125 12.984375 
L 28.328125 60.109375 
L 11.28125 56.59375 
L 11.28125 69.390625 
L 28.21875 72.90625 
L 46.09375 72.90625 
L 46.09375 12.984375 
L 62.703125 12.984375 
L 62.703125 0 
L 11.71875 0 
z
" id="DejaVuSans-Bold-49"/>
     <path d="M 46 36.53125 
Q 46 50.203125 43.4375 55.78125 
Q 40.875 61.375 34.8125 61.375 
Q 28.765625 61.375 26.171875 55.78125 
Q 23.578125 50.203125 23.578125 36.53125 
Q 23.578125 22.703125 26.171875 17.03125 
Q 28.765625 11.375 34.8125 11.375 
Q 40.828125 11.375 43.40625 17.03125 
Q 46 22.703125 46 36.53125 
z
M 64.796875 36.375 
Q 64.796875 18.265625 56.984375 8.421875 
Q 49.171875 -1.421875 34.8125 -1.421875 
Q 20.40625 -1.421875 12.59375 8.421875 
Q 4.78125 18.265625 4.78125 36.375 
Q 4.78125 54.546875 12.59375 64.375 
Q 20.40625 74.21875 34.8125 74.21875 
Q 49.171875 74.21875 56.984375 64.375 
Q 64.796875 54.546875 64.796875 36.375 
z
" id="DejaVuSans-Bold-48"/>
     <path d="M 36.1875 35.984375 
Q 31.25 35.984375 28.78125 32.78125 
Q 26.3125 29.59375 26.3125 23.1875 
Q 26.3125 16.796875 28.78125 13.59375 
Q 31.25 10.40625 36.1875 10.40625 
Q 41.15625 10.40625 43.625 13.59375 
Q 46.09375 16.796875 46.09375 23.1875 
Q 46.09375 29.59375 43.625 32.78125 
Q 41.15625 35.984375 36.1875 35.984375 
z
M 59.421875 71 
L 59.421875 57.515625 
Q 54.78125 59.71875 50.671875 60.765625 
Q 46.578125 61.8125 42.671875 61.8125 
Q 34.28125 61.8125 29.59375 57.140625 
Q 24.90625 52.484375 24.125 43.3125 
Q 27.34375 45.703125 31.09375 46.890625 
Q 34.859375 48.09375 39.3125 48.09375 
Q 50.484375 48.09375 57.34375 41.546875 
Q 64.203125 35.015625 64.203125 24.421875 
Q 64.203125 12.703125 56.53125 5.640625 
Q 48.875 -1.421875 35.984375 -1.421875 
Q 21.78125 -1.421875 13.984375 8.171875 
Q 6.203125 17.78125 6.203125 35.40625 
Q 6.203125 53.46875 15.3125 63.796875 
Q 24.421875 74.125 40.28125 74.125 
Q 45.3125 74.125 50.046875 73.34375 
Q 54.78125 72.5625 59.421875 71 
z
" id="DejaVuSans-Bold-54"/>
     <path d="M 77.484375 30.078125 
Q 74.03125 30.078125 72.125 27.078125 
Q 70.21875 24.078125 70.21875 18.5 
Q 70.21875 12.890625 72.09375 9.890625 
Q 73.96875 6.890625 77.484375 6.890625 
Q 81 6.890625 82.859375 9.890625 
Q 84.71875 12.890625 84.71875 18.5 
Q 84.71875 24.078125 82.828125 27.078125 
Q 80.953125 30.078125 77.484375 30.078125 
z
M 77.484375 38.28125 
Q 86.578125 38.28125 91.796875 33 
Q 97.015625 27.734375 97.015625 18.5 
Q 97.015625 9.28125 91.796875 3.921875 
Q 86.578125 -1.421875 77.484375 -1.421875 
Q 68.40625 -1.421875 63.15625 3.921875 
Q 57.90625 9.28125 57.90625 18.5 
Q 57.90625 27.6875 63.15625 32.984375 
Q 68.40625 38.28125 77.484375 38.28125 
z
M 32.71875 -1.421875 
L 21.921875 -1.421875 
L 67.484375 74.21875 
L 78.328125 74.21875 
z
M 22.703125 74.21875 
Q 31.78125 74.21875 36.984375 68.921875 
Q 42.1875 63.625 42.1875 54.390625 
Q 42.1875 45.171875 36.984375 39.84375 
Q 31.78125 34.515625 22.703125 34.515625 
Q 13.625 34.515625 8.421875 39.84375 
Q 3.21875 45.171875 3.21875 54.390625 
Q 3.21875 63.625 8.421875 68.921875 
Q 13.625 74.21875 22.703125 74.21875 
z
M 22.703125 66.015625 
Q 19.1875 66.015625 17.28125 62.984375 
Q 15.375 59.96875 15.375 54.390625 
Q 15.375 48.78125 17.28125 45.71875 
Q 19.1875 42.671875 22.703125 42.671875 
Q 26.21875 42.671875 28.09375 45.71875 
Q 29.984375 48.78125 29.984375 54.390625 
Q 29.984375 59.96875 28.078125 62.984375 
Q 26.171875 66.015625 22.703125 66.015625 
z
" id="DejaVuSans-Bold-37"/>
    </defs>
    <g transform="translate(75.175 72.1625)scale(0.8 -0.8)">
     <use xlink:href="#DejaVuSans-Bold-50"/>
     <use x="69.580078" xlink:href="#DejaVuSans-Bold-51"/>
     <use x="139.160156" xlink:href="#DejaVuSans-Bold-56"/>
     <use x="208.740234" xlink:href="#DejaVuSans-Bold-50"/>
     <use x="278.320312" xlink:href="#DejaVuSans-Bold-46"/>
     <use x="316.308594" xlink:href="#DejaVuSans-Bold-84"/>
     <use x="384.521484" xlink:href="#DejaVuSans-Bold-87"/>
     <use x="494.824219" xlink:href="#DejaVuSans-Bold-32"/>
     <use x="529.638672" xlink:href="#DejaVuSans-Bold-32"/>
     <use x="564.453125" xlink:href="#DejaVuSans-Bold-32"/>
     <use x="599.267578" xlink:href="#DejaVuSans-Bold-49"/>
     <use x="668.847656" xlink:href="#DejaVuSans-Bold-48"/>
     <use x="738.427734" xlink:href="#DejaVuSans-Bold-54"/>
     <use x="808.007812" xlink:href="#DejaVuSans-Bold-37"/>
    </g>
   </g>
  </g>
 </g>
 <defs>
  <clipPath id="pd73a204657">
   <rect height="296.4" width="721.375" x="75.175" y="88.8"/>
  </clipPath>
 </defs>
</svg>
