<?xml version="1.0" encoding="utf-8" standalone="no"?>
<!DOCTYPE svg PUBLIC "-//W3C//DTD SVG 1.1//EN"
  "http://www.w3.org/Graphics/SVG/1.1/DTD/svg11.dtd">
<!-- Created with matplotlib (https://matplotlib.org/) -->
<svg height="432pt" version="1.1" viewBox="0 0 864 432" width="864pt" xmlns="http://www.w3.org/2000/svg" xmlns:xlink="http://www.w3.org/1999/xlink">
 <defs>
  <style type="text/css">
*{stroke-linecap:butt;stroke-linejoin:round;}
  </style>
 </defs>
 <g id="figure_1">
  <g id="patch_1">
   <path d="M 0 432 
L 864 432 
L 864 0 
L 0 0 
z
" style="fill:#ffffff;"/>
  </g>
  <g id="axes_1">
   <g id="patch_2">
    <path d="M 36.925 404.2 
L 853.2 404.2 
L 853.2 28.8 
L 36.925 28.8 
z
" style="fill:#ffffff;"/>
   </g>
   <g id="PolyCollection_1">
    <defs>
     <path d="M 74.028409 -44.863636 
L 74.028409 -249.190702 
L 76.061473 -249.190702 
L 78.094536 -251.59455 
L 84.193727 -249.991989 
L 86.22679 -258.004818 
L 88.259854 -277.235598 
L 90.292917 -280.44072 
L 92.325981 -298.068952 
L 98.425171 -298.870226 
L 100.458235 -302.876647 
L 102.491298 -303.677921 
L 104.524362 -298.870226 
L 106.557425 -291.658684 
L 112.656616 -296.466379 
L 114.689679 -294.863805 
L 116.722743 -290.85741 
L 118.755806 -297.267653 
L 120.78887 -295.665105 
L 126.88806 -294.062531 
L 128.921124 -286.850989 
L 130.954187 -294.062531 
L 132.987251 -300.4728 
L 135.020314 -302.075348 
L 141.119505 -310.889464 
L 143.152568 -306.081769 
L 145.185632 -285.248415 
L 147.218696 -284.447141 
L 149.251759 -284.447141 
L 155.35095 -285.248415 
L 157.384013 -278.838172 
L 159.417077 -281.24202 
L 161.45014 -283.645867 
L 163.483204 -272.427903 
L 169.582394 -270.024056 
L 171.615458 -247.588141 
L 173.648521 -237.972751 
L 175.681585 -240.376599 
L 177.714648 -245.184294 
L 183.813839 -241.979159 
L 185.846902 -241.177886 
L 187.879966 -237.171464 
L 189.913029 -239.575312 
L 191.946093 -237.171464 
L 200.078347 -240.376599 
L 202.11141 -237.171464 
L 204.144474 -235.568904 
L 206.177537 -241.979159 
L 212.276728 -249.190702 
L 214.309791 -247.588141 
L 216.342855 -249.991989 
L 218.375918 -245.184294 
L 220.408982 -246.786855 
L 226.508172 -249.991989 
L 228.541236 -248.389428 
L 254.971062 -262.812513 
L 257.004125 -263.613787 
L 259.037189 -271.626629 
L 261.070252 -274.831751 
L 263.103316 -264.415087 
L 269.202506 -251.59455 
L 271.23557 -253.197123 
L 273.268633 -255.600971 
L 275.301697 -257.203531 
L 277.33476 -251.59455 
L 283.433951 -250.793276 
L 285.467014 -255.600971 
L 287.500078 -265.216361 
L 289.533141 -266.818934 
L 291.566205 -262.812513 
L 297.665395 -263.613787 
L 299.698459 -265.216361 
L 301.731522 -258.806092 
L 303.764586 -259.607379 
L 305.797649 -249.991989 
L 315.962967 -255.600971 
L 317.996031 -259.607379 
L 320.029094 -263.613787 
L 326.128285 -266.818934 
L 328.161348 -263.613787 
L 330.194412 -264.415087 
L 332.227475 -262.812513 
L 334.260539 -255.600971 
L 340.359729 -258.806092 
L 342.392793 -253.998397 
L 344.425856 -254.799684 
L 346.45892 -252.395836 
L 348.491983 -259.607379 
L 354.591174 -262.011239 
L 356.624237 -266.818934 
L 358.657301 -269.222782 
L 360.690364 -278.838172 
L 362.723428 -282.043294 
L 368.822618 -278.036872 
L 370.855682 -266.818934 
L 372.888745 -270.024056 
L 374.921809 -281.24202 
L 376.954872 -281.24202 
L 389.153253 -275.633025 
L 391.186317 -276.434325 
L 397.285507 -276.434325 
L 399.318571 -274.030477 
L 401.351634 -272.427903 
L 403.384698 -268.421482 
L 405.417762 -267.620208 
L 411.516952 -267.620208 
L 413.550016 -263.613787 
L 415.583079 -257.203531 
L 417.616143 -262.011239 
L 419.649206 -263.613787 
L 425.748397 -268.421482 
L 427.78146 -261.20994 
L 429.814524 -267.620208 
L 431.847587 -263.613787 
L 433.880651 -277.235598 
L 442.012905 -274.831751 
L 444.045968 -280.44072 
L 446.079032 -282.844567 
L 448.112095 -289.254836 
L 454.211286 -302.876647 
L 456.244349 -302.075348 
L 458.277413 -298.068952 
L 460.310476 -294.863805 
L 462.34354 -301.274074 
L 468.44273 -294.863805 
L 470.475794 -302.876647 
L 472.508857 -309.286916 
L 474.541921 -313.293311 
L 476.574984 -317.299733 
L 482.674175 -302.876647 
L 484.707238 -312.492037 
L 486.740302 -313.293311 
L 488.773366 -334.126665 
L 490.806429 -342.139482 
L 496.90562 -337.331787 
L 498.938683 -333.325391 
L 500.971747 -334.126665 
L 503.00481 -334.927939 
L 505.037874 -336.530513 
L 511.137064 -334.927939 
L 513.170128 -328.517696 
L 515.203191 -326.915123 
L 517.236255 -312.492037 
L 519.269318 -319.70358 
L 525.368509 -321.306154 
L 527.401572 -333.325391 
L 529.434636 -334.126665 
L 531.467699 -343.742055 
L 533.500763 -348.54975 
L 539.599953 -342.139482 
L 541.633017 -346.947177 
L 543.66608 -344.543329 
L 553.831398 -333.325391 
L 555.864461 -328.517696 
L 557.897525 -322.107428 
L 559.930588 -323.710001 
L 561.963652 -326.915123 
L 568.062842 -332.524092 
L 570.095906 -333.325391 
L 572.128969 -330.120244 
L 574.162033 -315.697159 
L 576.195097 -317.299733 
L 582.294287 -312.492037 
L 584.327351 -315.697159 
L 586.360414 -318.902306 
L 588.393478 -339.904837 
L 590.426541 -359.238021 
L 596.525732 -350.832288 
L 598.558795 -381.092924 
L 600.591859 -386.136364 
L 602.624922 -375.208912 
L 604.657986 -365.122033 
L 610.757176 -380.252351 
L 612.79024 -373.527765 
L 614.823303 -376.890058 
L 616.856367 -365.122033 
L 618.88943 -365.962606 
L 624.988621 -355.035155 
L 627.021684 -357.556874 
L 629.054748 -347.469996 
L 633.120875 -343.267129 
L 639.220065 -350.832288 
L 641.253129 -344.948276 
L 643.286192 -354.194581 
L 645.319256 -342.426556 
L 647.352319 -338.22369 
L 653.45151 -331.499104 
L 655.484573 -339.904837 
L 657.517637 -344.107703 
L 659.5507 -348.310569 
L 661.583764 -338.22369 
L 667.682955 -334.861397 
L 669.716018 -340.74541 
L 671.749082 -342.426556 
L 673.782145 -362.600313 
L 675.815209 -346.629422 
L 681.914399 -340.74541 
L 683.947463 -354.194581 
L 685.980526 -354.194581 
L 688.01359 -356.716301 
L 690.046653 -350.832288 
L 696.145844 -355.875728 
L 698.178907 -358.397447 
L 700.211971 -359.238021 
L 702.245034 -355.035155 
L 704.278098 -349.151142 
L 710.377288 -346.629422 
L 712.410352 -355.875728 
L 714.443415 -349.991715 
L 716.476479 -357.556874 
L 718.509542 -365.122033 
L 724.608733 -355.035155 
L 726.641796 -361.75974 
L 728.67486 -353.354008 
L 730.707923 -348.310569 
L 732.740987 -349.151142 
L 738.840177 -344.948276 
L 740.873241 -340.74541 
L 742.906304 -336.542544 
L 744.939368 -336.542544 
L 753.071622 -344.948276 
L 755.104686 -339.904837 
L 757.137749 -337.383117 
L 759.170813 -334.861397 
L 761.203876 -334.861397 
L 771.369194 -333.180251 
L 773.402257 -333.180251 
L 775.435321 -328.977385 
L 781.534511 -321.412226 
L 783.567575 -324.774519 
L 785.600638 -313.847067 
L 787.633702 -313.847067 
L 789.666765 -315.528213 
L 795.765956 -311.325347 
L 797.799019 -308.803627 
L 799.832083 -308.803627 
L 801.865146 -295.354456 
L 803.89821 -291.992163 
L 809.9974 -289.470443 
L 812.030464 -285.267577 
L 814.063527 -287.789297 
L 816.096591 -298.716749 
L 816.096591 -44.863636 
L 816.096591 -44.863636 
L 814.063527 -44.863636 
L 812.030464 -44.863636 
L 809.9974 -44.863636 
L 803.89821 -44.863636 
L 801.865146 -44.863636 
L 799.832083 -44.863636 
L 797.799019 -44.863636 
L 795.765956 -44.863636 
L 789.666765 -44.863636 
L 787.633702 -44.863636 
L 785.600638 -44.863636 
L 783.567575 -44.863636 
L 781.534511 -44.863636 
L 775.435321 -44.863636 
L 773.402257 -44.863636 
L 771.369194 -44.863636 
L 761.203876 -44.863636 
L 759.170813 -44.863636 
L 757.137749 -44.863636 
L 755.104686 -44.863636 
L 753.071622 -44.863636 
L 744.939368 -44.863636 
L 742.906304 -44.863636 
L 740.873241 -44.863636 
L 738.840177 -44.863636 
L 732.740987 -44.863636 
L 730.707923 -44.863636 
L 728.67486 -44.863636 
L 726.641796 -44.863636 
L 724.608733 -44.863636 
L 718.509542 -44.863636 
L 716.476479 -44.863636 
L 714.443415 -44.863636 
L 712.410352 -44.863636 
L 710.377288 -44.863636 
L 704.278098 -44.863636 
L 702.245034 -44.863636 
L 700.211971 -44.863636 
L 698.178907 -44.863636 
L 696.145844 -44.863636 
L 690.046653 -44.863636 
L 688.01359 -44.863636 
L 685.980526 -44.863636 
L 683.947463 -44.863636 
L 681.914399 -44.863636 
L 675.815209 -44.863636 
L 673.782145 -44.863636 
L 671.749082 -44.863636 
L 669.716018 -44.863636 
L 667.682955 -44.863636 
L 661.583764 -44.863636 
L 659.5507 -44.863636 
L 657.517637 -44.863636 
L 655.484573 -44.863636 
L 653.45151 -44.863636 
L 647.352319 -44.863636 
L 645.319256 -44.863636 
L 643.286192 -44.863636 
L 641.253129 -44.863636 
L 639.220065 -44.863636 
L 633.120875 -44.863636 
L 629.054748 -44.863636 
L 627.021684 -44.863636 
L 624.988621 -44.863636 
L 618.88943 -44.863636 
L 616.856367 -44.863636 
L 614.823303 -44.863636 
L 612.79024 -44.863636 
L 610.757176 -44.863636 
L 604.657986 -44.863636 
L 602.624922 -44.863636 
L 600.591859 -44.863636 
L 598.558795 -44.863636 
L 596.525732 -44.863636 
L 590.426541 -44.863636 
L 588.393478 -44.863636 
L 586.360414 -44.863636 
L 584.327351 -44.863636 
L 582.294287 -44.863636 
L 576.195097 -44.863636 
L 574.162033 -44.863636 
L 572.128969 -44.863636 
L 570.095906 -44.863636 
L 568.062842 -44.863636 
L 561.963652 -44.863636 
L 559.930588 -44.863636 
L 557.897525 -44.863636 
L 555.864461 -44.863636 
L 553.831398 -44.863636 
L 543.66608 -44.863636 
L 541.633017 -44.863636 
L 539.599953 -44.863636 
L 533.500763 -44.863636 
L 531.467699 -44.863636 
L 529.434636 -44.863636 
L 527.401572 -44.863636 
L 525.368509 -44.863636 
L 519.269318 -44.863636 
L 517.236255 -44.863636 
L 515.203191 -44.863636 
L 513.170128 -44.863636 
L 511.137064 -44.863636 
L 505.037874 -44.863636 
L 503.00481 -44.863636 
L 500.971747 -44.863636 
L 498.938683 -44.863636 
L 496.90562 -44.863636 
L 490.806429 -44.863636 
L 488.773366 -44.863636 
L 486.740302 -44.863636 
L 484.707238 -44.863636 
L 482.674175 -44.863636 
L 476.574984 -44.863636 
L 474.541921 -44.863636 
L 472.508857 -44.863636 
L 470.475794 -44.863636 
L 468.44273 -44.863636 
L 462.34354 -44.863636 
L 460.310476 -44.863636 
L 458.277413 -44.863636 
L 456.244349 -44.863636 
L 454.211286 -44.863636 
L 448.112095 -44.863636 
L 446.079032 -44.863636 
L 444.045968 -44.863636 
L 442.012905 -44.863636 
L 433.880651 -44.863636 
L 431.847587 -44.863636 
L 429.814524 -44.863636 
L 427.78146 -44.863636 
L 425.748397 -44.863636 
L 419.649206 -44.863636 
L 417.616143 -44.863636 
L 415.583079 -44.863636 
L 413.550016 -44.863636 
L 411.516952 -44.863636 
L 405.417762 -44.863636 
L 403.384698 -44.863636 
L 401.351634 -44.863636 
L 399.318571 -44.863636 
L 397.285507 -44.863636 
L 391.186317 -44.863636 
L 389.153253 -44.863636 
L 376.954872 -44.863636 
L 374.921809 -44.863636 
L 372.888745 -44.863636 
L 370.855682 -44.863636 
L 368.822618 -44.863636 
L 362.723428 -44.863636 
L 360.690364 -44.863636 
L 358.657301 -44.863636 
L 356.624237 -44.863636 
L 354.591174 -44.863636 
L 348.491983 -44.863636 
L 346.45892 -44.863636 
L 344.425856 -44.863636 
L 342.392793 -44.863636 
L 340.359729 -44.863636 
L 334.260539 -44.863636 
L 332.227475 -44.863636 
L 330.194412 -44.863636 
L 328.161348 -44.863636 
L 326.128285 -44.863636 
L 320.029094 -44.863636 
L 317.996031 -44.863636 
L 315.962967 -44.863636 
L 305.797649 -44.863636 
L 303.764586 -44.863636 
L 301.731522 -44.863636 
L 299.698459 -44.863636 
L 297.665395 -44.863636 
L 291.566205 -44.863636 
L 289.533141 -44.863636 
L 287.500078 -44.863636 
L 285.467014 -44.863636 
L 283.433951 -44.863636 
L 277.33476 -44.863636 
L 275.301697 -44.863636 
L 273.268633 -44.863636 
L 271.23557 -44.863636 
L 269.202506 -44.863636 
L 263.103316 -44.863636 
L 261.070252 -44.863636 
L 259.037189 -44.863636 
L 257.004125 -44.863636 
L 254.971062 -44.863636 
L 228.541236 -44.863636 
L 226.508172 -44.863636 
L 220.408982 -44.863636 
L 218.375918 -44.863636 
L 216.342855 -44.863636 
L 214.309791 -44.863636 
L 212.276728 -44.863636 
L 206.177537 -44.863636 
L 204.144474 -44.863636 
L 202.11141 -44.863636 
L 200.078347 -44.863636 
L 191.946093 -44.863636 
L 189.913029 -44.863636 
L 187.879966 -44.863636 
L 185.846902 -44.863636 
L 183.813839 -44.863636 
L 177.714648 -44.863636 
L 175.681585 -44.863636 
L 173.648521 -44.863636 
L 171.615458 -44.863636 
L 169.582394 -44.863636 
L 163.483204 -44.863636 
L 161.45014 -44.863636 
L 159.417077 -44.863636 
L 157.384013 -44.863636 
L 155.35095 -44.863636 
L 149.251759 -44.863636 
L 147.218696 -44.863636 
L 145.185632 -44.863636 
L 143.152568 -44.863636 
L 141.119505 -44.863636 
L 135.020314 -44.863636 
L 132.987251 -44.863636 
L 130.954187 -44.863636 
L 128.921124 -44.863636 
L 126.88806 -44.863636 
L 120.78887 -44.863636 
L 118.755806 -44.863636 
L 116.722743 -44.863636 
L 114.689679 -44.863636 
L 112.656616 -44.863636 
L 106.557425 -44.863636 
L 104.524362 -44.863636 
L 102.491298 -44.863636 
L 100.458235 -44.863636 
L 98.425171 -44.863636 
L 92.325981 -44.863636 
L 90.292917 -44.863636 
L 88.259854 -44.863636 
L 86.22679 -44.863636 
L 84.193727 -44.863636 
L 78.094536 -44.863636 
L 76.061473 -44.863636 
L 74.028409 -44.863636 
z
" id="m71052b404c" style="stroke:#f0939d;"/>
    </defs>
    <g clip-path="url(#pd8d4b72fa3)">
     <use style="fill:#f0939d;stroke:#f0939d;" x="0" xlink:href="#m71052b404c" y="432"/>
    </g>
   </g>
   <g id="matplotlib.axis_1">
    <g id="xtick_1">
     <g id="line2d_1">
      <defs>
       <path d="M 0 0 
L 0 3.5 
" id="m4ff827721e" style="stroke:#000000;stroke-width:0.8;"/>
      </defs>
      <g>
       <use style="stroke:#000000;stroke-width:0.8;" x="71.995346" xlink:href="#m4ff827721e" y="404.2"/>
      </g>
     </g>
     <g id="text_1">
      <!-- 2022-11 -->
      <defs>
       <path d="M 19.1875 8.296875 
L 53.609375 8.296875 
L 53.609375 0 
L 7.328125 0 
L 7.328125 8.296875 
Q 12.9375 14.109375 22.625 23.890625 
Q 32.328125 33.6875 34.8125 36.53125 
Q 39.546875 41.84375 41.421875 45.53125 
Q 43.3125 49.21875 43.3125 52.78125 
Q 43.3125 58.59375 39.234375 62.25 
Q 35.15625 65.921875 28.609375 65.921875 
Q 23.96875 65.921875 18.8125 64.3125 
Q 13.671875 62.703125 7.8125 59.421875 
L 7.8125 69.390625 
Q 13.765625 71.78125 18.9375 73 
Q 24.125 74.21875 28.421875 74.21875 
Q 39.75 74.21875 46.484375 68.546875 
Q 53.21875 62.890625 53.21875 53.421875 
Q 53.21875 48.921875 51.53125 44.890625 
Q 49.859375 40.875 45.40625 35.40625 
Q 44.1875 33.984375 37.640625 27.21875 
Q 31.109375 20.453125 19.1875 8.296875 
z
" id="DejaVuSans-50"/>
       <path d="M 31.78125 66.40625 
Q 24.171875 66.40625 20.328125 58.90625 
Q 16.5 51.421875 16.5 36.375 
Q 16.5 21.390625 20.328125 13.890625 
Q 24.171875 6.390625 31.78125 6.390625 
Q 39.453125 6.390625 43.28125 13.890625 
Q 47.125 21.390625 47.125 36.375 
Q 47.125 51.421875 43.28125 58.90625 
Q 39.453125 66.40625 31.78125 66.40625 
z
M 31.78125 74.21875 
Q 44.046875 74.21875 50.515625 64.515625 
Q 56.984375 54.828125 56.984375 36.375 
Q 56.984375 17.96875 50.515625 8.265625 
Q 44.046875 -1.421875 31.78125 -1.421875 
Q 19.53125 -1.421875 13.0625 8.265625 
Q 6.59375 17.96875 6.59375 36.375 
Q 6.59375 54.828125 13.0625 64.515625 
Q 19.53125 74.21875 31.78125 74.21875 
z
" id="DejaVuSans-48"/>
       <path d="M 4.890625 31.390625 
L 31.203125 31.390625 
L 31.203125 23.390625 
L 4.890625 23.390625 
z
" id="DejaVuSans-45"/>
       <path d="M 12.40625 8.296875 
L 28.515625 8.296875 
L 28.515625 63.921875 
L 10.984375 60.40625 
L 10.984375 69.390625 
L 28.421875 72.90625 
L 38.28125 72.90625 
L 38.28125 8.296875 
L 54.390625 8.296875 
L 54.390625 0 
L 12.40625 0 
z
" id="DejaVuSans-49"/>
      </defs>
      <g transform="translate(51.103939 418.798437)scale(0.1 -0.1)">
       <use xlink:href="#DejaVuSans-50"/>
       <use x="63.623047" xlink:href="#DejaVuSans-48"/>
       <use x="127.246094" xlink:href="#DejaVuSans-50"/>
       <use x="190.869141" xlink:href="#DejaVuSans-50"/>
       <use x="254.492188" xlink:href="#DejaVuSans-45"/>
       <use x="290.576172" xlink:href="#DejaVuSans-49"/>
       <use x="354.199219" xlink:href="#DejaVuSans-49"/>
      </g>
     </g>
    </g>
    <g id="xtick_2">
     <g id="line2d_2">
      <g>
       <use style="stroke:#000000;stroke-width:0.8;" x="196.01222" xlink:href="#m4ff827721e" y="404.2"/>
      </g>
     </g>
     <g id="text_2">
      <!-- 2023-01 -->
      <defs>
       <path d="M 40.578125 39.3125 
Q 47.65625 37.796875 51.625 33 
Q 55.609375 28.21875 55.609375 21.1875 
Q 55.609375 10.40625 48.1875 4.484375 
Q 40.765625 -1.421875 27.09375 -1.421875 
Q 22.515625 -1.421875 17.65625 -0.515625 
Q 12.796875 0.390625 7.625 2.203125 
L 7.625 11.71875 
Q 11.71875 9.328125 16.59375 8.109375 
Q 21.484375 6.890625 26.8125 6.890625 
Q 36.078125 6.890625 40.9375 10.546875 
Q 45.796875 14.203125 45.796875 21.1875 
Q 45.796875 27.640625 41.28125 31.265625 
Q 36.765625 34.90625 28.71875 34.90625 
L 20.21875 34.90625 
L 20.21875 43.015625 
L 29.109375 43.015625 
Q 36.375 43.015625 40.234375 45.921875 
Q 44.09375 48.828125 44.09375 54.296875 
Q 44.09375 59.90625 40.109375 62.90625 
Q 36.140625 65.921875 28.71875 65.921875 
Q 24.65625 65.921875 20.015625 65.03125 
Q 15.375 64.15625 9.8125 62.3125 
L 9.8125 71.09375 
Q 15.4375 72.65625 20.34375 73.4375 
Q 25.25 74.21875 29.59375 74.21875 
Q 40.828125 74.21875 47.359375 69.109375 
Q 53.90625 64.015625 53.90625 55.328125 
Q 53.90625 49.265625 50.4375 45.09375 
Q 46.96875 40.921875 40.578125 39.3125 
z
" id="DejaVuSans-51"/>
      </defs>
      <g transform="translate(175.120814 418.798437)scale(0.1 -0.1)">
       <use xlink:href="#DejaVuSans-50"/>
       <use x="63.623047" xlink:href="#DejaVuSans-48"/>
       <use x="127.246094" xlink:href="#DejaVuSans-50"/>
       <use x="190.869141" xlink:href="#DejaVuSans-51"/>
       <use x="254.492188" xlink:href="#DejaVuSans-45"/>
       <use x="290.576172" xlink:href="#DejaVuSans-48"/>
       <use x="354.199219" xlink:href="#DejaVuSans-49"/>
      </g>
     </g>
    </g>
    <g id="xtick_3">
     <g id="line2d_3">
      <g>
       <use style="stroke:#000000;stroke-width:0.8;" x="315.962967" xlink:href="#m4ff827721e" y="404.2"/>
      </g>
     </g>
     <g id="text_3">
      <!-- 2023-03 -->
      <g transform="translate(295.071561 418.798437)scale(0.1 -0.1)">
       <use xlink:href="#DejaVuSans-50"/>
       <use x="63.623047" xlink:href="#DejaVuSans-48"/>
       <use x="127.246094" xlink:href="#DejaVuSans-50"/>
       <use x="190.869141" xlink:href="#DejaVuSans-51"/>
       <use x="254.492188" xlink:href="#DejaVuSans-45"/>
       <use x="290.576172" xlink:href="#DejaVuSans-48"/>
       <use x="354.199219" xlink:href="#DejaVuSans-51"/>
      </g>
     </g>
    </g>
    <g id="xtick_4">
     <g id="line2d_4">
      <g>
       <use style="stroke:#000000;stroke-width:0.8;" x="439.979841" xlink:href="#m4ff827721e" y="404.2"/>
      </g>
     </g>
     <g id="text_4">
      <!-- 2023-05 -->
      <defs>
       <path d="M 10.796875 72.90625 
L 49.515625 72.90625 
L 49.515625 64.59375 
L 19.828125 64.59375 
L 19.828125 46.734375 
Q 21.96875 47.46875 24.109375 47.828125 
Q 26.265625 48.1875 28.421875 48.1875 
Q 40.625 48.1875 47.75 41.5 
Q 54.890625 34.8125 54.890625 23.390625 
Q 54.890625 11.625 47.5625 5.09375 
Q 40.234375 -1.421875 26.90625 -1.421875 
Q 22.3125 -1.421875 17.546875 -0.640625 
Q 12.796875 0.140625 7.71875 1.703125 
L 7.71875 11.625 
Q 12.109375 9.234375 16.796875 8.0625 
Q 21.484375 6.890625 26.703125 6.890625 
Q 35.15625 6.890625 40.078125 11.328125 
Q 45.015625 15.765625 45.015625 23.390625 
Q 45.015625 31 40.078125 35.4375 
Q 35.15625 39.890625 26.703125 39.890625 
Q 22.75 39.890625 18.8125 39.015625 
Q 14.890625 38.140625 10.796875 36.28125 
z
" id="DejaVuSans-53"/>
      </defs>
      <g transform="translate(419.088435 418.798437)scale(0.1 -0.1)">
       <use xlink:href="#DejaVuSans-50"/>
       <use x="63.623047" xlink:href="#DejaVuSans-48"/>
       <use x="127.246094" xlink:href="#DejaVuSans-50"/>
       <use x="190.869141" xlink:href="#DejaVuSans-51"/>
       <use x="254.492188" xlink:href="#DejaVuSans-45"/>
       <use x="290.576172" xlink:href="#DejaVuSans-48"/>
       <use x="354.199219" xlink:href="#DejaVuSans-53"/>
      </g>
     </g>
    </g>
    <g id="xtick_5">
     <g id="line2d_5">
      <g>
       <use style="stroke:#000000;stroke-width:0.8;" x="563.996715" xlink:href="#m4ff827721e" y="404.2"/>
      </g>
     </g>
     <g id="text_5">
      <!-- 2023-07 -->
      <defs>
       <path d="M 8.203125 72.90625 
L 55.078125 72.90625 
L 55.078125 68.703125 
L 28.609375 0 
L 18.3125 0 
L 43.21875 64.59375 
L 8.203125 64.59375 
z
" id="DejaVuSans-55"/>
      </defs>
      <g transform="translate(543.105309 418.798437)scale(0.1 -0.1)">
       <use xlink:href="#DejaVuSans-50"/>
       <use x="63.623047" xlink:href="#DejaVuSans-48"/>
       <use x="127.246094" xlink:href="#DejaVuSans-50"/>
       <use x="190.869141" xlink:href="#DejaVuSans-51"/>
       <use x="254.492188" xlink:href="#DejaVuSans-45"/>
       <use x="290.576172" xlink:href="#DejaVuSans-48"/>
       <use x="354.199219" xlink:href="#DejaVuSans-55"/>
      </g>
     </g>
    </g>
    <g id="xtick_6">
     <g id="line2d_6">
      <g>
       <use style="stroke:#000000;stroke-width:0.8;" x="690.046653" xlink:href="#m4ff827721e" y="404.2"/>
      </g>
     </g>
     <g id="text_6">
      <!-- 2023-09 -->
      <defs>
       <path d="M 10.984375 1.515625 
L 10.984375 10.5 
Q 14.703125 8.734375 18.5 7.8125 
Q 22.3125 6.890625 25.984375 6.890625 
Q 35.75 6.890625 40.890625 13.453125 
Q 46.046875 20.015625 46.78125 33.40625 
Q 43.953125 29.203125 39.59375 26.953125 
Q 35.25 24.703125 29.984375 24.703125 
Q 19.046875 24.703125 12.671875 31.3125 
Q 6.296875 37.9375 6.296875 49.421875 
Q 6.296875 60.640625 12.9375 67.421875 
Q 19.578125 74.21875 30.609375 74.21875 
Q 43.265625 74.21875 49.921875 64.515625 
Q 56.59375 54.828125 56.59375 36.375 
Q 56.59375 19.140625 48.40625 8.859375 
Q 40.234375 -1.421875 26.421875 -1.421875 
Q 22.703125 -1.421875 18.890625 -0.6875 
Q 15.09375 0.046875 10.984375 1.515625 
z
M 30.609375 32.421875 
Q 37.25 32.421875 41.125 36.953125 
Q 45.015625 41.5 45.015625 49.421875 
Q 45.015625 57.28125 41.125 61.84375 
Q 37.25 66.40625 30.609375 66.40625 
Q 23.96875 66.40625 20.09375 61.84375 
Q 16.21875 57.28125 16.21875 49.421875 
Q 16.21875 41.5 20.09375 36.953125 
Q 23.96875 32.421875 30.609375 32.421875 
z
" id="DejaVuSans-57"/>
      </defs>
      <g transform="translate(669.155247 418.798437)scale(0.1 -0.1)">
       <use xlink:href="#DejaVuSans-50"/>
       <use x="63.623047" xlink:href="#DejaVuSans-48"/>
       <use x="127.246094" xlink:href="#DejaVuSans-50"/>
       <use x="190.869141" xlink:href="#DejaVuSans-51"/>
       <use x="254.492188" xlink:href="#DejaVuSans-45"/>
       <use x="290.576172" xlink:href="#DejaVuSans-48"/>
       <use x="354.199219" xlink:href="#DejaVuSans-57"/>
      </g>
     </g>
    </g>
    <g id="xtick_7">
     <g id="line2d_7">
      <g>
       <use style="stroke:#000000;stroke-width:0.8;" x="814.063527" xlink:href="#m4ff827721e" y="404.2"/>
      </g>
     </g>
     <g id="text_7">
      <!-- 2023-11 -->
      <g transform="translate(793.172121 418.798437)scale(0.1 -0.1)">
       <use xlink:href="#DejaVuSans-50"/>
       <use x="63.623047" xlink:href="#DejaVuSans-48"/>
       <use x="127.246094" xlink:href="#DejaVuSans-50"/>
       <use x="190.869141" xlink:href="#DejaVuSans-51"/>
       <use x="254.492188" xlink:href="#DejaVuSans-45"/>
       <use x="290.576172" xlink:href="#DejaVuSans-49"/>
       <use x="354.199219" xlink:href="#DejaVuSans-49"/>
      </g>
     </g>
    </g>
   </g>
   <g id="matplotlib.axis_2">
    <g id="ytick_1">
     <g id="line2d_8">
      <defs>
       <path d="M 0 0 
L -3.5 0 
" id="m238b99c59d" style="stroke:#000000;stroke-width:0.8;"/>
      </defs>
      <g>
       <use style="stroke:#000000;stroke-width:0.8;" x="36.925" xlink:href="#m238b99c59d" y="387.136364"/>
      </g>
     </g>
     <g id="text_8">
      <!-- 0 -->
      <g transform="translate(23.5625 390.935582)scale(0.1 -0.1)">
       <use xlink:href="#DejaVuSans-48"/>
      </g>
     </g>
    </g>
    <g id="ytick_2">
     <g id="line2d_9">
      <g>
       <use style="stroke:#000000;stroke-width:0.8;" x="36.925" xlink:href="#m238b99c59d" y="345.107703"/>
      </g>
     </g>
     <g id="text_9">
      <!-- 25 -->
      <g transform="translate(17.2 348.906921)scale(0.1 -0.1)">
       <use xlink:href="#DejaVuSans-50"/>
       <use x="63.623047" xlink:href="#DejaVuSans-53"/>
      </g>
     </g>
    </g>
    <g id="ytick_3">
     <g id="line2d_10">
      <g>
       <use style="stroke:#000000;stroke-width:0.8;" x="36.925" xlink:href="#m238b99c59d" y="303.079042"/>
      </g>
     </g>
     <g id="text_10">
      <!-- 50 -->
      <g transform="translate(17.2 306.87826)scale(0.1 -0.1)">
       <use xlink:href="#DejaVuSans-53"/>
       <use x="63.623047" xlink:href="#DejaVuSans-48"/>
      </g>
     </g>
    </g>
    <g id="ytick_4">
     <g id="line2d_11">
      <g>
       <use style="stroke:#000000;stroke-width:0.8;" x="36.925" xlink:href="#m238b99c59d" y="261.050381"/>
      </g>
     </g>
     <g id="text_11">
      <!-- 75 -->
      <g transform="translate(17.2 264.849599)scale(0.1 -0.1)">
       <use xlink:href="#DejaVuSans-55"/>
       <use x="63.623047" xlink:href="#DejaVuSans-53"/>
      </g>
     </g>
    </g>
    <g id="ytick_5">
     <g id="line2d_12">
      <g>
       <use style="stroke:#000000;stroke-width:0.8;" x="36.925" xlink:href="#m238b99c59d" y="219.02172"/>
      </g>
     </g>
     <g id="text_12">
      <!-- 100 -->
      <g transform="translate(10.8375 222.820938)scale(0.1 -0.1)">
       <use xlink:href="#DejaVuSans-49"/>
       <use x="63.623047" xlink:href="#DejaVuSans-48"/>
       <use x="127.246094" xlink:href="#DejaVuSans-48"/>
      </g>
     </g>
    </g>
    <g id="ytick_6">
     <g id="line2d_13">
      <g>
       <use style="stroke:#000000;stroke-width:0.8;" x="36.925" xlink:href="#m238b99c59d" y="176.993059"/>
      </g>
     </g>
     <g id="text_13">
      <!-- 125 -->
      <g transform="translate(10.8375 180.792277)scale(0.1 -0.1)">
       <use xlink:href="#DejaVuSans-49"/>
       <use x="63.623047" xlink:href="#DejaVuSans-50"/>
       <use x="127.246094" xlink:href="#DejaVuSans-53"/>
      </g>
     </g>
    </g>
    <g id="ytick_7">
     <g id="line2d_14">
      <g>
       <use style="stroke:#000000;stroke-width:0.8;" x="36.925" xlink:href="#m238b99c59d" y="134.964398"/>
      </g>
     </g>
     <g id="text_14">
      <!-- 150 -->
      <g transform="translate(10.8375 138.763616)scale(0.1 -0.1)">
       <use xlink:href="#DejaVuSans-49"/>
       <use x="63.623047" xlink:href="#DejaVuSans-53"/>
       <use x="127.246094" xlink:href="#DejaVuSans-48"/>
      </g>
     </g>
    </g>
    <g id="ytick_8">
     <g id="line2d_15">
      <g>
       <use style="stroke:#000000;stroke-width:0.8;" x="36.925" xlink:href="#m238b99c59d" y="92.935737"/>
      </g>
     </g>
     <g id="text_15">
      <!-- 175 -->
      <g transform="translate(10.8375 96.734955)scale(0.1 -0.1)">
       <use xlink:href="#DejaVuSans-49"/>
       <use x="63.623047" xlink:href="#DejaVuSans-55"/>
       <use x="127.246094" xlink:href="#DejaVuSans-53"/>
      </g>
     </g>
    </g>
    <g id="ytick_9">
     <g id="line2d_16">
      <g>
       <use style="stroke:#000000;stroke-width:0.8;" x="36.925" xlink:href="#m238b99c59d" y="50.907076"/>
      </g>
     </g>
     <g id="text_16">
      <!-- 200 -->
      <g transform="translate(10.8375 54.706294)scale(0.1 -0.1)">
       <use xlink:href="#DejaVuSans-50"/>
       <use x="63.623047" xlink:href="#DejaVuSans-48"/>
       <use x="127.246094" xlink:href="#DejaVuSans-48"/>
      </g>
     </g>
    </g>
   </g>
   <g id="patch_3">
    <path d="M 36.925 404.2 
L 36.925 28.8 
" style="fill:none;stroke:#000000;stroke-linecap:square;stroke-linejoin:miter;stroke-width:0.8;"/>
   </g>
   <g id="patch_4">
    <path d="M 853.2 404.2 
L 853.2 28.8 
" style="fill:none;stroke:#000000;stroke-linecap:square;stroke-linejoin:miter;stroke-width:0.8;"/>
   </g>
   <g id="patch_5">
    <path d="M 36.925 404.2 
L 853.2 404.2 
" style="fill:none;stroke:#000000;stroke-linecap:square;stroke-linejoin:miter;stroke-width:0.8;"/>
   </g>
   <g id="patch_6">
    <path d="M 36.925 28.8 
L 853.2 28.8 
" style="fill:none;stroke:#000000;stroke-linecap:square;stroke-linejoin:miter;stroke-width:0.8;"/>
   </g>
   <g id="text_17">
    <!-- 3037.TW - 24.24% -->
    <defs>
     <path d="M 46.578125 39.3125 
Q 53.953125 37.40625 57.78125 32.6875 
Q 61.625 27.984375 61.625 20.703125 
Q 61.625 9.859375 53.3125 4.21875 
Q 45.015625 -1.421875 29.109375 -1.421875 
Q 23.484375 -1.421875 17.84375 -0.515625 
Q 12.203125 0.390625 6.6875 2.203125 
L 6.6875 16.703125 
Q 11.96875 14.0625 17.15625 12.71875 
Q 22.359375 11.375 27.390625 11.375 
Q 34.859375 11.375 38.84375 13.953125 
Q 42.828125 16.546875 42.828125 21.390625 
Q 42.828125 26.375 38.75 28.9375 
Q 34.671875 31.5 26.703125 31.5 
L 19.1875 31.5 
L 19.1875 43.609375 
L 27.09375 43.609375 
Q 34.1875 43.609375 37.640625 45.828125 
Q 41.109375 48.046875 41.109375 52.59375 
Q 41.109375 56.78125 37.734375 59.078125 
Q 34.375 61.375 28.21875 61.375 
Q 23.6875 61.375 19.046875 60.34375 
Q 14.40625 59.328125 9.8125 57.328125 
L 9.8125 71.09375 
Q 15.375 72.65625 20.84375 73.4375 
Q 26.3125 74.21875 31.59375 74.21875 
Q 45.796875 74.21875 52.84375 69.546875 
Q 59.90625 64.890625 59.90625 55.515625 
Q 59.90625 49.125 56.53125 45.046875 
Q 53.171875 40.96875 46.578125 39.3125 
z
" id="DejaVuSans-Bold-51"/>
     <path d="M 46 36.53125 
Q 46 50.203125 43.4375 55.78125 
Q 40.875 61.375 34.8125 61.375 
Q 28.765625 61.375 26.171875 55.78125 
Q 23.578125 50.203125 23.578125 36.53125 
Q 23.578125 22.703125 26.171875 17.03125 
Q 28.765625 11.375 34.8125 11.375 
Q 40.828125 11.375 43.40625 17.03125 
Q 46 22.703125 46 36.53125 
z
M 64.796875 36.375 
Q 64.796875 18.265625 56.984375 8.421875 
Q 49.171875 -1.421875 34.8125 -1.421875 
Q 20.40625 -1.421875 12.59375 8.421875 
Q 4.78125 18.265625 4.78125 36.375 
Q 4.78125 54.546875 12.59375 64.375 
Q 20.40625 74.21875 34.8125 74.21875 
Q 49.171875 74.21875 56.984375 64.375 
Q 64.796875 54.546875 64.796875 36.375 
z
" id="DejaVuSans-Bold-48"/>
     <path d="M 6.6875 72.90625 
L 61.625 72.90625 
L 61.625 62.3125 
L 33.203125 0 
L 14.890625 0 
L 41.796875 59.078125 
L 6.6875 59.078125 
z
" id="DejaVuSans-Bold-55"/>
     <path d="M 10.203125 18.890625 
L 27.78125 18.890625 
L 27.78125 0 
L 10.203125 0 
z
" id="DejaVuSans-Bold-46"/>
     <path d="M 0.484375 72.90625 
L 67.671875 72.90625 
L 67.671875 58.6875 
L 43.5 58.6875 
L 43.5 0 
L 24.703125 0 
L 24.703125 58.6875 
L 0.484375 58.6875 
z
" id="DejaVuSans-Bold-84"/>
     <path d="M 2.984375 72.90625 
L 21 72.90625 
L 33.59375 19.921875 
L 46.09375 72.90625 
L 64.203125 72.90625 
L 76.703125 19.921875 
L 89.3125 72.90625 
L 107.171875 72.90625 
L 89.984375 0 
L 68.3125 0 
L 55.078125 55.421875 
L 42 0 
L 20.3125 0 
z
" id="DejaVuSans-Bold-87"/>
     <path id="DejaVuSans-Bold-32"/>
     <path d="M 5.421875 35.890625 
L 36.078125 35.890625 
L 36.078125 21.6875 
L 5.421875 21.6875 
z
" id="DejaVuSans-Bold-45"/>
     <path d="M 28.8125 13.8125 
L 60.890625 13.8125 
L 60.890625 0 
L 7.90625 0 
L 7.90625 13.8125 
L 34.515625 37.3125 
Q 38.09375 40.53125 39.796875 43.609375 
Q 41.5 46.6875 41.5 50 
Q 41.5 55.125 38.0625 58.25 
Q 34.625 61.375 28.90625 61.375 
Q 24.515625 61.375 19.28125 59.5 
Q 14.0625 57.625 8.109375 53.90625 
L 8.109375 69.921875 
Q 14.453125 72.015625 20.65625 73.109375 
Q 26.859375 74.21875 32.8125 74.21875 
Q 45.90625 74.21875 53.15625 68.453125 
Q 60.40625 62.703125 60.40625 52.390625 
Q 60.40625 46.4375 57.328125 41.28125 
Q 54.25 36.140625 44.390625 27.484375 
z
" id="DejaVuSans-Bold-50"/>
     <path d="M 36.8125 57.421875 
L 16.21875 26.90625 
L 36.8125 26.90625 
z
M 33.6875 72.90625 
L 54.59375 72.90625 
L 54.59375 26.90625 
L 64.984375 26.90625 
L 64.984375 13.28125 
L 54.59375 13.28125 
L 54.59375 0 
L 36.8125 0 
L 36.8125 13.28125 
L 4.5 13.28125 
L 4.5 29.390625 
z
" id="DejaVuSans-Bold-52"/>
     <path d="M 77.484375 30.078125 
Q 74.03125 30.078125 72.125 27.078125 
Q 70.21875 24.078125 70.21875 18.5 
Q 70.21875 12.890625 72.09375 9.890625 
Q 73.96875 6.890625 77.484375 6.890625 
Q 81 6.890625 82.859375 9.890625 
Q 84.71875 12.890625 84.71875 18.5 
Q 84.71875 24.078125 82.828125 27.078125 
Q 80.953125 30.078125 77.484375 30.078125 
z
M 77.484375 38.28125 
Q 86.578125 38.28125 91.796875 33 
Q 97.015625 27.734375 97.015625 18.5 
Q 97.015625 9.28125 91.796875 3.921875 
Q 86.578125 -1.421875 77.484375 -1.421875 
Q 68.40625 -1.421875 63.15625 3.921875 
Q 57.90625 9.28125 57.90625 18.5 
Q 57.90625 27.6875 63.15625 32.984375 
Q 68.40625 38.28125 77.484375 38.28125 
z
M 32.71875 -1.421875 
L 21.921875 -1.421875 
L 67.484375 74.21875 
L 78.328125 74.21875 
z
M 22.703125 74.21875 
Q 31.78125 74.21875 36.984375 68.921875 
Q 42.1875 63.625 42.1875 54.390625 
Q 42.1875 45.171875 36.984375 39.84375 
Q 31.78125 34.515625 22.703125 34.515625 
Q 13.625 34.515625 8.421875 39.84375 
Q 3.21875 45.171875 3.21875 54.390625 
Q 3.21875 63.625 8.421875 68.921875 
Q 13.625 74.21875 22.703125 74.21875 
z
M 22.703125 66.015625 
Q 19.1875 66.015625 17.28125 62.984375 
Q 15.375 59.96875 15.375 54.390625 
Q 15.375 48.78125 17.28125 45.71875 
Q 19.1875 42.671875 22.703125 42.671875 
Q 26.21875 42.671875 28.09375 45.71875 
Q 29.984375 48.78125 29.984375 54.390625 
Q 29.984375 59.96875 28.078125 62.984375 
Q 26.171875 66.015625 22.703125 66.015625 
z
" id="DejaVuSans-Bold-37"/>
    </defs>
    <g transform="translate(36.925 22.8)scale(0.16 -0.16)">
     <use xlink:href="#DejaVuSans-Bold-51"/>
     <use x="69.580078" xlink:href="#DejaVuSans-Bold-48"/>
     <use x="139.160156" xlink:href="#DejaVuSans-Bold-51"/>
     <use x="208.740234" xlink:href="#DejaVuSans-Bold-55"/>
     <use x="278.320312" xlink:href="#DejaVuSans-Bold-46"/>
     <use x="316.308594" xlink:href="#DejaVuSans-Bold-84"/>
     <use x="384.521484" xlink:href="#DejaVuSans-Bold-87"/>
     <use x="494.824219" xlink:href="#DejaVuSans-Bold-32"/>
     <use x="529.638672" xlink:href="#DejaVuSans-Bold-45"/>
     <use x="571.142578" xlink:href="#DejaVuSans-Bold-32"/>
     <use x="605.957031" xlink:href="#DejaVuSans-Bold-50"/>
     <use x="675.537109" xlink:href="#DejaVuSans-Bold-52"/>
     <use x="745.117188" xlink:href="#DejaVuSans-Bold-46"/>
     <use x="783.105469" xlink:href="#DejaVuSans-Bold-50"/>
     <use x="852.685547" xlink:href="#DejaVuSans-Bold-52"/>
     <use x="922.265625" xlink:href="#DejaVuSans-Bold-37"/>
    </g>
   </g>
  </g>
 </g>
 <defs>
  <clipPath id="pd8d4b72fa3">
   <rect height="375.4" width="816.275" x="36.925" y="28.8"/>
  </clipPath>
 </defs>
</svg>
