<?xml version="1.0" encoding="utf-8" standalone="no"?>
<!DOCTYPE svg PUBLIC "-//W3C//DTD SVG 1.1//EN"
  "http://www.w3.org/Graphics/SVG/1.1/DTD/svg11.dtd">
<!-- Created with matplotlib (https://matplotlib.org/) -->
<svg height="432pt" version="1.1" viewBox="0 0 576 432" width="576pt" xmlns="http://www.w3.org/2000/svg" xmlns:xlink="http://www.w3.org/1999/xlink">
 <defs>
  <style type="text/css">
*{stroke-linecap:butt;stroke-linejoin:round;}
  </style>
 </defs>
 <g id="figure_1">
  <g id="patch_1">
   <path d="M 0 432 
L 576 432 
L 576 0 
L 0 0 
z
" style="fill:#ffffff;"/>
  </g>
  <g id="axes_1">
   <g id="patch_2">
    <path d="M 43.3 404.2 
L 565.2 404.2 
L 565.2 31.8 
L 43.3 31.8 
z
" style="fill:#ffffff;"/>
   </g>
   <g id="PolyCollection_1">
    <defs>
     <path d="M 67.022727 -44.727273 
L 67.022727 -224.51348 
L 69.622478 -219.600274 
L 73.522105 -223.785586 
L 74.82198 -231.064386 
L 76.121856 -240.890762 
L 77.421731 -237.251362 
L 78.721606 -252.53682 
L 82.621233 -251.081068 
L 83.921108 -254.720468 
L 85.220984 -254.720468 
L 86.520859 -249.989244 
L 87.820735 -244.530144 
L 91.720361 -247.441668 
L 93.020237 -242.346515 
L 95.619988 -250.353191 
L 96.919863 -250.717138 
L 100.819489 -248.169544 
L 102.119365 -244.530144 
L 103.41924 -245.258038 
L 104.719116 -253.264697 
L 106.018991 -251.808944 
L 109.918618 -251.081068 
L 111.218493 -249.989244 
L 112.518369 -242.346515 
L 113.818244 -243.438338 
L 115.11812 -247.805597 
L 119.017746 -245.985915 
L 120.317621 -244.530144 
L 121.617497 -243.438338 
L 122.917372 -242.710462 
L 124.217248 -235.431662 
L 128.116874 -232.520139 
L 129.41675 -220.692116 
L 130.716625 -217.052716 
L 132.016501 -220.510133 
L 133.316376 -215.051051 
L 137.216002 -215.596945 
L 138.515878 -212.503457 
L 139.815753 -213.777245 
L 141.115629 -215.596945 
L 142.415504 -218.872416 
L 148.914882 -213.59528 
L 150.214757 -218.690433 
L 151.514633 -223.057709 
L 156.714134 -227.788933 
L 158.01401 -232.884086 
L 159.313885 -232.156209 
L 160.613761 -229.244686 
L 164.513387 -223.785586 
L 165.813263 -225.423321 
L 167.113138 -226.697092 
L 168.413014 -222.329833 
L 169.712889 -223.603621 
L 173.612516 -229.244686 
L 174.912391 -236.159539 
L 176.212267 -236.887415 
L 177.512142 -229.972562 
L 178.812017 -228.516792 
L 182.711644 -232.520139 
L 184.011519 -227.061039 
L 185.311395 -231.064386 
L 186.61127 -235.795609 
L 187.911146 -232.520139 
L 191.810772 -225.969233 
L 193.110648 -226.515145 
L 194.410523 -225.423321 
L 195.710399 -219.964221 
L 197.010274 -217.780574 
L 200.9099 -214.869069 
L 202.209776 -215.77891 
L 203.509651 -212.685439 
L 204.809527 -215.233016 
L 206.109402 -210.865739 
L 210.009029 -208.13618 
L 211.308904 -208.318145 
L 212.60878 -204.314816 
L 215.208531 -213.231351 
L 219.108157 -211.957545 
L 220.408032 -214.869069 
L 221.707908 -220.510133 
L 223.007783 -221.601957 
L 224.307659 -222.875727 
L 228.207285 -229.244686 
L 229.507161 -224.331498 
L 230.807036 -223.057709 
L 232.106912 -225.787268 
L 233.406787 -222.511816 
L 237.306413 -222.511816 
L 238.606289 -220.510133 
L 239.906164 -221.419974 
L 241.20604 -220.146186 
L 242.505915 -227.061039 
L 246.405542 -222.69378 
L 249.005293 -221.056027 
L 250.305168 -218.508468 
L 251.605044 -227.788933 
L 255.50467 -222.329833 
L 256.804545 -219.964221 
L 258.104421 -221.783921 
L 259.404296 -230.371807 
L 260.704172 -236.949763 
L 264.603798 -234.026235 
L 265.903674 -233.295335 
L 267.203549 -230.737257 
L 268.503425 -225.986497 
L 269.8033 -229.275475 
L 273.702927 -230.006357 
L 275.002802 -235.122549 
L 276.302677 -235.487999 
L 277.602553 -233.295335 
L 278.902428 -234.391667 
L 282.802055 -237.680646 
L 284.10193 -235.122549 
L 285.401806 -234.391667 
L 286.701681 -232.199021 
L 288.001557 -232.199021 
L 291.901183 -230.371807 
L 293.201059 -227.813711 
L 294.500934 -224.524733 
L 295.800809 -224.524733 
L 297.100685 -239.14241 
L 301.000311 -243.52772 
L 302.300187 -261.434374 
L 310.09944 -259.241728 
L 311.399315 -266.550566 
L 312.699191 -264.723352 
L 313.999066 -268.37778 
L 315.298941 -268.743212 
L 319.198568 -266.185116 
L 320.498443 -272.03219 
L 321.798319 -272.763072 
L 323.098194 -284.45722 
L 324.39807 -282.630006 
L 328.297696 -281.533692 
L 329.597572 -279.341028 
L 330.897447 -283.726338 
L 332.197323 -305.652853 
L 333.497198 -313.692591 
L 337.396824 -321.732311 
L 338.6967 -323.924957 
L 339.996575 -323.194075 
L 341.296451 -317.347001 
L 342.596326 -316.250669 
L 346.495953 -320.562896 
L 347.795828 -318.479865 
L 349.095704 -318.808765 
L 350.395579 -314.788905 
L 351.695455 -324.509673 
L 355.595081 -324.802022 
L 356.894956 -335.984537 
L 358.194832 -334.41314 
L 359.494707 -339.602415 
L 360.794583 -343.731908 
L 364.694209 -340.84493 
L 365.994085 -342.452878 
L 367.29396 -340.698747 
L 368.593836 -333.572625 
L 369.893711 -325.167454 
L 373.793337 -328.310267 
L 375.093213 -324.473123 
L 376.393088 -329.187332 
L 377.692964 -336.313437 
L 378.992839 -340.735297 
L 382.892466 -352.100545 
L 384.192341 -351.698545 
L 385.492217 -352.575611 
L 386.792092 -343.220292 
L 388.091968 -342.745227 
L 391.991594 -339.748598 
L 393.291469 -344.389707 
L 394.591345 -336.642336 
L 395.89122 -347.313253 
L 397.191096 -353.123777 
L 402.390598 -358.276501 
L 403.690473 -359.957532 
L 404.990349 -353.671943 
L 406.290224 -346.947821 
L 410.189851 -354.329742 
L 411.489726 -359.409366 
L 412.789601 -354.037375 
L 414.089477 -349.505917 
L 415.389352 -356.230039 
L 419.288979 -359.957532 
L 420.588854 -367.120186 
L 421.88873 -357.618702 
L 423.188605 -366.096955 
L 424.488481 -354.622073 
L 428.388107 -354.695174 
L 429.687983 -336.642336 
L 430.987858 -341.941244 
L 432.287733 -337.702118 
L 437.487235 -333.280275 
L 438.787111 -347.605584 
L 440.086986 -340.80838 
L 441.386862 -340.040947 
L 442.686737 -339.785149 
L 446.586364 -337.629035 
L 447.886239 -343.805009 
L 449.186115 -348.921183 
L 450.48599 -370.445715 
L 451.785866 -347.313253 
L 455.685492 -359.920999 
L 456.985367 -357.25327 
L 458.285243 -365.475724 
L 459.585118 -366.02389 
L 460.884994 -364.306291 
L 464.78462 -368.143453 
L 466.084496 -370.37265 
L 467.384371 -383.272727 
L 468.684247 -368.472353 
L 469.984122 -361.784764 
L 473.883748 -352.429445 
L 475.183624 -345.961122 
L 476.483499 -341.466179 
L 477.783375 -350.200249 
L 479.08325 -352.867978 
L 484.282752 -338.542633 
L 485.582628 -333.828441 
L 486.882503 -323.303708 
L 488.182379 -322.207376 
L 492.082005 -335.399839 
L 493.38188 -324.692389 
L 494.681756 -324.802022 
L 495.981631 -328.466004 
L 497.281507 -336.526763 
L 501.181133 -339.494588 
L 502.481009 -334.914611 
L 503.780884 -327.806487 
L 505.08076 -340.117465 
L 506.380635 -340.227385 
L 511.580137 -344.440963 
L 512.880012 -336.783242 
L 514.179888 -354.443633 
L 515.479763 -343.04865 
L 519.37939 -338.615233 
L 520.679265 -335.720687 
L 521.979141 -328.942321 
L 523.279016 -319.452609 
L 524.578892 -316.374865 
L 528.478518 -308.167546 
L 529.778394 -315.129111 
L 531.078269 -319.452609 
L 532.378144 -308.643864 
L 533.67802 -284.827984 
L 537.577646 -279.954888 
L 538.877522 -277.060343 
L 540.177397 -279.405291 
L 541.477273 -289.224761 
L 541.477273 -44.727273 
L 541.477273 -44.727273 
L 540.177397 -44.727273 
L 538.877522 -44.727273 
L 537.577646 -44.727273 
L 533.67802 -44.727273 
L 532.378144 -44.727273 
L 531.078269 -44.727273 
L 529.778394 -44.727273 
L 528.478518 -44.727273 
L 524.578892 -44.727273 
L 523.279016 -44.727273 
L 521.979141 -44.727273 
L 520.679265 -44.727273 
L 519.37939 -44.727273 
L 515.479763 -44.727273 
L 514.179888 -44.727273 
L 512.880012 -44.727273 
L 511.580137 -44.727273 
L 506.380635 -44.727273 
L 505.08076 -44.727273 
L 503.780884 -44.727273 
L 502.481009 -44.727273 
L 501.181133 -44.727273 
L 497.281507 -44.727273 
L 495.981631 -44.727273 
L 494.681756 -44.727273 
L 493.38188 -44.727273 
L 492.082005 -44.727273 
L 488.182379 -44.727273 
L 486.882503 -44.727273 
L 485.582628 -44.727273 
L 484.282752 -44.727273 
L 479.08325 -44.727273 
L 477.783375 -44.727273 
L 476.483499 -44.727273 
L 475.183624 -44.727273 
L 473.883748 -44.727273 
L 469.984122 -44.727273 
L 468.684247 -44.727273 
L 467.384371 -44.727273 
L 466.084496 -44.727273 
L 464.78462 -44.727273 
L 460.884994 -44.727273 
L 459.585118 -44.727273 
L 458.285243 -44.727273 
L 456.985367 -44.727273 
L 455.685492 -44.727273 
L 451.785866 -44.727273 
L 450.48599 -44.727273 
L 449.186115 -44.727273 
L 447.886239 -44.727273 
L 446.586364 -44.727273 
L 442.686737 -44.727273 
L 441.386862 -44.727273 
L 440.086986 -44.727273 
L 438.787111 -44.727273 
L 437.487235 -44.727273 
L 432.287733 -44.727273 
L 430.987858 -44.727273 
L 429.687983 -44.727273 
L 428.388107 -44.727273 
L 424.488481 -44.727273 
L 423.188605 -44.727273 
L 421.88873 -44.727273 
L 420.588854 -44.727273 
L 419.288979 -44.727273 
L 415.389352 -44.727273 
L 414.089477 -44.727273 
L 412.789601 -44.727273 
L 411.489726 -44.727273 
L 410.189851 -44.727273 
L 406.290224 -44.727273 
L 404.990349 -44.727273 
L 403.690473 -44.727273 
L 402.390598 -44.727273 
L 397.191096 -44.727273 
L 395.89122 -44.727273 
L 394.591345 -44.727273 
L 393.291469 -44.727273 
L 391.991594 -44.727273 
L 388.091968 -44.727273 
L 386.792092 -44.727273 
L 385.492217 -44.727273 
L 384.192341 -44.727273 
L 382.892466 -44.727273 
L 378.992839 -44.727273 
L 377.692964 -44.727273 
L 376.393088 -44.727273 
L 375.093213 -44.727273 
L 373.793337 -44.727273 
L 369.893711 -44.727273 
L 368.593836 -44.727273 
L 367.29396 -44.727273 
L 365.994085 -44.727273 
L 364.694209 -44.727273 
L 360.794583 -44.727273 
L 359.494707 -44.727273 
L 358.194832 -44.727273 
L 356.894956 -44.727273 
L 355.595081 -44.727273 
L 351.695455 -44.727273 
L 350.395579 -44.727273 
L 349.095704 -44.727273 
L 347.795828 -44.727273 
L 346.495953 -44.727273 
L 342.596326 -44.727273 
L 341.296451 -44.727273 
L 339.996575 -44.727273 
L 338.6967 -44.727273 
L 337.396824 -44.727273 
L 333.497198 -44.727273 
L 332.197323 -44.727273 
L 330.897447 -44.727273 
L 329.597572 -44.727273 
L 328.297696 -44.727273 
L 324.39807 -44.727273 
L 323.098194 -44.727273 
L 321.798319 -44.727273 
L 320.498443 -44.727273 
L 319.198568 -44.727273 
L 315.298941 -44.727273 
L 313.999066 -44.727273 
L 312.699191 -44.727273 
L 311.399315 -44.727273 
L 310.09944 -44.727273 
L 302.300187 -44.727273 
L 301.000311 -44.727273 
L 297.100685 -44.727273 
L 295.800809 -44.727273 
L 294.500934 -44.727273 
L 293.201059 -44.727273 
L 291.901183 -44.727273 
L 288.001557 -44.727273 
L 286.701681 -44.727273 
L 285.401806 -44.727273 
L 284.10193 -44.727273 
L 282.802055 -44.727273 
L 278.902428 -44.727273 
L 277.602553 -44.727273 
L 276.302677 -44.727273 
L 275.002802 -44.727273 
L 273.702927 -44.727273 
L 269.8033 -44.727273 
L 268.503425 -44.727273 
L 267.203549 -44.727273 
L 265.903674 -44.727273 
L 264.603798 -44.727273 
L 260.704172 -44.727273 
L 259.404296 -44.727273 
L 258.104421 -44.727273 
L 256.804545 -44.727273 
L 255.50467 -44.727273 
L 251.605044 -44.727273 
L 250.305168 -44.727273 
L 249.005293 -44.727273 
L 246.405542 -44.727273 
L 242.505915 -44.727273 
L 241.20604 -44.727273 
L 239.906164 -44.727273 
L 238.606289 -44.727273 
L 237.306413 -44.727273 
L 233.406787 -44.727273 
L 232.106912 -44.727273 
L 230.807036 -44.727273 
L 229.507161 -44.727273 
L 228.207285 -44.727273 
L 224.307659 -44.727273 
L 223.007783 -44.727273 
L 221.707908 -44.727273 
L 220.408032 -44.727273 
L 219.108157 -44.727273 
L 215.208531 -44.727273 
L 212.60878 -44.727273 
L 211.308904 -44.727273 
L 210.009029 -44.727273 
L 206.109402 -44.727273 
L 204.809527 -44.727273 
L 203.509651 -44.727273 
L 202.209776 -44.727273 
L 200.9099 -44.727273 
L 197.010274 -44.727273 
L 195.710399 -44.727273 
L 194.410523 -44.727273 
L 193.110648 -44.727273 
L 191.810772 -44.727273 
L 187.911146 -44.727273 
L 186.61127 -44.727273 
L 185.311395 -44.727273 
L 184.011519 -44.727273 
L 182.711644 -44.727273 
L 178.812017 -44.727273 
L 177.512142 -44.727273 
L 176.212267 -44.727273 
L 174.912391 -44.727273 
L 173.612516 -44.727273 
L 169.712889 -44.727273 
L 168.413014 -44.727273 
L 167.113138 -44.727273 
L 165.813263 -44.727273 
L 164.513387 -44.727273 
L 160.613761 -44.727273 
L 159.313885 -44.727273 
L 158.01401 -44.727273 
L 156.714134 -44.727273 
L 151.514633 -44.727273 
L 150.214757 -44.727273 
L 148.914882 -44.727273 
L 142.415504 -44.727273 
L 141.115629 -44.727273 
L 139.815753 -44.727273 
L 138.515878 -44.727273 
L 137.216002 -44.727273 
L 133.316376 -44.727273 
L 132.016501 -44.727273 
L 130.716625 -44.727273 
L 129.41675 -44.727273 
L 128.116874 -44.727273 
L 124.217248 -44.727273 
L 122.917372 -44.727273 
L 121.617497 -44.727273 
L 120.317621 -44.727273 
L 119.017746 -44.727273 
L 115.11812 -44.727273 
L 113.818244 -44.727273 
L 112.518369 -44.727273 
L 111.218493 -44.727273 
L 109.918618 -44.727273 
L 106.018991 -44.727273 
L 104.719116 -44.727273 
L 103.41924 -44.727273 
L 102.119365 -44.727273 
L 100.819489 -44.727273 
L 96.919863 -44.727273 
L 95.619988 -44.727273 
L 93.020237 -44.727273 
L 91.720361 -44.727273 
L 87.820735 -44.727273 
L 86.520859 -44.727273 
L 85.220984 -44.727273 
L 83.921108 -44.727273 
L 82.621233 -44.727273 
L 78.721606 -44.727273 
L 77.421731 -44.727273 
L 76.121856 -44.727273 
L 74.82198 -44.727273 
L 73.522105 -44.727273 
L 69.622478 -44.727273 
L 67.022727 -44.727273 
z
" id="m3a9d57b780" style="stroke:#f0939d;"/>
    </defs>
    <g clip-path="url(#p6f09b90b0d)">
     <use style="fill:#f0939d;stroke:#f0939d;" x="0" xlink:href="#m3a9d57b780" y="432"/>
    </g>
   </g>
   <g id="matplotlib.axis_1">
    <g id="xtick_1">
     <g id="line2d_1">
      <defs>
       <path d="M 0 0 
L 0 3.5 
" id="m0770aeac7f" style="stroke:#000000;stroke-width:0.8;"/>
      </defs>
      <g>
       <use style="stroke:#000000;stroke-width:0.8;" x="65.722852" xlink:href="#m0770aeac7f" y="404.2"/>
      </g>
     </g>
     <g id="text_1">
      <!-- 2022-11 -->
      <defs>
       <path d="M 19.1875 8.296875 
L 53.609375 8.296875 
L 53.609375 0 
L 7.328125 0 
L 7.328125 8.296875 
Q 12.9375 14.109375 22.625 23.890625 
Q 32.328125 33.6875 34.8125 36.53125 
Q 39.546875 41.84375 41.421875 45.53125 
Q 43.3125 49.21875 43.3125 52.78125 
Q 43.3125 58.59375 39.234375 62.25 
Q 35.15625 65.921875 28.609375 65.921875 
Q 23.96875 65.921875 18.8125 64.3125 
Q 13.671875 62.703125 7.8125 59.421875 
L 7.8125 69.390625 
Q 13.765625 71.78125 18.9375 73 
Q 24.125 74.21875 28.421875 74.21875 
Q 39.75 74.21875 46.484375 68.546875 
Q 53.21875 62.890625 53.21875 53.421875 
Q 53.21875 48.921875 51.53125 44.890625 
Q 49.859375 40.875 45.40625 35.40625 
Q 44.1875 33.984375 37.640625 27.21875 
Q 31.109375 20.453125 19.1875 8.296875 
z
" id="DejaVuSans-50"/>
       <path d="M 31.78125 66.40625 
Q 24.171875 66.40625 20.328125 58.90625 
Q 16.5 51.421875 16.5 36.375 
Q 16.5 21.390625 20.328125 13.890625 
Q 24.171875 6.390625 31.78125 6.390625 
Q 39.453125 6.390625 43.28125 13.890625 
Q 47.125 21.390625 47.125 36.375 
Q 47.125 51.421875 43.28125 58.90625 
Q 39.453125 66.40625 31.78125 66.40625 
z
M 31.78125 74.21875 
Q 44.046875 74.21875 50.515625 64.515625 
Q 56.984375 54.828125 56.984375 36.375 
Q 56.984375 17.96875 50.515625 8.265625 
Q 44.046875 -1.421875 31.78125 -1.421875 
Q 19.53125 -1.421875 13.0625 8.265625 
Q 6.59375 17.96875 6.59375 36.375 
Q 6.59375 54.828125 13.0625 64.515625 
Q 19.53125 74.21875 31.78125 74.21875 
z
" id="DejaVuSans-48"/>
       <path d="M 4.890625 31.390625 
L 31.203125 31.390625 
L 31.203125 23.390625 
L 4.890625 23.390625 
z
" id="DejaVuSans-45"/>
       <path d="M 12.40625 8.296875 
L 28.515625 8.296875 
L 28.515625 63.921875 
L 10.984375 60.40625 
L 10.984375 69.390625 
L 28.421875 72.90625 
L 38.28125 72.90625 
L 38.28125 8.296875 
L 54.390625 8.296875 
L 54.390625 0 
L 12.40625 0 
z
" id="DejaVuSans-49"/>
      </defs>
      <g transform="translate(44.831446 418.798437)scale(0.1 -0.1)">
       <use xlink:href="#DejaVuSans-50"/>
       <use x="63.623047" xlink:href="#DejaVuSans-48"/>
       <use x="127.246094" xlink:href="#DejaVuSans-50"/>
       <use x="190.869141" xlink:href="#DejaVuSans-50"/>
       <use x="254.492188" xlink:href="#DejaVuSans-45"/>
       <use x="290.576172" xlink:href="#DejaVuSans-49"/>
       <use x="354.199219" xlink:href="#DejaVuSans-49"/>
      </g>
     </g>
    </g>
    <g id="xtick_2">
     <g id="line2d_2">
      <g>
       <use style="stroke:#000000;stroke-width:0.8;" x="145.015255" xlink:href="#m0770aeac7f" y="404.2"/>
      </g>
     </g>
     <g id="text_2">
      <!-- 2023-01 -->
      <defs>
       <path d="M 40.578125 39.3125 
Q 47.65625 37.796875 51.625 33 
Q 55.609375 28.21875 55.609375 21.1875 
Q 55.609375 10.40625 48.1875 4.484375 
Q 40.765625 -1.421875 27.09375 -1.421875 
Q 22.515625 -1.421875 17.65625 -0.515625 
Q 12.796875 0.390625 7.625 2.203125 
L 7.625 11.71875 
Q 11.71875 9.328125 16.59375 8.109375 
Q 21.484375 6.890625 26.8125 6.890625 
Q 36.078125 6.890625 40.9375 10.546875 
Q 45.796875 14.203125 45.796875 21.1875 
Q 45.796875 27.640625 41.28125 31.265625 
Q 36.765625 34.90625 28.71875 34.90625 
L 20.21875 34.90625 
L 20.21875 43.015625 
L 29.109375 43.015625 
Q 36.375 43.015625 40.234375 45.921875 
Q 44.09375 48.828125 44.09375 54.296875 
Q 44.09375 59.90625 40.109375 62.90625 
Q 36.140625 65.921875 28.71875 65.921875 
Q 24.65625 65.921875 20.015625 65.03125 
Q 15.375 64.15625 9.8125 62.3125 
L 9.8125 71.09375 
Q 15.4375 72.65625 20.34375 73.4375 
Q 25.25 74.21875 29.59375 74.21875 
Q 40.828125 74.21875 47.359375 69.109375 
Q 53.90625 64.015625 53.90625 55.328125 
Q 53.90625 49.265625 50.4375 45.09375 
Q 46.96875 40.921875 40.578125 39.3125 
z
" id="DejaVuSans-51"/>
      </defs>
      <g transform="translate(124.123849 418.798437)scale(0.1 -0.1)">
       <use xlink:href="#DejaVuSans-50"/>
       <use x="63.623047" xlink:href="#DejaVuSans-48"/>
       <use x="127.246094" xlink:href="#DejaVuSans-50"/>
       <use x="190.869141" xlink:href="#DejaVuSans-51"/>
       <use x="254.492188" xlink:href="#DejaVuSans-45"/>
       <use x="290.576172" xlink:href="#DejaVuSans-48"/>
       <use x="354.199219" xlink:href="#DejaVuSans-49"/>
      </g>
     </g>
    </g>
    <g id="xtick_3">
     <g id="line2d_3">
      <g>
       <use style="stroke:#000000;stroke-width:0.8;" x="221.707908" xlink:href="#m0770aeac7f" y="404.2"/>
      </g>
     </g>
     <g id="text_3">
      <!-- 2023-03 -->
      <g transform="translate(200.816502 418.798437)scale(0.1 -0.1)">
       <use xlink:href="#DejaVuSans-50"/>
       <use x="63.623047" xlink:href="#DejaVuSans-48"/>
       <use x="127.246094" xlink:href="#DejaVuSans-50"/>
       <use x="190.869141" xlink:href="#DejaVuSans-51"/>
       <use x="254.492188" xlink:href="#DejaVuSans-45"/>
       <use x="290.576172" xlink:href="#DejaVuSans-48"/>
       <use x="354.199219" xlink:href="#DejaVuSans-51"/>
      </g>
     </g>
    </g>
    <g id="xtick_4">
     <g id="line2d_4">
      <g>
       <use style="stroke:#000000;stroke-width:0.8;" x="301.000311" xlink:href="#m0770aeac7f" y="404.2"/>
      </g>
     </g>
     <g id="text_4">
      <!-- 2023-05 -->
      <defs>
       <path d="M 10.796875 72.90625 
L 49.515625 72.90625 
L 49.515625 64.59375 
L 19.828125 64.59375 
L 19.828125 46.734375 
Q 21.96875 47.46875 24.109375 47.828125 
Q 26.265625 48.1875 28.421875 48.1875 
Q 40.625 48.1875 47.75 41.5 
Q 54.890625 34.8125 54.890625 23.390625 
Q 54.890625 11.625 47.5625 5.09375 
Q 40.234375 -1.421875 26.90625 -1.421875 
Q 22.3125 -1.421875 17.546875 -0.640625 
Q 12.796875 0.140625 7.71875 1.703125 
L 7.71875 11.625 
Q 12.109375 9.234375 16.796875 8.0625 
Q 21.484375 6.890625 26.703125 6.890625 
Q 35.15625 6.890625 40.078125 11.328125 
Q 45.015625 15.765625 45.015625 23.390625 
Q 45.015625 31 40.078125 35.4375 
Q 35.15625 39.890625 26.703125 39.890625 
Q 22.75 39.890625 18.8125 39.015625 
Q 14.890625 38.140625 10.796875 36.28125 
z
" id="DejaVuSans-53"/>
      </defs>
      <g transform="translate(280.108905 418.798437)scale(0.1 -0.1)">
       <use xlink:href="#DejaVuSans-50"/>
       <use x="63.623047" xlink:href="#DejaVuSans-48"/>
       <use x="127.246094" xlink:href="#DejaVuSans-50"/>
       <use x="190.869141" xlink:href="#DejaVuSans-51"/>
       <use x="254.492188" xlink:href="#DejaVuSans-45"/>
       <use x="290.576172" xlink:href="#DejaVuSans-48"/>
       <use x="354.199219" xlink:href="#DejaVuSans-53"/>
      </g>
     </g>
    </g>
    <g id="xtick_5">
     <g id="line2d_5">
      <g>
       <use style="stroke:#000000;stroke-width:0.8;" x="380.292715" xlink:href="#m0770aeac7f" y="404.2"/>
      </g>
     </g>
     <g id="text_5">
      <!-- 2023-07 -->
      <defs>
       <path d="M 8.203125 72.90625 
L 55.078125 72.90625 
L 55.078125 68.703125 
L 28.609375 0 
L 18.3125 0 
L 43.21875 64.59375 
L 8.203125 64.59375 
z
" id="DejaVuSans-55"/>
      </defs>
      <g transform="translate(359.401309 418.798437)scale(0.1 -0.1)">
       <use xlink:href="#DejaVuSans-50"/>
       <use x="63.623047" xlink:href="#DejaVuSans-48"/>
       <use x="127.246094" xlink:href="#DejaVuSans-50"/>
       <use x="190.869141" xlink:href="#DejaVuSans-51"/>
       <use x="254.492188" xlink:href="#DejaVuSans-45"/>
       <use x="290.576172" xlink:href="#DejaVuSans-48"/>
       <use x="354.199219" xlink:href="#DejaVuSans-55"/>
      </g>
     </g>
    </g>
    <g id="xtick_6">
     <g id="line2d_6">
      <g>
       <use style="stroke:#000000;stroke-width:0.8;" x="460.884994" xlink:href="#m0770aeac7f" y="404.2"/>
      </g>
     </g>
     <g id="text_6">
      <!-- 2023-09 -->
      <defs>
       <path d="M 10.984375 1.515625 
L 10.984375 10.5 
Q 14.703125 8.734375 18.5 7.8125 
Q 22.3125 6.890625 25.984375 6.890625 
Q 35.75 6.890625 40.890625 13.453125 
Q 46.046875 20.015625 46.78125 33.40625 
Q 43.953125 29.203125 39.59375 26.953125 
Q 35.25 24.703125 29.984375 24.703125 
Q 19.046875 24.703125 12.671875 31.3125 
Q 6.296875 37.9375 6.296875 49.421875 
Q 6.296875 60.640625 12.9375 67.421875 
Q 19.578125 74.21875 30.609375 74.21875 
Q 43.265625 74.21875 49.921875 64.515625 
Q 56.59375 54.828125 56.59375 36.375 
Q 56.59375 19.140625 48.40625 8.859375 
Q 40.234375 -1.421875 26.421875 -1.421875 
Q 22.703125 -1.421875 18.890625 -0.6875 
Q 15.09375 0.046875 10.984375 1.515625 
z
M 30.609375 32.421875 
Q 37.25 32.421875 41.125 36.953125 
Q 45.015625 41.5 45.015625 49.421875 
Q 45.015625 57.28125 41.125 61.84375 
Q 37.25 66.40625 30.609375 66.40625 
Q 23.96875 66.40625 20.09375 61.84375 
Q 16.21875 57.28125 16.21875 49.421875 
Q 16.21875 41.5 20.09375 36.953125 
Q 23.96875 32.421875 30.609375 32.421875 
z
" id="DejaVuSans-57"/>
      </defs>
      <g transform="translate(439.993588 418.798437)scale(0.1 -0.1)">
       <use xlink:href="#DejaVuSans-50"/>
       <use x="63.623047" xlink:href="#DejaVuSans-48"/>
       <use x="127.246094" xlink:href="#DejaVuSans-50"/>
       <use x="190.869141" xlink:href="#DejaVuSans-51"/>
       <use x="254.492188" xlink:href="#DejaVuSans-45"/>
       <use x="290.576172" xlink:href="#DejaVuSans-48"/>
       <use x="354.199219" xlink:href="#DejaVuSans-57"/>
      </g>
     </g>
    </g>
    <g id="xtick_7">
     <g id="line2d_7">
      <g>
       <use style="stroke:#000000;stroke-width:0.8;" x="540.177397" xlink:href="#m0770aeac7f" y="404.2"/>
      </g>
     </g>
     <g id="text_7">
      <!-- 2023-11 -->
      <g transform="translate(519.285991 418.798437)scale(0.1 -0.1)">
       <use xlink:href="#DejaVuSans-50"/>
       <use x="63.623047" xlink:href="#DejaVuSans-48"/>
       <use x="127.246094" xlink:href="#DejaVuSans-50"/>
       <use x="190.869141" xlink:href="#DejaVuSans-51"/>
       <use x="254.492188" xlink:href="#DejaVuSans-45"/>
       <use x="290.576172" xlink:href="#DejaVuSans-49"/>
       <use x="354.199219" xlink:href="#DejaVuSans-49"/>
      </g>
     </g>
    </g>
   </g>
   <g id="matplotlib.axis_2">
    <g id="ytick_1">
     <g id="line2d_8">
      <defs>
       <path d="M 0 0 
L -3.5 0 
" id="m6b791c240a" style="stroke:#000000;stroke-width:0.8;"/>
      </defs>
      <g>
       <use style="stroke:#000000;stroke-width:0.8;" x="43.3" xlink:href="#m6b791c240a" y="387.272727"/>
      </g>
     </g>
     <g id="text_8">
      <!-- 0 -->
      <g transform="translate(29.9375 391.071946)scale(0.1 -0.1)">
       <use xlink:href="#DejaVuSans-48"/>
      </g>
     </g>
    </g>
    <g id="ytick_2">
     <g id="line2d_9">
      <g>
       <use style="stroke:#000000;stroke-width:0.8;" x="43.3" xlink:href="#m6b791c240a" y="313.993096"/>
      </g>
     </g>
     <g id="text_9">
      <!-- 2000 -->
      <g transform="translate(10.85 317.792315)scale(0.1 -0.1)">
       <use xlink:href="#DejaVuSans-50"/>
       <use x="63.623047" xlink:href="#DejaVuSans-48"/>
       <use x="127.246094" xlink:href="#DejaVuSans-48"/>
       <use x="190.869141" xlink:href="#DejaVuSans-48"/>
      </g>
     </g>
    </g>
    <g id="ytick_3">
     <g id="line2d_10">
      <g>
       <use style="stroke:#000000;stroke-width:0.8;" x="43.3" xlink:href="#m6b791c240a" y="240.713465"/>
      </g>
     </g>
     <g id="text_10">
      <!-- 4000 -->
      <defs>
       <path d="M 37.796875 64.3125 
L 12.890625 25.390625 
L 37.796875 25.390625 
z
M 35.203125 72.90625 
L 47.609375 72.90625 
L 47.609375 25.390625 
L 58.015625 25.390625 
L 58.015625 17.1875 
L 47.609375 17.1875 
L 47.609375 0 
L 37.796875 0 
L 37.796875 17.1875 
L 4.890625 17.1875 
L 4.890625 26.703125 
z
" id="DejaVuSans-52"/>
      </defs>
      <g transform="translate(10.85 244.512684)scale(0.1 -0.1)">
       <use xlink:href="#DejaVuSans-52"/>
       <use x="63.623047" xlink:href="#DejaVuSans-48"/>
       <use x="127.246094" xlink:href="#DejaVuSans-48"/>
       <use x="190.869141" xlink:href="#DejaVuSans-48"/>
      </g>
     </g>
    </g>
    <g id="ytick_4">
     <g id="line2d_11">
      <g>
       <use style="stroke:#000000;stroke-width:0.8;" x="43.3" xlink:href="#m6b791c240a" y="167.433834"/>
      </g>
     </g>
     <g id="text_11">
      <!-- 6000 -->
      <defs>
       <path d="M 33.015625 40.375 
Q 26.375 40.375 22.484375 35.828125 
Q 18.609375 31.296875 18.609375 23.390625 
Q 18.609375 15.53125 22.484375 10.953125 
Q 26.375 6.390625 33.015625 6.390625 
Q 39.65625 6.390625 43.53125 10.953125 
Q 47.40625 15.53125 47.40625 23.390625 
Q 47.40625 31.296875 43.53125 35.828125 
Q 39.65625 40.375 33.015625 40.375 
z
M 52.59375 71.296875 
L 52.59375 62.3125 
Q 48.875 64.0625 45.09375 64.984375 
Q 41.3125 65.921875 37.59375 65.921875 
Q 27.828125 65.921875 22.671875 59.328125 
Q 17.53125 52.734375 16.796875 39.40625 
Q 19.671875 43.65625 24.015625 45.921875 
Q 28.375 48.1875 33.59375 48.1875 
Q 44.578125 48.1875 50.953125 41.515625 
Q 57.328125 34.859375 57.328125 23.390625 
Q 57.328125 12.15625 50.6875 5.359375 
Q 44.046875 -1.421875 33.015625 -1.421875 
Q 20.359375 -1.421875 13.671875 8.265625 
Q 6.984375 17.96875 6.984375 36.375 
Q 6.984375 53.65625 15.1875 63.9375 
Q 23.390625 74.21875 37.203125 74.21875 
Q 40.921875 74.21875 44.703125 73.484375 
Q 48.484375 72.75 52.59375 71.296875 
z
" id="DejaVuSans-54"/>
      </defs>
      <g transform="translate(10.85 171.233053)scale(0.1 -0.1)">
       <use xlink:href="#DejaVuSans-54"/>
       <use x="63.623047" xlink:href="#DejaVuSans-48"/>
       <use x="127.246094" xlink:href="#DejaVuSans-48"/>
       <use x="190.869141" xlink:href="#DejaVuSans-48"/>
      </g>
     </g>
    </g>
    <g id="ytick_5">
     <g id="line2d_12">
      <g>
       <use style="stroke:#000000;stroke-width:0.8;" x="43.3" xlink:href="#m6b791c240a" y="94.154203"/>
      </g>
     </g>
     <g id="text_12">
      <!-- 8000 -->
      <defs>
       <path d="M 31.78125 34.625 
Q 24.75 34.625 20.71875 30.859375 
Q 16.703125 27.09375 16.703125 20.515625 
Q 16.703125 13.921875 20.71875 10.15625 
Q 24.75 6.390625 31.78125 6.390625 
Q 38.8125 6.390625 42.859375 10.171875 
Q 46.921875 13.96875 46.921875 20.515625 
Q 46.921875 27.09375 42.890625 30.859375 
Q 38.875 34.625 31.78125 34.625 
z
M 21.921875 38.8125 
Q 15.578125 40.375 12.03125 44.71875 
Q 8.5 49.078125 8.5 55.328125 
Q 8.5 64.0625 14.71875 69.140625 
Q 20.953125 74.21875 31.78125 74.21875 
Q 42.671875 74.21875 48.875 69.140625 
Q 55.078125 64.0625 55.078125 55.328125 
Q 55.078125 49.078125 51.53125 44.71875 
Q 48 40.375 41.703125 38.8125 
Q 48.828125 37.15625 52.796875 32.3125 
Q 56.78125 27.484375 56.78125 20.515625 
Q 56.78125 9.90625 50.3125 4.234375 
Q 43.84375 -1.421875 31.78125 -1.421875 
Q 19.734375 -1.421875 13.25 4.234375 
Q 6.78125 9.90625 6.78125 20.515625 
Q 6.78125 27.484375 10.78125 32.3125 
Q 14.796875 37.15625 21.921875 38.8125 
z
M 18.3125 54.390625 
Q 18.3125 48.734375 21.84375 45.5625 
Q 25.390625 42.390625 31.78125 42.390625 
Q 38.140625 42.390625 41.71875 45.5625 
Q 45.3125 48.734375 45.3125 54.390625 
Q 45.3125 60.0625 41.71875 63.234375 
Q 38.140625 66.40625 31.78125 66.40625 
Q 25.390625 66.40625 21.84375 63.234375 
Q 18.3125 60.0625 18.3125 54.390625 
z
" id="DejaVuSans-56"/>
      </defs>
      <g transform="translate(10.85 97.953422)scale(0.1 -0.1)">
       <use xlink:href="#DejaVuSans-56"/>
       <use x="63.623047" xlink:href="#DejaVuSans-48"/>
       <use x="127.246094" xlink:href="#DejaVuSans-48"/>
       <use x="190.869141" xlink:href="#DejaVuSans-48"/>
      </g>
     </g>
    </g>
   </g>
   <g id="patch_3">
    <path d="M 43.3 404.2 
L 43.3 31.8 
" style="fill:none;stroke:#000000;stroke-linecap:square;stroke-linejoin:miter;stroke-width:0.8;"/>
   </g>
   <g id="patch_4">
    <path d="M 565.2 404.2 
L 565.2 31.8 
" style="fill:none;stroke:#000000;stroke-linecap:square;stroke-linejoin:miter;stroke-width:0.8;"/>
   </g>
   <g id="patch_5">
    <path d="M 43.3 404.2 
L 565.2 404.2 
" style="fill:none;stroke:#000000;stroke-linecap:square;stroke-linejoin:miter;stroke-width:0.8;"/>
   </g>
   <g id="patch_6">
    <path d="M 43.3 31.8 
L 565.2 31.8 
" style="fill:none;stroke:#000000;stroke-linecap:square;stroke-linejoin:miter;stroke-width:0.8;"/>
   </g>
   <g id="text_13">
    <!-- 4062.T - 35% -->
    <defs>
     <path d="M 36.8125 57.421875 
L 16.21875 26.90625 
L 36.8125 26.90625 
z
M 33.6875 72.90625 
L 54.59375 72.90625 
L 54.59375 26.90625 
L 64.984375 26.90625 
L 64.984375 13.28125 
L 54.59375 13.28125 
L 54.59375 0 
L 36.8125 0 
L 36.8125 13.28125 
L 4.5 13.28125 
L 4.5 29.390625 
z
" id="DejaVuSans-Bold-52"/>
     <path d="M 46 36.53125 
Q 46 50.203125 43.4375 55.78125 
Q 40.875 61.375 34.8125 61.375 
Q 28.765625 61.375 26.171875 55.78125 
Q 23.578125 50.203125 23.578125 36.53125 
Q 23.578125 22.703125 26.171875 17.03125 
Q 28.765625 11.375 34.8125 11.375 
Q 40.828125 11.375 43.40625 17.03125 
Q 46 22.703125 46 36.53125 
z
M 64.796875 36.375 
Q 64.796875 18.265625 56.984375 8.421875 
Q 49.171875 -1.421875 34.8125 -1.421875 
Q 20.40625 -1.421875 12.59375 8.421875 
Q 4.78125 18.265625 4.78125 36.375 
Q 4.78125 54.546875 12.59375 64.375 
Q 20.40625 74.21875 34.8125 74.21875 
Q 49.171875 74.21875 56.984375 64.375 
Q 64.796875 54.546875 64.796875 36.375 
z
" id="DejaVuSans-Bold-48"/>
     <path d="M 36.1875 35.984375 
Q 31.25 35.984375 28.78125 32.78125 
Q 26.3125 29.59375 26.3125 23.1875 
Q 26.3125 16.796875 28.78125 13.59375 
Q 31.25 10.40625 36.1875 10.40625 
Q 41.15625 10.40625 43.625 13.59375 
Q 46.09375 16.796875 46.09375 23.1875 
Q 46.09375 29.59375 43.625 32.78125 
Q 41.15625 35.984375 36.1875 35.984375 
z
M 59.421875 71 
L 59.421875 57.515625 
Q 54.78125 59.71875 50.671875 60.765625 
Q 46.578125 61.8125 42.671875 61.8125 
Q 34.28125 61.8125 29.59375 57.140625 
Q 24.90625 52.484375 24.125 43.3125 
Q 27.34375 45.703125 31.09375 46.890625 
Q 34.859375 48.09375 39.3125 48.09375 
Q 50.484375 48.09375 57.34375 41.546875 
Q 64.203125 35.015625 64.203125 24.421875 
Q 64.203125 12.703125 56.53125 5.640625 
Q 48.875 -1.421875 35.984375 -1.421875 
Q 21.78125 -1.421875 13.984375 8.171875 
Q 6.203125 17.78125 6.203125 35.40625 
Q 6.203125 53.46875 15.3125 63.796875 
Q 24.421875 74.125 40.28125 74.125 
Q 45.3125 74.125 50.046875 73.34375 
Q 54.78125 72.5625 59.421875 71 
z
" id="DejaVuSans-Bold-54"/>
     <path d="M 28.8125 13.8125 
L 60.890625 13.8125 
L 60.890625 0 
L 7.90625 0 
L 7.90625 13.8125 
L 34.515625 37.3125 
Q 38.09375 40.53125 39.796875 43.609375 
Q 41.5 46.6875 41.5 50 
Q 41.5 55.125 38.0625 58.25 
Q 34.625 61.375 28.90625 61.375 
Q 24.515625 61.375 19.28125 59.5 
Q 14.0625 57.625 8.109375 53.90625 
L 8.109375 69.921875 
Q 14.453125 72.015625 20.65625 73.109375 
Q 26.859375 74.21875 32.8125 74.21875 
Q 45.90625 74.21875 53.15625 68.453125 
Q 60.40625 62.703125 60.40625 52.390625 
Q 60.40625 46.4375 57.328125 41.28125 
Q 54.25 36.140625 44.390625 27.484375 
z
" id="DejaVuSans-Bold-50"/>
     <path d="M 10.203125 18.890625 
L 27.78125 18.890625 
L 27.78125 0 
L 10.203125 0 
z
" id="DejaVuSans-Bold-46"/>
     <path d="M 0.484375 72.90625 
L 67.671875 72.90625 
L 67.671875 58.6875 
L 43.5 58.6875 
L 43.5 0 
L 24.703125 0 
L 24.703125 58.6875 
L 0.484375 58.6875 
z
" id="DejaVuSans-Bold-84"/>
     <path id="DejaVuSans-Bold-32"/>
     <path d="M 5.421875 35.890625 
L 36.078125 35.890625 
L 36.078125 21.6875 
L 5.421875 21.6875 
z
" id="DejaVuSans-Bold-45"/>
     <path d="M 46.578125 39.3125 
Q 53.953125 37.40625 57.78125 32.6875 
Q 61.625 27.984375 61.625 20.703125 
Q 61.625 9.859375 53.3125 4.21875 
Q 45.015625 -1.421875 29.109375 -1.421875 
Q 23.484375 -1.421875 17.84375 -0.515625 
Q 12.203125 0.390625 6.6875 2.203125 
L 6.6875 16.703125 
Q 11.96875 14.0625 17.15625 12.71875 
Q 22.359375 11.375 27.390625 11.375 
Q 34.859375 11.375 38.84375 13.953125 
Q 42.828125 16.546875 42.828125 21.390625 
Q 42.828125 26.375 38.75 28.9375 
Q 34.671875 31.5 26.703125 31.5 
L 19.1875 31.5 
L 19.1875 43.609375 
L 27.09375 43.609375 
Q 34.1875 43.609375 37.640625 45.828125 
Q 41.109375 48.046875 41.109375 52.59375 
Q 41.109375 56.78125 37.734375 59.078125 
Q 34.375 61.375 28.21875 61.375 
Q 23.6875 61.375 19.046875 60.34375 
Q 14.40625 59.328125 9.8125 57.328125 
L 9.8125 71.09375 
Q 15.375 72.65625 20.84375 73.4375 
Q 26.3125 74.21875 31.59375 74.21875 
Q 45.796875 74.21875 52.84375 69.546875 
Q 59.90625 64.890625 59.90625 55.515625 
Q 59.90625 49.125 56.53125 45.046875 
Q 53.171875 40.96875 46.578125 39.3125 
z
" id="DejaVuSans-Bold-51"/>
     <path d="M 10.59375 72.90625 
L 57.328125 72.90625 
L 57.328125 59.078125 
L 25.59375 59.078125 
L 25.59375 47.796875 
Q 27.734375 48.390625 29.90625 48.703125 
Q 32.078125 49.03125 34.421875 49.03125 
Q 47.75 49.03125 55.171875 42.359375 
Q 62.59375 35.6875 62.59375 23.78125 
Q 62.59375 11.96875 54.515625 5.265625 
Q 46.4375 -1.421875 32.078125 -1.421875 
Q 25.875 -1.421875 19.796875 -0.21875 
Q 13.71875 0.984375 7.71875 3.421875 
L 7.71875 18.21875 
Q 13.671875 14.796875 19.015625 13.078125 
Q 24.359375 11.375 29.109375 11.375 
Q 35.9375 11.375 39.859375 14.71875 
Q 43.796875 18.0625 43.796875 23.78125 
Q 43.796875 29.546875 39.859375 32.859375 
Q 35.9375 36.1875 29.109375 36.1875 
Q 25.046875 36.1875 20.453125 35.125 
Q 15.875 34.078125 10.59375 31.890625 
z
" id="DejaVuSans-Bold-53"/>
     <path d="M 77.484375 30.078125 
Q 74.03125 30.078125 72.125 27.078125 
Q 70.21875 24.078125 70.21875 18.5 
Q 70.21875 12.890625 72.09375 9.890625 
Q 73.96875 6.890625 77.484375 6.890625 
Q 81 6.890625 82.859375 9.890625 
Q 84.71875 12.890625 84.71875 18.5 
Q 84.71875 24.078125 82.828125 27.078125 
Q 80.953125 30.078125 77.484375 30.078125 
z
M 77.484375 38.28125 
Q 86.578125 38.28125 91.796875 33 
Q 97.015625 27.734375 97.015625 18.5 
Q 97.015625 9.28125 91.796875 3.921875 
Q 86.578125 -1.421875 77.484375 -1.421875 
Q 68.40625 -1.421875 63.15625 3.921875 
Q 57.90625 9.28125 57.90625 18.5 
Q 57.90625 27.6875 63.15625 32.984375 
Q 68.40625 38.28125 77.484375 38.28125 
z
M 32.71875 -1.421875 
L 21.921875 -1.421875 
L 67.484375 74.21875 
L 78.328125 74.21875 
z
M 22.703125 74.21875 
Q 31.78125 74.21875 36.984375 68.921875 
Q 42.1875 63.625 42.1875 54.390625 
Q 42.1875 45.171875 36.984375 39.84375 
Q 31.78125 34.515625 22.703125 34.515625 
Q 13.625 34.515625 8.421875 39.84375 
Q 3.21875 45.171875 3.21875 54.390625 
Q 3.21875 63.625 8.421875 68.921875 
Q 13.625 74.21875 22.703125 74.21875 
z
M 22.703125 66.015625 
Q 19.1875 66.015625 17.28125 62.984375 
Q 15.375 59.96875 15.375 54.390625 
Q 15.375 48.78125 17.28125 45.71875 
Q 19.1875 42.671875 22.703125 42.671875 
Q 26.21875 42.671875 28.09375 45.71875 
Q 29.984375 48.78125 29.984375 54.390625 
Q 29.984375 59.96875 28.078125 62.984375 
Q 26.171875 66.015625 22.703125 66.015625 
z
" id="DejaVuSans-Bold-37"/>
    </defs>
    <g transform="translate(43.3 25.8)scale(0.2 -0.2)">
     <use xlink:href="#DejaVuSans-Bold-52"/>
     <use x="69.580078" xlink:href="#DejaVuSans-Bold-48"/>
     <use x="139.160156" xlink:href="#DejaVuSans-Bold-54"/>
     <use x="208.740234" xlink:href="#DejaVuSans-Bold-50"/>
     <use x="278.320312" xlink:href="#DejaVuSans-Bold-46"/>
     <use x="316.308594" xlink:href="#DejaVuSans-Bold-84"/>
     <use x="384.521484" xlink:href="#DejaVuSans-Bold-32"/>
     <use x="419.335938" xlink:href="#DejaVuSans-Bold-45"/>
     <use x="460.839844" xlink:href="#DejaVuSans-Bold-32"/>
     <use x="495.654297" xlink:href="#DejaVuSans-Bold-51"/>
     <use x="565.234375" xlink:href="#DejaVuSans-Bold-53"/>
     <use x="634.814453" xlink:href="#DejaVuSans-Bold-37"/>
    </g>
   </g>
  </g>
 </g>
 <defs>
  <clipPath id="p6f09b90b0d">
   <rect height="372.4" width="521.9" x="43.3" y="31.8"/>
  </clipPath>
 </defs>
</svg>
