<?xml version="1.0" encoding="utf-8" standalone="no"?>
<!DOCTYPE svg PUBLIC "-//W3C//DTD SVG 1.1//EN"
  "http://www.w3.org/Graphics/SVG/1.1/DTD/svg11.dtd">
<!-- Created with matplotlib (https://matplotlib.org/) -->
<svg height="432pt" version="1.1" viewBox="0 0 576 432" width="576pt" xmlns="http://www.w3.org/2000/svg" xmlns:xlink="http://www.w3.org/1999/xlink">
 <defs>
  <style type="text/css">
*{stroke-linecap:butt;stroke-linejoin:round;}
  </style>
 </defs>
 <g id="figure_1">
  <g id="patch_1">
   <path d="M 0 432 
L 576 432 
L 576 0 
L 0 0 
z
" style="fill:#ffffff;"/>
  </g>
  <g id="axes_1">
   <g id="patch_2">
    <path d="M 43.3 404.2 
L 565.2 404.2 
L 565.2 31.8 
L 43.3 31.8 
z
" style="fill:#ffffff;"/>
   </g>
   <g id="PolyCollection_1">
    <defs>
     <path d="M 67.022727 -44.727273 
L 67.022727 -288.218006 
L 69.622478 -282.650632 
L 73.522105 -273.972079 
L 74.82198 -276.592019 
L 76.121856 -273.808332 
L 77.421731 -269.878421 
L 78.721606 -296.487194 
L 82.621233 -313.680554 
L 83.921108 -325.55216 
L 85.220984 -345.201715 
L 86.520859 -322.6866 
L 87.820735 -309.996263 
L 91.720361 -303.037045 
L 93.020237 -303.855777 
L 95.619988 -316.95548 
L 96.919863 -319.82104 
L 100.819489 -319.82104 
L 102.119365 -317.774211 
L 103.41924 -311.22436 
L 104.719116 -320.639771 
L 106.018991 -308.768165 
L 109.918618 -308.3588 
L 111.218493 -290.346708 
L 112.518369 -290.756073 
L 113.818244 -296.077828 
L 115.11812 -306.721337 
L 119.017746 -304.265142 
L 120.317621 -306.311971 
L 121.617497 -314.908651 
L 122.917372 -304.674508 
L 124.217248 -291.165439 
L 128.116874 -289.609849 
L 129.41675 -274.872683 
L 130.716625 -273.972079 
L 132.016501 -279.048214 
L 133.316376 -272.17087 
L 137.216002 -277.90199 
L 138.515878 -273.972079 
L 139.815753 -273.071474 
L 141.115629 -274.954556 
L 142.415504 -284.451841 
L 148.914882 -270.942772 
L 150.214757 -277.410751 
L 151.514633 -285.761812 
L 156.714134 -284.451841 
L 158.01401 -294.030999 
L 159.313885 -293.212268 
L 160.613761 -288.299879 
L 164.513387 -289.118611 
L 165.813263 -287.563021 
L 167.113138 -302.627679 
L 168.413014 -299.352754 
L 169.712889 -294.030999 
L 173.612516 -320.230406 
L 174.912391 -330.464549 
L 176.212267 -320.230406 
L 177.512142 -319.002308 
L 178.812017 -316.136748 
L 182.711644 -323.914697 
L 184.011519 -322.277234 
L 185.311395 -334.967572 
L 186.61127 -341.926789 
L 187.911146 -345.201715 
L 191.810772 -334.14884 
L 193.110648 -334.558206 
L 194.410523 -345.611081 
L 195.710399 -349.704738 
L 197.010274 -352.160932 
L 200.9099 -343.564252 
L 202.209776 -349.704738 
L 203.509651 -337.833132 
L 204.809527 -350.523469 
L 206.109402 -337.423766 
L 210.009029 -320.639771 
L 211.308904 -312.452457 
L 212.60878 -302.218314 
L 215.208531 -305.083874 
L 219.108157 -295.668462 
L 220.408032 -305.902605 
L 221.707908 -305.902605 
L 223.007783 -307.130702 
L 224.307659 -314.908651 
L 228.207285 -323.505331 
L 229.507161 -335.376937 
L 230.807036 -323.505331 
L 232.106912 -326.370892 
L 233.406787 -319.002308 
L 237.306413 -328.827086 
L 238.606289 -339.470595 
L 239.906164 -335.376937 
L 241.20604 -350.932835 
L 242.505915 -383.272727 
L 246.405542 -348.886006 
L 249.005293 -351.751566 
L 250.305168 -352.570298 
L 251.605044 -345.611081 
L 255.50467 -337.0144 
L 256.804545 -330.464549 
L 258.104421 -331.28328 
L 259.404296 -321.867869 
L 260.704172 -320.639771 
L 264.603798 -341.926789 
L 265.903674 -340.698692 
L 267.203549 -337.0144 
L 268.503425 -328.008354 
L 269.8033 -327.189623 
L 273.702927 -322.277234 
L 275.002802 -322.277234 
L 276.302677 -317.364846 
L 277.602553 -323.914697 
L 278.902428 -336.605035 
L 282.802055 -350.932835 
L 284.10193 -359.120149 
L 285.401806 -356.254589 
L 286.701681 -362.395075 
L 288.001557 -362.395075 
L 291.901183 -360.757612 
L 293.201059 -359.938881 
L 294.500934 -346.020446 
L 295.800809 -347.248543 
L 297.100685 -361.576344 
L 301.000311 -355.845224 
L 302.300187 -360.348247 
L 310.09944 -361.166978 
L 311.399315 -362.804441 
L 312.699191 -358.301418 
L 313.999066 -365.670001 
L 315.298941 -368.535561 
L 319.198568 -363.213807 
L 320.498443 -346.020446 
L 321.798319 -355.026492 
L 323.098194 -337.0144 
L 324.39807 -345.201715 
L 328.297696 -339.470595 
L 329.597572 -339.061229 
L 330.897447 -323.095966 
L 332.197323 -318.592943 
L 333.497198 -314.499285 
L 337.396824 -306.721337 
L 338.6967 -316.546114 
L 339.996575 -311.22436 
L 341.296451 -305.49324 
L 342.596326 -322.277234 
L 346.495953 -325.55216 
L 347.795828 -330.055183 
L 349.095704 -322.6866 
L 350.395579 -308.3588 
L 351.695455 -305.083874 
L 355.595081 -320.639771 
L 356.894956 -322.277234 
L 358.194832 -316.95548 
L 359.494707 -323.095966 
L 360.794583 -337.423766 
L 364.694209 -340.289326 
L 365.994085 -334.967572 
L 367.29396 -344.382983 
L 368.593836 -326.370892 
L 369.893711 -320.639771 
L 373.793337 -307.540068 
L 375.093213 -301.808948 
L 376.393088 -301.808948 
L 377.692964 -310.814994 
L 378.992839 -311.22436 
L 382.892466 -305.902605 
L 384.192341 -306.721337 
L 385.492217 -302.218314 
L 386.792092 -295.668462 
L 388.091968 -294.030999 
L 391.991594 -295.668462 
L 393.291469 -302.627679 
L 394.591345 -302.218314 
L 395.89122 -316.546114 
L 397.191096 -308.3588 
L 402.390598 -300.990217 
L 403.690473 -308.768165 
L 404.990349 -298.124656 
L 406.290224 -298.124656 
L 410.189851 -302.218314 
L 411.489726 -299.762119 
L 412.789601 -307.130702 
L 414.089477 -306.311971 
L 415.389352 -299.352754 
L 419.288979 -300.990217 
L 420.588854 -305.902605 
L 421.88873 -301.808948 
L 423.188605 -294.030999 
L 424.488481 -301.808948 
L 428.388107 -303.855777 
L 429.687983 -303.855777 
L 430.987858 -309.586897 
L 432.287733 -313.680554 
L 437.487235 -312.452457 
L 438.787111 -280.276311 
L 440.086986 -275.445795 
L 441.386862 -277.247005 
L 442.686737 -271.106519 
L 446.586364 -284.369968 
L 447.886239 -274.545191 
L 449.186115 -280.358184 
L 450.48599 -272.416489 
L 451.785866 -268.077212 
L 455.685492 -270.779026 
L 456.985367 -285.925558 
L 458.285243 -287.481148 
L 459.585118 -293.621634 
L 460.884994 -288.05426 
L 464.78462 -289.937342 
L 466.084496 -299.762119 
L 467.384371 -308.3588 
L 468.684247 -305.902605 
L 469.984122 -297.305925 
L 473.883748 -294.440365 
L 475.183624 -294.440365 
L 476.483499 -289.446103 
L 477.783375 -287.726767 
L 479.08325 -288.545499 
L 484.282752 -294.030999 
L 485.582628 -291.984171 
L 486.882503 -272.334616 
L 488.182379 -276.3464 
L 492.082005 -280.194438 
L 493.38188 -280.194438 
L 494.681756 -282.896252 
L 495.981631 -282.568759 
L 497.281507 -288.05426 
L 501.181133 -288.136133 
L 502.481009 -285.843685 
L 503.780884 -281.913774 
L 505.08076 -295.668462 
L 506.380635 -296.896559 
L 511.580137 -307.130702 
L 512.880012 -300.171485 
L 514.179888 -307.540068 
L 515.479763 -290.346708 
L 519.37939 -275.609542 
L 520.679265 -279.048214 
L 521.979141 -275.03643 
L 523.279016 -278.229482 
L 524.578892 -276.018907 
L 528.478518 -266.439749 
L 529.778394 -265.293525 
L 531.078269 -256.860591 
L 532.378144 -250.474486 
L 533.67802 -251.293218 
L 537.577646 -249.655755 
L 538.877522 -248.591404 
L 540.177397 -255.223129 
L 541.477273 -271.597758 
L 541.477273 -44.727273 
L 541.477273 -44.727273 
L 540.177397 -44.727273 
L 538.877522 -44.727273 
L 537.577646 -44.727273 
L 533.67802 -44.727273 
L 532.378144 -44.727273 
L 531.078269 -44.727273 
L 529.778394 -44.727273 
L 528.478518 -44.727273 
L 524.578892 -44.727273 
L 523.279016 -44.727273 
L 521.979141 -44.727273 
L 520.679265 -44.727273 
L 519.37939 -44.727273 
L 515.479763 -44.727273 
L 514.179888 -44.727273 
L 512.880012 -44.727273 
L 511.580137 -44.727273 
L 506.380635 -44.727273 
L 505.08076 -44.727273 
L 503.780884 -44.727273 
L 502.481009 -44.727273 
L 501.181133 -44.727273 
L 497.281507 -44.727273 
L 495.981631 -44.727273 
L 494.681756 -44.727273 
L 493.38188 -44.727273 
L 492.082005 -44.727273 
L 488.182379 -44.727273 
L 486.882503 -44.727273 
L 485.582628 -44.727273 
L 484.282752 -44.727273 
L 479.08325 -44.727273 
L 477.783375 -44.727273 
L 476.483499 -44.727273 
L 475.183624 -44.727273 
L 473.883748 -44.727273 
L 469.984122 -44.727273 
L 468.684247 -44.727273 
L 467.384371 -44.727273 
L 466.084496 -44.727273 
L 464.78462 -44.727273 
L 460.884994 -44.727273 
L 459.585118 -44.727273 
L 458.285243 -44.727273 
L 456.985367 -44.727273 
L 455.685492 -44.727273 
L 451.785866 -44.727273 
L 450.48599 -44.727273 
L 449.186115 -44.727273 
L 447.886239 -44.727273 
L 446.586364 -44.727273 
L 442.686737 -44.727273 
L 441.386862 -44.727273 
L 440.086986 -44.727273 
L 438.787111 -44.727273 
L 437.487235 -44.727273 
L 432.287733 -44.727273 
L 430.987858 -44.727273 
L 429.687983 -44.727273 
L 428.388107 -44.727273 
L 424.488481 -44.727273 
L 423.188605 -44.727273 
L 421.88873 -44.727273 
L 420.588854 -44.727273 
L 419.288979 -44.727273 
L 415.389352 -44.727273 
L 414.089477 -44.727273 
L 412.789601 -44.727273 
L 411.489726 -44.727273 
L 410.189851 -44.727273 
L 406.290224 -44.727273 
L 404.990349 -44.727273 
L 403.690473 -44.727273 
L 402.390598 -44.727273 
L 397.191096 -44.727273 
L 395.89122 -44.727273 
L 394.591345 -44.727273 
L 393.291469 -44.727273 
L 391.991594 -44.727273 
L 388.091968 -44.727273 
L 386.792092 -44.727273 
L 385.492217 -44.727273 
L 384.192341 -44.727273 
L 382.892466 -44.727273 
L 378.992839 -44.727273 
L 377.692964 -44.727273 
L 376.393088 -44.727273 
L 375.093213 -44.727273 
L 373.793337 -44.727273 
L 369.893711 -44.727273 
L 368.593836 -44.727273 
L 367.29396 -44.727273 
L 365.994085 -44.727273 
L 364.694209 -44.727273 
L 360.794583 -44.727273 
L 359.494707 -44.727273 
L 358.194832 -44.727273 
L 356.894956 -44.727273 
L 355.595081 -44.727273 
L 351.695455 -44.727273 
L 350.395579 -44.727273 
L 349.095704 -44.727273 
L 347.795828 -44.727273 
L 346.495953 -44.727273 
L 342.596326 -44.727273 
L 341.296451 -44.727273 
L 339.996575 -44.727273 
L 338.6967 -44.727273 
L 337.396824 -44.727273 
L 333.497198 -44.727273 
L 332.197323 -44.727273 
L 330.897447 -44.727273 
L 329.597572 -44.727273 
L 328.297696 -44.727273 
L 324.39807 -44.727273 
L 323.098194 -44.727273 
L 321.798319 -44.727273 
L 320.498443 -44.727273 
L 319.198568 -44.727273 
L 315.298941 -44.727273 
L 313.999066 -44.727273 
L 312.699191 -44.727273 
L 311.399315 -44.727273 
L 310.09944 -44.727273 
L 302.300187 -44.727273 
L 301.000311 -44.727273 
L 297.100685 -44.727273 
L 295.800809 -44.727273 
L 294.500934 -44.727273 
L 293.201059 -44.727273 
L 291.901183 -44.727273 
L 288.001557 -44.727273 
L 286.701681 -44.727273 
L 285.401806 -44.727273 
L 284.10193 -44.727273 
L 282.802055 -44.727273 
L 278.902428 -44.727273 
L 277.602553 -44.727273 
L 276.302677 -44.727273 
L 275.002802 -44.727273 
L 273.702927 -44.727273 
L 269.8033 -44.727273 
L 268.503425 -44.727273 
L 267.203549 -44.727273 
L 265.903674 -44.727273 
L 264.603798 -44.727273 
L 260.704172 -44.727273 
L 259.404296 -44.727273 
L 258.104421 -44.727273 
L 256.804545 -44.727273 
L 255.50467 -44.727273 
L 251.605044 -44.727273 
L 250.305168 -44.727273 
L 249.005293 -44.727273 
L 246.405542 -44.727273 
L 242.505915 -44.727273 
L 241.20604 -44.727273 
L 239.906164 -44.727273 
L 238.606289 -44.727273 
L 237.306413 -44.727273 
L 233.406787 -44.727273 
L 232.106912 -44.727273 
L 230.807036 -44.727273 
L 229.507161 -44.727273 
L 228.207285 -44.727273 
L 224.307659 -44.727273 
L 223.007783 -44.727273 
L 221.707908 -44.727273 
L 220.408032 -44.727273 
L 219.108157 -44.727273 
L 215.208531 -44.727273 
L 212.60878 -44.727273 
L 211.308904 -44.727273 
L 210.009029 -44.727273 
L 206.109402 -44.727273 
L 204.809527 -44.727273 
L 203.509651 -44.727273 
L 202.209776 -44.727273 
L 200.9099 -44.727273 
L 197.010274 -44.727273 
L 195.710399 -44.727273 
L 194.410523 -44.727273 
L 193.110648 -44.727273 
L 191.810772 -44.727273 
L 187.911146 -44.727273 
L 186.61127 -44.727273 
L 185.311395 -44.727273 
L 184.011519 -44.727273 
L 182.711644 -44.727273 
L 178.812017 -44.727273 
L 177.512142 -44.727273 
L 176.212267 -44.727273 
L 174.912391 -44.727273 
L 173.612516 -44.727273 
L 169.712889 -44.727273 
L 168.413014 -44.727273 
L 167.113138 -44.727273 
L 165.813263 -44.727273 
L 164.513387 -44.727273 
L 160.613761 -44.727273 
L 159.313885 -44.727273 
L 158.01401 -44.727273 
L 156.714134 -44.727273 
L 151.514633 -44.727273 
L 150.214757 -44.727273 
L 148.914882 -44.727273 
L 142.415504 -44.727273 
L 141.115629 -44.727273 
L 139.815753 -44.727273 
L 138.515878 -44.727273 
L 137.216002 -44.727273 
L 133.316376 -44.727273 
L 132.016501 -44.727273 
L 130.716625 -44.727273 
L 129.41675 -44.727273 
L 128.116874 -44.727273 
L 124.217248 -44.727273 
L 122.917372 -44.727273 
L 121.617497 -44.727273 
L 120.317621 -44.727273 
L 119.017746 -44.727273 
L 115.11812 -44.727273 
L 113.818244 -44.727273 
L 112.518369 -44.727273 
L 111.218493 -44.727273 
L 109.918618 -44.727273 
L 106.018991 -44.727273 
L 104.719116 -44.727273 
L 103.41924 -44.727273 
L 102.119365 -44.727273 
L 100.819489 -44.727273 
L 96.919863 -44.727273 
L 95.619988 -44.727273 
L 93.020237 -44.727273 
L 91.720361 -44.727273 
L 87.820735 -44.727273 
L 86.520859 -44.727273 
L 85.220984 -44.727273 
L 83.921108 -44.727273 
L 82.621233 -44.727273 
L 78.721606 -44.727273 
L 77.421731 -44.727273 
L 76.121856 -44.727273 
L 74.82198 -44.727273 
L 73.522105 -44.727273 
L 69.622478 -44.727273 
L 67.022727 -44.727273 
z
" id="md86e608ad8" style="stroke:#f5f6f8;"/>
    </defs>
    <g clip-path="url(#p674d565144)">
     <use style="fill:#f5f6f8;stroke:#f5f6f8;" x="0" xlink:href="#md86e608ad8" y="432"/>
    </g>
   </g>
   <g id="matplotlib.axis_1">
    <g id="xtick_1">
     <g id="line2d_1">
      <defs>
       <path d="M 0 0 
L 0 3.5 
" id="mb9d48efa92" style="stroke:#000000;stroke-width:0.8;"/>
      </defs>
      <g>
       <use style="stroke:#000000;stroke-width:0.8;" x="65.722852" xlink:href="#mb9d48efa92" y="404.2"/>
      </g>
     </g>
     <g id="text_1">
      <!-- 2022-11 -->
      <defs>
       <path d="M 19.1875 8.296875 
L 53.609375 8.296875 
L 53.609375 0 
L 7.328125 0 
L 7.328125 8.296875 
Q 12.9375 14.109375 22.625 23.890625 
Q 32.328125 33.6875 34.8125 36.53125 
Q 39.546875 41.84375 41.421875 45.53125 
Q 43.3125 49.21875 43.3125 52.78125 
Q 43.3125 58.59375 39.234375 62.25 
Q 35.15625 65.921875 28.609375 65.921875 
Q 23.96875 65.921875 18.8125 64.3125 
Q 13.671875 62.703125 7.8125 59.421875 
L 7.8125 69.390625 
Q 13.765625 71.78125 18.9375 73 
Q 24.125 74.21875 28.421875 74.21875 
Q 39.75 74.21875 46.484375 68.546875 
Q 53.21875 62.890625 53.21875 53.421875 
Q 53.21875 48.921875 51.53125 44.890625 
Q 49.859375 40.875 45.40625 35.40625 
Q 44.1875 33.984375 37.640625 27.21875 
Q 31.109375 20.453125 19.1875 8.296875 
z
" id="DejaVuSans-50"/>
       <path d="M 31.78125 66.40625 
Q 24.171875 66.40625 20.328125 58.90625 
Q 16.5 51.421875 16.5 36.375 
Q 16.5 21.390625 20.328125 13.890625 
Q 24.171875 6.390625 31.78125 6.390625 
Q 39.453125 6.390625 43.28125 13.890625 
Q 47.125 21.390625 47.125 36.375 
Q 47.125 51.421875 43.28125 58.90625 
Q 39.453125 66.40625 31.78125 66.40625 
z
M 31.78125 74.21875 
Q 44.046875 74.21875 50.515625 64.515625 
Q 56.984375 54.828125 56.984375 36.375 
Q 56.984375 17.96875 50.515625 8.265625 
Q 44.046875 -1.421875 31.78125 -1.421875 
Q 19.53125 -1.421875 13.0625 8.265625 
Q 6.59375 17.96875 6.59375 36.375 
Q 6.59375 54.828125 13.0625 64.515625 
Q 19.53125 74.21875 31.78125 74.21875 
z
" id="DejaVuSans-48"/>
       <path d="M 4.890625 31.390625 
L 31.203125 31.390625 
L 31.203125 23.390625 
L 4.890625 23.390625 
z
" id="DejaVuSans-45"/>
       <path d="M 12.40625 8.296875 
L 28.515625 8.296875 
L 28.515625 63.921875 
L 10.984375 60.40625 
L 10.984375 69.390625 
L 28.421875 72.90625 
L 38.28125 72.90625 
L 38.28125 8.296875 
L 54.390625 8.296875 
L 54.390625 0 
L 12.40625 0 
z
" id="DejaVuSans-49"/>
      </defs>
      <g transform="translate(44.831446 418.798437)scale(0.1 -0.1)">
       <use xlink:href="#DejaVuSans-50"/>
       <use x="63.623047" xlink:href="#DejaVuSans-48"/>
       <use x="127.246094" xlink:href="#DejaVuSans-50"/>
       <use x="190.869141" xlink:href="#DejaVuSans-50"/>
       <use x="254.492188" xlink:href="#DejaVuSans-45"/>
       <use x="290.576172" xlink:href="#DejaVuSans-49"/>
       <use x="354.199219" xlink:href="#DejaVuSans-49"/>
      </g>
     </g>
    </g>
    <g id="xtick_2">
     <g id="line2d_2">
      <g>
       <use style="stroke:#000000;stroke-width:0.8;" x="145.015255" xlink:href="#mb9d48efa92" y="404.2"/>
      </g>
     </g>
     <g id="text_2">
      <!-- 2023-01 -->
      <defs>
       <path d="M 40.578125 39.3125 
Q 47.65625 37.796875 51.625 33 
Q 55.609375 28.21875 55.609375 21.1875 
Q 55.609375 10.40625 48.1875 4.484375 
Q 40.765625 -1.421875 27.09375 -1.421875 
Q 22.515625 -1.421875 17.65625 -0.515625 
Q 12.796875 0.390625 7.625 2.203125 
L 7.625 11.71875 
Q 11.71875 9.328125 16.59375 8.109375 
Q 21.484375 6.890625 26.8125 6.890625 
Q 36.078125 6.890625 40.9375 10.546875 
Q 45.796875 14.203125 45.796875 21.1875 
Q 45.796875 27.640625 41.28125 31.265625 
Q 36.765625 34.90625 28.71875 34.90625 
L 20.21875 34.90625 
L 20.21875 43.015625 
L 29.109375 43.015625 
Q 36.375 43.015625 40.234375 45.921875 
Q 44.09375 48.828125 44.09375 54.296875 
Q 44.09375 59.90625 40.109375 62.90625 
Q 36.140625 65.921875 28.71875 65.921875 
Q 24.65625 65.921875 20.015625 65.03125 
Q 15.375 64.15625 9.8125 62.3125 
L 9.8125 71.09375 
Q 15.4375 72.65625 20.34375 73.4375 
Q 25.25 74.21875 29.59375 74.21875 
Q 40.828125 74.21875 47.359375 69.109375 
Q 53.90625 64.015625 53.90625 55.328125 
Q 53.90625 49.265625 50.4375 45.09375 
Q 46.96875 40.921875 40.578125 39.3125 
z
" id="DejaVuSans-51"/>
      </defs>
      <g transform="translate(124.123849 418.798437)scale(0.1 -0.1)">
       <use xlink:href="#DejaVuSans-50"/>
       <use x="63.623047" xlink:href="#DejaVuSans-48"/>
       <use x="127.246094" xlink:href="#DejaVuSans-50"/>
       <use x="190.869141" xlink:href="#DejaVuSans-51"/>
       <use x="254.492188" xlink:href="#DejaVuSans-45"/>
       <use x="290.576172" xlink:href="#DejaVuSans-48"/>
       <use x="354.199219" xlink:href="#DejaVuSans-49"/>
      </g>
     </g>
    </g>
    <g id="xtick_3">
     <g id="line2d_3">
      <g>
       <use style="stroke:#000000;stroke-width:0.8;" x="221.707908" xlink:href="#mb9d48efa92" y="404.2"/>
      </g>
     </g>
     <g id="text_3">
      <!-- 2023-03 -->
      <g transform="translate(200.816502 418.798437)scale(0.1 -0.1)">
       <use xlink:href="#DejaVuSans-50"/>
       <use x="63.623047" xlink:href="#DejaVuSans-48"/>
       <use x="127.246094" xlink:href="#DejaVuSans-50"/>
       <use x="190.869141" xlink:href="#DejaVuSans-51"/>
       <use x="254.492188" xlink:href="#DejaVuSans-45"/>
       <use x="290.576172" xlink:href="#DejaVuSans-48"/>
       <use x="354.199219" xlink:href="#DejaVuSans-51"/>
      </g>
     </g>
    </g>
    <g id="xtick_4">
     <g id="line2d_4">
      <g>
       <use style="stroke:#000000;stroke-width:0.8;" x="301.000311" xlink:href="#mb9d48efa92" y="404.2"/>
      </g>
     </g>
     <g id="text_4">
      <!-- 2023-05 -->
      <defs>
       <path d="M 10.796875 72.90625 
L 49.515625 72.90625 
L 49.515625 64.59375 
L 19.828125 64.59375 
L 19.828125 46.734375 
Q 21.96875 47.46875 24.109375 47.828125 
Q 26.265625 48.1875 28.421875 48.1875 
Q 40.625 48.1875 47.75 41.5 
Q 54.890625 34.8125 54.890625 23.390625 
Q 54.890625 11.625 47.5625 5.09375 
Q 40.234375 -1.421875 26.90625 -1.421875 
Q 22.3125 -1.421875 17.546875 -0.640625 
Q 12.796875 0.140625 7.71875 1.703125 
L 7.71875 11.625 
Q 12.109375 9.234375 16.796875 8.0625 
Q 21.484375 6.890625 26.703125 6.890625 
Q 35.15625 6.890625 40.078125 11.328125 
Q 45.015625 15.765625 45.015625 23.390625 
Q 45.015625 31 40.078125 35.4375 
Q 35.15625 39.890625 26.703125 39.890625 
Q 22.75 39.890625 18.8125 39.015625 
Q 14.890625 38.140625 10.796875 36.28125 
z
" id="DejaVuSans-53"/>
      </defs>
      <g transform="translate(280.108905 418.798437)scale(0.1 -0.1)">
       <use xlink:href="#DejaVuSans-50"/>
       <use x="63.623047" xlink:href="#DejaVuSans-48"/>
       <use x="127.246094" xlink:href="#DejaVuSans-50"/>
       <use x="190.869141" xlink:href="#DejaVuSans-51"/>
       <use x="254.492188" xlink:href="#DejaVuSans-45"/>
       <use x="290.576172" xlink:href="#DejaVuSans-48"/>
       <use x="354.199219" xlink:href="#DejaVuSans-53"/>
      </g>
     </g>
    </g>
    <g id="xtick_5">
     <g id="line2d_5">
      <g>
       <use style="stroke:#000000;stroke-width:0.8;" x="380.292715" xlink:href="#mb9d48efa92" y="404.2"/>
      </g>
     </g>
     <g id="text_5">
      <!-- 2023-07 -->
      <defs>
       <path d="M 8.203125 72.90625 
L 55.078125 72.90625 
L 55.078125 68.703125 
L 28.609375 0 
L 18.3125 0 
L 43.21875 64.59375 
L 8.203125 64.59375 
z
" id="DejaVuSans-55"/>
      </defs>
      <g transform="translate(359.401309 418.798437)scale(0.1 -0.1)">
       <use xlink:href="#DejaVuSans-50"/>
       <use x="63.623047" xlink:href="#DejaVuSans-48"/>
       <use x="127.246094" xlink:href="#DejaVuSans-50"/>
       <use x="190.869141" xlink:href="#DejaVuSans-51"/>
       <use x="254.492188" xlink:href="#DejaVuSans-45"/>
       <use x="290.576172" xlink:href="#DejaVuSans-48"/>
       <use x="354.199219" xlink:href="#DejaVuSans-55"/>
      </g>
     </g>
    </g>
    <g id="xtick_6">
     <g id="line2d_6">
      <g>
       <use style="stroke:#000000;stroke-width:0.8;" x="460.884994" xlink:href="#mb9d48efa92" y="404.2"/>
      </g>
     </g>
     <g id="text_6">
      <!-- 2023-09 -->
      <defs>
       <path d="M 10.984375 1.515625 
L 10.984375 10.5 
Q 14.703125 8.734375 18.5 7.8125 
Q 22.3125 6.890625 25.984375 6.890625 
Q 35.75 6.890625 40.890625 13.453125 
Q 46.046875 20.015625 46.78125 33.40625 
Q 43.953125 29.203125 39.59375 26.953125 
Q 35.25 24.703125 29.984375 24.703125 
Q 19.046875 24.703125 12.671875 31.3125 
Q 6.296875 37.9375 6.296875 49.421875 
Q 6.296875 60.640625 12.9375 67.421875 
Q 19.578125 74.21875 30.609375 74.21875 
Q 43.265625 74.21875 49.921875 64.515625 
Q 56.59375 54.828125 56.59375 36.375 
Q 56.59375 19.140625 48.40625 8.859375 
Q 40.234375 -1.421875 26.421875 -1.421875 
Q 22.703125 -1.421875 18.890625 -0.6875 
Q 15.09375 0.046875 10.984375 1.515625 
z
M 30.609375 32.421875 
Q 37.25 32.421875 41.125 36.953125 
Q 45.015625 41.5 45.015625 49.421875 
Q 45.015625 57.28125 41.125 61.84375 
Q 37.25 66.40625 30.609375 66.40625 
Q 23.96875 66.40625 20.09375 61.84375 
Q 16.21875 57.28125 16.21875 49.421875 
Q 16.21875 41.5 20.09375 36.953125 
Q 23.96875 32.421875 30.609375 32.421875 
z
" id="DejaVuSans-57"/>
      </defs>
      <g transform="translate(439.993588 418.798437)scale(0.1 -0.1)">
       <use xlink:href="#DejaVuSans-50"/>
       <use x="63.623047" xlink:href="#DejaVuSans-48"/>
       <use x="127.246094" xlink:href="#DejaVuSans-50"/>
       <use x="190.869141" xlink:href="#DejaVuSans-51"/>
       <use x="254.492188" xlink:href="#DejaVuSans-45"/>
       <use x="290.576172" xlink:href="#DejaVuSans-48"/>
       <use x="354.199219" xlink:href="#DejaVuSans-57"/>
      </g>
     </g>
    </g>
    <g id="xtick_7">
     <g id="line2d_7">
      <g>
       <use style="stroke:#000000;stroke-width:0.8;" x="540.177397" xlink:href="#mb9d48efa92" y="404.2"/>
      </g>
     </g>
     <g id="text_7">
      <!-- 2023-11 -->
      <g transform="translate(519.285991 418.798437)scale(0.1 -0.1)">
       <use xlink:href="#DejaVuSans-50"/>
       <use x="63.623047" xlink:href="#DejaVuSans-48"/>
       <use x="127.246094" xlink:href="#DejaVuSans-50"/>
       <use x="190.869141" xlink:href="#DejaVuSans-51"/>
       <use x="254.492188" xlink:href="#DejaVuSans-45"/>
       <use x="290.576172" xlink:href="#DejaVuSans-49"/>
       <use x="354.199219" xlink:href="#DejaVuSans-49"/>
      </g>
     </g>
    </g>
   </g>
   <g id="matplotlib.axis_2">
    <g id="ytick_1">
     <g id="line2d_8">
      <defs>
       <path d="M 0 0 
L -3.5 0 
" id="m03cf61465b" style="stroke:#000000;stroke-width:0.8;"/>
      </defs>
      <g>
       <use style="stroke:#000000;stroke-width:0.8;" x="43.3" xlink:href="#m03cf61465b" y="387.272727"/>
      </g>
     </g>
     <g id="text_8">
      <!-- 0 -->
      <g transform="translate(29.9375 391.071946)scale(0.1 -0.1)">
       <use xlink:href="#DejaVuSans-48"/>
      </g>
     </g>
    </g>
    <g id="ytick_2">
     <g id="line2d_9">
      <g>
       <use style="stroke:#000000;stroke-width:0.8;" x="43.3" xlink:href="#m03cf61465b" y="305.399582"/>
      </g>
     </g>
     <g id="text_9">
      <!-- 1000 -->
      <g transform="translate(10.85 309.198801)scale(0.1 -0.1)">
       <use xlink:href="#DejaVuSans-49"/>
       <use x="63.623047" xlink:href="#DejaVuSans-48"/>
       <use x="127.246094" xlink:href="#DejaVuSans-48"/>
       <use x="190.869141" xlink:href="#DejaVuSans-48"/>
      </g>
     </g>
    </g>
    <g id="ytick_3">
     <g id="line2d_10">
      <g>
       <use style="stroke:#000000;stroke-width:0.8;" x="43.3" xlink:href="#m03cf61465b" y="223.526437"/>
      </g>
     </g>
     <g id="text_10">
      <!-- 2000 -->
      <g transform="translate(10.85 227.325656)scale(0.1 -0.1)">
       <use xlink:href="#DejaVuSans-50"/>
       <use x="63.623047" xlink:href="#DejaVuSans-48"/>
       <use x="127.246094" xlink:href="#DejaVuSans-48"/>
       <use x="190.869141" xlink:href="#DejaVuSans-48"/>
      </g>
     </g>
    </g>
    <g id="ytick_4">
     <g id="line2d_11">
      <g>
       <use style="stroke:#000000;stroke-width:0.8;" x="43.3" xlink:href="#m03cf61465b" y="141.653292"/>
      </g>
     </g>
     <g id="text_11">
      <!-- 3000 -->
      <g transform="translate(10.85 145.452511)scale(0.1 -0.1)">
       <use xlink:href="#DejaVuSans-51"/>
       <use x="63.623047" xlink:href="#DejaVuSans-48"/>
       <use x="127.246094" xlink:href="#DejaVuSans-48"/>
       <use x="190.869141" xlink:href="#DejaVuSans-48"/>
      </g>
     </g>
    </g>
    <g id="ytick_5">
     <g id="line2d_12">
      <g>
       <use style="stroke:#000000;stroke-width:0.8;" x="43.3" xlink:href="#m03cf61465b" y="59.780147"/>
      </g>
     </g>
     <g id="text_12">
      <!-- 4000 -->
      <defs>
       <path d="M 37.796875 64.3125 
L 12.890625 25.390625 
L 37.796875 25.390625 
z
M 35.203125 72.90625 
L 47.609375 72.90625 
L 47.609375 25.390625 
L 58.015625 25.390625 
L 58.015625 17.1875 
L 47.609375 17.1875 
L 47.609375 0 
L 37.796875 0 
L 37.796875 17.1875 
L 4.890625 17.1875 
L 4.890625 26.703125 
z
" id="DejaVuSans-52"/>
      </defs>
      <g transform="translate(10.85 63.579366)scale(0.1 -0.1)">
       <use xlink:href="#DejaVuSans-52"/>
       <use x="63.623047" xlink:href="#DejaVuSans-48"/>
       <use x="127.246094" xlink:href="#DejaVuSans-48"/>
       <use x="190.869141" xlink:href="#DejaVuSans-48"/>
      </g>
     </g>
    </g>
   </g>
   <g id="patch_3">
    <path d="M 43.3 404.2 
L 43.3 31.8 
" style="fill:none;stroke:#000000;stroke-linecap:square;stroke-linejoin:miter;stroke-width:0.8;"/>
   </g>
   <g id="patch_4">
    <path d="M 565.2 404.2 
L 565.2 31.8 
" style="fill:none;stroke:#000000;stroke-linecap:square;stroke-linejoin:miter;stroke-width:0.8;"/>
   </g>
   <g id="patch_5">
    <path d="M 43.3 404.2 
L 565.2 404.2 
" style="fill:none;stroke:#000000;stroke-linecap:square;stroke-linejoin:miter;stroke-width:0.8;"/>
   </g>
   <g id="patch_6">
    <path d="M 43.3 31.8 
L 565.2 31.8 
" style="fill:none;stroke:#000000;stroke-linecap:square;stroke-linejoin:miter;stroke-width:0.8;"/>
   </g>
   <g id="text_13">
    <!-- 4478.T - -6% -->
    <defs>
     <path d="M 36.8125 57.421875 
L 16.21875 26.90625 
L 36.8125 26.90625 
z
M 33.6875 72.90625 
L 54.59375 72.90625 
L 54.59375 26.90625 
L 64.984375 26.90625 
L 64.984375 13.28125 
L 54.59375 13.28125 
L 54.59375 0 
L 36.8125 0 
L 36.8125 13.28125 
L 4.5 13.28125 
L 4.5 29.390625 
z
" id="DejaVuSans-Bold-52"/>
     <path d="M 6.6875 72.90625 
L 61.625 72.90625 
L 61.625 62.3125 
L 33.203125 0 
L 14.890625 0 
L 41.796875 59.078125 
L 6.6875 59.078125 
z
" id="DejaVuSans-Bold-55"/>
     <path d="M 34.8125 32.625 
Q 29.546875 32.625 26.703125 29.734375 
Q 23.875 26.859375 23.875 21.484375 
Q 23.875 16.109375 26.703125 13.25 
Q 29.546875 10.40625 34.8125 10.40625 
Q 40.046875 10.40625 42.828125 13.25 
Q 45.609375 16.109375 45.609375 21.484375 
Q 45.609375 26.90625 42.828125 29.765625 
Q 40.046875 32.625 34.8125 32.625 
z
M 21.09375 38.8125 
Q 14.453125 40.828125 11.078125 44.96875 
Q 7.71875 49.125 7.71875 55.328125 
Q 7.71875 64.546875 14.59375 69.375 
Q 21.484375 74.21875 34.8125 74.21875 
Q 48.046875 74.21875 54.921875 69.40625 
Q 61.8125 64.59375 61.8125 55.328125 
Q 61.8125 49.125 58.421875 44.96875 
Q 55.03125 40.828125 48.390625 38.8125 
Q 55.8125 36.765625 59.59375 32.15625 
Q 63.375 27.546875 63.375 20.515625 
Q 63.375 9.671875 56.171875 4.125 
Q 48.96875 -1.421875 34.8125 -1.421875 
Q 20.609375 -1.421875 13.359375 4.125 
Q 6.109375 9.671875 6.109375 20.515625 
Q 6.109375 27.546875 9.890625 32.15625 
Q 13.671875 36.765625 21.09375 38.8125 
z
M 25.484375 53.421875 
Q 25.484375 49.078125 27.90625 46.734375 
Q 30.328125 44.390625 34.8125 44.390625 
Q 39.203125 44.390625 41.59375 46.734375 
Q 44 49.078125 44 53.421875 
Q 44 57.765625 41.59375 60.078125 
Q 39.203125 62.40625 34.8125 62.40625 
Q 30.328125 62.40625 27.90625 60.0625 
Q 25.484375 57.71875 25.484375 53.421875 
z
" id="DejaVuSans-Bold-56"/>
     <path d="M 10.203125 18.890625 
L 27.78125 18.890625 
L 27.78125 0 
L 10.203125 0 
z
" id="DejaVuSans-Bold-46"/>
     <path d="M 0.484375 72.90625 
L 67.671875 72.90625 
L 67.671875 58.6875 
L 43.5 58.6875 
L 43.5 0 
L 24.703125 0 
L 24.703125 58.6875 
L 0.484375 58.6875 
z
" id="DejaVuSans-Bold-84"/>
     <path id="DejaVuSans-Bold-32"/>
     <path d="M 5.421875 35.890625 
L 36.078125 35.890625 
L 36.078125 21.6875 
L 5.421875 21.6875 
z
" id="DejaVuSans-Bold-45"/>
     <path d="M 36.1875 35.984375 
Q 31.25 35.984375 28.78125 32.78125 
Q 26.3125 29.59375 26.3125 23.1875 
Q 26.3125 16.796875 28.78125 13.59375 
Q 31.25 10.40625 36.1875 10.40625 
Q 41.15625 10.40625 43.625 13.59375 
Q 46.09375 16.796875 46.09375 23.1875 
Q 46.09375 29.59375 43.625 32.78125 
Q 41.15625 35.984375 36.1875 35.984375 
z
M 59.421875 71 
L 59.421875 57.515625 
Q 54.78125 59.71875 50.671875 60.765625 
Q 46.578125 61.8125 42.671875 61.8125 
Q 34.28125 61.8125 29.59375 57.140625 
Q 24.90625 52.484375 24.125 43.3125 
Q 27.34375 45.703125 31.09375 46.890625 
Q 34.859375 48.09375 39.3125 48.09375 
Q 50.484375 48.09375 57.34375 41.546875 
Q 64.203125 35.015625 64.203125 24.421875 
Q 64.203125 12.703125 56.53125 5.640625 
Q 48.875 -1.421875 35.984375 -1.421875 
Q 21.78125 -1.421875 13.984375 8.171875 
Q 6.203125 17.78125 6.203125 35.40625 
Q 6.203125 53.46875 15.3125 63.796875 
Q 24.421875 74.125 40.28125 74.125 
Q 45.3125 74.125 50.046875 73.34375 
Q 54.78125 72.5625 59.421875 71 
z
" id="DejaVuSans-Bold-54"/>
     <path d="M 77.484375 30.078125 
Q 74.03125 30.078125 72.125 27.078125 
Q 70.21875 24.078125 70.21875 18.5 
Q 70.21875 12.890625 72.09375 9.890625 
Q 73.96875 6.890625 77.484375 6.890625 
Q 81 6.890625 82.859375 9.890625 
Q 84.71875 12.890625 84.71875 18.5 
Q 84.71875 24.078125 82.828125 27.078125 
Q 80.953125 30.078125 77.484375 30.078125 
z
M 77.484375 38.28125 
Q 86.578125 38.28125 91.796875 33 
Q 97.015625 27.734375 97.015625 18.5 
Q 97.015625 9.28125 91.796875 3.921875 
Q 86.578125 -1.421875 77.484375 -1.421875 
Q 68.40625 -1.421875 63.15625 3.921875 
Q 57.90625 9.28125 57.90625 18.5 
Q 57.90625 27.6875 63.15625 32.984375 
Q 68.40625 38.28125 77.484375 38.28125 
z
M 32.71875 -1.421875 
L 21.921875 -1.421875 
L 67.484375 74.21875 
L 78.328125 74.21875 
z
M 22.703125 74.21875 
Q 31.78125 74.21875 36.984375 68.921875 
Q 42.1875 63.625 42.1875 54.390625 
Q 42.1875 45.171875 36.984375 39.84375 
Q 31.78125 34.515625 22.703125 34.515625 
Q 13.625 34.515625 8.421875 39.84375 
Q 3.21875 45.171875 3.21875 54.390625 
Q 3.21875 63.625 8.421875 68.921875 
Q 13.625 74.21875 22.703125 74.21875 
z
M 22.703125 66.015625 
Q 19.1875 66.015625 17.28125 62.984375 
Q 15.375 59.96875 15.375 54.390625 
Q 15.375 48.78125 17.28125 45.71875 
Q 19.1875 42.671875 22.703125 42.671875 
Q 26.21875 42.671875 28.09375 45.71875 
Q 29.984375 48.78125 29.984375 54.390625 
Q 29.984375 59.96875 28.078125 62.984375 
Q 26.171875 66.015625 22.703125 66.015625 
z
" id="DejaVuSans-Bold-37"/>
    </defs>
    <g transform="translate(43.3 25.8)scale(0.2 -0.2)">
     <use xlink:href="#DejaVuSans-Bold-52"/>
     <use x="69.580078" xlink:href="#DejaVuSans-Bold-52"/>
     <use x="139.160156" xlink:href="#DejaVuSans-Bold-55"/>
     <use x="208.740234" xlink:href="#DejaVuSans-Bold-56"/>
     <use x="278.320312" xlink:href="#DejaVuSans-Bold-46"/>
     <use x="316.308594" xlink:href="#DejaVuSans-Bold-84"/>
     <use x="384.521484" xlink:href="#DejaVuSans-Bold-32"/>
     <use x="419.335938" xlink:href="#DejaVuSans-Bold-45"/>
     <use x="460.839844" xlink:href="#DejaVuSans-Bold-32"/>
     <use x="495.654297" xlink:href="#DejaVuSans-Bold-45"/>
     <use x="537.158203" xlink:href="#DejaVuSans-Bold-54"/>
     <use x="606.738281" xlink:href="#DejaVuSans-Bold-37"/>
    </g>
   </g>
  </g>
 </g>
 <defs>
  <clipPath id="p674d565144">
   <rect height="372.4" width="521.9" x="43.3" y="31.8"/>
  </clipPath>
 </defs>
</svg>
