<?xml version="1.0" encoding="utf-8" standalone="no"?>
<!DOCTYPE svg PUBLIC "-//W3C//DTD SVG 1.1//EN"
  "http://www.w3.org/Graphics/SVG/1.1/DTD/svg11.dtd">
<!-- Created with matplotlib (https://matplotlib.org/) -->
<svg height="432pt" version="1.1" viewBox="0 0 576 432" width="576pt" xmlns="http://www.w3.org/2000/svg" xmlns:xlink="http://www.w3.org/1999/xlink">
 <defs>
  <style type="text/css">
*{stroke-linecap:butt;stroke-linejoin:round;}
  </style>
 </defs>
 <g id="figure_1">
  <g id="patch_1">
   <path d="M 0 432 
L 576 432 
L 576 0 
L 0 0 
z
" style="fill:#ffffff;"/>
  </g>
  <g id="axes_1">
   <g id="patch_2">
    <path d="M 43.3 404.2 
L 565.2 404.2 
L 565.2 31.8 
L 43.3 31.8 
z
" style="fill:#ffffff;"/>
   </g>
   <g id="PolyCollection_1">
    <defs>
     <path d="M 67.022727 -44.727273 
L 67.022727 -217.109031 
L 69.601285 -215.576752 
L 72.179842 -198.721639 
L 74.758399 -201.020068 
L 77.336957 -203.318487 
L 85.072628 -200.253928 
L 87.651186 -204.850766 
L 90.229743 -207.915335 
L 92.8083 -207.915335 
L 95.386858 -210.213764 
L 103.12253 -207.149195 
L 105.701087 -217.109031 
L 108.279644 -213.278323 
L 110.858202 -220.17359 
L 113.436759 -224.004298 
L 121.172431 -229.367286 
L 123.750988 -227.835007 
L 126.329545 -222.472019 
L 128.908103 -223.238149 
L 131.48666 -229.367286 
L 139.222332 -228.601137 
L 141.800889 -229.367286 
L 144.379447 -228.601137 
L 146.958004 -219.40746 
L 149.536561 -222.472019 
L 157.272233 -219.40746 
L 159.850791 -224.004298 
L 162.429348 -232.808081 
L 165.007905 -236.8098 
L 167.586462 -235.209112 
L 175.322134 -239.210832 
L 177.900692 -236.8098 
L 180.479249 -239.210832 
L 193.372036 -240.811519 
L 195.950593 -228.006018 
L 198.52915 -233.608425 
L 201.107708 -252.016334 
L 203.686265 -272.02493 
L 211.421937 -284.030088 
L 214.000494 -287.231464 
L 216.579051 -284.030088 
L 219.157609 -275.226306 
L 221.736166 -285.630776 
L 229.471838 -292.033527 
L 232.050395 -308.840748 
L 234.628953 -322.446594 
L 237.20751 -344.055878 
L 239.786067 -356.061036 
L 247.521739 -344.055878 
L 250.100296 -340.054159 
L 252.678854 -332.851064 
L 255.257411 -348.857941 
L 257.835968 -376.869976 
L 265.57164 -383.272727 
L 268.150198 -372.067913 
L 270.728755 -369.666882 
L 273.307312 -357.661724 
L 275.88587 -348.057597 
L 283.621542 -329.649688 
L 286.200099 -320.845906 
L 288.778656 -293.634214 
L 293.935771 -293.634214 
L 301.671443 -311.241779 
L 304.25 -325.647969 
L 306.828557 -315.243499 
L 309.407115 -295.234902 
L 311.985672 -296.83559 
L 319.721344 -296.035246 
L 322.299901 -306.439716 
L 324.878458 -318.444874 
L 327.457016 -316.844187 
L 330.035573 -308.040404 
L 337.771245 -310.441436 
L 340.349802 -319.245218 
L 342.92836 -328.049001 
L 345.506917 -324.847625 
L 348.085474 -302.437997 
L 355.821146 -300.837309 
L 358.399704 -307.24006 
L 360.978261 -316.844187 
L 363.556818 -294.434558 
L 366.135375 -286.43112 
L 373.871047 -293.634214 
L 376.449605 -294.434558 
L 379.028162 -297.635934 
L 381.606719 -292.833871 
L 384.185277 -293.634214 
L 391.920949 -283.229744 
L 394.499506 -276.826993 
L 397.078063 -279.228025 
L 399.656621 -281.629057 
L 402.235178 -288.031807 
L 409.97085 -270.424242 
L 412.549407 -264.821835 
L 415.127964 -263.221148 
L 417.706522 -265.622179 
L 420.285079 -275.226306 
L 428.020751 -276.826993 
L 430.599308 -274.425962 
L 433.177866 -280.028369 
L 435.756423 -284.030088 
L 446.070652 -307.24006 
L 448.649209 -300.036965 
L 451.227767 -299.236622 
L 453.806324 -304.038685 
L 456.384881 -310.441436 
L 469.277668 -304.839029 
L 471.856225 -312.042123 
L 474.434783 -308.040404 
L 482.170455 -299.236622 
L 484.749012 -284.030088 
L 487.327569 -276.026649 
L 489.906126 -279.228025 
L 492.484684 -287.231464 
L 500.220356 -287.231464 
L 502.798913 -311.241779 
L 505.37747 -309.641092 
L 507.956028 -298.436278 
L 510.534585 -308.040404 
L 518.270257 -304.038685 
L 520.848814 -288.031807 
L 523.427372 -287.231464 
L 526.005929 -297.635934 
L 528.584486 -315.243499 
L 536.320158 -326.448313 
L 538.898715 -328.049001 
L 541.477273 -333.651408 
L 541.477273 -44.727273 
L 541.477273 -44.727273 
L 538.898715 -44.727273 
L 536.320158 -44.727273 
L 528.584486 -44.727273 
L 526.005929 -44.727273 
L 523.427372 -44.727273 
L 520.848814 -44.727273 
L 518.270257 -44.727273 
L 510.534585 -44.727273 
L 507.956028 -44.727273 
L 505.37747 -44.727273 
L 502.798913 -44.727273 
L 500.220356 -44.727273 
L 492.484684 -44.727273 
L 489.906126 -44.727273 
L 487.327569 -44.727273 
L 484.749012 -44.727273 
L 482.170455 -44.727273 
L 474.434783 -44.727273 
L 471.856225 -44.727273 
L 469.277668 -44.727273 
L 456.384881 -44.727273 
L 453.806324 -44.727273 
L 451.227767 -44.727273 
L 448.649209 -44.727273 
L 446.070652 -44.727273 
L 435.756423 -44.727273 
L 433.177866 -44.727273 
L 430.599308 -44.727273 
L 428.020751 -44.727273 
L 420.285079 -44.727273 
L 417.706522 -44.727273 
L 415.127964 -44.727273 
L 412.549407 -44.727273 
L 409.97085 -44.727273 
L 402.235178 -44.727273 
L 399.656621 -44.727273 
L 397.078063 -44.727273 
L 394.499506 -44.727273 
L 391.920949 -44.727273 
L 384.185277 -44.727273 
L 381.606719 -44.727273 
L 379.028162 -44.727273 
L 376.449605 -44.727273 
L 373.871047 -44.727273 
L 366.135375 -44.727273 
L 363.556818 -44.727273 
L 360.978261 -44.727273 
L 358.399704 -44.727273 
L 355.821146 -44.727273 
L 348.085474 -44.727273 
L 345.506917 -44.727273 
L 342.92836 -44.727273 
L 340.349802 -44.727273 
L 337.771245 -44.727273 
L 330.035573 -44.727273 
L 327.457016 -44.727273 
L 324.878458 -44.727273 
L 322.299901 -44.727273 
L 319.721344 -44.727273 
L 311.985672 -44.727273 
L 309.407115 -44.727273 
L 306.828557 -44.727273 
L 304.25 -44.727273 
L 301.671443 -44.727273 
L 293.935771 -44.727273 
L 288.778656 -44.727273 
L 286.200099 -44.727273 
L 283.621542 -44.727273 
L 275.88587 -44.727273 
L 273.307312 -44.727273 
L 270.728755 -44.727273 
L 268.150198 -44.727273 
L 265.57164 -44.727273 
L 257.835968 -44.727273 
L 255.257411 -44.727273 
L 252.678854 -44.727273 
L 250.100296 -44.727273 
L 247.521739 -44.727273 
L 239.786067 -44.727273 
L 237.20751 -44.727273 
L 234.628953 -44.727273 
L 232.050395 -44.727273 
L 229.471838 -44.727273 
L 221.736166 -44.727273 
L 219.157609 -44.727273 
L 216.579051 -44.727273 
L 214.000494 -44.727273 
L 211.421937 -44.727273 
L 203.686265 -44.727273 
L 201.107708 -44.727273 
L 198.52915 -44.727273 
L 195.950593 -44.727273 
L 193.372036 -44.727273 
L 180.479249 -44.727273 
L 177.900692 -44.727273 
L 175.322134 -44.727273 
L 167.586462 -44.727273 
L 165.007905 -44.727273 
L 162.429348 -44.727273 
L 159.850791 -44.727273 
L 157.272233 -44.727273 
L 149.536561 -44.727273 
L 146.958004 -44.727273 
L 144.379447 -44.727273 
L 141.800889 -44.727273 
L 139.222332 -44.727273 
L 131.48666 -44.727273 
L 128.908103 -44.727273 
L 126.329545 -44.727273 
L 123.750988 -44.727273 
L 121.172431 -44.727273 
L 113.436759 -44.727273 
L 110.858202 -44.727273 
L 108.279644 -44.727273 
L 105.701087 -44.727273 
L 103.12253 -44.727273 
L 95.386858 -44.727273 
L 92.8083 -44.727273 
L 90.229743 -44.727273 
L 87.651186 -44.727273 
L 85.072628 -44.727273 
L 77.336957 -44.727273 
L 74.758399 -44.727273 
L 72.179842 -44.727273 
L 69.601285 -44.727273 
L 67.022727 -44.727273 
z
" id="m3bb55a3279" style="stroke:#f0939d;"/>
    </defs>
    <g clip-path="url(#pbf5db6fcec)">
     <use style="fill:#f0939d;stroke:#f0939d;" x="0" xlink:href="#m3bb55a3279" y="432"/>
    </g>
   </g>
   <g id="matplotlib.axis_1">
    <g id="xtick_1">
     <g id="line2d_1">
      <defs>
       <path d="M 0 0 
L 0 3.5 
" id="m9f4f08de47" style="stroke:#000000;stroke-width:0.8;"/>
      </defs>
      <g>
       <use style="stroke:#000000;stroke-width:0.8;" x="48.972826" xlink:href="#m9f4f08de47" y="404.2"/>
      </g>
     </g>
     <g id="text_1">
      <!-- 2023-05 -->
      <defs>
       <path d="M 19.1875 8.296875 
L 53.609375 8.296875 
L 53.609375 0 
L 7.328125 0 
L 7.328125 8.296875 
Q 12.9375 14.109375 22.625 23.890625 
Q 32.328125 33.6875 34.8125 36.53125 
Q 39.546875 41.84375 41.421875 45.53125 
Q 43.3125 49.21875 43.3125 52.78125 
Q 43.3125 58.59375 39.234375 62.25 
Q 35.15625 65.921875 28.609375 65.921875 
Q 23.96875 65.921875 18.8125 64.3125 
Q 13.671875 62.703125 7.8125 59.421875 
L 7.8125 69.390625 
Q 13.765625 71.78125 18.9375 73 
Q 24.125 74.21875 28.421875 74.21875 
Q 39.75 74.21875 46.484375 68.546875 
Q 53.21875 62.890625 53.21875 53.421875 
Q 53.21875 48.921875 51.53125 44.890625 
Q 49.859375 40.875 45.40625 35.40625 
Q 44.1875 33.984375 37.640625 27.21875 
Q 31.109375 20.453125 19.1875 8.296875 
z
" id="DejaVuSans-50"/>
       <path d="M 31.78125 66.40625 
Q 24.171875 66.40625 20.328125 58.90625 
Q 16.5 51.421875 16.5 36.375 
Q 16.5 21.390625 20.328125 13.890625 
Q 24.171875 6.390625 31.78125 6.390625 
Q 39.453125 6.390625 43.28125 13.890625 
Q 47.125 21.390625 47.125 36.375 
Q 47.125 51.421875 43.28125 58.90625 
Q 39.453125 66.40625 31.78125 66.40625 
z
M 31.78125 74.21875 
Q 44.046875 74.21875 50.515625 64.515625 
Q 56.984375 54.828125 56.984375 36.375 
Q 56.984375 17.96875 50.515625 8.265625 
Q 44.046875 -1.421875 31.78125 -1.421875 
Q 19.53125 -1.421875 13.0625 8.265625 
Q 6.59375 17.96875 6.59375 36.375 
Q 6.59375 54.828125 13.0625 64.515625 
Q 19.53125 74.21875 31.78125 74.21875 
z
" id="DejaVuSans-48"/>
       <path d="M 40.578125 39.3125 
Q 47.65625 37.796875 51.625 33 
Q 55.609375 28.21875 55.609375 21.1875 
Q 55.609375 10.40625 48.1875 4.484375 
Q 40.765625 -1.421875 27.09375 -1.421875 
Q 22.515625 -1.421875 17.65625 -0.515625 
Q 12.796875 0.390625 7.625 2.203125 
L 7.625 11.71875 
Q 11.71875 9.328125 16.59375 8.109375 
Q 21.484375 6.890625 26.8125 6.890625 
Q 36.078125 6.890625 40.9375 10.546875 
Q 45.796875 14.203125 45.796875 21.1875 
Q 45.796875 27.640625 41.28125 31.265625 
Q 36.765625 34.90625 28.71875 34.90625 
L 20.21875 34.90625 
L 20.21875 43.015625 
L 29.109375 43.015625 
Q 36.375 43.015625 40.234375 45.921875 
Q 44.09375 48.828125 44.09375 54.296875 
Q 44.09375 59.90625 40.109375 62.90625 
Q 36.140625 65.921875 28.71875 65.921875 
Q 24.65625 65.921875 20.015625 65.03125 
Q 15.375 64.15625 9.8125 62.3125 
L 9.8125 71.09375 
Q 15.4375 72.65625 20.34375 73.4375 
Q 25.25 74.21875 29.59375 74.21875 
Q 40.828125 74.21875 47.359375 69.109375 
Q 53.90625 64.015625 53.90625 55.328125 
Q 53.90625 49.265625 50.4375 45.09375 
Q 46.96875 40.921875 40.578125 39.3125 
z
" id="DejaVuSans-51"/>
       <path d="M 4.890625 31.390625 
L 31.203125 31.390625 
L 31.203125 23.390625 
L 4.890625 23.390625 
z
" id="DejaVuSans-45"/>
       <path d="M 10.796875 72.90625 
L 49.515625 72.90625 
L 49.515625 64.59375 
L 19.828125 64.59375 
L 19.828125 46.734375 
Q 21.96875 47.46875 24.109375 47.828125 
Q 26.265625 48.1875 28.421875 48.1875 
Q 40.625 48.1875 47.75 41.5 
Q 54.890625 34.8125 54.890625 23.390625 
Q 54.890625 11.625 47.5625 5.09375 
Q 40.234375 -1.421875 26.90625 -1.421875 
Q 22.3125 -1.421875 17.546875 -0.640625 
Q 12.796875 0.140625 7.71875 1.703125 
L 7.71875 11.625 
Q 12.109375 9.234375 16.796875 8.0625 
Q 21.484375 6.890625 26.703125 6.890625 
Q 35.15625 6.890625 40.078125 11.328125 
Q 45.015625 15.765625 45.015625 23.390625 
Q 45.015625 31 40.078125 35.4375 
Q 35.15625 39.890625 26.703125 39.890625 
Q 22.75 39.890625 18.8125 39.015625 
Q 14.890625 38.140625 10.796875 36.28125 
z
" id="DejaVuSans-53"/>
      </defs>
      <g transform="translate(28.08142 418.798437)scale(0.1 -0.1)">
       <use xlink:href="#DejaVuSans-50"/>
       <use x="63.623047" xlink:href="#DejaVuSans-48"/>
       <use x="127.246094" xlink:href="#DejaVuSans-50"/>
       <use x="190.869141" xlink:href="#DejaVuSans-51"/>
       <use x="254.492188" xlink:href="#DejaVuSans-45"/>
       <use x="290.576172" xlink:href="#DejaVuSans-48"/>
       <use x="354.199219" xlink:href="#DejaVuSans-53"/>
      </g>
     </g>
    </g>
    <g id="xtick_2">
     <g id="line2d_2">
      <g>
       <use style="stroke:#000000;stroke-width:0.8;" x="128.908103" xlink:href="#m9f4f08de47" y="404.2"/>
      </g>
     </g>
     <g id="text_2">
      <!-- 2023-06 -->
      <defs>
       <path d="M 33.015625 40.375 
Q 26.375 40.375 22.484375 35.828125 
Q 18.609375 31.296875 18.609375 23.390625 
Q 18.609375 15.53125 22.484375 10.953125 
Q 26.375 6.390625 33.015625 6.390625 
Q 39.65625 6.390625 43.53125 10.953125 
Q 47.40625 15.53125 47.40625 23.390625 
Q 47.40625 31.296875 43.53125 35.828125 
Q 39.65625 40.375 33.015625 40.375 
z
M 52.59375 71.296875 
L 52.59375 62.3125 
Q 48.875 64.0625 45.09375 64.984375 
Q 41.3125 65.921875 37.59375 65.921875 
Q 27.828125 65.921875 22.671875 59.328125 
Q 17.53125 52.734375 16.796875 39.40625 
Q 19.671875 43.65625 24.015625 45.921875 
Q 28.375 48.1875 33.59375 48.1875 
Q 44.578125 48.1875 50.953125 41.515625 
Q 57.328125 34.859375 57.328125 23.390625 
Q 57.328125 12.15625 50.6875 5.359375 
Q 44.046875 -1.421875 33.015625 -1.421875 
Q 20.359375 -1.421875 13.671875 8.265625 
Q 6.984375 17.96875 6.984375 36.375 
Q 6.984375 53.65625 15.1875 63.9375 
Q 23.390625 74.21875 37.203125 74.21875 
Q 40.921875 74.21875 44.703125 73.484375 
Q 48.484375 72.75 52.59375 71.296875 
z
" id="DejaVuSans-54"/>
      </defs>
      <g transform="translate(108.016697 418.798437)scale(0.1 -0.1)">
       <use xlink:href="#DejaVuSans-50"/>
       <use x="63.623047" xlink:href="#DejaVuSans-48"/>
       <use x="127.246094" xlink:href="#DejaVuSans-50"/>
       <use x="190.869141" xlink:href="#DejaVuSans-51"/>
       <use x="254.492188" xlink:href="#DejaVuSans-45"/>
       <use x="290.576172" xlink:href="#DejaVuSans-48"/>
       <use x="354.199219" xlink:href="#DejaVuSans-54"/>
      </g>
     </g>
    </g>
    <g id="xtick_3">
     <g id="line2d_3">
      <g>
       <use style="stroke:#000000;stroke-width:0.8;" x="206.264822" xlink:href="#m9f4f08de47" y="404.2"/>
      </g>
     </g>
     <g id="text_3">
      <!-- 2023-07 -->
      <defs>
       <path d="M 8.203125 72.90625 
L 55.078125 72.90625 
L 55.078125 68.703125 
L 28.609375 0 
L 18.3125 0 
L 43.21875 64.59375 
L 8.203125 64.59375 
z
" id="DejaVuSans-55"/>
      </defs>
      <g transform="translate(185.373416 418.798437)scale(0.1 -0.1)">
       <use xlink:href="#DejaVuSans-50"/>
       <use x="63.623047" xlink:href="#DejaVuSans-48"/>
       <use x="127.246094" xlink:href="#DejaVuSans-50"/>
       <use x="190.869141" xlink:href="#DejaVuSans-51"/>
       <use x="254.492188" xlink:href="#DejaVuSans-45"/>
       <use x="290.576172" xlink:href="#DejaVuSans-48"/>
       <use x="354.199219" xlink:href="#DejaVuSans-55"/>
      </g>
     </g>
    </g>
    <g id="xtick_4">
     <g id="line2d_4">
      <g>
       <use style="stroke:#000000;stroke-width:0.8;" x="286.200099" xlink:href="#m9f4f08de47" y="404.2"/>
      </g>
     </g>
     <g id="text_4">
      <!-- 2023-08 -->
      <defs>
       <path d="M 31.78125 34.625 
Q 24.75 34.625 20.71875 30.859375 
Q 16.703125 27.09375 16.703125 20.515625 
Q 16.703125 13.921875 20.71875 10.15625 
Q 24.75 6.390625 31.78125 6.390625 
Q 38.8125 6.390625 42.859375 10.171875 
Q 46.921875 13.96875 46.921875 20.515625 
Q 46.921875 27.09375 42.890625 30.859375 
Q 38.875 34.625 31.78125 34.625 
z
M 21.921875 38.8125 
Q 15.578125 40.375 12.03125 44.71875 
Q 8.5 49.078125 8.5 55.328125 
Q 8.5 64.0625 14.71875 69.140625 
Q 20.953125 74.21875 31.78125 74.21875 
Q 42.671875 74.21875 48.875 69.140625 
Q 55.078125 64.0625 55.078125 55.328125 
Q 55.078125 49.078125 51.53125 44.71875 
Q 48 40.375 41.703125 38.8125 
Q 48.828125 37.15625 52.796875 32.3125 
Q 56.78125 27.484375 56.78125 20.515625 
Q 56.78125 9.90625 50.3125 4.234375 
Q 43.84375 -1.421875 31.78125 -1.421875 
Q 19.734375 -1.421875 13.25 4.234375 
Q 6.78125 9.90625 6.78125 20.515625 
Q 6.78125 27.484375 10.78125 32.3125 
Q 14.796875 37.15625 21.921875 38.8125 
z
M 18.3125 54.390625 
Q 18.3125 48.734375 21.84375 45.5625 
Q 25.390625 42.390625 31.78125 42.390625 
Q 38.140625 42.390625 41.71875 45.5625 
Q 45.3125 48.734375 45.3125 54.390625 
Q 45.3125 60.0625 41.71875 63.234375 
Q 38.140625 66.40625 31.78125 66.40625 
Q 25.390625 66.40625 21.84375 63.234375 
Q 18.3125 60.0625 18.3125 54.390625 
z
" id="DejaVuSans-56"/>
      </defs>
      <g transform="translate(265.308693 418.798437)scale(0.1 -0.1)">
       <use xlink:href="#DejaVuSans-50"/>
       <use x="63.623047" xlink:href="#DejaVuSans-48"/>
       <use x="127.246094" xlink:href="#DejaVuSans-50"/>
       <use x="190.869141" xlink:href="#DejaVuSans-51"/>
       <use x="254.492188" xlink:href="#DejaVuSans-45"/>
       <use x="290.576172" xlink:href="#DejaVuSans-48"/>
       <use x="354.199219" xlink:href="#DejaVuSans-56"/>
      </g>
     </g>
    </g>
    <g id="xtick_5">
     <g id="line2d_5">
      <g>
       <use style="stroke:#000000;stroke-width:0.8;" x="366.135375" xlink:href="#m9f4f08de47" y="404.2"/>
      </g>
     </g>
     <g id="text_5">
      <!-- 2023-09 -->
      <defs>
       <path d="M 10.984375 1.515625 
L 10.984375 10.5 
Q 14.703125 8.734375 18.5 7.8125 
Q 22.3125 6.890625 25.984375 6.890625 
Q 35.75 6.890625 40.890625 13.453125 
Q 46.046875 20.015625 46.78125 33.40625 
Q 43.953125 29.203125 39.59375 26.953125 
Q 35.25 24.703125 29.984375 24.703125 
Q 19.046875 24.703125 12.671875 31.3125 
Q 6.296875 37.9375 6.296875 49.421875 
Q 6.296875 60.640625 12.9375 67.421875 
Q 19.578125 74.21875 30.609375 74.21875 
Q 43.265625 74.21875 49.921875 64.515625 
Q 56.59375 54.828125 56.59375 36.375 
Q 56.59375 19.140625 48.40625 8.859375 
Q 40.234375 -1.421875 26.421875 -1.421875 
Q 22.703125 -1.421875 18.890625 -0.6875 
Q 15.09375 0.046875 10.984375 1.515625 
z
M 30.609375 32.421875 
Q 37.25 32.421875 41.125 36.953125 
Q 45.015625 41.5 45.015625 49.421875 
Q 45.015625 57.28125 41.125 61.84375 
Q 37.25 66.40625 30.609375 66.40625 
Q 23.96875 66.40625 20.09375 61.84375 
Q 16.21875 57.28125 16.21875 49.421875 
Q 16.21875 41.5 20.09375 36.953125 
Q 23.96875 32.421875 30.609375 32.421875 
z
" id="DejaVuSans-57"/>
      </defs>
      <g transform="translate(345.243969 418.798437)scale(0.1 -0.1)">
       <use xlink:href="#DejaVuSans-50"/>
       <use x="63.623047" xlink:href="#DejaVuSans-48"/>
       <use x="127.246094" xlink:href="#DejaVuSans-50"/>
       <use x="190.869141" xlink:href="#DejaVuSans-51"/>
       <use x="254.492188" xlink:href="#DejaVuSans-45"/>
       <use x="290.576172" xlink:href="#DejaVuSans-48"/>
       <use x="354.199219" xlink:href="#DejaVuSans-57"/>
      </g>
     </g>
    </g>
    <g id="xtick_6">
     <g id="line2d_6">
      <g>
       <use style="stroke:#000000;stroke-width:0.8;" x="443.492095" xlink:href="#m9f4f08de47" y="404.2"/>
      </g>
     </g>
     <g id="text_6">
      <!-- 2023-10 -->
      <defs>
       <path d="M 12.40625 8.296875 
L 28.515625 8.296875 
L 28.515625 63.921875 
L 10.984375 60.40625 
L 10.984375 69.390625 
L 28.421875 72.90625 
L 38.28125 72.90625 
L 38.28125 8.296875 
L 54.390625 8.296875 
L 54.390625 0 
L 12.40625 0 
z
" id="DejaVuSans-49"/>
      </defs>
      <g transform="translate(422.600689 418.798437)scale(0.1 -0.1)">
       <use xlink:href="#DejaVuSans-50"/>
       <use x="63.623047" xlink:href="#DejaVuSans-48"/>
       <use x="127.246094" xlink:href="#DejaVuSans-50"/>
       <use x="190.869141" xlink:href="#DejaVuSans-51"/>
       <use x="254.492188" xlink:href="#DejaVuSans-45"/>
       <use x="290.576172" xlink:href="#DejaVuSans-49"/>
       <use x="354.199219" xlink:href="#DejaVuSans-48"/>
      </g>
     </g>
    </g>
    <g id="xtick_7">
     <g id="line2d_7">
      <g>
       <use style="stroke:#000000;stroke-width:0.8;" x="523.427372" xlink:href="#m9f4f08de47" y="404.2"/>
      </g>
     </g>
     <g id="text_7">
      <!-- 2023-11 -->
      <g transform="translate(502.535965 418.798437)scale(0.1 -0.1)">
       <use xlink:href="#DejaVuSans-50"/>
       <use x="63.623047" xlink:href="#DejaVuSans-48"/>
       <use x="127.246094" xlink:href="#DejaVuSans-50"/>
       <use x="190.869141" xlink:href="#DejaVuSans-51"/>
       <use x="254.492188" xlink:href="#DejaVuSans-45"/>
       <use x="290.576172" xlink:href="#DejaVuSans-49"/>
       <use x="354.199219" xlink:href="#DejaVuSans-49"/>
      </g>
     </g>
    </g>
   </g>
   <g id="matplotlib.axis_2">
    <g id="ytick_1">
     <g id="line2d_8">
      <defs>
       <path d="M 0 0 
L -3.5 0 
" id="m5340381c51" style="stroke:#000000;stroke-width:0.8;"/>
      </defs>
      <g>
       <use style="stroke:#000000;stroke-width:0.8;" x="43.3" xlink:href="#m5340381c51" y="387.272727"/>
      </g>
     </g>
     <g id="text_8">
      <!-- 0 -->
      <g transform="translate(29.9375 391.071946)scale(0.1 -0.1)">
       <use xlink:href="#DejaVuSans-48"/>
      </g>
     </g>
    </g>
    <g id="ytick_2">
     <g id="line2d_9">
      <g>
       <use style="stroke:#000000;stroke-width:0.8;" x="43.3" xlink:href="#m5340381c51" y="307.238341"/>
      </g>
     </g>
     <g id="text_9">
      <!-- 500 -->
      <g transform="translate(17.2125 311.03756)scale(0.1 -0.1)">
       <use xlink:href="#DejaVuSans-53"/>
       <use x="63.623047" xlink:href="#DejaVuSans-48"/>
       <use x="127.246094" xlink:href="#DejaVuSans-48"/>
      </g>
     </g>
    </g>
    <g id="ytick_3">
     <g id="line2d_10">
      <g>
       <use style="stroke:#000000;stroke-width:0.8;" x="43.3" xlink:href="#m5340381c51" y="227.203954"/>
      </g>
     </g>
     <g id="text_10">
      <!-- 1000 -->
      <g transform="translate(10.85 231.003173)scale(0.1 -0.1)">
       <use xlink:href="#DejaVuSans-49"/>
       <use x="63.623047" xlink:href="#DejaVuSans-48"/>
       <use x="127.246094" xlink:href="#DejaVuSans-48"/>
       <use x="190.869141" xlink:href="#DejaVuSans-48"/>
      </g>
     </g>
    </g>
    <g id="ytick_4">
     <g id="line2d_11">
      <g>
       <use style="stroke:#000000;stroke-width:0.8;" x="43.3" xlink:href="#m5340381c51" y="147.169568"/>
      </g>
     </g>
     <g id="text_11">
      <!-- 1500 -->
      <g transform="translate(10.85 150.968787)scale(0.1 -0.1)">
       <use xlink:href="#DejaVuSans-49"/>
       <use x="63.623047" xlink:href="#DejaVuSans-53"/>
       <use x="127.246094" xlink:href="#DejaVuSans-48"/>
       <use x="190.869141" xlink:href="#DejaVuSans-48"/>
      </g>
     </g>
    </g>
    <g id="ytick_5">
     <g id="line2d_12">
      <g>
       <use style="stroke:#000000;stroke-width:0.8;" x="43.3" xlink:href="#m5340381c51" y="67.135182"/>
      </g>
     </g>
     <g id="text_12">
      <!-- 2000 -->
      <g transform="translate(10.85 70.9344)scale(0.1 -0.1)">
       <use xlink:href="#DejaVuSans-50"/>
       <use x="63.623047" xlink:href="#DejaVuSans-48"/>
       <use x="127.246094" xlink:href="#DejaVuSans-48"/>
       <use x="190.869141" xlink:href="#DejaVuSans-48"/>
      </g>
     </g>
    </g>
   </g>
   <g id="patch_3">
    <path d="M 43.3 404.2 
L 43.3 31.8 
" style="fill:none;stroke:#000000;stroke-linecap:square;stroke-linejoin:miter;stroke-width:0.8;"/>
   </g>
   <g id="patch_4">
    <path d="M 565.2 404.2 
L 565.2 31.8 
" style="fill:none;stroke:#000000;stroke-linecap:square;stroke-linejoin:miter;stroke-width:0.8;"/>
   </g>
   <g id="patch_5">
    <path d="M 43.3 404.2 
L 565.2 404.2 
" style="fill:none;stroke:#000000;stroke-linecap:square;stroke-linejoin:miter;stroke-width:0.8;"/>
   </g>
   <g id="patch_6">
    <path d="M 43.3 31.8 
L 565.2 31.8 
" style="fill:none;stroke:#000000;stroke-linecap:square;stroke-linejoin:miter;stroke-width:0.8;"/>
   </g>
   <g id="text_13">
    <!-- 6669.TW   67% -->
    <defs>
     <path d="M 36.1875 35.984375 
Q 31.25 35.984375 28.78125 32.78125 
Q 26.3125 29.59375 26.3125 23.1875 
Q 26.3125 16.796875 28.78125 13.59375 
Q 31.25 10.40625 36.1875 10.40625 
Q 41.15625 10.40625 43.625 13.59375 
Q 46.09375 16.796875 46.09375 23.1875 
Q 46.09375 29.59375 43.625 32.78125 
Q 41.15625 35.984375 36.1875 35.984375 
z
M 59.421875 71 
L 59.421875 57.515625 
Q 54.78125 59.71875 50.671875 60.765625 
Q 46.578125 61.8125 42.671875 61.8125 
Q 34.28125 61.8125 29.59375 57.140625 
Q 24.90625 52.484375 24.125 43.3125 
Q 27.34375 45.703125 31.09375 46.890625 
Q 34.859375 48.09375 39.3125 48.09375 
Q 50.484375 48.09375 57.34375 41.546875 
Q 64.203125 35.015625 64.203125 24.421875 
Q 64.203125 12.703125 56.53125 5.640625 
Q 48.875 -1.421875 35.984375 -1.421875 
Q 21.78125 -1.421875 13.984375 8.171875 
Q 6.203125 17.78125 6.203125 35.40625 
Q 6.203125 53.46875 15.3125 63.796875 
Q 24.421875 74.125 40.28125 74.125 
Q 45.3125 74.125 50.046875 73.34375 
Q 54.78125 72.5625 59.421875 71 
z
" id="DejaVuSans-Bold-54"/>
     <path d="M 10.015625 1.609375 
L 10.015625 15.09375 
Q 14.5 12.984375 18.59375 11.9375 
Q 22.703125 10.890625 26.703125 10.890625 
Q 35.109375 10.890625 39.796875 15.546875 
Q 44.484375 20.21875 45.3125 29.390625 
Q 42 26.953125 38.234375 25.734375 
Q 34.46875 24.515625 30.078125 24.515625 
Q 18.890625 24.515625 12.03125 31.03125 
Q 5.171875 37.546875 5.171875 48.1875 
Q 5.171875 59.96875 12.8125 67.046875 
Q 20.453125 74.125 33.296875 74.125 
Q 47.5625 74.125 55.375 64.5 
Q 63.1875 54.890625 63.1875 37.3125 
Q 63.1875 19.234375 54.046875 8.90625 
Q 44.921875 -1.421875 29 -1.421875 
Q 23.875 -1.421875 19.1875 -0.65625 
Q 14.5 0.09375 10.015625 1.609375 
z
M 33.203125 36.71875 
Q 38.140625 36.71875 40.625 39.90625 
Q 43.109375 43.109375 43.109375 49.515625 
Q 43.109375 55.859375 40.625 59.078125 
Q 38.140625 62.3125 33.203125 62.3125 
Q 28.265625 62.3125 25.78125 59.078125 
Q 23.296875 55.859375 23.296875 49.515625 
Q 23.296875 43.109375 25.78125 39.90625 
Q 28.265625 36.71875 33.203125 36.71875 
z
" id="DejaVuSans-Bold-57"/>
     <path d="M 10.203125 18.890625 
L 27.78125 18.890625 
L 27.78125 0 
L 10.203125 0 
z
" id="DejaVuSans-Bold-46"/>
     <path d="M 0.484375 72.90625 
L 67.671875 72.90625 
L 67.671875 58.6875 
L 43.5 58.6875 
L 43.5 0 
L 24.703125 0 
L 24.703125 58.6875 
L 0.484375 58.6875 
z
" id="DejaVuSans-Bold-84"/>
     <path d="M 2.984375 72.90625 
L 21 72.90625 
L 33.59375 19.921875 
L 46.09375 72.90625 
L 64.203125 72.90625 
L 76.703125 19.921875 
L 89.3125 72.90625 
L 107.171875 72.90625 
L 89.984375 0 
L 68.3125 0 
L 55.078125 55.421875 
L 42 0 
L 20.3125 0 
z
" id="DejaVuSans-Bold-87"/>
     <path id="DejaVuSans-Bold-32"/>
     <path d="M 6.6875 72.90625 
L 61.625 72.90625 
L 61.625 62.3125 
L 33.203125 0 
L 14.890625 0 
L 41.796875 59.078125 
L 6.6875 59.078125 
z
" id="DejaVuSans-Bold-55"/>
     <path d="M 77.484375 30.078125 
Q 74.03125 30.078125 72.125 27.078125 
Q 70.21875 24.078125 70.21875 18.5 
Q 70.21875 12.890625 72.09375 9.890625 
Q 73.96875 6.890625 77.484375 6.890625 
Q 81 6.890625 82.859375 9.890625 
Q 84.71875 12.890625 84.71875 18.5 
Q 84.71875 24.078125 82.828125 27.078125 
Q 80.953125 30.078125 77.484375 30.078125 
z
M 77.484375 38.28125 
Q 86.578125 38.28125 91.796875 33 
Q 97.015625 27.734375 97.015625 18.5 
Q 97.015625 9.28125 91.796875 3.921875 
Q 86.578125 -1.421875 77.484375 -1.421875 
Q 68.40625 -1.421875 63.15625 3.921875 
Q 57.90625 9.28125 57.90625 18.5 
Q 57.90625 27.6875 63.15625 32.984375 
Q 68.40625 38.28125 77.484375 38.28125 
z
M 32.71875 -1.421875 
L 21.921875 -1.421875 
L 67.484375 74.21875 
L 78.328125 74.21875 
z
M 22.703125 74.21875 
Q 31.78125 74.21875 36.984375 68.921875 
Q 42.1875 63.625 42.1875 54.390625 
Q 42.1875 45.171875 36.984375 39.84375 
Q 31.78125 34.515625 22.703125 34.515625 
Q 13.625 34.515625 8.421875 39.84375 
Q 3.21875 45.171875 3.21875 54.390625 
Q 3.21875 63.625 8.421875 68.921875 
Q 13.625 74.21875 22.703125 74.21875 
z
M 22.703125 66.015625 
Q 19.1875 66.015625 17.28125 62.984375 
Q 15.375 59.96875 15.375 54.390625 
Q 15.375 48.78125 17.28125 45.71875 
Q 19.1875 42.671875 22.703125 42.671875 
Q 26.21875 42.671875 28.09375 45.71875 
Q 29.984375 48.78125 29.984375 54.390625 
Q 29.984375 59.96875 28.078125 62.984375 
Q 26.171875 66.015625 22.703125 66.015625 
z
" id="DejaVuSans-Bold-37"/>
    </defs>
    <g transform="translate(43.3 25.8)scale(0.2 -0.2)">
     <use xlink:href="#DejaVuSans-Bold-54"/>
     <use x="69.580078" xlink:href="#DejaVuSans-Bold-54"/>
     <use x="139.160156" xlink:href="#DejaVuSans-Bold-54"/>
     <use x="208.740234" xlink:href="#DejaVuSans-Bold-57"/>
     <use x="278.320312" xlink:href="#DejaVuSans-Bold-46"/>
     <use x="316.308594" xlink:href="#DejaVuSans-Bold-84"/>
     <use x="384.521484" xlink:href="#DejaVuSans-Bold-87"/>
     <use x="494.824219" xlink:href="#DejaVuSans-Bold-32"/>
     <use x="529.638672" xlink:href="#DejaVuSans-Bold-32"/>
     <use x="564.453125" xlink:href="#DejaVuSans-Bold-32"/>
     <use x="599.267578" xlink:href="#DejaVuSans-Bold-54"/>
     <use x="668.847656" xlink:href="#DejaVuSans-Bold-55"/>
     <use x="738.427734" xlink:href="#DejaVuSans-Bold-37"/>
    </g>
   </g>
  </g>
 </g>
 <defs>
  <clipPath id="pbf5db6fcec">
   <rect height="372.4" width="521.9" x="43.3" y="31.8"/>
  </clipPath>
 </defs>
</svg>
