<?xml version="1.0" encoding="utf-8" standalone="no"?>
<!DOCTYPE svg PUBLIC "-//W3C//DTD SVG 1.1//EN"
  "http://www.w3.org/Graphics/SVG/1.1/DTD/svg11.dtd">
<!-- Created with matplotlib (https://matplotlib.org/) -->
<svg height="432pt" version="1.1" viewBox="0 0 864 432" width="864pt" xmlns="http://www.w3.org/2000/svg" xmlns:xlink="http://www.w3.org/1999/xlink">
 <defs>
  <style type="text/css">
*{stroke-linecap:butt;stroke-linejoin:round;}
  </style>
 </defs>
 <g id="figure_1">
  <g id="patch_1">
   <path d="M 0 432 
L 864 432 
L 864 0 
L 0 0 
z
" style="fill:#ffffff;"/>
  </g>
  <g id="axes_1">
   <g id="patch_2">
    <path d="M 49.675 404.2 
L 853.2 404.2 
L 853.2 28.8 
L 49.675 28.8 
z
" style="fill:#ffffff;"/>
   </g>
   <g id="PolyCollection_1">
    <defs>
     <path d="M 86.198864 -44.863636 
L 86.198864 -346.078289 
L 90.201479 -340.333508 
L 96.205402 -345.478072 
L 98.206709 -346.421225 
L 100.208017 -343.934703 
L 102.209324 -339.904778 
L 104.210632 -353.795135 
L 110.214555 -352.851982 
L 112.215862 -350.794122 
L 114.21717 -355.93872 
L 116.218478 -363.05535 
L 118.219785 -363.912811 
L 124.223708 -362.626653 
L 126.225016 -362.455168 
L 130.227631 -370.343499 
L 132.228938 -367.685458 
L 138.232861 -367.256761 
L 140.234169 -366.656579 
L 142.235476 -361.511981 
L 144.236784 -365.284695 
L 146.238092 -363.655566 
L 152.242014 -362.712413 
L 154.243322 -362.712413 
L 156.24463 -361.25477 
L 158.245937 -357.39633 
L 160.247245 -362.026437 
L 166.251167 -362.026437 
L 168.252475 -360.654553 
L 170.253783 -361.25477 
L 172.25509 -357.825026 
L 174.256398 -359.625641 
L 180.260321 -351.222853 
L 182.261628 -344.277674 
L 184.262936 -344.963616 
L 186.264243 -350.536877 
L 188.265551 -352.680462 
L 194.269474 -350.879882 
L 196.270781 -348.050354 
L 198.272089 -347.364413 
L 200.273397 -350.19394 
L 202.274704 -346.935716 
L 212.281242 -344.963616 
L 214.28255 -345.992529 
L 216.283857 -343.077276 
L 224.289088 -347.535932 
L 226.290395 -362.112197 
L 228.291703 -359.625641 
L 230.293011 -358.253757 
L 236.296933 -352.680462 
L 238.298241 -355.85296 
L 240.299549 -361.083284 
L 242.300856 -361.597707 
L 244.302164 -358.853939 
L 250.306087 -362.883865 
L 252.307394 -368.285674 
L 254.308702 -368.114188 
L 256.310009 -365.627666 
L 258.311317 -364.770205 
L 264.31524 -365.198935 
L 266.316547 -362.283682 
L 268.317855 -362.197923 
L 270.319163 -365.02745 
L 272.32047 -361.597707 
L 278.324393 -360.911799 
L 280.3257 -351.737309 
L 282.327008 -354.566802 
L 284.328316 -356.538902 
L 286.329623 -354.481077 
L 292.333546 -354.052346 
L 294.334854 -353.709375 
L 296.336161 -350.794122 
L 298.337469 -353.109193 
L 300.338776 -348.3076 
L 306.342699 -345.135101 
L 308.344007 -344.363434 
L 310.345314 -341.01945 
L 314.34793 -343.591732 
L 320.351852 -343.763218 
L 322.35316 -345.306587 
L 324.354468 -343.763218 
L 326.355775 -351.823035 
L 328.357083 -360.225823 
L 334.361006 -359.28267 
L 336.362313 -358.596728 
L 338.363621 -362.283682 
L 340.364928 -362.712413 
L 342.366236 -359.882886 
L 348.370159 -357.053359 
L 350.371466 -351.051367 
L 352.372774 -349.507998 
L 354.374082 -351.908761 
L 356.375389 -359.625641 
L 362.379312 -355.767235 
L 366.381927 -356.024446 
L 368.383235 -348.822056 
L 370.384542 -346.506985 
L 376.388465 -345.906803 
L 378.389773 -346.249774 
L 380.39108 -347.021442 
L 382.392388 -350.733666 
L 384.393696 -352.80562 
L 390.397618 -359.971057 
L 392.398926 -360.402709 
L 394.400233 -354.791204 
L 396.401541 -341.15096 
L 398.402849 -340.460297 
L 404.406771 -340.028645 
L 406.408079 -346.417116 
L 408.409387 -347.366756 
L 410.410694 -348.661711 
L 412.412002 -352.201295 
L 418.415925 -354.877541 
L 420.417232 -357.553788 
L 422.41854 -355.309193 
L 424.419847 -359.194091 
L 426.421155 -357.553788 
L 432.425078 -358.417091 
L 434.426385 -360.575383 
L 436.427693 -359.539405 
L 438.429001 -359.194091 
L 440.430308 -356.690485 
L 446.434231 -368.863134 
L 448.435539 -362.561 
L 460.443384 -355.740844 
L 462.444692 -358.762439 
L 464.445999 -353.496249 
L 466.447307 -352.719283 
L 468.448615 -355.309193 
L 474.452537 -359.539405 
L 476.453845 -361.266012 
L 478.455153 -358.589765 
L 480.45646 -363.078955 
L 482.457768 -357.208473 
L 488.461691 -362.388326 
L 490.462998 -365.409887 
L 492.464306 -362.733641 
L 494.465613 -357.467451 
L 496.466921 -356.258833 
L 502.470844 -355.827181 
L 504.472151 -353.582586 
L 506.473459 -350.820003 
L 508.474767 -370.762414 
L 510.476074 -369.899111 
L 516.479997 -377.841548 
L 518.481304 -379.481817 
L 520.482612 -376.373919 
L 522.48392 -369.812774 
L 524.485227 -372.575358 
L 530.48915 -374.388301 
L 532.490458 -380.086143 
L 534.491765 -384.402693 
L 536.493073 -374.388301 
L 538.49438 -372.316381 
L 544.498303 -371.107729 
L 546.499611 -364.373944 
L 548.500918 -363.510607 
L 550.502226 -367.740819 
L 552.503534 -365.15091 
L 558.507456 -360.575383 
L 560.508764 -358.848776 
L 562.510072 -363.855955 
L 564.511379 -368.517819 
L 566.512687 -365.927876 
L 572.51661 -367.136528 
L 574.517917 -361.697663 
L 576.519225 -360.230068 
L 578.520532 -363.251629 
L 580.52184 -360.057394 
L 586.525763 -355.827181 
L 588.52707 -357.467451 
L 590.528378 -358.158114 
L 592.529686 -363.165292 
L 594.530993 -364.546584 
L 602.536224 -363.165292 
L 604.537531 -362.647304 
L 606.538839 -357.381148 
L 608.540146 -359.366731 
L 614.544069 -362.129315 
L 616.545377 -363.165292 
L 618.546684 -365.755236 
L 620.547992 -370.071752 
L 622.5493 -357.29481 
L 628.553222 -362.301989 
L 630.55453 -358.071776 
L 632.555837 -356.431507 
L 634.557145 -358.071776 
L 636.558453 -357.726462 
L 642.562375 -362.647304 
L 644.563683 -364.028595 
L 646.564991 -358.417091 
L 648.566298 -357.122136 
L 656.571529 -356.172496 
L 658.572836 -358.071776 
L 660.574144 -350.90634 
L 662.575451 -351.165317 
L 664.576759 -347.971082 
L 670.580682 -349.352374 
L 672.581989 -356.431507 
L 674.583297 -355.050215 
L 676.584605 -355.481867 
L 678.585912 -354.618564 
L 684.589835 -359.71208 
L 686.591143 -355.999856 
L 688.59245 -356.863159 
L 690.593758 -359.194091 
L 692.595065 -361.956675 
L 698.598988 -364.460247 
L 700.600296 -366.877516 
L 702.601603 -370.158089 
L 704.602911 -369.553763 
L 706.604219 -364.460247 
L 712.608141 -361.352349 
L 714.609449 -364.546584 
L 716.610757 -362.301989 
L 718.612064 -365.323584 
L 720.613372 -367.999831 
L 728.618602 -367.136528 
L 730.61991 -361.179675 
L 732.621217 -359.88472 
L 734.622525 -358.589765 
L 740.626448 -362.474663 
L 742.627755 -358.93508 
L 744.629063 -360.83436 
L 746.63037 -357.530318 
L 748.631678 -350.922235 
L 754.635601 -350.226647 
L 756.636908 -347.79209 
L 758.638216 -343.792461 
L 760.639524 -348.92242 
L 762.640831 -349.009369 
L 770.646062 -353.182895 
L 772.647369 -348.226833 
L 774.648677 -347.2704 
L 776.649984 -344.227203 
L 782.653907 -341.444852 
L 784.655215 -345.009739 
L 786.656522 -345.705327 
L 788.65783 -343.27077 
L 790.659138 -340.836213 
L 796.66306 -339.271141 
L 798.664368 -339.358089 
L 800.665676 -341.270955 
L 802.666983 -336.314893 
L 804.668291 -371.268176 
L 810.672214 -375.789496 
L 812.673521 -382.484528 
L 814.674829 -386.136364 
L 816.676136 -382.39758 
L 816.676136 -44.863636 
L 816.676136 -44.863636 
L 814.674829 -44.863636 
L 812.673521 -44.863636 
L 810.672214 -44.863636 
L 804.668291 -44.863636 
L 802.666983 -44.863636 
L 800.665676 -44.863636 
L 798.664368 -44.863636 
L 796.66306 -44.863636 
L 790.659138 -44.863636 
L 788.65783 -44.863636 
L 786.656522 -44.863636 
L 784.655215 -44.863636 
L 782.653907 -44.863636 
L 776.649984 -44.863636 
L 774.648677 -44.863636 
L 772.647369 -44.863636 
L 770.646062 -44.863636 
L 762.640831 -44.863636 
L 760.639524 -44.863636 
L 758.638216 -44.863636 
L 756.636908 -44.863636 
L 754.635601 -44.863636 
L 748.631678 -44.863636 
L 746.63037 -44.863636 
L 744.629063 -44.863636 
L 742.627755 -44.863636 
L 740.626448 -44.863636 
L 734.622525 -44.863636 
L 732.621217 -44.863636 
L 730.61991 -44.863636 
L 728.618602 -44.863636 
L 720.613372 -44.863636 
L 718.612064 -44.863636 
L 716.610757 -44.863636 
L 714.609449 -44.863636 
L 712.608141 -44.863636 
L 706.604219 -44.863636 
L 704.602911 -44.863636 
L 702.601603 -44.863636 
L 700.600296 -44.863636 
L 698.598988 -44.863636 
L 692.595065 -44.863636 
L 690.593758 -44.863636 
L 688.59245 -44.863636 
L 686.591143 -44.863636 
L 684.589835 -44.863636 
L 678.585912 -44.863636 
L 676.584605 -44.863636 
L 674.583297 -44.863636 
L 672.581989 -44.863636 
L 670.580682 -44.863636 
L 664.576759 -44.863636 
L 662.575451 -44.863636 
L 660.574144 -44.863636 
L 658.572836 -44.863636 
L 656.571529 -44.863636 
L 648.566298 -44.863636 
L 646.564991 -44.863636 
L 644.563683 -44.863636 
L 642.562375 -44.863636 
L 636.558453 -44.863636 
L 634.557145 -44.863636 
L 632.555837 -44.863636 
L 630.55453 -44.863636 
L 628.553222 -44.863636 
L 622.5493 -44.863636 
L 620.547992 -44.863636 
L 618.546684 -44.863636 
L 616.545377 -44.863636 
L 614.544069 -44.863636 
L 608.540146 -44.863636 
L 606.538839 -44.863636 
L 604.537531 -44.863636 
L 602.536224 -44.863636 
L 594.530993 -44.863636 
L 592.529686 -44.863636 
L 590.528378 -44.863636 
L 588.52707 -44.863636 
L 586.525763 -44.863636 
L 580.52184 -44.863636 
L 578.520532 -44.863636 
L 576.519225 -44.863636 
L 574.517917 -44.863636 
L 572.51661 -44.863636 
L 566.512687 -44.863636 
L 564.511379 -44.863636 
L 562.510072 -44.863636 
L 560.508764 -44.863636 
L 558.507456 -44.863636 
L 552.503534 -44.863636 
L 550.502226 -44.863636 
L 548.500918 -44.863636 
L 546.499611 -44.863636 
L 544.498303 -44.863636 
L 538.49438 -44.863636 
L 536.493073 -44.863636 
L 534.491765 -44.863636 
L 532.490458 -44.863636 
L 530.48915 -44.863636 
L 524.485227 -44.863636 
L 522.48392 -44.863636 
L 520.482612 -44.863636 
L 518.481304 -44.863636 
L 516.479997 -44.863636 
L 510.476074 -44.863636 
L 508.474767 -44.863636 
L 506.473459 -44.863636 
L 504.472151 -44.863636 
L 502.470844 -44.863636 
L 496.466921 -44.863636 
L 494.465613 -44.863636 
L 492.464306 -44.863636 
L 490.462998 -44.863636 
L 488.461691 -44.863636 
L 482.457768 -44.863636 
L 480.45646 -44.863636 
L 478.455153 -44.863636 
L 476.453845 -44.863636 
L 474.452537 -44.863636 
L 468.448615 -44.863636 
L 466.447307 -44.863636 
L 464.445999 -44.863636 
L 462.444692 -44.863636 
L 460.443384 -44.863636 
L 448.435539 -44.863636 
L 446.434231 -44.863636 
L 440.430308 -44.863636 
L 438.429001 -44.863636 
L 436.427693 -44.863636 
L 434.426385 -44.863636 
L 432.425078 -44.863636 
L 426.421155 -44.863636 
L 424.419847 -44.863636 
L 422.41854 -44.863636 
L 420.417232 -44.863636 
L 418.415925 -44.863636 
L 412.412002 -44.863636 
L 410.410694 -44.863636 
L 408.409387 -44.863636 
L 406.408079 -44.863636 
L 404.406771 -44.863636 
L 398.402849 -44.863636 
L 396.401541 -44.863636 
L 394.400233 -44.863636 
L 392.398926 -44.863636 
L 390.397618 -44.863636 
L 384.393696 -44.863636 
L 382.392388 -44.863636 
L 380.39108 -44.863636 
L 378.389773 -44.863636 
L 376.388465 -44.863636 
L 370.384542 -44.863636 
L 368.383235 -44.863636 
L 366.381927 -44.863636 
L 362.379312 -44.863636 
L 356.375389 -44.863636 
L 354.374082 -44.863636 
L 352.372774 -44.863636 
L 350.371466 -44.863636 
L 348.370159 -44.863636 
L 342.366236 -44.863636 
L 340.364928 -44.863636 
L 338.363621 -44.863636 
L 336.362313 -44.863636 
L 334.361006 -44.863636 
L 328.357083 -44.863636 
L 326.355775 -44.863636 
L 324.354468 -44.863636 
L 322.35316 -44.863636 
L 320.351852 -44.863636 
L 314.34793 -44.863636 
L 310.345314 -44.863636 
L 308.344007 -44.863636 
L 306.342699 -44.863636 
L 300.338776 -44.863636 
L 298.337469 -44.863636 
L 296.336161 -44.863636 
L 294.334854 -44.863636 
L 292.333546 -44.863636 
L 286.329623 -44.863636 
L 284.328316 -44.863636 
L 282.327008 -44.863636 
L 280.3257 -44.863636 
L 278.324393 -44.863636 
L 272.32047 -44.863636 
L 270.319163 -44.863636 
L 268.317855 -44.863636 
L 266.316547 -44.863636 
L 264.31524 -44.863636 
L 258.311317 -44.863636 
L 256.310009 -44.863636 
L 254.308702 -44.863636 
L 252.307394 -44.863636 
L 250.306087 -44.863636 
L 244.302164 -44.863636 
L 242.300856 -44.863636 
L 240.299549 -44.863636 
L 238.298241 -44.863636 
L 236.296933 -44.863636 
L 230.293011 -44.863636 
L 228.291703 -44.863636 
L 226.290395 -44.863636 
L 224.289088 -44.863636 
L 216.283857 -44.863636 
L 214.28255 -44.863636 
L 212.281242 -44.863636 
L 202.274704 -44.863636 
L 200.273397 -44.863636 
L 198.272089 -44.863636 
L 196.270781 -44.863636 
L 194.269474 -44.863636 
L 188.265551 -44.863636 
L 186.264243 -44.863636 
L 184.262936 -44.863636 
L 182.261628 -44.863636 
L 180.260321 -44.863636 
L 174.256398 -44.863636 
L 172.25509 -44.863636 
L 170.253783 -44.863636 
L 168.252475 -44.863636 
L 166.251167 -44.863636 
L 160.247245 -44.863636 
L 158.245937 -44.863636 
L 156.24463 -44.863636 
L 154.243322 -44.863636 
L 152.242014 -44.863636 
L 146.238092 -44.863636 
L 144.236784 -44.863636 
L 142.235476 -44.863636 
L 140.234169 -44.863636 
L 138.232861 -44.863636 
L 132.228938 -44.863636 
L 130.227631 -44.863636 
L 126.225016 -44.863636 
L 124.223708 -44.863636 
L 118.219785 -44.863636 
L 116.218478 -44.863636 
L 114.21717 -44.863636 
L 112.215862 -44.863636 
L 110.214555 -44.863636 
L 104.210632 -44.863636 
L 102.209324 -44.863636 
L 100.208017 -44.863636 
L 98.206709 -44.863636 
L 96.205402 -44.863636 
L 90.201479 -44.863636 
L 86.198864 -44.863636 
z
" id="m1b06e34e70" style="stroke:#f5d128;"/>
    </defs>
    <g clip-path="url(#pd69a47282f)">
     <use style="fill:#f5d128;stroke:#f5d128;" x="0" xlink:href="#m1b06e34e70" y="432"/>
    </g>
   </g>
   <g id="matplotlib.axis_1">
    <g id="xtick_1">
     <g id="line2d_1">
      <defs>
       <path d="M 0 0 
L 0 3.5 
" id="m99932bf5f2" style="stroke:#000000;stroke-width:0.8;"/>
      </defs>
      <g>
       <use style="stroke:#000000;stroke-width:0.8;" x="84.197556" xlink:href="#m99932bf5f2" y="404.2"/>
      </g>
     </g>
     <g id="text_1">
      <!-- 2022-11 -->
      <defs>
       <path d="M 19.1875 8.296875 
L 53.609375 8.296875 
L 53.609375 0 
L 7.328125 0 
L 7.328125 8.296875 
Q 12.9375 14.109375 22.625 23.890625 
Q 32.328125 33.6875 34.8125 36.53125 
Q 39.546875 41.84375 41.421875 45.53125 
Q 43.3125 49.21875 43.3125 52.78125 
Q 43.3125 58.59375 39.234375 62.25 
Q 35.15625 65.921875 28.609375 65.921875 
Q 23.96875 65.921875 18.8125 64.3125 
Q 13.671875 62.703125 7.8125 59.421875 
L 7.8125 69.390625 
Q 13.765625 71.78125 18.9375 73 
Q 24.125 74.21875 28.421875 74.21875 
Q 39.75 74.21875 46.484375 68.546875 
Q 53.21875 62.890625 53.21875 53.421875 
Q 53.21875 48.921875 51.53125 44.890625 
Q 49.859375 40.875 45.40625 35.40625 
Q 44.1875 33.984375 37.640625 27.21875 
Q 31.109375 20.453125 19.1875 8.296875 
z
" id="DejaVuSans-50"/>
       <path d="M 31.78125 66.40625 
Q 24.171875 66.40625 20.328125 58.90625 
Q 16.5 51.421875 16.5 36.375 
Q 16.5 21.390625 20.328125 13.890625 
Q 24.171875 6.390625 31.78125 6.390625 
Q 39.453125 6.390625 43.28125 13.890625 
Q 47.125 21.390625 47.125 36.375 
Q 47.125 51.421875 43.28125 58.90625 
Q 39.453125 66.40625 31.78125 66.40625 
z
M 31.78125 74.21875 
Q 44.046875 74.21875 50.515625 64.515625 
Q 56.984375 54.828125 56.984375 36.375 
Q 56.984375 17.96875 50.515625 8.265625 
Q 44.046875 -1.421875 31.78125 -1.421875 
Q 19.53125 -1.421875 13.0625 8.265625 
Q 6.59375 17.96875 6.59375 36.375 
Q 6.59375 54.828125 13.0625 64.515625 
Q 19.53125 74.21875 31.78125 74.21875 
z
" id="DejaVuSans-48"/>
       <path d="M 4.890625 31.390625 
L 31.203125 31.390625 
L 31.203125 23.390625 
L 4.890625 23.390625 
z
" id="DejaVuSans-45"/>
       <path d="M 12.40625 8.296875 
L 28.515625 8.296875 
L 28.515625 63.921875 
L 10.984375 60.40625 
L 10.984375 69.390625 
L 28.421875 72.90625 
L 38.28125 72.90625 
L 38.28125 8.296875 
L 54.390625 8.296875 
L 54.390625 0 
L 12.40625 0 
z
" id="DejaVuSans-49"/>
      </defs>
      <g transform="translate(63.30615 418.798437)scale(0.1 -0.1)">
       <use xlink:href="#DejaVuSans-50"/>
       <use x="63.623047" xlink:href="#DejaVuSans-48"/>
       <use x="127.246094" xlink:href="#DejaVuSans-50"/>
       <use x="190.869141" xlink:href="#DejaVuSans-50"/>
       <use x="254.492188" xlink:href="#DejaVuSans-45"/>
       <use x="290.576172" xlink:href="#DejaVuSans-49"/>
       <use x="354.199219" xlink:href="#DejaVuSans-49"/>
      </g>
     </g>
    </g>
    <g id="xtick_2">
     <g id="line2d_2">
      <g>
       <use style="stroke:#000000;stroke-width:0.8;" x="206.277319" xlink:href="#m99932bf5f2" y="404.2"/>
      </g>
     </g>
     <g id="text_2">
      <!-- 2023-01 -->
      <defs>
       <path d="M 40.578125 39.3125 
Q 47.65625 37.796875 51.625 33 
Q 55.609375 28.21875 55.609375 21.1875 
Q 55.609375 10.40625 48.1875 4.484375 
Q 40.765625 -1.421875 27.09375 -1.421875 
Q 22.515625 -1.421875 17.65625 -0.515625 
Q 12.796875 0.390625 7.625 2.203125 
L 7.625 11.71875 
Q 11.71875 9.328125 16.59375 8.109375 
Q 21.484375 6.890625 26.8125 6.890625 
Q 36.078125 6.890625 40.9375 10.546875 
Q 45.796875 14.203125 45.796875 21.1875 
Q 45.796875 27.640625 41.28125 31.265625 
Q 36.765625 34.90625 28.71875 34.90625 
L 20.21875 34.90625 
L 20.21875 43.015625 
L 29.109375 43.015625 
Q 36.375 43.015625 40.234375 45.921875 
Q 44.09375 48.828125 44.09375 54.296875 
Q 44.09375 59.90625 40.109375 62.90625 
Q 36.140625 65.921875 28.71875 65.921875 
Q 24.65625 65.921875 20.015625 65.03125 
Q 15.375 64.15625 9.8125 62.3125 
L 9.8125 71.09375 
Q 15.4375 72.65625 20.34375 73.4375 
Q 25.25 74.21875 29.59375 74.21875 
Q 40.828125 74.21875 47.359375 69.109375 
Q 53.90625 64.015625 53.90625 55.328125 
Q 53.90625 49.265625 50.4375 45.09375 
Q 46.96875 40.921875 40.578125 39.3125 
z
" id="DejaVuSans-51"/>
      </defs>
      <g transform="translate(185.385913 418.798437)scale(0.1 -0.1)">
       <use xlink:href="#DejaVuSans-50"/>
       <use x="63.623047" xlink:href="#DejaVuSans-48"/>
       <use x="127.246094" xlink:href="#DejaVuSans-50"/>
       <use x="190.869141" xlink:href="#DejaVuSans-51"/>
       <use x="254.492188" xlink:href="#DejaVuSans-45"/>
       <use x="290.576172" xlink:href="#DejaVuSans-48"/>
       <use x="354.199219" xlink:href="#DejaVuSans-49"/>
      </g>
     </g>
    </g>
    <g id="xtick_3">
     <g id="line2d_3">
      <g>
       <use style="stroke:#000000;stroke-width:0.8;" x="324.354468" xlink:href="#m99932bf5f2" y="404.2"/>
      </g>
     </g>
     <g id="text_3">
      <!-- 2023-03 -->
      <g transform="translate(303.463061 418.798437)scale(0.1 -0.1)">
       <use xlink:href="#DejaVuSans-50"/>
       <use x="63.623047" xlink:href="#DejaVuSans-48"/>
       <use x="127.246094" xlink:href="#DejaVuSans-50"/>
       <use x="190.869141" xlink:href="#DejaVuSans-51"/>
       <use x="254.492188" xlink:href="#DejaVuSans-45"/>
       <use x="290.576172" xlink:href="#DejaVuSans-48"/>
       <use x="354.199219" xlink:href="#DejaVuSans-51"/>
      </g>
     </g>
    </g>
    <g id="xtick_4">
     <g id="line2d_4">
      <g>
       <use style="stroke:#000000;stroke-width:0.8;" x="446.434231" xlink:href="#m99932bf5f2" y="404.2"/>
      </g>
     </g>
     <g id="text_4">
      <!-- 2023-05 -->
      <defs>
       <path d="M 10.796875 72.90625 
L 49.515625 72.90625 
L 49.515625 64.59375 
L 19.828125 64.59375 
L 19.828125 46.734375 
Q 21.96875 47.46875 24.109375 47.828125 
Q 26.265625 48.1875 28.421875 48.1875 
Q 40.625 48.1875 47.75 41.5 
Q 54.890625 34.8125 54.890625 23.390625 
Q 54.890625 11.625 47.5625 5.09375 
Q 40.234375 -1.421875 26.90625 -1.421875 
Q 22.3125 -1.421875 17.546875 -0.640625 
Q 12.796875 0.140625 7.71875 1.703125 
L 7.71875 11.625 
Q 12.109375 9.234375 16.796875 8.0625 
Q 21.484375 6.890625 26.703125 6.890625 
Q 35.15625 6.890625 40.078125 11.328125 
Q 45.015625 15.765625 45.015625 23.390625 
Q 45.015625 31 40.078125 35.4375 
Q 35.15625 39.890625 26.703125 39.890625 
Q 22.75 39.890625 18.8125 39.015625 
Q 14.890625 38.140625 10.796875 36.28125 
z
" id="DejaVuSans-53"/>
      </defs>
      <g transform="translate(425.542825 418.798437)scale(0.1 -0.1)">
       <use xlink:href="#DejaVuSans-50"/>
       <use x="63.623047" xlink:href="#DejaVuSans-48"/>
       <use x="127.246094" xlink:href="#DejaVuSans-50"/>
       <use x="190.869141" xlink:href="#DejaVuSans-51"/>
       <use x="254.492188" xlink:href="#DejaVuSans-45"/>
       <use x="290.576172" xlink:href="#DejaVuSans-48"/>
       <use x="354.199219" xlink:href="#DejaVuSans-53"/>
      </g>
     </g>
    </g>
    <g id="xtick_5">
     <g id="line2d_5">
      <g>
       <use style="stroke:#000000;stroke-width:0.8;" x="568.513994" xlink:href="#m99932bf5f2" y="404.2"/>
      </g>
     </g>
     <g id="text_5">
      <!-- 2023-07 -->
      <defs>
       <path d="M 8.203125 72.90625 
L 55.078125 72.90625 
L 55.078125 68.703125 
L 28.609375 0 
L 18.3125 0 
L 43.21875 64.59375 
L 8.203125 64.59375 
z
" id="DejaVuSans-55"/>
      </defs>
      <g transform="translate(547.622588 418.798437)scale(0.1 -0.1)">
       <use xlink:href="#DejaVuSans-50"/>
       <use x="63.623047" xlink:href="#DejaVuSans-48"/>
       <use x="127.246094" xlink:href="#DejaVuSans-50"/>
       <use x="190.869141" xlink:href="#DejaVuSans-51"/>
       <use x="254.492188" xlink:href="#DejaVuSans-45"/>
       <use x="290.576172" xlink:href="#DejaVuSans-48"/>
       <use x="354.199219" xlink:href="#DejaVuSans-55"/>
      </g>
     </g>
    </g>
    <g id="xtick_6">
     <g id="line2d_6">
      <g>
       <use style="stroke:#000000;stroke-width:0.8;" x="692.595065" xlink:href="#m99932bf5f2" y="404.2"/>
      </g>
     </g>
     <g id="text_6">
      <!-- 2023-09 -->
      <defs>
       <path d="M 10.984375 1.515625 
L 10.984375 10.5 
Q 14.703125 8.734375 18.5 7.8125 
Q 22.3125 6.890625 25.984375 6.890625 
Q 35.75 6.890625 40.890625 13.453125 
Q 46.046875 20.015625 46.78125 33.40625 
Q 43.953125 29.203125 39.59375 26.953125 
Q 35.25 24.703125 29.984375 24.703125 
Q 19.046875 24.703125 12.671875 31.3125 
Q 6.296875 37.9375 6.296875 49.421875 
Q 6.296875 60.640625 12.9375 67.421875 
Q 19.578125 74.21875 30.609375 74.21875 
Q 43.265625 74.21875 49.921875 64.515625 
Q 56.59375 54.828125 56.59375 36.375 
Q 56.59375 19.140625 48.40625 8.859375 
Q 40.234375 -1.421875 26.421875 -1.421875 
Q 22.703125 -1.421875 18.890625 -0.6875 
Q 15.09375 0.046875 10.984375 1.515625 
z
M 30.609375 32.421875 
Q 37.25 32.421875 41.125 36.953125 
Q 45.015625 41.5 45.015625 49.421875 
Q 45.015625 57.28125 41.125 61.84375 
Q 37.25 66.40625 30.609375 66.40625 
Q 23.96875 66.40625 20.09375 61.84375 
Q 16.21875 57.28125 16.21875 49.421875 
Q 16.21875 41.5 20.09375 36.953125 
Q 23.96875 32.421875 30.609375 32.421875 
z
" id="DejaVuSans-57"/>
      </defs>
      <g transform="translate(671.703659 418.798437)scale(0.1 -0.1)">
       <use xlink:href="#DejaVuSans-50"/>
       <use x="63.623047" xlink:href="#DejaVuSans-48"/>
       <use x="127.246094" xlink:href="#DejaVuSans-50"/>
       <use x="190.869141" xlink:href="#DejaVuSans-51"/>
       <use x="254.492188" xlink:href="#DejaVuSans-45"/>
       <use x="290.576172" xlink:href="#DejaVuSans-48"/>
       <use x="354.199219" xlink:href="#DejaVuSans-57"/>
      </g>
     </g>
    </g>
    <g id="xtick_7">
     <g id="line2d_7">
      <g>
       <use style="stroke:#000000;stroke-width:0.8;" x="814.674829" xlink:href="#m99932bf5f2" y="404.2"/>
      </g>
     </g>
     <g id="text_7">
      <!-- 2023-11 -->
      <g transform="translate(793.783423 418.798437)scale(0.1 -0.1)">
       <use xlink:href="#DejaVuSans-50"/>
       <use x="63.623047" xlink:href="#DejaVuSans-48"/>
       <use x="127.246094" xlink:href="#DejaVuSans-50"/>
       <use x="190.869141" xlink:href="#DejaVuSans-51"/>
       <use x="254.492188" xlink:href="#DejaVuSans-45"/>
       <use x="290.576172" xlink:href="#DejaVuSans-49"/>
       <use x="354.199219" xlink:href="#DejaVuSans-49"/>
      </g>
     </g>
    </g>
   </g>
   <g id="matplotlib.axis_2">
    <g id="ytick_1">
     <g id="line2d_8">
      <defs>
       <path d="M 0 0 
L -3.5 0 
" id="m6cae62f365" style="stroke:#000000;stroke-width:0.8;"/>
      </defs>
      <g>
       <use style="stroke:#000000;stroke-width:0.8;" x="49.675" xlink:href="#m6cae62f365" y="387.136364"/>
      </g>
     </g>
     <g id="text_8">
      <!-- 0 -->
      <g transform="translate(36.3125 390.935582)scale(0.1 -0.1)">
       <use xlink:href="#DejaVuSans-48"/>
      </g>
     </g>
    </g>
    <g id="ytick_2">
     <g id="line2d_9">
      <g>
       <use style="stroke:#000000;stroke-width:0.8;" x="49.675" xlink:href="#m6cae62f365" y="343.662131"/>
      </g>
     </g>
     <g id="text_9">
      <!-- 2500 -->
      <g transform="translate(17.225 347.46135)scale(0.1 -0.1)">
       <use xlink:href="#DejaVuSans-50"/>
       <use x="63.623047" xlink:href="#DejaVuSans-53"/>
       <use x="127.246094" xlink:href="#DejaVuSans-48"/>
       <use x="190.869141" xlink:href="#DejaVuSans-48"/>
      </g>
     </g>
    </g>
    <g id="ytick_3">
     <g id="line2d_10">
      <g>
       <use style="stroke:#000000;stroke-width:0.8;" x="49.675" xlink:href="#m6cae62f365" y="300.187898"/>
      </g>
     </g>
     <g id="text_10">
      <!-- 5000 -->
      <g transform="translate(17.225 303.987117)scale(0.1 -0.1)">
       <use xlink:href="#DejaVuSans-53"/>
       <use x="63.623047" xlink:href="#DejaVuSans-48"/>
       <use x="127.246094" xlink:href="#DejaVuSans-48"/>
       <use x="190.869141" xlink:href="#DejaVuSans-48"/>
      </g>
     </g>
    </g>
    <g id="ytick_4">
     <g id="line2d_11">
      <g>
       <use style="stroke:#000000;stroke-width:0.8;" x="49.675" xlink:href="#m6cae62f365" y="256.713665"/>
      </g>
     </g>
     <g id="text_11">
      <!-- 7500 -->
      <g transform="translate(17.225 260.512884)scale(0.1 -0.1)">
       <use xlink:href="#DejaVuSans-55"/>
       <use x="63.623047" xlink:href="#DejaVuSans-53"/>
       <use x="127.246094" xlink:href="#DejaVuSans-48"/>
       <use x="190.869141" xlink:href="#DejaVuSans-48"/>
      </g>
     </g>
    </g>
    <g id="ytick_5">
     <g id="line2d_12">
      <g>
       <use style="stroke:#000000;stroke-width:0.8;" x="49.675" xlink:href="#m6cae62f365" y="213.239433"/>
      </g>
     </g>
     <g id="text_12">
      <!-- 10000 -->
      <g transform="translate(10.8625 217.038651)scale(0.1 -0.1)">
       <use xlink:href="#DejaVuSans-49"/>
       <use x="63.623047" xlink:href="#DejaVuSans-48"/>
       <use x="127.246094" xlink:href="#DejaVuSans-48"/>
       <use x="190.869141" xlink:href="#DejaVuSans-48"/>
       <use x="254.492188" xlink:href="#DejaVuSans-48"/>
      </g>
     </g>
    </g>
    <g id="ytick_6">
     <g id="line2d_13">
      <g>
       <use style="stroke:#000000;stroke-width:0.8;" x="49.675" xlink:href="#m6cae62f365" y="169.7652"/>
      </g>
     </g>
     <g id="text_13">
      <!-- 12500 -->
      <g transform="translate(10.8625 173.564419)scale(0.1 -0.1)">
       <use xlink:href="#DejaVuSans-49"/>
       <use x="63.623047" xlink:href="#DejaVuSans-50"/>
       <use x="127.246094" xlink:href="#DejaVuSans-53"/>
       <use x="190.869141" xlink:href="#DejaVuSans-48"/>
       <use x="254.492188" xlink:href="#DejaVuSans-48"/>
      </g>
     </g>
    </g>
    <g id="ytick_7">
     <g id="line2d_14">
      <g>
       <use style="stroke:#000000;stroke-width:0.8;" x="49.675" xlink:href="#m6cae62f365" y="126.290967"/>
      </g>
     </g>
     <g id="text_14">
      <!-- 15000 -->
      <g transform="translate(10.8625 130.090186)scale(0.1 -0.1)">
       <use xlink:href="#DejaVuSans-49"/>
       <use x="63.623047" xlink:href="#DejaVuSans-53"/>
       <use x="127.246094" xlink:href="#DejaVuSans-48"/>
       <use x="190.869141" xlink:href="#DejaVuSans-48"/>
       <use x="254.492188" xlink:href="#DejaVuSans-48"/>
      </g>
     </g>
    </g>
    <g id="ytick_8">
     <g id="line2d_15">
      <g>
       <use style="stroke:#000000;stroke-width:0.8;" x="49.675" xlink:href="#m6cae62f365" y="82.816734"/>
      </g>
     </g>
     <g id="text_15">
      <!-- 17500 -->
      <g transform="translate(10.8625 86.615953)scale(0.1 -0.1)">
       <use xlink:href="#DejaVuSans-49"/>
       <use x="63.623047" xlink:href="#DejaVuSans-55"/>
       <use x="127.246094" xlink:href="#DejaVuSans-53"/>
       <use x="190.869141" xlink:href="#DejaVuSans-48"/>
       <use x="254.492188" xlink:href="#DejaVuSans-48"/>
      </g>
     </g>
    </g>
    <g id="ytick_9">
     <g id="line2d_16">
      <g>
       <use style="stroke:#000000;stroke-width:0.8;" x="49.675" xlink:href="#m6cae62f365" y="39.342501"/>
      </g>
     </g>
     <g id="text_16">
      <!-- 20000 -->
      <g transform="translate(10.8625 43.14172)scale(0.1 -0.1)">
       <use xlink:href="#DejaVuSans-50"/>
       <use x="63.623047" xlink:href="#DejaVuSans-48"/>
       <use x="127.246094" xlink:href="#DejaVuSans-48"/>
       <use x="190.869141" xlink:href="#DejaVuSans-48"/>
       <use x="254.492188" xlink:href="#DejaVuSans-48"/>
      </g>
     </g>
    </g>
   </g>
   <g id="patch_3">
    <path d="M 49.675 404.2 
L 49.675 28.8 
" style="fill:none;stroke:#000000;stroke-linecap:square;stroke-linejoin:miter;stroke-width:0.8;"/>
   </g>
   <g id="patch_4">
    <path d="M 853.2 404.2 
L 853.2 28.8 
" style="fill:none;stroke:#000000;stroke-linecap:square;stroke-linejoin:miter;stroke-width:0.8;"/>
   </g>
   <g id="patch_5">
    <path d="M 49.675 404.2 
L 853.2 404.2 
" style="fill:none;stroke:#000000;stroke-linecap:square;stroke-linejoin:miter;stroke-width:0.8;"/>
   </g>
   <g id="patch_6">
    <path d="M 49.675 28.8 
L 853.2 28.8 
" style="fill:none;stroke:#000000;stroke-linecap:square;stroke-linejoin:miter;stroke-width:0.8;"/>
   </g>
   <g id="text_17">
    <!-- 6702.T - 12.06% -->
    <defs>
     <path d="M 36.1875 35.984375 
Q 31.25 35.984375 28.78125 32.78125 
Q 26.3125 29.59375 26.3125 23.1875 
Q 26.3125 16.796875 28.78125 13.59375 
Q 31.25 10.40625 36.1875 10.40625 
Q 41.15625 10.40625 43.625 13.59375 
Q 46.09375 16.796875 46.09375 23.1875 
Q 46.09375 29.59375 43.625 32.78125 
Q 41.15625 35.984375 36.1875 35.984375 
z
M 59.421875 71 
L 59.421875 57.515625 
Q 54.78125 59.71875 50.671875 60.765625 
Q 46.578125 61.8125 42.671875 61.8125 
Q 34.28125 61.8125 29.59375 57.140625 
Q 24.90625 52.484375 24.125 43.3125 
Q 27.34375 45.703125 31.09375 46.890625 
Q 34.859375 48.09375 39.3125 48.09375 
Q 50.484375 48.09375 57.34375 41.546875 
Q 64.203125 35.015625 64.203125 24.421875 
Q 64.203125 12.703125 56.53125 5.640625 
Q 48.875 -1.421875 35.984375 -1.421875 
Q 21.78125 -1.421875 13.984375 8.171875 
Q 6.203125 17.78125 6.203125 35.40625 
Q 6.203125 53.46875 15.3125 63.796875 
Q 24.421875 74.125 40.28125 74.125 
Q 45.3125 74.125 50.046875 73.34375 
Q 54.78125 72.5625 59.421875 71 
z
" id="DejaVuSans-Bold-54"/>
     <path d="M 6.6875 72.90625 
L 61.625 72.90625 
L 61.625 62.3125 
L 33.203125 0 
L 14.890625 0 
L 41.796875 59.078125 
L 6.6875 59.078125 
z
" id="DejaVuSans-Bold-55"/>
     <path d="M 46 36.53125 
Q 46 50.203125 43.4375 55.78125 
Q 40.875 61.375 34.8125 61.375 
Q 28.765625 61.375 26.171875 55.78125 
Q 23.578125 50.203125 23.578125 36.53125 
Q 23.578125 22.703125 26.171875 17.03125 
Q 28.765625 11.375 34.8125 11.375 
Q 40.828125 11.375 43.40625 17.03125 
Q 46 22.703125 46 36.53125 
z
M 64.796875 36.375 
Q 64.796875 18.265625 56.984375 8.421875 
Q 49.171875 -1.421875 34.8125 -1.421875 
Q 20.40625 -1.421875 12.59375 8.421875 
Q 4.78125 18.265625 4.78125 36.375 
Q 4.78125 54.546875 12.59375 64.375 
Q 20.40625 74.21875 34.8125 74.21875 
Q 49.171875 74.21875 56.984375 64.375 
Q 64.796875 54.546875 64.796875 36.375 
z
" id="DejaVuSans-Bold-48"/>
     <path d="M 28.8125 13.8125 
L 60.890625 13.8125 
L 60.890625 0 
L 7.90625 0 
L 7.90625 13.8125 
L 34.515625 37.3125 
Q 38.09375 40.53125 39.796875 43.609375 
Q 41.5 46.6875 41.5 50 
Q 41.5 55.125 38.0625 58.25 
Q 34.625 61.375 28.90625 61.375 
Q 24.515625 61.375 19.28125 59.5 
Q 14.0625 57.625 8.109375 53.90625 
L 8.109375 69.921875 
Q 14.453125 72.015625 20.65625 73.109375 
Q 26.859375 74.21875 32.8125 74.21875 
Q 45.90625 74.21875 53.15625 68.453125 
Q 60.40625 62.703125 60.40625 52.390625 
Q 60.40625 46.4375 57.328125 41.28125 
Q 54.25 36.140625 44.390625 27.484375 
z
" id="DejaVuSans-Bold-50"/>
     <path d="M 10.203125 18.890625 
L 27.78125 18.890625 
L 27.78125 0 
L 10.203125 0 
z
" id="DejaVuSans-Bold-46"/>
     <path d="M 0.484375 72.90625 
L 67.671875 72.90625 
L 67.671875 58.6875 
L 43.5 58.6875 
L 43.5 0 
L 24.703125 0 
L 24.703125 58.6875 
L 0.484375 58.6875 
z
" id="DejaVuSans-Bold-84"/>
     <path id="DejaVuSans-Bold-32"/>
     <path d="M 5.421875 35.890625 
L 36.078125 35.890625 
L 36.078125 21.6875 
L 5.421875 21.6875 
z
" id="DejaVuSans-Bold-45"/>
     <path d="M 11.71875 12.984375 
L 28.328125 12.984375 
L 28.328125 60.109375 
L 11.28125 56.59375 
L 11.28125 69.390625 
L 28.21875 72.90625 
L 46.09375 72.90625 
L 46.09375 12.984375 
L 62.703125 12.984375 
L 62.703125 0 
L 11.71875 0 
z
" id="DejaVuSans-Bold-49"/>
     <path d="M 77.484375 30.078125 
Q 74.03125 30.078125 72.125 27.078125 
Q 70.21875 24.078125 70.21875 18.5 
Q 70.21875 12.890625 72.09375 9.890625 
Q 73.96875 6.890625 77.484375 6.890625 
Q 81 6.890625 82.859375 9.890625 
Q 84.71875 12.890625 84.71875 18.5 
Q 84.71875 24.078125 82.828125 27.078125 
Q 80.953125 30.078125 77.484375 30.078125 
z
M 77.484375 38.28125 
Q 86.578125 38.28125 91.796875 33 
Q 97.015625 27.734375 97.015625 18.5 
Q 97.015625 9.28125 91.796875 3.921875 
Q 86.578125 -1.421875 77.484375 -1.421875 
Q 68.40625 -1.421875 63.15625 3.921875 
Q 57.90625 9.28125 57.90625 18.5 
Q 57.90625 27.6875 63.15625 32.984375 
Q 68.40625 38.28125 77.484375 38.28125 
z
M 32.71875 -1.421875 
L 21.921875 -1.421875 
L 67.484375 74.21875 
L 78.328125 74.21875 
z
M 22.703125 74.21875 
Q 31.78125 74.21875 36.984375 68.921875 
Q 42.1875 63.625 42.1875 54.390625 
Q 42.1875 45.171875 36.984375 39.84375 
Q 31.78125 34.515625 22.703125 34.515625 
Q 13.625 34.515625 8.421875 39.84375 
Q 3.21875 45.171875 3.21875 54.390625 
Q 3.21875 63.625 8.421875 68.921875 
Q 13.625 74.21875 22.703125 74.21875 
z
M 22.703125 66.015625 
Q 19.1875 66.015625 17.28125 62.984375 
Q 15.375 59.96875 15.375 54.390625 
Q 15.375 48.78125 17.28125 45.71875 
Q 19.1875 42.671875 22.703125 42.671875 
Q 26.21875 42.671875 28.09375 45.71875 
Q 29.984375 48.78125 29.984375 54.390625 
Q 29.984375 59.96875 28.078125 62.984375 
Q 26.171875 66.015625 22.703125 66.015625 
z
" id="DejaVuSans-Bold-37"/>
    </defs>
    <g transform="translate(49.675 22.8)scale(0.16 -0.16)">
     <use xlink:href="#DejaVuSans-Bold-54"/>
     <use x="69.580078" xlink:href="#DejaVuSans-Bold-55"/>
     <use x="139.160156" xlink:href="#DejaVuSans-Bold-48"/>
     <use x="208.740234" xlink:href="#DejaVuSans-Bold-50"/>
     <use x="278.320312" xlink:href="#DejaVuSans-Bold-46"/>
     <use x="316.308594" xlink:href="#DejaVuSans-Bold-84"/>
     <use x="384.521484" xlink:href="#DejaVuSans-Bold-32"/>
     <use x="419.335938" xlink:href="#DejaVuSans-Bold-45"/>
     <use x="460.839844" xlink:href="#DejaVuSans-Bold-32"/>
     <use x="495.654297" xlink:href="#DejaVuSans-Bold-49"/>
     <use x="565.234375" xlink:href="#DejaVuSans-Bold-50"/>
     <use x="634.814453" xlink:href="#DejaVuSans-Bold-46"/>
     <use x="672.802734" xlink:href="#DejaVuSans-Bold-48"/>
     <use x="742.382812" xlink:href="#DejaVuSans-Bold-54"/>
     <use x="811.962891" xlink:href="#DejaVuSans-Bold-37"/>
    </g>
   </g>
  </g>
 </g>
 <defs>
  <clipPath id="pd69a47282f">
   <rect height="375.4" width="803.525" x="49.675" y="28.8"/>
  </clipPath>
 </defs>
</svg>
