<?xml version="1.0" encoding="utf-8" standalone="no"?>
<!DOCTYPE svg PUBLIC "-//W3C//DTD SVG 1.1//EN"
  "http://www.w3.org/Graphics/SVG/1.1/DTD/svg11.dtd">
<!-- Created with matplotlib (https://matplotlib.org/) -->
<svg height="432pt" version="1.1" viewBox="0 0 864 432" width="864pt" xmlns="http://www.w3.org/2000/svg" xmlns:xlink="http://www.w3.org/1999/xlink">
 <defs>
  <style type="text/css">
*{stroke-linecap:butt;stroke-linejoin:round;}
  </style>
 </defs>
 <g id="figure_1">
  <g id="patch_1">
   <path d="M 0 432 
L 864 432 
L 864 0 
L 0 0 
z
" style="fill:none;"/>
  </g>
  <g id="axes_1">
   <g id="patch_2">
    <path d="M 113.425 385.2 
L 840.323864 385.2 
L 840.323864 88.8 
L 113.425 88.8 
z
" style="fill:none;"/>
   </g>
   <g id="PolyCollection_1">
    <path clip-path="url(#p1beaa64803)" d="M 146.465857 1668.834109 
L 146.465857 287.095136 
L 150.057255 267.323468 
L 153.648653 293.178738 
L 164.422845 270.365194 
L 168.014243 257.057381 
L 171.60564 268.844331 
L 175.197038 292.038128 
L 178.788435 297.361223 
L 189.562628 299.26234 
L 193.154026 309.148173 
L 196.745423 321.315377 
L 200.336821 233.483332 
L 203.928218 237.285564 
L 214.702411 202.304817 
L 218.293808 195.080606 
L 221.885206 208.768672 
L 225.476603 237.665817 
L 229.068001 225.498614 
L 239.842194 217.513896 
L 243.433591 192.418983 
L 247.024989 173.407672 
L 250.616386 217.513896 
L 254.207784 226.639224 
L 264.981977 231.962469 
L 268.573374 261.61997 
L 272.164772 265.422352 
L 275.756169 246.791294 
L 279.347567 258.197991 
L 290.121759 278.349912 
L 293.713157 285.954377 
L 297.304554 263.90134 
L 300.895952 243.369165 
L 304.48735 254.776012 
L 315.261542 249.452767 
L 318.85294 273.40707 
L 322.444337 279.870775 
L 326.035735 266.562962 
L 329.627132 280.631281 
L 340.401325 299.26234 
L 343.992723 292.038128 
L 347.58412 288.996252 
L 351.175518 266.943215 
L 354.766915 260.859614 
L 369.132505 266.943215 
L 372.723903 269.224585 
L 376.3153 292.418232 
L 379.906698 283.673157 
L 390.680891 271.505954 
L 394.272288 266.943215 
L 397.863686 255.536369 
L 401.455083 236.525207 
L 405.046481 292.798485 
L 415.820674 270.745448 
L 419.412071 289.376506 
L 423.003469 296.600717 
L 426.594866 289.376506 
L 430.186264 290.897369 
L 440.960456 269.224585 
L 444.551854 263.140983 
L 448.143251 287.855643 
L 451.734649 293.558991 
L 466.100239 297.741477 
L 469.691637 289.376506 
L 473.283034 320.935124 
L 476.874432 319.794514 
L 480.465829 333.862833 
L 491.240022 327.779231 
L 494.83142 296.600717 
L 498.422817 302.684319 
L 502.014215 300.783203 
L 505.605612 304.585435 
L 516.379805 282.152145 
L 519.971202 298.501833 
L 523.5626 294.699601 
L 527.153997 284.433514 
L 530.745395 272.266311 
L 541.519588 261.239867 
L 545.110985 250.593527 
L 548.702383 236.144954 
L 552.29378 238.806576 
L 555.885178 261.239867 
L 566.659371 274.927933 
L 570.250768 260.859614 
L 573.842166 270.745448 
L 577.433563 257.437485 
L 581.024961 245.650535 
L 595.390551 249.452767 
L 598.981948 275.688439 
L 602.573346 281.391788 
L 606.164744 287.095136 
L 616.938936 269.984941 
L 620.530334 285.574273 
L 624.121731 277.209302 
L 627.713129 291.76124 
L 631.304526 320.865116 
L 642.078719 323.928682 
L 645.670117 334.651163 
L 649.261514 352.266667 
L 652.852912 329.672868 
L 656.444309 329.289922 
L 670.809899 310.908527 
L 674.401297 332.736434 
L 677.992694 336.948837 
L 681.584092 350.351938 
L 692.358285 362.606202 
L 695.949682 346.905426 
L 699.54108 343.84186 
L 703.132477 354.564341 
L 706.723875 365.286822 
L 717.498068 372.179845 
L 721.089465 371.796899 
L 724.680863 363.372093 
L 728.27226 385.2 
L 731.863658 231.255814 
L 742.63785 211.342636 
L 746.229248 181.855814 
L 749.820645 165.772093 
L 753.412043 182.23876 
L 767.777633 154.283721 
L 771.369031 187.982946 
L 774.960428 173.813953 
L 778.551826 164.623256 
L 782.143223 160.793798 
L 792.917416 178.792248 
L 796.508814 175.728682 
L 800.100211 151.220155 
L 803.691609 131.306977 
L 807.283006 88.8 
L 807.283006 1668.834109 
L 807.283006 1668.834109 
L 803.691609 1668.834109 
L 800.100211 1668.834109 
L 796.508814 1668.834109 
L 792.917416 1668.834109 
L 782.143223 1668.834109 
L 778.551826 1668.834109 
L 774.960428 1668.834109 
L 771.369031 1668.834109 
L 767.777633 1668.834109 
L 753.412043 1668.834109 
L 749.820645 1668.834109 
L 746.229248 1668.834109 
L 742.63785 1668.834109 
L 731.863658 1668.834109 
L 728.27226 1668.834109 
L 724.680863 1668.834109 
L 721.089465 1668.834109 
L 717.498068 1668.834109 
L 706.723875 1668.834109 
L 703.132477 1668.834109 
L 699.54108 1668.834109 
L 695.949682 1668.834109 
L 692.358285 1668.834109 
L 681.584092 1668.834109 
L 677.992694 1668.834109 
L 674.401297 1668.834109 
L 670.809899 1668.834109 
L 656.444309 1668.834109 
L 652.852912 1668.834109 
L 649.261514 1668.834109 
L 645.670117 1668.834109 
L 642.078719 1668.834109 
L 631.304526 1668.834109 
L 627.713129 1668.834109 
L 624.121731 1668.834109 
L 620.530334 1668.834109 
L 616.938936 1668.834109 
L 606.164744 1668.834109 
L 602.573346 1668.834109 
L 598.981948 1668.834109 
L 595.390551 1668.834109 
L 581.024961 1668.834109 
L 577.433563 1668.834109 
L 573.842166 1668.834109 
L 570.250768 1668.834109 
L 566.659371 1668.834109 
L 555.885178 1668.834109 
L 552.29378 1668.834109 
L 548.702383 1668.834109 
L 545.110985 1668.834109 
L 541.519588 1668.834109 
L 530.745395 1668.834109 
L 527.153997 1668.834109 
L 523.5626 1668.834109 
L 519.971202 1668.834109 
L 516.379805 1668.834109 
L 505.605612 1668.834109 
L 502.014215 1668.834109 
L 498.422817 1668.834109 
L 494.83142 1668.834109 
L 491.240022 1668.834109 
L 480.465829 1668.834109 
L 476.874432 1668.834109 
L 473.283034 1668.834109 
L 469.691637 1668.834109 
L 466.100239 1668.834109 
L 451.734649 1668.834109 
L 448.143251 1668.834109 
L 444.551854 1668.834109 
L 440.960456 1668.834109 
L 430.186264 1668.834109 
L 426.594866 1668.834109 
L 423.003469 1668.834109 
L 419.412071 1668.834109 
L 415.820674 1668.834109 
L 405.046481 1668.834109 
L 401.455083 1668.834109 
L 397.863686 1668.834109 
L 394.272288 1668.834109 
L 390.680891 1668.834109 
L 379.906698 1668.834109 
L 376.3153 1668.834109 
L 372.723903 1668.834109 
L 369.132505 1668.834109 
L 354.766915 1668.834109 
L 351.175518 1668.834109 
L 347.58412 1668.834109 
L 343.992723 1668.834109 
L 340.401325 1668.834109 
L 329.627132 1668.834109 
L 326.035735 1668.834109 
L 322.444337 1668.834109 
L 318.85294 1668.834109 
L 315.261542 1668.834109 
L 304.48735 1668.834109 
L 300.895952 1668.834109 
L 297.304554 1668.834109 
L 293.713157 1668.834109 
L 290.121759 1668.834109 
L 279.347567 1668.834109 
L 275.756169 1668.834109 
L 272.164772 1668.834109 
L 268.573374 1668.834109 
L 264.981977 1668.834109 
L 254.207784 1668.834109 
L 250.616386 1668.834109 
L 247.024989 1668.834109 
L 243.433591 1668.834109 
L 239.842194 1668.834109 
L 229.068001 1668.834109 
L 225.476603 1668.834109 
L 221.885206 1668.834109 
L 218.293808 1668.834109 
L 214.702411 1668.834109 
L 203.928218 1668.834109 
L 200.336821 1668.834109 
L 196.745423 1668.834109 
L 193.154026 1668.834109 
L 189.562628 1668.834109 
L 178.788435 1668.834109 
L 175.197038 1668.834109 
L 171.60564 1668.834109 
L 168.014243 1668.834109 
L 164.422845 1668.834109 
L 153.648653 1668.834109 
L 150.057255 1668.834109 
L 146.465857 1668.834109 
z
" style="fill:#0000ff;fill-opacity:0.1;stroke:#0000ff;stroke-opacity:0.1;"/>
   </g>
   <g id="matplotlib.axis_1">
    <g id="xtick_1">
     <g id="line2d_1">
      <defs>
       <path d="M 0 0 
L 0 3.5 
" id="md65948a32f" style="stroke:#000000;stroke-width:0.8;"/>
      </defs>
      <g>
       <use style="stroke:#000000;stroke-width:0.8;" x="146.465857" xlink:href="#md65948a32f" y="385.2"/>
      </g>
     </g>
     <g id="text_1">
      <!-- 05/23 -->
      <defs>
       <path d="M 31.78125 66.40625 
Q 24.171875 66.40625 20.328125 58.90625 
Q 16.5 51.421875 16.5 36.375 
Q 16.5 21.390625 20.328125 13.890625 
Q 24.171875 6.390625 31.78125 6.390625 
Q 39.453125 6.390625 43.28125 13.890625 
Q 47.125 21.390625 47.125 36.375 
Q 47.125 51.421875 43.28125 58.90625 
Q 39.453125 66.40625 31.78125 66.40625 
z
M 31.78125 74.21875 
Q 44.046875 74.21875 50.515625 64.515625 
Q 56.984375 54.828125 56.984375 36.375 
Q 56.984375 17.96875 50.515625 8.265625 
Q 44.046875 -1.421875 31.78125 -1.421875 
Q 19.53125 -1.421875 13.0625 8.265625 
Q 6.59375 17.96875 6.59375 36.375 
Q 6.59375 54.828125 13.0625 64.515625 
Q 19.53125 74.21875 31.78125 74.21875 
z
" id="DejaVuSans-48"/>
       <path d="M 10.796875 72.90625 
L 49.515625 72.90625 
L 49.515625 64.59375 
L 19.828125 64.59375 
L 19.828125 46.734375 
Q 21.96875 47.46875 24.109375 47.828125 
Q 26.265625 48.1875 28.421875 48.1875 
Q 40.625 48.1875 47.75 41.5 
Q 54.890625 34.8125 54.890625 23.390625 
Q 54.890625 11.625 47.5625 5.09375 
Q 40.234375 -1.421875 26.90625 -1.421875 
Q 22.3125 -1.421875 17.546875 -0.640625 
Q 12.796875 0.140625 7.71875 1.703125 
L 7.71875 11.625 
Q 12.109375 9.234375 16.796875 8.0625 
Q 21.484375 6.890625 26.703125 6.890625 
Q 35.15625 6.890625 40.078125 11.328125 
Q 45.015625 15.765625 45.015625 23.390625 
Q 45.015625 31 40.078125 35.4375 
Q 35.15625 39.890625 26.703125 39.890625 
Q 22.75 39.890625 18.8125 39.015625 
Q 14.890625 38.140625 10.796875 36.28125 
z
" id="DejaVuSans-53"/>
       <path d="M 25.390625 72.90625 
L 33.6875 72.90625 
L 8.296875 -9.28125 
L 0 -9.28125 
z
" id="DejaVuSans-47"/>
       <path d="M 19.1875 8.296875 
L 53.609375 8.296875 
L 53.609375 0 
L 7.328125 0 
L 7.328125 8.296875 
Q 12.9375 14.109375 22.625 23.890625 
Q 32.328125 33.6875 34.8125 36.53125 
Q 39.546875 41.84375 41.421875 45.53125 
Q 43.3125 49.21875 43.3125 52.78125 
Q 43.3125 58.59375 39.234375 62.25 
Q 35.15625 65.921875 28.609375 65.921875 
Q 23.96875 65.921875 18.8125 64.3125 
Q 13.671875 62.703125 7.8125 59.421875 
L 7.8125 69.390625 
Q 13.765625 71.78125 18.9375 73 
Q 24.125 74.21875 28.421875 74.21875 
Q 39.75 74.21875 46.484375 68.546875 
Q 53.21875 62.890625 53.21875 53.421875 
Q 53.21875 48.921875 51.53125 44.890625 
Q 49.859375 40.875 45.40625 35.40625 
Q 44.1875 33.984375 37.640625 27.21875 
Q 31.109375 20.453125 19.1875 8.296875 
z
" id="DejaVuSans-50"/>
       <path d="M 40.578125 39.3125 
Q 47.65625 37.796875 51.625 33 
Q 55.609375 28.21875 55.609375 21.1875 
Q 55.609375 10.40625 48.1875 4.484375 
Q 40.765625 -1.421875 27.09375 -1.421875 
Q 22.515625 -1.421875 17.65625 -0.515625 
Q 12.796875 0.390625 7.625 2.203125 
L 7.625 11.71875 
Q 11.71875 9.328125 16.59375 8.109375 
Q 21.484375 6.890625 26.8125 6.890625 
Q 36.078125 6.890625 40.9375 10.546875 
Q 45.796875 14.203125 45.796875 21.1875 
Q 45.796875 27.640625 41.28125 31.265625 
Q 36.765625 34.90625 28.71875 34.90625 
L 20.21875 34.90625 
L 20.21875 43.015625 
L 29.109375 43.015625 
Q 36.375 43.015625 40.234375 45.921875 
Q 44.09375 48.828125 44.09375 54.296875 
Q 44.09375 59.90625 40.109375 62.90625 
Q 36.140625 65.921875 28.71875 65.921875 
Q 24.65625 65.921875 20.015625 65.03125 
Q 15.375 64.15625 9.8125 62.3125 
L 9.8125 71.09375 
Q 15.4375 72.65625 20.34375 73.4375 
Q 25.25 74.21875 29.59375 74.21875 
Q 40.828125 74.21875 47.359375 69.109375 
Q 53.90625 64.015625 53.90625 55.328125 
Q 53.90625 49.265625 50.4375 45.09375 
Q 46.96875 40.921875 40.578125 39.3125 
z
" id="DejaVuSans-51"/>
      </defs>
      <g transform="translate(103.237732 414.995312)scale(0.3 -0.3)">
       <use xlink:href="#DejaVuSans-48"/>
       <use x="63.623047" xlink:href="#DejaVuSans-53"/>
       <use x="127.246094" xlink:href="#DejaVuSans-47"/>
       <use x="160.9375" xlink:href="#DejaVuSans-50"/>
       <use x="224.560547" xlink:href="#DejaVuSans-51"/>
      </g>
     </g>
    </g>
    <g id="xtick_2">
     <g id="line2d_2">
      <g>
       <use style="stroke:#000000;stroke-width:0.8;" x="476.874432" xlink:href="#md65948a32f" y="385.2"/>
      </g>
     </g>
     <g id="text_2">
      <!-- 08/23 -->
      <defs>
       <path d="M 31.78125 34.625 
Q 24.75 34.625 20.71875 30.859375 
Q 16.703125 27.09375 16.703125 20.515625 
Q 16.703125 13.921875 20.71875 10.15625 
Q 24.75 6.390625 31.78125 6.390625 
Q 38.8125 6.390625 42.859375 10.171875 
Q 46.921875 13.96875 46.921875 20.515625 
Q 46.921875 27.09375 42.890625 30.859375 
Q 38.875 34.625 31.78125 34.625 
z
M 21.921875 38.8125 
Q 15.578125 40.375 12.03125 44.71875 
Q 8.5 49.078125 8.5 55.328125 
Q 8.5 64.0625 14.71875 69.140625 
Q 20.953125 74.21875 31.78125 74.21875 
Q 42.671875 74.21875 48.875 69.140625 
Q 55.078125 64.0625 55.078125 55.328125 
Q 55.078125 49.078125 51.53125 44.71875 
Q 48 40.375 41.703125 38.8125 
Q 48.828125 37.15625 52.796875 32.3125 
Q 56.78125 27.484375 56.78125 20.515625 
Q 56.78125 9.90625 50.3125 4.234375 
Q 43.84375 -1.421875 31.78125 -1.421875 
Q 19.734375 -1.421875 13.25 4.234375 
Q 6.78125 9.90625 6.78125 20.515625 
Q 6.78125 27.484375 10.78125 32.3125 
Q 14.796875 37.15625 21.921875 38.8125 
z
M 18.3125 54.390625 
Q 18.3125 48.734375 21.84375 45.5625 
Q 25.390625 42.390625 31.78125 42.390625 
Q 38.140625 42.390625 41.71875 45.5625 
Q 45.3125 48.734375 45.3125 54.390625 
Q 45.3125 60.0625 41.71875 63.234375 
Q 38.140625 66.40625 31.78125 66.40625 
Q 25.390625 66.40625 21.84375 63.234375 
Q 18.3125 60.0625 18.3125 54.390625 
z
" id="DejaVuSans-56"/>
      </defs>
      <g transform="translate(433.646307 414.995312)scale(0.3 -0.3)">
       <use xlink:href="#DejaVuSans-48"/>
       <use x="63.623047" xlink:href="#DejaVuSans-56"/>
       <use x="127.246094" xlink:href="#DejaVuSans-47"/>
       <use x="160.9375" xlink:href="#DejaVuSans-50"/>
       <use x="224.560547" xlink:href="#DejaVuSans-51"/>
      </g>
     </g>
    </g>
    <g id="xtick_3">
     <g id="line2d_3">
      <g>
       <use style="stroke:#000000;stroke-width:0.8;" x="807.283006" xlink:href="#md65948a32f" y="385.2"/>
      </g>
     </g>
     <g id="text_3">
      <!-- 11/23 -->
      <defs>
       <path d="M 12.40625 8.296875 
L 28.515625 8.296875 
L 28.515625 63.921875 
L 10.984375 60.40625 
L 10.984375 69.390625 
L 28.421875 72.90625 
L 38.28125 72.90625 
L 38.28125 8.296875 
L 54.390625 8.296875 
L 54.390625 0 
L 12.40625 0 
z
" id="DejaVuSans-49"/>
      </defs>
      <g transform="translate(764.054881 414.995312)scale(0.3 -0.3)">
       <use xlink:href="#DejaVuSans-49"/>
       <use x="63.623047" xlink:href="#DejaVuSans-49"/>
       <use x="127.246094" xlink:href="#DejaVuSans-47"/>
       <use x="160.9375" xlink:href="#DejaVuSans-50"/>
       <use x="224.560547" xlink:href="#DejaVuSans-51"/>
      </g>
     </g>
    </g>
   </g>
   <g id="matplotlib.axis_2">
    <g id="ytick_1">
     <g id="line2d_4">
      <defs>
       <path d="M 0 0 
L -3.5 0 
" id="mc062c5363e" style="stroke:#000000;stroke-width:0.8;"/>
      </defs>
      <g>
       <use style="stroke:#000000;stroke-width:0.8;" x="113.425" xlink:href="#mc062c5363e" y="290.229457"/>
      </g>
     </g>
     <g id="text_4">
      <!-- 18000 -->
      <g transform="translate(10.9875 301.627114)scale(0.3 -0.3)">
       <use xlink:href="#DejaVuSans-49"/>
       <use x="63.623047" xlink:href="#DejaVuSans-56"/>
       <use x="127.246094" xlink:href="#DejaVuSans-48"/>
       <use x="190.869141" xlink:href="#DejaVuSans-48"/>
       <use x="254.492188" xlink:href="#DejaVuSans-48"/>
      </g>
     </g>
    </g>
    <g id="ytick_2">
     <g id="line2d_5">
      <g>
       <use style="stroke:#000000;stroke-width:0.8;" x="113.425" xlink:href="#mc062c5363e" y="175.345736"/>
      </g>
     </g>
     <g id="text_5">
      <!-- 19500 -->
      <defs>
       <path d="M 10.984375 1.515625 
L 10.984375 10.5 
Q 14.703125 8.734375 18.5 7.8125 
Q 22.3125 6.890625 25.984375 6.890625 
Q 35.75 6.890625 40.890625 13.453125 
Q 46.046875 20.015625 46.78125 33.40625 
Q 43.953125 29.203125 39.59375 26.953125 
Q 35.25 24.703125 29.984375 24.703125 
Q 19.046875 24.703125 12.671875 31.3125 
Q 6.296875 37.9375 6.296875 49.421875 
Q 6.296875 60.640625 12.9375 67.421875 
Q 19.578125 74.21875 30.609375 74.21875 
Q 43.265625 74.21875 49.921875 64.515625 
Q 56.59375 54.828125 56.59375 36.375 
Q 56.59375 19.140625 48.40625 8.859375 
Q 40.234375 -1.421875 26.421875 -1.421875 
Q 22.703125 -1.421875 18.890625 -0.6875 
Q 15.09375 0.046875 10.984375 1.515625 
z
M 30.609375 32.421875 
Q 37.25 32.421875 41.125 36.953125 
Q 45.015625 41.5 45.015625 49.421875 
Q 45.015625 57.28125 41.125 61.84375 
Q 37.25 66.40625 30.609375 66.40625 
Q 23.96875 66.40625 20.09375 61.84375 
Q 16.21875 57.28125 16.21875 49.421875 
Q 16.21875 41.5 20.09375 36.953125 
Q 23.96875 32.421875 30.609375 32.421875 
z
" id="DejaVuSans-57"/>
      </defs>
      <g transform="translate(10.9875 186.743393)scale(0.3 -0.3)">
       <use xlink:href="#DejaVuSans-49"/>
       <use x="63.623047" xlink:href="#DejaVuSans-57"/>
       <use x="127.246094" xlink:href="#DejaVuSans-53"/>
       <use x="190.869141" xlink:href="#DejaVuSans-48"/>
       <use x="254.492188" xlink:href="#DejaVuSans-48"/>
      </g>
     </g>
    </g>
   </g>
   <g id="line2d_6">
    <path clip-path="url(#p1beaa64803)" d="M 146.465857 287.095136 
L 150.057255 267.323468 
L 153.648653 293.178738 
L 164.422845 270.365194 
L 168.014243 257.057381 
L 171.60564 268.844331 
L 175.197038 292.038128 
L 178.788435 297.361223 
L 189.562628 299.26234 
L 193.154026 309.148173 
L 196.745423 321.315377 
L 200.336821 233.483332 
L 203.928218 237.285564 
L 214.702411 202.304817 
L 218.293808 195.080606 
L 221.885206 208.768672 
L 225.476603 237.665817 
L 229.068001 225.498614 
L 239.842194 217.513896 
L 243.433591 192.418983 
L 247.024989 173.407672 
L 250.616386 217.513896 
L 254.207784 226.639224 
L 264.981977 231.962469 
L 268.573374 261.61997 
L 272.164772 265.422352 
L 275.756169 246.791294 
L 279.347567 258.197991 
L 290.121759 278.349912 
L 293.713157 285.954377 
L 297.304554 263.90134 
L 300.895952 243.369165 
L 304.48735 254.776012 
L 315.261542 249.452767 
L 318.85294 273.40707 
L 322.444337 279.870775 
L 326.035735 266.562962 
L 329.627132 280.631281 
L 340.401325 299.26234 
L 343.992723 292.038128 
L 347.58412 288.996252 
L 351.175518 266.943215 
L 354.766915 260.859614 
L 369.132505 266.943215 
L 372.723903 269.224585 
L 376.3153 292.418232 
L 379.906698 283.673157 
L 390.680891 271.505954 
L 394.272288 266.943215 
L 397.863686 255.536369 
L 401.455083 236.525207 
L 405.046481 292.798485 
L 415.820674 270.745448 
L 419.412071 289.376506 
L 423.003469 296.600717 
L 426.594866 289.376506 
L 430.186264 290.897369 
L 440.960456 269.224585 
L 444.551854 263.140983 
L 448.143251 287.855643 
L 451.734649 293.558991 
L 466.100239 297.741477 
L 469.691637 289.376506 
L 473.283034 320.935124 
L 476.874432 319.794514 
L 480.465829 333.862833 
L 491.240022 327.779231 
L 494.83142 296.600717 
L 498.422817 302.684319 
L 502.014215 300.783203 
L 505.605612 304.585435 
L 516.379805 282.152145 
L 519.971202 298.501833 
L 523.5626 294.699601 
L 527.153997 284.433514 
L 530.745395 272.266311 
L 541.519588 261.239867 
L 545.110985 250.593527 
L 548.702383 236.144954 
L 552.29378 238.806576 
L 555.885178 261.239867 
L 566.659371 274.927933 
L 570.250768 260.859614 
L 573.842166 270.745448 
L 577.433563 257.437485 
L 581.024961 245.650535 
L 595.390551 249.452767 
L 598.981948 275.688439 
L 606.164744 287.095136 
L 616.938936 269.984941 
L 620.530334 285.574273 
L 624.121731 277.209302 
L 627.713129 291.76124 
L 631.304526 320.865116 
L 642.078719 323.928682 
L 645.670117 334.651163 
L 649.261514 352.266667 
L 652.852912 329.672868 
L 656.444309 329.289922 
L 670.809899 310.908527 
L 674.401297 332.736434 
L 677.992694 336.948837 
L 681.584092 350.351938 
L 692.358285 362.606202 
L 695.949682 346.905426 
L 699.54108 343.84186 
L 706.723875 365.286822 
L 717.498068 372.179845 
L 721.089465 371.796899 
L 724.680863 363.372093 
L 728.27226 385.2 
L 731.863658 231.255814 
L 742.63785 211.342636 
L 746.229248 181.855814 
L 749.820645 165.772093 
L 753.412043 182.23876 
L 767.777633 154.283721 
L 771.369031 187.982946 
L 774.960428 173.813953 
L 778.551826 164.623256 
L 782.143223 160.793798 
L 792.917416 178.792248 
L 796.508814 175.728682 
L 800.100211 151.220155 
L 803.691609 131.306977 
L 807.283006 88.8 
L 807.283006 88.8 
" style="fill:none;stroke:#000000;stroke-linecap:square;stroke-width:4;"/>
   </g>
   <g id="patch_3">
    <path d="M 113.425 385.2 
L 113.425 88.8 
" style="fill:none;stroke:#000000;stroke-linecap:square;stroke-linejoin:miter;stroke-width:0.8;"/>
   </g>
   <g id="patch_4">
    <path d="M 113.425 385.2 
L 840.323864 385.2 
" style="fill:none;stroke:#000000;stroke-linecap:square;stroke-linejoin:miter;stroke-width:0.8;"/>
   </g>
   <g id="text_6">
    <!-- 6702   14% -->
    <defs>
     <path d="M 36.1875 35.984375 
Q 31.25 35.984375 28.78125 32.78125 
Q 26.3125 29.59375 26.3125 23.1875 
Q 26.3125 16.796875 28.78125 13.59375 
Q 31.25 10.40625 36.1875 10.40625 
Q 41.15625 10.40625 43.625 13.59375 
Q 46.09375 16.796875 46.09375 23.1875 
Q 46.09375 29.59375 43.625 32.78125 
Q 41.15625 35.984375 36.1875 35.984375 
z
M 59.421875 71 
L 59.421875 57.515625 
Q 54.78125 59.71875 50.671875 60.765625 
Q 46.578125 61.8125 42.671875 61.8125 
Q 34.28125 61.8125 29.59375 57.140625 
Q 24.90625 52.484375 24.125 43.3125 
Q 27.34375 45.703125 31.09375 46.890625 
Q 34.859375 48.09375 39.3125 48.09375 
Q 50.484375 48.09375 57.34375 41.546875 
Q 64.203125 35.015625 64.203125 24.421875 
Q 64.203125 12.703125 56.53125 5.640625 
Q 48.875 -1.421875 35.984375 -1.421875 
Q 21.78125 -1.421875 13.984375 8.171875 
Q 6.203125 17.78125 6.203125 35.40625 
Q 6.203125 53.46875 15.3125 63.796875 
Q 24.421875 74.125 40.28125 74.125 
Q 45.3125 74.125 50.046875 73.34375 
Q 54.78125 72.5625 59.421875 71 
z
" id="DejaVuSans-Bold-54"/>
     <path d="M 6.6875 72.90625 
L 61.625 72.90625 
L 61.625 62.3125 
L 33.203125 0 
L 14.890625 0 
L 41.796875 59.078125 
L 6.6875 59.078125 
z
" id="DejaVuSans-Bold-55"/>
     <path d="M 46 36.53125 
Q 46 50.203125 43.4375 55.78125 
Q 40.875 61.375 34.8125 61.375 
Q 28.765625 61.375 26.171875 55.78125 
Q 23.578125 50.203125 23.578125 36.53125 
Q 23.578125 22.703125 26.171875 17.03125 
Q 28.765625 11.375 34.8125 11.375 
Q 40.828125 11.375 43.40625 17.03125 
Q 46 22.703125 46 36.53125 
z
M 64.796875 36.375 
Q 64.796875 18.265625 56.984375 8.421875 
Q 49.171875 -1.421875 34.8125 -1.421875 
Q 20.40625 -1.421875 12.59375 8.421875 
Q 4.78125 18.265625 4.78125 36.375 
Q 4.78125 54.546875 12.59375 64.375 
Q 20.40625 74.21875 34.8125 74.21875 
Q 49.171875 74.21875 56.984375 64.375 
Q 64.796875 54.546875 64.796875 36.375 
z
" id="DejaVuSans-Bold-48"/>
     <path d="M 28.8125 13.8125 
L 60.890625 13.8125 
L 60.890625 0 
L 7.90625 0 
L 7.90625 13.8125 
L 34.515625 37.3125 
Q 38.09375 40.53125 39.796875 43.609375 
Q 41.5 46.6875 41.5 50 
Q 41.5 55.125 38.0625 58.25 
Q 34.625 61.375 28.90625 61.375 
Q 24.515625 61.375 19.28125 59.5 
Q 14.0625 57.625 8.109375 53.90625 
L 8.109375 69.921875 
Q 14.453125 72.015625 20.65625 73.109375 
Q 26.859375 74.21875 32.8125 74.21875 
Q 45.90625 74.21875 53.15625 68.453125 
Q 60.40625 62.703125 60.40625 52.390625 
Q 60.40625 46.4375 57.328125 41.28125 
Q 54.25 36.140625 44.390625 27.484375 
z
" id="DejaVuSans-Bold-50"/>
     <path id="DejaVuSans-Bold-32"/>
     <path d="M 11.71875 12.984375 
L 28.328125 12.984375 
L 28.328125 60.109375 
L 11.28125 56.59375 
L 11.28125 69.390625 
L 28.21875 72.90625 
L 46.09375 72.90625 
L 46.09375 12.984375 
L 62.703125 12.984375 
L 62.703125 0 
L 11.71875 0 
z
" id="DejaVuSans-Bold-49"/>
     <path d="M 36.8125 57.421875 
L 16.21875 26.90625 
L 36.8125 26.90625 
z
M 33.6875 72.90625 
L 54.59375 72.90625 
L 54.59375 26.90625 
L 64.984375 26.90625 
L 64.984375 13.28125 
L 54.59375 13.28125 
L 54.59375 0 
L 36.8125 0 
L 36.8125 13.28125 
L 4.5 13.28125 
L 4.5 29.390625 
z
" id="DejaVuSans-Bold-52"/>
     <path d="M 77.484375 30.078125 
Q 74.03125 30.078125 72.125 27.078125 
Q 70.21875 24.078125 70.21875 18.5 
Q 70.21875 12.890625 72.09375 9.890625 
Q 73.96875 6.890625 77.484375 6.890625 
Q 81 6.890625 82.859375 9.890625 
Q 84.71875 12.890625 84.71875 18.5 
Q 84.71875 24.078125 82.828125 27.078125 
Q 80.953125 30.078125 77.484375 30.078125 
z
M 77.484375 38.28125 
Q 86.578125 38.28125 91.796875 33 
Q 97.015625 27.734375 97.015625 18.5 
Q 97.015625 9.28125 91.796875 3.921875 
Q 86.578125 -1.421875 77.484375 -1.421875 
Q 68.40625 -1.421875 63.15625 3.921875 
Q 57.90625 9.28125 57.90625 18.5 
Q 57.90625 27.6875 63.15625 32.984375 
Q 68.40625 38.28125 77.484375 38.28125 
z
M 32.71875 -1.421875 
L 21.921875 -1.421875 
L 67.484375 74.21875 
L 78.328125 74.21875 
z
M 22.703125 74.21875 
Q 31.78125 74.21875 36.984375 68.921875 
Q 42.1875 63.625 42.1875 54.390625 
Q 42.1875 45.171875 36.984375 39.84375 
Q 31.78125 34.515625 22.703125 34.515625 
Q 13.625 34.515625 8.421875 39.84375 
Q 3.21875 45.171875 3.21875 54.390625 
Q 3.21875 63.625 8.421875 68.921875 
Q 13.625 74.21875 22.703125 74.21875 
z
M 22.703125 66.015625 
Q 19.1875 66.015625 17.28125 62.984375 
Q 15.375 59.96875 15.375 54.390625 
Q 15.375 48.78125 17.28125 45.71875 
Q 19.1875 42.671875 22.703125 42.671875 
Q 26.21875 42.671875 28.09375 45.71875 
Q 29.984375 48.78125 29.984375 54.390625 
Q 29.984375 59.96875 28.078125 62.984375 
Q 26.171875 66.015625 22.703125 66.015625 
z
" id="DejaVuSans-Bold-37"/>
    </defs>
    <g transform="translate(113.425 72.1625)scale(0.8 -0.8)">
     <use xlink:href="#DejaVuSans-Bold-54"/>
     <use x="69.580078" xlink:href="#DejaVuSans-Bold-55"/>
     <use x="139.160156" xlink:href="#DejaVuSans-Bold-48"/>
     <use x="208.740234" xlink:href="#DejaVuSans-Bold-50"/>
     <use x="278.320312" xlink:href="#DejaVuSans-Bold-32"/>
     <use x="313.134766" xlink:href="#DejaVuSans-Bold-32"/>
     <use x="347.949219" xlink:href="#DejaVuSans-Bold-32"/>
     <use x="382.763672" xlink:href="#DejaVuSans-Bold-49"/>
     <use x="452.34375" xlink:href="#DejaVuSans-Bold-52"/>
     <use x="521.923828" xlink:href="#DejaVuSans-Bold-37"/>
    </g>
   </g>
  </g>
 </g>
 <defs>
  <clipPath id="p1beaa64803">
   <rect height="296.4" width="726.898864" x="113.425" y="88.8"/>
  </clipPath>
 </defs>
</svg>
