<?xml version="1.0" encoding="utf-8" standalone="no"?>
<!DOCTYPE svg PUBLIC "-//W3C//DTD SVG 1.1//EN"
  "http://www.w3.org/Graphics/SVG/1.1/DTD/svg11.dtd">
<!-- Created with matplotlib (https://matplotlib.org/) -->
<svg height="432pt" version="1.1" viewBox="0 0 864 432" width="864pt" xmlns="http://www.w3.org/2000/svg" xmlns:xlink="http://www.w3.org/1999/xlink">
 <defs>
  <style type="text/css">
*{stroke-linecap:butt;stroke-linejoin:round;}
  </style>
 </defs>
 <g id="figure_1">
  <g id="patch_1">
   <path d="M 0 432 
L 864 432 
L 864 0 
L 0 0 
z
" style="fill:none;"/>
  </g>
  <g id="axes_1">
   <g id="patch_2">
    <path d="M 94.3 385.2 
L 840.323864 385.2 
L 840.323864 88.8 
L 94.3 88.8 
z
" style="fill:none;"/>
   </g>
   <g id="PolyCollection_1">
    <path clip-path="url(#p3c0ebbbd23)" d="M 128.210176 1044.222399 
L 128.210176 354.532121 
L 131.896064 319.820125 
L 135.581953 328.413872 
L 146.639619 342.231268 
L 150.325508 326.728823 
L 154.011396 328.245367 
L 157.697285 319.483115 
L 161.383174 301.116089 
L 172.440839 289.152246 
L 176.126728 290.163275 
L 179.812617 272.470267 
L 183.498505 242.139397 
L 187.184394 244.32996 
L 198.24206 206.753383 
L 201.927949 210.123479 
L 205.613837 242.813417 
L 209.299726 233.545651 
L 212.985615 225.120409 
L 224.043281 209.954974 
L 227.729169 179.11859 
L 231.415058 162.099602 
L 235.100947 143.56407 
L 238.786835 140.699488 
L 249.844501 159.57203 
L 253.53039 138.340421 
L 257.216279 145.923138 
L 260.902167 186.195793 
L 264.588056 188.723366 
L 275.645722 197.485617 
L 279.33161 190.745424 
L 283.017499 158.729505 
L 286.703388 141.373508 
L 290.389276 133.79079 
L 301.446942 100.595338 
L 305.132831 105.481978 
L 308.81872 88.8 
L 312.504608 128.56714 
L 316.190497 138.171916 
L 327.248163 159.740534 
L 330.934052 146.934167 
L 334.61994 179.11859 
L 338.305829 140.530984 
L 341.991718 135.138829 
L 356.735272 113.90722 
L 360.421161 92.170097 
L 364.107049 121.658442 
L 367.792938 144.912109 
L 378.850604 139.519955 
L 382.536493 135.475839 
L 386.222381 125.534053 
L 389.90827 110.368619 
L 393.594159 156.370438 
L 404.651825 115.592268 
L 408.337713 119.973394 
L 412.023602 141.879022 
L 415.709491 165.301194 
L 419.395379 200.350199 
L 430.453045 205.405344 
L 434.138934 213.99909 
L 437.824823 210.966003 
L 441.510711 199.67618 
L 456.254266 224.614895 
L 459.940155 214.3361 
L 463.626043 216.695168 
L 467.311932 230.849574 
L 470.99782 239.44332 
L 482.055486 241.802388 
L 485.741375 225.457419 
L 489.427264 220.570779 
L 493.113152 222.929847 
L 496.799041 241.128368 
L 507.856707 205.573849 
L 511.542596 222.761342 
L 515.228484 221.581808 
L 518.914373 218.380216 
L 522.600262 213.493576 
L 533.657928 219.55975 
L 537.343816 224.44639 
L 541.029705 221.581808 
L 544.715594 210.460489 
L 548.401482 224.10938 
L 559.459148 259.158385 
L 563.145037 275.503354 
L 566.830925 283.423081 
L 570.516814 254.608755 
L 574.202703 242.981922 
L 588.946257 281.064014 
L 592.632146 269.100171 
L 596.318035 287.635702 
L 600.003923 284.43411 
L 611.061589 277.188403 
L 614.747478 298.251507 
L 618.433367 284.265605 
L 622.119255 291.342808 
L 625.805144 273.986811 
L 636.86281 275.840364 
L 640.548699 289.32075 
L 644.234587 320.32564 
L 647.920476 303.643661 
L 651.606365 321.336669 
L 666.349919 299.599545 
L 670.035808 284.265605 
L 673.721696 244.835475 
L 677.407585 257.304832 
L 688.465251 269.100171 
L 692.15114 264.045026 
L 695.837028 266.067084 
L 699.522917 287.972712 
L 703.208806 286.287663 
L 714.266472 306.676748 
L 717.95236 314.933485 
L 721.638249 309.035816 
L 725.324138 334.480045 
L 729.010026 352.341558 
L 740.067692 342.905287 
L 743.753581 385.2 
L 747.43947 365.31643 
L 751.125358 329.087891 
L 765.868913 265.730074 
L 769.554801 286.456168 
L 773.24069 257.136327 
L 776.926579 259.158385 
L 780.612467 297.745992 
L 791.670133 298.083002 
L 795.356022 303.138147 
L 799.041911 256.799318 
L 802.727799 219.22274 
L 806.413688 206.416373 
L 806.413688 1044.222399 
L 806.413688 1044.222399 
L 802.727799 1044.222399 
L 799.041911 1044.222399 
L 795.356022 1044.222399 
L 791.670133 1044.222399 
L 780.612467 1044.222399 
L 776.926579 1044.222399 
L 773.24069 1044.222399 
L 769.554801 1044.222399 
L 765.868913 1044.222399 
L 751.125358 1044.222399 
L 747.43947 1044.222399 
L 743.753581 1044.222399 
L 740.067692 1044.222399 
L 729.010026 1044.222399 
L 725.324138 1044.222399 
L 721.638249 1044.222399 
L 717.95236 1044.222399 
L 714.266472 1044.222399 
L 703.208806 1044.222399 
L 699.522917 1044.222399 
L 695.837028 1044.222399 
L 692.15114 1044.222399 
L 688.465251 1044.222399 
L 677.407585 1044.222399 
L 673.721696 1044.222399 
L 670.035808 1044.222399 
L 666.349919 1044.222399 
L 651.606365 1044.222399 
L 647.920476 1044.222399 
L 644.234587 1044.222399 
L 640.548699 1044.222399 
L 636.86281 1044.222399 
L 625.805144 1044.222399 
L 622.119255 1044.222399 
L 618.433367 1044.222399 
L 614.747478 1044.222399 
L 611.061589 1044.222399 
L 600.003923 1044.222399 
L 596.318035 1044.222399 
L 592.632146 1044.222399 
L 588.946257 1044.222399 
L 574.202703 1044.222399 
L 570.516814 1044.222399 
L 566.830925 1044.222399 
L 563.145037 1044.222399 
L 559.459148 1044.222399 
L 548.401482 1044.222399 
L 544.715594 1044.222399 
L 541.029705 1044.222399 
L 537.343816 1044.222399 
L 533.657928 1044.222399 
L 522.600262 1044.222399 
L 518.914373 1044.222399 
L 515.228484 1044.222399 
L 511.542596 1044.222399 
L 507.856707 1044.222399 
L 496.799041 1044.222399 
L 493.113152 1044.222399 
L 489.427264 1044.222399 
L 485.741375 1044.222399 
L 482.055486 1044.222399 
L 470.99782 1044.222399 
L 467.311932 1044.222399 
L 463.626043 1044.222399 
L 459.940155 1044.222399 
L 456.254266 1044.222399 
L 441.510711 1044.222399 
L 437.824823 1044.222399 
L 434.138934 1044.222399 
L 430.453045 1044.222399 
L 419.395379 1044.222399 
L 415.709491 1044.222399 
L 412.023602 1044.222399 
L 408.337713 1044.222399 
L 404.651825 1044.222399 
L 393.594159 1044.222399 
L 389.90827 1044.222399 
L 386.222381 1044.222399 
L 382.536493 1044.222399 
L 378.850604 1044.222399 
L 367.792938 1044.222399 
L 364.107049 1044.222399 
L 360.421161 1044.222399 
L 356.735272 1044.222399 
L 341.991718 1044.222399 
L 338.305829 1044.222399 
L 334.61994 1044.222399 
L 330.934052 1044.222399 
L 327.248163 1044.222399 
L 316.190497 1044.222399 
L 312.504608 1044.222399 
L 308.81872 1044.222399 
L 305.132831 1044.222399 
L 301.446942 1044.222399 
L 290.389276 1044.222399 
L 286.703388 1044.222399 
L 283.017499 1044.222399 
L 279.33161 1044.222399 
L 275.645722 1044.222399 
L 264.588056 1044.222399 
L 260.902167 1044.222399 
L 257.216279 1044.222399 
L 253.53039 1044.222399 
L 249.844501 1044.222399 
L 238.786835 1044.222399 
L 235.100947 1044.222399 
L 231.415058 1044.222399 
L 227.729169 1044.222399 
L 224.043281 1044.222399 
L 212.985615 1044.222399 
L 209.299726 1044.222399 
L 205.613837 1044.222399 
L 201.927949 1044.222399 
L 198.24206 1044.222399 
L 187.184394 1044.222399 
L 183.498505 1044.222399 
L 179.812617 1044.222399 
L 176.126728 1044.222399 
L 172.440839 1044.222399 
L 161.383174 1044.222399 
L 157.697285 1044.222399 
L 154.011396 1044.222399 
L 150.325508 1044.222399 
L 146.639619 1044.222399 
L 135.581953 1044.222399 
L 131.896064 1044.222399 
L 128.210176 1044.222399 
z
" style="fill:#0000ff;fill-opacity:0.1;stroke:#0000ff;stroke-opacity:0.1;"/>
   </g>
   <g id="matplotlib.axis_1">
    <g id="xtick_1">
     <g id="line2d_1">
      <defs>
       <path d="M 0 0 
L 0 3.5 
" id="m7229bd621f" style="stroke:#000000;stroke-width:0.8;"/>
      </defs>
      <g>
       <use style="stroke:#000000;stroke-width:0.8;" x="128.210176" xlink:href="#m7229bd621f" y="385.2"/>
      </g>
     </g>
     <g id="text_1">
      <!-- 05/23 -->
      <defs>
       <path d="M 31.78125 66.40625 
Q 24.171875 66.40625 20.328125 58.90625 
Q 16.5 51.421875 16.5 36.375 
Q 16.5 21.390625 20.328125 13.890625 
Q 24.171875 6.390625 31.78125 6.390625 
Q 39.453125 6.390625 43.28125 13.890625 
Q 47.125 21.390625 47.125 36.375 
Q 47.125 51.421875 43.28125 58.90625 
Q 39.453125 66.40625 31.78125 66.40625 
z
M 31.78125 74.21875 
Q 44.046875 74.21875 50.515625 64.515625 
Q 56.984375 54.828125 56.984375 36.375 
Q 56.984375 17.96875 50.515625 8.265625 
Q 44.046875 -1.421875 31.78125 -1.421875 
Q 19.53125 -1.421875 13.0625 8.265625 
Q 6.59375 17.96875 6.59375 36.375 
Q 6.59375 54.828125 13.0625 64.515625 
Q 19.53125 74.21875 31.78125 74.21875 
z
" id="DejaVuSans-48"/>
       <path d="M 10.796875 72.90625 
L 49.515625 72.90625 
L 49.515625 64.59375 
L 19.828125 64.59375 
L 19.828125 46.734375 
Q 21.96875 47.46875 24.109375 47.828125 
Q 26.265625 48.1875 28.421875 48.1875 
Q 40.625 48.1875 47.75 41.5 
Q 54.890625 34.8125 54.890625 23.390625 
Q 54.890625 11.625 47.5625 5.09375 
Q 40.234375 -1.421875 26.90625 -1.421875 
Q 22.3125 -1.421875 17.546875 -0.640625 
Q 12.796875 0.140625 7.71875 1.703125 
L 7.71875 11.625 
Q 12.109375 9.234375 16.796875 8.0625 
Q 21.484375 6.890625 26.703125 6.890625 
Q 35.15625 6.890625 40.078125 11.328125 
Q 45.015625 15.765625 45.015625 23.390625 
Q 45.015625 31 40.078125 35.4375 
Q 35.15625 39.890625 26.703125 39.890625 
Q 22.75 39.890625 18.8125 39.015625 
Q 14.890625 38.140625 10.796875 36.28125 
z
" id="DejaVuSans-53"/>
       <path d="M 25.390625 72.90625 
L 33.6875 72.90625 
L 8.296875 -9.28125 
L 0 -9.28125 
z
" id="DejaVuSans-47"/>
       <path d="M 19.1875 8.296875 
L 53.609375 8.296875 
L 53.609375 0 
L 7.328125 0 
L 7.328125 8.296875 
Q 12.9375 14.109375 22.625 23.890625 
Q 32.328125 33.6875 34.8125 36.53125 
Q 39.546875 41.84375 41.421875 45.53125 
Q 43.3125 49.21875 43.3125 52.78125 
Q 43.3125 58.59375 39.234375 62.25 
Q 35.15625 65.921875 28.609375 65.921875 
Q 23.96875 65.921875 18.8125 64.3125 
Q 13.671875 62.703125 7.8125 59.421875 
L 7.8125 69.390625 
Q 13.765625 71.78125 18.9375 73 
Q 24.125 74.21875 28.421875 74.21875 
Q 39.75 74.21875 46.484375 68.546875 
Q 53.21875 62.890625 53.21875 53.421875 
Q 53.21875 48.921875 51.53125 44.890625 
Q 49.859375 40.875 45.40625 35.40625 
Q 44.1875 33.984375 37.640625 27.21875 
Q 31.109375 20.453125 19.1875 8.296875 
z
" id="DejaVuSans-50"/>
       <path d="M 40.578125 39.3125 
Q 47.65625 37.796875 51.625 33 
Q 55.609375 28.21875 55.609375 21.1875 
Q 55.609375 10.40625 48.1875 4.484375 
Q 40.765625 -1.421875 27.09375 -1.421875 
Q 22.515625 -1.421875 17.65625 -0.515625 
Q 12.796875 0.390625 7.625 2.203125 
L 7.625 11.71875 
Q 11.71875 9.328125 16.59375 8.109375 
Q 21.484375 6.890625 26.8125 6.890625 
Q 36.078125 6.890625 40.9375 10.546875 
Q 45.796875 14.203125 45.796875 21.1875 
Q 45.796875 27.640625 41.28125 31.265625 
Q 36.765625 34.90625 28.71875 34.90625 
L 20.21875 34.90625 
L 20.21875 43.015625 
L 29.109375 43.015625 
Q 36.375 43.015625 40.234375 45.921875 
Q 44.09375 48.828125 44.09375 54.296875 
Q 44.09375 59.90625 40.109375 62.90625 
Q 36.140625 65.921875 28.71875 65.921875 
Q 24.65625 65.921875 20.015625 65.03125 
Q 15.375 64.15625 9.8125 62.3125 
L 9.8125 71.09375 
Q 15.4375 72.65625 20.34375 73.4375 
Q 25.25 74.21875 29.59375 74.21875 
Q 40.828125 74.21875 47.359375 69.109375 
Q 53.90625 64.015625 53.90625 55.328125 
Q 53.90625 49.265625 50.4375 45.09375 
Q 46.96875 40.921875 40.578125 39.3125 
z
" id="DejaVuSans-51"/>
      </defs>
      <g transform="translate(84.982051 414.995312)scale(0.3 -0.3)">
       <use xlink:href="#DejaVuSans-48"/>
       <use x="63.623047" xlink:href="#DejaVuSans-53"/>
       <use x="127.246094" xlink:href="#DejaVuSans-47"/>
       <use x="160.9375" xlink:href="#DejaVuSans-50"/>
       <use x="224.560547" xlink:href="#DejaVuSans-51"/>
      </g>
     </g>
    </g>
    <g id="xtick_2">
     <g id="line2d_2">
      <g>
       <use style="stroke:#000000;stroke-width:0.8;" x="467.311932" xlink:href="#m7229bd621f" y="385.2"/>
      </g>
     </g>
     <g id="text_2">
      <!-- 08/23 -->
      <defs>
       <path d="M 31.78125 34.625 
Q 24.75 34.625 20.71875 30.859375 
Q 16.703125 27.09375 16.703125 20.515625 
Q 16.703125 13.921875 20.71875 10.15625 
Q 24.75 6.390625 31.78125 6.390625 
Q 38.8125 6.390625 42.859375 10.171875 
Q 46.921875 13.96875 46.921875 20.515625 
Q 46.921875 27.09375 42.890625 30.859375 
Q 38.875 34.625 31.78125 34.625 
z
M 21.921875 38.8125 
Q 15.578125 40.375 12.03125 44.71875 
Q 8.5 49.078125 8.5 55.328125 
Q 8.5 64.0625 14.71875 69.140625 
Q 20.953125 74.21875 31.78125 74.21875 
Q 42.671875 74.21875 48.875 69.140625 
Q 55.078125 64.0625 55.078125 55.328125 
Q 55.078125 49.078125 51.53125 44.71875 
Q 48 40.375 41.703125 38.8125 
Q 48.828125 37.15625 52.796875 32.3125 
Q 56.78125 27.484375 56.78125 20.515625 
Q 56.78125 9.90625 50.3125 4.234375 
Q 43.84375 -1.421875 31.78125 -1.421875 
Q 19.734375 -1.421875 13.25 4.234375 
Q 6.78125 9.90625 6.78125 20.515625 
Q 6.78125 27.484375 10.78125 32.3125 
Q 14.796875 37.15625 21.921875 38.8125 
z
M 18.3125 54.390625 
Q 18.3125 48.734375 21.84375 45.5625 
Q 25.390625 42.390625 31.78125 42.390625 
Q 38.140625 42.390625 41.71875 45.5625 
Q 45.3125 48.734375 45.3125 54.390625 
Q 45.3125 60.0625 41.71875 63.234375 
Q 38.140625 66.40625 31.78125 66.40625 
Q 25.390625 66.40625 21.84375 63.234375 
Q 18.3125 60.0625 18.3125 54.390625 
z
" id="DejaVuSans-56"/>
      </defs>
      <g transform="translate(424.083807 414.995312)scale(0.3 -0.3)">
       <use xlink:href="#DejaVuSans-48"/>
       <use x="63.623047" xlink:href="#DejaVuSans-56"/>
       <use x="127.246094" xlink:href="#DejaVuSans-47"/>
       <use x="160.9375" xlink:href="#DejaVuSans-50"/>
       <use x="224.560547" xlink:href="#DejaVuSans-51"/>
      </g>
     </g>
    </g>
    <g id="xtick_3">
     <g id="line2d_3">
      <g>
       <use style="stroke:#000000;stroke-width:0.8;" x="806.413688" xlink:href="#m7229bd621f" y="385.2"/>
      </g>
     </g>
     <g id="text_3">
      <!-- 11/23 -->
      <defs>
       <path d="M 12.40625 8.296875 
L 28.515625 8.296875 
L 28.515625 63.921875 
L 10.984375 60.40625 
L 10.984375 69.390625 
L 28.421875 72.90625 
L 38.28125 72.90625 
L 38.28125 8.296875 
L 54.390625 8.296875 
L 54.390625 0 
L 12.40625 0 
z
" id="DejaVuSans-49"/>
      </defs>
      <g transform="translate(763.185563 414.995312)scale(0.3 -0.3)">
       <use xlink:href="#DejaVuSans-49"/>
       <use x="63.623047" xlink:href="#DejaVuSans-49"/>
       <use x="127.246094" xlink:href="#DejaVuSans-47"/>
       <use x="160.9375" xlink:href="#DejaVuSans-50"/>
       <use x="224.560547" xlink:href="#DejaVuSans-51"/>
      </g>
     </g>
    </g>
   </g>
   <g id="matplotlib.axis_2">
    <g id="ytick_1">
     <g id="line2d_4">
      <defs>
       <path d="M 0 0 
L -3.5 0 
" id="m28e00c6feb" style="stroke:#000000;stroke-width:0.8;"/>
      </defs>
      <g>
       <use style="stroke:#000000;stroke-width:0.8;" x="94.3" xlink:href="#m28e00c6feb" y="336.502103"/>
      </g>
     </g>
     <g id="text_4">
      <!-- 2100 -->
      <g transform="translate(10.95 347.89976)scale(0.3 -0.3)">
       <use xlink:href="#DejaVuSans-50"/>
       <use x="63.623047" xlink:href="#DejaVuSans-49"/>
       <use x="127.246094" xlink:href="#DejaVuSans-48"/>
       <use x="190.869141" xlink:href="#DejaVuSans-48"/>
      </g>
     </g>
    </g>
    <g id="ytick_2">
     <g id="line2d_5">
      <g>
       <use style="stroke:#000000;stroke-width:0.8;" x="94.3" xlink:href="#m28e00c6feb" y="235.399204"/>
      </g>
     </g>
     <g id="text_5">
      <!-- 2400 -->
      <defs>
       <path d="M 37.796875 64.3125 
L 12.890625 25.390625 
L 37.796875 25.390625 
z
M 35.203125 72.90625 
L 47.609375 72.90625 
L 47.609375 25.390625 
L 58.015625 25.390625 
L 58.015625 17.1875 
L 47.609375 17.1875 
L 47.609375 0 
L 37.796875 0 
L 37.796875 17.1875 
L 4.890625 17.1875 
L 4.890625 26.703125 
z
" id="DejaVuSans-52"/>
      </defs>
      <g transform="translate(10.95 246.79686)scale(0.3 -0.3)">
       <use xlink:href="#DejaVuSans-50"/>
       <use x="63.623047" xlink:href="#DejaVuSans-52"/>
       <use x="127.246094" xlink:href="#DejaVuSans-48"/>
       <use x="190.869141" xlink:href="#DejaVuSans-48"/>
      </g>
     </g>
    </g>
    <g id="ytick_3">
     <g id="line2d_6">
      <g>
       <use style="stroke:#000000;stroke-width:0.8;" x="94.3" xlink:href="#m28e00c6feb" y="134.296305"/>
      </g>
     </g>
     <g id="text_6">
      <!-- 2700 -->
      <defs>
       <path d="M 8.203125 72.90625 
L 55.078125 72.90625 
L 55.078125 68.703125 
L 28.609375 0 
L 18.3125 0 
L 43.21875 64.59375 
L 8.203125 64.59375 
z
" id="DejaVuSans-55"/>
      </defs>
      <g transform="translate(10.95 145.693961)scale(0.3 -0.3)">
       <use xlink:href="#DejaVuSans-50"/>
       <use x="63.623047" xlink:href="#DejaVuSans-55"/>
       <use x="127.246094" xlink:href="#DejaVuSans-48"/>
       <use x="190.869141" xlink:href="#DejaVuSans-48"/>
      </g>
     </g>
    </g>
   </g>
   <g id="line2d_7">
    <path clip-path="url(#p3c0ebbbd23)" d="M 128.210176 354.532121 
L 131.896064 319.820125 
L 135.581953 328.413872 
L 146.639619 342.231268 
L 150.325508 326.728823 
L 154.011396 328.245367 
L 157.697285 319.483115 
L 161.383174 301.116089 
L 172.440839 289.152246 
L 176.126728 290.163275 
L 179.812617 272.470267 
L 183.498505 242.139397 
L 187.184394 244.32996 
L 198.24206 206.753383 
L 201.927949 210.123479 
L 205.613837 242.813417 
L 209.299726 233.545651 
L 212.985615 225.120409 
L 224.043281 209.954974 
L 227.729169 179.11859 
L 231.415058 162.099602 
L 235.100947 143.56407 
L 238.786835 140.699488 
L 249.844501 159.57203 
L 253.53039 138.340421 
L 257.216279 145.923138 
L 260.902167 186.195793 
L 264.588056 188.723366 
L 275.645722 197.485617 
L 279.33161 190.745424 
L 283.017499 158.729505 
L 286.703388 141.373508 
L 290.389276 133.79079 
L 301.446942 100.595338 
L 305.132831 105.481978 
L 308.81872 88.8 
L 312.504608 128.56714 
L 316.190497 138.171916 
L 327.248163 159.740534 
L 330.934052 146.934167 
L 334.61994 179.11859 
L 338.305829 140.530984 
L 341.991718 135.138829 
L 356.735272 113.90722 
L 360.421161 92.170097 
L 364.107049 121.658442 
L 367.792938 144.912109 
L 378.850604 139.519955 
L 382.536493 135.475839 
L 386.222381 125.534053 
L 389.90827 110.368619 
L 393.594159 156.370438 
L 404.651825 115.592268 
L 408.337713 119.973394 
L 412.023602 141.879022 
L 415.709491 165.301194 
L 419.395379 200.350199 
L 430.453045 205.405344 
L 434.138934 213.99909 
L 437.824823 210.966003 
L 441.510711 199.67618 
L 456.254266 224.614895 
L 459.940155 214.3361 
L 463.626043 216.695168 
L 467.311932 230.849574 
L 470.99782 239.44332 
L 482.055486 241.802388 
L 485.741375 225.457419 
L 489.427264 220.570779 
L 493.113152 222.929847 
L 496.799041 241.128368 
L 507.856707 205.573849 
L 511.542596 222.761342 
L 515.228484 221.581808 
L 518.914373 218.380216 
L 522.600262 213.493576 
L 533.657928 219.55975 
L 537.343816 224.44639 
L 541.029705 221.581808 
L 544.715594 210.460489 
L 548.401482 224.10938 
L 559.459148 259.158385 
L 563.145037 275.503354 
L 566.830925 283.423081 
L 570.516814 254.608755 
L 574.202703 242.981922 
L 588.946257 281.064014 
L 592.632146 269.100171 
L 596.318035 287.635702 
L 600.003923 284.43411 
L 611.061589 277.188403 
L 614.747478 298.251507 
L 618.433367 284.265605 
L 622.119255 291.342808 
L 625.805144 273.986811 
L 636.86281 275.840364 
L 640.548699 289.32075 
L 644.234587 320.32564 
L 647.920476 303.643661 
L 651.606365 321.336669 
L 666.349919 299.599545 
L 670.035808 284.265605 
L 673.721696 244.835475 
L 677.407585 257.304832 
L 688.465251 269.100171 
L 692.15114 264.045026 
L 695.837028 266.067084 
L 699.522917 287.972712 
L 703.208806 286.287663 
L 714.266472 306.676748 
L 717.95236 314.933485 
L 721.638249 309.035816 
L 725.324138 334.480045 
L 729.010026 352.341558 
L 740.067692 342.905287 
L 743.753581 385.2 
L 747.43947 365.31643 
L 751.125358 329.087891 
L 765.868913 265.730074 
L 769.554801 286.456168 
L 773.24069 257.136327 
L 776.926579 259.158385 
L 780.612467 297.745992 
L 791.670133 298.083002 
L 795.356022 303.138147 
L 799.041911 256.799318 
L 802.727799 219.22274 
L 806.413688 206.416373 
L 806.413688 206.416373 
" style="fill:none;stroke:#000000;stroke-linecap:square;stroke-width:4;"/>
   </g>
   <g id="patch_3">
    <path d="M 94.3 385.2 
L 94.3 88.8 
" style="fill:none;stroke:#000000;stroke-linecap:square;stroke-linejoin:miter;stroke-width:0.8;"/>
   </g>
   <g id="patch_4">
    <path d="M 94.3 385.2 
L 840.323864 385.2 
" style="fill:none;stroke:#000000;stroke-linecap:square;stroke-linejoin:miter;stroke-width:0.8;"/>
   </g>
   <g id="text_7">
    <!-- 6723   21% -->
    <defs>
     <path d="M 36.1875 35.984375 
Q 31.25 35.984375 28.78125 32.78125 
Q 26.3125 29.59375 26.3125 23.1875 
Q 26.3125 16.796875 28.78125 13.59375 
Q 31.25 10.40625 36.1875 10.40625 
Q 41.15625 10.40625 43.625 13.59375 
Q 46.09375 16.796875 46.09375 23.1875 
Q 46.09375 29.59375 43.625 32.78125 
Q 41.15625 35.984375 36.1875 35.984375 
z
M 59.421875 71 
L 59.421875 57.515625 
Q 54.78125 59.71875 50.671875 60.765625 
Q 46.578125 61.8125 42.671875 61.8125 
Q 34.28125 61.8125 29.59375 57.140625 
Q 24.90625 52.484375 24.125 43.3125 
Q 27.34375 45.703125 31.09375 46.890625 
Q 34.859375 48.09375 39.3125 48.09375 
Q 50.484375 48.09375 57.34375 41.546875 
Q 64.203125 35.015625 64.203125 24.421875 
Q 64.203125 12.703125 56.53125 5.640625 
Q 48.875 -1.421875 35.984375 -1.421875 
Q 21.78125 -1.421875 13.984375 8.171875 
Q 6.203125 17.78125 6.203125 35.40625 
Q 6.203125 53.46875 15.3125 63.796875 
Q 24.421875 74.125 40.28125 74.125 
Q 45.3125 74.125 50.046875 73.34375 
Q 54.78125 72.5625 59.421875 71 
z
" id="DejaVuSans-Bold-54"/>
     <path d="M 6.6875 72.90625 
L 61.625 72.90625 
L 61.625 62.3125 
L 33.203125 0 
L 14.890625 0 
L 41.796875 59.078125 
L 6.6875 59.078125 
z
" id="DejaVuSans-Bold-55"/>
     <path d="M 28.8125 13.8125 
L 60.890625 13.8125 
L 60.890625 0 
L 7.90625 0 
L 7.90625 13.8125 
L 34.515625 37.3125 
Q 38.09375 40.53125 39.796875 43.609375 
Q 41.5 46.6875 41.5 50 
Q 41.5 55.125 38.0625 58.25 
Q 34.625 61.375 28.90625 61.375 
Q 24.515625 61.375 19.28125 59.5 
Q 14.0625 57.625 8.109375 53.90625 
L 8.109375 69.921875 
Q 14.453125 72.015625 20.65625 73.109375 
Q 26.859375 74.21875 32.8125 74.21875 
Q 45.90625 74.21875 53.15625 68.453125 
Q 60.40625 62.703125 60.40625 52.390625 
Q 60.40625 46.4375 57.328125 41.28125 
Q 54.25 36.140625 44.390625 27.484375 
z
" id="DejaVuSans-Bold-50"/>
     <path d="M 46.578125 39.3125 
Q 53.953125 37.40625 57.78125 32.6875 
Q 61.625 27.984375 61.625 20.703125 
Q 61.625 9.859375 53.3125 4.21875 
Q 45.015625 -1.421875 29.109375 -1.421875 
Q 23.484375 -1.421875 17.84375 -0.515625 
Q 12.203125 0.390625 6.6875 2.203125 
L 6.6875 16.703125 
Q 11.96875 14.0625 17.15625 12.71875 
Q 22.359375 11.375 27.390625 11.375 
Q 34.859375 11.375 38.84375 13.953125 
Q 42.828125 16.546875 42.828125 21.390625 
Q 42.828125 26.375 38.75 28.9375 
Q 34.671875 31.5 26.703125 31.5 
L 19.1875 31.5 
L 19.1875 43.609375 
L 27.09375 43.609375 
Q 34.1875 43.609375 37.640625 45.828125 
Q 41.109375 48.046875 41.109375 52.59375 
Q 41.109375 56.78125 37.734375 59.078125 
Q 34.375 61.375 28.21875 61.375 
Q 23.6875 61.375 19.046875 60.34375 
Q 14.40625 59.328125 9.8125 57.328125 
L 9.8125 71.09375 
Q 15.375 72.65625 20.84375 73.4375 
Q 26.3125 74.21875 31.59375 74.21875 
Q 45.796875 74.21875 52.84375 69.546875 
Q 59.90625 64.890625 59.90625 55.515625 
Q 59.90625 49.125 56.53125 45.046875 
Q 53.171875 40.96875 46.578125 39.3125 
z
" id="DejaVuSans-Bold-51"/>
     <path id="DejaVuSans-Bold-32"/>
     <path d="M 11.71875 12.984375 
L 28.328125 12.984375 
L 28.328125 60.109375 
L 11.28125 56.59375 
L 11.28125 69.390625 
L 28.21875 72.90625 
L 46.09375 72.90625 
L 46.09375 12.984375 
L 62.703125 12.984375 
L 62.703125 0 
L 11.71875 0 
z
" id="DejaVuSans-Bold-49"/>
     <path d="M 77.484375 30.078125 
Q 74.03125 30.078125 72.125 27.078125 
Q 70.21875 24.078125 70.21875 18.5 
Q 70.21875 12.890625 72.09375 9.890625 
Q 73.96875 6.890625 77.484375 6.890625 
Q 81 6.890625 82.859375 9.890625 
Q 84.71875 12.890625 84.71875 18.5 
Q 84.71875 24.078125 82.828125 27.078125 
Q 80.953125 30.078125 77.484375 30.078125 
z
M 77.484375 38.28125 
Q 86.578125 38.28125 91.796875 33 
Q 97.015625 27.734375 97.015625 18.5 
Q 97.015625 9.28125 91.796875 3.921875 
Q 86.578125 -1.421875 77.484375 -1.421875 
Q 68.40625 -1.421875 63.15625 3.921875 
Q 57.90625 9.28125 57.90625 18.5 
Q 57.90625 27.6875 63.15625 32.984375 
Q 68.40625 38.28125 77.484375 38.28125 
z
M 32.71875 -1.421875 
L 21.921875 -1.421875 
L 67.484375 74.21875 
L 78.328125 74.21875 
z
M 22.703125 74.21875 
Q 31.78125 74.21875 36.984375 68.921875 
Q 42.1875 63.625 42.1875 54.390625 
Q 42.1875 45.171875 36.984375 39.84375 
Q 31.78125 34.515625 22.703125 34.515625 
Q 13.625 34.515625 8.421875 39.84375 
Q 3.21875 45.171875 3.21875 54.390625 
Q 3.21875 63.625 8.421875 68.921875 
Q 13.625 74.21875 22.703125 74.21875 
z
M 22.703125 66.015625 
Q 19.1875 66.015625 17.28125 62.984375 
Q 15.375 59.96875 15.375 54.390625 
Q 15.375 48.78125 17.28125 45.71875 
Q 19.1875 42.671875 22.703125 42.671875 
Q 26.21875 42.671875 28.09375 45.71875 
Q 29.984375 48.78125 29.984375 54.390625 
Q 29.984375 59.96875 28.078125 62.984375 
Q 26.171875 66.015625 22.703125 66.015625 
z
" id="DejaVuSans-Bold-37"/>
    </defs>
    <g transform="translate(94.3 72.1625)scale(0.8 -0.8)">
     <use xlink:href="#DejaVuSans-Bold-54"/>
     <use x="69.580078" xlink:href="#DejaVuSans-Bold-55"/>
     <use x="139.160156" xlink:href="#DejaVuSans-Bold-50"/>
     <use x="208.740234" xlink:href="#DejaVuSans-Bold-51"/>
     <use x="278.320312" xlink:href="#DejaVuSans-Bold-32"/>
     <use x="313.134766" xlink:href="#DejaVuSans-Bold-32"/>
     <use x="347.949219" xlink:href="#DejaVuSans-Bold-32"/>
     <use x="382.763672" xlink:href="#DejaVuSans-Bold-50"/>
     <use x="452.34375" xlink:href="#DejaVuSans-Bold-49"/>
     <use x="521.923828" xlink:href="#DejaVuSans-Bold-37"/>
    </g>
   </g>
  </g>
 </g>
 <defs>
  <clipPath id="p3c0ebbbd23">
   <rect height="296.4" width="746.023864" x="94.3" y="88.8"/>
  </clipPath>
 </defs>
</svg>
