<?xml version="1.0" encoding="utf-8" standalone="no"?>
<!DOCTYPE svg PUBLIC "-//W3C//DTD SVG 1.1//EN"
  "http://www.w3.org/Graphics/SVG/1.1/DTD/svg11.dtd">
<!-- Created with matplotlib (https://matplotlib.org/) -->
<svg height="432pt" version="1.1" viewBox="0 0 576 432" width="576pt" xmlns="http://www.w3.org/2000/svg" xmlns:xlink="http://www.w3.org/1999/xlink">
 <defs>
  <style type="text/css">
*{stroke-linecap:butt;stroke-linejoin:round;}
  </style>
 </defs>
 <g id="figure_1">
  <g id="patch_1">
   <path d="M 0 432 
L 576 432 
L 576 0 
L 0 0 
z
" style="fill:#ffffff;"/>
  </g>
  <g id="axes_1">
   <g id="patch_2">
    <path d="M 49.675 404.2 
L 565.2 404.2 
L 565.2 31.8 
L 49.675 31.8 
z
" style="fill:#ffffff;"/>
   </g>
   <g id="PolyCollection_1">
    <defs>
     <path d="M 73.107955 -44.727273 
L 73.107955 -292.970569 
L 75.67595 -289.465956 
L 79.527942 -296.358343 
L 80.81194 -315.633725 
L 82.095937 -317.853304 
L 83.379935 -318.671055 
L 84.663932 -362.595496 
L 88.515925 -364.931912 
L 89.799922 -383.272727 
L 91.08392 -381.578817 
L 92.367917 -353.133062 
L 93.651915 -335.960466 
L 97.503907 -338.355267 
L 98.787905 -341.100559 
L 101.3559 -355.060602 
L 102.639897 -355.936738 
L 106.49189 -347.934562 
L 107.775887 -339.348241 
L 109.059885 -338.355267 
L 110.343882 -353.71716 
L 111.62788 -356.812897 
L 115.479872 -359.733412 
L 116.76387 -367.794019 
L 118.047867 -351.731212 
L 119.331865 -345.890183 
L 120.615862 -361.660929 
L 124.467855 -347.408871 
L 125.751852 -352.140088 
L 127.03585 -362.537088 
L 128.319847 -355.878331 
L 129.603845 -337.362316 
L 133.455837 -325.271405 
L 134.739835 -316.100986 
L 136.023833 -315.575318 
L 137.30783 -312.713211 
L 138.591828 -300.213424 
L 142.44382 -309.442228 
L 143.727818 -313.180494 
L 145.011815 -305.119887 
L 146.295813 -308.36338 
L 147.57981 -299.34718 
L 153.999798 -292.380098 
L 155.283795 -298.293337 
L 156.567793 -302.684346 
L 161.703783 -314.159505 
L 162.98778 -325.166299 
L 164.271778 -329.147466 
L 165.555775 -345.364929 
L 169.407768 -343.43288 
L 170.691765 -352.507648 
L 171.975763 -351.336691 
L 173.25976 -342.847424 
L 174.543758 -340.915375 
L 178.39575 -348.643549 
L 179.679748 -348.877732 
L 180.963745 -353.620037 
L 182.247743 -352.331988 
L 183.53174 -348.936277 
L 187.383733 -350.517053 
L 188.66773 -343.667085 
L 189.951728 -302.567255 
L 191.235725 -312.637297 
L 192.519723 -314.276596 
L 196.371715 -312.520183 
L 197.655713 -309.944133 
L 198.93971 -316.033008 
L 200.223708 -315.271893 
L 201.507705 -311.524909 
L 205.359698 -307.1339 
L 206.643696 -313.105662 
L 207.927693 -310.178315 
L 209.211691 -314.452232 
L 210.495688 -305.670215 
L 214.347681 -308.831744 
L 215.631678 -304.148008 
L 216.915676 -300.752297 
L 219.483671 -311.349249 
L 223.335663 -304.733463 
L 224.619661 -304.089462 
L 225.903658 -300.810842 
L 227.187656 -295.834355 
L 228.471653 -303.211256 
L 232.323646 -306.95824 
L 233.607643 -297.590768 
L 234.891641 -299.932636 
L 236.175638 -302.33305 
L 237.459636 -293.258305 
L 241.311628 -295.951469 
L 242.595626 -295.892901 
L 243.879623 -296.185651 
L 245.163621 -300.635205 
L 246.447618 -312.461638 
L 250.299611 -297.005289 
L 252.867606 -301.396298 
L 254.151603 -301.923231 
L 255.435601 -303.15271 
L 259.287593 -301.513412 
L 260.571591 -295.483082 
L 261.855588 -306.197148 
L 263.139586 -313.339844 
L 264.423583 -317.321034 
L 268.275576 -310.646702 
L 269.559573 -309.475768 
L 270.843571 -309.70995 
L 272.127568 -296.712561 
L 273.411566 -297.122403 
L 277.263559 -298.52752 
L 278.547556 -302.977074 
L 279.831554 -302.801437 
L 281.115551 -299.288635 
L 282.399549 -300.108272 
L 286.251541 -298.644611 
L 287.535539 -291.26771 
L 288.819536 -290.389526 
L 290.103534 -287.345089 
L 291.387531 -288.164749 
L 295.239524 -282.719898 
L 296.523521 -280.670757 
L 297.807519 -273.001129 
L 299.091516 -267.205004 
L 300.375514 -260.179376 
L 304.227506 -253.095226 
L 305.511504 -258.657169 
L 313.215489 -254.96873 
L 314.499486 -259.242624 
L 315.783484 -253.387954 
L 317.067481 -255.027275 
L 318.351479 -259.828103 
L 322.203471 -259.47683 
L 323.487469 -268.375938 
L 324.771466 -275.869907 
L 326.055464 -284.651924 
L 327.339461 -287.052361 
L 331.191454 -294.370693 
L 332.475451 -300.342478 
L 333.759449 -310.061224 
L 335.043446 -309.651405 
L 336.327444 -313.281298 
L 340.179436 -307.192446 
L 341.463434 -304.850577 
L 342.747432 -298.234792 
L 344.031429 -304.089462 
L 345.315427 -296.244197 
L 349.167419 -296.244197 
L 350.451417 -301.630503 
L 351.735414 -288.164749 
L 353.019412 -286.818156 
L 354.303409 -290.916436 
L 358.155402 -292.497189 
L 359.439399 -308.012083 
L 360.723397 -306.665513 
L 362.007394 -301.454866 
L 363.291392 -305.670215 
L 367.143384 -295.014717 
L 368.427382 -296.771107 
L 369.711379 -301.045024 
L 370.995377 -287.403634 
L 372.279374 -291.384801 
L 376.131367 -287.98909 
L 377.415364 -285.822858 
L 378.699362 -297.415131 
L 379.983359 -305.494924 
L 381.267357 -298.840284 
L 385.119349 -310.088392 
L 386.403347 -307.438314 
L 387.687344 -299.370299 
L 388.971342 -294.187925 
L 390.255339 -291.302285 
L 394.107332 -286.002129 
L 395.391329 -292.597879 
L 396.675327 -278.994146 
L 397.959324 -289.123332 
L 399.243322 -291.243394 
L 404.379312 -292.538988 
L 405.663309 -297.839143 
L 406.947307 -284.824317 
L 408.231304 -276.049615 
L 412.083297 -284.942098 
L 413.367295 -288.00441 
L 414.651292 -294.364597 
L 415.93529 -293.7168 
L 417.219287 -296.013534 
L 421.07128 -297.662472 
L 422.355277 -304.670455 
L 423.639275 -298.074706 
L 424.923272 -296.190206 
L 426.20727 -292.71566 
L 430.059262 -294.423488 
L 431.34326 -303.19819 
L 432.627257 -312.679579 
L 433.911255 -303.374861 
L 439.047245 -299.134737 
L 440.331242 -299.252518 
L 441.61524 -294.65905 
L 442.899237 -293.422347 
L 444.183235 -293.010113 
L 448.035227 -293.304566 
L 449.319225 -303.728205 
L 450.603222 -297.132456 
L 451.88722 -306.378283 
L 453.171217 -288.239973 
L 457.02321 -306.319392 
L 458.307207 -306.201611 
L 459.591205 -308.380564 
L 460.875202 -311.79622 
L 462.1592 -313.268485 
L 466.011192 -310.91286 
L 467.29519 -308.851689 
L 468.579187 -309.91172 
L 469.863185 -305.082689 
L 471.147182 -304.19933 
L 474.999175 -295.719081 
L 476.283172 -293.127894 
L 477.56717 -293.540128 
L 478.851167 -307.909439 
L 480.135165 -312.149563 
L 485.271155 -299.546971 
L 486.555153 -301.37258 
L 487.83915 -301.843705 
L 489.123148 -307.556095 
L 492.97514 -317.744172 
L 494.259138 -314.505188 
L 495.543135 -318.156406 
L 496.827133 -319.628672 
L 498.11113 -318.804203 
L 501.963123 -323.33878 
L 503.24712 -316.801922 
L 504.531118 -307.497205 
L 505.815115 -314.328516 
L 507.099113 -317.508609 
L 512.235103 -328.638936 
L 513.5191 -346.600574 
L 514.803098 -365.740024 
L 516.087095 -361.264338 
L 519.939088 -358.437588 
L 521.223085 -363.089947 
L 522.507083 -368.390102 
L 523.79108 -357.318666 
L 525.075078 -356.847541 
L 528.92707 -354.491917 
L 530.211068 -348.013949 
L 531.495065 -347.483933 
L 532.779063 -334.881341 
L 534.06306 -343.891606 
L 537.915053 -348.720636 
L 539.19905 -341.594872 
L 540.483048 -364.856665 
L 541.767045 -368.507883 
L 541.767045 -44.727273 
L 541.767045 -44.727273 
L 540.483048 -44.727273 
L 539.19905 -44.727273 
L 537.915053 -44.727273 
L 534.06306 -44.727273 
L 532.779063 -44.727273 
L 531.495065 -44.727273 
L 530.211068 -44.727273 
L 528.92707 -44.727273 
L 525.075078 -44.727273 
L 523.79108 -44.727273 
L 522.507083 -44.727273 
L 521.223085 -44.727273 
L 519.939088 -44.727273 
L 516.087095 -44.727273 
L 514.803098 -44.727273 
L 513.5191 -44.727273 
L 512.235103 -44.727273 
L 507.099113 -44.727273 
L 505.815115 -44.727273 
L 504.531118 -44.727273 
L 503.24712 -44.727273 
L 501.963123 -44.727273 
L 498.11113 -44.727273 
L 496.827133 -44.727273 
L 495.543135 -44.727273 
L 494.259138 -44.727273 
L 492.97514 -44.727273 
L 489.123148 -44.727273 
L 487.83915 -44.727273 
L 486.555153 -44.727273 
L 485.271155 -44.727273 
L 480.135165 -44.727273 
L 478.851167 -44.727273 
L 477.56717 -44.727273 
L 476.283172 -44.727273 
L 474.999175 -44.727273 
L 471.147182 -44.727273 
L 469.863185 -44.727273 
L 468.579187 -44.727273 
L 467.29519 -44.727273 
L 466.011192 -44.727273 
L 462.1592 -44.727273 
L 460.875202 -44.727273 
L 459.591205 -44.727273 
L 458.307207 -44.727273 
L 457.02321 -44.727273 
L 453.171217 -44.727273 
L 451.88722 -44.727273 
L 450.603222 -44.727273 
L 449.319225 -44.727273 
L 448.035227 -44.727273 
L 444.183235 -44.727273 
L 442.899237 -44.727273 
L 441.61524 -44.727273 
L 440.331242 -44.727273 
L 439.047245 -44.727273 
L 433.911255 -44.727273 
L 432.627257 -44.727273 
L 431.34326 -44.727273 
L 430.059262 -44.727273 
L 426.20727 -44.727273 
L 424.923272 -44.727273 
L 423.639275 -44.727273 
L 422.355277 -44.727273 
L 421.07128 -44.727273 
L 417.219287 -44.727273 
L 415.93529 -44.727273 
L 414.651292 -44.727273 
L 413.367295 -44.727273 
L 412.083297 -44.727273 
L 408.231304 -44.727273 
L 406.947307 -44.727273 
L 405.663309 -44.727273 
L 404.379312 -44.727273 
L 399.243322 -44.727273 
L 397.959324 -44.727273 
L 396.675327 -44.727273 
L 395.391329 -44.727273 
L 394.107332 -44.727273 
L 390.255339 -44.727273 
L 388.971342 -44.727273 
L 387.687344 -44.727273 
L 386.403347 -44.727273 
L 385.119349 -44.727273 
L 381.267357 -44.727273 
L 379.983359 -44.727273 
L 378.699362 -44.727273 
L 377.415364 -44.727273 
L 376.131367 -44.727273 
L 372.279374 -44.727273 
L 370.995377 -44.727273 
L 369.711379 -44.727273 
L 368.427382 -44.727273 
L 367.143384 -44.727273 
L 363.291392 -44.727273 
L 362.007394 -44.727273 
L 360.723397 -44.727273 
L 359.439399 -44.727273 
L 358.155402 -44.727273 
L 354.303409 -44.727273 
L 353.019412 -44.727273 
L 351.735414 -44.727273 
L 350.451417 -44.727273 
L 349.167419 -44.727273 
L 345.315427 -44.727273 
L 344.031429 -44.727273 
L 342.747432 -44.727273 
L 341.463434 -44.727273 
L 340.179436 -44.727273 
L 336.327444 -44.727273 
L 335.043446 -44.727273 
L 333.759449 -44.727273 
L 332.475451 -44.727273 
L 331.191454 -44.727273 
L 327.339461 -44.727273 
L 326.055464 -44.727273 
L 324.771466 -44.727273 
L 323.487469 -44.727273 
L 322.203471 -44.727273 
L 318.351479 -44.727273 
L 317.067481 -44.727273 
L 315.783484 -44.727273 
L 314.499486 -44.727273 
L 313.215489 -44.727273 
L 305.511504 -44.727273 
L 304.227506 -44.727273 
L 300.375514 -44.727273 
L 299.091516 -44.727273 
L 297.807519 -44.727273 
L 296.523521 -44.727273 
L 295.239524 -44.727273 
L 291.387531 -44.727273 
L 290.103534 -44.727273 
L 288.819536 -44.727273 
L 287.535539 -44.727273 
L 286.251541 -44.727273 
L 282.399549 -44.727273 
L 281.115551 -44.727273 
L 279.831554 -44.727273 
L 278.547556 -44.727273 
L 277.263559 -44.727273 
L 273.411566 -44.727273 
L 272.127568 -44.727273 
L 270.843571 -44.727273 
L 269.559573 -44.727273 
L 268.275576 -44.727273 
L 264.423583 -44.727273 
L 263.139586 -44.727273 
L 261.855588 -44.727273 
L 260.571591 -44.727273 
L 259.287593 -44.727273 
L 255.435601 -44.727273 
L 254.151603 -44.727273 
L 252.867606 -44.727273 
L 250.299611 -44.727273 
L 246.447618 -44.727273 
L 245.163621 -44.727273 
L 243.879623 -44.727273 
L 242.595626 -44.727273 
L 241.311628 -44.727273 
L 237.459636 -44.727273 
L 236.175638 -44.727273 
L 234.891641 -44.727273 
L 233.607643 -44.727273 
L 232.323646 -44.727273 
L 228.471653 -44.727273 
L 227.187656 -44.727273 
L 225.903658 -44.727273 
L 224.619661 -44.727273 
L 223.335663 -44.727273 
L 219.483671 -44.727273 
L 216.915676 -44.727273 
L 215.631678 -44.727273 
L 214.347681 -44.727273 
L 210.495688 -44.727273 
L 209.211691 -44.727273 
L 207.927693 -44.727273 
L 206.643696 -44.727273 
L 205.359698 -44.727273 
L 201.507705 -44.727273 
L 200.223708 -44.727273 
L 198.93971 -44.727273 
L 197.655713 -44.727273 
L 196.371715 -44.727273 
L 192.519723 -44.727273 
L 191.235725 -44.727273 
L 189.951728 -44.727273 
L 188.66773 -44.727273 
L 187.383733 -44.727273 
L 183.53174 -44.727273 
L 182.247743 -44.727273 
L 180.963745 -44.727273 
L 179.679748 -44.727273 
L 178.39575 -44.727273 
L 174.543758 -44.727273 
L 173.25976 -44.727273 
L 171.975763 -44.727273 
L 170.691765 -44.727273 
L 169.407768 -44.727273 
L 165.555775 -44.727273 
L 164.271778 -44.727273 
L 162.98778 -44.727273 
L 161.703783 -44.727273 
L 156.567793 -44.727273 
L 155.283795 -44.727273 
L 153.999798 -44.727273 
L 147.57981 -44.727273 
L 146.295813 -44.727273 
L 145.011815 -44.727273 
L 143.727818 -44.727273 
L 142.44382 -44.727273 
L 138.591828 -44.727273 
L 137.30783 -44.727273 
L 136.023833 -44.727273 
L 134.739835 -44.727273 
L 133.455837 -44.727273 
L 129.603845 -44.727273 
L 128.319847 -44.727273 
L 127.03585 -44.727273 
L 125.751852 -44.727273 
L 124.467855 -44.727273 
L 120.615862 -44.727273 
L 119.331865 -44.727273 
L 118.047867 -44.727273 
L 116.76387 -44.727273 
L 115.479872 -44.727273 
L 111.62788 -44.727273 
L 110.343882 -44.727273 
L 109.059885 -44.727273 
L 107.775887 -44.727273 
L 106.49189 -44.727273 
L 102.639897 -44.727273 
L 101.3559 -44.727273 
L 98.787905 -44.727273 
L 97.503907 -44.727273 
L 93.651915 -44.727273 
L 92.367917 -44.727273 
L 91.08392 -44.727273 
L 89.799922 -44.727273 
L 88.515925 -44.727273 
L 84.663932 -44.727273 
L 83.379935 -44.727273 
L 82.095937 -44.727273 
L 80.81194 -44.727273 
L 79.527942 -44.727273 
L 75.67595 -44.727273 
L 73.107955 -44.727273 
z
" id="m1cab7c7db4" style="stroke:#ffcee0;"/>
    </defs>
    <g clip-path="url(#pbf2cab1c68)">
     <use style="fill:#ffcee0;stroke:#ffcee0;" x="0" xlink:href="#m1cab7c7db4" y="432"/>
    </g>
   </g>
   <g id="matplotlib.axis_1">
    <g id="xtick_1">
     <g id="line2d_1">
      <defs>
       <path d="M 0 0 
L 0 3.5 
" id="m276eabeff8" style="stroke:#000000;stroke-width:0.8;"/>
      </defs>
      <g>
       <use style="stroke:#000000;stroke-width:0.8;" x="71.823957" xlink:href="#m276eabeff8" y="404.2"/>
      </g>
     </g>
     <g id="text_1">
      <!-- 2022-11 -->
      <defs>
       <path d="M 19.1875 8.296875 
L 53.609375 8.296875 
L 53.609375 0 
L 7.328125 0 
L 7.328125 8.296875 
Q 12.9375 14.109375 22.625 23.890625 
Q 32.328125 33.6875 34.8125 36.53125 
Q 39.546875 41.84375 41.421875 45.53125 
Q 43.3125 49.21875 43.3125 52.78125 
Q 43.3125 58.59375 39.234375 62.25 
Q 35.15625 65.921875 28.609375 65.921875 
Q 23.96875 65.921875 18.8125 64.3125 
Q 13.671875 62.703125 7.8125 59.421875 
L 7.8125 69.390625 
Q 13.765625 71.78125 18.9375 73 
Q 24.125 74.21875 28.421875 74.21875 
Q 39.75 74.21875 46.484375 68.546875 
Q 53.21875 62.890625 53.21875 53.421875 
Q 53.21875 48.921875 51.53125 44.890625 
Q 49.859375 40.875 45.40625 35.40625 
Q 44.1875 33.984375 37.640625 27.21875 
Q 31.109375 20.453125 19.1875 8.296875 
z
" id="DejaVuSans-50"/>
       <path d="M 31.78125 66.40625 
Q 24.171875 66.40625 20.328125 58.90625 
Q 16.5 51.421875 16.5 36.375 
Q 16.5 21.390625 20.328125 13.890625 
Q 24.171875 6.390625 31.78125 6.390625 
Q 39.453125 6.390625 43.28125 13.890625 
Q 47.125 21.390625 47.125 36.375 
Q 47.125 51.421875 43.28125 58.90625 
Q 39.453125 66.40625 31.78125 66.40625 
z
M 31.78125 74.21875 
Q 44.046875 74.21875 50.515625 64.515625 
Q 56.984375 54.828125 56.984375 36.375 
Q 56.984375 17.96875 50.515625 8.265625 
Q 44.046875 -1.421875 31.78125 -1.421875 
Q 19.53125 -1.421875 13.0625 8.265625 
Q 6.59375 17.96875 6.59375 36.375 
Q 6.59375 54.828125 13.0625 64.515625 
Q 19.53125 74.21875 31.78125 74.21875 
z
" id="DejaVuSans-48"/>
       <path d="M 4.890625 31.390625 
L 31.203125 31.390625 
L 31.203125 23.390625 
L 4.890625 23.390625 
z
" id="DejaVuSans-45"/>
       <path d="M 12.40625 8.296875 
L 28.515625 8.296875 
L 28.515625 63.921875 
L 10.984375 60.40625 
L 10.984375 69.390625 
L 28.421875 72.90625 
L 38.28125 72.90625 
L 38.28125 8.296875 
L 54.390625 8.296875 
L 54.390625 0 
L 12.40625 0 
z
" id="DejaVuSans-49"/>
      </defs>
      <g transform="translate(50.932551 418.798437)scale(0.1 -0.1)">
       <use xlink:href="#DejaVuSans-50"/>
       <use x="63.623047" xlink:href="#DejaVuSans-48"/>
       <use x="127.246094" xlink:href="#DejaVuSans-50"/>
       <use x="190.869141" xlink:href="#DejaVuSans-50"/>
       <use x="254.492188" xlink:href="#DejaVuSans-45"/>
       <use x="290.576172" xlink:href="#DejaVuSans-49"/>
       <use x="354.199219" xlink:href="#DejaVuSans-49"/>
      </g>
     </g>
    </g>
    <g id="xtick_2">
     <g id="line2d_2">
      <g>
       <use style="stroke:#000000;stroke-width:0.8;" x="150.147805" xlink:href="#m276eabeff8" y="404.2"/>
      </g>
     </g>
     <g id="text_2">
      <!-- 2023-01 -->
      <defs>
       <path d="M 40.578125 39.3125 
Q 47.65625 37.796875 51.625 33 
Q 55.609375 28.21875 55.609375 21.1875 
Q 55.609375 10.40625 48.1875 4.484375 
Q 40.765625 -1.421875 27.09375 -1.421875 
Q 22.515625 -1.421875 17.65625 -0.515625 
Q 12.796875 0.390625 7.625 2.203125 
L 7.625 11.71875 
Q 11.71875 9.328125 16.59375 8.109375 
Q 21.484375 6.890625 26.8125 6.890625 
Q 36.078125 6.890625 40.9375 10.546875 
Q 45.796875 14.203125 45.796875 21.1875 
Q 45.796875 27.640625 41.28125 31.265625 
Q 36.765625 34.90625 28.71875 34.90625 
L 20.21875 34.90625 
L 20.21875 43.015625 
L 29.109375 43.015625 
Q 36.375 43.015625 40.234375 45.921875 
Q 44.09375 48.828125 44.09375 54.296875 
Q 44.09375 59.90625 40.109375 62.90625 
Q 36.140625 65.921875 28.71875 65.921875 
Q 24.65625 65.921875 20.015625 65.03125 
Q 15.375 64.15625 9.8125 62.3125 
L 9.8125 71.09375 
Q 15.4375 72.65625 20.34375 73.4375 
Q 25.25 74.21875 29.59375 74.21875 
Q 40.828125 74.21875 47.359375 69.109375 
Q 53.90625 64.015625 53.90625 55.328125 
Q 53.90625 49.265625 50.4375 45.09375 
Q 46.96875 40.921875 40.578125 39.3125 
z
" id="DejaVuSans-51"/>
      </defs>
      <g transform="translate(129.256399 418.798437)scale(0.1 -0.1)">
       <use xlink:href="#DejaVuSans-50"/>
       <use x="63.623047" xlink:href="#DejaVuSans-48"/>
       <use x="127.246094" xlink:href="#DejaVuSans-50"/>
       <use x="190.869141" xlink:href="#DejaVuSans-51"/>
       <use x="254.492188" xlink:href="#DejaVuSans-45"/>
       <use x="290.576172" xlink:href="#DejaVuSans-48"/>
       <use x="354.199219" xlink:href="#DejaVuSans-49"/>
      </g>
     </g>
    </g>
    <g id="xtick_3">
     <g id="line2d_3">
      <g>
       <use style="stroke:#000000;stroke-width:0.8;" x="225.903658" xlink:href="#m276eabeff8" y="404.2"/>
      </g>
     </g>
     <g id="text_3">
      <!-- 2023-03 -->
      <g transform="translate(205.012252 418.798437)scale(0.1 -0.1)">
       <use xlink:href="#DejaVuSans-50"/>
       <use x="63.623047" xlink:href="#DejaVuSans-48"/>
       <use x="127.246094" xlink:href="#DejaVuSans-50"/>
       <use x="190.869141" xlink:href="#DejaVuSans-51"/>
       <use x="254.492188" xlink:href="#DejaVuSans-45"/>
       <use x="290.576172" xlink:href="#DejaVuSans-48"/>
       <use x="354.199219" xlink:href="#DejaVuSans-51"/>
      </g>
     </g>
    </g>
    <g id="xtick_4">
     <g id="line2d_4">
      <g>
       <use style="stroke:#000000;stroke-width:0.8;" x="304.227506" xlink:href="#m276eabeff8" y="404.2"/>
      </g>
     </g>
     <g id="text_4">
      <!-- 2023-05 -->
      <defs>
       <path d="M 10.796875 72.90625 
L 49.515625 72.90625 
L 49.515625 64.59375 
L 19.828125 64.59375 
L 19.828125 46.734375 
Q 21.96875 47.46875 24.109375 47.828125 
Q 26.265625 48.1875 28.421875 48.1875 
Q 40.625 48.1875 47.75 41.5 
Q 54.890625 34.8125 54.890625 23.390625 
Q 54.890625 11.625 47.5625 5.09375 
Q 40.234375 -1.421875 26.90625 -1.421875 
Q 22.3125 -1.421875 17.546875 -0.640625 
Q 12.796875 0.140625 7.71875 1.703125 
L 7.71875 11.625 
Q 12.109375 9.234375 16.796875 8.0625 
Q 21.484375 6.890625 26.703125 6.890625 
Q 35.15625 6.890625 40.078125 11.328125 
Q 45.015625 15.765625 45.015625 23.390625 
Q 45.015625 31 40.078125 35.4375 
Q 35.15625 39.890625 26.703125 39.890625 
Q 22.75 39.890625 18.8125 39.015625 
Q 14.890625 38.140625 10.796875 36.28125 
z
" id="DejaVuSans-53"/>
      </defs>
      <g transform="translate(283.3361 418.798437)scale(0.1 -0.1)">
       <use xlink:href="#DejaVuSans-50"/>
       <use x="63.623047" xlink:href="#DejaVuSans-48"/>
       <use x="127.246094" xlink:href="#DejaVuSans-50"/>
       <use x="190.869141" xlink:href="#DejaVuSans-51"/>
       <use x="254.492188" xlink:href="#DejaVuSans-45"/>
       <use x="290.576172" xlink:href="#DejaVuSans-48"/>
       <use x="354.199219" xlink:href="#DejaVuSans-53"/>
      </g>
     </g>
    </g>
    <g id="xtick_5">
     <g id="line2d_5">
      <g>
       <use style="stroke:#000000;stroke-width:0.8;" x="382.551354" xlink:href="#m276eabeff8" y="404.2"/>
      </g>
     </g>
     <g id="text_5">
      <!-- 2023-07 -->
      <defs>
       <path d="M 8.203125 72.90625 
L 55.078125 72.90625 
L 55.078125 68.703125 
L 28.609375 0 
L 18.3125 0 
L 43.21875 64.59375 
L 8.203125 64.59375 
z
" id="DejaVuSans-55"/>
      </defs>
      <g transform="translate(361.659948 418.798437)scale(0.1 -0.1)">
       <use xlink:href="#DejaVuSans-50"/>
       <use x="63.623047" xlink:href="#DejaVuSans-48"/>
       <use x="127.246094" xlink:href="#DejaVuSans-50"/>
       <use x="190.869141" xlink:href="#DejaVuSans-51"/>
       <use x="254.492188" xlink:href="#DejaVuSans-45"/>
       <use x="290.576172" xlink:href="#DejaVuSans-48"/>
       <use x="354.199219" xlink:href="#DejaVuSans-55"/>
      </g>
     </g>
    </g>
    <g id="xtick_6">
     <g id="line2d_6">
      <g>
       <use style="stroke:#000000;stroke-width:0.8;" x="462.1592" xlink:href="#m276eabeff8" y="404.2"/>
      </g>
     </g>
     <g id="text_6">
      <!-- 2023-09 -->
      <defs>
       <path d="M 10.984375 1.515625 
L 10.984375 10.5 
Q 14.703125 8.734375 18.5 7.8125 
Q 22.3125 6.890625 25.984375 6.890625 
Q 35.75 6.890625 40.890625 13.453125 
Q 46.046875 20.015625 46.78125 33.40625 
Q 43.953125 29.203125 39.59375 26.953125 
Q 35.25 24.703125 29.984375 24.703125 
Q 19.046875 24.703125 12.671875 31.3125 
Q 6.296875 37.9375 6.296875 49.421875 
Q 6.296875 60.640625 12.9375 67.421875 
Q 19.578125 74.21875 30.609375 74.21875 
Q 43.265625 74.21875 49.921875 64.515625 
Q 56.59375 54.828125 56.59375 36.375 
Q 56.59375 19.140625 48.40625 8.859375 
Q 40.234375 -1.421875 26.421875 -1.421875 
Q 22.703125 -1.421875 18.890625 -0.6875 
Q 15.09375 0.046875 10.984375 1.515625 
z
M 30.609375 32.421875 
Q 37.25 32.421875 41.125 36.953125 
Q 45.015625 41.5 45.015625 49.421875 
Q 45.015625 57.28125 41.125 61.84375 
Q 37.25 66.40625 30.609375 66.40625 
Q 23.96875 66.40625 20.09375 61.84375 
Q 16.21875 57.28125 16.21875 49.421875 
Q 16.21875 41.5 20.09375 36.953125 
Q 23.96875 32.421875 30.609375 32.421875 
z
" id="DejaVuSans-57"/>
      </defs>
      <g transform="translate(441.267794 418.798437)scale(0.1 -0.1)">
       <use xlink:href="#DejaVuSans-50"/>
       <use x="63.623047" xlink:href="#DejaVuSans-48"/>
       <use x="127.246094" xlink:href="#DejaVuSans-50"/>
       <use x="190.869141" xlink:href="#DejaVuSans-51"/>
       <use x="254.492188" xlink:href="#DejaVuSans-45"/>
       <use x="290.576172" xlink:href="#DejaVuSans-48"/>
       <use x="354.199219" xlink:href="#DejaVuSans-57"/>
      </g>
     </g>
    </g>
    <g id="xtick_7">
     <g id="line2d_7">
      <g>
       <use style="stroke:#000000;stroke-width:0.8;" x="540.483048" xlink:href="#m276eabeff8" y="404.2"/>
      </g>
     </g>
     <g id="text_7">
      <!-- 2023-11 -->
      <g transform="translate(519.591642 418.798437)scale(0.1 -0.1)">
       <use xlink:href="#DejaVuSans-50"/>
       <use x="63.623047" xlink:href="#DejaVuSans-48"/>
       <use x="127.246094" xlink:href="#DejaVuSans-50"/>
       <use x="190.869141" xlink:href="#DejaVuSans-51"/>
       <use x="254.492188" xlink:href="#DejaVuSans-45"/>
       <use x="290.576172" xlink:href="#DejaVuSans-49"/>
       <use x="354.199219" xlink:href="#DejaVuSans-49"/>
      </g>
     </g>
    </g>
   </g>
   <g id="matplotlib.axis_2">
    <g id="ytick_1">
     <g id="line2d_8">
      <defs>
       <path d="M 0 0 
L -3.5 0 
" id="m5330198cf0" style="stroke:#000000;stroke-width:0.8;"/>
      </defs>
      <g>
       <use style="stroke:#000000;stroke-width:0.8;" x="49.675" xlink:href="#m5330198cf0" y="387.272727"/>
      </g>
     </g>
     <g id="text_8">
      <!-- 0 -->
      <g transform="translate(36.3125 391.071946)scale(0.1 -0.1)">
       <use xlink:href="#DejaVuSans-48"/>
      </g>
     </g>
    </g>
    <g id="ytick_2">
     <g id="line2d_9">
      <g>
       <use style="stroke:#000000;stroke-width:0.8;" x="49.675" xlink:href="#m5330198cf0" y="328.382111"/>
      </g>
     </g>
     <g id="text_9">
      <!-- 5000 -->
      <g transform="translate(17.225 332.181329)scale(0.1 -0.1)">
       <use xlink:href="#DejaVuSans-53"/>
       <use x="63.623047" xlink:href="#DejaVuSans-48"/>
       <use x="127.246094" xlink:href="#DejaVuSans-48"/>
       <use x="190.869141" xlink:href="#DejaVuSans-48"/>
      </g>
     </g>
    </g>
    <g id="ytick_3">
     <g id="line2d_10">
      <g>
       <use style="stroke:#000000;stroke-width:0.8;" x="49.675" xlink:href="#m5330198cf0" y="269.491494"/>
      </g>
     </g>
     <g id="text_10">
      <!-- 10000 -->
      <g transform="translate(10.8625 273.290713)scale(0.1 -0.1)">
       <use xlink:href="#DejaVuSans-49"/>
       <use x="63.623047" xlink:href="#DejaVuSans-48"/>
       <use x="127.246094" xlink:href="#DejaVuSans-48"/>
       <use x="190.869141" xlink:href="#DejaVuSans-48"/>
       <use x="254.492188" xlink:href="#DejaVuSans-48"/>
      </g>
     </g>
    </g>
    <g id="ytick_4">
     <g id="line2d_11">
      <g>
       <use style="stroke:#000000;stroke-width:0.8;" x="49.675" xlink:href="#m5330198cf0" y="210.600877"/>
      </g>
     </g>
     <g id="text_11">
      <!-- 15000 -->
      <g transform="translate(10.8625 214.400096)scale(0.1 -0.1)">
       <use xlink:href="#DejaVuSans-49"/>
       <use x="63.623047" xlink:href="#DejaVuSans-53"/>
       <use x="127.246094" xlink:href="#DejaVuSans-48"/>
       <use x="190.869141" xlink:href="#DejaVuSans-48"/>
       <use x="254.492188" xlink:href="#DejaVuSans-48"/>
      </g>
     </g>
    </g>
    <g id="ytick_5">
     <g id="line2d_12">
      <g>
       <use style="stroke:#000000;stroke-width:0.8;" x="49.675" xlink:href="#m5330198cf0" y="151.71026"/>
      </g>
     </g>
     <g id="text_12">
      <!-- 20000 -->
      <g transform="translate(10.8625 155.509479)scale(0.1 -0.1)">
       <use xlink:href="#DejaVuSans-50"/>
       <use x="63.623047" xlink:href="#DejaVuSans-48"/>
       <use x="127.246094" xlink:href="#DejaVuSans-48"/>
       <use x="190.869141" xlink:href="#DejaVuSans-48"/>
       <use x="254.492188" xlink:href="#DejaVuSans-48"/>
      </g>
     </g>
    </g>
    <g id="ytick_6">
     <g id="line2d_13">
      <g>
       <use style="stroke:#000000;stroke-width:0.8;" x="49.675" xlink:href="#m5330198cf0" y="92.819644"/>
      </g>
     </g>
     <g id="text_13">
      <!-- 25000 -->
      <g transform="translate(10.8625 96.618862)scale(0.1 -0.1)">
       <use xlink:href="#DejaVuSans-50"/>
       <use x="63.623047" xlink:href="#DejaVuSans-53"/>
       <use x="127.246094" xlink:href="#DejaVuSans-48"/>
       <use x="190.869141" xlink:href="#DejaVuSans-48"/>
       <use x="254.492188" xlink:href="#DejaVuSans-48"/>
      </g>
     </g>
    </g>
    <g id="ytick_7">
     <g id="line2d_14">
      <g>
       <use style="stroke:#000000;stroke-width:0.8;" x="49.675" xlink:href="#m5330198cf0" y="33.929027"/>
      </g>
     </g>
     <g id="text_14">
      <!-- 30000 -->
      <g transform="translate(10.8625 37.728246)scale(0.1 -0.1)">
       <use xlink:href="#DejaVuSans-51"/>
       <use x="63.623047" xlink:href="#DejaVuSans-48"/>
       <use x="127.246094" xlink:href="#DejaVuSans-48"/>
       <use x="190.869141" xlink:href="#DejaVuSans-48"/>
       <use x="254.492188" xlink:href="#DejaVuSans-48"/>
      </g>
     </g>
    </g>
   </g>
   <g id="patch_3">
    <path d="M 49.675 404.2 
L 49.675 31.8 
" style="fill:none;stroke:#000000;stroke-linecap:square;stroke-linejoin:miter;stroke-width:0.8;"/>
   </g>
   <g id="patch_4">
    <path d="M 565.2 404.2 
L 565.2 31.8 
" style="fill:none;stroke:#000000;stroke-linecap:square;stroke-linejoin:miter;stroke-width:0.8;"/>
   </g>
   <g id="patch_5">
    <path d="M 49.675 404.2 
L 565.2 404.2 
" style="fill:none;stroke:#000000;stroke-linecap:square;stroke-linejoin:miter;stroke-width:0.8;"/>
   </g>
   <g id="patch_6">
    <path d="M 49.675 31.8 
L 565.2 31.8 
" style="fill:none;stroke:#000000;stroke-linecap:square;stroke-linejoin:miter;stroke-width:0.8;"/>
   </g>
   <g id="text_15">
    <!-- 6920.T - 30% -->
    <defs>
     <path d="M 36.1875 35.984375 
Q 31.25 35.984375 28.78125 32.78125 
Q 26.3125 29.59375 26.3125 23.1875 
Q 26.3125 16.796875 28.78125 13.59375 
Q 31.25 10.40625 36.1875 10.40625 
Q 41.15625 10.40625 43.625 13.59375 
Q 46.09375 16.796875 46.09375 23.1875 
Q 46.09375 29.59375 43.625 32.78125 
Q 41.15625 35.984375 36.1875 35.984375 
z
M 59.421875 71 
L 59.421875 57.515625 
Q 54.78125 59.71875 50.671875 60.765625 
Q 46.578125 61.8125 42.671875 61.8125 
Q 34.28125 61.8125 29.59375 57.140625 
Q 24.90625 52.484375 24.125 43.3125 
Q 27.34375 45.703125 31.09375 46.890625 
Q 34.859375 48.09375 39.3125 48.09375 
Q 50.484375 48.09375 57.34375 41.546875 
Q 64.203125 35.015625 64.203125 24.421875 
Q 64.203125 12.703125 56.53125 5.640625 
Q 48.875 -1.421875 35.984375 -1.421875 
Q 21.78125 -1.421875 13.984375 8.171875 
Q 6.203125 17.78125 6.203125 35.40625 
Q 6.203125 53.46875 15.3125 63.796875 
Q 24.421875 74.125 40.28125 74.125 
Q 45.3125 74.125 50.046875 73.34375 
Q 54.78125 72.5625 59.421875 71 
z
" id="DejaVuSans-Bold-54"/>
     <path d="M 10.015625 1.609375 
L 10.015625 15.09375 
Q 14.5 12.984375 18.59375 11.9375 
Q 22.703125 10.890625 26.703125 10.890625 
Q 35.109375 10.890625 39.796875 15.546875 
Q 44.484375 20.21875 45.3125 29.390625 
Q 42 26.953125 38.234375 25.734375 
Q 34.46875 24.515625 30.078125 24.515625 
Q 18.890625 24.515625 12.03125 31.03125 
Q 5.171875 37.546875 5.171875 48.1875 
Q 5.171875 59.96875 12.8125 67.046875 
Q 20.453125 74.125 33.296875 74.125 
Q 47.5625 74.125 55.375 64.5 
Q 63.1875 54.890625 63.1875 37.3125 
Q 63.1875 19.234375 54.046875 8.90625 
Q 44.921875 -1.421875 29 -1.421875 
Q 23.875 -1.421875 19.1875 -0.65625 
Q 14.5 0.09375 10.015625 1.609375 
z
M 33.203125 36.71875 
Q 38.140625 36.71875 40.625 39.90625 
Q 43.109375 43.109375 43.109375 49.515625 
Q 43.109375 55.859375 40.625 59.078125 
Q 38.140625 62.3125 33.203125 62.3125 
Q 28.265625 62.3125 25.78125 59.078125 
Q 23.296875 55.859375 23.296875 49.515625 
Q 23.296875 43.109375 25.78125 39.90625 
Q 28.265625 36.71875 33.203125 36.71875 
z
" id="DejaVuSans-Bold-57"/>
     <path d="M 28.8125 13.8125 
L 60.890625 13.8125 
L 60.890625 0 
L 7.90625 0 
L 7.90625 13.8125 
L 34.515625 37.3125 
Q 38.09375 40.53125 39.796875 43.609375 
Q 41.5 46.6875 41.5 50 
Q 41.5 55.125 38.0625 58.25 
Q 34.625 61.375 28.90625 61.375 
Q 24.515625 61.375 19.28125 59.5 
Q 14.0625 57.625 8.109375 53.90625 
L 8.109375 69.921875 
Q 14.453125 72.015625 20.65625 73.109375 
Q 26.859375 74.21875 32.8125 74.21875 
Q 45.90625 74.21875 53.15625 68.453125 
Q 60.40625 62.703125 60.40625 52.390625 
Q 60.40625 46.4375 57.328125 41.28125 
Q 54.25 36.140625 44.390625 27.484375 
z
" id="DejaVuSans-Bold-50"/>
     <path d="M 46 36.53125 
Q 46 50.203125 43.4375 55.78125 
Q 40.875 61.375 34.8125 61.375 
Q 28.765625 61.375 26.171875 55.78125 
Q 23.578125 50.203125 23.578125 36.53125 
Q 23.578125 22.703125 26.171875 17.03125 
Q 28.765625 11.375 34.8125 11.375 
Q 40.828125 11.375 43.40625 17.03125 
Q 46 22.703125 46 36.53125 
z
M 64.796875 36.375 
Q 64.796875 18.265625 56.984375 8.421875 
Q 49.171875 -1.421875 34.8125 -1.421875 
Q 20.40625 -1.421875 12.59375 8.421875 
Q 4.78125 18.265625 4.78125 36.375 
Q 4.78125 54.546875 12.59375 64.375 
Q 20.40625 74.21875 34.8125 74.21875 
Q 49.171875 74.21875 56.984375 64.375 
Q 64.796875 54.546875 64.796875 36.375 
z
" id="DejaVuSans-Bold-48"/>
     <path d="M 10.203125 18.890625 
L 27.78125 18.890625 
L 27.78125 0 
L 10.203125 0 
z
" id="DejaVuSans-Bold-46"/>
     <path d="M 0.484375 72.90625 
L 67.671875 72.90625 
L 67.671875 58.6875 
L 43.5 58.6875 
L 43.5 0 
L 24.703125 0 
L 24.703125 58.6875 
L 0.484375 58.6875 
z
" id="DejaVuSans-Bold-84"/>
     <path id="DejaVuSans-Bold-32"/>
     <path d="M 5.421875 35.890625 
L 36.078125 35.890625 
L 36.078125 21.6875 
L 5.421875 21.6875 
z
" id="DejaVuSans-Bold-45"/>
     <path d="M 46.578125 39.3125 
Q 53.953125 37.40625 57.78125 32.6875 
Q 61.625 27.984375 61.625 20.703125 
Q 61.625 9.859375 53.3125 4.21875 
Q 45.015625 -1.421875 29.109375 -1.421875 
Q 23.484375 -1.421875 17.84375 -0.515625 
Q 12.203125 0.390625 6.6875 2.203125 
L 6.6875 16.703125 
Q 11.96875 14.0625 17.15625 12.71875 
Q 22.359375 11.375 27.390625 11.375 
Q 34.859375 11.375 38.84375 13.953125 
Q 42.828125 16.546875 42.828125 21.390625 
Q 42.828125 26.375 38.75 28.9375 
Q 34.671875 31.5 26.703125 31.5 
L 19.1875 31.5 
L 19.1875 43.609375 
L 27.09375 43.609375 
Q 34.1875 43.609375 37.640625 45.828125 
Q 41.109375 48.046875 41.109375 52.59375 
Q 41.109375 56.78125 37.734375 59.078125 
Q 34.375 61.375 28.21875 61.375 
Q 23.6875 61.375 19.046875 60.34375 
Q 14.40625 59.328125 9.8125 57.328125 
L 9.8125 71.09375 
Q 15.375 72.65625 20.84375 73.4375 
Q 26.3125 74.21875 31.59375 74.21875 
Q 45.796875 74.21875 52.84375 69.546875 
Q 59.90625 64.890625 59.90625 55.515625 
Q 59.90625 49.125 56.53125 45.046875 
Q 53.171875 40.96875 46.578125 39.3125 
z
" id="DejaVuSans-Bold-51"/>
     <path d="M 77.484375 30.078125 
Q 74.03125 30.078125 72.125 27.078125 
Q 70.21875 24.078125 70.21875 18.5 
Q 70.21875 12.890625 72.09375 9.890625 
Q 73.96875 6.890625 77.484375 6.890625 
Q 81 6.890625 82.859375 9.890625 
Q 84.71875 12.890625 84.71875 18.5 
Q 84.71875 24.078125 82.828125 27.078125 
Q 80.953125 30.078125 77.484375 30.078125 
z
M 77.484375 38.28125 
Q 86.578125 38.28125 91.796875 33 
Q 97.015625 27.734375 97.015625 18.5 
Q 97.015625 9.28125 91.796875 3.921875 
Q 86.578125 -1.421875 77.484375 -1.421875 
Q 68.40625 -1.421875 63.15625 3.921875 
Q 57.90625 9.28125 57.90625 18.5 
Q 57.90625 27.6875 63.15625 32.984375 
Q 68.40625 38.28125 77.484375 38.28125 
z
M 32.71875 -1.421875 
L 21.921875 -1.421875 
L 67.484375 74.21875 
L 78.328125 74.21875 
z
M 22.703125 74.21875 
Q 31.78125 74.21875 36.984375 68.921875 
Q 42.1875 63.625 42.1875 54.390625 
Q 42.1875 45.171875 36.984375 39.84375 
Q 31.78125 34.515625 22.703125 34.515625 
Q 13.625 34.515625 8.421875 39.84375 
Q 3.21875 45.171875 3.21875 54.390625 
Q 3.21875 63.625 8.421875 68.921875 
Q 13.625 74.21875 22.703125 74.21875 
z
M 22.703125 66.015625 
Q 19.1875 66.015625 17.28125 62.984375 
Q 15.375 59.96875 15.375 54.390625 
Q 15.375 48.78125 17.28125 45.71875 
Q 19.1875 42.671875 22.703125 42.671875 
Q 26.21875 42.671875 28.09375 45.71875 
Q 29.984375 48.78125 29.984375 54.390625 
Q 29.984375 59.96875 28.078125 62.984375 
Q 26.171875 66.015625 22.703125 66.015625 
z
" id="DejaVuSans-Bold-37"/>
    </defs>
    <g transform="translate(49.675 25.8)scale(0.2 -0.2)">
     <use xlink:href="#DejaVuSans-Bold-54"/>
     <use x="69.580078" xlink:href="#DejaVuSans-Bold-57"/>
     <use x="139.160156" xlink:href="#DejaVuSans-Bold-50"/>
     <use x="208.740234" xlink:href="#DejaVuSans-Bold-48"/>
     <use x="278.320312" xlink:href="#DejaVuSans-Bold-46"/>
     <use x="316.308594" xlink:href="#DejaVuSans-Bold-84"/>
     <use x="384.521484" xlink:href="#DejaVuSans-Bold-32"/>
     <use x="419.335938" xlink:href="#DejaVuSans-Bold-45"/>
     <use x="460.839844" xlink:href="#DejaVuSans-Bold-32"/>
     <use x="495.654297" xlink:href="#DejaVuSans-Bold-51"/>
     <use x="565.234375" xlink:href="#DejaVuSans-Bold-48"/>
     <use x="634.814453" xlink:href="#DejaVuSans-Bold-37"/>
    </g>
   </g>
  </g>
 </g>
 <defs>
  <clipPath id="pbf2cab1c68">
   <rect height="372.4" width="515.525" x="49.675" y="31.8"/>
  </clipPath>
 </defs>
</svg>
