<?xml version="1.0" encoding="utf-8" standalone="no"?>
<!DOCTYPE svg PUBLIC "-//W3C//DTD SVG 1.1//EN"
  "http://www.w3.org/Graphics/SVG/1.1/DTD/svg11.dtd">
<!-- Created with matplotlib (https://matplotlib.org/) -->
<svg height="432pt" version="1.1" viewBox="0 0 576 432" width="576pt" xmlns="http://www.w3.org/2000/svg" xmlns:xlink="http://www.w3.org/1999/xlink">
 <defs>
  <style type="text/css">
*{stroke-linecap:butt;stroke-linejoin:round;}
  </style>
 </defs>
 <g id="figure_1">
  <g id="patch_1">
   <path d="M 0 432 
L 576 432 
L 576 0 
L 0 0 
z
" style="fill:#ffffff;"/>
  </g>
  <g id="axes_1">
   <g id="patch_2">
    <path d="M 43.3 404.2 
L 565.2 404.2 
L 565.2 31.8 
L 43.3 31.8 
z
" style="fill:#ffffff;"/>
   </g>
   <g id="PolyCollection_1">
    <defs>
     <path d="M 67.022727 -44.727273 
L 67.022727 -349.291689 
L 69.622478 -343.471343 
L 73.522105 -351.850623 
L 74.82198 -357.068873 
L 76.121856 -334.891373 
L 77.421731 -333.536632 
L 78.721606 -333.687156 
L 82.621233 -328.669621 
L 83.921108 -333.938038 
L 85.220984 -336.496971 
L 86.520859 -339.708192 
L 87.820735 -341.765388 
L 91.720361 -340.109598 
L 93.020237 -342.467841 
L 95.619988 -344.575203 
L 96.919863 -343.722225 
L 100.819489 -341.062934 
L 102.119365 -339.156263 
L 103.41924 -340.460838 
L 104.719116 -336.145757 
L 106.018991 -332.031367 
L 109.918618 -329.924005 
L 111.218493 -333.887846 
L 112.518369 -334.841182 
L 113.818244 -331.027865 
L 115.11812 -331.529603 
L 119.017746 -329.924005 
L 120.317621 -330.325411 
L 121.617497 -333.185393 
L 122.917372 -331.629961 
L 124.217248 -327.967168 
L 128.116874 -325.307876 
L 129.41675 -322.748918 
L 130.716625 -322.698751 
L 132.016501 -327.164356 
L 133.316376 -326.411736 
L 137.216002 -326.56226 
L 138.515878 -326.01033 
L 139.815753 -326.712784 
L 141.115629 -326.110688 
L 142.415504 -322.297346 
L 148.914882 -320.03946 
L 150.214757 -322.196988 
L 151.514633 -319.838745 
L 156.714134 -319.186482 
L 158.01401 -323.049991 
L 159.313885 -318.032431 
L 160.613761 -315.523664 
L 164.513387 -316.326475 
L 165.813263 -320.189984 
L 167.113138 -326.110688 
L 168.413014 -322.44787 
L 169.712889 -321.193486 
L 173.612516 -322.44787 
L 174.912391 -323.501563 
L 176.212267 -324.404707 
L 177.512142 -327.465404 
L 178.812017 -327.214522 
L 182.711644 -325.608924 
L 184.011519 -326.963666 
L 185.311395 -324.705755 
L 186.61127 -324.806113 
L 187.911146 -326.813142 
L 191.810772 -326.76295 
L 193.110648 -326.913474 
L 194.410523 -305.68931 
L 195.710399 -309.602985 
L 197.010274 -311.007893 
L 200.9099 -306.843336 
L 202.209776 -312.061586 
L 203.509651 -312.462967 
L 204.809527 -320.59139 
L 206.109402 -318.484028 
L 210.009029 -318.885434 
L 211.308904 -316.276309 
L 212.60878 -311.258775 
L 215.208531 -310.506129 
L 219.108157 -305.538786 
L 220.408032 -301.825802 
L 221.707908 -301.725444 
L 223.007783 -302.427898 
L 224.307659 -303.531757 
L 228.207285 -304.535284 
L 229.507161 -304.485093 
L 230.807036 -303.531757 
L 232.106912 -306.99386 
L 233.406787 -303.030019 
L 237.306413 -302.076683 
L 238.606289 -298.865462 
L 239.906164 -299.71844 
L 241.20604 -299.367201 
L 242.505915 -302.829304 
L 246.405542 -297.259839 
L 249.005293 -299.618082 
L 250.305168 -299.417392 
L 251.605044 -298.514223 
L 255.50467 -300.370728 
L 256.804545 -299.768606 
L 258.104421 -304.585451 
L 259.404296 -305.767559 
L 260.704172 -308.440151 
L 264.603798 -310.598783 
L 265.903674 -322.882427 
L 267.203549 -314.299295 
L 268.503425 -314.556275 
L 269.8033 -311.883683 
L 273.702927 -322.574051 
L 275.002802 -322.933823 
L 276.302677 -325.657811 
L 277.602553 -321.186359 
L 278.902428 -325.709207 
L 282.802055 -325.195247 
L 284.10193 -330.489035 
L 285.401806 -329.563907 
L 286.701681 -328.227611 
L 288.001557 -328.433195 
L 291.901183 -332.082311 
L 293.201059 -335.063279 
L 294.500934 -333.470003 
L 295.800809 -333.983963 
L 297.100685 -338.763791 
L 301.000311 -337.221911 
L 302.300187 -337.324703 
L 310.09944 -339.688919 
L 311.399315 -339.226355 
L 312.699191 -338.969375 
L 313.999066 -334.138151 
L 315.298941 -340.665443 
L 319.198568 -342.824075 
L 320.498443 -345.239687 
L 321.798319 -349.248575 
L 323.098194 -355.313303 
L 324.39807 -351.921167 
L 328.297696 -356.187035 
L 329.597572 -352.486523 
L 330.897447 -349.505555 
L 332.197323 -346.730171 
L 333.497198 -350.173703 
L 337.396824 -348.426239 
L 338.6967 -352.589315 
L 339.996575 -349.813931 
L 341.296451 -350.739059 
L 342.596326 -355.673075 
L 346.495953 -357.369143 
L 347.795828 -359.270795 
L 349.095704 -355.827263 
L 350.395579 -352.229543 
L 351.695455 -358.140083 
L 355.595081 -359.579171 
L 356.894956 -362.405951 
L 358.194832 -361.172447 
L 359.494707 -364.667375 
L 360.794583 -366.774611 
L 364.694209 -365.027147 
L 365.994085 -365.541107 
L 367.29396 -363.999227 
L 368.593836 -369.447203 
L 369.893711 -364.924355 
L 373.793337 -367.956719 
L 375.093213 -373.250507 
L 376.393088 -379.829195 
L 377.692964 -383.015747 
L 378.992839 -380.959907 
L 382.892466 -383.272727 
L 384.192341 -379.777799 
L 385.492217 -379.418027 
L 386.792092 -369.241619 
L 388.091968 -371.143271 
L 391.991594 -368.779055 
L 393.291469 -366.312047 
L 394.591345 -368.522075 
L 395.89122 -374.895179 
L 397.191096 -373.096319 
L 402.390598 -371.605835 
L 403.690473 -375.357743 
L 404.990349 -374.997971 
L 406.290224 -374.586803 
L 410.189851 -379.366631 
L 411.489726 -375.871703 
L 412.789601 -368.522075 
L 414.089477 -372.428171 
L 415.389352 -371.297459 
L 419.288979 -376.231475 
L 420.588854 -376.694039 
L 421.88873 -371.348855 
L 423.188605 -371.451647 
L 424.488481 -361.943387 
L 428.388107 -365.027147 
L 429.687983 -361.275239 
L 430.987858 -360.555695 
L 432.287733 -366.003671 
L 437.487235 -365.849483 
L 438.787111 -368.213699 
L 440.086986 -368.110907 
L 441.386862 -362.354555 
L 442.686737 -358.962419 
L 446.586364 -359.681963 
L 447.886239 -361.275239 
L 449.186115 -363.947831 
L 450.48599 -360.555695 
L 451.785866 -357.369143 
L 455.685492 -362.097575 
L 456.985367 -361.943387 
L 458.285243 -364.358999 
L 459.585118 -366.826007 
L 460.884994 -366.877403 
L 464.78462 -366.826007 
L 466.084496 -367.185779 
L 467.384371 -369.704183 
L 468.684247 -372.017003 
L 469.984122 -371.503043 
L 473.883748 -372.119795 
L 475.183624 -372.068399 
L 476.483499 -368.984639 
L 477.783375 -371.297459 
L 479.08325 -370.475123 
L 484.282752 -376.282871 
L 485.582628 -366.774611 
L 486.882503 -360.966863 
L 488.182379 -360.864071 
L 492.082005 -364.615979 
L 493.38188 -366.466235 
L 494.681756 -364.667375 
L 495.981631 -360.915467 
L 497.281507 -364.924355 
L 501.181133 -359.784755 
L 502.481009 -361.326635 
L 503.780884 -358.654043 
L 505.08076 -364.410395 
L 506.380635 -365.695295 
L 511.580137 -369.087431 
L 512.880012 -368.984639 
L 514.179888 -371.091875 
L 515.479763 -363.176891 
L 519.37939 -363.382475 
L 520.679265 -359.424983 
L 521.979141 -358.756835 
L 523.279016 -357.831707 
L 524.578892 -358.294271 
L 528.478518 -356.546807 
L 529.778394 -357.266351 
L 531.078269 -362.354555 
L 532.378144 -359.065211 
L 533.67802 -364.461791 
L 537.577646 -359.116607 
L 538.877522 -364.461791 
L 540.177397 -369.036035 
L 541.477273 -371.451647 
L 541.477273 -44.727273 
L 541.477273 -44.727273 
L 540.177397 -44.727273 
L 538.877522 -44.727273 
L 537.577646 -44.727273 
L 533.67802 -44.727273 
L 532.378144 -44.727273 
L 531.078269 -44.727273 
L 529.778394 -44.727273 
L 528.478518 -44.727273 
L 524.578892 -44.727273 
L 523.279016 -44.727273 
L 521.979141 -44.727273 
L 520.679265 -44.727273 
L 519.37939 -44.727273 
L 515.479763 -44.727273 
L 514.179888 -44.727273 
L 512.880012 -44.727273 
L 511.580137 -44.727273 
L 506.380635 -44.727273 
L 505.08076 -44.727273 
L 503.780884 -44.727273 
L 502.481009 -44.727273 
L 501.181133 -44.727273 
L 497.281507 -44.727273 
L 495.981631 -44.727273 
L 494.681756 -44.727273 
L 493.38188 -44.727273 
L 492.082005 -44.727273 
L 488.182379 -44.727273 
L 486.882503 -44.727273 
L 485.582628 -44.727273 
L 484.282752 -44.727273 
L 479.08325 -44.727273 
L 477.783375 -44.727273 
L 476.483499 -44.727273 
L 475.183624 -44.727273 
L 473.883748 -44.727273 
L 469.984122 -44.727273 
L 468.684247 -44.727273 
L 467.384371 -44.727273 
L 466.084496 -44.727273 
L 464.78462 -44.727273 
L 460.884994 -44.727273 
L 459.585118 -44.727273 
L 458.285243 -44.727273 
L 456.985367 -44.727273 
L 455.685492 -44.727273 
L 451.785866 -44.727273 
L 450.48599 -44.727273 
L 449.186115 -44.727273 
L 447.886239 -44.727273 
L 446.586364 -44.727273 
L 442.686737 -44.727273 
L 441.386862 -44.727273 
L 440.086986 -44.727273 
L 438.787111 -44.727273 
L 437.487235 -44.727273 
L 432.287733 -44.727273 
L 430.987858 -44.727273 
L 429.687983 -44.727273 
L 428.388107 -44.727273 
L 424.488481 -44.727273 
L 423.188605 -44.727273 
L 421.88873 -44.727273 
L 420.588854 -44.727273 
L 419.288979 -44.727273 
L 415.389352 -44.727273 
L 414.089477 -44.727273 
L 412.789601 -44.727273 
L 411.489726 -44.727273 
L 410.189851 -44.727273 
L 406.290224 -44.727273 
L 404.990349 -44.727273 
L 403.690473 -44.727273 
L 402.390598 -44.727273 
L 397.191096 -44.727273 
L 395.89122 -44.727273 
L 394.591345 -44.727273 
L 393.291469 -44.727273 
L 391.991594 -44.727273 
L 388.091968 -44.727273 
L 386.792092 -44.727273 
L 385.492217 -44.727273 
L 384.192341 -44.727273 
L 382.892466 -44.727273 
L 378.992839 -44.727273 
L 377.692964 -44.727273 
L 376.393088 -44.727273 
L 375.093213 -44.727273 
L 373.793337 -44.727273 
L 369.893711 -44.727273 
L 368.593836 -44.727273 
L 367.29396 -44.727273 
L 365.994085 -44.727273 
L 364.694209 -44.727273 
L 360.794583 -44.727273 
L 359.494707 -44.727273 
L 358.194832 -44.727273 
L 356.894956 -44.727273 
L 355.595081 -44.727273 
L 351.695455 -44.727273 
L 350.395579 -44.727273 
L 349.095704 -44.727273 
L 347.795828 -44.727273 
L 346.495953 -44.727273 
L 342.596326 -44.727273 
L 341.296451 -44.727273 
L 339.996575 -44.727273 
L 338.6967 -44.727273 
L 337.396824 -44.727273 
L 333.497198 -44.727273 
L 332.197323 -44.727273 
L 330.897447 -44.727273 
L 329.597572 -44.727273 
L 328.297696 -44.727273 
L 324.39807 -44.727273 
L 323.098194 -44.727273 
L 321.798319 -44.727273 
L 320.498443 -44.727273 
L 319.198568 -44.727273 
L 315.298941 -44.727273 
L 313.999066 -44.727273 
L 312.699191 -44.727273 
L 311.399315 -44.727273 
L 310.09944 -44.727273 
L 302.300187 -44.727273 
L 301.000311 -44.727273 
L 297.100685 -44.727273 
L 295.800809 -44.727273 
L 294.500934 -44.727273 
L 293.201059 -44.727273 
L 291.901183 -44.727273 
L 288.001557 -44.727273 
L 286.701681 -44.727273 
L 285.401806 -44.727273 
L 284.10193 -44.727273 
L 282.802055 -44.727273 
L 278.902428 -44.727273 
L 277.602553 -44.727273 
L 276.302677 -44.727273 
L 275.002802 -44.727273 
L 273.702927 -44.727273 
L 269.8033 -44.727273 
L 268.503425 -44.727273 
L 267.203549 -44.727273 
L 265.903674 -44.727273 
L 264.603798 -44.727273 
L 260.704172 -44.727273 
L 259.404296 -44.727273 
L 258.104421 -44.727273 
L 256.804545 -44.727273 
L 255.50467 -44.727273 
L 251.605044 -44.727273 
L 250.305168 -44.727273 
L 249.005293 -44.727273 
L 246.405542 -44.727273 
L 242.505915 -44.727273 
L 241.20604 -44.727273 
L 239.906164 -44.727273 
L 238.606289 -44.727273 
L 237.306413 -44.727273 
L 233.406787 -44.727273 
L 232.106912 -44.727273 
L 230.807036 -44.727273 
L 229.507161 -44.727273 
L 228.207285 -44.727273 
L 224.307659 -44.727273 
L 223.007783 -44.727273 
L 221.707908 -44.727273 
L 220.408032 -44.727273 
L 219.108157 -44.727273 
L 215.208531 -44.727273 
L 212.60878 -44.727273 
L 211.308904 -44.727273 
L 210.009029 -44.727273 
L 206.109402 -44.727273 
L 204.809527 -44.727273 
L 203.509651 -44.727273 
L 202.209776 -44.727273 
L 200.9099 -44.727273 
L 197.010274 -44.727273 
L 195.710399 -44.727273 
L 194.410523 -44.727273 
L 193.110648 -44.727273 
L 191.810772 -44.727273 
L 187.911146 -44.727273 
L 186.61127 -44.727273 
L 185.311395 -44.727273 
L 184.011519 -44.727273 
L 182.711644 -44.727273 
L 178.812017 -44.727273 
L 177.512142 -44.727273 
L 176.212267 -44.727273 
L 174.912391 -44.727273 
L 173.612516 -44.727273 
L 169.712889 -44.727273 
L 168.413014 -44.727273 
L 167.113138 -44.727273 
L 165.813263 -44.727273 
L 164.513387 -44.727273 
L 160.613761 -44.727273 
L 159.313885 -44.727273 
L 158.01401 -44.727273 
L 156.714134 -44.727273 
L 151.514633 -44.727273 
L 150.214757 -44.727273 
L 148.914882 -44.727273 
L 142.415504 -44.727273 
L 141.115629 -44.727273 
L 139.815753 -44.727273 
L 138.515878 -44.727273 
L 137.216002 -44.727273 
L 133.316376 -44.727273 
L 132.016501 -44.727273 
L 130.716625 -44.727273 
L 129.41675 -44.727273 
L 128.116874 -44.727273 
L 124.217248 -44.727273 
L 122.917372 -44.727273 
L 121.617497 -44.727273 
L 120.317621 -44.727273 
L 119.017746 -44.727273 
L 115.11812 -44.727273 
L 113.818244 -44.727273 
L 112.518369 -44.727273 
L 111.218493 -44.727273 
L 109.918618 -44.727273 
L 106.018991 -44.727273 
L 104.719116 -44.727273 
L 103.41924 -44.727273 
L 102.119365 -44.727273 
L 100.819489 -44.727273 
L 96.919863 -44.727273 
L 95.619988 -44.727273 
L 93.020237 -44.727273 
L 91.720361 -44.727273 
L 87.820735 -44.727273 
L 86.520859 -44.727273 
L 85.220984 -44.727273 
L 83.921108 -44.727273 
L 82.621233 -44.727273 
L 78.721606 -44.727273 
L 77.421731 -44.727273 
L 76.121856 -44.727273 
L 74.82198 -44.727273 
L 73.522105 -44.727273 
L 69.622478 -44.727273 
L 67.022727 -44.727273 
z
" id="m943759c798" style="stroke:#a6ccf5;"/>
    </defs>
    <g clip-path="url(#pf2cb2fbcd4)">
     <use style="fill:#a6ccf5;stroke:#a6ccf5;" x="0" xlink:href="#m943759c798" y="432"/>
    </g>
   </g>
   <g id="matplotlib.axis_1">
    <g id="xtick_1">
     <g id="line2d_1">
      <defs>
       <path d="M 0 0 
L 0 3.5 
" id="m19cd0a00f2" style="stroke:#000000;stroke-width:0.8;"/>
      </defs>
      <g>
       <use style="stroke:#000000;stroke-width:0.8;" x="65.722852" xlink:href="#m19cd0a00f2" y="404.2"/>
      </g>
     </g>
     <g id="text_1">
      <!-- 2022-11 -->
      <defs>
       <path d="M 19.1875 8.296875 
L 53.609375 8.296875 
L 53.609375 0 
L 7.328125 0 
L 7.328125 8.296875 
Q 12.9375 14.109375 22.625 23.890625 
Q 32.328125 33.6875 34.8125 36.53125 
Q 39.546875 41.84375 41.421875 45.53125 
Q 43.3125 49.21875 43.3125 52.78125 
Q 43.3125 58.59375 39.234375 62.25 
Q 35.15625 65.921875 28.609375 65.921875 
Q 23.96875 65.921875 18.8125 64.3125 
Q 13.671875 62.703125 7.8125 59.421875 
L 7.8125 69.390625 
Q 13.765625 71.78125 18.9375 73 
Q 24.125 74.21875 28.421875 74.21875 
Q 39.75 74.21875 46.484375 68.546875 
Q 53.21875 62.890625 53.21875 53.421875 
Q 53.21875 48.921875 51.53125 44.890625 
Q 49.859375 40.875 45.40625 35.40625 
Q 44.1875 33.984375 37.640625 27.21875 
Q 31.109375 20.453125 19.1875 8.296875 
z
" id="DejaVuSans-50"/>
       <path d="M 31.78125 66.40625 
Q 24.171875 66.40625 20.328125 58.90625 
Q 16.5 51.421875 16.5 36.375 
Q 16.5 21.390625 20.328125 13.890625 
Q 24.171875 6.390625 31.78125 6.390625 
Q 39.453125 6.390625 43.28125 13.890625 
Q 47.125 21.390625 47.125 36.375 
Q 47.125 51.421875 43.28125 58.90625 
Q 39.453125 66.40625 31.78125 66.40625 
z
M 31.78125 74.21875 
Q 44.046875 74.21875 50.515625 64.515625 
Q 56.984375 54.828125 56.984375 36.375 
Q 56.984375 17.96875 50.515625 8.265625 
Q 44.046875 -1.421875 31.78125 -1.421875 
Q 19.53125 -1.421875 13.0625 8.265625 
Q 6.59375 17.96875 6.59375 36.375 
Q 6.59375 54.828125 13.0625 64.515625 
Q 19.53125 74.21875 31.78125 74.21875 
z
" id="DejaVuSans-48"/>
       <path d="M 4.890625 31.390625 
L 31.203125 31.390625 
L 31.203125 23.390625 
L 4.890625 23.390625 
z
" id="DejaVuSans-45"/>
       <path d="M 12.40625 8.296875 
L 28.515625 8.296875 
L 28.515625 63.921875 
L 10.984375 60.40625 
L 10.984375 69.390625 
L 28.421875 72.90625 
L 38.28125 72.90625 
L 38.28125 8.296875 
L 54.390625 8.296875 
L 54.390625 0 
L 12.40625 0 
z
" id="DejaVuSans-49"/>
      </defs>
      <g transform="translate(44.831446 418.798437)scale(0.1 -0.1)">
       <use xlink:href="#DejaVuSans-50"/>
       <use x="63.623047" xlink:href="#DejaVuSans-48"/>
       <use x="127.246094" xlink:href="#DejaVuSans-50"/>
       <use x="190.869141" xlink:href="#DejaVuSans-50"/>
       <use x="254.492188" xlink:href="#DejaVuSans-45"/>
       <use x="290.576172" xlink:href="#DejaVuSans-49"/>
       <use x="354.199219" xlink:href="#DejaVuSans-49"/>
      </g>
     </g>
    </g>
    <g id="xtick_2">
     <g id="line2d_2">
      <g>
       <use style="stroke:#000000;stroke-width:0.8;" x="145.015255" xlink:href="#m19cd0a00f2" y="404.2"/>
      </g>
     </g>
     <g id="text_2">
      <!-- 2023-01 -->
      <defs>
       <path d="M 40.578125 39.3125 
Q 47.65625 37.796875 51.625 33 
Q 55.609375 28.21875 55.609375 21.1875 
Q 55.609375 10.40625 48.1875 4.484375 
Q 40.765625 -1.421875 27.09375 -1.421875 
Q 22.515625 -1.421875 17.65625 -0.515625 
Q 12.796875 0.390625 7.625 2.203125 
L 7.625 11.71875 
Q 11.71875 9.328125 16.59375 8.109375 
Q 21.484375 6.890625 26.8125 6.890625 
Q 36.078125 6.890625 40.9375 10.546875 
Q 45.796875 14.203125 45.796875 21.1875 
Q 45.796875 27.640625 41.28125 31.265625 
Q 36.765625 34.90625 28.71875 34.90625 
L 20.21875 34.90625 
L 20.21875 43.015625 
L 29.109375 43.015625 
Q 36.375 43.015625 40.234375 45.921875 
Q 44.09375 48.828125 44.09375 54.296875 
Q 44.09375 59.90625 40.109375 62.90625 
Q 36.140625 65.921875 28.71875 65.921875 
Q 24.65625 65.921875 20.015625 65.03125 
Q 15.375 64.15625 9.8125 62.3125 
L 9.8125 71.09375 
Q 15.4375 72.65625 20.34375 73.4375 
Q 25.25 74.21875 29.59375 74.21875 
Q 40.828125 74.21875 47.359375 69.109375 
Q 53.90625 64.015625 53.90625 55.328125 
Q 53.90625 49.265625 50.4375 45.09375 
Q 46.96875 40.921875 40.578125 39.3125 
z
" id="DejaVuSans-51"/>
      </defs>
      <g transform="translate(124.123849 418.798437)scale(0.1 -0.1)">
       <use xlink:href="#DejaVuSans-50"/>
       <use x="63.623047" xlink:href="#DejaVuSans-48"/>
       <use x="127.246094" xlink:href="#DejaVuSans-50"/>
       <use x="190.869141" xlink:href="#DejaVuSans-51"/>
       <use x="254.492188" xlink:href="#DejaVuSans-45"/>
       <use x="290.576172" xlink:href="#DejaVuSans-48"/>
       <use x="354.199219" xlink:href="#DejaVuSans-49"/>
      </g>
     </g>
    </g>
    <g id="xtick_3">
     <g id="line2d_3">
      <g>
       <use style="stroke:#000000;stroke-width:0.8;" x="221.707908" xlink:href="#m19cd0a00f2" y="404.2"/>
      </g>
     </g>
     <g id="text_3">
      <!-- 2023-03 -->
      <g transform="translate(200.816502 418.798437)scale(0.1 -0.1)">
       <use xlink:href="#DejaVuSans-50"/>
       <use x="63.623047" xlink:href="#DejaVuSans-48"/>
       <use x="127.246094" xlink:href="#DejaVuSans-50"/>
       <use x="190.869141" xlink:href="#DejaVuSans-51"/>
       <use x="254.492188" xlink:href="#DejaVuSans-45"/>
       <use x="290.576172" xlink:href="#DejaVuSans-48"/>
       <use x="354.199219" xlink:href="#DejaVuSans-51"/>
      </g>
     </g>
    </g>
    <g id="xtick_4">
     <g id="line2d_4">
      <g>
       <use style="stroke:#000000;stroke-width:0.8;" x="301.000311" xlink:href="#m19cd0a00f2" y="404.2"/>
      </g>
     </g>
     <g id="text_4">
      <!-- 2023-05 -->
      <defs>
       <path d="M 10.796875 72.90625 
L 49.515625 72.90625 
L 49.515625 64.59375 
L 19.828125 64.59375 
L 19.828125 46.734375 
Q 21.96875 47.46875 24.109375 47.828125 
Q 26.265625 48.1875 28.421875 48.1875 
Q 40.625 48.1875 47.75 41.5 
Q 54.890625 34.8125 54.890625 23.390625 
Q 54.890625 11.625 47.5625 5.09375 
Q 40.234375 -1.421875 26.90625 -1.421875 
Q 22.3125 -1.421875 17.546875 -0.640625 
Q 12.796875 0.140625 7.71875 1.703125 
L 7.71875 11.625 
Q 12.109375 9.234375 16.796875 8.0625 
Q 21.484375 6.890625 26.703125 6.890625 
Q 35.15625 6.890625 40.078125 11.328125 
Q 45.015625 15.765625 45.015625 23.390625 
Q 45.015625 31 40.078125 35.4375 
Q 35.15625 39.890625 26.703125 39.890625 
Q 22.75 39.890625 18.8125 39.015625 
Q 14.890625 38.140625 10.796875 36.28125 
z
" id="DejaVuSans-53"/>
      </defs>
      <g transform="translate(280.108905 418.798437)scale(0.1 -0.1)">
       <use xlink:href="#DejaVuSans-50"/>
       <use x="63.623047" xlink:href="#DejaVuSans-48"/>
       <use x="127.246094" xlink:href="#DejaVuSans-50"/>
       <use x="190.869141" xlink:href="#DejaVuSans-51"/>
       <use x="254.492188" xlink:href="#DejaVuSans-45"/>
       <use x="290.576172" xlink:href="#DejaVuSans-48"/>
       <use x="354.199219" xlink:href="#DejaVuSans-53"/>
      </g>
     </g>
    </g>
    <g id="xtick_5">
     <g id="line2d_5">
      <g>
       <use style="stroke:#000000;stroke-width:0.8;" x="380.292715" xlink:href="#m19cd0a00f2" y="404.2"/>
      </g>
     </g>
     <g id="text_5">
      <!-- 2023-07 -->
      <defs>
       <path d="M 8.203125 72.90625 
L 55.078125 72.90625 
L 55.078125 68.703125 
L 28.609375 0 
L 18.3125 0 
L 43.21875 64.59375 
L 8.203125 64.59375 
z
" id="DejaVuSans-55"/>
      </defs>
      <g transform="translate(359.401309 418.798437)scale(0.1 -0.1)">
       <use xlink:href="#DejaVuSans-50"/>
       <use x="63.623047" xlink:href="#DejaVuSans-48"/>
       <use x="127.246094" xlink:href="#DejaVuSans-50"/>
       <use x="190.869141" xlink:href="#DejaVuSans-51"/>
       <use x="254.492188" xlink:href="#DejaVuSans-45"/>
       <use x="290.576172" xlink:href="#DejaVuSans-48"/>
       <use x="354.199219" xlink:href="#DejaVuSans-55"/>
      </g>
     </g>
    </g>
    <g id="xtick_6">
     <g id="line2d_6">
      <g>
       <use style="stroke:#000000;stroke-width:0.8;" x="460.884994" xlink:href="#m19cd0a00f2" y="404.2"/>
      </g>
     </g>
     <g id="text_6">
      <!-- 2023-09 -->
      <defs>
       <path d="M 10.984375 1.515625 
L 10.984375 10.5 
Q 14.703125 8.734375 18.5 7.8125 
Q 22.3125 6.890625 25.984375 6.890625 
Q 35.75 6.890625 40.890625 13.453125 
Q 46.046875 20.015625 46.78125 33.40625 
Q 43.953125 29.203125 39.59375 26.953125 
Q 35.25 24.703125 29.984375 24.703125 
Q 19.046875 24.703125 12.671875 31.3125 
Q 6.296875 37.9375 6.296875 49.421875 
Q 6.296875 60.640625 12.9375 67.421875 
Q 19.578125 74.21875 30.609375 74.21875 
Q 43.265625 74.21875 49.921875 64.515625 
Q 56.59375 54.828125 56.59375 36.375 
Q 56.59375 19.140625 48.40625 8.859375 
Q 40.234375 -1.421875 26.421875 -1.421875 
Q 22.703125 -1.421875 18.890625 -0.6875 
Q 15.09375 0.046875 10.984375 1.515625 
z
M 30.609375 32.421875 
Q 37.25 32.421875 41.125 36.953125 
Q 45.015625 41.5 45.015625 49.421875 
Q 45.015625 57.28125 41.125 61.84375 
Q 37.25 66.40625 30.609375 66.40625 
Q 23.96875 66.40625 20.09375 61.84375 
Q 16.21875 57.28125 16.21875 49.421875 
Q 16.21875 41.5 20.09375 36.953125 
Q 23.96875 32.421875 30.609375 32.421875 
z
" id="DejaVuSans-57"/>
      </defs>
      <g transform="translate(439.993588 418.798437)scale(0.1 -0.1)">
       <use xlink:href="#DejaVuSans-50"/>
       <use x="63.623047" xlink:href="#DejaVuSans-48"/>
       <use x="127.246094" xlink:href="#DejaVuSans-50"/>
       <use x="190.869141" xlink:href="#DejaVuSans-51"/>
       <use x="254.492188" xlink:href="#DejaVuSans-45"/>
       <use x="290.576172" xlink:href="#DejaVuSans-48"/>
       <use x="354.199219" xlink:href="#DejaVuSans-57"/>
      </g>
     </g>
    </g>
    <g id="xtick_7">
     <g id="line2d_7">
      <g>
       <use style="stroke:#000000;stroke-width:0.8;" x="540.177397" xlink:href="#m19cd0a00f2" y="404.2"/>
      </g>
     </g>
     <g id="text_7">
      <!-- 2023-11 -->
      <g transform="translate(519.285991 418.798437)scale(0.1 -0.1)">
       <use xlink:href="#DejaVuSans-50"/>
       <use x="63.623047" xlink:href="#DejaVuSans-48"/>
       <use x="127.246094" xlink:href="#DejaVuSans-50"/>
       <use x="190.869141" xlink:href="#DejaVuSans-51"/>
       <use x="254.492188" xlink:href="#DejaVuSans-45"/>
       <use x="290.576172" xlink:href="#DejaVuSans-49"/>
       <use x="354.199219" xlink:href="#DejaVuSans-49"/>
      </g>
     </g>
    </g>
   </g>
   <g id="matplotlib.axis_2">
    <g id="ytick_1">
     <g id="line2d_8">
      <defs>
       <path d="M 0 0 
L -3.5 0 
" id="m7715da6f51" style="stroke:#000000;stroke-width:0.8;"/>
      </defs>
      <g>
       <use style="stroke:#000000;stroke-width:0.8;" x="43.3" xlink:href="#m7715da6f51" y="387.272727"/>
      </g>
     </g>
     <g id="text_8">
      <!-- 0 -->
      <g transform="translate(29.9375 391.071946)scale(0.1 -0.1)">
       <use xlink:href="#DejaVuSans-48"/>
      </g>
     </g>
    </g>
    <g id="ytick_2">
     <g id="line2d_9">
      <g>
       <use style="stroke:#000000;stroke-width:0.8;" x="43.3" xlink:href="#m7715da6f51" y="335.876727"/>
      </g>
     </g>
     <g id="text_9">
      <!-- 1000 -->
      <g transform="translate(10.85 339.675946)scale(0.1 -0.1)">
       <use xlink:href="#DejaVuSans-49"/>
       <use x="63.623047" xlink:href="#DejaVuSans-48"/>
       <use x="127.246094" xlink:href="#DejaVuSans-48"/>
       <use x="190.869141" xlink:href="#DejaVuSans-48"/>
      </g>
     </g>
    </g>
    <g id="ytick_3">
     <g id="line2d_10">
      <g>
       <use style="stroke:#000000;stroke-width:0.8;" x="43.3" xlink:href="#m7715da6f51" y="284.480726"/>
      </g>
     </g>
     <g id="text_10">
      <!-- 2000 -->
      <g transform="translate(10.85 288.279945)scale(0.1 -0.1)">
       <use xlink:href="#DejaVuSans-50"/>
       <use x="63.623047" xlink:href="#DejaVuSans-48"/>
       <use x="127.246094" xlink:href="#DejaVuSans-48"/>
       <use x="190.869141" xlink:href="#DejaVuSans-48"/>
      </g>
     </g>
    </g>
    <g id="ytick_4">
     <g id="line2d_11">
      <g>
       <use style="stroke:#000000;stroke-width:0.8;" x="43.3" xlink:href="#m7715da6f51" y="233.084726"/>
      </g>
     </g>
     <g id="text_11">
      <!-- 3000 -->
      <g transform="translate(10.85 236.883945)scale(0.1 -0.1)">
       <use xlink:href="#DejaVuSans-51"/>
       <use x="63.623047" xlink:href="#DejaVuSans-48"/>
       <use x="127.246094" xlink:href="#DejaVuSans-48"/>
       <use x="190.869141" xlink:href="#DejaVuSans-48"/>
      </g>
     </g>
    </g>
    <g id="ytick_5">
     <g id="line2d_12">
      <g>
       <use style="stroke:#000000;stroke-width:0.8;" x="43.3" xlink:href="#m7715da6f51" y="181.688726"/>
      </g>
     </g>
     <g id="text_12">
      <!-- 4000 -->
      <defs>
       <path d="M 37.796875 64.3125 
L 12.890625 25.390625 
L 37.796875 25.390625 
z
M 35.203125 72.90625 
L 47.609375 72.90625 
L 47.609375 25.390625 
L 58.015625 25.390625 
L 58.015625 17.1875 
L 47.609375 17.1875 
L 47.609375 0 
L 37.796875 0 
L 37.796875 17.1875 
L 4.890625 17.1875 
L 4.890625 26.703125 
z
" id="DejaVuSans-52"/>
      </defs>
      <g transform="translate(10.85 185.487944)scale(0.1 -0.1)">
       <use xlink:href="#DejaVuSans-52"/>
       <use x="63.623047" xlink:href="#DejaVuSans-48"/>
       <use x="127.246094" xlink:href="#DejaVuSans-48"/>
       <use x="190.869141" xlink:href="#DejaVuSans-48"/>
      </g>
     </g>
    </g>
    <g id="ytick_6">
     <g id="line2d_13">
      <g>
       <use style="stroke:#000000;stroke-width:0.8;" x="43.3" xlink:href="#m7715da6f51" y="130.292725"/>
      </g>
     </g>
     <g id="text_13">
      <!-- 5000 -->
      <g transform="translate(10.85 134.091944)scale(0.1 -0.1)">
       <use xlink:href="#DejaVuSans-53"/>
       <use x="63.623047" xlink:href="#DejaVuSans-48"/>
       <use x="127.246094" xlink:href="#DejaVuSans-48"/>
       <use x="190.869141" xlink:href="#DejaVuSans-48"/>
      </g>
     </g>
    </g>
    <g id="ytick_7">
     <g id="line2d_14">
      <g>
       <use style="stroke:#000000;stroke-width:0.8;" x="43.3" xlink:href="#m7715da6f51" y="78.896725"/>
      </g>
     </g>
     <g id="text_14">
      <!-- 6000 -->
      <defs>
       <path d="M 33.015625 40.375 
Q 26.375 40.375 22.484375 35.828125 
Q 18.609375 31.296875 18.609375 23.390625 
Q 18.609375 15.53125 22.484375 10.953125 
Q 26.375 6.390625 33.015625 6.390625 
Q 39.65625 6.390625 43.53125 10.953125 
Q 47.40625 15.53125 47.40625 23.390625 
Q 47.40625 31.296875 43.53125 35.828125 
Q 39.65625 40.375 33.015625 40.375 
z
M 52.59375 71.296875 
L 52.59375 62.3125 
Q 48.875 64.0625 45.09375 64.984375 
Q 41.3125 65.921875 37.59375 65.921875 
Q 27.828125 65.921875 22.671875 59.328125 
Q 17.53125 52.734375 16.796875 39.40625 
Q 19.671875 43.65625 24.015625 45.921875 
Q 28.375 48.1875 33.59375 48.1875 
Q 44.578125 48.1875 50.953125 41.515625 
Q 57.328125 34.859375 57.328125 23.390625 
Q 57.328125 12.15625 50.6875 5.359375 
Q 44.046875 -1.421875 33.015625 -1.421875 
Q 20.359375 -1.421875 13.671875 8.265625 
Q 6.984375 17.96875 6.984375 36.375 
Q 6.984375 53.65625 15.1875 63.9375 
Q 23.390625 74.21875 37.203125 74.21875 
Q 40.921875 74.21875 44.703125 73.484375 
Q 48.484375 72.75 52.59375 71.296875 
z
" id="DejaVuSans-54"/>
      </defs>
      <g transform="translate(10.85 82.695944)scale(0.1 -0.1)">
       <use xlink:href="#DejaVuSans-54"/>
       <use x="63.623047" xlink:href="#DejaVuSans-48"/>
       <use x="127.246094" xlink:href="#DejaVuSans-48"/>
       <use x="190.869141" xlink:href="#DejaVuSans-48"/>
      </g>
     </g>
    </g>
   </g>
   <g id="patch_3">
    <path d="M 43.3 404.2 
L 43.3 31.8 
" style="fill:none;stroke:#000000;stroke-linecap:square;stroke-linejoin:miter;stroke-width:0.8;"/>
   </g>
   <g id="patch_4">
    <path d="M 565.2 404.2 
L 565.2 31.8 
" style="fill:none;stroke:#000000;stroke-linecap:square;stroke-linejoin:miter;stroke-width:0.8;"/>
   </g>
   <g id="patch_5">
    <path d="M 43.3 404.2 
L 565.2 404.2 
" style="fill:none;stroke:#000000;stroke-linecap:square;stroke-linejoin:miter;stroke-width:0.8;"/>
   </g>
   <g id="patch_6">
    <path d="M 43.3 31.8 
L 565.2 31.8 
" style="fill:none;stroke:#000000;stroke-linecap:square;stroke-linejoin:miter;stroke-width:0.8;"/>
   </g>
   <g id="text_15">
    <!-- 7974.T - 7% -->
    <defs>
     <path d="M 6.6875 72.90625 
L 61.625 72.90625 
L 61.625 62.3125 
L 33.203125 0 
L 14.890625 0 
L 41.796875 59.078125 
L 6.6875 59.078125 
z
" id="DejaVuSans-Bold-55"/>
     <path d="M 10.015625 1.609375 
L 10.015625 15.09375 
Q 14.5 12.984375 18.59375 11.9375 
Q 22.703125 10.890625 26.703125 10.890625 
Q 35.109375 10.890625 39.796875 15.546875 
Q 44.484375 20.21875 45.3125 29.390625 
Q 42 26.953125 38.234375 25.734375 
Q 34.46875 24.515625 30.078125 24.515625 
Q 18.890625 24.515625 12.03125 31.03125 
Q 5.171875 37.546875 5.171875 48.1875 
Q 5.171875 59.96875 12.8125 67.046875 
Q 20.453125 74.125 33.296875 74.125 
Q 47.5625 74.125 55.375 64.5 
Q 63.1875 54.890625 63.1875 37.3125 
Q 63.1875 19.234375 54.046875 8.90625 
Q 44.921875 -1.421875 29 -1.421875 
Q 23.875 -1.421875 19.1875 -0.65625 
Q 14.5 0.09375 10.015625 1.609375 
z
M 33.203125 36.71875 
Q 38.140625 36.71875 40.625 39.90625 
Q 43.109375 43.109375 43.109375 49.515625 
Q 43.109375 55.859375 40.625 59.078125 
Q 38.140625 62.3125 33.203125 62.3125 
Q 28.265625 62.3125 25.78125 59.078125 
Q 23.296875 55.859375 23.296875 49.515625 
Q 23.296875 43.109375 25.78125 39.90625 
Q 28.265625 36.71875 33.203125 36.71875 
z
" id="DejaVuSans-Bold-57"/>
     <path d="M 36.8125 57.421875 
L 16.21875 26.90625 
L 36.8125 26.90625 
z
M 33.6875 72.90625 
L 54.59375 72.90625 
L 54.59375 26.90625 
L 64.984375 26.90625 
L 64.984375 13.28125 
L 54.59375 13.28125 
L 54.59375 0 
L 36.8125 0 
L 36.8125 13.28125 
L 4.5 13.28125 
L 4.5 29.390625 
z
" id="DejaVuSans-Bold-52"/>
     <path d="M 10.203125 18.890625 
L 27.78125 18.890625 
L 27.78125 0 
L 10.203125 0 
z
" id="DejaVuSans-Bold-46"/>
     <path d="M 0.484375 72.90625 
L 67.671875 72.90625 
L 67.671875 58.6875 
L 43.5 58.6875 
L 43.5 0 
L 24.703125 0 
L 24.703125 58.6875 
L 0.484375 58.6875 
z
" id="DejaVuSans-Bold-84"/>
     <path id="DejaVuSans-Bold-32"/>
     <path d="M 5.421875 35.890625 
L 36.078125 35.890625 
L 36.078125 21.6875 
L 5.421875 21.6875 
z
" id="DejaVuSans-Bold-45"/>
     <path d="M 77.484375 30.078125 
Q 74.03125 30.078125 72.125 27.078125 
Q 70.21875 24.078125 70.21875 18.5 
Q 70.21875 12.890625 72.09375 9.890625 
Q 73.96875 6.890625 77.484375 6.890625 
Q 81 6.890625 82.859375 9.890625 
Q 84.71875 12.890625 84.71875 18.5 
Q 84.71875 24.078125 82.828125 27.078125 
Q 80.953125 30.078125 77.484375 30.078125 
z
M 77.484375 38.28125 
Q 86.578125 38.28125 91.796875 33 
Q 97.015625 27.734375 97.015625 18.5 
Q 97.015625 9.28125 91.796875 3.921875 
Q 86.578125 -1.421875 77.484375 -1.421875 
Q 68.40625 -1.421875 63.15625 3.921875 
Q 57.90625 9.28125 57.90625 18.5 
Q 57.90625 27.6875 63.15625 32.984375 
Q 68.40625 38.28125 77.484375 38.28125 
z
M 32.71875 -1.421875 
L 21.921875 -1.421875 
L 67.484375 74.21875 
L 78.328125 74.21875 
z
M 22.703125 74.21875 
Q 31.78125 74.21875 36.984375 68.921875 
Q 42.1875 63.625 42.1875 54.390625 
Q 42.1875 45.171875 36.984375 39.84375 
Q 31.78125 34.515625 22.703125 34.515625 
Q 13.625 34.515625 8.421875 39.84375 
Q 3.21875 45.171875 3.21875 54.390625 
Q 3.21875 63.625 8.421875 68.921875 
Q 13.625 74.21875 22.703125 74.21875 
z
M 22.703125 66.015625 
Q 19.1875 66.015625 17.28125 62.984375 
Q 15.375 59.96875 15.375 54.390625 
Q 15.375 48.78125 17.28125 45.71875 
Q 19.1875 42.671875 22.703125 42.671875 
Q 26.21875 42.671875 28.09375 45.71875 
Q 29.984375 48.78125 29.984375 54.390625 
Q 29.984375 59.96875 28.078125 62.984375 
Q 26.171875 66.015625 22.703125 66.015625 
z
" id="DejaVuSans-Bold-37"/>
    </defs>
    <g transform="translate(43.3 25.8)scale(0.2 -0.2)">
     <use xlink:href="#DejaVuSans-Bold-55"/>
     <use x="69.580078" xlink:href="#DejaVuSans-Bold-57"/>
     <use x="139.160156" xlink:href="#DejaVuSans-Bold-55"/>
     <use x="208.740234" xlink:href="#DejaVuSans-Bold-52"/>
     <use x="278.320312" xlink:href="#DejaVuSans-Bold-46"/>
     <use x="316.308594" xlink:href="#DejaVuSans-Bold-84"/>
     <use x="384.521484" xlink:href="#DejaVuSans-Bold-32"/>
     <use x="419.335938" xlink:href="#DejaVuSans-Bold-45"/>
     <use x="460.839844" xlink:href="#DejaVuSans-Bold-32"/>
     <use x="495.654297" xlink:href="#DejaVuSans-Bold-55"/>
     <use x="565.234375" xlink:href="#DejaVuSans-Bold-37"/>
    </g>
   </g>
  </g>
 </g>
 <defs>
  <clipPath id="pf2cb2fbcd4">
   <rect height="372.4" width="521.9" x="43.3" y="31.8"/>
  </clipPath>
 </defs>
</svg>
