<?xml version="1.0" encoding="utf-8" standalone="no"?>
<!DOCTYPE svg PUBLIC "-//W3C//DTD SVG 1.1//EN"
  "http://www.w3.org/Graphics/SVG/1.1/DTD/svg11.dtd">
<!-- Created with matplotlib (https://matplotlib.org/) -->
<svg height="432pt" version="1.1" viewBox="0 0 864 432" width="864pt" xmlns="http://www.w3.org/2000/svg" xmlns:xlink="http://www.w3.org/1999/xlink">
 <defs>
  <style type="text/css">
*{stroke-linecap:butt;stroke-linejoin:round;}
  </style>
 </defs>
 <g id="figure_1">
  <g id="patch_1">
   <path d="M 0 432 
L 864 432 
L 864 0 
L 0 0 
z
" style="fill:none;"/>
  </g>
  <g id="axes_1">
   <g id="patch_2">
    <path d="M 94.3 385.2 
L 840.323864 385.2 
L 840.323864 88.8 
L 94.3 88.8 
z
" style="fill:none;"/>
   </g>
   <g id="PolyCollection_1">
    <path clip-path="url(#p6665ced34d)" d="M 128.210176 1751.197176 
L 128.210176 373.808941 
L 131.896064 346.377412 
L 135.581953 361.720471 
L 146.639619 342.425412 
L 150.325508 359.163294 
L 154.011396 372.646588 
L 157.697285 385.2 
L 161.383174 369.624471 
L 172.440839 377.528471 
L 176.126728 358.698353 
L 179.812617 371.251765 
L 183.498505 367.067294 
L 187.184394 344.750118 
L 198.24206 337.078588 
L 201.927949 328.477176 
L 205.613837 344.052706 
L 209.299726 360.325647 
L 212.985615 333.591529 
L 224.043281 327.082353 
L 227.729169 314.296471 
L 231.415058 319.875765 
L 235.100947 304.067765 
L 238.786835 294.536471 
L 249.844501 302.440471 
L 253.53039 300.115765 
L 257.216279 307.089882 
L 260.902167 282.448 
L 264.588056 302.905412 
L 275.645722 289.189647 
L 279.33161 265.245176 
L 283.017499 235.488941 
L 286.703388 221.075765 
L 290.389276 230.374588 
L 301.446942 219.913412 
L 305.132831 235.721412 
L 308.81872 237.348706 
L 312.504608 283.377882 
L 316.190497 274.776471 
L 327.248163 285.470118 
L 330.934052 296.628706 
L 334.61994 286.632471 
L 338.305829 257.806118 
L 341.991718 265.942588 
L 356.735272 272.684235 
L 360.421161 255.713882 
L 364.107049 257.341176 
L 367.792938 259.200941 
L 378.850604 237.581176 
L 382.536493 253.389176 
L 386.222381 286.632471 
L 389.90827 268.964706 
L 393.594159 274.079059 
L 404.651825 251.761882 
L 408.337713 249.669647 
L 412.023602 273.846588 
L 415.709491 273.381647 
L 419.395379 316.388706 
L 430.453045 302.440471 
L 434.138934 319.410824 
L 437.824823 322.665412 
L 441.510711 298.023529 
L 456.254266 298.720941 
L 459.940155 288.027294 
L 463.626043 288.492235 
L 467.311932 314.528941 
L 470.99782 329.872 
L 482.055486 326.617412 
L 485.741375 319.410824 
L 489.427264 307.322353 
L 493.113152 322.665412 
L 496.799041 337.078588 
L 507.856707 315.691294 
L 511.542596 316.388706 
L 515.228484 305.462588 
L 518.914373 294.304 
L 522.600262 294.071529 
L 533.657928 294.304 
L 537.343816 292.676706 
L 541.029705 281.285647 
L 544.715594 270.824471 
L 548.401482 273.149176 
L 559.459148 270.359529 
L 563.145037 270.592 
L 566.830925 284.540235 
L 570.516814 274.079059 
L 574.202703 277.798588 
L 588.946257 251.529412 
L 592.632146 294.536471 
L 596.318035 320.805647 
L 600.003923 321.270588 
L 611.061589 304.300235 
L 614.747478 295.931294 
L 618.433367 304.067765 
L 622.119255 321.038118 
L 625.805144 302.905412 
L 636.86281 326.152471 
L 640.548699 319.178353 
L 644.234587 331.266824 
L 647.920476 305.230118 
L 651.606365 299.418353 
L 666.349919 284.075294 
L 670.035808 284.540235 
L 673.721696 275.008941 
L 677.407585 310.809412 
L 688.465251 309.879529 
L 692.15114 327.779765 
L 695.837028 330.801882 
L 699.522917 334.986353 
L 703.208806 332.894118 
L 714.266472 340.798118 
L 717.95236 337.543529 
L 721.638249 314.528941 
L 725.324138 329.407059 
L 729.010026 304.997647 
L 740.067692 329.174588 
L 743.753581 304.997647 
L 747.43947 284.307765 
L 751.125358 273.381647 
L 765.868913 255.946353 
L 769.554801 266.872471 
L 773.24069 176.441412 
L 776.926579 88.8 
L 780.612467 156.216471 
L 791.670133 120.648471 
L 795.356022 122.043294 
L 799.041911 125.297882 
L 802.727799 111.582118 
L 806.413688 136.456471 
L 806.413688 1751.197176 
L 806.413688 1751.197176 
L 802.727799 1751.197176 
L 799.041911 1751.197176 
L 795.356022 1751.197176 
L 791.670133 1751.197176 
L 780.612467 1751.197176 
L 776.926579 1751.197176 
L 773.24069 1751.197176 
L 769.554801 1751.197176 
L 765.868913 1751.197176 
L 751.125358 1751.197176 
L 747.43947 1751.197176 
L 743.753581 1751.197176 
L 740.067692 1751.197176 
L 729.010026 1751.197176 
L 725.324138 1751.197176 
L 721.638249 1751.197176 
L 717.95236 1751.197176 
L 714.266472 1751.197176 
L 703.208806 1751.197176 
L 699.522917 1751.197176 
L 695.837028 1751.197176 
L 692.15114 1751.197176 
L 688.465251 1751.197176 
L 677.407585 1751.197176 
L 673.721696 1751.197176 
L 670.035808 1751.197176 
L 666.349919 1751.197176 
L 651.606365 1751.197176 
L 647.920476 1751.197176 
L 644.234587 1751.197176 
L 640.548699 1751.197176 
L 636.86281 1751.197176 
L 625.805144 1751.197176 
L 622.119255 1751.197176 
L 618.433367 1751.197176 
L 614.747478 1751.197176 
L 611.061589 1751.197176 
L 600.003923 1751.197176 
L 596.318035 1751.197176 
L 592.632146 1751.197176 
L 588.946257 1751.197176 
L 574.202703 1751.197176 
L 570.516814 1751.197176 
L 566.830925 1751.197176 
L 563.145037 1751.197176 
L 559.459148 1751.197176 
L 548.401482 1751.197176 
L 544.715594 1751.197176 
L 541.029705 1751.197176 
L 537.343816 1751.197176 
L 533.657928 1751.197176 
L 522.600262 1751.197176 
L 518.914373 1751.197176 
L 515.228484 1751.197176 
L 511.542596 1751.197176 
L 507.856707 1751.197176 
L 496.799041 1751.197176 
L 493.113152 1751.197176 
L 489.427264 1751.197176 
L 485.741375 1751.197176 
L 482.055486 1751.197176 
L 470.99782 1751.197176 
L 467.311932 1751.197176 
L 463.626043 1751.197176 
L 459.940155 1751.197176 
L 456.254266 1751.197176 
L 441.510711 1751.197176 
L 437.824823 1751.197176 
L 434.138934 1751.197176 
L 430.453045 1751.197176 
L 419.395379 1751.197176 
L 415.709491 1751.197176 
L 412.023602 1751.197176 
L 408.337713 1751.197176 
L 404.651825 1751.197176 
L 393.594159 1751.197176 
L 389.90827 1751.197176 
L 386.222381 1751.197176 
L 382.536493 1751.197176 
L 378.850604 1751.197176 
L 367.792938 1751.197176 
L 364.107049 1751.197176 
L 360.421161 1751.197176 
L 356.735272 1751.197176 
L 341.991718 1751.197176 
L 338.305829 1751.197176 
L 334.61994 1751.197176 
L 330.934052 1751.197176 
L 327.248163 1751.197176 
L 316.190497 1751.197176 
L 312.504608 1751.197176 
L 308.81872 1751.197176 
L 305.132831 1751.197176 
L 301.446942 1751.197176 
L 290.389276 1751.197176 
L 286.703388 1751.197176 
L 283.017499 1751.197176 
L 279.33161 1751.197176 
L 275.645722 1751.197176 
L 264.588056 1751.197176 
L 260.902167 1751.197176 
L 257.216279 1751.197176 
L 253.53039 1751.197176 
L 249.844501 1751.197176 
L 238.786835 1751.197176 
L 235.100947 1751.197176 
L 231.415058 1751.197176 
L 227.729169 1751.197176 
L 224.043281 1751.197176 
L 212.985615 1751.197176 
L 209.299726 1751.197176 
L 205.613837 1751.197176 
L 201.927949 1751.197176 
L 198.24206 1751.197176 
L 187.184394 1751.197176 
L 183.498505 1751.197176 
L 179.812617 1751.197176 
L 176.126728 1751.197176 
L 172.440839 1751.197176 
L 161.383174 1751.197176 
L 157.697285 1751.197176 
L 154.011396 1751.197176 
L 150.325508 1751.197176 
L 146.639619 1751.197176 
L 135.581953 1751.197176 
L 131.896064 1751.197176 
L 128.210176 1751.197176 
z
" style="fill:#0000ff;fill-opacity:0.1;stroke:#0000ff;stroke-opacity:0.1;"/>
   </g>
   <g id="matplotlib.axis_1">
    <g id="xtick_1">
     <g id="line2d_1">
      <defs>
       <path d="M 0 0 
L 0 3.5 
" id="m1e8f972f50" style="stroke:#000000;stroke-width:0.8;"/>
      </defs>
      <g>
       <use style="stroke:#000000;stroke-width:0.8;" x="128.210176" xlink:href="#m1e8f972f50" y="385.2"/>
      </g>
     </g>
     <g id="text_1">
      <!-- 05/23 -->
      <defs>
       <path d="M 31.78125 66.40625 
Q 24.171875 66.40625 20.328125 58.90625 
Q 16.5 51.421875 16.5 36.375 
Q 16.5 21.390625 20.328125 13.890625 
Q 24.171875 6.390625 31.78125 6.390625 
Q 39.453125 6.390625 43.28125 13.890625 
Q 47.125 21.390625 47.125 36.375 
Q 47.125 51.421875 43.28125 58.90625 
Q 39.453125 66.40625 31.78125 66.40625 
z
M 31.78125 74.21875 
Q 44.046875 74.21875 50.515625 64.515625 
Q 56.984375 54.828125 56.984375 36.375 
Q 56.984375 17.96875 50.515625 8.265625 
Q 44.046875 -1.421875 31.78125 -1.421875 
Q 19.53125 -1.421875 13.0625 8.265625 
Q 6.59375 17.96875 6.59375 36.375 
Q 6.59375 54.828125 13.0625 64.515625 
Q 19.53125 74.21875 31.78125 74.21875 
z
" id="DejaVuSans-48"/>
       <path d="M 10.796875 72.90625 
L 49.515625 72.90625 
L 49.515625 64.59375 
L 19.828125 64.59375 
L 19.828125 46.734375 
Q 21.96875 47.46875 24.109375 47.828125 
Q 26.265625 48.1875 28.421875 48.1875 
Q 40.625 48.1875 47.75 41.5 
Q 54.890625 34.8125 54.890625 23.390625 
Q 54.890625 11.625 47.5625 5.09375 
Q 40.234375 -1.421875 26.90625 -1.421875 
Q 22.3125 -1.421875 17.546875 -0.640625 
Q 12.796875 0.140625 7.71875 1.703125 
L 7.71875 11.625 
Q 12.109375 9.234375 16.796875 8.0625 
Q 21.484375 6.890625 26.703125 6.890625 
Q 35.15625 6.890625 40.078125 11.328125 
Q 45.015625 15.765625 45.015625 23.390625 
Q 45.015625 31 40.078125 35.4375 
Q 35.15625 39.890625 26.703125 39.890625 
Q 22.75 39.890625 18.8125 39.015625 
Q 14.890625 38.140625 10.796875 36.28125 
z
" id="DejaVuSans-53"/>
       <path d="M 25.390625 72.90625 
L 33.6875 72.90625 
L 8.296875 -9.28125 
L 0 -9.28125 
z
" id="DejaVuSans-47"/>
       <path d="M 19.1875 8.296875 
L 53.609375 8.296875 
L 53.609375 0 
L 7.328125 0 
L 7.328125 8.296875 
Q 12.9375 14.109375 22.625 23.890625 
Q 32.328125 33.6875 34.8125 36.53125 
Q 39.546875 41.84375 41.421875 45.53125 
Q 43.3125 49.21875 43.3125 52.78125 
Q 43.3125 58.59375 39.234375 62.25 
Q 35.15625 65.921875 28.609375 65.921875 
Q 23.96875 65.921875 18.8125 64.3125 
Q 13.671875 62.703125 7.8125 59.421875 
L 7.8125 69.390625 
Q 13.765625 71.78125 18.9375 73 
Q 24.125 74.21875 28.421875 74.21875 
Q 39.75 74.21875 46.484375 68.546875 
Q 53.21875 62.890625 53.21875 53.421875 
Q 53.21875 48.921875 51.53125 44.890625 
Q 49.859375 40.875 45.40625 35.40625 
Q 44.1875 33.984375 37.640625 27.21875 
Q 31.109375 20.453125 19.1875 8.296875 
z
" id="DejaVuSans-50"/>
       <path d="M 40.578125 39.3125 
Q 47.65625 37.796875 51.625 33 
Q 55.609375 28.21875 55.609375 21.1875 
Q 55.609375 10.40625 48.1875 4.484375 
Q 40.765625 -1.421875 27.09375 -1.421875 
Q 22.515625 -1.421875 17.65625 -0.515625 
Q 12.796875 0.390625 7.625 2.203125 
L 7.625 11.71875 
Q 11.71875 9.328125 16.59375 8.109375 
Q 21.484375 6.890625 26.8125 6.890625 
Q 36.078125 6.890625 40.9375 10.546875 
Q 45.796875 14.203125 45.796875 21.1875 
Q 45.796875 27.640625 41.28125 31.265625 
Q 36.765625 34.90625 28.71875 34.90625 
L 20.21875 34.90625 
L 20.21875 43.015625 
L 29.109375 43.015625 
Q 36.375 43.015625 40.234375 45.921875 
Q 44.09375 48.828125 44.09375 54.296875 
Q 44.09375 59.90625 40.109375 62.90625 
Q 36.140625 65.921875 28.71875 65.921875 
Q 24.65625 65.921875 20.015625 65.03125 
Q 15.375 64.15625 9.8125 62.3125 
L 9.8125 71.09375 
Q 15.4375 72.65625 20.34375 73.4375 
Q 25.25 74.21875 29.59375 74.21875 
Q 40.828125 74.21875 47.359375 69.109375 
Q 53.90625 64.015625 53.90625 55.328125 
Q 53.90625 49.265625 50.4375 45.09375 
Q 46.96875 40.921875 40.578125 39.3125 
z
" id="DejaVuSans-51"/>
      </defs>
      <g transform="translate(84.982051 414.995312)scale(0.3 -0.3)">
       <use xlink:href="#DejaVuSans-48"/>
       <use x="63.623047" xlink:href="#DejaVuSans-53"/>
       <use x="127.246094" xlink:href="#DejaVuSans-47"/>
       <use x="160.9375" xlink:href="#DejaVuSans-50"/>
       <use x="224.560547" xlink:href="#DejaVuSans-51"/>
      </g>
     </g>
    </g>
    <g id="xtick_2">
     <g id="line2d_2">
      <g>
       <use style="stroke:#000000;stroke-width:0.8;" x="467.311932" xlink:href="#m1e8f972f50" y="385.2"/>
      </g>
     </g>
     <g id="text_2">
      <!-- 08/23 -->
      <defs>
       <path d="M 31.78125 34.625 
Q 24.75 34.625 20.71875 30.859375 
Q 16.703125 27.09375 16.703125 20.515625 
Q 16.703125 13.921875 20.71875 10.15625 
Q 24.75 6.390625 31.78125 6.390625 
Q 38.8125 6.390625 42.859375 10.171875 
Q 46.921875 13.96875 46.921875 20.515625 
Q 46.921875 27.09375 42.890625 30.859375 
Q 38.875 34.625 31.78125 34.625 
z
M 21.921875 38.8125 
Q 15.578125 40.375 12.03125 44.71875 
Q 8.5 49.078125 8.5 55.328125 
Q 8.5 64.0625 14.71875 69.140625 
Q 20.953125 74.21875 31.78125 74.21875 
Q 42.671875 74.21875 48.875 69.140625 
Q 55.078125 64.0625 55.078125 55.328125 
Q 55.078125 49.078125 51.53125 44.71875 
Q 48 40.375 41.703125 38.8125 
Q 48.828125 37.15625 52.796875 32.3125 
Q 56.78125 27.484375 56.78125 20.515625 
Q 56.78125 9.90625 50.3125 4.234375 
Q 43.84375 -1.421875 31.78125 -1.421875 
Q 19.734375 -1.421875 13.25 4.234375 
Q 6.78125 9.90625 6.78125 20.515625 
Q 6.78125 27.484375 10.78125 32.3125 
Q 14.796875 37.15625 21.921875 38.8125 
z
M 18.3125 54.390625 
Q 18.3125 48.734375 21.84375 45.5625 
Q 25.390625 42.390625 31.78125 42.390625 
Q 38.140625 42.390625 41.71875 45.5625 
Q 45.3125 48.734375 45.3125 54.390625 
Q 45.3125 60.0625 41.71875 63.234375 
Q 38.140625 66.40625 31.78125 66.40625 
Q 25.390625 66.40625 21.84375 63.234375 
Q 18.3125 60.0625 18.3125 54.390625 
z
" id="DejaVuSans-56"/>
      </defs>
      <g transform="translate(424.083807 414.995312)scale(0.3 -0.3)">
       <use xlink:href="#DejaVuSans-48"/>
       <use x="63.623047" xlink:href="#DejaVuSans-56"/>
       <use x="127.246094" xlink:href="#DejaVuSans-47"/>
       <use x="160.9375" xlink:href="#DejaVuSans-50"/>
       <use x="224.560547" xlink:href="#DejaVuSans-51"/>
      </g>
     </g>
    </g>
    <g id="xtick_3">
     <g id="line2d_3">
      <g>
       <use style="stroke:#000000;stroke-width:0.8;" x="806.413688" xlink:href="#m1e8f972f50" y="385.2"/>
      </g>
     </g>
     <g id="text_3">
      <!-- 11/23 -->
      <defs>
       <path d="M 12.40625 8.296875 
L 28.515625 8.296875 
L 28.515625 63.921875 
L 10.984375 60.40625 
L 10.984375 69.390625 
L 28.421875 72.90625 
L 38.28125 72.90625 
L 38.28125 8.296875 
L 54.390625 8.296875 
L 54.390625 0 
L 12.40625 0 
z
" id="DejaVuSans-49"/>
      </defs>
      <g transform="translate(763.185563 414.995312)scale(0.3 -0.3)">
       <use xlink:href="#DejaVuSans-49"/>
       <use x="63.623047" xlink:href="#DejaVuSans-49"/>
       <use x="127.246094" xlink:href="#DejaVuSans-47"/>
       <use x="160.9375" xlink:href="#DejaVuSans-50"/>
       <use x="224.560547" xlink:href="#DejaVuSans-51"/>
      </g>
     </g>
    </g>
   </g>
   <g id="matplotlib.axis_2">
    <g id="ytick_1">
     <g id="line2d_4">
      <defs>
       <path d="M 0 0 
L -3.5 0 
" id="me78045c284" style="stroke:#000000;stroke-width:0.8;"/>
      </defs>
      <g>
       <use style="stroke:#000000;stroke-width:0.8;" x="94.3" xlink:href="#me78045c284" y="356.373647"/>
      </g>
     </g>
     <g id="text_4">
      <!-- 6000 -->
      <defs>
       <path d="M 33.015625 40.375 
Q 26.375 40.375 22.484375 35.828125 
Q 18.609375 31.296875 18.609375 23.390625 
Q 18.609375 15.53125 22.484375 10.953125 
Q 26.375 6.390625 33.015625 6.390625 
Q 39.65625 6.390625 43.53125 10.953125 
Q 47.40625 15.53125 47.40625 23.390625 
Q 47.40625 31.296875 43.53125 35.828125 
Q 39.65625 40.375 33.015625 40.375 
z
M 52.59375 71.296875 
L 52.59375 62.3125 
Q 48.875 64.0625 45.09375 64.984375 
Q 41.3125 65.921875 37.59375 65.921875 
Q 27.828125 65.921875 22.671875 59.328125 
Q 17.53125 52.734375 16.796875 39.40625 
Q 19.671875 43.65625 24.015625 45.921875 
Q 28.375 48.1875 33.59375 48.1875 
Q 44.578125 48.1875 50.953125 41.515625 
Q 57.328125 34.859375 57.328125 23.390625 
Q 57.328125 12.15625 50.6875 5.359375 
Q 44.046875 -1.421875 33.015625 -1.421875 
Q 20.359375 -1.421875 13.671875 8.265625 
Q 6.984375 17.96875 6.984375 36.375 
Q 6.984375 53.65625 15.1875 63.9375 
Q 23.390625 74.21875 37.203125 74.21875 
Q 40.921875 74.21875 44.703125 73.484375 
Q 48.484375 72.75 52.59375 71.296875 
z
" id="DejaVuSans-54"/>
      </defs>
      <g transform="translate(10.95 367.771303)scale(0.3 -0.3)">
       <use xlink:href="#DejaVuSans-54"/>
       <use x="63.623047" xlink:href="#DejaVuSans-48"/>
       <use x="127.246094" xlink:href="#DejaVuSans-48"/>
       <use x="190.869141" xlink:href="#DejaVuSans-48"/>
      </g>
     </g>
    </g>
    <g id="ytick_2">
     <g id="line2d_5">
      <g>
       <use style="stroke:#000000;stroke-width:0.8;" x="94.3" xlink:href="#me78045c284" y="240.138353"/>
      </g>
     </g>
     <g id="text_5">
      <!-- 6500 -->
      <g transform="translate(10.95 251.536009)scale(0.3 -0.3)">
       <use xlink:href="#DejaVuSans-54"/>
       <use x="63.623047" xlink:href="#DejaVuSans-53"/>
       <use x="127.246094" xlink:href="#DejaVuSans-48"/>
       <use x="190.869141" xlink:href="#DejaVuSans-48"/>
      </g>
     </g>
    </g>
    <g id="ytick_3">
     <g id="line2d_6">
      <g>
       <use style="stroke:#000000;stroke-width:0.8;" x="94.3" xlink:href="#me78045c284" y="123.903059"/>
      </g>
     </g>
     <g id="text_6">
      <!-- 7000 -->
      <defs>
       <path d="M 8.203125 72.90625 
L 55.078125 72.90625 
L 55.078125 68.703125 
L 28.609375 0 
L 18.3125 0 
L 43.21875 64.59375 
L 8.203125 64.59375 
z
" id="DejaVuSans-55"/>
      </defs>
      <g transform="translate(10.95 135.300715)scale(0.3 -0.3)">
       <use xlink:href="#DejaVuSans-55"/>
       <use x="63.623047" xlink:href="#DejaVuSans-48"/>
       <use x="127.246094" xlink:href="#DejaVuSans-48"/>
       <use x="190.869141" xlink:href="#DejaVuSans-48"/>
      </g>
     </g>
    </g>
   </g>
   <g id="line2d_7">
    <path clip-path="url(#p6665ced34d)" d="M 128.210176 373.808941 
L 131.896064 346.377412 
L 135.581953 361.720471 
L 146.639619 342.425412 
L 150.325508 359.163294 
L 154.011396 372.646588 
L 157.697285 385.2 
L 161.383174 369.624471 
L 172.440839 377.528471 
L 176.126728 358.698353 
L 179.812617 371.251765 
L 183.498505 367.067294 
L 187.184394 344.750118 
L 198.24206 337.078588 
L 201.927949 328.477176 
L 205.613837 344.052706 
L 209.299726 360.325647 
L 212.985615 333.591529 
L 224.043281 327.082353 
L 227.729169 314.296471 
L 231.415058 319.875765 
L 235.100947 304.067765 
L 238.786835 294.536471 
L 249.844501 302.440471 
L 253.53039 300.115765 
L 257.216279 307.089882 
L 260.902167 282.448 
L 264.588056 302.905412 
L 275.645722 289.189647 
L 279.33161 265.245176 
L 283.017499 235.488941 
L 286.703388 221.075765 
L 290.389276 230.374588 
L 301.446942 219.913412 
L 305.132831 235.721412 
L 308.81872 237.348706 
L 312.504608 283.377882 
L 316.190497 274.776471 
L 327.248163 285.470118 
L 330.934052 296.628706 
L 334.61994 286.632471 
L 338.305829 257.806118 
L 341.991718 265.942588 
L 356.735272 272.684235 
L 360.421161 255.713882 
L 364.107049 257.341176 
L 367.792938 259.200941 
L 378.850604 237.581176 
L 382.536493 253.389176 
L 386.222381 286.632471 
L 389.90827 268.964706 
L 393.594159 274.079059 
L 404.651825 251.761882 
L 408.337713 249.669647 
L 412.023602 273.846588 
L 415.709491 273.381647 
L 419.395379 316.388706 
L 430.453045 302.440471 
L 434.138934 319.410824 
L 437.824823 322.665412 
L 441.510711 298.023529 
L 456.254266 298.720941 
L 459.940155 288.027294 
L 463.626043 288.492235 
L 467.311932 314.528941 
L 470.99782 329.872 
L 482.055486 326.617412 
L 485.741375 319.410824 
L 489.427264 307.322353 
L 493.113152 322.665412 
L 496.799041 337.078588 
L 507.856707 315.691294 
L 511.542596 316.388706 
L 518.914373 294.304 
L 522.600262 294.071529 
L 533.657928 294.304 
L 537.343816 292.676706 
L 541.029705 281.285647 
L 544.715594 270.824471 
L 548.401482 273.149176 
L 559.459148 270.359529 
L 563.145037 270.592 
L 566.830925 284.540235 
L 570.516814 274.079059 
L 574.202703 277.798588 
L 588.946257 251.529412 
L 592.632146 294.536471 
L 596.318035 320.805647 
L 600.003923 321.270588 
L 611.061589 304.300235 
L 614.747478 295.931294 
L 618.433367 304.067765 
L 622.119255 321.038118 
L 625.805144 302.905412 
L 636.86281 326.152471 
L 640.548699 319.178353 
L 644.234587 331.266824 
L 647.920476 305.230118 
L 651.606365 299.418353 
L 666.349919 284.075294 
L 670.035808 284.540235 
L 673.721696 275.008941 
L 677.407585 310.809412 
L 688.465251 309.879529 
L 692.15114 327.779765 
L 695.837028 330.801882 
L 699.522917 334.986353 
L 703.208806 332.894118 
L 714.266472 340.798118 
L 717.95236 337.543529 
L 721.638249 314.528941 
L 725.324138 329.407059 
L 729.010026 304.997647 
L 740.067692 329.174588 
L 743.753581 304.997647 
L 747.43947 284.307765 
L 751.125358 273.381647 
L 765.868913 255.946353 
L 769.554801 266.872471 
L 773.24069 176.441412 
L 776.926579 88.8 
L 780.612467 156.216471 
L 791.670133 120.648471 
L 795.356022 122.043294 
L 799.041911 125.297882 
L 802.727799 111.582118 
L 806.413688 136.456471 
L 806.413688 136.456471 
" style="fill:none;stroke:#000000;stroke-linecap:square;stroke-width:4;"/>
   </g>
   <g id="patch_3">
    <path d="M 94.3 385.2 
L 94.3 88.8 
" style="fill:none;stroke:#000000;stroke-linecap:square;stroke-linejoin:miter;stroke-width:0.8;"/>
   </g>
   <g id="patch_4">
    <path d="M 94.3 385.2 
L 840.323864 385.2 
" style="fill:none;stroke:#000000;stroke-linecap:square;stroke-linejoin:miter;stroke-width:0.8;"/>
   </g>
   <g id="text_7">
    <!-- 7974   17% -->
    <defs>
     <path d="M 6.6875 72.90625 
L 61.625 72.90625 
L 61.625 62.3125 
L 33.203125 0 
L 14.890625 0 
L 41.796875 59.078125 
L 6.6875 59.078125 
z
" id="DejaVuSans-Bold-55"/>
     <path d="M 10.015625 1.609375 
L 10.015625 15.09375 
Q 14.5 12.984375 18.59375 11.9375 
Q 22.703125 10.890625 26.703125 10.890625 
Q 35.109375 10.890625 39.796875 15.546875 
Q 44.484375 20.21875 45.3125 29.390625 
Q 42 26.953125 38.234375 25.734375 
Q 34.46875 24.515625 30.078125 24.515625 
Q 18.890625 24.515625 12.03125 31.03125 
Q 5.171875 37.546875 5.171875 48.1875 
Q 5.171875 59.96875 12.8125 67.046875 
Q 20.453125 74.125 33.296875 74.125 
Q 47.5625 74.125 55.375 64.5 
Q 63.1875 54.890625 63.1875 37.3125 
Q 63.1875 19.234375 54.046875 8.90625 
Q 44.921875 -1.421875 29 -1.421875 
Q 23.875 -1.421875 19.1875 -0.65625 
Q 14.5 0.09375 10.015625 1.609375 
z
M 33.203125 36.71875 
Q 38.140625 36.71875 40.625 39.90625 
Q 43.109375 43.109375 43.109375 49.515625 
Q 43.109375 55.859375 40.625 59.078125 
Q 38.140625 62.3125 33.203125 62.3125 
Q 28.265625 62.3125 25.78125 59.078125 
Q 23.296875 55.859375 23.296875 49.515625 
Q 23.296875 43.109375 25.78125 39.90625 
Q 28.265625 36.71875 33.203125 36.71875 
z
" id="DejaVuSans-Bold-57"/>
     <path d="M 36.8125 57.421875 
L 16.21875 26.90625 
L 36.8125 26.90625 
z
M 33.6875 72.90625 
L 54.59375 72.90625 
L 54.59375 26.90625 
L 64.984375 26.90625 
L 64.984375 13.28125 
L 54.59375 13.28125 
L 54.59375 0 
L 36.8125 0 
L 36.8125 13.28125 
L 4.5 13.28125 
L 4.5 29.390625 
z
" id="DejaVuSans-Bold-52"/>
     <path id="DejaVuSans-Bold-32"/>
     <path d="M 11.71875 12.984375 
L 28.328125 12.984375 
L 28.328125 60.109375 
L 11.28125 56.59375 
L 11.28125 69.390625 
L 28.21875 72.90625 
L 46.09375 72.90625 
L 46.09375 12.984375 
L 62.703125 12.984375 
L 62.703125 0 
L 11.71875 0 
z
" id="DejaVuSans-Bold-49"/>
     <path d="M 77.484375 30.078125 
Q 74.03125 30.078125 72.125 27.078125 
Q 70.21875 24.078125 70.21875 18.5 
Q 70.21875 12.890625 72.09375 9.890625 
Q 73.96875 6.890625 77.484375 6.890625 
Q 81 6.890625 82.859375 9.890625 
Q 84.71875 12.890625 84.71875 18.5 
Q 84.71875 24.078125 82.828125 27.078125 
Q 80.953125 30.078125 77.484375 30.078125 
z
M 77.484375 38.28125 
Q 86.578125 38.28125 91.796875 33 
Q 97.015625 27.734375 97.015625 18.5 
Q 97.015625 9.28125 91.796875 3.921875 
Q 86.578125 -1.421875 77.484375 -1.421875 
Q 68.40625 -1.421875 63.15625 3.921875 
Q 57.90625 9.28125 57.90625 18.5 
Q 57.90625 27.6875 63.15625 32.984375 
Q 68.40625 38.28125 77.484375 38.28125 
z
M 32.71875 -1.421875 
L 21.921875 -1.421875 
L 67.484375 74.21875 
L 78.328125 74.21875 
z
M 22.703125 74.21875 
Q 31.78125 74.21875 36.984375 68.921875 
Q 42.1875 63.625 42.1875 54.390625 
Q 42.1875 45.171875 36.984375 39.84375 
Q 31.78125 34.515625 22.703125 34.515625 
Q 13.625 34.515625 8.421875 39.84375 
Q 3.21875 45.171875 3.21875 54.390625 
Q 3.21875 63.625 8.421875 68.921875 
Q 13.625 74.21875 22.703125 74.21875 
z
M 22.703125 66.015625 
Q 19.1875 66.015625 17.28125 62.984375 
Q 15.375 59.96875 15.375 54.390625 
Q 15.375 48.78125 17.28125 45.71875 
Q 19.1875 42.671875 22.703125 42.671875 
Q 26.21875 42.671875 28.09375 45.71875 
Q 29.984375 48.78125 29.984375 54.390625 
Q 29.984375 59.96875 28.078125 62.984375 
Q 26.171875 66.015625 22.703125 66.015625 
z
" id="DejaVuSans-Bold-37"/>
    </defs>
    <g transform="translate(94.3 72.1625)scale(0.8 -0.8)">
     <use xlink:href="#DejaVuSans-Bold-55"/>
     <use x="69.580078" xlink:href="#DejaVuSans-Bold-57"/>
     <use x="139.160156" xlink:href="#DejaVuSans-Bold-55"/>
     <use x="208.740234" xlink:href="#DejaVuSans-Bold-52"/>
     <use x="278.320312" xlink:href="#DejaVuSans-Bold-32"/>
     <use x="313.134766" xlink:href="#DejaVuSans-Bold-32"/>
     <use x="347.949219" xlink:href="#DejaVuSans-Bold-32"/>
     <use x="382.763672" xlink:href="#DejaVuSans-Bold-49"/>
     <use x="452.34375" xlink:href="#DejaVuSans-Bold-55"/>
     <use x="521.923828" xlink:href="#DejaVuSans-Bold-37"/>
    </g>
   </g>
  </g>
 </g>
 <defs>
  <clipPath id="p6665ced34d">
   <rect height="296.4" width="746.023864" x="94.3" y="88.8"/>
  </clipPath>
 </defs>
</svg>
