<?xml version="1.0" encoding="utf-8" standalone="no"?>
<!DOCTYPE svg PUBLIC "-//W3C//DTD SVG 1.1//EN"
  "http://www.w3.org/Graphics/SVG/1.1/DTD/svg11.dtd">
<!-- Created with matplotlib (https://matplotlib.org/) -->
<svg height="432pt" version="1.1" viewBox="0 0 864 432" width="864pt" xmlns="http://www.w3.org/2000/svg" xmlns:xlink="http://www.w3.org/1999/xlink">
 <defs>
  <style type="text/css">
*{stroke-linecap:butt;stroke-linejoin:round;}
  </style>
 </defs>
 <g id="figure_1">
  <g id="patch_1">
   <path d="M 0 432 
L 864 432 
L 864 0 
L 0 0 
z
" style="fill:none;"/>
  </g>
  <g id="axes_1">
   <g id="patch_2">
    <path d="M 75.175 385.2 
L 840.323864 385.2 
L 840.323864 88.8 
L 75.175 88.8 
z
" style="fill:none;"/>
   </g>
   <g id="PolyCollection_1">
    <path clip-path="url(#pb49b837af1)" d="M 109.954494 811.946582 
L 109.954494 385.2 
L 113.734874 380.652901 
L 117.515253 367.705586 
L 128.856393 366.748314 
L 132.636772 368.698755 
L 136.417152 374.274956 
L 140.197532 342.804161 
L 143.977912 314.887259 
L 159.099431 312.709458 
L 162.87981 312.015405 
L 166.66019 301.293801 
L 170.44057 289.782431 
L 181.781709 292.403007 
L 185.562089 293.946606 
L 189.342469 311.381204 
L 193.122849 286.599447 
L 196.903228 268.686213 
L 208.244368 244.000168 
L 212.024747 238.782972 
L 215.805127 238.136793 
L 219.585507 224.51938 
L 223.365887 219.409873 
L 238.487406 230.562276 
L 242.267785 240.589826 
L 246.048165 240.470195 
L 249.828545 231.926391 
L 261.169684 238.160712 
L 264.950064 226.481835 
L 268.730444 234.666635 
L 272.510824 233.063184 
L 276.291203 226.816884 
L 287.632343 231.340064 
L 295.193102 228.886994 
L 298.973482 236.03075 
L 302.753862 231.26827 
L 314.095001 218.009825 
L 317.875381 207.970297 
L 321.65576 204.835188 
L 325.43614 192.964776 
L 329.21652 195.896482 
L 340.557659 187.316818 
L 344.338039 175.075534 
L 348.118419 181.130371 
L 351.898799 193.443449 
L 355.679178 189.434839 
L 367.020318 185.091143 
L 370.800697 183.320113 
L 374.581077 196.231568 
L 378.361457 196.925621 
L 382.141837 179.096122 
L 393.482976 158.394805 
L 397.263356 154.88875 
L 401.043735 177.38498 
L 404.824115 185.210775 
L 408.604495 181.477362 
L 419.945634 178.067056 
L 423.726014 188.9921 
L 427.506394 197.152907 
L 431.286773 194.699874 
L 435.067153 203.530852 
L 446.408293 187.017666 
L 450.188672 191.265612 
L 453.969052 196.303362 
L 457.749432 199.67777 
L 461.529812 203.913776 
L 472.870951 189.147665 
L 476.651331 190.332296 
L 480.43171 176.89433 
L 484.21209 198.768373 
L 487.99247 183.655198 
L 499.333609 177.839697 
L 503.113989 165.095785 
L 506.894369 159.364055 
L 510.674748 142.635416 
L 514.455128 138.004546 
L 529.576647 136.006229 
L 533.357027 139.524262 
L 537.137407 141.29522 
L 540.917787 141.414924 
L 552.258926 136.460947 
L 556.039306 163.133329 
L 559.819685 149.551849 
L 563.600065 151.227131 
L 567.380445 179.072166 
L 578.721584 174.848176 
L 582.501964 163.755589 
L 586.282344 170.827515 
L 590.062723 197.033275 
L 593.843103 198.205929 
L 605.184242 199.761542 
L 608.964622 206.10359 
L 612.745002 210.53102 
L 616.525382 208.054032 
L 620.305762 201.795791 
L 631.646901 188.357862 
L 635.427281 205.230053 
L 639.20766 191.600698 
L 642.98804 193.96996 
L 646.76842 181.716698 
L 658.109559 178.593567 
L 661.889939 174.489208 
L 665.670319 153.9195 
L 669.450698 142.288425 
L 673.231078 155.295557 
L 684.572217 152.926295 
L 688.352597 141.737959 
L 692.132977 144.394468 
L 695.913357 146.943251 
L 699.693737 164.62909 
L 711.034876 165.287283 
L 714.815256 166.304372 
L 718.595635 188.345884 
L 722.376015 196.554603 
L 726.156395 203.925753 
L 737.497534 181.405568 
L 741.277914 175.278937 
L 745.058294 160.393121 
L 748.838673 143.389285 
L 752.619053 137.46613 
L 763.960192 135.324154 
L 767.740572 111.691131 
L 771.520952 111.559522 
L 775.301332 120.617859 
L 779.081712 97.307944 
L 790.422851 105.540545 
L 794.203231 88.8 
L 797.98361 99.593434 
L 801.76399 91.516325 
L 805.54437 92.509531 
L 805.54437 811.946582 
L 805.54437 811.946582 
L 801.76399 811.946582 
L 797.98361 811.946582 
L 794.203231 811.946582 
L 790.422851 811.946582 
L 779.081712 811.946582 
L 775.301332 811.946582 
L 771.520952 811.946582 
L 767.740572 811.946582 
L 763.960192 811.946582 
L 752.619053 811.946582 
L 748.838673 811.946582 
L 745.058294 811.946582 
L 741.277914 811.946582 
L 737.497534 811.946582 
L 726.156395 811.946582 
L 722.376015 811.946582 
L 718.595635 811.946582 
L 714.815256 811.946582 
L 711.034876 811.946582 
L 699.693737 811.946582 
L 695.913357 811.946582 
L 692.132977 811.946582 
L 688.352597 811.946582 
L 684.572217 811.946582 
L 673.231078 811.946582 
L 669.450698 811.946582 
L 665.670319 811.946582 
L 661.889939 811.946582 
L 658.109559 811.946582 
L 646.76842 811.946582 
L 642.98804 811.946582 
L 639.20766 811.946582 
L 635.427281 811.946582 
L 631.646901 811.946582 
L 620.305762 811.946582 
L 616.525382 811.946582 
L 612.745002 811.946582 
L 608.964622 811.946582 
L 605.184242 811.946582 
L 593.843103 811.946582 
L 590.062723 811.946582 
L 586.282344 811.946582 
L 582.501964 811.946582 
L 578.721584 811.946582 
L 567.380445 811.946582 
L 563.600065 811.946582 
L 559.819685 811.946582 
L 556.039306 811.946582 
L 552.258926 811.946582 
L 540.917787 811.946582 
L 537.137407 811.946582 
L 533.357027 811.946582 
L 529.576647 811.946582 
L 514.455128 811.946582 
L 510.674748 811.946582 
L 506.894369 811.946582 
L 503.113989 811.946582 
L 499.333609 811.946582 
L 487.99247 811.946582 
L 484.21209 811.946582 
L 480.43171 811.946582 
L 476.651331 811.946582 
L 472.870951 811.946582 
L 461.529812 811.946582 
L 457.749432 811.946582 
L 453.969052 811.946582 
L 450.188672 811.946582 
L 446.408293 811.946582 
L 435.067153 811.946582 
L 431.286773 811.946582 
L 427.506394 811.946582 
L 423.726014 811.946582 
L 419.945634 811.946582 
L 408.604495 811.946582 
L 404.824115 811.946582 
L 401.043735 811.946582 
L 397.263356 811.946582 
L 393.482976 811.946582 
L 382.141837 811.946582 
L 378.361457 811.946582 
L 374.581077 811.946582 
L 370.800697 811.946582 
L 367.020318 811.946582 
L 355.679178 811.946582 
L 351.898799 811.946582 
L 348.118419 811.946582 
L 344.338039 811.946582 
L 340.557659 811.946582 
L 329.21652 811.946582 
L 325.43614 811.946582 
L 321.65576 811.946582 
L 317.875381 811.946582 
L 314.095001 811.946582 
L 302.753862 811.946582 
L 298.973482 811.946582 
L 295.193102 811.946582 
L 287.632343 811.946582 
L 276.291203 811.946582 
L 272.510824 811.946582 
L 268.730444 811.946582 
L 264.950064 811.946582 
L 261.169684 811.946582 
L 249.828545 811.946582 
L 246.048165 811.946582 
L 242.267785 811.946582 
L 238.487406 811.946582 
L 223.365887 811.946582 
L 219.585507 811.946582 
L 215.805127 811.946582 
L 212.024747 811.946582 
L 208.244368 811.946582 
L 196.903228 811.946582 
L 193.122849 811.946582 
L 189.342469 811.946582 
L 185.562089 811.946582 
L 181.781709 811.946582 
L 170.44057 811.946582 
L 166.66019 811.946582 
L 162.87981 811.946582 
L 159.099431 811.946582 
L 143.977912 811.946582 
L 140.197532 811.946582 
L 136.417152 811.946582 
L 132.636772 811.946582 
L 128.856393 811.946582 
L 117.515253 811.946582 
L 113.734874 811.946582 
L 109.954494 811.946582 
z
" style="fill:#0000ff;fill-opacity:0.1;stroke:#0000ff;stroke-opacity:0.1;"/>
   </g>
   <g id="matplotlib.axis_1">
    <g id="xtick_1">
     <g id="line2d_1">
      <defs>
       <path d="M 0 0 
L 0 3.5 
" id="m41a24e942c" style="stroke:#000000;stroke-width:0.8;"/>
      </defs>
      <g>
       <use style="stroke:#000000;stroke-width:0.8;" x="109.954494" xlink:href="#m41a24e942c" y="385.2"/>
      </g>
     </g>
     <g id="text_1">
      <!-- 05/23 -->
      <defs>
       <path d="M 31.78125 66.40625 
Q 24.171875 66.40625 20.328125 58.90625 
Q 16.5 51.421875 16.5 36.375 
Q 16.5 21.390625 20.328125 13.890625 
Q 24.171875 6.390625 31.78125 6.390625 
Q 39.453125 6.390625 43.28125 13.890625 
Q 47.125 21.390625 47.125 36.375 
Q 47.125 51.421875 43.28125 58.90625 
Q 39.453125 66.40625 31.78125 66.40625 
z
M 31.78125 74.21875 
Q 44.046875 74.21875 50.515625 64.515625 
Q 56.984375 54.828125 56.984375 36.375 
Q 56.984375 17.96875 50.515625 8.265625 
Q 44.046875 -1.421875 31.78125 -1.421875 
Q 19.53125 -1.421875 13.0625 8.265625 
Q 6.59375 17.96875 6.59375 36.375 
Q 6.59375 54.828125 13.0625 64.515625 
Q 19.53125 74.21875 31.78125 74.21875 
z
" id="DejaVuSans-48"/>
       <path d="M 10.796875 72.90625 
L 49.515625 72.90625 
L 49.515625 64.59375 
L 19.828125 64.59375 
L 19.828125 46.734375 
Q 21.96875 47.46875 24.109375 47.828125 
Q 26.265625 48.1875 28.421875 48.1875 
Q 40.625 48.1875 47.75 41.5 
Q 54.890625 34.8125 54.890625 23.390625 
Q 54.890625 11.625 47.5625 5.09375 
Q 40.234375 -1.421875 26.90625 -1.421875 
Q 22.3125 -1.421875 17.546875 -0.640625 
Q 12.796875 0.140625 7.71875 1.703125 
L 7.71875 11.625 
Q 12.109375 9.234375 16.796875 8.0625 
Q 21.484375 6.890625 26.703125 6.890625 
Q 35.15625 6.890625 40.078125 11.328125 
Q 45.015625 15.765625 45.015625 23.390625 
Q 45.015625 31 40.078125 35.4375 
Q 35.15625 39.890625 26.703125 39.890625 
Q 22.75 39.890625 18.8125 39.015625 
Q 14.890625 38.140625 10.796875 36.28125 
z
" id="DejaVuSans-53"/>
       <path d="M 25.390625 72.90625 
L 33.6875 72.90625 
L 8.296875 -9.28125 
L 0 -9.28125 
z
" id="DejaVuSans-47"/>
       <path d="M 19.1875 8.296875 
L 53.609375 8.296875 
L 53.609375 0 
L 7.328125 0 
L 7.328125 8.296875 
Q 12.9375 14.109375 22.625 23.890625 
Q 32.328125 33.6875 34.8125 36.53125 
Q 39.546875 41.84375 41.421875 45.53125 
Q 43.3125 49.21875 43.3125 52.78125 
Q 43.3125 58.59375 39.234375 62.25 
Q 35.15625 65.921875 28.609375 65.921875 
Q 23.96875 65.921875 18.8125 64.3125 
Q 13.671875 62.703125 7.8125 59.421875 
L 7.8125 69.390625 
Q 13.765625 71.78125 18.9375 73 
Q 24.125 74.21875 28.421875 74.21875 
Q 39.75 74.21875 46.484375 68.546875 
Q 53.21875 62.890625 53.21875 53.421875 
Q 53.21875 48.921875 51.53125 44.890625 
Q 49.859375 40.875 45.40625 35.40625 
Q 44.1875 33.984375 37.640625 27.21875 
Q 31.109375 20.453125 19.1875 8.296875 
z
" id="DejaVuSans-50"/>
       <path d="M 40.578125 39.3125 
Q 47.65625 37.796875 51.625 33 
Q 55.609375 28.21875 55.609375 21.1875 
Q 55.609375 10.40625 48.1875 4.484375 
Q 40.765625 -1.421875 27.09375 -1.421875 
Q 22.515625 -1.421875 17.65625 -0.515625 
Q 12.796875 0.390625 7.625 2.203125 
L 7.625 11.71875 
Q 11.71875 9.328125 16.59375 8.109375 
Q 21.484375 6.890625 26.8125 6.890625 
Q 36.078125 6.890625 40.9375 10.546875 
Q 45.796875 14.203125 45.796875 21.1875 
Q 45.796875 27.640625 41.28125 31.265625 
Q 36.765625 34.90625 28.71875 34.90625 
L 20.21875 34.90625 
L 20.21875 43.015625 
L 29.109375 43.015625 
Q 36.375 43.015625 40.234375 45.921875 
Q 44.09375 48.828125 44.09375 54.296875 
Q 44.09375 59.90625 40.109375 62.90625 
Q 36.140625 65.921875 28.71875 65.921875 
Q 24.65625 65.921875 20.015625 65.03125 
Q 15.375 64.15625 9.8125 62.3125 
L 9.8125 71.09375 
Q 15.4375 72.65625 20.34375 73.4375 
Q 25.25 74.21875 29.59375 74.21875 
Q 40.828125 74.21875 47.359375 69.109375 
Q 53.90625 64.015625 53.90625 55.328125 
Q 53.90625 49.265625 50.4375 45.09375 
Q 46.96875 40.921875 40.578125 39.3125 
z
" id="DejaVuSans-51"/>
      </defs>
      <g transform="translate(66.726369 414.995312)scale(0.3 -0.3)">
       <use xlink:href="#DejaVuSans-48"/>
       <use x="63.623047" xlink:href="#DejaVuSans-53"/>
       <use x="127.246094" xlink:href="#DejaVuSans-47"/>
       <use x="160.9375" xlink:href="#DejaVuSans-50"/>
       <use x="224.560547" xlink:href="#DejaVuSans-51"/>
      </g>
     </g>
    </g>
    <g id="xtick_2">
     <g id="line2d_2">
      <g>
       <use style="stroke:#000000;stroke-width:0.8;" x="461.529812" xlink:href="#m41a24e942c" y="385.2"/>
      </g>
     </g>
     <g id="text_2">
      <!-- 08/23 -->
      <defs>
       <path d="M 31.78125 34.625 
Q 24.75 34.625 20.71875 30.859375 
Q 16.703125 27.09375 16.703125 20.515625 
Q 16.703125 13.921875 20.71875 10.15625 
Q 24.75 6.390625 31.78125 6.390625 
Q 38.8125 6.390625 42.859375 10.171875 
Q 46.921875 13.96875 46.921875 20.515625 
Q 46.921875 27.09375 42.890625 30.859375 
Q 38.875 34.625 31.78125 34.625 
z
M 21.921875 38.8125 
Q 15.578125 40.375 12.03125 44.71875 
Q 8.5 49.078125 8.5 55.328125 
Q 8.5 64.0625 14.71875 69.140625 
Q 20.953125 74.21875 31.78125 74.21875 
Q 42.671875 74.21875 48.875 69.140625 
Q 55.078125 64.0625 55.078125 55.328125 
Q 55.078125 49.078125 51.53125 44.71875 
Q 48 40.375 41.703125 38.8125 
Q 48.828125 37.15625 52.796875 32.3125 
Q 56.78125 27.484375 56.78125 20.515625 
Q 56.78125 9.90625 50.3125 4.234375 
Q 43.84375 -1.421875 31.78125 -1.421875 
Q 19.734375 -1.421875 13.25 4.234375 
Q 6.78125 9.90625 6.78125 20.515625 
Q 6.78125 27.484375 10.78125 32.3125 
Q 14.796875 37.15625 21.921875 38.8125 
z
M 18.3125 54.390625 
Q 18.3125 48.734375 21.84375 45.5625 
Q 25.390625 42.390625 31.78125 42.390625 
Q 38.140625 42.390625 41.71875 45.5625 
Q 45.3125 48.734375 45.3125 54.390625 
Q 45.3125 60.0625 41.71875 63.234375 
Q 38.140625 66.40625 31.78125 66.40625 
Q 25.390625 66.40625 21.84375 63.234375 
Q 18.3125 60.0625 18.3125 54.390625 
z
" id="DejaVuSans-56"/>
      </defs>
      <g transform="translate(418.301687 414.995312)scale(0.3 -0.3)">
       <use xlink:href="#DejaVuSans-48"/>
       <use x="63.623047" xlink:href="#DejaVuSans-56"/>
       <use x="127.246094" xlink:href="#DejaVuSans-47"/>
       <use x="160.9375" xlink:href="#DejaVuSans-50"/>
       <use x="224.560547" xlink:href="#DejaVuSans-51"/>
      </g>
     </g>
    </g>
    <g id="xtick_3">
     <g id="line2d_3">
      <g>
       <use style="stroke:#000000;stroke-width:0.8;" x="805.54437" xlink:href="#m41a24e942c" y="385.2"/>
      </g>
     </g>
     <g id="text_3">
      <!-- 11/23 -->
      <defs>
       <path d="M 12.40625 8.296875 
L 28.515625 8.296875 
L 28.515625 63.921875 
L 10.984375 60.40625 
L 10.984375 69.390625 
L 28.421875 72.90625 
L 38.28125 72.90625 
L 38.28125 8.296875 
L 54.390625 8.296875 
L 54.390625 0 
L 12.40625 0 
z
" id="DejaVuSans-49"/>
      </defs>
      <g transform="translate(762.316245 414.995312)scale(0.3 -0.3)">
       <use xlink:href="#DejaVuSans-49"/>
       <use x="63.623047" xlink:href="#DejaVuSans-49"/>
       <use x="127.246094" xlink:href="#DejaVuSans-47"/>
       <use x="160.9375" xlink:href="#DejaVuSans-50"/>
       <use x="224.560547" xlink:href="#DejaVuSans-51"/>
      </g>
     </g>
    </g>
   </g>
   <g id="matplotlib.axis_2">
    <g id="ytick_1">
     <g id="line2d_4">
      <defs>
       <path d="M 0 0 
L -3.5 0 
" id="mceb84b522e" style="stroke:#000000;stroke-width:0.8;"/>
      </defs>
      <g>
       <use style="stroke:#000000;stroke-width:0.8;" x="75.175" xlink:href="#mceb84b522e" y="333.303085"/>
      </g>
     </g>
     <g id="text_4">
      <!-- 400 -->
      <defs>
       <path d="M 37.796875 64.3125 
L 12.890625 25.390625 
L 37.796875 25.390625 
z
M 35.203125 72.90625 
L 47.609375 72.90625 
L 47.609375 25.390625 
L 58.015625 25.390625 
L 58.015625 17.1875 
L 47.609375 17.1875 
L 47.609375 0 
L 37.796875 0 
L 37.796875 17.1875 
L 4.890625 17.1875 
L 4.890625 26.703125 
z
" id="DejaVuSans-52"/>
      </defs>
      <g transform="translate(10.9125 344.700741)scale(0.3 -0.3)">
       <use xlink:href="#DejaVuSans-52"/>
       <use x="63.623047" xlink:href="#DejaVuSans-48"/>
       <use x="127.246094" xlink:href="#DejaVuSans-48"/>
      </g>
     </g>
    </g>
    <g id="ytick_2">
     <g id="line2d_5">
      <g>
       <use style="stroke:#000000;stroke-width:0.8;" x="75.175" xlink:href="#mceb84b522e" y="213.642211"/>
      </g>
     </g>
     <g id="text_5">
      <!-- 500 -->
      <g transform="translate(10.9125 225.039867)scale(0.3 -0.3)">
       <use xlink:href="#DejaVuSans-53"/>
       <use x="63.623047" xlink:href="#DejaVuSans-48"/>
       <use x="127.246094" xlink:href="#DejaVuSans-48"/>
      </g>
     </g>
    </g>
    <g id="ytick_3">
     <g id="line2d_6">
      <g>
       <use style="stroke:#000000;stroke-width:0.8;" x="75.175" xlink:href="#mceb84b522e" y="93.981336"/>
      </g>
     </g>
     <g id="text_6">
      <!-- 600 -->
      <defs>
       <path d="M 33.015625 40.375 
Q 26.375 40.375 22.484375 35.828125 
Q 18.609375 31.296875 18.609375 23.390625 
Q 18.609375 15.53125 22.484375 10.953125 
Q 26.375 6.390625 33.015625 6.390625 
Q 39.65625 6.390625 43.53125 10.953125 
Q 47.40625 15.53125 47.40625 23.390625 
Q 47.40625 31.296875 43.53125 35.828125 
Q 39.65625 40.375 33.015625 40.375 
z
M 52.59375 71.296875 
L 52.59375 62.3125 
Q 48.875 64.0625 45.09375 64.984375 
Q 41.3125 65.921875 37.59375 65.921875 
Q 27.828125 65.921875 22.671875 59.328125 
Q 17.53125 52.734375 16.796875 39.40625 
Q 19.671875 43.65625 24.015625 45.921875 
Q 28.375 48.1875 33.59375 48.1875 
Q 44.578125 48.1875 50.953125 41.515625 
Q 57.328125 34.859375 57.328125 23.390625 
Q 57.328125 12.15625 50.6875 5.359375 
Q 44.046875 -1.421875 33.015625 -1.421875 
Q 20.359375 -1.421875 13.671875 8.265625 
Q 6.984375 17.96875 6.984375 36.375 
Q 6.984375 53.65625 15.1875 63.9375 
Q 23.390625 74.21875 37.203125 74.21875 
Q 40.921875 74.21875 44.703125 73.484375 
Q 48.484375 72.75 52.59375 71.296875 
z
" id="DejaVuSans-54"/>
      </defs>
      <g transform="translate(10.9125 105.378993)scale(0.3 -0.3)">
       <use xlink:href="#DejaVuSans-54"/>
       <use x="63.623047" xlink:href="#DejaVuSans-48"/>
       <use x="127.246094" xlink:href="#DejaVuSans-48"/>
      </g>
     </g>
    </g>
   </g>
   <g id="line2d_7">
    <path clip-path="url(#pb49b837af1)" d="M 109.954494 385.2 
L 113.734874 380.652901 
L 117.515253 367.705586 
L 128.856393 366.748314 
L 132.636772 368.698755 
L 136.417152 374.274956 
L 140.197532 342.804161 
L 143.977912 314.887259 
L 159.099431 312.709458 
L 162.87981 312.015405 
L 166.66019 301.293801 
L 170.44057 289.782431 
L 181.781709 292.403007 
L 185.562089 293.946606 
L 189.342469 311.381204 
L 193.122849 286.599447 
L 196.903228 268.686213 
L 208.244368 244.000168 
L 212.024747 238.782972 
L 215.805127 238.136793 
L 219.585507 224.51938 
L 223.365887 219.409873 
L 238.487406 230.562276 
L 242.267785 240.589826 
L 246.048165 240.470195 
L 249.828545 231.926391 
L 261.169684 238.160712 
L 264.950064 226.481835 
L 268.730444 234.666635 
L 272.510824 233.063184 
L 276.291203 226.816884 
L 287.632343 231.340064 
L 295.193102 228.886994 
L 298.973482 236.03075 
L 302.753862 231.26827 
L 314.095001 218.009825 
L 317.875381 207.970297 
L 321.65576 204.835188 
L 325.43614 192.964776 
L 329.21652 195.896482 
L 340.557659 187.316818 
L 344.338039 175.075534 
L 348.118419 181.130371 
L 351.898799 193.443449 
L 355.679178 189.434839 
L 367.020318 185.091143 
L 370.800697 183.320113 
L 374.581077 196.231568 
L 378.361457 196.925621 
L 382.141837 179.096122 
L 393.482976 158.394805 
L 397.263356 154.88875 
L 401.043735 177.38498 
L 404.824115 185.210775 
L 408.604495 181.477362 
L 419.945634 178.067056 
L 423.726014 188.9921 
L 427.506394 197.152907 
L 431.286773 194.699874 
L 435.067153 203.530852 
L 446.408293 187.017666 
L 450.188672 191.265612 
L 453.969052 196.303362 
L 457.749432 199.67777 
L 461.529812 203.913776 
L 472.870951 189.147665 
L 476.651331 190.332296 
L 480.43171 176.89433 
L 484.21209 198.768373 
L 487.99247 183.655198 
L 499.333609 177.839697 
L 503.113989 165.095785 
L 506.894369 159.364055 
L 510.674748 142.635416 
L 514.455128 138.004546 
L 529.576647 136.006229 
L 533.357027 139.524262 
L 537.137407 141.29522 
L 540.917787 141.414924 
L 552.258926 136.460947 
L 556.039306 163.133329 
L 559.819685 149.551849 
L 563.600065 151.227131 
L 567.380445 179.072166 
L 578.721584 174.848176 
L 582.501964 163.755589 
L 586.282344 170.827515 
L 590.062723 197.033275 
L 593.843103 198.205929 
L 605.184242 199.761542 
L 608.964622 206.10359 
L 612.745002 210.53102 
L 616.525382 208.054032 
L 620.305762 201.795791 
L 631.646901 188.357862 
L 635.427281 205.230053 
L 639.20766 191.600698 
L 642.98804 193.96996 
L 646.76842 181.716698 
L 658.109559 178.593567 
L 661.889939 174.489208 
L 665.670319 153.9195 
L 669.450698 142.288425 
L 673.231078 155.295557 
L 684.572217 152.926295 
L 688.352597 141.737959 
L 695.913357 146.943251 
L 699.693737 164.62909 
L 711.034876 165.287283 
L 714.815256 166.304372 
L 718.595635 188.345884 
L 722.376015 196.554603 
L 726.156395 203.925753 
L 737.497534 181.405568 
L 741.277914 175.278937 
L 745.058294 160.393121 
L 748.838673 143.389285 
L 752.619053 137.46613 
L 763.960192 135.324154 
L 767.740572 111.691131 
L 771.520952 111.559522 
L 775.301332 120.617859 
L 779.081712 97.307944 
L 790.422851 105.540545 
L 794.203231 88.8 
L 797.98361 99.593434 
L 801.76399 91.516325 
L 805.54437 92.509531 
L 805.54437 92.509531 
" style="fill:none;stroke:#000000;stroke-linecap:square;stroke-width:4;"/>
   </g>
   <g id="patch_3">
    <path d="M 75.175 385.2 
L 75.175 88.8 
" style="fill:none;stroke:#000000;stroke-linecap:square;stroke-linejoin:miter;stroke-width:0.8;"/>
   </g>
   <g id="patch_4">
    <path d="M 75.175 385.2 
L 840.323864 385.2 
" style="fill:none;stroke:#000000;stroke-linecap:square;stroke-linejoin:miter;stroke-width:0.8;"/>
   </g>
   <g id="text_7">
    <!-- ADBE   68% -->
    <defs>
     <path d="M 53.421875 13.28125 
L 24.03125 13.28125 
L 19.390625 0 
L 0.484375 0 
L 27.484375 72.90625 
L 49.90625 72.90625 
L 76.90625 0 
L 58.015625 0 
z
M 28.71875 26.8125 
L 48.6875 26.8125 
L 38.71875 55.8125 
z
" id="DejaVuSans-Bold-65"/>
     <path d="M 27.984375 58.6875 
L 27.984375 14.203125 
L 34.71875 14.203125 
Q 46.234375 14.203125 52.3125 19.921875 
Q 58.40625 25.640625 58.40625 36.53125 
Q 58.40625 47.359375 52.34375 53.015625 
Q 46.296875 58.6875 34.71875 58.6875 
z
M 9.1875 72.90625 
L 29 72.90625 
Q 45.609375 72.90625 53.734375 70.53125 
Q 61.859375 68.171875 67.671875 62.5 
Q 72.796875 57.5625 75.28125 51.109375 
Q 77.78125 44.671875 77.78125 36.53125 
Q 77.78125 28.265625 75.28125 21.796875 
Q 72.796875 15.328125 67.671875 10.40625 
Q 61.8125 4.734375 53.609375 2.359375 
Q 45.40625 0 29 0 
L 9.1875 0 
z
" id="DejaVuSans-Bold-68"/>
     <path d="M 38.375 44.671875 
Q 42.828125 44.671875 45.109375 46.625 
Q 47.40625 48.578125 47.40625 52.390625 
Q 47.40625 56.15625 45.109375 58.125 
Q 42.828125 60.109375 38.375 60.109375 
L 27.984375 60.109375 
L 27.984375 44.671875 
z
M 39.015625 12.796875 
Q 44.671875 12.796875 47.53125 15.1875 
Q 50.390625 17.578125 50.390625 22.40625 
Q 50.390625 27.15625 47.5625 29.515625 
Q 44.734375 31.890625 39.015625 31.890625 
L 27.984375 31.890625 
L 27.984375 12.796875 
z
M 56.5 39.015625 
Q 62.546875 37.25 65.859375 32.515625 
Q 69.1875 27.78125 69.1875 20.90625 
Q 69.1875 10.359375 62.0625 5.171875 
Q 54.9375 0 40.375 0 
L 9.1875 0 
L 9.1875 72.90625 
L 37.40625 72.90625 
Q 52.59375 72.90625 59.40625 68.3125 
Q 66.21875 63.71875 66.21875 53.609375 
Q 66.21875 48.296875 63.71875 44.5625 
Q 61.234375 40.828125 56.5 39.015625 
z
" id="DejaVuSans-Bold-66"/>
     <path d="M 9.1875 72.90625 
L 59.90625 72.90625 
L 59.90625 58.6875 
L 27.984375 58.6875 
L 27.984375 45.125 
L 58.015625 45.125 
L 58.015625 30.90625 
L 27.984375 30.90625 
L 27.984375 14.203125 
L 60.984375 14.203125 
L 60.984375 0 
L 9.1875 0 
z
" id="DejaVuSans-Bold-69"/>
     <path id="DejaVuSans-Bold-32"/>
     <path d="M 36.1875 35.984375 
Q 31.25 35.984375 28.78125 32.78125 
Q 26.3125 29.59375 26.3125 23.1875 
Q 26.3125 16.796875 28.78125 13.59375 
Q 31.25 10.40625 36.1875 10.40625 
Q 41.15625 10.40625 43.625 13.59375 
Q 46.09375 16.796875 46.09375 23.1875 
Q 46.09375 29.59375 43.625 32.78125 
Q 41.15625 35.984375 36.1875 35.984375 
z
M 59.421875 71 
L 59.421875 57.515625 
Q 54.78125 59.71875 50.671875 60.765625 
Q 46.578125 61.8125 42.671875 61.8125 
Q 34.28125 61.8125 29.59375 57.140625 
Q 24.90625 52.484375 24.125 43.3125 
Q 27.34375 45.703125 31.09375 46.890625 
Q 34.859375 48.09375 39.3125 48.09375 
Q 50.484375 48.09375 57.34375 41.546875 
Q 64.203125 35.015625 64.203125 24.421875 
Q 64.203125 12.703125 56.53125 5.640625 
Q 48.875 -1.421875 35.984375 -1.421875 
Q 21.78125 -1.421875 13.984375 8.171875 
Q 6.203125 17.78125 6.203125 35.40625 
Q 6.203125 53.46875 15.3125 63.796875 
Q 24.421875 74.125 40.28125 74.125 
Q 45.3125 74.125 50.046875 73.34375 
Q 54.78125 72.5625 59.421875 71 
z
" id="DejaVuSans-Bold-54"/>
     <path d="M 34.8125 32.625 
Q 29.546875 32.625 26.703125 29.734375 
Q 23.875 26.859375 23.875 21.484375 
Q 23.875 16.109375 26.703125 13.25 
Q 29.546875 10.40625 34.8125 10.40625 
Q 40.046875 10.40625 42.828125 13.25 
Q 45.609375 16.109375 45.609375 21.484375 
Q 45.609375 26.90625 42.828125 29.765625 
Q 40.046875 32.625 34.8125 32.625 
z
M 21.09375 38.8125 
Q 14.453125 40.828125 11.078125 44.96875 
Q 7.71875 49.125 7.71875 55.328125 
Q 7.71875 64.546875 14.59375 69.375 
Q 21.484375 74.21875 34.8125 74.21875 
Q 48.046875 74.21875 54.921875 69.40625 
Q 61.8125 64.59375 61.8125 55.328125 
Q 61.8125 49.125 58.421875 44.96875 
Q 55.03125 40.828125 48.390625 38.8125 
Q 55.8125 36.765625 59.59375 32.15625 
Q 63.375 27.546875 63.375 20.515625 
Q 63.375 9.671875 56.171875 4.125 
Q 48.96875 -1.421875 34.8125 -1.421875 
Q 20.609375 -1.421875 13.359375 4.125 
Q 6.109375 9.671875 6.109375 20.515625 
Q 6.109375 27.546875 9.890625 32.15625 
Q 13.671875 36.765625 21.09375 38.8125 
z
M 25.484375 53.421875 
Q 25.484375 49.078125 27.90625 46.734375 
Q 30.328125 44.390625 34.8125 44.390625 
Q 39.203125 44.390625 41.59375 46.734375 
Q 44 49.078125 44 53.421875 
Q 44 57.765625 41.59375 60.078125 
Q 39.203125 62.40625 34.8125 62.40625 
Q 30.328125 62.40625 27.90625 60.0625 
Q 25.484375 57.71875 25.484375 53.421875 
z
" id="DejaVuSans-Bold-56"/>
     <path d="M 77.484375 30.078125 
Q 74.03125 30.078125 72.125 27.078125 
Q 70.21875 24.078125 70.21875 18.5 
Q 70.21875 12.890625 72.09375 9.890625 
Q 73.96875 6.890625 77.484375 6.890625 
Q 81 6.890625 82.859375 9.890625 
Q 84.71875 12.890625 84.71875 18.5 
Q 84.71875 24.078125 82.828125 27.078125 
Q 80.953125 30.078125 77.484375 30.078125 
z
M 77.484375 38.28125 
Q 86.578125 38.28125 91.796875 33 
Q 97.015625 27.734375 97.015625 18.5 
Q 97.015625 9.28125 91.796875 3.921875 
Q 86.578125 -1.421875 77.484375 -1.421875 
Q 68.40625 -1.421875 63.15625 3.921875 
Q 57.90625 9.28125 57.90625 18.5 
Q 57.90625 27.6875 63.15625 32.984375 
Q 68.40625 38.28125 77.484375 38.28125 
z
M 32.71875 -1.421875 
L 21.921875 -1.421875 
L 67.484375 74.21875 
L 78.328125 74.21875 
z
M 22.703125 74.21875 
Q 31.78125 74.21875 36.984375 68.921875 
Q 42.1875 63.625 42.1875 54.390625 
Q 42.1875 45.171875 36.984375 39.84375 
Q 31.78125 34.515625 22.703125 34.515625 
Q 13.625 34.515625 8.421875 39.84375 
Q 3.21875 45.171875 3.21875 54.390625 
Q 3.21875 63.625 8.421875 68.921875 
Q 13.625 74.21875 22.703125 74.21875 
z
M 22.703125 66.015625 
Q 19.1875 66.015625 17.28125 62.984375 
Q 15.375 59.96875 15.375 54.390625 
Q 15.375 48.78125 17.28125 45.71875 
Q 19.1875 42.671875 22.703125 42.671875 
Q 26.21875 42.671875 28.09375 45.71875 
Q 29.984375 48.78125 29.984375 54.390625 
Q 29.984375 59.96875 28.078125 62.984375 
Q 26.171875 66.015625 22.703125 66.015625 
z
" id="DejaVuSans-Bold-37"/>
    </defs>
    <g transform="translate(75.175 72.1625)scale(0.8 -0.8)">
     <use xlink:href="#DejaVuSans-Bold-65"/>
     <use x="77.392578" xlink:href="#DejaVuSans-Bold-68"/>
     <use x="160.400391" xlink:href="#DejaVuSans-Bold-66"/>
     <use x="236.621094" xlink:href="#DejaVuSans-Bold-69"/>
     <use x="304.931641" xlink:href="#DejaVuSans-Bold-32"/>
     <use x="339.746094" xlink:href="#DejaVuSans-Bold-32"/>
     <use x="374.560547" xlink:href="#DejaVuSans-Bold-32"/>
     <use x="409.375" xlink:href="#DejaVuSans-Bold-54"/>
     <use x="478.955078" xlink:href="#DejaVuSans-Bold-56"/>
     <use x="548.535156" xlink:href="#DejaVuSans-Bold-37"/>
    </g>
   </g>
  </g>
 </g>
 <defs>
  <clipPath id="pb49b837af1">
   <rect height="296.4" width="765.148864" x="75.175" y="88.8"/>
  </clipPath>
 </defs>
</svg>
