<?xml version="1.0" encoding="utf-8" standalone="no"?>
<!DOCTYPE svg PUBLIC "-//W3C//DTD SVG 1.1//EN"
  "http://www.w3.org/Graphics/SVG/1.1/DTD/svg11.dtd">
<!-- Created with matplotlib (https://matplotlib.org/) -->
<svg height="432pt" version="1.1" viewBox="0 0 864 432" width="864pt" xmlns="http://www.w3.org/2000/svg" xmlns:xlink="http://www.w3.org/1999/xlink">
 <defs>
  <style type="text/css">
*{stroke-linecap:butt;stroke-linejoin:round;}
  </style>
 </defs>
 <g id="figure_1">
  <g id="patch_1">
   <path d="M 0 432 
L 864 432 
L 864 0 
L 0 0 
z
" style="fill:#ffffff;"/>
  </g>
  <g id="axes_1">
   <g id="patch_2">
    <path d="M 36.925 404.2 
L 853.2 404.2 
L 853.2 28.8 
L 36.925 28.8 
z
" style="fill:#ffffff;"/>
   </g>
   <g id="PolyCollection_1">
    <defs>
     <path d="M 74.028409 -44.863636 
L 74.028409 -217.608481 
L 76.067058 -217.499738 
L 82.183004 -225.830983 
L 84.221653 -227.419903 
L 86.260302 -225.426194 
L 88.298951 -244.203212 
L 90.3376 -250.96969 
L 96.453546 -250.498454 
L 98.492195 -253.875654 
L 100.530844 -249.314323 
L 102.569493 -248.963905 
L 104.608142 -244.752973 
L 110.724088 -239.092083 
L 112.762737 -244.765068 
L 114.801386 -247.725403 
L 118.878684 -246.831254 
L 124.99463 -243.611138 
L 127.033279 -242.288046 
L 129.071928 -253.25338 
L 131.110577 -252.757972 
L 133.149226 -251.199271 
L 139.265172 -246.704387 
L 141.303821 -244.928182 
L 143.34247 -242.227627 
L 145.381119 -245.792113 
L 147.419768 -244.620078 
L 153.535714 -249.169333 
L 155.574363 -251.761127 
L 157.613012 -250.226597 
L 159.651661 -243.454053 
L 161.69031 -249.392866 
L 167.806256 -243.484271 
L 169.844905 -249.199533 
L 171.883554 -251.108652 
L 173.922203 -248.172469 
L 175.960852 -249.338494 
L 184.115447 -247.308538 
L 186.154096 -243.224472 
L 188.192745 -248.812868 
L 190.231394 -248.178517 
L 198.385989 -248.414144 
L 200.424638 -251.126776 
L 202.463287 -243.290938 
L 204.501936 -245.894827 
L 210.617882 -251.471146 
L 212.656531 -249.489532 
L 214.69518 -252.045078 
L 216.733829 -253.017771 
L 218.772478 -252.921104 
L 226.927073 -252.921104 
L 228.965722 -251.066357 
L 231.004371 -251.803422 
L 233.043019 -260.170914 
L 239.158966 -265.366615 
L 241.197615 -263.155421 
L 243.236264 -261.252349 
L 245.274913 -265.8741 
L 247.313561 -268.828388 
L 253.429508 -264.424141 
L 255.468157 -268.604855 
L 257.506806 -276.809233 
L 259.545455 -281.829725 
L 261.584103 -274.036165 
L 267.70005 -271.559161 
L 269.738699 -276.748815 
L 271.777348 -273.450138 
L 273.815997 -271.909561 
L 275.854645 -268.997549 
L 281.970592 -271.4202 
L 284.009241 -273.172234 
L 286.04789 -271.988103 
L 288.086538 -265.475358 
L 290.125187 -260.454866 
L 298.279783 -254.322739 
L 300.318432 -255.543117 
L 302.35708 -254.516053 
L 304.395729 -238.518151 
L 310.511676 -239.593538 
L 312.550325 -240.578307 
L 314.588974 -240.233937 
L 316.627622 -246.34794 
L 318.666271 -252.715695 
L 324.782218 -254.516053 
L 326.820867 -253.174837 
L 328.859515 -253.803159 
L 330.898164 -249.290152 
L 332.936813 -243.810499 
L 339.05276 -240.771621 
L 341.091409 -246.245226 
L 343.130057 -246.414388 
L 345.168706 -258.30409 
L 347.207355 -261.234226 
L 353.323302 -264.097895 
L 355.361951 -270.948963 
L 357.400599 -263.39103 
L 359.439248 -267.795295 
L 361.477897 -271.396029 
L 367.593844 -270.302517 
L 369.632493 -270.453555 
L 371.671141 -273.93347 
L 373.70979 -275.588837 
L 375.748439 -277.685241 
L 381.864386 -274.489278 
L 383.903034 -277.552327 
L 385.941683 -275.661332 
L 387.980332 -274.803448 
L 396.134928 -272.175388 
L 398.173576 -269.070044 
L 400.212225 -268.332998 
L 402.250874 -273.715966 
L 404.289523 -274.066384 
L 410.40547 -273.184328 
L 412.444118 -272.960777 
L 414.482767 -274.507402 
L 416.521416 -274.598039 
L 418.560065 -273.033291 
L 424.676011 -272.833911 
L 426.71466 -268.151742 
L 428.753309 -264.206637 
L 430.791958 -269.257348 
L 432.830607 -272.966825 
L 438.946553 -270.906668 
L 440.985202 -267.589886 
L 443.023851 -253.446713 
L 445.0625 -247.755604 
L 447.101149 -255.349784 
L 453.217095 -252.727772 
L 455.255744 -251.875917 
L 457.294393 -252.7036 
L 459.333042 -251.229471 
L 461.371691 -247.526042 
L 467.487637 -253.700464 
L 469.526286 -253.362123 
L 471.564935 -260.321952 
L 473.603584 -262.617718 
L 475.642233 -269.154634 
L 481.758179 -269.637948 
L 483.796828 -268.653197 
L 485.835477 -265.837852 
L 487.874126 -281.727012 
L 489.912775 -295.821861 
L 498.06737 -296.921402 
L 500.106019 -297.271819 
L 502.144668 -302.685006 
L 504.183317 -308.496934 
L 510.299263 -307.173842 
L 512.337912 -306.394501 
L 514.376561 -297.592019 
L 516.41521 -310.103977 
L 518.453859 -319.148116 
L 524.569805 -331.611751 
L 526.608454 -334.245839 
L 528.647103 -334.572086 
L 530.685752 -341.447326 
L 532.724401 -344.027043 
L 540.878996 -338.396353 
L 542.917645 -333.333584 
L 544.956294 -333.393985 
L 546.994943 -337.70763 
L 553.110889 -334.56001 
L 555.149538 -340.456509 
L 557.188187 -336.32412 
L 559.226836 -337.13368 
L 561.265485 -340.287348 
L 567.381431 -338.003658 
L 571.458729 -339.242179 
L 573.497378 -335.635397 
L 575.536026 -338.039906 
L 581.651973 -344.733908 
L 583.690622 -349.802724 
L 585.729271 -351.385596 
L 587.76792 -357.378799 
L 589.806568 -355.898622 
L 595.922515 -360.230373 
L 597.961164 -366.410824 
L 599.999813 -363.353822 
L 602.038462 -357.137124 
L 604.07711 -359.161014 
L 610.193057 -361.354085 
L 612.231706 -362.248253 
L 614.270355 -355.729442 
L 616.309003 -355.379024 
L 618.347652 -364.380886 
L 624.463599 -374.832688 
L 626.502248 -376.602846 
L 628.540897 -365.244817 
L 630.579545 -361.293684 
L 632.618194 -363.178632 
L 638.734141 -364.900447 
L 640.77279 -359.384547 
L 642.811439 -355.264271 
L 644.850087 -356.502772 
L 646.888736 -352.044136 
L 653.004683 -360.381411 
L 655.043332 -358.236682 
L 657.081981 -355.693194 
L 659.120629 -353.989503 
L 661.159278 -351.850804 
L 667.275225 -359.306004 
L 669.313874 -358.707901 
L 671.352522 -365.49254 
L 673.391171 -354.448645 
L 675.42982 -362.079073 
L 681.545767 -365.015237 
L 683.584416 -371.449458 
L 685.623064 -374.343328 
L 687.661713 -382.789381 
L 689.700362 -385.127442 
L 697.854958 -386.136364 
L 699.893606 -384.360159 
L 701.932255 -383.466027 
L 703.970904 -383.40559 
L 710.086851 -385.906783 
L 712.1255 -372.440275 
L 714.164148 -379.297372 
L 716.202797 -378.451546 
L 718.241446 -364.392981 
L 724.357393 -366.525614 
L 726.396041 -372.126104 
L 728.43469 -368.555589 
L 730.473339 -355.324671 
L 732.511988 -354.732615 
L 738.627935 -353.947208 
L 740.666583 -350.745197 
L 742.705232 -348.50985 
L 744.743881 -349.760447 
L 746.78253 -352.920144 
L 752.898477 -359.704765 
L 754.937125 -351.186234 
L 756.975774 -358.067503 
L 759.014423 -356.871296 
L 761.053072 -363.057794 
L 767.169018 -364.634619 
L 769.207667 -366.706852 
L 771.246316 -377.092206 
L 773.284965 -382.964572 
L 775.323614 -376.397455 
L 781.43956 -377.593662 
L 783.478209 -383.242494 
L 785.516858 -381.90126 
L 787.555507 -380.614416 
L 789.594156 -371.685086 
L 795.710102 -371.352774 
L 797.748751 -370.83926 
L 799.7874 -359.710812 
L 801.826049 -355.566346 
L 803.864698 -351.844756 
L 809.980644 -363.214879 
L 812.019293 -366.308129 
L 814.057942 -373.823767 
L 816.096591 -382.408763 
L 816.096591 -44.863636 
L 816.096591 -44.863636 
L 814.057942 -44.863636 
L 812.019293 -44.863636 
L 809.980644 -44.863636 
L 803.864698 -44.863636 
L 801.826049 -44.863636 
L 799.7874 -44.863636 
L 797.748751 -44.863636 
L 795.710102 -44.863636 
L 789.594156 -44.863636 
L 787.555507 -44.863636 
L 785.516858 -44.863636 
L 783.478209 -44.863636 
L 781.43956 -44.863636 
L 775.323614 -44.863636 
L 773.284965 -44.863636 
L 771.246316 -44.863636 
L 769.207667 -44.863636 
L 767.169018 -44.863636 
L 761.053072 -44.863636 
L 759.014423 -44.863636 
L 756.975774 -44.863636 
L 754.937125 -44.863636 
L 752.898477 -44.863636 
L 746.78253 -44.863636 
L 744.743881 -44.863636 
L 742.705232 -44.863636 
L 740.666583 -44.863636 
L 738.627935 -44.863636 
L 732.511988 -44.863636 
L 730.473339 -44.863636 
L 728.43469 -44.863636 
L 726.396041 -44.863636 
L 724.357393 -44.863636 
L 718.241446 -44.863636 
L 716.202797 -44.863636 
L 714.164148 -44.863636 
L 712.1255 -44.863636 
L 710.086851 -44.863636 
L 703.970904 -44.863636 
L 701.932255 -44.863636 
L 699.893606 -44.863636 
L 697.854958 -44.863636 
L 689.700362 -44.863636 
L 687.661713 -44.863636 
L 685.623064 -44.863636 
L 683.584416 -44.863636 
L 681.545767 -44.863636 
L 675.42982 -44.863636 
L 673.391171 -44.863636 
L 671.352522 -44.863636 
L 669.313874 -44.863636 
L 667.275225 -44.863636 
L 661.159278 -44.863636 
L 659.120629 -44.863636 
L 657.081981 -44.863636 
L 655.043332 -44.863636 
L 653.004683 -44.863636 
L 646.888736 -44.863636 
L 644.850087 -44.863636 
L 642.811439 -44.863636 
L 640.77279 -44.863636 
L 638.734141 -44.863636 
L 632.618194 -44.863636 
L 630.579545 -44.863636 
L 628.540897 -44.863636 
L 626.502248 -44.863636 
L 624.463599 -44.863636 
L 618.347652 -44.863636 
L 616.309003 -44.863636 
L 614.270355 -44.863636 
L 612.231706 -44.863636 
L 610.193057 -44.863636 
L 604.07711 -44.863636 
L 602.038462 -44.863636 
L 599.999813 -44.863636 
L 597.961164 -44.863636 
L 595.922515 -44.863636 
L 589.806568 -44.863636 
L 587.76792 -44.863636 
L 585.729271 -44.863636 
L 583.690622 -44.863636 
L 581.651973 -44.863636 
L 575.536026 -44.863636 
L 573.497378 -44.863636 
L 571.458729 -44.863636 
L 567.381431 -44.863636 
L 561.265485 -44.863636 
L 559.226836 -44.863636 
L 557.188187 -44.863636 
L 555.149538 -44.863636 
L 553.110889 -44.863636 
L 546.994943 -44.863636 
L 544.956294 -44.863636 
L 542.917645 -44.863636 
L 540.878996 -44.863636 
L 532.724401 -44.863636 
L 530.685752 -44.863636 
L 528.647103 -44.863636 
L 526.608454 -44.863636 
L 524.569805 -44.863636 
L 518.453859 -44.863636 
L 516.41521 -44.863636 
L 514.376561 -44.863636 
L 512.337912 -44.863636 
L 510.299263 -44.863636 
L 504.183317 -44.863636 
L 502.144668 -44.863636 
L 500.106019 -44.863636 
L 498.06737 -44.863636 
L 489.912775 -44.863636 
L 487.874126 -44.863636 
L 485.835477 -44.863636 
L 483.796828 -44.863636 
L 481.758179 -44.863636 
L 475.642233 -44.863636 
L 473.603584 -44.863636 
L 471.564935 -44.863636 
L 469.526286 -44.863636 
L 467.487637 -44.863636 
L 461.371691 -44.863636 
L 459.333042 -44.863636 
L 457.294393 -44.863636 
L 455.255744 -44.863636 
L 453.217095 -44.863636 
L 447.101149 -44.863636 
L 445.0625 -44.863636 
L 443.023851 -44.863636 
L 440.985202 -44.863636 
L 438.946553 -44.863636 
L 432.830607 -44.863636 
L 430.791958 -44.863636 
L 428.753309 -44.863636 
L 426.71466 -44.863636 
L 424.676011 -44.863636 
L 418.560065 -44.863636 
L 416.521416 -44.863636 
L 414.482767 -44.863636 
L 412.444118 -44.863636 
L 410.40547 -44.863636 
L 404.289523 -44.863636 
L 402.250874 -44.863636 
L 400.212225 -44.863636 
L 398.173576 -44.863636 
L 396.134928 -44.863636 
L 387.980332 -44.863636 
L 385.941683 -44.863636 
L 383.903034 -44.863636 
L 381.864386 -44.863636 
L 375.748439 -44.863636 
L 373.70979 -44.863636 
L 371.671141 -44.863636 
L 369.632493 -44.863636 
L 367.593844 -44.863636 
L 361.477897 -44.863636 
L 359.439248 -44.863636 
L 357.400599 -44.863636 
L 355.361951 -44.863636 
L 353.323302 -44.863636 
L 347.207355 -44.863636 
L 345.168706 -44.863636 
L 343.130057 -44.863636 
L 341.091409 -44.863636 
L 339.05276 -44.863636 
L 332.936813 -44.863636 
L 330.898164 -44.863636 
L 328.859515 -44.863636 
L 326.820867 -44.863636 
L 324.782218 -44.863636 
L 318.666271 -44.863636 
L 316.627622 -44.863636 
L 314.588974 -44.863636 
L 312.550325 -44.863636 
L 310.511676 -44.863636 
L 304.395729 -44.863636 
L 302.35708 -44.863636 
L 300.318432 -44.863636 
L 298.279783 -44.863636 
L 290.125187 -44.863636 
L 288.086538 -44.863636 
L 286.04789 -44.863636 
L 284.009241 -44.863636 
L 281.970592 -44.863636 
L 275.854645 -44.863636 
L 273.815997 -44.863636 
L 271.777348 -44.863636 
L 269.738699 -44.863636 
L 267.70005 -44.863636 
L 261.584103 -44.863636 
L 259.545455 -44.863636 
L 257.506806 -44.863636 
L 255.468157 -44.863636 
L 253.429508 -44.863636 
L 247.313561 -44.863636 
L 245.274913 -44.863636 
L 243.236264 -44.863636 
L 241.197615 -44.863636 
L 239.158966 -44.863636 
L 233.043019 -44.863636 
L 231.004371 -44.863636 
L 228.965722 -44.863636 
L 226.927073 -44.863636 
L 218.772478 -44.863636 
L 216.733829 -44.863636 
L 214.69518 -44.863636 
L 212.656531 -44.863636 
L 210.617882 -44.863636 
L 204.501936 -44.863636 
L 202.463287 -44.863636 
L 200.424638 -44.863636 
L 198.385989 -44.863636 
L 190.231394 -44.863636 
L 188.192745 -44.863636 
L 186.154096 -44.863636 
L 184.115447 -44.863636 
L 175.960852 -44.863636 
L 173.922203 -44.863636 
L 171.883554 -44.863636 
L 169.844905 -44.863636 
L 167.806256 -44.863636 
L 161.69031 -44.863636 
L 159.651661 -44.863636 
L 157.613012 -44.863636 
L 155.574363 -44.863636 
L 153.535714 -44.863636 
L 147.419768 -44.863636 
L 145.381119 -44.863636 
L 143.34247 -44.863636 
L 141.303821 -44.863636 
L 139.265172 -44.863636 
L 133.149226 -44.863636 
L 131.110577 -44.863636 
L 129.071928 -44.863636 
L 127.033279 -44.863636 
L 124.99463 -44.863636 
L 118.878684 -44.863636 
L 114.801386 -44.863636 
L 112.762737 -44.863636 
L 110.724088 -44.863636 
L 104.608142 -44.863636 
L 102.569493 -44.863636 
L 100.530844 -44.863636 
L 98.492195 -44.863636 
L 96.453546 -44.863636 
L 90.3376 -44.863636 
L 88.298951 -44.863636 
L 86.260302 -44.863636 
L 84.221653 -44.863636 
L 82.183004 -44.863636 
L 76.067058 -44.863636 
L 74.028409 -44.863636 
z
" id="m8ed0b84215" style="stroke:#f5f6f8;"/>
    </defs>
    <g clip-path="url(#p0d9e9d608e)">
     <use style="fill:#f5f6f8;stroke:#f5f6f8;" x="0" xlink:href="#m8ed0b84215" y="432"/>
    </g>
   </g>
   <g id="matplotlib.axis_1">
    <g id="xtick_1">
     <g id="line2d_1">
      <defs>
       <path d="M 0 0 
L 0 3.5 
" id="mdebc735f06" style="stroke:#000000;stroke-width:0.8;"/>
      </defs>
      <g>
       <use style="stroke:#000000;stroke-width:0.8;" x="69.951111" xlink:href="#mdebc735f06" y="404.2"/>
      </g>
     </g>
     <g id="text_1">
      <!-- 2022-11 -->
      <defs>
       <path d="M 19.1875 8.296875 
L 53.609375 8.296875 
L 53.609375 0 
L 7.328125 0 
L 7.328125 8.296875 
Q 12.9375 14.109375 22.625 23.890625 
Q 32.328125 33.6875 34.8125 36.53125 
Q 39.546875 41.84375 41.421875 45.53125 
Q 43.3125 49.21875 43.3125 52.78125 
Q 43.3125 58.59375 39.234375 62.25 
Q 35.15625 65.921875 28.609375 65.921875 
Q 23.96875 65.921875 18.8125 64.3125 
Q 13.671875 62.703125 7.8125 59.421875 
L 7.8125 69.390625 
Q 13.765625 71.78125 18.9375 73 
Q 24.125 74.21875 28.421875 74.21875 
Q 39.75 74.21875 46.484375 68.546875 
Q 53.21875 62.890625 53.21875 53.421875 
Q 53.21875 48.921875 51.53125 44.890625 
Q 49.859375 40.875 45.40625 35.40625 
Q 44.1875 33.984375 37.640625 27.21875 
Q 31.109375 20.453125 19.1875 8.296875 
z
" id="DejaVuSans-50"/>
       <path d="M 31.78125 66.40625 
Q 24.171875 66.40625 20.328125 58.90625 
Q 16.5 51.421875 16.5 36.375 
Q 16.5 21.390625 20.328125 13.890625 
Q 24.171875 6.390625 31.78125 6.390625 
Q 39.453125 6.390625 43.28125 13.890625 
Q 47.125 21.390625 47.125 36.375 
Q 47.125 51.421875 43.28125 58.90625 
Q 39.453125 66.40625 31.78125 66.40625 
z
M 31.78125 74.21875 
Q 44.046875 74.21875 50.515625 64.515625 
Q 56.984375 54.828125 56.984375 36.375 
Q 56.984375 17.96875 50.515625 8.265625 
Q 44.046875 -1.421875 31.78125 -1.421875 
Q 19.53125 -1.421875 13.0625 8.265625 
Q 6.59375 17.96875 6.59375 36.375 
Q 6.59375 54.828125 13.0625 64.515625 
Q 19.53125 74.21875 31.78125 74.21875 
z
" id="DejaVuSans-48"/>
       <path d="M 4.890625 31.390625 
L 31.203125 31.390625 
L 31.203125 23.390625 
L 4.890625 23.390625 
z
" id="DejaVuSans-45"/>
       <path d="M 12.40625 8.296875 
L 28.515625 8.296875 
L 28.515625 63.921875 
L 10.984375 60.40625 
L 10.984375 69.390625 
L 28.421875 72.90625 
L 38.28125 72.90625 
L 38.28125 8.296875 
L 54.390625 8.296875 
L 54.390625 0 
L 12.40625 0 
z
" id="DejaVuSans-49"/>
      </defs>
      <g transform="translate(49.059705 418.798437)scale(0.1 -0.1)">
       <use xlink:href="#DejaVuSans-50"/>
       <use x="63.623047" xlink:href="#DejaVuSans-48"/>
       <use x="127.246094" xlink:href="#DejaVuSans-50"/>
       <use x="190.869141" xlink:href="#DejaVuSans-50"/>
       <use x="254.492188" xlink:href="#DejaVuSans-45"/>
       <use x="290.576172" xlink:href="#DejaVuSans-49"/>
       <use x="354.199219" xlink:href="#DejaVuSans-49"/>
      </g>
     </g>
    </g>
    <g id="xtick_2">
     <g id="line2d_2">
      <g>
       <use style="stroke:#000000;stroke-width:0.8;" x="194.308691" xlink:href="#mdebc735f06" y="404.2"/>
      </g>
     </g>
     <g id="text_2">
      <!-- 2023-01 -->
      <defs>
       <path d="M 40.578125 39.3125 
Q 47.65625 37.796875 51.625 33 
Q 55.609375 28.21875 55.609375 21.1875 
Q 55.609375 10.40625 48.1875 4.484375 
Q 40.765625 -1.421875 27.09375 -1.421875 
Q 22.515625 -1.421875 17.65625 -0.515625 
Q 12.796875 0.390625 7.625 2.203125 
L 7.625 11.71875 
Q 11.71875 9.328125 16.59375 8.109375 
Q 21.484375 6.890625 26.8125 6.890625 
Q 36.078125 6.890625 40.9375 10.546875 
Q 45.796875 14.203125 45.796875 21.1875 
Q 45.796875 27.640625 41.28125 31.265625 
Q 36.765625 34.90625 28.71875 34.90625 
L 20.21875 34.90625 
L 20.21875 43.015625 
L 29.109375 43.015625 
Q 36.375 43.015625 40.234375 45.921875 
Q 44.09375 48.828125 44.09375 54.296875 
Q 44.09375 59.90625 40.109375 62.90625 
Q 36.140625 65.921875 28.71875 65.921875 
Q 24.65625 65.921875 20.015625 65.03125 
Q 15.375 64.15625 9.8125 62.3125 
L 9.8125 71.09375 
Q 15.4375 72.65625 20.34375 73.4375 
Q 25.25 74.21875 29.59375 74.21875 
Q 40.828125 74.21875 47.359375 69.109375 
Q 53.90625 64.015625 53.90625 55.328125 
Q 53.90625 49.265625 50.4375 45.09375 
Q 46.96875 40.921875 40.578125 39.3125 
z
" id="DejaVuSans-51"/>
      </defs>
      <g transform="translate(173.417285 418.798437)scale(0.1 -0.1)">
       <use xlink:href="#DejaVuSans-50"/>
       <use x="63.623047" xlink:href="#DejaVuSans-48"/>
       <use x="127.246094" xlink:href="#DejaVuSans-50"/>
       <use x="190.869141" xlink:href="#DejaVuSans-51"/>
       <use x="254.492188" xlink:href="#DejaVuSans-45"/>
       <use x="290.576172" xlink:href="#DejaVuSans-48"/>
       <use x="354.199219" xlink:href="#DejaVuSans-49"/>
      </g>
     </g>
    </g>
    <g id="xtick_3">
     <g id="line2d_3">
      <g>
       <use style="stroke:#000000;stroke-width:0.8;" x="314.588974" xlink:href="#mdebc735f06" y="404.2"/>
      </g>
     </g>
     <g id="text_3">
      <!-- 2023-03 -->
      <g transform="translate(293.697567 418.798437)scale(0.1 -0.1)">
       <use xlink:href="#DejaVuSans-50"/>
       <use x="63.623047" xlink:href="#DejaVuSans-48"/>
       <use x="127.246094" xlink:href="#DejaVuSans-50"/>
       <use x="190.869141" xlink:href="#DejaVuSans-51"/>
       <use x="254.492188" xlink:href="#DejaVuSans-45"/>
       <use x="290.576172" xlink:href="#DejaVuSans-48"/>
       <use x="354.199219" xlink:href="#DejaVuSans-51"/>
      </g>
     </g>
    </g>
    <g id="xtick_4">
     <g id="line2d_4">
      <g>
       <use style="stroke:#000000;stroke-width:0.8;" x="438.946553" xlink:href="#mdebc735f06" y="404.2"/>
      </g>
     </g>
     <g id="text_4">
      <!-- 2023-05 -->
      <defs>
       <path d="M 10.796875 72.90625 
L 49.515625 72.90625 
L 49.515625 64.59375 
L 19.828125 64.59375 
L 19.828125 46.734375 
Q 21.96875 47.46875 24.109375 47.828125 
Q 26.265625 48.1875 28.421875 48.1875 
Q 40.625 48.1875 47.75 41.5 
Q 54.890625 34.8125 54.890625 23.390625 
Q 54.890625 11.625 47.5625 5.09375 
Q 40.234375 -1.421875 26.90625 -1.421875 
Q 22.3125 -1.421875 17.546875 -0.640625 
Q 12.796875 0.140625 7.71875 1.703125 
L 7.71875 11.625 
Q 12.109375 9.234375 16.796875 8.0625 
Q 21.484375 6.890625 26.703125 6.890625 
Q 35.15625 6.890625 40.078125 11.328125 
Q 45.015625 15.765625 45.015625 23.390625 
Q 45.015625 31 40.078125 35.4375 
Q 35.15625 39.890625 26.703125 39.890625 
Q 22.75 39.890625 18.8125 39.015625 
Q 14.890625 38.140625 10.796875 36.28125 
z
" id="DejaVuSans-53"/>
      </defs>
      <g transform="translate(418.055147 418.798437)scale(0.1 -0.1)">
       <use xlink:href="#DejaVuSans-50"/>
       <use x="63.623047" xlink:href="#DejaVuSans-48"/>
       <use x="127.246094" xlink:href="#DejaVuSans-50"/>
       <use x="190.869141" xlink:href="#DejaVuSans-51"/>
       <use x="254.492188" xlink:href="#DejaVuSans-45"/>
       <use x="290.576172" xlink:href="#DejaVuSans-48"/>
       <use x="354.199219" xlink:href="#DejaVuSans-53"/>
      </g>
     </g>
    </g>
    <g id="xtick_5">
     <g id="line2d_5">
      <g>
       <use style="stroke:#000000;stroke-width:0.8;" x="563.304133" xlink:href="#mdebc735f06" y="404.2"/>
      </g>
     </g>
     <g id="text_5">
      <!-- 2023-07 -->
      <defs>
       <path d="M 8.203125 72.90625 
L 55.078125 72.90625 
L 55.078125 68.703125 
L 28.609375 0 
L 18.3125 0 
L 43.21875 64.59375 
L 8.203125 64.59375 
z
" id="DejaVuSans-55"/>
      </defs>
      <g transform="translate(542.412727 418.798437)scale(0.1 -0.1)">
       <use xlink:href="#DejaVuSans-50"/>
       <use x="63.623047" xlink:href="#DejaVuSans-48"/>
       <use x="127.246094" xlink:href="#DejaVuSans-50"/>
       <use x="190.869141" xlink:href="#DejaVuSans-51"/>
       <use x="254.492188" xlink:href="#DejaVuSans-45"/>
       <use x="290.576172" xlink:href="#DejaVuSans-48"/>
       <use x="354.199219" xlink:href="#DejaVuSans-55"/>
      </g>
     </g>
    </g>
    <g id="xtick_6">
     <g id="line2d_6">
      <g>
       <use style="stroke:#000000;stroke-width:0.8;" x="689.700362" xlink:href="#mdebc735f06" y="404.2"/>
      </g>
     </g>
     <g id="text_6">
      <!-- 2023-09 -->
      <defs>
       <path d="M 10.984375 1.515625 
L 10.984375 10.5 
Q 14.703125 8.734375 18.5 7.8125 
Q 22.3125 6.890625 25.984375 6.890625 
Q 35.75 6.890625 40.890625 13.453125 
Q 46.046875 20.015625 46.78125 33.40625 
Q 43.953125 29.203125 39.59375 26.953125 
Q 35.25 24.703125 29.984375 24.703125 
Q 19.046875 24.703125 12.671875 31.3125 
Q 6.296875 37.9375 6.296875 49.421875 
Q 6.296875 60.640625 12.9375 67.421875 
Q 19.578125 74.21875 30.609375 74.21875 
Q 43.265625 74.21875 49.921875 64.515625 
Q 56.59375 54.828125 56.59375 36.375 
Q 56.59375 19.140625 48.40625 8.859375 
Q 40.234375 -1.421875 26.421875 -1.421875 
Q 22.703125 -1.421875 18.890625 -0.6875 
Q 15.09375 0.046875 10.984375 1.515625 
z
M 30.609375 32.421875 
Q 37.25 32.421875 41.125 36.953125 
Q 45.015625 41.5 45.015625 49.421875 
Q 45.015625 57.28125 41.125 61.84375 
Q 37.25 66.40625 30.609375 66.40625 
Q 23.96875 66.40625 20.09375 61.84375 
Q 16.21875 57.28125 16.21875 49.421875 
Q 16.21875 41.5 20.09375 36.953125 
Q 23.96875 32.421875 30.609375 32.421875 
z
" id="DejaVuSans-57"/>
      </defs>
      <g transform="translate(668.808956 418.798437)scale(0.1 -0.1)">
       <use xlink:href="#DejaVuSans-50"/>
       <use x="63.623047" xlink:href="#DejaVuSans-48"/>
       <use x="127.246094" xlink:href="#DejaVuSans-50"/>
       <use x="190.869141" xlink:href="#DejaVuSans-51"/>
       <use x="254.492188" xlink:href="#DejaVuSans-45"/>
       <use x="290.576172" xlink:href="#DejaVuSans-48"/>
       <use x="354.199219" xlink:href="#DejaVuSans-57"/>
      </g>
     </g>
    </g>
    <g id="xtick_7">
     <g id="line2d_7">
      <g>
       <use style="stroke:#000000;stroke-width:0.8;" x="814.057942" xlink:href="#mdebc735f06" y="404.2"/>
      </g>
     </g>
     <g id="text_7">
      <!-- 2023-11 -->
      <g transform="translate(793.166536 418.798437)scale(0.1 -0.1)">
       <use xlink:href="#DejaVuSans-50"/>
       <use x="63.623047" xlink:href="#DejaVuSans-48"/>
       <use x="127.246094" xlink:href="#DejaVuSans-50"/>
       <use x="190.869141" xlink:href="#DejaVuSans-51"/>
       <use x="254.492188" xlink:href="#DejaVuSans-45"/>
       <use x="290.576172" xlink:href="#DejaVuSans-49"/>
       <use x="354.199219" xlink:href="#DejaVuSans-49"/>
      </g>
     </g>
    </g>
   </g>
   <g id="matplotlib.axis_2">
    <g id="ytick_1">
     <g id="line2d_8">
      <defs>
       <path d="M 0 0 
L -3.5 0 
" id="m0634008d39" style="stroke:#000000;stroke-width:0.8;"/>
      </defs>
      <g>
       <use style="stroke:#000000;stroke-width:0.8;" x="36.925" xlink:href="#m0634008d39" y="387.136364"/>
      </g>
     </g>
     <g id="text_8">
      <!-- 0 -->
      <g transform="translate(23.5625 390.935582)scale(0.1 -0.1)">
       <use xlink:href="#DejaVuSans-48"/>
      </g>
     </g>
    </g>
    <g id="ytick_2">
     <g id="line2d_9">
      <g>
       <use style="stroke:#000000;stroke-width:0.8;" x="36.925" xlink:href="#m0634008d39" y="326.72128"/>
      </g>
     </g>
     <g id="text_9">
      <!-- 100 -->
      <g transform="translate(10.8375 330.520499)scale(0.1 -0.1)">
       <use xlink:href="#DejaVuSans-49"/>
       <use x="63.623047" xlink:href="#DejaVuSans-48"/>
       <use x="127.246094" xlink:href="#DejaVuSans-48"/>
      </g>
     </g>
    </g>
    <g id="ytick_3">
     <g id="line2d_10">
      <g>
       <use style="stroke:#000000;stroke-width:0.8;" x="36.925" xlink:href="#m0634008d39" y="266.306196"/>
      </g>
     </g>
     <g id="text_10">
      <!-- 200 -->
      <g transform="translate(10.8375 270.105415)scale(0.1 -0.1)">
       <use xlink:href="#DejaVuSans-50"/>
       <use x="63.623047" xlink:href="#DejaVuSans-48"/>
       <use x="127.246094" xlink:href="#DejaVuSans-48"/>
      </g>
     </g>
    </g>
    <g id="ytick_4">
     <g id="line2d_11">
      <g>
       <use style="stroke:#000000;stroke-width:0.8;" x="36.925" xlink:href="#m0634008d39" y="205.891113"/>
      </g>
     </g>
     <g id="text_11">
      <!-- 300 -->
      <g transform="translate(10.8375 209.690332)scale(0.1 -0.1)">
       <use xlink:href="#DejaVuSans-51"/>
       <use x="63.623047" xlink:href="#DejaVuSans-48"/>
       <use x="127.246094" xlink:href="#DejaVuSans-48"/>
      </g>
     </g>
    </g>
    <g id="ytick_5">
     <g id="line2d_12">
      <g>
       <use style="stroke:#000000;stroke-width:0.8;" x="36.925" xlink:href="#m0634008d39" y="145.476029"/>
      </g>
     </g>
     <g id="text_12">
      <!-- 400 -->
      <defs>
       <path d="M 37.796875 64.3125 
L 12.890625 25.390625 
L 37.796875 25.390625 
z
M 35.203125 72.90625 
L 47.609375 72.90625 
L 47.609375 25.390625 
L 58.015625 25.390625 
L 58.015625 17.1875 
L 47.609375 17.1875 
L 47.609375 0 
L 37.796875 0 
L 37.796875 17.1875 
L 4.890625 17.1875 
L 4.890625 26.703125 
z
" id="DejaVuSans-52"/>
      </defs>
      <g transform="translate(10.8375 149.275248)scale(0.1 -0.1)">
       <use xlink:href="#DejaVuSans-52"/>
       <use x="63.623047" xlink:href="#DejaVuSans-48"/>
       <use x="127.246094" xlink:href="#DejaVuSans-48"/>
      </g>
     </g>
    </g>
    <g id="ytick_6">
     <g id="line2d_13">
      <g>
       <use style="stroke:#000000;stroke-width:0.8;" x="36.925" xlink:href="#m0634008d39" y="85.060946"/>
      </g>
     </g>
     <g id="text_13">
      <!-- 500 -->
      <g transform="translate(10.8375 88.860164)scale(0.1 -0.1)">
       <use xlink:href="#DejaVuSans-53"/>
       <use x="63.623047" xlink:href="#DejaVuSans-48"/>
       <use x="127.246094" xlink:href="#DejaVuSans-48"/>
      </g>
     </g>
    </g>
   </g>
   <g id="patch_3">
    <path d="M 36.925 404.2 
L 36.925 28.8 
" style="fill:none;stroke:#000000;stroke-linecap:square;stroke-linejoin:miter;stroke-width:0.8;"/>
   </g>
   <g id="patch_4">
    <path d="M 853.2 404.2 
L 853.2 28.8 
" style="fill:none;stroke:#000000;stroke-linecap:square;stroke-linejoin:miter;stroke-width:0.8;"/>
   </g>
   <g id="patch_5">
    <path d="M 36.925 404.2 
L 853.2 404.2 
" style="fill:none;stroke:#000000;stroke-linecap:square;stroke-linejoin:miter;stroke-width:0.8;"/>
   </g>
   <g id="patch_6">
    <path d="M 36.925 28.8 
L 853.2 28.8 
" style="fill:none;stroke:#000000;stroke-linecap:square;stroke-linejoin:miter;stroke-width:0.8;"/>
   </g>
   <g id="text_14">
    <!-- ADBE - 95.40% -->
    <defs>
     <path d="M 53.421875 13.28125 
L 24.03125 13.28125 
L 19.390625 0 
L 0.484375 0 
L 27.484375 72.90625 
L 49.90625 72.90625 
L 76.90625 0 
L 58.015625 0 
z
M 28.71875 26.8125 
L 48.6875 26.8125 
L 38.71875 55.8125 
z
" id="DejaVuSans-Bold-65"/>
     <path d="M 27.984375 58.6875 
L 27.984375 14.203125 
L 34.71875 14.203125 
Q 46.234375 14.203125 52.3125 19.921875 
Q 58.40625 25.640625 58.40625 36.53125 
Q 58.40625 47.359375 52.34375 53.015625 
Q 46.296875 58.6875 34.71875 58.6875 
z
M 9.1875 72.90625 
L 29 72.90625 
Q 45.609375 72.90625 53.734375 70.53125 
Q 61.859375 68.171875 67.671875 62.5 
Q 72.796875 57.5625 75.28125 51.109375 
Q 77.78125 44.671875 77.78125 36.53125 
Q 77.78125 28.265625 75.28125 21.796875 
Q 72.796875 15.328125 67.671875 10.40625 
Q 61.8125 4.734375 53.609375 2.359375 
Q 45.40625 0 29 0 
L 9.1875 0 
z
" id="DejaVuSans-Bold-68"/>
     <path d="M 38.375 44.671875 
Q 42.828125 44.671875 45.109375 46.625 
Q 47.40625 48.578125 47.40625 52.390625 
Q 47.40625 56.15625 45.109375 58.125 
Q 42.828125 60.109375 38.375 60.109375 
L 27.984375 60.109375 
L 27.984375 44.671875 
z
M 39.015625 12.796875 
Q 44.671875 12.796875 47.53125 15.1875 
Q 50.390625 17.578125 50.390625 22.40625 
Q 50.390625 27.15625 47.5625 29.515625 
Q 44.734375 31.890625 39.015625 31.890625 
L 27.984375 31.890625 
L 27.984375 12.796875 
z
M 56.5 39.015625 
Q 62.546875 37.25 65.859375 32.515625 
Q 69.1875 27.78125 69.1875 20.90625 
Q 69.1875 10.359375 62.0625 5.171875 
Q 54.9375 0 40.375 0 
L 9.1875 0 
L 9.1875 72.90625 
L 37.40625 72.90625 
Q 52.59375 72.90625 59.40625 68.3125 
Q 66.21875 63.71875 66.21875 53.609375 
Q 66.21875 48.296875 63.71875 44.5625 
Q 61.234375 40.828125 56.5 39.015625 
z
" id="DejaVuSans-Bold-66"/>
     <path d="M 9.1875 72.90625 
L 59.90625 72.90625 
L 59.90625 58.6875 
L 27.984375 58.6875 
L 27.984375 45.125 
L 58.015625 45.125 
L 58.015625 30.90625 
L 27.984375 30.90625 
L 27.984375 14.203125 
L 60.984375 14.203125 
L 60.984375 0 
L 9.1875 0 
z
" id="DejaVuSans-Bold-69"/>
     <path id="DejaVuSans-Bold-32"/>
     <path d="M 5.421875 35.890625 
L 36.078125 35.890625 
L 36.078125 21.6875 
L 5.421875 21.6875 
z
" id="DejaVuSans-Bold-45"/>
     <path d="M 10.015625 1.609375 
L 10.015625 15.09375 
Q 14.5 12.984375 18.59375 11.9375 
Q 22.703125 10.890625 26.703125 10.890625 
Q 35.109375 10.890625 39.796875 15.546875 
Q 44.484375 20.21875 45.3125 29.390625 
Q 42 26.953125 38.234375 25.734375 
Q 34.46875 24.515625 30.078125 24.515625 
Q 18.890625 24.515625 12.03125 31.03125 
Q 5.171875 37.546875 5.171875 48.1875 
Q 5.171875 59.96875 12.8125 67.046875 
Q 20.453125 74.125 33.296875 74.125 
Q 47.5625 74.125 55.375 64.5 
Q 63.1875 54.890625 63.1875 37.3125 
Q 63.1875 19.234375 54.046875 8.90625 
Q 44.921875 -1.421875 29 -1.421875 
Q 23.875 -1.421875 19.1875 -0.65625 
Q 14.5 0.09375 10.015625 1.609375 
z
M 33.203125 36.71875 
Q 38.140625 36.71875 40.625 39.90625 
Q 43.109375 43.109375 43.109375 49.515625 
Q 43.109375 55.859375 40.625 59.078125 
Q 38.140625 62.3125 33.203125 62.3125 
Q 28.265625 62.3125 25.78125 59.078125 
Q 23.296875 55.859375 23.296875 49.515625 
Q 23.296875 43.109375 25.78125 39.90625 
Q 28.265625 36.71875 33.203125 36.71875 
z
" id="DejaVuSans-Bold-57"/>
     <path d="M 10.59375 72.90625 
L 57.328125 72.90625 
L 57.328125 59.078125 
L 25.59375 59.078125 
L 25.59375 47.796875 
Q 27.734375 48.390625 29.90625 48.703125 
Q 32.078125 49.03125 34.421875 49.03125 
Q 47.75 49.03125 55.171875 42.359375 
Q 62.59375 35.6875 62.59375 23.78125 
Q 62.59375 11.96875 54.515625 5.265625 
Q 46.4375 -1.421875 32.078125 -1.421875 
Q 25.875 -1.421875 19.796875 -0.21875 
Q 13.71875 0.984375 7.71875 3.421875 
L 7.71875 18.21875 
Q 13.671875 14.796875 19.015625 13.078125 
Q 24.359375 11.375 29.109375 11.375 
Q 35.9375 11.375 39.859375 14.71875 
Q 43.796875 18.0625 43.796875 23.78125 
Q 43.796875 29.546875 39.859375 32.859375 
Q 35.9375 36.1875 29.109375 36.1875 
Q 25.046875 36.1875 20.453125 35.125 
Q 15.875 34.078125 10.59375 31.890625 
z
" id="DejaVuSans-Bold-53"/>
     <path d="M 10.203125 18.890625 
L 27.78125 18.890625 
L 27.78125 0 
L 10.203125 0 
z
" id="DejaVuSans-Bold-46"/>
     <path d="M 36.8125 57.421875 
L 16.21875 26.90625 
L 36.8125 26.90625 
z
M 33.6875 72.90625 
L 54.59375 72.90625 
L 54.59375 26.90625 
L 64.984375 26.90625 
L 64.984375 13.28125 
L 54.59375 13.28125 
L 54.59375 0 
L 36.8125 0 
L 36.8125 13.28125 
L 4.5 13.28125 
L 4.5 29.390625 
z
" id="DejaVuSans-Bold-52"/>
     <path d="M 46 36.53125 
Q 46 50.203125 43.4375 55.78125 
Q 40.875 61.375 34.8125 61.375 
Q 28.765625 61.375 26.171875 55.78125 
Q 23.578125 50.203125 23.578125 36.53125 
Q 23.578125 22.703125 26.171875 17.03125 
Q 28.765625 11.375 34.8125 11.375 
Q 40.828125 11.375 43.40625 17.03125 
Q 46 22.703125 46 36.53125 
z
M 64.796875 36.375 
Q 64.796875 18.265625 56.984375 8.421875 
Q 49.171875 -1.421875 34.8125 -1.421875 
Q 20.40625 -1.421875 12.59375 8.421875 
Q 4.78125 18.265625 4.78125 36.375 
Q 4.78125 54.546875 12.59375 64.375 
Q 20.40625 74.21875 34.8125 74.21875 
Q 49.171875 74.21875 56.984375 64.375 
Q 64.796875 54.546875 64.796875 36.375 
z
" id="DejaVuSans-Bold-48"/>
     <path d="M 77.484375 30.078125 
Q 74.03125 30.078125 72.125 27.078125 
Q 70.21875 24.078125 70.21875 18.5 
Q 70.21875 12.890625 72.09375 9.890625 
Q 73.96875 6.890625 77.484375 6.890625 
Q 81 6.890625 82.859375 9.890625 
Q 84.71875 12.890625 84.71875 18.5 
Q 84.71875 24.078125 82.828125 27.078125 
Q 80.953125 30.078125 77.484375 30.078125 
z
M 77.484375 38.28125 
Q 86.578125 38.28125 91.796875 33 
Q 97.015625 27.734375 97.015625 18.5 
Q 97.015625 9.28125 91.796875 3.921875 
Q 86.578125 -1.421875 77.484375 -1.421875 
Q 68.40625 -1.421875 63.15625 3.921875 
Q 57.90625 9.28125 57.90625 18.5 
Q 57.90625 27.6875 63.15625 32.984375 
Q 68.40625 38.28125 77.484375 38.28125 
z
M 32.71875 -1.421875 
L 21.921875 -1.421875 
L 67.484375 74.21875 
L 78.328125 74.21875 
z
M 22.703125 74.21875 
Q 31.78125 74.21875 36.984375 68.921875 
Q 42.1875 63.625 42.1875 54.390625 
Q 42.1875 45.171875 36.984375 39.84375 
Q 31.78125 34.515625 22.703125 34.515625 
Q 13.625 34.515625 8.421875 39.84375 
Q 3.21875 45.171875 3.21875 54.390625 
Q 3.21875 63.625 8.421875 68.921875 
Q 13.625 74.21875 22.703125 74.21875 
z
M 22.703125 66.015625 
Q 19.1875 66.015625 17.28125 62.984375 
Q 15.375 59.96875 15.375 54.390625 
Q 15.375 48.78125 17.28125 45.71875 
Q 19.1875 42.671875 22.703125 42.671875 
Q 26.21875 42.671875 28.09375 45.71875 
Q 29.984375 48.78125 29.984375 54.390625 
Q 29.984375 59.96875 28.078125 62.984375 
Q 26.171875 66.015625 22.703125 66.015625 
z
" id="DejaVuSans-Bold-37"/>
    </defs>
    <g transform="translate(36.925 22.8)scale(0.16 -0.16)">
     <use xlink:href="#DejaVuSans-Bold-65"/>
     <use x="77.392578" xlink:href="#DejaVuSans-Bold-68"/>
     <use x="160.400391" xlink:href="#DejaVuSans-Bold-66"/>
     <use x="236.621094" xlink:href="#DejaVuSans-Bold-69"/>
     <use x="304.931641" xlink:href="#DejaVuSans-Bold-32"/>
     <use x="339.746094" xlink:href="#DejaVuSans-Bold-45"/>
     <use x="381.25" xlink:href="#DejaVuSans-Bold-32"/>
     <use x="416.064453" xlink:href="#DejaVuSans-Bold-57"/>
     <use x="485.644531" xlink:href="#DejaVuSans-Bold-53"/>
     <use x="555.224609" xlink:href="#DejaVuSans-Bold-46"/>
     <use x="593.212891" xlink:href="#DejaVuSans-Bold-52"/>
     <use x="662.792969" xlink:href="#DejaVuSans-Bold-48"/>
     <use x="732.373047" xlink:href="#DejaVuSans-Bold-37"/>
    </g>
   </g>
  </g>
 </g>
 <defs>
  <clipPath id="p0d9e9d608e">
   <rect height="375.4" width="816.275" x="36.925" y="28.8"/>
  </clipPath>
 </defs>
</svg>
