<?xml version="1.0" encoding="utf-8" standalone="no"?>
<!DOCTYPE svg PUBLIC "-//W3C//DTD SVG 1.1//EN"
  "http://www.w3.org/Graphics/SVG/1.1/DTD/svg11.dtd">
<svg xmlns:xlink="http://www.w3.org/1999/xlink" width="720pt" height="720pt" viewBox="0 0 720 720" xmlns="http://www.w3.org/2000/svg" version="1.1">
 <metadata>
  <rdf:RDF xmlns:dc="http://purl.org/dc/elements/1.1/" xmlns:cc="http://creativecommons.org/ns#" xmlns:rdf="http://www.w3.org/1999/02/22-rdf-syntax-ns#">
   <cc:Work>
    <dc:type rdf:resource="http://purl.org/dc/dcmitype/StillImage"/>
    <dc:date>2023-10-17T23:38:25.146538</dc:date>
    <dc:format>image/svg+xml</dc:format>
    <dc:creator>
     <cc:Agent>
      <dc:title>Matplotlib v3.7.2, https://matplotlib.org/</dc:title>
     </cc:Agent>
    </dc:creator>
   </cc:Work>
  </rdf:RDF>
 </metadata>
 <defs>
  <style type="text/css">*{stroke-linejoin: round; stroke-linecap: butt}</style>
 </defs>
 <g id="figure_1">
  <g id="patch_1">
   <path d="M 0 720 
L 720 720 
L 720 0 
L 0 0 
z
" style="fill: #ffffff"/>
  </g>
  <g id="axes_1">
   <g id="patch_2">
    <path d="M 90 640.8 
L 648 640.8 
L 648 86.4 
L 90 86.4 
z
" style="fill: #ffffff"/>
   </g>
   <g id="matplotlib.axis_1">
    <g id="xtick_1">
     <g id="line2d_1">
      <defs>
       <path id="mff28a7852a" d="M 0 0 
L 0 3.5 
" style="stroke: #000000; stroke-width: 0.8"/>
      </defs>
      <g>
       <use xlink:href="#mff28a7852a" x="264.47952" y="640.8" style="stroke: #000000; stroke-width: 0.8"/>
      </g>
     </g>
     <g id="text_1">
      <!-- Feb-2023 -->
      <g transform="translate(189.66202 672.115) scale(0.32 -0.32)">
       <defs>
        <path id="DejaVuSans-46" d="M 628 4666 
L 3309 4666 
L 3309 4134 
L 1259 4134 
L 1259 2759 
L 3109 2759 
L 3109 2228 
L 1259 2228 
L 1259 0 
L 628 0 
L 628 4666 
z
" transform="scale(0.015625)"/>
        <path id="DejaVuSans-65" d="M 3597 1894 
L 3597 1613 
L 953 1613 
Q 991 1019 1311 708 
Q 1631 397 2203 397 
Q 2534 397 2845 478 
Q 3156 559 3463 722 
L 3463 178 
Q 3153 47 2828 -22 
Q 2503 -91 2169 -91 
Q 1331 -91 842 396 
Q 353 884 353 1716 
Q 353 2575 817 3079 
Q 1281 3584 2069 3584 
Q 2775 3584 3186 3129 
Q 3597 2675 3597 1894 
z
M 3022 2063 
Q 3016 2534 2758 2815 
Q 2500 3097 2075 3097 
Q 1594 3097 1305 2825 
Q 1016 2553 972 2059 
L 3022 2063 
z
" transform="scale(0.015625)"/>
        <path id="DejaVuSans-62" d="M 3116 1747 
Q 3116 2381 2855 2742 
Q 2594 3103 2138 3103 
Q 1681 3103 1420 2742 
Q 1159 2381 1159 1747 
Q 1159 1113 1420 752 
Q 1681 391 2138 391 
Q 2594 391 2855 752 
Q 3116 1113 3116 1747 
z
M 1159 2969 
Q 1341 3281 1617 3432 
Q 1894 3584 2278 3584 
Q 2916 3584 3314 3078 
Q 3713 2572 3713 1747 
Q 3713 922 3314 415 
Q 2916 -91 2278 -91 
Q 1894 -91 1617 61 
Q 1341 213 1159 525 
L 1159 0 
L 581 0 
L 581 4863 
L 1159 4863 
L 1159 2969 
z
" transform="scale(0.015625)"/>
        <path id="DejaVuSans-2d" d="M 313 2009 
L 1997 2009 
L 1997 1497 
L 313 1497 
L 313 2009 
z
" transform="scale(0.015625)"/>
        <path id="DejaVuSans-32" d="M 1228 531 
L 3431 531 
L 3431 0 
L 469 0 
L 469 531 
Q 828 903 1448 1529 
Q 2069 2156 2228 2338 
Q 2531 2678 2651 2914 
Q 2772 3150 2772 3378 
Q 2772 3750 2511 3984 
Q 2250 4219 1831 4219 
Q 1534 4219 1204 4116 
Q 875 4013 500 3803 
L 500 4441 
Q 881 4594 1212 4672 
Q 1544 4750 1819 4750 
Q 2544 4750 2975 4387 
Q 3406 4025 3406 3419 
Q 3406 3131 3298 2873 
Q 3191 2616 2906 2266 
Q 2828 2175 2409 1742 
Q 1991 1309 1228 531 
z
" transform="scale(0.015625)"/>
        <path id="DejaVuSans-30" d="M 2034 4250 
Q 1547 4250 1301 3770 
Q 1056 3291 1056 2328 
Q 1056 1369 1301 889 
Q 1547 409 2034 409 
Q 2525 409 2770 889 
Q 3016 1369 3016 2328 
Q 3016 3291 2770 3770 
Q 2525 4250 2034 4250 
z
M 2034 4750 
Q 2819 4750 3233 4129 
Q 3647 3509 3647 2328 
Q 3647 1150 3233 529 
Q 2819 -91 2034 -91 
Q 1250 -91 836 529 
Q 422 1150 422 2328 
Q 422 3509 836 4129 
Q 1250 4750 2034 4750 
z
" transform="scale(0.015625)"/>
        <path id="DejaVuSans-33" d="M 2597 2516 
Q 3050 2419 3304 2112 
Q 3559 1806 3559 1356 
Q 3559 666 3084 287 
Q 2609 -91 1734 -91 
Q 1441 -91 1130 -33 
Q 819 25 488 141 
L 488 750 
Q 750 597 1062 519 
Q 1375 441 1716 441 
Q 2309 441 2620 675 
Q 2931 909 2931 1356 
Q 2931 1769 2642 2001 
Q 2353 2234 1838 2234 
L 1294 2234 
L 1294 2753 
L 1863 2753 
Q 2328 2753 2575 2939 
Q 2822 3125 2822 3475 
Q 2822 3834 2567 4026 
Q 2313 4219 1838 4219 
Q 1578 4219 1281 4162 
Q 984 4106 628 3988 
L 628 4550 
Q 988 4650 1302 4700 
Q 1616 4750 1894 4750 
Q 2613 4750 3031 4423 
Q 3450 4097 3450 3541 
Q 3450 3153 3228 2886 
Q 3006 2619 2597 2516 
z
" transform="scale(0.015625)"/>
       </defs>
       <use xlink:href="#DejaVuSans-46"/>
       <use xlink:href="#DejaVuSans-65" x="52.019531"/>
       <use xlink:href="#DejaVuSans-62" x="113.542969"/>
       <use xlink:href="#DejaVuSans-2d" x="177.019531"/>
       <use xlink:href="#DejaVuSans-32" x="213.103516"/>
       <use xlink:href="#DejaVuSans-30" x="276.726562"/>
       <use xlink:href="#DejaVuSans-32" x="340.349609"/>
       <use xlink:href="#DejaVuSans-33" x="403.972656"/>
      </g>
     </g>
    </g>
    <g id="xtick_2">
     <g id="line2d_2">
      <g>
       <use xlink:href="#mff28a7852a" x="516.722278" y="640.8" style="stroke: #000000; stroke-width: 0.8"/>
      </g>
     </g>
     <g id="text_2">
      <!-- Aug-2023 -->
      <g transform="translate(438.987278 672.115) scale(0.32 -0.32)">
       <defs>
        <path id="DejaVuSans-41" d="M 2188 4044 
L 1331 1722 
L 3047 1722 
L 2188 4044 
z
M 1831 4666 
L 2547 4666 
L 4325 0 
L 3669 0 
L 3244 1197 
L 1141 1197 
L 716 0 
L 50 0 
L 1831 4666 
z
" transform="scale(0.015625)"/>
        <path id="DejaVuSans-75" d="M 544 1381 
L 544 3500 
L 1119 3500 
L 1119 1403 
Q 1119 906 1312 657 
Q 1506 409 1894 409 
Q 2359 409 2629 706 
Q 2900 1003 2900 1516 
L 2900 3500 
L 3475 3500 
L 3475 0 
L 2900 0 
L 2900 538 
Q 2691 219 2414 64 
Q 2138 -91 1772 -91 
Q 1169 -91 856 284 
Q 544 659 544 1381 
z
M 1991 3584 
L 1991 3584 
z
" transform="scale(0.015625)"/>
        <path id="DejaVuSans-67" d="M 2906 1791 
Q 2906 2416 2648 2759 
Q 2391 3103 1925 3103 
Q 1463 3103 1205 2759 
Q 947 2416 947 1791 
Q 947 1169 1205 825 
Q 1463 481 1925 481 
Q 2391 481 2648 825 
Q 2906 1169 2906 1791 
z
M 3481 434 
Q 3481 -459 3084 -895 
Q 2688 -1331 1869 -1331 
Q 1566 -1331 1297 -1286 
Q 1028 -1241 775 -1147 
L 775 -588 
Q 1028 -725 1275 -790 
Q 1522 -856 1778 -856 
Q 2344 -856 2625 -561 
Q 2906 -266 2906 331 
L 2906 616 
Q 2728 306 2450 153 
Q 2172 0 1784 0 
Q 1141 0 747 490 
Q 353 981 353 1791 
Q 353 2603 747 3093 
Q 1141 3584 1784 3584 
Q 2172 3584 2450 3431 
Q 2728 3278 2906 2969 
L 2906 3500 
L 3481 3500 
L 3481 434 
z
" transform="scale(0.015625)"/>
       </defs>
       <use xlink:href="#DejaVuSans-41"/>
       <use xlink:href="#DejaVuSans-75" x="68.408203"/>
       <use xlink:href="#DejaVuSans-67" x="131.787109"/>
       <use xlink:href="#DejaVuSans-2d" x="195.263672"/>
       <use xlink:href="#DejaVuSans-32" x="231.347656"/>
       <use xlink:href="#DejaVuSans-30" x="294.970703"/>
       <use xlink:href="#DejaVuSans-32" x="358.59375"/>
       <use xlink:href="#DejaVuSans-33" x="422.216797"/>
      </g>
     </g>
    </g>
   </g>
   <g id="matplotlib.axis_2">
    <g id="ytick_1">
     <g id="line2d_3">
      <defs>
       <path id="m20fc18ff38" d="M 0 0 
L -3.5 0 
" style="stroke: #000000; stroke-width: 0.8"/>
      </defs>
      <g>
       <use xlink:href="#m20fc18ff38" x="90" y="634.599936" style="stroke: #000000; stroke-width: 0.8"/>
      </g>
     </g>
     <g id="text_3">
      <!-- 180 -->
      <g transform="translate(21.92 646.757436) scale(0.32 -0.32)">
       <defs>
        <path id="DejaVuSans-31" d="M 794 531 
L 1825 531 
L 1825 4091 
L 703 3866 
L 703 4441 
L 1819 4666 
L 2450 4666 
L 2450 531 
L 3481 531 
L 3481 0 
L 794 0 
L 794 531 
z
" transform="scale(0.015625)"/>
        <path id="DejaVuSans-38" d="M 2034 2216 
Q 1584 2216 1326 1975 
Q 1069 1734 1069 1313 
Q 1069 891 1326 650 
Q 1584 409 2034 409 
Q 2484 409 2743 651 
Q 3003 894 3003 1313 
Q 3003 1734 2745 1975 
Q 2488 2216 2034 2216 
z
M 1403 2484 
Q 997 2584 770 2862 
Q 544 3141 544 3541 
Q 544 4100 942 4425 
Q 1341 4750 2034 4750 
Q 2731 4750 3128 4425 
Q 3525 4100 3525 3541 
Q 3525 3141 3298 2862 
Q 3072 2584 2669 2484 
Q 3125 2378 3379 2068 
Q 3634 1759 3634 1313 
Q 3634 634 3220 271 
Q 2806 -91 2034 -91 
Q 1263 -91 848 271 
Q 434 634 434 1313 
Q 434 1759 690 2068 
Q 947 2378 1403 2484 
z
M 1172 3481 
Q 1172 3119 1398 2916 
Q 1625 2713 2034 2713 
Q 2441 2713 2670 2916 
Q 2900 3119 2900 3481 
Q 2900 3844 2670 4047 
Q 2441 4250 2034 4250 
Q 1625 4250 1398 4047 
Q 1172 3844 1172 3481 
z
" transform="scale(0.015625)"/>
       </defs>
       <use xlink:href="#DejaVuSans-31"/>
       <use xlink:href="#DejaVuSans-38" x="63.623047"/>
       <use xlink:href="#DejaVuSans-30" x="127.246094"/>
      </g>
     </g>
    </g>
    <g id="ytick_2">
     <g id="line2d_4">
      <g>
       <use xlink:href="#m20fc18ff38" x="90" y="534.599954" style="stroke: #000000; stroke-width: 0.8"/>
      </g>
     </g>
     <g id="text_4">
      <!-- 190 -->
      <g transform="translate(21.92 546.757454) scale(0.32 -0.32)">
       <defs>
        <path id="DejaVuSans-39" d="M 703 97 
L 703 672 
Q 941 559 1184 500 
Q 1428 441 1663 441 
Q 2288 441 2617 861 
Q 2947 1281 2994 2138 
Q 2813 1869 2534 1725 
Q 2256 1581 1919 1581 
Q 1219 1581 811 2004 
Q 403 2428 403 3163 
Q 403 3881 828 4315 
Q 1253 4750 1959 4750 
Q 2769 4750 3195 4129 
Q 3622 3509 3622 2328 
Q 3622 1225 3098 567 
Q 2575 -91 1691 -91 
Q 1453 -91 1209 -44 
Q 966 3 703 97 
z
M 1959 2075 
Q 2384 2075 2632 2365 
Q 2881 2656 2881 3163 
Q 2881 3666 2632 3958 
Q 2384 4250 1959 4250 
Q 1534 4250 1286 3958 
Q 1038 3666 1038 3163 
Q 1038 2656 1286 2365 
Q 1534 2075 1959 2075 
z
" transform="scale(0.015625)"/>
       </defs>
       <use xlink:href="#DejaVuSans-31"/>
       <use xlink:href="#DejaVuSans-39" x="63.623047"/>
       <use xlink:href="#DejaVuSans-30" x="127.246094"/>
      </g>
     </g>
    </g>
    <g id="ytick_3">
     <g id="line2d_5">
      <g>
       <use xlink:href="#m20fc18ff38" x="90" y="434.599972" style="stroke: #000000; stroke-width: 0.8"/>
      </g>
     </g>
     <g id="text_5">
      <!-- 200 -->
      <g transform="translate(21.92 446.757472) scale(0.32 -0.32)">
       <use xlink:href="#DejaVuSans-32"/>
       <use xlink:href="#DejaVuSans-30" x="63.623047"/>
       <use xlink:href="#DejaVuSans-30" x="127.246094"/>
      </g>
     </g>
    </g>
    <g id="ytick_4">
     <g id="line2d_6">
      <g>
       <use xlink:href="#m20fc18ff38" x="90" y="334.59999" style="stroke: #000000; stroke-width: 0.8"/>
      </g>
     </g>
     <g id="text_6">
      <!-- 210 -->
      <g transform="translate(21.92 346.75749) scale(0.32 -0.32)">
       <use xlink:href="#DejaVuSans-32"/>
       <use xlink:href="#DejaVuSans-31" x="63.623047"/>
       <use xlink:href="#DejaVuSans-30" x="127.246094"/>
      </g>
     </g>
    </g>
    <g id="ytick_5">
     <g id="line2d_7">
      <g>
       <use xlink:href="#m20fc18ff38" x="90" y="234.600008" style="stroke: #000000; stroke-width: 0.8"/>
      </g>
     </g>
     <g id="text_7">
      <!-- 220 -->
      <g transform="translate(21.92 246.757508) scale(0.32 -0.32)">
       <use xlink:href="#DejaVuSans-32"/>
       <use xlink:href="#DejaVuSans-32" x="63.623047"/>
       <use xlink:href="#DejaVuSans-30" x="127.246094"/>
      </g>
     </g>
    </g>
    <g id="ytick_6">
     <g id="line2d_8">
      <g>
       <use xlink:href="#m20fc18ff38" x="90" y="134.600026" style="stroke: #000000; stroke-width: 0.8"/>
      </g>
     </g>
     <g id="text_8">
      <!-- 230 -->
      <g transform="translate(21.92 146.757526) scale(0.32 -0.32)">
       <use xlink:href="#DejaVuSans-32"/>
       <use xlink:href="#DejaVuSans-33" x="63.623047"/>
       <use xlink:href="#DejaVuSans-30" x="127.246094"/>
      </g>
     </g>
    </g>
   </g>
   <g id="line2d_9">
    <path d="M 115.363636 447.6 
L 116.757243 427.600004 
L 118.150849 464.399924 
L 119.544456 456.29995 
L 120.938062 420.69998 
L 125.118881 363.700021 
L 126.512488 277.399988 
L 127.906094 289.000023 
L 129.2997 333.100051 
L 130.693307 270.700008 
L 134.874126 291.599967 
L 136.267732 294.099967 
L 137.661339 440.799922 
L 139.054945 492.399949 
L 140.448551 497.699936 
L 144.629371 485.799914 
L 146.022977 444.500025 
L 147.416583 488.499956 
L 148.81019 204.999946 
L 150.203796 146.599994 
L 154.384615 201.500039 
L 155.778222 111.6 
L 157.171828 223.200016 
L 158.565435 287.800072 
L 159.959041 330.90004 
L 164.13986 369.599984 
L 165.533467 345.600049 
L 166.927073 463.899893 
L 169.714286 427.999936 
L 173.895105 481.099902 
L 175.288711 482.800036 
L 176.682318 415.100006 
L 178.075924 365.300058 
L 179.46953 423.499968 
L 183.65035 450.699975 
L 185.043956 488.499956 
L 186.437562 501.199996 
L 187.831169 468.299917 
L 189.224775 491.499986 
L 193.405594 435.799923 
L 194.799201 404.399935 
L 196.192807 433.999996 
L 197.586414 493.499955 
L 198.98002 510.600019 
L 203.160839 549.200018 
L 204.554446 555.399968 
L 205.948052 512.3 
L 207.341658 553.599889 
L 208.735265 552.999914 
L 214.30969 571.700014 
L 215.703297 615.6 
L 217.096903 553.399999 
L 218.490509 565.899997 
L 224.064935 583.100006 
L 225.458541 554.999883 
L 226.852148 613.899866 
L 228.245754 562.699924 
L 232.426573 509.899946 
L 233.82018 500.300033 
L 235.213786 435.300045 
L 236.607393 434.999905 
L 238.000999 428.70001 
L 243.575425 427.600004 
L 244.969031 454.399926 
L 246.362637 474.099934 
L 247.756244 375.600044 
L 251.937063 321.700059 
L 253.330669 370.300057 
L 254.724276 409.599976 
L 256.117882 349.99992 
L 257.511489 325.799943 
L 261.692308 343.400037 
L 263.085914 282.999963 
L 264.47952 212.699988 
L 265.873127 152.400011 
L 267.266733 197.999978 
L 271.447552 251.200042 
L 272.841159 198.100076 
L 274.234765 221.399937 
L 275.628372 188.100078 
L 277.021978 206.599983 
L 281.202797 194.600015 
L 282.596404 154.20009 
L 283.99001 141.800037 
L 285.383616 213.299963 
L 286.777223 234.800051 
L 292.351648 279.09997 
L 293.745255 267.600033 
L 295.138861 222.999974 
L 296.532468 509.29997 
L 300.713287 467.800039 
L 302.106893 447.699945 
L 303.5005 470.799916 
L 304.894106 423.299925 
L 306.287712 359.999918 
L 310.468531 351.299969 
L 311.862138 379.800025 
L 313.255744 389.500035 
L 314.649351 429.699918 
L 316.042957 494.399918 
L 321.617383 442.399958 
L 323.010989 476.700031 
L 324.404595 428.70001 
L 325.798202 443.499964 
L 329.979021 430.399991 
L 331.372627 363.100046 
L 332.766234 450.79992 
L 334.15984 423.19998 
L 335.553447 432.39996 
L 339.734266 447.09997 
L 341.127872 461.899924 
L 342.521479 442.999934 
L 343.915085 418.499969 
L 345.308691 352.99995 
L 349.48951 358.799967 
L 350.883117 401.399905 
L 352.276723 459.099937 
L 353.67033 461.200004 
L 359.244755 453.199975 
L 360.638362 456.79998 
L 362.031968 502.999923 
L 363.425574 471.49999 
L 364.819181 487.999926 
L 369 463.700003 
L 370.393606 460.099998 
L 371.787213 468.99999 
L 373.180819 488.199968 
L 374.574426 493.699998 
L 378.755245 476.200001 
L 380.148851 532.499887 
L 381.542458 535.600015 
L 382.936064 533.499948 
L 384.32967 486.70003 
L 388.51049 469.899953 
L 389.904096 510.399976 
L 391.297702 497.599991 
L 392.691309 504.299971 
L 394.084915 485.199938 
L 398.265734 514.699902 
L 399.659341 507.300001 
L 401.052947 471.399892 
L 402.446553 503.599898 
L 403.84016 490.099992 
L 408.020979 465.49993 
L 409.414585 502.09996 
L 410.808192 449.999902 
L 412.201798 386.200017 
L 413.595405 425.69998 
L 417.776224 399.699923 
L 419.16983 468.199972 
L 420.563437 467.099966 
L 421.957043 458.999992 
L 423.350649 445.600031 
L 428.925075 484.20003 
L 430.318681 440.699977 
L 431.712288 401.599947 
L 433.105894 392.199925 
L 437.286713 350.30006 
L 438.68032 354.500041 
L 440.073926 422.999937 
L 441.467532 432.999936 
L 442.861139 420.69998 
L 447.041958 353.599926 
L 448.435564 301.700063 
L 449.829171 299.099966 
L 451.222777 220.300084 
L 452.616384 299.599996 
L 458.190809 314.699939 
L 459.584416 354.800029 
L 460.978022 367.600015 
L 462.371628 414.599975 
L 466.552448 426.799985 
L 467.946054 366.099923 
L 469.33966 371.599953 
L 470.733267 372.800056 
L 472.126873 388.499974 
L 476.307692 397.600009 
L 479.094905 396.099918 
L 480.488511 424.099943 
L 481.882118 418.899901 
L 486.062937 361.299967 
L 487.456543 314.099963 
L 488.85015 281.399926 
L 490.243756 268.700039 
L 491.637363 293.200004 
L 495.818182 297.30004 
L 497.211788 262.199948 
L 498.605395 243.899933 
L 499.999001 324.89998 
L 501.392607 335.600051 
L 506.967033 327.000046 
L 508.360639 307.099995 
L 509.754246 339.999922 
L 511.147852 336.700057 
L 515.328671 314.699939 
L 516.722278 310.100025 
L 518.115884 366.799996 
L 519.509491 408.400025 
L 520.903097 418.899901 
L 525.083916 397.399966 
L 526.477522 402.30002 
L 527.871129 386.899938 
L 529.264735 354.000011 
L 530.658342 354.999919 
L 534.839161 319.800035 
L 536.232767 339.300001 
L 537.626374 398.10004 
L 539.01998 447.6 
L 540.413586 437.800045 
L 544.594406 414.399933 
L 545.988012 428.799955 
L 547.381618 390.999974 
L 548.775225 348.599926 
L 550.168831 275.400019 
L 554.34965 263.70004 
L 557.136863 219.09998 
L 558.53047 215.199987 
L 559.924076 234.399965 
L 565.498501 239.99994 
L 566.892108 212.600043 
L 568.285714 224.500065 
L 569.679321 242.699982 
L 573.86014 247.199951 
L 575.253746 316.599963 
L 576.647353 312.000049 
L 578.040959 267.90002 
L 579.434565 301.099935 
L 583.615385 299.399954 
L 585.008991 314.000018 
L 586.402597 357.300029 
L 587.796204 394.000004 
L 589.18981 394.200046 
L 593.370629 377.9 
L 594.764236 417.999938 
L 596.157842 411.799988 
L 597.551449 355.699992 
L 598.945055 365.499948 
L 603.125874 344.699933 
L 604.519481 401.79999 
L 605.913087 364.000009 
L 607.306693 394.999912 
L 608.7003 334.200057 
L 612.881119 329.000015 
L 614.274725 309.899982 
L 615.668332 302.600026 
L 617.061938 306.899952 
L 618.455544 339.899977 
L 622.636364 316.800005 
L 622.636364 316.800005 
" clip-path="url(#pbb884d1016)" style="fill: none; stroke: #000000; stroke-width: 2.5; stroke-linecap: square"/>
   </g>
   <g id="patch_3">
    <path d="M 90 640.8 
L 90 86.4 
" style="fill: none; stroke: #000000; stroke-width: 0.8; stroke-linejoin: miter; stroke-linecap: square"/>
   </g>
   <g id="patch_4">
    <path d="M 90 640.8 
L 648 640.8 
" style="fill: none; stroke: #000000; stroke-width: 0.8; stroke-linejoin: miter; stroke-linecap: square"/>
   </g>
   <g id="text_9">
    <!-- 7% -->
    <g transform="translate(565.525739 394.55438) scale(0.36 -0.36)">
     <defs>
      <path id="DejaVuSans-37" d="M 525 4666 
L 3525 4666 
L 3525 4397 
L 1831 0 
L 1172 0 
L 2766 4134 
L 525 4134 
L 525 4666 
z
" transform="scale(0.015625)"/>
      <path id="DejaVuSans-25" d="M 4653 2053 
Q 4381 2053 4226 1822 
Q 4072 1591 4072 1178 
Q 4072 772 4226 539 
Q 4381 306 4653 306 
Q 4919 306 5073 539 
Q 5228 772 5228 1178 
Q 5228 1588 5073 1820 
Q 4919 2053 4653 2053 
z
M 4653 2450 
Q 5147 2450 5437 2106 
Q 5728 1763 5728 1178 
Q 5728 594 5436 251 
Q 5144 -91 4653 -91 
Q 4153 -91 3862 251 
Q 3572 594 3572 1178 
Q 3572 1766 3864 2108 
Q 4156 2450 4653 2450 
z
M 1428 4353 
Q 1159 4353 1004 4120 
Q 850 3888 850 3481 
Q 850 3069 1003 2837 
Q 1156 2606 1428 2606 
Q 1700 2606 1854 2837 
Q 2009 3069 2009 3481 
Q 2009 3884 1853 4118 
Q 1697 4353 1428 4353 
z
M 4250 4750 
L 4750 4750 
L 1831 -91 
L 1331 -91 
L 4250 4750 
z
M 1428 4750 
Q 1922 4750 2215 4408 
Q 2509 4066 2509 3481 
Q 2509 2891 2217 2550 
Q 1925 2209 1428 2209 
Q 931 2209 642 2551 
Q 353 2894 353 3481 
Q 353 4063 643 4406 
Q 934 4750 1428 4750 
z
" transform="scale(0.015625)"/>
     </defs>
     <use xlink:href="#DejaVuSans-37"/>
     <use xlink:href="#DejaVuSans-25" x="63.623047"/>
    </g>
   </g>
  </g>
 </g>
 <defs>
  <clipPath id="pbb884d1016">
   <rect x="90" y="86.4" width="558" height="554.4"/>
  </clipPath>
 </defs>
</svg>
