<?xml version="1.0" encoding="utf-8" standalone="no"?>
<!DOCTYPE svg PUBLIC "-//W3C//DTD SVG 1.1//EN"
  "http://www.w3.org/Graphics/SVG/1.1/DTD/svg11.dtd">
<svg xmlns:xlink="http://www.w3.org/1999/xlink" width="720pt" height="720pt" viewBox="0 0 720 720" xmlns="http://www.w3.org/2000/svg" version="1.1">
 <metadata>
  <rdf:RDF xmlns:dc="http://purl.org/dc/elements/1.1/" xmlns:cc="http://creativecommons.org/ns#" xmlns:rdf="http://www.w3.org/1999/02/22-rdf-syntax-ns#">
   <cc:Work>
    <dc:type rdf:resource="http://purl.org/dc/dcmitype/StillImage"/>
    <dc:date>2023-10-17T23:38:26.070553</dc:date>
    <dc:format>image/svg+xml</dc:format>
    <dc:creator>
     <cc:Agent>
      <dc:title>Matplotlib v3.7.2, https://matplotlib.org/</dc:title>
     </cc:Agent>
    </dc:creator>
   </cc:Work>
  </rdf:RDF>
 </metadata>
 <defs>
  <style type="text/css">*{stroke-linejoin: round; stroke-linecap: butt}</style>
 </defs>
 <g id="figure_1">
  <g id="patch_1">
   <path d="M 0 720 
L 720 720 
L 720 0 
L 0 0 
z
" style="fill: #ffffff"/>
  </g>
  <g id="axes_1">
   <g id="patch_2">
    <path d="M 90 640.8 
L 648 640.8 
L 648 86.4 
L 90 86.4 
z
" style="fill: #ffffff"/>
   </g>
   <g id="matplotlib.axis_1">
    <g id="xtick_1">
     <g id="line2d_1">
      <defs>
       <path id="mbdbcb9a296" d="M 0 0 
L 0 3.5 
" style="stroke: #000000; stroke-width: 0.8"/>
      </defs>
      <g>
       <use xlink:href="#mbdbcb9a296" x="264.47952" y="640.8" style="stroke: #000000; stroke-width: 0.8"/>
      </g>
     </g>
     <g id="text_1">
      <!-- Feb-2023 -->
      <g transform="translate(189.66202 672.115) scale(0.32 -0.32)">
       <defs>
        <path id="DejaVuSans-46" d="M 628 4666 
L 3309 4666 
L 3309 4134 
L 1259 4134 
L 1259 2759 
L 3109 2759 
L 3109 2228 
L 1259 2228 
L 1259 0 
L 628 0 
L 628 4666 
z
" transform="scale(0.015625)"/>
        <path id="DejaVuSans-65" d="M 3597 1894 
L 3597 1613 
L 953 1613 
Q 991 1019 1311 708 
Q 1631 397 2203 397 
Q 2534 397 2845 478 
Q 3156 559 3463 722 
L 3463 178 
Q 3153 47 2828 -22 
Q 2503 -91 2169 -91 
Q 1331 -91 842 396 
Q 353 884 353 1716 
Q 353 2575 817 3079 
Q 1281 3584 2069 3584 
Q 2775 3584 3186 3129 
Q 3597 2675 3597 1894 
z
M 3022 2063 
Q 3016 2534 2758 2815 
Q 2500 3097 2075 3097 
Q 1594 3097 1305 2825 
Q 1016 2553 972 2059 
L 3022 2063 
z
" transform="scale(0.015625)"/>
        <path id="DejaVuSans-62" d="M 3116 1747 
Q 3116 2381 2855 2742 
Q 2594 3103 2138 3103 
Q 1681 3103 1420 2742 
Q 1159 2381 1159 1747 
Q 1159 1113 1420 752 
Q 1681 391 2138 391 
Q 2594 391 2855 752 
Q 3116 1113 3116 1747 
z
M 1159 2969 
Q 1341 3281 1617 3432 
Q 1894 3584 2278 3584 
Q 2916 3584 3314 3078 
Q 3713 2572 3713 1747 
Q 3713 922 3314 415 
Q 2916 -91 2278 -91 
Q 1894 -91 1617 61 
Q 1341 213 1159 525 
L 1159 0 
L 581 0 
L 581 4863 
L 1159 4863 
L 1159 2969 
z
" transform="scale(0.015625)"/>
        <path id="DejaVuSans-2d" d="M 313 2009 
L 1997 2009 
L 1997 1497 
L 313 1497 
L 313 2009 
z
" transform="scale(0.015625)"/>
        <path id="DejaVuSans-32" d="M 1228 531 
L 3431 531 
L 3431 0 
L 469 0 
L 469 531 
Q 828 903 1448 1529 
Q 2069 2156 2228 2338 
Q 2531 2678 2651 2914 
Q 2772 3150 2772 3378 
Q 2772 3750 2511 3984 
Q 2250 4219 1831 4219 
Q 1534 4219 1204 4116 
Q 875 4013 500 3803 
L 500 4441 
Q 881 4594 1212 4672 
Q 1544 4750 1819 4750 
Q 2544 4750 2975 4387 
Q 3406 4025 3406 3419 
Q 3406 3131 3298 2873 
Q 3191 2616 2906 2266 
Q 2828 2175 2409 1742 
Q 1991 1309 1228 531 
z
" transform="scale(0.015625)"/>
        <path id="DejaVuSans-30" d="M 2034 4250 
Q 1547 4250 1301 3770 
Q 1056 3291 1056 2328 
Q 1056 1369 1301 889 
Q 1547 409 2034 409 
Q 2525 409 2770 889 
Q 3016 1369 3016 2328 
Q 3016 3291 2770 3770 
Q 2525 4250 2034 4250 
z
M 2034 4750 
Q 2819 4750 3233 4129 
Q 3647 3509 3647 2328 
Q 3647 1150 3233 529 
Q 2819 -91 2034 -91 
Q 1250 -91 836 529 
Q 422 1150 422 2328 
Q 422 3509 836 4129 
Q 1250 4750 2034 4750 
z
" transform="scale(0.015625)"/>
        <path id="DejaVuSans-33" d="M 2597 2516 
Q 3050 2419 3304 2112 
Q 3559 1806 3559 1356 
Q 3559 666 3084 287 
Q 2609 -91 1734 -91 
Q 1441 -91 1130 -33 
Q 819 25 488 141 
L 488 750 
Q 750 597 1062 519 
Q 1375 441 1716 441 
Q 2309 441 2620 675 
Q 2931 909 2931 1356 
Q 2931 1769 2642 2001 
Q 2353 2234 1838 2234 
L 1294 2234 
L 1294 2753 
L 1863 2753 
Q 2328 2753 2575 2939 
Q 2822 3125 2822 3475 
Q 2822 3834 2567 4026 
Q 2313 4219 1838 4219 
Q 1578 4219 1281 4162 
Q 984 4106 628 3988 
L 628 4550 
Q 988 4650 1302 4700 
Q 1616 4750 1894 4750 
Q 2613 4750 3031 4423 
Q 3450 4097 3450 3541 
Q 3450 3153 3228 2886 
Q 3006 2619 2597 2516 
z
" transform="scale(0.015625)"/>
       </defs>
       <use xlink:href="#DejaVuSans-46"/>
       <use xlink:href="#DejaVuSans-65" x="52.019531"/>
       <use xlink:href="#DejaVuSans-62" x="113.542969"/>
       <use xlink:href="#DejaVuSans-2d" x="177.019531"/>
       <use xlink:href="#DejaVuSans-32" x="213.103516"/>
       <use xlink:href="#DejaVuSans-30" x="276.726562"/>
       <use xlink:href="#DejaVuSans-32" x="340.349609"/>
       <use xlink:href="#DejaVuSans-33" x="403.972656"/>
      </g>
     </g>
    </g>
    <g id="xtick_2">
     <g id="line2d_2">
      <g>
       <use xlink:href="#mbdbcb9a296" x="516.722278" y="640.8" style="stroke: #000000; stroke-width: 0.8"/>
      </g>
     </g>
     <g id="text_2">
      <!-- Aug-2023 -->
      <g transform="translate(438.987278 672.115) scale(0.32 -0.32)">
       <defs>
        <path id="DejaVuSans-41" d="M 2188 4044 
L 1331 1722 
L 3047 1722 
L 2188 4044 
z
M 1831 4666 
L 2547 4666 
L 4325 0 
L 3669 0 
L 3244 1197 
L 1141 1197 
L 716 0 
L 50 0 
L 1831 4666 
z
" transform="scale(0.015625)"/>
        <path id="DejaVuSans-75" d="M 544 1381 
L 544 3500 
L 1119 3500 
L 1119 1403 
Q 1119 906 1312 657 
Q 1506 409 1894 409 
Q 2359 409 2629 706 
Q 2900 1003 2900 1516 
L 2900 3500 
L 3475 3500 
L 3475 0 
L 2900 0 
L 2900 538 
Q 2691 219 2414 64 
Q 2138 -91 1772 -91 
Q 1169 -91 856 284 
Q 544 659 544 1381 
z
M 1991 3584 
L 1991 3584 
z
" transform="scale(0.015625)"/>
        <path id="DejaVuSans-67" d="M 2906 1791 
Q 2906 2416 2648 2759 
Q 2391 3103 1925 3103 
Q 1463 3103 1205 2759 
Q 947 2416 947 1791 
Q 947 1169 1205 825 
Q 1463 481 1925 481 
Q 2391 481 2648 825 
Q 2906 1169 2906 1791 
z
M 3481 434 
Q 3481 -459 3084 -895 
Q 2688 -1331 1869 -1331 
Q 1566 -1331 1297 -1286 
Q 1028 -1241 775 -1147 
L 775 -588 
Q 1028 -725 1275 -790 
Q 1522 -856 1778 -856 
Q 2344 -856 2625 -561 
Q 2906 -266 2906 331 
L 2906 616 
Q 2728 306 2450 153 
Q 2172 0 1784 0 
Q 1141 0 747 490 
Q 353 981 353 1791 
Q 353 2603 747 3093 
Q 1141 3584 1784 3584 
Q 2172 3584 2450 3431 
Q 2728 3278 2906 2969 
L 2906 3500 
L 3481 3500 
L 3481 434 
z
" transform="scale(0.015625)"/>
       </defs>
       <use xlink:href="#DejaVuSans-41"/>
       <use xlink:href="#DejaVuSans-75" x="68.408203"/>
       <use xlink:href="#DejaVuSans-67" x="131.787109"/>
       <use xlink:href="#DejaVuSans-2d" x="195.263672"/>
       <use xlink:href="#DejaVuSans-32" x="231.347656"/>
       <use xlink:href="#DejaVuSans-30" x="294.970703"/>
       <use xlink:href="#DejaVuSans-32" x="358.59375"/>
       <use xlink:href="#DejaVuSans-33" x="422.216797"/>
      </g>
     </g>
    </g>
   </g>
   <g id="matplotlib.axis_2">
    <g id="ytick_1">
     <g id="line2d_3">
      <defs>
       <path id="mcdbc2783e8" d="M 0 0 
L -3.5 0 
" style="stroke: #000000; stroke-width: 0.8"/>
      </defs>
      <g>
       <use xlink:href="#mcdbc2783e8" x="90" y="581.478257" style="stroke: #000000; stroke-width: 0.8"/>
      </g>
     </g>
     <g id="text_3">
      <!-- 10.0 -->
      <g transform="translate(11.75 593.635757) scale(0.32 -0.32)">
       <defs>
        <path id="DejaVuSans-31" d="M 794 531 
L 1825 531 
L 1825 4091 
L 703 3866 
L 703 4441 
L 1819 4666 
L 2450 4666 
L 2450 531 
L 3481 531 
L 3481 0 
L 794 0 
L 794 531 
z
" transform="scale(0.015625)"/>
        <path id="DejaVuSans-2e" d="M 684 794 
L 1344 794 
L 1344 0 
L 684 0 
L 684 794 
z
" transform="scale(0.015625)"/>
       </defs>
       <use xlink:href="#DejaVuSans-31"/>
       <use xlink:href="#DejaVuSans-30" x="63.623047"/>
       <use xlink:href="#DejaVuSans-2e" x="127.246094"/>
       <use xlink:href="#DejaVuSans-30" x="159.033203"/>
      </g>
     </g>
    </g>
    <g id="ytick_2">
     <g id="line2d_4">
      <g>
       <use xlink:href="#mcdbc2783e8" x="90" y="503.217389" style="stroke: #000000; stroke-width: 0.8"/>
      </g>
     </g>
     <g id="text_4">
      <!-- 12.5 -->
      <g transform="translate(11.75 515.374889) scale(0.32 -0.32)">
       <defs>
        <path id="DejaVuSans-35" d="M 691 4666 
L 3169 4666 
L 3169 4134 
L 1269 4134 
L 1269 2991 
Q 1406 3038 1543 3061 
Q 1681 3084 1819 3084 
Q 2600 3084 3056 2656 
Q 3513 2228 3513 1497 
Q 3513 744 3044 326 
Q 2575 -91 1722 -91 
Q 1428 -91 1123 -41 
Q 819 9 494 109 
L 494 744 
Q 775 591 1075 516 
Q 1375 441 1709 441 
Q 2250 441 2565 725 
Q 2881 1009 2881 1497 
Q 2881 1984 2565 2268 
Q 2250 2553 1709 2553 
Q 1456 2553 1204 2497 
Q 953 2441 691 2322 
L 691 4666 
z
" transform="scale(0.015625)"/>
       </defs>
       <use xlink:href="#DejaVuSans-31"/>
       <use xlink:href="#DejaVuSans-32" x="63.623047"/>
       <use xlink:href="#DejaVuSans-2e" x="127.246094"/>
       <use xlink:href="#DejaVuSans-35" x="159.033203"/>
      </g>
     </g>
    </g>
    <g id="ytick_3">
     <g id="line2d_5">
      <g>
       <use xlink:href="#mcdbc2783e8" x="90" y="424.956521" style="stroke: #000000; stroke-width: 0.8"/>
      </g>
     </g>
     <g id="text_5">
      <!-- 15.0 -->
      <g transform="translate(11.75 437.114021) scale(0.32 -0.32)">
       <use xlink:href="#DejaVuSans-31"/>
       <use xlink:href="#DejaVuSans-35" x="63.623047"/>
       <use xlink:href="#DejaVuSans-2e" x="127.246094"/>
       <use xlink:href="#DejaVuSans-30" x="159.033203"/>
      </g>
     </g>
    </g>
    <g id="ytick_4">
     <g id="line2d_6">
      <g>
       <use xlink:href="#mcdbc2783e8" x="90" y="346.695654" style="stroke: #000000; stroke-width: 0.8"/>
      </g>
     </g>
     <g id="text_6">
      <!-- 17.5 -->
      <g transform="translate(11.75 358.853154) scale(0.32 -0.32)">
       <defs>
        <path id="DejaVuSans-37" d="M 525 4666 
L 3525 4666 
L 3525 4397 
L 1831 0 
L 1172 0 
L 2766 4134 
L 525 4134 
L 525 4666 
z
" transform="scale(0.015625)"/>
       </defs>
       <use xlink:href="#DejaVuSans-31"/>
       <use xlink:href="#DejaVuSans-37" x="63.623047"/>
       <use xlink:href="#DejaVuSans-2e" x="127.246094"/>
       <use xlink:href="#DejaVuSans-35" x="159.033203"/>
      </g>
     </g>
    </g>
    <g id="ytick_5">
     <g id="line2d_7">
      <g>
       <use xlink:href="#mcdbc2783e8" x="90" y="268.434786" style="stroke: #000000; stroke-width: 0.8"/>
      </g>
     </g>
     <g id="text_7">
      <!-- 20.0 -->
      <g transform="translate(11.75 280.592286) scale(0.32 -0.32)">
       <use xlink:href="#DejaVuSans-32"/>
       <use xlink:href="#DejaVuSans-30" x="63.623047"/>
       <use xlink:href="#DejaVuSans-2e" x="127.246094"/>
       <use xlink:href="#DejaVuSans-30" x="159.033203"/>
      </g>
     </g>
    </g>
    <g id="ytick_6">
     <g id="line2d_8">
      <g>
       <use xlink:href="#mcdbc2783e8" x="90" y="190.173918" style="stroke: #000000; stroke-width: 0.8"/>
      </g>
     </g>
     <g id="text_8">
      <!-- 22.5 -->
      <g transform="translate(11.75 202.331418) scale(0.32 -0.32)">
       <use xlink:href="#DejaVuSans-32"/>
       <use xlink:href="#DejaVuSans-32" x="63.623047"/>
       <use xlink:href="#DejaVuSans-2e" x="127.246094"/>
       <use xlink:href="#DejaVuSans-35" x="159.033203"/>
      </g>
     </g>
    </g>
    <g id="ytick_7">
     <g id="line2d_9">
      <g>
       <use xlink:href="#mcdbc2783e8" x="90" y="111.913051" style="stroke: #000000; stroke-width: 0.8"/>
      </g>
     </g>
     <g id="text_9">
      <!-- 25.0 -->
      <g transform="translate(11.75 124.070551) scale(0.32 -0.32)">
       <use xlink:href="#DejaVuSans-32"/>
       <use xlink:href="#DejaVuSans-35" x="63.623047"/>
       <use xlink:href="#DejaVuSans-2e" x="127.246094"/>
       <use xlink:href="#DejaVuSans-30" x="159.033203"/>
      </g>
     </g>
    </g>
   </g>
   <g id="line2d_10">
    <path d="M 115.363636 317.582601 
L 116.757243 283.147808 
L 118.150849 333.860876 
L 119.544456 330.104328 
L 120.938062 321.6522 
L 125.118881 329.478287 
L 126.512488 249.026065 
L 127.906094 250.904368 
L 129.2997 249.026065 
L 130.693307 258.417405 
L 134.874126 266.243491 
L 136.267732 285.339162 
L 137.661339 343.565207 
L 139.054945 372.678259 
L 140.448551 389.895626 
L 144.629371 405.234779 
L 146.022977 404.921729 
L 147.416583 515.739116 
L 148.81019 425.269572 
L 150.203796 362.034777 
L 154.384615 384.886936 
L 155.778222 352.643496 
L 157.171828 421.200003 
L 158.565435 437.791299 
L 159.959041 471.599991 
L 164.13986 488.817388 
L 165.533467 497.895648 
L 166.927073 477.860855 
L 169.714286 485.06087 
L 173.895105 500.713044 
L 175.288711 493.513028 
L 176.682318 458.765214 
L 178.075924 443.426091 
L 179.46953 436.852177 
L 183.65035 487.565216 
L 185.043956 519.96521 
L 186.437562 539.530427 
L 187.831169 530.765218 
L 189.224775 539.530427 
L 193.405594 510.417375 
L 196.192807 540.7826 
L 197.586414 569.895652 
L 198.98002 577.721739 
L 203.160839 597.756532 
L 204.554446 599.008704 
L 205.948052 596.81738 
L 207.341658 608.086964 
L 208.735265 606.834791 
L 214.30969 615.6 
L 215.703297 611.843482 
L 217.096903 592.12174 
L 218.490509 591.808689 
L 224.064935 609.652157 
L 225.458541 584.921724 
L 226.852148 606.834791 
L 228.245754 610.90433 
L 232.426573 599.321725 
L 233.82018 579.599983 
L 235.213786 540.156528 
L 236.607393 512.608699 
L 238.000999 491.321734 
L 243.575425 473.478265 
L 244.969031 488.191317 
L 246.362637 511.043476 
L 247.756244 446.869558 
L 251.937063 410.869571 
L 253.330669 446.243487 
L 254.724276 451.878249 
L 256.117882 444.991314 
L 257.511489 386.139138 
L 261.692308 421.826075 
L 263.085914 387.704332 
L 264.47952 339.808719 
L 265.873127 232.747849 
L 267.266733 326.34784 
L 271.447552 362.034777 
L 272.841159 355.773943 
L 274.234765 393.026073 
L 275.628372 478.486956 
L 277.021978 502.591288 
L 281.202797 496.956526 
L 282.596404 484.434769 
L 283.99001 434.347832 
L 285.383616 469.408697 
L 286.777223 488.191317 
L 292.351648 493.513028 
L 293.745255 473.165215 
L 295.138861 465.965229 
L 296.532468 485.373921 
L 300.713287 492.573906 
L 302.106893 468.156524 
L 303.5005 499.773922 
L 304.894106 489.75651 
L 306.287712 467.843473 
L 310.468531 482.243474 
L 311.862138 518.869563 
L 313.255744 514.799994 
L 314.649351 540.469549 
L 316.042957 569.895652 
L 320.223776 571.147825 
L 321.617383 581.165206 
L 323.010989 586.486948 
L 324.404595 582.73043 
L 325.798202 597.443481 
L 329.979021 603.704345 
L 331.372627 565.826083 
L 332.766234 588.991293 
L 334.15984 581.791308 
L 335.553447 571.147825 
L 339.734266 574.591292 
L 341.127872 598.069552 
L 342.521479 565.826083 
L 343.915085 568.330429 
L 345.308691 541.721722 
L 349.48951 541.09565 
L 350.883117 556.121723 
L 352.276723 568.95653 
L 353.67033 563.634789 
L 359.244755 546.104341 
L 360.638362 528.260873 
L 362.031968 552.052184 
L 363.425574 538.591305 
L 364.819181 548.921737 
L 369 534.208686 
L 370.393606 528.886944 
L 371.787213 534.834787 
L 373.180819 552.678255 
L 374.574426 550.48696 
L 378.755245 564.886961 
L 380.148851 583.04348 
L 381.542458 586.486948 
L 382.936064 576.469566 
L 384.32967 585.860876 
L 388.51049 581.791308 
L 389.904096 612.469553 
L 391.297702 604.643467 
L 392.691309 608.713035 
L 394.084915 559.252169 
L 398.265734 520.747837 
L 399.659341 509.478253 
L 401.052947 511.043476 
L 402.446553 504.156511 
L 403.84016 516.678268 
L 408.020979 493.826079 
L 409.414585 506.660857 
L 410.808192 482.556525 
L 412.201798 434.660882 
L 413.595405 463.773905 
L 417.776224 439.669573 
L 420.563437 446.869558 
L 421.957043 465.339128 
L 423.350649 453.756523 
L 428.925075 433.095659 
L 430.318681 429.339141 
L 431.712288 438.10435 
L 433.105894 403.043484 
L 437.286713 407.739125 
L 438.68032 399.286966 
L 440.073926 387.391281 
L 441.467532 304.434773 
L 442.861139 350.139151 
L 447.041958 322.904343 
L 448.435564 307.878271 
L 449.829171 361.095625 
L 451.222777 353.582589 
L 452.616384 372.678259 
L 458.190809 392.086981 
L 459.584416 409.304348 
L 460.978022 428.399989 
L 462.371628 430.904334 
L 466.552448 429.965212 
L 467.946054 418.695658 
L 469.33966 409.930449 
L 470.733267 413.060866 
L 472.126873 414.626089 
L 476.307692 389.895626 
L 479.094905 411.808693 
L 480.488511 462.834783 
L 481.882118 467.217402 
L 486.062937 431.843486 
L 487.456543 387.07829 
L 488.85015 382.38259 
L 490.243756 348.260847 
L 491.637363 381.443498 
L 495.818182 358.591279 
L 497.211788 361.095625 
L 498.605395 342.000014 
L 499.999001 358.591279 
L 501.392607 358.591279 
L 505.573427 360.156533 
L 506.967033 343.565207 
L 508.360639 339.495668 
L 509.754246 380.191296 
L 511.147852 353.895639 
L 515.328671 287.530457 
L 516.722278 280.643462 
L 518.115884 338.243466 
L 519.509491 348.260847 
L 520.903097 372.052158 
L 525.083916 404.295657 
L 526.477522 399.913038 
L 527.871129 408.678247 
L 529.264735 425.269572 
L 530.658342 419.947831 
L 534.839161 420.886953 
L 536.232767 440.608695 
L 537.626374 444.678264 
L 539.01998 449.373904 
L 540.413586 440.608695 
L 544.594406 435.913055 
L 545.988012 449.373904 
L 547.381618 440.295644 
L 548.775225 462.208681 
L 550.168831 337.617364 
L 554.34965 332.608674 
L 555.743257 295.043493 
L 557.136863 267.495634 
L 558.53047 243.078282 
L 559.924076 210.208681 
L 565.498501 208.017387 
L 566.892108 202.695645 
L 568.285714 190.80002 
L 569.679321 191.11307 
L 573.86014 156.678277 
L 575.253746 147.286937 
L 576.647353 163.565211 
L 578.040959 155.113023 
L 579.434565 131.634763 
L 583.615385 111.6 
L 585.008991 151.043484 
L 586.402597 171.391298 
L 587.796204 229.304352 
L 589.18981 262.799994 
L 593.370629 261.547851 
L 594.764236 271.252182 
L 596.157842 260.295649 
L 597.551449 241.826079 
L 598.945055 228.678251 
L 603.125874 254.347806 
L 604.519481 322.278242 
L 607.306693 346.382603 
L 608.7003 332.921724 
L 612.881119 306.313017 
L 614.274725 277.826066 
L 615.668332 264.365247 
L 617.061938 312.26086 
L 618.455544 331.04348 
L 622.636364 303.495681 
L 622.636364 303.495681 
" clip-path="url(#pb779c8e3e3)" style="fill: none; stroke: #000000; stroke-width: 2.5; stroke-linecap: square"/>
   </g>
   <g id="patch_3">
    <path d="M 90 640.8 
L 90 86.4 
" style="fill: none; stroke: #000000; stroke-width: 0.8; stroke-linejoin: miter; stroke-linecap: square"/>
   </g>
   <g id="patch_4">
    <path d="M 90 640.8 
L 648 640.8 
" style="fill: none; stroke: #000000; stroke-width: 0.8; stroke-linejoin: miter; stroke-linecap: square"/>
   </g>
   <g id="text_10">
    <!-- 2% -->
    <g transform="translate(565.525739 381.250056) scale(0.36 -0.36)">
     <defs>
      <path id="DejaVuSans-25" d="M 4653 2053 
Q 4381 2053 4226 1822 
Q 4072 1591 4072 1178 
Q 4072 772 4226 539 
Q 4381 306 4653 306 
Q 4919 306 5073 539 
Q 5228 772 5228 1178 
Q 5228 1588 5073 1820 
Q 4919 2053 4653 2053 
z
M 4653 2450 
Q 5147 2450 5437 2106 
Q 5728 1763 5728 1178 
Q 5728 594 5436 251 
Q 5144 -91 4653 -91 
Q 4153 -91 3862 251 
Q 3572 594 3572 1178 
Q 3572 1766 3864 2108 
Q 4156 2450 4653 2450 
z
M 1428 4353 
Q 1159 4353 1004 4120 
Q 850 3888 850 3481 
Q 850 3069 1003 2837 
Q 1156 2606 1428 2606 
Q 1700 2606 1854 2837 
Q 2009 3069 2009 3481 
Q 2009 3884 1853 4118 
Q 1697 4353 1428 4353 
z
M 4250 4750 
L 4750 4750 
L 1831 -91 
L 1331 -91 
L 4250 4750 
z
M 1428 4750 
Q 1922 4750 2215 4408 
Q 2509 4066 2509 3481 
Q 2509 2891 2217 2550 
Q 1925 2209 1428 2209 
Q 931 2209 642 2551 
Q 353 2894 353 3481 
Q 353 4063 643 4406 
Q 934 4750 1428 4750 
z
" transform="scale(0.015625)"/>
     </defs>
     <use xlink:href="#DejaVuSans-32"/>
     <use xlink:href="#DejaVuSans-25" x="63.623047"/>
    </g>
   </g>
  </g>
 </g>
 <defs>
  <clipPath id="pb779c8e3e3">
   <rect x="90" y="86.4" width="558" height="554.4"/>
  </clipPath>
 </defs>
</svg>
