<?xml version="1.0" encoding="utf-8" standalone="no"?>
<!DOCTYPE svg PUBLIC "-//W3C//DTD SVG 1.1//EN"
  "http://www.w3.org/Graphics/SVG/1.1/DTD/svg11.dtd">
<svg xmlns:xlink="http://www.w3.org/1999/xlink" width="720pt" height="720pt" viewBox="0 0 720 720" xmlns="http://www.w3.org/2000/svg" version="1.1">
 <metadata>
  <rdf:RDF xmlns:dc="http://purl.org/dc/elements/1.1/" xmlns:cc="http://creativecommons.org/ns#" xmlns:rdf="http://www.w3.org/1999/02/22-rdf-syntax-ns#">
   <cc:Work>
    <dc:type rdf:resource="http://purl.org/dc/dcmitype/StillImage"/>
    <dc:date>2023-10-17T23:38:24.930269</dc:date>
    <dc:format>image/svg+xml</dc:format>
    <dc:creator>
     <cc:Agent>
      <dc:title>Matplotlib v3.7.2, https://matplotlib.org/</dc:title>
     </cc:Agent>
    </dc:creator>
   </cc:Work>
  </rdf:RDF>
 </metadata>
 <defs>
  <style type="text/css">*{stroke-linejoin: round; stroke-linecap: butt}</style>
 </defs>
 <g id="figure_1">
  <g id="patch_1">
   <path d="M 0 720 
L 720 720 
L 720 0 
L 0 0 
z
" style="fill: #ffffff"/>
  </g>
  <g id="axes_1">
   <g id="patch_2">
    <path d="M 90 640.8 
L 648 640.8 
L 648 86.4 
L 90 86.4 
z
" style="fill: #ffffff"/>
   </g>
   <g id="matplotlib.axis_1">
    <g id="xtick_1">
     <g id="line2d_1">
      <defs>
       <path id="m15dc1f5e20" d="M 0 0 
L 0 3.5 
" style="stroke: #000000; stroke-width: 0.8"/>
      </defs>
      <g>
       <use xlink:href="#m15dc1f5e20" x="264.47952" y="640.8" style="stroke: #000000; stroke-width: 0.8"/>
      </g>
     </g>
     <g id="text_1">
      <!-- Feb-2023 -->
      <g transform="translate(189.66202 672.115) scale(0.32 -0.32)">
       <defs>
        <path id="DejaVuSans-46" d="M 628 4666 
L 3309 4666 
L 3309 4134 
L 1259 4134 
L 1259 2759 
L 3109 2759 
L 3109 2228 
L 1259 2228 
L 1259 0 
L 628 0 
L 628 4666 
z
" transform="scale(0.015625)"/>
        <path id="DejaVuSans-65" d="M 3597 1894 
L 3597 1613 
L 953 1613 
Q 991 1019 1311 708 
Q 1631 397 2203 397 
Q 2534 397 2845 478 
Q 3156 559 3463 722 
L 3463 178 
Q 3153 47 2828 -22 
Q 2503 -91 2169 -91 
Q 1331 -91 842 396 
Q 353 884 353 1716 
Q 353 2575 817 3079 
Q 1281 3584 2069 3584 
Q 2775 3584 3186 3129 
Q 3597 2675 3597 1894 
z
M 3022 2063 
Q 3016 2534 2758 2815 
Q 2500 3097 2075 3097 
Q 1594 3097 1305 2825 
Q 1016 2553 972 2059 
L 3022 2063 
z
" transform="scale(0.015625)"/>
        <path id="DejaVuSans-62" d="M 3116 1747 
Q 3116 2381 2855 2742 
Q 2594 3103 2138 3103 
Q 1681 3103 1420 2742 
Q 1159 2381 1159 1747 
Q 1159 1113 1420 752 
Q 1681 391 2138 391 
Q 2594 391 2855 752 
Q 3116 1113 3116 1747 
z
M 1159 2969 
Q 1341 3281 1617 3432 
Q 1894 3584 2278 3584 
Q 2916 3584 3314 3078 
Q 3713 2572 3713 1747 
Q 3713 922 3314 415 
Q 2916 -91 2278 -91 
Q 1894 -91 1617 61 
Q 1341 213 1159 525 
L 1159 0 
L 581 0 
L 581 4863 
L 1159 4863 
L 1159 2969 
z
" transform="scale(0.015625)"/>
        <path id="DejaVuSans-2d" d="M 313 2009 
L 1997 2009 
L 1997 1497 
L 313 1497 
L 313 2009 
z
" transform="scale(0.015625)"/>
        <path id="DejaVuSans-32" d="M 1228 531 
L 3431 531 
L 3431 0 
L 469 0 
L 469 531 
Q 828 903 1448 1529 
Q 2069 2156 2228 2338 
Q 2531 2678 2651 2914 
Q 2772 3150 2772 3378 
Q 2772 3750 2511 3984 
Q 2250 4219 1831 4219 
Q 1534 4219 1204 4116 
Q 875 4013 500 3803 
L 500 4441 
Q 881 4594 1212 4672 
Q 1544 4750 1819 4750 
Q 2544 4750 2975 4387 
Q 3406 4025 3406 3419 
Q 3406 3131 3298 2873 
Q 3191 2616 2906 2266 
Q 2828 2175 2409 1742 
Q 1991 1309 1228 531 
z
" transform="scale(0.015625)"/>
        <path id="DejaVuSans-30" d="M 2034 4250 
Q 1547 4250 1301 3770 
Q 1056 3291 1056 2328 
Q 1056 1369 1301 889 
Q 1547 409 2034 409 
Q 2525 409 2770 889 
Q 3016 1369 3016 2328 
Q 3016 3291 2770 3770 
Q 2525 4250 2034 4250 
z
M 2034 4750 
Q 2819 4750 3233 4129 
Q 3647 3509 3647 2328 
Q 3647 1150 3233 529 
Q 2819 -91 2034 -91 
Q 1250 -91 836 529 
Q 422 1150 422 2328 
Q 422 3509 836 4129 
Q 1250 4750 2034 4750 
z
" transform="scale(0.015625)"/>
        <path id="DejaVuSans-33" d="M 2597 2516 
Q 3050 2419 3304 2112 
Q 3559 1806 3559 1356 
Q 3559 666 3084 287 
Q 2609 -91 1734 -91 
Q 1441 -91 1130 -33 
Q 819 25 488 141 
L 488 750 
Q 750 597 1062 519 
Q 1375 441 1716 441 
Q 2309 441 2620 675 
Q 2931 909 2931 1356 
Q 2931 1769 2642 2001 
Q 2353 2234 1838 2234 
L 1294 2234 
L 1294 2753 
L 1863 2753 
Q 2328 2753 2575 2939 
Q 2822 3125 2822 3475 
Q 2822 3834 2567 4026 
Q 2313 4219 1838 4219 
Q 1578 4219 1281 4162 
Q 984 4106 628 3988 
L 628 4550 
Q 988 4650 1302 4700 
Q 1616 4750 1894 4750 
Q 2613 4750 3031 4423 
Q 3450 4097 3450 3541 
Q 3450 3153 3228 2886 
Q 3006 2619 2597 2516 
z
" transform="scale(0.015625)"/>
       </defs>
       <use xlink:href="#DejaVuSans-46"/>
       <use xlink:href="#DejaVuSans-65" x="52.019531"/>
       <use xlink:href="#DejaVuSans-62" x="113.542969"/>
       <use xlink:href="#DejaVuSans-2d" x="177.019531"/>
       <use xlink:href="#DejaVuSans-32" x="213.103516"/>
       <use xlink:href="#DejaVuSans-30" x="276.726562"/>
       <use xlink:href="#DejaVuSans-32" x="340.349609"/>
       <use xlink:href="#DejaVuSans-33" x="403.972656"/>
      </g>
     </g>
    </g>
    <g id="xtick_2">
     <g id="line2d_2">
      <g>
       <use xlink:href="#m15dc1f5e20" x="516.722278" y="640.8" style="stroke: #000000; stroke-width: 0.8"/>
      </g>
     </g>
     <g id="text_2">
      <!-- Aug-2023 -->
      <g transform="translate(438.987278 672.115) scale(0.32 -0.32)">
       <defs>
        <path id="DejaVuSans-41" d="M 2188 4044 
L 1331 1722 
L 3047 1722 
L 2188 4044 
z
M 1831 4666 
L 2547 4666 
L 4325 0 
L 3669 0 
L 3244 1197 
L 1141 1197 
L 716 0 
L 50 0 
L 1831 4666 
z
" transform="scale(0.015625)"/>
        <path id="DejaVuSans-75" d="M 544 1381 
L 544 3500 
L 1119 3500 
L 1119 1403 
Q 1119 906 1312 657 
Q 1506 409 1894 409 
Q 2359 409 2629 706 
Q 2900 1003 2900 1516 
L 2900 3500 
L 3475 3500 
L 3475 0 
L 2900 0 
L 2900 538 
Q 2691 219 2414 64 
Q 2138 -91 1772 -91 
Q 1169 -91 856 284 
Q 544 659 544 1381 
z
M 1991 3584 
L 1991 3584 
z
" transform="scale(0.015625)"/>
        <path id="DejaVuSans-67" d="M 2906 1791 
Q 2906 2416 2648 2759 
Q 2391 3103 1925 3103 
Q 1463 3103 1205 2759 
Q 947 2416 947 1791 
Q 947 1169 1205 825 
Q 1463 481 1925 481 
Q 2391 481 2648 825 
Q 2906 1169 2906 1791 
z
M 3481 434 
Q 3481 -459 3084 -895 
Q 2688 -1331 1869 -1331 
Q 1566 -1331 1297 -1286 
Q 1028 -1241 775 -1147 
L 775 -588 
Q 1028 -725 1275 -790 
Q 1522 -856 1778 -856 
Q 2344 -856 2625 -561 
Q 2906 -266 2906 331 
L 2906 616 
Q 2728 306 2450 153 
Q 2172 0 1784 0 
Q 1141 0 747 490 
Q 353 981 353 1791 
Q 353 2603 747 3093 
Q 1141 3584 1784 3584 
Q 2172 3584 2450 3431 
Q 2728 3278 2906 2969 
L 2906 3500 
L 3481 3500 
L 3481 434 
z
" transform="scale(0.015625)"/>
       </defs>
       <use xlink:href="#DejaVuSans-41"/>
       <use xlink:href="#DejaVuSans-75" x="68.408203"/>
       <use xlink:href="#DejaVuSans-67" x="131.787109"/>
       <use xlink:href="#DejaVuSans-2d" x="195.263672"/>
       <use xlink:href="#DejaVuSans-32" x="231.347656"/>
       <use xlink:href="#DejaVuSans-30" x="294.970703"/>
       <use xlink:href="#DejaVuSans-32" x="358.59375"/>
       <use xlink:href="#DejaVuSans-33" x="422.216797"/>
      </g>
     </g>
    </g>
   </g>
   <g id="matplotlib.axis_2">
    <g id="ytick_1">
     <g id="line2d_3">
      <defs>
       <path id="m579706dbe0" d="M 0 0 
L -3.5 0 
" style="stroke: #000000; stroke-width: 0.8"/>
      </defs>
      <g>
       <use xlink:href="#m579706dbe0" x="90" y="598.416463" style="stroke: #000000; stroke-width: 0.8"/>
      </g>
     </g>
     <g id="text_3">
      <!-- 45 -->
      <g transform="translate(42.28 610.573963) scale(0.32 -0.32)">
       <defs>
        <path id="DejaVuSans-34" d="M 2419 4116 
L 825 1625 
L 2419 1625 
L 2419 4116 
z
M 2253 4666 
L 3047 4666 
L 3047 1625 
L 3713 1625 
L 3713 1100 
L 3047 1100 
L 3047 0 
L 2419 0 
L 2419 1100 
L 313 1100 
L 313 1709 
L 2253 4666 
z
" transform="scale(0.015625)"/>
        <path id="DejaVuSans-35" d="M 691 4666 
L 3169 4666 
L 3169 4134 
L 1269 4134 
L 1269 2991 
Q 1406 3038 1543 3061 
Q 1681 3084 1819 3084 
Q 2600 3084 3056 2656 
Q 3513 2228 3513 1497 
Q 3513 744 3044 326 
Q 2575 -91 1722 -91 
Q 1428 -91 1123 -41 
Q 819 9 494 109 
L 494 744 
Q 775 591 1075 516 
Q 1375 441 1709 441 
Q 2250 441 2565 725 
Q 2881 1009 2881 1497 
Q 2881 1984 2565 2268 
Q 2250 2553 1709 2553 
Q 1456 2553 1204 2497 
Q 953 2441 691 2322 
L 691 4666 
z
" transform="scale(0.015625)"/>
       </defs>
       <use xlink:href="#DejaVuSans-34"/>
       <use xlink:href="#DejaVuSans-35" x="63.623047"/>
      </g>
     </g>
    </g>
    <g id="ytick_2">
     <g id="line2d_4">
      <g>
       <use xlink:href="#m579706dbe0" x="90" y="523.70553" style="stroke: #000000; stroke-width: 0.8"/>
      </g>
     </g>
     <g id="text_4">
      <!-- 50 -->
      <g transform="translate(42.28 535.86303) scale(0.32 -0.32)">
       <use xlink:href="#DejaVuSans-35"/>
       <use xlink:href="#DejaVuSans-30" x="63.623047"/>
      </g>
     </g>
    </g>
    <g id="ytick_3">
     <g id="line2d_5">
      <g>
       <use xlink:href="#m579706dbe0" x="90" y="448.994598" style="stroke: #000000; stroke-width: 0.8"/>
      </g>
     </g>
     <g id="text_5">
      <!-- 55 -->
      <g transform="translate(42.28 461.152098) scale(0.32 -0.32)">
       <use xlink:href="#DejaVuSans-35"/>
       <use xlink:href="#DejaVuSans-35" x="63.623047"/>
      </g>
     </g>
    </g>
    <g id="ytick_4">
     <g id="line2d_6">
      <g>
       <use xlink:href="#m579706dbe0" x="90" y="374.283666" style="stroke: #000000; stroke-width: 0.8"/>
      </g>
     </g>
     <g id="text_6">
      <!-- 60 -->
      <g transform="translate(42.28 386.441166) scale(0.32 -0.32)">
       <defs>
        <path id="DejaVuSans-36" d="M 2113 2584 
Q 1688 2584 1439 2293 
Q 1191 2003 1191 1497 
Q 1191 994 1439 701 
Q 1688 409 2113 409 
Q 2538 409 2786 701 
Q 3034 994 3034 1497 
Q 3034 2003 2786 2293 
Q 2538 2584 2113 2584 
z
M 3366 4563 
L 3366 3988 
Q 3128 4100 2886 4159 
Q 2644 4219 2406 4219 
Q 1781 4219 1451 3797 
Q 1122 3375 1075 2522 
Q 1259 2794 1537 2939 
Q 1816 3084 2150 3084 
Q 2853 3084 3261 2657 
Q 3669 2231 3669 1497 
Q 3669 778 3244 343 
Q 2819 -91 2113 -91 
Q 1303 -91 875 529 
Q 447 1150 447 2328 
Q 447 3434 972 4092 
Q 1497 4750 2381 4750 
Q 2619 4750 2861 4703 
Q 3103 4656 3366 4563 
z
" transform="scale(0.015625)"/>
       </defs>
       <use xlink:href="#DejaVuSans-36"/>
       <use xlink:href="#DejaVuSans-30" x="63.623047"/>
      </g>
     </g>
    </g>
    <g id="ytick_5">
     <g id="line2d_7">
      <g>
       <use xlink:href="#m579706dbe0" x="90" y="299.572733" style="stroke: #000000; stroke-width: 0.8"/>
      </g>
     </g>
     <g id="text_7">
      <!-- 65 -->
      <g transform="translate(42.28 311.730233) scale(0.32 -0.32)">
       <use xlink:href="#DejaVuSans-36"/>
       <use xlink:href="#DejaVuSans-35" x="63.623047"/>
      </g>
     </g>
    </g>
    <g id="ytick_6">
     <g id="line2d_8">
      <g>
       <use xlink:href="#m579706dbe0" x="90" y="224.861801" style="stroke: #000000; stroke-width: 0.8"/>
      </g>
     </g>
     <g id="text_8">
      <!-- 70 -->
      <g transform="translate(42.28 237.019301) scale(0.32 -0.32)">
       <defs>
        <path id="DejaVuSans-37" d="M 525 4666 
L 3525 4666 
L 3525 4397 
L 1831 0 
L 1172 0 
L 2766 4134 
L 525 4134 
L 525 4666 
z
" transform="scale(0.015625)"/>
       </defs>
       <use xlink:href="#DejaVuSans-37"/>
       <use xlink:href="#DejaVuSans-30" x="63.623047"/>
      </g>
     </g>
    </g>
    <g id="ytick_7">
     <g id="line2d_9">
      <g>
       <use xlink:href="#m579706dbe0" x="90" y="150.150868" style="stroke: #000000; stroke-width: 0.8"/>
      </g>
     </g>
     <g id="text_9">
      <!-- 75 -->
      <g transform="translate(42.28 162.308368) scale(0.32 -0.32)">
       <use xlink:href="#DejaVuSans-37"/>
       <use xlink:href="#DejaVuSans-35" x="63.623047"/>
      </g>
     </g>
    </g>
   </g>
   <g id="line2d_10">
    <path d="M 115.363636 593.18672 
L 116.757243 583.026029 
L 118.150849 592.439565 
L 119.544456 599.611865 
L 120.938062 587.060426 
L 125.118881 576.899735 
L 126.512488 562.555192 
L 127.906094 566.88844 
L 129.2997 560.463295 
L 130.693307 538.946567 
L 134.874126 537.900619 
L 136.267732 544.923408 
L 139.054945 590.497122 
L 140.448551 591.094766 
L 144.629371 575.704332 
L 146.022977 575.106631 
L 147.416583 603.945056 
L 148.81019 554.337001 
L 150.203796 541.935016 
L 154.384615 542.831511 
L 155.778222 522.659582 
L 157.171828 536.705217 
L 158.565435 559.118496 
L 159.959041 567.187291 
L 164.13986 586.462725 
L 165.533467 578.842178 
L 166.927073 564.796543 
L 169.714286 564.049445 
L 173.895105 574.210137 
L 175.288711 571.371085 
L 176.682318 537.601768 
L 178.075924 519.222886 
L 179.46953 525.498577 
L 183.65035 551.199156 
L 185.043956 561.658698 
L 186.437562 554.187604 
L 187.831169 552.543955 
L 189.224775 561.210393 
L 193.405594 560.9116 
L 194.799201 542.084413 
L 196.192807 553.440507 
L 197.586414 584.819075 
L 198.98002 598.86471 
L 203.160839 612.611551 
L 204.554446 604.692154 
L 205.948052 591.991318 
L 207.341658 596.772813 
L 208.735265 604.542757 
L 214.30969 615.002299 
L 215.703297 615.6 
L 217.096903 586.612122 
L 218.490509 591.393617 
L 224.064935 578.244534 
L 225.458541 566.440193 
L 226.852148 589.451174 
L 228.245754 569.279188 
L 232.426573 551.199156 
L 233.82018 540.141913 
L 235.213786 531.176624 
L 236.607393 525.946881 
L 238.000999 526.99283 
L 243.575425 521.015932 
L 244.969031 515.039035 
L 246.362637 503.832395 
L 247.756244 494.867106 
L 251.937063 470.95963 
L 253.330669 487.545466 
L 254.724276 485.453512 
L 256.117882 484.108713 
L 257.511489 474.994028 
L 261.692308 489.637363 
L 263.085914 477.384775 
L 264.47952 449.442845 
L 265.873127 387.582202 
L 267.266733 407.604735 
L 271.447552 418.064277 
L 272.841159 402.374992 
L 274.234765 423.443473 
L 275.628372 424.489421 
L 277.021978 436.74201 
L 281.202797 419.259622 
L 282.596404 411.937982 
L 283.99001 401.47844 
L 285.383616 417.616029 
L 286.777223 440.626953 
L 292.351648 453.776093 
L 293.745255 452.580748 
L 295.138861 425.53537 
L 296.532468 321.388312 
L 300.713287 300.469228 
L 302.106893 313.618425 
L 303.5005 304.055435 
L 304.894106 296.733681 
L 306.287712 288.664887 
L 310.468531 279.849052 
L 311.862138 278.055948 
L 313.255744 265.65402 
L 314.649351 287.917846 
L 316.042957 324.974462 
L 320.223776 301.814084 
L 321.617383 276.561752 
L 323.010989 269.68836 
L 324.404595 253.102524 
L 325.798202 231.286946 
L 329.979021 228.896141 
L 331.372627 232.482348 
L 332.766234 251.608328 
L 334.15984 242.045338 
L 335.553447 241.895884 
L 339.734266 237.263843 
L 342.521479 225.907749 
L 343.915085 212.908006 
L 345.308691 193.333778 
L 349.48951 206.482861 
L 350.883117 197.517572 
L 352.276723 214.701109 
L 353.67033 220.528553 
L 359.244755 201.552026 
L 360.638362 215.448264 
L 362.031968 209.620821 
L 363.425574 198.414181 
L 364.819181 207.52881 
L 369 220.080306 
L 370.393606 217.988409 
L 371.787213 224.861801 
L 374.574426 213.05746 
L 378.755245 206.781769 
L 380.148851 237.263843 
L 381.542458 242.194792 
L 382.936064 234.275337 
L 384.32967 239.056832 
L 388.51049 240.252235 
L 389.904096 262.366721 
L 391.297702 267.895257 
L 392.691309 271.33201 
L 394.084915 251.309421 
L 398.265734 259.975916 
L 399.659341 265.952814 
L 401.052947 246.677379 
L 402.446553 261.918473 
L 403.84016 260.723071 
L 408.020979 253.550772 
L 409.414585 255.493329 
L 410.808192 247.573874 
L 412.201798 227.551399 
L 413.595405 226.50545 
L 417.776224 204.540418 
L 419.16983 226.206543 
L 420.563437 230.390451 
L 421.957043 191.092427 
L 423.350649 157.323168 
L 428.925075 141.783281 
L 430.318681 175.104293 
L 431.712288 150.300322 
L 433.105894 155.978312 
L 437.286713 146.564776 
L 438.68032 154.63357 
L 440.073926 161.208055 
L 441.467532 162.254003 
L 442.861139 147.311817 
L 447.041958 129.231785 
L 448.435564 111.6 
L 449.829171 128.634083 
L 451.222777 129.231785 
L 452.616384 158.518456 
L 458.190809 165.391849 
L 462.371628 199.011768 
L 466.552448 211.115017 
L 467.946054 171.219406 
L 469.33966 158.966704 
L 470.733267 149.852075 
L 472.126873 137.599487 
L 476.307692 144.921126 
L 479.094905 157.323168 
L 480.488511 184.368489 
L 481.882118 198.115273 
L 486.062937 169.725096 
L 487.456543 170.920499 
L 488.85015 151.794518 
L 490.243756 143.57627 
L 491.637363 150.599116 
L 495.818182 147.162477 
L 497.211788 151.495611 
L 498.605395 161.805756 
L 499.999001 190.195933 
L 501.392607 173.012396 
L 505.573427 186.012139 
L 506.967033 171.5182 
L 508.360639 177.495097 
L 509.754246 177.19619 
L 511.147852 164.19656 
L 515.328671 151.047363 
L 516.722278 158.966704 
L 518.115884 191.839582 
L 519.509491 216.344759 
L 520.903097 317.503368 
L 525.083916 334.388055 
L 526.477522 343.353344 
L 527.871129 355.755329 
L 529.264735 350.37619 
L 530.658342 334.985699 
L 534.839161 328.560554 
L 536.232767 335.434004 
L 537.626374 343.502741 
L 539.01998 361.732227 
L 540.413586 358.893232 
L 544.594406 354.858835 
L 545.988012 351.422139 
L 547.381618 316.009116 
L 548.775225 330.801905 
L 550.168831 311.825322 
L 554.34965 311.377074 
L 555.743257 291.802846 
L 557.136863 275.21701 
L 558.53047 277.458247 
L 559.924076 268.642412 
L 565.498501 285.975289 
L 566.892108 285.078794 
L 568.285714 291.205145 
L 569.679321 292.10164 
L 573.86014 278.504196 
L 575.253746 312.273569 
L 576.647353 308.83693 
L 578.040959 291.952186 
L 579.434565 293.297042 
L 583.615385 290.906238 
L 585.008991 315.411471 
L 586.402597 323.405539 
L 587.796204 349.778489 
L 589.18981 340.364895 
L 593.370629 360.835675 
L 594.764236 363.525273 
L 596.157842 359.490876 
L 598.945055 336.031648 
L 603.125874 332.445555 
L 604.519481 330.204204 
L 605.913087 306.296672 
L 607.306693 284.780001 
L 608.7003 299.572733 
L 612.881119 285.676495 
L 614.274725 269.68836 
L 615.668332 256.688617 
L 617.061938 270.136608 
L 618.455544 291.055691 
L 622.636364 294.044083 
L 622.636364 294.044083 
" clip-path="url(#pedd84287c5)" style="fill: none; stroke: #000000; stroke-width: 2.5; stroke-linecap: square"/>
   </g>
   <g id="patch_3">
    <path d="M 90 640.8 
L 90 86.4 
" style="fill: none; stroke: #000000; stroke-width: 0.8; stroke-linejoin: miter; stroke-linecap: square"/>
   </g>
   <g id="patch_4">
    <path d="M 90 640.8 
L 648 640.8 
" style="fill: none; stroke: #000000; stroke-width: 0.8; stroke-linejoin: miter; stroke-linecap: square"/>
   </g>
   <g id="text_10">
    <!-- 44% -->
    <g transform="translate(542.620739 371.798458) scale(0.36 -0.36)">
     <defs>
      <path id="DejaVuSans-25" d="M 4653 2053 
Q 4381 2053 4226 1822 
Q 4072 1591 4072 1178 
Q 4072 772 4226 539 
Q 4381 306 4653 306 
Q 4919 306 5073 539 
Q 5228 772 5228 1178 
Q 5228 1588 5073 1820 
Q 4919 2053 4653 2053 
z
M 4653 2450 
Q 5147 2450 5437 2106 
Q 5728 1763 5728 1178 
Q 5728 594 5436 251 
Q 5144 -91 4653 -91 
Q 4153 -91 3862 251 
Q 3572 594 3572 1178 
Q 3572 1766 3864 2108 
Q 4156 2450 4653 2450 
z
M 1428 4353 
Q 1159 4353 1004 4120 
Q 850 3888 850 3481 
Q 850 3069 1003 2837 
Q 1156 2606 1428 2606 
Q 1700 2606 1854 2837 
Q 2009 3069 2009 3481 
Q 2009 3884 1853 4118 
Q 1697 4353 1428 4353 
z
M 4250 4750 
L 4750 4750 
L 1831 -91 
L 1331 -91 
L 4250 4750 
z
M 1428 4750 
Q 1922 4750 2215 4408 
Q 2509 4066 2509 3481 
Q 2509 2891 2217 2550 
Q 1925 2209 1428 2209 
Q 931 2209 642 2551 
Q 353 2894 353 3481 
Q 353 4063 643 4406 
Q 934 4750 1428 4750 
z
" transform="scale(0.015625)"/>
     </defs>
     <use xlink:href="#DejaVuSans-34"/>
     <use xlink:href="#DejaVuSans-34" x="63.623047"/>
     <use xlink:href="#DejaVuSans-25" x="127.246094"/>
    </g>
   </g>
  </g>
 </g>
 <defs>
  <clipPath id="pedd84287c5">
   <rect x="90" y="86.4" width="558" height="554.4"/>
  </clipPath>
 </defs>
</svg>
