<?xml version="1.0" encoding="utf-8" standalone="no"?>
<!DOCTYPE svg PUBLIC "-//W3C//DTD SVG 1.1//EN"
  "http://www.w3.org/Graphics/SVG/1.1/DTD/svg11.dtd">
<!-- Created with matplotlib (https://matplotlib.org/) -->
<svg height="432pt" version="1.1" viewBox="0 0 864 432" width="864pt" xmlns="http://www.w3.org/2000/svg" xmlns:xlink="http://www.w3.org/1999/xlink">
 <defs>
  <style type="text/css">
*{stroke-linecap:butt;stroke-linejoin:round;}
  </style>
 </defs>
 <g id="figure_1">
  <g id="patch_1">
   <path d="M 0 432 
L 864 432 
L 864 0 
L 0 0 
z
" style="fill:none;"/>
  </g>
  <g id="axes_1">
   <g id="patch_2">
    <path d="M 75.175 385.2 
L 840.323864 385.2 
L 840.323864 88.8 
L 75.175 88.8 
z
" style="fill:none;"/>
   </g>
   <g id="PolyCollection_1">
    <path clip-path="url(#p210a4de663)" d="M 109.954494 1491.432705 
L 109.954494 380.293651 
L 113.755531 354.79997 
L 117.556569 373.078463 
L 128.959682 385.007554 
L 132.760719 385.2 
L 136.561757 368.268337 
L 140.362794 385.103777 
L 144.163832 335.944286 
L 159.367982 321.032866 
L 163.16902 331.422756 
L 166.970057 310.354455 
L 170.771095 296.11645 
L 182.174208 286.015157 
L 185.975245 273.412651 
L 189.776283 325.169578 
L 193.57732 296.11645 
L 197.378358 304.005053 
L 208.781471 273.797469 
L 212.582508 272.931609 
L 216.383546 275.240522 
L 220.184583 268.602525 
L 223.985621 284.187359 
L 239.189771 281.397477 
L 242.990809 290.536687 
L 246.791846 239.357025 
L 250.592884 247.245555 
L 261.995997 266.486058 
L 265.797034 248.68868 
L 269.598072 250.03551 
L 273.399109 261.002517 
L 277.200147 237.336707 
L 288.60326 238.683537 
L 296.205335 237.144261 
L 300.006372 256.57721 
L 303.80741 242.916471 
L 315.210523 268.410152 
L 319.01156 252.536722 
L 322.812598 233.103773 
L 326.613636 199.432893 
L 330.414673 195.777297 
L 341.817786 206.551932 
L 345.618823 213.574674 
L 349.419861 189.23545 
L 353.220899 241.184749 
L 357.021936 240.800004 
L 368.425049 252.344276 
L 372.226086 249.169576 
L 376.027124 258.597528 
L 379.828162 257.635444 
L 383.629199 219.539183 
L 395.032312 205.397549 
L 398.833349 224.541755 
L 402.634387 258.020189 
L 406.435425 251.286043 
L 410.236462 148.734126 
L 421.639575 123.240518 
L 425.440612 145.17468 
L 429.24165 165.28097 
L 433.042688 158.450674 
L 436.843725 159.893653 
L 448.246838 139.113874 
L 452.047875 167.012692 
L 455.848913 192.025258 
L 459.649951 202.511444 
L 463.450988 209.822782 
L 474.854101 195.777297 
L 478.655138 199.913935 
L 482.456176 187.696174 
L 486.257214 223.098776 
L 490.058251 209.438037 
L 501.461364 210.59242 
L 505.262401 193.564533 
L 509.063439 192.025258 
L 512.864477 163.741842 
L 516.665514 162.683608 
L 531.869665 170.860734 
L 535.670702 189.23545 
L 539.47174 165.28097 
L 543.272777 161.625375 
L 554.67589 114.77465 
L 558.476928 132.76462 
L 562.277965 97.93921 
L 566.079003 99.189889 
L 569.88004 140.845596 
L 581.283153 144.789934 
L 585.084191 167.397438 
L 588.885228 189.908938 
L 592.686266 247.245555 
L 596.487303 249.265872 
L 607.890416 228.582243 
L 611.691454 279.473383 
L 615.492491 279.473383 
L 619.293529 279.473383 
L 623.094566 268.506302 
L 634.497679 245.994875 
L 638.298717 291.59492 
L 642.099754 269.660758 
L 645.900792 279.665829 
L 649.701829 260.425326 
L 661.104942 257.539294 
L 664.90598 245.802576 
L 668.707017 223.194926 
L 672.508055 218.3848 
L 676.309092 242.820321 
L 687.712205 216.268333 
L 691.513243 226.658222 
L 695.31428 258.789827 
L 699.115318 256.192465 
L 702.916355 287.265836 
L 714.319468 273.893693 
L 718.120506 254.653189 
L 721.921543 323.630375 
L 725.722581 341.13923 
L 729.523618 262.541793 
L 740.926731 214.729057 
L 744.727769 211.073462 
L 748.528806 173.458243 
L 752.329844 163.164503 
L 756.130881 158.065782 
L 767.533994 147.098701 
L 771.335032 118.526542 
L 775.136069 124.587347 
L 778.937107 138.825279 
L 782.738144 110.349416 
L 794.141257 119.681072 
L 797.942295 88.8 
L 801.743332 113.812713 
L 805.54437 117.372159 
L 805.54437 1491.432705 
L 805.54437 1491.432705 
L 801.743332 1491.432705 
L 797.942295 1491.432705 
L 794.141257 1491.432705 
L 782.738144 1491.432705 
L 778.937107 1491.432705 
L 775.136069 1491.432705 
L 771.335032 1491.432705 
L 767.533994 1491.432705 
L 756.130881 1491.432705 
L 752.329844 1491.432705 
L 748.528806 1491.432705 
L 744.727769 1491.432705 
L 740.926731 1491.432705 
L 729.523618 1491.432705 
L 725.722581 1491.432705 
L 721.921543 1491.432705 
L 718.120506 1491.432705 
L 714.319468 1491.432705 
L 702.916355 1491.432705 
L 699.115318 1491.432705 
L 695.31428 1491.432705 
L 691.513243 1491.432705 
L 687.712205 1491.432705 
L 676.309092 1491.432705 
L 672.508055 1491.432705 
L 668.707017 1491.432705 
L 664.90598 1491.432705 
L 661.104942 1491.432705 
L 649.701829 1491.432705 
L 645.900792 1491.432705 
L 642.099754 1491.432705 
L 638.298717 1491.432705 
L 634.497679 1491.432705 
L 623.094566 1491.432705 
L 619.293529 1491.432705 
L 615.492491 1491.432705 
L 611.691454 1491.432705 
L 607.890416 1491.432705 
L 596.487303 1491.432705 
L 592.686266 1491.432705 
L 588.885228 1491.432705 
L 585.084191 1491.432705 
L 581.283153 1491.432705 
L 569.88004 1491.432705 
L 566.079003 1491.432705 
L 562.277965 1491.432705 
L 558.476928 1491.432705 
L 554.67589 1491.432705 
L 543.272777 1491.432705 
L 539.47174 1491.432705 
L 535.670702 1491.432705 
L 531.869665 1491.432705 
L 516.665514 1491.432705 
L 512.864477 1491.432705 
L 509.063439 1491.432705 
L 505.262401 1491.432705 
L 501.461364 1491.432705 
L 490.058251 1491.432705 
L 486.257214 1491.432705 
L 482.456176 1491.432705 
L 478.655138 1491.432705 
L 474.854101 1491.432705 
L 463.450988 1491.432705 
L 459.649951 1491.432705 
L 455.848913 1491.432705 
L 452.047875 1491.432705 
L 448.246838 1491.432705 
L 436.843725 1491.432705 
L 433.042688 1491.432705 
L 429.24165 1491.432705 
L 425.440612 1491.432705 
L 421.639575 1491.432705 
L 410.236462 1491.432705 
L 406.435425 1491.432705 
L 402.634387 1491.432705 
L 398.833349 1491.432705 
L 395.032312 1491.432705 
L 383.629199 1491.432705 
L 379.828162 1491.432705 
L 376.027124 1491.432705 
L 372.226086 1491.432705 
L 368.425049 1491.432705 
L 357.021936 1491.432705 
L 353.220899 1491.432705 
L 349.419861 1491.432705 
L 345.618823 1491.432705 
L 341.817786 1491.432705 
L 330.414673 1491.432705 
L 326.613636 1491.432705 
L 322.812598 1491.432705 
L 319.01156 1491.432705 
L 315.210523 1491.432705 
L 303.80741 1491.432705 
L 300.006372 1491.432705 
L 296.205335 1491.432705 
L 288.60326 1491.432705 
L 277.200147 1491.432705 
L 273.399109 1491.432705 
L 269.598072 1491.432705 
L 265.797034 1491.432705 
L 261.995997 1491.432705 
L 250.592884 1491.432705 
L 246.791846 1491.432705 
L 242.990809 1491.432705 
L 239.189771 1491.432705 
L 223.985621 1491.432705 
L 220.184583 1491.432705 
L 216.383546 1491.432705 
L 212.582508 1491.432705 
L 208.781471 1491.432705 
L 197.378358 1491.432705 
L 193.57732 1491.432705 
L 189.776283 1491.432705 
L 185.975245 1491.432705 
L 182.174208 1491.432705 
L 170.771095 1491.432705 
L 166.970057 1491.432705 
L 163.16902 1491.432705 
L 159.367982 1491.432705 
L 144.163832 1491.432705 
L 140.362794 1491.432705 
L 136.561757 1491.432705 
L 132.760719 1491.432705 
L 128.959682 1491.432705 
L 117.556569 1491.432705 
L 113.755531 1491.432705 
L 109.954494 1491.432705 
z
" style="fill:#0000ff;fill-opacity:0.1;stroke:#0000ff;stroke-opacity:0.1;"/>
   </g>
   <g id="matplotlib.axis_1">
    <g id="xtick_1">
     <g id="line2d_1">
      <defs>
       <path d="M 0 0 
L 0 3.5 
" id="m8f65dc0822" style="stroke:#000000;stroke-width:0.8;"/>
      </defs>
      <g>
       <use style="stroke:#000000;stroke-width:0.8;" x="109.954494" xlink:href="#m8f65dc0822" y="385.2"/>
      </g>
     </g>
     <g id="text_1">
      <!-- 05/23 -->
      <defs>
       <path d="M 31.78125 66.40625 
Q 24.171875 66.40625 20.328125 58.90625 
Q 16.5 51.421875 16.5 36.375 
Q 16.5 21.390625 20.328125 13.890625 
Q 24.171875 6.390625 31.78125 6.390625 
Q 39.453125 6.390625 43.28125 13.890625 
Q 47.125 21.390625 47.125 36.375 
Q 47.125 51.421875 43.28125 58.90625 
Q 39.453125 66.40625 31.78125 66.40625 
z
M 31.78125 74.21875 
Q 44.046875 74.21875 50.515625 64.515625 
Q 56.984375 54.828125 56.984375 36.375 
Q 56.984375 17.96875 50.515625 8.265625 
Q 44.046875 -1.421875 31.78125 -1.421875 
Q 19.53125 -1.421875 13.0625 8.265625 
Q 6.59375 17.96875 6.59375 36.375 
Q 6.59375 54.828125 13.0625 64.515625 
Q 19.53125 74.21875 31.78125 74.21875 
z
" id="DejaVuSans-48"/>
       <path d="M 10.796875 72.90625 
L 49.515625 72.90625 
L 49.515625 64.59375 
L 19.828125 64.59375 
L 19.828125 46.734375 
Q 21.96875 47.46875 24.109375 47.828125 
Q 26.265625 48.1875 28.421875 48.1875 
Q 40.625 48.1875 47.75 41.5 
Q 54.890625 34.8125 54.890625 23.390625 
Q 54.890625 11.625 47.5625 5.09375 
Q 40.234375 -1.421875 26.90625 -1.421875 
Q 22.3125 -1.421875 17.546875 -0.640625 
Q 12.796875 0.140625 7.71875 1.703125 
L 7.71875 11.625 
Q 12.109375 9.234375 16.796875 8.0625 
Q 21.484375 6.890625 26.703125 6.890625 
Q 35.15625 6.890625 40.078125 11.328125 
Q 45.015625 15.765625 45.015625 23.390625 
Q 45.015625 31 40.078125 35.4375 
Q 35.15625 39.890625 26.703125 39.890625 
Q 22.75 39.890625 18.8125 39.015625 
Q 14.890625 38.140625 10.796875 36.28125 
z
" id="DejaVuSans-53"/>
       <path d="M 25.390625 72.90625 
L 33.6875 72.90625 
L 8.296875 -9.28125 
L 0 -9.28125 
z
" id="DejaVuSans-47"/>
       <path d="M 19.1875 8.296875 
L 53.609375 8.296875 
L 53.609375 0 
L 7.328125 0 
L 7.328125 8.296875 
Q 12.9375 14.109375 22.625 23.890625 
Q 32.328125 33.6875 34.8125 36.53125 
Q 39.546875 41.84375 41.421875 45.53125 
Q 43.3125 49.21875 43.3125 52.78125 
Q 43.3125 58.59375 39.234375 62.25 
Q 35.15625 65.921875 28.609375 65.921875 
Q 23.96875 65.921875 18.8125 64.3125 
Q 13.671875 62.703125 7.8125 59.421875 
L 7.8125 69.390625 
Q 13.765625 71.78125 18.9375 73 
Q 24.125 74.21875 28.421875 74.21875 
Q 39.75 74.21875 46.484375 68.546875 
Q 53.21875 62.890625 53.21875 53.421875 
Q 53.21875 48.921875 51.53125 44.890625 
Q 49.859375 40.875 45.40625 35.40625 
Q 44.1875 33.984375 37.640625 27.21875 
Q 31.109375 20.453125 19.1875 8.296875 
z
" id="DejaVuSans-50"/>
       <path d="M 40.578125 39.3125 
Q 47.65625 37.796875 51.625 33 
Q 55.609375 28.21875 55.609375 21.1875 
Q 55.609375 10.40625 48.1875 4.484375 
Q 40.765625 -1.421875 27.09375 -1.421875 
Q 22.515625 -1.421875 17.65625 -0.515625 
Q 12.796875 0.390625 7.625 2.203125 
L 7.625 11.71875 
Q 11.71875 9.328125 16.59375 8.109375 
Q 21.484375 6.890625 26.8125 6.890625 
Q 36.078125 6.890625 40.9375 10.546875 
Q 45.796875 14.203125 45.796875 21.1875 
Q 45.796875 27.640625 41.28125 31.265625 
Q 36.765625 34.90625 28.71875 34.90625 
L 20.21875 34.90625 
L 20.21875 43.015625 
L 29.109375 43.015625 
Q 36.375 43.015625 40.234375 45.921875 
Q 44.09375 48.828125 44.09375 54.296875 
Q 44.09375 59.90625 40.109375 62.90625 
Q 36.140625 65.921875 28.71875 65.921875 
Q 24.65625 65.921875 20.015625 65.03125 
Q 15.375 64.15625 9.8125 62.3125 
L 9.8125 71.09375 
Q 15.4375 72.65625 20.34375 73.4375 
Q 25.25 74.21875 29.59375 74.21875 
Q 40.828125 74.21875 47.359375 69.109375 
Q 53.90625 64.015625 53.90625 55.328125 
Q 53.90625 49.265625 50.4375 45.09375 
Q 46.96875 40.921875 40.578125 39.3125 
z
" id="DejaVuSans-51"/>
      </defs>
      <g transform="translate(66.726369 414.995312)scale(0.3 -0.3)">
       <use xlink:href="#DejaVuSans-48"/>
       <use x="63.623047" xlink:href="#DejaVuSans-53"/>
       <use x="127.246094" xlink:href="#DejaVuSans-47"/>
       <use x="160.9375" xlink:href="#DejaVuSans-50"/>
       <use x="224.560547" xlink:href="#DejaVuSans-51"/>
      </g>
     </g>
    </g>
    <g id="xtick_2">
     <g id="line2d_2">
      <g>
       <use style="stroke:#000000;stroke-width:0.8;" x="463.450988" xlink:href="#m8f65dc0822" y="385.2"/>
      </g>
     </g>
     <g id="text_2">
      <!-- 08/23 -->
      <defs>
       <path d="M 31.78125 34.625 
Q 24.75 34.625 20.71875 30.859375 
Q 16.703125 27.09375 16.703125 20.515625 
Q 16.703125 13.921875 20.71875 10.15625 
Q 24.75 6.390625 31.78125 6.390625 
Q 38.8125 6.390625 42.859375 10.171875 
Q 46.921875 13.96875 46.921875 20.515625 
Q 46.921875 27.09375 42.890625 30.859375 
Q 38.875 34.625 31.78125 34.625 
z
M 21.921875 38.8125 
Q 15.578125 40.375 12.03125 44.71875 
Q 8.5 49.078125 8.5 55.328125 
Q 8.5 64.0625 14.71875 69.140625 
Q 20.953125 74.21875 31.78125 74.21875 
Q 42.671875 74.21875 48.875 69.140625 
Q 55.078125 64.0625 55.078125 55.328125 
Q 55.078125 49.078125 51.53125 44.71875 
Q 48 40.375 41.703125 38.8125 
Q 48.828125 37.15625 52.796875 32.3125 
Q 56.78125 27.484375 56.78125 20.515625 
Q 56.78125 9.90625 50.3125 4.234375 
Q 43.84375 -1.421875 31.78125 -1.421875 
Q 19.734375 -1.421875 13.25 4.234375 
Q 6.78125 9.90625 6.78125 20.515625 
Q 6.78125 27.484375 10.78125 32.3125 
Q 14.796875 37.15625 21.921875 38.8125 
z
M 18.3125 54.390625 
Q 18.3125 48.734375 21.84375 45.5625 
Q 25.390625 42.390625 31.78125 42.390625 
Q 38.140625 42.390625 41.71875 45.5625 
Q 45.3125 48.734375 45.3125 54.390625 
Q 45.3125 60.0625 41.71875 63.234375 
Q 38.140625 66.40625 31.78125 66.40625 
Q 25.390625 66.40625 21.84375 63.234375 
Q 18.3125 60.0625 18.3125 54.390625 
z
" id="DejaVuSans-56"/>
      </defs>
      <g transform="translate(420.222863 414.995312)scale(0.3 -0.3)">
       <use xlink:href="#DejaVuSans-48"/>
       <use x="63.623047" xlink:href="#DejaVuSans-56"/>
       <use x="127.246094" xlink:href="#DejaVuSans-47"/>
       <use x="160.9375" xlink:href="#DejaVuSans-50"/>
       <use x="224.560547" xlink:href="#DejaVuSans-51"/>
      </g>
     </g>
    </g>
    <g id="xtick_3">
     <g id="line2d_3">
      <g>
       <use style="stroke:#000000;stroke-width:0.8;" x="805.54437" xlink:href="#m8f65dc0822" y="385.2"/>
      </g>
     </g>
     <g id="text_3">
      <!-- 11/23 -->
      <defs>
       <path d="M 12.40625 8.296875 
L 28.515625 8.296875 
L 28.515625 63.921875 
L 10.984375 60.40625 
L 10.984375 69.390625 
L 28.421875 72.90625 
L 38.28125 72.90625 
L 38.28125 8.296875 
L 54.390625 8.296875 
L 54.390625 0 
L 12.40625 0 
z
" id="DejaVuSans-49"/>
      </defs>
      <g transform="translate(762.316245 414.995312)scale(0.3 -0.3)">
       <use xlink:href="#DejaVuSans-49"/>
       <use x="63.623047" xlink:href="#DejaVuSans-49"/>
       <use x="127.246094" xlink:href="#DejaVuSans-47"/>
       <use x="160.9375" xlink:href="#DejaVuSans-50"/>
       <use x="224.560547" xlink:href="#DejaVuSans-51"/>
      </g>
     </g>
    </g>
   </g>
   <g id="matplotlib.axis_2">
    <g id="ytick_1">
     <g id="line2d_4">
      <defs>
       <path d="M 0 0 
L -3.5 0 
" id="m6563b2b956" style="stroke:#000000;stroke-width:0.8;"/>
      </defs>
      <g>
       <use style="stroke:#000000;stroke-width:0.8;" x="75.175" xlink:href="#m6563b2b956" y="337.002519"/>
      </g>
     </g>
     <g id="text_4">
      <!-- 120 -->
      <g transform="translate(10.9125 348.400175)scale(0.3 -0.3)">
       <use xlink:href="#DejaVuSans-49"/>
       <use x="63.623047" xlink:href="#DejaVuSans-50"/>
       <use x="127.246094" xlink:href="#DejaVuSans-48"/>
      </g>
     </g>
    </g>
    <g id="ytick_2">
     <g id="line2d_5">
      <g>
       <use style="stroke:#000000;stroke-width:0.8;" x="75.175" xlink:href="#m6563b2b956" y="192.698746"/>
      </g>
     </g>
     <g id="text_5">
      <!-- 135 -->
      <g transform="translate(10.9125 204.096402)scale(0.3 -0.3)">
       <use xlink:href="#DejaVuSans-49"/>
       <use x="63.623047" xlink:href="#DejaVuSans-51"/>
       <use x="127.246094" xlink:href="#DejaVuSans-53"/>
      </g>
     </g>
    </g>
   </g>
   <g id="line2d_6">
    <path clip-path="url(#p210a4de663)" d="M 109.954494 380.293651 
L 113.755531 354.79997 
L 117.556569 373.078463 
L 128.959682 385.007554 
L 132.760719 385.2 
L 136.561757 368.268337 
L 140.362794 385.103777 
L 144.163832 335.944286 
L 159.367982 321.032866 
L 163.16902 331.422756 
L 166.970057 310.354455 
L 170.771095 296.11645 
L 182.174208 286.015157 
L 185.975245 273.412651 
L 189.776283 325.169578 
L 193.57732 296.11645 
L 197.378358 304.005053 
L 208.781471 273.797469 
L 212.582508 272.931609 
L 216.383546 275.240522 
L 220.184583 268.602525 
L 223.985621 284.187359 
L 239.189771 281.397477 
L 242.990809 290.536687 
L 246.791846 239.357025 
L 250.592884 247.245555 
L 261.995997 266.486058 
L 265.797034 248.68868 
L 269.598072 250.03551 
L 273.399109 261.002517 
L 277.200147 237.336707 
L 288.60326 238.683537 
L 296.205335 237.144261 
L 300.006372 256.57721 
L 303.80741 242.916471 
L 315.210523 268.410152 
L 319.01156 252.536722 
L 322.812598 233.103773 
L 326.613636 199.432893 
L 330.414673 195.777297 
L 341.817786 206.551932 
L 345.618823 213.574674 
L 349.419861 189.23545 
L 353.220899 241.184749 
L 357.021936 240.800004 
L 368.425049 252.344276 
L 372.226086 249.169576 
L 376.027124 258.597528 
L 379.828162 257.635444 
L 383.629199 219.539183 
L 395.032312 205.397549 
L 398.833349 224.541755 
L 402.634387 258.020189 
L 406.435425 251.286043 
L 410.236462 148.734126 
L 421.639575 123.240518 
L 425.440612 145.17468 
L 429.24165 165.28097 
L 433.042688 158.450674 
L 436.843725 159.893653 
L 448.246838 139.113874 
L 452.047875 167.012692 
L 455.848913 192.025258 
L 459.649951 202.511444 
L 463.450988 209.822782 
L 474.854101 195.777297 
L 478.655138 199.913935 
L 482.456176 187.696174 
L 486.257214 223.098776 
L 490.058251 209.438037 
L 501.461364 210.59242 
L 505.262401 193.564533 
L 509.063439 192.025258 
L 512.864477 163.741842 
L 516.665514 162.683608 
L 531.869665 170.860734 
L 535.670702 189.23545 
L 539.47174 165.28097 
L 543.272777 161.625375 
L 554.67589 114.77465 
L 558.476928 132.76462 
L 562.277965 97.93921 
L 566.079003 99.189889 
L 569.88004 140.845596 
L 581.283153 144.789934 
L 588.885228 189.908938 
L 592.686266 247.245555 
L 596.487303 249.265872 
L 607.890416 228.582243 
L 611.691454 279.473383 
L 619.293529 279.473383 
L 623.094566 268.506302 
L 634.497679 245.994875 
L 638.298717 291.59492 
L 642.099754 269.660758 
L 645.900792 279.665829 
L 649.701829 260.425326 
L 661.104942 257.539294 
L 664.90598 245.802576 
L 668.707017 223.194926 
L 672.508055 218.3848 
L 676.309092 242.820321 
L 687.712205 216.268333 
L 691.513243 226.658222 
L 695.31428 258.789827 
L 699.115318 256.192465 
L 702.916355 287.265836 
L 714.319468 273.893693 
L 718.120506 254.653189 
L 721.921543 323.630375 
L 725.722581 341.13923 
L 729.523618 262.541793 
L 740.926731 214.729057 
L 744.727769 211.073462 
L 748.528806 173.458243 
L 752.329844 163.164503 
L 756.130881 158.065782 
L 767.533994 147.098701 
L 771.335032 118.526542 
L 775.136069 124.587347 
L 778.937107 138.825279 
L 782.738144 110.349416 
L 794.141257 119.681072 
L 797.942295 88.8 
L 801.743332 113.812713 
L 805.54437 117.372159 
L 805.54437 117.372159 
" style="fill:none;stroke:#000000;stroke-linecap:square;stroke-width:4;"/>
   </g>
   <g id="patch_3">
    <path d="M 75.175 385.2 
L 75.175 88.8 
" style="fill:none;stroke:#000000;stroke-linecap:square;stroke-linejoin:miter;stroke-width:0.8;"/>
   </g>
   <g id="patch_4">
    <path d="M 75.175 385.2 
L 840.323864 385.2 
" style="fill:none;stroke:#000000;stroke-linecap:square;stroke-linejoin:miter;stroke-width:0.8;"/>
   </g>
   <g id="text_6">
    <!-- AMZN   23% -->
    <defs>
     <path d="M 53.421875 13.28125 
L 24.03125 13.28125 
L 19.390625 0 
L 0.484375 0 
L 27.484375 72.90625 
L 49.90625 72.90625 
L 76.90625 0 
L 58.015625 0 
z
M 28.71875 26.8125 
L 48.6875 26.8125 
L 38.71875 55.8125 
z
" id="DejaVuSans-Bold-65"/>
     <path d="M 9.1875 72.90625 
L 33.109375 72.90625 
L 49.703125 33.890625 
L 66.40625 72.90625 
L 90.28125 72.90625 
L 90.28125 0 
L 72.515625 0 
L 72.515625 53.328125 
L 55.71875 14.015625 
L 43.796875 14.015625 
L 27 53.328125 
L 27 0 
L 9.1875 0 
z
" id="DejaVuSans-Bold-77"/>
     <path d="M 5.609375 72.90625 
L 66.890625 72.90625 
L 66.890625 61.53125 
L 27.78125 14.203125 
L 68.015625 14.203125 
L 68.015625 0 
L 4.5 0 
L 4.5 11.375 
L 43.609375 58.6875 
L 5.609375 58.6875 
z
" id="DejaVuSans-Bold-90"/>
     <path d="M 9.1875 72.90625 
L 30.171875 72.90625 
L 56.6875 22.90625 
L 56.6875 72.90625 
L 74.515625 72.90625 
L 74.515625 0 
L 53.515625 0 
L 27 50 
L 27 0 
L 9.1875 0 
z
" id="DejaVuSans-Bold-78"/>
     <path id="DejaVuSans-Bold-32"/>
     <path d="M 28.8125 13.8125 
L 60.890625 13.8125 
L 60.890625 0 
L 7.90625 0 
L 7.90625 13.8125 
L 34.515625 37.3125 
Q 38.09375 40.53125 39.796875 43.609375 
Q 41.5 46.6875 41.5 50 
Q 41.5 55.125 38.0625 58.25 
Q 34.625 61.375 28.90625 61.375 
Q 24.515625 61.375 19.28125 59.5 
Q 14.0625 57.625 8.109375 53.90625 
L 8.109375 69.921875 
Q 14.453125 72.015625 20.65625 73.109375 
Q 26.859375 74.21875 32.8125 74.21875 
Q 45.90625 74.21875 53.15625 68.453125 
Q 60.40625 62.703125 60.40625 52.390625 
Q 60.40625 46.4375 57.328125 41.28125 
Q 54.25 36.140625 44.390625 27.484375 
z
" id="DejaVuSans-Bold-50"/>
     <path d="M 46.578125 39.3125 
Q 53.953125 37.40625 57.78125 32.6875 
Q 61.625 27.984375 61.625 20.703125 
Q 61.625 9.859375 53.3125 4.21875 
Q 45.015625 -1.421875 29.109375 -1.421875 
Q 23.484375 -1.421875 17.84375 -0.515625 
Q 12.203125 0.390625 6.6875 2.203125 
L 6.6875 16.703125 
Q 11.96875 14.0625 17.15625 12.71875 
Q 22.359375 11.375 27.390625 11.375 
Q 34.859375 11.375 38.84375 13.953125 
Q 42.828125 16.546875 42.828125 21.390625 
Q 42.828125 26.375 38.75 28.9375 
Q 34.671875 31.5 26.703125 31.5 
L 19.1875 31.5 
L 19.1875 43.609375 
L 27.09375 43.609375 
Q 34.1875 43.609375 37.640625 45.828125 
Q 41.109375 48.046875 41.109375 52.59375 
Q 41.109375 56.78125 37.734375 59.078125 
Q 34.375 61.375 28.21875 61.375 
Q 23.6875 61.375 19.046875 60.34375 
Q 14.40625 59.328125 9.8125 57.328125 
L 9.8125 71.09375 
Q 15.375 72.65625 20.84375 73.4375 
Q 26.3125 74.21875 31.59375 74.21875 
Q 45.796875 74.21875 52.84375 69.546875 
Q 59.90625 64.890625 59.90625 55.515625 
Q 59.90625 49.125 56.53125 45.046875 
Q 53.171875 40.96875 46.578125 39.3125 
z
" id="DejaVuSans-Bold-51"/>
     <path d="M 77.484375 30.078125 
Q 74.03125 30.078125 72.125 27.078125 
Q 70.21875 24.078125 70.21875 18.5 
Q 70.21875 12.890625 72.09375 9.890625 
Q 73.96875 6.890625 77.484375 6.890625 
Q 81 6.890625 82.859375 9.890625 
Q 84.71875 12.890625 84.71875 18.5 
Q 84.71875 24.078125 82.828125 27.078125 
Q 80.953125 30.078125 77.484375 30.078125 
z
M 77.484375 38.28125 
Q 86.578125 38.28125 91.796875 33 
Q 97.015625 27.734375 97.015625 18.5 
Q 97.015625 9.28125 91.796875 3.921875 
Q 86.578125 -1.421875 77.484375 -1.421875 
Q 68.40625 -1.421875 63.15625 3.921875 
Q 57.90625 9.28125 57.90625 18.5 
Q 57.90625 27.6875 63.15625 32.984375 
Q 68.40625 38.28125 77.484375 38.28125 
z
M 32.71875 -1.421875 
L 21.921875 -1.421875 
L 67.484375 74.21875 
L 78.328125 74.21875 
z
M 22.703125 74.21875 
Q 31.78125 74.21875 36.984375 68.921875 
Q 42.1875 63.625 42.1875 54.390625 
Q 42.1875 45.171875 36.984375 39.84375 
Q 31.78125 34.515625 22.703125 34.515625 
Q 13.625 34.515625 8.421875 39.84375 
Q 3.21875 45.171875 3.21875 54.390625 
Q 3.21875 63.625 8.421875 68.921875 
Q 13.625 74.21875 22.703125 74.21875 
z
M 22.703125 66.015625 
Q 19.1875 66.015625 17.28125 62.984375 
Q 15.375 59.96875 15.375 54.390625 
Q 15.375 48.78125 17.28125 45.71875 
Q 19.1875 42.671875 22.703125 42.671875 
Q 26.21875 42.671875 28.09375 45.71875 
Q 29.984375 48.78125 29.984375 54.390625 
Q 29.984375 59.96875 28.078125 62.984375 
Q 26.171875 66.015625 22.703125 66.015625 
z
" id="DejaVuSans-Bold-37"/>
    </defs>
    <g transform="translate(75.175 72.1625)scale(0.8 -0.8)">
     <use xlink:href="#DejaVuSans-Bold-65"/>
     <use x="77.392578" xlink:href="#DejaVuSans-Bold-77"/>
     <use x="176.904297" xlink:href="#DejaVuSans-Bold-90"/>
     <use x="249.414062" xlink:href="#DejaVuSans-Bold-78"/>
     <use x="333.105469" xlink:href="#DejaVuSans-Bold-32"/>
     <use x="367.919922" xlink:href="#DejaVuSans-Bold-32"/>
     <use x="402.734375" xlink:href="#DejaVuSans-Bold-32"/>
     <use x="437.548828" xlink:href="#DejaVuSans-Bold-50"/>
     <use x="507.128906" xlink:href="#DejaVuSans-Bold-51"/>
     <use x="576.708984" xlink:href="#DejaVuSans-Bold-37"/>
    </g>
   </g>
  </g>
 </g>
 <defs>
  <clipPath id="p210a4de663">
   <rect height="296.4" width="765.148864" x="75.175" y="88.8"/>
  </clipPath>
 </defs>
</svg>
