<?xml version="1.0" encoding="utf-8" standalone="no"?>
<!DOCTYPE svg PUBLIC "-//W3C//DTD SVG 1.1//EN"
  "http://www.w3.org/Graphics/SVG/1.1/DTD/svg11.dtd">
<!-- Created with matplotlib (https://matplotlib.org/) -->
<svg height="432pt" version="1.1" viewBox="0 0 864 432" width="864pt" xmlns="http://www.w3.org/2000/svg" xmlns:xlink="http://www.w3.org/1999/xlink">
 <defs>
  <style type="text/css">
*{stroke-linecap:butt;stroke-linejoin:round;}
  </style>
 </defs>
 <g id="figure_1">
  <g id="patch_1">
   <path d="M 0 432 
L 864 432 
L 864 0 
L 0 0 
z
" style="fill:none;"/>
  </g>
  <g id="axes_1">
   <g id="patch_2">
    <path d="M 75.175 385.2 
L 840.323864 385.2 
L 840.323864 88.8 
L 75.175 88.8 
z
" style="fill:none;"/>
   </g>
   <g id="PolyCollection_1">
    <path clip-path="url(#p2be122fcc5)" d="M 109.954494 892.44474 
L 109.954494 384.042342 
L 113.734874 385.2 
L 117.515253 364.175261 
L 121.295633 355.025971 
L 132.636772 349.573766 
L 136.417152 367.872346 
L 140.197532 365.071539 
L 143.977912 309.130113 
L 147.758291 256.288196 
L 162.87981 241.089182 
L 166.66019 271.263211 
L 170.44057 269.993526 
L 174.22095 285.603327 
L 185.562089 285.117836 
L 189.342469 296.134387 
L 193.122849 311.408105 
L 196.903228 286.275493 
L 200.683608 285.528623 
L 212.024747 257.595262 
L 215.805127 262.823411 
L 219.585507 261.030911 
L 223.365887 281.980946 
L 227.146266 303.192417 
L 242.267785 315.478596 
L 246.048165 326.644499 
L 249.828545 320.183931 
L 253.608925 336.690011 
L 264.950064 329.221193 
L 268.730444 309.391492 
L 272.510824 310.399798 
L 276.291203 297.590804 
L 280.071583 287.246476 
L 291.412722 295.312812 
L 298.973482 296.134387 
L 302.753862 299.047221 
L 306.534241 302.408166 
L 317.875381 296.619821 
L 321.65576 294.304506 
L 325.43614 279.852363 
L 329.21652 262.786087 
L 332.9969 274.101341 
L 344.338039 256.026817 
L 348.118419 244.487508 
L 351.898799 234.217884 
L 355.679178 252.329732 
L 359.459558 251.470834 
L 370.800697 251.172074 
L 374.581077 242.321544 
L 378.361457 278.321241 
L 382.141837 291.242264 
L 385.922216 328.212944 
L 397.263356 313.275309 
L 401.043735 199.30114 
L 404.824115 230.408771 
L 408.604495 228.616271 
L 412.384875 221.744915 
L 423.726014 222.977277 
L 427.506394 218.570702 
L 431.286773 229.736548 
L 435.067153 234.068475 
L 438.847533 239.147274 
L 450.188672 227.271881 
L 453.969052 221.558241 
L 457.749432 215.135053 
L 461.529812 209.944227 
L 465.310191 218.234619 
L 476.651331 202.811493 
L 480.43171 192.168405 
L 484.21209 183.54193 
L 487.99247 223.276037 
L 491.77285 216.89023 
L 503.113989 212.931709 
L 506.894369 199.898659 
L 510.674748 193.73685 
L 514.455128 163.376146 
L 518.235508 155.421837 
L 533.357027 155.048374 
L 537.137407 154.749671 
L 540.917787 162.218489 
L 544.698166 158.745459 
L 556.039306 170.994315 
L 559.819685 186.529469 
L 563.600065 190.039822 
L 567.380445 192.019054 
L 571.160825 202.624761 
L 582.501964 197.770018 
L 586.282344 202.213974 
L 590.062723 209.981551 
L 593.843103 228.242807 
L 597.623483 218.981489 
L 608.964622 215.8446 
L 612.745002 228.018752 
L 616.525382 214.276098 
L 620.305762 203.707772 
L 624.086141 205.574976 
L 635.427281 191.085452 
L 639.20766 201.989918 
L 642.98804 197.732695 
L 646.76842 190.263877 
L 650.5488 167.894749 
L 661.889939 159.006895 
L 665.670319 165.243351 
L 669.450698 175.961085 
L 673.231078 171.666538 
L 677.011458 183.467226 
L 688.352597 157.363746 
L 692.132977 162.703923 
L 695.913357 167.222583 
L 699.693737 177.380179 
L 703.474116 197.433935 
L 714.815256 195.902814 
L 718.595635 181.077207 
L 722.376015 197.508639 
L 726.156395 258.267428 
L 729.936775 234.479263 
L 741.277914 236.234439 
L 745.058294 144.181288 
L 748.838673 105.082024 
L 752.619053 101.945135 
L 756.399433 98.920216 
L 767.740572 97.725235 
L 771.520952 98.509428 
L 775.301332 109.712655 
L 779.081712 102.094486 
L 782.862091 120.019659 
L 794.203231 107.173284 
L 797.98361 88.8 
L 801.76399 94.252205 
L 805.54437 96.324831 
L 805.54437 892.44474 
L 805.54437 892.44474 
L 801.76399 892.44474 
L 797.98361 892.44474 
L 794.203231 892.44474 
L 782.862091 892.44474 
L 779.081712 892.44474 
L 775.301332 892.44474 
L 771.520952 892.44474 
L 767.740572 892.44474 
L 756.399433 892.44474 
L 752.619053 892.44474 
L 748.838673 892.44474 
L 745.058294 892.44474 
L 741.277914 892.44474 
L 729.936775 892.44474 
L 726.156395 892.44474 
L 722.376015 892.44474 
L 718.595635 892.44474 
L 714.815256 892.44474 
L 703.474116 892.44474 
L 699.693737 892.44474 
L 695.913357 892.44474 
L 692.132977 892.44474 
L 688.352597 892.44474 
L 677.011458 892.44474 
L 673.231078 892.44474 
L 669.450698 892.44474 
L 665.670319 892.44474 
L 661.889939 892.44474 
L 650.5488 892.44474 
L 646.76842 892.44474 
L 642.98804 892.44474 
L 639.20766 892.44474 
L 635.427281 892.44474 
L 624.086141 892.44474 
L 620.305762 892.44474 
L 616.525382 892.44474 
L 612.745002 892.44474 
L 608.964622 892.44474 
L 597.623483 892.44474 
L 593.843103 892.44474 
L 590.062723 892.44474 
L 586.282344 892.44474 
L 582.501964 892.44474 
L 571.160825 892.44474 
L 567.380445 892.44474 
L 563.600065 892.44474 
L 559.819685 892.44474 
L 556.039306 892.44474 
L 544.698166 892.44474 
L 540.917787 892.44474 
L 537.137407 892.44474 
L 533.357027 892.44474 
L 518.235508 892.44474 
L 514.455128 892.44474 
L 510.674748 892.44474 
L 506.894369 892.44474 
L 503.113989 892.44474 
L 491.77285 892.44474 
L 487.99247 892.44474 
L 484.21209 892.44474 
L 480.43171 892.44474 
L 476.651331 892.44474 
L 465.310191 892.44474 
L 461.529812 892.44474 
L 457.749432 892.44474 
L 453.969052 892.44474 
L 450.188672 892.44474 
L 438.847533 892.44474 
L 435.067153 892.44474 
L 431.286773 892.44474 
L 427.506394 892.44474 
L 423.726014 892.44474 
L 412.384875 892.44474 
L 408.604495 892.44474 
L 404.824115 892.44474 
L 401.043735 892.44474 
L 397.263356 892.44474 
L 385.922216 892.44474 
L 382.141837 892.44474 
L 378.361457 892.44474 
L 374.581077 892.44474 
L 370.800697 892.44474 
L 359.459558 892.44474 
L 355.679178 892.44474 
L 351.898799 892.44474 
L 348.118419 892.44474 
L 344.338039 892.44474 
L 332.9969 892.44474 
L 329.21652 892.44474 
L 325.43614 892.44474 
L 321.65576 892.44474 
L 317.875381 892.44474 
L 306.534241 892.44474 
L 302.753862 892.44474 
L 298.973482 892.44474 
L 291.412722 892.44474 
L 280.071583 892.44474 
L 276.291203 892.44474 
L 272.510824 892.44474 
L 268.730444 892.44474 
L 264.950064 892.44474 
L 253.608925 892.44474 
L 249.828545 892.44474 
L 246.048165 892.44474 
L 242.267785 892.44474 
L 227.146266 892.44474 
L 223.365887 892.44474 
L 219.585507 892.44474 
L 215.805127 892.44474 
L 212.024747 892.44474 
L 200.683608 892.44474 
L 196.903228 892.44474 
L 193.122849 892.44474 
L 189.342469 892.44474 
L 185.562089 892.44474 
L 174.22095 892.44474 
L 170.44057 892.44474 
L 166.66019 892.44474 
L 162.87981 892.44474 
L 147.758291 892.44474 
L 143.977912 892.44474 
L 140.197532 892.44474 
L 136.417152 892.44474 
L 132.636772 892.44474 
L 121.295633 892.44474 
L 117.515253 892.44474 
L 113.734874 892.44474 
L 109.954494 892.44474 
z
" style="fill:#0000ff;fill-opacity:0.1;stroke:#0000ff;stroke-opacity:0.1;"/>
   </g>
   <g id="matplotlib.axis_1">
    <g id="xtick_1">
     <g id="line2d_1">
      <defs>
       <path d="M 0 0 
L 0 3.5 
" id="mb9c812450d" style="stroke:#000000;stroke-width:0.8;"/>
      </defs>
      <g>
       <use style="stroke:#000000;stroke-width:0.8;" x="109.954494" xlink:href="#mb9c812450d" y="385.2"/>
      </g>
     </g>
     <g id="text_1">
      <!-- 05/23 -->
      <defs>
       <path d="M 31.78125 66.40625 
Q 24.171875 66.40625 20.328125 58.90625 
Q 16.5 51.421875 16.5 36.375 
Q 16.5 21.390625 20.328125 13.890625 
Q 24.171875 6.390625 31.78125 6.390625 
Q 39.453125 6.390625 43.28125 13.890625 
Q 47.125 21.390625 47.125 36.375 
Q 47.125 51.421875 43.28125 58.90625 
Q 39.453125 66.40625 31.78125 66.40625 
z
M 31.78125 74.21875 
Q 44.046875 74.21875 50.515625 64.515625 
Q 56.984375 54.828125 56.984375 36.375 
Q 56.984375 17.96875 50.515625 8.265625 
Q 44.046875 -1.421875 31.78125 -1.421875 
Q 19.53125 -1.421875 13.0625 8.265625 
Q 6.59375 17.96875 6.59375 36.375 
Q 6.59375 54.828125 13.0625 64.515625 
Q 19.53125 74.21875 31.78125 74.21875 
z
" id="DejaVuSans-48"/>
       <path d="M 10.796875 72.90625 
L 49.515625 72.90625 
L 49.515625 64.59375 
L 19.828125 64.59375 
L 19.828125 46.734375 
Q 21.96875 47.46875 24.109375 47.828125 
Q 26.265625 48.1875 28.421875 48.1875 
Q 40.625 48.1875 47.75 41.5 
Q 54.890625 34.8125 54.890625 23.390625 
Q 54.890625 11.625 47.5625 5.09375 
Q 40.234375 -1.421875 26.90625 -1.421875 
Q 22.3125 -1.421875 17.546875 -0.640625 
Q 12.796875 0.140625 7.71875 1.703125 
L 7.71875 11.625 
Q 12.109375 9.234375 16.796875 8.0625 
Q 21.484375 6.890625 26.703125 6.890625 
Q 35.15625 6.890625 40.078125 11.328125 
Q 45.015625 15.765625 45.015625 23.390625 
Q 45.015625 31 40.078125 35.4375 
Q 35.15625 39.890625 26.703125 39.890625 
Q 22.75 39.890625 18.8125 39.015625 
Q 14.890625 38.140625 10.796875 36.28125 
z
" id="DejaVuSans-53"/>
       <path d="M 25.390625 72.90625 
L 33.6875 72.90625 
L 8.296875 -9.28125 
L 0 -9.28125 
z
" id="DejaVuSans-47"/>
       <path d="M 19.1875 8.296875 
L 53.609375 8.296875 
L 53.609375 0 
L 7.328125 0 
L 7.328125 8.296875 
Q 12.9375 14.109375 22.625 23.890625 
Q 32.328125 33.6875 34.8125 36.53125 
Q 39.546875 41.84375 41.421875 45.53125 
Q 43.3125 49.21875 43.3125 52.78125 
Q 43.3125 58.59375 39.234375 62.25 
Q 35.15625 65.921875 28.609375 65.921875 
Q 23.96875 65.921875 18.8125 64.3125 
Q 13.671875 62.703125 7.8125 59.421875 
L 7.8125 69.390625 
Q 13.765625 71.78125 18.9375 73 
Q 24.125 74.21875 28.421875 74.21875 
Q 39.75 74.21875 46.484375 68.546875 
Q 53.21875 62.890625 53.21875 53.421875 
Q 53.21875 48.921875 51.53125 44.890625 
Q 49.859375 40.875 45.40625 35.40625 
Q 44.1875 33.984375 37.640625 27.21875 
Q 31.109375 20.453125 19.1875 8.296875 
z
" id="DejaVuSans-50"/>
       <path d="M 40.578125 39.3125 
Q 47.65625 37.796875 51.625 33 
Q 55.609375 28.21875 55.609375 21.1875 
Q 55.609375 10.40625 48.1875 4.484375 
Q 40.765625 -1.421875 27.09375 -1.421875 
Q 22.515625 -1.421875 17.65625 -0.515625 
Q 12.796875 0.390625 7.625 2.203125 
L 7.625 11.71875 
Q 11.71875 9.328125 16.59375 8.109375 
Q 21.484375 6.890625 26.8125 6.890625 
Q 36.078125 6.890625 40.9375 10.546875 
Q 45.796875 14.203125 45.796875 21.1875 
Q 45.796875 27.640625 41.28125 31.265625 
Q 36.765625 34.90625 28.71875 34.90625 
L 20.21875 34.90625 
L 20.21875 43.015625 
L 29.109375 43.015625 
Q 36.375 43.015625 40.234375 45.921875 
Q 44.09375 48.828125 44.09375 54.296875 
Q 44.09375 59.90625 40.109375 62.90625 
Q 36.140625 65.921875 28.71875 65.921875 
Q 24.65625 65.921875 20.015625 65.03125 
Q 15.375 64.15625 9.8125 62.3125 
L 9.8125 71.09375 
Q 15.4375 72.65625 20.34375 73.4375 
Q 25.25 74.21875 29.59375 74.21875 
Q 40.828125 74.21875 47.359375 69.109375 
Q 53.90625 64.015625 53.90625 55.328125 
Q 53.90625 49.265625 50.4375 45.09375 
Q 46.96875 40.921875 40.578125 39.3125 
z
" id="DejaVuSans-51"/>
      </defs>
      <g transform="translate(66.726369 414.995312)scale(0.3 -0.3)">
       <use xlink:href="#DejaVuSans-48"/>
       <use x="63.623047" xlink:href="#DejaVuSans-53"/>
       <use x="127.246094" xlink:href="#DejaVuSans-47"/>
       <use x="160.9375" xlink:href="#DejaVuSans-50"/>
       <use x="224.560547" xlink:href="#DejaVuSans-51"/>
      </g>
     </g>
    </g>
    <g id="xtick_2">
     <g id="line2d_2">
      <g>
       <use style="stroke:#000000;stroke-width:0.8;" x="461.529812" xlink:href="#mb9c812450d" y="385.2"/>
      </g>
     </g>
     <g id="text_2">
      <!-- 08/23 -->
      <defs>
       <path d="M 31.78125 34.625 
Q 24.75 34.625 20.71875 30.859375 
Q 16.703125 27.09375 16.703125 20.515625 
Q 16.703125 13.921875 20.71875 10.15625 
Q 24.75 6.390625 31.78125 6.390625 
Q 38.8125 6.390625 42.859375 10.171875 
Q 46.921875 13.96875 46.921875 20.515625 
Q 46.921875 27.09375 42.890625 30.859375 
Q 38.875 34.625 31.78125 34.625 
z
M 21.921875 38.8125 
Q 15.578125 40.375 12.03125 44.71875 
Q 8.5 49.078125 8.5 55.328125 
Q 8.5 64.0625 14.71875 69.140625 
Q 20.953125 74.21875 31.78125 74.21875 
Q 42.671875 74.21875 48.875 69.140625 
Q 55.078125 64.0625 55.078125 55.328125 
Q 55.078125 49.078125 51.53125 44.71875 
Q 48 40.375 41.703125 38.8125 
Q 48.828125 37.15625 52.796875 32.3125 
Q 56.78125 27.484375 56.78125 20.515625 
Q 56.78125 9.90625 50.3125 4.234375 
Q 43.84375 -1.421875 31.78125 -1.421875 
Q 19.734375 -1.421875 13.25 4.234375 
Q 6.78125 9.90625 6.78125 20.515625 
Q 6.78125 27.484375 10.78125 32.3125 
Q 14.796875 37.15625 21.921875 38.8125 
z
M 18.3125 54.390625 
Q 18.3125 48.734375 21.84375 45.5625 
Q 25.390625 42.390625 31.78125 42.390625 
Q 38.140625 42.390625 41.71875 45.5625 
Q 45.3125 48.734375 45.3125 54.390625 
Q 45.3125 60.0625 41.71875 63.234375 
Q 38.140625 66.40625 31.78125 66.40625 
Q 25.390625 66.40625 21.84375 63.234375 
Q 18.3125 60.0625 18.3125 54.390625 
z
" id="DejaVuSans-56"/>
      </defs>
      <g transform="translate(418.301687 414.995312)scale(0.3 -0.3)">
       <use xlink:href="#DejaVuSans-48"/>
       <use x="63.623047" xlink:href="#DejaVuSans-56"/>
       <use x="127.246094" xlink:href="#DejaVuSans-47"/>
       <use x="160.9375" xlink:href="#DejaVuSans-50"/>
       <use x="224.560547" xlink:href="#DejaVuSans-51"/>
      </g>
     </g>
    </g>
    <g id="xtick_3">
     <g id="line2d_3">
      <g>
       <use style="stroke:#000000;stroke-width:0.8;" x="805.54437" xlink:href="#mb9c812450d" y="385.2"/>
      </g>
     </g>
     <g id="text_3">
      <!-- 11/23 -->
      <defs>
       <path d="M 12.40625 8.296875 
L 28.515625 8.296875 
L 28.515625 63.921875 
L 10.984375 60.40625 
L 10.984375 69.390625 
L 28.421875 72.90625 
L 38.28125 72.90625 
L 38.28125 8.296875 
L 54.390625 8.296875 
L 54.390625 0 
L 12.40625 0 
z
" id="DejaVuSans-49"/>
      </defs>
      <g transform="translate(762.316245 414.995312)scale(0.3 -0.3)">
       <use xlink:href="#DejaVuSans-49"/>
       <use x="63.623047" xlink:href="#DejaVuSans-49"/>
       <use x="127.246094" xlink:href="#DejaVuSans-47"/>
       <use x="160.9375" xlink:href="#DejaVuSans-50"/>
       <use x="224.560547" xlink:href="#DejaVuSans-51"/>
      </g>
     </g>
    </g>
   </g>
   <g id="matplotlib.axis_2">
    <g id="ytick_1">
     <g id="line2d_4">
      <defs>
       <path d="M 0 0 
L -3.5 0 
" id="m4a7eaeb6c6" style="stroke:#000000;stroke-width:0.8;"/>
      </defs>
      <g>
       <use style="stroke:#000000;stroke-width:0.8;" x="75.175" xlink:href="#m4a7eaeb6c6" y="332.283436"/>
      </g>
     </g>
     <g id="text_4">
      <!-- 150 -->
      <g transform="translate(10.9125 343.681092)scale(0.3 -0.3)">
       <use xlink:href="#DejaVuSans-49"/>
       <use x="63.623047" xlink:href="#DejaVuSans-53"/>
       <use x="127.246094" xlink:href="#DejaVuSans-48"/>
      </g>
     </g>
    </g>
    <g id="ytick_2">
     <g id="line2d_5">
      <g>
       <use style="stroke:#000000;stroke-width:0.8;" x="75.175" xlink:href="#m4a7eaeb6c6" y="220.251175"/>
      </g>
     </g>
     <g id="text_5">
      <!-- 180 -->
      <g transform="translate(10.9125 231.648831)scale(0.3 -0.3)">
       <use xlink:href="#DejaVuSans-49"/>
       <use x="63.623047" xlink:href="#DejaVuSans-56"/>
       <use x="127.246094" xlink:href="#DejaVuSans-48"/>
      </g>
     </g>
    </g>
    <g id="ytick_3">
     <g id="line2d_6">
      <g>
       <use style="stroke:#000000;stroke-width:0.8;" x="75.175" xlink:href="#m4a7eaeb6c6" y="108.218914"/>
      </g>
     </g>
     <g id="text_6">
      <!-- 210 -->
      <g transform="translate(10.9125 119.61657)scale(0.3 -0.3)">
       <use xlink:href="#DejaVuSans-50"/>
       <use x="63.623047" xlink:href="#DejaVuSans-49"/>
       <use x="127.246094" xlink:href="#DejaVuSans-48"/>
      </g>
     </g>
    </g>
   </g>
   <g id="line2d_7">
    <path clip-path="url(#p2be122fcc5)" d="M 109.954494 384.042342 
L 113.734874 385.2 
L 117.515253 364.175261 
L 121.295633 355.025971 
L 132.636772 349.573766 
L 136.417152 367.872346 
L 140.197532 365.071539 
L 143.977912 309.130113 
L 147.758291 256.288196 
L 162.87981 241.089182 
L 166.66019 271.263211 
L 170.44057 269.993526 
L 174.22095 285.603327 
L 185.562089 285.117836 
L 189.342469 296.134387 
L 193.122849 311.408105 
L 196.903228 286.275493 
L 200.683608 285.528623 
L 212.024747 257.595262 
L 215.805127 262.823411 
L 219.585507 261.030911 
L 227.146266 303.192417 
L 242.267785 315.478596 
L 246.048165 326.644499 
L 249.828545 320.183931 
L 253.608925 336.690011 
L 264.950064 329.221193 
L 268.730444 309.391492 
L 272.510824 310.399798 
L 276.291203 297.590804 
L 280.071583 287.246476 
L 291.412722 295.312812 
L 298.973482 296.134387 
L 302.753862 299.047221 
L 306.534241 302.408166 
L 317.875381 296.619821 
L 321.65576 294.304506 
L 325.43614 279.852363 
L 329.21652 262.786087 
L 332.9969 274.101341 
L 344.338039 256.026817 
L 348.118419 244.487508 
L 351.898799 234.217884 
L 355.679178 252.329732 
L 359.459558 251.470834 
L 370.800697 251.172074 
L 374.581077 242.321544 
L 378.361457 278.321241 
L 382.141837 291.242264 
L 385.922216 328.212944 
L 397.263356 313.275309 
L 401.043735 199.30114 
L 404.824115 230.408771 
L 408.604495 228.616271 
L 412.384875 221.744915 
L 423.726014 222.977277 
L 427.506394 218.570702 
L 431.286773 229.736548 
L 435.067153 234.068475 
L 438.847533 239.147274 
L 450.188672 227.271881 
L 453.969052 221.558241 
L 457.749432 215.135053 
L 461.529812 209.944227 
L 465.310191 218.234619 
L 476.651331 202.811493 
L 480.43171 192.168405 
L 484.21209 183.54193 
L 487.99247 223.276037 
L 491.77285 216.89023 
L 503.113989 212.931709 
L 506.894369 199.898659 
L 510.674748 193.73685 
L 514.455128 163.376146 
L 518.235508 155.421837 
L 533.357027 155.048374 
L 537.137407 154.749671 
L 540.917787 162.218489 
L 544.698166 158.745459 
L 556.039306 170.994315 
L 559.819685 186.529469 
L 563.600065 190.039822 
L 567.380445 192.019054 
L 571.160825 202.624761 
L 582.501964 197.770018 
L 586.282344 202.213974 
L 590.062723 209.981551 
L 593.843103 228.242807 
L 597.623483 218.981489 
L 608.964622 215.8446 
L 612.745002 228.018752 
L 616.525382 214.276098 
L 620.305762 203.707772 
L 624.086141 205.574976 
L 635.427281 191.085452 
L 639.20766 201.989918 
L 642.98804 197.732695 
L 646.76842 190.263877 
L 650.5488 167.894749 
L 661.889939 159.006895 
L 665.670319 165.243351 
L 669.450698 175.961085 
L 673.231078 171.666538 
L 677.011458 183.467226 
L 688.352597 157.363746 
L 692.132977 162.703923 
L 695.913357 167.222583 
L 699.693737 177.380179 
L 703.474116 197.433935 
L 714.815256 195.902814 
L 718.595635 181.077207 
L 722.376015 197.508639 
L 726.156395 258.267428 
L 729.936775 234.479263 
L 741.277914 236.234439 
L 745.058294 144.181288 
L 748.838673 105.082024 
L 756.399433 98.920216 
L 767.740572 97.725235 
L 771.520952 98.509428 
L 775.301332 109.712655 
L 779.081712 102.094486 
L 782.862091 120.019659 
L 794.203231 107.173284 
L 797.98361 88.8 
L 801.76399 94.252205 
L 805.54437 96.324831 
L 805.54437 96.324831 
" style="fill:none;stroke:#000000;stroke-linecap:square;stroke-width:4;"/>
   </g>
   <g id="patch_3">
    <path d="M 75.175 385.2 
L 75.175 88.8 
" style="fill:none;stroke:#000000;stroke-linecap:square;stroke-linejoin:miter;stroke-width:0.8;"/>
   </g>
   <g id="patch_4">
    <path d="M 75.175 385.2 
L 840.323864 385.2 
" style="fill:none;stroke:#000000;stroke-linecap:square;stroke-linejoin:miter;stroke-width:0.8;"/>
   </g>
   <g id="text_7">
    <!-- ANET   56% -->
    <defs>
     <path d="M 53.421875 13.28125 
L 24.03125 13.28125 
L 19.390625 0 
L 0.484375 0 
L 27.484375 72.90625 
L 49.90625 72.90625 
L 76.90625 0 
L 58.015625 0 
z
M 28.71875 26.8125 
L 48.6875 26.8125 
L 38.71875 55.8125 
z
" id="DejaVuSans-Bold-65"/>
     <path d="M 9.1875 72.90625 
L 30.171875 72.90625 
L 56.6875 22.90625 
L 56.6875 72.90625 
L 74.515625 72.90625 
L 74.515625 0 
L 53.515625 0 
L 27 50 
L 27 0 
L 9.1875 0 
z
" id="DejaVuSans-Bold-78"/>
     <path d="M 9.1875 72.90625 
L 59.90625 72.90625 
L 59.90625 58.6875 
L 27.984375 58.6875 
L 27.984375 45.125 
L 58.015625 45.125 
L 58.015625 30.90625 
L 27.984375 30.90625 
L 27.984375 14.203125 
L 60.984375 14.203125 
L 60.984375 0 
L 9.1875 0 
z
" id="DejaVuSans-Bold-69"/>
     <path d="M 0.484375 72.90625 
L 67.671875 72.90625 
L 67.671875 58.6875 
L 43.5 58.6875 
L 43.5 0 
L 24.703125 0 
L 24.703125 58.6875 
L 0.484375 58.6875 
z
" id="DejaVuSans-Bold-84"/>
     <path id="DejaVuSans-Bold-32"/>
     <path d="M 10.59375 72.90625 
L 57.328125 72.90625 
L 57.328125 59.078125 
L 25.59375 59.078125 
L 25.59375 47.796875 
Q 27.734375 48.390625 29.90625 48.703125 
Q 32.078125 49.03125 34.421875 49.03125 
Q 47.75 49.03125 55.171875 42.359375 
Q 62.59375 35.6875 62.59375 23.78125 
Q 62.59375 11.96875 54.515625 5.265625 
Q 46.4375 -1.421875 32.078125 -1.421875 
Q 25.875 -1.421875 19.796875 -0.21875 
Q 13.71875 0.984375 7.71875 3.421875 
L 7.71875 18.21875 
Q 13.671875 14.796875 19.015625 13.078125 
Q 24.359375 11.375 29.109375 11.375 
Q 35.9375 11.375 39.859375 14.71875 
Q 43.796875 18.0625 43.796875 23.78125 
Q 43.796875 29.546875 39.859375 32.859375 
Q 35.9375 36.1875 29.109375 36.1875 
Q 25.046875 36.1875 20.453125 35.125 
Q 15.875 34.078125 10.59375 31.890625 
z
" id="DejaVuSans-Bold-53"/>
     <path d="M 36.1875 35.984375 
Q 31.25 35.984375 28.78125 32.78125 
Q 26.3125 29.59375 26.3125 23.1875 
Q 26.3125 16.796875 28.78125 13.59375 
Q 31.25 10.40625 36.1875 10.40625 
Q 41.15625 10.40625 43.625 13.59375 
Q 46.09375 16.796875 46.09375 23.1875 
Q 46.09375 29.59375 43.625 32.78125 
Q 41.15625 35.984375 36.1875 35.984375 
z
M 59.421875 71 
L 59.421875 57.515625 
Q 54.78125 59.71875 50.671875 60.765625 
Q 46.578125 61.8125 42.671875 61.8125 
Q 34.28125 61.8125 29.59375 57.140625 
Q 24.90625 52.484375 24.125 43.3125 
Q 27.34375 45.703125 31.09375 46.890625 
Q 34.859375 48.09375 39.3125 48.09375 
Q 50.484375 48.09375 57.34375 41.546875 
Q 64.203125 35.015625 64.203125 24.421875 
Q 64.203125 12.703125 56.53125 5.640625 
Q 48.875 -1.421875 35.984375 -1.421875 
Q 21.78125 -1.421875 13.984375 8.171875 
Q 6.203125 17.78125 6.203125 35.40625 
Q 6.203125 53.46875 15.3125 63.796875 
Q 24.421875 74.125 40.28125 74.125 
Q 45.3125 74.125 50.046875 73.34375 
Q 54.78125 72.5625 59.421875 71 
z
" id="DejaVuSans-Bold-54"/>
     <path d="M 77.484375 30.078125 
Q 74.03125 30.078125 72.125 27.078125 
Q 70.21875 24.078125 70.21875 18.5 
Q 70.21875 12.890625 72.09375 9.890625 
Q 73.96875 6.890625 77.484375 6.890625 
Q 81 6.890625 82.859375 9.890625 
Q 84.71875 12.890625 84.71875 18.5 
Q 84.71875 24.078125 82.828125 27.078125 
Q 80.953125 30.078125 77.484375 30.078125 
z
M 77.484375 38.28125 
Q 86.578125 38.28125 91.796875 33 
Q 97.015625 27.734375 97.015625 18.5 
Q 97.015625 9.28125 91.796875 3.921875 
Q 86.578125 -1.421875 77.484375 -1.421875 
Q 68.40625 -1.421875 63.15625 3.921875 
Q 57.90625 9.28125 57.90625 18.5 
Q 57.90625 27.6875 63.15625 32.984375 
Q 68.40625 38.28125 77.484375 38.28125 
z
M 32.71875 -1.421875 
L 21.921875 -1.421875 
L 67.484375 74.21875 
L 78.328125 74.21875 
z
M 22.703125 74.21875 
Q 31.78125 74.21875 36.984375 68.921875 
Q 42.1875 63.625 42.1875 54.390625 
Q 42.1875 45.171875 36.984375 39.84375 
Q 31.78125 34.515625 22.703125 34.515625 
Q 13.625 34.515625 8.421875 39.84375 
Q 3.21875 45.171875 3.21875 54.390625 
Q 3.21875 63.625 8.421875 68.921875 
Q 13.625 74.21875 22.703125 74.21875 
z
M 22.703125 66.015625 
Q 19.1875 66.015625 17.28125 62.984375 
Q 15.375 59.96875 15.375 54.390625 
Q 15.375 48.78125 17.28125 45.71875 
Q 19.1875 42.671875 22.703125 42.671875 
Q 26.21875 42.671875 28.09375 45.71875 
Q 29.984375 48.78125 29.984375 54.390625 
Q 29.984375 59.96875 28.078125 62.984375 
Q 26.171875 66.015625 22.703125 66.015625 
z
" id="DejaVuSans-Bold-37"/>
    </defs>
    <g transform="translate(75.175 72.1625)scale(0.8 -0.8)">
     <use xlink:href="#DejaVuSans-Bold-65"/>
     <use x="77.392578" xlink:href="#DejaVuSans-Bold-78"/>
     <use x="161.083984" xlink:href="#DejaVuSans-Bold-69"/>
     <use x="229.394531" xlink:href="#DejaVuSans-Bold-84"/>
     <use x="297.607422" xlink:href="#DejaVuSans-Bold-32"/>
     <use x="332.421875" xlink:href="#DejaVuSans-Bold-32"/>
     <use x="367.236328" xlink:href="#DejaVuSans-Bold-32"/>
     <use x="402.050781" xlink:href="#DejaVuSans-Bold-53"/>
     <use x="471.630859" xlink:href="#DejaVuSans-Bold-54"/>
     <use x="541.210938" xlink:href="#DejaVuSans-Bold-37"/>
    </g>
   </g>
  </g>
 </g>
 <defs>
  <clipPath id="p2be122fcc5">
   <rect height="296.4" width="765.148864" x="75.175" y="88.8"/>
  </clipPath>
 </defs>
</svg>
