<?xml version="1.0" encoding="utf-8" standalone="no"?>
<!DOCTYPE svg PUBLIC "-//W3C//DTD SVG 1.1//EN"
  "http://www.w3.org/Graphics/SVG/1.1/DTD/svg11.dtd">
<!-- Created with matplotlib (https://matplotlib.org/) -->
<svg height="432pt" version="1.1" viewBox="0 0 864 432" width="864pt" xmlns="http://www.w3.org/2000/svg" xmlns:xlink="http://www.w3.org/1999/xlink">
 <defs>
  <style type="text/css">
*{stroke-linecap:butt;stroke-linejoin:round;}
  </style>
 </defs>
 <g id="figure_1">
  <g id="patch_1">
   <path d="M 0 432 
L 864 432 
L 864 0 
L 0 0 
z
" style="fill:none;"/>
  </g>
  <g id="axes_1">
   <g id="patch_2">
    <path d="M 75.175 385.2 
L 840.323864 385.2 
L 840.323864 88.8 
L 75.175 88.8 
z
" style="fill:none;"/>
   </g>
   <g id="PolyCollection_1">
    <path clip-path="url(#pb18188481a)" d="M 109.954494 812.649187 
L 109.954494 366.729953 
L 113.734874 366.729953 
L 117.515253 366.729953 
L 121.295633 366.729953 
L 132.636772 355.296133 
L 136.417152 352.657564 
L 140.197532 378.603562 
L 143.977912 314.837992 
L 147.758291 259.427883 
L 162.87981 267.343623 
L 166.66019 292.849864 
L 170.44057 280.536499 
L 174.22095 270.861737 
L 185.562089 277.018385 
L 189.342469 274.379817 
L 193.122849 285.813637 
L 196.903228 295.488433 
L 200.683608 300.76557 
L 212.024747 305.163195 
L 215.805127 272.62076 
L 219.585507 230.403595 
L 223.365887 233.04213 
L 227.146266 227.764993 
L 238.487406 228.644505 
L 242.267785 211.933514 
L 246.048165 210.174491 
L 249.828545 198.740638 
L 253.608925 196.981615 
L 264.950064 193.463501 
L 268.730444 186.42734 
L 272.510824 169.71635 
L 276.291203 166.198236 
L 280.071583 182.029715 
L 291.412722 174.993487 
L 295.193102 177.632089 
L 298.973482 201.37924 
L 302.753862 240.95787 
L 306.534241 231.283107 
L 317.875381 221.608344 
L 321.65576 227.764993 
L 325.43614 206.656377 
L 329.21652 192.583989 
L 332.9969 177.632089 
L 344.338039 190.824966 
L 348.118419 192.583989 
L 351.898799 130.13772 
L 355.679178 109.908616 
L 359.459558 103.751967 
L 370.800697 88.8 
L 374.581077 107.270081 
L 378.361457 116.944844 
L 382.141837 109.029104 
L 385.922216 97.595251 
L 397.263356 103.751967 
L 401.043735 113.42673 
L 404.824115 118.703867 
L 408.604495 129.258208 
L 412.384875 131.896743 
L 423.726014 139.812483 
L 427.506394 146.84871 
L 431.286773 139.812483 
L 435.067153 131.896743 
L 438.847533 138.932971 
L 450.188672 134.535346 
L 453.969052 131.017232 
L 457.749432 121.342469 
L 461.529812 145.969132 
L 465.310191 168.836838 
L 476.651331 186.42734 
L 480.43171 178.511601 
L 484.21209 157.402985 
L 487.99247 189.065875 
L 491.77285 192.583989 
L 506.894369 176.75251 
L 510.674748 177.632089 
L 514.455128 179.391112 
L 518.235508 184.66825 
L 529.576647 189.065875 
L 533.357027 169.71635 
L 537.137407 146.84871 
L 540.917787 153.884871 
L 544.698166 159.162008 
L 556.039306 153.005359 
L 559.819685 177.632089 
L 563.600065 175.872999 
L 567.380445 142.451085 
L 571.160825 153.005359 
L 582.501964 176.75251 
L 586.282344 177.632089 
L 590.062723 165.318724 
L 593.843103 164.439213 
L 597.623483 166.198236 
L 608.964622 245.355495 
L 612.745002 289.33175 
L 616.525382 288.452239 
L 620.305762 317.47656 
L 624.086141 310.440366 
L 635.427281 320.115129 
L 639.20766 328.91038 
L 642.98804 320.16351 
L 646.76842 307.801764 
L 650.5488 308.681309 
L 661.889939 306.922252 
L 665.670319 295.488433 
L 669.450698 308.681309 
L 673.231078 318.356072 
L 677.011458 337.705631 
L 688.352597 334.187517 
L 692.132977 337.705631 
L 695.913357 356.175645 
L 699.693737 348.259939 
L 703.474116 375.96496 
L 714.815256 375.085448 
L 718.595635 377.284261 
L 722.376015 385.2 
L 726.156395 384.760211 
L 729.936775 367.609498 
L 741.277914 379.483073 
L 745.058294 381.681886 
L 748.838673 376.844505 
L 752.619053 353.537076 
L 756.399433 355.296133 
L 767.740572 356.175645 
L 771.520952 352.657564 
L 775.301332 352.657564 
L 779.081712 351.778019 
L 782.862091 362.332327 
L 794.203231 362.332327 
L 797.98361 349.139451 
L 801.76399 340.3442 
L 805.54437 344.741825 
L 805.54437 812.649187 
L 805.54437 812.649187 
L 801.76399 812.649187 
L 797.98361 812.649187 
L 794.203231 812.649187 
L 782.862091 812.649187 
L 779.081712 812.649187 
L 775.301332 812.649187 
L 771.520952 812.649187 
L 767.740572 812.649187 
L 756.399433 812.649187 
L 752.619053 812.649187 
L 748.838673 812.649187 
L 745.058294 812.649187 
L 741.277914 812.649187 
L 729.936775 812.649187 
L 726.156395 812.649187 
L 722.376015 812.649187 
L 718.595635 812.649187 
L 714.815256 812.649187 
L 703.474116 812.649187 
L 699.693737 812.649187 
L 695.913357 812.649187 
L 692.132977 812.649187 
L 688.352597 812.649187 
L 677.011458 812.649187 
L 673.231078 812.649187 
L 669.450698 812.649187 
L 665.670319 812.649187 
L 661.889939 812.649187 
L 650.5488 812.649187 
L 646.76842 812.649187 
L 642.98804 812.649187 
L 639.20766 812.649187 
L 635.427281 812.649187 
L 624.086141 812.649187 
L 620.305762 812.649187 
L 616.525382 812.649187 
L 612.745002 812.649187 
L 608.964622 812.649187 
L 597.623483 812.649187 
L 593.843103 812.649187 
L 590.062723 812.649187 
L 586.282344 812.649187 
L 582.501964 812.649187 
L 571.160825 812.649187 
L 567.380445 812.649187 
L 563.600065 812.649187 
L 559.819685 812.649187 
L 556.039306 812.649187 
L 544.698166 812.649187 
L 540.917787 812.649187 
L 537.137407 812.649187 
L 533.357027 812.649187 
L 529.576647 812.649187 
L 518.235508 812.649187 
L 514.455128 812.649187 
L 510.674748 812.649187 
L 506.894369 812.649187 
L 491.77285 812.649187 
L 487.99247 812.649187 
L 484.21209 812.649187 
L 480.43171 812.649187 
L 476.651331 812.649187 
L 465.310191 812.649187 
L 461.529812 812.649187 
L 457.749432 812.649187 
L 453.969052 812.649187 
L 450.188672 812.649187 
L 438.847533 812.649187 
L 435.067153 812.649187 
L 431.286773 812.649187 
L 427.506394 812.649187 
L 423.726014 812.649187 
L 412.384875 812.649187 
L 408.604495 812.649187 
L 404.824115 812.649187 
L 401.043735 812.649187 
L 397.263356 812.649187 
L 385.922216 812.649187 
L 382.141837 812.649187 
L 378.361457 812.649187 
L 374.581077 812.649187 
L 370.800697 812.649187 
L 359.459558 812.649187 
L 355.679178 812.649187 
L 351.898799 812.649187 
L 348.118419 812.649187 
L 344.338039 812.649187 
L 332.9969 812.649187 
L 329.21652 812.649187 
L 325.43614 812.649187 
L 321.65576 812.649187 
L 317.875381 812.649187 
L 306.534241 812.649187 
L 302.753862 812.649187 
L 298.973482 812.649187 
L 295.193102 812.649187 
L 291.412722 812.649187 
L 280.071583 812.649187 
L 276.291203 812.649187 
L 272.510824 812.649187 
L 268.730444 812.649187 
L 264.950064 812.649187 
L 253.608925 812.649187 
L 249.828545 812.649187 
L 246.048165 812.649187 
L 242.267785 812.649187 
L 238.487406 812.649187 
L 227.146266 812.649187 
L 223.365887 812.649187 
L 219.585507 812.649187 
L 215.805127 812.649187 
L 212.024747 812.649187 
L 200.683608 812.649187 
L 196.903228 812.649187 
L 193.122849 812.649187 
L 189.342469 812.649187 
L 185.562089 812.649187 
L 174.22095 812.649187 
L 170.44057 812.649187 
L 166.66019 812.649187 
L 162.87981 812.649187 
L 147.758291 812.649187 
L 143.977912 812.649187 
L 140.197532 812.649187 
L 136.417152 812.649187 
L 132.636772 812.649187 
L 121.295633 812.649187 
L 117.515253 812.649187 
L 113.734874 812.649187 
L 109.954494 812.649187 
z
" style="fill:#0000ff;fill-opacity:0.1;stroke:#0000ff;stroke-opacity:0.1;"/>
   </g>
   <g id="matplotlib.axis_1">
    <g id="xtick_1">
     <g id="line2d_1">
      <defs>
       <path d="M 0 0 
L 0 3.5 
" id="m24ebdae68e" style="stroke:#000000;stroke-width:0.8;"/>
      </defs>
      <g>
       <use style="stroke:#000000;stroke-width:0.8;" x="109.954494" xlink:href="#m24ebdae68e" y="385.2"/>
      </g>
     </g>
     <g id="text_1">
      <!-- 05/23 -->
      <defs>
       <path d="M 31.78125 66.40625 
Q 24.171875 66.40625 20.328125 58.90625 
Q 16.5 51.421875 16.5 36.375 
Q 16.5 21.390625 20.328125 13.890625 
Q 24.171875 6.390625 31.78125 6.390625 
Q 39.453125 6.390625 43.28125 13.890625 
Q 47.125 21.390625 47.125 36.375 
Q 47.125 51.421875 43.28125 58.90625 
Q 39.453125 66.40625 31.78125 66.40625 
z
M 31.78125 74.21875 
Q 44.046875 74.21875 50.515625 64.515625 
Q 56.984375 54.828125 56.984375 36.375 
Q 56.984375 17.96875 50.515625 8.265625 
Q 44.046875 -1.421875 31.78125 -1.421875 
Q 19.53125 -1.421875 13.0625 8.265625 
Q 6.59375 17.96875 6.59375 36.375 
Q 6.59375 54.828125 13.0625 64.515625 
Q 19.53125 74.21875 31.78125 74.21875 
z
" id="DejaVuSans-48"/>
       <path d="M 10.796875 72.90625 
L 49.515625 72.90625 
L 49.515625 64.59375 
L 19.828125 64.59375 
L 19.828125 46.734375 
Q 21.96875 47.46875 24.109375 47.828125 
Q 26.265625 48.1875 28.421875 48.1875 
Q 40.625 48.1875 47.75 41.5 
Q 54.890625 34.8125 54.890625 23.390625 
Q 54.890625 11.625 47.5625 5.09375 
Q 40.234375 -1.421875 26.90625 -1.421875 
Q 22.3125 -1.421875 17.546875 -0.640625 
Q 12.796875 0.140625 7.71875 1.703125 
L 7.71875 11.625 
Q 12.109375 9.234375 16.796875 8.0625 
Q 21.484375 6.890625 26.703125 6.890625 
Q 35.15625 6.890625 40.078125 11.328125 
Q 45.015625 15.765625 45.015625 23.390625 
Q 45.015625 31 40.078125 35.4375 
Q 35.15625 39.890625 26.703125 39.890625 
Q 22.75 39.890625 18.8125 39.015625 
Q 14.890625 38.140625 10.796875 36.28125 
z
" id="DejaVuSans-53"/>
       <path d="M 25.390625 72.90625 
L 33.6875 72.90625 
L 8.296875 -9.28125 
L 0 -9.28125 
z
" id="DejaVuSans-47"/>
       <path d="M 19.1875 8.296875 
L 53.609375 8.296875 
L 53.609375 0 
L 7.328125 0 
L 7.328125 8.296875 
Q 12.9375 14.109375 22.625 23.890625 
Q 32.328125 33.6875 34.8125 36.53125 
Q 39.546875 41.84375 41.421875 45.53125 
Q 43.3125 49.21875 43.3125 52.78125 
Q 43.3125 58.59375 39.234375 62.25 
Q 35.15625 65.921875 28.609375 65.921875 
Q 23.96875 65.921875 18.8125 64.3125 
Q 13.671875 62.703125 7.8125 59.421875 
L 7.8125 69.390625 
Q 13.765625 71.78125 18.9375 73 
Q 24.125 74.21875 28.421875 74.21875 
Q 39.75 74.21875 46.484375 68.546875 
Q 53.21875 62.890625 53.21875 53.421875 
Q 53.21875 48.921875 51.53125 44.890625 
Q 49.859375 40.875 45.40625 35.40625 
Q 44.1875 33.984375 37.640625 27.21875 
Q 31.109375 20.453125 19.1875 8.296875 
z
" id="DejaVuSans-50"/>
       <path d="M 40.578125 39.3125 
Q 47.65625 37.796875 51.625 33 
Q 55.609375 28.21875 55.609375 21.1875 
Q 55.609375 10.40625 48.1875 4.484375 
Q 40.765625 -1.421875 27.09375 -1.421875 
Q 22.515625 -1.421875 17.65625 -0.515625 
Q 12.796875 0.390625 7.625 2.203125 
L 7.625 11.71875 
Q 11.71875 9.328125 16.59375 8.109375 
Q 21.484375 6.890625 26.8125 6.890625 
Q 36.078125 6.890625 40.9375 10.546875 
Q 45.796875 14.203125 45.796875 21.1875 
Q 45.796875 27.640625 41.28125 31.265625 
Q 36.765625 34.90625 28.71875 34.90625 
L 20.21875 34.90625 
L 20.21875 43.015625 
L 29.109375 43.015625 
Q 36.375 43.015625 40.234375 45.921875 
Q 44.09375 48.828125 44.09375 54.296875 
Q 44.09375 59.90625 40.109375 62.90625 
Q 36.140625 65.921875 28.71875 65.921875 
Q 24.65625 65.921875 20.015625 65.03125 
Q 15.375 64.15625 9.8125 62.3125 
L 9.8125 71.09375 
Q 15.4375 72.65625 20.34375 73.4375 
Q 25.25 74.21875 29.59375 74.21875 
Q 40.828125 74.21875 47.359375 69.109375 
Q 53.90625 64.015625 53.90625 55.328125 
Q 53.90625 49.265625 50.4375 45.09375 
Q 46.96875 40.921875 40.578125 39.3125 
z
" id="DejaVuSans-51"/>
      </defs>
      <g transform="translate(66.726369 414.995312)scale(0.3 -0.3)">
       <use xlink:href="#DejaVuSans-48"/>
       <use x="63.623047" xlink:href="#DejaVuSans-53"/>
       <use x="127.246094" xlink:href="#DejaVuSans-47"/>
       <use x="160.9375" xlink:href="#DejaVuSans-50"/>
       <use x="224.560547" xlink:href="#DejaVuSans-51"/>
      </g>
     </g>
    </g>
    <g id="xtick_2">
     <g id="line2d_2">
      <g>
       <use style="stroke:#000000;stroke-width:0.8;" x="457.749432" xlink:href="#m24ebdae68e" y="385.2"/>
      </g>
     </g>
     <g id="text_2">
      <!-- 08/23 -->
      <defs>
       <path d="M 31.78125 34.625 
Q 24.75 34.625 20.71875 30.859375 
Q 16.703125 27.09375 16.703125 20.515625 
Q 16.703125 13.921875 20.71875 10.15625 
Q 24.75 6.390625 31.78125 6.390625 
Q 38.8125 6.390625 42.859375 10.171875 
Q 46.921875 13.96875 46.921875 20.515625 
Q 46.921875 27.09375 42.890625 30.859375 
Q 38.875 34.625 31.78125 34.625 
z
M 21.921875 38.8125 
Q 15.578125 40.375 12.03125 44.71875 
Q 8.5 49.078125 8.5 55.328125 
Q 8.5 64.0625 14.71875 69.140625 
Q 20.953125 74.21875 31.78125 74.21875 
Q 42.671875 74.21875 48.875 69.140625 
Q 55.078125 64.0625 55.078125 55.328125 
Q 55.078125 49.078125 51.53125 44.71875 
Q 48 40.375 41.703125 38.8125 
Q 48.828125 37.15625 52.796875 32.3125 
Q 56.78125 27.484375 56.78125 20.515625 
Q 56.78125 9.90625 50.3125 4.234375 
Q 43.84375 -1.421875 31.78125 -1.421875 
Q 19.734375 -1.421875 13.25 4.234375 
Q 6.78125 9.90625 6.78125 20.515625 
Q 6.78125 27.484375 10.78125 32.3125 
Q 14.796875 37.15625 21.921875 38.8125 
z
M 18.3125 54.390625 
Q 18.3125 48.734375 21.84375 45.5625 
Q 25.390625 42.390625 31.78125 42.390625 
Q 38.140625 42.390625 41.71875 45.5625 
Q 45.3125 48.734375 45.3125 54.390625 
Q 45.3125 60.0625 41.71875 63.234375 
Q 38.140625 66.40625 31.78125 66.40625 
Q 25.390625 66.40625 21.84375 63.234375 
Q 18.3125 60.0625 18.3125 54.390625 
z
" id="DejaVuSans-56"/>
      </defs>
      <g transform="translate(414.521307 414.995312)scale(0.3 -0.3)">
       <use xlink:href="#DejaVuSans-48"/>
       <use x="63.623047" xlink:href="#DejaVuSans-56"/>
       <use x="127.246094" xlink:href="#DejaVuSans-47"/>
       <use x="160.9375" xlink:href="#DejaVuSans-50"/>
       <use x="224.560547" xlink:href="#DejaVuSans-51"/>
      </g>
     </g>
    </g>
    <g id="xtick_3">
     <g id="line2d_3">
      <g>
       <use style="stroke:#000000;stroke-width:0.8;" x="805.54437" xlink:href="#m24ebdae68e" y="385.2"/>
      </g>
     </g>
     <g id="text_3">
      <!-- 11/23 -->
      <defs>
       <path d="M 12.40625 8.296875 
L 28.515625 8.296875 
L 28.515625 63.921875 
L 10.984375 60.40625 
L 10.984375 69.390625 
L 28.421875 72.90625 
L 38.28125 72.90625 
L 38.28125 8.296875 
L 54.390625 8.296875 
L 54.390625 0 
L 12.40625 0 
z
" id="DejaVuSans-49"/>
      </defs>
      <g transform="translate(762.316245 414.995312)scale(0.3 -0.3)">
       <use xlink:href="#DejaVuSans-49"/>
       <use x="63.623047" xlink:href="#DejaVuSans-49"/>
       <use x="127.246094" xlink:href="#DejaVuSans-47"/>
       <use x="160.9375" xlink:href="#DejaVuSans-50"/>
       <use x="224.560547" xlink:href="#DejaVuSans-51"/>
      </g>
     </g>
    </g>
   </g>
   <g id="matplotlib.axis_2">
    <g id="ytick_1">
     <g id="line2d_4">
      <defs>
       <path d="M 0 0 
L -3.5 0 
" id="mee19b54661" style="stroke:#000000;stroke-width:0.8;"/>
      </defs>
      <g>
       <use style="stroke:#000000;stroke-width:0.8;" x="75.175" xlink:href="#mee19b54661" y="372.886635"/>
      </g>
     </g>
     <g id="text_4">
      <!-- 100 -->
      <g transform="translate(10.9125 384.284291)scale(0.3 -0.3)">
       <use xlink:href="#DejaVuSans-49"/>
       <use x="63.623047" xlink:href="#DejaVuSans-48"/>
       <use x="127.246094" xlink:href="#DejaVuSans-48"/>
      </g>
     </g>
    </g>
    <g id="ytick_2">
     <g id="line2d_5">
      <g>
       <use style="stroke:#000000;stroke-width:0.8;" x="75.175" xlink:href="#mee19b54661" y="262.945997"/>
      </g>
     </g>
     <g id="text_5">
      <!-- 125 -->
      <g transform="translate(10.9125 274.343654)scale(0.3 -0.3)">
       <use xlink:href="#DejaVuSans-49"/>
       <use x="63.623047" xlink:href="#DejaVuSans-50"/>
       <use x="127.246094" xlink:href="#DejaVuSans-53"/>
      </g>
     </g>
    </g>
    <g id="ytick_3">
     <g id="line2d_6">
      <g>
       <use style="stroke:#000000;stroke-width:0.8;" x="75.175" xlink:href="#mee19b54661" y="153.005359"/>
      </g>
     </g>
     <g id="text_6">
      <!-- 150 -->
      <g transform="translate(10.9125 164.403016)scale(0.3 -0.3)">
       <use xlink:href="#DejaVuSans-49"/>
       <use x="63.623047" xlink:href="#DejaVuSans-53"/>
       <use x="127.246094" xlink:href="#DejaVuSans-48"/>
      </g>
     </g>
    </g>
   </g>
   <g id="line2d_7">
    <path clip-path="url(#pb18188481a)" d="M 109.954494 366.729953 
L 121.295633 366.729953 
L 132.636772 355.296133 
L 136.417152 352.657564 
L 140.197532 378.603562 
L 143.977912 314.837992 
L 147.758291 259.427883 
L 162.87981 267.343623 
L 166.66019 292.849864 
L 170.44057 280.536499 
L 174.22095 270.861737 
L 185.562089 277.018385 
L 189.342469 274.379817 
L 193.122849 285.813637 
L 196.903228 295.488433 
L 200.683608 300.76557 
L 212.024747 305.163195 
L 215.805127 272.62076 
L 219.585507 230.403595 
L 223.365887 233.04213 
L 227.146266 227.764993 
L 238.487406 228.644505 
L 242.267785 211.933514 
L 246.048165 210.174491 
L 249.828545 198.740638 
L 253.608925 196.981615 
L 264.950064 193.463501 
L 268.730444 186.42734 
L 272.510824 169.71635 
L 276.291203 166.198236 
L 280.071583 182.029715 
L 291.412722 174.993487 
L 295.193102 177.632089 
L 298.973482 201.37924 
L 302.753862 240.95787 
L 306.534241 231.283107 
L 317.875381 221.608344 
L 321.65576 227.764993 
L 325.43614 206.656377 
L 329.21652 192.583989 
L 332.9969 177.632089 
L 344.338039 190.824966 
L 348.118419 192.583989 
L 351.898799 130.13772 
L 355.679178 109.908616 
L 359.459558 103.751967 
L 370.800697 88.8 
L 374.581077 107.270081 
L 378.361457 116.944844 
L 382.141837 109.029104 
L 385.922216 97.595251 
L 397.263356 103.751967 
L 401.043735 113.42673 
L 404.824115 118.703867 
L 408.604495 129.258208 
L 423.726014 139.812483 
L 427.506394 146.84871 
L 431.286773 139.812483 
L 435.067153 131.896743 
L 438.847533 138.932971 
L 450.188672 134.535346 
L 453.969052 131.017232 
L 457.749432 121.342469 
L 461.529812 145.969132 
L 465.310191 168.836838 
L 476.651331 186.42734 
L 480.43171 178.511601 
L 484.21209 157.402985 
L 487.99247 189.065875 
L 491.77285 192.583989 
L 506.894369 176.75251 
L 510.674748 177.632089 
L 514.455128 179.391112 
L 518.235508 184.66825 
L 529.576647 189.065875 
L 533.357027 169.71635 
L 537.137407 146.84871 
L 540.917787 153.884871 
L 544.698166 159.162008 
L 556.039306 153.005359 
L 559.819685 177.632089 
L 563.600065 175.872999 
L 567.380445 142.451085 
L 571.160825 153.005359 
L 582.501964 176.75251 
L 586.282344 177.632089 
L 590.062723 165.318724 
L 593.843103 164.439213 
L 597.623483 166.198236 
L 608.964622 245.355495 
L 612.745002 289.33175 
L 616.525382 288.452239 
L 620.305762 317.47656 
L 624.086141 310.440366 
L 635.427281 320.115129 
L 639.20766 328.91038 
L 642.98804 320.16351 
L 646.76842 307.801764 
L 650.5488 308.681309 
L 661.889939 306.922252 
L 665.670319 295.488433 
L 669.450698 308.681309 
L 673.231078 318.356072 
L 677.011458 337.705631 
L 688.352597 334.187517 
L 692.132977 337.705631 
L 695.913357 356.175645 
L 699.693737 348.259939 
L 703.474116 375.96496 
L 714.815256 375.085448 
L 718.595635 377.284261 
L 722.376015 385.2 
L 726.156395 384.760211 
L 729.936775 367.609498 
L 741.277914 379.483073 
L 745.058294 381.681886 
L 748.838673 376.844505 
L 752.619053 353.537076 
L 756.399433 355.296133 
L 767.740572 356.175645 
L 771.520952 352.657564 
L 775.301332 352.657564 
L 779.081712 351.778019 
L 782.862091 362.332327 
L 794.203231 362.332327 
L 797.98361 349.139451 
L 801.76399 340.3442 
L 805.54437 344.741825 
L 805.54437 344.741825 
" style="fill:none;stroke:#000000;stroke-linecap:square;stroke-width:4;"/>
   </g>
   <g id="patch_3">
    <path d="M 75.175 385.2 
L 75.175 88.8 
" style="fill:none;stroke:#000000;stroke-linecap:square;stroke-linejoin:miter;stroke-width:0.8;"/>
   </g>
   <g id="patch_4">
    <path d="M 75.175 385.2 
L 840.323864 385.2 
" style="fill:none;stroke:#000000;stroke-linecap:square;stroke-linejoin:miter;stroke-width:0.8;"/>
   </g>
   <g id="text_7">
    <!-- AWE   4% -->
    <defs>
     <path d="M 53.421875 13.28125 
L 24.03125 13.28125 
L 19.390625 0 
L 0.484375 0 
L 27.484375 72.90625 
L 49.90625 72.90625 
L 76.90625 0 
L 58.015625 0 
z
M 28.71875 26.8125 
L 48.6875 26.8125 
L 38.71875 55.8125 
z
" id="DejaVuSans-Bold-65"/>
     <path d="M 2.984375 72.90625 
L 21 72.90625 
L 33.59375 19.921875 
L 46.09375 72.90625 
L 64.203125 72.90625 
L 76.703125 19.921875 
L 89.3125 72.90625 
L 107.171875 72.90625 
L 89.984375 0 
L 68.3125 0 
L 55.078125 55.421875 
L 42 0 
L 20.3125 0 
z
" id="DejaVuSans-Bold-87"/>
     <path d="M 9.1875 72.90625 
L 59.90625 72.90625 
L 59.90625 58.6875 
L 27.984375 58.6875 
L 27.984375 45.125 
L 58.015625 45.125 
L 58.015625 30.90625 
L 27.984375 30.90625 
L 27.984375 14.203125 
L 60.984375 14.203125 
L 60.984375 0 
L 9.1875 0 
z
" id="DejaVuSans-Bold-69"/>
     <path id="DejaVuSans-Bold-32"/>
     <path d="M 36.8125 57.421875 
L 16.21875 26.90625 
L 36.8125 26.90625 
z
M 33.6875 72.90625 
L 54.59375 72.90625 
L 54.59375 26.90625 
L 64.984375 26.90625 
L 64.984375 13.28125 
L 54.59375 13.28125 
L 54.59375 0 
L 36.8125 0 
L 36.8125 13.28125 
L 4.5 13.28125 
L 4.5 29.390625 
z
" id="DejaVuSans-Bold-52"/>
     <path d="M 77.484375 30.078125 
Q 74.03125 30.078125 72.125 27.078125 
Q 70.21875 24.078125 70.21875 18.5 
Q 70.21875 12.890625 72.09375 9.890625 
Q 73.96875 6.890625 77.484375 6.890625 
Q 81 6.890625 82.859375 9.890625 
Q 84.71875 12.890625 84.71875 18.5 
Q 84.71875 24.078125 82.828125 27.078125 
Q 80.953125 30.078125 77.484375 30.078125 
z
M 77.484375 38.28125 
Q 86.578125 38.28125 91.796875 33 
Q 97.015625 27.734375 97.015625 18.5 
Q 97.015625 9.28125 91.796875 3.921875 
Q 86.578125 -1.421875 77.484375 -1.421875 
Q 68.40625 -1.421875 63.15625 3.921875 
Q 57.90625 9.28125 57.90625 18.5 
Q 57.90625 27.6875 63.15625 32.984375 
Q 68.40625 38.28125 77.484375 38.28125 
z
M 32.71875 -1.421875 
L 21.921875 -1.421875 
L 67.484375 74.21875 
L 78.328125 74.21875 
z
M 22.703125 74.21875 
Q 31.78125 74.21875 36.984375 68.921875 
Q 42.1875 63.625 42.1875 54.390625 
Q 42.1875 45.171875 36.984375 39.84375 
Q 31.78125 34.515625 22.703125 34.515625 
Q 13.625 34.515625 8.421875 39.84375 
Q 3.21875 45.171875 3.21875 54.390625 
Q 3.21875 63.625 8.421875 68.921875 
Q 13.625 74.21875 22.703125 74.21875 
z
M 22.703125 66.015625 
Q 19.1875 66.015625 17.28125 62.984375 
Q 15.375 59.96875 15.375 54.390625 
Q 15.375 48.78125 17.28125 45.71875 
Q 19.1875 42.671875 22.703125 42.671875 
Q 26.21875 42.671875 28.09375 45.71875 
Q 29.984375 48.78125 29.984375 54.390625 
Q 29.984375 59.96875 28.078125 62.984375 
Q 26.171875 66.015625 22.703125 66.015625 
z
" id="DejaVuSans-Bold-37"/>
    </defs>
    <g transform="translate(75.175 72.1625)scale(0.8 -0.8)">
     <use xlink:href="#DejaVuSans-Bold-65"/>
     <use x="77.330078" xlink:href="#DejaVuSans-Bold-87"/>
     <use x="187.632812" xlink:href="#DejaVuSans-Bold-69"/>
     <use x="255.943359" xlink:href="#DejaVuSans-Bold-32"/>
     <use x="290.757812" xlink:href="#DejaVuSans-Bold-32"/>
     <use x="325.572266" xlink:href="#DejaVuSans-Bold-32"/>
     <use x="360.386719" xlink:href="#DejaVuSans-Bold-52"/>
     <use x="429.966797" xlink:href="#DejaVuSans-Bold-37"/>
    </g>
   </g>
  </g>
 </g>
 <defs>
  <clipPath id="pb18188481a">
   <rect height="296.4" width="765.148864" x="75.175" y="88.8"/>
  </clipPath>
 </defs>
</svg>
