<?xml version="1.0" encoding="utf-8" standalone="no"?>
<!DOCTYPE svg PUBLIC "-//W3C//DTD SVG 1.1//EN"
  "http://www.w3.org/Graphics/SVG/1.1/DTD/svg11.dtd">
<svg xmlns:xlink="http://www.w3.org/1999/xlink" width="720pt" height="720pt" viewBox="0 0 720 720" xmlns="http://www.w3.org/2000/svg" version="1.1">
 <metadata>
  <rdf:RDF xmlns:dc="http://purl.org/dc/elements/1.1/" xmlns:cc="http://creativecommons.org/ns#" xmlns:rdf="http://www.w3.org/1999/02/22-rdf-syntax-ns#">
   <cc:Work>
    <dc:type rdf:resource="http://purl.org/dc/dcmitype/StillImage"/>
    <dc:date>2023-10-17T23:38:25.826368</dc:date>
    <dc:format>image/svg+xml</dc:format>
    <dc:creator>
     <cc:Agent>
      <dc:title>Matplotlib v3.7.2, https://matplotlib.org/</dc:title>
     </cc:Agent>
    </dc:creator>
   </cc:Work>
  </rdf:RDF>
 </metadata>
 <defs>
  <style type="text/css">*{stroke-linejoin: round; stroke-linecap: butt}</style>
 </defs>
 <g id="figure_1">
  <g id="patch_1">
   <path d="M 0 720 
L 720 720 
L 720 0 
L 0 0 
z
" style="fill: #ffffff"/>
  </g>
  <g id="axes_1">
   <g id="patch_2">
    <path d="M 90 640.8 
L 648 640.8 
L 648 86.4 
L 90 86.4 
z
" style="fill: #ffffff"/>
   </g>
   <g id="matplotlib.axis_1">
    <g id="xtick_1">
     <g id="line2d_1">
      <defs>
       <path id="me8c9707128" d="M 0 0 
L 0 3.5 
" style="stroke: #000000; stroke-width: 0.8"/>
      </defs>
      <g>
       <use xlink:href="#me8c9707128" x="264.47952" y="640.8" style="stroke: #000000; stroke-width: 0.8"/>
      </g>
     </g>
     <g id="text_1">
      <!-- Feb-2023 -->
      <g transform="translate(189.66202 672.115) scale(0.32 -0.32)">
       <defs>
        <path id="DejaVuSans-46" d="M 628 4666 
L 3309 4666 
L 3309 4134 
L 1259 4134 
L 1259 2759 
L 3109 2759 
L 3109 2228 
L 1259 2228 
L 1259 0 
L 628 0 
L 628 4666 
z
" transform="scale(0.015625)"/>
        <path id="DejaVuSans-65" d="M 3597 1894 
L 3597 1613 
L 953 1613 
Q 991 1019 1311 708 
Q 1631 397 2203 397 
Q 2534 397 2845 478 
Q 3156 559 3463 722 
L 3463 178 
Q 3153 47 2828 -22 
Q 2503 -91 2169 -91 
Q 1331 -91 842 396 
Q 353 884 353 1716 
Q 353 2575 817 3079 
Q 1281 3584 2069 3584 
Q 2775 3584 3186 3129 
Q 3597 2675 3597 1894 
z
M 3022 2063 
Q 3016 2534 2758 2815 
Q 2500 3097 2075 3097 
Q 1594 3097 1305 2825 
Q 1016 2553 972 2059 
L 3022 2063 
z
" transform="scale(0.015625)"/>
        <path id="DejaVuSans-62" d="M 3116 1747 
Q 3116 2381 2855 2742 
Q 2594 3103 2138 3103 
Q 1681 3103 1420 2742 
Q 1159 2381 1159 1747 
Q 1159 1113 1420 752 
Q 1681 391 2138 391 
Q 2594 391 2855 752 
Q 3116 1113 3116 1747 
z
M 1159 2969 
Q 1341 3281 1617 3432 
Q 1894 3584 2278 3584 
Q 2916 3584 3314 3078 
Q 3713 2572 3713 1747 
Q 3713 922 3314 415 
Q 2916 -91 2278 -91 
Q 1894 -91 1617 61 
Q 1341 213 1159 525 
L 1159 0 
L 581 0 
L 581 4863 
L 1159 4863 
L 1159 2969 
z
" transform="scale(0.015625)"/>
        <path id="DejaVuSans-2d" d="M 313 2009 
L 1997 2009 
L 1997 1497 
L 313 1497 
L 313 2009 
z
" transform="scale(0.015625)"/>
        <path id="DejaVuSans-32" d="M 1228 531 
L 3431 531 
L 3431 0 
L 469 0 
L 469 531 
Q 828 903 1448 1529 
Q 2069 2156 2228 2338 
Q 2531 2678 2651 2914 
Q 2772 3150 2772 3378 
Q 2772 3750 2511 3984 
Q 2250 4219 1831 4219 
Q 1534 4219 1204 4116 
Q 875 4013 500 3803 
L 500 4441 
Q 881 4594 1212 4672 
Q 1544 4750 1819 4750 
Q 2544 4750 2975 4387 
Q 3406 4025 3406 3419 
Q 3406 3131 3298 2873 
Q 3191 2616 2906 2266 
Q 2828 2175 2409 1742 
Q 1991 1309 1228 531 
z
" transform="scale(0.015625)"/>
        <path id="DejaVuSans-30" d="M 2034 4250 
Q 1547 4250 1301 3770 
Q 1056 3291 1056 2328 
Q 1056 1369 1301 889 
Q 1547 409 2034 409 
Q 2525 409 2770 889 
Q 3016 1369 3016 2328 
Q 3016 3291 2770 3770 
Q 2525 4250 2034 4250 
z
M 2034 4750 
Q 2819 4750 3233 4129 
Q 3647 3509 3647 2328 
Q 3647 1150 3233 529 
Q 2819 -91 2034 -91 
Q 1250 -91 836 529 
Q 422 1150 422 2328 
Q 422 3509 836 4129 
Q 1250 4750 2034 4750 
z
" transform="scale(0.015625)"/>
        <path id="DejaVuSans-33" d="M 2597 2516 
Q 3050 2419 3304 2112 
Q 3559 1806 3559 1356 
Q 3559 666 3084 287 
Q 2609 -91 1734 -91 
Q 1441 -91 1130 -33 
Q 819 25 488 141 
L 488 750 
Q 750 597 1062 519 
Q 1375 441 1716 441 
Q 2309 441 2620 675 
Q 2931 909 2931 1356 
Q 2931 1769 2642 2001 
Q 2353 2234 1838 2234 
L 1294 2234 
L 1294 2753 
L 1863 2753 
Q 2328 2753 2575 2939 
Q 2822 3125 2822 3475 
Q 2822 3834 2567 4026 
Q 2313 4219 1838 4219 
Q 1578 4219 1281 4162 
Q 984 4106 628 3988 
L 628 4550 
Q 988 4650 1302 4700 
Q 1616 4750 1894 4750 
Q 2613 4750 3031 4423 
Q 3450 4097 3450 3541 
Q 3450 3153 3228 2886 
Q 3006 2619 2597 2516 
z
" transform="scale(0.015625)"/>
       </defs>
       <use xlink:href="#DejaVuSans-46"/>
       <use xlink:href="#DejaVuSans-65" x="52.019531"/>
       <use xlink:href="#DejaVuSans-62" x="113.542969"/>
       <use xlink:href="#DejaVuSans-2d" x="177.019531"/>
       <use xlink:href="#DejaVuSans-32" x="213.103516"/>
       <use xlink:href="#DejaVuSans-30" x="276.726562"/>
       <use xlink:href="#DejaVuSans-32" x="340.349609"/>
       <use xlink:href="#DejaVuSans-33" x="403.972656"/>
      </g>
     </g>
    </g>
    <g id="xtick_2">
     <g id="line2d_2">
      <g>
       <use xlink:href="#me8c9707128" x="516.722278" y="640.8" style="stroke: #000000; stroke-width: 0.8"/>
      </g>
     </g>
     <g id="text_2">
      <!-- Aug-2023 -->
      <g transform="translate(438.987278 672.115) scale(0.32 -0.32)">
       <defs>
        <path id="DejaVuSans-41" d="M 2188 4044 
L 1331 1722 
L 3047 1722 
L 2188 4044 
z
M 1831 4666 
L 2547 4666 
L 4325 0 
L 3669 0 
L 3244 1197 
L 1141 1197 
L 716 0 
L 50 0 
L 1831 4666 
z
" transform="scale(0.015625)"/>
        <path id="DejaVuSans-75" d="M 544 1381 
L 544 3500 
L 1119 3500 
L 1119 1403 
Q 1119 906 1312 657 
Q 1506 409 1894 409 
Q 2359 409 2629 706 
Q 2900 1003 2900 1516 
L 2900 3500 
L 3475 3500 
L 3475 0 
L 2900 0 
L 2900 538 
Q 2691 219 2414 64 
Q 2138 -91 1772 -91 
Q 1169 -91 856 284 
Q 544 659 544 1381 
z
M 1991 3584 
L 1991 3584 
z
" transform="scale(0.015625)"/>
        <path id="DejaVuSans-67" d="M 2906 1791 
Q 2906 2416 2648 2759 
Q 2391 3103 1925 3103 
Q 1463 3103 1205 2759 
Q 947 2416 947 1791 
Q 947 1169 1205 825 
Q 1463 481 1925 481 
Q 2391 481 2648 825 
Q 2906 1169 2906 1791 
z
M 3481 434 
Q 3481 -459 3084 -895 
Q 2688 -1331 1869 -1331 
Q 1566 -1331 1297 -1286 
Q 1028 -1241 775 -1147 
L 775 -588 
Q 1028 -725 1275 -790 
Q 1522 -856 1778 -856 
Q 2344 -856 2625 -561 
Q 2906 -266 2906 331 
L 2906 616 
Q 2728 306 2450 153 
Q 2172 0 1784 0 
Q 1141 0 747 490 
Q 353 981 353 1791 
Q 353 2603 747 3093 
Q 1141 3584 1784 3584 
Q 2172 3584 2450 3431 
Q 2728 3278 2906 2969 
L 2906 3500 
L 3481 3500 
L 3481 434 
z
" transform="scale(0.015625)"/>
       </defs>
       <use xlink:href="#DejaVuSans-41"/>
       <use xlink:href="#DejaVuSans-75" x="68.408203"/>
       <use xlink:href="#DejaVuSans-67" x="131.787109"/>
       <use xlink:href="#DejaVuSans-2d" x="195.263672"/>
       <use xlink:href="#DejaVuSans-32" x="231.347656"/>
       <use xlink:href="#DejaVuSans-30" x="294.970703"/>
       <use xlink:href="#DejaVuSans-32" x="358.59375"/>
       <use xlink:href="#DejaVuSans-33" x="422.216797"/>
      </g>
     </g>
    </g>
   </g>
   <g id="matplotlib.axis_2">
    <g id="ytick_1">
     <g id="line2d_3">
      <defs>
       <path id="mf40b27bbea" d="M 0 0 
L -3.5 0 
" style="stroke: #000000; stroke-width: 0.8"/>
      </defs>
      <g>
       <use xlink:href="#mf40b27bbea" x="90" y="627.218489" style="stroke: #000000; stroke-width: 0.8"/>
      </g>
     </g>
     <g id="text_3">
      <!-- 160 -->
      <g transform="translate(21.92 639.375989) scale(0.32 -0.32)">
       <defs>
        <path id="DejaVuSans-31" d="M 794 531 
L 1825 531 
L 1825 4091 
L 703 3866 
L 703 4441 
L 1819 4666 
L 2450 4666 
L 2450 531 
L 3481 531 
L 3481 0 
L 794 0 
L 794 531 
z
" transform="scale(0.015625)"/>
        <path id="DejaVuSans-36" d="M 2113 2584 
Q 1688 2584 1439 2293 
Q 1191 2003 1191 1497 
Q 1191 994 1439 701 
Q 1688 409 2113 409 
Q 2538 409 2786 701 
Q 3034 994 3034 1497 
Q 3034 2003 2786 2293 
Q 2538 2584 2113 2584 
z
M 3366 4563 
L 3366 3988 
Q 3128 4100 2886 4159 
Q 2644 4219 2406 4219 
Q 1781 4219 1451 3797 
Q 1122 3375 1075 2522 
Q 1259 2794 1537 2939 
Q 1816 3084 2150 3084 
Q 2853 3084 3261 2657 
Q 3669 2231 3669 1497 
Q 3669 778 3244 343 
Q 2819 -91 2113 -91 
Q 1303 -91 875 529 
Q 447 1150 447 2328 
Q 447 3434 972 4092 
Q 1497 4750 2381 4750 
Q 2619 4750 2861 4703 
Q 3103 4656 3366 4563 
z
" transform="scale(0.015625)"/>
       </defs>
       <use xlink:href="#DejaVuSans-31"/>
       <use xlink:href="#DejaVuSans-36" x="63.623047"/>
       <use xlink:href="#DejaVuSans-30" x="127.246094"/>
      </g>
     </g>
    </g>
    <g id="ytick_2">
     <g id="line2d_4">
      <g>
       <use xlink:href="#mf40b27bbea" x="90" y="517.090661" style="stroke: #000000; stroke-width: 0.8"/>
      </g>
     </g>
     <g id="text_4">
      <!-- 180 -->
      <g transform="translate(21.92 529.248161) scale(0.32 -0.32)">
       <defs>
        <path id="DejaVuSans-38" d="M 2034 2216 
Q 1584 2216 1326 1975 
Q 1069 1734 1069 1313 
Q 1069 891 1326 650 
Q 1584 409 2034 409 
Q 2484 409 2743 651 
Q 3003 894 3003 1313 
Q 3003 1734 2745 1975 
Q 2488 2216 2034 2216 
z
M 1403 2484 
Q 997 2584 770 2862 
Q 544 3141 544 3541 
Q 544 4100 942 4425 
Q 1341 4750 2034 4750 
Q 2731 4750 3128 4425 
Q 3525 4100 3525 3541 
Q 3525 3141 3298 2862 
Q 3072 2584 2669 2484 
Q 3125 2378 3379 2068 
Q 3634 1759 3634 1313 
Q 3634 634 3220 271 
Q 2806 -91 2034 -91 
Q 1263 -91 848 271 
Q 434 634 434 1313 
Q 434 1759 690 2068 
Q 947 2378 1403 2484 
z
M 1172 3481 
Q 1172 3119 1398 2916 
Q 1625 2713 2034 2713 
Q 2441 2713 2670 2916 
Q 2900 3119 2900 3481 
Q 2900 3844 2670 4047 
Q 2441 4250 2034 4250 
Q 1625 4250 1398 4047 
Q 1172 3844 1172 3481 
z
" transform="scale(0.015625)"/>
       </defs>
       <use xlink:href="#DejaVuSans-31"/>
       <use xlink:href="#DejaVuSans-38" x="63.623047"/>
       <use xlink:href="#DejaVuSans-30" x="127.246094"/>
      </g>
     </g>
    </g>
    <g id="ytick_3">
     <g id="line2d_5">
      <g>
       <use xlink:href="#mf40b27bbea" x="90" y="406.962832" style="stroke: #000000; stroke-width: 0.8"/>
      </g>
     </g>
     <g id="text_5">
      <!-- 200 -->
      <g transform="translate(21.92 419.120332) scale(0.32 -0.32)">
       <use xlink:href="#DejaVuSans-32"/>
       <use xlink:href="#DejaVuSans-30" x="63.623047"/>
       <use xlink:href="#DejaVuSans-30" x="127.246094"/>
      </g>
     </g>
    </g>
    <g id="ytick_4">
     <g id="line2d_6">
      <g>
       <use xlink:href="#mf40b27bbea" x="90" y="296.835004" style="stroke: #000000; stroke-width: 0.8"/>
      </g>
     </g>
     <g id="text_6">
      <!-- 220 -->
      <g transform="translate(21.92 308.992504) scale(0.32 -0.32)">
       <use xlink:href="#DejaVuSans-32"/>
       <use xlink:href="#DejaVuSans-32" x="63.623047"/>
       <use xlink:href="#DejaVuSans-30" x="127.246094"/>
      </g>
     </g>
    </g>
    <g id="ytick_5">
     <g id="line2d_7">
      <g>
       <use xlink:href="#mf40b27bbea" x="90" y="186.707176" style="stroke: #000000; stroke-width: 0.8"/>
      </g>
     </g>
     <g id="text_7">
      <!-- 240 -->
      <g transform="translate(21.92 198.864676) scale(0.32 -0.32)">
       <defs>
        <path id="DejaVuSans-34" d="M 2419 4116 
L 825 1625 
L 2419 1625 
L 2419 4116 
z
M 2253 4666 
L 3047 4666 
L 3047 1625 
L 3713 1625 
L 3713 1100 
L 3047 1100 
L 3047 0 
L 2419 0 
L 2419 1100 
L 313 1100 
L 313 1709 
L 2253 4666 
z
" transform="scale(0.015625)"/>
       </defs>
       <use xlink:href="#DejaVuSans-32"/>
       <use xlink:href="#DejaVuSans-34" x="63.623047"/>
       <use xlink:href="#DejaVuSans-30" x="127.246094"/>
      </g>
     </g>
    </g>
   </g>
   <g id="line2d_8">
    <path d="M 115.363636 118.813359 
L 116.757243 115.124087 
L 118.150849 137.755359 
L 119.544456 152.016893 
L 120.938062 111.6 
L 125.118881 132.909708 
L 126.512488 117.161425 
L 127.906094 140.453521 
L 129.2997 209.778969 
L 130.693307 183.568492 
L 134.874126 178.722925 
L 136.267732 181.365969 
L 137.661339 209.778969 
L 139.054945 198.49085 
L 140.448551 225.196882 
L 144.629371 256.142775 
L 146.022977 262.695394 
L 147.416583 279.159451 
L 148.81019 211.485937 
L 150.203796 188.248958 
L 154.384615 196.012991 
L 155.778222 141.33448 
L 157.171828 150.585261 
L 158.565435 178.998261 
L 159.959041 187.478067 
L 164.13986 236.264698 
L 165.533467 194.140838 
L 166.927073 188.083773 
L 169.714286 166.443696 
L 173.895105 237.531145 
L 175.288711 302.231244 
L 176.682318 239.017894 
L 178.075924 189.515405 
L 179.46953 186.762209 
L 183.65035 242.597015 
L 185.043956 295.788776 
L 186.437562 263.466285 
L 187.831169 272.937285 
L 189.224775 313.078842 
L 193.405594 324.752449 
L 194.799201 312.693438 
L 198.98002 400.850735 
L 203.160839 407.128017 
L 204.554446 388.296169 
L 205.948052 383.285333 
L 207.341658 381.578365 
L 208.735265 394.79367 
L 214.30969 398.20769 
L 215.703297 404.374822 
L 217.096903 376.01694 
L 218.490509 377.228352 
L 224.064935 372.492852 
L 225.458541 373.814333 
L 226.852148 406.907799 
L 228.245754 400.68555 
L 232.426573 397.712135 
L 233.82018 395.564562 
L 235.213786 373.318777 
L 236.607393 388.901875 
L 238.000999 402.888073 
L 243.575425 381.303028 
L 244.969031 433.393528 
L 246.362637 441.267627 
L 247.756244 425.959866 
L 251.937063 411.533147 
L 253.330669 416.599017 
L 254.724276 438.514432 
L 256.117882 463.183126 
L 257.511489 457.896953 
L 261.692308 430.585215 
L 263.085914 413.845822 
L 264.47952 369.409203 
L 265.873127 384.166375 
L 267.266733 402.94319 
L 271.447552 369.188984 
L 272.841159 342.758288 
L 274.234765 355.643224 
L 275.628372 363.847778 
L 277.021978 371.336473 
L 281.202797 343.914667 
L 282.596404 325.027701 
L 283.99001 315.336483 
L 285.383616 334.333516 
L 286.777223 330.148689 
L 292.351648 341.326657 
L 293.745255 317.924493 
L 295.138861 306.361038 
L 296.532468 326.349265 
L 300.713287 322.054287 
L 302.106893 340.831102 
L 303.5005 326.679635 
L 304.894106 305.535113 
L 306.287712 295.18307 
L 310.468531 310.05031 
L 311.862138 331.690472 
L 313.255744 314.840927 
L 314.649351 306.746525 
L 316.042957 329.212612 
L 320.223776 331.58032 
L 321.617383 304.488885 
L 323.010989 385.267637 
L 324.404595 376.182125 
L 325.798202 409.771062 
L 329.979021 413.790788 
L 331.372627 389.342397 
L 332.766234 396.61079 
L 334.15984 380.862507 
L 335.553447 408.33943 
L 339.734266 369.299135 
L 341.127872 360.874363 
L 342.521479 312.363068 
L 343.915085 309.0592 
L 345.308691 247.993339 
L 349.48951 235.603958 
L 350.883117 242.927469 
L 353.67033 263.906807 
L 359.244755 221.397458 
L 360.638362 200.473154 
L 362.031968 162.809457 
L 364.819181 177.676697 
L 369 215.780916 
L 370.393606 236.925438 
L 371.787213 252.343351 
L 373.180819 209.834003 
L 374.574426 215.560697 
L 378.755245 226.187992 
L 381.542458 231.914686 
L 382.936064 545.173291 
L 384.32967 533.609835 
L 388.51049 536.473182 
L 389.904096 556.296141 
L 391.297702 521.055269 
L 392.691309 604.862554 
L 394.084915 558.003109 
L 398.265734 563.069063 
L 399.659341 577.220445 
L 401.052947 573.090652 
L 402.446553 591.59213 
L 403.84016 582.176248 
L 408.020979 589.719977 
L 409.414585 585.645217 
L 410.808192 579.753422 
L 412.201798 577.440748 
L 413.595405 577.05526 
L 417.776224 566.482999 
L 419.16983 578.321707 
L 420.563437 597.263706 
L 421.957043 594.785847 
L 423.350649 605.192924 
L 428.925075 608.717011 
L 430.318681 605.633445 
L 431.712288 599.906751 
L 433.105894 596.933336 
L 437.286713 602.825216 
L 438.68032 597.153555 
L 440.073926 597.484009 
L 441.467532 601.06313 
L 442.861139 606.899891 
L 447.041958 593.244064 
L 448.435564 595.281402 
L 449.829171 602.164391 
L 451.222777 589.719977 
L 452.616384 586.85663 
L 458.190809 592.25287 
L 459.584416 595.942226 
L 460.978022 602.219509 
L 462.371628 612.901838 
L 466.552448 615.6 
L 467.946054 600.237205 
L 469.33966 606.78974 
L 470.733267 599.025792 
L 472.126873 585.314847 
L 476.307692 589.719977 
L 479.094905 583.167358 
L 480.488511 589.334489 
L 481.882118 576.890075 
L 486.062937 558.994303 
L 487.456543 543.356171 
L 488.85015 512.740649 
L 490.243756 528.37878 
L 491.637363 531.021824 
L 495.818182 532.949095 
L 497.211788 535.206652 
L 498.605395 524.579357 
L 501.392607 560.756304 
L 505.573427 554.479022 
L 506.967033 549.853673 
L 508.360639 554.368954 
L 509.754246 555.580367 
L 511.147852 538.235184 
L 515.328671 525.350248 
L 516.722278 513.181086 
L 518.115884 416.764202 
L 519.509491 425.078823 
L 520.903097 470.781889 
L 525.083916 468.6344 
L 526.477522 489.173216 
L 527.871129 473.039529 
L 529.264735 465.275497 
L 530.658342 463.348311 
L 534.839161 453.216487 
L 536.232767 448.591138 
L 537.626374 437.247985 
L 539.01998 458.998215 
L 540.413586 451.95004 
L 545.988012 441.102442 
L 547.381618 437.247985 
L 548.775225 450.903812 
L 550.168831 444.846832 
L 554.34965 433.778932 
L 555.743257 440.001181 
L 557.136863 431.521375 
L 558.53047 440.001181 
L 559.924076 439.120138 
L 565.498501 456.740574 
L 566.892108 469.460409 
L 568.285714 443.855638 
L 569.679321 434.054268 
L 573.86014 429.263734 
L 575.253746 424.197864 
L 578.040959 408.119212 
L 579.434565 422.21556 
L 583.615385 413.295149 
L 585.008991 395.839898 
L 586.402597 376.897898 
L 587.796204 412.909745 
L 589.18981 414.451528 
L 593.370629 397.987388 
L 594.764236 414.231309 
L 596.157842 400.68555 
L 597.551449 378.990354 
L 598.945055 383.505635 
L 603.125874 389.342397 
L 604.519481 407.898909 
L 605.913087 400.189995 
L 607.306693 402.722888 
L 608.7003 391.87529 
L 612.881119 396.225386 
L 614.274725 393.251888 
L 615.668332 380.366952 
L 617.061938 404.154603 
L 618.455544 412.138854 
L 622.636364 415.55279 
L 622.636364 415.55279 
" clip-path="url(#p9aac4adfd9)" style="fill: none; stroke: #000000; stroke-width: 2.5; stroke-linecap: square"/>
   </g>
   <g id="patch_3">
    <path d="M 90 640.8 
L 90 86.4 
" style="fill: none; stroke: #000000; stroke-width: 0.8; stroke-linejoin: miter; stroke-linecap: square"/>
   </g>
   <g id="patch_4">
    <path d="M 90 640.8 
L 648 640.8 
" style="fill: none; stroke: #000000; stroke-width: 0.8; stroke-linejoin: miter; stroke-linecap: square"/>
   </g>
   <g id="text_8">
    <!-- -21% -->
    <g transform="translate(529.632614 493.307165) scale(0.36 -0.36)">
     <defs>
      <path id="DejaVuSans-25" d="M 4653 2053 
Q 4381 2053 4226 1822 
Q 4072 1591 4072 1178 
Q 4072 772 4226 539 
Q 4381 306 4653 306 
Q 4919 306 5073 539 
Q 5228 772 5228 1178 
Q 5228 1588 5073 1820 
Q 4919 2053 4653 2053 
z
M 4653 2450 
Q 5147 2450 5437 2106 
Q 5728 1763 5728 1178 
Q 5728 594 5436 251 
Q 5144 -91 4653 -91 
Q 4153 -91 3862 251 
Q 3572 594 3572 1178 
Q 3572 1766 3864 2108 
Q 4156 2450 4653 2450 
z
M 1428 4353 
Q 1159 4353 1004 4120 
Q 850 3888 850 3481 
Q 850 3069 1003 2837 
Q 1156 2606 1428 2606 
Q 1700 2606 1854 2837 
Q 2009 3069 2009 3481 
Q 2009 3884 1853 4118 
Q 1697 4353 1428 4353 
z
M 4250 4750 
L 4750 4750 
L 1831 -91 
L 1331 -91 
L 4250 4750 
z
M 1428 4750 
Q 1922 4750 2215 4408 
Q 2509 4066 2509 3481 
Q 2509 2891 2217 2550 
Q 1925 2209 1428 2209 
Q 931 2209 642 2551 
Q 353 2894 353 3481 
Q 353 4063 643 4406 
Q 934 4750 1428 4750 
z
" transform="scale(0.015625)"/>
     </defs>
     <use xlink:href="#DejaVuSans-2d"/>
     <use xlink:href="#DejaVuSans-32" x="36.083984"/>
     <use xlink:href="#DejaVuSans-31" x="99.707031"/>
     <use xlink:href="#DejaVuSans-25" x="163.330078"/>
    </g>
   </g>
  </g>
 </g>
 <defs>
  <clipPath id="p9aac4adfd9">
   <rect x="90" y="86.4" width="558" height="554.4"/>
  </clipPath>
 </defs>
</svg>
