<?xml version="1.0" encoding="utf-8" standalone="no"?>
<!DOCTYPE svg PUBLIC "-//W3C//DTD SVG 1.1//EN"
  "http://www.w3.org/Graphics/SVG/1.1/DTD/svg11.dtd">
<!-- Created with matplotlib (https://matplotlib.org/) -->
<svg height="432pt" version="1.1" viewBox="0 0 864 432" width="864pt" xmlns="http://www.w3.org/2000/svg" xmlns:xlink="http://www.w3.org/1999/xlink">
 <defs>
  <style type="text/css">
*{stroke-linecap:butt;stroke-linejoin:round;}
  </style>
 </defs>
 <g id="figure_1">
  <g id="patch_1">
   <path d="M 0 432 
L 864 432 
L 864 0 
L 0 0 
z
" style="fill:none;"/>
  </g>
  <g id="axes_1">
   <g id="patch_2">
    <path d="M 84.8 361.2 
L 840.323864 361.2 
L 840.323864 88.8 
L 84.8 88.8 
z
" style="fill:none;"/>
   </g>
   <g id="PolyCollection_1">
    <path clip-path="url(#p04466bb96d)" d="M 119.141994 1359.342181 
L 119.141994 317.115931 
L 122.874819 303.956458 
L 126.607645 307.246389 
L 130.34047 287.50718 
L 141.538946 305.930417 
L 145.271772 325.011576 
L 149.004597 324.353653 
L 152.737423 349.3565 
L 156.470248 324.353653 
L 171.40155 346.066695 
L 175.134375 332.907222 
L 178.8672 299.35068 
L 182.600026 271.715889 
L 193.798502 328.959431 
L 197.531327 307.904375 
L 201.264153 314.484049 
L 204.996978 305.27243 
L 208.729804 305.930417 
L 219.92828 271.057903 
L 223.661105 267.110111 
L 227.393931 255.266611 
L 231.126756 242.76525 
L 234.859582 222.368055 
L 249.790883 227.631819 
L 253.523709 230.263764 
L 257.256534 259.214528 
L 260.98936 267.110111 
L 272.187836 301.982625 
L 275.920661 219.736236 
L 279.653487 227.631819 
L 283.386312 223.684028 
L 287.119137 214.472472 
L 298.317614 218.420264 
L 305.783264 230.92175 
L 309.51609 255.924597 
L 313.248915 259.214528 
L 324.447392 251.976806 
L 328.180217 223.026041 
L 331.913042 203.944945 
L 335.645868 191.443458 
L 339.378693 200.655014 
L 350.577169 180.257944 
L 354.309995 176.968139 
L 358.04282 178.941972 
L 361.775646 235.527528 
L 365.508471 234.869542 
L 376.706947 227.631819 
L 380.439773 238.817333 
L 384.172598 228.947792 
L 387.905424 242.107264 
L 391.638249 174.336194 
L 402.836725 165.124639 
L 406.569551 161.834708 
L 410.302376 199.339167 
L 414.035201 182.889889 
L 417.768027 182.889889 
L 428.966503 174.99418 
L 432.699329 182.231903 
L 436.432154 89.457986 
L 440.164979 88.8 
L 443.897805 88.8 
L 455.096281 96.695583 
L 458.829106 113.802847 
L 462.561932 142.095625 
L 466.294757 168.414444 
L 470.027583 176.968139 
L 481.226059 130.252125 
L 484.958884 132.226083 
L 488.69171 124.988361 
L 492.424535 154.597111 
L 496.157361 142.753611 
L 507.355837 153.939125 
L 511.088662 134.857903 
L 514.821488 134.857903 
L 518.554313 110.513042 
L 522.287138 99.327528 
L 537.21844 136.831861 
L 540.951265 146.701403 
L 544.684091 140.779653 
L 548.416916 140.779653 
L 559.615393 115.776806 
L 563.348218 118.408625 
L 567.081043 117.092778 
L 570.813869 137.489847 
L 574.546694 152.623153 
L 585.74517 142.095625 
L 589.477996 187.495667 
L 593.210821 199.339167 
L 596.943647 240.791292 
L 600.676472 231.579736 
L 611.874948 223.026041 
L 615.607774 247.371028 
L 619.340599 255.924597 
L 623.073425 244.739083 
L 626.80625 240.791292 
L 638.004726 243.423236 
L 641.737552 263.162319 
L 645.470377 247.371028 
L 649.203202 228.947792 
L 652.936028 199.997027 
L 664.134504 196.049236 
L 667.86733 205.918778 
L 671.600155 192.759431 
L 675.33298 210.524681 
L 679.065806 205.260791 
L 690.264282 186.179694 
L 693.997107 186.179694 
L 697.729933 220.394222 
L 701.462758 195.39125 
L 705.195584 198.023194 
L 716.39406 194.733264 
L 720.126885 167.756458 
L 723.859711 224.342014 
L 727.592536 218.420264 
L 731.325362 240.133305 
L 742.523838 227.631819 
L 746.256663 240.791292 
L 749.989489 319.747812 
L 753.722314 275.00582 
L 757.455139 259.872514 
L 768.653616 260.530375 
L 772.386441 236.185514 
L 776.119267 347.382604 
L 779.852092 361.2 
L 783.584917 351.330458 
L 794.783394 351.988382 
L 798.516219 316.457944 
L 802.249044 321.721708 
L 805.98187 316.129014 
L 805.98187 1359.342181 
L 805.98187 1359.342181 
L 802.249044 1359.342181 
L 798.516219 1359.342181 
L 794.783394 1359.342181 
L 783.584917 1359.342181 
L 779.852092 1359.342181 
L 776.119267 1359.342181 
L 772.386441 1359.342181 
L 768.653616 1359.342181 
L 757.455139 1359.342181 
L 753.722314 1359.342181 
L 749.989489 1359.342181 
L 746.256663 1359.342181 
L 742.523838 1359.342181 
L 731.325362 1359.342181 
L 727.592536 1359.342181 
L 723.859711 1359.342181 
L 720.126885 1359.342181 
L 716.39406 1359.342181 
L 705.195584 1359.342181 
L 701.462758 1359.342181 
L 697.729933 1359.342181 
L 693.997107 1359.342181 
L 690.264282 1359.342181 
L 679.065806 1359.342181 
L 675.33298 1359.342181 
L 671.600155 1359.342181 
L 667.86733 1359.342181 
L 664.134504 1359.342181 
L 652.936028 1359.342181 
L 649.203202 1359.342181 
L 645.470377 1359.342181 
L 641.737552 1359.342181 
L 638.004726 1359.342181 
L 626.80625 1359.342181 
L 623.073425 1359.342181 
L 619.340599 1359.342181 
L 615.607774 1359.342181 
L 611.874948 1359.342181 
L 600.676472 1359.342181 
L 596.943647 1359.342181 
L 593.210821 1359.342181 
L 589.477996 1359.342181 
L 585.74517 1359.342181 
L 574.546694 1359.342181 
L 570.813869 1359.342181 
L 567.081043 1359.342181 
L 563.348218 1359.342181 
L 559.615393 1359.342181 
L 548.416916 1359.342181 
L 544.684091 1359.342181 
L 540.951265 1359.342181 
L 537.21844 1359.342181 
L 522.287138 1359.342181 
L 518.554313 1359.342181 
L 514.821488 1359.342181 
L 511.088662 1359.342181 
L 507.355837 1359.342181 
L 496.157361 1359.342181 
L 492.424535 1359.342181 
L 488.69171 1359.342181 
L 484.958884 1359.342181 
L 481.226059 1359.342181 
L 470.027583 1359.342181 
L 466.294757 1359.342181 
L 462.561932 1359.342181 
L 458.829106 1359.342181 
L 455.096281 1359.342181 
L 443.897805 1359.342181 
L 440.164979 1359.342181 
L 436.432154 1359.342181 
L 432.699329 1359.342181 
L 428.966503 1359.342181 
L 417.768027 1359.342181 
L 414.035201 1359.342181 
L 410.302376 1359.342181 
L 406.569551 1359.342181 
L 402.836725 1359.342181 
L 391.638249 1359.342181 
L 387.905424 1359.342181 
L 384.172598 1359.342181 
L 380.439773 1359.342181 
L 376.706947 1359.342181 
L 365.508471 1359.342181 
L 361.775646 1359.342181 
L 358.04282 1359.342181 
L 354.309995 1359.342181 
L 350.577169 1359.342181 
L 339.378693 1359.342181 
L 335.645868 1359.342181 
L 331.913042 1359.342181 
L 328.180217 1359.342181 
L 324.447392 1359.342181 
L 313.248915 1359.342181 
L 309.51609 1359.342181 
L 305.783264 1359.342181 
L 298.317614 1359.342181 
L 287.119137 1359.342181 
L 283.386312 1359.342181 
L 279.653487 1359.342181 
L 275.920661 1359.342181 
L 272.187836 1359.342181 
L 260.98936 1359.342181 
L 257.256534 1359.342181 
L 253.523709 1359.342181 
L 249.790883 1359.342181 
L 234.859582 1359.342181 
L 231.126756 1359.342181 
L 227.393931 1359.342181 
L 223.661105 1359.342181 
L 219.92828 1359.342181 
L 208.729804 1359.342181 
L 204.996978 1359.342181 
L 201.264153 1359.342181 
L 197.531327 1359.342181 
L 193.798502 1359.342181 
L 182.600026 1359.342181 
L 178.8672 1359.342181 
L 175.134375 1359.342181 
L 171.40155 1359.342181 
L 156.470248 1359.342181 
L 152.737423 1359.342181 
L 149.004597 1359.342181 
L 145.271772 1359.342181 
L 141.538946 1359.342181 
L 130.34047 1359.342181 
L 126.607645 1359.342181 
L 122.874819 1359.342181 
L 119.141994 1359.342181 
z
" style="fill:#0000ff;fill-opacity:0.1;stroke:#0000ff;stroke-opacity:0.1;"/>
   </g>
   <g id="matplotlib.axis_1">
    <g id="xtick_1">
     <g id="line2d_1">
      <defs>
       <path d="M 0 0 
L 0 3.5 
" id="m6508c38758" style="stroke:#000000;stroke-width:0.8;"/>
      </defs>
      <g>
       <use style="stroke:#000000;stroke-width:0.8;" x="119.141994" xlink:href="#m6508c38758" y="361.2"/>
      </g>
     </g>
     <g id="text_1">
      <!-- 05/23 -->
      <defs>
       <path d="M 31.78125 66.40625 
Q 24.171875 66.40625 20.328125 58.90625 
Q 16.5 51.421875 16.5 36.375 
Q 16.5 21.390625 20.328125 13.890625 
Q 24.171875 6.390625 31.78125 6.390625 
Q 39.453125 6.390625 43.28125 13.890625 
Q 47.125 21.390625 47.125 36.375 
Q 47.125 51.421875 43.28125 58.90625 
Q 39.453125 66.40625 31.78125 66.40625 
z
M 31.78125 74.21875 
Q 44.046875 74.21875 50.515625 64.515625 
Q 56.984375 54.828125 56.984375 36.375 
Q 56.984375 17.96875 50.515625 8.265625 
Q 44.046875 -1.421875 31.78125 -1.421875 
Q 19.53125 -1.421875 13.0625 8.265625 
Q 6.59375 17.96875 6.59375 36.375 
Q 6.59375 54.828125 13.0625 64.515625 
Q 19.53125 74.21875 31.78125 74.21875 
z
" id="DejaVuSans-48"/>
       <path d="M 10.796875 72.90625 
L 49.515625 72.90625 
L 49.515625 64.59375 
L 19.828125 64.59375 
L 19.828125 46.734375 
Q 21.96875 47.46875 24.109375 47.828125 
Q 26.265625 48.1875 28.421875 48.1875 
Q 40.625 48.1875 47.75 41.5 
Q 54.890625 34.8125 54.890625 23.390625 
Q 54.890625 11.625 47.5625 5.09375 
Q 40.234375 -1.421875 26.90625 -1.421875 
Q 22.3125 -1.421875 17.546875 -0.640625 
Q 12.796875 0.140625 7.71875 1.703125 
L 7.71875 11.625 
Q 12.109375 9.234375 16.796875 8.0625 
Q 21.484375 6.890625 26.703125 6.890625 
Q 35.15625 6.890625 40.078125 11.328125 
Q 45.015625 15.765625 45.015625 23.390625 
Q 45.015625 31 40.078125 35.4375 
Q 35.15625 39.890625 26.703125 39.890625 
Q 22.75 39.890625 18.8125 39.015625 
Q 14.890625 38.140625 10.796875 36.28125 
z
" id="DejaVuSans-53"/>
       <path d="M 25.390625 72.90625 
L 33.6875 72.90625 
L 8.296875 -9.28125 
L 0 -9.28125 
z
" id="DejaVuSans-47"/>
       <path d="M 19.1875 8.296875 
L 53.609375 8.296875 
L 53.609375 0 
L 7.328125 0 
L 7.328125 8.296875 
Q 12.9375 14.109375 22.625 23.890625 
Q 32.328125 33.6875 34.8125 36.53125 
Q 39.546875 41.84375 41.421875 45.53125 
Q 43.3125 49.21875 43.3125 52.78125 
Q 43.3125 58.59375 39.234375 62.25 
Q 35.15625 65.921875 28.609375 65.921875 
Q 23.96875 65.921875 18.8125 64.3125 
Q 13.671875 62.703125 7.8125 59.421875 
L 7.8125 69.390625 
Q 13.765625 71.78125 18.9375 73 
Q 24.125 74.21875 28.421875 74.21875 
Q 39.75 74.21875 46.484375 68.546875 
Q 53.21875 62.890625 53.21875 53.421875 
Q 53.21875 48.921875 51.53125 44.890625 
Q 49.859375 40.875 45.40625 35.40625 
Q 44.1875 33.984375 37.640625 27.21875 
Q 31.109375 20.453125 19.1875 8.296875 
z
" id="DejaVuSans-50"/>
       <path d="M 40.578125 39.3125 
Q 47.65625 37.796875 51.625 33 
Q 55.609375 28.21875 55.609375 21.1875 
Q 55.609375 10.40625 48.1875 4.484375 
Q 40.765625 -1.421875 27.09375 -1.421875 
Q 22.515625 -1.421875 17.65625 -0.515625 
Q 12.796875 0.390625 7.625 2.203125 
L 7.625 11.71875 
Q 11.71875 9.328125 16.59375 8.109375 
Q 21.484375 6.890625 26.8125 6.890625 
Q 36.078125 6.890625 40.9375 10.546875 
Q 45.796875 14.203125 45.796875 21.1875 
Q 45.796875 27.640625 41.28125 31.265625 
Q 36.765625 34.90625 28.71875 34.90625 
L 20.21875 34.90625 
L 20.21875 43.015625 
L 29.109375 43.015625 
Q 36.375 43.015625 40.234375 45.921875 
Q 44.09375 48.828125 44.09375 54.296875 
Q 44.09375 59.90625 40.109375 62.90625 
Q 36.140625 65.921875 28.71875 65.921875 
Q 24.65625 65.921875 20.015625 65.03125 
Q 15.375 64.15625 9.8125 62.3125 
L 9.8125 71.09375 
Q 15.4375 72.65625 20.34375 73.4375 
Q 25.25 74.21875 29.59375 74.21875 
Q 40.828125 74.21875 47.359375 69.109375 
Q 53.90625 64.015625 53.90625 55.328125 
Q 53.90625 49.265625 50.4375 45.09375 
Q 46.96875 40.921875 40.578125 39.3125 
z
" id="DejaVuSans-51"/>
      </defs>
      <g transform="translate(75.913869 390.995313)scale(0.3 -0.3)">
       <use xlink:href="#DejaVuSans-48"/>
       <use x="63.623047" xlink:href="#DejaVuSans-53"/>
       <use x="127.246094" xlink:href="#DejaVuSans-47"/>
       <use x="160.9375" xlink:href="#DejaVuSans-50"/>
       <use x="224.560547" xlink:href="#DejaVuSans-51"/>
      </g>
     </g>
    </g>
    <g id="xtick_2">
     <g id="line2d_2">
      <g>
       <use style="stroke:#000000;stroke-width:0.8;" x="466.294757" xlink:href="#m6508c38758" y="361.2"/>
      </g>
     </g>
     <g id="text_2">
      <!-- 08/23 -->
      <defs>
       <path d="M 31.78125 34.625 
Q 24.75 34.625 20.71875 30.859375 
Q 16.703125 27.09375 16.703125 20.515625 
Q 16.703125 13.921875 20.71875 10.15625 
Q 24.75 6.390625 31.78125 6.390625 
Q 38.8125 6.390625 42.859375 10.171875 
Q 46.921875 13.96875 46.921875 20.515625 
Q 46.921875 27.09375 42.890625 30.859375 
Q 38.875 34.625 31.78125 34.625 
z
M 21.921875 38.8125 
Q 15.578125 40.375 12.03125 44.71875 
Q 8.5 49.078125 8.5 55.328125 
Q 8.5 64.0625 14.71875 69.140625 
Q 20.953125 74.21875 31.78125 74.21875 
Q 42.671875 74.21875 48.875 69.140625 
Q 55.078125 64.0625 55.078125 55.328125 
Q 55.078125 49.078125 51.53125 44.71875 
Q 48 40.375 41.703125 38.8125 
Q 48.828125 37.15625 52.796875 32.3125 
Q 56.78125 27.484375 56.78125 20.515625 
Q 56.78125 9.90625 50.3125 4.234375 
Q 43.84375 -1.421875 31.78125 -1.421875 
Q 19.734375 -1.421875 13.25 4.234375 
Q 6.78125 9.90625 6.78125 20.515625 
Q 6.78125 27.484375 10.78125 32.3125 
Q 14.796875 37.15625 21.921875 38.8125 
z
M 18.3125 54.390625 
Q 18.3125 48.734375 21.84375 45.5625 
Q 25.390625 42.390625 31.78125 42.390625 
Q 38.140625 42.390625 41.71875 45.5625 
Q 45.3125 48.734375 45.3125 54.390625 
Q 45.3125 60.0625 41.71875 63.234375 
Q 38.140625 66.40625 31.78125 66.40625 
Q 25.390625 66.40625 21.84375 63.234375 
Q 18.3125 60.0625 18.3125 54.390625 
z
" id="DejaVuSans-56"/>
      </defs>
      <g transform="translate(423.066632 390.995313)scale(0.3 -0.3)">
       <use xlink:href="#DejaVuSans-48"/>
       <use x="63.623047" xlink:href="#DejaVuSans-56"/>
       <use x="127.246094" xlink:href="#DejaVuSans-47"/>
       <use x="160.9375" xlink:href="#DejaVuSans-50"/>
       <use x="224.560547" xlink:href="#DejaVuSans-51"/>
      </g>
     </g>
    </g>
    <g id="xtick_3">
     <g id="line2d_3">
      <g>
       <use style="stroke:#000000;stroke-width:0.8;" x="805.98187" xlink:href="#m6508c38758" y="361.2"/>
      </g>
     </g>
     <g id="text_3">
      <!-- 11/23 -->
      <defs>
       <path d="M 12.40625 8.296875 
L 28.515625 8.296875 
L 28.515625 63.921875 
L 10.984375 60.40625 
L 10.984375 69.390625 
L 28.421875 72.90625 
L 38.28125 72.90625 
L 38.28125 8.296875 
L 54.390625 8.296875 
L 54.390625 0 
L 12.40625 0 
z
" id="DejaVuSans-49"/>
      </defs>
      <g transform="translate(762.753745 390.995313)scale(0.3 -0.3)">
       <use xlink:href="#DejaVuSans-49"/>
       <use x="63.623047" xlink:href="#DejaVuSans-49"/>
       <use x="127.246094" xlink:href="#DejaVuSans-47"/>
       <use x="160.9375" xlink:href="#DejaVuSans-50"/>
       <use x="224.560547" xlink:href="#DejaVuSans-51"/>
      </g>
     </g>
    </g>
    <g id="text_4">
     <!-- Over last 6 months -->
     <defs>
      <path d="M 39.40625 66.21875 
Q 28.65625 66.21875 22.328125 58.203125 
Q 16.015625 50.203125 16.015625 36.375 
Q 16.015625 22.609375 22.328125 14.59375 
Q 28.65625 6.59375 39.40625 6.59375 
Q 50.140625 6.59375 56.421875 14.59375 
Q 62.703125 22.609375 62.703125 36.375 
Q 62.703125 50.203125 56.421875 58.203125 
Q 50.140625 66.21875 39.40625 66.21875 
z
M 39.40625 74.21875 
Q 54.734375 74.21875 63.90625 63.9375 
Q 73.09375 53.65625 73.09375 36.375 
Q 73.09375 19.140625 63.90625 8.859375 
Q 54.734375 -1.421875 39.40625 -1.421875 
Q 24.03125 -1.421875 14.8125 8.828125 
Q 5.609375 19.09375 5.609375 36.375 
Q 5.609375 53.65625 14.8125 63.9375 
Q 24.03125 74.21875 39.40625 74.21875 
z
" id="DejaVuSans-79"/>
      <path d="M 2.984375 54.6875 
L 12.5 54.6875 
L 29.59375 8.796875 
L 46.6875 54.6875 
L 56.203125 54.6875 
L 35.6875 0 
L 23.484375 0 
z
" id="DejaVuSans-118"/>
      <path d="M 56.203125 29.59375 
L 56.203125 25.203125 
L 14.890625 25.203125 
Q 15.484375 15.921875 20.484375 11.0625 
Q 25.484375 6.203125 34.421875 6.203125 
Q 39.59375 6.203125 44.453125 7.46875 
Q 49.3125 8.734375 54.109375 11.28125 
L 54.109375 2.78125 
Q 49.265625 0.734375 44.1875 -0.34375 
Q 39.109375 -1.421875 33.890625 -1.421875 
Q 20.796875 -1.421875 13.15625 6.1875 
Q 5.515625 13.8125 5.515625 26.8125 
Q 5.515625 40.234375 12.765625 48.109375 
Q 20.015625 56 32.328125 56 
Q 43.359375 56 49.78125 48.890625 
Q 56.203125 41.796875 56.203125 29.59375 
z
M 47.21875 32.234375 
Q 47.125 39.59375 43.09375 43.984375 
Q 39.0625 48.390625 32.421875 48.390625 
Q 24.90625 48.390625 20.390625 44.140625 
Q 15.875 39.890625 15.1875 32.171875 
z
" id="DejaVuSans-101"/>
      <path d="M 41.109375 46.296875 
Q 39.59375 47.171875 37.8125 47.578125 
Q 36.03125 48 33.890625 48 
Q 26.265625 48 22.1875 43.046875 
Q 18.109375 38.09375 18.109375 28.8125 
L 18.109375 0 
L 9.078125 0 
L 9.078125 54.6875 
L 18.109375 54.6875 
L 18.109375 46.1875 
Q 20.953125 51.171875 25.484375 53.578125 
Q 30.03125 56 36.53125 56 
Q 37.453125 56 38.578125 55.875 
Q 39.703125 55.765625 41.0625 55.515625 
z
" id="DejaVuSans-114"/>
      <path id="DejaVuSans-32"/>
      <path d="M 9.421875 75.984375 
L 18.40625 75.984375 
L 18.40625 0 
L 9.421875 0 
z
" id="DejaVuSans-108"/>
      <path d="M 34.28125 27.484375 
Q 23.390625 27.484375 19.1875 25 
Q 14.984375 22.515625 14.984375 16.5 
Q 14.984375 11.71875 18.140625 8.90625 
Q 21.296875 6.109375 26.703125 6.109375 
Q 34.1875 6.109375 38.703125 11.40625 
Q 43.21875 16.703125 43.21875 25.484375 
L 43.21875 27.484375 
z
M 52.203125 31.203125 
L 52.203125 0 
L 43.21875 0 
L 43.21875 8.296875 
Q 40.140625 3.328125 35.546875 0.953125 
Q 30.953125 -1.421875 24.3125 -1.421875 
Q 15.921875 -1.421875 10.953125 3.296875 
Q 6 8.015625 6 15.921875 
Q 6 25.140625 12.171875 29.828125 
Q 18.359375 34.515625 30.609375 34.515625 
L 43.21875 34.515625 
L 43.21875 35.40625 
Q 43.21875 41.609375 39.140625 45 
Q 35.0625 48.390625 27.6875 48.390625 
Q 23 48.390625 18.546875 47.265625 
Q 14.109375 46.140625 10.015625 43.890625 
L 10.015625 52.203125 
Q 14.9375 54.109375 19.578125 55.046875 
Q 24.21875 56 28.609375 56 
Q 40.484375 56 46.34375 49.84375 
Q 52.203125 43.703125 52.203125 31.203125 
z
" id="DejaVuSans-97"/>
      <path d="M 44.28125 53.078125 
L 44.28125 44.578125 
Q 40.484375 46.53125 36.375 47.5 
Q 32.28125 48.484375 27.875 48.484375 
Q 21.1875 48.484375 17.84375 46.4375 
Q 14.5 44.390625 14.5 40.28125 
Q 14.5 37.15625 16.890625 35.375 
Q 19.28125 33.59375 26.515625 31.984375 
L 29.59375 31.296875 
Q 39.15625 29.25 43.1875 25.515625 
Q 47.21875 21.78125 47.21875 15.09375 
Q 47.21875 7.46875 41.1875 3.015625 
Q 35.15625 -1.421875 24.609375 -1.421875 
Q 20.21875 -1.421875 15.453125 -0.5625 
Q 10.6875 0.296875 5.421875 2 
L 5.421875 11.28125 
Q 10.40625 8.6875 15.234375 7.390625 
Q 20.0625 6.109375 24.8125 6.109375 
Q 31.15625 6.109375 34.5625 8.28125 
Q 37.984375 10.453125 37.984375 14.40625 
Q 37.984375 18.0625 35.515625 20.015625 
Q 33.0625 21.96875 24.703125 23.78125 
L 21.578125 24.515625 
Q 13.234375 26.265625 9.515625 29.90625 
Q 5.8125 33.546875 5.8125 39.890625 
Q 5.8125 47.609375 11.28125 51.796875 
Q 16.75 56 26.8125 56 
Q 31.78125 56 36.171875 55.265625 
Q 40.578125 54.546875 44.28125 53.078125 
z
" id="DejaVuSans-115"/>
      <path d="M 18.3125 70.21875 
L 18.3125 54.6875 
L 36.8125 54.6875 
L 36.8125 47.703125 
L 18.3125 47.703125 
L 18.3125 18.015625 
Q 18.3125 11.328125 20.140625 9.421875 
Q 21.96875 7.515625 27.59375 7.515625 
L 36.8125 7.515625 
L 36.8125 0 
L 27.59375 0 
Q 17.1875 0 13.234375 3.875 
Q 9.28125 7.765625 9.28125 18.015625 
L 9.28125 47.703125 
L 2.6875 47.703125 
L 2.6875 54.6875 
L 9.28125 54.6875 
L 9.28125 70.21875 
z
" id="DejaVuSans-116"/>
      <path d="M 33.015625 40.375 
Q 26.375 40.375 22.484375 35.828125 
Q 18.609375 31.296875 18.609375 23.390625 
Q 18.609375 15.53125 22.484375 10.953125 
Q 26.375 6.390625 33.015625 6.390625 
Q 39.65625 6.390625 43.53125 10.953125 
Q 47.40625 15.53125 47.40625 23.390625 
Q 47.40625 31.296875 43.53125 35.828125 
Q 39.65625 40.375 33.015625 40.375 
z
M 52.59375 71.296875 
L 52.59375 62.3125 
Q 48.875 64.0625 45.09375 64.984375 
Q 41.3125 65.921875 37.59375 65.921875 
Q 27.828125 65.921875 22.671875 59.328125 
Q 17.53125 52.734375 16.796875 39.40625 
Q 19.671875 43.65625 24.015625 45.921875 
Q 28.375 48.1875 33.59375 48.1875 
Q 44.578125 48.1875 50.953125 41.515625 
Q 57.328125 34.859375 57.328125 23.390625 
Q 57.328125 12.15625 50.6875 5.359375 
Q 44.046875 -1.421875 33.015625 -1.421875 
Q 20.359375 -1.421875 13.671875 8.265625 
Q 6.984375 17.96875 6.984375 36.375 
Q 6.984375 53.65625 15.1875 63.9375 
Q 23.390625 74.21875 37.203125 74.21875 
Q 40.921875 74.21875 44.703125 73.484375 
Q 48.484375 72.75 52.59375 71.296875 
z
" id="DejaVuSans-54"/>
      <path d="M 52 44.1875 
Q 55.375 50.25 60.0625 53.125 
Q 64.75 56 71.09375 56 
Q 79.640625 56 84.28125 50.015625 
Q 88.921875 44.046875 88.921875 33.015625 
L 88.921875 0 
L 79.890625 0 
L 79.890625 32.71875 
Q 79.890625 40.578125 77.09375 44.375 
Q 74.3125 48.1875 68.609375 48.1875 
Q 61.625 48.1875 57.5625 43.546875 
Q 53.515625 38.921875 53.515625 30.90625 
L 53.515625 0 
L 44.484375 0 
L 44.484375 32.71875 
Q 44.484375 40.625 41.703125 44.40625 
Q 38.921875 48.1875 33.109375 48.1875 
Q 26.21875 48.1875 22.15625 43.53125 
Q 18.109375 38.875 18.109375 30.90625 
L 18.109375 0 
L 9.078125 0 
L 9.078125 54.6875 
L 18.109375 54.6875 
L 18.109375 46.1875 
Q 21.1875 51.21875 25.484375 53.609375 
Q 29.78125 56 35.6875 56 
Q 41.65625 56 45.828125 52.96875 
Q 50 49.953125 52 44.1875 
z
" id="DejaVuSans-109"/>
      <path d="M 30.609375 48.390625 
Q 23.390625 48.390625 19.1875 42.75 
Q 14.984375 37.109375 14.984375 27.296875 
Q 14.984375 17.484375 19.15625 11.84375 
Q 23.34375 6.203125 30.609375 6.203125 
Q 37.796875 6.203125 41.984375 11.859375 
Q 46.1875 17.53125 46.1875 27.296875 
Q 46.1875 37.015625 41.984375 42.703125 
Q 37.796875 48.390625 30.609375 48.390625 
z
M 30.609375 56 
Q 42.328125 56 49.015625 48.375 
Q 55.71875 40.765625 55.71875 27.296875 
Q 55.71875 13.875 49.015625 6.21875 
Q 42.328125 -1.421875 30.609375 -1.421875 
Q 18.84375 -1.421875 12.171875 6.21875 
Q 5.515625 13.875 5.515625 27.296875 
Q 5.515625 40.765625 12.171875 48.375 
Q 18.84375 56 30.609375 56 
z
" id="DejaVuSans-111"/>
      <path d="M 54.890625 33.015625 
L 54.890625 0 
L 45.90625 0 
L 45.90625 32.71875 
Q 45.90625 40.484375 42.875 44.328125 
Q 39.84375 48.1875 33.796875 48.1875 
Q 26.515625 48.1875 22.3125 43.546875 
Q 18.109375 38.921875 18.109375 30.90625 
L 18.109375 0 
L 9.078125 0 
L 9.078125 54.6875 
L 18.109375 54.6875 
L 18.109375 46.1875 
Q 21.34375 51.125 25.703125 53.5625 
Q 30.078125 56 35.796875 56 
Q 45.21875 56 50.046875 50.171875 
Q 54.890625 44.34375 54.890625 33.015625 
z
" id="DejaVuSans-110"/>
      <path d="M 54.890625 33.015625 
L 54.890625 0 
L 45.90625 0 
L 45.90625 32.71875 
Q 45.90625 40.484375 42.875 44.328125 
Q 39.84375 48.1875 33.796875 48.1875 
Q 26.515625 48.1875 22.3125 43.546875 
Q 18.109375 38.921875 18.109375 30.90625 
L 18.109375 0 
L 9.078125 0 
L 9.078125 75.984375 
L 18.109375 75.984375 
L 18.109375 46.1875 
Q 21.34375 51.125 25.703125 53.5625 
Q 30.078125 56 35.796875 56 
Q 45.21875 56 50.046875 50.171875 
Q 54.890625 44.34375 54.890625 33.015625 
z
" id="DejaVuSans-104"/>
     </defs>
     <g transform="translate(357.345213 417.950938)scale(0.22 -0.22)">
      <use xlink:href="#DejaVuSans-79"/>
      <use x="78.710938" xlink:href="#DejaVuSans-118"/>
      <use x="137.890625" xlink:href="#DejaVuSans-101"/>
      <use x="199.414062" xlink:href="#DejaVuSans-114"/>
      <use x="240.527344" xlink:href="#DejaVuSans-32"/>
      <use x="272.314453" xlink:href="#DejaVuSans-108"/>
      <use x="300.097656" xlink:href="#DejaVuSans-97"/>
      <use x="361.376953" xlink:href="#DejaVuSans-115"/>
      <use x="413.476562" xlink:href="#DejaVuSans-116"/>
      <use x="452.685547" xlink:href="#DejaVuSans-32"/>
      <use x="484.472656" xlink:href="#DejaVuSans-54"/>
      <use x="548.095703" xlink:href="#DejaVuSans-32"/>
      <use x="579.882812" xlink:href="#DejaVuSans-109"/>
      <use x="677.294922" xlink:href="#DejaVuSans-111"/>
      <use x="738.476562" xlink:href="#DejaVuSans-110"/>
      <use x="801.855469" xlink:href="#DejaVuSans-116"/>
      <use x="841.064453" xlink:href="#DejaVuSans-104"/>
      <use x="904.443359" xlink:href="#DejaVuSans-115"/>
     </g>
    </g>
   </g>
   <g id="matplotlib.axis_2">
    <g id="ytick_1">
     <g id="line2d_4">
      <defs>
       <path d="M 0 0 
L -3.5 0 
" id="mefaba2d16b" style="stroke:#000000;stroke-width:0.8;"/>
      </defs>
      <g>
       <use style="stroke:#000000;stroke-width:0.8;" x="84.8" xlink:href="#mefaba2d16b" y="273.689847"/>
      </g>
     </g>
     <g id="text_5">
      <!-- 16.5 -->
      <defs>
       <path d="M 10.6875 12.40625 
L 21 12.40625 
L 21 0 
L 10.6875 0 
z
" id="DejaVuSans-46"/>
      </defs>
      <g transform="translate(11.003125 285.087503)scale(0.3 -0.3)">
       <use xlink:href="#DejaVuSans-49"/>
       <use x="63.623047" xlink:href="#DejaVuSans-54"/>
       <use x="127.246094" xlink:href="#DejaVuSans-46"/>
       <use x="159.033203" xlink:href="#DejaVuSans-53"/>
      </g>
     </g>
    </g>
    <g id="ytick_2">
     <g id="line2d_5">
      <g>
       <use style="stroke:#000000;stroke-width:0.8;" x="84.8" xlink:href="#mefaba2d16b" y="174.99418"/>
      </g>
     </g>
     <g id="text_6">
      <!-- 18.0 -->
      <g transform="translate(11.003125 186.391837)scale(0.3 -0.3)">
       <use xlink:href="#DejaVuSans-49"/>
       <use x="63.623047" xlink:href="#DejaVuSans-56"/>
       <use x="127.246094" xlink:href="#DejaVuSans-46"/>
       <use x="159.033203" xlink:href="#DejaVuSans-48"/>
      </g>
     </g>
    </g>
   </g>
   <g id="line2d_6">
    <path clip-path="url(#p04466bb96d)" d="M 119.141994 317.115931 
L 122.874819 303.956458 
L 126.607645 307.246389 
L 130.34047 287.50718 
L 141.538946 305.930417 
L 145.271772 325.011576 
L 149.004597 324.353653 
L 152.737423 349.3565 
L 156.470248 324.353653 
L 171.40155 346.066695 
L 175.134375 332.907222 
L 178.8672 299.35068 
L 182.600026 271.715889 
L 193.798502 328.959431 
L 197.531327 307.904375 
L 201.264153 314.484049 
L 204.996978 305.27243 
L 208.729804 305.930417 
L 219.92828 271.057903 
L 223.661105 267.110111 
L 227.393931 255.266611 
L 231.126756 242.76525 
L 234.859582 222.368055 
L 249.790883 227.631819 
L 253.523709 230.263764 
L 257.256534 259.214528 
L 260.98936 267.110111 
L 272.187836 301.982625 
L 275.920661 219.736236 
L 279.653487 227.631819 
L 283.386312 223.684028 
L 287.119137 214.472472 
L 298.317614 218.420264 
L 305.783264 230.92175 
L 309.51609 255.924597 
L 313.248915 259.214528 
L 324.447392 251.976806 
L 328.180217 223.026041 
L 331.913042 203.944945 
L 335.645868 191.443458 
L 339.378693 200.655014 
L 350.577169 180.257944 
L 354.309995 176.968139 
L 358.04282 178.941972 
L 361.775646 235.527528 
L 365.508471 234.869542 
L 376.706947 227.631819 
L 380.439773 238.817333 
L 384.172598 228.947792 
L 387.905424 242.107264 
L 391.638249 174.336194 
L 402.836725 165.124639 
L 406.569551 161.834708 
L 410.302376 199.339167 
L 414.035201 182.889889 
L 417.768027 182.889889 
L 428.966503 174.99418 
L 432.699329 182.231903 
L 436.432154 89.457986 
L 440.164979 88.8 
L 443.897805 88.8 
L 455.096281 96.695583 
L 458.829106 113.802847 
L 462.561932 142.095625 
L 466.294757 168.414444 
L 470.027583 176.968139 
L 481.226059 130.252125 
L 484.958884 132.226083 
L 488.69171 124.988361 
L 492.424535 154.597111 
L 496.157361 142.753611 
L 507.355837 153.939125 
L 511.088662 134.857903 
L 514.821488 134.857903 
L 518.554313 110.513042 
L 522.287138 99.327528 
L 537.21844 136.831861 
L 540.951265 146.701403 
L 544.684091 140.779653 
L 548.416916 140.779653 
L 559.615393 115.776806 
L 563.348218 118.408625 
L 567.081043 117.092778 
L 570.813869 137.489847 
L 574.546694 152.623153 
L 585.74517 142.095625 
L 589.477996 187.495667 
L 593.210821 199.339167 
L 596.943647 240.791292 
L 600.676472 231.579736 
L 611.874948 223.026041 
L 615.607774 247.371028 
L 619.340599 255.924597 
L 623.073425 244.739083 
L 626.80625 240.791292 
L 638.004726 243.423236 
L 641.737552 263.162319 
L 645.470377 247.371028 
L 649.203202 228.947792 
L 652.936028 199.997027 
L 664.134504 196.049236 
L 667.86733 205.918778 
L 671.600155 192.759431 
L 675.33298 210.524681 
L 679.065806 205.260791 
L 690.264282 186.179694 
L 693.997107 186.179694 
L 697.729933 220.394222 
L 701.462758 195.39125 
L 705.195584 198.023194 
L 716.39406 194.733264 
L 720.126885 167.756458 
L 723.859711 224.342014 
L 727.592536 218.420264 
L 731.325362 240.133305 
L 742.523838 227.631819 
L 746.256663 240.791292 
L 749.989489 319.747812 
L 753.722314 275.00582 
L 757.455139 259.872514 
L 768.653616 260.530375 
L 772.386441 236.185514 
L 776.119267 347.382604 
L 779.852092 361.2 
L 783.584917 351.330458 
L 794.783394 351.988382 
L 798.516219 316.457944 
L 802.249044 321.721708 
L 805.98187 316.129014 
L 805.98187 316.129014 
" style="fill:none;stroke:#000000;stroke-linecap:square;stroke-width:4;"/>
   </g>
   <g id="patch_3">
    <path d="M 84.8 361.2 
L 84.8 88.8 
" style="fill:none;stroke:#000000;stroke-linecap:square;stroke-linejoin:miter;stroke-width:0.8;"/>
   </g>
   <g id="patch_4">
    <path d="M 84.8 361.2 
L 840.323864 361.2 
" style="fill:none;stroke:#000000;stroke-linecap:square;stroke-linejoin:miter;stroke-width:0.8;"/>
   </g>
   <g id="text_7">
    <!-- CPNG   0% -->
    <defs>
     <path d="M 67 4 
Q 61.8125 1.3125 56.203125 -0.046875 
Q 50.59375 -1.421875 44.484375 -1.421875 
Q 26.265625 -1.421875 15.625 8.765625 
Q 4.984375 18.953125 4.984375 36.375 
Q 4.984375 53.859375 15.625 64.03125 
Q 26.265625 74.21875 44.484375 74.21875 
Q 50.59375 74.21875 56.203125 72.84375 
Q 61.8125 71.484375 67 68.796875 
L 67 53.71875 
Q 61.765625 57.28125 56.6875 58.9375 
Q 51.609375 60.59375 46 60.59375 
Q 35.9375 60.59375 30.171875 54.140625 
Q 24.421875 47.703125 24.421875 36.375 
Q 24.421875 25.09375 30.171875 18.640625 
Q 35.9375 12.203125 46 12.203125 
Q 51.609375 12.203125 56.6875 13.859375 
Q 61.765625 15.53125 67 19.09375 
z
" id="DejaVuSans-Bold-67"/>
     <path d="M 9.1875 72.90625 
L 40.375 72.90625 
Q 54.296875 72.90625 61.734375 66.71875 
Q 69.1875 60.546875 69.1875 49.125 
Q 69.1875 37.640625 61.734375 31.46875 
Q 54.296875 25.296875 40.375 25.296875 
L 27.984375 25.296875 
L 27.984375 0 
L 9.1875 0 
z
M 27.984375 59.28125 
L 27.984375 38.921875 
L 38.375 38.921875 
Q 43.84375 38.921875 46.828125 41.578125 
Q 49.8125 44.234375 49.8125 49.125 
Q 49.8125 54 46.828125 56.640625 
Q 43.84375 59.28125 38.375 59.28125 
z
" id="DejaVuSans-Bold-80"/>
     <path d="M 9.1875 72.90625 
L 30.171875 72.90625 
L 56.6875 22.90625 
L 56.6875 72.90625 
L 74.515625 72.90625 
L 74.515625 0 
L 53.515625 0 
L 27 50 
L 27 0 
L 9.1875 0 
z
" id="DejaVuSans-Bold-78"/>
     <path d="M 74.703125 5.421875 
Q 67.671875 2 60.109375 0.28125 
Q 52.546875 -1.421875 44.484375 -1.421875 
Q 26.265625 -1.421875 15.625 8.765625 
Q 4.984375 18.953125 4.984375 36.375 
Q 4.984375 54 15.8125 64.109375 
Q 26.65625 74.21875 45.515625 74.21875 
Q 52.78125 74.21875 59.4375 72.84375 
Q 66.109375 71.484375 72.015625 68.796875 
L 72.015625 53.71875 
Q 65.921875 57.171875 59.890625 58.875 
Q 53.859375 60.59375 47.796875 60.59375 
Q 36.578125 60.59375 30.5 54.3125 
Q 24.421875 48.046875 24.421875 36.375 
Q 24.421875 24.8125 30.28125 18.5 
Q 36.140625 12.203125 46.921875 12.203125 
Q 49.859375 12.203125 52.375 12.5625 
Q 54.890625 12.9375 56.890625 13.71875 
L 56.890625 27.875 
L 45.40625 27.875 
L 45.40625 40.484375 
L 74.703125 40.484375 
z
" id="DejaVuSans-Bold-71"/>
     <path id="DejaVuSans-Bold-32"/>
     <path d="M 46 36.53125 
Q 46 50.203125 43.4375 55.78125 
Q 40.875 61.375 34.8125 61.375 
Q 28.765625 61.375 26.171875 55.78125 
Q 23.578125 50.203125 23.578125 36.53125 
Q 23.578125 22.703125 26.171875 17.03125 
Q 28.765625 11.375 34.8125 11.375 
Q 40.828125 11.375 43.40625 17.03125 
Q 46 22.703125 46 36.53125 
z
M 64.796875 36.375 
Q 64.796875 18.265625 56.984375 8.421875 
Q 49.171875 -1.421875 34.8125 -1.421875 
Q 20.40625 -1.421875 12.59375 8.421875 
Q 4.78125 18.265625 4.78125 36.375 
Q 4.78125 54.546875 12.59375 64.375 
Q 20.40625 74.21875 34.8125 74.21875 
Q 49.171875 74.21875 56.984375 64.375 
Q 64.796875 54.546875 64.796875 36.375 
z
" id="DejaVuSans-Bold-48"/>
     <path d="M 77.484375 30.078125 
Q 74.03125 30.078125 72.125 27.078125 
Q 70.21875 24.078125 70.21875 18.5 
Q 70.21875 12.890625 72.09375 9.890625 
Q 73.96875 6.890625 77.484375 6.890625 
Q 81 6.890625 82.859375 9.890625 
Q 84.71875 12.890625 84.71875 18.5 
Q 84.71875 24.078125 82.828125 27.078125 
Q 80.953125 30.078125 77.484375 30.078125 
z
M 77.484375 38.28125 
Q 86.578125 38.28125 91.796875 33 
Q 97.015625 27.734375 97.015625 18.5 
Q 97.015625 9.28125 91.796875 3.921875 
Q 86.578125 -1.421875 77.484375 -1.421875 
Q 68.40625 -1.421875 63.15625 3.921875 
Q 57.90625 9.28125 57.90625 18.5 
Q 57.90625 27.6875 63.15625 32.984375 
Q 68.40625 38.28125 77.484375 38.28125 
z
M 32.71875 -1.421875 
L 21.921875 -1.421875 
L 67.484375 74.21875 
L 78.328125 74.21875 
z
M 22.703125 74.21875 
Q 31.78125 74.21875 36.984375 68.921875 
Q 42.1875 63.625 42.1875 54.390625 
Q 42.1875 45.171875 36.984375 39.84375 
Q 31.78125 34.515625 22.703125 34.515625 
Q 13.625 34.515625 8.421875 39.84375 
Q 3.21875 45.171875 3.21875 54.390625 
Q 3.21875 63.625 8.421875 68.921875 
Q 13.625 74.21875 22.703125 74.21875 
z
M 22.703125 66.015625 
Q 19.1875 66.015625 17.28125 62.984375 
Q 15.375 59.96875 15.375 54.390625 
Q 15.375 48.78125 17.28125 45.71875 
Q 19.1875 42.671875 22.703125 42.671875 
Q 26.21875 42.671875 28.09375 45.71875 
Q 29.984375 48.78125 29.984375 54.390625 
Q 29.984375 59.96875 28.078125 62.984375 
Q 26.171875 66.015625 22.703125 66.015625 
z
" id="DejaVuSans-Bold-37"/>
    </defs>
    <g transform="translate(84.8 72.1625)scale(0.8 -0.8)">
     <use xlink:href="#DejaVuSans-Bold-67"/>
     <use x="73.388672" xlink:href="#DejaVuSans-Bold-80"/>
     <use x="146.679688" xlink:href="#DejaVuSans-Bold-78"/>
     <use x="230.371094" xlink:href="#DejaVuSans-Bold-71"/>
     <use x="312.451172" xlink:href="#DejaVuSans-Bold-32"/>
     <use x="347.265625" xlink:href="#DejaVuSans-Bold-32"/>
     <use x="382.080078" xlink:href="#DejaVuSans-Bold-32"/>
     <use x="416.894531" xlink:href="#DejaVuSans-Bold-48"/>
     <use x="486.474609" xlink:href="#DejaVuSans-Bold-37"/>
    </g>
   </g>
  </g>
 </g>
 <defs>
  <clipPath id="p04466bb96d">
   <rect height="272.4" width="755.523864" x="84.8" y="88.8"/>
  </clipPath>
 </defs>
</svg>
