<?xml version="1.0" encoding="utf-8" standalone="no"?>
<!DOCTYPE svg PUBLIC "-//W3C//DTD SVG 1.1//EN"
  "http://www.w3.org/Graphics/SVG/1.1/DTD/svg11.dtd">
<!-- Created with matplotlib (https://matplotlib.org/) -->
<svg height="432pt" version="1.1" viewBox="0 0 576 432" width="576pt" xmlns="http://www.w3.org/2000/svg" xmlns:xlink="http://www.w3.org/1999/xlink">
 <defs>
  <style type="text/css">
*{stroke-linecap:butt;stroke-linejoin:round;}
  </style>
 </defs>
 <g id="figure_1">
  <g id="patch_1">
   <path d="M 0 432 
L 576 432 
L 576 0 
L 0 0 
z
" style="fill:#ffffff;"/>
  </g>
  <g id="axes_1">
   <g id="patch_2">
    <path d="M 36.925 404.2 
L 565.2 404.2 
L 565.2 31.8 
L 36.925 31.8 
z
" style="fill:#ffffff;"/>
   </g>
   <g id="PolyCollection_1">
    <defs>
     <path d="M 60.9375 -44.727273 
L 60.9375 -256.09971 
L 62.253253 -246.623849 
L 66.200514 -253.586286 
L 67.516267 -257.211974 
L 68.832021 -249.931725 
L 70.147774 -270.501291 
L 71.463527 -272.566903 
L 75.410788 -273.910292 
L 76.726541 -278.836013 
L 78.042295 -268.79678 
L 79.358048 -260.953202 
L 80.673801 -258.569778 
L 84.621062 -253.961868 
L 85.936815 -260.317622 
L 87.252568 -264.636659 
L 89.884075 -266.240046 
L 93.831336 -266.731168 
L 95.147089 -263.827726 
L 96.462842 -276.207028 
L 97.778596 -257.067516 
L 99.094349 -253.542953 
L 103.04161 -238.188002 
L 104.357363 -237.234655 
L 105.673116 -233.204511 
L 106.98887 -232.698952 
L 108.304623 -234.114548 
L 112.251884 -237.003531 
L 113.567637 -240.629196 
L 114.88339 -239.372496 
L 116.199144 -233.146741 
L 117.514897 -230.012197 
L 121.462158 -231.081107 
L 122.777911 -230.272195 
L 124.093664 -232.944513 
L 125.409418 -231.341127 
L 126.725171 -231.70225 
L 131.988185 -233.464531 
L 133.303938 -230.301091 
L 134.619692 -236.18016 
L 135.935445 -236.252389 
L 141.198459 -239.415829 
L 142.514212 -246.363829 
L 143.829966 -241.669232 
L 145.145719 -247.692759 
L 149.092979 -257.211974 
L 150.408733 -257.703096 
L 151.724486 -254.034075 
L 153.04024 -260.823203 
L 154.355993 -260.693182 
L 159.619007 -259.19092 
L 160.93476 -254.82855 
L 162.250514 -256.215272 
L 163.566267 -263.206605 
L 167.513527 -269.880148 
L 168.829281 -268.42122 
L 170.145034 -270.3135 
L 171.460788 -283.198361 
L 172.776541 -282.375013 
L 176.723801 -282.707239 
L 178.039555 -287.358504 
L 179.355308 -292.919805 
L 180.671062 -296.993259 
L 181.986815 -291.793081 
L 185.934075 -288.918557 
L 187.249829 -292.139767 
L 188.565582 -289.756365 
L 189.881336 -295.577664 
L 191.197089 -286.000678 
L 195.144349 -291.850873 
L 196.460103 -290.23305 
L 197.775856 -291.879769 
L 199.09161 -287.560732 
L 200.407363 -283.313923 
L 205.670377 -278.185974 
L 206.98613 -280.699397 
L 208.301884 -281.797203 
L 209.617637 -279.023782 
L 213.564897 -280.381607 
L 214.880651 -281.06052 
L 216.196404 -286.462926 
L 217.512158 -314.254927 
L 218.827911 -314.023804 
L 222.775171 -310.224806 
L 224.090925 -309.531456 
L 225.406678 -308.996979 
L 226.722432 -302.886787 
L 228.038185 -294.884292 
L 231.985445 -298.24996 
L 233.301199 -308.910313 
L 234.616952 -308.939209 
L 235.932705 -315.280526 
L 237.248459 -311.741526 
L 241.195719 -312.319314 
L 242.511473 -317.273909 
L 243.827226 -314.139365 
L 245.142979 -315.482754 
L 246.458733 -319.267315 
L 250.405993 -321.0007 
L 251.721747 -322.502983 
L 253.0375 -328.772071 
L 254.353253 -328.714301 
L 255.669007 -333.307773 
L 259.616267 -328.555406 
L 260.932021 -329.580983 
L 262.247774 -326.850895 
L 263.563527 -322.864106 
L 268.826541 -321.332949 
L 270.142295 -317.577262 
L 271.458048 -319.642896 
L 272.773801 -324.98751 
L 274.089555 -325.897525 
L 278.036815 -329.407651 
L 279.352568 -331.458826 
L 280.668322 -332.06551 
L 281.984075 -330.028771 
L 283.299829 -332.224405 
L 287.247089 -326.287544 
L 288.562842 -320.148455 
L 289.878596 -321.376282 
L 291.194349 -327.760931 
L 292.510103 -331.271035 
L 296.457363 -330.433227 
L 297.773116 -324.72749 
L 299.08887 -322.950772 
L 300.404623 -322.618545 
L 301.720377 -330.144333 
L 305.667637 -330.592122 
L 306.98339 -335.330052 
L 308.299144 -340.631355 
L 309.614897 -338.63795 
L 310.930651 -336.240089 
L 314.877911 -338.435722 
L 316.193664 -340.212441 
L 317.509418 -347.1749 
L 318.825171 -352.8662 
L 320.140925 -348.590495 
L 324.088185 -348.446037 
L 325.403938 -343.216985 
L 326.719692 -346.712652 
L 328.035445 -347.940479 
L 329.351199 -355.928515 
L 334.614212 -360.88311 
L 335.929966 -367.39778 
L 337.245719 -352.259494 
L 338.561473 -352.447285 
L 342.508733 -347.86825 
L 343.824486 -352.187287 
L 345.14024 -341.902493 
L 346.455993 -347.391565 
L 347.771747 -355.740724 
L 351.719007 -353.400655 
L 353.03476 -346.59709 
L 354.350514 -347.203774 
L 355.666267 -350.843899 
L 356.982021 -350.612775 
L 362.245034 -358.138585 
L 363.560788 -347.478231 
L 364.876541 -352.822845 
L 366.192295 -348.200477 
L 370.139555 -344.257021 
L 371.455308 -346.365988 
L 372.771062 -351.205021 
L 374.086815 -348.691598 
L 375.402568 -349.890529 
L 379.349829 -350.45388 
L 381.981336 -353.588446 
L 383.297089 -348.272706 
L 384.612842 -347.478231 
L 388.560103 -352.129495 
L 389.875856 -364.205445 
L 391.19161 -373.031288 
L 392.507363 -377.494761 
L 393.823116 -375.9925 
L 397.770377 -374.071324 
L 399.08613 -373.536869 
L 400.401884 -383.272727 
L 401.717637 -374.302448 
L 403.03339 -374.15799 
L 406.980651 -370.691219 
L 408.296404 -371.225674 
L 409.612158 -370.575657 
L 410.927911 -369.954514 
L 412.243664 -370.604553 
L 416.190925 -369.752286 
L 417.506678 -368.683377 
L 418.822432 -363.237638 
L 420.138185 -356.101847 
L 421.453938 -354.700688 
L 425.401199 -356.824092 
L 426.716952 -350.352777 
L 428.032705 -342.090284 
L 429.348459 -345.542618 
L 430.664212 -346.192634 
L 434.611473 -351.046127 
L 435.927226 -346.308196 
L 437.242979 -343.722566 
L 438.558733 -339.172405 
L 439.874486 -340.602459 
L 443.821747 -346.669319 
L 445.1375 -343.390317 
L 446.453253 -346.813777 
L 447.769007 -341.584703 
L 449.08476 -347.304899 
L 453.032021 -350.555005 
L 454.347774 -350.901691 
L 455.663527 -355.350705 
L 456.979281 -364.624359 
L 458.295034 -364.725462 
L 463.558048 -360.623112 
L 464.873801 -364.855461 
L 466.189555 -366.169954 
L 467.505308 -369.391164 
L 471.452568 -370.185638 
L 472.768322 -364.913253 
L 474.084075 -360.782007 
L 475.399829 -360.753111 
L 476.715582 -354.729584 
L 480.662842 -355.292935 
L 481.978596 -356.304075 
L 483.294349 -352.447285 
L 484.610103 -346.062635 
L 485.925856 -342.913633 
L 489.873116 -342.783634 
L 491.18887 -337.222355 
L 492.504623 -337.569019 
L 493.820377 -338.247931 
L 495.13613 -337.641248 
L 499.08339 -338.984636 
L 500.399144 -333.380002 
L 501.714897 -336.326755 
L 503.030651 -336.528983 
L 504.346404 -344.257021 
L 508.293664 -344.054793 
L 509.609418 -343.563671 
L 510.925171 -343.520338 
L 512.240925 -341.830264 
L 513.556678 -340.255774 
L 517.503938 -345.947073 
L 518.819692 -347.839354 
L 520.135445 -340.602459 
L 521.451199 -345.643743 
L 522.766952 -339.01351 
L 526.714212 -336.514546 
L 528.029966 -339.721319 
L 529.345719 -329.378755 
L 530.661473 -328.20872 
L 531.977226 -328.670968 
L 535.924486 -332.571091 
L 537.24024 -334.824494 
L 538.555993 -339.27353 
L 539.871747 -345.34039 
L 541.1875 -345.297057 
L 541.1875 -44.727273 
L 541.1875 -44.727273 
L 539.871747 -44.727273 
L 538.555993 -44.727273 
L 537.24024 -44.727273 
L 535.924486 -44.727273 
L 531.977226 -44.727273 
L 530.661473 -44.727273 
L 529.345719 -44.727273 
L 528.029966 -44.727273 
L 526.714212 -44.727273 
L 522.766952 -44.727273 
L 521.451199 -44.727273 
L 520.135445 -44.727273 
L 518.819692 -44.727273 
L 517.503938 -44.727273 
L 513.556678 -44.727273 
L 512.240925 -44.727273 
L 510.925171 -44.727273 
L 509.609418 -44.727273 
L 508.293664 -44.727273 
L 504.346404 -44.727273 
L 503.030651 -44.727273 
L 501.714897 -44.727273 
L 500.399144 -44.727273 
L 499.08339 -44.727273 
L 495.13613 -44.727273 
L 493.820377 -44.727273 
L 492.504623 -44.727273 
L 491.18887 -44.727273 
L 489.873116 -44.727273 
L 485.925856 -44.727273 
L 484.610103 -44.727273 
L 483.294349 -44.727273 
L 481.978596 -44.727273 
L 480.662842 -44.727273 
L 476.715582 -44.727273 
L 475.399829 -44.727273 
L 474.084075 -44.727273 
L 472.768322 -44.727273 
L 471.452568 -44.727273 
L 467.505308 -44.727273 
L 466.189555 -44.727273 
L 464.873801 -44.727273 
L 463.558048 -44.727273 
L 458.295034 -44.727273 
L 456.979281 -44.727273 
L 455.663527 -44.727273 
L 454.347774 -44.727273 
L 453.032021 -44.727273 
L 449.08476 -44.727273 
L 447.769007 -44.727273 
L 446.453253 -44.727273 
L 445.1375 -44.727273 
L 443.821747 -44.727273 
L 439.874486 -44.727273 
L 438.558733 -44.727273 
L 437.242979 -44.727273 
L 435.927226 -44.727273 
L 434.611473 -44.727273 
L 430.664212 -44.727273 
L 429.348459 -44.727273 
L 428.032705 -44.727273 
L 426.716952 -44.727273 
L 425.401199 -44.727273 
L 421.453938 -44.727273 
L 420.138185 -44.727273 
L 418.822432 -44.727273 
L 417.506678 -44.727273 
L 416.190925 -44.727273 
L 412.243664 -44.727273 
L 410.927911 -44.727273 
L 409.612158 -44.727273 
L 408.296404 -44.727273 
L 406.980651 -44.727273 
L 403.03339 -44.727273 
L 401.717637 -44.727273 
L 400.401884 -44.727273 
L 399.08613 -44.727273 
L 397.770377 -44.727273 
L 393.823116 -44.727273 
L 392.507363 -44.727273 
L 391.19161 -44.727273 
L 389.875856 -44.727273 
L 388.560103 -44.727273 
L 384.612842 -44.727273 
L 383.297089 -44.727273 
L 381.981336 -44.727273 
L 379.349829 -44.727273 
L 375.402568 -44.727273 
L 374.086815 -44.727273 
L 372.771062 -44.727273 
L 371.455308 -44.727273 
L 370.139555 -44.727273 
L 366.192295 -44.727273 
L 364.876541 -44.727273 
L 363.560788 -44.727273 
L 362.245034 -44.727273 
L 356.982021 -44.727273 
L 355.666267 -44.727273 
L 354.350514 -44.727273 
L 353.03476 -44.727273 
L 351.719007 -44.727273 
L 347.771747 -44.727273 
L 346.455993 -44.727273 
L 345.14024 -44.727273 
L 343.824486 -44.727273 
L 342.508733 -44.727273 
L 338.561473 -44.727273 
L 337.245719 -44.727273 
L 335.929966 -44.727273 
L 334.614212 -44.727273 
L 329.351199 -44.727273 
L 328.035445 -44.727273 
L 326.719692 -44.727273 
L 325.403938 -44.727273 
L 324.088185 -44.727273 
L 320.140925 -44.727273 
L 318.825171 -44.727273 
L 317.509418 -44.727273 
L 316.193664 -44.727273 
L 314.877911 -44.727273 
L 310.930651 -44.727273 
L 309.614897 -44.727273 
L 308.299144 -44.727273 
L 306.98339 -44.727273 
L 305.667637 -44.727273 
L 301.720377 -44.727273 
L 300.404623 -44.727273 
L 299.08887 -44.727273 
L 297.773116 -44.727273 
L 296.457363 -44.727273 
L 292.510103 -44.727273 
L 291.194349 -44.727273 
L 289.878596 -44.727273 
L 288.562842 -44.727273 
L 287.247089 -44.727273 
L 283.299829 -44.727273 
L 281.984075 -44.727273 
L 280.668322 -44.727273 
L 279.352568 -44.727273 
L 278.036815 -44.727273 
L 274.089555 -44.727273 
L 272.773801 -44.727273 
L 271.458048 -44.727273 
L 270.142295 -44.727273 
L 268.826541 -44.727273 
L 263.563527 -44.727273 
L 262.247774 -44.727273 
L 260.932021 -44.727273 
L 259.616267 -44.727273 
L 255.669007 -44.727273 
L 254.353253 -44.727273 
L 253.0375 -44.727273 
L 251.721747 -44.727273 
L 250.405993 -44.727273 
L 246.458733 -44.727273 
L 245.142979 -44.727273 
L 243.827226 -44.727273 
L 242.511473 -44.727273 
L 241.195719 -44.727273 
L 237.248459 -44.727273 
L 235.932705 -44.727273 
L 234.616952 -44.727273 
L 233.301199 -44.727273 
L 231.985445 -44.727273 
L 228.038185 -44.727273 
L 226.722432 -44.727273 
L 225.406678 -44.727273 
L 224.090925 -44.727273 
L 222.775171 -44.727273 
L 218.827911 -44.727273 
L 217.512158 -44.727273 
L 216.196404 -44.727273 
L 214.880651 -44.727273 
L 213.564897 -44.727273 
L 209.617637 -44.727273 
L 208.301884 -44.727273 
L 206.98613 -44.727273 
L 205.670377 -44.727273 
L 200.407363 -44.727273 
L 199.09161 -44.727273 
L 197.775856 -44.727273 
L 196.460103 -44.727273 
L 195.144349 -44.727273 
L 191.197089 -44.727273 
L 189.881336 -44.727273 
L 188.565582 -44.727273 
L 187.249829 -44.727273 
L 185.934075 -44.727273 
L 181.986815 -44.727273 
L 180.671062 -44.727273 
L 179.355308 -44.727273 
L 178.039555 -44.727273 
L 176.723801 -44.727273 
L 172.776541 -44.727273 
L 171.460788 -44.727273 
L 170.145034 -44.727273 
L 168.829281 -44.727273 
L 167.513527 -44.727273 
L 163.566267 -44.727273 
L 162.250514 -44.727273 
L 160.93476 -44.727273 
L 159.619007 -44.727273 
L 154.355993 -44.727273 
L 153.04024 -44.727273 
L 151.724486 -44.727273 
L 150.408733 -44.727273 
L 149.092979 -44.727273 
L 145.145719 -44.727273 
L 143.829966 -44.727273 
L 142.514212 -44.727273 
L 141.198459 -44.727273 
L 135.935445 -44.727273 
L 134.619692 -44.727273 
L 133.303938 -44.727273 
L 131.988185 -44.727273 
L 126.725171 -44.727273 
L 125.409418 -44.727273 
L 124.093664 -44.727273 
L 122.777911 -44.727273 
L 121.462158 -44.727273 
L 117.514897 -44.727273 
L 116.199144 -44.727273 
L 114.88339 -44.727273 
L 113.567637 -44.727273 
L 112.251884 -44.727273 
L 108.304623 -44.727273 
L 106.98887 -44.727273 
L 105.673116 -44.727273 
L 104.357363 -44.727273 
L 103.04161 -44.727273 
L 99.094349 -44.727273 
L 97.778596 -44.727273 
L 96.462842 -44.727273 
L 95.147089 -44.727273 
L 93.831336 -44.727273 
L 89.884075 -44.727273 
L 87.252568 -44.727273 
L 85.936815 -44.727273 
L 84.621062 -44.727273 
L 80.673801 -44.727273 
L 79.358048 -44.727273 
L 78.042295 -44.727273 
L 76.726541 -44.727273 
L 75.410788 -44.727273 
L 71.463527 -44.727273 
L 70.147774 -44.727273 
L 68.832021 -44.727273 
L 67.516267 -44.727273 
L 66.200514 -44.727273 
L 62.253253 -44.727273 
L 60.9375 -44.727273 
z
" id="m35b78e30b7" style="stroke:#f5f6f8;"/>
    </defs>
    <g clip-path="url(#p556063dcd8)">
     <use style="fill:#f5f6f8;stroke:#f5f6f8;" x="0" xlink:href="#m35b78e30b7" y="432"/>
    </g>
   </g>
   <g id="matplotlib.axis_1">
    <g id="xtick_1">
     <g id="line2d_1">
      <defs>
       <path d="M 0 0 
L 0 3.5 
" id="m5a43df61b3" style="stroke:#000000;stroke-width:0.8;"/>
      </defs>
      <g>
       <use style="stroke:#000000;stroke-width:0.8;" x="58.305993" xlink:href="#m5a43df61b3" y="404.2"/>
      </g>
     </g>
     <g id="text_1">
      <!-- 2022-11 -->
      <defs>
       <path d="M 19.1875 8.296875 
L 53.609375 8.296875 
L 53.609375 0 
L 7.328125 0 
L 7.328125 8.296875 
Q 12.9375 14.109375 22.625 23.890625 
Q 32.328125 33.6875 34.8125 36.53125 
Q 39.546875 41.84375 41.421875 45.53125 
Q 43.3125 49.21875 43.3125 52.78125 
Q 43.3125 58.59375 39.234375 62.25 
Q 35.15625 65.921875 28.609375 65.921875 
Q 23.96875 65.921875 18.8125 64.3125 
Q 13.671875 62.703125 7.8125 59.421875 
L 7.8125 69.390625 
Q 13.765625 71.78125 18.9375 73 
Q 24.125 74.21875 28.421875 74.21875 
Q 39.75 74.21875 46.484375 68.546875 
Q 53.21875 62.890625 53.21875 53.421875 
Q 53.21875 48.921875 51.53125 44.890625 
Q 49.859375 40.875 45.40625 35.40625 
Q 44.1875 33.984375 37.640625 27.21875 
Q 31.109375 20.453125 19.1875 8.296875 
z
" id="DejaVuSans-50"/>
       <path d="M 31.78125 66.40625 
Q 24.171875 66.40625 20.328125 58.90625 
Q 16.5 51.421875 16.5 36.375 
Q 16.5 21.390625 20.328125 13.890625 
Q 24.171875 6.390625 31.78125 6.390625 
Q 39.453125 6.390625 43.28125 13.890625 
Q 47.125 21.390625 47.125 36.375 
Q 47.125 51.421875 43.28125 58.90625 
Q 39.453125 66.40625 31.78125 66.40625 
z
M 31.78125 74.21875 
Q 44.046875 74.21875 50.515625 64.515625 
Q 56.984375 54.828125 56.984375 36.375 
Q 56.984375 17.96875 50.515625 8.265625 
Q 44.046875 -1.421875 31.78125 -1.421875 
Q 19.53125 -1.421875 13.0625 8.265625 
Q 6.59375 17.96875 6.59375 36.375 
Q 6.59375 54.828125 13.0625 64.515625 
Q 19.53125 74.21875 31.78125 74.21875 
z
" id="DejaVuSans-48"/>
       <path d="M 4.890625 31.390625 
L 31.203125 31.390625 
L 31.203125 23.390625 
L 4.890625 23.390625 
z
" id="DejaVuSans-45"/>
       <path d="M 12.40625 8.296875 
L 28.515625 8.296875 
L 28.515625 63.921875 
L 10.984375 60.40625 
L 10.984375 69.390625 
L 28.421875 72.90625 
L 38.28125 72.90625 
L 38.28125 8.296875 
L 54.390625 8.296875 
L 54.390625 0 
L 12.40625 0 
z
" id="DejaVuSans-49"/>
      </defs>
      <g transform="translate(37.414587 418.798437)scale(0.1 -0.1)">
       <use xlink:href="#DejaVuSans-50"/>
       <use x="63.623047" xlink:href="#DejaVuSans-48"/>
       <use x="127.246094" xlink:href="#DejaVuSans-50"/>
       <use x="190.869141" xlink:href="#DejaVuSans-50"/>
       <use x="254.492188" xlink:href="#DejaVuSans-45"/>
       <use x="290.576172" xlink:href="#DejaVuSans-49"/>
       <use x="354.199219" xlink:href="#DejaVuSans-49"/>
      </g>
     </g>
    </g>
    <g id="xtick_2">
     <g id="line2d_2">
      <g>
       <use style="stroke:#000000;stroke-width:0.8;" x="138.566952" xlink:href="#m5a43df61b3" y="404.2"/>
      </g>
     </g>
     <g id="text_2">
      <!-- 2023-01 -->
      <defs>
       <path d="M 40.578125 39.3125 
Q 47.65625 37.796875 51.625 33 
Q 55.609375 28.21875 55.609375 21.1875 
Q 55.609375 10.40625 48.1875 4.484375 
Q 40.765625 -1.421875 27.09375 -1.421875 
Q 22.515625 -1.421875 17.65625 -0.515625 
Q 12.796875 0.390625 7.625 2.203125 
L 7.625 11.71875 
Q 11.71875 9.328125 16.59375 8.109375 
Q 21.484375 6.890625 26.8125 6.890625 
Q 36.078125 6.890625 40.9375 10.546875 
Q 45.796875 14.203125 45.796875 21.1875 
Q 45.796875 27.640625 41.28125 31.265625 
Q 36.765625 34.90625 28.71875 34.90625 
L 20.21875 34.90625 
L 20.21875 43.015625 
L 29.109375 43.015625 
Q 36.375 43.015625 40.234375 45.921875 
Q 44.09375 48.828125 44.09375 54.296875 
Q 44.09375 59.90625 40.109375 62.90625 
Q 36.140625 65.921875 28.71875 65.921875 
Q 24.65625 65.921875 20.015625 65.03125 
Q 15.375 64.15625 9.8125 62.3125 
L 9.8125 71.09375 
Q 15.4375 72.65625 20.34375 73.4375 
Q 25.25 74.21875 29.59375 74.21875 
Q 40.828125 74.21875 47.359375 69.109375 
Q 53.90625 64.015625 53.90625 55.328125 
Q 53.90625 49.265625 50.4375 45.09375 
Q 46.96875 40.921875 40.578125 39.3125 
z
" id="DejaVuSans-51"/>
      </defs>
      <g transform="translate(117.675546 418.798437)scale(0.1 -0.1)">
       <use xlink:href="#DejaVuSans-50"/>
       <use x="63.623047" xlink:href="#DejaVuSans-48"/>
       <use x="127.246094" xlink:href="#DejaVuSans-50"/>
       <use x="190.869141" xlink:href="#DejaVuSans-51"/>
       <use x="254.492188" xlink:href="#DejaVuSans-45"/>
       <use x="290.576172" xlink:href="#DejaVuSans-48"/>
       <use x="354.199219" xlink:href="#DejaVuSans-49"/>
      </g>
     </g>
    </g>
    <g id="xtick_3">
     <g id="line2d_3">
      <g>
       <use style="stroke:#000000;stroke-width:0.8;" x="216.196404" xlink:href="#m5a43df61b3" y="404.2"/>
      </g>
     </g>
     <g id="text_3">
      <!-- 2023-03 -->
      <g transform="translate(195.304998 418.798437)scale(0.1 -0.1)">
       <use xlink:href="#DejaVuSans-50"/>
       <use x="63.623047" xlink:href="#DejaVuSans-48"/>
       <use x="127.246094" xlink:href="#DejaVuSans-50"/>
       <use x="190.869141" xlink:href="#DejaVuSans-51"/>
       <use x="254.492188" xlink:href="#DejaVuSans-45"/>
       <use x="290.576172" xlink:href="#DejaVuSans-48"/>
       <use x="354.199219" xlink:href="#DejaVuSans-51"/>
      </g>
     </g>
    </g>
    <g id="xtick_4">
     <g id="line2d_4">
      <g>
       <use style="stroke:#000000;stroke-width:0.8;" x="296.457363" xlink:href="#m5a43df61b3" y="404.2"/>
      </g>
     </g>
     <g id="text_4">
      <!-- 2023-05 -->
      <defs>
       <path d="M 10.796875 72.90625 
L 49.515625 72.90625 
L 49.515625 64.59375 
L 19.828125 64.59375 
L 19.828125 46.734375 
Q 21.96875 47.46875 24.109375 47.828125 
Q 26.265625 48.1875 28.421875 48.1875 
Q 40.625 48.1875 47.75 41.5 
Q 54.890625 34.8125 54.890625 23.390625 
Q 54.890625 11.625 47.5625 5.09375 
Q 40.234375 -1.421875 26.90625 -1.421875 
Q 22.3125 -1.421875 17.546875 -0.640625 
Q 12.796875 0.140625 7.71875 1.703125 
L 7.71875 11.625 
Q 12.109375 9.234375 16.796875 8.0625 
Q 21.484375 6.890625 26.703125 6.890625 
Q 35.15625 6.890625 40.078125 11.328125 
Q 45.015625 15.765625 45.015625 23.390625 
Q 45.015625 31 40.078125 35.4375 
Q 35.15625 39.890625 26.703125 39.890625 
Q 22.75 39.890625 18.8125 39.015625 
Q 14.890625 38.140625 10.796875 36.28125 
z
" id="DejaVuSans-53"/>
      </defs>
      <g transform="translate(275.565957 418.798437)scale(0.1 -0.1)">
       <use xlink:href="#DejaVuSans-50"/>
       <use x="63.623047" xlink:href="#DejaVuSans-48"/>
       <use x="127.246094" xlink:href="#DejaVuSans-50"/>
       <use x="190.869141" xlink:href="#DejaVuSans-51"/>
       <use x="254.492188" xlink:href="#DejaVuSans-45"/>
       <use x="290.576172" xlink:href="#DejaVuSans-48"/>
       <use x="354.199219" xlink:href="#DejaVuSans-53"/>
      </g>
     </g>
    </g>
    <g id="xtick_5">
     <g id="line2d_5">
      <g>
       <use style="stroke:#000000;stroke-width:0.8;" x="376.718322" xlink:href="#m5a43df61b3" y="404.2"/>
      </g>
     </g>
     <g id="text_5">
      <!-- 2023-07 -->
      <defs>
       <path d="M 8.203125 72.90625 
L 55.078125 72.90625 
L 55.078125 68.703125 
L 28.609375 0 
L 18.3125 0 
L 43.21875 64.59375 
L 8.203125 64.59375 
z
" id="DejaVuSans-55"/>
      </defs>
      <g transform="translate(355.826916 418.798437)scale(0.1 -0.1)">
       <use xlink:href="#DejaVuSans-50"/>
       <use x="63.623047" xlink:href="#DejaVuSans-48"/>
       <use x="127.246094" xlink:href="#DejaVuSans-50"/>
       <use x="190.869141" xlink:href="#DejaVuSans-51"/>
       <use x="254.492188" xlink:href="#DejaVuSans-45"/>
       <use x="290.576172" xlink:href="#DejaVuSans-48"/>
       <use x="354.199219" xlink:href="#DejaVuSans-55"/>
      </g>
     </g>
    </g>
    <g id="xtick_6">
     <g id="line2d_6">
      <g>
       <use style="stroke:#000000;stroke-width:0.8;" x="458.295034" xlink:href="#m5a43df61b3" y="404.2"/>
      </g>
     </g>
     <g id="text_6">
      <!-- 2023-09 -->
      <defs>
       <path d="M 10.984375 1.515625 
L 10.984375 10.5 
Q 14.703125 8.734375 18.5 7.8125 
Q 22.3125 6.890625 25.984375 6.890625 
Q 35.75 6.890625 40.890625 13.453125 
Q 46.046875 20.015625 46.78125 33.40625 
Q 43.953125 29.203125 39.59375 26.953125 
Q 35.25 24.703125 29.984375 24.703125 
Q 19.046875 24.703125 12.671875 31.3125 
Q 6.296875 37.9375 6.296875 49.421875 
Q 6.296875 60.640625 12.9375 67.421875 
Q 19.578125 74.21875 30.609375 74.21875 
Q 43.265625 74.21875 49.921875 64.515625 
Q 56.59375 54.828125 56.59375 36.375 
Q 56.59375 19.140625 48.40625 8.859375 
Q 40.234375 -1.421875 26.421875 -1.421875 
Q 22.703125 -1.421875 18.890625 -0.6875 
Q 15.09375 0.046875 10.984375 1.515625 
z
M 30.609375 32.421875 
Q 37.25 32.421875 41.125 36.953125 
Q 45.015625 41.5 45.015625 49.421875 
Q 45.015625 57.28125 41.125 61.84375 
Q 37.25 66.40625 30.609375 66.40625 
Q 23.96875 66.40625 20.09375 61.84375 
Q 16.21875 57.28125 16.21875 49.421875 
Q 16.21875 41.5 20.09375 36.953125 
Q 23.96875 32.421875 30.609375 32.421875 
z
" id="DejaVuSans-57"/>
      </defs>
      <g transform="translate(437.403628 418.798437)scale(0.1 -0.1)">
       <use xlink:href="#DejaVuSans-50"/>
       <use x="63.623047" xlink:href="#DejaVuSans-48"/>
       <use x="127.246094" xlink:href="#DejaVuSans-50"/>
       <use x="190.869141" xlink:href="#DejaVuSans-51"/>
       <use x="254.492188" xlink:href="#DejaVuSans-45"/>
       <use x="290.576172" xlink:href="#DejaVuSans-48"/>
       <use x="354.199219" xlink:href="#DejaVuSans-57"/>
      </g>
     </g>
    </g>
    <g id="xtick_7">
     <g id="line2d_7">
      <g>
       <use style="stroke:#000000;stroke-width:0.8;" x="538.555993" xlink:href="#m5a43df61b3" y="404.2"/>
      </g>
     </g>
     <g id="text_7">
      <!-- 2023-11 -->
      <g transform="translate(517.664587 418.798437)scale(0.1 -0.1)">
       <use xlink:href="#DejaVuSans-50"/>
       <use x="63.623047" xlink:href="#DejaVuSans-48"/>
       <use x="127.246094" xlink:href="#DejaVuSans-50"/>
       <use x="190.869141" xlink:href="#DejaVuSans-51"/>
       <use x="254.492188" xlink:href="#DejaVuSans-45"/>
       <use x="290.576172" xlink:href="#DejaVuSans-49"/>
       <use x="354.199219" xlink:href="#DejaVuSans-49"/>
      </g>
     </g>
    </g>
   </g>
   <g id="matplotlib.axis_2">
    <g id="ytick_1">
     <g id="line2d_8">
      <defs>
       <path d="M 0 0 
L -3.5 0 
" id="m8e89da5589" style="stroke:#000000;stroke-width:0.8;"/>
      </defs>
      <g>
       <use style="stroke:#000000;stroke-width:0.8;" x="36.925" xlink:href="#m8e89da5589" y="387.272727"/>
      </g>
     </g>
     <g id="text_8">
      <!-- 0 -->
      <g transform="translate(23.5625 391.071946)scale(0.1 -0.1)">
       <use xlink:href="#DejaVuSans-48"/>
      </g>
     </g>
    </g>
    <g id="ytick_2">
     <g id="line2d_9">
      <g>
       <use style="stroke:#000000;stroke-width:0.8;" x="36.925" xlink:href="#m8e89da5589" y="315.048155"/>
      </g>
     </g>
     <g id="text_9">
      <!-- 50 -->
      <g transform="translate(17.2 318.847373)scale(0.1 -0.1)">
       <use xlink:href="#DejaVuSans-53"/>
       <use x="63.623047" xlink:href="#DejaVuSans-48"/>
      </g>
     </g>
    </g>
    <g id="ytick_3">
     <g id="line2d_10">
      <g>
       <use style="stroke:#000000;stroke-width:0.8;" x="36.925" xlink:href="#m8e89da5589" y="242.823582"/>
      </g>
     </g>
     <g id="text_10">
      <!-- 100 -->
      <g transform="translate(10.8375 246.622801)scale(0.1 -0.1)">
       <use xlink:href="#DejaVuSans-49"/>
       <use x="63.623047" xlink:href="#DejaVuSans-48"/>
       <use x="127.246094" xlink:href="#DejaVuSans-48"/>
      </g>
     </g>
    </g>
    <g id="ytick_4">
     <g id="line2d_11">
      <g>
       <use style="stroke:#000000;stroke-width:0.8;" x="36.925" xlink:href="#m8e89da5589" y="170.599009"/>
      </g>
     </g>
     <g id="text_11">
      <!-- 150 -->
      <g transform="translate(10.8375 174.398228)scale(0.1 -0.1)">
       <use xlink:href="#DejaVuSans-49"/>
       <use x="63.623047" xlink:href="#DejaVuSans-53"/>
       <use x="127.246094" xlink:href="#DejaVuSans-48"/>
      </g>
     </g>
    </g>
    <g id="ytick_5">
     <g id="line2d_12">
      <g>
       <use style="stroke:#000000;stroke-width:0.8;" x="36.925" xlink:href="#m8e89da5589" y="98.374437"/>
      </g>
     </g>
     <g id="text_12">
      <!-- 200 -->
      <g transform="translate(10.8375 102.173656)scale(0.1 -0.1)">
       <use xlink:href="#DejaVuSans-50"/>
       <use x="63.623047" xlink:href="#DejaVuSans-48"/>
       <use x="127.246094" xlink:href="#DejaVuSans-48"/>
      </g>
     </g>
    </g>
   </g>
   <g id="patch_3">
    <path d="M 36.925 404.2 
L 36.925 31.8 
" style="fill:none;stroke:#000000;stroke-linecap:square;stroke-linejoin:miter;stroke-width:0.8;"/>
   </g>
   <g id="patch_4">
    <path d="M 565.2 404.2 
L 565.2 31.8 
" style="fill:none;stroke:#000000;stroke-linecap:square;stroke-linejoin:miter;stroke-width:0.8;"/>
   </g>
   <g id="patch_5">
    <path d="M 36.925 404.2 
L 565.2 404.2 
" style="fill:none;stroke:#000000;stroke-linecap:square;stroke-linejoin:miter;stroke-width:0.8;"/>
   </g>
   <g id="patch_6">
    <path d="M 36.925 31.8 
L 565.2 31.8 
" style="fill:none;stroke:#000000;stroke-linecap:square;stroke-linejoin:miter;stroke-width:0.8;"/>
   </g>
   <g id="text_13">
    <!-- CRM - 42% -->
    <defs>
     <path d="M 67 4 
Q 61.8125 1.3125 56.203125 -0.046875 
Q 50.59375 -1.421875 44.484375 -1.421875 
Q 26.265625 -1.421875 15.625 8.765625 
Q 4.984375 18.953125 4.984375 36.375 
Q 4.984375 53.859375 15.625 64.03125 
Q 26.265625 74.21875 44.484375 74.21875 
Q 50.59375 74.21875 56.203125 72.84375 
Q 61.8125 71.484375 67 68.796875 
L 67 53.71875 
Q 61.765625 57.28125 56.6875 58.9375 
Q 51.609375 60.59375 46 60.59375 
Q 35.9375 60.59375 30.171875 54.140625 
Q 24.421875 47.703125 24.421875 36.375 
Q 24.421875 25.09375 30.171875 18.640625 
Q 35.9375 12.203125 46 12.203125 
Q 51.609375 12.203125 56.6875 13.859375 
Q 61.765625 15.53125 67 19.09375 
z
" id="DejaVuSans-Bold-67"/>
     <path d="M 35.890625 40.578125 
Q 41.796875 40.578125 44.359375 42.765625 
Q 46.921875 44.96875 46.921875 50 
Q 46.921875 54.984375 44.359375 57.125 
Q 41.796875 59.28125 35.890625 59.28125 
L 27.984375 59.28125 
L 27.984375 40.578125 
z
M 27.984375 27.59375 
L 27.984375 0 
L 9.1875 0 
L 9.1875 72.90625 
L 37.890625 72.90625 
Q 52.296875 72.90625 59 68.0625 
Q 65.71875 63.234375 65.71875 52.78125 
Q 65.71875 45.5625 62.21875 40.921875 
Q 58.734375 36.28125 51.703125 34.078125 
Q 55.5625 33.203125 58.609375 30.09375 
Q 61.671875 27 64.796875 20.703125 
L 75 0 
L 54.984375 0 
L 46.09375 18.109375 
Q 43.40625 23.578125 40.640625 25.578125 
Q 37.890625 27.59375 33.296875 27.59375 
z
" id="DejaVuSans-Bold-82"/>
     <path d="M 9.1875 72.90625 
L 33.109375 72.90625 
L 49.703125 33.890625 
L 66.40625 72.90625 
L 90.28125 72.90625 
L 90.28125 0 
L 72.515625 0 
L 72.515625 53.328125 
L 55.71875 14.015625 
L 43.796875 14.015625 
L 27 53.328125 
L 27 0 
L 9.1875 0 
z
" id="DejaVuSans-Bold-77"/>
     <path id="DejaVuSans-Bold-32"/>
     <path d="M 5.421875 35.890625 
L 36.078125 35.890625 
L 36.078125 21.6875 
L 5.421875 21.6875 
z
" id="DejaVuSans-Bold-45"/>
     <path d="M 36.8125 57.421875 
L 16.21875 26.90625 
L 36.8125 26.90625 
z
M 33.6875 72.90625 
L 54.59375 72.90625 
L 54.59375 26.90625 
L 64.984375 26.90625 
L 64.984375 13.28125 
L 54.59375 13.28125 
L 54.59375 0 
L 36.8125 0 
L 36.8125 13.28125 
L 4.5 13.28125 
L 4.5 29.390625 
z
" id="DejaVuSans-Bold-52"/>
     <path d="M 28.8125 13.8125 
L 60.890625 13.8125 
L 60.890625 0 
L 7.90625 0 
L 7.90625 13.8125 
L 34.515625 37.3125 
Q 38.09375 40.53125 39.796875 43.609375 
Q 41.5 46.6875 41.5 50 
Q 41.5 55.125 38.0625 58.25 
Q 34.625 61.375 28.90625 61.375 
Q 24.515625 61.375 19.28125 59.5 
Q 14.0625 57.625 8.109375 53.90625 
L 8.109375 69.921875 
Q 14.453125 72.015625 20.65625 73.109375 
Q 26.859375 74.21875 32.8125 74.21875 
Q 45.90625 74.21875 53.15625 68.453125 
Q 60.40625 62.703125 60.40625 52.390625 
Q 60.40625 46.4375 57.328125 41.28125 
Q 54.25 36.140625 44.390625 27.484375 
z
" id="DejaVuSans-Bold-50"/>
     <path d="M 77.484375 30.078125 
Q 74.03125 30.078125 72.125 27.078125 
Q 70.21875 24.078125 70.21875 18.5 
Q 70.21875 12.890625 72.09375 9.890625 
Q 73.96875 6.890625 77.484375 6.890625 
Q 81 6.890625 82.859375 9.890625 
Q 84.71875 12.890625 84.71875 18.5 
Q 84.71875 24.078125 82.828125 27.078125 
Q 80.953125 30.078125 77.484375 30.078125 
z
M 77.484375 38.28125 
Q 86.578125 38.28125 91.796875 33 
Q 97.015625 27.734375 97.015625 18.5 
Q 97.015625 9.28125 91.796875 3.921875 
Q 86.578125 -1.421875 77.484375 -1.421875 
Q 68.40625 -1.421875 63.15625 3.921875 
Q 57.90625 9.28125 57.90625 18.5 
Q 57.90625 27.6875 63.15625 32.984375 
Q 68.40625 38.28125 77.484375 38.28125 
z
M 32.71875 -1.421875 
L 21.921875 -1.421875 
L 67.484375 74.21875 
L 78.328125 74.21875 
z
M 22.703125 74.21875 
Q 31.78125 74.21875 36.984375 68.921875 
Q 42.1875 63.625 42.1875 54.390625 
Q 42.1875 45.171875 36.984375 39.84375 
Q 31.78125 34.515625 22.703125 34.515625 
Q 13.625 34.515625 8.421875 39.84375 
Q 3.21875 45.171875 3.21875 54.390625 
Q 3.21875 63.625 8.421875 68.921875 
Q 13.625 74.21875 22.703125 74.21875 
z
M 22.703125 66.015625 
Q 19.1875 66.015625 17.28125 62.984375 
Q 15.375 59.96875 15.375 54.390625 
Q 15.375 48.78125 17.28125 45.71875 
Q 19.1875 42.671875 22.703125 42.671875 
Q 26.21875 42.671875 28.09375 45.71875 
Q 29.984375 48.78125 29.984375 54.390625 
Q 29.984375 59.96875 28.078125 62.984375 
Q 26.171875 66.015625 22.703125 66.015625 
z
" id="DejaVuSans-Bold-37"/>
    </defs>
    <g transform="translate(36.925 25.8)scale(0.2 -0.2)">
     <use xlink:href="#DejaVuSans-Bold-67"/>
     <use x="73.388672" xlink:href="#DejaVuSans-Bold-82"/>
     <use x="150.390625" xlink:href="#DejaVuSans-Bold-77"/>
     <use x="249.902344" xlink:href="#DejaVuSans-Bold-32"/>
     <use x="284.716797" xlink:href="#DejaVuSans-Bold-45"/>
     <use x="326.220703" xlink:href="#DejaVuSans-Bold-32"/>
     <use x="361.035156" xlink:href="#DejaVuSans-Bold-52"/>
     <use x="430.615234" xlink:href="#DejaVuSans-Bold-50"/>
     <use x="500.195312" xlink:href="#DejaVuSans-Bold-37"/>
    </g>
   </g>
  </g>
 </g>
 <defs>
  <clipPath id="p556063dcd8">
   <rect height="372.4" width="528.275" x="36.925" y="31.8"/>
  </clipPath>
 </defs>
</svg>
