<?xml version="1.0" encoding="utf-8" standalone="no"?>
<!DOCTYPE svg PUBLIC "-//W3C//DTD SVG 1.1//EN"
  "http://www.w3.org/Graphics/SVG/1.1/DTD/svg11.dtd">
<!-- Created with matplotlib (https://matplotlib.org/) -->
<svg height="432pt" version="1.1" viewBox="0 0 864 432" width="864pt" xmlns="http://www.w3.org/2000/svg" xmlns:xlink="http://www.w3.org/1999/xlink">
 <defs>
  <style type="text/css">
*{stroke-linecap:butt;stroke-linejoin:round;}
  </style>
 </defs>
 <g id="figure_1">
  <g id="patch_1">
   <path d="M 0 432 
L 864 432 
L 864 0 
L 0 0 
z
" style="fill:none;"/>
  </g>
  <g id="axes_1">
   <g id="patch_2">
    <path d="M 75.175 385.2 
L 840.323864 385.2 
L 840.323864 88.8 
L 75.175 88.8 
z
" style="fill:none;"/>
   </g>
   <g id="PolyCollection_1">
    <path clip-path="url(#p50f55e60c2)" d="M 109.954494 1911.131465 
L 109.954494 320.586055 
L 113.734874 283.108344 
L 117.515253 252.473064 
L 121.295633 275.488439 
L 132.636772 276.266031 
L 136.417152 304.413111 
L 140.197532 285.596543 
L 143.977912 278.987366 
L 147.758291 235.989154 
L 162.87981 209.319428 
L 166.66019 174.252086 
L 170.44057 255.738856 
L 174.22095 254.72801 
L 185.562089 279.376162 
L 189.342469 256.127533 
L 193.122849 311.488796 
L 196.903228 281.942074 
L 200.683608 237 
L 212.024747 249.596186 
L 215.805127 286.218593 
L 219.585507 282.95292 
L 223.365887 263.35876 
L 227.146266 264.60286 
L 242.267785 224.09273 
L 246.048165 281.475566 
L 249.828545 252.706436 
L 253.608925 277.587843 
L 264.950064 298.81478 
L 268.730444 287.462575 
L 272.510824 261.414899 
L 276.291203 274.944219 
L 280.071583 268.490584 
L 291.412722 265.458164 
L 298.973482 248.58534 
L 302.753862 277.199047 
L 306.534241 281.475566 
L 317.875381 256.438617 
L 321.65576 191.435876 
L 325.43614 143.92789 
L 329.21652 119.901788 
L 332.9969 127.9882 
L 344.338039 138.329559 
L 348.118419 141.206437 
L 351.898799 88.8 
L 355.679178 137.085459 
L 359.459558 137.863051 
L 370.800697 156.524077 
L 374.581077 153.647199 
L 378.361457 157.146127 
L 382.141837 160.48963 
L 385.922216 156.990584 
L 397.263356 161.578188 
L 401.043735 167.331943 
L 404.824115 196.645411 
L 408.604495 235.056138 
L 412.384875 242.598331 
L 423.726014 231.168415 
L 427.506394 266.002384 
L 431.286773 310.47795 
L 435.067153 291.894637 
L 438.847533 288.395709 
L 450.188672 262.270203 
L 453.969052 287.773659 
L 457.749432 301.691657 
L 461.529812 326.184386 
L 465.310191 318.486651 
L 476.651331 285.829797 
L 480.43171 303.480095 
L 484.21209 285.052205 
L 487.99247 313.199404 
L 491.77285 282.408582 
L 503.113989 264.913826 
L 506.894369 263.047676 
L 510.674748 239.099404 
L 514.455128 189.18093 
L 518.235508 188.63671 
L 533.357027 210.718951 
L 537.137407 187.936949 
L 540.917787 180.861263 
L 544.698166 163.52205 
L 556.039306 159.24553 
L 559.819685 187.625864 
L 563.600065 209.863647 
L 567.380445 210.01919 
L 571.160825 242.442789 
L 582.501964 239.41037 
L 586.282344 233.96758 
L 590.062723 254.72801 
L 593.843103 289.095471 
L 597.623483 306.046007 
L 608.964622 306.745769 
L 612.745002 336.681168 
L 616.525382 334.815137 
L 620.305762 331.160667 
L 624.086141 334.426341 
L 635.427281 327.195114 
L 639.20766 357.363886 
L 642.98804 341.502026 
L 646.76842 340.413468 
L 650.5488 298.81478 
L 661.889939 299.903337 
L 665.670319 302.546961 
L 669.450698 302.780215 
L 673.231078 311.877592 
L 677.011458 320.352801 
L 688.352597 289.717521 
L 692.132977 279.531704 
L 695.913357 318.486651 
L 699.693737 291.350298 
L 703.474116 327.03969 
L 714.815256 340.49118 
L 718.595635 323.229678 
L 722.376015 378.901907 
L 726.156395 385.2 
L 729.936775 382.7118 
L 741.277914 361.718117 
L 745.058294 349.588439 
L 748.838673 325.640048 
L 752.619053 292.983194 
L 756.399433 297.959476 
L 767.740572 298.348272 
L 771.520952 263.98081 
L 775.301332 266.857688 
L 779.081712 278.209893 
L 782.862091 250.062694 
L 794.203231 237.233254 
L 797.98361 191.358164 
L 801.76399 205.042908 
L 805.54437 190.075149 
L 805.54437 1911.131465 
L 805.54437 1911.131465 
L 801.76399 1911.131465 
L 797.98361 1911.131465 
L 794.203231 1911.131465 
L 782.862091 1911.131465 
L 779.081712 1911.131465 
L 775.301332 1911.131465 
L 771.520952 1911.131465 
L 767.740572 1911.131465 
L 756.399433 1911.131465 
L 752.619053 1911.131465 
L 748.838673 1911.131465 
L 745.058294 1911.131465 
L 741.277914 1911.131465 
L 729.936775 1911.131465 
L 726.156395 1911.131465 
L 722.376015 1911.131465 
L 718.595635 1911.131465 
L 714.815256 1911.131465 
L 703.474116 1911.131465 
L 699.693737 1911.131465 
L 695.913357 1911.131465 
L 692.132977 1911.131465 
L 688.352597 1911.131465 
L 677.011458 1911.131465 
L 673.231078 1911.131465 
L 669.450698 1911.131465 
L 665.670319 1911.131465 
L 661.889939 1911.131465 
L 650.5488 1911.131465 
L 646.76842 1911.131465 
L 642.98804 1911.131465 
L 639.20766 1911.131465 
L 635.427281 1911.131465 
L 624.086141 1911.131465 
L 620.305762 1911.131465 
L 616.525382 1911.131465 
L 612.745002 1911.131465 
L 608.964622 1911.131465 
L 597.623483 1911.131465 
L 593.843103 1911.131465 
L 590.062723 1911.131465 
L 586.282344 1911.131465 
L 582.501964 1911.131465 
L 571.160825 1911.131465 
L 567.380445 1911.131465 
L 563.600065 1911.131465 
L 559.819685 1911.131465 
L 556.039306 1911.131465 
L 544.698166 1911.131465 
L 540.917787 1911.131465 
L 537.137407 1911.131465 
L 533.357027 1911.131465 
L 518.235508 1911.131465 
L 514.455128 1911.131465 
L 510.674748 1911.131465 
L 506.894369 1911.131465 
L 503.113989 1911.131465 
L 491.77285 1911.131465 
L 487.99247 1911.131465 
L 484.21209 1911.131465 
L 480.43171 1911.131465 
L 476.651331 1911.131465 
L 465.310191 1911.131465 
L 461.529812 1911.131465 
L 457.749432 1911.131465 
L 453.969052 1911.131465 
L 450.188672 1911.131465 
L 438.847533 1911.131465 
L 435.067153 1911.131465 
L 431.286773 1911.131465 
L 427.506394 1911.131465 
L 423.726014 1911.131465 
L 412.384875 1911.131465 
L 408.604495 1911.131465 
L 404.824115 1911.131465 
L 401.043735 1911.131465 
L 397.263356 1911.131465 
L 385.922216 1911.131465 
L 382.141837 1911.131465 
L 378.361457 1911.131465 
L 374.581077 1911.131465 
L 370.800697 1911.131465 
L 359.459558 1911.131465 
L 355.679178 1911.131465 
L 351.898799 1911.131465 
L 348.118419 1911.131465 
L 344.338039 1911.131465 
L 332.9969 1911.131465 
L 329.21652 1911.131465 
L 325.43614 1911.131465 
L 321.65576 1911.131465 
L 317.875381 1911.131465 
L 306.534241 1911.131465 
L 302.753862 1911.131465 
L 298.973482 1911.131465 
L 291.412722 1911.131465 
L 280.071583 1911.131465 
L 276.291203 1911.131465 
L 272.510824 1911.131465 
L 268.730444 1911.131465 
L 264.950064 1911.131465 
L 253.608925 1911.131465 
L 249.828545 1911.131465 
L 246.048165 1911.131465 
L 242.267785 1911.131465 
L 227.146266 1911.131465 
L 223.365887 1911.131465 
L 219.585507 1911.131465 
L 215.805127 1911.131465 
L 212.024747 1911.131465 
L 200.683608 1911.131465 
L 196.903228 1911.131465 
L 193.122849 1911.131465 
L 189.342469 1911.131465 
L 185.562089 1911.131465 
L 174.22095 1911.131465 
L 170.44057 1911.131465 
L 166.66019 1911.131465 
L 162.87981 1911.131465 
L 147.758291 1911.131465 
L 143.977912 1911.131465 
L 140.197532 1911.131465 
L 136.417152 1911.131465 
L 132.636772 1911.131465 
L 121.295633 1911.131465 
L 117.515253 1911.131465 
L 113.734874 1911.131465 
L 109.954494 1911.131465 
z
" style="fill:#0000ff;fill-opacity:0.1;stroke:#0000ff;stroke-opacity:0.1;"/>
   </g>
   <g id="matplotlib.axis_1">
    <g id="xtick_1">
     <g id="line2d_1">
      <defs>
       <path d="M 0 0 
L 0 3.5 
" id="m8bae86434e" style="stroke:#000000;stroke-width:0.8;"/>
      </defs>
      <g>
       <use style="stroke:#000000;stroke-width:0.8;" x="109.954494" xlink:href="#m8bae86434e" y="385.2"/>
      </g>
     </g>
     <g id="text_1">
      <!-- 05/23 -->
      <defs>
       <path d="M 31.78125 66.40625 
Q 24.171875 66.40625 20.328125 58.90625 
Q 16.5 51.421875 16.5 36.375 
Q 16.5 21.390625 20.328125 13.890625 
Q 24.171875 6.390625 31.78125 6.390625 
Q 39.453125 6.390625 43.28125 13.890625 
Q 47.125 21.390625 47.125 36.375 
Q 47.125 51.421875 43.28125 58.90625 
Q 39.453125 66.40625 31.78125 66.40625 
z
M 31.78125 74.21875 
Q 44.046875 74.21875 50.515625 64.515625 
Q 56.984375 54.828125 56.984375 36.375 
Q 56.984375 17.96875 50.515625 8.265625 
Q 44.046875 -1.421875 31.78125 -1.421875 
Q 19.53125 -1.421875 13.0625 8.265625 
Q 6.59375 17.96875 6.59375 36.375 
Q 6.59375 54.828125 13.0625 64.515625 
Q 19.53125 74.21875 31.78125 74.21875 
z
" id="DejaVuSans-48"/>
       <path d="M 10.796875 72.90625 
L 49.515625 72.90625 
L 49.515625 64.59375 
L 19.828125 64.59375 
L 19.828125 46.734375 
Q 21.96875 47.46875 24.109375 47.828125 
Q 26.265625 48.1875 28.421875 48.1875 
Q 40.625 48.1875 47.75 41.5 
Q 54.890625 34.8125 54.890625 23.390625 
Q 54.890625 11.625 47.5625 5.09375 
Q 40.234375 -1.421875 26.90625 -1.421875 
Q 22.3125 -1.421875 17.546875 -0.640625 
Q 12.796875 0.140625 7.71875 1.703125 
L 7.71875 11.625 
Q 12.109375 9.234375 16.796875 8.0625 
Q 21.484375 6.890625 26.703125 6.890625 
Q 35.15625 6.890625 40.078125 11.328125 
Q 45.015625 15.765625 45.015625 23.390625 
Q 45.015625 31 40.078125 35.4375 
Q 35.15625 39.890625 26.703125 39.890625 
Q 22.75 39.890625 18.8125 39.015625 
Q 14.890625 38.140625 10.796875 36.28125 
z
" id="DejaVuSans-53"/>
       <path d="M 25.390625 72.90625 
L 33.6875 72.90625 
L 8.296875 -9.28125 
L 0 -9.28125 
z
" id="DejaVuSans-47"/>
       <path d="M 19.1875 8.296875 
L 53.609375 8.296875 
L 53.609375 0 
L 7.328125 0 
L 7.328125 8.296875 
Q 12.9375 14.109375 22.625 23.890625 
Q 32.328125 33.6875 34.8125 36.53125 
Q 39.546875 41.84375 41.421875 45.53125 
Q 43.3125 49.21875 43.3125 52.78125 
Q 43.3125 58.59375 39.234375 62.25 
Q 35.15625 65.921875 28.609375 65.921875 
Q 23.96875 65.921875 18.8125 64.3125 
Q 13.671875 62.703125 7.8125 59.421875 
L 7.8125 69.390625 
Q 13.765625 71.78125 18.9375 73 
Q 24.125 74.21875 28.421875 74.21875 
Q 39.75 74.21875 46.484375 68.546875 
Q 53.21875 62.890625 53.21875 53.421875 
Q 53.21875 48.921875 51.53125 44.890625 
Q 49.859375 40.875 45.40625 35.40625 
Q 44.1875 33.984375 37.640625 27.21875 
Q 31.109375 20.453125 19.1875 8.296875 
z
" id="DejaVuSans-50"/>
       <path d="M 40.578125 39.3125 
Q 47.65625 37.796875 51.625 33 
Q 55.609375 28.21875 55.609375 21.1875 
Q 55.609375 10.40625 48.1875 4.484375 
Q 40.765625 -1.421875 27.09375 -1.421875 
Q 22.515625 -1.421875 17.65625 -0.515625 
Q 12.796875 0.390625 7.625 2.203125 
L 7.625 11.71875 
Q 11.71875 9.328125 16.59375 8.109375 
Q 21.484375 6.890625 26.8125 6.890625 
Q 36.078125 6.890625 40.9375 10.546875 
Q 45.796875 14.203125 45.796875 21.1875 
Q 45.796875 27.640625 41.28125 31.265625 
Q 36.765625 34.90625 28.71875 34.90625 
L 20.21875 34.90625 
L 20.21875 43.015625 
L 29.109375 43.015625 
Q 36.375 43.015625 40.234375 45.921875 
Q 44.09375 48.828125 44.09375 54.296875 
Q 44.09375 59.90625 40.109375 62.90625 
Q 36.140625 65.921875 28.71875 65.921875 
Q 24.65625 65.921875 20.015625 65.03125 
Q 15.375 64.15625 9.8125 62.3125 
L 9.8125 71.09375 
Q 15.4375 72.65625 20.34375 73.4375 
Q 25.25 74.21875 29.59375 74.21875 
Q 40.828125 74.21875 47.359375 69.109375 
Q 53.90625 64.015625 53.90625 55.328125 
Q 53.90625 49.265625 50.4375 45.09375 
Q 46.96875 40.921875 40.578125 39.3125 
z
" id="DejaVuSans-51"/>
      </defs>
      <g transform="translate(66.726369 414.995312)scale(0.3 -0.3)">
       <use xlink:href="#DejaVuSans-48"/>
       <use x="63.623047" xlink:href="#DejaVuSans-53"/>
       <use x="127.246094" xlink:href="#DejaVuSans-47"/>
       <use x="160.9375" xlink:href="#DejaVuSans-50"/>
       <use x="224.560547" xlink:href="#DejaVuSans-51"/>
      </g>
     </g>
    </g>
    <g id="xtick_2">
     <g id="line2d_2">
      <g>
       <use style="stroke:#000000;stroke-width:0.8;" x="461.529812" xlink:href="#m8bae86434e" y="385.2"/>
      </g>
     </g>
     <g id="text_2">
      <!-- 08/23 -->
      <defs>
       <path d="M 31.78125 34.625 
Q 24.75 34.625 20.71875 30.859375 
Q 16.703125 27.09375 16.703125 20.515625 
Q 16.703125 13.921875 20.71875 10.15625 
Q 24.75 6.390625 31.78125 6.390625 
Q 38.8125 6.390625 42.859375 10.171875 
Q 46.921875 13.96875 46.921875 20.515625 
Q 46.921875 27.09375 42.890625 30.859375 
Q 38.875 34.625 31.78125 34.625 
z
M 21.921875 38.8125 
Q 15.578125 40.375 12.03125 44.71875 
Q 8.5 49.078125 8.5 55.328125 
Q 8.5 64.0625 14.71875 69.140625 
Q 20.953125 74.21875 31.78125 74.21875 
Q 42.671875 74.21875 48.875 69.140625 
Q 55.078125 64.0625 55.078125 55.328125 
Q 55.078125 49.078125 51.53125 44.71875 
Q 48 40.375 41.703125 38.8125 
Q 48.828125 37.15625 52.796875 32.3125 
Q 56.78125 27.484375 56.78125 20.515625 
Q 56.78125 9.90625 50.3125 4.234375 
Q 43.84375 -1.421875 31.78125 -1.421875 
Q 19.734375 -1.421875 13.25 4.234375 
Q 6.78125 9.90625 6.78125 20.515625 
Q 6.78125 27.484375 10.78125 32.3125 
Q 14.796875 37.15625 21.921875 38.8125 
z
M 18.3125 54.390625 
Q 18.3125 48.734375 21.84375 45.5625 
Q 25.390625 42.390625 31.78125 42.390625 
Q 38.140625 42.390625 41.71875 45.5625 
Q 45.3125 48.734375 45.3125 54.390625 
Q 45.3125 60.0625 41.71875 63.234375 
Q 38.140625 66.40625 31.78125 66.40625 
Q 25.390625 66.40625 21.84375 63.234375 
Q 18.3125 60.0625 18.3125 54.390625 
z
" id="DejaVuSans-56"/>
      </defs>
      <g transform="translate(418.301687 414.995312)scale(0.3 -0.3)">
       <use xlink:href="#DejaVuSans-48"/>
       <use x="63.623047" xlink:href="#DejaVuSans-56"/>
       <use x="127.246094" xlink:href="#DejaVuSans-47"/>
       <use x="160.9375" xlink:href="#DejaVuSans-50"/>
       <use x="224.560547" xlink:href="#DejaVuSans-51"/>
      </g>
     </g>
    </g>
    <g id="xtick_3">
     <g id="line2d_3">
      <g>
       <use style="stroke:#000000;stroke-width:0.8;" x="805.54437" xlink:href="#m8bae86434e" y="385.2"/>
      </g>
     </g>
     <g id="text_3">
      <!-- 11/23 -->
      <defs>
       <path d="M 12.40625 8.296875 
L 28.515625 8.296875 
L 28.515625 63.921875 
L 10.984375 60.40625 
L 10.984375 69.390625 
L 28.421875 72.90625 
L 38.28125 72.90625 
L 38.28125 8.296875 
L 54.390625 8.296875 
L 54.390625 0 
L 12.40625 0 
z
" id="DejaVuSans-49"/>
      </defs>
      <g transform="translate(762.316245 414.995312)scale(0.3 -0.3)">
       <use xlink:href="#DejaVuSans-49"/>
       <use x="63.623047" xlink:href="#DejaVuSans-49"/>
       <use x="127.246094" xlink:href="#DejaVuSans-47"/>
       <use x="160.9375" xlink:href="#DejaVuSans-50"/>
       <use x="224.560547" xlink:href="#DejaVuSans-51"/>
      </g>
     </g>
    </g>
   </g>
   <g id="matplotlib.axis_2">
    <g id="ytick_1">
     <g id="line2d_4">
      <defs>
       <path d="M 0 0 
L -3.5 0 
" id="md80ce6c563" style="stroke:#000000;stroke-width:0.8;"/>
      </defs>
      <g>
       <use style="stroke:#000000;stroke-width:0.8;" x="75.175" xlink:href="#md80ce6c563" y="278.287604"/>
      </g>
     </g>
     <g id="text_4">
      <!-- 210 -->
      <g transform="translate(10.9125 289.685261)scale(0.3 -0.3)">
       <use xlink:href="#DejaVuSans-50"/>
       <use x="63.623047" xlink:href="#DejaVuSans-49"/>
       <use x="127.246094" xlink:href="#DejaVuSans-48"/>
      </g>
     </g>
    </g>
    <g id="ytick_2">
     <g id="line2d_5">
      <g>
       <use style="stroke:#000000;stroke-width:0.8;" x="75.175" xlink:href="#md80ce6c563" y="161.6559"/>
      </g>
     </g>
     <g id="text_5">
      <!-- 225 -->
      <g transform="translate(10.9125 173.053556)scale(0.3 -0.3)">
       <use xlink:href="#DejaVuSans-50"/>
       <use x="63.623047" xlink:href="#DejaVuSans-50"/>
       <use x="127.246094" xlink:href="#DejaVuSans-53"/>
      </g>
     </g>
    </g>
   </g>
   <g id="line2d_6">
    <path clip-path="url(#p50f55e60c2)" d="M 109.954494 320.586055 
L 113.734874 283.108344 
L 117.515253 252.473064 
L 121.295633 275.488439 
L 132.636772 276.266031 
L 136.417152 304.413111 
L 140.197532 285.596543 
L 143.977912 278.987366 
L 147.758291 235.989154 
L 162.87981 209.319428 
L 166.66019 174.252086 
L 170.44057 255.738856 
L 174.22095 254.72801 
L 185.562089 279.376162 
L 189.342469 256.127533 
L 193.122849 311.488796 
L 196.903228 281.942074 
L 200.683608 237 
L 212.024747 249.596186 
L 215.805127 286.218593 
L 219.585507 282.95292 
L 223.365887 263.35876 
L 227.146266 264.60286 
L 242.267785 224.09273 
L 246.048165 281.475566 
L 249.828545 252.706436 
L 253.608925 277.587843 
L 264.950064 298.81478 
L 268.730444 287.462575 
L 272.510824 261.414899 
L 276.291203 274.944219 
L 280.071583 268.490584 
L 291.412722 265.458164 
L 298.973482 248.58534 
L 302.753862 277.199047 
L 306.534241 281.475566 
L 317.875381 256.438617 
L 321.65576 191.435876 
L 325.43614 143.92789 
L 329.21652 119.901788 
L 332.9969 127.9882 
L 344.338039 138.329559 
L 348.118419 141.206437 
L 351.898799 88.8 
L 355.679178 137.085459 
L 359.459558 137.863051 
L 370.800697 156.524077 
L 374.581077 153.647199 
L 378.361457 157.146127 
L 382.141837 160.48963 
L 385.922216 156.990584 
L 397.263356 161.578188 
L 401.043735 167.331943 
L 404.824115 196.645411 
L 408.604495 235.056138 
L 412.384875 242.598331 
L 423.726014 231.168415 
L 427.506394 266.002384 
L 431.286773 310.47795 
L 435.067153 291.894637 
L 438.847533 288.395709 
L 450.188672 262.270203 
L 453.969052 287.773659 
L 457.749432 301.691657 
L 461.529812 326.184386 
L 465.310191 318.486651 
L 476.651331 285.829797 
L 480.43171 303.480095 
L 484.21209 285.052205 
L 487.99247 313.199404 
L 491.77285 282.408582 
L 503.113989 264.913826 
L 506.894369 263.047676 
L 510.674748 239.099404 
L 514.455128 189.18093 
L 518.235508 188.63671 
L 533.357027 210.718951 
L 537.137407 187.936949 
L 540.917787 180.861263 
L 544.698166 163.52205 
L 556.039306 159.24553 
L 559.819685 187.625864 
L 563.600065 209.863647 
L 567.380445 210.01919 
L 571.160825 242.442789 
L 582.501964 239.41037 
L 586.282344 233.96758 
L 590.062723 254.72801 
L 593.843103 289.095471 
L 597.623483 306.046007 
L 608.964622 306.745769 
L 612.745002 336.681168 
L 616.525382 334.815137 
L 620.305762 331.160667 
L 624.086141 334.426341 
L 635.427281 327.195114 
L 639.20766 357.363886 
L 642.98804 341.502026 
L 646.76842 340.413468 
L 650.5488 298.81478 
L 661.889939 299.903337 
L 665.670319 302.546961 
L 669.450698 302.780215 
L 673.231078 311.877592 
L 677.011458 320.352801 
L 692.132977 279.531704 
L 695.913357 318.486651 
L 699.693737 291.350298 
L 703.474116 327.03969 
L 714.815256 340.49118 
L 718.595635 323.229678 
L 722.376015 378.901907 
L 726.156395 385.2 
L 729.936775 382.7118 
L 741.277914 361.718117 
L 745.058294 349.588439 
L 748.838673 325.640048 
L 752.619053 292.983194 
L 756.399433 297.959476 
L 767.740572 298.348272 
L 771.520952 263.98081 
L 775.301332 266.857688 
L 779.081712 278.209893 
L 782.862091 250.062694 
L 794.203231 237.233254 
L 797.98361 191.358164 
L 801.76399 205.042908 
L 805.54437 190.075149 
L 805.54437 190.075149 
" style="fill:none;stroke:#000000;stroke-linecap:square;stroke-width:4;"/>
   </g>
   <g id="patch_3">
    <path d="M 75.175 385.2 
L 75.175 88.8 
" style="fill:none;stroke:#000000;stroke-linecap:square;stroke-linejoin:miter;stroke-width:0.8;"/>
   </g>
   <g id="patch_4">
    <path d="M 75.175 385.2 
L 840.323864 385.2 
" style="fill:none;stroke:#000000;stroke-linecap:square;stroke-linejoin:miter;stroke-width:0.8;"/>
   </g>
   <g id="text_6">
    <!-- CRM   8% -->
    <defs>
     <path d="M 67 4 
Q 61.8125 1.3125 56.203125 -0.046875 
Q 50.59375 -1.421875 44.484375 -1.421875 
Q 26.265625 -1.421875 15.625 8.765625 
Q 4.984375 18.953125 4.984375 36.375 
Q 4.984375 53.859375 15.625 64.03125 
Q 26.265625 74.21875 44.484375 74.21875 
Q 50.59375 74.21875 56.203125 72.84375 
Q 61.8125 71.484375 67 68.796875 
L 67 53.71875 
Q 61.765625 57.28125 56.6875 58.9375 
Q 51.609375 60.59375 46 60.59375 
Q 35.9375 60.59375 30.171875 54.140625 
Q 24.421875 47.703125 24.421875 36.375 
Q 24.421875 25.09375 30.171875 18.640625 
Q 35.9375 12.203125 46 12.203125 
Q 51.609375 12.203125 56.6875 13.859375 
Q 61.765625 15.53125 67 19.09375 
z
" id="DejaVuSans-Bold-67"/>
     <path d="M 35.890625 40.578125 
Q 41.796875 40.578125 44.359375 42.765625 
Q 46.921875 44.96875 46.921875 50 
Q 46.921875 54.984375 44.359375 57.125 
Q 41.796875 59.28125 35.890625 59.28125 
L 27.984375 59.28125 
L 27.984375 40.578125 
z
M 27.984375 27.59375 
L 27.984375 0 
L 9.1875 0 
L 9.1875 72.90625 
L 37.890625 72.90625 
Q 52.296875 72.90625 59 68.0625 
Q 65.71875 63.234375 65.71875 52.78125 
Q 65.71875 45.5625 62.21875 40.921875 
Q 58.734375 36.28125 51.703125 34.078125 
Q 55.5625 33.203125 58.609375 30.09375 
Q 61.671875 27 64.796875 20.703125 
L 75 0 
L 54.984375 0 
L 46.09375 18.109375 
Q 43.40625 23.578125 40.640625 25.578125 
Q 37.890625 27.59375 33.296875 27.59375 
z
" id="DejaVuSans-Bold-82"/>
     <path d="M 9.1875 72.90625 
L 33.109375 72.90625 
L 49.703125 33.890625 
L 66.40625 72.90625 
L 90.28125 72.90625 
L 90.28125 0 
L 72.515625 0 
L 72.515625 53.328125 
L 55.71875 14.015625 
L 43.796875 14.015625 
L 27 53.328125 
L 27 0 
L 9.1875 0 
z
" id="DejaVuSans-Bold-77"/>
     <path id="DejaVuSans-Bold-32"/>
     <path d="M 34.8125 32.625 
Q 29.546875 32.625 26.703125 29.734375 
Q 23.875 26.859375 23.875 21.484375 
Q 23.875 16.109375 26.703125 13.25 
Q 29.546875 10.40625 34.8125 10.40625 
Q 40.046875 10.40625 42.828125 13.25 
Q 45.609375 16.109375 45.609375 21.484375 
Q 45.609375 26.90625 42.828125 29.765625 
Q 40.046875 32.625 34.8125 32.625 
z
M 21.09375 38.8125 
Q 14.453125 40.828125 11.078125 44.96875 
Q 7.71875 49.125 7.71875 55.328125 
Q 7.71875 64.546875 14.59375 69.375 
Q 21.484375 74.21875 34.8125 74.21875 
Q 48.046875 74.21875 54.921875 69.40625 
Q 61.8125 64.59375 61.8125 55.328125 
Q 61.8125 49.125 58.421875 44.96875 
Q 55.03125 40.828125 48.390625 38.8125 
Q 55.8125 36.765625 59.59375 32.15625 
Q 63.375 27.546875 63.375 20.515625 
Q 63.375 9.671875 56.171875 4.125 
Q 48.96875 -1.421875 34.8125 -1.421875 
Q 20.609375 -1.421875 13.359375 4.125 
Q 6.109375 9.671875 6.109375 20.515625 
Q 6.109375 27.546875 9.890625 32.15625 
Q 13.671875 36.765625 21.09375 38.8125 
z
M 25.484375 53.421875 
Q 25.484375 49.078125 27.90625 46.734375 
Q 30.328125 44.390625 34.8125 44.390625 
Q 39.203125 44.390625 41.59375 46.734375 
Q 44 49.078125 44 53.421875 
Q 44 57.765625 41.59375 60.078125 
Q 39.203125 62.40625 34.8125 62.40625 
Q 30.328125 62.40625 27.90625 60.0625 
Q 25.484375 57.71875 25.484375 53.421875 
z
" id="DejaVuSans-Bold-56"/>
     <path d="M 77.484375 30.078125 
Q 74.03125 30.078125 72.125 27.078125 
Q 70.21875 24.078125 70.21875 18.5 
Q 70.21875 12.890625 72.09375 9.890625 
Q 73.96875 6.890625 77.484375 6.890625 
Q 81 6.890625 82.859375 9.890625 
Q 84.71875 12.890625 84.71875 18.5 
Q 84.71875 24.078125 82.828125 27.078125 
Q 80.953125 30.078125 77.484375 30.078125 
z
M 77.484375 38.28125 
Q 86.578125 38.28125 91.796875 33 
Q 97.015625 27.734375 97.015625 18.5 
Q 97.015625 9.28125 91.796875 3.921875 
Q 86.578125 -1.421875 77.484375 -1.421875 
Q 68.40625 -1.421875 63.15625 3.921875 
Q 57.90625 9.28125 57.90625 18.5 
Q 57.90625 27.6875 63.15625 32.984375 
Q 68.40625 38.28125 77.484375 38.28125 
z
M 32.71875 -1.421875 
L 21.921875 -1.421875 
L 67.484375 74.21875 
L 78.328125 74.21875 
z
M 22.703125 74.21875 
Q 31.78125 74.21875 36.984375 68.921875 
Q 42.1875 63.625 42.1875 54.390625 
Q 42.1875 45.171875 36.984375 39.84375 
Q 31.78125 34.515625 22.703125 34.515625 
Q 13.625 34.515625 8.421875 39.84375 
Q 3.21875 45.171875 3.21875 54.390625 
Q 3.21875 63.625 8.421875 68.921875 
Q 13.625 74.21875 22.703125 74.21875 
z
M 22.703125 66.015625 
Q 19.1875 66.015625 17.28125 62.984375 
Q 15.375 59.96875 15.375 54.390625 
Q 15.375 48.78125 17.28125 45.71875 
Q 19.1875 42.671875 22.703125 42.671875 
Q 26.21875 42.671875 28.09375 45.71875 
Q 29.984375 48.78125 29.984375 54.390625 
Q 29.984375 59.96875 28.078125 62.984375 
Q 26.171875 66.015625 22.703125 66.015625 
z
" id="DejaVuSans-Bold-37"/>
    </defs>
    <g transform="translate(75.175 72.1625)scale(0.8 -0.8)">
     <use xlink:href="#DejaVuSans-Bold-67"/>
     <use x="73.388672" xlink:href="#DejaVuSans-Bold-82"/>
     <use x="150.390625" xlink:href="#DejaVuSans-Bold-77"/>
     <use x="249.902344" xlink:href="#DejaVuSans-Bold-32"/>
     <use x="284.716797" xlink:href="#DejaVuSans-Bold-32"/>
     <use x="319.53125" xlink:href="#DejaVuSans-Bold-32"/>
     <use x="354.345703" xlink:href="#DejaVuSans-Bold-56"/>
     <use x="423.925781" xlink:href="#DejaVuSans-Bold-37"/>
    </g>
   </g>
  </g>
 </g>
 <defs>
  <clipPath id="p50f55e60c2">
   <rect height="296.4" width="765.148864" x="75.175" y="88.8"/>
  </clipPath>
 </defs>
</svg>
