<?xml version="1.0" encoding="utf-8" standalone="no"?>
<!DOCTYPE svg PUBLIC "-//W3C//DTD SVG 1.1//EN"
  "http://www.w3.org/Graphics/SVG/1.1/DTD/svg11.dtd">
<!-- Created with matplotlib (https://matplotlib.org/) -->
<svg height="432pt" version="1.1" viewBox="0 0 576 432" width="576pt" xmlns="http://www.w3.org/2000/svg" xmlns:xlink="http://www.w3.org/1999/xlink">
 <defs>
  <style type="text/css">
*{stroke-linecap:butt;stroke-linejoin:round;}
  </style>
 </defs>
 <g id="figure_1">
  <g id="patch_1">
   <path d="M 0 432 
L 576 432 
L 576 0 
L 0 0 
z
" style="fill:#ffffff;"/>
  </g>
  <g id="axes_1">
   <g id="patch_2">
    <path d="M 30.55 404.2 
L 565.2 404.2 
L 565.2 31.8 
L 30.55 31.8 
z
" style="fill:#ffffff;"/>
   </g>
   <g id="PolyCollection_1">
    <defs>
     <path d="M 54.852273 -44.727273 
L 54.852273 -285.922906 
L 56.183904 -282.645484 
L 60.178798 -281.673079 
L 61.51043 -280.916757 
L 62.842061 -274.974198 
L 64.173692 -290.604901 
L 65.505324 -302.381976 
L 69.500218 -295.467012 
L 70.831849 -334.471749 
L 72.163481 -331.05029 
L 73.495112 -328.529218 
L 74.826743 -329.537647 
L 78.821638 -325.359839 
L 80.153269 -315.419588 
L 81.4849 -313.510744 
L 84.148163 -312.826469 
L 88.143057 -306.775868 
L 89.474689 -299.608769 
L 90.80632 -321.00197 
L 92.137951 -335.011987 
L 93.469583 -344.123897 
L 97.464477 -339.405879 
L 98.796108 -327.232659 
L 100.12774 -321.00197 
L 101.459371 -325.323843 
L 102.791002 -330.329992 
L 106.785897 -334.003558 
L 108.117528 -348.913962 
L 109.449159 -347.041169 
L 110.780791 -324.135326 
L 112.112422 -323.775177 
L 116.107316 -314.987392 
L 117.438948 -316.500035 
L 118.770579 -324.387433 
L 120.10221 -317.076296 
L 121.433842 -314.050982 
L 126.760367 -316.35597 
L 128.091999 -309.188899 
L 129.42363 -322.046422 
L 130.755262 -320.245648 
L 136.081787 -315.311518 
L 137.413418 -316.391993 
L 138.74505 -301.013398 
L 140.076681 -303.354382 
L 144.071575 -314.123028 
L 145.403207 -307.964358 
L 146.734838 -318.805024 
L 148.066469 -324.63954 
L 149.398101 -327.808892 
L 154.724626 -341.854932 
L 156.056258 -347.545384 
L 157.387889 -347.149211 
L 158.719521 -355.972991 
L 162.714415 -364.184515 
L 164.046046 -353.848092 
L 165.377677 -351.290996 
L 166.709309 -359.610562 
L 168.04094 -364.868818 
L 172.035834 -358.85424 
L 173.367466 -361.195252 
L 174.699097 -369.658883 
L 176.030729 -383.272727 
L 177.36236 -380.103375 
L 181.357254 -373.620579 
L 182.688885 -377.942425 
L 184.020517 -378.590705 
L 185.352148 -375.925567 
L 186.68378 -371.135503 
L 190.678674 -362.491811 
L 192.010305 -322.046422 
L 193.341936 -339.946117 
L 194.673568 -338.649557 
L 196.005199 -342.323124 
L 201.331725 -338.433473 
L 202.663356 -328.565214 
L 203.994988 -330.402011 
L 205.326619 -319.957518 
L 209.321513 -329.069428 
L 210.653144 -331.194355 
L 211.984776 -333.859493 
L 213.316407 -335.192075 
L 214.648039 -334.723856 
L 218.642933 -335.516201 
L 219.974564 -329.753731 
L 221.306196 -331.122309 
L 222.637827 -321.146035 
L 223.969458 -303.822601 
L 227.964352 -298.888471 
L 229.295984 -302.057823 
L 230.627615 -288.696085 
L 231.959247 -292.189591 
L 233.290878 -276.558888 
L 237.285772 -280.232454 
L 238.617403 -282.717531 
L 239.949035 -274.145844 
L 241.280666 -282.717531 
L 242.612298 -280.628627 
L 246.607192 -280.412543 
L 247.938823 -274.650059 
L 249.270455 -275.226306 
L 250.602086 -279.72824 
L 251.933717 -286.679227 
L 255.928611 -283.834002 
L 257.260243 -275.190296 
L 258.591874 -265.03392 
L 259.923506 -264.565729 
L 265.250031 -266.834694 
L 266.581663 -268.923598 
L 267.913294 -266.942749 
L 269.244925 -273.101392 
L 270.576557 -268.38336 
L 274.571451 -263.809407 
L 275.903082 -263.377211 
L 277.234714 -262.008633 
L 278.566345 -255.23772 
L 279.897976 -251.780238 
L 283.89287 -248.826957 
L 285.224502 -241.695894 
L 286.556133 -247.530411 
L 287.887765 -248.034626 
L 289.219396 -252.068355 
L 293.21429 -257.182559 
L 294.545922 -251.744215 
L 295.877553 -249.403217 
L 297.209184 -245.009325 
L 298.540816 -232.511951 
L 302.53571 -234.672888 
L 303.867341 -234.060618 
L 305.198973 -226.425341 
L 306.530604 -227.397761 
L 307.862235 -223.075901 
L 311.85713 -222.499654 
L 313.188761 -219.366312 
L 314.520392 -223.976288 
L 315.852024 -226.893546 
L 317.183655 -235.033037 
L 321.178549 -246.882132 
L 322.510181 -239.895121 
L 323.841812 -228.40619 
L 325.173443 -224.264405 
L 326.505075 -228.802362 
L 331.8316 -229.486651 
L 333.163232 -220.482783 
L 334.494863 -223.976288 
L 335.826494 -230.387038 
L 339.821389 -210.290411 
L 341.15302 -215.188517 
L 342.484651 -215.836783 
L 343.816283 -209.137917 
L 345.147914 -209.281968 
L 349.142808 -219.438331 
L 350.47444 -225.092773 
L 351.806071 -225.056749 
L 353.137702 -236.86982 
L 354.469334 -239.10279 
L 359.795859 -234.096641 
L 361.127491 -224.804642 
L 362.459122 -223.940265 
L 363.790753 -218.285836 
L 367.785648 -217.565538 
L 369.117279 -222.067472 
L 370.44891 -222.967859 
L 371.780542 -225.849094 
L 373.112173 -231.251415 
L 377.107067 -228.442199 
L 379.77033 -232.331877 
L 381.101961 -229.702749 
L 382.433593 -237.770207 
L 386.428487 -243.244561 
L 387.760118 -243.208552 
L 389.09175 -245.837679 
L 390.423381 -256.318182 
L 391.755012 -248.25071 
L 395.749907 -256.966461 
L 397.081538 -256.894429 
L 398.413169 -261.468396 
L 399.744801 -243.856831 
L 401.076432 -238.706617 
L 405.071326 -241.227703 
L 406.402958 -240.219261 
L 407.734589 -238.562552 
L 409.06622 -225.705029 
L 410.397852 -231.39548 
L 414.392746 -233.664445 
L 415.724377 -229.594707 
L 417.056009 -221.923407 
L 418.38764 -220.73489 
L 419.719271 -229.990865 
L 423.714166 -227.577835 
L 425.045797 -220.302708 
L 426.377428 -220.482783 
L 427.70906 -222.139491 
L 429.040691 -219.654428 
L 433.035585 -220.878955 
L 434.367217 -214.180075 
L 435.698848 -213.783902 
L 437.030479 -209.137917 
L 438.362111 -208.417604 
L 442.357005 -210.398453 
L 443.688636 -215.620699 
L 445.020268 -223.472073 
L 446.351899 -216.521086 
L 447.683531 -217.38545 
L 451.678425 -216.341011 
L 453.010056 -219.258256 
L 454.341687 -216.809203 
L 455.673319 -220.842946 
L 457.00495 -222.823794 
L 462.331476 -229.234544 
L 463.663107 -231.75563 
L 464.994738 -231.323448 
L 466.32637 -232.872114 
L 470.321264 -229.810791 
L 471.652895 -229.306576 
L 472.984527 -228.586264 
L 474.316158 -234.997028 
L 475.64779 -232.656017 
L 479.642684 -228.40619 
L 480.974315 -248.358765 
L 482.305946 -242.020034 
L 483.637578 -241.047615 
L 484.969209 -245.945721 
L 488.964103 -255.489828 
L 490.295735 -253.508979 
L 491.627366 -256.462247 
L 492.958998 -253.184839 
L 494.290629 -251.27601 
L 498.285523 -251.059926 
L 499.617154 -246.413926 
L 500.948786 -244.86526 
L 502.280417 -245.765647 
L 503.612049 -254.841548 
L 507.606943 -256.390214 
L 508.938574 -262.188708 
L 510.270205 -258.29903 
L 511.601837 -250.915861 
L 512.933468 -250.843828 
L 516.928362 -255.813967 
L 518.259994 -255.633893 
L 519.591625 -254.337334 
L 520.923257 -253.797096 
L 522.254888 -241.47981 
L 526.249782 -240.651456 
L 527.581413 -239.498962 
L 528.913045 -224.192386 
L 530.244676 -220.122633 
L 531.576308 -219.294279 
L 535.571202 -223.11191 
L 536.902833 -225.380889 
L 538.234465 -221.05903 
L 539.566096 -231.647588 
L 540.897727 -234.888972 
L 540.897727 -44.727273 
L 540.897727 -44.727273 
L 539.566096 -44.727273 
L 538.234465 -44.727273 
L 536.902833 -44.727273 
L 535.571202 -44.727273 
L 531.576308 -44.727273 
L 530.244676 -44.727273 
L 528.913045 -44.727273 
L 527.581413 -44.727273 
L 526.249782 -44.727273 
L 522.254888 -44.727273 
L 520.923257 -44.727273 
L 519.591625 -44.727273 
L 518.259994 -44.727273 
L 516.928362 -44.727273 
L 512.933468 -44.727273 
L 511.601837 -44.727273 
L 510.270205 -44.727273 
L 508.938574 -44.727273 
L 507.606943 -44.727273 
L 503.612049 -44.727273 
L 502.280417 -44.727273 
L 500.948786 -44.727273 
L 499.617154 -44.727273 
L 498.285523 -44.727273 
L 494.290629 -44.727273 
L 492.958998 -44.727273 
L 491.627366 -44.727273 
L 490.295735 -44.727273 
L 488.964103 -44.727273 
L 484.969209 -44.727273 
L 483.637578 -44.727273 
L 482.305946 -44.727273 
L 480.974315 -44.727273 
L 479.642684 -44.727273 
L 475.64779 -44.727273 
L 474.316158 -44.727273 
L 472.984527 -44.727273 
L 471.652895 -44.727273 
L 470.321264 -44.727273 
L 466.32637 -44.727273 
L 464.994738 -44.727273 
L 463.663107 -44.727273 
L 462.331476 -44.727273 
L 457.00495 -44.727273 
L 455.673319 -44.727273 
L 454.341687 -44.727273 
L 453.010056 -44.727273 
L 451.678425 -44.727273 
L 447.683531 -44.727273 
L 446.351899 -44.727273 
L 445.020268 -44.727273 
L 443.688636 -44.727273 
L 442.357005 -44.727273 
L 438.362111 -44.727273 
L 437.030479 -44.727273 
L 435.698848 -44.727273 
L 434.367217 -44.727273 
L 433.035585 -44.727273 
L 429.040691 -44.727273 
L 427.70906 -44.727273 
L 426.377428 -44.727273 
L 425.045797 -44.727273 
L 423.714166 -44.727273 
L 419.719271 -44.727273 
L 418.38764 -44.727273 
L 417.056009 -44.727273 
L 415.724377 -44.727273 
L 414.392746 -44.727273 
L 410.397852 -44.727273 
L 409.06622 -44.727273 
L 407.734589 -44.727273 
L 406.402958 -44.727273 
L 405.071326 -44.727273 
L 401.076432 -44.727273 
L 399.744801 -44.727273 
L 398.413169 -44.727273 
L 397.081538 -44.727273 
L 395.749907 -44.727273 
L 391.755012 -44.727273 
L 390.423381 -44.727273 
L 389.09175 -44.727273 
L 387.760118 -44.727273 
L 386.428487 -44.727273 
L 382.433593 -44.727273 
L 381.101961 -44.727273 
L 379.77033 -44.727273 
L 377.107067 -44.727273 
L 373.112173 -44.727273 
L 371.780542 -44.727273 
L 370.44891 -44.727273 
L 369.117279 -44.727273 
L 367.785648 -44.727273 
L 363.790753 -44.727273 
L 362.459122 -44.727273 
L 361.127491 -44.727273 
L 359.795859 -44.727273 
L 354.469334 -44.727273 
L 353.137702 -44.727273 
L 351.806071 -44.727273 
L 350.47444 -44.727273 
L 349.142808 -44.727273 
L 345.147914 -44.727273 
L 343.816283 -44.727273 
L 342.484651 -44.727273 
L 341.15302 -44.727273 
L 339.821389 -44.727273 
L 335.826494 -44.727273 
L 334.494863 -44.727273 
L 333.163232 -44.727273 
L 331.8316 -44.727273 
L 326.505075 -44.727273 
L 325.173443 -44.727273 
L 323.841812 -44.727273 
L 322.510181 -44.727273 
L 321.178549 -44.727273 
L 317.183655 -44.727273 
L 315.852024 -44.727273 
L 314.520392 -44.727273 
L 313.188761 -44.727273 
L 311.85713 -44.727273 
L 307.862235 -44.727273 
L 306.530604 -44.727273 
L 305.198973 -44.727273 
L 303.867341 -44.727273 
L 302.53571 -44.727273 
L 298.540816 -44.727273 
L 297.209184 -44.727273 
L 295.877553 -44.727273 
L 294.545922 -44.727273 
L 293.21429 -44.727273 
L 289.219396 -44.727273 
L 287.887765 -44.727273 
L 286.556133 -44.727273 
L 285.224502 -44.727273 
L 283.89287 -44.727273 
L 279.897976 -44.727273 
L 278.566345 -44.727273 
L 277.234714 -44.727273 
L 275.903082 -44.727273 
L 274.571451 -44.727273 
L 270.576557 -44.727273 
L 269.244925 -44.727273 
L 267.913294 -44.727273 
L 266.581663 -44.727273 
L 265.250031 -44.727273 
L 259.923506 -44.727273 
L 258.591874 -44.727273 
L 257.260243 -44.727273 
L 255.928611 -44.727273 
L 251.933717 -44.727273 
L 250.602086 -44.727273 
L 249.270455 -44.727273 
L 247.938823 -44.727273 
L 246.607192 -44.727273 
L 242.612298 -44.727273 
L 241.280666 -44.727273 
L 239.949035 -44.727273 
L 238.617403 -44.727273 
L 237.285772 -44.727273 
L 233.290878 -44.727273 
L 231.959247 -44.727273 
L 230.627615 -44.727273 
L 229.295984 -44.727273 
L 227.964352 -44.727273 
L 223.969458 -44.727273 
L 222.637827 -44.727273 
L 221.306196 -44.727273 
L 219.974564 -44.727273 
L 218.642933 -44.727273 
L 214.648039 -44.727273 
L 213.316407 -44.727273 
L 211.984776 -44.727273 
L 210.653144 -44.727273 
L 209.321513 -44.727273 
L 205.326619 -44.727273 
L 203.994988 -44.727273 
L 202.663356 -44.727273 
L 201.331725 -44.727273 
L 196.005199 -44.727273 
L 194.673568 -44.727273 
L 193.341936 -44.727273 
L 192.010305 -44.727273 
L 190.678674 -44.727273 
L 186.68378 -44.727273 
L 185.352148 -44.727273 
L 184.020517 -44.727273 
L 182.688885 -44.727273 
L 181.357254 -44.727273 
L 177.36236 -44.727273 
L 176.030729 -44.727273 
L 174.699097 -44.727273 
L 173.367466 -44.727273 
L 172.035834 -44.727273 
L 168.04094 -44.727273 
L 166.709309 -44.727273 
L 165.377677 -44.727273 
L 164.046046 -44.727273 
L 162.714415 -44.727273 
L 158.719521 -44.727273 
L 157.387889 -44.727273 
L 156.056258 -44.727273 
L 154.724626 -44.727273 
L 149.398101 -44.727273 
L 148.066469 -44.727273 
L 146.734838 -44.727273 
L 145.403207 -44.727273 
L 144.071575 -44.727273 
L 140.076681 -44.727273 
L 138.74505 -44.727273 
L 137.413418 -44.727273 
L 136.081787 -44.727273 
L 130.755262 -44.727273 
L 129.42363 -44.727273 
L 128.091999 -44.727273 
L 126.760367 -44.727273 
L 121.433842 -44.727273 
L 120.10221 -44.727273 
L 118.770579 -44.727273 
L 117.438948 -44.727273 
L 116.107316 -44.727273 
L 112.112422 -44.727273 
L 110.780791 -44.727273 
L 109.449159 -44.727273 
L 108.117528 -44.727273 
L 106.785897 -44.727273 
L 102.791002 -44.727273 
L 101.459371 -44.727273 
L 100.12774 -44.727273 
L 98.796108 -44.727273 
L 97.464477 -44.727273 
L 93.469583 -44.727273 
L 92.137951 -44.727273 
L 90.80632 -44.727273 
L 89.474689 -44.727273 
L 88.143057 -44.727273 
L 84.148163 -44.727273 
L 81.4849 -44.727273 
L 80.153269 -44.727273 
L 78.821638 -44.727273 
L 74.826743 -44.727273 
L 73.495112 -44.727273 
L 72.163481 -44.727273 
L 70.831849 -44.727273 
L 69.500218 -44.727273 
L 65.505324 -44.727273 
L 64.173692 -44.727273 
L 62.842061 -44.727273 
L 61.51043 -44.727273 
L 60.178798 -44.727273 
L 56.183904 -44.727273 
L 54.852273 -44.727273 
z
" id="ma2fd4bf59f" style="stroke:#f5d128;"/>
    </defs>
    <g clip-path="url(#p77e901ff41)">
     <use style="fill:#f5d128;stroke:#f5d128;" x="0" xlink:href="#ma2fd4bf59f" y="432"/>
    </g>
   </g>
   <g id="matplotlib.axis_1">
    <g id="xtick_1">
     <g id="line2d_1">
      <defs>
       <path d="M 0 0 
L 0 3.5 
" id="m5b8fccc258" style="stroke:#000000;stroke-width:0.8;"/>
      </defs>
      <g>
       <use style="stroke:#000000;stroke-width:0.8;" x="52.18901" xlink:href="#m5b8fccc258" y="404.2"/>
      </g>
     </g>
     <g id="text_1">
      <!-- 2022-11 -->
      <defs>
       <path d="M 19.1875 8.296875 
L 53.609375 8.296875 
L 53.609375 0 
L 7.328125 0 
L 7.328125 8.296875 
Q 12.9375 14.109375 22.625 23.890625 
Q 32.328125 33.6875 34.8125 36.53125 
Q 39.546875 41.84375 41.421875 45.53125 
Q 43.3125 49.21875 43.3125 52.78125 
Q 43.3125 58.59375 39.234375 62.25 
Q 35.15625 65.921875 28.609375 65.921875 
Q 23.96875 65.921875 18.8125 64.3125 
Q 13.671875 62.703125 7.8125 59.421875 
L 7.8125 69.390625 
Q 13.765625 71.78125 18.9375 73 
Q 24.125 74.21875 28.421875 74.21875 
Q 39.75 74.21875 46.484375 68.546875 
Q 53.21875 62.890625 53.21875 53.421875 
Q 53.21875 48.921875 51.53125 44.890625 
Q 49.859375 40.875 45.40625 35.40625 
Q 44.1875 33.984375 37.640625 27.21875 
Q 31.109375 20.453125 19.1875 8.296875 
z
" id="DejaVuSans-50"/>
       <path d="M 31.78125 66.40625 
Q 24.171875 66.40625 20.328125 58.90625 
Q 16.5 51.421875 16.5 36.375 
Q 16.5 21.390625 20.328125 13.890625 
Q 24.171875 6.390625 31.78125 6.390625 
Q 39.453125 6.390625 43.28125 13.890625 
Q 47.125 21.390625 47.125 36.375 
Q 47.125 51.421875 43.28125 58.90625 
Q 39.453125 66.40625 31.78125 66.40625 
z
M 31.78125 74.21875 
Q 44.046875 74.21875 50.515625 64.515625 
Q 56.984375 54.828125 56.984375 36.375 
Q 56.984375 17.96875 50.515625 8.265625 
Q 44.046875 -1.421875 31.78125 -1.421875 
Q 19.53125 -1.421875 13.0625 8.265625 
Q 6.59375 17.96875 6.59375 36.375 
Q 6.59375 54.828125 13.0625 64.515625 
Q 19.53125 74.21875 31.78125 74.21875 
z
" id="DejaVuSans-48"/>
       <path d="M 4.890625 31.390625 
L 31.203125 31.390625 
L 31.203125 23.390625 
L 4.890625 23.390625 
z
" id="DejaVuSans-45"/>
       <path d="M 12.40625 8.296875 
L 28.515625 8.296875 
L 28.515625 63.921875 
L 10.984375 60.40625 
L 10.984375 69.390625 
L 28.421875 72.90625 
L 38.28125 72.90625 
L 38.28125 8.296875 
L 54.390625 8.296875 
L 54.390625 0 
L 12.40625 0 
z
" id="DejaVuSans-49"/>
      </defs>
      <g transform="translate(31.297604 418.798437)scale(0.1 -0.1)">
       <use xlink:href="#DejaVuSans-50"/>
       <use x="63.623047" xlink:href="#DejaVuSans-48"/>
       <use x="127.246094" xlink:href="#DejaVuSans-50"/>
       <use x="190.869141" xlink:href="#DejaVuSans-50"/>
       <use x="254.492188" xlink:href="#DejaVuSans-45"/>
       <use x="290.576172" xlink:href="#DejaVuSans-49"/>
       <use x="354.199219" xlink:href="#DejaVuSans-49"/>
      </g>
     </g>
    </g>
    <g id="xtick_2">
     <g id="line2d_2">
      <g>
       <use style="stroke:#000000;stroke-width:0.8;" x="133.418524" xlink:href="#m5b8fccc258" y="404.2"/>
      </g>
     </g>
     <g id="text_2">
      <!-- 2023-01 -->
      <defs>
       <path d="M 40.578125 39.3125 
Q 47.65625 37.796875 51.625 33 
Q 55.609375 28.21875 55.609375 21.1875 
Q 55.609375 10.40625 48.1875 4.484375 
Q 40.765625 -1.421875 27.09375 -1.421875 
Q 22.515625 -1.421875 17.65625 -0.515625 
Q 12.796875 0.390625 7.625 2.203125 
L 7.625 11.71875 
Q 11.71875 9.328125 16.59375 8.109375 
Q 21.484375 6.890625 26.8125 6.890625 
Q 36.078125 6.890625 40.9375 10.546875 
Q 45.796875 14.203125 45.796875 21.1875 
Q 45.796875 27.640625 41.28125 31.265625 
Q 36.765625 34.90625 28.71875 34.90625 
L 20.21875 34.90625 
L 20.21875 43.015625 
L 29.109375 43.015625 
Q 36.375 43.015625 40.234375 45.921875 
Q 44.09375 48.828125 44.09375 54.296875 
Q 44.09375 59.90625 40.109375 62.90625 
Q 36.140625 65.921875 28.71875 65.921875 
Q 24.65625 65.921875 20.015625 65.03125 
Q 15.375 64.15625 9.8125 62.3125 
L 9.8125 71.09375 
Q 15.4375 72.65625 20.34375 73.4375 
Q 25.25 74.21875 29.59375 74.21875 
Q 40.828125 74.21875 47.359375 69.109375 
Q 53.90625 64.015625 53.90625 55.328125 
Q 53.90625 49.265625 50.4375 45.09375 
Q 46.96875 40.921875 40.578125 39.3125 
z
" id="DejaVuSans-51"/>
      </defs>
      <g transform="translate(112.527118 418.798437)scale(0.1 -0.1)">
       <use xlink:href="#DejaVuSans-50"/>
       <use x="63.623047" xlink:href="#DejaVuSans-48"/>
       <use x="127.246094" xlink:href="#DejaVuSans-50"/>
       <use x="190.869141" xlink:href="#DejaVuSans-51"/>
       <use x="254.492188" xlink:href="#DejaVuSans-45"/>
       <use x="290.576172" xlink:href="#DejaVuSans-48"/>
       <use x="354.199219" xlink:href="#DejaVuSans-49"/>
      </g>
     </g>
    </g>
    <g id="xtick_3">
     <g id="line2d_3">
      <g>
       <use style="stroke:#000000;stroke-width:0.8;" x="211.984776" xlink:href="#m5b8fccc258" y="404.2"/>
      </g>
     </g>
     <g id="text_3">
      <!-- 2023-03 -->
      <g transform="translate(191.09337 418.798437)scale(0.1 -0.1)">
       <use xlink:href="#DejaVuSans-50"/>
       <use x="63.623047" xlink:href="#DejaVuSans-48"/>
       <use x="127.246094" xlink:href="#DejaVuSans-50"/>
       <use x="190.869141" xlink:href="#DejaVuSans-51"/>
       <use x="254.492188" xlink:href="#DejaVuSans-45"/>
       <use x="290.576172" xlink:href="#DejaVuSans-48"/>
       <use x="354.199219" xlink:href="#DejaVuSans-51"/>
      </g>
     </g>
    </g>
    <g id="xtick_4">
     <g id="line2d_4">
      <g>
       <use style="stroke:#000000;stroke-width:0.8;" x="293.21429" xlink:href="#m5b8fccc258" y="404.2"/>
      </g>
     </g>
     <g id="text_4">
      <!-- 2023-05 -->
      <defs>
       <path d="M 10.796875 72.90625 
L 49.515625 72.90625 
L 49.515625 64.59375 
L 19.828125 64.59375 
L 19.828125 46.734375 
Q 21.96875 47.46875 24.109375 47.828125 
Q 26.265625 48.1875 28.421875 48.1875 
Q 40.625 48.1875 47.75 41.5 
Q 54.890625 34.8125 54.890625 23.390625 
Q 54.890625 11.625 47.5625 5.09375 
Q 40.234375 -1.421875 26.90625 -1.421875 
Q 22.3125 -1.421875 17.546875 -0.640625 
Q 12.796875 0.140625 7.71875 1.703125 
L 7.71875 11.625 
Q 12.109375 9.234375 16.796875 8.0625 
Q 21.484375 6.890625 26.703125 6.890625 
Q 35.15625 6.890625 40.078125 11.328125 
Q 45.015625 15.765625 45.015625 23.390625 
Q 45.015625 31 40.078125 35.4375 
Q 35.15625 39.890625 26.703125 39.890625 
Q 22.75 39.890625 18.8125 39.015625 
Q 14.890625 38.140625 10.796875 36.28125 
z
" id="DejaVuSans-53"/>
      </defs>
      <g transform="translate(272.322884 418.798437)scale(0.1 -0.1)">
       <use xlink:href="#DejaVuSans-50"/>
       <use x="63.623047" xlink:href="#DejaVuSans-48"/>
       <use x="127.246094" xlink:href="#DejaVuSans-50"/>
       <use x="190.869141" xlink:href="#DejaVuSans-51"/>
       <use x="254.492188" xlink:href="#DejaVuSans-45"/>
       <use x="290.576172" xlink:href="#DejaVuSans-48"/>
       <use x="354.199219" xlink:href="#DejaVuSans-53"/>
      </g>
     </g>
    </g>
    <g id="xtick_5">
     <g id="line2d_5">
      <g>
       <use style="stroke:#000000;stroke-width:0.8;" x="374.443804" xlink:href="#m5b8fccc258" y="404.2"/>
      </g>
     </g>
     <g id="text_5">
      <!-- 2023-07 -->
      <defs>
       <path d="M 8.203125 72.90625 
L 55.078125 72.90625 
L 55.078125 68.703125 
L 28.609375 0 
L 18.3125 0 
L 43.21875 64.59375 
L 8.203125 64.59375 
z
" id="DejaVuSans-55"/>
      </defs>
      <g transform="translate(353.552398 418.798437)scale(0.1 -0.1)">
       <use xlink:href="#DejaVuSans-50"/>
       <use x="63.623047" xlink:href="#DejaVuSans-48"/>
       <use x="127.246094" xlink:href="#DejaVuSans-50"/>
       <use x="190.869141" xlink:href="#DejaVuSans-51"/>
       <use x="254.492188" xlink:href="#DejaVuSans-45"/>
       <use x="290.576172" xlink:href="#DejaVuSans-48"/>
       <use x="354.199219" xlink:href="#DejaVuSans-55"/>
      </g>
     </g>
    </g>
    <g id="xtick_6">
     <g id="line2d_6">
      <g>
       <use style="stroke:#000000;stroke-width:0.8;" x="457.00495" xlink:href="#m5b8fccc258" y="404.2"/>
      </g>
     </g>
     <g id="text_6">
      <!-- 2023-09 -->
      <defs>
       <path d="M 10.984375 1.515625 
L 10.984375 10.5 
Q 14.703125 8.734375 18.5 7.8125 
Q 22.3125 6.890625 25.984375 6.890625 
Q 35.75 6.890625 40.890625 13.453125 
Q 46.046875 20.015625 46.78125 33.40625 
Q 43.953125 29.203125 39.59375 26.953125 
Q 35.25 24.703125 29.984375 24.703125 
Q 19.046875 24.703125 12.671875 31.3125 
Q 6.296875 37.9375 6.296875 49.421875 
Q 6.296875 60.640625 12.9375 67.421875 
Q 19.578125 74.21875 30.609375 74.21875 
Q 43.265625 74.21875 49.921875 64.515625 
Q 56.59375 54.828125 56.59375 36.375 
Q 56.59375 19.140625 48.40625 8.859375 
Q 40.234375 -1.421875 26.421875 -1.421875 
Q 22.703125 -1.421875 18.890625 -0.6875 
Q 15.09375 0.046875 10.984375 1.515625 
z
M 30.609375 32.421875 
Q 37.25 32.421875 41.125 36.953125 
Q 45.015625 41.5 45.015625 49.421875 
Q 45.015625 57.28125 41.125 61.84375 
Q 37.25 66.40625 30.609375 66.40625 
Q 23.96875 66.40625 20.09375 61.84375 
Q 16.21875 57.28125 16.21875 49.421875 
Q 16.21875 41.5 20.09375 36.953125 
Q 23.96875 32.421875 30.609375 32.421875 
z
" id="DejaVuSans-57"/>
      </defs>
      <g transform="translate(436.113544 418.798437)scale(0.1 -0.1)">
       <use xlink:href="#DejaVuSans-50"/>
       <use x="63.623047" xlink:href="#DejaVuSans-48"/>
       <use x="127.246094" xlink:href="#DejaVuSans-50"/>
       <use x="190.869141" xlink:href="#DejaVuSans-51"/>
       <use x="254.492188" xlink:href="#DejaVuSans-45"/>
       <use x="290.576172" xlink:href="#DejaVuSans-48"/>
       <use x="354.199219" xlink:href="#DejaVuSans-57"/>
      </g>
     </g>
    </g>
    <g id="xtick_7">
     <g id="line2d_7">
      <g>
       <use style="stroke:#000000;stroke-width:0.8;" x="538.234465" xlink:href="#m5b8fccc258" y="404.2"/>
      </g>
     </g>
     <g id="text_7">
      <!-- 2023-11 -->
      <g transform="translate(517.343058 418.798437)scale(0.1 -0.1)">
       <use xlink:href="#DejaVuSans-50"/>
       <use x="63.623047" xlink:href="#DejaVuSans-48"/>
       <use x="127.246094" xlink:href="#DejaVuSans-50"/>
       <use x="190.869141" xlink:href="#DejaVuSans-51"/>
       <use x="254.492188" xlink:href="#DejaVuSans-45"/>
       <use x="290.576172" xlink:href="#DejaVuSans-49"/>
       <use x="354.199219" xlink:href="#DejaVuSans-49"/>
      </g>
     </g>
    </g>
   </g>
   <g id="matplotlib.axis_2">
    <g id="ytick_1">
     <g id="line2d_8">
      <defs>
       <path d="M 0 0 
L -3.5 0 
" id="me278d533c6" style="stroke:#000000;stroke-width:0.8;"/>
      </defs>
      <g>
       <use style="stroke:#000000;stroke-width:0.8;" x="30.55" xlink:href="#me278d533c6" y="387.272727"/>
      </g>
     </g>
     <g id="text_8">
      <!-- 0 -->
      <g transform="translate(17.1875 391.071946)scale(0.1 -0.1)">
       <use xlink:href="#DejaVuSans-48"/>
      </g>
     </g>
    </g>
    <g id="ytick_2">
     <g id="line2d_9">
      <g>
       <use style="stroke:#000000;stroke-width:0.8;" x="30.55" xlink:href="#me278d533c6" y="315.241779"/>
      </g>
     </g>
     <g id="text_9">
      <!-- 20 -->
      <g transform="translate(10.825 319.040998)scale(0.1 -0.1)">
       <use xlink:href="#DejaVuSans-50"/>
       <use x="63.623047" xlink:href="#DejaVuSans-48"/>
      </g>
     </g>
    </g>
    <g id="ytick_3">
     <g id="line2d_10">
      <g>
       <use style="stroke:#000000;stroke-width:0.8;" x="30.55" xlink:href="#me278d533c6" y="243.210832"/>
      </g>
     </g>
     <g id="text_10">
      <!-- 40 -->
      <defs>
       <path d="M 37.796875 64.3125 
L 12.890625 25.390625 
L 37.796875 25.390625 
z
M 35.203125 72.90625 
L 47.609375 72.90625 
L 47.609375 25.390625 
L 58.015625 25.390625 
L 58.015625 17.1875 
L 47.609375 17.1875 
L 47.609375 0 
L 37.796875 0 
L 37.796875 17.1875 
L 4.890625 17.1875 
L 4.890625 26.703125 
z
" id="DejaVuSans-52"/>
      </defs>
      <g transform="translate(10.825 247.01005)scale(0.1 -0.1)">
       <use xlink:href="#DejaVuSans-52"/>
       <use x="63.623047" xlink:href="#DejaVuSans-48"/>
      </g>
     </g>
    </g>
    <g id="ytick_4">
     <g id="line2d_11">
      <g>
       <use style="stroke:#000000;stroke-width:0.8;" x="30.55" xlink:href="#me278d533c6" y="171.179884"/>
      </g>
     </g>
     <g id="text_11">
      <!-- 60 -->
      <defs>
       <path d="M 33.015625 40.375 
Q 26.375 40.375 22.484375 35.828125 
Q 18.609375 31.296875 18.609375 23.390625 
Q 18.609375 15.53125 22.484375 10.953125 
Q 26.375 6.390625 33.015625 6.390625 
Q 39.65625 6.390625 43.53125 10.953125 
Q 47.40625 15.53125 47.40625 23.390625 
Q 47.40625 31.296875 43.53125 35.828125 
Q 39.65625 40.375 33.015625 40.375 
z
M 52.59375 71.296875 
L 52.59375 62.3125 
Q 48.875 64.0625 45.09375 64.984375 
Q 41.3125 65.921875 37.59375 65.921875 
Q 27.828125 65.921875 22.671875 59.328125 
Q 17.53125 52.734375 16.796875 39.40625 
Q 19.671875 43.65625 24.015625 45.921875 
Q 28.375 48.1875 33.59375 48.1875 
Q 44.578125 48.1875 50.953125 41.515625 
Q 57.328125 34.859375 57.328125 23.390625 
Q 57.328125 12.15625 50.6875 5.359375 
Q 44.046875 -1.421875 33.015625 -1.421875 
Q 20.359375 -1.421875 13.671875 8.265625 
Q 6.984375 17.96875 6.984375 36.375 
Q 6.984375 53.65625 15.1875 63.9375 
Q 23.390625 74.21875 37.203125 74.21875 
Q 40.921875 74.21875 44.703125 73.484375 
Q 48.484375 72.75 52.59375 71.296875 
z
" id="DejaVuSans-54"/>
      </defs>
      <g transform="translate(10.825 174.979103)scale(0.1 -0.1)">
       <use xlink:href="#DejaVuSans-54"/>
       <use x="63.623047" xlink:href="#DejaVuSans-48"/>
      </g>
     </g>
    </g>
    <g id="ytick_5">
     <g id="line2d_12">
      <g>
       <use style="stroke:#000000;stroke-width:0.8;" x="30.55" xlink:href="#me278d533c6" y="99.148936"/>
      </g>
     </g>
     <g id="text_12">
      <!-- 80 -->
      <defs>
       <path d="M 31.78125 34.625 
Q 24.75 34.625 20.71875 30.859375 
Q 16.703125 27.09375 16.703125 20.515625 
Q 16.703125 13.921875 20.71875 10.15625 
Q 24.75 6.390625 31.78125 6.390625 
Q 38.8125 6.390625 42.859375 10.171875 
Q 46.921875 13.96875 46.921875 20.515625 
Q 46.921875 27.09375 42.890625 30.859375 
Q 38.875 34.625 31.78125 34.625 
z
M 21.921875 38.8125 
Q 15.578125 40.375 12.03125 44.71875 
Q 8.5 49.078125 8.5 55.328125 
Q 8.5 64.0625 14.71875 69.140625 
Q 20.953125 74.21875 31.78125 74.21875 
Q 42.671875 74.21875 48.875 69.140625 
Q 55.078125 64.0625 55.078125 55.328125 
Q 55.078125 49.078125 51.53125 44.71875 
Q 48 40.375 41.703125 38.8125 
Q 48.828125 37.15625 52.796875 32.3125 
Q 56.78125 27.484375 56.78125 20.515625 
Q 56.78125 9.90625 50.3125 4.234375 
Q 43.84375 -1.421875 31.78125 -1.421875 
Q 19.734375 -1.421875 13.25 4.234375 
Q 6.78125 9.90625 6.78125 20.515625 
Q 6.78125 27.484375 10.78125 32.3125 
Q 14.796875 37.15625 21.921875 38.8125 
z
M 18.3125 54.390625 
Q 18.3125 48.734375 21.84375 45.5625 
Q 25.390625 42.390625 31.78125 42.390625 
Q 38.140625 42.390625 41.71875 45.5625 
Q 45.3125 48.734375 45.3125 54.390625 
Q 45.3125 60.0625 41.71875 63.234375 
Q 38.140625 66.40625 31.78125 66.40625 
Q 25.390625 66.40625 21.84375 63.234375 
Q 18.3125 60.0625 18.3125 54.390625 
z
" id="DejaVuSans-56"/>
      </defs>
      <g transform="translate(10.825 102.948155)scale(0.1 -0.1)">
       <use xlink:href="#DejaVuSans-56"/>
       <use x="63.623047" xlink:href="#DejaVuSans-48"/>
      </g>
     </g>
    </g>
   </g>
   <g id="patch_3">
    <path d="M 30.55 404.2 
L 30.55 31.8 
" style="fill:none;stroke:#000000;stroke-linecap:square;stroke-linejoin:miter;stroke-width:0.8;"/>
   </g>
   <g id="patch_4">
    <path d="M 565.2 404.2 
L 565.2 31.8 
" style="fill:none;stroke:#000000;stroke-linecap:square;stroke-linejoin:miter;stroke-width:0.8;"/>
   </g>
   <g id="patch_5">
    <path d="M 30.55 404.2 
L 565.2 404.2 
" style="fill:none;stroke:#000000;stroke-linecap:square;stroke-linejoin:miter;stroke-width:0.8;"/>
   </g>
   <g id="patch_6">
    <path d="M 30.55 31.8 
L 565.2 31.8 
" style="fill:none;stroke:#000000;stroke-linecap:square;stroke-linejoin:miter;stroke-width:0.8;"/>
   </g>
   <g id="text_13">
    <!-- DAVA - -21% -->
    <defs>
     <path d="M 27.984375 58.6875 
L 27.984375 14.203125 
L 34.71875 14.203125 
Q 46.234375 14.203125 52.3125 19.921875 
Q 58.40625 25.640625 58.40625 36.53125 
Q 58.40625 47.359375 52.34375 53.015625 
Q 46.296875 58.6875 34.71875 58.6875 
z
M 9.1875 72.90625 
L 29 72.90625 
Q 45.609375 72.90625 53.734375 70.53125 
Q 61.859375 68.171875 67.671875 62.5 
Q 72.796875 57.5625 75.28125 51.109375 
Q 77.78125 44.671875 77.78125 36.53125 
Q 77.78125 28.265625 75.28125 21.796875 
Q 72.796875 15.328125 67.671875 10.40625 
Q 61.8125 4.734375 53.609375 2.359375 
Q 45.40625 0 29 0 
L 9.1875 0 
z
" id="DejaVuSans-Bold-68"/>
     <path d="M 53.421875 13.28125 
L 24.03125 13.28125 
L 19.390625 0 
L 0.484375 0 
L 27.484375 72.90625 
L 49.90625 72.90625 
L 76.90625 0 
L 58.015625 0 
z
M 28.71875 26.8125 
L 48.6875 26.8125 
L 38.71875 55.8125 
z
" id="DejaVuSans-Bold-65"/>
     <path d="M 0.484375 72.90625 
L 19.390625 72.90625 
L 38.71875 19.09375 
L 58.015625 72.90625 
L 76.90625 72.90625 
L 49.90625 0 
L 27.484375 0 
z
" id="DejaVuSans-Bold-86"/>
     <path id="DejaVuSans-Bold-32"/>
     <path d="M 5.421875 35.890625 
L 36.078125 35.890625 
L 36.078125 21.6875 
L 5.421875 21.6875 
z
" id="DejaVuSans-Bold-45"/>
     <path d="M 28.8125 13.8125 
L 60.890625 13.8125 
L 60.890625 0 
L 7.90625 0 
L 7.90625 13.8125 
L 34.515625 37.3125 
Q 38.09375 40.53125 39.796875 43.609375 
Q 41.5 46.6875 41.5 50 
Q 41.5 55.125 38.0625 58.25 
Q 34.625 61.375 28.90625 61.375 
Q 24.515625 61.375 19.28125 59.5 
Q 14.0625 57.625 8.109375 53.90625 
L 8.109375 69.921875 
Q 14.453125 72.015625 20.65625 73.109375 
Q 26.859375 74.21875 32.8125 74.21875 
Q 45.90625 74.21875 53.15625 68.453125 
Q 60.40625 62.703125 60.40625 52.390625 
Q 60.40625 46.4375 57.328125 41.28125 
Q 54.25 36.140625 44.390625 27.484375 
z
" id="DejaVuSans-Bold-50"/>
     <path d="M 11.71875 12.984375 
L 28.328125 12.984375 
L 28.328125 60.109375 
L 11.28125 56.59375 
L 11.28125 69.390625 
L 28.21875 72.90625 
L 46.09375 72.90625 
L 46.09375 12.984375 
L 62.703125 12.984375 
L 62.703125 0 
L 11.71875 0 
z
" id="DejaVuSans-Bold-49"/>
     <path d="M 77.484375 30.078125 
Q 74.03125 30.078125 72.125 27.078125 
Q 70.21875 24.078125 70.21875 18.5 
Q 70.21875 12.890625 72.09375 9.890625 
Q 73.96875 6.890625 77.484375 6.890625 
Q 81 6.890625 82.859375 9.890625 
Q 84.71875 12.890625 84.71875 18.5 
Q 84.71875 24.078125 82.828125 27.078125 
Q 80.953125 30.078125 77.484375 30.078125 
z
M 77.484375 38.28125 
Q 86.578125 38.28125 91.796875 33 
Q 97.015625 27.734375 97.015625 18.5 
Q 97.015625 9.28125 91.796875 3.921875 
Q 86.578125 -1.421875 77.484375 -1.421875 
Q 68.40625 -1.421875 63.15625 3.921875 
Q 57.90625 9.28125 57.90625 18.5 
Q 57.90625 27.6875 63.15625 32.984375 
Q 68.40625 38.28125 77.484375 38.28125 
z
M 32.71875 -1.421875 
L 21.921875 -1.421875 
L 67.484375 74.21875 
L 78.328125 74.21875 
z
M 22.703125 74.21875 
Q 31.78125 74.21875 36.984375 68.921875 
Q 42.1875 63.625 42.1875 54.390625 
Q 42.1875 45.171875 36.984375 39.84375 
Q 31.78125 34.515625 22.703125 34.515625 
Q 13.625 34.515625 8.421875 39.84375 
Q 3.21875 45.171875 3.21875 54.390625 
Q 3.21875 63.625 8.421875 68.921875 
Q 13.625 74.21875 22.703125 74.21875 
z
M 22.703125 66.015625 
Q 19.1875 66.015625 17.28125 62.984375 
Q 15.375 59.96875 15.375 54.390625 
Q 15.375 48.78125 17.28125 45.71875 
Q 19.1875 42.671875 22.703125 42.671875 
Q 26.21875 42.671875 28.09375 45.71875 
Q 29.984375 48.78125 29.984375 54.390625 
Q 29.984375 59.96875 28.078125 62.984375 
Q 26.171875 66.015625 22.703125 66.015625 
z
" id="DejaVuSans-Bold-37"/>
    </defs>
    <g transform="translate(30.55 25.8)scale(0.2 -0.2)">
     <use xlink:href="#DejaVuSans-Bold-68"/>
     <use x="83.007812" xlink:href="#DejaVuSans-Bold-65"/>
     <use x="160.306641" xlink:href="#DejaVuSans-Bold-86"/>
     <use x="237.605469" xlink:href="#DejaVuSans-Bold-65"/>
     <use x="314.998047" xlink:href="#DejaVuSans-Bold-32"/>
     <use x="349.8125" xlink:href="#DejaVuSans-Bold-45"/>
     <use x="391.316406" xlink:href="#DejaVuSans-Bold-32"/>
     <use x="426.130859" xlink:href="#DejaVuSans-Bold-45"/>
     <use x="467.634766" xlink:href="#DejaVuSans-Bold-50"/>
     <use x="537.214844" xlink:href="#DejaVuSans-Bold-49"/>
     <use x="606.794922" xlink:href="#DejaVuSans-Bold-37"/>
    </g>
   </g>
  </g>
 </g>
 <defs>
  <clipPath id="p77e901ff41">
   <rect height="372.4" width="534.65" x="30.55" y="31.8"/>
  </clipPath>
 </defs>
</svg>
