<?xml version="1.0" encoding="utf-8" standalone="no"?>
<!DOCTYPE svg PUBLIC "-//W3C//DTD SVG 1.1//EN"
  "http://www.w3.org/Graphics/SVG/1.1/DTD/svg11.dtd">
<!-- Created with matplotlib (https://matplotlib.org/) -->
<svg height="432pt" version="1.1" viewBox="0 0 576 432" width="576pt" xmlns="http://www.w3.org/2000/svg" xmlns:xlink="http://www.w3.org/1999/xlink">
 <defs>
  <style type="text/css">
*{stroke-linecap:butt;stroke-linejoin:round;}
  </style>
 </defs>
 <g id="figure_1">
  <g id="patch_1">
   <path d="M 0 432 
L 576 432 
L 576 0 
L 0 0 
z
" style="fill:#ffffff;"/>
  </g>
  <g id="axes_1">
   <g id="patch_2">
    <path d="M 36.925 404.2 
L 565.2 404.2 
L 565.2 31.8 
L 36.925 31.8 
z
" style="fill:#ffffff;"/>
   </g>
   <g id="PolyCollection_1">
    <defs>
     <path d="M 60.9375 -44.727273 
L 60.9375 -262.2932 
L 62.253253 -248.863907 
L 66.200514 -246.253481 
L 67.516267 -249.182963 
L 68.832021 -239.698363 
L 70.147774 -266.672927 
L 71.463527 -283.582802 
L 75.410788 -271.313732 
L 76.726541 -294.459648 
L 78.042295 -283.843858 
L 79.358048 -273.866157 
L 80.673801 -266.672927 
L 84.621062 -257.478372 
L 85.936815 -254.51988 
L 87.252568 -263.163334 
L 89.884075 -261.800099 
L 93.831336 -257.826439 
L 95.147089 -253.736734 
L 96.462842 -264.526569 
L 97.778596 -270.878654 
L 99.094349 -261.423043 
L 103.04161 -248.515862 
L 104.357363 -243.643034 
L 105.673116 -242.772877 
L 106.98887 -259.421697 
L 108.304623 -260.987965 
L 112.251884 -268.036162 
L 113.567637 -275.925504 
L 114.88339 -278.158896 
L 116.199144 -271.850316 
L 117.514897 -270.472587 
L 121.462158 -265.309714 
L 122.777911 -265.106681 
L 124.093664 -268.558251 
L 125.409418 -256.318171 
L 126.725171 -254.780913 
L 131.988185 -249.415007 
L 133.303938 -247.297638 
L 134.619692 -259.189674 
L 135.935445 -257.91345 
L 141.198459 -253.823746 
L 142.514212 -244.745213 
L 143.829966 -228.908528 
L 145.145719 -230.764841 
L 149.092979 -235.985736 
L 150.408733 -238.393128 
L 151.724486 -244.948247 
L 153.04024 -245.470336 
L 154.355993 -249.124962 
L 159.619007 -256.637227 
L 160.93476 -246.891571 
L 162.250514 -240.307463 
L 163.566267 -250.807253 
L 167.513527 -263.105334 
L 168.829281 -258.464551 
L 170.145034 -249.937097 
L 171.460788 -265.164681 
L 172.776541 -268.732296 
L 176.723801 -258.899607 
L 178.039555 -261.713088 
L 179.355308 -284.59797 
L 180.671062 -296.983084 
L 181.986815 -275.200381 
L 185.934075 -267.949151 
L 187.249829 -277.694806 
L 188.565582 -284.48197 
L 189.881336 -286.628328 
L 191.197089 -278.274896 
L 195.144349 -283.263746 
L 196.460103 -292.661357 
L 197.775856 -302.058945 
L 199.09161 -283.930869 
L 200.407363 -276.737639 
L 205.670377 -272.473911 
L 206.98613 -276.650627 
L 208.301884 -272.996001 
L 209.617637 -267.108005 
L 213.564897 -269.805464 
L 214.880651 -266.672927 
L 216.196404 -262.9023 
L 217.512158 -259.653741 
L 218.827911 -268.007173 
L 222.775171 -266.846972 
L 224.090925 -261.742099 
L 225.406678 -253.504712 
L 226.722432 -247.500694 
L 228.038185 -233.665334 
L 231.985445 -236.855871 
L 233.301199 -236.043736 
L 234.616952 -240.626519 
L 235.932705 -245.470336 
L 237.248459 -243.759056 
L 241.195719 -236.768859 
L 242.511473 -246.80456 
L 243.827226 -236.710859 
L 245.142979 -240.336475 
L 246.458733 -233.955378 
L 250.405993 -234.999557 
L 251.721747 -241.17762 
L 253.0375 -242.250788 
L 254.353253 -241.699709 
L 255.669007 -255.477047 
L 259.616267 -249.705052 
L 260.932021 -245.789392 
L 262.247774 -236.478815 
L 263.563527 -235.66668 
L 268.826541 -236.565826 
L 270.142295 -232.824188 
L 271.458048 -238.596162 
L 272.773801 -242.192788 
L 274.089555 -239.988408 
L 278.036815 -247.297638 
L 279.352568 -247.761728 
L 280.668322 -246.471009 
L 281.984075 -240.452497 
L 283.299829 -239.872385 
L 287.247089 -235.318613 
L 288.562842 -226.559126 
L 289.878596 -245.644359 
L 291.194349 -248.370828 
L 292.510103 -240.16243 
L 296.457363 -234.419468 
L 297.773116 -230.474797 
L 299.08887 -235.695669 
L 300.404623 -263.42439 
L 301.720377 -266.817961 
L 305.667637 -272.531934 
L 306.98339 -275.577437 
L 308.299144 -294.169603 
L 309.614897 -296.054927 
L 310.930651 -297.795218 
L 314.877911 -301.420834 
L 316.193664 -300.173621 
L 317.509418 -309.484198 
L 318.825171 -318.939809 
L 320.140925 -311.83359 
L 324.088185 -316.996485 
L 325.403938 -314.676082 
L 326.719692 -315.749272 
L 328.035445 -312.761769 
L 329.351199 -314.937138 
L 334.614212 -316.474395 
L 335.929966 -320.012999 
L 337.245719 -320.245022 
L 338.561473 -331.208879 
L 342.508733 -335.791662 
L 343.824486 -340.1424 
L 345.14024 -316.184328 
L 346.455993 -323.232525 
L 347.771747 -322.101335 
L 351.719007 -328.105353 
L 353.03476 -328.250386 
L 354.350514 -323.986659 
L 355.666267 -329.52661 
L 356.982021 -322.449402 
L 362.245034 -325.146861 
L 363.560788 -311.398534 
L 364.876541 -318.823787 
L 366.192295 -316.416373 
L 370.139555 -315.459205 
L 371.455308 -322.27538 
L 372.771062 -329.410588 
L 374.086815 -324.479738 
L 375.402568 -330.077689 
L 379.349829 -329.816655 
L 381.981336 -329.787644 
L 383.297089 -326.307062 
L 384.612842 -329.03351 
L 388.560103 -338.982199 
L 389.875856 -349.220955 
L 391.19161 -350.569673 
L 392.507363 -361.432024 
L 393.823116 -359.517689 
L 397.770377 -371.81577 
L 399.08613 -374.861295 
L 400.401884 -378.921989 
L 401.717637 -363.491371 
L 403.03339 -363.40436 
L 406.980651 -368.103143 
L 408.296404 -379.154034 
L 409.612158 -365.637729 
L 410.927911 -362.215148 
L 412.243664 -370.133501 
L 416.190925 -383.272727 
L 417.506678 -378.138844 
L 418.822432 -354.586861 
L 420.138185 -355.369984 
L 421.453938 -356.617197 
L 425.401199 -353.049604 
L 426.716952 -300.08661 
L 428.032705 -296.373983 
L 429.348459 -307.85993 
L 430.664212 -304.147303 
L 434.611473 -305.13346 
L 435.927226 -301.478834 
L 437.242979 -307.511863 
L 438.558733 -306.612717 
L 439.874486 -316.300351 
L 443.821747 -319.374887 
L 445.1375 -316.474395 
L 446.453253 -321.550257 
L 447.769007 -311.137478 
L 449.08476 -313.312847 
L 453.032021 -313.138825 
L 454.347774 -316.82244 
L 455.663527 -317.83763 
L 456.979281 -324.566771 
L 458.295034 -328.192386 
L 463.558048 -328.97551 
L 464.873801 -327.989353 
L 466.189555 -325.146861 
L 467.505308 -327.989353 
L 471.452568 -340.229411 
L 472.768322 -329.613621 
L 474.084075 -327.467263 
L 475.399829 -327.554275 
L 476.715582 -318.96882 
L 480.662842 -318.823787 
L 481.978596 -314.153993 
L 483.294349 -311.71759 
L 484.610103 -301.188789 
L 485.925856 -302.174968 
L 489.873116 -302.40699 
L 491.18887 -295.822883 
L 492.504623 -299.477509 
L 493.820377 -302.755057 
L 495.13613 -308.933098 
L 499.08339 -311.108467 
L 500.399144 -296.983084 
L 501.714897 -301.507845 
L 503.030651 -304.437348 
L 504.346404 -318.620753 
L 508.293664 -307.888941 
L 509.609418 -310.499366 
L 510.925171 -304.147303 
L 512.240925 -299.912587 
L 513.556678 -300.14461 
L 517.503938 -307.279818 
L 518.819692 -306.960784 
L 520.135445 -300.811733 
L 521.451199 -299.245464 
L 522.766952 -294.401648 
L 526.714212 -293.241446 
L 528.029966 -299.56452 
L 529.345719 -281.378422 
L 530.661473 -278.855008 
L 531.977226 -281.639478 
L 535.924486 -277.955862 
L 537.24024 -281.030377 
L 538.555993 -277.056694 
L 539.871747 -274.562269 
L 541.1875 -275.917671 
L 541.1875 -44.727273 
L 541.1875 -44.727273 
L 539.871747 -44.727273 
L 538.555993 -44.727273 
L 537.24024 -44.727273 
L 535.924486 -44.727273 
L 531.977226 -44.727273 
L 530.661473 -44.727273 
L 529.345719 -44.727273 
L 528.029966 -44.727273 
L 526.714212 -44.727273 
L 522.766952 -44.727273 
L 521.451199 -44.727273 
L 520.135445 -44.727273 
L 518.819692 -44.727273 
L 517.503938 -44.727273 
L 513.556678 -44.727273 
L 512.240925 -44.727273 
L 510.925171 -44.727273 
L 509.609418 -44.727273 
L 508.293664 -44.727273 
L 504.346404 -44.727273 
L 503.030651 -44.727273 
L 501.714897 -44.727273 
L 500.399144 -44.727273 
L 499.08339 -44.727273 
L 495.13613 -44.727273 
L 493.820377 -44.727273 
L 492.504623 -44.727273 
L 491.18887 -44.727273 
L 489.873116 -44.727273 
L 485.925856 -44.727273 
L 484.610103 -44.727273 
L 483.294349 -44.727273 
L 481.978596 -44.727273 
L 480.662842 -44.727273 
L 476.715582 -44.727273 
L 475.399829 -44.727273 
L 474.084075 -44.727273 
L 472.768322 -44.727273 
L 471.452568 -44.727273 
L 467.505308 -44.727273 
L 466.189555 -44.727273 
L 464.873801 -44.727273 
L 463.558048 -44.727273 
L 458.295034 -44.727273 
L 456.979281 -44.727273 
L 455.663527 -44.727273 
L 454.347774 -44.727273 
L 453.032021 -44.727273 
L 449.08476 -44.727273 
L 447.769007 -44.727273 
L 446.453253 -44.727273 
L 445.1375 -44.727273 
L 443.821747 -44.727273 
L 439.874486 -44.727273 
L 438.558733 -44.727273 
L 437.242979 -44.727273 
L 435.927226 -44.727273 
L 434.611473 -44.727273 
L 430.664212 -44.727273 
L 429.348459 -44.727273 
L 428.032705 -44.727273 
L 426.716952 -44.727273 
L 425.401199 -44.727273 
L 421.453938 -44.727273 
L 420.138185 -44.727273 
L 418.822432 -44.727273 
L 417.506678 -44.727273 
L 416.190925 -44.727273 
L 412.243664 -44.727273 
L 410.927911 -44.727273 
L 409.612158 -44.727273 
L 408.296404 -44.727273 
L 406.980651 -44.727273 
L 403.03339 -44.727273 
L 401.717637 -44.727273 
L 400.401884 -44.727273 
L 399.08613 -44.727273 
L 397.770377 -44.727273 
L 393.823116 -44.727273 
L 392.507363 -44.727273 
L 391.19161 -44.727273 
L 389.875856 -44.727273 
L 388.560103 -44.727273 
L 384.612842 -44.727273 
L 383.297089 -44.727273 
L 381.981336 -44.727273 
L 379.349829 -44.727273 
L 375.402568 -44.727273 
L 374.086815 -44.727273 
L 372.771062 -44.727273 
L 371.455308 -44.727273 
L 370.139555 -44.727273 
L 366.192295 -44.727273 
L 364.876541 -44.727273 
L 363.560788 -44.727273 
L 362.245034 -44.727273 
L 356.982021 -44.727273 
L 355.666267 -44.727273 
L 354.350514 -44.727273 
L 353.03476 -44.727273 
L 351.719007 -44.727273 
L 347.771747 -44.727273 
L 346.455993 -44.727273 
L 345.14024 -44.727273 
L 343.824486 -44.727273 
L 342.508733 -44.727273 
L 338.561473 -44.727273 
L 337.245719 -44.727273 
L 335.929966 -44.727273 
L 334.614212 -44.727273 
L 329.351199 -44.727273 
L 328.035445 -44.727273 
L 326.719692 -44.727273 
L 325.403938 -44.727273 
L 324.088185 -44.727273 
L 320.140925 -44.727273 
L 318.825171 -44.727273 
L 317.509418 -44.727273 
L 316.193664 -44.727273 
L 314.877911 -44.727273 
L 310.930651 -44.727273 
L 309.614897 -44.727273 
L 308.299144 -44.727273 
L 306.98339 -44.727273 
L 305.667637 -44.727273 
L 301.720377 -44.727273 
L 300.404623 -44.727273 
L 299.08887 -44.727273 
L 297.773116 -44.727273 
L 296.457363 -44.727273 
L 292.510103 -44.727273 
L 291.194349 -44.727273 
L 289.878596 -44.727273 
L 288.562842 -44.727273 
L 287.247089 -44.727273 
L 283.299829 -44.727273 
L 281.984075 -44.727273 
L 280.668322 -44.727273 
L 279.352568 -44.727273 
L 278.036815 -44.727273 
L 274.089555 -44.727273 
L 272.773801 -44.727273 
L 271.458048 -44.727273 
L 270.142295 -44.727273 
L 268.826541 -44.727273 
L 263.563527 -44.727273 
L 262.247774 -44.727273 
L 260.932021 -44.727273 
L 259.616267 -44.727273 
L 255.669007 -44.727273 
L 254.353253 -44.727273 
L 253.0375 -44.727273 
L 251.721747 -44.727273 
L 250.405993 -44.727273 
L 246.458733 -44.727273 
L 245.142979 -44.727273 
L 243.827226 -44.727273 
L 242.511473 -44.727273 
L 241.195719 -44.727273 
L 237.248459 -44.727273 
L 235.932705 -44.727273 
L 234.616952 -44.727273 
L 233.301199 -44.727273 
L 231.985445 -44.727273 
L 228.038185 -44.727273 
L 226.722432 -44.727273 
L 225.406678 -44.727273 
L 224.090925 -44.727273 
L 222.775171 -44.727273 
L 218.827911 -44.727273 
L 217.512158 -44.727273 
L 216.196404 -44.727273 
L 214.880651 -44.727273 
L 213.564897 -44.727273 
L 209.617637 -44.727273 
L 208.301884 -44.727273 
L 206.98613 -44.727273 
L 205.670377 -44.727273 
L 200.407363 -44.727273 
L 199.09161 -44.727273 
L 197.775856 -44.727273 
L 196.460103 -44.727273 
L 195.144349 -44.727273 
L 191.197089 -44.727273 
L 189.881336 -44.727273 
L 188.565582 -44.727273 
L 187.249829 -44.727273 
L 185.934075 -44.727273 
L 181.986815 -44.727273 
L 180.671062 -44.727273 
L 179.355308 -44.727273 
L 178.039555 -44.727273 
L 176.723801 -44.727273 
L 172.776541 -44.727273 
L 171.460788 -44.727273 
L 170.145034 -44.727273 
L 168.829281 -44.727273 
L 167.513527 -44.727273 
L 163.566267 -44.727273 
L 162.250514 -44.727273 
L 160.93476 -44.727273 
L 159.619007 -44.727273 
L 154.355993 -44.727273 
L 153.04024 -44.727273 
L 151.724486 -44.727273 
L 150.408733 -44.727273 
L 149.092979 -44.727273 
L 145.145719 -44.727273 
L 143.829966 -44.727273 
L 142.514212 -44.727273 
L 141.198459 -44.727273 
L 135.935445 -44.727273 
L 134.619692 -44.727273 
L 133.303938 -44.727273 
L 131.988185 -44.727273 
L 126.725171 -44.727273 
L 125.409418 -44.727273 
L 124.093664 -44.727273 
L 122.777911 -44.727273 
L 121.462158 -44.727273 
L 117.514897 -44.727273 
L 116.199144 -44.727273 
L 114.88339 -44.727273 
L 113.567637 -44.727273 
L 112.251884 -44.727273 
L 108.304623 -44.727273 
L 106.98887 -44.727273 
L 105.673116 -44.727273 
L 104.357363 -44.727273 
L 103.04161 -44.727273 
L 99.094349 -44.727273 
L 97.778596 -44.727273 
L 96.462842 -44.727273 
L 95.147089 -44.727273 
L 93.831336 -44.727273 
L 89.884075 -44.727273 
L 87.252568 -44.727273 
L 85.936815 -44.727273 
L 84.621062 -44.727273 
L 80.673801 -44.727273 
L 79.358048 -44.727273 
L 78.042295 -44.727273 
L 76.726541 -44.727273 
L 75.410788 -44.727273 
L 71.463527 -44.727273 
L 70.147774 -44.727273 
L 68.832021 -44.727273 
L 67.516267 -44.727273 
L 66.200514 -44.727273 
L 62.253253 -44.727273 
L 60.9375 -44.727273 
z
" id="m1d3c064a12" style="stroke:#f5f6f8;"/>
    </defs>
    <g clip-path="url(#p9484b10c8c)">
     <use style="fill:#f5f6f8;stroke:#f5f6f8;" x="0" xlink:href="#m1d3c064a12" y="432"/>
    </g>
   </g>
   <g id="matplotlib.axis_1">
    <g id="xtick_1">
     <g id="line2d_1">
      <defs>
       <path d="M 0 0 
L 0 3.5 
" id="m6f139f3856" style="stroke:#000000;stroke-width:0.8;"/>
      </defs>
      <g>
       <use style="stroke:#000000;stroke-width:0.8;" x="58.305993" xlink:href="#m6f139f3856" y="404.2"/>
      </g>
     </g>
     <g id="text_1">
      <!-- 2022-11 -->
      <defs>
       <path d="M 19.1875 8.296875 
L 53.609375 8.296875 
L 53.609375 0 
L 7.328125 0 
L 7.328125 8.296875 
Q 12.9375 14.109375 22.625 23.890625 
Q 32.328125 33.6875 34.8125 36.53125 
Q 39.546875 41.84375 41.421875 45.53125 
Q 43.3125 49.21875 43.3125 52.78125 
Q 43.3125 58.59375 39.234375 62.25 
Q 35.15625 65.921875 28.609375 65.921875 
Q 23.96875 65.921875 18.8125 64.3125 
Q 13.671875 62.703125 7.8125 59.421875 
L 7.8125 69.390625 
Q 13.765625 71.78125 18.9375 73 
Q 24.125 74.21875 28.421875 74.21875 
Q 39.75 74.21875 46.484375 68.546875 
Q 53.21875 62.890625 53.21875 53.421875 
Q 53.21875 48.921875 51.53125 44.890625 
Q 49.859375 40.875 45.40625 35.40625 
Q 44.1875 33.984375 37.640625 27.21875 
Q 31.109375 20.453125 19.1875 8.296875 
z
" id="DejaVuSans-50"/>
       <path d="M 31.78125 66.40625 
Q 24.171875 66.40625 20.328125 58.90625 
Q 16.5 51.421875 16.5 36.375 
Q 16.5 21.390625 20.328125 13.890625 
Q 24.171875 6.390625 31.78125 6.390625 
Q 39.453125 6.390625 43.28125 13.890625 
Q 47.125 21.390625 47.125 36.375 
Q 47.125 51.421875 43.28125 58.90625 
Q 39.453125 66.40625 31.78125 66.40625 
z
M 31.78125 74.21875 
Q 44.046875 74.21875 50.515625 64.515625 
Q 56.984375 54.828125 56.984375 36.375 
Q 56.984375 17.96875 50.515625 8.265625 
Q 44.046875 -1.421875 31.78125 -1.421875 
Q 19.53125 -1.421875 13.0625 8.265625 
Q 6.59375 17.96875 6.59375 36.375 
Q 6.59375 54.828125 13.0625 64.515625 
Q 19.53125 74.21875 31.78125 74.21875 
z
" id="DejaVuSans-48"/>
       <path d="M 4.890625 31.390625 
L 31.203125 31.390625 
L 31.203125 23.390625 
L 4.890625 23.390625 
z
" id="DejaVuSans-45"/>
       <path d="M 12.40625 8.296875 
L 28.515625 8.296875 
L 28.515625 63.921875 
L 10.984375 60.40625 
L 10.984375 69.390625 
L 28.421875 72.90625 
L 38.28125 72.90625 
L 38.28125 8.296875 
L 54.390625 8.296875 
L 54.390625 0 
L 12.40625 0 
z
" id="DejaVuSans-49"/>
      </defs>
      <g transform="translate(37.414587 418.798437)scale(0.1 -0.1)">
       <use xlink:href="#DejaVuSans-50"/>
       <use x="63.623047" xlink:href="#DejaVuSans-48"/>
       <use x="127.246094" xlink:href="#DejaVuSans-50"/>
       <use x="190.869141" xlink:href="#DejaVuSans-50"/>
       <use x="254.492188" xlink:href="#DejaVuSans-45"/>
       <use x="290.576172" xlink:href="#DejaVuSans-49"/>
       <use x="354.199219" xlink:href="#DejaVuSans-49"/>
      </g>
     </g>
    </g>
    <g id="xtick_2">
     <g id="line2d_2">
      <g>
       <use style="stroke:#000000;stroke-width:0.8;" x="138.566952" xlink:href="#m6f139f3856" y="404.2"/>
      </g>
     </g>
     <g id="text_2">
      <!-- 2023-01 -->
      <defs>
       <path d="M 40.578125 39.3125 
Q 47.65625 37.796875 51.625 33 
Q 55.609375 28.21875 55.609375 21.1875 
Q 55.609375 10.40625 48.1875 4.484375 
Q 40.765625 -1.421875 27.09375 -1.421875 
Q 22.515625 -1.421875 17.65625 -0.515625 
Q 12.796875 0.390625 7.625 2.203125 
L 7.625 11.71875 
Q 11.71875 9.328125 16.59375 8.109375 
Q 21.484375 6.890625 26.8125 6.890625 
Q 36.078125 6.890625 40.9375 10.546875 
Q 45.796875 14.203125 45.796875 21.1875 
Q 45.796875 27.640625 41.28125 31.265625 
Q 36.765625 34.90625 28.71875 34.90625 
L 20.21875 34.90625 
L 20.21875 43.015625 
L 29.109375 43.015625 
Q 36.375 43.015625 40.234375 45.921875 
Q 44.09375 48.828125 44.09375 54.296875 
Q 44.09375 59.90625 40.109375 62.90625 
Q 36.140625 65.921875 28.71875 65.921875 
Q 24.65625 65.921875 20.015625 65.03125 
Q 15.375 64.15625 9.8125 62.3125 
L 9.8125 71.09375 
Q 15.4375 72.65625 20.34375 73.4375 
Q 25.25 74.21875 29.59375 74.21875 
Q 40.828125 74.21875 47.359375 69.109375 
Q 53.90625 64.015625 53.90625 55.328125 
Q 53.90625 49.265625 50.4375 45.09375 
Q 46.96875 40.921875 40.578125 39.3125 
z
" id="DejaVuSans-51"/>
      </defs>
      <g transform="translate(117.675546 418.798437)scale(0.1 -0.1)">
       <use xlink:href="#DejaVuSans-50"/>
       <use x="63.623047" xlink:href="#DejaVuSans-48"/>
       <use x="127.246094" xlink:href="#DejaVuSans-50"/>
       <use x="190.869141" xlink:href="#DejaVuSans-51"/>
       <use x="254.492188" xlink:href="#DejaVuSans-45"/>
       <use x="290.576172" xlink:href="#DejaVuSans-48"/>
       <use x="354.199219" xlink:href="#DejaVuSans-49"/>
      </g>
     </g>
    </g>
    <g id="xtick_3">
     <g id="line2d_3">
      <g>
       <use style="stroke:#000000;stroke-width:0.8;" x="216.196404" xlink:href="#m6f139f3856" y="404.2"/>
      </g>
     </g>
     <g id="text_3">
      <!-- 2023-03 -->
      <g transform="translate(195.304998 418.798437)scale(0.1 -0.1)">
       <use xlink:href="#DejaVuSans-50"/>
       <use x="63.623047" xlink:href="#DejaVuSans-48"/>
       <use x="127.246094" xlink:href="#DejaVuSans-50"/>
       <use x="190.869141" xlink:href="#DejaVuSans-51"/>
       <use x="254.492188" xlink:href="#DejaVuSans-45"/>
       <use x="290.576172" xlink:href="#DejaVuSans-48"/>
       <use x="354.199219" xlink:href="#DejaVuSans-51"/>
      </g>
     </g>
    </g>
    <g id="xtick_4">
     <g id="line2d_4">
      <g>
       <use style="stroke:#000000;stroke-width:0.8;" x="296.457363" xlink:href="#m6f139f3856" y="404.2"/>
      </g>
     </g>
     <g id="text_4">
      <!-- 2023-05 -->
      <defs>
       <path d="M 10.796875 72.90625 
L 49.515625 72.90625 
L 49.515625 64.59375 
L 19.828125 64.59375 
L 19.828125 46.734375 
Q 21.96875 47.46875 24.109375 47.828125 
Q 26.265625 48.1875 28.421875 48.1875 
Q 40.625 48.1875 47.75 41.5 
Q 54.890625 34.8125 54.890625 23.390625 
Q 54.890625 11.625 47.5625 5.09375 
Q 40.234375 -1.421875 26.90625 -1.421875 
Q 22.3125 -1.421875 17.546875 -0.640625 
Q 12.796875 0.140625 7.71875 1.703125 
L 7.71875 11.625 
Q 12.109375 9.234375 16.796875 8.0625 
Q 21.484375 6.890625 26.703125 6.890625 
Q 35.15625 6.890625 40.078125 11.328125 
Q 45.015625 15.765625 45.015625 23.390625 
Q 45.015625 31 40.078125 35.4375 
Q 35.15625 39.890625 26.703125 39.890625 
Q 22.75 39.890625 18.8125 39.015625 
Q 14.890625 38.140625 10.796875 36.28125 
z
" id="DejaVuSans-53"/>
      </defs>
      <g transform="translate(275.565957 418.798437)scale(0.1 -0.1)">
       <use xlink:href="#DejaVuSans-50"/>
       <use x="63.623047" xlink:href="#DejaVuSans-48"/>
       <use x="127.246094" xlink:href="#DejaVuSans-50"/>
       <use x="190.869141" xlink:href="#DejaVuSans-51"/>
       <use x="254.492188" xlink:href="#DejaVuSans-45"/>
       <use x="290.576172" xlink:href="#DejaVuSans-48"/>
       <use x="354.199219" xlink:href="#DejaVuSans-53"/>
      </g>
     </g>
    </g>
    <g id="xtick_5">
     <g id="line2d_5">
      <g>
       <use style="stroke:#000000;stroke-width:0.8;" x="376.718322" xlink:href="#m6f139f3856" y="404.2"/>
      </g>
     </g>
     <g id="text_5">
      <!-- 2023-07 -->
      <defs>
       <path d="M 8.203125 72.90625 
L 55.078125 72.90625 
L 55.078125 68.703125 
L 28.609375 0 
L 18.3125 0 
L 43.21875 64.59375 
L 8.203125 64.59375 
z
" id="DejaVuSans-55"/>
      </defs>
      <g transform="translate(355.826916 418.798437)scale(0.1 -0.1)">
       <use xlink:href="#DejaVuSans-50"/>
       <use x="63.623047" xlink:href="#DejaVuSans-48"/>
       <use x="127.246094" xlink:href="#DejaVuSans-50"/>
       <use x="190.869141" xlink:href="#DejaVuSans-51"/>
       <use x="254.492188" xlink:href="#DejaVuSans-45"/>
       <use x="290.576172" xlink:href="#DejaVuSans-48"/>
       <use x="354.199219" xlink:href="#DejaVuSans-55"/>
      </g>
     </g>
    </g>
    <g id="xtick_6">
     <g id="line2d_6">
      <g>
       <use style="stroke:#000000;stroke-width:0.8;" x="458.295034" xlink:href="#m6f139f3856" y="404.2"/>
      </g>
     </g>
     <g id="text_6">
      <!-- 2023-09 -->
      <defs>
       <path d="M 10.984375 1.515625 
L 10.984375 10.5 
Q 14.703125 8.734375 18.5 7.8125 
Q 22.3125 6.890625 25.984375 6.890625 
Q 35.75 6.890625 40.890625 13.453125 
Q 46.046875 20.015625 46.78125 33.40625 
Q 43.953125 29.203125 39.59375 26.953125 
Q 35.25 24.703125 29.984375 24.703125 
Q 19.046875 24.703125 12.671875 31.3125 
Q 6.296875 37.9375 6.296875 49.421875 
Q 6.296875 60.640625 12.9375 67.421875 
Q 19.578125 74.21875 30.609375 74.21875 
Q 43.265625 74.21875 49.921875 64.515625 
Q 56.59375 54.828125 56.59375 36.375 
Q 56.59375 19.140625 48.40625 8.859375 
Q 40.234375 -1.421875 26.421875 -1.421875 
Q 22.703125 -1.421875 18.890625 -0.6875 
Q 15.09375 0.046875 10.984375 1.515625 
z
M 30.609375 32.421875 
Q 37.25 32.421875 41.125 36.953125 
Q 45.015625 41.5 45.015625 49.421875 
Q 45.015625 57.28125 41.125 61.84375 
Q 37.25 66.40625 30.609375 66.40625 
Q 23.96875 66.40625 20.09375 61.84375 
Q 16.21875 57.28125 16.21875 49.421875 
Q 16.21875 41.5 20.09375 36.953125 
Q 23.96875 32.421875 30.609375 32.421875 
z
" id="DejaVuSans-57"/>
      </defs>
      <g transform="translate(437.403628 418.798437)scale(0.1 -0.1)">
       <use xlink:href="#DejaVuSans-50"/>
       <use x="63.623047" xlink:href="#DejaVuSans-48"/>
       <use x="127.246094" xlink:href="#DejaVuSans-50"/>
       <use x="190.869141" xlink:href="#DejaVuSans-51"/>
       <use x="254.492188" xlink:href="#DejaVuSans-45"/>
       <use x="290.576172" xlink:href="#DejaVuSans-48"/>
       <use x="354.199219" xlink:href="#DejaVuSans-57"/>
      </g>
     </g>
    </g>
    <g id="xtick_7">
     <g id="line2d_7">
      <g>
       <use style="stroke:#000000;stroke-width:0.8;" x="538.555993" xlink:href="#m6f139f3856" y="404.2"/>
      </g>
     </g>
     <g id="text_7">
      <!-- 2023-11 -->
      <g transform="translate(517.664587 418.798437)scale(0.1 -0.1)">
       <use xlink:href="#DejaVuSans-50"/>
       <use x="63.623047" xlink:href="#DejaVuSans-48"/>
       <use x="127.246094" xlink:href="#DejaVuSans-50"/>
       <use x="190.869141" xlink:href="#DejaVuSans-51"/>
       <use x="254.492188" xlink:href="#DejaVuSans-45"/>
       <use x="290.576172" xlink:href="#DejaVuSans-49"/>
       <use x="354.199219" xlink:href="#DejaVuSans-49"/>
      </g>
     </g>
    </g>
   </g>
   <g id="matplotlib.axis_2">
    <g id="ytick_1">
     <g id="line2d_8">
      <defs>
       <path d="M 0 0 
L -3.5 0 
" id="m38412b418f" style="stroke:#000000;stroke-width:0.8;"/>
      </defs>
      <g>
       <use style="stroke:#000000;stroke-width:0.8;" x="36.925" xlink:href="#m38412b418f" y="387.272727"/>
      </g>
     </g>
     <g id="text_8">
      <!-- 0 -->
      <g transform="translate(23.5625 391.071946)scale(0.1 -0.1)">
       <use xlink:href="#DejaVuSans-48"/>
      </g>
     </g>
    </g>
    <g id="ytick_2">
     <g id="line2d_9">
      <g>
       <use style="stroke:#000000;stroke-width:0.8;" x="36.925" xlink:href="#m38412b418f" y="329.262883"/>
      </g>
     </g>
     <g id="text_9">
      <!-- 20 -->
      <g transform="translate(17.2 333.062102)scale(0.1 -0.1)">
       <use xlink:href="#DejaVuSans-50"/>
       <use x="63.623047" xlink:href="#DejaVuSans-48"/>
      </g>
     </g>
    </g>
    <g id="ytick_3">
     <g id="line2d_10">
      <g>
       <use style="stroke:#000000;stroke-width:0.8;" x="36.925" xlink:href="#m38412b418f" y="271.253039"/>
      </g>
     </g>
     <g id="text_10">
      <!-- 40 -->
      <defs>
       <path d="M 37.796875 64.3125 
L 12.890625 25.390625 
L 37.796875 25.390625 
z
M 35.203125 72.90625 
L 47.609375 72.90625 
L 47.609375 25.390625 
L 58.015625 25.390625 
L 58.015625 17.1875 
L 47.609375 17.1875 
L 47.609375 0 
L 37.796875 0 
L 37.796875 17.1875 
L 4.890625 17.1875 
L 4.890625 26.703125 
z
" id="DejaVuSans-52"/>
      </defs>
      <g transform="translate(17.2 275.052258)scale(0.1 -0.1)">
       <use xlink:href="#DejaVuSans-52"/>
       <use x="63.623047" xlink:href="#DejaVuSans-48"/>
      </g>
     </g>
    </g>
    <g id="ytick_4">
     <g id="line2d_11">
      <g>
       <use style="stroke:#000000;stroke-width:0.8;" x="36.925" xlink:href="#m38412b418f" y="213.243195"/>
      </g>
     </g>
     <g id="text_11">
      <!-- 60 -->
      <defs>
       <path d="M 33.015625 40.375 
Q 26.375 40.375 22.484375 35.828125 
Q 18.609375 31.296875 18.609375 23.390625 
Q 18.609375 15.53125 22.484375 10.953125 
Q 26.375 6.390625 33.015625 6.390625 
Q 39.65625 6.390625 43.53125 10.953125 
Q 47.40625 15.53125 47.40625 23.390625 
Q 47.40625 31.296875 43.53125 35.828125 
Q 39.65625 40.375 33.015625 40.375 
z
M 52.59375 71.296875 
L 52.59375 62.3125 
Q 48.875 64.0625 45.09375 64.984375 
Q 41.3125 65.921875 37.59375 65.921875 
Q 27.828125 65.921875 22.671875 59.328125 
Q 17.53125 52.734375 16.796875 39.40625 
Q 19.671875 43.65625 24.015625 45.921875 
Q 28.375 48.1875 33.59375 48.1875 
Q 44.578125 48.1875 50.953125 41.515625 
Q 57.328125 34.859375 57.328125 23.390625 
Q 57.328125 12.15625 50.6875 5.359375 
Q 44.046875 -1.421875 33.015625 -1.421875 
Q 20.359375 -1.421875 13.671875 8.265625 
Q 6.984375 17.96875 6.984375 36.375 
Q 6.984375 53.65625 15.1875 63.9375 
Q 23.390625 74.21875 37.203125 74.21875 
Q 40.921875 74.21875 44.703125 73.484375 
Q 48.484375 72.75 52.59375 71.296875 
z
" id="DejaVuSans-54"/>
      </defs>
      <g transform="translate(17.2 217.042413)scale(0.1 -0.1)">
       <use xlink:href="#DejaVuSans-54"/>
       <use x="63.623047" xlink:href="#DejaVuSans-48"/>
      </g>
     </g>
    </g>
    <g id="ytick_5">
     <g id="line2d_12">
      <g>
       <use style="stroke:#000000;stroke-width:0.8;" x="36.925" xlink:href="#m38412b418f" y="155.23335"/>
      </g>
     </g>
     <g id="text_12">
      <!-- 80 -->
      <defs>
       <path d="M 31.78125 34.625 
Q 24.75 34.625 20.71875 30.859375 
Q 16.703125 27.09375 16.703125 20.515625 
Q 16.703125 13.921875 20.71875 10.15625 
Q 24.75 6.390625 31.78125 6.390625 
Q 38.8125 6.390625 42.859375 10.171875 
Q 46.921875 13.96875 46.921875 20.515625 
Q 46.921875 27.09375 42.890625 30.859375 
Q 38.875 34.625 31.78125 34.625 
z
M 21.921875 38.8125 
Q 15.578125 40.375 12.03125 44.71875 
Q 8.5 49.078125 8.5 55.328125 
Q 8.5 64.0625 14.71875 69.140625 
Q 20.953125 74.21875 31.78125 74.21875 
Q 42.671875 74.21875 48.875 69.140625 
Q 55.078125 64.0625 55.078125 55.328125 
Q 55.078125 49.078125 51.53125 44.71875 
Q 48 40.375 41.703125 38.8125 
Q 48.828125 37.15625 52.796875 32.3125 
Q 56.78125 27.484375 56.78125 20.515625 
Q 56.78125 9.90625 50.3125 4.234375 
Q 43.84375 -1.421875 31.78125 -1.421875 
Q 19.734375 -1.421875 13.25 4.234375 
Q 6.78125 9.90625 6.78125 20.515625 
Q 6.78125 27.484375 10.78125 32.3125 
Q 14.796875 37.15625 21.921875 38.8125 
z
M 18.3125 54.390625 
Q 18.3125 48.734375 21.84375 45.5625 
Q 25.390625 42.390625 31.78125 42.390625 
Q 38.140625 42.390625 41.71875 45.5625 
Q 45.3125 48.734375 45.3125 54.390625 
Q 45.3125 60.0625 41.71875 63.234375 
Q 38.140625 66.40625 31.78125 66.40625 
Q 25.390625 66.40625 21.84375 63.234375 
Q 18.3125 60.0625 18.3125 54.390625 
z
" id="DejaVuSans-56"/>
      </defs>
      <g transform="translate(17.2 159.032569)scale(0.1 -0.1)">
       <use xlink:href="#DejaVuSans-56"/>
       <use x="63.623047" xlink:href="#DejaVuSans-48"/>
      </g>
     </g>
    </g>
    <g id="ytick_6">
     <g id="line2d_13">
      <g>
       <use style="stroke:#000000;stroke-width:0.8;" x="36.925" xlink:href="#m38412b418f" y="97.223506"/>
      </g>
     </g>
     <g id="text_13">
      <!-- 100 -->
      <g transform="translate(10.8375 101.022725)scale(0.1 -0.1)">
       <use xlink:href="#DejaVuSans-49"/>
       <use x="63.623047" xlink:href="#DejaVuSans-48"/>
       <use x="127.246094" xlink:href="#DejaVuSans-48"/>
      </g>
     </g>
    </g>
    <g id="ytick_7">
     <g id="line2d_14">
      <g>
       <use style="stroke:#000000;stroke-width:0.8;" x="36.925" xlink:href="#m38412b418f" y="39.213662"/>
      </g>
     </g>
     <g id="text_14">
      <!-- 120 -->
      <g transform="translate(10.8375 43.012881)scale(0.1 -0.1)">
       <use xlink:href="#DejaVuSans-49"/>
       <use x="63.623047" xlink:href="#DejaVuSans-50"/>
       <use x="127.246094" xlink:href="#DejaVuSans-48"/>
      </g>
     </g>
    </g>
   </g>
   <g id="patch_3">
    <path d="M 36.925 404.2 
L 36.925 31.8 
" style="fill:none;stroke:#000000;stroke-linecap:square;stroke-linejoin:miter;stroke-width:0.8;"/>
   </g>
   <g id="patch_4">
    <path d="M 565.2 404.2 
L 565.2 31.8 
" style="fill:none;stroke:#000000;stroke-linecap:square;stroke-linejoin:miter;stroke-width:0.8;"/>
   </g>
   <g id="patch_5">
    <path d="M 36.925 404.2 
L 565.2 404.2 
" style="fill:none;stroke:#000000;stroke-linecap:square;stroke-linejoin:miter;stroke-width:0.8;"/>
   </g>
   <g id="patch_6">
    <path d="M 36.925 31.8 
L 565.2 31.8 
" style="fill:none;stroke:#000000;stroke-linecap:square;stroke-linejoin:miter;stroke-width:0.8;"/>
   </g>
   <g id="text_15">
    <!-- DDOG - 6% -->
    <defs>
     <path d="M 27.984375 58.6875 
L 27.984375 14.203125 
L 34.71875 14.203125 
Q 46.234375 14.203125 52.3125 19.921875 
Q 58.40625 25.640625 58.40625 36.53125 
Q 58.40625 47.359375 52.34375 53.015625 
Q 46.296875 58.6875 34.71875 58.6875 
z
M 9.1875 72.90625 
L 29 72.90625 
Q 45.609375 72.90625 53.734375 70.53125 
Q 61.859375 68.171875 67.671875 62.5 
Q 72.796875 57.5625 75.28125 51.109375 
Q 77.78125 44.671875 77.78125 36.53125 
Q 77.78125 28.265625 75.28125 21.796875 
Q 72.796875 15.328125 67.671875 10.40625 
Q 61.8125 4.734375 53.609375 2.359375 
Q 45.40625 0 29 0 
L 9.1875 0 
z
" id="DejaVuSans-Bold-68"/>
     <path d="M 42.484375 60.59375 
Q 33.890625 60.59375 29.15625 54.25 
Q 24.421875 47.90625 24.421875 36.375 
Q 24.421875 24.90625 29.15625 18.546875 
Q 33.890625 12.203125 42.484375 12.203125 
Q 51.125 12.203125 55.859375 18.546875 
Q 60.59375 24.90625 60.59375 36.375 
Q 60.59375 47.90625 55.859375 54.25 
Q 51.125 60.59375 42.484375 60.59375 
z
M 42.484375 74.21875 
Q 60.0625 74.21875 70.015625 64.15625 
Q 79.984375 54.109375 79.984375 36.375 
Q 79.984375 18.703125 70.015625 8.640625 
Q 60.0625 -1.421875 42.484375 -1.421875 
Q 24.953125 -1.421875 14.96875 8.640625 
Q 4.984375 18.703125 4.984375 36.375 
Q 4.984375 54.109375 14.96875 64.15625 
Q 24.953125 74.21875 42.484375 74.21875 
z
" id="DejaVuSans-Bold-79"/>
     <path d="M 74.703125 5.421875 
Q 67.671875 2 60.109375 0.28125 
Q 52.546875 -1.421875 44.484375 -1.421875 
Q 26.265625 -1.421875 15.625 8.765625 
Q 4.984375 18.953125 4.984375 36.375 
Q 4.984375 54 15.8125 64.109375 
Q 26.65625 74.21875 45.515625 74.21875 
Q 52.78125 74.21875 59.4375 72.84375 
Q 66.109375 71.484375 72.015625 68.796875 
L 72.015625 53.71875 
Q 65.921875 57.171875 59.890625 58.875 
Q 53.859375 60.59375 47.796875 60.59375 
Q 36.578125 60.59375 30.5 54.3125 
Q 24.421875 48.046875 24.421875 36.375 
Q 24.421875 24.8125 30.28125 18.5 
Q 36.140625 12.203125 46.921875 12.203125 
Q 49.859375 12.203125 52.375 12.5625 
Q 54.890625 12.9375 56.890625 13.71875 
L 56.890625 27.875 
L 45.40625 27.875 
L 45.40625 40.484375 
L 74.703125 40.484375 
z
" id="DejaVuSans-Bold-71"/>
     <path id="DejaVuSans-Bold-32"/>
     <path d="M 5.421875 35.890625 
L 36.078125 35.890625 
L 36.078125 21.6875 
L 5.421875 21.6875 
z
" id="DejaVuSans-Bold-45"/>
     <path d="M 36.1875 35.984375 
Q 31.25 35.984375 28.78125 32.78125 
Q 26.3125 29.59375 26.3125 23.1875 
Q 26.3125 16.796875 28.78125 13.59375 
Q 31.25 10.40625 36.1875 10.40625 
Q 41.15625 10.40625 43.625 13.59375 
Q 46.09375 16.796875 46.09375 23.1875 
Q 46.09375 29.59375 43.625 32.78125 
Q 41.15625 35.984375 36.1875 35.984375 
z
M 59.421875 71 
L 59.421875 57.515625 
Q 54.78125 59.71875 50.671875 60.765625 
Q 46.578125 61.8125 42.671875 61.8125 
Q 34.28125 61.8125 29.59375 57.140625 
Q 24.90625 52.484375 24.125 43.3125 
Q 27.34375 45.703125 31.09375 46.890625 
Q 34.859375 48.09375 39.3125 48.09375 
Q 50.484375 48.09375 57.34375 41.546875 
Q 64.203125 35.015625 64.203125 24.421875 
Q 64.203125 12.703125 56.53125 5.640625 
Q 48.875 -1.421875 35.984375 -1.421875 
Q 21.78125 -1.421875 13.984375 8.171875 
Q 6.203125 17.78125 6.203125 35.40625 
Q 6.203125 53.46875 15.3125 63.796875 
Q 24.421875 74.125 40.28125 74.125 
Q 45.3125 74.125 50.046875 73.34375 
Q 54.78125 72.5625 59.421875 71 
z
" id="DejaVuSans-Bold-54"/>
     <path d="M 77.484375 30.078125 
Q 74.03125 30.078125 72.125 27.078125 
Q 70.21875 24.078125 70.21875 18.5 
Q 70.21875 12.890625 72.09375 9.890625 
Q 73.96875 6.890625 77.484375 6.890625 
Q 81 6.890625 82.859375 9.890625 
Q 84.71875 12.890625 84.71875 18.5 
Q 84.71875 24.078125 82.828125 27.078125 
Q 80.953125 30.078125 77.484375 30.078125 
z
M 77.484375 38.28125 
Q 86.578125 38.28125 91.796875 33 
Q 97.015625 27.734375 97.015625 18.5 
Q 97.015625 9.28125 91.796875 3.921875 
Q 86.578125 -1.421875 77.484375 -1.421875 
Q 68.40625 -1.421875 63.15625 3.921875 
Q 57.90625 9.28125 57.90625 18.5 
Q 57.90625 27.6875 63.15625 32.984375 
Q 68.40625 38.28125 77.484375 38.28125 
z
M 32.71875 -1.421875 
L 21.921875 -1.421875 
L 67.484375 74.21875 
L 78.328125 74.21875 
z
M 22.703125 74.21875 
Q 31.78125 74.21875 36.984375 68.921875 
Q 42.1875 63.625 42.1875 54.390625 
Q 42.1875 45.171875 36.984375 39.84375 
Q 31.78125 34.515625 22.703125 34.515625 
Q 13.625 34.515625 8.421875 39.84375 
Q 3.21875 45.171875 3.21875 54.390625 
Q 3.21875 63.625 8.421875 68.921875 
Q 13.625 74.21875 22.703125 74.21875 
z
M 22.703125 66.015625 
Q 19.1875 66.015625 17.28125 62.984375 
Q 15.375 59.96875 15.375 54.390625 
Q 15.375 48.78125 17.28125 45.71875 
Q 19.1875 42.671875 22.703125 42.671875 
Q 26.21875 42.671875 28.09375 45.71875 
Q 29.984375 48.78125 29.984375 54.390625 
Q 29.984375 59.96875 28.078125 62.984375 
Q 26.171875 66.015625 22.703125 66.015625 
z
" id="DejaVuSans-Bold-37"/>
    </defs>
    <g transform="translate(36.925 25.8)scale(0.2 -0.2)">
     <use xlink:href="#DejaVuSans-Bold-68"/>
     <use x="83.007812" xlink:href="#DejaVuSans-Bold-68"/>
     <use x="166.015625" xlink:href="#DejaVuSans-Bold-79"/>
     <use x="251.025391" xlink:href="#DejaVuSans-Bold-71"/>
     <use x="333.105469" xlink:href="#DejaVuSans-Bold-32"/>
     <use x="367.919922" xlink:href="#DejaVuSans-Bold-45"/>
     <use x="409.423828" xlink:href="#DejaVuSans-Bold-32"/>
     <use x="444.238281" xlink:href="#DejaVuSans-Bold-54"/>
     <use x="513.818359" xlink:href="#DejaVuSans-Bold-37"/>
    </g>
   </g>
  </g>
 </g>
 <defs>
  <clipPath id="p9484b10c8c">
   <rect height="372.4" width="528.275" x="36.925" y="31.8"/>
  </clipPath>
 </defs>
</svg>
