<?xml version="1.0" encoding="utf-8" standalone="no"?>
<!DOCTYPE svg PUBLIC "-//W3C//DTD SVG 1.1//EN"
  "http://www.w3.org/Graphics/SVG/1.1/DTD/svg11.dtd">
<!-- Created with matplotlib (https://matplotlib.org/) -->
<svg height="432pt" version="1.1" viewBox="0 0 864 432" width="864pt" xmlns="http://www.w3.org/2000/svg" xmlns:xlink="http://www.w3.org/1999/xlink">
 <defs>
  <style type="text/css">
*{stroke-linecap:butt;stroke-linejoin:round;}
  </style>
 </defs>
 <g id="figure_1">
  <g id="patch_1">
   <path d="M 0 432 
L 864 432 
L 864 0 
L 0 0 
z
" style="fill:none;"/>
  </g>
  <g id="axes_1">
   <g id="patch_2">
    <path d="M 75.175 361.2 
L 840.323864 361.2 
L 840.323864 88.8 
L 75.175 88.8 
z
" style="fill:none;"/>
   </g>
   <g id="PolyCollection_1">
    <path clip-path="url(#pb01f5d38a0)" d="M 109.954494 1200.532653 
L 109.954494 305.263422 
L 113.734874 285.913657 
L 117.515253 242.230062 
L 121.295633 254.73901 
L 132.636772 255.325353 
L 136.417152 272.0365 
L 140.197532 274.96829 
L 143.977912 225.714288 
L 147.758291 152.712874 
L 162.87981 145.28564 
L 166.66019 171.964915 
L 170.44057 127.010986 
L 174.22095 141.278888 
L 185.562089 162.876376 
L 189.342469 151.637912 
L 193.122849 134.438146 
L 196.903228 131.994976 
L 200.683608 134.53587 
L 212.024747 107.563422 
L 215.805127 88.8 
L 219.585507 93.979437 
L 223.365887 129.16091 
L 227.146266 159.65149 
L 242.267785 151.637912 
L 246.048165 177.926218 
L 249.828545 170.205887 
L 253.608925 188.676137 
L 264.950064 178.024017 
L 268.730444 134.438146 
L 272.510824 145.18799 
L 276.291203 135.610832 
L 280.071583 117.531551 
L 291.412722 125.251882 
L 298.973482 152.028807 
L 302.753862 161.508242 
L 306.534241 166.199135 
L 317.875381 150.465226 
L 321.65576 155.449216 
L 325.43614 150.17198 
L 329.21652 101.60212 
L 332.9969 148.608399 
L 344.338039 108.54066 
L 348.118419 119.876923 
L 351.898799 140.790269 
L 355.679178 188.871585 
L 359.459558 179.294352 
L 370.800697 175.776219 
L 374.581077 170.596782 
L 378.361457 180.467112 
L 382.141837 157.696939 
L 385.922216 140.106202 
L 397.263356 128.379119 
L 401.043735 147.257449 
L 404.824115 187.655118 
L 408.604495 195.578219 
L 412.384875 212.304682 
L 423.726014 193.132882 
L 427.506394 206.826993 
L 431.286773 223.064314 
L 435.067153 223.162187 
L 438.847533 259.353771 
L 450.188672 236.856298 
L 453.969052 262.777318 
L 457.749432 276.6671 
L 461.529812 280.970983 
L 465.310191 273.732621 
L 476.651331 242.52951 
L 480.43171 249.670073 
L 484.21209 231.476407 
L 487.99247 269.526612 
L 491.77285 256.810561 
L 503.113989 250.15914 
L 506.894369 218.662633 
L 510.674748 216.706288 
L 514.455128 209.957069 
L 518.235508 198.02363 
L 533.357027 213.087219 
L 537.137407 225.509725 
L 540.917787 251.332947 
L 544.698166 260.234182 
L 556.039306 266.298663 
L 559.819685 278.91684 
L 563.600065 272.950084 
L 567.380445 275.297697 
L 571.160825 300.631851 
L 582.501964 292.806623 
L 586.282344 301.120993 
L 590.062723 313.15223 
L 593.843103 320.097046 
L 597.623483 310.022079 
L 608.964622 305.033532 
L 612.745002 331.737089 
L 616.525382 326.552945 
L 620.305762 303.175061 
L 624.086141 281.949118 
L 635.427281 287.035538 
L 639.20766 312.663162 
L 642.98804 271.482882 
L 646.76842 289.285278 
L 650.5488 273.341353 
L 661.889939 266.005192 
L 665.670319 250.843879 
L 669.450698 245.757459 
L 673.231078 242.138241 
L 677.011458 266.983327 
L 688.352597 247.322534 
L 692.132977 251.822014 
L 695.913357 270.602545 
L 699.693737 301.903456 
L 703.474116 313.347902 
L 714.815256 325.770407 
L 718.595635 308.554877 
L 722.376015 352.767435 
L 726.156395 344.355342 
L 729.936775 341.518661 
L 741.277914 343.279334 
L 745.058294 338.382982 
L 748.838673 330.744685 
L 752.619053 361.2 
L 756.399433 297.057759 
L 767.740572 309.200766 
L 771.520952 305.773259 
L 775.301332 299.799704 
L 779.081712 313.215735 
L 782.862091 265.133597 
L 794.203231 279.920527 
L 797.98361 215.77836 
L 801.76399 193.451007 
L 805.54437 191.982086 
L 805.54437 1200.532653 
L 805.54437 1200.532653 
L 801.76399 1200.532653 
L 797.98361 1200.532653 
L 794.203231 1200.532653 
L 782.862091 1200.532653 
L 779.081712 1200.532653 
L 775.301332 1200.532653 
L 771.520952 1200.532653 
L 767.740572 1200.532653 
L 756.399433 1200.532653 
L 752.619053 1200.532653 
L 748.838673 1200.532653 
L 745.058294 1200.532653 
L 741.277914 1200.532653 
L 729.936775 1200.532653 
L 726.156395 1200.532653 
L 722.376015 1200.532653 
L 718.595635 1200.532653 
L 714.815256 1200.532653 
L 703.474116 1200.532653 
L 699.693737 1200.532653 
L 695.913357 1200.532653 
L 692.132977 1200.532653 
L 688.352597 1200.532653 
L 677.011458 1200.532653 
L 673.231078 1200.532653 
L 669.450698 1200.532653 
L 665.670319 1200.532653 
L 661.889939 1200.532653 
L 650.5488 1200.532653 
L 646.76842 1200.532653 
L 642.98804 1200.532653 
L 639.20766 1200.532653 
L 635.427281 1200.532653 
L 624.086141 1200.532653 
L 620.305762 1200.532653 
L 616.525382 1200.532653 
L 612.745002 1200.532653 
L 608.964622 1200.532653 
L 597.623483 1200.532653 
L 593.843103 1200.532653 
L 590.062723 1200.532653 
L 586.282344 1200.532653 
L 582.501964 1200.532653 
L 571.160825 1200.532653 
L 567.380445 1200.532653 
L 563.600065 1200.532653 
L 559.819685 1200.532653 
L 556.039306 1200.532653 
L 544.698166 1200.532653 
L 540.917787 1200.532653 
L 537.137407 1200.532653 
L 533.357027 1200.532653 
L 518.235508 1200.532653 
L 514.455128 1200.532653 
L 510.674748 1200.532653 
L 506.894369 1200.532653 
L 503.113989 1200.532653 
L 491.77285 1200.532653 
L 487.99247 1200.532653 
L 484.21209 1200.532653 
L 480.43171 1200.532653 
L 476.651331 1200.532653 
L 465.310191 1200.532653 
L 461.529812 1200.532653 
L 457.749432 1200.532653 
L 453.969052 1200.532653 
L 450.188672 1200.532653 
L 438.847533 1200.532653 
L 435.067153 1200.532653 
L 431.286773 1200.532653 
L 427.506394 1200.532653 
L 423.726014 1200.532653 
L 412.384875 1200.532653 
L 408.604495 1200.532653 
L 404.824115 1200.532653 
L 401.043735 1200.532653 
L 397.263356 1200.532653 
L 385.922216 1200.532653 
L 382.141837 1200.532653 
L 378.361457 1200.532653 
L 374.581077 1200.532653 
L 370.800697 1200.532653 
L 359.459558 1200.532653 
L 355.679178 1200.532653 
L 351.898799 1200.532653 
L 348.118419 1200.532653 
L 344.338039 1200.532653 
L 332.9969 1200.532653 
L 329.21652 1200.532653 
L 325.43614 1200.532653 
L 321.65576 1200.532653 
L 317.875381 1200.532653 
L 306.534241 1200.532653 
L 302.753862 1200.532653 
L 298.973482 1200.532653 
L 291.412722 1200.532653 
L 280.071583 1200.532653 
L 276.291203 1200.532653 
L 272.510824 1200.532653 
L 268.730444 1200.532653 
L 264.950064 1200.532653 
L 253.608925 1200.532653 
L 249.828545 1200.532653 
L 246.048165 1200.532653 
L 242.267785 1200.532653 
L 227.146266 1200.532653 
L 223.365887 1200.532653 
L 219.585507 1200.532653 
L 215.805127 1200.532653 
L 212.024747 1200.532653 
L 200.683608 1200.532653 
L 196.903228 1200.532653 
L 193.122849 1200.532653 
L 189.342469 1200.532653 
L 185.562089 1200.532653 
L 174.22095 1200.532653 
L 170.44057 1200.532653 
L 166.66019 1200.532653 
L 162.87981 1200.532653 
L 147.758291 1200.532653 
L 143.977912 1200.532653 
L 140.197532 1200.532653 
L 136.417152 1200.532653 
L 132.636772 1200.532653 
L 121.295633 1200.532653 
L 117.515253 1200.532653 
L 113.734874 1200.532653 
L 109.954494 1200.532653 
z
" style="fill:#0000ff;fill-opacity:0.1;stroke:#0000ff;stroke-opacity:0.1;"/>
   </g>
   <g id="matplotlib.axis_1">
    <g id="xtick_1">
     <g id="line2d_1">
      <defs>
       <path d="M 0 0 
L 0 3.5 
" id="m835fa68977" style="stroke:#000000;stroke-width:0.8;"/>
      </defs>
      <g>
       <use style="stroke:#000000;stroke-width:0.8;" x="109.954494" xlink:href="#m835fa68977" y="361.2"/>
      </g>
     </g>
     <g id="text_1">
      <!-- 05/23 -->
      <defs>
       <path d="M 31.78125 66.40625 
Q 24.171875 66.40625 20.328125 58.90625 
Q 16.5 51.421875 16.5 36.375 
Q 16.5 21.390625 20.328125 13.890625 
Q 24.171875 6.390625 31.78125 6.390625 
Q 39.453125 6.390625 43.28125 13.890625 
Q 47.125 21.390625 47.125 36.375 
Q 47.125 51.421875 43.28125 58.90625 
Q 39.453125 66.40625 31.78125 66.40625 
z
M 31.78125 74.21875 
Q 44.046875 74.21875 50.515625 64.515625 
Q 56.984375 54.828125 56.984375 36.375 
Q 56.984375 17.96875 50.515625 8.265625 
Q 44.046875 -1.421875 31.78125 -1.421875 
Q 19.53125 -1.421875 13.0625 8.265625 
Q 6.59375 17.96875 6.59375 36.375 
Q 6.59375 54.828125 13.0625 64.515625 
Q 19.53125 74.21875 31.78125 74.21875 
z
" id="DejaVuSans-48"/>
       <path d="M 10.796875 72.90625 
L 49.515625 72.90625 
L 49.515625 64.59375 
L 19.828125 64.59375 
L 19.828125 46.734375 
Q 21.96875 47.46875 24.109375 47.828125 
Q 26.265625 48.1875 28.421875 48.1875 
Q 40.625 48.1875 47.75 41.5 
Q 54.890625 34.8125 54.890625 23.390625 
Q 54.890625 11.625 47.5625 5.09375 
Q 40.234375 -1.421875 26.90625 -1.421875 
Q 22.3125 -1.421875 17.546875 -0.640625 
Q 12.796875 0.140625 7.71875 1.703125 
L 7.71875 11.625 
Q 12.109375 9.234375 16.796875 8.0625 
Q 21.484375 6.890625 26.703125 6.890625 
Q 35.15625 6.890625 40.078125 11.328125 
Q 45.015625 15.765625 45.015625 23.390625 
Q 45.015625 31 40.078125 35.4375 
Q 35.15625 39.890625 26.703125 39.890625 
Q 22.75 39.890625 18.8125 39.015625 
Q 14.890625 38.140625 10.796875 36.28125 
z
" id="DejaVuSans-53"/>
       <path d="M 25.390625 72.90625 
L 33.6875 72.90625 
L 8.296875 -9.28125 
L 0 -9.28125 
z
" id="DejaVuSans-47"/>
       <path d="M 19.1875 8.296875 
L 53.609375 8.296875 
L 53.609375 0 
L 7.328125 0 
L 7.328125 8.296875 
Q 12.9375 14.109375 22.625 23.890625 
Q 32.328125 33.6875 34.8125 36.53125 
Q 39.546875 41.84375 41.421875 45.53125 
Q 43.3125 49.21875 43.3125 52.78125 
Q 43.3125 58.59375 39.234375 62.25 
Q 35.15625 65.921875 28.609375 65.921875 
Q 23.96875 65.921875 18.8125 64.3125 
Q 13.671875 62.703125 7.8125 59.421875 
L 7.8125 69.390625 
Q 13.765625 71.78125 18.9375 73 
Q 24.125 74.21875 28.421875 74.21875 
Q 39.75 74.21875 46.484375 68.546875 
Q 53.21875 62.890625 53.21875 53.421875 
Q 53.21875 48.921875 51.53125 44.890625 
Q 49.859375 40.875 45.40625 35.40625 
Q 44.1875 33.984375 37.640625 27.21875 
Q 31.109375 20.453125 19.1875 8.296875 
z
" id="DejaVuSans-50"/>
       <path d="M 40.578125 39.3125 
Q 47.65625 37.796875 51.625 33 
Q 55.609375 28.21875 55.609375 21.1875 
Q 55.609375 10.40625 48.1875 4.484375 
Q 40.765625 -1.421875 27.09375 -1.421875 
Q 22.515625 -1.421875 17.65625 -0.515625 
Q 12.796875 0.390625 7.625 2.203125 
L 7.625 11.71875 
Q 11.71875 9.328125 16.59375 8.109375 
Q 21.484375 6.890625 26.8125 6.890625 
Q 36.078125 6.890625 40.9375 10.546875 
Q 45.796875 14.203125 45.796875 21.1875 
Q 45.796875 27.640625 41.28125 31.265625 
Q 36.765625 34.90625 28.71875 34.90625 
L 20.21875 34.90625 
L 20.21875 43.015625 
L 29.109375 43.015625 
Q 36.375 43.015625 40.234375 45.921875 
Q 44.09375 48.828125 44.09375 54.296875 
Q 44.09375 59.90625 40.109375 62.90625 
Q 36.140625 65.921875 28.71875 65.921875 
Q 24.65625 65.921875 20.015625 65.03125 
Q 15.375 64.15625 9.8125 62.3125 
L 9.8125 71.09375 
Q 15.4375 72.65625 20.34375 73.4375 
Q 25.25 74.21875 29.59375 74.21875 
Q 40.828125 74.21875 47.359375 69.109375 
Q 53.90625 64.015625 53.90625 55.328125 
Q 53.90625 49.265625 50.4375 45.09375 
Q 46.96875 40.921875 40.578125 39.3125 
z
" id="DejaVuSans-51"/>
      </defs>
      <g transform="translate(66.726369 390.995313)scale(0.3 -0.3)">
       <use xlink:href="#DejaVuSans-48"/>
       <use x="63.623047" xlink:href="#DejaVuSans-53"/>
       <use x="127.246094" xlink:href="#DejaVuSans-47"/>
       <use x="160.9375" xlink:href="#DejaVuSans-50"/>
       <use x="224.560547" xlink:href="#DejaVuSans-51"/>
      </g>
     </g>
    </g>
    <g id="xtick_2">
     <g id="line2d_2">
      <g>
       <use style="stroke:#000000;stroke-width:0.8;" x="461.529812" xlink:href="#m835fa68977" y="361.2"/>
      </g>
     </g>
     <g id="text_2">
      <!-- 08/23 -->
      <defs>
       <path d="M 31.78125 34.625 
Q 24.75 34.625 20.71875 30.859375 
Q 16.703125 27.09375 16.703125 20.515625 
Q 16.703125 13.921875 20.71875 10.15625 
Q 24.75 6.390625 31.78125 6.390625 
Q 38.8125 6.390625 42.859375 10.171875 
Q 46.921875 13.96875 46.921875 20.515625 
Q 46.921875 27.09375 42.890625 30.859375 
Q 38.875 34.625 31.78125 34.625 
z
M 21.921875 38.8125 
Q 15.578125 40.375 12.03125 44.71875 
Q 8.5 49.078125 8.5 55.328125 
Q 8.5 64.0625 14.71875 69.140625 
Q 20.953125 74.21875 31.78125 74.21875 
Q 42.671875 74.21875 48.875 69.140625 
Q 55.078125 64.0625 55.078125 55.328125 
Q 55.078125 49.078125 51.53125 44.71875 
Q 48 40.375 41.703125 38.8125 
Q 48.828125 37.15625 52.796875 32.3125 
Q 56.78125 27.484375 56.78125 20.515625 
Q 56.78125 9.90625 50.3125 4.234375 
Q 43.84375 -1.421875 31.78125 -1.421875 
Q 19.734375 -1.421875 13.25 4.234375 
Q 6.78125 9.90625 6.78125 20.515625 
Q 6.78125 27.484375 10.78125 32.3125 
Q 14.796875 37.15625 21.921875 38.8125 
z
M 18.3125 54.390625 
Q 18.3125 48.734375 21.84375 45.5625 
Q 25.390625 42.390625 31.78125 42.390625 
Q 38.140625 42.390625 41.71875 45.5625 
Q 45.3125 48.734375 45.3125 54.390625 
Q 45.3125 60.0625 41.71875 63.234375 
Q 38.140625 66.40625 31.78125 66.40625 
Q 25.390625 66.40625 21.84375 63.234375 
Q 18.3125 60.0625 18.3125 54.390625 
z
" id="DejaVuSans-56"/>
      </defs>
      <g transform="translate(418.301687 390.995313)scale(0.3 -0.3)">
       <use xlink:href="#DejaVuSans-48"/>
       <use x="63.623047" xlink:href="#DejaVuSans-56"/>
       <use x="127.246094" xlink:href="#DejaVuSans-47"/>
       <use x="160.9375" xlink:href="#DejaVuSans-50"/>
       <use x="224.560547" xlink:href="#DejaVuSans-51"/>
      </g>
     </g>
    </g>
    <g id="xtick_3">
     <g id="line2d_3">
      <g>
       <use style="stroke:#000000;stroke-width:0.8;" x="805.54437" xlink:href="#m835fa68977" y="361.2"/>
      </g>
     </g>
     <g id="text_3">
      <!-- 11/23 -->
      <defs>
       <path d="M 12.40625 8.296875 
L 28.515625 8.296875 
L 28.515625 63.921875 
L 10.984375 60.40625 
L 10.984375 69.390625 
L 28.421875 72.90625 
L 38.28125 72.90625 
L 38.28125 8.296875 
L 54.390625 8.296875 
L 54.390625 0 
L 12.40625 0 
z
" id="DejaVuSans-49"/>
      </defs>
      <g transform="translate(762.316245 390.995313)scale(0.3 -0.3)">
       <use xlink:href="#DejaVuSans-49"/>
       <use x="63.623047" xlink:href="#DejaVuSans-49"/>
       <use x="127.246094" xlink:href="#DejaVuSans-47"/>
       <use x="160.9375" xlink:href="#DejaVuSans-50"/>
       <use x="224.560547" xlink:href="#DejaVuSans-51"/>
      </g>
     </g>
    </g>
    <g id="text_4">
     <!-- Over last 6 months -->
     <defs>
      <path d="M 39.40625 66.21875 
Q 28.65625 66.21875 22.328125 58.203125 
Q 16.015625 50.203125 16.015625 36.375 
Q 16.015625 22.609375 22.328125 14.59375 
Q 28.65625 6.59375 39.40625 6.59375 
Q 50.140625 6.59375 56.421875 14.59375 
Q 62.703125 22.609375 62.703125 36.375 
Q 62.703125 50.203125 56.421875 58.203125 
Q 50.140625 66.21875 39.40625 66.21875 
z
M 39.40625 74.21875 
Q 54.734375 74.21875 63.90625 63.9375 
Q 73.09375 53.65625 73.09375 36.375 
Q 73.09375 19.140625 63.90625 8.859375 
Q 54.734375 -1.421875 39.40625 -1.421875 
Q 24.03125 -1.421875 14.8125 8.828125 
Q 5.609375 19.09375 5.609375 36.375 
Q 5.609375 53.65625 14.8125 63.9375 
Q 24.03125 74.21875 39.40625 74.21875 
z
" id="DejaVuSans-79"/>
      <path d="M 2.984375 54.6875 
L 12.5 54.6875 
L 29.59375 8.796875 
L 46.6875 54.6875 
L 56.203125 54.6875 
L 35.6875 0 
L 23.484375 0 
z
" id="DejaVuSans-118"/>
      <path d="M 56.203125 29.59375 
L 56.203125 25.203125 
L 14.890625 25.203125 
Q 15.484375 15.921875 20.484375 11.0625 
Q 25.484375 6.203125 34.421875 6.203125 
Q 39.59375 6.203125 44.453125 7.46875 
Q 49.3125 8.734375 54.109375 11.28125 
L 54.109375 2.78125 
Q 49.265625 0.734375 44.1875 -0.34375 
Q 39.109375 -1.421875 33.890625 -1.421875 
Q 20.796875 -1.421875 13.15625 6.1875 
Q 5.515625 13.8125 5.515625 26.8125 
Q 5.515625 40.234375 12.765625 48.109375 
Q 20.015625 56 32.328125 56 
Q 43.359375 56 49.78125 48.890625 
Q 56.203125 41.796875 56.203125 29.59375 
z
M 47.21875 32.234375 
Q 47.125 39.59375 43.09375 43.984375 
Q 39.0625 48.390625 32.421875 48.390625 
Q 24.90625 48.390625 20.390625 44.140625 
Q 15.875 39.890625 15.1875 32.171875 
z
" id="DejaVuSans-101"/>
      <path d="M 41.109375 46.296875 
Q 39.59375 47.171875 37.8125 47.578125 
Q 36.03125 48 33.890625 48 
Q 26.265625 48 22.1875 43.046875 
Q 18.109375 38.09375 18.109375 28.8125 
L 18.109375 0 
L 9.078125 0 
L 9.078125 54.6875 
L 18.109375 54.6875 
L 18.109375 46.1875 
Q 20.953125 51.171875 25.484375 53.578125 
Q 30.03125 56 36.53125 56 
Q 37.453125 56 38.578125 55.875 
Q 39.703125 55.765625 41.0625 55.515625 
z
" id="DejaVuSans-114"/>
      <path id="DejaVuSans-32"/>
      <path d="M 9.421875 75.984375 
L 18.40625 75.984375 
L 18.40625 0 
L 9.421875 0 
z
" id="DejaVuSans-108"/>
      <path d="M 34.28125 27.484375 
Q 23.390625 27.484375 19.1875 25 
Q 14.984375 22.515625 14.984375 16.5 
Q 14.984375 11.71875 18.140625 8.90625 
Q 21.296875 6.109375 26.703125 6.109375 
Q 34.1875 6.109375 38.703125 11.40625 
Q 43.21875 16.703125 43.21875 25.484375 
L 43.21875 27.484375 
z
M 52.203125 31.203125 
L 52.203125 0 
L 43.21875 0 
L 43.21875 8.296875 
Q 40.140625 3.328125 35.546875 0.953125 
Q 30.953125 -1.421875 24.3125 -1.421875 
Q 15.921875 -1.421875 10.953125 3.296875 
Q 6 8.015625 6 15.921875 
Q 6 25.140625 12.171875 29.828125 
Q 18.359375 34.515625 30.609375 34.515625 
L 43.21875 34.515625 
L 43.21875 35.40625 
Q 43.21875 41.609375 39.140625 45 
Q 35.0625 48.390625 27.6875 48.390625 
Q 23 48.390625 18.546875 47.265625 
Q 14.109375 46.140625 10.015625 43.890625 
L 10.015625 52.203125 
Q 14.9375 54.109375 19.578125 55.046875 
Q 24.21875 56 28.609375 56 
Q 40.484375 56 46.34375 49.84375 
Q 52.203125 43.703125 52.203125 31.203125 
z
" id="DejaVuSans-97"/>
      <path d="M 44.28125 53.078125 
L 44.28125 44.578125 
Q 40.484375 46.53125 36.375 47.5 
Q 32.28125 48.484375 27.875 48.484375 
Q 21.1875 48.484375 17.84375 46.4375 
Q 14.5 44.390625 14.5 40.28125 
Q 14.5 37.15625 16.890625 35.375 
Q 19.28125 33.59375 26.515625 31.984375 
L 29.59375 31.296875 
Q 39.15625 29.25 43.1875 25.515625 
Q 47.21875 21.78125 47.21875 15.09375 
Q 47.21875 7.46875 41.1875 3.015625 
Q 35.15625 -1.421875 24.609375 -1.421875 
Q 20.21875 -1.421875 15.453125 -0.5625 
Q 10.6875 0.296875 5.421875 2 
L 5.421875 11.28125 
Q 10.40625 8.6875 15.234375 7.390625 
Q 20.0625 6.109375 24.8125 6.109375 
Q 31.15625 6.109375 34.5625 8.28125 
Q 37.984375 10.453125 37.984375 14.40625 
Q 37.984375 18.0625 35.515625 20.015625 
Q 33.0625 21.96875 24.703125 23.78125 
L 21.578125 24.515625 
Q 13.234375 26.265625 9.515625 29.90625 
Q 5.8125 33.546875 5.8125 39.890625 
Q 5.8125 47.609375 11.28125 51.796875 
Q 16.75 56 26.8125 56 
Q 31.78125 56 36.171875 55.265625 
Q 40.578125 54.546875 44.28125 53.078125 
z
" id="DejaVuSans-115"/>
      <path d="M 18.3125 70.21875 
L 18.3125 54.6875 
L 36.8125 54.6875 
L 36.8125 47.703125 
L 18.3125 47.703125 
L 18.3125 18.015625 
Q 18.3125 11.328125 20.140625 9.421875 
Q 21.96875 7.515625 27.59375 7.515625 
L 36.8125 7.515625 
L 36.8125 0 
L 27.59375 0 
Q 17.1875 0 13.234375 3.875 
Q 9.28125 7.765625 9.28125 18.015625 
L 9.28125 47.703125 
L 2.6875 47.703125 
L 2.6875 54.6875 
L 9.28125 54.6875 
L 9.28125 70.21875 
z
" id="DejaVuSans-116"/>
      <path d="M 33.015625 40.375 
Q 26.375 40.375 22.484375 35.828125 
Q 18.609375 31.296875 18.609375 23.390625 
Q 18.609375 15.53125 22.484375 10.953125 
Q 26.375 6.390625 33.015625 6.390625 
Q 39.65625 6.390625 43.53125 10.953125 
Q 47.40625 15.53125 47.40625 23.390625 
Q 47.40625 31.296875 43.53125 35.828125 
Q 39.65625 40.375 33.015625 40.375 
z
M 52.59375 71.296875 
L 52.59375 62.3125 
Q 48.875 64.0625 45.09375 64.984375 
Q 41.3125 65.921875 37.59375 65.921875 
Q 27.828125 65.921875 22.671875 59.328125 
Q 17.53125 52.734375 16.796875 39.40625 
Q 19.671875 43.65625 24.015625 45.921875 
Q 28.375 48.1875 33.59375 48.1875 
Q 44.578125 48.1875 50.953125 41.515625 
Q 57.328125 34.859375 57.328125 23.390625 
Q 57.328125 12.15625 50.6875 5.359375 
Q 44.046875 -1.421875 33.015625 -1.421875 
Q 20.359375 -1.421875 13.671875 8.265625 
Q 6.984375 17.96875 6.984375 36.375 
Q 6.984375 53.65625 15.1875 63.9375 
Q 23.390625 74.21875 37.203125 74.21875 
Q 40.921875 74.21875 44.703125 73.484375 
Q 48.484375 72.75 52.59375 71.296875 
z
" id="DejaVuSans-54"/>
      <path d="M 52 44.1875 
Q 55.375 50.25 60.0625 53.125 
Q 64.75 56 71.09375 56 
Q 79.640625 56 84.28125 50.015625 
Q 88.921875 44.046875 88.921875 33.015625 
L 88.921875 0 
L 79.890625 0 
L 79.890625 32.71875 
Q 79.890625 40.578125 77.09375 44.375 
Q 74.3125 48.1875 68.609375 48.1875 
Q 61.625 48.1875 57.5625 43.546875 
Q 53.515625 38.921875 53.515625 30.90625 
L 53.515625 0 
L 44.484375 0 
L 44.484375 32.71875 
Q 44.484375 40.625 41.703125 44.40625 
Q 38.921875 48.1875 33.109375 48.1875 
Q 26.21875 48.1875 22.15625 43.53125 
Q 18.109375 38.875 18.109375 30.90625 
L 18.109375 0 
L 9.078125 0 
L 9.078125 54.6875 
L 18.109375 54.6875 
L 18.109375 46.1875 
Q 21.1875 51.21875 25.484375 53.609375 
Q 29.78125 56 35.6875 56 
Q 41.65625 56 45.828125 52.96875 
Q 50 49.953125 52 44.1875 
z
" id="DejaVuSans-109"/>
      <path d="M 30.609375 48.390625 
Q 23.390625 48.390625 19.1875 42.75 
Q 14.984375 37.109375 14.984375 27.296875 
Q 14.984375 17.484375 19.15625 11.84375 
Q 23.34375 6.203125 30.609375 6.203125 
Q 37.796875 6.203125 41.984375 11.859375 
Q 46.1875 17.53125 46.1875 27.296875 
Q 46.1875 37.015625 41.984375 42.703125 
Q 37.796875 48.390625 30.609375 48.390625 
z
M 30.609375 56 
Q 42.328125 56 49.015625 48.375 
Q 55.71875 40.765625 55.71875 27.296875 
Q 55.71875 13.875 49.015625 6.21875 
Q 42.328125 -1.421875 30.609375 -1.421875 
Q 18.84375 -1.421875 12.171875 6.21875 
Q 5.515625 13.875 5.515625 27.296875 
Q 5.515625 40.765625 12.171875 48.375 
Q 18.84375 56 30.609375 56 
z
" id="DejaVuSans-111"/>
      <path d="M 54.890625 33.015625 
L 54.890625 0 
L 45.90625 0 
L 45.90625 32.71875 
Q 45.90625 40.484375 42.875 44.328125 
Q 39.84375 48.1875 33.796875 48.1875 
Q 26.515625 48.1875 22.3125 43.546875 
Q 18.109375 38.921875 18.109375 30.90625 
L 18.109375 0 
L 9.078125 0 
L 9.078125 54.6875 
L 18.109375 54.6875 
L 18.109375 46.1875 
Q 21.34375 51.125 25.703125 53.5625 
Q 30.078125 56 35.796875 56 
Q 45.21875 56 50.046875 50.171875 
Q 54.890625 44.34375 54.890625 33.015625 
z
" id="DejaVuSans-110"/>
      <path d="M 54.890625 33.015625 
L 54.890625 0 
L 45.90625 0 
L 45.90625 32.71875 
Q 45.90625 40.484375 42.875 44.328125 
Q 39.84375 48.1875 33.796875 48.1875 
Q 26.515625 48.1875 22.3125 43.546875 
Q 18.109375 38.921875 18.109375 30.90625 
L 18.109375 0 
L 9.078125 0 
L 9.078125 75.984375 
L 18.109375 75.984375 
L 18.109375 46.1875 
Q 21.34375 51.125 25.703125 53.5625 
Q 30.078125 56 35.796875 56 
Q 45.21875 56 50.046875 50.171875 
Q 54.890625 44.34375 54.890625 33.015625 
z
" id="DejaVuSans-104"/>
     </defs>
     <g transform="translate(352.532713 417.950938)scale(0.22 -0.22)">
      <use xlink:href="#DejaVuSans-79"/>
      <use x="78.710938" xlink:href="#DejaVuSans-118"/>
      <use x="137.890625" xlink:href="#DejaVuSans-101"/>
      <use x="199.414062" xlink:href="#DejaVuSans-114"/>
      <use x="240.527344" xlink:href="#DejaVuSans-32"/>
      <use x="272.314453" xlink:href="#DejaVuSans-108"/>
      <use x="300.097656" xlink:href="#DejaVuSans-97"/>
      <use x="361.376953" xlink:href="#DejaVuSans-115"/>
      <use x="413.476562" xlink:href="#DejaVuSans-116"/>
      <use x="452.685547" xlink:href="#DejaVuSans-32"/>
      <use x="484.472656" xlink:href="#DejaVuSans-54"/>
      <use x="548.095703" xlink:href="#DejaVuSans-32"/>
      <use x="579.882812" xlink:href="#DejaVuSans-109"/>
      <use x="677.294922" xlink:href="#DejaVuSans-111"/>
      <use x="738.476562" xlink:href="#DejaVuSans-110"/>
      <use x="801.855469" xlink:href="#DejaVuSans-116"/>
      <use x="841.064453" xlink:href="#DejaVuSans-104"/>
      <use x="904.443359" xlink:href="#DejaVuSans-115"/>
     </g>
    </g>
   </g>
   <g id="matplotlib.axis_2">
    <g id="ytick_1">
     <g id="line2d_4">
      <defs>
       <path d="M 0 0 
L -3.5 0 
" id="m25ea0f337d" style="stroke:#000000;stroke-width:0.8;"/>
      </defs>
      <g>
       <use style="stroke:#000000;stroke-width:0.8;" x="75.175" xlink:href="#m25ea0f337d" y="319.189291"/>
      </g>
     </g>
     <g id="text_5">
      <!-- 90 -->
      <defs>
       <path d="M 10.984375 1.515625 
L 10.984375 10.5 
Q 14.703125 8.734375 18.5 7.8125 
Q 22.3125 6.890625 25.984375 6.890625 
Q 35.75 6.890625 40.890625 13.453125 
Q 46.046875 20.015625 46.78125 33.40625 
Q 43.953125 29.203125 39.59375 26.953125 
Q 35.25 24.703125 29.984375 24.703125 
Q 19.046875 24.703125 12.671875 31.3125 
Q 6.296875 37.9375 6.296875 49.421875 
Q 6.296875 60.640625 12.9375 67.421875 
Q 19.578125 74.21875 30.609375 74.21875 
Q 43.265625 74.21875 49.921875 64.515625 
Q 56.59375 54.828125 56.59375 36.375 
Q 56.59375 19.140625 48.40625 8.859375 
Q 40.234375 -1.421875 26.421875 -1.421875 
Q 22.703125 -1.421875 18.890625 -0.6875 
Q 15.09375 0.046875 10.984375 1.515625 
z
M 30.609375 32.421875 
Q 37.25 32.421875 41.125 36.953125 
Q 45.015625 41.5 45.015625 49.421875 
Q 45.015625 57.28125 41.125 61.84375 
Q 37.25 66.40625 30.609375 66.40625 
Q 23.96875 66.40625 20.09375 61.84375 
Q 16.21875 57.28125 16.21875 49.421875 
Q 16.21875 41.5 20.09375 36.953125 
Q 23.96875 32.421875 30.609375 32.421875 
z
" id="DejaVuSans-57"/>
      </defs>
      <g transform="translate(30 330.586947)scale(0.3 -0.3)">
       <use xlink:href="#DejaVuSans-57"/>
       <use x="63.623047" xlink:href="#DejaVuSans-48"/>
      </g>
     </g>
    </g>
    <g id="ytick_2">
     <g id="line2d_5">
      <g>
       <use style="stroke:#000000;stroke-width:0.8;" x="75.175" xlink:href="#m25ea0f337d" y="221.262251"/>
      </g>
     </g>
     <g id="text_6">
      <!-- 100 -->
      <g transform="translate(10.9125 232.659907)scale(0.3 -0.3)">
       <use xlink:href="#DejaVuSans-49"/>
       <use x="63.623047" xlink:href="#DejaVuSans-48"/>
       <use x="127.246094" xlink:href="#DejaVuSans-48"/>
      </g>
     </g>
    </g>
    <g id="ytick_3">
     <g id="line2d_6">
      <g>
       <use style="stroke:#000000;stroke-width:0.8;" x="75.175" xlink:href="#m25ea0f337d" y="123.33521"/>
      </g>
     </g>
     <g id="text_7">
      <!-- 110 -->
      <g transform="translate(10.9125 134.732867)scale(0.3 -0.3)">
       <use xlink:href="#DejaVuSans-49"/>
       <use x="63.623047" xlink:href="#DejaVuSans-49"/>
       <use x="127.246094" xlink:href="#DejaVuSans-48"/>
      </g>
     </g>
    </g>
   </g>
   <g id="line2d_7">
    <path clip-path="url(#pb01f5d38a0)" d="M 109.954494 305.263422 
L 113.734874 285.913657 
L 117.515253 242.230062 
L 121.295633 254.73901 
L 132.636772 255.325353 
L 136.417152 272.0365 
L 140.197532 274.96829 
L 143.977912 225.714288 
L 147.758291 152.712874 
L 162.87981 145.28564 
L 166.66019 171.964915 
L 170.44057 127.010986 
L 174.22095 141.278888 
L 185.562089 162.876376 
L 189.342469 151.637912 
L 193.122849 134.438146 
L 196.903228 131.994976 
L 200.683608 134.53587 
L 212.024747 107.563422 
L 215.805127 88.8 
L 219.585507 93.979437 
L 223.365887 129.16091 
L 227.146266 159.65149 
L 242.267785 151.637912 
L 246.048165 177.926218 
L 249.828545 170.205887 
L 253.608925 188.676137 
L 264.950064 178.024017 
L 268.730444 134.438146 
L 272.510824 145.18799 
L 276.291203 135.610832 
L 280.071583 117.531551 
L 291.412722 125.251882 
L 298.973482 152.028807 
L 302.753862 161.508242 
L 306.534241 166.199135 
L 317.875381 150.465226 
L 321.65576 155.449216 
L 325.43614 150.17198 
L 329.21652 101.60212 
L 332.9969 148.608399 
L 344.338039 108.54066 
L 348.118419 119.876923 
L 351.898799 140.790269 
L 355.679178 188.871585 
L 359.459558 179.294352 
L 370.800697 175.776219 
L 374.581077 170.596782 
L 378.361457 180.467112 
L 382.141837 157.696939 
L 385.922216 140.106202 
L 397.263356 128.379119 
L 401.043735 147.257449 
L 404.824115 187.655118 
L 408.604495 195.578219 
L 412.384875 212.304682 
L 423.726014 193.132882 
L 427.506394 206.826993 
L 431.286773 223.064314 
L 435.067153 223.162187 
L 438.847533 259.353771 
L 450.188672 236.856298 
L 453.969052 262.777318 
L 457.749432 276.6671 
L 461.529812 280.970983 
L 465.310191 273.732621 
L 476.651331 242.52951 
L 480.43171 249.670073 
L 484.21209 231.476407 
L 487.99247 269.526612 
L 491.77285 256.810561 
L 503.113989 250.15914 
L 506.894369 218.662633 
L 510.674748 216.706288 
L 514.455128 209.957069 
L 518.235508 198.02363 
L 533.357027 213.087219 
L 537.137407 225.509725 
L 540.917787 251.332947 
L 544.698166 260.234182 
L 556.039306 266.298663 
L 559.819685 278.91684 
L 563.600065 272.950084 
L 567.380445 275.297697 
L 571.160825 300.631851 
L 582.501964 292.806623 
L 586.282344 301.120993 
L 590.062723 313.15223 
L 593.843103 320.097046 
L 597.623483 310.022079 
L 608.964622 305.033532 
L 612.745002 331.737089 
L 616.525382 326.552945 
L 620.305762 303.175061 
L 624.086141 281.949118 
L 635.427281 287.035538 
L 639.20766 312.663162 
L 642.98804 271.482882 
L 646.76842 289.285278 
L 650.5488 273.341353 
L 661.889939 266.005192 
L 665.670319 250.843879 
L 669.450698 245.757459 
L 673.231078 242.138241 
L 677.011458 266.983327 
L 688.352597 247.322534 
L 692.132977 251.822014 
L 695.913357 270.602545 
L 699.693737 301.903456 
L 703.474116 313.347902 
L 714.815256 325.770407 
L 718.595635 308.554877 
L 722.376015 352.767435 
L 726.156395 344.355342 
L 729.936775 341.518661 
L 741.277914 343.279334 
L 745.058294 338.382982 
L 748.838673 330.744685 
L 752.619053 361.2 
L 756.399433 297.057759 
L 767.740572 309.200766 
L 771.520952 305.773259 
L 775.301332 299.799704 
L 779.081712 313.215735 
L 782.862091 265.133597 
L 794.203231 279.920527 
L 797.98361 215.77836 
L 801.76399 193.451007 
L 805.54437 191.982086 
L 805.54437 191.982086 
" style="fill:none;stroke:#000000;stroke-linecap:square;stroke-width:4;"/>
   </g>
   <g id="patch_3">
    <path d="M 75.175 361.2 
L 75.175 88.8 
" style="fill:none;stroke:#000000;stroke-linecap:square;stroke-linejoin:miter;stroke-width:0.8;"/>
   </g>
   <g id="patch_4">
    <path d="M 75.175 361.2 
L 840.323864 361.2 
" style="fill:none;stroke:#000000;stroke-linecap:square;stroke-linejoin:miter;stroke-width:0.8;"/>
   </g>
   <g id="text_8">
    <!-- ENTG   12% -->
    <defs>
     <path d="M 9.1875 72.90625 
L 59.90625 72.90625 
L 59.90625 58.6875 
L 27.984375 58.6875 
L 27.984375 45.125 
L 58.015625 45.125 
L 58.015625 30.90625 
L 27.984375 30.90625 
L 27.984375 14.203125 
L 60.984375 14.203125 
L 60.984375 0 
L 9.1875 0 
z
" id="DejaVuSans-Bold-69"/>
     <path d="M 9.1875 72.90625 
L 30.171875 72.90625 
L 56.6875 22.90625 
L 56.6875 72.90625 
L 74.515625 72.90625 
L 74.515625 0 
L 53.515625 0 
L 27 50 
L 27 0 
L 9.1875 0 
z
" id="DejaVuSans-Bold-78"/>
     <path d="M 0.484375 72.90625 
L 67.671875 72.90625 
L 67.671875 58.6875 
L 43.5 58.6875 
L 43.5 0 
L 24.703125 0 
L 24.703125 58.6875 
L 0.484375 58.6875 
z
" id="DejaVuSans-Bold-84"/>
     <path d="M 74.703125 5.421875 
Q 67.671875 2 60.109375 0.28125 
Q 52.546875 -1.421875 44.484375 -1.421875 
Q 26.265625 -1.421875 15.625 8.765625 
Q 4.984375 18.953125 4.984375 36.375 
Q 4.984375 54 15.8125 64.109375 
Q 26.65625 74.21875 45.515625 74.21875 
Q 52.78125 74.21875 59.4375 72.84375 
Q 66.109375 71.484375 72.015625 68.796875 
L 72.015625 53.71875 
Q 65.921875 57.171875 59.890625 58.875 
Q 53.859375 60.59375 47.796875 60.59375 
Q 36.578125 60.59375 30.5 54.3125 
Q 24.421875 48.046875 24.421875 36.375 
Q 24.421875 24.8125 30.28125 18.5 
Q 36.140625 12.203125 46.921875 12.203125 
Q 49.859375 12.203125 52.375 12.5625 
Q 54.890625 12.9375 56.890625 13.71875 
L 56.890625 27.875 
L 45.40625 27.875 
L 45.40625 40.484375 
L 74.703125 40.484375 
z
" id="DejaVuSans-Bold-71"/>
     <path id="DejaVuSans-Bold-32"/>
     <path d="M 11.71875 12.984375 
L 28.328125 12.984375 
L 28.328125 60.109375 
L 11.28125 56.59375 
L 11.28125 69.390625 
L 28.21875 72.90625 
L 46.09375 72.90625 
L 46.09375 12.984375 
L 62.703125 12.984375 
L 62.703125 0 
L 11.71875 0 
z
" id="DejaVuSans-Bold-49"/>
     <path d="M 28.8125 13.8125 
L 60.890625 13.8125 
L 60.890625 0 
L 7.90625 0 
L 7.90625 13.8125 
L 34.515625 37.3125 
Q 38.09375 40.53125 39.796875 43.609375 
Q 41.5 46.6875 41.5 50 
Q 41.5 55.125 38.0625 58.25 
Q 34.625 61.375 28.90625 61.375 
Q 24.515625 61.375 19.28125 59.5 
Q 14.0625 57.625 8.109375 53.90625 
L 8.109375 69.921875 
Q 14.453125 72.015625 20.65625 73.109375 
Q 26.859375 74.21875 32.8125 74.21875 
Q 45.90625 74.21875 53.15625 68.453125 
Q 60.40625 62.703125 60.40625 52.390625 
Q 60.40625 46.4375 57.328125 41.28125 
Q 54.25 36.140625 44.390625 27.484375 
z
" id="DejaVuSans-Bold-50"/>
     <path d="M 77.484375 30.078125 
Q 74.03125 30.078125 72.125 27.078125 
Q 70.21875 24.078125 70.21875 18.5 
Q 70.21875 12.890625 72.09375 9.890625 
Q 73.96875 6.890625 77.484375 6.890625 
Q 81 6.890625 82.859375 9.890625 
Q 84.71875 12.890625 84.71875 18.5 
Q 84.71875 24.078125 82.828125 27.078125 
Q 80.953125 30.078125 77.484375 30.078125 
z
M 77.484375 38.28125 
Q 86.578125 38.28125 91.796875 33 
Q 97.015625 27.734375 97.015625 18.5 
Q 97.015625 9.28125 91.796875 3.921875 
Q 86.578125 -1.421875 77.484375 -1.421875 
Q 68.40625 -1.421875 63.15625 3.921875 
Q 57.90625 9.28125 57.90625 18.5 
Q 57.90625 27.6875 63.15625 32.984375 
Q 68.40625 38.28125 77.484375 38.28125 
z
M 32.71875 -1.421875 
L 21.921875 -1.421875 
L 67.484375 74.21875 
L 78.328125 74.21875 
z
M 22.703125 74.21875 
Q 31.78125 74.21875 36.984375 68.921875 
Q 42.1875 63.625 42.1875 54.390625 
Q 42.1875 45.171875 36.984375 39.84375 
Q 31.78125 34.515625 22.703125 34.515625 
Q 13.625 34.515625 8.421875 39.84375 
Q 3.21875 45.171875 3.21875 54.390625 
Q 3.21875 63.625 8.421875 68.921875 
Q 13.625 74.21875 22.703125 74.21875 
z
M 22.703125 66.015625 
Q 19.1875 66.015625 17.28125 62.984375 
Q 15.375 59.96875 15.375 54.390625 
Q 15.375 48.78125 17.28125 45.71875 
Q 19.1875 42.671875 22.703125 42.671875 
Q 26.21875 42.671875 28.09375 45.71875 
Q 29.984375 48.78125 29.984375 54.390625 
Q 29.984375 59.96875 28.078125 62.984375 
Q 26.171875 66.015625 22.703125 66.015625 
z
" id="DejaVuSans-Bold-37"/>
    </defs>
    <g transform="translate(75.175 72.1625)scale(0.8 -0.8)">
     <use xlink:href="#DejaVuSans-Bold-69"/>
     <use x="68.310547" xlink:href="#DejaVuSans-Bold-78"/>
     <use x="152.001953" xlink:href="#DejaVuSans-Bold-84"/>
     <use x="220.214844" xlink:href="#DejaVuSans-Bold-71"/>
     <use x="302.294922" xlink:href="#DejaVuSans-Bold-32"/>
     <use x="337.109375" xlink:href="#DejaVuSans-Bold-32"/>
     <use x="371.923828" xlink:href="#DejaVuSans-Bold-32"/>
     <use x="406.738281" xlink:href="#DejaVuSans-Bold-49"/>
     <use x="476.318359" xlink:href="#DejaVuSans-Bold-50"/>
     <use x="545.898438" xlink:href="#DejaVuSans-Bold-37"/>
    </g>
   </g>
  </g>
 </g>
 <defs>
  <clipPath id="pb01f5d38a0">
   <rect height="272.4" width="765.148864" x="75.175" y="88.8"/>
  </clipPath>
 </defs>
</svg>
