<?xml version="1.0" encoding="utf-8" standalone="no"?>
<!DOCTYPE svg PUBLIC "-//W3C//DTD SVG 1.1//EN"
  "http://www.w3.org/Graphics/SVG/1.1/DTD/svg11.dtd">
<!-- Created with matplotlib (https://matplotlib.org/) -->
<svg height="432pt" version="1.1" viewBox="0 0 864 432" width="864pt" xmlns="http://www.w3.org/2000/svg" xmlns:xlink="http://www.w3.org/1999/xlink">
 <defs>
  <style type="text/css">
*{stroke-linecap:butt;stroke-linejoin:round;}
  </style>
 </defs>
 <g id="figure_1">
  <g id="patch_1">
   <path d="M 0 432 
L 864 432 
L 864 0 
L 0 0 
z
" style="fill:#ffffff;"/>
  </g>
  <g id="axes_1">
   <g id="patch_2">
    <path d="M 36.925 404.2 
L 853.2 404.2 
L 853.2 28.8 
L 36.925 28.8 
z
" style="fill:#ffffff;"/>
   </g>
   <g id="PolyCollection_1">
    <defs>
     <path d="M 74.028409 -44.863636 
L 74.028409 -288.93226 
L 76.067058 -302.858349 
L 82.183004 -294.391284 
L 84.221653 -294.69766 
L 86.260302 -292.915122 
L 88.298951 -320.711605 
L 90.3376 -331.156171 
L 96.453546 -319.51396 
L 98.492195 -323.218305 
L 100.530844 -316.283097 
L 102.569493 -315.75392 
L 104.608142 -318.678386 
L 110.724088 -315.224722 
L 112.762737 -324.165269 
L 114.801386 -325.836395 
L 118.878684 -327.563238 
L 124.99463 -322.410589 
L 127.033279 -330.209186 
L 129.071928 -342.43629 
L 131.110577 -339.901753 
L 133.149226 -333.662871 
L 139.265172 -325.223665 
L 141.303821 -314.779099 
L 143.34247 -297.733558 
L 145.381119 -305.504318 
L 147.419768 -306.952622 
L 153.535714 -311.130449 
L 155.574363 -307.760338 
L 157.613012 -303.303994 
L 159.651661 -296.090269 
L 161.69031 -290.43628 
L 167.806256 -282.331308 
L 169.844905 -283.306129 
L 171.883554 -285.757113 
L 173.922203 -280.270231 
L 175.960852 -285.590007 
L 184.115447 -285.952078 
L 186.154096 -277.958517 
L 188.192745 -287.539651 
L 190.231394 -288.848707 
L 198.385989 -289.071529 
L 200.424638 -298.290593 
L 202.463287 -303.888887 
L 204.501936 -306.98048 
L 210.617882 -306.033495 
L 212.656531 -308.456642 
L 214.69518 -321.26864 
L 216.733829 -331.908171 
L 218.772478 -340.347377 
L 226.927073 -341.628596 
L 228.965722 -334.164212 
L 231.004371 -343.0769 
L 233.043019 -354.85838 
L 239.158966 -367.196896 
L 241.197615 -365.637159 
L 243.236264 -369.174398 
L 245.274913 -369.982113 
L 247.313561 -368.450235 
L 253.429508 -366.723393 
L 255.468157 -363.214033 
L 257.506806 -373.240813 
L 259.545455 -383.128323 
L 261.584103 -375.468975 
L 267.70005 -376.499513 
L 269.738699 -379.646801 
L 271.777348 -376.722335 
L 273.815997 -372.711615 
L 275.854645 -344.664473 
L 281.970592 -354.997628 
L 284.009241 -365.024408 
L 286.04789 -367.837484 
L 288.086538 -355.498968 
L 290.125187 -348.34096 
L 298.279783 -345.750706 
L 300.318432 -345.5836 
L 302.35708 -342.631276 
L 304.395729 -335.389693 
L 310.511676 -342.43629 
L 312.550325 -348.368818 
L 314.588974 -340.542363 
L 316.627622 -339.483966 
L 318.666271 -344.58092 
L 324.782218 -347.199031 
L 326.820867 -344.302402 
L 328.859515 -343.522545 
L 330.898164 -325.613594 
L 332.936813 -318.622691 
L 339.05276 -309.459322 
L 341.091409 -306.952622 
L 343.130057 -300.35167 
L 345.168706 -309.793556 
L 347.207355 -305.058673 
L 353.323302 -308.23382 
L 355.361951 -314.333453 
L 357.400599 -305.671425 
L 359.439248 -302.914065 
L 361.477897 -297.037254 
L 367.593844 -297.566452 
L 369.632493 -304.000298 
L 371.671141 -309.542876 
L 373.70979 -312.606611 
L 375.748439 -315.113311 
L 381.864386 -309.654287 
L 383.903034 -306.033495 
L 385.941683 -299.683202 
L 387.980332 -300.268095 
L 396.134928 -295.004036 
L 398.173576 -300.518776 
L 400.212225 -293.69498 
L 402.250874 -298.20704 
L 404.289523 -301.187222 
L 410.40547 -304.947262 
L 412.444118 -310.963343 
L 414.482767 -310.378449 
L 416.521416 -306.7298 
L 418.560065 -306.11707 
L 424.676011 -307.203303 
L 426.71466 -301.410045 
L 428.753309 -295.171163 
L 430.791958 -302.245619 
L 432.830607 -306.562693 
L 438.946553 -307.843891 
L 440.985202 -304.557333 
L 443.023851 -297.120807 
L 445.0625 -293.221498 
L 447.101149 -305.392907 
L 453.217095 -302.440583 
L 455.255744 -304.613049 
L 457.294393 -298.402005 
L 459.333042 -298.931203 
L 461.371691 -294.001355 
L 467.487637 -301.744279 
L 469.526286 -303.081171 
L 471.564935 -310.099932 
L 473.603584 -318.566975 
L 475.642233 -313.99922 
L 481.758179 -314.528418 
L 483.796828 -307.11975 
L 485.835477 -304.780156 
L 487.874126 -311.659647 
L 489.912775 -313.219362 
L 498.06737 -315.057616 
L 500.106019 -311.436824 
L 502.144668 -319.65323 
L 504.183317 -332.493064 
L 510.299263 -342.603418 
L 512.337912 -356.780166 
L 514.376561 -348.70303 
L 516.41521 -344.748026 
L 518.453859 -352.574503 
L 524.569805 -353.493608 
L 526.608454 -353.911395 
L 528.647103 -348.257407 
L 530.685752 -343.188311 
L 532.724401 -339.734647 
L 540.878996 -342.659113 
L 542.917645 -337.339358 
L 544.956294 -343.801062 
L 546.994943 -336.726607 
L 553.110889 -334.971927 
L 555.149538 -345.917813 
L 557.188187 -346.58628 
L 559.226836 -345.221508 
L 561.265485 -349.538604 
L 567.381431 -359.008349 
L 571.458729 -355.526827 
L 573.497378 -348.452371 
L 575.536026 -356.47379 
L 581.651973 -363.297587 
L 583.690622 -370.622702 
L 585.729271 -368.060306 
L 587.76792 -378.142802 
L 589.806568 -375.106904 
L 595.922515 -382.264913 
L 597.961164 -381.874984 
L 599.999813 -376.583066 
L 602.038462 -375.942478 
L 604.07711 -376.304548 
L 610.193057 -370.260631 
L 612.231706 -371.931757 
L 614.270355 -377.864264 
L 616.309003 -375.803208 
L 618.347652 -379.340426 
L 624.463599 -386.136364 
L 626.502248 -381.150821 
L 628.540897 -373.519331 
L 630.579545 -319.681066 
L 632.618194 -332.270263 
L 638.734141 -344.246686 
L 640.77279 -350.791944 
L 642.811439 -350.70839 
L 644.850087 -355.888897 
L 646.888736 -355.526827 
L 653.004683 -356.61306 
L 655.043332 -344.07958 
L 657.081981 -343.271864 
L 659.120629 -339.066179 
L 661.159278 -343.466829 
L 667.275225 -345.862118 
L 669.313874 -347.310421 
L 671.352522 -344.525204 
L 673.391171 -339.985306 
L 675.42982 -342.714829 
L 681.545767 -346.140635 
L 683.584416 -351.098319 
L 685.623064 -348.062442 
L 687.661713 -346.753386 
L 689.700362 -350.039944 
L 697.854958 -351.85034 
L 699.893606 -346.809103 
L 701.932255 -339.428271 
L 703.970904 -350.680554 
L 710.086851 -347.031904 
L 712.1255 -350.262767 
L 714.164148 -342.380595 
L 716.202797 -342.686971 
L 718.241446 -342.631276 
L 724.357393 -339.372555 
L 726.396041 -336.141714 
L 728.43469 -335.333998 
L 730.473339 -328.844435 
L 732.511988 -325.808558 
L 738.627935 -325.307218 
L 740.666583 -321.686427 
L 742.705232 -324.081716 
L 744.743881 -330.571278 
L 746.78253 -331.936029 
L 752.898477 -329.095116 
L 754.937125 -319.959584 
L 756.975774 -323.886751 
L 759.014423 -323.106894 
L 761.053072 -324.722325 
L 767.169018 -322.466284 
L 769.207667 -327.53538 
L 771.246316 -333.440049 
L 773.284965 -330.682689 
L 775.323614 -321.045838 
L 781.43956 -322.466284 
L 783.478209 -327.702507 
L 785.516858 -320.349534 
L 787.555507 -311.297576 
L 789.594156 -305.699283 
L 795.710102 -310.099932 
L 797.748751 -315.837474 
L 799.7874 -312.160987 
L 801.826049 -309.570734 
L 803.864698 -304.111709 
L 809.980644 -309.320053 
L 812.019293 -310.267038 
L 814.057942 -304.640886 
L 816.096591 -309.013677 
L 816.096591 -44.863636 
L 816.096591 -44.863636 
L 814.057942 -44.863636 
L 812.019293 -44.863636 
L 809.980644 -44.863636 
L 803.864698 -44.863636 
L 801.826049 -44.863636 
L 799.7874 -44.863636 
L 797.748751 -44.863636 
L 795.710102 -44.863636 
L 789.594156 -44.863636 
L 787.555507 -44.863636 
L 785.516858 -44.863636 
L 783.478209 -44.863636 
L 781.43956 -44.863636 
L 775.323614 -44.863636 
L 773.284965 -44.863636 
L 771.246316 -44.863636 
L 769.207667 -44.863636 
L 767.169018 -44.863636 
L 761.053072 -44.863636 
L 759.014423 -44.863636 
L 756.975774 -44.863636 
L 754.937125 -44.863636 
L 752.898477 -44.863636 
L 746.78253 -44.863636 
L 744.743881 -44.863636 
L 742.705232 -44.863636 
L 740.666583 -44.863636 
L 738.627935 -44.863636 
L 732.511988 -44.863636 
L 730.473339 -44.863636 
L 728.43469 -44.863636 
L 726.396041 -44.863636 
L 724.357393 -44.863636 
L 718.241446 -44.863636 
L 716.202797 -44.863636 
L 714.164148 -44.863636 
L 712.1255 -44.863636 
L 710.086851 -44.863636 
L 703.970904 -44.863636 
L 701.932255 -44.863636 
L 699.893606 -44.863636 
L 697.854958 -44.863636 
L 689.700362 -44.863636 
L 687.661713 -44.863636 
L 685.623064 -44.863636 
L 683.584416 -44.863636 
L 681.545767 -44.863636 
L 675.42982 -44.863636 
L 673.391171 -44.863636 
L 671.352522 -44.863636 
L 669.313874 -44.863636 
L 667.275225 -44.863636 
L 661.159278 -44.863636 
L 659.120629 -44.863636 
L 657.081981 -44.863636 
L 655.043332 -44.863636 
L 653.004683 -44.863636 
L 646.888736 -44.863636 
L 644.850087 -44.863636 
L 642.811439 -44.863636 
L 640.77279 -44.863636 
L 638.734141 -44.863636 
L 632.618194 -44.863636 
L 630.579545 -44.863636 
L 628.540897 -44.863636 
L 626.502248 -44.863636 
L 624.463599 -44.863636 
L 618.347652 -44.863636 
L 616.309003 -44.863636 
L 614.270355 -44.863636 
L 612.231706 -44.863636 
L 610.193057 -44.863636 
L 604.07711 -44.863636 
L 602.038462 -44.863636 
L 599.999813 -44.863636 
L 597.961164 -44.863636 
L 595.922515 -44.863636 
L 589.806568 -44.863636 
L 587.76792 -44.863636 
L 585.729271 -44.863636 
L 583.690622 -44.863636 
L 581.651973 -44.863636 
L 575.536026 -44.863636 
L 573.497378 -44.863636 
L 571.458729 -44.863636 
L 567.381431 -44.863636 
L 561.265485 -44.863636 
L 559.226836 -44.863636 
L 557.188187 -44.863636 
L 555.149538 -44.863636 
L 553.110889 -44.863636 
L 546.994943 -44.863636 
L 544.956294 -44.863636 
L 542.917645 -44.863636 
L 540.878996 -44.863636 
L 532.724401 -44.863636 
L 530.685752 -44.863636 
L 528.647103 -44.863636 
L 526.608454 -44.863636 
L 524.569805 -44.863636 
L 518.453859 -44.863636 
L 516.41521 -44.863636 
L 514.376561 -44.863636 
L 512.337912 -44.863636 
L 510.299263 -44.863636 
L 504.183317 -44.863636 
L 502.144668 -44.863636 
L 500.106019 -44.863636 
L 498.06737 -44.863636 
L 489.912775 -44.863636 
L 487.874126 -44.863636 
L 485.835477 -44.863636 
L 483.796828 -44.863636 
L 481.758179 -44.863636 
L 475.642233 -44.863636 
L 473.603584 -44.863636 
L 471.564935 -44.863636 
L 469.526286 -44.863636 
L 467.487637 -44.863636 
L 461.371691 -44.863636 
L 459.333042 -44.863636 
L 457.294393 -44.863636 
L 455.255744 -44.863636 
L 453.217095 -44.863636 
L 447.101149 -44.863636 
L 445.0625 -44.863636 
L 443.023851 -44.863636 
L 440.985202 -44.863636 
L 438.946553 -44.863636 
L 432.830607 -44.863636 
L 430.791958 -44.863636 
L 428.753309 -44.863636 
L 426.71466 -44.863636 
L 424.676011 -44.863636 
L 418.560065 -44.863636 
L 416.521416 -44.863636 
L 414.482767 -44.863636 
L 412.444118 -44.863636 
L 410.40547 -44.863636 
L 404.289523 -44.863636 
L 402.250874 -44.863636 
L 400.212225 -44.863636 
L 398.173576 -44.863636 
L 396.134928 -44.863636 
L 387.980332 -44.863636 
L 385.941683 -44.863636 
L 383.903034 -44.863636 
L 381.864386 -44.863636 
L 375.748439 -44.863636 
L 373.70979 -44.863636 
L 371.671141 -44.863636 
L 369.632493 -44.863636 
L 367.593844 -44.863636 
L 361.477897 -44.863636 
L 359.439248 -44.863636 
L 357.400599 -44.863636 
L 355.361951 -44.863636 
L 353.323302 -44.863636 
L 347.207355 -44.863636 
L 345.168706 -44.863636 
L 343.130057 -44.863636 
L 341.091409 -44.863636 
L 339.05276 -44.863636 
L 332.936813 -44.863636 
L 330.898164 -44.863636 
L 328.859515 -44.863636 
L 326.820867 -44.863636 
L 324.782218 -44.863636 
L 318.666271 -44.863636 
L 316.627622 -44.863636 
L 314.588974 -44.863636 
L 312.550325 -44.863636 
L 310.511676 -44.863636 
L 304.395729 -44.863636 
L 302.35708 -44.863636 
L 300.318432 -44.863636 
L 298.279783 -44.863636 
L 290.125187 -44.863636 
L 288.086538 -44.863636 
L 286.04789 -44.863636 
L 284.009241 -44.863636 
L 281.970592 -44.863636 
L 275.854645 -44.863636 
L 273.815997 -44.863636 
L 271.777348 -44.863636 
L 269.738699 -44.863636 
L 267.70005 -44.863636 
L 261.584103 -44.863636 
L 259.545455 -44.863636 
L 257.506806 -44.863636 
L 255.468157 -44.863636 
L 253.429508 -44.863636 
L 247.313561 -44.863636 
L 245.274913 -44.863636 
L 243.236264 -44.863636 
L 241.197615 -44.863636 
L 239.158966 -44.863636 
L 233.043019 -44.863636 
L 231.004371 -44.863636 
L 228.965722 -44.863636 
L 226.927073 -44.863636 
L 218.772478 -44.863636 
L 216.733829 -44.863636 
L 214.69518 -44.863636 
L 212.656531 -44.863636 
L 210.617882 -44.863636 
L 204.501936 -44.863636 
L 202.463287 -44.863636 
L 200.424638 -44.863636 
L 198.385989 -44.863636 
L 190.231394 -44.863636 
L 188.192745 -44.863636 
L 186.154096 -44.863636 
L 184.115447 -44.863636 
L 175.960852 -44.863636 
L 173.922203 -44.863636 
L 171.883554 -44.863636 
L 169.844905 -44.863636 
L 167.806256 -44.863636 
L 161.69031 -44.863636 
L 159.651661 -44.863636 
L 157.613012 -44.863636 
L 155.574363 -44.863636 
L 153.535714 -44.863636 
L 147.419768 -44.863636 
L 145.381119 -44.863636 
L 143.34247 -44.863636 
L 141.303821 -44.863636 
L 139.265172 -44.863636 
L 133.149226 -44.863636 
L 131.110577 -44.863636 
L 129.071928 -44.863636 
L 127.033279 -44.863636 
L 124.99463 -44.863636 
L 118.878684 -44.863636 
L 114.801386 -44.863636 
L 112.762737 -44.863636 
L 110.724088 -44.863636 
L 104.608142 -44.863636 
L 102.569493 -44.863636 
L 100.530844 -44.863636 
L 98.492195 -44.863636 
L 96.453546 -44.863636 
L 90.3376 -44.863636 
L 88.298951 -44.863636 
L 86.260302 -44.863636 
L 84.221653 -44.863636 
L 82.183004 -44.863636 
L 76.067058 -44.863636 
L 74.028409 -44.863636 
z
" id="mb64e41e7cf" style="stroke:#c6a2d2;"/>
    </defs>
    <g clip-path="url(#p134e9f0d19)">
     <use style="fill:#c6a2d2;stroke:#c6a2d2;" x="0" xlink:href="#mb64e41e7cf" y="432"/>
    </g>
   </g>
   <g id="matplotlib.axis_1">
    <g id="xtick_1">
     <g id="line2d_1">
      <defs>
       <path d="M 0 0 
L 0 3.5 
" id="mdd02b4b523" style="stroke:#000000;stroke-width:0.8;"/>
      </defs>
      <g>
       <use style="stroke:#000000;stroke-width:0.8;" x="69.951111" xlink:href="#mdd02b4b523" y="404.2"/>
      </g>
     </g>
     <g id="text_1">
      <!-- 2022-11 -->
      <defs>
       <path d="M 19.1875 8.296875 
L 53.609375 8.296875 
L 53.609375 0 
L 7.328125 0 
L 7.328125 8.296875 
Q 12.9375 14.109375 22.625 23.890625 
Q 32.328125 33.6875 34.8125 36.53125 
Q 39.546875 41.84375 41.421875 45.53125 
Q 43.3125 49.21875 43.3125 52.78125 
Q 43.3125 58.59375 39.234375 62.25 
Q 35.15625 65.921875 28.609375 65.921875 
Q 23.96875 65.921875 18.8125 64.3125 
Q 13.671875 62.703125 7.8125 59.421875 
L 7.8125 69.390625 
Q 13.765625 71.78125 18.9375 73 
Q 24.125 74.21875 28.421875 74.21875 
Q 39.75 74.21875 46.484375 68.546875 
Q 53.21875 62.890625 53.21875 53.421875 
Q 53.21875 48.921875 51.53125 44.890625 
Q 49.859375 40.875 45.40625 35.40625 
Q 44.1875 33.984375 37.640625 27.21875 
Q 31.109375 20.453125 19.1875 8.296875 
z
" id="DejaVuSans-50"/>
       <path d="M 31.78125 66.40625 
Q 24.171875 66.40625 20.328125 58.90625 
Q 16.5 51.421875 16.5 36.375 
Q 16.5 21.390625 20.328125 13.890625 
Q 24.171875 6.390625 31.78125 6.390625 
Q 39.453125 6.390625 43.28125 13.890625 
Q 47.125 21.390625 47.125 36.375 
Q 47.125 51.421875 43.28125 58.90625 
Q 39.453125 66.40625 31.78125 66.40625 
z
M 31.78125 74.21875 
Q 44.046875 74.21875 50.515625 64.515625 
Q 56.984375 54.828125 56.984375 36.375 
Q 56.984375 17.96875 50.515625 8.265625 
Q 44.046875 -1.421875 31.78125 -1.421875 
Q 19.53125 -1.421875 13.0625 8.265625 
Q 6.59375 17.96875 6.59375 36.375 
Q 6.59375 54.828125 13.0625 64.515625 
Q 19.53125 74.21875 31.78125 74.21875 
z
" id="DejaVuSans-48"/>
       <path d="M 4.890625 31.390625 
L 31.203125 31.390625 
L 31.203125 23.390625 
L 4.890625 23.390625 
z
" id="DejaVuSans-45"/>
       <path d="M 12.40625 8.296875 
L 28.515625 8.296875 
L 28.515625 63.921875 
L 10.984375 60.40625 
L 10.984375 69.390625 
L 28.421875 72.90625 
L 38.28125 72.90625 
L 38.28125 8.296875 
L 54.390625 8.296875 
L 54.390625 0 
L 12.40625 0 
z
" id="DejaVuSans-49"/>
      </defs>
      <g transform="translate(49.059705 418.798437)scale(0.1 -0.1)">
       <use xlink:href="#DejaVuSans-50"/>
       <use x="63.623047" xlink:href="#DejaVuSans-48"/>
       <use x="127.246094" xlink:href="#DejaVuSans-50"/>
       <use x="190.869141" xlink:href="#DejaVuSans-50"/>
       <use x="254.492188" xlink:href="#DejaVuSans-45"/>
       <use x="290.576172" xlink:href="#DejaVuSans-49"/>
       <use x="354.199219" xlink:href="#DejaVuSans-49"/>
      </g>
     </g>
    </g>
    <g id="xtick_2">
     <g id="line2d_2">
      <g>
       <use style="stroke:#000000;stroke-width:0.8;" x="194.308691" xlink:href="#mdd02b4b523" y="404.2"/>
      </g>
     </g>
     <g id="text_2">
      <!-- 2023-01 -->
      <defs>
       <path d="M 40.578125 39.3125 
Q 47.65625 37.796875 51.625 33 
Q 55.609375 28.21875 55.609375 21.1875 
Q 55.609375 10.40625 48.1875 4.484375 
Q 40.765625 -1.421875 27.09375 -1.421875 
Q 22.515625 -1.421875 17.65625 -0.515625 
Q 12.796875 0.390625 7.625 2.203125 
L 7.625 11.71875 
Q 11.71875 9.328125 16.59375 8.109375 
Q 21.484375 6.890625 26.8125 6.890625 
Q 36.078125 6.890625 40.9375 10.546875 
Q 45.796875 14.203125 45.796875 21.1875 
Q 45.796875 27.640625 41.28125 31.265625 
Q 36.765625 34.90625 28.71875 34.90625 
L 20.21875 34.90625 
L 20.21875 43.015625 
L 29.109375 43.015625 
Q 36.375 43.015625 40.234375 45.921875 
Q 44.09375 48.828125 44.09375 54.296875 
Q 44.09375 59.90625 40.109375 62.90625 
Q 36.140625 65.921875 28.71875 65.921875 
Q 24.65625 65.921875 20.015625 65.03125 
Q 15.375 64.15625 9.8125 62.3125 
L 9.8125 71.09375 
Q 15.4375 72.65625 20.34375 73.4375 
Q 25.25 74.21875 29.59375 74.21875 
Q 40.828125 74.21875 47.359375 69.109375 
Q 53.90625 64.015625 53.90625 55.328125 
Q 53.90625 49.265625 50.4375 45.09375 
Q 46.96875 40.921875 40.578125 39.3125 
z
" id="DejaVuSans-51"/>
      </defs>
      <g transform="translate(173.417285 418.798437)scale(0.1 -0.1)">
       <use xlink:href="#DejaVuSans-50"/>
       <use x="63.623047" xlink:href="#DejaVuSans-48"/>
       <use x="127.246094" xlink:href="#DejaVuSans-50"/>
       <use x="190.869141" xlink:href="#DejaVuSans-51"/>
       <use x="254.492188" xlink:href="#DejaVuSans-45"/>
       <use x="290.576172" xlink:href="#DejaVuSans-48"/>
       <use x="354.199219" xlink:href="#DejaVuSans-49"/>
      </g>
     </g>
    </g>
    <g id="xtick_3">
     <g id="line2d_3">
      <g>
       <use style="stroke:#000000;stroke-width:0.8;" x="314.588974" xlink:href="#mdd02b4b523" y="404.2"/>
      </g>
     </g>
     <g id="text_3">
      <!-- 2023-03 -->
      <g transform="translate(293.697567 418.798437)scale(0.1 -0.1)">
       <use xlink:href="#DejaVuSans-50"/>
       <use x="63.623047" xlink:href="#DejaVuSans-48"/>
       <use x="127.246094" xlink:href="#DejaVuSans-50"/>
       <use x="190.869141" xlink:href="#DejaVuSans-51"/>
       <use x="254.492188" xlink:href="#DejaVuSans-45"/>
       <use x="290.576172" xlink:href="#DejaVuSans-48"/>
       <use x="354.199219" xlink:href="#DejaVuSans-51"/>
      </g>
     </g>
    </g>
    <g id="xtick_4">
     <g id="line2d_4">
      <g>
       <use style="stroke:#000000;stroke-width:0.8;" x="438.946553" xlink:href="#mdd02b4b523" y="404.2"/>
      </g>
     </g>
     <g id="text_4">
      <!-- 2023-05 -->
      <defs>
       <path d="M 10.796875 72.90625 
L 49.515625 72.90625 
L 49.515625 64.59375 
L 19.828125 64.59375 
L 19.828125 46.734375 
Q 21.96875 47.46875 24.109375 47.828125 
Q 26.265625 48.1875 28.421875 48.1875 
Q 40.625 48.1875 47.75 41.5 
Q 54.890625 34.8125 54.890625 23.390625 
Q 54.890625 11.625 47.5625 5.09375 
Q 40.234375 -1.421875 26.90625 -1.421875 
Q 22.3125 -1.421875 17.546875 -0.640625 
Q 12.796875 0.140625 7.71875 1.703125 
L 7.71875 11.625 
Q 12.109375 9.234375 16.796875 8.0625 
Q 21.484375 6.890625 26.703125 6.890625 
Q 35.15625 6.890625 40.078125 11.328125 
Q 45.015625 15.765625 45.015625 23.390625 
Q 45.015625 31 40.078125 35.4375 
Q 35.15625 39.890625 26.703125 39.890625 
Q 22.75 39.890625 18.8125 39.015625 
Q 14.890625 38.140625 10.796875 36.28125 
z
" id="DejaVuSans-53"/>
      </defs>
      <g transform="translate(418.055147 418.798437)scale(0.1 -0.1)">
       <use xlink:href="#DejaVuSans-50"/>
       <use x="63.623047" xlink:href="#DejaVuSans-48"/>
       <use x="127.246094" xlink:href="#DejaVuSans-50"/>
       <use x="190.869141" xlink:href="#DejaVuSans-51"/>
       <use x="254.492188" xlink:href="#DejaVuSans-45"/>
       <use x="290.576172" xlink:href="#DejaVuSans-48"/>
       <use x="354.199219" xlink:href="#DejaVuSans-53"/>
      </g>
     </g>
    </g>
    <g id="xtick_5">
     <g id="line2d_5">
      <g>
       <use style="stroke:#000000;stroke-width:0.8;" x="563.304133" xlink:href="#mdd02b4b523" y="404.2"/>
      </g>
     </g>
     <g id="text_5">
      <!-- 2023-07 -->
      <defs>
       <path d="M 8.203125 72.90625 
L 55.078125 72.90625 
L 55.078125 68.703125 
L 28.609375 0 
L 18.3125 0 
L 43.21875 64.59375 
L 8.203125 64.59375 
z
" id="DejaVuSans-55"/>
      </defs>
      <g transform="translate(542.412727 418.798437)scale(0.1 -0.1)">
       <use xlink:href="#DejaVuSans-50"/>
       <use x="63.623047" xlink:href="#DejaVuSans-48"/>
       <use x="127.246094" xlink:href="#DejaVuSans-50"/>
       <use x="190.869141" xlink:href="#DejaVuSans-51"/>
       <use x="254.492188" xlink:href="#DejaVuSans-45"/>
       <use x="290.576172" xlink:href="#DejaVuSans-48"/>
       <use x="354.199219" xlink:href="#DejaVuSans-55"/>
      </g>
     </g>
    </g>
    <g id="xtick_6">
     <g id="line2d_6">
      <g>
       <use style="stroke:#000000;stroke-width:0.8;" x="689.700362" xlink:href="#mdd02b4b523" y="404.2"/>
      </g>
     </g>
     <g id="text_6">
      <!-- 2023-09 -->
      <defs>
       <path d="M 10.984375 1.515625 
L 10.984375 10.5 
Q 14.703125 8.734375 18.5 7.8125 
Q 22.3125 6.890625 25.984375 6.890625 
Q 35.75 6.890625 40.890625 13.453125 
Q 46.046875 20.015625 46.78125 33.40625 
Q 43.953125 29.203125 39.59375 26.953125 
Q 35.25 24.703125 29.984375 24.703125 
Q 19.046875 24.703125 12.671875 31.3125 
Q 6.296875 37.9375 6.296875 49.421875 
Q 6.296875 60.640625 12.9375 67.421875 
Q 19.578125 74.21875 30.609375 74.21875 
Q 43.265625 74.21875 49.921875 64.515625 
Q 56.59375 54.828125 56.59375 36.375 
Q 56.59375 19.140625 48.40625 8.859375 
Q 40.234375 -1.421875 26.421875 -1.421875 
Q 22.703125 -1.421875 18.890625 -0.6875 
Q 15.09375 0.046875 10.984375 1.515625 
z
M 30.609375 32.421875 
Q 37.25 32.421875 41.125 36.953125 
Q 45.015625 41.5 45.015625 49.421875 
Q 45.015625 57.28125 41.125 61.84375 
Q 37.25 66.40625 30.609375 66.40625 
Q 23.96875 66.40625 20.09375 61.84375 
Q 16.21875 57.28125 16.21875 49.421875 
Q 16.21875 41.5 20.09375 36.953125 
Q 23.96875 32.421875 30.609375 32.421875 
z
" id="DejaVuSans-57"/>
      </defs>
      <g transform="translate(668.808956 418.798437)scale(0.1 -0.1)">
       <use xlink:href="#DejaVuSans-50"/>
       <use x="63.623047" xlink:href="#DejaVuSans-48"/>
       <use x="127.246094" xlink:href="#DejaVuSans-50"/>
       <use x="190.869141" xlink:href="#DejaVuSans-51"/>
       <use x="254.492188" xlink:href="#DejaVuSans-45"/>
       <use x="290.576172" xlink:href="#DejaVuSans-48"/>
       <use x="354.199219" xlink:href="#DejaVuSans-57"/>
      </g>
     </g>
    </g>
    <g id="xtick_7">
     <g id="line2d_7">
      <g>
       <use style="stroke:#000000;stroke-width:0.8;" x="814.057942" xlink:href="#mdd02b4b523" y="404.2"/>
      </g>
     </g>
     <g id="text_7">
      <!-- 2023-11 -->
      <g transform="translate(793.166536 418.798437)scale(0.1 -0.1)">
       <use xlink:href="#DejaVuSans-50"/>
       <use x="63.623047" xlink:href="#DejaVuSans-48"/>
       <use x="127.246094" xlink:href="#DejaVuSans-50"/>
       <use x="190.869141" xlink:href="#DejaVuSans-51"/>
       <use x="254.492188" xlink:href="#DejaVuSans-45"/>
       <use x="290.576172" xlink:href="#DejaVuSans-49"/>
       <use x="354.199219" xlink:href="#DejaVuSans-49"/>
      </g>
     </g>
    </g>
   </g>
   <g id="matplotlib.axis_2">
    <g id="ytick_1">
     <g id="line2d_8">
      <defs>
       <path d="M 0 0 
L -3.5 0 
" id="m860966a6ca" style="stroke:#000000;stroke-width:0.8;"/>
      </defs>
      <g>
       <use style="stroke:#000000;stroke-width:0.8;" x="36.925" xlink:href="#m860966a6ca" y="387.136364"/>
      </g>
     </g>
     <g id="text_8">
      <!-- 0 -->
      <g transform="translate(23.5625 390.935582)scale(0.1 -0.1)">
       <use xlink:href="#DejaVuSans-48"/>
      </g>
     </g>
    </g>
    <g id="ytick_2">
     <g id="line2d_9">
      <g>
       <use style="stroke:#000000;stroke-width:0.8;" x="36.925" xlink:href="#m860966a6ca" y="331.432009"/>
      </g>
     </g>
     <g id="text_9">
      <!-- 20 -->
      <g transform="translate(17.2 335.231227)scale(0.1 -0.1)">
       <use xlink:href="#DejaVuSans-50"/>
       <use x="63.623047" xlink:href="#DejaVuSans-48"/>
      </g>
     </g>
    </g>
    <g id="ytick_3">
     <g id="line2d_10">
      <g>
       <use style="stroke:#000000;stroke-width:0.8;" x="36.925" xlink:href="#m860966a6ca" y="275.727654"/>
      </g>
     </g>
     <g id="text_10">
      <!-- 40 -->
      <defs>
       <path d="M 37.796875 64.3125 
L 12.890625 25.390625 
L 37.796875 25.390625 
z
M 35.203125 72.90625 
L 47.609375 72.90625 
L 47.609375 25.390625 
L 58.015625 25.390625 
L 58.015625 17.1875 
L 47.609375 17.1875 
L 47.609375 0 
L 37.796875 0 
L 37.796875 17.1875 
L 4.890625 17.1875 
L 4.890625 26.703125 
z
" id="DejaVuSans-52"/>
      </defs>
      <g transform="translate(17.2 279.526872)scale(0.1 -0.1)">
       <use xlink:href="#DejaVuSans-52"/>
       <use x="63.623047" xlink:href="#DejaVuSans-48"/>
      </g>
     </g>
    </g>
    <g id="ytick_4">
     <g id="line2d_11">
      <g>
       <use style="stroke:#000000;stroke-width:0.8;" x="36.925" xlink:href="#m860966a6ca" y="220.023299"/>
      </g>
     </g>
     <g id="text_11">
      <!-- 60 -->
      <defs>
       <path d="M 33.015625 40.375 
Q 26.375 40.375 22.484375 35.828125 
Q 18.609375 31.296875 18.609375 23.390625 
Q 18.609375 15.53125 22.484375 10.953125 
Q 26.375 6.390625 33.015625 6.390625 
Q 39.65625 6.390625 43.53125 10.953125 
Q 47.40625 15.53125 47.40625 23.390625 
Q 47.40625 31.296875 43.53125 35.828125 
Q 39.65625 40.375 33.015625 40.375 
z
M 52.59375 71.296875 
L 52.59375 62.3125 
Q 48.875 64.0625 45.09375 64.984375 
Q 41.3125 65.921875 37.59375 65.921875 
Q 27.828125 65.921875 22.671875 59.328125 
Q 17.53125 52.734375 16.796875 39.40625 
Q 19.671875 43.65625 24.015625 45.921875 
Q 28.375 48.1875 33.59375 48.1875 
Q 44.578125 48.1875 50.953125 41.515625 
Q 57.328125 34.859375 57.328125 23.390625 
Q 57.328125 12.15625 50.6875 5.359375 
Q 44.046875 -1.421875 33.015625 -1.421875 
Q 20.359375 -1.421875 13.671875 8.265625 
Q 6.984375 17.96875 6.984375 36.375 
Q 6.984375 53.65625 15.1875 63.9375 
Q 23.390625 74.21875 37.203125 74.21875 
Q 40.921875 74.21875 44.703125 73.484375 
Q 48.484375 72.75 52.59375 71.296875 
z
" id="DejaVuSans-54"/>
      </defs>
      <g transform="translate(17.2 223.822518)scale(0.1 -0.1)">
       <use xlink:href="#DejaVuSans-54"/>
       <use x="63.623047" xlink:href="#DejaVuSans-48"/>
      </g>
     </g>
    </g>
    <g id="ytick_5">
     <g id="line2d_12">
      <g>
       <use style="stroke:#000000;stroke-width:0.8;" x="36.925" xlink:href="#m860966a6ca" y="164.318944"/>
      </g>
     </g>
     <g id="text_12">
      <!-- 80 -->
      <defs>
       <path d="M 31.78125 34.625 
Q 24.75 34.625 20.71875 30.859375 
Q 16.703125 27.09375 16.703125 20.515625 
Q 16.703125 13.921875 20.71875 10.15625 
Q 24.75 6.390625 31.78125 6.390625 
Q 38.8125 6.390625 42.859375 10.171875 
Q 46.921875 13.96875 46.921875 20.515625 
Q 46.921875 27.09375 42.890625 30.859375 
Q 38.875 34.625 31.78125 34.625 
z
M 21.921875 38.8125 
Q 15.578125 40.375 12.03125 44.71875 
Q 8.5 49.078125 8.5 55.328125 
Q 8.5 64.0625 14.71875 69.140625 
Q 20.953125 74.21875 31.78125 74.21875 
Q 42.671875 74.21875 48.875 69.140625 
Q 55.078125 64.0625 55.078125 55.328125 
Q 55.078125 49.078125 51.53125 44.71875 
Q 48 40.375 41.703125 38.8125 
Q 48.828125 37.15625 52.796875 32.3125 
Q 56.78125 27.484375 56.78125 20.515625 
Q 56.78125 9.90625 50.3125 4.234375 
Q 43.84375 -1.421875 31.78125 -1.421875 
Q 19.734375 -1.421875 13.25 4.234375 
Q 6.78125 9.90625 6.78125 20.515625 
Q 6.78125 27.484375 10.78125 32.3125 
Q 14.796875 37.15625 21.921875 38.8125 
z
M 18.3125 54.390625 
Q 18.3125 48.734375 21.84375 45.5625 
Q 25.390625 42.390625 31.78125 42.390625 
Q 38.140625 42.390625 41.71875 45.5625 
Q 45.3125 48.734375 45.3125 54.390625 
Q 45.3125 60.0625 41.71875 63.234375 
Q 38.140625 66.40625 31.78125 66.40625 
Q 25.390625 66.40625 21.84375 63.234375 
Q 18.3125 60.0625 18.3125 54.390625 
z
" id="DejaVuSans-56"/>
      </defs>
      <g transform="translate(17.2 168.118163)scale(0.1 -0.1)">
       <use xlink:href="#DejaVuSans-56"/>
       <use x="63.623047" xlink:href="#DejaVuSans-48"/>
      </g>
     </g>
    </g>
    <g id="ytick_6">
     <g id="line2d_13">
      <g>
       <use style="stroke:#000000;stroke-width:0.8;" x="36.925" xlink:href="#m860966a6ca" y="108.614589"/>
      </g>
     </g>
     <g id="text_13">
      <!-- 100 -->
      <g transform="translate(10.8375 112.413808)scale(0.1 -0.1)">
       <use xlink:href="#DejaVuSans-49"/>
       <use x="63.623047" xlink:href="#DejaVuSans-48"/>
       <use x="127.246094" xlink:href="#DejaVuSans-48"/>
      </g>
     </g>
    </g>
    <g id="ytick_7">
     <g id="line2d_14">
      <g>
       <use style="stroke:#000000;stroke-width:0.8;" x="36.925" xlink:href="#m860966a6ca" y="52.910234"/>
      </g>
     </g>
     <g id="text_14">
      <!-- 120 -->
      <g transform="translate(10.8375 56.709453)scale(0.1 -0.1)">
       <use xlink:href="#DejaVuSans-49"/>
       <use x="63.623047" xlink:href="#DejaVuSans-50"/>
       <use x="127.246094" xlink:href="#DejaVuSans-48"/>
      </g>
     </g>
    </g>
   </g>
   <g id="patch_3">
    <path d="M 36.925 404.2 
L 36.925 28.8 
" style="fill:none;stroke:#000000;stroke-linecap:square;stroke-linejoin:miter;stroke-width:0.8;"/>
   </g>
   <g id="patch_4">
    <path d="M 853.2 404.2 
L 853.2 28.8 
" style="fill:none;stroke:#000000;stroke-linecap:square;stroke-linejoin:miter;stroke-width:0.8;"/>
   </g>
   <g id="patch_5">
    <path d="M 36.925 404.2 
L 853.2 404.2 
" style="fill:none;stroke:#000000;stroke-linecap:square;stroke-linejoin:miter;stroke-width:0.8;"/>
   </g>
   <g id="patch_6">
    <path d="M 36.925 28.8 
L 853.2 28.8 
" style="fill:none;stroke:#000000;stroke-linecap:square;stroke-linejoin:miter;stroke-width:0.8;"/>
   </g>
   <g id="text_15">
    <!-- EXPE - 8.23% -->
    <defs>
     <path d="M 9.1875 72.90625 
L 59.90625 72.90625 
L 59.90625 58.6875 
L 27.984375 58.6875 
L 27.984375 45.125 
L 58.015625 45.125 
L 58.015625 30.90625 
L 27.984375 30.90625 
L 27.984375 14.203125 
L 60.984375 14.203125 
L 60.984375 0 
L 9.1875 0 
z
" id="DejaVuSans-Bold-69"/>
     <path d="M 49.8125 37.203125 
L 75.09375 0 
L 55.515625 0 
L 38.484375 24.90625 
L 21.578125 0 
L 1.90625 0 
L 27.203125 37.203125 
L 2.875 72.90625 
L 22.515625 72.90625 
L 38.484375 49.421875 
L 54.390625 72.90625 
L 74.125 72.90625 
z
" id="DejaVuSans-Bold-88"/>
     <path d="M 9.1875 72.90625 
L 40.375 72.90625 
Q 54.296875 72.90625 61.734375 66.71875 
Q 69.1875 60.546875 69.1875 49.125 
Q 69.1875 37.640625 61.734375 31.46875 
Q 54.296875 25.296875 40.375 25.296875 
L 27.984375 25.296875 
L 27.984375 0 
L 9.1875 0 
z
M 27.984375 59.28125 
L 27.984375 38.921875 
L 38.375 38.921875 
Q 43.84375 38.921875 46.828125 41.578125 
Q 49.8125 44.234375 49.8125 49.125 
Q 49.8125 54 46.828125 56.640625 
Q 43.84375 59.28125 38.375 59.28125 
z
" id="DejaVuSans-Bold-80"/>
     <path id="DejaVuSans-Bold-32"/>
     <path d="M 5.421875 35.890625 
L 36.078125 35.890625 
L 36.078125 21.6875 
L 5.421875 21.6875 
z
" id="DejaVuSans-Bold-45"/>
     <path d="M 34.8125 32.625 
Q 29.546875 32.625 26.703125 29.734375 
Q 23.875 26.859375 23.875 21.484375 
Q 23.875 16.109375 26.703125 13.25 
Q 29.546875 10.40625 34.8125 10.40625 
Q 40.046875 10.40625 42.828125 13.25 
Q 45.609375 16.109375 45.609375 21.484375 
Q 45.609375 26.90625 42.828125 29.765625 
Q 40.046875 32.625 34.8125 32.625 
z
M 21.09375 38.8125 
Q 14.453125 40.828125 11.078125 44.96875 
Q 7.71875 49.125 7.71875 55.328125 
Q 7.71875 64.546875 14.59375 69.375 
Q 21.484375 74.21875 34.8125 74.21875 
Q 48.046875 74.21875 54.921875 69.40625 
Q 61.8125 64.59375 61.8125 55.328125 
Q 61.8125 49.125 58.421875 44.96875 
Q 55.03125 40.828125 48.390625 38.8125 
Q 55.8125 36.765625 59.59375 32.15625 
Q 63.375 27.546875 63.375 20.515625 
Q 63.375 9.671875 56.171875 4.125 
Q 48.96875 -1.421875 34.8125 -1.421875 
Q 20.609375 -1.421875 13.359375 4.125 
Q 6.109375 9.671875 6.109375 20.515625 
Q 6.109375 27.546875 9.890625 32.15625 
Q 13.671875 36.765625 21.09375 38.8125 
z
M 25.484375 53.421875 
Q 25.484375 49.078125 27.90625 46.734375 
Q 30.328125 44.390625 34.8125 44.390625 
Q 39.203125 44.390625 41.59375 46.734375 
Q 44 49.078125 44 53.421875 
Q 44 57.765625 41.59375 60.078125 
Q 39.203125 62.40625 34.8125 62.40625 
Q 30.328125 62.40625 27.90625 60.0625 
Q 25.484375 57.71875 25.484375 53.421875 
z
" id="DejaVuSans-Bold-56"/>
     <path d="M 10.203125 18.890625 
L 27.78125 18.890625 
L 27.78125 0 
L 10.203125 0 
z
" id="DejaVuSans-Bold-46"/>
     <path d="M 28.8125 13.8125 
L 60.890625 13.8125 
L 60.890625 0 
L 7.90625 0 
L 7.90625 13.8125 
L 34.515625 37.3125 
Q 38.09375 40.53125 39.796875 43.609375 
Q 41.5 46.6875 41.5 50 
Q 41.5 55.125 38.0625 58.25 
Q 34.625 61.375 28.90625 61.375 
Q 24.515625 61.375 19.28125 59.5 
Q 14.0625 57.625 8.109375 53.90625 
L 8.109375 69.921875 
Q 14.453125 72.015625 20.65625 73.109375 
Q 26.859375 74.21875 32.8125 74.21875 
Q 45.90625 74.21875 53.15625 68.453125 
Q 60.40625 62.703125 60.40625 52.390625 
Q 60.40625 46.4375 57.328125 41.28125 
Q 54.25 36.140625 44.390625 27.484375 
z
" id="DejaVuSans-Bold-50"/>
     <path d="M 46.578125 39.3125 
Q 53.953125 37.40625 57.78125 32.6875 
Q 61.625 27.984375 61.625 20.703125 
Q 61.625 9.859375 53.3125 4.21875 
Q 45.015625 -1.421875 29.109375 -1.421875 
Q 23.484375 -1.421875 17.84375 -0.515625 
Q 12.203125 0.390625 6.6875 2.203125 
L 6.6875 16.703125 
Q 11.96875 14.0625 17.15625 12.71875 
Q 22.359375 11.375 27.390625 11.375 
Q 34.859375 11.375 38.84375 13.953125 
Q 42.828125 16.546875 42.828125 21.390625 
Q 42.828125 26.375 38.75 28.9375 
Q 34.671875 31.5 26.703125 31.5 
L 19.1875 31.5 
L 19.1875 43.609375 
L 27.09375 43.609375 
Q 34.1875 43.609375 37.640625 45.828125 
Q 41.109375 48.046875 41.109375 52.59375 
Q 41.109375 56.78125 37.734375 59.078125 
Q 34.375 61.375 28.21875 61.375 
Q 23.6875 61.375 19.046875 60.34375 
Q 14.40625 59.328125 9.8125 57.328125 
L 9.8125 71.09375 
Q 15.375 72.65625 20.84375 73.4375 
Q 26.3125 74.21875 31.59375 74.21875 
Q 45.796875 74.21875 52.84375 69.546875 
Q 59.90625 64.890625 59.90625 55.515625 
Q 59.90625 49.125 56.53125 45.046875 
Q 53.171875 40.96875 46.578125 39.3125 
z
" id="DejaVuSans-Bold-51"/>
     <path d="M 77.484375 30.078125 
Q 74.03125 30.078125 72.125 27.078125 
Q 70.21875 24.078125 70.21875 18.5 
Q 70.21875 12.890625 72.09375 9.890625 
Q 73.96875 6.890625 77.484375 6.890625 
Q 81 6.890625 82.859375 9.890625 
Q 84.71875 12.890625 84.71875 18.5 
Q 84.71875 24.078125 82.828125 27.078125 
Q 80.953125 30.078125 77.484375 30.078125 
z
M 77.484375 38.28125 
Q 86.578125 38.28125 91.796875 33 
Q 97.015625 27.734375 97.015625 18.5 
Q 97.015625 9.28125 91.796875 3.921875 
Q 86.578125 -1.421875 77.484375 -1.421875 
Q 68.40625 -1.421875 63.15625 3.921875 
Q 57.90625 9.28125 57.90625 18.5 
Q 57.90625 27.6875 63.15625 32.984375 
Q 68.40625 38.28125 77.484375 38.28125 
z
M 32.71875 -1.421875 
L 21.921875 -1.421875 
L 67.484375 74.21875 
L 78.328125 74.21875 
z
M 22.703125 74.21875 
Q 31.78125 74.21875 36.984375 68.921875 
Q 42.1875 63.625 42.1875 54.390625 
Q 42.1875 45.171875 36.984375 39.84375 
Q 31.78125 34.515625 22.703125 34.515625 
Q 13.625 34.515625 8.421875 39.84375 
Q 3.21875 45.171875 3.21875 54.390625 
Q 3.21875 63.625 8.421875 68.921875 
Q 13.625 74.21875 22.703125 74.21875 
z
M 22.703125 66.015625 
Q 19.1875 66.015625 17.28125 62.984375 
Q 15.375 59.96875 15.375 54.390625 
Q 15.375 48.78125 17.28125 45.71875 
Q 19.1875 42.671875 22.703125 42.671875 
Q 26.21875 42.671875 28.09375 45.71875 
Q 29.984375 48.78125 29.984375 54.390625 
Q 29.984375 59.96875 28.078125 62.984375 
Q 26.171875 66.015625 22.703125 66.015625 
z
" id="DejaVuSans-Bold-37"/>
    </defs>
    <g transform="translate(36.925 22.8)scale(0.16 -0.16)">
     <use xlink:href="#DejaVuSans-Bold-69"/>
     <use x="68.310547" xlink:href="#DejaVuSans-Bold-88"/>
     <use x="145.410156" xlink:href="#DejaVuSans-Bold-80"/>
     <use x="218.701172" xlink:href="#DejaVuSans-Bold-69"/>
     <use x="287.011719" xlink:href="#DejaVuSans-Bold-32"/>
     <use x="321.826172" xlink:href="#DejaVuSans-Bold-45"/>
     <use x="363.330078" xlink:href="#DejaVuSans-Bold-32"/>
     <use x="398.144531" xlink:href="#DejaVuSans-Bold-56"/>
     <use x="467.724609" xlink:href="#DejaVuSans-Bold-46"/>
     <use x="505.712891" xlink:href="#DejaVuSans-Bold-50"/>
     <use x="575.292969" xlink:href="#DejaVuSans-Bold-51"/>
     <use x="644.873047" xlink:href="#DejaVuSans-Bold-37"/>
    </g>
   </g>
  </g>
 </g>
 <defs>
  <clipPath id="p134e9f0d19">
   <rect height="375.4" width="816.275" x="36.925" y="28.8"/>
  </clipPath>
 </defs>
</svg>
