<?xml version="1.0" encoding="utf-8" standalone="no"?>
<!DOCTYPE svg PUBLIC "-//W3C//DTD SVG 1.1//EN"
  "http://www.w3.org/Graphics/SVG/1.1/DTD/svg11.dtd">
<!-- Created with matplotlib (https://matplotlib.org/) -->
<svg height="432pt" version="1.1" viewBox="0 0 864 432" width="864pt" xmlns="http://www.w3.org/2000/svg" xmlns:xlink="http://www.w3.org/1999/xlink">
 <defs>
  <style type="text/css">
*{stroke-linecap:butt;stroke-linejoin:round;}
  </style>
 </defs>
 <g id="figure_1">
  <g id="patch_1">
   <path d="M 0 432 
L 864 432 
L 864 0 
L 0 0 
z
" style="fill:none;"/>
  </g>
  <g id="axes_1">
   <g id="patch_2">
    <path d="M 94.3 385.2 
L 840.323864 385.2 
L 840.323864 88.8 
L 94.3 88.8 
z
" style="fill:none;"/>
   </g>
   <g id="PolyCollection_1">
    <path clip-path="url(#p7fff1ab7e8)" d="M 128.210176 1164.26914 
L 128.210176 385.2 
L 131.896064 367.803261 
L 135.581953 378.357805 
L 146.639619 356.583257 
L 150.325508 373.761605 
L 154.011396 368.562334 
L 157.697285 361.366561 
L 161.383174 341.099814 
L 176.126728 342.35806 
L 179.812617 345.207251 
L 183.498505 339.415255 
L 187.184394 341.910867 
L 198.24206 341.120631 
L 201.927949 342.794781 
L 205.613837 376.912393 
L 209.299726 367.02337 
L 212.985615 358.68372 
L 224.043281 332.198665 
L 227.729169 330.742844 
L 231.415058 337.325138 
L 235.100947 330.191754 
L 238.786835 332.427403 
L 253.53039 337.023604 
L 257.216279 342.264446 
L 260.902167 346.059939 
L 264.588056 357.290351 
L 275.645722 365.162054 
L 279.33161 357.820686 
L 283.017499 345.03043 
L 286.703388 335.983749 
L 290.389276 322.808752 
L 301.446942 337.585102 
L 308.81872 340.73589 
L 312.504608 350.687239 
L 316.190497 338.843348 
L 327.248163 329.910973 
L 330.934052 323.640686 
L 334.61994 320.978662 
L 338.305829 321.155419 
L 341.991718 306.961385 
L 353.049384 293.661673 
L 356.735272 286.975419 
L 360.421161 285.748399 
L 364.107049 278.147068 
L 367.792938 286.112322 
L 378.850604 296.219674 
L 382.536493 277.803898 
L 386.222381 296.2509 
L 389.90827 311.255988 
L 393.594159 306.420704 
L 404.651825 292.9026 
L 408.337713 301.512559 
L 412.023602 309.311465 
L 415.709491 275.006688 
L 419.395379 289.730994 
L 430.453045 268.673948 
L 434.138934 273.987651 
L 437.824823 275.433 
L 441.510711 270.940822 
L 445.1966 269.880214 
L 456.254266 253.710495 
L 459.940155 258.462573 
L 463.626043 281.640962 
L 467.311932 287.172994 
L 470.99782 284.417355 
L 482.055486 285.176428 
L 485.741375 287.141768 
L 489.427264 270.088198 
L 493.113152 283.606302 
L 496.799041 278.427785 
L 507.856707 264.795312 
L 511.542596 240.525089 
L 515.228484 229.762624 
L 518.914373 223.627459 
L 522.600262 231.977518 
L 537.343816 235.980932 
L 541.029705 220.206362 
L 544.715594 224.012264 
L 548.401482 228.691607 
L 559.459148 223.273944 
L 563.145037 238.435036 
L 566.830925 231.041624 
L 570.516814 221.620548 
L 574.202703 237.343138 
L 585.260369 225.156078 
L 588.946257 218.033102 
L 592.632146 224.376187 
L 596.318035 238.965308 
L 600.003923 239.308477 
L 611.061589 238.819776 
L 614.747478 258.32745 
L 618.433367 243.363934 
L 622.119255 242.08487 
L 625.805144 261.124597 
L 636.86281 266.261479 
L 640.548699 294.389584 
L 644.234587 269.110733 
L 647.920476 267.363722 
L 651.606365 255.935735 
L 662.66403 239.433255 
L 666.349919 239.68281 
L 670.035808 223.533908 
L 673.721696 236.365672 
L 677.407585 233.24611 
L 688.465251 242.334489 
L 692.15114 209.381508 
L 695.837028 213.114549 
L 699.522917 208.372817 
L 703.208806 215.922168 
L 714.266472 200.126781 
L 717.95236 267.790097 
L 721.638249 306.285518 
L 725.324138 301.481397 
L 729.010026 282.368873 
L 740.067692 279.051736 
L 743.753581 284.687727 
L 747.43947 258.566596 
L 751.125358 227.682916 
L 754.811247 196.778481 
L 765.868913 199.534057 
L 769.554801 188.469994 
L 773.24069 186.359123 
L 776.926579 163.201551 
L 780.612467 127.84651 
L 791.670133 111.655974 
L 795.356022 96.182939 
L 799.041911 102.619639 
L 802.727799 88.997511 
L 806.413688 88.8 
L 806.413688 1164.26914 
L 806.413688 1164.26914 
L 802.727799 1164.26914 
L 799.041911 1164.26914 
L 795.356022 1164.26914 
L 791.670133 1164.26914 
L 780.612467 1164.26914 
L 776.926579 1164.26914 
L 773.24069 1164.26914 
L 769.554801 1164.26914 
L 765.868913 1164.26914 
L 754.811247 1164.26914 
L 751.125358 1164.26914 
L 747.43947 1164.26914 
L 743.753581 1164.26914 
L 740.067692 1164.26914 
L 729.010026 1164.26914 
L 725.324138 1164.26914 
L 721.638249 1164.26914 
L 717.95236 1164.26914 
L 714.266472 1164.26914 
L 703.208806 1164.26914 
L 699.522917 1164.26914 
L 695.837028 1164.26914 
L 692.15114 1164.26914 
L 688.465251 1164.26914 
L 677.407585 1164.26914 
L 673.721696 1164.26914 
L 670.035808 1164.26914 
L 666.349919 1164.26914 
L 662.66403 1164.26914 
L 651.606365 1164.26914 
L 647.920476 1164.26914 
L 644.234587 1164.26914 
L 640.548699 1164.26914 
L 636.86281 1164.26914 
L 625.805144 1164.26914 
L 622.119255 1164.26914 
L 618.433367 1164.26914 
L 614.747478 1164.26914 
L 611.061589 1164.26914 
L 600.003923 1164.26914 
L 596.318035 1164.26914 
L 592.632146 1164.26914 
L 588.946257 1164.26914 
L 585.260369 1164.26914 
L 574.202703 1164.26914 
L 570.516814 1164.26914 
L 566.830925 1164.26914 
L 563.145037 1164.26914 
L 559.459148 1164.26914 
L 548.401482 1164.26914 
L 544.715594 1164.26914 
L 541.029705 1164.26914 
L 537.343816 1164.26914 
L 522.600262 1164.26914 
L 518.914373 1164.26914 
L 515.228484 1164.26914 
L 511.542596 1164.26914 
L 507.856707 1164.26914 
L 496.799041 1164.26914 
L 493.113152 1164.26914 
L 489.427264 1164.26914 
L 485.741375 1164.26914 
L 482.055486 1164.26914 
L 470.99782 1164.26914 
L 467.311932 1164.26914 
L 463.626043 1164.26914 
L 459.940155 1164.26914 
L 456.254266 1164.26914 
L 445.1966 1164.26914 
L 441.510711 1164.26914 
L 437.824823 1164.26914 
L 434.138934 1164.26914 
L 430.453045 1164.26914 
L 419.395379 1164.26914 
L 415.709491 1164.26914 
L 412.023602 1164.26914 
L 408.337713 1164.26914 
L 404.651825 1164.26914 
L 393.594159 1164.26914 
L 389.90827 1164.26914 
L 386.222381 1164.26914 
L 382.536493 1164.26914 
L 378.850604 1164.26914 
L 367.792938 1164.26914 
L 364.107049 1164.26914 
L 360.421161 1164.26914 
L 356.735272 1164.26914 
L 353.049384 1164.26914 
L 341.991718 1164.26914 
L 338.305829 1164.26914 
L 334.61994 1164.26914 
L 330.934052 1164.26914 
L 327.248163 1164.26914 
L 316.190497 1164.26914 
L 312.504608 1164.26914 
L 308.81872 1164.26914 
L 301.446942 1164.26914 
L 290.389276 1164.26914 
L 286.703388 1164.26914 
L 283.017499 1164.26914 
L 279.33161 1164.26914 
L 275.645722 1164.26914 
L 264.588056 1164.26914 
L 260.902167 1164.26914 
L 257.216279 1164.26914 
L 253.53039 1164.26914 
L 238.786835 1164.26914 
L 235.100947 1164.26914 
L 231.415058 1164.26914 
L 227.729169 1164.26914 
L 224.043281 1164.26914 
L 212.985615 1164.26914 
L 209.299726 1164.26914 
L 205.613837 1164.26914 
L 201.927949 1164.26914 
L 198.24206 1164.26914 
L 187.184394 1164.26914 
L 183.498505 1164.26914 
L 179.812617 1164.26914 
L 176.126728 1164.26914 
L 161.383174 1164.26914 
L 157.697285 1164.26914 
L 154.011396 1164.26914 
L 150.325508 1164.26914 
L 146.639619 1164.26914 
L 135.581953 1164.26914 
L 131.896064 1164.26914 
L 128.210176 1164.26914 
z
" style="fill:#0000ff;fill-opacity:0.1;stroke:#0000ff;stroke-opacity:0.1;"/>
   </g>
   <g id="matplotlib.axis_1">
    <g id="xtick_1">
     <g id="line2d_1">
      <defs>
       <path d="M 0 0 
L 0 3.5 
" id="me4b055251f" style="stroke:#000000;stroke-width:0.8;"/>
      </defs>
      <g>
       <use style="stroke:#000000;stroke-width:0.8;" x="128.210176" xlink:href="#me4b055251f" y="385.2"/>
      </g>
     </g>
     <g id="text_1">
      <!-- 05/23 -->
      <defs>
       <path d="M 31.78125 66.40625 
Q 24.171875 66.40625 20.328125 58.90625 
Q 16.5 51.421875 16.5 36.375 
Q 16.5 21.390625 20.328125 13.890625 
Q 24.171875 6.390625 31.78125 6.390625 
Q 39.453125 6.390625 43.28125 13.890625 
Q 47.125 21.390625 47.125 36.375 
Q 47.125 51.421875 43.28125 58.90625 
Q 39.453125 66.40625 31.78125 66.40625 
z
M 31.78125 74.21875 
Q 44.046875 74.21875 50.515625 64.515625 
Q 56.984375 54.828125 56.984375 36.375 
Q 56.984375 17.96875 50.515625 8.265625 
Q 44.046875 -1.421875 31.78125 -1.421875 
Q 19.53125 -1.421875 13.0625 8.265625 
Q 6.59375 17.96875 6.59375 36.375 
Q 6.59375 54.828125 13.0625 64.515625 
Q 19.53125 74.21875 31.78125 74.21875 
z
" id="DejaVuSans-48"/>
       <path d="M 10.796875 72.90625 
L 49.515625 72.90625 
L 49.515625 64.59375 
L 19.828125 64.59375 
L 19.828125 46.734375 
Q 21.96875 47.46875 24.109375 47.828125 
Q 26.265625 48.1875 28.421875 48.1875 
Q 40.625 48.1875 47.75 41.5 
Q 54.890625 34.8125 54.890625 23.390625 
Q 54.890625 11.625 47.5625 5.09375 
Q 40.234375 -1.421875 26.90625 -1.421875 
Q 22.3125 -1.421875 17.546875 -0.640625 
Q 12.796875 0.140625 7.71875 1.703125 
L 7.71875 11.625 
Q 12.109375 9.234375 16.796875 8.0625 
Q 21.484375 6.890625 26.703125 6.890625 
Q 35.15625 6.890625 40.078125 11.328125 
Q 45.015625 15.765625 45.015625 23.390625 
Q 45.015625 31 40.078125 35.4375 
Q 35.15625 39.890625 26.703125 39.890625 
Q 22.75 39.890625 18.8125 39.015625 
Q 14.890625 38.140625 10.796875 36.28125 
z
" id="DejaVuSans-53"/>
       <path d="M 25.390625 72.90625 
L 33.6875 72.90625 
L 8.296875 -9.28125 
L 0 -9.28125 
z
" id="DejaVuSans-47"/>
       <path d="M 19.1875 8.296875 
L 53.609375 8.296875 
L 53.609375 0 
L 7.328125 0 
L 7.328125 8.296875 
Q 12.9375 14.109375 22.625 23.890625 
Q 32.328125 33.6875 34.8125 36.53125 
Q 39.546875 41.84375 41.421875 45.53125 
Q 43.3125 49.21875 43.3125 52.78125 
Q 43.3125 58.59375 39.234375 62.25 
Q 35.15625 65.921875 28.609375 65.921875 
Q 23.96875 65.921875 18.8125 64.3125 
Q 13.671875 62.703125 7.8125 59.421875 
L 7.8125 69.390625 
Q 13.765625 71.78125 18.9375 73 
Q 24.125 74.21875 28.421875 74.21875 
Q 39.75 74.21875 46.484375 68.546875 
Q 53.21875 62.890625 53.21875 53.421875 
Q 53.21875 48.921875 51.53125 44.890625 
Q 49.859375 40.875 45.40625 35.40625 
Q 44.1875 33.984375 37.640625 27.21875 
Q 31.109375 20.453125 19.1875 8.296875 
z
" id="DejaVuSans-50"/>
       <path d="M 40.578125 39.3125 
Q 47.65625 37.796875 51.625 33 
Q 55.609375 28.21875 55.609375 21.1875 
Q 55.609375 10.40625 48.1875 4.484375 
Q 40.765625 -1.421875 27.09375 -1.421875 
Q 22.515625 -1.421875 17.65625 -0.515625 
Q 12.796875 0.390625 7.625 2.203125 
L 7.625 11.71875 
Q 11.71875 9.328125 16.59375 8.109375 
Q 21.484375 6.890625 26.8125 6.890625 
Q 36.078125 6.890625 40.9375 10.546875 
Q 45.796875 14.203125 45.796875 21.1875 
Q 45.796875 27.640625 41.28125 31.265625 
Q 36.765625 34.90625 28.71875 34.90625 
L 20.21875 34.90625 
L 20.21875 43.015625 
L 29.109375 43.015625 
Q 36.375 43.015625 40.234375 45.921875 
Q 44.09375 48.828125 44.09375 54.296875 
Q 44.09375 59.90625 40.109375 62.90625 
Q 36.140625 65.921875 28.71875 65.921875 
Q 24.65625 65.921875 20.015625 65.03125 
Q 15.375 64.15625 9.8125 62.3125 
L 9.8125 71.09375 
Q 15.4375 72.65625 20.34375 73.4375 
Q 25.25 74.21875 29.59375 74.21875 
Q 40.828125 74.21875 47.359375 69.109375 
Q 53.90625 64.015625 53.90625 55.328125 
Q 53.90625 49.265625 50.4375 45.09375 
Q 46.96875 40.921875 40.578125 39.3125 
z
" id="DejaVuSans-51"/>
      </defs>
      <g transform="translate(84.982051 414.995312)scale(0.3 -0.3)">
       <use xlink:href="#DejaVuSans-48"/>
       <use x="63.623047" xlink:href="#DejaVuSans-53"/>
       <use x="127.246094" xlink:href="#DejaVuSans-47"/>
       <use x="160.9375" xlink:href="#DejaVuSans-50"/>
       <use x="224.560547" xlink:href="#DejaVuSans-51"/>
      </g>
     </g>
    </g>
    <g id="xtick_2">
     <g id="line2d_2">
      <g>
       <use style="stroke:#000000;stroke-width:0.8;" x="470.99782" xlink:href="#me4b055251f" y="385.2"/>
      </g>
     </g>
     <g id="text_2">
      <!-- 08/23 -->
      <defs>
       <path d="M 31.78125 34.625 
Q 24.75 34.625 20.71875 30.859375 
Q 16.703125 27.09375 16.703125 20.515625 
Q 16.703125 13.921875 20.71875 10.15625 
Q 24.75 6.390625 31.78125 6.390625 
Q 38.8125 6.390625 42.859375 10.171875 
Q 46.921875 13.96875 46.921875 20.515625 
Q 46.921875 27.09375 42.890625 30.859375 
Q 38.875 34.625 31.78125 34.625 
z
M 21.921875 38.8125 
Q 15.578125 40.375 12.03125 44.71875 
Q 8.5 49.078125 8.5 55.328125 
Q 8.5 64.0625 14.71875 69.140625 
Q 20.953125 74.21875 31.78125 74.21875 
Q 42.671875 74.21875 48.875 69.140625 
Q 55.078125 64.0625 55.078125 55.328125 
Q 55.078125 49.078125 51.53125 44.71875 
Q 48 40.375 41.703125 38.8125 
Q 48.828125 37.15625 52.796875 32.3125 
Q 56.78125 27.484375 56.78125 20.515625 
Q 56.78125 9.90625 50.3125 4.234375 
Q 43.84375 -1.421875 31.78125 -1.421875 
Q 19.734375 -1.421875 13.25 4.234375 
Q 6.78125 9.90625 6.78125 20.515625 
Q 6.78125 27.484375 10.78125 32.3125 
Q 14.796875 37.15625 21.921875 38.8125 
z
M 18.3125 54.390625 
Q 18.3125 48.734375 21.84375 45.5625 
Q 25.390625 42.390625 31.78125 42.390625 
Q 38.140625 42.390625 41.71875 45.5625 
Q 45.3125 48.734375 45.3125 54.390625 
Q 45.3125 60.0625 41.71875 63.234375 
Q 38.140625 66.40625 31.78125 66.40625 
Q 25.390625 66.40625 21.84375 63.234375 
Q 18.3125 60.0625 18.3125 54.390625 
z
" id="DejaVuSans-56"/>
      </defs>
      <g transform="translate(427.769695 414.995312)scale(0.3 -0.3)">
       <use xlink:href="#DejaVuSans-48"/>
       <use x="63.623047" xlink:href="#DejaVuSans-56"/>
       <use x="127.246094" xlink:href="#DejaVuSans-47"/>
       <use x="160.9375" xlink:href="#DejaVuSans-50"/>
       <use x="224.560547" xlink:href="#DejaVuSans-51"/>
      </g>
     </g>
    </g>
    <g id="xtick_3">
     <g id="line2d_3">
      <g>
       <use style="stroke:#000000;stroke-width:0.8;" x="806.413688" xlink:href="#me4b055251f" y="385.2"/>
      </g>
     </g>
     <g id="text_3">
      <!-- 11/23 -->
      <defs>
       <path d="M 12.40625 8.296875 
L 28.515625 8.296875 
L 28.515625 63.921875 
L 10.984375 60.40625 
L 10.984375 69.390625 
L 28.421875 72.90625 
L 38.28125 72.90625 
L 38.28125 8.296875 
L 54.390625 8.296875 
L 54.390625 0 
L 12.40625 0 
z
" id="DejaVuSans-49"/>
      </defs>
      <g transform="translate(763.185563 414.995312)scale(0.3 -0.3)">
       <use xlink:href="#DejaVuSans-49"/>
       <use x="63.623047" xlink:href="#DejaVuSans-49"/>
       <use x="127.246094" xlink:href="#DejaVuSans-47"/>
       <use x="160.9375" xlink:href="#DejaVuSans-50"/>
       <use x="224.560547" xlink:href="#DejaVuSans-51"/>
      </g>
     </g>
    </g>
   </g>
   <g id="matplotlib.axis_2">
    <g id="ytick_1">
     <g id="line2d_4">
      <defs>
       <path d="M 0 0 
L -3.5 0 
" id="m217344b6ea" style="stroke:#000000;stroke-width:0.8;"/>
      </defs>
      <g>
       <use style="stroke:#000000;stroke-width:0.8;" x="94.3" xlink:href="#m217344b6ea" y="332.385831"/>
      </g>
     </g>
     <g id="text_4">
      <!-- 800 -->
      <g transform="translate(30.0375 343.783488)scale(0.3 -0.3)">
       <use xlink:href="#DejaVuSans-56"/>
       <use x="63.623047" xlink:href="#DejaVuSans-48"/>
       <use x="127.246094" xlink:href="#DejaVuSans-48"/>
      </g>
     </g>
    </g>
    <g id="ytick_2">
     <g id="line2d_5">
      <g>
       <use style="stroke:#000000;stroke-width:0.8;" x="94.3" xlink:href="#m217344b6ea" y="228.400418"/>
      </g>
     </g>
     <g id="text_5">
      <!-- 900 -->
      <defs>
       <path d="M 10.984375 1.515625 
L 10.984375 10.5 
Q 14.703125 8.734375 18.5 7.8125 
Q 22.3125 6.890625 25.984375 6.890625 
Q 35.75 6.890625 40.890625 13.453125 
Q 46.046875 20.015625 46.78125 33.40625 
Q 43.953125 29.203125 39.59375 26.953125 
Q 35.25 24.703125 29.984375 24.703125 
Q 19.046875 24.703125 12.671875 31.3125 
Q 6.296875 37.9375 6.296875 49.421875 
Q 6.296875 60.640625 12.9375 67.421875 
Q 19.578125 74.21875 30.609375 74.21875 
Q 43.265625 74.21875 49.921875 64.515625 
Q 56.59375 54.828125 56.59375 36.375 
Q 56.59375 19.140625 48.40625 8.859375 
Q 40.234375 -1.421875 26.421875 -1.421875 
Q 22.703125 -1.421875 18.890625 -0.6875 
Q 15.09375 0.046875 10.984375 1.515625 
z
M 30.609375 32.421875 
Q 37.25 32.421875 41.125 36.953125 
Q 45.015625 41.5 45.015625 49.421875 
Q 45.015625 57.28125 41.125 61.84375 
Q 37.25 66.40625 30.609375 66.40625 
Q 23.96875 66.40625 20.09375 61.84375 
Q 16.21875 57.28125 16.21875 49.421875 
Q 16.21875 41.5 20.09375 36.953125 
Q 23.96875 32.421875 30.609375 32.421875 
z
" id="DejaVuSans-57"/>
      </defs>
      <g transform="translate(30.0375 239.798074)scale(0.3 -0.3)">
       <use xlink:href="#DejaVuSans-57"/>
       <use x="63.623047" xlink:href="#DejaVuSans-48"/>
       <use x="127.246094" xlink:href="#DejaVuSans-48"/>
      </g>
     </g>
    </g>
    <g id="ytick_3">
     <g id="line2d_6">
      <g>
       <use style="stroke:#000000;stroke-width:0.8;" x="94.3" xlink:href="#m217344b6ea" y="124.415004"/>
      </g>
     </g>
     <g id="text_6">
      <!-- 1000 -->
      <g transform="translate(10.95 135.81266)scale(0.3 -0.3)">
       <use xlink:href="#DejaVuSans-49"/>
       <use x="63.623047" xlink:href="#DejaVuSans-48"/>
       <use x="127.246094" xlink:href="#DejaVuSans-48"/>
       <use x="190.869141" xlink:href="#DejaVuSans-48"/>
      </g>
     </g>
    </g>
   </g>
   <g id="line2d_7">
    <path clip-path="url(#p7fff1ab7e8)" d="M 128.210176 385.2 
L 131.896064 367.803261 
L 135.581953 378.357805 
L 146.639619 356.583257 
L 150.325508 373.761605 
L 154.011396 368.562334 
L 157.697285 361.366561 
L 161.383174 341.099814 
L 176.126728 342.35806 
L 179.812617 345.207251 
L 183.498505 339.415255 
L 187.184394 341.910867 
L 198.24206 341.120631 
L 201.927949 342.794781 
L 205.613837 376.912393 
L 209.299726 367.02337 
L 212.985615 358.68372 
L 224.043281 332.198665 
L 227.729169 330.742844 
L 231.415058 337.325138 
L 235.100947 330.191754 
L 238.786835 332.427403 
L 253.53039 337.023604 
L 257.216279 342.264446 
L 260.902167 346.059939 
L 264.588056 357.290351 
L 275.645722 365.162054 
L 279.33161 357.820686 
L 283.017499 345.03043 
L 286.703388 335.983749 
L 290.389276 322.808752 
L 301.446942 337.585102 
L 308.81872 340.73589 
L 312.504608 350.687239 
L 316.190497 338.843348 
L 327.248163 329.910973 
L 330.934052 323.640686 
L 334.61994 320.978662 
L 338.305829 321.155419 
L 341.991718 306.961385 
L 353.049384 293.661673 
L 356.735272 286.975419 
L 360.421161 285.748399 
L 364.107049 278.147068 
L 367.792938 286.112322 
L 378.850604 296.219674 
L 382.536493 277.803898 
L 386.222381 296.2509 
L 389.90827 311.255988 
L 393.594159 306.420704 
L 404.651825 292.9026 
L 408.337713 301.512559 
L 412.023602 309.311465 
L 415.709491 275.006688 
L 419.395379 289.730994 
L 430.453045 268.673948 
L 434.138934 273.987651 
L 437.824823 275.433 
L 441.510711 270.940822 
L 445.1966 269.880214 
L 456.254266 253.710495 
L 459.940155 258.462573 
L 463.626043 281.640962 
L 467.311932 287.172994 
L 470.99782 284.417355 
L 482.055486 285.176428 
L 485.741375 287.141768 
L 489.427264 270.088198 
L 493.113152 283.606302 
L 496.799041 278.427785 
L 507.856707 264.795312 
L 511.542596 240.525089 
L 515.228484 229.762624 
L 518.914373 223.627459 
L 522.600262 231.977518 
L 537.343816 235.980932 
L 541.029705 220.206362 
L 544.715594 224.012264 
L 548.401482 228.691607 
L 559.459148 223.273944 
L 563.145037 238.435036 
L 566.830925 231.041624 
L 570.516814 221.620548 
L 574.202703 237.343138 
L 585.260369 225.156078 
L 588.946257 218.033102 
L 592.632146 224.376187 
L 596.318035 238.965308 
L 600.003923 239.308477 
L 611.061589 238.819776 
L 614.747478 258.32745 
L 618.433367 243.363934 
L 622.119255 242.08487 
L 625.805144 261.124597 
L 636.86281 266.261479 
L 640.548699 294.389584 
L 644.234587 269.110733 
L 647.920476 267.363722 
L 651.606365 255.935735 
L 662.66403 239.433255 
L 666.349919 239.68281 
L 670.035808 223.533908 
L 673.721696 236.365672 
L 677.407585 233.24611 
L 688.465251 242.334489 
L 692.15114 209.381508 
L 695.837028 213.114549 
L 699.522917 208.372817 
L 703.208806 215.922168 
L 714.266472 200.126781 
L 717.95236 267.790097 
L 721.638249 306.285518 
L 725.324138 301.481397 
L 729.010026 282.368873 
L 740.067692 279.051736 
L 743.753581 284.687727 
L 747.43947 258.566596 
L 754.811247 196.778481 
L 765.868913 199.534057 
L 769.554801 188.469994 
L 773.24069 186.359123 
L 776.926579 163.201551 
L 780.612467 127.84651 
L 791.670133 111.655974 
L 795.356022 96.182939 
L 799.041911 102.619639 
L 802.727799 88.997511 
L 806.413688 88.8 
L 806.413688 88.8 
" style="fill:none;stroke:#000000;stroke-linecap:square;stroke-width:4;"/>
   </g>
   <g id="patch_3">
    <path d="M 94.3 385.2 
L 94.3 88.8 
" style="fill:none;stroke:#000000;stroke-linecap:square;stroke-linejoin:miter;stroke-width:0.8;"/>
   </g>
   <g id="patch_4">
    <path d="M 94.3 385.2 
L 840.323864 385.2 
" style="fill:none;stroke:#000000;stroke-linecap:square;stroke-linejoin:miter;stroke-width:0.8;"/>
   </g>
   <g id="text_7">
    <!-- FICO   38% -->
    <defs>
     <path d="M 9.1875 72.90625 
L 59.90625 72.90625 
L 59.90625 58.6875 
L 27.984375 58.6875 
L 27.984375 45.125 
L 58.015625 45.125 
L 58.015625 30.90625 
L 27.984375 30.90625 
L 27.984375 0 
L 9.1875 0 
z
" id="DejaVuSans-Bold-70"/>
     <path d="M 9.1875 72.90625 
L 27.984375 72.90625 
L 27.984375 0 
L 9.1875 0 
z
" id="DejaVuSans-Bold-73"/>
     <path d="M 67 4 
Q 61.8125 1.3125 56.203125 -0.046875 
Q 50.59375 -1.421875 44.484375 -1.421875 
Q 26.265625 -1.421875 15.625 8.765625 
Q 4.984375 18.953125 4.984375 36.375 
Q 4.984375 53.859375 15.625 64.03125 
Q 26.265625 74.21875 44.484375 74.21875 
Q 50.59375 74.21875 56.203125 72.84375 
Q 61.8125 71.484375 67 68.796875 
L 67 53.71875 
Q 61.765625 57.28125 56.6875 58.9375 
Q 51.609375 60.59375 46 60.59375 
Q 35.9375 60.59375 30.171875 54.140625 
Q 24.421875 47.703125 24.421875 36.375 
Q 24.421875 25.09375 30.171875 18.640625 
Q 35.9375 12.203125 46 12.203125 
Q 51.609375 12.203125 56.6875 13.859375 
Q 61.765625 15.53125 67 19.09375 
z
" id="DejaVuSans-Bold-67"/>
     <path d="M 42.484375 60.59375 
Q 33.890625 60.59375 29.15625 54.25 
Q 24.421875 47.90625 24.421875 36.375 
Q 24.421875 24.90625 29.15625 18.546875 
Q 33.890625 12.203125 42.484375 12.203125 
Q 51.125 12.203125 55.859375 18.546875 
Q 60.59375 24.90625 60.59375 36.375 
Q 60.59375 47.90625 55.859375 54.25 
Q 51.125 60.59375 42.484375 60.59375 
z
M 42.484375 74.21875 
Q 60.0625 74.21875 70.015625 64.15625 
Q 79.984375 54.109375 79.984375 36.375 
Q 79.984375 18.703125 70.015625 8.640625 
Q 60.0625 -1.421875 42.484375 -1.421875 
Q 24.953125 -1.421875 14.96875 8.640625 
Q 4.984375 18.703125 4.984375 36.375 
Q 4.984375 54.109375 14.96875 64.15625 
Q 24.953125 74.21875 42.484375 74.21875 
z
" id="DejaVuSans-Bold-79"/>
     <path id="DejaVuSans-Bold-32"/>
     <path d="M 46.578125 39.3125 
Q 53.953125 37.40625 57.78125 32.6875 
Q 61.625 27.984375 61.625 20.703125 
Q 61.625 9.859375 53.3125 4.21875 
Q 45.015625 -1.421875 29.109375 -1.421875 
Q 23.484375 -1.421875 17.84375 -0.515625 
Q 12.203125 0.390625 6.6875 2.203125 
L 6.6875 16.703125 
Q 11.96875 14.0625 17.15625 12.71875 
Q 22.359375 11.375 27.390625 11.375 
Q 34.859375 11.375 38.84375 13.953125 
Q 42.828125 16.546875 42.828125 21.390625 
Q 42.828125 26.375 38.75 28.9375 
Q 34.671875 31.5 26.703125 31.5 
L 19.1875 31.5 
L 19.1875 43.609375 
L 27.09375 43.609375 
Q 34.1875 43.609375 37.640625 45.828125 
Q 41.109375 48.046875 41.109375 52.59375 
Q 41.109375 56.78125 37.734375 59.078125 
Q 34.375 61.375 28.21875 61.375 
Q 23.6875 61.375 19.046875 60.34375 
Q 14.40625 59.328125 9.8125 57.328125 
L 9.8125 71.09375 
Q 15.375 72.65625 20.84375 73.4375 
Q 26.3125 74.21875 31.59375 74.21875 
Q 45.796875 74.21875 52.84375 69.546875 
Q 59.90625 64.890625 59.90625 55.515625 
Q 59.90625 49.125 56.53125 45.046875 
Q 53.171875 40.96875 46.578125 39.3125 
z
" id="DejaVuSans-Bold-51"/>
     <path d="M 34.8125 32.625 
Q 29.546875 32.625 26.703125 29.734375 
Q 23.875 26.859375 23.875 21.484375 
Q 23.875 16.109375 26.703125 13.25 
Q 29.546875 10.40625 34.8125 10.40625 
Q 40.046875 10.40625 42.828125 13.25 
Q 45.609375 16.109375 45.609375 21.484375 
Q 45.609375 26.90625 42.828125 29.765625 
Q 40.046875 32.625 34.8125 32.625 
z
M 21.09375 38.8125 
Q 14.453125 40.828125 11.078125 44.96875 
Q 7.71875 49.125 7.71875 55.328125 
Q 7.71875 64.546875 14.59375 69.375 
Q 21.484375 74.21875 34.8125 74.21875 
Q 48.046875 74.21875 54.921875 69.40625 
Q 61.8125 64.59375 61.8125 55.328125 
Q 61.8125 49.125 58.421875 44.96875 
Q 55.03125 40.828125 48.390625 38.8125 
Q 55.8125 36.765625 59.59375 32.15625 
Q 63.375 27.546875 63.375 20.515625 
Q 63.375 9.671875 56.171875 4.125 
Q 48.96875 -1.421875 34.8125 -1.421875 
Q 20.609375 -1.421875 13.359375 4.125 
Q 6.109375 9.671875 6.109375 20.515625 
Q 6.109375 27.546875 9.890625 32.15625 
Q 13.671875 36.765625 21.09375 38.8125 
z
M 25.484375 53.421875 
Q 25.484375 49.078125 27.90625 46.734375 
Q 30.328125 44.390625 34.8125 44.390625 
Q 39.203125 44.390625 41.59375 46.734375 
Q 44 49.078125 44 53.421875 
Q 44 57.765625 41.59375 60.078125 
Q 39.203125 62.40625 34.8125 62.40625 
Q 30.328125 62.40625 27.90625 60.0625 
Q 25.484375 57.71875 25.484375 53.421875 
z
" id="DejaVuSans-Bold-56"/>
     <path d="M 77.484375 30.078125 
Q 74.03125 30.078125 72.125 27.078125 
Q 70.21875 24.078125 70.21875 18.5 
Q 70.21875 12.890625 72.09375 9.890625 
Q 73.96875 6.890625 77.484375 6.890625 
Q 81 6.890625 82.859375 9.890625 
Q 84.71875 12.890625 84.71875 18.5 
Q 84.71875 24.078125 82.828125 27.078125 
Q 80.953125 30.078125 77.484375 30.078125 
z
M 77.484375 38.28125 
Q 86.578125 38.28125 91.796875 33 
Q 97.015625 27.734375 97.015625 18.5 
Q 97.015625 9.28125 91.796875 3.921875 
Q 86.578125 -1.421875 77.484375 -1.421875 
Q 68.40625 -1.421875 63.15625 3.921875 
Q 57.90625 9.28125 57.90625 18.5 
Q 57.90625 27.6875 63.15625 32.984375 
Q 68.40625 38.28125 77.484375 38.28125 
z
M 32.71875 -1.421875 
L 21.921875 -1.421875 
L 67.484375 74.21875 
L 78.328125 74.21875 
z
M 22.703125 74.21875 
Q 31.78125 74.21875 36.984375 68.921875 
Q 42.1875 63.625 42.1875 54.390625 
Q 42.1875 45.171875 36.984375 39.84375 
Q 31.78125 34.515625 22.703125 34.515625 
Q 13.625 34.515625 8.421875 39.84375 
Q 3.21875 45.171875 3.21875 54.390625 
Q 3.21875 63.625 8.421875 68.921875 
Q 13.625 74.21875 22.703125 74.21875 
z
M 22.703125 66.015625 
Q 19.1875 66.015625 17.28125 62.984375 
Q 15.375 59.96875 15.375 54.390625 
Q 15.375 48.78125 17.28125 45.71875 
Q 19.1875 42.671875 22.703125 42.671875 
Q 26.21875 42.671875 28.09375 45.71875 
Q 29.984375 48.78125 29.984375 54.390625 
Q 29.984375 59.96875 28.078125 62.984375 
Q 26.171875 66.015625 22.703125 66.015625 
z
" id="DejaVuSans-Bold-37"/>
    </defs>
    <g transform="translate(94.3 72.1625)scale(0.8 -0.8)">
     <use xlink:href="#DejaVuSans-Bold-70"/>
     <use x="68.310547" xlink:href="#DejaVuSans-Bold-73"/>
     <use x="105.517578" xlink:href="#DejaVuSans-Bold-67"/>
     <use x="178.90625" xlink:href="#DejaVuSans-Bold-79"/>
     <use x="263.916016" xlink:href="#DejaVuSans-Bold-32"/>
     <use x="298.730469" xlink:href="#DejaVuSans-Bold-32"/>
     <use x="333.544922" xlink:href="#DejaVuSans-Bold-32"/>
     <use x="368.359375" xlink:href="#DejaVuSans-Bold-51"/>
     <use x="437.939453" xlink:href="#DejaVuSans-Bold-56"/>
     <use x="507.519531" xlink:href="#DejaVuSans-Bold-37"/>
    </g>
   </g>
  </g>
 </g>
 <defs>
  <clipPath id="p7fff1ab7e8">
   <rect height="296.4" width="746.023864" x="94.3" y="88.8"/>
  </clipPath>
 </defs>
</svg>
