<?xml version="1.0" encoding="utf-8" standalone="no"?>
<!DOCTYPE svg PUBLIC "-//W3C//DTD SVG 1.1//EN"
  "http://www.w3.org/Graphics/SVG/1.1/DTD/svg11.dtd">
<svg xmlns:xlink="http://www.w3.org/1999/xlink" width="720pt" height="720pt" viewBox="0 0 720 720" xmlns="http://www.w3.org/2000/svg" version="1.1">
 <metadata>
  <rdf:RDF xmlns:dc="http://purl.org/dc/elements/1.1/" xmlns:cc="http://creativecommons.org/ns#" xmlns:rdf="http://www.w3.org/1999/02/22-rdf-syntax-ns#">
   <cc:Work>
    <dc:type rdf:resource="http://purl.org/dc/dcmitype/StillImage"/>
    <dc:date>2023-10-17T23:38:27.421148</dc:date>
    <dc:format>image/svg+xml</dc:format>
    <dc:creator>
     <cc:Agent>
      <dc:title>Matplotlib v3.7.2, https://matplotlib.org/</dc:title>
     </cc:Agent>
    </dc:creator>
   </cc:Work>
  </rdf:RDF>
 </metadata>
 <defs>
  <style type="text/css">*{stroke-linejoin: round; stroke-linecap: butt}</style>
 </defs>
 <g id="figure_1">
  <g id="patch_1">
   <path d="M 0 720 
L 720 720 
L 720 0 
L 0 0 
z
" style="fill: #ffffff"/>
  </g>
  <g id="axes_1">
   <g id="patch_2">
    <path d="M 90 640.8 
L 648 640.8 
L 648 86.4 
L 90 86.4 
z
" style="fill: #ffffff"/>
   </g>
   <g id="matplotlib.axis_1">
    <g id="xtick_1">
     <g id="line2d_1">
      <defs>
       <path id="m2d4bebe0c0" d="M 0 0 
L 0 3.5 
" style="stroke: #000000; stroke-width: 0.8"/>
      </defs>
      <g>
       <use xlink:href="#m2d4bebe0c0" x="264.47952" y="640.8" style="stroke: #000000; stroke-width: 0.8"/>
      </g>
     </g>
     <g id="text_1">
      <!-- Feb-2023 -->
      <g transform="translate(189.66202 672.115) scale(0.32 -0.32)">
       <defs>
        <path id="DejaVuSans-46" d="M 628 4666 
L 3309 4666 
L 3309 4134 
L 1259 4134 
L 1259 2759 
L 3109 2759 
L 3109 2228 
L 1259 2228 
L 1259 0 
L 628 0 
L 628 4666 
z
" transform="scale(0.015625)"/>
        <path id="DejaVuSans-65" d="M 3597 1894 
L 3597 1613 
L 953 1613 
Q 991 1019 1311 708 
Q 1631 397 2203 397 
Q 2534 397 2845 478 
Q 3156 559 3463 722 
L 3463 178 
Q 3153 47 2828 -22 
Q 2503 -91 2169 -91 
Q 1331 -91 842 396 
Q 353 884 353 1716 
Q 353 2575 817 3079 
Q 1281 3584 2069 3584 
Q 2775 3584 3186 3129 
Q 3597 2675 3597 1894 
z
M 3022 2063 
Q 3016 2534 2758 2815 
Q 2500 3097 2075 3097 
Q 1594 3097 1305 2825 
Q 1016 2553 972 2059 
L 3022 2063 
z
" transform="scale(0.015625)"/>
        <path id="DejaVuSans-62" d="M 3116 1747 
Q 3116 2381 2855 2742 
Q 2594 3103 2138 3103 
Q 1681 3103 1420 2742 
Q 1159 2381 1159 1747 
Q 1159 1113 1420 752 
Q 1681 391 2138 391 
Q 2594 391 2855 752 
Q 3116 1113 3116 1747 
z
M 1159 2969 
Q 1341 3281 1617 3432 
Q 1894 3584 2278 3584 
Q 2916 3584 3314 3078 
Q 3713 2572 3713 1747 
Q 3713 922 3314 415 
Q 2916 -91 2278 -91 
Q 1894 -91 1617 61 
Q 1341 213 1159 525 
L 1159 0 
L 581 0 
L 581 4863 
L 1159 4863 
L 1159 2969 
z
" transform="scale(0.015625)"/>
        <path id="DejaVuSans-2d" d="M 313 2009 
L 1997 2009 
L 1997 1497 
L 313 1497 
L 313 2009 
z
" transform="scale(0.015625)"/>
        <path id="DejaVuSans-32" d="M 1228 531 
L 3431 531 
L 3431 0 
L 469 0 
L 469 531 
Q 828 903 1448 1529 
Q 2069 2156 2228 2338 
Q 2531 2678 2651 2914 
Q 2772 3150 2772 3378 
Q 2772 3750 2511 3984 
Q 2250 4219 1831 4219 
Q 1534 4219 1204 4116 
Q 875 4013 500 3803 
L 500 4441 
Q 881 4594 1212 4672 
Q 1544 4750 1819 4750 
Q 2544 4750 2975 4387 
Q 3406 4025 3406 3419 
Q 3406 3131 3298 2873 
Q 3191 2616 2906 2266 
Q 2828 2175 2409 1742 
Q 1991 1309 1228 531 
z
" transform="scale(0.015625)"/>
        <path id="DejaVuSans-30" d="M 2034 4250 
Q 1547 4250 1301 3770 
Q 1056 3291 1056 2328 
Q 1056 1369 1301 889 
Q 1547 409 2034 409 
Q 2525 409 2770 889 
Q 3016 1369 3016 2328 
Q 3016 3291 2770 3770 
Q 2525 4250 2034 4250 
z
M 2034 4750 
Q 2819 4750 3233 4129 
Q 3647 3509 3647 2328 
Q 3647 1150 3233 529 
Q 2819 -91 2034 -91 
Q 1250 -91 836 529 
Q 422 1150 422 2328 
Q 422 3509 836 4129 
Q 1250 4750 2034 4750 
z
" transform="scale(0.015625)"/>
        <path id="DejaVuSans-33" d="M 2597 2516 
Q 3050 2419 3304 2112 
Q 3559 1806 3559 1356 
Q 3559 666 3084 287 
Q 2609 -91 1734 -91 
Q 1441 -91 1130 -33 
Q 819 25 488 141 
L 488 750 
Q 750 597 1062 519 
Q 1375 441 1716 441 
Q 2309 441 2620 675 
Q 2931 909 2931 1356 
Q 2931 1769 2642 2001 
Q 2353 2234 1838 2234 
L 1294 2234 
L 1294 2753 
L 1863 2753 
Q 2328 2753 2575 2939 
Q 2822 3125 2822 3475 
Q 2822 3834 2567 4026 
Q 2313 4219 1838 4219 
Q 1578 4219 1281 4162 
Q 984 4106 628 3988 
L 628 4550 
Q 988 4650 1302 4700 
Q 1616 4750 1894 4750 
Q 2613 4750 3031 4423 
Q 3450 4097 3450 3541 
Q 3450 3153 3228 2886 
Q 3006 2619 2597 2516 
z
" transform="scale(0.015625)"/>
       </defs>
       <use xlink:href="#DejaVuSans-46"/>
       <use xlink:href="#DejaVuSans-65" x="52.019531"/>
       <use xlink:href="#DejaVuSans-62" x="113.542969"/>
       <use xlink:href="#DejaVuSans-2d" x="177.019531"/>
       <use xlink:href="#DejaVuSans-32" x="213.103516"/>
       <use xlink:href="#DejaVuSans-30" x="276.726562"/>
       <use xlink:href="#DejaVuSans-32" x="340.349609"/>
       <use xlink:href="#DejaVuSans-33" x="403.972656"/>
      </g>
     </g>
    </g>
    <g id="xtick_2">
     <g id="line2d_2">
      <g>
       <use xlink:href="#m2d4bebe0c0" x="516.722278" y="640.8" style="stroke: #000000; stroke-width: 0.8"/>
      </g>
     </g>
     <g id="text_2">
      <!-- Aug-2023 -->
      <g transform="translate(438.987278 672.115) scale(0.32 -0.32)">
       <defs>
        <path id="DejaVuSans-41" d="M 2188 4044 
L 1331 1722 
L 3047 1722 
L 2188 4044 
z
M 1831 4666 
L 2547 4666 
L 4325 0 
L 3669 0 
L 3244 1197 
L 1141 1197 
L 716 0 
L 50 0 
L 1831 4666 
z
" transform="scale(0.015625)"/>
        <path id="DejaVuSans-75" d="M 544 1381 
L 544 3500 
L 1119 3500 
L 1119 1403 
Q 1119 906 1312 657 
Q 1506 409 1894 409 
Q 2359 409 2629 706 
Q 2900 1003 2900 1516 
L 2900 3500 
L 3475 3500 
L 3475 0 
L 2900 0 
L 2900 538 
Q 2691 219 2414 64 
Q 2138 -91 1772 -91 
Q 1169 -91 856 284 
Q 544 659 544 1381 
z
M 1991 3584 
L 1991 3584 
z
" transform="scale(0.015625)"/>
        <path id="DejaVuSans-67" d="M 2906 1791 
Q 2906 2416 2648 2759 
Q 2391 3103 1925 3103 
Q 1463 3103 1205 2759 
Q 947 2416 947 1791 
Q 947 1169 1205 825 
Q 1463 481 1925 481 
Q 2391 481 2648 825 
Q 2906 1169 2906 1791 
z
M 3481 434 
Q 3481 -459 3084 -895 
Q 2688 -1331 1869 -1331 
Q 1566 -1331 1297 -1286 
Q 1028 -1241 775 -1147 
L 775 -588 
Q 1028 -725 1275 -790 
Q 1522 -856 1778 -856 
Q 2344 -856 2625 -561 
Q 2906 -266 2906 331 
L 2906 616 
Q 2728 306 2450 153 
Q 2172 0 1784 0 
Q 1141 0 747 490 
Q 353 981 353 1791 
Q 353 2603 747 3093 
Q 1141 3584 1784 3584 
Q 2172 3584 2450 3431 
Q 2728 3278 2906 2969 
L 2906 3500 
L 3481 3500 
L 3481 434 
z
" transform="scale(0.015625)"/>
       </defs>
       <use xlink:href="#DejaVuSans-41"/>
       <use xlink:href="#DejaVuSans-75" x="68.408203"/>
       <use xlink:href="#DejaVuSans-67" x="131.787109"/>
       <use xlink:href="#DejaVuSans-2d" x="195.263672"/>
       <use xlink:href="#DejaVuSans-32" x="231.347656"/>
       <use xlink:href="#DejaVuSans-30" x="294.970703"/>
       <use xlink:href="#DejaVuSans-32" x="358.59375"/>
       <use xlink:href="#DejaVuSans-33" x="422.216797"/>
      </g>
     </g>
    </g>
   </g>
   <g id="matplotlib.axis_2">
    <g id="ytick_1">
     <g id="line2d_3">
      <defs>
       <path id="m3ae77e8ae2" d="M 0 0 
L -3.5 0 
" style="stroke: #000000; stroke-width: 0.8"/>
      </defs>
      <g>
       <use xlink:href="#m3ae77e8ae2" x="90" y="596.94609" style="stroke: #000000; stroke-width: 0.8"/>
      </g>
     </g>
     <g id="text_3">
      <!-- 50 -->
      <g transform="translate(42.28 609.10359) scale(0.32 -0.32)">
       <defs>
        <path id="DejaVuSans-35" d="M 691 4666 
L 3169 4666 
L 3169 4134 
L 1269 4134 
L 1269 2991 
Q 1406 3038 1543 3061 
Q 1681 3084 1819 3084 
Q 2600 3084 3056 2656 
Q 3513 2228 3513 1497 
Q 3513 744 3044 326 
Q 2575 -91 1722 -91 
Q 1428 -91 1123 -41 
Q 819 9 494 109 
L 494 744 
Q 775 591 1075 516 
Q 1375 441 1709 441 
Q 2250 441 2565 725 
Q 2881 1009 2881 1497 
Q 2881 1984 2565 2268 
Q 2250 2553 1709 2553 
Q 1456 2553 1204 2497 
Q 953 2441 691 2322 
L 691 4666 
z
" transform="scale(0.015625)"/>
       </defs>
       <use xlink:href="#DejaVuSans-35"/>
       <use xlink:href="#DejaVuSans-30" x="63.623047"/>
      </g>
     </g>
    </g>
    <g id="ytick_2">
     <g id="line2d_4">
      <g>
       <use xlink:href="#m3ae77e8ae2" x="90" y="521.24863" style="stroke: #000000; stroke-width: 0.8"/>
      </g>
     </g>
     <g id="text_4">
      <!-- 55 -->
      <g transform="translate(42.28 533.40613) scale(0.32 -0.32)">
       <use xlink:href="#DejaVuSans-35"/>
       <use xlink:href="#DejaVuSans-35" x="63.623047"/>
      </g>
     </g>
    </g>
    <g id="ytick_3">
     <g id="line2d_5">
      <g>
       <use xlink:href="#m3ae77e8ae2" x="90" y="445.55117" style="stroke: #000000; stroke-width: 0.8"/>
      </g>
     </g>
     <g id="text_5">
      <!-- 60 -->
      <g transform="translate(42.28 457.70867) scale(0.32 -0.32)">
       <defs>
        <path id="DejaVuSans-36" d="M 2113 2584 
Q 1688 2584 1439 2293 
Q 1191 2003 1191 1497 
Q 1191 994 1439 701 
Q 1688 409 2113 409 
Q 2538 409 2786 701 
Q 3034 994 3034 1497 
Q 3034 2003 2786 2293 
Q 2538 2584 2113 2584 
z
M 3366 4563 
L 3366 3988 
Q 3128 4100 2886 4159 
Q 2644 4219 2406 4219 
Q 1781 4219 1451 3797 
Q 1122 3375 1075 2522 
Q 1259 2794 1537 2939 
Q 1816 3084 2150 3084 
Q 2853 3084 3261 2657 
Q 3669 2231 3669 1497 
Q 3669 778 3244 343 
Q 2819 -91 2113 -91 
Q 1303 -91 875 529 
Q 447 1150 447 2328 
Q 447 3434 972 4092 
Q 1497 4750 2381 4750 
Q 2619 4750 2861 4703 
Q 3103 4656 3366 4563 
z
" transform="scale(0.015625)"/>
       </defs>
       <use xlink:href="#DejaVuSans-36"/>
       <use xlink:href="#DejaVuSans-30" x="63.623047"/>
      </g>
     </g>
    </g>
    <g id="ytick_4">
     <g id="line2d_6">
      <g>
       <use xlink:href="#m3ae77e8ae2" x="90" y="369.853709" style="stroke: #000000; stroke-width: 0.8"/>
      </g>
     </g>
     <g id="text_6">
      <!-- 65 -->
      <g transform="translate(42.28 382.011209) scale(0.32 -0.32)">
       <use xlink:href="#DejaVuSans-36"/>
       <use xlink:href="#DejaVuSans-35" x="63.623047"/>
      </g>
     </g>
    </g>
    <g id="ytick_5">
     <g id="line2d_7">
      <g>
       <use xlink:href="#m3ae77e8ae2" x="90" y="294.156249" style="stroke: #000000; stroke-width: 0.8"/>
      </g>
     </g>
     <g id="text_7">
      <!-- 70 -->
      <g transform="translate(42.28 306.313749) scale(0.32 -0.32)">
       <defs>
        <path id="DejaVuSans-37" d="M 525 4666 
L 3525 4666 
L 3525 4397 
L 1831 0 
L 1172 0 
L 2766 4134 
L 525 4134 
L 525 4666 
z
" transform="scale(0.015625)"/>
       </defs>
       <use xlink:href="#DejaVuSans-37"/>
       <use xlink:href="#DejaVuSans-30" x="63.623047"/>
      </g>
     </g>
    </g>
    <g id="ytick_6">
     <g id="line2d_8">
      <g>
       <use xlink:href="#m3ae77e8ae2" x="90" y="218.458788" style="stroke: #000000; stroke-width: 0.8"/>
      </g>
     </g>
     <g id="text_8">
      <!-- 75 -->
      <g transform="translate(42.28 230.616288) scale(0.32 -0.32)">
       <use xlink:href="#DejaVuSans-37"/>
       <use xlink:href="#DejaVuSans-35" x="63.623047"/>
      </g>
     </g>
    </g>
    <g id="ytick_7">
     <g id="line2d_9">
      <g>
       <use xlink:href="#m3ae77e8ae2" x="90" y="142.761328" style="stroke: #000000; stroke-width: 0.8"/>
      </g>
     </g>
     <g id="text_9">
      <!-- 80 -->
      <g transform="translate(42.28 154.918828) scale(0.32 -0.32)">
       <defs>
        <path id="DejaVuSans-38" d="M 2034 2216 
Q 1584 2216 1326 1975 
Q 1069 1734 1069 1313 
Q 1069 891 1326 650 
Q 1584 409 2034 409 
Q 2484 409 2743 651 
Q 3003 894 3003 1313 
Q 3003 1734 2745 1975 
Q 2488 2216 2034 2216 
z
M 1403 2484 
Q 997 2584 770 2862 
Q 544 3141 544 3541 
Q 544 4100 942 4425 
Q 1341 4750 2034 4750 
Q 2731 4750 3128 4425 
Q 3525 4100 3525 3541 
Q 3525 3141 3298 2862 
Q 3072 2584 2669 2484 
Q 3125 2378 3379 2068 
Q 3634 1759 3634 1313 
Q 3634 634 3220 271 
Q 2806 -91 2034 -91 
Q 1263 -91 848 271 
Q 434 634 434 1313 
Q 434 1759 690 2068 
Q 947 2378 1403 2484 
z
M 1172 3481 
Q 1172 3119 1398 2916 
Q 1625 2713 2034 2713 
Q 2441 2713 2670 2916 
Q 2900 3119 2900 3481 
Q 2900 3844 2670 4047 
Q 2441 4250 2034 4250 
Q 1625 4250 1398 4047 
Q 1172 3844 1172 3481 
z
" transform="scale(0.015625)"/>
       </defs>
       <use xlink:href="#DejaVuSans-38"/>
       <use xlink:href="#DejaVuSans-30" x="63.623047"/>
      </g>
     </g>
    </g>
   </g>
   <g id="line2d_10">
    <path d="M 115.363636 226.759798 
L 116.757243 211.249072 
L 118.150849 231.149687 
L 119.544456 233.783435 
L 120.938062 215.053581 
L 125.118881 212.565946 
L 126.512488 184.03213 
L 127.906094 151.986379 
L 129.2997 138.231447 
L 130.693307 111.6 
L 134.874126 139.548552 
L 136.267732 138.816942 
L 137.661339 191.055883 
L 139.054945 517.219925 
L 140.448551 473.468015 
L 144.629371 448.884937 
L 146.022977 436.886088 
L 147.416583 450.787134 
L 148.81019 417.424508 
L 150.203796 396.938629 
L 154.384615 409.815606 
L 155.778222 419.326763 
L 157.171828 447.860695 
L 158.565435 460.444809 
L 159.959041 455.323368 
L 164.13986 453.128481 
L 165.533467 400.011471 
L 166.927073 389.183266 
L 169.714286 388.451599 
L 173.895105 395.036317 
L 175.288711 365.770948 
L 176.682318 291.875368 
L 178.075924 283.095937 
L 179.46953 270.219075 
L 183.65035 287.63194 
L 185.043956 333.578852 
L 186.437562 340.89518 
L 187.831169 325.720459 
L 189.224775 318.648771 
L 193.405594 304.652665 
L 194.799201 278.428258 
L 196.192807 287.120483 
L 197.586414 325.720459 
L 198.98002 334.118146 
L 203.160839 361.668436 
L 204.554446 356.659208 
L 205.948052 369.476816 
L 207.341658 373.01266 
L 208.735265 368.003548 
L 214.30969 362.847051 
L 215.703297 373.454582 
L 217.096903 353.565518 
L 218.490509 354.302095 
L 224.064935 344.13637 
L 225.458541 333.381569 
L 226.852148 349.292867 
L 228.245754 332.939416 
L 232.426573 322.626653 
L 233.82018 337.359452 
L 235.213786 330.434917 
L 236.607393 333.234185 
L 238.000999 326.309766 
L 243.575425 301.853397 
L 244.969031 327.930304 
L 246.362637 307.451932 
L 247.756244 264.874074 
L 251.937063 256.623656 
L 253.330669 257.654886 
L 254.724276 260.454154 
L 256.117882 250.583314 
L 257.511489 244.100933 
L 261.692308 257.949771 
L 263.085914 248.373354 
L 264.47952 222.590985 
L 265.873127 207.563649 
L 267.266733 243.216973 
L 271.447552 277.102374 
L 272.841159 245.426933 
L 274.234765 273.124492 
L 275.628372 264.432036 
L 277.021978 242.62755 
L 281.202797 381.557731 
L 282.596404 354.891402 
L 283.99001 360.195168 
L 285.383616 335.002107 
L 286.777223 329.992995 
L 292.351648 365.20428 
L 293.745255 366.38301 
L 295.138861 378.905733 
L 296.532468 397.763682 
L 300.713287 403.362218 
L 302.106893 420.304918 
L 303.5005 427.965913 
L 304.894106 412.643865 
L 306.287712 412.054558 
L 310.468531 412.791077 
L 311.862138 431.207104 
L 313.255744 426.934683 
L 316.042957 503.886299 
L 320.223776 613.817351 
L 321.617383 561.822935 
L 323.010989 587.820143 
L 324.404595 579.20392 
L 325.798202 586.780308 
L 329.979021 588.11728 
L 331.372627 565.239751 
L 332.766234 592.276852 
L 334.15984 611.589026 
L 335.553447 615.6 
L 339.734266 608.023728 
L 341.127872 601.487233 
L 342.521479 589.305713 
L 343.915085 578.906899 
L 345.308691 546.818815 
L 349.48951 550.384228 
L 350.883117 567.319537 
L 352.276723 555.880715 
L 353.67033 530.477781 
L 359.244755 541.470869 
L 360.638362 522.010098 
L 362.031968 532.26043 
L 363.425574 511.611226 
L 364.819181 501.063815 
L 369 491.704778 
L 370.393606 512.205385 
L 371.787213 521.861558 
L 373.180819 517.850526 
L 374.574426 517.850526 
L 378.755245 524.089826 
L 380.148851 532.706106 
L 381.542458 539.242543 
L 382.936064 517.404849 
L 384.32967 481.603044 
L 388.51049 511.759766 
L 389.904096 564.645477 
L 391.297702 568.656509 
L 392.691309 563.159965 
L 394.084915 525.723993 
L 398.265734 522.604372 
L 399.659341 527.209505 
L 401.052947 534.785892 
L 402.446553 536.86562 
L 403.84016 535.825785 
L 408.020979 528.992211 
L 409.414585 538.20265 
L 410.808192 522.307235 
L 412.201798 494.527378 
L 413.595405 509.53144 
L 417.776224 500.172404 
L 419.16983 525.129776 
L 420.563437 553.800929 
L 421.957043 562.417209 
L 423.350649 544.887627 
L 428.925075 552.16682 
L 430.318681 543.253518 
L 431.712288 536.86562 
L 433.105894 531.220479 
L 437.286713 541.322329 
L 438.68032 537.162757 
L 440.073926 535.974267 
L 441.467532 536.724126 
L 442.861139 534.174639 
L 447.041958 536.874168 
L 448.435564 526.076168 
L 449.829171 533.574763 
L 451.222777 543.322936 
L 452.616384 532.375011 
L 458.190809 534.324622 
L 459.584416 549.771762 
L 460.978022 550.971457 
L 462.371628 562.819283 
L 466.552448 563.869051 
L 467.946054 567.76839 
L 469.33966 557.570266 
L 470.733267 560.269795 
L 472.126873 533.574763 
L 476.307692 484.084037 
L 479.094905 457.089153 
L 480.488511 467.737111 
L 481.882118 465.03764 
L 486.062937 478.235144 
L 487.456543 464.737674 
L 488.85015 465.487533 
L 490.243756 459.638641 
L 491.637363 466.537359 
L 495.818182 478.685037 
L 497.211788 451.54017 
L 498.605395 441.642013 
L 499.999001 436.392997 
L 501.392607 430.694088 
L 505.573427 426.494898 
L 506.967033 422.29565 
L 508.360639 431.743856 
L 509.754246 439.542418 
L 511.147852 459.338674 
L 515.328671 448.390748 
L 516.722278 438.042699 
L 518.115884 461.438326 
L 519.509491 494.732053 
L 520.903097 471.936302 
L 525.083916 479.134987 
L 526.477522 489.183127 
L 527.871129 487.383442 
L 529.264735 494.58207 
L 530.658342 509.729243 
L 536.232767 515.878044 
L 537.626374 516.927871 
L 539.01998 513.178573 
L 540.413586 523.226713 
L 544.594406 518.87754 
L 545.988012 526.226151 
L 547.381618 524.876416 
L 548.775225 525.176383 
L 550.168831 532.974829 
L 554.34965 514.67835 
L 555.743257 518.277606 
L 557.136863 509.729243 
L 558.53047 516.178011 
L 559.924076 503.88035 
L 565.498501 519.477416 
L 566.892108 524.27654 
L 568.285714 530.483729 
L 569.679321 516.25257 
L 573.86014 513.376087 
L 575.253746 510.348177 
L 576.647353 517.463757 
L 578.040959 500.356115 
L 579.434565 492.483572 
L 583.615385 487.033403 
L 585.008991 472.348077 
L 586.402597 473.710634 
L 587.796204 490.212683 
L 589.18981 504.292415 
L 593.370629 506.411935 
L 594.764236 512.164958 
L 596.157842 513.07329 
L 597.551449 508.834251 
L 598.945055 517.16096 
L 603.125874 532.754618 
L 604.519481 540.172995 
L 605.913087 531.846286 
L 607.306693 534.117175 
L 608.7003 544.866258 
L 612.881119 562.27664 
L 614.274725 550.013688 
L 615.668332 549.710891 
L 617.061938 572.722926 
L 618.455544 569.392219 
L 622.636364 557.583434 
L 622.636364 557.583434 
" clip-path="url(#pe3681b4b7b)" style="fill: none; stroke: #000000; stroke-width: 2.5; stroke-linecap: square"/>
   </g>
   <g id="patch_3">
    <path d="M 90 640.8 
L 90 86.4 
" style="fill: none; stroke: #000000; stroke-width: 0.8; stroke-linejoin: miter; stroke-linecap: square"/>
   </g>
   <g id="patch_4">
    <path d="M 90 640.8 
L 648 640.8 
" style="fill: none; stroke: #000000; stroke-width: 0.8; stroke-linejoin: miter; stroke-linecap: square"/>
   </g>
   <g id="text_10">
    <!-- -29% -->
    <g transform="translate(529.632614 635.337809) scale(0.36 -0.36)">
     <defs>
      <path id="DejaVuSans-39" d="M 703 97 
L 703 672 
Q 941 559 1184 500 
Q 1428 441 1663 441 
Q 2288 441 2617 861 
Q 2947 1281 2994 2138 
Q 2813 1869 2534 1725 
Q 2256 1581 1919 1581 
Q 1219 1581 811 2004 
Q 403 2428 403 3163 
Q 403 3881 828 4315 
Q 1253 4750 1959 4750 
Q 2769 4750 3195 4129 
Q 3622 3509 3622 2328 
Q 3622 1225 3098 567 
Q 2575 -91 1691 -91 
Q 1453 -91 1209 -44 
Q 966 3 703 97 
z
M 1959 2075 
Q 2384 2075 2632 2365 
Q 2881 2656 2881 3163 
Q 2881 3666 2632 3958 
Q 2384 4250 1959 4250 
Q 1534 4250 1286 3958 
Q 1038 3666 1038 3163 
Q 1038 2656 1286 2365 
Q 1534 2075 1959 2075 
z
" transform="scale(0.015625)"/>
      <path id="DejaVuSans-25" d="M 4653 2053 
Q 4381 2053 4226 1822 
Q 4072 1591 4072 1178 
Q 4072 772 4226 539 
Q 4381 306 4653 306 
Q 4919 306 5073 539 
Q 5228 772 5228 1178 
Q 5228 1588 5073 1820 
Q 4919 2053 4653 2053 
z
M 4653 2450 
Q 5147 2450 5437 2106 
Q 5728 1763 5728 1178 
Q 5728 594 5436 251 
Q 5144 -91 4653 -91 
Q 4153 -91 3862 251 
Q 3572 594 3572 1178 
Q 3572 1766 3864 2108 
Q 4156 2450 4653 2450 
z
M 1428 4353 
Q 1159 4353 1004 4120 
Q 850 3888 850 3481 
Q 850 3069 1003 2837 
Q 1156 2606 1428 2606 
Q 1700 2606 1854 2837 
Q 2009 3069 2009 3481 
Q 2009 3884 1853 4118 
Q 1697 4353 1428 4353 
z
M 4250 4750 
L 4750 4750 
L 1831 -91 
L 1331 -91 
L 4250 4750 
z
M 1428 4750 
Q 1922 4750 2215 4408 
Q 2509 4066 2509 3481 
Q 2509 2891 2217 2550 
Q 1925 2209 1428 2209 
Q 931 2209 642 2551 
Q 353 2894 353 3481 
Q 353 4063 643 4406 
Q 934 4750 1428 4750 
z
" transform="scale(0.015625)"/>
     </defs>
     <use xlink:href="#DejaVuSans-2d"/>
     <use xlink:href="#DejaVuSans-32" x="36.083984"/>
     <use xlink:href="#DejaVuSans-39" x="99.707031"/>
     <use xlink:href="#DejaVuSans-25" x="163.330078"/>
    </g>
   </g>
  </g>
 </g>
 <defs>
  <clipPath id="pe3681b4b7b">
   <rect x="90" y="86.4" width="558" height="554.4"/>
  </clipPath>
 </defs>
</svg>
