<?xml version="1.0" encoding="utf-8" standalone="no"?>
<!DOCTYPE svg PUBLIC "-//W3C//DTD SVG 1.1//EN"
  "http://www.w3.org/Graphics/SVG/1.1/DTD/svg11.dtd">
<!-- Created with matplotlib (https://matplotlib.org/) -->
<svg height="432pt" version="1.1" viewBox="0 0 576 432" width="576pt" xmlns="http://www.w3.org/2000/svg" xmlns:xlink="http://www.w3.org/1999/xlink">
 <defs>
  <style type="text/css">
*{stroke-linecap:butt;stroke-linejoin:round;}
  </style>
 </defs>
 <g id="figure_1">
  <g id="patch_1">
   <path d="M 0 432 
L 576 432 
L 576 0 
L 0 0 
z
" style="fill:#ffffff;"/>
  </g>
  <g id="axes_1">
   <g id="patch_2">
    <path d="M 36.925 404.2 
L 565.2 404.2 
L 565.2 31.8 
L 36.925 31.8 
z
" style="fill:#ffffff;"/>
   </g>
   <g id="PolyCollection_1">
    <defs>
     <path d="M 60.9375 -44.727273 
L 60.9375 -275.202358 
L 62.256868 -269.196825 
L 66.214973 -259.888987 
L 67.534341 -259.903591 
L 68.853709 -265.602285 
L 70.173077 -274.164919 
L 71.492445 -264.520989 
L 75.450549 -269.211451 
L 76.769918 -277.978652 
L 78.089286 -276.444387 
L 79.408654 -285.796059 
L 80.728022 -288.163218 
L 84.686126 -286.395156 
L 86.005495 -289.712087 
L 87.324863 -292.356855 
L 89.963599 -295.220795 
L 93.921703 -286.731226 
L 95.241071 -281.164057 
L 96.56044 -296.828124 
L 97.879808 -290.997928 
L 99.199176 -290.676484 
L 103.15728 -288.952256 
L 104.476648 -274.822454 
L 105.796016 -270.833384 
L 107.115385 -267.86715 
L 108.434753 -265.31005 
L 112.392857 -264.316422 
L 113.712225 -274.252587 
L 115.031593 -278.650791 
L 116.350962 -277.657186 
L 117.67033 -271.330187 
L 121.628434 -273.799619 
L 122.947802 -273.536591 
L 124.26717 -281.529357 
L 125.586538 -273.974955 
L 126.905907 -273.770388 
L 132.183379 -264.228753 
L 133.502747 -258.310889 
L 134.822115 -262.124622 
L 136.141484 -263.600426 
L 141.418956 -257.974819 
L 142.738324 -259.202222 
L 144.057692 -257.273449 
L 145.37706 -273.843453 
L 149.335165 -277.30649 
L 150.654533 -294.607094 
L 151.973901 -296.652787 
L 153.293269 -306.062919 
L 154.612637 -308.020922 
L 159.89011 -304.236419 
L 161.209478 -304.192585 
L 162.528846 -285.839893 
L 163.848214 -290.018926 
L 167.806319 -302.205352 
L 169.125687 -295.308486 
L 170.445055 -290.588793 
L 171.764423 -301.065595 
L 173.083791 -306.793519 
L 177.041896 -294.271024 
L 178.361264 -304.236419 
L 179.680632 -307.962462 
L 181 -291.187891 
L 182.319368 -290.486521 
L 186.277473 -289.434455 
L 187.596841 -287.125756 
L 188.916209 -286.672788 
L 190.235577 -284.276421 
L 191.554945 -283.458152 
L 195.513049 -289.127593 
L 196.832418 -285.883727 
L 198.151786 -296.579723 
L 199.471154 -285.839893 
L 200.790522 -284.773223 
L 206.067995 -279.965885 
L 207.387363 -283.794222 
L 208.706731 -286.672788 
L 210.026099 -281.675486 
L 213.984203 -287.447222 
L 215.303571 -291.874657 
L 216.62294 -330.654897 
L 217.942308 -334.366358 
L 219.261676 -351.740026 
L 223.21978 -354.940058 
L 224.539148 -357.847832 
L 225.858516 -357.906293 
L 227.177885 -353.405794 
L 228.497253 -348.262363 
L 232.455357 -342.198392 
L 233.774725 -347.619431 
L 235.094093 -341.672359 
L 236.413462 -346.552762 
L 237.73283 -336.412029 
L 241.690934 -343.805698 
L 243.010302 -350.483393 
L 244.32967 -344.287897 
L 245.649038 -351.856925 
L 246.968407 -353.186623 
L 250.926511 -351.783861 
L 252.245879 -351.593898 
L 253.565247 -359.396723 
L 254.884615 -356.430489 
L 256.203984 -362.538294 
L 260.162088 -349.372889 
L 261.481456 -348.86146 
L 262.800824 -339.319826 
L 264.120192 -343.557297 
L 269.397665 -354.545528 
L 270.717033 -351.623128 
L 272.036401 -348.49616 
L 273.355769 -353.420398 
L 274.675137 -349.241364 
L 278.633242 -364.569362 
L 279.95261 -365.431464 
L 281.271978 -363.546526 
L 282.591346 -359.659728 
L 283.910714 -361.646961 
L 287.868819 -351.433165 
L 289.188187 -352.353728 
L 290.507555 -336.251296 
L 291.826923 -338.180091 
L 293.146291 -311.51319 
L 297.104396 -308.98532 
L 298.423764 -302.482961 
L 299.743132 -299.458289 
L 301.0625 -295.454592 
L 302.381868 -305.697619 
L 306.339973 -304.031852 
L 307.659341 -304.82089 
L 308.978709 -308.824587 
L 310.298077 -312.404522 
L 311.617445 -383.272727 
L 315.575549 -368.514597 
L 316.894918 -355.670658 
L 318.214286 -351.228598 
L 319.533654 -346.143627 
L 320.853022 -342.125327 
L 324.811126 -339.436724 
L 326.130495 -338.26776 
L 327.449863 -334.848557 
L 328.769231 -338.340824 
L 330.088599 -339.553623 
L 335.366071 -340.474164 
L 336.68544 -341.292455 
L 338.004808 -349.738189 
L 339.324176 -346.815789 
L 343.28228 -342.329894 
L 344.601648 -332.320687 
L 345.921016 -324.926996 
L 347.240385 -325.75989 
L 348.559753 -325.277692 
L 352.517857 -331.473188 
L 353.837225 -331.107888 
L 355.156593 -326.782726 
L 356.475962 -326.563555 
L 357.79533 -320.879487 
L 363.072802 -316.65662 
L 364.39217 -314.43559 
L 365.711538 -318.08859 
L 367.030907 -314.347921 
L 370.989011 -305.624555 
L 372.308379 -311.732361 
L 373.627747 -313.909557 
L 374.947115 -313.602695 
L 376.266484 -322.486794 
L 380.224588 -324.386359 
L 382.863324 -317.898627 
L 384.182692 -312.331458 
L 385.50206 -321.098659 
L 389.460165 -323.553486 
L 390.779533 -321.800028 
L 392.098901 -329.602854 
L 393.418269 -332.510628 
L 394.737637 -324.254856 
L 398.695742 -346.771955 
L 400.01511 -339.261387 
L 401.334478 -334.892391 
L 402.653846 -334.775492 
L 403.973214 -333.91339 
L 407.931319 -333.54809 
L 409.250687 -336.981897 
L 410.570055 -333.18279 
L 411.889423 -335.213857 
L 413.208791 -349.241364 
L 417.166896 -347.780164 
L 418.486264 -340.883298 
L 419.805632 -328.609226 
L 421.125 -331.473188 
L 422.444368 -328.755355 
L 426.402473 -330.538021 
L 427.721841 -331.268621 
L 429.041209 -342.227622 
L 430.360577 -344.287897 
L 431.679945 -344.08333 
L 435.638049 -353.668799 
L 436.957418 -336.718891 
L 438.276786 -325.116959 
L 439.596154 -312.769822 
L 440.915522 -310.534188 
L 444.873626 -310.227326 
L 446.192995 -302.62909 
L 447.512363 -308.590789 
L 448.831731 -299.589791 
L 450.151099 -304.017226 
L 454.109203 -303.008994 
L 455.428571 -310.095824 
L 456.74794 -314.990853 
L 458.067308 -321.069428 
L 459.386676 -317.051128 
L 464.664148 -317.211861 
L 465.983516 -310.797193 
L 467.302885 -308.473891 
L 468.622253 -312.433753 
L 472.580357 -306.822727 
L 473.899725 -309.116822 
L 475.219093 -293.86189 
L 476.538462 -303.35969 
L 477.85783 -299.049154 
L 481.815934 -289.828985 
L 483.135302 -291.933095 
L 484.45467 -292.020786 
L 485.774038 -287.637185 
L 487.093407 -282.099224 
L 491.051511 -284.860892 
L 492.370879 -280.550356 
L 493.690247 -276.488221 
L 495.009615 -280.711089 
L 496.328984 -280.842591 
L 500.287088 -273.171291 
L 501.606456 -265.733788 
L 502.925824 -266.566682 
L 504.245192 -257.112716 
L 505.56456 -261.803156 
L 509.522665 -254.847851 
L 510.842033 -266.186756 
L 512.161401 -266.099088 
L 513.480769 -263.015955 
L 514.800137 -260.867989 
L 518.758242 -265.792226 
L 520.07761 -275.684557 
L 521.396978 -268.480851 
L 522.716346 -266.785854 
L 524.035714 -265.032418 
L 527.993819 -265.836082 
L 529.313187 -272.528359 
L 530.632555 -265.894521 
L 531.951923 -265.587659 
L 533.271291 -254.058791 
L 537.229396 -243.918081 
L 538.548764 -252.875222 
L 539.868132 -253.44509 
L 541.1875 -260.38579 
L 541.1875 -44.727273 
L 541.1875 -44.727273 
L 539.868132 -44.727273 
L 538.548764 -44.727273 
L 537.229396 -44.727273 
L 533.271291 -44.727273 
L 531.951923 -44.727273 
L 530.632555 -44.727273 
L 529.313187 -44.727273 
L 527.993819 -44.727273 
L 524.035714 -44.727273 
L 522.716346 -44.727273 
L 521.396978 -44.727273 
L 520.07761 -44.727273 
L 518.758242 -44.727273 
L 514.800137 -44.727273 
L 513.480769 -44.727273 
L 512.161401 -44.727273 
L 510.842033 -44.727273 
L 509.522665 -44.727273 
L 505.56456 -44.727273 
L 504.245192 -44.727273 
L 502.925824 -44.727273 
L 501.606456 -44.727273 
L 500.287088 -44.727273 
L 496.328984 -44.727273 
L 495.009615 -44.727273 
L 493.690247 -44.727273 
L 492.370879 -44.727273 
L 491.051511 -44.727273 
L 487.093407 -44.727273 
L 485.774038 -44.727273 
L 484.45467 -44.727273 
L 483.135302 -44.727273 
L 481.815934 -44.727273 
L 477.85783 -44.727273 
L 476.538462 -44.727273 
L 475.219093 -44.727273 
L 473.899725 -44.727273 
L 472.580357 -44.727273 
L 468.622253 -44.727273 
L 467.302885 -44.727273 
L 465.983516 -44.727273 
L 464.664148 -44.727273 
L 459.386676 -44.727273 
L 458.067308 -44.727273 
L 456.74794 -44.727273 
L 455.428571 -44.727273 
L 454.109203 -44.727273 
L 450.151099 -44.727273 
L 448.831731 -44.727273 
L 447.512363 -44.727273 
L 446.192995 -44.727273 
L 444.873626 -44.727273 
L 440.915522 -44.727273 
L 439.596154 -44.727273 
L 438.276786 -44.727273 
L 436.957418 -44.727273 
L 435.638049 -44.727273 
L 431.679945 -44.727273 
L 430.360577 -44.727273 
L 429.041209 -44.727273 
L 427.721841 -44.727273 
L 426.402473 -44.727273 
L 422.444368 -44.727273 
L 421.125 -44.727273 
L 419.805632 -44.727273 
L 418.486264 -44.727273 
L 417.166896 -44.727273 
L 413.208791 -44.727273 
L 411.889423 -44.727273 
L 410.570055 -44.727273 
L 409.250687 -44.727273 
L 407.931319 -44.727273 
L 403.973214 -44.727273 
L 402.653846 -44.727273 
L 401.334478 -44.727273 
L 400.01511 -44.727273 
L 398.695742 -44.727273 
L 394.737637 -44.727273 
L 393.418269 -44.727273 
L 392.098901 -44.727273 
L 390.779533 -44.727273 
L 389.460165 -44.727273 
L 385.50206 -44.727273 
L 384.182692 -44.727273 
L 382.863324 -44.727273 
L 380.224588 -44.727273 
L 376.266484 -44.727273 
L 374.947115 -44.727273 
L 373.627747 -44.727273 
L 372.308379 -44.727273 
L 370.989011 -44.727273 
L 367.030907 -44.727273 
L 365.711538 -44.727273 
L 364.39217 -44.727273 
L 363.072802 -44.727273 
L 357.79533 -44.727273 
L 356.475962 -44.727273 
L 355.156593 -44.727273 
L 353.837225 -44.727273 
L 352.517857 -44.727273 
L 348.559753 -44.727273 
L 347.240385 -44.727273 
L 345.921016 -44.727273 
L 344.601648 -44.727273 
L 343.28228 -44.727273 
L 339.324176 -44.727273 
L 338.004808 -44.727273 
L 336.68544 -44.727273 
L 335.366071 -44.727273 
L 330.088599 -44.727273 
L 328.769231 -44.727273 
L 327.449863 -44.727273 
L 326.130495 -44.727273 
L 324.811126 -44.727273 
L 320.853022 -44.727273 
L 319.533654 -44.727273 
L 318.214286 -44.727273 
L 316.894918 -44.727273 
L 315.575549 -44.727273 
L 311.617445 -44.727273 
L 310.298077 -44.727273 
L 308.978709 -44.727273 
L 307.659341 -44.727273 
L 306.339973 -44.727273 
L 302.381868 -44.727273 
L 301.0625 -44.727273 
L 299.743132 -44.727273 
L 298.423764 -44.727273 
L 297.104396 -44.727273 
L 293.146291 -44.727273 
L 291.826923 -44.727273 
L 290.507555 -44.727273 
L 289.188187 -44.727273 
L 287.868819 -44.727273 
L 283.910714 -44.727273 
L 282.591346 -44.727273 
L 281.271978 -44.727273 
L 279.95261 -44.727273 
L 278.633242 -44.727273 
L 274.675137 -44.727273 
L 273.355769 -44.727273 
L 272.036401 -44.727273 
L 270.717033 -44.727273 
L 269.397665 -44.727273 
L 264.120192 -44.727273 
L 262.800824 -44.727273 
L 261.481456 -44.727273 
L 260.162088 -44.727273 
L 256.203984 -44.727273 
L 254.884615 -44.727273 
L 253.565247 -44.727273 
L 252.245879 -44.727273 
L 250.926511 -44.727273 
L 246.968407 -44.727273 
L 245.649038 -44.727273 
L 244.32967 -44.727273 
L 243.010302 -44.727273 
L 241.690934 -44.727273 
L 237.73283 -44.727273 
L 236.413462 -44.727273 
L 235.094093 -44.727273 
L 233.774725 -44.727273 
L 232.455357 -44.727273 
L 228.497253 -44.727273 
L 227.177885 -44.727273 
L 225.858516 -44.727273 
L 224.539148 -44.727273 
L 223.21978 -44.727273 
L 219.261676 -44.727273 
L 217.942308 -44.727273 
L 216.62294 -44.727273 
L 215.303571 -44.727273 
L 213.984203 -44.727273 
L 210.026099 -44.727273 
L 208.706731 -44.727273 
L 207.387363 -44.727273 
L 206.067995 -44.727273 
L 200.790522 -44.727273 
L 199.471154 -44.727273 
L 198.151786 -44.727273 
L 196.832418 -44.727273 
L 195.513049 -44.727273 
L 191.554945 -44.727273 
L 190.235577 -44.727273 
L 188.916209 -44.727273 
L 187.596841 -44.727273 
L 186.277473 -44.727273 
L 182.319368 -44.727273 
L 181 -44.727273 
L 179.680632 -44.727273 
L 178.361264 -44.727273 
L 177.041896 -44.727273 
L 173.083791 -44.727273 
L 171.764423 -44.727273 
L 170.445055 -44.727273 
L 169.125687 -44.727273 
L 167.806319 -44.727273 
L 163.848214 -44.727273 
L 162.528846 -44.727273 
L 161.209478 -44.727273 
L 159.89011 -44.727273 
L 154.612637 -44.727273 
L 153.293269 -44.727273 
L 151.973901 -44.727273 
L 150.654533 -44.727273 
L 149.335165 -44.727273 
L 145.37706 -44.727273 
L 144.057692 -44.727273 
L 142.738324 -44.727273 
L 141.418956 -44.727273 
L 136.141484 -44.727273 
L 134.822115 -44.727273 
L 133.502747 -44.727273 
L 132.183379 -44.727273 
L 126.905907 -44.727273 
L 125.586538 -44.727273 
L 124.26717 -44.727273 
L 122.947802 -44.727273 
L 121.628434 -44.727273 
L 117.67033 -44.727273 
L 116.350962 -44.727273 
L 115.031593 -44.727273 
L 113.712225 -44.727273 
L 112.392857 -44.727273 
L 108.434753 -44.727273 
L 107.115385 -44.727273 
L 105.796016 -44.727273 
L 104.476648 -44.727273 
L 103.15728 -44.727273 
L 99.199176 -44.727273 
L 97.879808 -44.727273 
L 96.56044 -44.727273 
L 95.241071 -44.727273 
L 93.921703 -44.727273 
L 89.963599 -44.727273 
L 87.324863 -44.727273 
L 86.005495 -44.727273 
L 84.686126 -44.727273 
L 80.728022 -44.727273 
L 79.408654 -44.727273 
L 78.089286 -44.727273 
L 76.769918 -44.727273 
L 75.450549 -44.727273 
L 71.492445 -44.727273 
L 70.173077 -44.727273 
L 68.853709 -44.727273 
L 67.534341 -44.727273 
L 66.214973 -44.727273 
L 62.256868 -44.727273 
L 60.9375 -44.727273 
z
" id="m27de8cb76f" style="stroke:#93d275;"/>
    </defs>
    <g clip-path="url(#p36d453b673)">
     <use style="fill:#93d275;stroke:#93d275;" x="0" xlink:href="#m27de8cb76f" y="432"/>
    </g>
   </g>
   <g id="matplotlib.axis_1">
    <g id="xtick_1">
     <g id="line2d_1">
      <defs>
       <path d="M 0 0 
L 0 3.5 
" id="md3789e1737" style="stroke:#000000;stroke-width:0.8;"/>
      </defs>
      <g>
       <use style="stroke:#000000;stroke-width:0.8;" x="58.298764" xlink:href="#md3789e1737" y="404.2"/>
      </g>
     </g>
     <g id="text_1">
      <!-- 2022-11 -->
      <defs>
       <path d="M 19.1875 8.296875 
L 53.609375 8.296875 
L 53.609375 0 
L 7.328125 0 
L 7.328125 8.296875 
Q 12.9375 14.109375 22.625 23.890625 
Q 32.328125 33.6875 34.8125 36.53125 
Q 39.546875 41.84375 41.421875 45.53125 
Q 43.3125 49.21875 43.3125 52.78125 
Q 43.3125 58.59375 39.234375 62.25 
Q 35.15625 65.921875 28.609375 65.921875 
Q 23.96875 65.921875 18.8125 64.3125 
Q 13.671875 62.703125 7.8125 59.421875 
L 7.8125 69.390625 
Q 13.765625 71.78125 18.9375 73 
Q 24.125 74.21875 28.421875 74.21875 
Q 39.75 74.21875 46.484375 68.546875 
Q 53.21875 62.890625 53.21875 53.421875 
Q 53.21875 48.921875 51.53125 44.890625 
Q 49.859375 40.875 45.40625 35.40625 
Q 44.1875 33.984375 37.640625 27.21875 
Q 31.109375 20.453125 19.1875 8.296875 
z
" id="DejaVuSans-50"/>
       <path d="M 31.78125 66.40625 
Q 24.171875 66.40625 20.328125 58.90625 
Q 16.5 51.421875 16.5 36.375 
Q 16.5 21.390625 20.328125 13.890625 
Q 24.171875 6.390625 31.78125 6.390625 
Q 39.453125 6.390625 43.28125 13.890625 
Q 47.125 21.390625 47.125 36.375 
Q 47.125 51.421875 43.28125 58.90625 
Q 39.453125 66.40625 31.78125 66.40625 
z
M 31.78125 74.21875 
Q 44.046875 74.21875 50.515625 64.515625 
Q 56.984375 54.828125 56.984375 36.375 
Q 56.984375 17.96875 50.515625 8.265625 
Q 44.046875 -1.421875 31.78125 -1.421875 
Q 19.53125 -1.421875 13.0625 8.265625 
Q 6.59375 17.96875 6.59375 36.375 
Q 6.59375 54.828125 13.0625 64.515625 
Q 19.53125 74.21875 31.78125 74.21875 
z
" id="DejaVuSans-48"/>
       <path d="M 4.890625 31.390625 
L 31.203125 31.390625 
L 31.203125 23.390625 
L 4.890625 23.390625 
z
" id="DejaVuSans-45"/>
       <path d="M 12.40625 8.296875 
L 28.515625 8.296875 
L 28.515625 63.921875 
L 10.984375 60.40625 
L 10.984375 69.390625 
L 28.421875 72.90625 
L 38.28125 72.90625 
L 38.28125 8.296875 
L 54.390625 8.296875 
L 54.390625 0 
L 12.40625 0 
z
" id="DejaVuSans-49"/>
      </defs>
      <g transform="translate(37.407357 418.798437)scale(0.1 -0.1)">
       <use xlink:href="#DejaVuSans-50"/>
       <use x="63.623047" xlink:href="#DejaVuSans-48"/>
       <use x="127.246094" xlink:href="#DejaVuSans-50"/>
       <use x="190.869141" xlink:href="#DejaVuSans-50"/>
       <use x="254.492188" xlink:href="#DejaVuSans-45"/>
       <use x="290.576172" xlink:href="#DejaVuSans-49"/>
       <use x="354.199219" xlink:href="#DejaVuSans-49"/>
      </g>
     </g>
    </g>
    <g id="xtick_2">
     <g id="line2d_2">
      <g>
       <use style="stroke:#000000;stroke-width:0.8;" x="138.78022" xlink:href="#md3789e1737" y="404.2"/>
      </g>
     </g>
     <g id="text_2">
      <!-- 2023-01 -->
      <defs>
       <path d="M 40.578125 39.3125 
Q 47.65625 37.796875 51.625 33 
Q 55.609375 28.21875 55.609375 21.1875 
Q 55.609375 10.40625 48.1875 4.484375 
Q 40.765625 -1.421875 27.09375 -1.421875 
Q 22.515625 -1.421875 17.65625 -0.515625 
Q 12.796875 0.390625 7.625 2.203125 
L 7.625 11.71875 
Q 11.71875 9.328125 16.59375 8.109375 
Q 21.484375 6.890625 26.8125 6.890625 
Q 36.078125 6.890625 40.9375 10.546875 
Q 45.796875 14.203125 45.796875 21.1875 
Q 45.796875 27.640625 41.28125 31.265625 
Q 36.765625 34.90625 28.71875 34.90625 
L 20.21875 34.90625 
L 20.21875 43.015625 
L 29.109375 43.015625 
Q 36.375 43.015625 40.234375 45.921875 
Q 44.09375 48.828125 44.09375 54.296875 
Q 44.09375 59.90625 40.109375 62.90625 
Q 36.140625 65.921875 28.71875 65.921875 
Q 24.65625 65.921875 20.015625 65.03125 
Q 15.375 64.15625 9.8125 62.3125 
L 9.8125 71.09375 
Q 15.4375 72.65625 20.34375 73.4375 
Q 25.25 74.21875 29.59375 74.21875 
Q 40.828125 74.21875 47.359375 69.109375 
Q 53.90625 64.015625 53.90625 55.328125 
Q 53.90625 49.265625 50.4375 45.09375 
Q 46.96875 40.921875 40.578125 39.3125 
z
" id="DejaVuSans-51"/>
      </defs>
      <g transform="translate(117.888814 418.798437)scale(0.1 -0.1)">
       <use xlink:href="#DejaVuSans-50"/>
       <use x="63.623047" xlink:href="#DejaVuSans-48"/>
       <use x="127.246094" xlink:href="#DejaVuSans-50"/>
       <use x="190.869141" xlink:href="#DejaVuSans-51"/>
       <use x="254.492188" xlink:href="#DejaVuSans-45"/>
       <use x="290.576172" xlink:href="#DejaVuSans-48"/>
       <use x="354.199219" xlink:href="#DejaVuSans-49"/>
      </g>
     </g>
    </g>
    <g id="xtick_3">
     <g id="line2d_3">
      <g>
       <use style="stroke:#000000;stroke-width:0.8;" x="216.62294" xlink:href="#md3789e1737" y="404.2"/>
      </g>
     </g>
     <g id="text_3">
      <!-- 2023-03 -->
      <g transform="translate(195.731533 418.798437)scale(0.1 -0.1)">
       <use xlink:href="#DejaVuSans-50"/>
       <use x="63.623047" xlink:href="#DejaVuSans-48"/>
       <use x="127.246094" xlink:href="#DejaVuSans-50"/>
       <use x="190.869141" xlink:href="#DejaVuSans-51"/>
       <use x="254.492188" xlink:href="#DejaVuSans-45"/>
       <use x="290.576172" xlink:href="#DejaVuSans-48"/>
       <use x="354.199219" xlink:href="#DejaVuSans-51"/>
      </g>
     </g>
    </g>
    <g id="xtick_4">
     <g id="line2d_4">
      <g>
       <use style="stroke:#000000;stroke-width:0.8;" x="297.104396" xlink:href="#md3789e1737" y="404.2"/>
      </g>
     </g>
     <g id="text_4">
      <!-- 2023-05 -->
      <defs>
       <path d="M 10.796875 72.90625 
L 49.515625 72.90625 
L 49.515625 64.59375 
L 19.828125 64.59375 
L 19.828125 46.734375 
Q 21.96875 47.46875 24.109375 47.828125 
Q 26.265625 48.1875 28.421875 48.1875 
Q 40.625 48.1875 47.75 41.5 
Q 54.890625 34.8125 54.890625 23.390625 
Q 54.890625 11.625 47.5625 5.09375 
Q 40.234375 -1.421875 26.90625 -1.421875 
Q 22.3125 -1.421875 17.546875 -0.640625 
Q 12.796875 0.140625 7.71875 1.703125 
L 7.71875 11.625 
Q 12.109375 9.234375 16.796875 8.0625 
Q 21.484375 6.890625 26.703125 6.890625 
Q 35.15625 6.890625 40.078125 11.328125 
Q 45.015625 15.765625 45.015625 23.390625 
Q 45.015625 31 40.078125 35.4375 
Q 35.15625 39.890625 26.703125 39.890625 
Q 22.75 39.890625 18.8125 39.015625 
Q 14.890625 38.140625 10.796875 36.28125 
z
" id="DejaVuSans-53"/>
      </defs>
      <g transform="translate(276.212989 418.798437)scale(0.1 -0.1)">
       <use xlink:href="#DejaVuSans-50"/>
       <use x="63.623047" xlink:href="#DejaVuSans-48"/>
       <use x="127.246094" xlink:href="#DejaVuSans-50"/>
       <use x="190.869141" xlink:href="#DejaVuSans-51"/>
       <use x="254.492188" xlink:href="#DejaVuSans-45"/>
       <use x="290.576172" xlink:href="#DejaVuSans-48"/>
       <use x="354.199219" xlink:href="#DejaVuSans-53"/>
      </g>
     </g>
    </g>
    <g id="xtick_5">
     <g id="line2d_5">
      <g>
       <use style="stroke:#000000;stroke-width:0.8;" x="377.585852" xlink:href="#md3789e1737" y="404.2"/>
      </g>
     </g>
     <g id="text_5">
      <!-- 2023-07 -->
      <defs>
       <path d="M 8.203125 72.90625 
L 55.078125 72.90625 
L 55.078125 68.703125 
L 28.609375 0 
L 18.3125 0 
L 43.21875 64.59375 
L 8.203125 64.59375 
z
" id="DejaVuSans-55"/>
      </defs>
      <g transform="translate(356.694445 418.798437)scale(0.1 -0.1)">
       <use xlink:href="#DejaVuSans-50"/>
       <use x="63.623047" xlink:href="#DejaVuSans-48"/>
       <use x="127.246094" xlink:href="#DejaVuSans-50"/>
       <use x="190.869141" xlink:href="#DejaVuSans-51"/>
       <use x="254.492188" xlink:href="#DejaVuSans-45"/>
       <use x="290.576172" xlink:href="#DejaVuSans-48"/>
       <use x="354.199219" xlink:href="#DejaVuSans-55"/>
      </g>
     </g>
    </g>
    <g id="xtick_6">
     <g id="line2d_6">
      <g>
       <use style="stroke:#000000;stroke-width:0.8;" x="459.386676" xlink:href="#md3789e1737" y="404.2"/>
      </g>
     </g>
     <g id="text_6">
      <!-- 2023-09 -->
      <defs>
       <path d="M 10.984375 1.515625 
L 10.984375 10.5 
Q 14.703125 8.734375 18.5 7.8125 
Q 22.3125 6.890625 25.984375 6.890625 
Q 35.75 6.890625 40.890625 13.453125 
Q 46.046875 20.015625 46.78125 33.40625 
Q 43.953125 29.203125 39.59375 26.953125 
Q 35.25 24.703125 29.984375 24.703125 
Q 19.046875 24.703125 12.671875 31.3125 
Q 6.296875 37.9375 6.296875 49.421875 
Q 6.296875 60.640625 12.9375 67.421875 
Q 19.578125 74.21875 30.609375 74.21875 
Q 43.265625 74.21875 49.921875 64.515625 
Q 56.59375 54.828125 56.59375 36.375 
Q 56.59375 19.140625 48.40625 8.859375 
Q 40.234375 -1.421875 26.421875 -1.421875 
Q 22.703125 -1.421875 18.890625 -0.6875 
Q 15.09375 0.046875 10.984375 1.515625 
z
M 30.609375 32.421875 
Q 37.25 32.421875 41.125 36.953125 
Q 45.015625 41.5 45.015625 49.421875 
Q 45.015625 57.28125 41.125 61.84375 
Q 37.25 66.40625 30.609375 66.40625 
Q 23.96875 66.40625 20.09375 61.84375 
Q 16.21875 57.28125 16.21875 49.421875 
Q 16.21875 41.5 20.09375 36.953125 
Q 23.96875 32.421875 30.609375 32.421875 
z
" id="DejaVuSans-57"/>
      </defs>
      <g transform="translate(438.49527 418.798437)scale(0.1 -0.1)">
       <use xlink:href="#DejaVuSans-50"/>
       <use x="63.623047" xlink:href="#DejaVuSans-48"/>
       <use x="127.246094" xlink:href="#DejaVuSans-50"/>
       <use x="190.869141" xlink:href="#DejaVuSans-51"/>
       <use x="254.492188" xlink:href="#DejaVuSans-45"/>
       <use x="290.576172" xlink:href="#DejaVuSans-48"/>
       <use x="354.199219" xlink:href="#DejaVuSans-57"/>
      </g>
     </g>
    </g>
    <g id="xtick_7">
     <g id="line2d_7">
      <g>
       <use style="stroke:#000000;stroke-width:0.8;" x="539.868132" xlink:href="#md3789e1737" y="404.2"/>
      </g>
     </g>
     <g id="text_7">
      <!-- 2023-11 -->
      <g transform="translate(518.976726 418.798437)scale(0.1 -0.1)">
       <use xlink:href="#DejaVuSans-50"/>
       <use x="63.623047" xlink:href="#DejaVuSans-48"/>
       <use x="127.246094" xlink:href="#DejaVuSans-50"/>
       <use x="190.869141" xlink:href="#DejaVuSans-51"/>
       <use x="254.492188" xlink:href="#DejaVuSans-45"/>
       <use x="290.576172" xlink:href="#DejaVuSans-49"/>
       <use x="354.199219" xlink:href="#DejaVuSans-49"/>
      </g>
     </g>
    </g>
   </g>
   <g id="matplotlib.axis_2">
    <g id="ytick_1">
     <g id="line2d_8">
      <defs>
       <path d="M 0 0 
L -3.5 0 
" id="md1d2dcebe4" style="stroke:#000000;stroke-width:0.8;"/>
      </defs>
      <g>
       <use style="stroke:#000000;stroke-width:0.8;" x="36.925" xlink:href="#md1d2dcebe4" y="387.272727"/>
      </g>
     </g>
     <g id="text_8">
      <!-- 0 -->
      <g transform="translate(23.5625 391.071946)scale(0.1 -0.1)">
       <use xlink:href="#DejaVuSans-48"/>
      </g>
     </g>
    </g>
    <g id="ytick_2">
     <g id="line2d_9">
      <g>
       <use style="stroke:#000000;stroke-width:0.8;" x="36.925" xlink:href="#md1d2dcebe4" y="314.212722"/>
      </g>
     </g>
     <g id="text_9">
      <!-- 50 -->
      <g transform="translate(17.2 318.011941)scale(0.1 -0.1)">
       <use xlink:href="#DejaVuSans-53"/>
       <use x="63.623047" xlink:href="#DejaVuSans-48"/>
      </g>
     </g>
    </g>
    <g id="ytick_3">
     <g id="line2d_10">
      <g>
       <use style="stroke:#000000;stroke-width:0.8;" x="36.925" xlink:href="#md1d2dcebe4" y="241.152717"/>
      </g>
     </g>
     <g id="text_10">
      <!-- 100 -->
      <g transform="translate(10.8375 244.951936)scale(0.1 -0.1)">
       <use xlink:href="#DejaVuSans-49"/>
       <use x="63.623047" xlink:href="#DejaVuSans-48"/>
       <use x="127.246094" xlink:href="#DejaVuSans-48"/>
      </g>
     </g>
    </g>
    <g id="ytick_4">
     <g id="line2d_11">
      <g>
       <use style="stroke:#000000;stroke-width:0.8;" x="36.925" xlink:href="#md1d2dcebe4" y="168.092712"/>
      </g>
     </g>
     <g id="text_11">
      <!-- 150 -->
      <g transform="translate(10.8375 171.891931)scale(0.1 -0.1)">
       <use xlink:href="#DejaVuSans-49"/>
       <use x="63.623047" xlink:href="#DejaVuSans-53"/>
       <use x="127.246094" xlink:href="#DejaVuSans-48"/>
      </g>
     </g>
    </g>
    <g id="ytick_5">
     <g id="line2d_12">
      <g>
       <use style="stroke:#000000;stroke-width:0.8;" x="36.925" xlink:href="#md1d2dcebe4" y="95.032707"/>
      </g>
     </g>
     <g id="text_12">
      <!-- 200 -->
      <g transform="translate(10.8375 98.831926)scale(0.1 -0.1)">
       <use xlink:href="#DejaVuSans-50"/>
       <use x="63.623047" xlink:href="#DejaVuSans-48"/>
       <use x="127.246094" xlink:href="#DejaVuSans-48"/>
      </g>
     </g>
    </g>
   </g>
   <g id="patch_3">
    <path d="M 36.925 404.2 
L 36.925 31.8 
" style="fill:none;stroke:#000000;stroke-linecap:square;stroke-linejoin:miter;stroke-width:0.8;"/>
   </g>
   <g id="patch_4">
    <path d="M 565.2 404.2 
L 565.2 31.8 
" style="fill:none;stroke:#000000;stroke-linecap:square;stroke-linejoin:miter;stroke-width:0.8;"/>
   </g>
   <g id="patch_5">
    <path d="M 36.925 404.2 
L 565.2 404.2 
" style="fill:none;stroke:#000000;stroke-linecap:square;stroke-linejoin:miter;stroke-width:0.8;"/>
   </g>
   <g id="patch_6">
    <path d="M 36.925 31.8 
L 565.2 31.8 
" style="fill:none;stroke:#000000;stroke-linecap:square;stroke-linejoin:miter;stroke-width:0.8;"/>
   </g>
   <g id="text_13">
    <!-- FSLR - -6.43% -->
    <defs>
     <path d="M 9.1875 72.90625 
L 59.90625 72.90625 
L 59.90625 58.6875 
L 27.984375 58.6875 
L 27.984375 45.125 
L 58.015625 45.125 
L 58.015625 30.90625 
L 27.984375 30.90625 
L 27.984375 0 
L 9.1875 0 
z
" id="DejaVuSans-Bold-70"/>
     <path d="M 59.90625 70.609375 
L 59.90625 55.171875 
Q 53.90625 57.859375 48.1875 59.21875 
Q 42.484375 60.59375 37.40625 60.59375 
Q 30.671875 60.59375 27.4375 58.734375 
Q 24.21875 56.890625 24.21875 52.984375 
Q 24.21875 50.046875 26.390625 48.40625 
Q 28.5625 46.78125 34.28125 45.609375 
L 42.28125 44 
Q 54.4375 41.546875 59.5625 36.5625 
Q 64.703125 31.59375 64.703125 22.40625 
Q 64.703125 10.359375 57.546875 4.46875 
Q 50.390625 -1.421875 35.6875 -1.421875 
Q 28.765625 -1.421875 21.78125 -0.09375 
Q 14.796875 1.21875 7.8125 3.8125 
L 7.8125 19.671875 
Q 14.796875 15.96875 21.3125 14.078125 
Q 27.828125 12.203125 33.890625 12.203125 
Q 40.046875 12.203125 43.3125 14.25 
Q 46.578125 16.3125 46.578125 20.125 
Q 46.578125 23.53125 44.359375 25.390625 
Q 42.140625 27.25 35.5 28.71875 
L 28.21875 30.328125 
Q 17.28125 32.671875 12.21875 37.796875 
Q 7.171875 42.921875 7.171875 51.609375 
Q 7.171875 62.5 14.203125 68.359375 
Q 21.234375 74.21875 34.421875 74.21875 
Q 40.4375 74.21875 46.78125 73.3125 
Q 53.125 72.40625 59.90625 70.609375 
z
" id="DejaVuSans-Bold-83"/>
     <path d="M 9.1875 72.90625 
L 27.984375 72.90625 
L 27.984375 14.203125 
L 60.984375 14.203125 
L 60.984375 0 
L 9.1875 0 
z
" id="DejaVuSans-Bold-76"/>
     <path d="M 35.890625 40.578125 
Q 41.796875 40.578125 44.359375 42.765625 
Q 46.921875 44.96875 46.921875 50 
Q 46.921875 54.984375 44.359375 57.125 
Q 41.796875 59.28125 35.890625 59.28125 
L 27.984375 59.28125 
L 27.984375 40.578125 
z
M 27.984375 27.59375 
L 27.984375 0 
L 9.1875 0 
L 9.1875 72.90625 
L 37.890625 72.90625 
Q 52.296875 72.90625 59 68.0625 
Q 65.71875 63.234375 65.71875 52.78125 
Q 65.71875 45.5625 62.21875 40.921875 
Q 58.734375 36.28125 51.703125 34.078125 
Q 55.5625 33.203125 58.609375 30.09375 
Q 61.671875 27 64.796875 20.703125 
L 75 0 
L 54.984375 0 
L 46.09375 18.109375 
Q 43.40625 23.578125 40.640625 25.578125 
Q 37.890625 27.59375 33.296875 27.59375 
z
" id="DejaVuSans-Bold-82"/>
     <path id="DejaVuSans-Bold-32"/>
     <path d="M 5.421875 35.890625 
L 36.078125 35.890625 
L 36.078125 21.6875 
L 5.421875 21.6875 
z
" id="DejaVuSans-Bold-45"/>
     <path d="M 36.1875 35.984375 
Q 31.25 35.984375 28.78125 32.78125 
Q 26.3125 29.59375 26.3125 23.1875 
Q 26.3125 16.796875 28.78125 13.59375 
Q 31.25 10.40625 36.1875 10.40625 
Q 41.15625 10.40625 43.625 13.59375 
Q 46.09375 16.796875 46.09375 23.1875 
Q 46.09375 29.59375 43.625 32.78125 
Q 41.15625 35.984375 36.1875 35.984375 
z
M 59.421875 71 
L 59.421875 57.515625 
Q 54.78125 59.71875 50.671875 60.765625 
Q 46.578125 61.8125 42.671875 61.8125 
Q 34.28125 61.8125 29.59375 57.140625 
Q 24.90625 52.484375 24.125 43.3125 
Q 27.34375 45.703125 31.09375 46.890625 
Q 34.859375 48.09375 39.3125 48.09375 
Q 50.484375 48.09375 57.34375 41.546875 
Q 64.203125 35.015625 64.203125 24.421875 
Q 64.203125 12.703125 56.53125 5.640625 
Q 48.875 -1.421875 35.984375 -1.421875 
Q 21.78125 -1.421875 13.984375 8.171875 
Q 6.203125 17.78125 6.203125 35.40625 
Q 6.203125 53.46875 15.3125 63.796875 
Q 24.421875 74.125 40.28125 74.125 
Q 45.3125 74.125 50.046875 73.34375 
Q 54.78125 72.5625 59.421875 71 
z
" id="DejaVuSans-Bold-54"/>
     <path d="M 10.203125 18.890625 
L 27.78125 18.890625 
L 27.78125 0 
L 10.203125 0 
z
" id="DejaVuSans-Bold-46"/>
     <path d="M 36.8125 57.421875 
L 16.21875 26.90625 
L 36.8125 26.90625 
z
M 33.6875 72.90625 
L 54.59375 72.90625 
L 54.59375 26.90625 
L 64.984375 26.90625 
L 64.984375 13.28125 
L 54.59375 13.28125 
L 54.59375 0 
L 36.8125 0 
L 36.8125 13.28125 
L 4.5 13.28125 
L 4.5 29.390625 
z
" id="DejaVuSans-Bold-52"/>
     <path d="M 46.578125 39.3125 
Q 53.953125 37.40625 57.78125 32.6875 
Q 61.625 27.984375 61.625 20.703125 
Q 61.625 9.859375 53.3125 4.21875 
Q 45.015625 -1.421875 29.109375 -1.421875 
Q 23.484375 -1.421875 17.84375 -0.515625 
Q 12.203125 0.390625 6.6875 2.203125 
L 6.6875 16.703125 
Q 11.96875 14.0625 17.15625 12.71875 
Q 22.359375 11.375 27.390625 11.375 
Q 34.859375 11.375 38.84375 13.953125 
Q 42.828125 16.546875 42.828125 21.390625 
Q 42.828125 26.375 38.75 28.9375 
Q 34.671875 31.5 26.703125 31.5 
L 19.1875 31.5 
L 19.1875 43.609375 
L 27.09375 43.609375 
Q 34.1875 43.609375 37.640625 45.828125 
Q 41.109375 48.046875 41.109375 52.59375 
Q 41.109375 56.78125 37.734375 59.078125 
Q 34.375 61.375 28.21875 61.375 
Q 23.6875 61.375 19.046875 60.34375 
Q 14.40625 59.328125 9.8125 57.328125 
L 9.8125 71.09375 
Q 15.375 72.65625 20.84375 73.4375 
Q 26.3125 74.21875 31.59375 74.21875 
Q 45.796875 74.21875 52.84375 69.546875 
Q 59.90625 64.890625 59.90625 55.515625 
Q 59.90625 49.125 56.53125 45.046875 
Q 53.171875 40.96875 46.578125 39.3125 
z
" id="DejaVuSans-Bold-51"/>
     <path d="M 77.484375 30.078125 
Q 74.03125 30.078125 72.125 27.078125 
Q 70.21875 24.078125 70.21875 18.5 
Q 70.21875 12.890625 72.09375 9.890625 
Q 73.96875 6.890625 77.484375 6.890625 
Q 81 6.890625 82.859375 9.890625 
Q 84.71875 12.890625 84.71875 18.5 
Q 84.71875 24.078125 82.828125 27.078125 
Q 80.953125 30.078125 77.484375 30.078125 
z
M 77.484375 38.28125 
Q 86.578125 38.28125 91.796875 33 
Q 97.015625 27.734375 97.015625 18.5 
Q 97.015625 9.28125 91.796875 3.921875 
Q 86.578125 -1.421875 77.484375 -1.421875 
Q 68.40625 -1.421875 63.15625 3.921875 
Q 57.90625 9.28125 57.90625 18.5 
Q 57.90625 27.6875 63.15625 32.984375 
Q 68.40625 38.28125 77.484375 38.28125 
z
M 32.71875 -1.421875 
L 21.921875 -1.421875 
L 67.484375 74.21875 
L 78.328125 74.21875 
z
M 22.703125 74.21875 
Q 31.78125 74.21875 36.984375 68.921875 
Q 42.1875 63.625 42.1875 54.390625 
Q 42.1875 45.171875 36.984375 39.84375 
Q 31.78125 34.515625 22.703125 34.515625 
Q 13.625 34.515625 8.421875 39.84375 
Q 3.21875 45.171875 3.21875 54.390625 
Q 3.21875 63.625 8.421875 68.921875 
Q 13.625 74.21875 22.703125 74.21875 
z
M 22.703125 66.015625 
Q 19.1875 66.015625 17.28125 62.984375 
Q 15.375 59.96875 15.375 54.390625 
Q 15.375 48.78125 17.28125 45.71875 
Q 19.1875 42.671875 22.703125 42.671875 
Q 26.21875 42.671875 28.09375 45.71875 
Q 29.984375 48.78125 29.984375 54.390625 
Q 29.984375 59.96875 28.078125 62.984375 
Q 26.171875 66.015625 22.703125 66.015625 
z
" id="DejaVuSans-Bold-37"/>
    </defs>
    <g transform="translate(36.925 25.8)scale(0.2 -0.2)">
     <use xlink:href="#DejaVuSans-Bold-70"/>
     <use x="68.310547" xlink:href="#DejaVuSans-Bold-83"/>
     <use x="140.332031" xlink:href="#DejaVuSans-Bold-76"/>
     <use x="204.052734" xlink:href="#DejaVuSans-Bold-82"/>
     <use x="281.054688" xlink:href="#DejaVuSans-Bold-32"/>
     <use x="315.869141" xlink:href="#DejaVuSans-Bold-45"/>
     <use x="357.373047" xlink:href="#DejaVuSans-Bold-32"/>
     <use x="392.1875" xlink:href="#DejaVuSans-Bold-45"/>
     <use x="433.691406" xlink:href="#DejaVuSans-Bold-54"/>
     <use x="503.271484" xlink:href="#DejaVuSans-Bold-46"/>
     <use x="541.259766" xlink:href="#DejaVuSans-Bold-52"/>
     <use x="610.839844" xlink:href="#DejaVuSans-Bold-51"/>
     <use x="680.419922" xlink:href="#DejaVuSans-Bold-37"/>
    </g>
   </g>
  </g>
 </g>
 <defs>
  <clipPath id="p36d453b673">
   <rect height="372.4" width="528.275" x="36.925" y="31.8"/>
  </clipPath>
 </defs>
</svg>
