<?xml version="1.0" encoding="utf-8" standalone="no"?>
<!DOCTYPE svg PUBLIC "-//W3C//DTD SVG 1.1//EN"
  "http://www.w3.org/Graphics/SVG/1.1/DTD/svg11.dtd">
<!-- Created with matplotlib (https://matplotlib.org/) -->
<svg height="432pt" version="1.1" viewBox="0 0 576 432" width="576pt" xmlns="http://www.w3.org/2000/svg" xmlns:xlink="http://www.w3.org/1999/xlink">
 <defs>
  <style type="text/css">
*{stroke-linecap:butt;stroke-linejoin:round;}
  </style>
 </defs>
 <g id="figure_1">
  <g id="patch_1">
   <path d="M 0 432 
L 576 432 
L 576 0 
L 0 0 
z
" style="fill:#ffffff;"/>
  </g>
  <g id="axes_1">
   <g id="patch_2">
    <path d="M 30.55 404.2 
L 565.2 404.2 
L 565.2 31.8 
L 30.55 31.8 
z
" style="fill:#ffffff;"/>
   </g>
   <g id="PolyCollection_1">
    <defs>
     <path d="M 54.852273 -44.727273 
L 54.852273 -306.390561 
L 56.187562 -316.949489 
L 60.193432 -312.000007 
L 61.528721 -305.070697 
L 62.864011 -283.292925 
L 64.199301 -330.148129 
L 65.53459 -383.272727 
L 69.54046 -361.494955 
L 70.875749 -375.683485 
L 72.211039 -351.925933 
L 73.546329 -346.316503 
L 74.881618 -312.329949 
L 78.887488 -291.872041 
L 80.222777 -285.602695 
L 81.558067 -303.420875 
L 84.228646 -306.060603 
L 88.234515 -296.821539 
L 89.569805 -306.720535 
L 90.905095 -325.198647 
L 92.240385 -226.868682 
L 93.575674 -242.377092 
L 97.581543 -224.228954 
L 98.916833 -211.030298 
L 100.252123 -202.78114 
L 101.587413 -195.851846 
L 102.922702 -194.861956 
L 106.928571 -191.56228 
L 108.263861 -188.922552 
L 109.599151 -198.491574 
L 110.934441 -180.673394 
L 112.26973 -178.033666 
L 116.275599 -173.084176 
L 117.610889 -174.734006 
L 118.946179 -173.414142 
L 120.281469 -174.40404 
L 121.616758 -175.393938 
L 126.957917 -188.592594 
L 128.293207 -181.333326 
L 129.628497 -198.161616 
L 130.963786 -200.801344 
L 136.304945 -190.242416 
L 137.640235 -208.060596 
L 138.975524 -210.70034 
L 140.310814 -207.070706 
L 144.316683 -213.010094 
L 145.651973 -214.659932 
L 146.987263 -221.259252 
L 148.322552 -222.579116 
L 149.657842 -233.797976 
L 154.999001 -248.646454 
L 156.334291 -246.666658 
L 157.66958 -240.067338 
L 159.00487 -252.276088 
L 163.010739 -257.885518 
L 164.346029 -247.32659 
L 165.681319 -248.976428 
L 167.016608 -251.94613 
L 168.351898 -279.333333 
L 172.357767 -270.424242 
L 173.693057 -269.76431 
L 175.028347 -289.892245 
L 176.363636 -293.191921 
L 177.698926 -275.043767 
L 181.704795 -259.865314 
L 183.040085 -259.205382 
L 184.375375 -246.666658 
L 185.710664 -239.407406 
L 187.045954 -231.81818 
L 191.051823 -232.148138 
L 192.387113 -235.447814 
L 193.722403 -235.11784 
L 195.057692 -220.269362 
L 196.392982 -214.98989 
L 201.734141 -207.070706 
L 203.069431 -209.050502 
L 204.40472 -208.060596 
L 205.74001 -226.538724 
L 209.745879 -219.279456 
L 211.081169 -214 
L 212.416459 -207.730638 
L 213.751748 -207.730638 
L 215.087038 -223.239048 
L 219.092907 -218.619524 
L 220.428197 -214.329958 
L 221.763487 -210.040408 
L 223.098776 -202.121208 
L 224.434066 -191.892254 
L 228.439935 -198.161616 
L 229.775225 -196.18182 
L 231.110514 -202.121208 
L 232.445804 -202.121208 
L 233.781094 -197.17171 
L 237.786963 -191.892254 
L 239.122253 -201.131302 
L 240.457542 -194.202024 
L 241.792832 -198.821548 
L 243.128122 -191.56228 
L 247.133991 -187.602688 
L 248.469281 -185.622892 
L 249.80457 -195.851846 
L 251.13986 -198.161616 
L 252.47515 -206.740732 
L 256.481019 -198.491574 
L 257.816309 -199.48148 
L 259.151598 -188.592594 
L 260.486888 -191.892254 
L 265.828047 -193.87205 
L 267.163337 -198.491574 
L 268.498626 -194.202024 
L 269.833916 -193.542092 
L 271.169206 -190.902348 
L 275.175075 -192.552186 
L 276.510365 -196.18182 
L 277.845654 -192.222212 
L 279.180944 -188.592594 
L 280.516234 -183.313122 
L 284.522103 -181.333326 
L 285.857393 -176.05387 
L 287.192682 -179.35353 
L 288.527972 -178.693598 
L 289.863262 -177.703708 
L 293.869131 -176.05387 
L 295.204421 -171.764304 
L 296.53971 -174.074074 
L 297.875 -175.393938 
L 299.21029 -181.333326 
L 303.216159 -186.282824 
L 304.551449 -180.343436 
L 305.886738 -181.993258 
L 307.222028 -180.673394 
L 308.557318 -176.05387 
L 312.563187 -179.023572 
L 313.898477 -176.383836 
L 315.233766 -179.35353 
L 316.569056 -187.932662 
L 317.904346 -209.050502 
L 321.910215 -230.168342 
L 323.245504 -220.269362 
L 324.580794 -209.710434 
L 325.916084 -202.451182 
L 327.251374 -200.141412 
L 332.592532 -209.050502 
L 333.927822 -207.400664 
L 335.263112 -209.050502 
L 336.598402 -210.70034 
L 340.604271 -222.579116 
L 341.93956 -227.198656 
L 343.27485 -219.279456 
L 344.61014 -225.548818 
L 345.94543 -238.747474 
L 349.951299 -234.787882 
L 351.286588 -244.356904 
L 352.621878 -234.457908 
L 353.957168 -236.767678 
L 355.292458 -234.457908 
L 360.633616 -233.797976 
L 361.968906 -226.538724 
L 363.304196 -227.198656 
L 364.639486 -221.259252 
L 368.645355 -221.919184 
L 369.980644 -231.158248 
L 371.315934 -247.32659 
L 372.651224 -245.346794 
L 373.986513 -244.02693 
L 377.992383 -248.646454 
L 380.662962 -245.016836 
L 381.998252 -225.218844 
L 383.333541 -233.138044 
L 387.339411 -244.02693 
L 388.6747 -249.63636 
L 390.00999 -254.915816 
L 391.34528 -263.824907 
L 392.680569 -250.956224 
L 396.686439 -236.437704 
L 398.021728 -242.377092 
L 399.357018 -235.777772 
L 400.692308 -227.528614 
L 402.027597 -226.20875 
L 406.033467 -221.919184 
L 407.368756 -217.959592 
L 408.704046 -224.228954 
L 410.039336 -217.959592 
L 411.374625 -228.848478 
L 415.380495 -235.447814 
L 416.715784 -226.538724 
L 418.051074 -221.259252 
L 419.386364 -216.639728 
L 420.721653 -214.659932 
L 424.727522 -217.29966 
L 426.062812 -212.680136 
L 427.398102 -215.319864 
L 428.733392 -215.649822 
L 430.068681 -213.010094 
L 434.07455 -218.289566 
L 435.40984 -205.420868 
L 436.74513 -204.430978 
L 438.08042 -201.79125 
L 439.415709 -130.848479 
L 443.421578 -134.148147 
L 444.756868 -140.747475 
L 446.092158 -142.727271 
L 447.427448 -141.407407 
L 448.762737 -141.407407 
L 452.768606 -137.777773 
L 454.103896 -139.097638 
L 455.439186 -139.097638 
L 456.774476 -138.767672 
L 458.109765 -137.117841 
L 463.450924 -140.417509 
L 464.786214 -135.797977 
L 466.121503 -133.818181 
L 467.456793 -131.838385 
L 471.462662 -128.208751 
L 472.797952 -124.909091 
L 474.133242 -121.609423 
L 475.468531 -124.579125 
L 476.803821 -120.949491 
L 480.80969 -116.989899 
L 482.14498 -117.649831 
L 483.48027 -114.020197 
L 484.815559 -108.740741 
L 486.150849 -104.781145 
L 490.156718 -107.750839 
L 491.492008 -104.451175 
L 492.827298 -106.760941 
L 494.162587 -109.400673 
L 495.497877 -113.690231 
L 499.503746 -112.700333 
L 500.839036 -107.750839 
L 502.174326 -107.750839 
L 503.509615 -104.781145 
L 504.844905 -105.111111 
L 508.850774 -103.461277 
L 510.186064 -105.111111 
L 511.521354 -102.471379 
L 512.856643 -102.471379 
L 514.191933 -98.511783 
L 518.197802 -104.121209 
L 519.533092 -104.121209 
L 520.868382 -99.501681 
L 522.203671 -97.851851 
L 523.538961 -96.861953 
L 527.54483 -100.491583 
L 528.88012 -106.101009 
L 530.21541 -100.161613 
L 531.550699 -99.831647 
L 532.885989 -95.872051 
L 536.891858 -93.562289 
L 538.227148 -94.222221 
L 539.562438 -93.232323 
L 540.897727 -99.171715 
L 540.897727 -44.727273 
L 540.897727 -44.727273 
L 539.562438 -44.727273 
L 538.227148 -44.727273 
L 536.891858 -44.727273 
L 532.885989 -44.727273 
L 531.550699 -44.727273 
L 530.21541 -44.727273 
L 528.88012 -44.727273 
L 527.54483 -44.727273 
L 523.538961 -44.727273 
L 522.203671 -44.727273 
L 520.868382 -44.727273 
L 519.533092 -44.727273 
L 518.197802 -44.727273 
L 514.191933 -44.727273 
L 512.856643 -44.727273 
L 511.521354 -44.727273 
L 510.186064 -44.727273 
L 508.850774 -44.727273 
L 504.844905 -44.727273 
L 503.509615 -44.727273 
L 502.174326 -44.727273 
L 500.839036 -44.727273 
L 499.503746 -44.727273 
L 495.497877 -44.727273 
L 494.162587 -44.727273 
L 492.827298 -44.727273 
L 491.492008 -44.727273 
L 490.156718 -44.727273 
L 486.150849 -44.727273 
L 484.815559 -44.727273 
L 483.48027 -44.727273 
L 482.14498 -44.727273 
L 480.80969 -44.727273 
L 476.803821 -44.727273 
L 475.468531 -44.727273 
L 474.133242 -44.727273 
L 472.797952 -44.727273 
L 471.462662 -44.727273 
L 467.456793 -44.727273 
L 466.121503 -44.727273 
L 464.786214 -44.727273 
L 463.450924 -44.727273 
L 458.109765 -44.727273 
L 456.774476 -44.727273 
L 455.439186 -44.727273 
L 454.103896 -44.727273 
L 452.768606 -44.727273 
L 448.762737 -44.727273 
L 447.427448 -44.727273 
L 446.092158 -44.727273 
L 444.756868 -44.727273 
L 443.421578 -44.727273 
L 439.415709 -44.727273 
L 438.08042 -44.727273 
L 436.74513 -44.727273 
L 435.40984 -44.727273 
L 434.07455 -44.727273 
L 430.068681 -44.727273 
L 428.733392 -44.727273 
L 427.398102 -44.727273 
L 426.062812 -44.727273 
L 424.727522 -44.727273 
L 420.721653 -44.727273 
L 419.386364 -44.727273 
L 418.051074 -44.727273 
L 416.715784 -44.727273 
L 415.380495 -44.727273 
L 411.374625 -44.727273 
L 410.039336 -44.727273 
L 408.704046 -44.727273 
L 407.368756 -44.727273 
L 406.033467 -44.727273 
L 402.027597 -44.727273 
L 400.692308 -44.727273 
L 399.357018 -44.727273 
L 398.021728 -44.727273 
L 396.686439 -44.727273 
L 392.680569 -44.727273 
L 391.34528 -44.727273 
L 390.00999 -44.727273 
L 388.6747 -44.727273 
L 387.339411 -44.727273 
L 383.333541 -44.727273 
L 381.998252 -44.727273 
L 380.662962 -44.727273 
L 377.992383 -44.727273 
L 373.986513 -44.727273 
L 372.651224 -44.727273 
L 371.315934 -44.727273 
L 369.980644 -44.727273 
L 368.645355 -44.727273 
L 364.639486 -44.727273 
L 363.304196 -44.727273 
L 361.968906 -44.727273 
L 360.633616 -44.727273 
L 355.292458 -44.727273 
L 353.957168 -44.727273 
L 352.621878 -44.727273 
L 351.286588 -44.727273 
L 349.951299 -44.727273 
L 345.94543 -44.727273 
L 344.61014 -44.727273 
L 343.27485 -44.727273 
L 341.93956 -44.727273 
L 340.604271 -44.727273 
L 336.598402 -44.727273 
L 335.263112 -44.727273 
L 333.927822 -44.727273 
L 332.592532 -44.727273 
L 327.251374 -44.727273 
L 325.916084 -44.727273 
L 324.580794 -44.727273 
L 323.245504 -44.727273 
L 321.910215 -44.727273 
L 317.904346 -44.727273 
L 316.569056 -44.727273 
L 315.233766 -44.727273 
L 313.898477 -44.727273 
L 312.563187 -44.727273 
L 308.557318 -44.727273 
L 307.222028 -44.727273 
L 305.886738 -44.727273 
L 304.551449 -44.727273 
L 303.216159 -44.727273 
L 299.21029 -44.727273 
L 297.875 -44.727273 
L 296.53971 -44.727273 
L 295.204421 -44.727273 
L 293.869131 -44.727273 
L 289.863262 -44.727273 
L 288.527972 -44.727273 
L 287.192682 -44.727273 
L 285.857393 -44.727273 
L 284.522103 -44.727273 
L 280.516234 -44.727273 
L 279.180944 -44.727273 
L 277.845654 -44.727273 
L 276.510365 -44.727273 
L 275.175075 -44.727273 
L 271.169206 -44.727273 
L 269.833916 -44.727273 
L 268.498626 -44.727273 
L 267.163337 -44.727273 
L 265.828047 -44.727273 
L 260.486888 -44.727273 
L 259.151598 -44.727273 
L 257.816309 -44.727273 
L 256.481019 -44.727273 
L 252.47515 -44.727273 
L 251.13986 -44.727273 
L 249.80457 -44.727273 
L 248.469281 -44.727273 
L 247.133991 -44.727273 
L 243.128122 -44.727273 
L 241.792832 -44.727273 
L 240.457542 -44.727273 
L 239.122253 -44.727273 
L 237.786963 -44.727273 
L 233.781094 -44.727273 
L 232.445804 -44.727273 
L 231.110514 -44.727273 
L 229.775225 -44.727273 
L 228.439935 -44.727273 
L 224.434066 -44.727273 
L 223.098776 -44.727273 
L 221.763487 -44.727273 
L 220.428197 -44.727273 
L 219.092907 -44.727273 
L 215.087038 -44.727273 
L 213.751748 -44.727273 
L 212.416459 -44.727273 
L 211.081169 -44.727273 
L 209.745879 -44.727273 
L 205.74001 -44.727273 
L 204.40472 -44.727273 
L 203.069431 -44.727273 
L 201.734141 -44.727273 
L 196.392982 -44.727273 
L 195.057692 -44.727273 
L 193.722403 -44.727273 
L 192.387113 -44.727273 
L 191.051823 -44.727273 
L 187.045954 -44.727273 
L 185.710664 -44.727273 
L 184.375375 -44.727273 
L 183.040085 -44.727273 
L 181.704795 -44.727273 
L 177.698926 -44.727273 
L 176.363636 -44.727273 
L 175.028347 -44.727273 
L 173.693057 -44.727273 
L 172.357767 -44.727273 
L 168.351898 -44.727273 
L 167.016608 -44.727273 
L 165.681319 -44.727273 
L 164.346029 -44.727273 
L 163.010739 -44.727273 
L 159.00487 -44.727273 
L 157.66958 -44.727273 
L 156.334291 -44.727273 
L 154.999001 -44.727273 
L 149.657842 -44.727273 
L 148.322552 -44.727273 
L 146.987263 -44.727273 
L 145.651973 -44.727273 
L 144.316683 -44.727273 
L 140.310814 -44.727273 
L 138.975524 -44.727273 
L 137.640235 -44.727273 
L 136.304945 -44.727273 
L 130.963786 -44.727273 
L 129.628497 -44.727273 
L 128.293207 -44.727273 
L 126.957917 -44.727273 
L 121.616758 -44.727273 
L 120.281469 -44.727273 
L 118.946179 -44.727273 
L 117.610889 -44.727273 
L 116.275599 -44.727273 
L 112.26973 -44.727273 
L 110.934441 -44.727273 
L 109.599151 -44.727273 
L 108.263861 -44.727273 
L 106.928571 -44.727273 
L 102.922702 -44.727273 
L 101.587413 -44.727273 
L 100.252123 -44.727273 
L 98.916833 -44.727273 
L 97.581543 -44.727273 
L 93.575674 -44.727273 
L 92.240385 -44.727273 
L 90.905095 -44.727273 
L 89.569805 -44.727273 
L 88.234515 -44.727273 
L 84.228646 -44.727273 
L 81.558067 -44.727273 
L 80.222777 -44.727273 
L 78.887488 -44.727273 
L 74.881618 -44.727273 
L 73.546329 -44.727273 
L 72.211039 -44.727273 
L 70.875749 -44.727273 
L 69.54046 -44.727273 
L 65.53459 -44.727273 
L 64.199301 -44.727273 
L 62.864011 -44.727273 
L 61.528721 -44.727273 
L 60.193432 -44.727273 
L 56.187562 -44.727273 
L 54.852273 -44.727273 
z
" id="m01800e92f5" style="stroke:#c6a2d2;"/>
    </defs>
    <g clip-path="url(#pa3a4a062b1)">
     <use style="fill:#c6a2d2;stroke:#c6a2d2;" x="0" xlink:href="#m01800e92f5" y="432"/>
    </g>
   </g>
   <g id="matplotlib.axis_1">
    <g id="xtick_1">
     <g id="line2d_1">
      <defs>
       <path d="M 0 0 
L 0 3.5 
" id="m7c7fe19b33" style="stroke:#000000;stroke-width:0.8;"/>
      </defs>
      <g>
       <use style="stroke:#000000;stroke-width:0.8;" x="52.181693" xlink:href="#m7c7fe19b33" y="404.2"/>
      </g>
     </g>
     <g id="text_1">
      <!-- 2022-11 -->
      <defs>
       <path d="M 19.1875 8.296875 
L 53.609375 8.296875 
L 53.609375 0 
L 7.328125 0 
L 7.328125 8.296875 
Q 12.9375 14.109375 22.625 23.890625 
Q 32.328125 33.6875 34.8125 36.53125 
Q 39.546875 41.84375 41.421875 45.53125 
Q 43.3125 49.21875 43.3125 52.78125 
Q 43.3125 58.59375 39.234375 62.25 
Q 35.15625 65.921875 28.609375 65.921875 
Q 23.96875 65.921875 18.8125 64.3125 
Q 13.671875 62.703125 7.8125 59.421875 
L 7.8125 69.390625 
Q 13.765625 71.78125 18.9375 73 
Q 24.125 74.21875 28.421875 74.21875 
Q 39.75 74.21875 46.484375 68.546875 
Q 53.21875 62.890625 53.21875 53.421875 
Q 53.21875 48.921875 51.53125 44.890625 
Q 49.859375 40.875 45.40625 35.40625 
Q 44.1875 33.984375 37.640625 27.21875 
Q 31.109375 20.453125 19.1875 8.296875 
z
" id="DejaVuSans-50"/>
       <path d="M 31.78125 66.40625 
Q 24.171875 66.40625 20.328125 58.90625 
Q 16.5 51.421875 16.5 36.375 
Q 16.5 21.390625 20.328125 13.890625 
Q 24.171875 6.390625 31.78125 6.390625 
Q 39.453125 6.390625 43.28125 13.890625 
Q 47.125 21.390625 47.125 36.375 
Q 47.125 51.421875 43.28125 58.90625 
Q 39.453125 66.40625 31.78125 66.40625 
z
M 31.78125 74.21875 
Q 44.046875 74.21875 50.515625 64.515625 
Q 56.984375 54.828125 56.984375 36.375 
Q 56.984375 17.96875 50.515625 8.265625 
Q 44.046875 -1.421875 31.78125 -1.421875 
Q 19.53125 -1.421875 13.0625 8.265625 
Q 6.59375 17.96875 6.59375 36.375 
Q 6.59375 54.828125 13.0625 64.515625 
Q 19.53125 74.21875 31.78125 74.21875 
z
" id="DejaVuSans-48"/>
       <path d="M 4.890625 31.390625 
L 31.203125 31.390625 
L 31.203125 23.390625 
L 4.890625 23.390625 
z
" id="DejaVuSans-45"/>
       <path d="M 12.40625 8.296875 
L 28.515625 8.296875 
L 28.515625 63.921875 
L 10.984375 60.40625 
L 10.984375 69.390625 
L 28.421875 72.90625 
L 38.28125 72.90625 
L 38.28125 8.296875 
L 54.390625 8.296875 
L 54.390625 0 
L 12.40625 0 
z
" id="DejaVuSans-49"/>
      </defs>
      <g transform="translate(31.290287 418.798437)scale(0.1 -0.1)">
       <use xlink:href="#DejaVuSans-50"/>
       <use x="63.623047" xlink:href="#DejaVuSans-48"/>
       <use x="127.246094" xlink:href="#DejaVuSans-50"/>
       <use x="190.869141" xlink:href="#DejaVuSans-50"/>
       <use x="254.492188" xlink:href="#DejaVuSans-45"/>
       <use x="290.576172" xlink:href="#DejaVuSans-49"/>
       <use x="354.199219" xlink:href="#DejaVuSans-49"/>
      </g>
     </g>
    </g>
    <g id="xtick_2">
     <g id="line2d_2">
      <g>
       <use style="stroke:#000000;stroke-width:0.8;" x="133.634366" xlink:href="#m7c7fe19b33" y="404.2"/>
      </g>
     </g>
     <g id="text_2">
      <!-- 2023-01 -->
      <defs>
       <path d="M 40.578125 39.3125 
Q 47.65625 37.796875 51.625 33 
Q 55.609375 28.21875 55.609375 21.1875 
Q 55.609375 10.40625 48.1875 4.484375 
Q 40.765625 -1.421875 27.09375 -1.421875 
Q 22.515625 -1.421875 17.65625 -0.515625 
Q 12.796875 0.390625 7.625 2.203125 
L 7.625 11.71875 
Q 11.71875 9.328125 16.59375 8.109375 
Q 21.484375 6.890625 26.8125 6.890625 
Q 36.078125 6.890625 40.9375 10.546875 
Q 45.796875 14.203125 45.796875 21.1875 
Q 45.796875 27.640625 41.28125 31.265625 
Q 36.765625 34.90625 28.71875 34.90625 
L 20.21875 34.90625 
L 20.21875 43.015625 
L 29.109375 43.015625 
Q 36.375 43.015625 40.234375 45.921875 
Q 44.09375 48.828125 44.09375 54.296875 
Q 44.09375 59.90625 40.109375 62.90625 
Q 36.140625 65.921875 28.71875 65.921875 
Q 24.65625 65.921875 20.015625 65.03125 
Q 15.375 64.15625 9.8125 62.3125 
L 9.8125 71.09375 
Q 15.4375 72.65625 20.34375 73.4375 
Q 25.25 74.21875 29.59375 74.21875 
Q 40.828125 74.21875 47.359375 69.109375 
Q 53.90625 64.015625 53.90625 55.328125 
Q 53.90625 49.265625 50.4375 45.09375 
Q 46.96875 40.921875 40.578125 39.3125 
z
" id="DejaVuSans-51"/>
      </defs>
      <g transform="translate(112.742959 418.798437)scale(0.1 -0.1)">
       <use xlink:href="#DejaVuSans-50"/>
       <use x="63.623047" xlink:href="#DejaVuSans-48"/>
       <use x="127.246094" xlink:href="#DejaVuSans-50"/>
       <use x="190.869141" xlink:href="#DejaVuSans-51"/>
       <use x="254.492188" xlink:href="#DejaVuSans-45"/>
       <use x="290.576172" xlink:href="#DejaVuSans-48"/>
       <use x="354.199219" xlink:href="#DejaVuSans-49"/>
      </g>
     </g>
    </g>
    <g id="xtick_3">
     <g id="line2d_3">
      <g>
       <use style="stroke:#000000;stroke-width:0.8;" x="212.416459" xlink:href="#m7c7fe19b33" y="404.2"/>
      </g>
     </g>
     <g id="text_3">
      <!-- 2023-03 -->
      <g transform="translate(191.525052 418.798437)scale(0.1 -0.1)">
       <use xlink:href="#DejaVuSans-50"/>
       <use x="63.623047" xlink:href="#DejaVuSans-48"/>
       <use x="127.246094" xlink:href="#DejaVuSans-50"/>
       <use x="190.869141" xlink:href="#DejaVuSans-51"/>
       <use x="254.492188" xlink:href="#DejaVuSans-45"/>
       <use x="290.576172" xlink:href="#DejaVuSans-48"/>
       <use x="354.199219" xlink:href="#DejaVuSans-51"/>
      </g>
     </g>
    </g>
    <g id="xtick_4">
     <g id="line2d_4">
      <g>
       <use style="stroke:#000000;stroke-width:0.8;" x="293.869131" xlink:href="#m7c7fe19b33" y="404.2"/>
      </g>
     </g>
     <g id="text_4">
      <!-- 2023-05 -->
      <defs>
       <path d="M 10.796875 72.90625 
L 49.515625 72.90625 
L 49.515625 64.59375 
L 19.828125 64.59375 
L 19.828125 46.734375 
Q 21.96875 47.46875 24.109375 47.828125 
Q 26.265625 48.1875 28.421875 48.1875 
Q 40.625 48.1875 47.75 41.5 
Q 54.890625 34.8125 54.890625 23.390625 
Q 54.890625 11.625 47.5625 5.09375 
Q 40.234375 -1.421875 26.90625 -1.421875 
Q 22.3125 -1.421875 17.546875 -0.640625 
Q 12.796875 0.140625 7.71875 1.703125 
L 7.71875 11.625 
Q 12.109375 9.234375 16.796875 8.0625 
Q 21.484375 6.890625 26.703125 6.890625 
Q 35.15625 6.890625 40.078125 11.328125 
Q 45.015625 15.765625 45.015625 23.390625 
Q 45.015625 31 40.078125 35.4375 
Q 35.15625 39.890625 26.703125 39.890625 
Q 22.75 39.890625 18.8125 39.015625 
Q 14.890625 38.140625 10.796875 36.28125 
z
" id="DejaVuSans-53"/>
      </defs>
      <g transform="translate(272.977725 418.798437)scale(0.1 -0.1)">
       <use xlink:href="#DejaVuSans-50"/>
       <use x="63.623047" xlink:href="#DejaVuSans-48"/>
       <use x="127.246094" xlink:href="#DejaVuSans-50"/>
       <use x="190.869141" xlink:href="#DejaVuSans-51"/>
       <use x="254.492188" xlink:href="#DejaVuSans-45"/>
       <use x="290.576172" xlink:href="#DejaVuSans-48"/>
       <use x="354.199219" xlink:href="#DejaVuSans-53"/>
      </g>
     </g>
    </g>
    <g id="xtick_5">
     <g id="line2d_5">
      <g>
       <use style="stroke:#000000;stroke-width:0.8;" x="375.321803" xlink:href="#m7c7fe19b33" y="404.2"/>
      </g>
     </g>
     <g id="text_5">
      <!-- 2023-07 -->
      <defs>
       <path d="M 8.203125 72.90625 
L 55.078125 72.90625 
L 55.078125 68.703125 
L 28.609375 0 
L 18.3125 0 
L 43.21875 64.59375 
L 8.203125 64.59375 
z
" id="DejaVuSans-55"/>
      </defs>
      <g transform="translate(354.430397 418.798437)scale(0.1 -0.1)">
       <use xlink:href="#DejaVuSans-50"/>
       <use x="63.623047" xlink:href="#DejaVuSans-48"/>
       <use x="127.246094" xlink:href="#DejaVuSans-50"/>
       <use x="190.869141" xlink:href="#DejaVuSans-51"/>
       <use x="254.492188" xlink:href="#DejaVuSans-45"/>
       <use x="290.576172" xlink:href="#DejaVuSans-48"/>
       <use x="354.199219" xlink:href="#DejaVuSans-55"/>
      </g>
     </g>
    </g>
    <g id="xtick_6">
     <g id="line2d_6">
      <g>
       <use style="stroke:#000000;stroke-width:0.8;" x="458.109765" xlink:href="#m7c7fe19b33" y="404.2"/>
      </g>
     </g>
     <g id="text_6">
      <!-- 2023-09 -->
      <defs>
       <path d="M 10.984375 1.515625 
L 10.984375 10.5 
Q 14.703125 8.734375 18.5 7.8125 
Q 22.3125 6.890625 25.984375 6.890625 
Q 35.75 6.890625 40.890625 13.453125 
Q 46.046875 20.015625 46.78125 33.40625 
Q 43.953125 29.203125 39.59375 26.953125 
Q 35.25 24.703125 29.984375 24.703125 
Q 19.046875 24.703125 12.671875 31.3125 
Q 6.296875 37.9375 6.296875 49.421875 
Q 6.296875 60.640625 12.9375 67.421875 
Q 19.578125 74.21875 30.609375 74.21875 
Q 43.265625 74.21875 49.921875 64.515625 
Q 56.59375 54.828125 56.59375 36.375 
Q 56.59375 19.140625 48.40625 8.859375 
Q 40.234375 -1.421875 26.421875 -1.421875 
Q 22.703125 -1.421875 18.890625 -0.6875 
Q 15.09375 0.046875 10.984375 1.515625 
z
M 30.609375 32.421875 
Q 37.25 32.421875 41.125 36.953125 
Q 45.015625 41.5 45.015625 49.421875 
Q 45.015625 57.28125 41.125 61.84375 
Q 37.25 66.40625 30.609375 66.40625 
Q 23.96875 66.40625 20.09375 61.84375 
Q 16.21875 57.28125 16.21875 49.421875 
Q 16.21875 41.5 20.09375 36.953125 
Q 23.96875 32.421875 30.609375 32.421875 
z
" id="DejaVuSans-57"/>
      </defs>
      <g transform="translate(437.218359 418.798437)scale(0.1 -0.1)">
       <use xlink:href="#DejaVuSans-50"/>
       <use x="63.623047" xlink:href="#DejaVuSans-48"/>
       <use x="127.246094" xlink:href="#DejaVuSans-50"/>
       <use x="190.869141" xlink:href="#DejaVuSans-51"/>
       <use x="254.492188" xlink:href="#DejaVuSans-45"/>
       <use x="290.576172" xlink:href="#DejaVuSans-48"/>
       <use x="354.199219" xlink:href="#DejaVuSans-57"/>
      </g>
     </g>
    </g>
    <g id="xtick_7">
     <g id="line2d_7">
      <g>
       <use style="stroke:#000000;stroke-width:0.8;" x="539.562438" xlink:href="#m7c7fe19b33" y="404.2"/>
      </g>
     </g>
     <g id="text_7">
      <!-- 2023-11 -->
      <g transform="translate(518.671031 418.798437)scale(0.1 -0.1)">
       <use xlink:href="#DejaVuSans-50"/>
       <use x="63.623047" xlink:href="#DejaVuSans-48"/>
       <use x="127.246094" xlink:href="#DejaVuSans-50"/>
       <use x="190.869141" xlink:href="#DejaVuSans-51"/>
       <use x="254.492188" xlink:href="#DejaVuSans-45"/>
       <use x="290.576172" xlink:href="#DejaVuSans-49"/>
       <use x="354.199219" xlink:href="#DejaVuSans-49"/>
      </g>
     </g>
    </g>
   </g>
   <g id="matplotlib.axis_2">
    <g id="ytick_1">
     <g id="line2d_8">
      <defs>
       <path d="M 0 0 
L -3.5 0 
" id="mbd7e2ee574" style="stroke:#000000;stroke-width:0.8;"/>
      </defs>
      <g>
       <use style="stroke:#000000;stroke-width:0.8;" x="30.55" xlink:href="#mbd7e2ee574" y="387.272727"/>
      </g>
     </g>
     <g id="text_8">
      <!-- 0 -->
      <g transform="translate(17.1875 391.071946)scale(0.1 -0.1)">
       <use xlink:href="#DejaVuSans-48"/>
      </g>
     </g>
    </g>
    <g id="ytick_2">
     <g id="line2d_9">
      <g>
       <use style="stroke:#000000;stroke-width:0.8;" x="30.55" xlink:href="#mbd7e2ee574" y="321.279463"/>
      </g>
     </g>
     <g id="text_9">
      <!-- 2 -->
      <g transform="translate(17.1875 325.078682)scale(0.1 -0.1)">
       <use xlink:href="#DejaVuSans-50"/>
      </g>
     </g>
    </g>
    <g id="ytick_3">
     <g id="line2d_10">
      <g>
       <use style="stroke:#000000;stroke-width:0.8;" x="30.55" xlink:href="#mbd7e2ee574" y="255.286198"/>
      </g>
     </g>
     <g id="text_10">
      <!-- 4 -->
      <defs>
       <path d="M 37.796875 64.3125 
L 12.890625 25.390625 
L 37.796875 25.390625 
z
M 35.203125 72.90625 
L 47.609375 72.90625 
L 47.609375 25.390625 
L 58.015625 25.390625 
L 58.015625 17.1875 
L 47.609375 17.1875 
L 47.609375 0 
L 37.796875 0 
L 37.796875 17.1875 
L 4.890625 17.1875 
L 4.890625 26.703125 
z
" id="DejaVuSans-52"/>
      </defs>
      <g transform="translate(17.1875 259.085417)scale(0.1 -0.1)">
       <use xlink:href="#DejaVuSans-52"/>
      </g>
     </g>
    </g>
    <g id="ytick_4">
     <g id="line2d_11">
      <g>
       <use style="stroke:#000000;stroke-width:0.8;" x="30.55" xlink:href="#mbd7e2ee574" y="189.292934"/>
      </g>
     </g>
     <g id="text_11">
      <!-- 6 -->
      <defs>
       <path d="M 33.015625 40.375 
Q 26.375 40.375 22.484375 35.828125 
Q 18.609375 31.296875 18.609375 23.390625 
Q 18.609375 15.53125 22.484375 10.953125 
Q 26.375 6.390625 33.015625 6.390625 
Q 39.65625 6.390625 43.53125 10.953125 
Q 47.40625 15.53125 47.40625 23.390625 
Q 47.40625 31.296875 43.53125 35.828125 
Q 39.65625 40.375 33.015625 40.375 
z
M 52.59375 71.296875 
L 52.59375 62.3125 
Q 48.875 64.0625 45.09375 64.984375 
Q 41.3125 65.921875 37.59375 65.921875 
Q 27.828125 65.921875 22.671875 59.328125 
Q 17.53125 52.734375 16.796875 39.40625 
Q 19.671875 43.65625 24.015625 45.921875 
Q 28.375 48.1875 33.59375 48.1875 
Q 44.578125 48.1875 50.953125 41.515625 
Q 57.328125 34.859375 57.328125 23.390625 
Q 57.328125 12.15625 50.6875 5.359375 
Q 44.046875 -1.421875 33.015625 -1.421875 
Q 20.359375 -1.421875 13.671875 8.265625 
Q 6.984375 17.96875 6.984375 36.375 
Q 6.984375 53.65625 15.1875 63.9375 
Q 23.390625 74.21875 37.203125 74.21875 
Q 40.921875 74.21875 44.703125 73.484375 
Q 48.484375 72.75 52.59375 71.296875 
z
" id="DejaVuSans-54"/>
      </defs>
      <g transform="translate(17.1875 193.092152)scale(0.1 -0.1)">
       <use xlink:href="#DejaVuSans-54"/>
      </g>
     </g>
    </g>
    <g id="ytick_5">
     <g id="line2d_12">
      <g>
       <use style="stroke:#000000;stroke-width:0.8;" x="30.55" xlink:href="#mbd7e2ee574" y="123.299669"/>
      </g>
     </g>
     <g id="text_12">
      <!-- 8 -->
      <defs>
       <path d="M 31.78125 34.625 
Q 24.75 34.625 20.71875 30.859375 
Q 16.703125 27.09375 16.703125 20.515625 
Q 16.703125 13.921875 20.71875 10.15625 
Q 24.75 6.390625 31.78125 6.390625 
Q 38.8125 6.390625 42.859375 10.171875 
Q 46.921875 13.96875 46.921875 20.515625 
Q 46.921875 27.09375 42.890625 30.859375 
Q 38.875 34.625 31.78125 34.625 
z
M 21.921875 38.8125 
Q 15.578125 40.375 12.03125 44.71875 
Q 8.5 49.078125 8.5 55.328125 
Q 8.5 64.0625 14.71875 69.140625 
Q 20.953125 74.21875 31.78125 74.21875 
Q 42.671875 74.21875 48.875 69.140625 
Q 55.078125 64.0625 55.078125 55.328125 
Q 55.078125 49.078125 51.53125 44.71875 
Q 48 40.375 41.703125 38.8125 
Q 48.828125 37.15625 52.796875 32.3125 
Q 56.78125 27.484375 56.78125 20.515625 
Q 56.78125 9.90625 50.3125 4.234375 
Q 43.84375 -1.421875 31.78125 -1.421875 
Q 19.734375 -1.421875 13.25 4.234375 
Q 6.78125 9.90625 6.78125 20.515625 
Q 6.78125 27.484375 10.78125 32.3125 
Q 14.796875 37.15625 21.921875 38.8125 
z
M 18.3125 54.390625 
Q 18.3125 48.734375 21.84375 45.5625 
Q 25.390625 42.390625 31.78125 42.390625 
Q 38.140625 42.390625 41.71875 45.5625 
Q 45.3125 48.734375 45.3125 54.390625 
Q 45.3125 60.0625 41.71875 63.234375 
Q 38.140625 66.40625 31.78125 66.40625 
Q 25.390625 66.40625 21.84375 63.234375 
Q 18.3125 60.0625 18.3125 54.390625 
z
" id="DejaVuSans-56"/>
      </defs>
      <g transform="translate(17.1875 127.098888)scale(0.1 -0.1)">
       <use xlink:href="#DejaVuSans-56"/>
      </g>
     </g>
    </g>
    <g id="ytick_6">
     <g id="line2d_13">
      <g>
       <use style="stroke:#000000;stroke-width:0.8;" x="30.55" xlink:href="#mbd7e2ee574" y="57.306405"/>
      </g>
     </g>
     <g id="text_13">
      <!-- 10 -->
      <g transform="translate(10.825 61.105623)scale(0.1 -0.1)">
       <use xlink:href="#DejaVuSans-49"/>
       <use x="63.623047" xlink:href="#DejaVuSans-48"/>
      </g>
     </g>
    </g>
   </g>
   <g id="patch_3">
    <path d="M 30.55 404.2 
L 30.55 31.8 
" style="fill:none;stroke:#000000;stroke-linecap:square;stroke-linejoin:miter;stroke-width:0.8;"/>
   </g>
   <g id="patch_4">
    <path d="M 565.2 404.2 
L 565.2 31.8 
" style="fill:none;stroke:#000000;stroke-linecap:square;stroke-linejoin:miter;stroke-width:0.8;"/>
   </g>
   <g id="patch_5">
    <path d="M 30.55 404.2 
L 565.2 404.2 
" style="fill:none;stroke:#000000;stroke-linecap:square;stroke-linejoin:miter;stroke-width:0.8;"/>
   </g>
   <g id="patch_6">
    <path d="M 30.55 31.8 
L 565.2 31.8 
" style="fill:none;stroke:#000000;stroke-linecap:square;stroke-linejoin:miter;stroke-width:0.8;"/>
   </g>
   <g id="text_14">
    <!-- FTCH - -79.19% -->
    <defs>
     <path d="M 9.1875 72.90625 
L 59.90625 72.90625 
L 59.90625 58.6875 
L 27.984375 58.6875 
L 27.984375 45.125 
L 58.015625 45.125 
L 58.015625 30.90625 
L 27.984375 30.90625 
L 27.984375 0 
L 9.1875 0 
z
" id="DejaVuSans-Bold-70"/>
     <path d="M 0.484375 72.90625 
L 67.671875 72.90625 
L 67.671875 58.6875 
L 43.5 58.6875 
L 43.5 0 
L 24.703125 0 
L 24.703125 58.6875 
L 0.484375 58.6875 
z
" id="DejaVuSans-Bold-84"/>
     <path d="M 67 4 
Q 61.8125 1.3125 56.203125 -0.046875 
Q 50.59375 -1.421875 44.484375 -1.421875 
Q 26.265625 -1.421875 15.625 8.765625 
Q 4.984375 18.953125 4.984375 36.375 
Q 4.984375 53.859375 15.625 64.03125 
Q 26.265625 74.21875 44.484375 74.21875 
Q 50.59375 74.21875 56.203125 72.84375 
Q 61.8125 71.484375 67 68.796875 
L 67 53.71875 
Q 61.765625 57.28125 56.6875 58.9375 
Q 51.609375 60.59375 46 60.59375 
Q 35.9375 60.59375 30.171875 54.140625 
Q 24.421875 47.703125 24.421875 36.375 
Q 24.421875 25.09375 30.171875 18.640625 
Q 35.9375 12.203125 46 12.203125 
Q 51.609375 12.203125 56.6875 13.859375 
Q 61.765625 15.53125 67 19.09375 
z
" id="DejaVuSans-Bold-67"/>
     <path d="M 9.1875 72.90625 
L 27.984375 72.90625 
L 27.984375 45.125 
L 55.71875 45.125 
L 55.71875 72.90625 
L 74.515625 72.90625 
L 74.515625 0 
L 55.71875 0 
L 55.71875 30.90625 
L 27.984375 30.90625 
L 27.984375 0 
L 9.1875 0 
z
" id="DejaVuSans-Bold-72"/>
     <path id="DejaVuSans-Bold-32"/>
     <path d="M 5.421875 35.890625 
L 36.078125 35.890625 
L 36.078125 21.6875 
L 5.421875 21.6875 
z
" id="DejaVuSans-Bold-45"/>
     <path d="M 6.6875 72.90625 
L 61.625 72.90625 
L 61.625 62.3125 
L 33.203125 0 
L 14.890625 0 
L 41.796875 59.078125 
L 6.6875 59.078125 
z
" id="DejaVuSans-Bold-55"/>
     <path d="M 10.015625 1.609375 
L 10.015625 15.09375 
Q 14.5 12.984375 18.59375 11.9375 
Q 22.703125 10.890625 26.703125 10.890625 
Q 35.109375 10.890625 39.796875 15.546875 
Q 44.484375 20.21875 45.3125 29.390625 
Q 42 26.953125 38.234375 25.734375 
Q 34.46875 24.515625 30.078125 24.515625 
Q 18.890625 24.515625 12.03125 31.03125 
Q 5.171875 37.546875 5.171875 48.1875 
Q 5.171875 59.96875 12.8125 67.046875 
Q 20.453125 74.125 33.296875 74.125 
Q 47.5625 74.125 55.375 64.5 
Q 63.1875 54.890625 63.1875 37.3125 
Q 63.1875 19.234375 54.046875 8.90625 
Q 44.921875 -1.421875 29 -1.421875 
Q 23.875 -1.421875 19.1875 -0.65625 
Q 14.5 0.09375 10.015625 1.609375 
z
M 33.203125 36.71875 
Q 38.140625 36.71875 40.625 39.90625 
Q 43.109375 43.109375 43.109375 49.515625 
Q 43.109375 55.859375 40.625 59.078125 
Q 38.140625 62.3125 33.203125 62.3125 
Q 28.265625 62.3125 25.78125 59.078125 
Q 23.296875 55.859375 23.296875 49.515625 
Q 23.296875 43.109375 25.78125 39.90625 
Q 28.265625 36.71875 33.203125 36.71875 
z
" id="DejaVuSans-Bold-57"/>
     <path d="M 10.203125 18.890625 
L 27.78125 18.890625 
L 27.78125 0 
L 10.203125 0 
z
" id="DejaVuSans-Bold-46"/>
     <path d="M 11.71875 12.984375 
L 28.328125 12.984375 
L 28.328125 60.109375 
L 11.28125 56.59375 
L 11.28125 69.390625 
L 28.21875 72.90625 
L 46.09375 72.90625 
L 46.09375 12.984375 
L 62.703125 12.984375 
L 62.703125 0 
L 11.71875 0 
z
" id="DejaVuSans-Bold-49"/>
     <path d="M 77.484375 30.078125 
Q 74.03125 30.078125 72.125 27.078125 
Q 70.21875 24.078125 70.21875 18.5 
Q 70.21875 12.890625 72.09375 9.890625 
Q 73.96875 6.890625 77.484375 6.890625 
Q 81 6.890625 82.859375 9.890625 
Q 84.71875 12.890625 84.71875 18.5 
Q 84.71875 24.078125 82.828125 27.078125 
Q 80.953125 30.078125 77.484375 30.078125 
z
M 77.484375 38.28125 
Q 86.578125 38.28125 91.796875 33 
Q 97.015625 27.734375 97.015625 18.5 
Q 97.015625 9.28125 91.796875 3.921875 
Q 86.578125 -1.421875 77.484375 -1.421875 
Q 68.40625 -1.421875 63.15625 3.921875 
Q 57.90625 9.28125 57.90625 18.5 
Q 57.90625 27.6875 63.15625 32.984375 
Q 68.40625 38.28125 77.484375 38.28125 
z
M 32.71875 -1.421875 
L 21.921875 -1.421875 
L 67.484375 74.21875 
L 78.328125 74.21875 
z
M 22.703125 74.21875 
Q 31.78125 74.21875 36.984375 68.921875 
Q 42.1875 63.625 42.1875 54.390625 
Q 42.1875 45.171875 36.984375 39.84375 
Q 31.78125 34.515625 22.703125 34.515625 
Q 13.625 34.515625 8.421875 39.84375 
Q 3.21875 45.171875 3.21875 54.390625 
Q 3.21875 63.625 8.421875 68.921875 
Q 13.625 74.21875 22.703125 74.21875 
z
M 22.703125 66.015625 
Q 19.1875 66.015625 17.28125 62.984375 
Q 15.375 59.96875 15.375 54.390625 
Q 15.375 48.78125 17.28125 45.71875 
Q 19.1875 42.671875 22.703125 42.671875 
Q 26.21875 42.671875 28.09375 45.71875 
Q 29.984375 48.78125 29.984375 54.390625 
Q 29.984375 59.96875 28.078125 62.984375 
Q 26.171875 66.015625 22.703125 66.015625 
z
" id="DejaVuSans-Bold-37"/>
    </defs>
    <g transform="translate(30.55 25.8)scale(0.2 -0.2)">
     <use xlink:href="#DejaVuSans-Bold-70"/>
     <use x="68.310547" xlink:href="#DejaVuSans-Bold-84"/>
     <use x="136.523438" xlink:href="#DejaVuSans-Bold-67"/>
     <use x="209.912109" xlink:href="#DejaVuSans-Bold-72"/>
     <use x="293.603516" xlink:href="#DejaVuSans-Bold-32"/>
     <use x="328.417969" xlink:href="#DejaVuSans-Bold-45"/>
     <use x="369.921875" xlink:href="#DejaVuSans-Bold-32"/>
     <use x="404.736328" xlink:href="#DejaVuSans-Bold-45"/>
     <use x="446.240234" xlink:href="#DejaVuSans-Bold-55"/>
     <use x="515.820312" xlink:href="#DejaVuSans-Bold-57"/>
     <use x="585.400391" xlink:href="#DejaVuSans-Bold-46"/>
     <use x="623.388672" xlink:href="#DejaVuSans-Bold-49"/>
     <use x="692.96875" xlink:href="#DejaVuSans-Bold-57"/>
     <use x="762.548828" xlink:href="#DejaVuSans-Bold-37"/>
    </g>
   </g>
  </g>
 </g>
 <defs>
  <clipPath id="pa3a4a062b1">
   <rect height="372.4" width="534.65" x="30.55" y="31.8"/>
  </clipPath>
 </defs>
</svg>
