<?xml version="1.0" encoding="utf-8" standalone="no"?>
<!DOCTYPE svg PUBLIC "-//W3C//DTD SVG 1.1//EN"
  "http://www.w3.org/Graphics/SVG/1.1/DTD/svg11.dtd">
<!-- Created with matplotlib (https://matplotlib.org/) -->
<svg height="432pt" version="1.1" viewBox="0 0 576 432" width="576pt" xmlns="http://www.w3.org/2000/svg" xmlns:xlink="http://www.w3.org/1999/xlink">
 <defs>
  <style type="text/css">
*{stroke-linecap:butt;stroke-linejoin:round;}
  </style>
 </defs>
 <g id="figure_1">
  <g id="patch_1">
   <path d="M 0 432 
L 576 432 
L 576 0 
L 0 0 
z
" style="fill:#ffffff;"/>
  </g>
  <g id="axes_1">
   <g id="patch_2">
    <path d="M 30.55 404.2 
L 565.2 404.2 
L 565.2 31.8 
L 30.55 31.8 
z
" style="fill:#ffffff;"/>
   </g>
   <g id="PolyCollection_1">
    <defs>
     <path d="M 54.852273 -44.727273 
L 54.852273 -238.416773 
L 56.183904 -243.350724 
L 60.178798 -246.555697 
L 61.51043 -258.110428 
L 62.842061 -255.074157 
L 64.173692 -274.093084 
L 65.505324 -281.430773 
L 69.500218 -278.858365 
L 70.831849 -281.725966 
L 72.163481 -275.358199 
L 73.495112 -273.03882 
L 74.826743 -264.646882 
L 78.821638 -265.363774 
L 80.153269 -265.195088 
L 81.4849 -269.707339 
L 84.148163 -267.85184 
L 88.143057 -264.351689 
L 89.474689 -262.285324 
L 90.80632 -268.906104 
L 92.137951 -278.267979 
L 93.469583 -270.803784 
L 97.464477 -262.62268 
L 98.796108 -259.164693 
L 100.12774 -262.327487 
L 101.459371 -267.85184 
L 102.791002 -264.562539 
L 106.785897 -270.93029 
L 108.117528 -275.442542 
L 109.449159 -273.587042 
L 110.780791 -264.731209 
L 112.112422 -263.676944 
L 116.107316 -255.495857 
L 117.438948 -257.562222 
L 118.770579 -255.622363 
L 120.10221 -251.995706 
L 121.433842 -250.224534 
L 126.760367 -249.465462 
L 128.091999 -246.555697 
L 129.42363 -252.24872 
L 130.755262 -250.899262 
L 136.081787 -249.338955 
L 137.413418 -248.411197 
L 138.74505 -244.826704 
L 140.076681 -250.055847 
L 144.071575 -253.092135 
L 145.403207 -248.91724 
L 146.734838 -250.519726 
L 148.066469 -248.832913 
L 149.398101 -250.814919 
L 154.724626 -256.001899 
L 156.056258 -248.748569 
L 157.387889 -248.91724 
L 158.719521 -252.501749 
L 162.714415 -257.730893 
L 164.046046 -260.176794 
L 165.377677 -263.002216 
L 166.709309 -269.116954 
L 168.04094 -266.966261 
L 172.035834 -260.008108 
L 173.367466 -265.448117 
L 174.699097 -268.610911 
L 176.030729 -271.815869 
L 177.36236 -268.231375 
L 181.357254 -263.972153 
L 182.688885 -271.520676 
L 184.020517 -296.232642 
L 185.352148 -288.557596 
L 186.68378 -296.106135 
L 190.678674 -298.38335 
L 192.010305 -302.769079 
L 193.341936 -309.600725 
L 194.673568 -303.612494 
L 196.005199 -300.4497 
L 201.331725 -296.527834 
L 202.663356 -298.636364 
L 203.994988 -300.196687 
L 205.326619 -292.943341 
L 209.321513 -296.148298 
L 210.653144 -295.389227 
L 211.984776 -291.172168 
L 213.316407 -296.232642 
L 214.648039 -301.293115 
L 218.642933 -303.275138 
L 219.974564 -299.311092 
L 221.306196 -305.299324 
L 222.637827 -297.539935 
L 223.969458 -292.521626 
L 227.964352 -294.672334 
L 229.295984 -301.503965 
L 230.627615 -299.395435 
L 231.959247 -305.67886 
L 233.290878 -302.895602 
L 237.285772 -304.245059 
L 238.617403 -308.124745 
L 239.949035 -302.853422 
L 241.280666 -311.456225 
L 242.612298 -310.359797 
L 246.607192 -314.534676 
L 247.938823 -315.757611 
L 249.270455 -318.034826 
L 250.602086 -322.251885 
L 251.933717 -324.99298 
L 255.928611 -324.360414 
L 257.260243 -322.92663 
L 258.591874 -319.468643 
L 259.923506 -321.028934 
L 265.250031 -326.890675 
L 266.581663 -327.270195 
L 267.913294 -328.071446 
L 269.244925 -333.131904 
L 270.576557 -331.782446 
L 274.571451 -330.264303 
L 275.903082 -330.728182 
L 277.234714 -328.619652 
L 278.566345 -326.848496 
L 279.897976 -326.342437 
L 283.89287 -324.107401 
L 285.224502 -311.118853 
L 286.556133 -312.088791 
L 287.887765 -310.65499 
L 289.219396 -310.612811 
L 293.21429 -309.600725 
L 294.545922 -303.823344 
L 295.877553 -299.817151 
L 297.209184 -302.726916 
L 298.540816 -317.107068 
L 302.53571 -323.390509 
L 303.867341 -324.739966 
L 305.198973 -327.312375 
L 306.530604 -329.378724 
L 307.862235 -330.517316 
L 311.85713 -333.848796 
L 313.188761 -332.794531 
L 314.520392 -333.30059 
L 315.852024 -332.077639 
L 317.183655 -338.361047 
L 321.178549 -337.897168 
L 322.510181 -331.866773 
L 323.841812 -325.541186 
L 325.173443 -327.987087 
L 326.505075 -330.517316 
L 331.8316 -333.764469 
L 333.163232 -332.878891 
L 334.494863 -334.186168 
L 335.826494 -332.03546 
L 339.821389 -345.277021 
L 341.15302 -337.981528 
L 342.484651 -327.523208 
L 343.816283 -335.704312 
L 345.147914 -331.529433 
L 349.142808 -339.246626 
L 350.47444 -341.98772 
L 351.806071 -346.162631 
L 353.137702 -355.060595 
L 354.469334 -351.644788 
L 359.795859 -346.921703 
L 361.127491 -344.602308 
L 362.459122 -347.765102 
L 363.790753 -346.626478 
L 367.785648 -344.391442 
L 369.117279 -355.35582 
L 370.44891 -358.181242 
L 371.780542 -361.386183 
L 373.112173 -363.494712 
L 377.107067 -359.572879 
L 379.77033 -358.096883 
L 381.101961 -359.530699 
L 382.433593 -359.657206 
L 386.428487 -373.067453 
L 387.760118 -375.007296 
L 389.09175 -368.260009 
L 390.423381 -374.712104 
L 391.755012 -377.537525 
L 395.749907 -383.272727 
L 397.081538 -383.104041 
L 398.413169 -376.56762 
L 399.744801 -372.392709 
L 401.076432 -374.332584 
L 405.071326 -370.579372 
L 406.402958 -375.091623 
L 407.734589 -370.537225 
L 409.06622 -367.669624 
L 410.397852 -368.597382 
L 414.392746 -372.477068 
L 415.724377 -373.784346 
L 417.056009 -358.139062 
L 418.38764 -364.211637 
L 419.719271 -284.129688 
L 423.714166 -288.051554 
L 425.045797 -291.72039 
L 426.377428 -296.823027 
L 427.70906 -300.112344 
L 429.040691 -296.401328 
L 433.035585 -296.316985 
L 434.367217 -294.250619 
L 435.698848 -290.07574 
L 437.030479 -286.828603 
L 438.362111 -285.774338 
L 442.357005 -290.961318 
L 443.688636 -290.666126 
L 445.020268 -294.334962 
L 446.351899 -289.949233 
L 447.683531 -292.732491 
L 451.678425 -292.268612 
L 453.010056 -300.407537 
L 454.341687 -302.895602 
L 455.673319 -298.636364 
L 457.00495 -301.419622 
L 462.331476 -305.805366 
L 463.663107 -307.154824 
L 464.994738 -311.118853 
L 466.32637 -314.914212 
L 470.321264 -319.131271 
L 471.652895 -312.51049 
L 472.984527 -308.799474 
L 474.316158 -310.82366 
L 475.64779 -302.052187 
L 479.642684 -299.648465 
L 480.974315 -299.606285 
L 482.305946 -298.38335 
L 483.637578 -292.605969 
L 484.969209 -290.328769 
L 488.964103 -289.780547 
L 490.295735 -286.912946 
L 491.627366 -289.907054 
L 492.958998 -291.846897 
L 494.290629 -292.184269 
L 498.285523 -291.97342 
L 499.617154 -287.672018 
L 500.948786 -290.413096 
L 502.280417 -289.401011 
L 503.612049 -297.455592 
L 507.606943 -295.684419 
L 508.938574 -295.220557 
L 510.270205 -293.40722 
L 511.601837 -289.316668 
L 512.933468 -288.304567 
L 516.928362 -294.124112 
L 518.259994 -292.057763 
L 519.591625 -287.925031 
L 520.923257 -288.346747 
L 522.254888 -282.400695 
L 526.249782 -281.30425 
L 527.581413 -287.376825 
L 528.913045 -280.629522 
L 530.244676 -279.70178 
L 531.576308 -281.978979 
L 535.571202 -282.232008 
L 536.902833 -285.816502 
L 538.234465 -286.406904 
L 539.566096 -287.587675 
L 540.897727 -247.124993 
L 540.897727 -44.727273 
L 540.897727 -44.727273 
L 539.566096 -44.727273 
L 538.234465 -44.727273 
L 536.902833 -44.727273 
L 535.571202 -44.727273 
L 531.576308 -44.727273 
L 530.244676 -44.727273 
L 528.913045 -44.727273 
L 527.581413 -44.727273 
L 526.249782 -44.727273 
L 522.254888 -44.727273 
L 520.923257 -44.727273 
L 519.591625 -44.727273 
L 518.259994 -44.727273 
L 516.928362 -44.727273 
L 512.933468 -44.727273 
L 511.601837 -44.727273 
L 510.270205 -44.727273 
L 508.938574 -44.727273 
L 507.606943 -44.727273 
L 503.612049 -44.727273 
L 502.280417 -44.727273 
L 500.948786 -44.727273 
L 499.617154 -44.727273 
L 498.285523 -44.727273 
L 494.290629 -44.727273 
L 492.958998 -44.727273 
L 491.627366 -44.727273 
L 490.295735 -44.727273 
L 488.964103 -44.727273 
L 484.969209 -44.727273 
L 483.637578 -44.727273 
L 482.305946 -44.727273 
L 480.974315 -44.727273 
L 479.642684 -44.727273 
L 475.64779 -44.727273 
L 474.316158 -44.727273 
L 472.984527 -44.727273 
L 471.652895 -44.727273 
L 470.321264 -44.727273 
L 466.32637 -44.727273 
L 464.994738 -44.727273 
L 463.663107 -44.727273 
L 462.331476 -44.727273 
L 457.00495 -44.727273 
L 455.673319 -44.727273 
L 454.341687 -44.727273 
L 453.010056 -44.727273 
L 451.678425 -44.727273 
L 447.683531 -44.727273 
L 446.351899 -44.727273 
L 445.020268 -44.727273 
L 443.688636 -44.727273 
L 442.357005 -44.727273 
L 438.362111 -44.727273 
L 437.030479 -44.727273 
L 435.698848 -44.727273 
L 434.367217 -44.727273 
L 433.035585 -44.727273 
L 429.040691 -44.727273 
L 427.70906 -44.727273 
L 426.377428 -44.727273 
L 425.045797 -44.727273 
L 423.714166 -44.727273 
L 419.719271 -44.727273 
L 418.38764 -44.727273 
L 417.056009 -44.727273 
L 415.724377 -44.727273 
L 414.392746 -44.727273 
L 410.397852 -44.727273 
L 409.06622 -44.727273 
L 407.734589 -44.727273 
L 406.402958 -44.727273 
L 405.071326 -44.727273 
L 401.076432 -44.727273 
L 399.744801 -44.727273 
L 398.413169 -44.727273 
L 397.081538 -44.727273 
L 395.749907 -44.727273 
L 391.755012 -44.727273 
L 390.423381 -44.727273 
L 389.09175 -44.727273 
L 387.760118 -44.727273 
L 386.428487 -44.727273 
L 382.433593 -44.727273 
L 381.101961 -44.727273 
L 379.77033 -44.727273 
L 377.107067 -44.727273 
L 373.112173 -44.727273 
L 371.780542 -44.727273 
L 370.44891 -44.727273 
L 369.117279 -44.727273 
L 367.785648 -44.727273 
L 363.790753 -44.727273 
L 362.459122 -44.727273 
L 361.127491 -44.727273 
L 359.795859 -44.727273 
L 354.469334 -44.727273 
L 353.137702 -44.727273 
L 351.806071 -44.727273 
L 350.47444 -44.727273 
L 349.142808 -44.727273 
L 345.147914 -44.727273 
L 343.816283 -44.727273 
L 342.484651 -44.727273 
L 341.15302 -44.727273 
L 339.821389 -44.727273 
L 335.826494 -44.727273 
L 334.494863 -44.727273 
L 333.163232 -44.727273 
L 331.8316 -44.727273 
L 326.505075 -44.727273 
L 325.173443 -44.727273 
L 323.841812 -44.727273 
L 322.510181 -44.727273 
L 321.178549 -44.727273 
L 317.183655 -44.727273 
L 315.852024 -44.727273 
L 314.520392 -44.727273 
L 313.188761 -44.727273 
L 311.85713 -44.727273 
L 307.862235 -44.727273 
L 306.530604 -44.727273 
L 305.198973 -44.727273 
L 303.867341 -44.727273 
L 302.53571 -44.727273 
L 298.540816 -44.727273 
L 297.209184 -44.727273 
L 295.877553 -44.727273 
L 294.545922 -44.727273 
L 293.21429 -44.727273 
L 289.219396 -44.727273 
L 287.887765 -44.727273 
L 286.556133 -44.727273 
L 285.224502 -44.727273 
L 283.89287 -44.727273 
L 279.897976 -44.727273 
L 278.566345 -44.727273 
L 277.234714 -44.727273 
L 275.903082 -44.727273 
L 274.571451 -44.727273 
L 270.576557 -44.727273 
L 269.244925 -44.727273 
L 267.913294 -44.727273 
L 266.581663 -44.727273 
L 265.250031 -44.727273 
L 259.923506 -44.727273 
L 258.591874 -44.727273 
L 257.260243 -44.727273 
L 255.928611 -44.727273 
L 251.933717 -44.727273 
L 250.602086 -44.727273 
L 249.270455 -44.727273 
L 247.938823 -44.727273 
L 246.607192 -44.727273 
L 242.612298 -44.727273 
L 241.280666 -44.727273 
L 239.949035 -44.727273 
L 238.617403 -44.727273 
L 237.285772 -44.727273 
L 233.290878 -44.727273 
L 231.959247 -44.727273 
L 230.627615 -44.727273 
L 229.295984 -44.727273 
L 227.964352 -44.727273 
L 223.969458 -44.727273 
L 222.637827 -44.727273 
L 221.306196 -44.727273 
L 219.974564 -44.727273 
L 218.642933 -44.727273 
L 214.648039 -44.727273 
L 213.316407 -44.727273 
L 211.984776 -44.727273 
L 210.653144 -44.727273 
L 209.321513 -44.727273 
L 205.326619 -44.727273 
L 203.994988 -44.727273 
L 202.663356 -44.727273 
L 201.331725 -44.727273 
L 196.005199 -44.727273 
L 194.673568 -44.727273 
L 193.341936 -44.727273 
L 192.010305 -44.727273 
L 190.678674 -44.727273 
L 186.68378 -44.727273 
L 185.352148 -44.727273 
L 184.020517 -44.727273 
L 182.688885 -44.727273 
L 181.357254 -44.727273 
L 177.36236 -44.727273 
L 176.030729 -44.727273 
L 174.699097 -44.727273 
L 173.367466 -44.727273 
L 172.035834 -44.727273 
L 168.04094 -44.727273 
L 166.709309 -44.727273 
L 165.377677 -44.727273 
L 164.046046 -44.727273 
L 162.714415 -44.727273 
L 158.719521 -44.727273 
L 157.387889 -44.727273 
L 156.056258 -44.727273 
L 154.724626 -44.727273 
L 149.398101 -44.727273 
L 148.066469 -44.727273 
L 146.734838 -44.727273 
L 145.403207 -44.727273 
L 144.071575 -44.727273 
L 140.076681 -44.727273 
L 138.74505 -44.727273 
L 137.413418 -44.727273 
L 136.081787 -44.727273 
L 130.755262 -44.727273 
L 129.42363 -44.727273 
L 128.091999 -44.727273 
L 126.760367 -44.727273 
L 121.433842 -44.727273 
L 120.10221 -44.727273 
L 118.770579 -44.727273 
L 117.438948 -44.727273 
L 116.107316 -44.727273 
L 112.112422 -44.727273 
L 110.780791 -44.727273 
L 109.449159 -44.727273 
L 108.117528 -44.727273 
L 106.785897 -44.727273 
L 102.791002 -44.727273 
L 101.459371 -44.727273 
L 100.12774 -44.727273 
L 98.796108 -44.727273 
L 97.464477 -44.727273 
L 93.469583 -44.727273 
L 92.137951 -44.727273 
L 90.80632 -44.727273 
L 89.474689 -44.727273 
L 88.143057 -44.727273 
L 84.148163 -44.727273 
L 81.4849 -44.727273 
L 80.153269 -44.727273 
L 78.821638 -44.727273 
L 74.826743 -44.727273 
L 73.495112 -44.727273 
L 72.163481 -44.727273 
L 70.831849 -44.727273 
L 69.500218 -44.727273 
L 65.505324 -44.727273 
L 64.173692 -44.727273 
L 62.842061 -44.727273 
L 61.51043 -44.727273 
L 60.178798 -44.727273 
L 56.183904 -44.727273 
L 54.852273 -44.727273 
z
" id="m3a945af3bd" style="stroke:#f5f6f8;"/>
    </defs>
    <g clip-path="url(#pab551c1599)">
     <use style="fill:#f5f6f8;stroke:#f5f6f8;" x="0" xlink:href="#m3a945af3bd" y="432"/>
    </g>
   </g>
   <g id="matplotlib.axis_1">
    <g id="xtick_1">
     <g id="line2d_1">
      <defs>
       <path d="M 0 0 
L 0 3.5 
" id="m03d05f460e" style="stroke:#000000;stroke-width:0.8;"/>
      </defs>
      <g>
       <use style="stroke:#000000;stroke-width:0.8;" x="52.18901" xlink:href="#m03d05f460e" y="404.2"/>
      </g>
     </g>
     <g id="text_1">
      <!-- 2022-11 -->
      <defs>
       <path d="M 19.1875 8.296875 
L 53.609375 8.296875 
L 53.609375 0 
L 7.328125 0 
L 7.328125 8.296875 
Q 12.9375 14.109375 22.625 23.890625 
Q 32.328125 33.6875 34.8125 36.53125 
Q 39.546875 41.84375 41.421875 45.53125 
Q 43.3125 49.21875 43.3125 52.78125 
Q 43.3125 58.59375 39.234375 62.25 
Q 35.15625 65.921875 28.609375 65.921875 
Q 23.96875 65.921875 18.8125 64.3125 
Q 13.671875 62.703125 7.8125 59.421875 
L 7.8125 69.390625 
Q 13.765625 71.78125 18.9375 73 
Q 24.125 74.21875 28.421875 74.21875 
Q 39.75 74.21875 46.484375 68.546875 
Q 53.21875 62.890625 53.21875 53.421875 
Q 53.21875 48.921875 51.53125 44.890625 
Q 49.859375 40.875 45.40625 35.40625 
Q 44.1875 33.984375 37.640625 27.21875 
Q 31.109375 20.453125 19.1875 8.296875 
z
" id="DejaVuSans-50"/>
       <path d="M 31.78125 66.40625 
Q 24.171875 66.40625 20.328125 58.90625 
Q 16.5 51.421875 16.5 36.375 
Q 16.5 21.390625 20.328125 13.890625 
Q 24.171875 6.390625 31.78125 6.390625 
Q 39.453125 6.390625 43.28125 13.890625 
Q 47.125 21.390625 47.125 36.375 
Q 47.125 51.421875 43.28125 58.90625 
Q 39.453125 66.40625 31.78125 66.40625 
z
M 31.78125 74.21875 
Q 44.046875 74.21875 50.515625 64.515625 
Q 56.984375 54.828125 56.984375 36.375 
Q 56.984375 17.96875 50.515625 8.265625 
Q 44.046875 -1.421875 31.78125 -1.421875 
Q 19.53125 -1.421875 13.0625 8.265625 
Q 6.59375 17.96875 6.59375 36.375 
Q 6.59375 54.828125 13.0625 64.515625 
Q 19.53125 74.21875 31.78125 74.21875 
z
" id="DejaVuSans-48"/>
       <path d="M 4.890625 31.390625 
L 31.203125 31.390625 
L 31.203125 23.390625 
L 4.890625 23.390625 
z
" id="DejaVuSans-45"/>
       <path d="M 12.40625 8.296875 
L 28.515625 8.296875 
L 28.515625 63.921875 
L 10.984375 60.40625 
L 10.984375 69.390625 
L 28.421875 72.90625 
L 38.28125 72.90625 
L 38.28125 8.296875 
L 54.390625 8.296875 
L 54.390625 0 
L 12.40625 0 
z
" id="DejaVuSans-49"/>
      </defs>
      <g transform="translate(31.297604 418.798437)scale(0.1 -0.1)">
       <use xlink:href="#DejaVuSans-50"/>
       <use x="63.623047" xlink:href="#DejaVuSans-48"/>
       <use x="127.246094" xlink:href="#DejaVuSans-50"/>
       <use x="190.869141" xlink:href="#DejaVuSans-50"/>
       <use x="254.492188" xlink:href="#DejaVuSans-45"/>
       <use x="290.576172" xlink:href="#DejaVuSans-49"/>
       <use x="354.199219" xlink:href="#DejaVuSans-49"/>
      </g>
     </g>
    </g>
    <g id="xtick_2">
     <g id="line2d_2">
      <g>
       <use style="stroke:#000000;stroke-width:0.8;" x="133.418524" xlink:href="#m03d05f460e" y="404.2"/>
      </g>
     </g>
     <g id="text_2">
      <!-- 2023-01 -->
      <defs>
       <path d="M 40.578125 39.3125 
Q 47.65625 37.796875 51.625 33 
Q 55.609375 28.21875 55.609375 21.1875 
Q 55.609375 10.40625 48.1875 4.484375 
Q 40.765625 -1.421875 27.09375 -1.421875 
Q 22.515625 -1.421875 17.65625 -0.515625 
Q 12.796875 0.390625 7.625 2.203125 
L 7.625 11.71875 
Q 11.71875 9.328125 16.59375 8.109375 
Q 21.484375 6.890625 26.8125 6.890625 
Q 36.078125 6.890625 40.9375 10.546875 
Q 45.796875 14.203125 45.796875 21.1875 
Q 45.796875 27.640625 41.28125 31.265625 
Q 36.765625 34.90625 28.71875 34.90625 
L 20.21875 34.90625 
L 20.21875 43.015625 
L 29.109375 43.015625 
Q 36.375 43.015625 40.234375 45.921875 
Q 44.09375 48.828125 44.09375 54.296875 
Q 44.09375 59.90625 40.109375 62.90625 
Q 36.140625 65.921875 28.71875 65.921875 
Q 24.65625 65.921875 20.015625 65.03125 
Q 15.375 64.15625 9.8125 62.3125 
L 9.8125 71.09375 
Q 15.4375 72.65625 20.34375 73.4375 
Q 25.25 74.21875 29.59375 74.21875 
Q 40.828125 74.21875 47.359375 69.109375 
Q 53.90625 64.015625 53.90625 55.328125 
Q 53.90625 49.265625 50.4375 45.09375 
Q 46.96875 40.921875 40.578125 39.3125 
z
" id="DejaVuSans-51"/>
      </defs>
      <g transform="translate(112.527118 418.798437)scale(0.1 -0.1)">
       <use xlink:href="#DejaVuSans-50"/>
       <use x="63.623047" xlink:href="#DejaVuSans-48"/>
       <use x="127.246094" xlink:href="#DejaVuSans-50"/>
       <use x="190.869141" xlink:href="#DejaVuSans-51"/>
       <use x="254.492188" xlink:href="#DejaVuSans-45"/>
       <use x="290.576172" xlink:href="#DejaVuSans-48"/>
       <use x="354.199219" xlink:href="#DejaVuSans-49"/>
      </g>
     </g>
    </g>
    <g id="xtick_3">
     <g id="line2d_3">
      <g>
       <use style="stroke:#000000;stroke-width:0.8;" x="211.984776" xlink:href="#m03d05f460e" y="404.2"/>
      </g>
     </g>
     <g id="text_3">
      <!-- 2023-03 -->
      <g transform="translate(191.09337 418.798437)scale(0.1 -0.1)">
       <use xlink:href="#DejaVuSans-50"/>
       <use x="63.623047" xlink:href="#DejaVuSans-48"/>
       <use x="127.246094" xlink:href="#DejaVuSans-50"/>
       <use x="190.869141" xlink:href="#DejaVuSans-51"/>
       <use x="254.492188" xlink:href="#DejaVuSans-45"/>
       <use x="290.576172" xlink:href="#DejaVuSans-48"/>
       <use x="354.199219" xlink:href="#DejaVuSans-51"/>
      </g>
     </g>
    </g>
    <g id="xtick_4">
     <g id="line2d_4">
      <g>
       <use style="stroke:#000000;stroke-width:0.8;" x="293.21429" xlink:href="#m03d05f460e" y="404.2"/>
      </g>
     </g>
     <g id="text_4">
      <!-- 2023-05 -->
      <defs>
       <path d="M 10.796875 72.90625 
L 49.515625 72.90625 
L 49.515625 64.59375 
L 19.828125 64.59375 
L 19.828125 46.734375 
Q 21.96875 47.46875 24.109375 47.828125 
Q 26.265625 48.1875 28.421875 48.1875 
Q 40.625 48.1875 47.75 41.5 
Q 54.890625 34.8125 54.890625 23.390625 
Q 54.890625 11.625 47.5625 5.09375 
Q 40.234375 -1.421875 26.90625 -1.421875 
Q 22.3125 -1.421875 17.546875 -0.640625 
Q 12.796875 0.140625 7.71875 1.703125 
L 7.71875 11.625 
Q 12.109375 9.234375 16.796875 8.0625 
Q 21.484375 6.890625 26.703125 6.890625 
Q 35.15625 6.890625 40.078125 11.328125 
Q 45.015625 15.765625 45.015625 23.390625 
Q 45.015625 31 40.078125 35.4375 
Q 35.15625 39.890625 26.703125 39.890625 
Q 22.75 39.890625 18.8125 39.015625 
Q 14.890625 38.140625 10.796875 36.28125 
z
" id="DejaVuSans-53"/>
      </defs>
      <g transform="translate(272.322884 418.798437)scale(0.1 -0.1)">
       <use xlink:href="#DejaVuSans-50"/>
       <use x="63.623047" xlink:href="#DejaVuSans-48"/>
       <use x="127.246094" xlink:href="#DejaVuSans-50"/>
       <use x="190.869141" xlink:href="#DejaVuSans-51"/>
       <use x="254.492188" xlink:href="#DejaVuSans-45"/>
       <use x="290.576172" xlink:href="#DejaVuSans-48"/>
       <use x="354.199219" xlink:href="#DejaVuSans-53"/>
      </g>
     </g>
    </g>
    <g id="xtick_5">
     <g id="line2d_5">
      <g>
       <use style="stroke:#000000;stroke-width:0.8;" x="374.443804" xlink:href="#m03d05f460e" y="404.2"/>
      </g>
     </g>
     <g id="text_5">
      <!-- 2023-07 -->
      <defs>
       <path d="M 8.203125 72.90625 
L 55.078125 72.90625 
L 55.078125 68.703125 
L 28.609375 0 
L 18.3125 0 
L 43.21875 64.59375 
L 8.203125 64.59375 
z
" id="DejaVuSans-55"/>
      </defs>
      <g transform="translate(353.552398 418.798437)scale(0.1 -0.1)">
       <use xlink:href="#DejaVuSans-50"/>
       <use x="63.623047" xlink:href="#DejaVuSans-48"/>
       <use x="127.246094" xlink:href="#DejaVuSans-50"/>
       <use x="190.869141" xlink:href="#DejaVuSans-51"/>
       <use x="254.492188" xlink:href="#DejaVuSans-45"/>
       <use x="290.576172" xlink:href="#DejaVuSans-48"/>
       <use x="354.199219" xlink:href="#DejaVuSans-55"/>
      </g>
     </g>
    </g>
    <g id="xtick_6">
     <g id="line2d_6">
      <g>
       <use style="stroke:#000000;stroke-width:0.8;" x="457.00495" xlink:href="#m03d05f460e" y="404.2"/>
      </g>
     </g>
     <g id="text_6">
      <!-- 2023-09 -->
      <defs>
       <path d="M 10.984375 1.515625 
L 10.984375 10.5 
Q 14.703125 8.734375 18.5 7.8125 
Q 22.3125 6.890625 25.984375 6.890625 
Q 35.75 6.890625 40.890625 13.453125 
Q 46.046875 20.015625 46.78125 33.40625 
Q 43.953125 29.203125 39.59375 26.953125 
Q 35.25 24.703125 29.984375 24.703125 
Q 19.046875 24.703125 12.671875 31.3125 
Q 6.296875 37.9375 6.296875 49.421875 
Q 6.296875 60.640625 12.9375 67.421875 
Q 19.578125 74.21875 30.609375 74.21875 
Q 43.265625 74.21875 49.921875 64.515625 
Q 56.59375 54.828125 56.59375 36.375 
Q 56.59375 19.140625 48.40625 8.859375 
Q 40.234375 -1.421875 26.421875 -1.421875 
Q 22.703125 -1.421875 18.890625 -0.6875 
Q 15.09375 0.046875 10.984375 1.515625 
z
M 30.609375 32.421875 
Q 37.25 32.421875 41.125 36.953125 
Q 45.015625 41.5 45.015625 49.421875 
Q 45.015625 57.28125 41.125 61.84375 
Q 37.25 66.40625 30.609375 66.40625 
Q 23.96875 66.40625 20.09375 61.84375 
Q 16.21875 57.28125 16.21875 49.421875 
Q 16.21875 41.5 20.09375 36.953125 
Q 23.96875 32.421875 30.609375 32.421875 
z
" id="DejaVuSans-57"/>
      </defs>
      <g transform="translate(436.113544 418.798437)scale(0.1 -0.1)">
       <use xlink:href="#DejaVuSans-50"/>
       <use x="63.623047" xlink:href="#DejaVuSans-48"/>
       <use x="127.246094" xlink:href="#DejaVuSans-50"/>
       <use x="190.869141" xlink:href="#DejaVuSans-51"/>
       <use x="254.492188" xlink:href="#DejaVuSans-45"/>
       <use x="290.576172" xlink:href="#DejaVuSans-48"/>
       <use x="354.199219" xlink:href="#DejaVuSans-57"/>
      </g>
     </g>
    </g>
    <g id="xtick_7">
     <g id="line2d_7">
      <g>
       <use style="stroke:#000000;stroke-width:0.8;" x="538.234465" xlink:href="#m03d05f460e" y="404.2"/>
      </g>
     </g>
     <g id="text_7">
      <!-- 2023-11 -->
      <g transform="translate(517.343058 418.798437)scale(0.1 -0.1)">
       <use xlink:href="#DejaVuSans-50"/>
       <use x="63.623047" xlink:href="#DejaVuSans-48"/>
       <use x="127.246094" xlink:href="#DejaVuSans-50"/>
       <use x="190.869141" xlink:href="#DejaVuSans-51"/>
       <use x="254.492188" xlink:href="#DejaVuSans-45"/>
       <use x="290.576172" xlink:href="#DejaVuSans-49"/>
       <use x="354.199219" xlink:href="#DejaVuSans-49"/>
      </g>
     </g>
    </g>
   </g>
   <g id="matplotlib.axis_2">
    <g id="ytick_1">
     <g id="line2d_8">
      <defs>
       <path d="M 0 0 
L -3.5 0 
" id="m1b18212046" style="stroke:#000000;stroke-width:0.8;"/>
      </defs>
      <g>
       <use style="stroke:#000000;stroke-width:0.8;" x="30.55" xlink:href="#m1b18212046" y="387.272727"/>
      </g>
     </g>
     <g id="text_8">
      <!-- 0 -->
      <g transform="translate(17.1875 391.071946)scale(0.1 -0.1)">
       <use xlink:href="#DejaVuSans-48"/>
      </g>
     </g>
    </g>
    <g id="ytick_2">
     <g id="line2d_9">
      <g>
       <use style="stroke:#000000;stroke-width:0.8;" x="30.55" xlink:href="#m1b18212046" y="345.102142"/>
      </g>
     </g>
     <g id="text_9">
      <!-- 10 -->
      <g transform="translate(10.825 348.901361)scale(0.1 -0.1)">
       <use xlink:href="#DejaVuSans-49"/>
       <use x="63.623047" xlink:href="#DejaVuSans-48"/>
      </g>
     </g>
    </g>
    <g id="ytick_3">
     <g id="line2d_10">
      <g>
       <use style="stroke:#000000;stroke-width:0.8;" x="30.55" xlink:href="#m1b18212046" y="302.931556"/>
      </g>
     </g>
     <g id="text_10">
      <!-- 20 -->
      <g transform="translate(10.825 306.730775)scale(0.1 -0.1)">
       <use xlink:href="#DejaVuSans-50"/>
       <use x="63.623047" xlink:href="#DejaVuSans-48"/>
      </g>
     </g>
    </g>
    <g id="ytick_4">
     <g id="line2d_11">
      <g>
       <use style="stroke:#000000;stroke-width:0.8;" x="30.55" xlink:href="#m1b18212046" y="260.760971"/>
      </g>
     </g>
     <g id="text_11">
      <!-- 30 -->
      <g transform="translate(10.825 264.56019)scale(0.1 -0.1)">
       <use xlink:href="#DejaVuSans-51"/>
       <use x="63.623047" xlink:href="#DejaVuSans-48"/>
      </g>
     </g>
    </g>
    <g id="ytick_5">
     <g id="line2d_12">
      <g>
       <use style="stroke:#000000;stroke-width:0.8;" x="30.55" xlink:href="#m1b18212046" y="218.590386"/>
      </g>
     </g>
     <g id="text_12">
      <!-- 40 -->
      <defs>
       <path d="M 37.796875 64.3125 
L 12.890625 25.390625 
L 37.796875 25.390625 
z
M 35.203125 72.90625 
L 47.609375 72.90625 
L 47.609375 25.390625 
L 58.015625 25.390625 
L 58.015625 17.1875 
L 47.609375 17.1875 
L 47.609375 0 
L 37.796875 0 
L 37.796875 17.1875 
L 4.890625 17.1875 
L 4.890625 26.703125 
z
" id="DejaVuSans-52"/>
      </defs>
      <g transform="translate(10.825 222.389604)scale(0.1 -0.1)">
       <use xlink:href="#DejaVuSans-52"/>
       <use x="63.623047" xlink:href="#DejaVuSans-48"/>
      </g>
     </g>
    </g>
    <g id="ytick_6">
     <g id="line2d_13">
      <g>
       <use style="stroke:#000000;stroke-width:0.8;" x="30.55" xlink:href="#m1b18212046" y="176.4198"/>
      </g>
     </g>
     <g id="text_13">
      <!-- 50 -->
      <g transform="translate(10.825 180.219019)scale(0.1 -0.1)">
       <use xlink:href="#DejaVuSans-53"/>
       <use x="63.623047" xlink:href="#DejaVuSans-48"/>
      </g>
     </g>
    </g>
    <g id="ytick_7">
     <g id="line2d_14">
      <g>
       <use style="stroke:#000000;stroke-width:0.8;" x="30.55" xlink:href="#m1b18212046" y="134.249215"/>
      </g>
     </g>
     <g id="text_14">
      <!-- 60 -->
      <defs>
       <path d="M 33.015625 40.375 
Q 26.375 40.375 22.484375 35.828125 
Q 18.609375 31.296875 18.609375 23.390625 
Q 18.609375 15.53125 22.484375 10.953125 
Q 26.375 6.390625 33.015625 6.390625 
Q 39.65625 6.390625 43.53125 10.953125 
Q 47.40625 15.53125 47.40625 23.390625 
Q 47.40625 31.296875 43.53125 35.828125 
Q 39.65625 40.375 33.015625 40.375 
z
M 52.59375 71.296875 
L 52.59375 62.3125 
Q 48.875 64.0625 45.09375 64.984375 
Q 41.3125 65.921875 37.59375 65.921875 
Q 27.828125 65.921875 22.671875 59.328125 
Q 17.53125 52.734375 16.796875 39.40625 
Q 19.671875 43.65625 24.015625 45.921875 
Q 28.375 48.1875 33.59375 48.1875 
Q 44.578125 48.1875 50.953125 41.515625 
Q 57.328125 34.859375 57.328125 23.390625 
Q 57.328125 12.15625 50.6875 5.359375 
Q 44.046875 -1.421875 33.015625 -1.421875 
Q 20.359375 -1.421875 13.671875 8.265625 
Q 6.984375 17.96875 6.984375 36.375 
Q 6.984375 53.65625 15.1875 63.9375 
Q 23.390625 74.21875 37.203125 74.21875 
Q 40.921875 74.21875 44.703125 73.484375 
Q 48.484375 72.75 52.59375 71.296875 
z
" id="DejaVuSans-54"/>
      </defs>
      <g transform="translate(10.825 138.048434)scale(0.1 -0.1)">
       <use xlink:href="#DejaVuSans-54"/>
       <use x="63.623047" xlink:href="#DejaVuSans-48"/>
      </g>
     </g>
    </g>
    <g id="ytick_8">
     <g id="line2d_15">
      <g>
       <use style="stroke:#000000;stroke-width:0.8;" x="30.55" xlink:href="#m1b18212046" y="92.078629"/>
      </g>
     </g>
     <g id="text_15">
      <!-- 70 -->
      <g transform="translate(10.825 95.877848)scale(0.1 -0.1)">
       <use xlink:href="#DejaVuSans-55"/>
       <use x="63.623047" xlink:href="#DejaVuSans-48"/>
      </g>
     </g>
    </g>
    <g id="ytick_9">
     <g id="line2d_16">
      <g>
       <use style="stroke:#000000;stroke-width:0.8;" x="30.55" xlink:href="#m1b18212046" y="49.908044"/>
      </g>
     </g>
     <g id="text_16">
      <!-- 80 -->
      <defs>
       <path d="M 31.78125 34.625 
Q 24.75 34.625 20.71875 30.859375 
Q 16.703125 27.09375 16.703125 20.515625 
Q 16.703125 13.921875 20.71875 10.15625 
Q 24.75 6.390625 31.78125 6.390625 
Q 38.8125 6.390625 42.859375 10.171875 
Q 46.921875 13.96875 46.921875 20.515625 
Q 46.921875 27.09375 42.890625 30.859375 
Q 38.875 34.625 31.78125 34.625 
z
M 21.921875 38.8125 
Q 15.578125 40.375 12.03125 44.71875 
Q 8.5 49.078125 8.5 55.328125 
Q 8.5 64.0625 14.71875 69.140625 
Q 20.953125 74.21875 31.78125 74.21875 
Q 42.671875 74.21875 48.875 69.140625 
Q 55.078125 64.0625 55.078125 55.328125 
Q 55.078125 49.078125 51.53125 44.71875 
Q 48 40.375 41.703125 38.8125 
Q 48.828125 37.15625 52.796875 32.3125 
Q 56.78125 27.484375 56.78125 20.515625 
Q 56.78125 9.90625 50.3125 4.234375 
Q 43.84375 -1.421875 31.78125 -1.421875 
Q 19.734375 -1.421875 13.25 4.234375 
Q 6.78125 9.90625 6.78125 20.515625 
Q 6.78125 27.484375 10.78125 32.3125 
Q 14.796875 37.15625 21.921875 38.8125 
z
M 18.3125 54.390625 
Q 18.3125 48.734375 21.84375 45.5625 
Q 25.390625 42.390625 31.78125 42.390625 
Q 38.140625 42.390625 41.71875 45.5625 
Q 45.3125 48.734375 45.3125 54.390625 
Q 45.3125 60.0625 41.71875 63.234375 
Q 38.140625 66.40625 31.78125 66.40625 
Q 25.390625 66.40625 21.84375 63.234375 
Q 18.3125 60.0625 18.3125 54.390625 
z
" id="DejaVuSans-56"/>
      </defs>
      <g transform="translate(10.825 53.707263)scale(0.1 -0.1)">
       <use xlink:href="#DejaVuSans-56"/>
       <use x="63.623047" xlink:href="#DejaVuSans-48"/>
      </g>
     </g>
    </g>
   </g>
   <g id="patch_3">
    <path d="M 30.55 404.2 
L 30.55 31.8 
" style="fill:none;stroke:#000000;stroke-linecap:square;stroke-linejoin:miter;stroke-width:0.8;"/>
   </g>
   <g id="patch_4">
    <path d="M 565.2 404.2 
L 565.2 31.8 
" style="fill:none;stroke:#000000;stroke-linecap:square;stroke-linejoin:miter;stroke-width:0.8;"/>
   </g>
   <g id="patch_5">
    <path d="M 30.55 404.2 
L 565.2 404.2 
" style="fill:none;stroke:#000000;stroke-linecap:square;stroke-linejoin:miter;stroke-width:0.8;"/>
   </g>
   <g id="patch_6">
    <path d="M 30.55 31.8 
L 565.2 31.8 
" style="fill:none;stroke:#000000;stroke-linecap:square;stroke-linejoin:miter;stroke-width:0.8;"/>
   </g>
   <g id="text_17">
    <!-- FTNT - 4% -->
    <defs>
     <path d="M 9.1875 72.90625 
L 59.90625 72.90625 
L 59.90625 58.6875 
L 27.984375 58.6875 
L 27.984375 45.125 
L 58.015625 45.125 
L 58.015625 30.90625 
L 27.984375 30.90625 
L 27.984375 0 
L 9.1875 0 
z
" id="DejaVuSans-Bold-70"/>
     <path d="M 0.484375 72.90625 
L 67.671875 72.90625 
L 67.671875 58.6875 
L 43.5 58.6875 
L 43.5 0 
L 24.703125 0 
L 24.703125 58.6875 
L 0.484375 58.6875 
z
" id="DejaVuSans-Bold-84"/>
     <path d="M 9.1875 72.90625 
L 30.171875 72.90625 
L 56.6875 22.90625 
L 56.6875 72.90625 
L 74.515625 72.90625 
L 74.515625 0 
L 53.515625 0 
L 27 50 
L 27 0 
L 9.1875 0 
z
" id="DejaVuSans-Bold-78"/>
     <path id="DejaVuSans-Bold-32"/>
     <path d="M 5.421875 35.890625 
L 36.078125 35.890625 
L 36.078125 21.6875 
L 5.421875 21.6875 
z
" id="DejaVuSans-Bold-45"/>
     <path d="M 36.8125 57.421875 
L 16.21875 26.90625 
L 36.8125 26.90625 
z
M 33.6875 72.90625 
L 54.59375 72.90625 
L 54.59375 26.90625 
L 64.984375 26.90625 
L 64.984375 13.28125 
L 54.59375 13.28125 
L 54.59375 0 
L 36.8125 0 
L 36.8125 13.28125 
L 4.5 13.28125 
L 4.5 29.390625 
z
" id="DejaVuSans-Bold-52"/>
     <path d="M 77.484375 30.078125 
Q 74.03125 30.078125 72.125 27.078125 
Q 70.21875 24.078125 70.21875 18.5 
Q 70.21875 12.890625 72.09375 9.890625 
Q 73.96875 6.890625 77.484375 6.890625 
Q 81 6.890625 82.859375 9.890625 
Q 84.71875 12.890625 84.71875 18.5 
Q 84.71875 24.078125 82.828125 27.078125 
Q 80.953125 30.078125 77.484375 30.078125 
z
M 77.484375 38.28125 
Q 86.578125 38.28125 91.796875 33 
Q 97.015625 27.734375 97.015625 18.5 
Q 97.015625 9.28125 91.796875 3.921875 
Q 86.578125 -1.421875 77.484375 -1.421875 
Q 68.40625 -1.421875 63.15625 3.921875 
Q 57.90625 9.28125 57.90625 18.5 
Q 57.90625 27.6875 63.15625 32.984375 
Q 68.40625 38.28125 77.484375 38.28125 
z
M 32.71875 -1.421875 
L 21.921875 -1.421875 
L 67.484375 74.21875 
L 78.328125 74.21875 
z
M 22.703125 74.21875 
Q 31.78125 74.21875 36.984375 68.921875 
Q 42.1875 63.625 42.1875 54.390625 
Q 42.1875 45.171875 36.984375 39.84375 
Q 31.78125 34.515625 22.703125 34.515625 
Q 13.625 34.515625 8.421875 39.84375 
Q 3.21875 45.171875 3.21875 54.390625 
Q 3.21875 63.625 8.421875 68.921875 
Q 13.625 74.21875 22.703125 74.21875 
z
M 22.703125 66.015625 
Q 19.1875 66.015625 17.28125 62.984375 
Q 15.375 59.96875 15.375 54.390625 
Q 15.375 48.78125 17.28125 45.71875 
Q 19.1875 42.671875 22.703125 42.671875 
Q 26.21875 42.671875 28.09375 45.71875 
Q 29.984375 48.78125 29.984375 54.390625 
Q 29.984375 59.96875 28.078125 62.984375 
Q 26.171875 66.015625 22.703125 66.015625 
z
" id="DejaVuSans-Bold-37"/>
    </defs>
    <g transform="translate(30.55 25.8)scale(0.2 -0.2)">
     <use xlink:href="#DejaVuSans-Bold-70"/>
     <use x="68.310547" xlink:href="#DejaVuSans-Bold-84"/>
     <use x="136.523438" xlink:href="#DejaVuSans-Bold-78"/>
     <use x="220.214844" xlink:href="#DejaVuSans-Bold-84"/>
     <use x="288.427734" xlink:href="#DejaVuSans-Bold-32"/>
     <use x="323.242188" xlink:href="#DejaVuSans-Bold-45"/>
     <use x="364.746094" xlink:href="#DejaVuSans-Bold-32"/>
     <use x="399.560547" xlink:href="#DejaVuSans-Bold-52"/>
     <use x="469.140625" xlink:href="#DejaVuSans-Bold-37"/>
    </g>
   </g>
  </g>
 </g>
 <defs>
  <clipPath id="pab551c1599">
   <rect height="372.4" width="534.65" x="30.55" y="31.8"/>
  </clipPath>
 </defs>
</svg>
