<?xml version="1.0" encoding="utf-8" standalone="no"?>
<!DOCTYPE svg PUBLIC "-//W3C//DTD SVG 1.1//EN"
  "http://www.w3.org/Graphics/SVG/1.1/DTD/svg11.dtd">
<!-- Created with matplotlib (https://matplotlib.org/) -->
<svg height="432pt" version="1.1" viewBox="0 0 864 432" width="864pt" xmlns="http://www.w3.org/2000/svg" xmlns:xlink="http://www.w3.org/1999/xlink">
 <defs>
  <style type="text/css">
*{stroke-linecap:butt;stroke-linejoin:round;}
  </style>
 </defs>
 <g id="figure_1">
  <g id="patch_1">
   <path d="M 0 432 
L 864 432 
L 864 0 
L 0 0 
z
" style="fill:#ffffff;"/>
  </g>
  <g id="axes_1">
   <g id="patch_2">
    <path d="M 30.55 404.2 
L 853.2 404.2 
L 853.2 28.8 
L 30.55 28.8 
z
" style="fill:#ffffff;"/>
   </g>
   <g id="PolyCollection_1">
    <defs>
     <path d="M 67.943182 -44.863636 
L 67.943182 -240.113471 
L 69.997752 -245.087169 
L 76.161464 -248.317961 
L 78.216034 -259.965776 
L 80.270604 -256.905045 
L 82.325175 -276.077185 
L 84.379745 -283.473986 
L 90.543457 -280.880854 
L 92.598027 -283.771556 
L 94.652597 -277.352491 
L 96.707168 -275.014428 
L 98.761738 -266.554886 
L 104.92545 -267.277553 
L 106.98002 -267.107508 
L 109.03459 -271.65611 
L 113.143731 -269.785662 
L 119.307443 -266.257315 
L 121.362013 -264.174303 
L 123.416583 -270.84842 
L 125.471154 -280.285713 
L 127.525724 -272.761387 
L 133.689436 -264.514377 
L 135.744006 -261.028533 
L 137.798576 -264.216806 
L 139.853147 -269.785662 
L 141.907717 -266.469863 
L 148.071429 -272.888912 
L 150.125999 -277.437514 
L 152.180569 -275.567066 
L 154.23514 -266.639892 
L 156.28971 -265.577135 
L 162.453422 -257.330141 
L 164.507992 -259.413153 
L 166.562562 -257.457667 
L 168.617133 -253.801794 
L 170.671703 -252.016353 
L 178.889985 -251.251166 
L 180.944555 -248.317961 
L 182.999126 -254.056846 
L 185.053696 -252.696517 
L 193.271978 -251.123641 
L 195.326548 -250.188409 
L 197.381119 -246.575039 
L 199.435689 -251.846308 
L 205.599401 -254.907055 
L 207.653971 -250.698528 
L 209.708541 -252.313924 
L 211.763112 -250.613521 
L 213.817682 -252.611495 
L 222.035964 -257.84026 
L 224.090534 -250.528499 
L 226.145105 -250.698528 
L 228.199675 -254.311913 
L 234.363387 -259.583182 
L 236.417957 -262.048788 
L 238.472527 -264.89697 
L 240.527098 -271.060968 
L 242.581668 -268.89295 
L 248.74538 -261.878743 
L 250.79995 -267.362576 
L 252.85452 -270.550849 
L 254.909091 -273.781625 
L 256.963661 -270.168255 
L 263.127373 -265.874722 
L 265.181943 -273.484054 
L 267.236513 -298.395096 
L 269.291084 -290.658221 
L 271.345654 -298.26757 
L 277.509366 -300.56313 
L 279.563936 -304.98419 
L 281.618506 -311.870871 
L 283.673077 -305.834399 
L 285.727647 -302.646126 
L 293.945929 -298.692667 
L 296.0005 -300.818182 
L 298.05507 -302.391075 
L 300.10964 -295.079297 
L 306.273352 -298.310073 
L 308.327922 -297.544886 
L 310.382493 -293.293856 
L 312.437063 -298.395096 
L 314.491633 -303.496336 
L 320.655345 -305.494325 
L 322.709915 -301.498346 
L 324.764486 -307.534818 
L 326.819056 -299.712921 
L 328.873626 -294.654184 
L 335.037338 -296.822219 
L 337.091908 -303.708884 
L 339.146479 -301.583369 
L 341.201049 -307.917411 
L 343.255619 -305.111732 
L 349.419331 -306.47206 
L 351.473901 -310.383001 
L 353.528472 -305.069212 
L 355.583042 -313.741319 
L 357.637612 -312.636058 
L 363.801324 -316.844569 
L 365.855894 -318.077355 
L 367.910465 -320.372916 
L 369.965035 -324.623946 
L 372.019605 -327.387123 
L 378.183317 -326.749462 
L 380.237887 -325.304127 
L 382.292458 -321.818283 
L 384.347028 -323.391144 
L 392.56531 -329.300106 
L 394.61988 -329.682683 
L 396.674451 -330.490389 
L 398.729021 -335.591613 
L 400.783591 -334.231285 
L 406.947303 -332.700911 
L 409.001873 -333.168527 
L 411.056444 -331.043012 
L 413.111014 -329.257587 
L 415.165584 -328.747451 
L 421.329296 -326.49441 
L 423.383866 -313.401228 
L 425.438437 -314.37898 
L 427.493007 -312.933629 
L 429.547577 -312.891109 
L 435.711289 -311.870871 
L 437.765859 -306.046947 
L 439.82043 -302.008481 
L 441.875 -304.941687 
L 443.92957 -319.437684 
L 450.093282 -325.771743 
L 452.147852 -327.132071 
L 454.202423 -329.725203 
L 456.256993 -331.808198 
L 458.311563 -332.955962 
L 464.475275 -336.31428 
L 466.529845 -335.251523 
L 468.584416 -335.761658 
L 470.638986 -334.528855 
L 472.693556 -340.862882 
L 478.857268 -340.395266 
L 480.911838 -334.316291 
L 482.966409 -327.939745 
L 485.020979 -330.405351 
L 487.075549 -332.955962 
L 495.293831 -336.229274 
L 497.348402 -335.336562 
L 499.402972 -336.654371 
L 501.457542 -334.486336 
L 507.621254 -347.834569 
L 509.675824 -340.480305 
L 511.730395 -329.937735 
L 513.784965 -338.184744 
L 515.839535 -333.976233 
L 522.003247 -341.755594 
L 524.057817 -344.518771 
L 526.112388 -348.727314 
L 528.166958 -357.696959 
L 530.221528 -354.253635 
L 538.43981 -349.492501 
L 540.494381 -347.154421 
L 542.548951 -350.342694 
L 544.603521 -349.194898 
L 550.767233 -346.941857 
L 552.821803 -357.994562 
L 554.876374 -360.842745 
L 556.930944 -364.073505 
L 558.985514 -366.19902 
L 565.149226 -362.245593 
L 569.258367 -360.757706 
L 571.312937 -362.203073 
L 573.367507 -362.330599 
L 579.531219 -375.848877 
L 581.585789 -377.804348 
L 583.64036 -371.002705 
L 585.69493 -377.506777 
L 587.7495 -380.354959 
L 593.913212 -386.136364 
L 595.967782 -385.966319 
L 598.022353 -379.377241 
L 600.076923 -375.168697 
L 602.131494 -377.1242 
L 608.295205 -373.340753 
L 610.349775 -377.889354 
L 612.404346 -373.298266 
L 614.458916 -370.407564 
L 616.513487 -371.342795 
L 622.677198 -375.253736 
L 624.731768 -376.571545 
L 626.786339 -360.800225 
L 628.840909 -366.92172 
L 630.89548 -286.194643 
L 637.059191 -290.148102 
L 639.113761 -293.846494 
L 641.168332 -298.990237 
L 643.222902 -302.306052 
L 645.277473 -298.565141 
L 651.441184 -298.480118 
L 653.495754 -296.397106 
L 655.550325 -292.188595 
L 657.604895 -288.9153 
L 659.659466 -287.852542 
L 665.823177 -293.081308 
L 667.877747 -292.783737 
L 669.932318 -296.482129 
L 671.986888 -292.061069 
L 674.041459 -294.866749 
L 680.20517 -294.399133 
L 682.25974 -302.603623 
L 684.314311 -305.111732 
L 686.368881 -300.818182 
L 688.423452 -303.623861 
L 696.641733 -308.044937 
L 698.696304 -309.405265 
L 700.750874 -313.401228 
L 702.805445 -317.227162 
L 708.969156 -321.478193 
L 711.023726 -314.804076 
L 713.078297 -311.063165 
L 715.132867 -313.103658 
L 717.187438 -304.261522 
L 723.351149 -301.838436 
L 725.405719 -301.795917 
L 727.46029 -300.56313 
L 729.51486 -294.739207 
L 731.569431 -292.443663 
L 737.733142 -291.891024 
L 739.787712 -289.000322 
L 741.842283 -292.01855 
L 743.896853 -293.97402 
L 745.951424 -294.31411 
L 752.115135 -294.101562 
L 754.169705 -289.765509 
L 756.224276 -292.528669 
L 758.278846 -291.508431 
L 760.333417 -299.627898 
L 766.497128 -297.842457 
L 768.551698 -297.374857 
L 770.606269 -295.546913 
L 772.660839 -291.423408 
L 774.71541 -290.403154 
L 780.879121 -296.26958 
L 782.933691 -294.186585 
L 784.988262 -290.02056 
L 787.042832 -290.445673 
L 789.097403 -284.451721 
L 795.261114 -283.346444 
L 797.315684 -289.467938 
L 799.370255 -282.666279 
L 801.424825 -281.731064 
L 803.479396 -284.026608 
L 809.643107 -284.281676 
L 811.697677 -287.895045 
L 813.752248 -288.490203 
L 815.806818 -289.680486 
L 815.806818 -44.863636 
L 815.806818 -44.863636 
L 813.752248 -44.863636 
L 811.697677 -44.863636 
L 809.643107 -44.863636 
L 803.479396 -44.863636 
L 801.424825 -44.863636 
L 799.370255 -44.863636 
L 797.315684 -44.863636 
L 795.261114 -44.863636 
L 789.097403 -44.863636 
L 787.042832 -44.863636 
L 784.988262 -44.863636 
L 782.933691 -44.863636 
L 780.879121 -44.863636 
L 774.71541 -44.863636 
L 772.660839 -44.863636 
L 770.606269 -44.863636 
L 768.551698 -44.863636 
L 766.497128 -44.863636 
L 760.333417 -44.863636 
L 758.278846 -44.863636 
L 756.224276 -44.863636 
L 754.169705 -44.863636 
L 752.115135 -44.863636 
L 745.951424 -44.863636 
L 743.896853 -44.863636 
L 741.842283 -44.863636 
L 739.787712 -44.863636 
L 737.733142 -44.863636 
L 731.569431 -44.863636 
L 729.51486 -44.863636 
L 727.46029 -44.863636 
L 725.405719 -44.863636 
L 723.351149 -44.863636 
L 717.187438 -44.863636 
L 715.132867 -44.863636 
L 713.078297 -44.863636 
L 711.023726 -44.863636 
L 708.969156 -44.863636 
L 702.805445 -44.863636 
L 700.750874 -44.863636 
L 698.696304 -44.863636 
L 696.641733 -44.863636 
L 688.423452 -44.863636 
L 686.368881 -44.863636 
L 684.314311 -44.863636 
L 682.25974 -44.863636 
L 680.20517 -44.863636 
L 674.041459 -44.863636 
L 671.986888 -44.863636 
L 669.932318 -44.863636 
L 667.877747 -44.863636 
L 665.823177 -44.863636 
L 659.659466 -44.863636 
L 657.604895 -44.863636 
L 655.550325 -44.863636 
L 653.495754 -44.863636 
L 651.441184 -44.863636 
L 645.277473 -44.863636 
L 643.222902 -44.863636 
L 641.168332 -44.863636 
L 639.113761 -44.863636 
L 637.059191 -44.863636 
L 630.89548 -44.863636 
L 628.840909 -44.863636 
L 626.786339 -44.863636 
L 624.731768 -44.863636 
L 622.677198 -44.863636 
L 616.513487 -44.863636 
L 614.458916 -44.863636 
L 612.404346 -44.863636 
L 610.349775 -44.863636 
L 608.295205 -44.863636 
L 602.131494 -44.863636 
L 600.076923 -44.863636 
L 598.022353 -44.863636 
L 595.967782 -44.863636 
L 593.913212 -44.863636 
L 587.7495 -44.863636 
L 585.69493 -44.863636 
L 583.64036 -44.863636 
L 581.585789 -44.863636 
L 579.531219 -44.863636 
L 573.367507 -44.863636 
L 571.312937 -44.863636 
L 569.258367 -44.863636 
L 565.149226 -44.863636 
L 558.985514 -44.863636 
L 556.930944 -44.863636 
L 554.876374 -44.863636 
L 552.821803 -44.863636 
L 550.767233 -44.863636 
L 544.603521 -44.863636 
L 542.548951 -44.863636 
L 540.494381 -44.863636 
L 538.43981 -44.863636 
L 530.221528 -44.863636 
L 528.166958 -44.863636 
L 526.112388 -44.863636 
L 524.057817 -44.863636 
L 522.003247 -44.863636 
L 515.839535 -44.863636 
L 513.784965 -44.863636 
L 511.730395 -44.863636 
L 509.675824 -44.863636 
L 507.621254 -44.863636 
L 501.457542 -44.863636 
L 499.402972 -44.863636 
L 497.348402 -44.863636 
L 495.293831 -44.863636 
L 487.075549 -44.863636 
L 485.020979 -44.863636 
L 482.966409 -44.863636 
L 480.911838 -44.863636 
L 478.857268 -44.863636 
L 472.693556 -44.863636 
L 470.638986 -44.863636 
L 468.584416 -44.863636 
L 466.529845 -44.863636 
L 464.475275 -44.863636 
L 458.311563 -44.863636 
L 456.256993 -44.863636 
L 454.202423 -44.863636 
L 452.147852 -44.863636 
L 450.093282 -44.863636 
L 443.92957 -44.863636 
L 441.875 -44.863636 
L 439.82043 -44.863636 
L 437.765859 -44.863636 
L 435.711289 -44.863636 
L 429.547577 -44.863636 
L 427.493007 -44.863636 
L 425.438437 -44.863636 
L 423.383866 -44.863636 
L 421.329296 -44.863636 
L 415.165584 -44.863636 
L 413.111014 -44.863636 
L 411.056444 -44.863636 
L 409.001873 -44.863636 
L 406.947303 -44.863636 
L 400.783591 -44.863636 
L 398.729021 -44.863636 
L 396.674451 -44.863636 
L 394.61988 -44.863636 
L 392.56531 -44.863636 
L 384.347028 -44.863636 
L 382.292458 -44.863636 
L 380.237887 -44.863636 
L 378.183317 -44.863636 
L 372.019605 -44.863636 
L 369.965035 -44.863636 
L 367.910465 -44.863636 
L 365.855894 -44.863636 
L 363.801324 -44.863636 
L 357.637612 -44.863636 
L 355.583042 -44.863636 
L 353.528472 -44.863636 
L 351.473901 -44.863636 
L 349.419331 -44.863636 
L 343.255619 -44.863636 
L 341.201049 -44.863636 
L 339.146479 -44.863636 
L 337.091908 -44.863636 
L 335.037338 -44.863636 
L 328.873626 -44.863636 
L 326.819056 -44.863636 
L 324.764486 -44.863636 
L 322.709915 -44.863636 
L 320.655345 -44.863636 
L 314.491633 -44.863636 
L 312.437063 -44.863636 
L 310.382493 -44.863636 
L 308.327922 -44.863636 
L 306.273352 -44.863636 
L 300.10964 -44.863636 
L 298.05507 -44.863636 
L 296.0005 -44.863636 
L 293.945929 -44.863636 
L 285.727647 -44.863636 
L 283.673077 -44.863636 
L 281.618506 -44.863636 
L 279.563936 -44.863636 
L 277.509366 -44.863636 
L 271.345654 -44.863636 
L 269.291084 -44.863636 
L 267.236513 -44.863636 
L 265.181943 -44.863636 
L 263.127373 -44.863636 
L 256.963661 -44.863636 
L 254.909091 -44.863636 
L 252.85452 -44.863636 
L 250.79995 -44.863636 
L 248.74538 -44.863636 
L 242.581668 -44.863636 
L 240.527098 -44.863636 
L 238.472527 -44.863636 
L 236.417957 -44.863636 
L 234.363387 -44.863636 
L 228.199675 -44.863636 
L 226.145105 -44.863636 
L 224.090534 -44.863636 
L 222.035964 -44.863636 
L 213.817682 -44.863636 
L 211.763112 -44.863636 
L 209.708541 -44.863636 
L 207.653971 -44.863636 
L 205.599401 -44.863636 
L 199.435689 -44.863636 
L 197.381119 -44.863636 
L 195.326548 -44.863636 
L 193.271978 -44.863636 
L 185.053696 -44.863636 
L 182.999126 -44.863636 
L 180.944555 -44.863636 
L 178.889985 -44.863636 
L 170.671703 -44.863636 
L 168.617133 -44.863636 
L 166.562562 -44.863636 
L 164.507992 -44.863636 
L 162.453422 -44.863636 
L 156.28971 -44.863636 
L 154.23514 -44.863636 
L 152.180569 -44.863636 
L 150.125999 -44.863636 
L 148.071429 -44.863636 
L 141.907717 -44.863636 
L 139.853147 -44.863636 
L 137.798576 -44.863636 
L 135.744006 -44.863636 
L 133.689436 -44.863636 
L 127.525724 -44.863636 
L 125.471154 -44.863636 
L 123.416583 -44.863636 
L 121.362013 -44.863636 
L 119.307443 -44.863636 
L 113.143731 -44.863636 
L 109.03459 -44.863636 
L 106.98002 -44.863636 
L 104.92545 -44.863636 
L 98.761738 -44.863636 
L 96.707168 -44.863636 
L 94.652597 -44.863636 
L 92.598027 -44.863636 
L 90.543457 -44.863636 
L 84.379745 -44.863636 
L 82.325175 -44.863636 
L 80.270604 -44.863636 
L 78.216034 -44.863636 
L 76.161464 -44.863636 
L 69.997752 -44.863636 
L 67.943182 -44.863636 
z
" id="m9d8af640ba" style="stroke:#f5f6f8;"/>
    </defs>
    <g clip-path="url(#pd5c6cd7c5e)">
     <use style="fill:#f5f6f8;stroke:#f5f6f8;" x="0" xlink:href="#m9d8af640ba" y="432"/>
    </g>
   </g>
   <g id="matplotlib.axis_1">
    <g id="xtick_1">
     <g id="line2d_1">
      <defs>
       <path d="M 0 0 
L 0 3.5 
" id="m65683160ba" style="stroke:#000000;stroke-width:0.8;"/>
      </defs>
      <g>
       <use style="stroke:#000000;stroke-width:0.8;" x="63.834041" xlink:href="#m65683160ba" y="404.2"/>
      </g>
     </g>
     <g id="text_1">
      <!-- 2022-11 -->
      <defs>
       <path d="M 19.1875 8.296875 
L 53.609375 8.296875 
L 53.609375 0 
L 7.328125 0 
L 7.328125 8.296875 
Q 12.9375 14.109375 22.625 23.890625 
Q 32.328125 33.6875 34.8125 36.53125 
Q 39.546875 41.84375 41.421875 45.53125 
Q 43.3125 49.21875 43.3125 52.78125 
Q 43.3125 58.59375 39.234375 62.25 
Q 35.15625 65.921875 28.609375 65.921875 
Q 23.96875 65.921875 18.8125 64.3125 
Q 13.671875 62.703125 7.8125 59.421875 
L 7.8125 69.390625 
Q 13.765625 71.78125 18.9375 73 
Q 24.125 74.21875 28.421875 74.21875 
Q 39.75 74.21875 46.484375 68.546875 
Q 53.21875 62.890625 53.21875 53.421875 
Q 53.21875 48.921875 51.53125 44.890625 
Q 49.859375 40.875 45.40625 35.40625 
Q 44.1875 33.984375 37.640625 27.21875 
Q 31.109375 20.453125 19.1875 8.296875 
z
" id="DejaVuSans-50"/>
       <path d="M 31.78125 66.40625 
Q 24.171875 66.40625 20.328125 58.90625 
Q 16.5 51.421875 16.5 36.375 
Q 16.5 21.390625 20.328125 13.890625 
Q 24.171875 6.390625 31.78125 6.390625 
Q 39.453125 6.390625 43.28125 13.890625 
Q 47.125 21.390625 47.125 36.375 
Q 47.125 51.421875 43.28125 58.90625 
Q 39.453125 66.40625 31.78125 66.40625 
z
M 31.78125 74.21875 
Q 44.046875 74.21875 50.515625 64.515625 
Q 56.984375 54.828125 56.984375 36.375 
Q 56.984375 17.96875 50.515625 8.265625 
Q 44.046875 -1.421875 31.78125 -1.421875 
Q 19.53125 -1.421875 13.0625 8.265625 
Q 6.59375 17.96875 6.59375 36.375 
Q 6.59375 54.828125 13.0625 64.515625 
Q 19.53125 74.21875 31.78125 74.21875 
z
" id="DejaVuSans-48"/>
       <path d="M 4.890625 31.390625 
L 31.203125 31.390625 
L 31.203125 23.390625 
L 4.890625 23.390625 
z
" id="DejaVuSans-45"/>
       <path d="M 12.40625 8.296875 
L 28.515625 8.296875 
L 28.515625 63.921875 
L 10.984375 60.40625 
L 10.984375 69.390625 
L 28.421875 72.90625 
L 38.28125 72.90625 
L 38.28125 8.296875 
L 54.390625 8.296875 
L 54.390625 0 
L 12.40625 0 
z
" id="DejaVuSans-49"/>
      </defs>
      <g transform="translate(42.942635 418.798437)scale(0.1 -0.1)">
       <use xlink:href="#DejaVuSans-50"/>
       <use x="63.623047" xlink:href="#DejaVuSans-48"/>
       <use x="127.246094" xlink:href="#DejaVuSans-50"/>
       <use x="190.869141" xlink:href="#DejaVuSans-50"/>
       <use x="254.492188" xlink:href="#DejaVuSans-45"/>
       <use x="290.576172" xlink:href="#DejaVuSans-49"/>
       <use x="354.199219" xlink:href="#DejaVuSans-49"/>
      </g>
     </g>
    </g>
    <g id="xtick_2">
     <g id="line2d_2">
      <g>
       <use style="stroke:#000000;stroke-width:0.8;" x="189.162837" xlink:href="#m65683160ba" y="404.2"/>
      </g>
     </g>
     <g id="text_2">
      <!-- 2023-01 -->
      <defs>
       <path d="M 40.578125 39.3125 
Q 47.65625 37.796875 51.625 33 
Q 55.609375 28.21875 55.609375 21.1875 
Q 55.609375 10.40625 48.1875 4.484375 
Q 40.765625 -1.421875 27.09375 -1.421875 
Q 22.515625 -1.421875 17.65625 -0.515625 
Q 12.796875 0.390625 7.625 2.203125 
L 7.625 11.71875 
Q 11.71875 9.328125 16.59375 8.109375 
Q 21.484375 6.890625 26.8125 6.890625 
Q 36.078125 6.890625 40.9375 10.546875 
Q 45.796875 14.203125 45.796875 21.1875 
Q 45.796875 27.640625 41.28125 31.265625 
Q 36.765625 34.90625 28.71875 34.90625 
L 20.21875 34.90625 
L 20.21875 43.015625 
L 29.109375 43.015625 
Q 36.375 43.015625 40.234375 45.921875 
Q 44.09375 48.828125 44.09375 54.296875 
Q 44.09375 59.90625 40.109375 62.90625 
Q 36.140625 65.921875 28.71875 65.921875 
Q 24.65625 65.921875 20.015625 65.03125 
Q 15.375 64.15625 9.8125 62.3125 
L 9.8125 71.09375 
Q 15.4375 72.65625 20.34375 73.4375 
Q 25.25 74.21875 29.59375 74.21875 
Q 40.828125 74.21875 47.359375 69.109375 
Q 53.90625 64.015625 53.90625 55.328125 
Q 53.90625 49.265625 50.4375 45.09375 
Q 46.96875 40.921875 40.578125 39.3125 
z
" id="DejaVuSans-51"/>
      </defs>
      <g transform="translate(168.271431 418.798437)scale(0.1 -0.1)">
       <use xlink:href="#DejaVuSans-50"/>
       <use x="63.623047" xlink:href="#DejaVuSans-48"/>
       <use x="127.246094" xlink:href="#DejaVuSans-50"/>
       <use x="190.869141" xlink:href="#DejaVuSans-51"/>
       <use x="254.492188" xlink:href="#DejaVuSans-45"/>
       <use x="290.576172" xlink:href="#DejaVuSans-48"/>
       <use x="354.199219" xlink:href="#DejaVuSans-49"/>
      </g>
     </g>
    </g>
    <g id="xtick_3">
     <g id="line2d_3">
      <g>
       <use style="stroke:#000000;stroke-width:0.8;" x="310.382493" xlink:href="#m65683160ba" y="404.2"/>
      </g>
     </g>
     <g id="text_3">
      <!-- 2023-03 -->
      <g transform="translate(289.491086 418.798437)scale(0.1 -0.1)">
       <use xlink:href="#DejaVuSans-50"/>
       <use x="63.623047" xlink:href="#DejaVuSans-48"/>
       <use x="127.246094" xlink:href="#DejaVuSans-50"/>
       <use x="190.869141" xlink:href="#DejaVuSans-51"/>
       <use x="254.492188" xlink:href="#DejaVuSans-45"/>
       <use x="290.576172" xlink:href="#DejaVuSans-48"/>
       <use x="354.199219" xlink:href="#DejaVuSans-51"/>
      </g>
     </g>
    </g>
    <g id="xtick_4">
     <g id="line2d_4">
      <g>
       <use style="stroke:#000000;stroke-width:0.8;" x="435.711289" xlink:href="#m65683160ba" y="404.2"/>
      </g>
     </g>
     <g id="text_4">
      <!-- 2023-05 -->
      <defs>
       <path d="M 10.796875 72.90625 
L 49.515625 72.90625 
L 49.515625 64.59375 
L 19.828125 64.59375 
L 19.828125 46.734375 
Q 21.96875 47.46875 24.109375 47.828125 
Q 26.265625 48.1875 28.421875 48.1875 
Q 40.625 48.1875 47.75 41.5 
Q 54.890625 34.8125 54.890625 23.390625 
Q 54.890625 11.625 47.5625 5.09375 
Q 40.234375 -1.421875 26.90625 -1.421875 
Q 22.3125 -1.421875 17.546875 -0.640625 
Q 12.796875 0.140625 7.71875 1.703125 
L 7.71875 11.625 
Q 12.109375 9.234375 16.796875 8.0625 
Q 21.484375 6.890625 26.703125 6.890625 
Q 35.15625 6.890625 40.078125 11.328125 
Q 45.015625 15.765625 45.015625 23.390625 
Q 45.015625 31 40.078125 35.4375 
Q 35.15625 39.890625 26.703125 39.890625 
Q 22.75 39.890625 18.8125 39.015625 
Q 14.890625 38.140625 10.796875 36.28125 
z
" id="DejaVuSans-53"/>
      </defs>
      <g transform="translate(414.819882 418.798437)scale(0.1 -0.1)">
       <use xlink:href="#DejaVuSans-50"/>
       <use x="63.623047" xlink:href="#DejaVuSans-48"/>
       <use x="127.246094" xlink:href="#DejaVuSans-50"/>
       <use x="190.869141" xlink:href="#DejaVuSans-51"/>
       <use x="254.492188" xlink:href="#DejaVuSans-45"/>
       <use x="290.576172" xlink:href="#DejaVuSans-48"/>
       <use x="354.199219" xlink:href="#DejaVuSans-53"/>
      </g>
     </g>
    </g>
    <g id="xtick_5">
     <g id="line2d_5">
      <g>
       <use style="stroke:#000000;stroke-width:0.8;" x="561.040085" xlink:href="#m65683160ba" y="404.2"/>
      </g>
     </g>
     <g id="text_5">
      <!-- 2023-07 -->
      <defs>
       <path d="M 8.203125 72.90625 
L 55.078125 72.90625 
L 55.078125 68.703125 
L 28.609375 0 
L 18.3125 0 
L 43.21875 64.59375 
L 8.203125 64.59375 
z
" id="DejaVuSans-55"/>
      </defs>
      <g transform="translate(540.148679 418.798437)scale(0.1 -0.1)">
       <use xlink:href="#DejaVuSans-50"/>
       <use x="63.623047" xlink:href="#DejaVuSans-48"/>
       <use x="127.246094" xlink:href="#DejaVuSans-50"/>
       <use x="190.869141" xlink:href="#DejaVuSans-51"/>
       <use x="254.492188" xlink:href="#DejaVuSans-45"/>
       <use x="290.576172" xlink:href="#DejaVuSans-48"/>
       <use x="354.199219" xlink:href="#DejaVuSans-55"/>
      </g>
     </g>
    </g>
    <g id="xtick_6">
     <g id="line2d_6">
      <g>
       <use style="stroke:#000000;stroke-width:0.8;" x="688.423452" xlink:href="#m65683160ba" y="404.2"/>
      </g>
     </g>
     <g id="text_6">
      <!-- 2023-09 -->
      <defs>
       <path d="M 10.984375 1.515625 
L 10.984375 10.5 
Q 14.703125 8.734375 18.5 7.8125 
Q 22.3125 6.890625 25.984375 6.890625 
Q 35.75 6.890625 40.890625 13.453125 
Q 46.046875 20.015625 46.78125 33.40625 
Q 43.953125 29.203125 39.59375 26.953125 
Q 35.25 24.703125 29.984375 24.703125 
Q 19.046875 24.703125 12.671875 31.3125 
Q 6.296875 37.9375 6.296875 49.421875 
Q 6.296875 60.640625 12.9375 67.421875 
Q 19.578125 74.21875 30.609375 74.21875 
Q 43.265625 74.21875 49.921875 64.515625 
Q 56.59375 54.828125 56.59375 36.375 
Q 56.59375 19.140625 48.40625 8.859375 
Q 40.234375 -1.421875 26.421875 -1.421875 
Q 22.703125 -1.421875 18.890625 -0.6875 
Q 15.09375 0.046875 10.984375 1.515625 
z
M 30.609375 32.421875 
Q 37.25 32.421875 41.125 36.953125 
Q 45.015625 41.5 45.015625 49.421875 
Q 45.015625 57.28125 41.125 61.84375 
Q 37.25 66.40625 30.609375 66.40625 
Q 23.96875 66.40625 20.09375 61.84375 
Q 16.21875 57.28125 16.21875 49.421875 
Q 16.21875 41.5 20.09375 36.953125 
Q 23.96875 32.421875 30.609375 32.421875 
z
" id="DejaVuSans-57"/>
      </defs>
      <g transform="translate(667.532045 418.798437)scale(0.1 -0.1)">
       <use xlink:href="#DejaVuSans-50"/>
       <use x="63.623047" xlink:href="#DejaVuSans-48"/>
       <use x="127.246094" xlink:href="#DejaVuSans-50"/>
       <use x="190.869141" xlink:href="#DejaVuSans-51"/>
       <use x="254.492188" xlink:href="#DejaVuSans-45"/>
       <use x="290.576172" xlink:href="#DejaVuSans-48"/>
       <use x="354.199219" xlink:href="#DejaVuSans-57"/>
      </g>
     </g>
    </g>
    <g id="xtick_7">
     <g id="line2d_7">
      <g>
       <use style="stroke:#000000;stroke-width:0.8;" x="813.752248" xlink:href="#m65683160ba" y="404.2"/>
      </g>
     </g>
     <g id="text_7">
      <!-- 2023-11 -->
      <g transform="translate(792.860842 418.798437)scale(0.1 -0.1)">
       <use xlink:href="#DejaVuSans-50"/>
       <use x="63.623047" xlink:href="#DejaVuSans-48"/>
       <use x="127.246094" xlink:href="#DejaVuSans-50"/>
       <use x="190.869141" xlink:href="#DejaVuSans-51"/>
       <use x="254.492188" xlink:href="#DejaVuSans-45"/>
       <use x="290.576172" xlink:href="#DejaVuSans-49"/>
       <use x="354.199219" xlink:href="#DejaVuSans-49"/>
      </g>
     </g>
    </g>
   </g>
   <g id="matplotlib.axis_2">
    <g id="ytick_1">
     <g id="line2d_8">
      <defs>
       <path d="M 0 0 
L -3.5 0 
" id="m184ec14fd3" style="stroke:#000000;stroke-width:0.8;"/>
      </defs>
      <g>
       <use style="stroke:#000000;stroke-width:0.8;" x="30.55" xlink:href="#m184ec14fd3" y="387.136364"/>
      </g>
     </g>
     <g id="text_8">
      <!-- 0 -->
      <g transform="translate(17.1875 390.935582)scale(0.1 -0.1)">
       <use xlink:href="#DejaVuSans-48"/>
      </g>
     </g>
    </g>
    <g id="ytick_2">
     <g id="line2d_9">
      <g>
       <use style="stroke:#000000;stroke-width:0.8;" x="30.55" xlink:href="#m184ec14fd3" y="344.626058"/>
      </g>
     </g>
     <g id="text_9">
      <!-- 10 -->
      <g transform="translate(10.825 348.425277)scale(0.1 -0.1)">
       <use xlink:href="#DejaVuSans-49"/>
       <use x="63.623047" xlink:href="#DejaVuSans-48"/>
      </g>
     </g>
    </g>
    <g id="ytick_3">
     <g id="line2d_10">
      <g>
       <use style="stroke:#000000;stroke-width:0.8;" x="30.55" xlink:href="#m184ec14fd3" y="302.115753"/>
      </g>
     </g>
     <g id="text_10">
      <!-- 20 -->
      <g transform="translate(10.825 305.914971)scale(0.1 -0.1)">
       <use xlink:href="#DejaVuSans-50"/>
       <use x="63.623047" xlink:href="#DejaVuSans-48"/>
      </g>
     </g>
    </g>
    <g id="ytick_4">
     <g id="line2d_11">
      <g>
       <use style="stroke:#000000;stroke-width:0.8;" x="30.55" xlink:href="#m184ec14fd3" y="259.605447"/>
      </g>
     </g>
     <g id="text_11">
      <!-- 30 -->
      <g transform="translate(10.825 263.404666)scale(0.1 -0.1)">
       <use xlink:href="#DejaVuSans-51"/>
       <use x="63.623047" xlink:href="#DejaVuSans-48"/>
      </g>
     </g>
    </g>
    <g id="ytick_5">
     <g id="line2d_12">
      <g>
       <use style="stroke:#000000;stroke-width:0.8;" x="30.55" xlink:href="#m184ec14fd3" y="217.095142"/>
      </g>
     </g>
     <g id="text_12">
      <!-- 40 -->
      <defs>
       <path d="M 37.796875 64.3125 
L 12.890625 25.390625 
L 37.796875 25.390625 
z
M 35.203125 72.90625 
L 47.609375 72.90625 
L 47.609375 25.390625 
L 58.015625 25.390625 
L 58.015625 17.1875 
L 47.609375 17.1875 
L 47.609375 0 
L 37.796875 0 
L 37.796875 17.1875 
L 4.890625 17.1875 
L 4.890625 26.703125 
z
" id="DejaVuSans-52"/>
      </defs>
      <g transform="translate(10.825 220.89436)scale(0.1 -0.1)">
       <use xlink:href="#DejaVuSans-52"/>
       <use x="63.623047" xlink:href="#DejaVuSans-48"/>
      </g>
     </g>
    </g>
    <g id="ytick_6">
     <g id="line2d_13">
      <g>
       <use style="stroke:#000000;stroke-width:0.8;" x="30.55" xlink:href="#m184ec14fd3" y="174.584836"/>
      </g>
     </g>
     <g id="text_13">
      <!-- 50 -->
      <g transform="translate(10.825 178.384055)scale(0.1 -0.1)">
       <use xlink:href="#DejaVuSans-53"/>
       <use x="63.623047" xlink:href="#DejaVuSans-48"/>
      </g>
     </g>
    </g>
    <g id="ytick_7">
     <g id="line2d_14">
      <g>
       <use style="stroke:#000000;stroke-width:0.8;" x="30.55" xlink:href="#m184ec14fd3" y="132.074531"/>
      </g>
     </g>
     <g id="text_14">
      <!-- 60 -->
      <defs>
       <path d="M 33.015625 40.375 
Q 26.375 40.375 22.484375 35.828125 
Q 18.609375 31.296875 18.609375 23.390625 
Q 18.609375 15.53125 22.484375 10.953125 
Q 26.375 6.390625 33.015625 6.390625 
Q 39.65625 6.390625 43.53125 10.953125 
Q 47.40625 15.53125 47.40625 23.390625 
Q 47.40625 31.296875 43.53125 35.828125 
Q 39.65625 40.375 33.015625 40.375 
z
M 52.59375 71.296875 
L 52.59375 62.3125 
Q 48.875 64.0625 45.09375 64.984375 
Q 41.3125 65.921875 37.59375 65.921875 
Q 27.828125 65.921875 22.671875 59.328125 
Q 17.53125 52.734375 16.796875 39.40625 
Q 19.671875 43.65625 24.015625 45.921875 
Q 28.375 48.1875 33.59375 48.1875 
Q 44.578125 48.1875 50.953125 41.515625 
Q 57.328125 34.859375 57.328125 23.390625 
Q 57.328125 12.15625 50.6875 5.359375 
Q 44.046875 -1.421875 33.015625 -1.421875 
Q 20.359375 -1.421875 13.671875 8.265625 
Q 6.984375 17.96875 6.984375 36.375 
Q 6.984375 53.65625 15.1875 63.9375 
Q 23.390625 74.21875 37.203125 74.21875 
Q 40.921875 74.21875 44.703125 73.484375 
Q 48.484375 72.75 52.59375 71.296875 
z
" id="DejaVuSans-54"/>
      </defs>
      <g transform="translate(10.825 135.873749)scale(0.1 -0.1)">
       <use xlink:href="#DejaVuSans-54"/>
       <use x="63.623047" xlink:href="#DejaVuSans-48"/>
      </g>
     </g>
    </g>
    <g id="ytick_8">
     <g id="line2d_15">
      <g>
       <use style="stroke:#000000;stroke-width:0.8;" x="30.55" xlink:href="#m184ec14fd3" y="89.564225"/>
      </g>
     </g>
     <g id="text_15">
      <!-- 70 -->
      <g transform="translate(10.825 93.363444)scale(0.1 -0.1)">
       <use xlink:href="#DejaVuSans-55"/>
       <use x="63.623047" xlink:href="#DejaVuSans-48"/>
      </g>
     </g>
    </g>
    <g id="ytick_9">
     <g id="line2d_16">
      <g>
       <use style="stroke:#000000;stroke-width:0.8;" x="30.55" xlink:href="#m184ec14fd3" y="47.05392"/>
      </g>
     </g>
     <g id="text_16">
      <!-- 80 -->
      <defs>
       <path d="M 31.78125 34.625 
Q 24.75 34.625 20.71875 30.859375 
Q 16.703125 27.09375 16.703125 20.515625 
Q 16.703125 13.921875 20.71875 10.15625 
Q 24.75 6.390625 31.78125 6.390625 
Q 38.8125 6.390625 42.859375 10.171875 
Q 46.921875 13.96875 46.921875 20.515625 
Q 46.921875 27.09375 42.890625 30.859375 
Q 38.875 34.625 31.78125 34.625 
z
M 21.921875 38.8125 
Q 15.578125 40.375 12.03125 44.71875 
Q 8.5 49.078125 8.5 55.328125 
Q 8.5 64.0625 14.71875 69.140625 
Q 20.953125 74.21875 31.78125 74.21875 
Q 42.671875 74.21875 48.875 69.140625 
Q 55.078125 64.0625 55.078125 55.328125 
Q 55.078125 49.078125 51.53125 44.71875 
Q 48 40.375 41.703125 38.8125 
Q 48.828125 37.15625 52.796875 32.3125 
Q 56.78125 27.484375 56.78125 20.515625 
Q 56.78125 9.90625 50.3125 4.234375 
Q 43.84375 -1.421875 31.78125 -1.421875 
Q 19.734375 -1.421875 13.25 4.234375 
Q 6.78125 9.90625 6.78125 20.515625 
Q 6.78125 27.484375 10.78125 32.3125 
Q 14.796875 37.15625 21.921875 38.8125 
z
M 18.3125 54.390625 
Q 18.3125 48.734375 21.84375 45.5625 
Q 25.390625 42.390625 31.78125 42.390625 
Q 38.140625 42.390625 41.71875 45.5625 
Q 45.3125 48.734375 45.3125 54.390625 
Q 45.3125 60.0625 41.71875 63.234375 
Q 38.140625 66.40625 31.78125 66.40625 
Q 25.390625 66.40625 21.84375 63.234375 
Q 18.3125 60.0625 18.3125 54.390625 
z
" id="DejaVuSans-56"/>
      </defs>
      <g transform="translate(10.825 50.853138)scale(0.1 -0.1)">
       <use xlink:href="#DejaVuSans-56"/>
       <use x="63.623047" xlink:href="#DejaVuSans-48"/>
      </g>
     </g>
    </g>
   </g>
   <g id="patch_3">
    <path d="M 30.55 404.2 
L 30.55 28.8 
" style="fill:none;stroke:#000000;stroke-linecap:square;stroke-linejoin:miter;stroke-width:0.8;"/>
   </g>
   <g id="patch_4">
    <path d="M 853.2 404.2 
L 853.2 28.8 
" style="fill:none;stroke:#000000;stroke-linecap:square;stroke-linejoin:miter;stroke-width:0.8;"/>
   </g>
   <g id="patch_5">
    <path d="M 30.55 404.2 
L 853.2 404.2 
" style="fill:none;stroke:#000000;stroke-linecap:square;stroke-linejoin:miter;stroke-width:0.8;"/>
   </g>
   <g id="patch_6">
    <path d="M 30.55 28.8 
L 853.2 28.8 
" style="fill:none;stroke:#000000;stroke-linecap:square;stroke-linejoin:miter;stroke-width:0.8;"/>
   </g>
   <g id="text_17">
    <!-- FTNT - 25.39% -->
    <defs>
     <path d="M 9.1875 72.90625 
L 59.90625 72.90625 
L 59.90625 58.6875 
L 27.984375 58.6875 
L 27.984375 45.125 
L 58.015625 45.125 
L 58.015625 30.90625 
L 27.984375 30.90625 
L 27.984375 0 
L 9.1875 0 
z
" id="DejaVuSans-Bold-70"/>
     <path d="M 0.484375 72.90625 
L 67.671875 72.90625 
L 67.671875 58.6875 
L 43.5 58.6875 
L 43.5 0 
L 24.703125 0 
L 24.703125 58.6875 
L 0.484375 58.6875 
z
" id="DejaVuSans-Bold-84"/>
     <path d="M 9.1875 72.90625 
L 30.171875 72.90625 
L 56.6875 22.90625 
L 56.6875 72.90625 
L 74.515625 72.90625 
L 74.515625 0 
L 53.515625 0 
L 27 50 
L 27 0 
L 9.1875 0 
z
" id="DejaVuSans-Bold-78"/>
     <path id="DejaVuSans-Bold-32"/>
     <path d="M 5.421875 35.890625 
L 36.078125 35.890625 
L 36.078125 21.6875 
L 5.421875 21.6875 
z
" id="DejaVuSans-Bold-45"/>
     <path d="M 28.8125 13.8125 
L 60.890625 13.8125 
L 60.890625 0 
L 7.90625 0 
L 7.90625 13.8125 
L 34.515625 37.3125 
Q 38.09375 40.53125 39.796875 43.609375 
Q 41.5 46.6875 41.5 50 
Q 41.5 55.125 38.0625 58.25 
Q 34.625 61.375 28.90625 61.375 
Q 24.515625 61.375 19.28125 59.5 
Q 14.0625 57.625 8.109375 53.90625 
L 8.109375 69.921875 
Q 14.453125 72.015625 20.65625 73.109375 
Q 26.859375 74.21875 32.8125 74.21875 
Q 45.90625 74.21875 53.15625 68.453125 
Q 60.40625 62.703125 60.40625 52.390625 
Q 60.40625 46.4375 57.328125 41.28125 
Q 54.25 36.140625 44.390625 27.484375 
z
" id="DejaVuSans-Bold-50"/>
     <path d="M 10.59375 72.90625 
L 57.328125 72.90625 
L 57.328125 59.078125 
L 25.59375 59.078125 
L 25.59375 47.796875 
Q 27.734375 48.390625 29.90625 48.703125 
Q 32.078125 49.03125 34.421875 49.03125 
Q 47.75 49.03125 55.171875 42.359375 
Q 62.59375 35.6875 62.59375 23.78125 
Q 62.59375 11.96875 54.515625 5.265625 
Q 46.4375 -1.421875 32.078125 -1.421875 
Q 25.875 -1.421875 19.796875 -0.21875 
Q 13.71875 0.984375 7.71875 3.421875 
L 7.71875 18.21875 
Q 13.671875 14.796875 19.015625 13.078125 
Q 24.359375 11.375 29.109375 11.375 
Q 35.9375 11.375 39.859375 14.71875 
Q 43.796875 18.0625 43.796875 23.78125 
Q 43.796875 29.546875 39.859375 32.859375 
Q 35.9375 36.1875 29.109375 36.1875 
Q 25.046875 36.1875 20.453125 35.125 
Q 15.875 34.078125 10.59375 31.890625 
z
" id="DejaVuSans-Bold-53"/>
     <path d="M 10.203125 18.890625 
L 27.78125 18.890625 
L 27.78125 0 
L 10.203125 0 
z
" id="DejaVuSans-Bold-46"/>
     <path d="M 46.578125 39.3125 
Q 53.953125 37.40625 57.78125 32.6875 
Q 61.625 27.984375 61.625 20.703125 
Q 61.625 9.859375 53.3125 4.21875 
Q 45.015625 -1.421875 29.109375 -1.421875 
Q 23.484375 -1.421875 17.84375 -0.515625 
Q 12.203125 0.390625 6.6875 2.203125 
L 6.6875 16.703125 
Q 11.96875 14.0625 17.15625 12.71875 
Q 22.359375 11.375 27.390625 11.375 
Q 34.859375 11.375 38.84375 13.953125 
Q 42.828125 16.546875 42.828125 21.390625 
Q 42.828125 26.375 38.75 28.9375 
Q 34.671875 31.5 26.703125 31.5 
L 19.1875 31.5 
L 19.1875 43.609375 
L 27.09375 43.609375 
Q 34.1875 43.609375 37.640625 45.828125 
Q 41.109375 48.046875 41.109375 52.59375 
Q 41.109375 56.78125 37.734375 59.078125 
Q 34.375 61.375 28.21875 61.375 
Q 23.6875 61.375 19.046875 60.34375 
Q 14.40625 59.328125 9.8125 57.328125 
L 9.8125 71.09375 
Q 15.375 72.65625 20.84375 73.4375 
Q 26.3125 74.21875 31.59375 74.21875 
Q 45.796875 74.21875 52.84375 69.546875 
Q 59.90625 64.890625 59.90625 55.515625 
Q 59.90625 49.125 56.53125 45.046875 
Q 53.171875 40.96875 46.578125 39.3125 
z
" id="DejaVuSans-Bold-51"/>
     <path d="M 10.015625 1.609375 
L 10.015625 15.09375 
Q 14.5 12.984375 18.59375 11.9375 
Q 22.703125 10.890625 26.703125 10.890625 
Q 35.109375 10.890625 39.796875 15.546875 
Q 44.484375 20.21875 45.3125 29.390625 
Q 42 26.953125 38.234375 25.734375 
Q 34.46875 24.515625 30.078125 24.515625 
Q 18.890625 24.515625 12.03125 31.03125 
Q 5.171875 37.546875 5.171875 48.1875 
Q 5.171875 59.96875 12.8125 67.046875 
Q 20.453125 74.125 33.296875 74.125 
Q 47.5625 74.125 55.375 64.5 
Q 63.1875 54.890625 63.1875 37.3125 
Q 63.1875 19.234375 54.046875 8.90625 
Q 44.921875 -1.421875 29 -1.421875 
Q 23.875 -1.421875 19.1875 -0.65625 
Q 14.5 0.09375 10.015625 1.609375 
z
M 33.203125 36.71875 
Q 38.140625 36.71875 40.625 39.90625 
Q 43.109375 43.109375 43.109375 49.515625 
Q 43.109375 55.859375 40.625 59.078125 
Q 38.140625 62.3125 33.203125 62.3125 
Q 28.265625 62.3125 25.78125 59.078125 
Q 23.296875 55.859375 23.296875 49.515625 
Q 23.296875 43.109375 25.78125 39.90625 
Q 28.265625 36.71875 33.203125 36.71875 
z
" id="DejaVuSans-Bold-57"/>
     <path d="M 77.484375 30.078125 
Q 74.03125 30.078125 72.125 27.078125 
Q 70.21875 24.078125 70.21875 18.5 
Q 70.21875 12.890625 72.09375 9.890625 
Q 73.96875 6.890625 77.484375 6.890625 
Q 81 6.890625 82.859375 9.890625 
Q 84.71875 12.890625 84.71875 18.5 
Q 84.71875 24.078125 82.828125 27.078125 
Q 80.953125 30.078125 77.484375 30.078125 
z
M 77.484375 38.28125 
Q 86.578125 38.28125 91.796875 33 
Q 97.015625 27.734375 97.015625 18.5 
Q 97.015625 9.28125 91.796875 3.921875 
Q 86.578125 -1.421875 77.484375 -1.421875 
Q 68.40625 -1.421875 63.15625 3.921875 
Q 57.90625 9.28125 57.90625 18.5 
Q 57.90625 27.6875 63.15625 32.984375 
Q 68.40625 38.28125 77.484375 38.28125 
z
M 32.71875 -1.421875 
L 21.921875 -1.421875 
L 67.484375 74.21875 
L 78.328125 74.21875 
z
M 22.703125 74.21875 
Q 31.78125 74.21875 36.984375 68.921875 
Q 42.1875 63.625 42.1875 54.390625 
Q 42.1875 45.171875 36.984375 39.84375 
Q 31.78125 34.515625 22.703125 34.515625 
Q 13.625 34.515625 8.421875 39.84375 
Q 3.21875 45.171875 3.21875 54.390625 
Q 3.21875 63.625 8.421875 68.921875 
Q 13.625 74.21875 22.703125 74.21875 
z
M 22.703125 66.015625 
Q 19.1875 66.015625 17.28125 62.984375 
Q 15.375 59.96875 15.375 54.390625 
Q 15.375 48.78125 17.28125 45.71875 
Q 19.1875 42.671875 22.703125 42.671875 
Q 26.21875 42.671875 28.09375 45.71875 
Q 29.984375 48.78125 29.984375 54.390625 
Q 29.984375 59.96875 28.078125 62.984375 
Q 26.171875 66.015625 22.703125 66.015625 
z
" id="DejaVuSans-Bold-37"/>
    </defs>
    <g transform="translate(30.55 22.8)scale(0.16 -0.16)">
     <use xlink:href="#DejaVuSans-Bold-70"/>
     <use x="68.310547" xlink:href="#DejaVuSans-Bold-84"/>
     <use x="136.523438" xlink:href="#DejaVuSans-Bold-78"/>
     <use x="220.214844" xlink:href="#DejaVuSans-Bold-84"/>
     <use x="288.427734" xlink:href="#DejaVuSans-Bold-32"/>
     <use x="323.242188" xlink:href="#DejaVuSans-Bold-45"/>
     <use x="364.746094" xlink:href="#DejaVuSans-Bold-32"/>
     <use x="399.560547" xlink:href="#DejaVuSans-Bold-50"/>
     <use x="469.140625" xlink:href="#DejaVuSans-Bold-53"/>
     <use x="538.720703" xlink:href="#DejaVuSans-Bold-46"/>
     <use x="576.708984" xlink:href="#DejaVuSans-Bold-51"/>
     <use x="646.289062" xlink:href="#DejaVuSans-Bold-57"/>
     <use x="715.869141" xlink:href="#DejaVuSans-Bold-37"/>
    </g>
   </g>
  </g>
 </g>
 <defs>
  <clipPath id="pd5c6cd7c5e">
   <rect height="375.4" width="822.65" x="30.55" y="28.8"/>
  </clipPath>
 </defs>
</svg>
