<?xml version="1.0" encoding="utf-8" standalone="no"?>
<!DOCTYPE svg PUBLIC "-//W3C//DTD SVG 1.1//EN"
  "http://www.w3.org/Graphics/SVG/1.1/DTD/svg11.dtd">
<!-- Created with matplotlib (https://matplotlib.org/) -->
<svg height="432pt" version="1.1" viewBox="0 0 576 432" width="576pt" xmlns="http://www.w3.org/2000/svg" xmlns:xlink="http://www.w3.org/1999/xlink">
 <defs>
  <style type="text/css">
*{stroke-linecap:butt;stroke-linejoin:round;}
  </style>
 </defs>
 <g id="figure_1">
  <g id="patch_1">
   <path d="M 0 432 
L 576 432 
L 576 0 
L 0 0 
z
" style="fill:#ffffff;"/>
  </g>
  <g id="axes_1">
   <g id="patch_2">
    <path d="M 30.55 404.2 
L 565.2 404.2 
L 565.2 31.8 
L 30.55 31.8 
z
" style="fill:#ffffff;"/>
   </g>
   <g id="PolyCollection_1">
    <defs>
     <path d="M 54.852273 -44.727273 
L 54.852273 -238.416773 
L 56.187562 -243.350724 
L 60.193432 -246.555697 
L 61.528721 -258.110428 
L 62.864011 -255.074157 
L 64.199301 -274.093084 
L 65.53459 -281.430773 
L 69.54046 -278.858365 
L 70.875749 -281.725966 
L 72.211039 -275.358199 
L 73.546329 -273.03882 
L 74.881618 -264.646882 
L 78.887488 -265.363774 
L 80.222777 -265.195088 
L 81.558067 -269.707339 
L 84.228646 -267.85184 
L 88.234515 -264.351689 
L 89.569805 -262.285324 
L 90.905095 -268.906104 
L 92.240385 -278.267979 
L 93.575674 -270.803784 
L 97.581543 -262.62268 
L 98.916833 -259.164693 
L 100.252123 -262.327487 
L 101.587413 -267.85184 
L 102.922702 -264.562539 
L 106.928571 -270.93029 
L 108.263861 -275.442542 
L 109.599151 -273.587042 
L 110.934441 -264.731209 
L 112.26973 -263.676944 
L 116.275599 -255.495857 
L 117.610889 -257.562222 
L 118.946179 -255.622363 
L 120.281469 -251.995706 
L 121.616758 -250.224534 
L 126.957917 -249.465462 
L 128.293207 -246.555697 
L 129.628497 -252.24872 
L 130.963786 -250.899262 
L 136.304945 -249.338955 
L 137.640235 -248.411197 
L 138.975524 -244.826704 
L 140.310814 -250.055847 
L 144.316683 -253.092135 
L 145.651973 -248.91724 
L 146.987263 -250.519726 
L 148.322552 -248.832913 
L 149.657842 -250.814919 
L 154.999001 -256.001899 
L 156.334291 -248.748569 
L 157.66958 -248.91724 
L 159.00487 -252.501749 
L 163.010739 -257.730893 
L 164.346029 -260.176794 
L 165.681319 -263.002216 
L 167.016608 -269.116954 
L 168.351898 -266.966261 
L 172.357767 -260.008108 
L 173.693057 -265.448117 
L 175.028347 -268.610911 
L 176.363636 -271.815869 
L 177.698926 -268.231375 
L 181.704795 -263.972153 
L 183.040085 -271.520676 
L 184.375375 -296.232642 
L 185.710664 -288.557596 
L 187.045954 -296.106135 
L 191.051823 -298.38335 
L 192.387113 -302.769079 
L 193.722403 -309.600725 
L 195.057692 -303.612494 
L 196.392982 -300.4497 
L 201.734141 -296.527834 
L 203.069431 -298.636364 
L 204.40472 -300.196687 
L 205.74001 -292.943341 
L 209.745879 -296.148298 
L 211.081169 -295.389227 
L 212.416459 -291.172168 
L 213.751748 -296.232642 
L 215.087038 -301.293115 
L 219.092907 -303.275138 
L 220.428197 -299.311092 
L 221.763487 -305.299324 
L 223.098776 -297.539935 
L 224.434066 -292.521626 
L 228.439935 -294.672334 
L 229.775225 -301.503965 
L 231.110514 -299.395435 
L 232.445804 -305.67886 
L 233.781094 -302.895602 
L 237.786963 -304.245059 
L 239.122253 -308.124745 
L 240.457542 -302.853422 
L 241.792832 -311.456225 
L 243.128122 -310.359797 
L 247.133991 -314.534676 
L 248.469281 -315.757611 
L 249.80457 -318.034826 
L 251.13986 -322.251885 
L 252.47515 -324.99298 
L 256.481019 -324.360414 
L 257.816309 -322.92663 
L 259.151598 -319.468643 
L 260.486888 -321.028934 
L 265.828047 -326.890675 
L 267.163337 -327.270195 
L 268.498626 -328.071446 
L 269.833916 -333.131904 
L 271.169206 -331.782446 
L 275.175075 -330.264303 
L 276.510365 -330.728182 
L 277.845654 -328.619652 
L 279.180944 -326.848496 
L 280.516234 -326.342437 
L 284.522103 -324.107401 
L 285.857393 -311.118853 
L 287.192682 -312.088791 
L 288.527972 -310.65499 
L 289.863262 -310.612811 
L 293.869131 -309.600725 
L 295.204421 -303.823344 
L 296.53971 -299.817151 
L 297.875 -302.726916 
L 299.21029 -317.107068 
L 303.216159 -323.390509 
L 304.551449 -324.739966 
L 305.886738 -327.312375 
L 307.222028 -329.378724 
L 308.557318 -330.517316 
L 312.563187 -333.848796 
L 313.898477 -332.794531 
L 315.233766 -333.30059 
L 316.569056 -332.077639 
L 317.904346 -338.361047 
L 321.910215 -337.897168 
L 323.245504 -331.866773 
L 324.580794 -325.541186 
L 325.916084 -327.987087 
L 327.251374 -330.517316 
L 332.592532 -333.764469 
L 333.927822 -332.878891 
L 335.263112 -334.186168 
L 336.598402 -332.03546 
L 340.604271 -345.277021 
L 341.93956 -337.981528 
L 343.27485 -327.523208 
L 344.61014 -335.704312 
L 345.94543 -331.529433 
L 349.951299 -339.246626 
L 351.286588 -341.98772 
L 352.621878 -346.162631 
L 353.957168 -355.060595 
L 355.292458 -351.644788 
L 360.633616 -346.921703 
L 361.968906 -344.602308 
L 363.304196 -347.765102 
L 364.639486 -346.626478 
L 368.645355 -344.391442 
L 369.980644 -355.35582 
L 371.315934 -358.181242 
L 372.651224 -361.386183 
L 373.986513 -363.494712 
L 377.992383 -359.572879 
L 380.662962 -358.096883 
L 381.998252 -359.530699 
L 383.333541 -359.657206 
L 387.339411 -373.067453 
L 388.6747 -375.007296 
L 390.00999 -368.260009 
L 391.34528 -374.712104 
L 392.680569 -377.537525 
L 396.686439 -383.272727 
L 398.021728 -383.104041 
L 399.357018 -376.56762 
L 400.692308 -372.392709 
L 402.027597 -374.332584 
L 406.033467 -370.579372 
L 407.368756 -375.091623 
L 408.704046 -370.537225 
L 410.039336 -367.669624 
L 411.374625 -368.597382 
L 415.380495 -372.477068 
L 416.715784 -373.784346 
L 418.051074 -358.139062 
L 419.386364 -364.211637 
L 420.721653 -284.129688 
L 424.727522 -288.051554 
L 426.062812 -291.72039 
L 427.398102 -296.823027 
L 428.733392 -300.112344 
L 430.068681 -296.401328 
L 434.07455 -296.316985 
L 435.40984 -294.250619 
L 436.74513 -290.07574 
L 438.08042 -286.828603 
L 439.415709 -285.774338 
L 443.421578 -290.961318 
L 444.756868 -290.666126 
L 446.092158 -294.334962 
L 447.427448 -289.949233 
L 448.762737 -292.732491 
L 452.768606 -292.268612 
L 454.103896 -300.407537 
L 455.439186 -302.895602 
L 456.774476 -298.636364 
L 458.109765 -301.419622 
L 463.450924 -305.805366 
L 464.786214 -307.154824 
L 466.121503 -311.118853 
L 467.456793 -314.914212 
L 471.462662 -319.131271 
L 472.797952 -312.51049 
L 474.133242 -308.799474 
L 475.468531 -310.82366 
L 476.803821 -302.052187 
L 480.80969 -299.648465 
L 482.14498 -299.606285 
L 483.48027 -298.38335 
L 484.815559 -292.605969 
L 486.150849 -290.328769 
L 490.156718 -289.780547 
L 491.492008 -286.912946 
L 492.827298 -289.907054 
L 494.162587 -291.846897 
L 495.497877 -292.184269 
L 499.503746 -291.97342 
L 500.839036 -287.672018 
L 502.174326 -290.413096 
L 503.509615 -289.401011 
L 504.844905 -297.455592 
L 508.850774 -295.684419 
L 510.186064 -295.220557 
L 511.521354 -293.40722 
L 512.856643 -289.316668 
L 514.191933 -288.304567 
L 518.197802 -294.124112 
L 519.533092 -292.057763 
L 520.868382 -287.925031 
L 522.203671 -288.346747 
L 523.538961 -282.400695 
L 527.54483 -281.30425 
L 528.88012 -287.376825 
L 530.21541 -280.629522 
L 531.550699 -279.70178 
L 532.885989 -281.978979 
L 536.891858 -282.232008 
L 538.227148 -285.816502 
L 539.562438 -286.406904 
L 540.897727 -287.587675 
L 540.897727 -44.727273 
L 540.897727 -44.727273 
L 539.562438 -44.727273 
L 538.227148 -44.727273 
L 536.891858 -44.727273 
L 532.885989 -44.727273 
L 531.550699 -44.727273 
L 530.21541 -44.727273 
L 528.88012 -44.727273 
L 527.54483 -44.727273 
L 523.538961 -44.727273 
L 522.203671 -44.727273 
L 520.868382 -44.727273 
L 519.533092 -44.727273 
L 518.197802 -44.727273 
L 514.191933 -44.727273 
L 512.856643 -44.727273 
L 511.521354 -44.727273 
L 510.186064 -44.727273 
L 508.850774 -44.727273 
L 504.844905 -44.727273 
L 503.509615 -44.727273 
L 502.174326 -44.727273 
L 500.839036 -44.727273 
L 499.503746 -44.727273 
L 495.497877 -44.727273 
L 494.162587 -44.727273 
L 492.827298 -44.727273 
L 491.492008 -44.727273 
L 490.156718 -44.727273 
L 486.150849 -44.727273 
L 484.815559 -44.727273 
L 483.48027 -44.727273 
L 482.14498 -44.727273 
L 480.80969 -44.727273 
L 476.803821 -44.727273 
L 475.468531 -44.727273 
L 474.133242 -44.727273 
L 472.797952 -44.727273 
L 471.462662 -44.727273 
L 467.456793 -44.727273 
L 466.121503 -44.727273 
L 464.786214 -44.727273 
L 463.450924 -44.727273 
L 458.109765 -44.727273 
L 456.774476 -44.727273 
L 455.439186 -44.727273 
L 454.103896 -44.727273 
L 452.768606 -44.727273 
L 448.762737 -44.727273 
L 447.427448 -44.727273 
L 446.092158 -44.727273 
L 444.756868 -44.727273 
L 443.421578 -44.727273 
L 439.415709 -44.727273 
L 438.08042 -44.727273 
L 436.74513 -44.727273 
L 435.40984 -44.727273 
L 434.07455 -44.727273 
L 430.068681 -44.727273 
L 428.733392 -44.727273 
L 427.398102 -44.727273 
L 426.062812 -44.727273 
L 424.727522 -44.727273 
L 420.721653 -44.727273 
L 419.386364 -44.727273 
L 418.051074 -44.727273 
L 416.715784 -44.727273 
L 415.380495 -44.727273 
L 411.374625 -44.727273 
L 410.039336 -44.727273 
L 408.704046 -44.727273 
L 407.368756 -44.727273 
L 406.033467 -44.727273 
L 402.027597 -44.727273 
L 400.692308 -44.727273 
L 399.357018 -44.727273 
L 398.021728 -44.727273 
L 396.686439 -44.727273 
L 392.680569 -44.727273 
L 391.34528 -44.727273 
L 390.00999 -44.727273 
L 388.6747 -44.727273 
L 387.339411 -44.727273 
L 383.333541 -44.727273 
L 381.998252 -44.727273 
L 380.662962 -44.727273 
L 377.992383 -44.727273 
L 373.986513 -44.727273 
L 372.651224 -44.727273 
L 371.315934 -44.727273 
L 369.980644 -44.727273 
L 368.645355 -44.727273 
L 364.639486 -44.727273 
L 363.304196 -44.727273 
L 361.968906 -44.727273 
L 360.633616 -44.727273 
L 355.292458 -44.727273 
L 353.957168 -44.727273 
L 352.621878 -44.727273 
L 351.286588 -44.727273 
L 349.951299 -44.727273 
L 345.94543 -44.727273 
L 344.61014 -44.727273 
L 343.27485 -44.727273 
L 341.93956 -44.727273 
L 340.604271 -44.727273 
L 336.598402 -44.727273 
L 335.263112 -44.727273 
L 333.927822 -44.727273 
L 332.592532 -44.727273 
L 327.251374 -44.727273 
L 325.916084 -44.727273 
L 324.580794 -44.727273 
L 323.245504 -44.727273 
L 321.910215 -44.727273 
L 317.904346 -44.727273 
L 316.569056 -44.727273 
L 315.233766 -44.727273 
L 313.898477 -44.727273 
L 312.563187 -44.727273 
L 308.557318 -44.727273 
L 307.222028 -44.727273 
L 305.886738 -44.727273 
L 304.551449 -44.727273 
L 303.216159 -44.727273 
L 299.21029 -44.727273 
L 297.875 -44.727273 
L 296.53971 -44.727273 
L 295.204421 -44.727273 
L 293.869131 -44.727273 
L 289.863262 -44.727273 
L 288.527972 -44.727273 
L 287.192682 -44.727273 
L 285.857393 -44.727273 
L 284.522103 -44.727273 
L 280.516234 -44.727273 
L 279.180944 -44.727273 
L 277.845654 -44.727273 
L 276.510365 -44.727273 
L 275.175075 -44.727273 
L 271.169206 -44.727273 
L 269.833916 -44.727273 
L 268.498626 -44.727273 
L 267.163337 -44.727273 
L 265.828047 -44.727273 
L 260.486888 -44.727273 
L 259.151598 -44.727273 
L 257.816309 -44.727273 
L 256.481019 -44.727273 
L 252.47515 -44.727273 
L 251.13986 -44.727273 
L 249.80457 -44.727273 
L 248.469281 -44.727273 
L 247.133991 -44.727273 
L 243.128122 -44.727273 
L 241.792832 -44.727273 
L 240.457542 -44.727273 
L 239.122253 -44.727273 
L 237.786963 -44.727273 
L 233.781094 -44.727273 
L 232.445804 -44.727273 
L 231.110514 -44.727273 
L 229.775225 -44.727273 
L 228.439935 -44.727273 
L 224.434066 -44.727273 
L 223.098776 -44.727273 
L 221.763487 -44.727273 
L 220.428197 -44.727273 
L 219.092907 -44.727273 
L 215.087038 -44.727273 
L 213.751748 -44.727273 
L 212.416459 -44.727273 
L 211.081169 -44.727273 
L 209.745879 -44.727273 
L 205.74001 -44.727273 
L 204.40472 -44.727273 
L 203.069431 -44.727273 
L 201.734141 -44.727273 
L 196.392982 -44.727273 
L 195.057692 -44.727273 
L 193.722403 -44.727273 
L 192.387113 -44.727273 
L 191.051823 -44.727273 
L 187.045954 -44.727273 
L 185.710664 -44.727273 
L 184.375375 -44.727273 
L 183.040085 -44.727273 
L 181.704795 -44.727273 
L 177.698926 -44.727273 
L 176.363636 -44.727273 
L 175.028347 -44.727273 
L 173.693057 -44.727273 
L 172.357767 -44.727273 
L 168.351898 -44.727273 
L 167.016608 -44.727273 
L 165.681319 -44.727273 
L 164.346029 -44.727273 
L 163.010739 -44.727273 
L 159.00487 -44.727273 
L 157.66958 -44.727273 
L 156.334291 -44.727273 
L 154.999001 -44.727273 
L 149.657842 -44.727273 
L 148.322552 -44.727273 
L 146.987263 -44.727273 
L 145.651973 -44.727273 
L 144.316683 -44.727273 
L 140.310814 -44.727273 
L 138.975524 -44.727273 
L 137.640235 -44.727273 
L 136.304945 -44.727273 
L 130.963786 -44.727273 
L 129.628497 -44.727273 
L 128.293207 -44.727273 
L 126.957917 -44.727273 
L 121.616758 -44.727273 
L 120.281469 -44.727273 
L 118.946179 -44.727273 
L 117.610889 -44.727273 
L 116.275599 -44.727273 
L 112.26973 -44.727273 
L 110.934441 -44.727273 
L 109.599151 -44.727273 
L 108.263861 -44.727273 
L 106.928571 -44.727273 
L 102.922702 -44.727273 
L 101.587413 -44.727273 
L 100.252123 -44.727273 
L 98.916833 -44.727273 
L 97.581543 -44.727273 
L 93.575674 -44.727273 
L 92.240385 -44.727273 
L 90.905095 -44.727273 
L 89.569805 -44.727273 
L 88.234515 -44.727273 
L 84.228646 -44.727273 
L 81.558067 -44.727273 
L 80.222777 -44.727273 
L 78.887488 -44.727273 
L 74.881618 -44.727273 
L 73.546329 -44.727273 
L 72.211039 -44.727273 
L 70.875749 -44.727273 
L 69.54046 -44.727273 
L 65.53459 -44.727273 
L 64.199301 -44.727273 
L 62.864011 -44.727273 
L 61.528721 -44.727273 
L 60.193432 -44.727273 
L 56.187562 -44.727273 
L 54.852273 -44.727273 
z
" id="m6c127a7741" style="stroke:#f5f6f8;"/>
    </defs>
    <g clip-path="url(#p0d3b16edd8)">
     <use style="fill:#f5f6f8;stroke:#f5f6f8;" x="0" xlink:href="#m6c127a7741" y="432"/>
    </g>
   </g>
   <g id="matplotlib.axis_1">
    <g id="xtick_1">
     <g id="line2d_1">
      <defs>
       <path d="M 0 0 
L 0 3.5 
" id="mc521529dc6" style="stroke:#000000;stroke-width:0.8;"/>
      </defs>
      <g>
       <use style="stroke:#000000;stroke-width:0.8;" x="52.181693" xlink:href="#mc521529dc6" y="404.2"/>
      </g>
     </g>
     <g id="text_1">
      <!-- 2022-11 -->
      <defs>
       <path d="M 19.1875 8.296875 
L 53.609375 8.296875 
L 53.609375 0 
L 7.328125 0 
L 7.328125 8.296875 
Q 12.9375 14.109375 22.625 23.890625 
Q 32.328125 33.6875 34.8125 36.53125 
Q 39.546875 41.84375 41.421875 45.53125 
Q 43.3125 49.21875 43.3125 52.78125 
Q 43.3125 58.59375 39.234375 62.25 
Q 35.15625 65.921875 28.609375 65.921875 
Q 23.96875 65.921875 18.8125 64.3125 
Q 13.671875 62.703125 7.8125 59.421875 
L 7.8125 69.390625 
Q 13.765625 71.78125 18.9375 73 
Q 24.125 74.21875 28.421875 74.21875 
Q 39.75 74.21875 46.484375 68.546875 
Q 53.21875 62.890625 53.21875 53.421875 
Q 53.21875 48.921875 51.53125 44.890625 
Q 49.859375 40.875 45.40625 35.40625 
Q 44.1875 33.984375 37.640625 27.21875 
Q 31.109375 20.453125 19.1875 8.296875 
z
" id="DejaVuSans-50"/>
       <path d="M 31.78125 66.40625 
Q 24.171875 66.40625 20.328125 58.90625 
Q 16.5 51.421875 16.5 36.375 
Q 16.5 21.390625 20.328125 13.890625 
Q 24.171875 6.390625 31.78125 6.390625 
Q 39.453125 6.390625 43.28125 13.890625 
Q 47.125 21.390625 47.125 36.375 
Q 47.125 51.421875 43.28125 58.90625 
Q 39.453125 66.40625 31.78125 66.40625 
z
M 31.78125 74.21875 
Q 44.046875 74.21875 50.515625 64.515625 
Q 56.984375 54.828125 56.984375 36.375 
Q 56.984375 17.96875 50.515625 8.265625 
Q 44.046875 -1.421875 31.78125 -1.421875 
Q 19.53125 -1.421875 13.0625 8.265625 
Q 6.59375 17.96875 6.59375 36.375 
Q 6.59375 54.828125 13.0625 64.515625 
Q 19.53125 74.21875 31.78125 74.21875 
z
" id="DejaVuSans-48"/>
       <path d="M 4.890625 31.390625 
L 31.203125 31.390625 
L 31.203125 23.390625 
L 4.890625 23.390625 
z
" id="DejaVuSans-45"/>
       <path d="M 12.40625 8.296875 
L 28.515625 8.296875 
L 28.515625 63.921875 
L 10.984375 60.40625 
L 10.984375 69.390625 
L 28.421875 72.90625 
L 38.28125 72.90625 
L 38.28125 8.296875 
L 54.390625 8.296875 
L 54.390625 0 
L 12.40625 0 
z
" id="DejaVuSans-49"/>
      </defs>
      <g transform="translate(31.290287 418.798437)scale(0.1 -0.1)">
       <use xlink:href="#DejaVuSans-50"/>
       <use x="63.623047" xlink:href="#DejaVuSans-48"/>
       <use x="127.246094" xlink:href="#DejaVuSans-50"/>
       <use x="190.869141" xlink:href="#DejaVuSans-50"/>
       <use x="254.492188" xlink:href="#DejaVuSans-45"/>
       <use x="290.576172" xlink:href="#DejaVuSans-49"/>
       <use x="354.199219" xlink:href="#DejaVuSans-49"/>
      </g>
     </g>
    </g>
    <g id="xtick_2">
     <g id="line2d_2">
      <g>
       <use style="stroke:#000000;stroke-width:0.8;" x="133.634366" xlink:href="#mc521529dc6" y="404.2"/>
      </g>
     </g>
     <g id="text_2">
      <!-- 2023-01 -->
      <defs>
       <path d="M 40.578125 39.3125 
Q 47.65625 37.796875 51.625 33 
Q 55.609375 28.21875 55.609375 21.1875 
Q 55.609375 10.40625 48.1875 4.484375 
Q 40.765625 -1.421875 27.09375 -1.421875 
Q 22.515625 -1.421875 17.65625 -0.515625 
Q 12.796875 0.390625 7.625 2.203125 
L 7.625 11.71875 
Q 11.71875 9.328125 16.59375 8.109375 
Q 21.484375 6.890625 26.8125 6.890625 
Q 36.078125 6.890625 40.9375 10.546875 
Q 45.796875 14.203125 45.796875 21.1875 
Q 45.796875 27.640625 41.28125 31.265625 
Q 36.765625 34.90625 28.71875 34.90625 
L 20.21875 34.90625 
L 20.21875 43.015625 
L 29.109375 43.015625 
Q 36.375 43.015625 40.234375 45.921875 
Q 44.09375 48.828125 44.09375 54.296875 
Q 44.09375 59.90625 40.109375 62.90625 
Q 36.140625 65.921875 28.71875 65.921875 
Q 24.65625 65.921875 20.015625 65.03125 
Q 15.375 64.15625 9.8125 62.3125 
L 9.8125 71.09375 
Q 15.4375 72.65625 20.34375 73.4375 
Q 25.25 74.21875 29.59375 74.21875 
Q 40.828125 74.21875 47.359375 69.109375 
Q 53.90625 64.015625 53.90625 55.328125 
Q 53.90625 49.265625 50.4375 45.09375 
Q 46.96875 40.921875 40.578125 39.3125 
z
" id="DejaVuSans-51"/>
      </defs>
      <g transform="translate(112.742959 418.798437)scale(0.1 -0.1)">
       <use xlink:href="#DejaVuSans-50"/>
       <use x="63.623047" xlink:href="#DejaVuSans-48"/>
       <use x="127.246094" xlink:href="#DejaVuSans-50"/>
       <use x="190.869141" xlink:href="#DejaVuSans-51"/>
       <use x="254.492188" xlink:href="#DejaVuSans-45"/>
       <use x="290.576172" xlink:href="#DejaVuSans-48"/>
       <use x="354.199219" xlink:href="#DejaVuSans-49"/>
      </g>
     </g>
    </g>
    <g id="xtick_3">
     <g id="line2d_3">
      <g>
       <use style="stroke:#000000;stroke-width:0.8;" x="212.416459" xlink:href="#mc521529dc6" y="404.2"/>
      </g>
     </g>
     <g id="text_3">
      <!-- 2023-03 -->
      <g transform="translate(191.525052 418.798437)scale(0.1 -0.1)">
       <use xlink:href="#DejaVuSans-50"/>
       <use x="63.623047" xlink:href="#DejaVuSans-48"/>
       <use x="127.246094" xlink:href="#DejaVuSans-50"/>
       <use x="190.869141" xlink:href="#DejaVuSans-51"/>
       <use x="254.492188" xlink:href="#DejaVuSans-45"/>
       <use x="290.576172" xlink:href="#DejaVuSans-48"/>
       <use x="354.199219" xlink:href="#DejaVuSans-51"/>
      </g>
     </g>
    </g>
    <g id="xtick_4">
     <g id="line2d_4">
      <g>
       <use style="stroke:#000000;stroke-width:0.8;" x="293.869131" xlink:href="#mc521529dc6" y="404.2"/>
      </g>
     </g>
     <g id="text_4">
      <!-- 2023-05 -->
      <defs>
       <path d="M 10.796875 72.90625 
L 49.515625 72.90625 
L 49.515625 64.59375 
L 19.828125 64.59375 
L 19.828125 46.734375 
Q 21.96875 47.46875 24.109375 47.828125 
Q 26.265625 48.1875 28.421875 48.1875 
Q 40.625 48.1875 47.75 41.5 
Q 54.890625 34.8125 54.890625 23.390625 
Q 54.890625 11.625 47.5625 5.09375 
Q 40.234375 -1.421875 26.90625 -1.421875 
Q 22.3125 -1.421875 17.546875 -0.640625 
Q 12.796875 0.140625 7.71875 1.703125 
L 7.71875 11.625 
Q 12.109375 9.234375 16.796875 8.0625 
Q 21.484375 6.890625 26.703125 6.890625 
Q 35.15625 6.890625 40.078125 11.328125 
Q 45.015625 15.765625 45.015625 23.390625 
Q 45.015625 31 40.078125 35.4375 
Q 35.15625 39.890625 26.703125 39.890625 
Q 22.75 39.890625 18.8125 39.015625 
Q 14.890625 38.140625 10.796875 36.28125 
z
" id="DejaVuSans-53"/>
      </defs>
      <g transform="translate(272.977725 418.798437)scale(0.1 -0.1)">
       <use xlink:href="#DejaVuSans-50"/>
       <use x="63.623047" xlink:href="#DejaVuSans-48"/>
       <use x="127.246094" xlink:href="#DejaVuSans-50"/>
       <use x="190.869141" xlink:href="#DejaVuSans-51"/>
       <use x="254.492188" xlink:href="#DejaVuSans-45"/>
       <use x="290.576172" xlink:href="#DejaVuSans-48"/>
       <use x="354.199219" xlink:href="#DejaVuSans-53"/>
      </g>
     </g>
    </g>
    <g id="xtick_5">
     <g id="line2d_5">
      <g>
       <use style="stroke:#000000;stroke-width:0.8;" x="375.321803" xlink:href="#mc521529dc6" y="404.2"/>
      </g>
     </g>
     <g id="text_5">
      <!-- 2023-07 -->
      <defs>
       <path d="M 8.203125 72.90625 
L 55.078125 72.90625 
L 55.078125 68.703125 
L 28.609375 0 
L 18.3125 0 
L 43.21875 64.59375 
L 8.203125 64.59375 
z
" id="DejaVuSans-55"/>
      </defs>
      <g transform="translate(354.430397 418.798437)scale(0.1 -0.1)">
       <use xlink:href="#DejaVuSans-50"/>
       <use x="63.623047" xlink:href="#DejaVuSans-48"/>
       <use x="127.246094" xlink:href="#DejaVuSans-50"/>
       <use x="190.869141" xlink:href="#DejaVuSans-51"/>
       <use x="254.492188" xlink:href="#DejaVuSans-45"/>
       <use x="290.576172" xlink:href="#DejaVuSans-48"/>
       <use x="354.199219" xlink:href="#DejaVuSans-55"/>
      </g>
     </g>
    </g>
    <g id="xtick_6">
     <g id="line2d_6">
      <g>
       <use style="stroke:#000000;stroke-width:0.8;" x="458.109765" xlink:href="#mc521529dc6" y="404.2"/>
      </g>
     </g>
     <g id="text_6">
      <!-- 2023-09 -->
      <defs>
       <path d="M 10.984375 1.515625 
L 10.984375 10.5 
Q 14.703125 8.734375 18.5 7.8125 
Q 22.3125 6.890625 25.984375 6.890625 
Q 35.75 6.890625 40.890625 13.453125 
Q 46.046875 20.015625 46.78125 33.40625 
Q 43.953125 29.203125 39.59375 26.953125 
Q 35.25 24.703125 29.984375 24.703125 
Q 19.046875 24.703125 12.671875 31.3125 
Q 6.296875 37.9375 6.296875 49.421875 
Q 6.296875 60.640625 12.9375 67.421875 
Q 19.578125 74.21875 30.609375 74.21875 
Q 43.265625 74.21875 49.921875 64.515625 
Q 56.59375 54.828125 56.59375 36.375 
Q 56.59375 19.140625 48.40625 8.859375 
Q 40.234375 -1.421875 26.421875 -1.421875 
Q 22.703125 -1.421875 18.890625 -0.6875 
Q 15.09375 0.046875 10.984375 1.515625 
z
M 30.609375 32.421875 
Q 37.25 32.421875 41.125 36.953125 
Q 45.015625 41.5 45.015625 49.421875 
Q 45.015625 57.28125 41.125 61.84375 
Q 37.25 66.40625 30.609375 66.40625 
Q 23.96875 66.40625 20.09375 61.84375 
Q 16.21875 57.28125 16.21875 49.421875 
Q 16.21875 41.5 20.09375 36.953125 
Q 23.96875 32.421875 30.609375 32.421875 
z
" id="DejaVuSans-57"/>
      </defs>
      <g transform="translate(437.218359 418.798437)scale(0.1 -0.1)">
       <use xlink:href="#DejaVuSans-50"/>
       <use x="63.623047" xlink:href="#DejaVuSans-48"/>
       <use x="127.246094" xlink:href="#DejaVuSans-50"/>
       <use x="190.869141" xlink:href="#DejaVuSans-51"/>
       <use x="254.492188" xlink:href="#DejaVuSans-45"/>
       <use x="290.576172" xlink:href="#DejaVuSans-48"/>
       <use x="354.199219" xlink:href="#DejaVuSans-57"/>
      </g>
     </g>
    </g>
    <g id="xtick_7">
     <g id="line2d_7">
      <g>
       <use style="stroke:#000000;stroke-width:0.8;" x="539.562438" xlink:href="#mc521529dc6" y="404.2"/>
      </g>
     </g>
     <g id="text_7">
      <!-- 2023-11 -->
      <g transform="translate(518.671031 418.798437)scale(0.1 -0.1)">
       <use xlink:href="#DejaVuSans-50"/>
       <use x="63.623047" xlink:href="#DejaVuSans-48"/>
       <use x="127.246094" xlink:href="#DejaVuSans-50"/>
       <use x="190.869141" xlink:href="#DejaVuSans-51"/>
       <use x="254.492188" xlink:href="#DejaVuSans-45"/>
       <use x="290.576172" xlink:href="#DejaVuSans-49"/>
       <use x="354.199219" xlink:href="#DejaVuSans-49"/>
      </g>
     </g>
    </g>
   </g>
   <g id="matplotlib.axis_2">
    <g id="ytick_1">
     <g id="line2d_8">
      <defs>
       <path d="M 0 0 
L -3.5 0 
" id="m066a26a94a" style="stroke:#000000;stroke-width:0.8;"/>
      </defs>
      <g>
       <use style="stroke:#000000;stroke-width:0.8;" x="30.55" xlink:href="#m066a26a94a" y="387.272727"/>
      </g>
     </g>
     <g id="text_8">
      <!-- 0 -->
      <g transform="translate(17.1875 391.071946)scale(0.1 -0.1)">
       <use xlink:href="#DejaVuSans-48"/>
      </g>
     </g>
    </g>
    <g id="ytick_2">
     <g id="line2d_9">
      <g>
       <use style="stroke:#000000;stroke-width:0.8;" x="30.55" xlink:href="#m066a26a94a" y="345.102142"/>
      </g>
     </g>
     <g id="text_9">
      <!-- 10 -->
      <g transform="translate(10.825 348.901361)scale(0.1 -0.1)">
       <use xlink:href="#DejaVuSans-49"/>
       <use x="63.623047" xlink:href="#DejaVuSans-48"/>
      </g>
     </g>
    </g>
    <g id="ytick_3">
     <g id="line2d_10">
      <g>
       <use style="stroke:#000000;stroke-width:0.8;" x="30.55" xlink:href="#m066a26a94a" y="302.931556"/>
      </g>
     </g>
     <g id="text_10">
      <!-- 20 -->
      <g transform="translate(10.825 306.730775)scale(0.1 -0.1)">
       <use xlink:href="#DejaVuSans-50"/>
       <use x="63.623047" xlink:href="#DejaVuSans-48"/>
      </g>
     </g>
    </g>
    <g id="ytick_4">
     <g id="line2d_11">
      <g>
       <use style="stroke:#000000;stroke-width:0.8;" x="30.55" xlink:href="#m066a26a94a" y="260.760971"/>
      </g>
     </g>
     <g id="text_11">
      <!-- 30 -->
      <g transform="translate(10.825 264.56019)scale(0.1 -0.1)">
       <use xlink:href="#DejaVuSans-51"/>
       <use x="63.623047" xlink:href="#DejaVuSans-48"/>
      </g>
     </g>
    </g>
    <g id="ytick_5">
     <g id="line2d_12">
      <g>
       <use style="stroke:#000000;stroke-width:0.8;" x="30.55" xlink:href="#m066a26a94a" y="218.590386"/>
      </g>
     </g>
     <g id="text_12">
      <!-- 40 -->
      <defs>
       <path d="M 37.796875 64.3125 
L 12.890625 25.390625 
L 37.796875 25.390625 
z
M 35.203125 72.90625 
L 47.609375 72.90625 
L 47.609375 25.390625 
L 58.015625 25.390625 
L 58.015625 17.1875 
L 47.609375 17.1875 
L 47.609375 0 
L 37.796875 0 
L 37.796875 17.1875 
L 4.890625 17.1875 
L 4.890625 26.703125 
z
" id="DejaVuSans-52"/>
      </defs>
      <g transform="translate(10.825 222.389604)scale(0.1 -0.1)">
       <use xlink:href="#DejaVuSans-52"/>
       <use x="63.623047" xlink:href="#DejaVuSans-48"/>
      </g>
     </g>
    </g>
    <g id="ytick_6">
     <g id="line2d_13">
      <g>
       <use style="stroke:#000000;stroke-width:0.8;" x="30.55" xlink:href="#m066a26a94a" y="176.4198"/>
      </g>
     </g>
     <g id="text_13">
      <!-- 50 -->
      <g transform="translate(10.825 180.219019)scale(0.1 -0.1)">
       <use xlink:href="#DejaVuSans-53"/>
       <use x="63.623047" xlink:href="#DejaVuSans-48"/>
      </g>
     </g>
    </g>
    <g id="ytick_7">
     <g id="line2d_14">
      <g>
       <use style="stroke:#000000;stroke-width:0.8;" x="30.55" xlink:href="#m066a26a94a" y="134.249215"/>
      </g>
     </g>
     <g id="text_14">
      <!-- 60 -->
      <defs>
       <path d="M 33.015625 40.375 
Q 26.375 40.375 22.484375 35.828125 
Q 18.609375 31.296875 18.609375 23.390625 
Q 18.609375 15.53125 22.484375 10.953125 
Q 26.375 6.390625 33.015625 6.390625 
Q 39.65625 6.390625 43.53125 10.953125 
Q 47.40625 15.53125 47.40625 23.390625 
Q 47.40625 31.296875 43.53125 35.828125 
Q 39.65625 40.375 33.015625 40.375 
z
M 52.59375 71.296875 
L 52.59375 62.3125 
Q 48.875 64.0625 45.09375 64.984375 
Q 41.3125 65.921875 37.59375 65.921875 
Q 27.828125 65.921875 22.671875 59.328125 
Q 17.53125 52.734375 16.796875 39.40625 
Q 19.671875 43.65625 24.015625 45.921875 
Q 28.375 48.1875 33.59375 48.1875 
Q 44.578125 48.1875 50.953125 41.515625 
Q 57.328125 34.859375 57.328125 23.390625 
Q 57.328125 12.15625 50.6875 5.359375 
Q 44.046875 -1.421875 33.015625 -1.421875 
Q 20.359375 -1.421875 13.671875 8.265625 
Q 6.984375 17.96875 6.984375 36.375 
Q 6.984375 53.65625 15.1875 63.9375 
Q 23.390625 74.21875 37.203125 74.21875 
Q 40.921875 74.21875 44.703125 73.484375 
Q 48.484375 72.75 52.59375 71.296875 
z
" id="DejaVuSans-54"/>
      </defs>
      <g transform="translate(10.825 138.048434)scale(0.1 -0.1)">
       <use xlink:href="#DejaVuSans-54"/>
       <use x="63.623047" xlink:href="#DejaVuSans-48"/>
      </g>
     </g>
    </g>
    <g id="ytick_8">
     <g id="line2d_15">
      <g>
       <use style="stroke:#000000;stroke-width:0.8;" x="30.55" xlink:href="#m066a26a94a" y="92.078629"/>
      </g>
     </g>
     <g id="text_15">
      <!-- 70 -->
      <g transform="translate(10.825 95.877848)scale(0.1 -0.1)">
       <use xlink:href="#DejaVuSans-55"/>
       <use x="63.623047" xlink:href="#DejaVuSans-48"/>
      </g>
     </g>
    </g>
    <g id="ytick_9">
     <g id="line2d_16">
      <g>
       <use style="stroke:#000000;stroke-width:0.8;" x="30.55" xlink:href="#m066a26a94a" y="49.908044"/>
      </g>
     </g>
     <g id="text_16">
      <!-- 80 -->
      <defs>
       <path d="M 31.78125 34.625 
Q 24.75 34.625 20.71875 30.859375 
Q 16.703125 27.09375 16.703125 20.515625 
Q 16.703125 13.921875 20.71875 10.15625 
Q 24.75 6.390625 31.78125 6.390625 
Q 38.8125 6.390625 42.859375 10.171875 
Q 46.921875 13.96875 46.921875 20.515625 
Q 46.921875 27.09375 42.890625 30.859375 
Q 38.875 34.625 31.78125 34.625 
z
M 21.921875 38.8125 
Q 15.578125 40.375 12.03125 44.71875 
Q 8.5 49.078125 8.5 55.328125 
Q 8.5 64.0625 14.71875 69.140625 
Q 20.953125 74.21875 31.78125 74.21875 
Q 42.671875 74.21875 48.875 69.140625 
Q 55.078125 64.0625 55.078125 55.328125 
Q 55.078125 49.078125 51.53125 44.71875 
Q 48 40.375 41.703125 38.8125 
Q 48.828125 37.15625 52.796875 32.3125 
Q 56.78125 27.484375 56.78125 20.515625 
Q 56.78125 9.90625 50.3125 4.234375 
Q 43.84375 -1.421875 31.78125 -1.421875 
Q 19.734375 -1.421875 13.25 4.234375 
Q 6.78125 9.90625 6.78125 20.515625 
Q 6.78125 27.484375 10.78125 32.3125 
Q 14.796875 37.15625 21.921875 38.8125 
z
M 18.3125 54.390625 
Q 18.3125 48.734375 21.84375 45.5625 
Q 25.390625 42.390625 31.78125 42.390625 
Q 38.140625 42.390625 41.71875 45.5625 
Q 45.3125 48.734375 45.3125 54.390625 
Q 45.3125 60.0625 41.71875 63.234375 
Q 38.140625 66.40625 31.78125 66.40625 
Q 25.390625 66.40625 21.84375 63.234375 
Q 18.3125 60.0625 18.3125 54.390625 
z
" id="DejaVuSans-56"/>
      </defs>
      <g transform="translate(10.825 53.707263)scale(0.1 -0.1)">
       <use xlink:href="#DejaVuSans-56"/>
       <use x="63.623047" xlink:href="#DejaVuSans-48"/>
      </g>
     </g>
    </g>
   </g>
   <g id="patch_3">
    <path d="M 30.55 404.2 
L 30.55 31.8 
" style="fill:none;stroke:#000000;stroke-linecap:square;stroke-linejoin:miter;stroke-width:0.8;"/>
   </g>
   <g id="patch_4">
    <path d="M 565.2 404.2 
L 565.2 31.8 
" style="fill:none;stroke:#000000;stroke-linecap:square;stroke-linejoin:miter;stroke-width:0.8;"/>
   </g>
   <g id="patch_5">
    <path d="M 30.55 404.2 
L 565.2 404.2 
" style="fill:none;stroke:#000000;stroke-linecap:square;stroke-linejoin:miter;stroke-width:0.8;"/>
   </g>
   <g id="patch_6">
    <path d="M 30.55 31.8 
L 565.2 31.8 
" style="fill:none;stroke:#000000;stroke-linecap:square;stroke-linejoin:miter;stroke-width:0.8;"/>
   </g>
   <g id="text_17">
    <!-- FTNT - 25.39% -->
    <defs>
     <path d="M 9.1875 72.90625 
L 59.90625 72.90625 
L 59.90625 58.6875 
L 27.984375 58.6875 
L 27.984375 45.125 
L 58.015625 45.125 
L 58.015625 30.90625 
L 27.984375 30.90625 
L 27.984375 0 
L 9.1875 0 
z
" id="DejaVuSans-Bold-70"/>
     <path d="M 0.484375 72.90625 
L 67.671875 72.90625 
L 67.671875 58.6875 
L 43.5 58.6875 
L 43.5 0 
L 24.703125 0 
L 24.703125 58.6875 
L 0.484375 58.6875 
z
" id="DejaVuSans-Bold-84"/>
     <path d="M 9.1875 72.90625 
L 30.171875 72.90625 
L 56.6875 22.90625 
L 56.6875 72.90625 
L 74.515625 72.90625 
L 74.515625 0 
L 53.515625 0 
L 27 50 
L 27 0 
L 9.1875 0 
z
" id="DejaVuSans-Bold-78"/>
     <path id="DejaVuSans-Bold-32"/>
     <path d="M 5.421875 35.890625 
L 36.078125 35.890625 
L 36.078125 21.6875 
L 5.421875 21.6875 
z
" id="DejaVuSans-Bold-45"/>
     <path d="M 28.8125 13.8125 
L 60.890625 13.8125 
L 60.890625 0 
L 7.90625 0 
L 7.90625 13.8125 
L 34.515625 37.3125 
Q 38.09375 40.53125 39.796875 43.609375 
Q 41.5 46.6875 41.5 50 
Q 41.5 55.125 38.0625 58.25 
Q 34.625 61.375 28.90625 61.375 
Q 24.515625 61.375 19.28125 59.5 
Q 14.0625 57.625 8.109375 53.90625 
L 8.109375 69.921875 
Q 14.453125 72.015625 20.65625 73.109375 
Q 26.859375 74.21875 32.8125 74.21875 
Q 45.90625 74.21875 53.15625 68.453125 
Q 60.40625 62.703125 60.40625 52.390625 
Q 60.40625 46.4375 57.328125 41.28125 
Q 54.25 36.140625 44.390625 27.484375 
z
" id="DejaVuSans-Bold-50"/>
     <path d="M 10.59375 72.90625 
L 57.328125 72.90625 
L 57.328125 59.078125 
L 25.59375 59.078125 
L 25.59375 47.796875 
Q 27.734375 48.390625 29.90625 48.703125 
Q 32.078125 49.03125 34.421875 49.03125 
Q 47.75 49.03125 55.171875 42.359375 
Q 62.59375 35.6875 62.59375 23.78125 
Q 62.59375 11.96875 54.515625 5.265625 
Q 46.4375 -1.421875 32.078125 -1.421875 
Q 25.875 -1.421875 19.796875 -0.21875 
Q 13.71875 0.984375 7.71875 3.421875 
L 7.71875 18.21875 
Q 13.671875 14.796875 19.015625 13.078125 
Q 24.359375 11.375 29.109375 11.375 
Q 35.9375 11.375 39.859375 14.71875 
Q 43.796875 18.0625 43.796875 23.78125 
Q 43.796875 29.546875 39.859375 32.859375 
Q 35.9375 36.1875 29.109375 36.1875 
Q 25.046875 36.1875 20.453125 35.125 
Q 15.875 34.078125 10.59375 31.890625 
z
" id="DejaVuSans-Bold-53"/>
     <path d="M 10.203125 18.890625 
L 27.78125 18.890625 
L 27.78125 0 
L 10.203125 0 
z
" id="DejaVuSans-Bold-46"/>
     <path d="M 46.578125 39.3125 
Q 53.953125 37.40625 57.78125 32.6875 
Q 61.625 27.984375 61.625 20.703125 
Q 61.625 9.859375 53.3125 4.21875 
Q 45.015625 -1.421875 29.109375 -1.421875 
Q 23.484375 -1.421875 17.84375 -0.515625 
Q 12.203125 0.390625 6.6875 2.203125 
L 6.6875 16.703125 
Q 11.96875 14.0625 17.15625 12.71875 
Q 22.359375 11.375 27.390625 11.375 
Q 34.859375 11.375 38.84375 13.953125 
Q 42.828125 16.546875 42.828125 21.390625 
Q 42.828125 26.375 38.75 28.9375 
Q 34.671875 31.5 26.703125 31.5 
L 19.1875 31.5 
L 19.1875 43.609375 
L 27.09375 43.609375 
Q 34.1875 43.609375 37.640625 45.828125 
Q 41.109375 48.046875 41.109375 52.59375 
Q 41.109375 56.78125 37.734375 59.078125 
Q 34.375 61.375 28.21875 61.375 
Q 23.6875 61.375 19.046875 60.34375 
Q 14.40625 59.328125 9.8125 57.328125 
L 9.8125 71.09375 
Q 15.375 72.65625 20.84375 73.4375 
Q 26.3125 74.21875 31.59375 74.21875 
Q 45.796875 74.21875 52.84375 69.546875 
Q 59.90625 64.890625 59.90625 55.515625 
Q 59.90625 49.125 56.53125 45.046875 
Q 53.171875 40.96875 46.578125 39.3125 
z
" id="DejaVuSans-Bold-51"/>
     <path d="M 10.015625 1.609375 
L 10.015625 15.09375 
Q 14.5 12.984375 18.59375 11.9375 
Q 22.703125 10.890625 26.703125 10.890625 
Q 35.109375 10.890625 39.796875 15.546875 
Q 44.484375 20.21875 45.3125 29.390625 
Q 42 26.953125 38.234375 25.734375 
Q 34.46875 24.515625 30.078125 24.515625 
Q 18.890625 24.515625 12.03125 31.03125 
Q 5.171875 37.546875 5.171875 48.1875 
Q 5.171875 59.96875 12.8125 67.046875 
Q 20.453125 74.125 33.296875 74.125 
Q 47.5625 74.125 55.375 64.5 
Q 63.1875 54.890625 63.1875 37.3125 
Q 63.1875 19.234375 54.046875 8.90625 
Q 44.921875 -1.421875 29 -1.421875 
Q 23.875 -1.421875 19.1875 -0.65625 
Q 14.5 0.09375 10.015625 1.609375 
z
M 33.203125 36.71875 
Q 38.140625 36.71875 40.625 39.90625 
Q 43.109375 43.109375 43.109375 49.515625 
Q 43.109375 55.859375 40.625 59.078125 
Q 38.140625 62.3125 33.203125 62.3125 
Q 28.265625 62.3125 25.78125 59.078125 
Q 23.296875 55.859375 23.296875 49.515625 
Q 23.296875 43.109375 25.78125 39.90625 
Q 28.265625 36.71875 33.203125 36.71875 
z
" id="DejaVuSans-Bold-57"/>
     <path d="M 77.484375 30.078125 
Q 74.03125 30.078125 72.125 27.078125 
Q 70.21875 24.078125 70.21875 18.5 
Q 70.21875 12.890625 72.09375 9.890625 
Q 73.96875 6.890625 77.484375 6.890625 
Q 81 6.890625 82.859375 9.890625 
Q 84.71875 12.890625 84.71875 18.5 
Q 84.71875 24.078125 82.828125 27.078125 
Q 80.953125 30.078125 77.484375 30.078125 
z
M 77.484375 38.28125 
Q 86.578125 38.28125 91.796875 33 
Q 97.015625 27.734375 97.015625 18.5 
Q 97.015625 9.28125 91.796875 3.921875 
Q 86.578125 -1.421875 77.484375 -1.421875 
Q 68.40625 -1.421875 63.15625 3.921875 
Q 57.90625 9.28125 57.90625 18.5 
Q 57.90625 27.6875 63.15625 32.984375 
Q 68.40625 38.28125 77.484375 38.28125 
z
M 32.71875 -1.421875 
L 21.921875 -1.421875 
L 67.484375 74.21875 
L 78.328125 74.21875 
z
M 22.703125 74.21875 
Q 31.78125 74.21875 36.984375 68.921875 
Q 42.1875 63.625 42.1875 54.390625 
Q 42.1875 45.171875 36.984375 39.84375 
Q 31.78125 34.515625 22.703125 34.515625 
Q 13.625 34.515625 8.421875 39.84375 
Q 3.21875 45.171875 3.21875 54.390625 
Q 3.21875 63.625 8.421875 68.921875 
Q 13.625 74.21875 22.703125 74.21875 
z
M 22.703125 66.015625 
Q 19.1875 66.015625 17.28125 62.984375 
Q 15.375 59.96875 15.375 54.390625 
Q 15.375 48.78125 17.28125 45.71875 
Q 19.1875 42.671875 22.703125 42.671875 
Q 26.21875 42.671875 28.09375 45.71875 
Q 29.984375 48.78125 29.984375 54.390625 
Q 29.984375 59.96875 28.078125 62.984375 
Q 26.171875 66.015625 22.703125 66.015625 
z
" id="DejaVuSans-Bold-37"/>
    </defs>
    <g transform="translate(30.55 25.8)scale(0.2 -0.2)">
     <use xlink:href="#DejaVuSans-Bold-70"/>
     <use x="68.310547" xlink:href="#DejaVuSans-Bold-84"/>
     <use x="136.523438" xlink:href="#DejaVuSans-Bold-78"/>
     <use x="220.214844" xlink:href="#DejaVuSans-Bold-84"/>
     <use x="288.427734" xlink:href="#DejaVuSans-Bold-32"/>
     <use x="323.242188" xlink:href="#DejaVuSans-Bold-45"/>
     <use x="364.746094" xlink:href="#DejaVuSans-Bold-32"/>
     <use x="399.560547" xlink:href="#DejaVuSans-Bold-50"/>
     <use x="469.140625" xlink:href="#DejaVuSans-Bold-53"/>
     <use x="538.720703" xlink:href="#DejaVuSans-Bold-46"/>
     <use x="576.708984" xlink:href="#DejaVuSans-Bold-51"/>
     <use x="646.289062" xlink:href="#DejaVuSans-Bold-57"/>
     <use x="715.869141" xlink:href="#DejaVuSans-Bold-37"/>
    </g>
   </g>
  </g>
 </g>
 <defs>
  <clipPath id="p0d3b16edd8">
   <rect height="372.4" width="534.65" x="30.55" y="31.8"/>
  </clipPath>
 </defs>
</svg>
