<?xml version="1.0" encoding="utf-8" standalone="no"?>
<!DOCTYPE svg PUBLIC "-//W3C//DTD SVG 1.1//EN"
  "http://www.w3.org/Graphics/SVG/1.1/DTD/svg11.dtd">
<!-- Created with matplotlib (https://matplotlib.org/) -->
<svg height="432pt" version="1.1" viewBox="0 0 864 432" width="864pt" xmlns="http://www.w3.org/2000/svg" xmlns:xlink="http://www.w3.org/1999/xlink">
 <defs>
  <style type="text/css">
*{stroke-linecap:butt;stroke-linejoin:round;}
  </style>
 </defs>
 <g id="figure_1">
  <g id="patch_1">
   <path d="M 0 432 
L 864 432 
L 864 0 
L 0 0 
z
" style="fill:none;"/>
  </g>
  <g id="axes_1">
   <g id="patch_2">
    <path d="M 75.175 385.2 
L 840.323864 385.2 
L 840.323864 88.8 
L 75.175 88.8 
z
" style="fill:none;"/>
   </g>
   <g id="PolyCollection_1">
    <defs>
     <path d="M 109.954494 -43.997632 
L 109.954494 -313.019829 
L 113.734874 -313.859794 
L 117.515253 -319.89238 
L 121.295633 -321.877802 
L 132.636772 -322.335956 
L 136.417152 -321.648725 
L 140.197532 -309.125399 
L 143.977912 -311.18714 
L 147.758291 -313.40164 
L 162.87981 -312.714384 
L 166.66019 -310.118098 
L 170.44057 -313.048431 
L 174.22095 -315.747409 
L 185.562089 -315.516079 
L 189.342469 -317.05836 
L 193.122849 -320.528479 
L 196.903228 -319.680236 
L 200.683608 -316.672801 
L 212.024747 -317.212564 
L 215.805127 -316.595675 
L 219.585507 -315.593205 
L 223.365887 -324.846887 
L 227.146266 -326.003586 
L 238.487406 -321.608075 
L 242.267785 -320.605604 
L 246.048165 -319.680236 
L 249.828545 -316.055865 
L 253.608925 -311.197694 
L 264.950064 -314.050925 
L 268.730444 -318.986222 
L 272.510824 -322.533467 
L 276.291203 -320.682707 
L 280.071583 -323.921495 
L 291.412722 -324.692636 
L 295.193102 -324.846887 
L 298.973482 -323.921495 
L 302.753862 -316.904132 
L 306.534241 -316.132991 
L 317.875381 -317.598146 
L 321.65576 -318.523514 
L 325.43614 -325.92646 
L 329.21652 -328.317006 
L 332.9969 -327.237386 
L 344.338039 -328.008526 
L 348.118419 -329.165249 
L 351.898799 -330.476199 
L 355.679178 -332.404037 
L 359.459558 -333.02095 
L 370.800697 -331.710023 
L 374.581077 -329.550807 
L 378.361457 -331.478669 
L 382.141837 -343.2 
L 385.922216 -338.110475 
L 397.263356 -336.336864 
L 401.043735 -335.33437 
L 404.824115 -333.79209 
L 408.604495 -332.866722 
L 412.384875 -334.023444 
L 423.726014 -332.943847 
L 427.506394 -332.558289 
L 431.286773 -333.637862 
L 435.067153 -335.658432 
L 438.847533 -330.218448 
L 450.188672 -329.596746 
L 453.969052 -326.332746 
L 457.749432 -322.524763 
L 461.529812 -317.551069 
L 465.310191 -318.405928 
L 476.651331 -319.649357 
L 480.43171 -319.727052 
L 484.21209 -322.058474 
L 487.99247 -321.980779 
L 491.77285 -322.602482 
L 506.894369 -327.731613 
L 510.674748 -330.218448 
L 514.455128 -327.964746 
L 518.235508 -330.140753 
L 529.576647 -330.529324 
L 533.357027 -330.684737 
L 537.137407 -327.964746 
L 540.917787 -328.586473 
L 544.698166 -331.928167 
L 556.039306 -334.57044 
L 559.819685 -331.461878 
L 563.600065 -332.394456 
L 567.380445 -338.766993 
L 571.160825 -339.311001 
L 582.501964 -335.34758 
L 586.282344 -336.746447 
L 590.062723 -335.503018 
L 593.843103 -337.135017 
L 597.623483 -338.223009 
L 608.964622 -335.813869 
L 612.745002 -332.083605 
L 616.525382 -331.306464 
L 620.305762 -333.871018 
L 624.086141 -335.580737 
L 635.427281 -327.731613 
L 639.20766 -327.343043 
L 642.98804 -322.369349 
L 646.76842 -325.322473 
L 650.5488 -326.099614 
L 661.889939 -321.747622 
L 665.670319 -326.954473 
L 669.450698 -326.721316 
L 673.231078 -326.255051 
L 677.011458 -319.804771 
L 688.352597 -323.224184 
L 692.132977 -323.224184 
L 695.913357 -322.369349 
L 699.693737 -316.618491 
L 703.474116 -310.479086 
L 714.815256 -316.618491 
L 718.595635 -316.929366 
L 722.376015 -318.172772 
L 726.156395 -316.074507 
L 729.936775 -316.696209 
L 741.277914 -320.348779 
L 745.058294 -320.504193 
L 748.838673 -321.048201 
L 752.619053 -324.70077 
L 756.399433 -323.224184 
L 767.740572 -322.058474 
L 771.520952 -322.602482 
L 775.301332 -323.224184 
L 779.081712 -46.8 
L 782.862091 -320.581912 
L 794.203231 -316.773928 
L 797.98361 -331.306464 
L 801.76399 -333.093878 
L 805.54437 -329.985316 
L 805.54437 -43.997632 
L 805.54437 -43.997632 
L 801.76399 -43.997632 
L 797.98361 -43.997632 
L 794.203231 -43.997632 
L 782.862091 -43.997632 
L 779.081712 -43.997632 
L 775.301332 -43.997632 
L 771.520952 -43.997632 
L 767.740572 -43.997632 
L 756.399433 -43.997632 
L 752.619053 -43.997632 
L 748.838673 -43.997632 
L 745.058294 -43.997632 
L 741.277914 -43.997632 
L 729.936775 -43.997632 
L 726.156395 -43.997632 
L 722.376015 -43.997632 
L 718.595635 -43.997632 
L 714.815256 -43.997632 
L 703.474116 -43.997632 
L 699.693737 -43.997632 
L 695.913357 -43.997632 
L 692.132977 -43.997632 
L 688.352597 -43.997632 
L 677.011458 -43.997632 
L 673.231078 -43.997632 
L 669.450698 -43.997632 
L 665.670319 -43.997632 
L 661.889939 -43.997632 
L 650.5488 -43.997632 
L 646.76842 -43.997632 
L 642.98804 -43.997632 
L 639.20766 -43.997632 
L 635.427281 -43.997632 
L 624.086141 -43.997632 
L 620.305762 -43.997632 
L 616.525382 -43.997632 
L 612.745002 -43.997632 
L 608.964622 -43.997632 
L 597.623483 -43.997632 
L 593.843103 -43.997632 
L 590.062723 -43.997632 
L 586.282344 -43.997632 
L 582.501964 -43.997632 
L 571.160825 -43.997632 
L 567.380445 -43.997632 
L 563.600065 -43.997632 
L 559.819685 -43.997632 
L 556.039306 -43.997632 
L 544.698166 -43.997632 
L 540.917787 -43.997632 
L 537.137407 -43.997632 
L 533.357027 -43.997632 
L 529.576647 -43.997632 
L 518.235508 -43.997632 
L 514.455128 -43.997632 
L 510.674748 -43.997632 
L 506.894369 -43.997632 
L 491.77285 -43.997632 
L 487.99247 -43.997632 
L 484.21209 -43.997632 
L 480.43171 -43.997632 
L 476.651331 -43.997632 
L 465.310191 -43.997632 
L 461.529812 -43.997632 
L 457.749432 -43.997632 
L 453.969052 -43.997632 
L 450.188672 -43.997632 
L 438.847533 -43.997632 
L 435.067153 -43.997632 
L 431.286773 -43.997632 
L 427.506394 -43.997632 
L 423.726014 -43.997632 
L 412.384875 -43.997632 
L 408.604495 -43.997632 
L 404.824115 -43.997632 
L 401.043735 -43.997632 
L 397.263356 -43.997632 
L 385.922216 -43.997632 
L 382.141837 -43.997632 
L 378.361457 -43.997632 
L 374.581077 -43.997632 
L 370.800697 -43.997632 
L 359.459558 -43.997632 
L 355.679178 -43.997632 
L 351.898799 -43.997632 
L 348.118419 -43.997632 
L 344.338039 -43.997632 
L 332.9969 -43.997632 
L 329.21652 -43.997632 
L 325.43614 -43.997632 
L 321.65576 -43.997632 
L 317.875381 -43.997632 
L 306.534241 -43.997632 
L 302.753862 -43.997632 
L 298.973482 -43.997632 
L 295.193102 -43.997632 
L 291.412722 -43.997632 
L 280.071583 -43.997632 
L 276.291203 -43.997632 
L 272.510824 -43.997632 
L 268.730444 -43.997632 
L 264.950064 -43.997632 
L 253.608925 -43.997632 
L 249.828545 -43.997632 
L 246.048165 -43.997632 
L 242.267785 -43.997632 
L 238.487406 -43.997632 
L 227.146266 -43.997632 
L 223.365887 -43.997632 
L 219.585507 -43.997632 
L 215.805127 -43.997632 
L 212.024747 -43.997632 
L 200.683608 -43.997632 
L 196.903228 -43.997632 
L 193.122849 -43.997632 
L 189.342469 -43.997632 
L 185.562089 -43.997632 
L 174.22095 -43.997632 
L 170.44057 -43.997632 
L 166.66019 -43.997632 
L 162.87981 -43.997632 
L 147.758291 -43.997632 
L 143.977912 -43.997632 
L 140.197532 -43.997632 
L 136.417152 -43.997632 
L 132.636772 -43.997632 
L 121.295633 -43.997632 
L 117.515253 -43.997632 
L 113.734874 -43.997632 
L 109.954494 -43.997632 
z
" id="meb5f9f57f8" style="stroke:#0000ff;stroke-opacity:0.1;"/>
    </defs>
    <g clip-path="url(#pb78e146a14)">
     <use style="fill:#0000ff;fill-opacity:0.1;stroke:#0000ff;stroke-opacity:0.1;" x="0" xlink:href="#meb5f9f57f8" y="432"/>
    </g>
   </g>
   <g id="matplotlib.axis_1">
    <g id="xtick_1">
     <g id="line2d_1">
      <defs>
       <path d="M 0 0 
L 0 3.5 
" id="m3b5c019a44" style="stroke:#000000;stroke-width:0.8;"/>
      </defs>
      <g>
       <use style="stroke:#000000;stroke-width:0.8;" x="109.954494" xlink:href="#m3b5c019a44" y="385.2"/>
      </g>
     </g>
     <g id="text_1">
      <!-- 05/23 -->
      <defs>
       <path d="M 31.78125 66.40625 
Q 24.171875 66.40625 20.328125 58.90625 
Q 16.5 51.421875 16.5 36.375 
Q 16.5 21.390625 20.328125 13.890625 
Q 24.171875 6.390625 31.78125 6.390625 
Q 39.453125 6.390625 43.28125 13.890625 
Q 47.125 21.390625 47.125 36.375 
Q 47.125 51.421875 43.28125 58.90625 
Q 39.453125 66.40625 31.78125 66.40625 
z
M 31.78125 74.21875 
Q 44.046875 74.21875 50.515625 64.515625 
Q 56.984375 54.828125 56.984375 36.375 
Q 56.984375 17.96875 50.515625 8.265625 
Q 44.046875 -1.421875 31.78125 -1.421875 
Q 19.53125 -1.421875 13.0625 8.265625 
Q 6.59375 17.96875 6.59375 36.375 
Q 6.59375 54.828125 13.0625 64.515625 
Q 19.53125 74.21875 31.78125 74.21875 
z
" id="DejaVuSans-48"/>
       <path d="M 10.796875 72.90625 
L 49.515625 72.90625 
L 49.515625 64.59375 
L 19.828125 64.59375 
L 19.828125 46.734375 
Q 21.96875 47.46875 24.109375 47.828125 
Q 26.265625 48.1875 28.421875 48.1875 
Q 40.625 48.1875 47.75 41.5 
Q 54.890625 34.8125 54.890625 23.390625 
Q 54.890625 11.625 47.5625 5.09375 
Q 40.234375 -1.421875 26.90625 -1.421875 
Q 22.3125 -1.421875 17.546875 -0.640625 
Q 12.796875 0.140625 7.71875 1.703125 
L 7.71875 11.625 
Q 12.109375 9.234375 16.796875 8.0625 
Q 21.484375 6.890625 26.703125 6.890625 
Q 35.15625 6.890625 40.078125 11.328125 
Q 45.015625 15.765625 45.015625 23.390625 
Q 45.015625 31 40.078125 35.4375 
Q 35.15625 39.890625 26.703125 39.890625 
Q 22.75 39.890625 18.8125 39.015625 
Q 14.890625 38.140625 10.796875 36.28125 
z
" id="DejaVuSans-53"/>
       <path d="M 25.390625 72.90625 
L 33.6875 72.90625 
L 8.296875 -9.28125 
L 0 -9.28125 
z
" id="DejaVuSans-47"/>
       <path d="M 19.1875 8.296875 
L 53.609375 8.296875 
L 53.609375 0 
L 7.328125 0 
L 7.328125 8.296875 
Q 12.9375 14.109375 22.625 23.890625 
Q 32.328125 33.6875 34.8125 36.53125 
Q 39.546875 41.84375 41.421875 45.53125 
Q 43.3125 49.21875 43.3125 52.78125 
Q 43.3125 58.59375 39.234375 62.25 
Q 35.15625 65.921875 28.609375 65.921875 
Q 23.96875 65.921875 18.8125 64.3125 
Q 13.671875 62.703125 7.8125 59.421875 
L 7.8125 69.390625 
Q 13.765625 71.78125 18.9375 73 
Q 24.125 74.21875 28.421875 74.21875 
Q 39.75 74.21875 46.484375 68.546875 
Q 53.21875 62.890625 53.21875 53.421875 
Q 53.21875 48.921875 51.53125 44.890625 
Q 49.859375 40.875 45.40625 35.40625 
Q 44.1875 33.984375 37.640625 27.21875 
Q 31.109375 20.453125 19.1875 8.296875 
z
" id="DejaVuSans-50"/>
       <path d="M 40.578125 39.3125 
Q 47.65625 37.796875 51.625 33 
Q 55.609375 28.21875 55.609375 21.1875 
Q 55.609375 10.40625 48.1875 4.484375 
Q 40.765625 -1.421875 27.09375 -1.421875 
Q 22.515625 -1.421875 17.65625 -0.515625 
Q 12.796875 0.390625 7.625 2.203125 
L 7.625 11.71875 
Q 11.71875 9.328125 16.59375 8.109375 
Q 21.484375 6.890625 26.8125 6.890625 
Q 36.078125 6.890625 40.9375 10.546875 
Q 45.796875 14.203125 45.796875 21.1875 
Q 45.796875 27.640625 41.28125 31.265625 
Q 36.765625 34.90625 28.71875 34.90625 
L 20.21875 34.90625 
L 20.21875 43.015625 
L 29.109375 43.015625 
Q 36.375 43.015625 40.234375 45.921875 
Q 44.09375 48.828125 44.09375 54.296875 
Q 44.09375 59.90625 40.109375 62.90625 
Q 36.140625 65.921875 28.71875 65.921875 
Q 24.65625 65.921875 20.015625 65.03125 
Q 15.375 64.15625 9.8125 62.3125 
L 9.8125 71.09375 
Q 15.4375 72.65625 20.34375 73.4375 
Q 25.25 74.21875 29.59375 74.21875 
Q 40.828125 74.21875 47.359375 69.109375 
Q 53.90625 64.015625 53.90625 55.328125 
Q 53.90625 49.265625 50.4375 45.09375 
Q 46.96875 40.921875 40.578125 39.3125 
z
" id="DejaVuSans-51"/>
      </defs>
      <g transform="translate(66.726369 414.995312)scale(0.3 -0.3)">
       <use xlink:href="#DejaVuSans-48"/>
       <use x="63.623047" xlink:href="#DejaVuSans-53"/>
       <use x="127.246094" xlink:href="#DejaVuSans-47"/>
       <use x="160.9375" xlink:href="#DejaVuSans-50"/>
       <use x="224.560547" xlink:href="#DejaVuSans-51"/>
      </g>
     </g>
    </g>
    <g id="xtick_2">
     <g id="line2d_2">
      <g>
       <use style="stroke:#000000;stroke-width:0.8;" x="457.749432" xlink:href="#m3b5c019a44" y="385.2"/>
      </g>
     </g>
     <g id="text_2">
      <!-- 08/23 -->
      <defs>
       <path d="M 31.78125 34.625 
Q 24.75 34.625 20.71875 30.859375 
Q 16.703125 27.09375 16.703125 20.515625 
Q 16.703125 13.921875 20.71875 10.15625 
Q 24.75 6.390625 31.78125 6.390625 
Q 38.8125 6.390625 42.859375 10.171875 
Q 46.921875 13.96875 46.921875 20.515625 
Q 46.921875 27.09375 42.890625 30.859375 
Q 38.875 34.625 31.78125 34.625 
z
M 21.921875 38.8125 
Q 15.578125 40.375 12.03125 44.71875 
Q 8.5 49.078125 8.5 55.328125 
Q 8.5 64.0625 14.71875 69.140625 
Q 20.953125 74.21875 31.78125 74.21875 
Q 42.671875 74.21875 48.875 69.140625 
Q 55.078125 64.0625 55.078125 55.328125 
Q 55.078125 49.078125 51.53125 44.71875 
Q 48 40.375 41.703125 38.8125 
Q 48.828125 37.15625 52.796875 32.3125 
Q 56.78125 27.484375 56.78125 20.515625 
Q 56.78125 9.90625 50.3125 4.234375 
Q 43.84375 -1.421875 31.78125 -1.421875 
Q 19.734375 -1.421875 13.25 4.234375 
Q 6.78125 9.90625 6.78125 20.515625 
Q 6.78125 27.484375 10.78125 32.3125 
Q 14.796875 37.15625 21.921875 38.8125 
z
M 18.3125 54.390625 
Q 18.3125 48.734375 21.84375 45.5625 
Q 25.390625 42.390625 31.78125 42.390625 
Q 38.140625 42.390625 41.71875 45.5625 
Q 45.3125 48.734375 45.3125 54.390625 
Q 45.3125 60.0625 41.71875 63.234375 
Q 38.140625 66.40625 31.78125 66.40625 
Q 25.390625 66.40625 21.84375 63.234375 
Q 18.3125 60.0625 18.3125 54.390625 
z
" id="DejaVuSans-56"/>
      </defs>
      <g transform="translate(414.521307 414.995312)scale(0.3 -0.3)">
       <use xlink:href="#DejaVuSans-48"/>
       <use x="63.623047" xlink:href="#DejaVuSans-56"/>
       <use x="127.246094" xlink:href="#DejaVuSans-47"/>
       <use x="160.9375" xlink:href="#DejaVuSans-50"/>
       <use x="224.560547" xlink:href="#DejaVuSans-51"/>
      </g>
     </g>
    </g>
    <g id="xtick_3">
     <g id="line2d_3">
      <g>
       <use style="stroke:#000000;stroke-width:0.8;" x="805.54437" xlink:href="#m3b5c019a44" y="385.2"/>
      </g>
     </g>
     <g id="text_3">
      <!-- 11/23 -->
      <defs>
       <path d="M 12.40625 8.296875 
L 28.515625 8.296875 
L 28.515625 63.921875 
L 10.984375 60.40625 
L 10.984375 69.390625 
L 28.421875 72.90625 
L 38.28125 72.90625 
L 38.28125 8.296875 
L 54.390625 8.296875 
L 54.390625 0 
L 12.40625 0 
z
" id="DejaVuSans-49"/>
      </defs>
      <g transform="translate(762.316245 414.995312)scale(0.3 -0.3)">
       <use xlink:href="#DejaVuSans-49"/>
       <use x="63.623047" xlink:href="#DejaVuSans-49"/>
       <use x="127.246094" xlink:href="#DejaVuSans-47"/>
       <use x="160.9375" xlink:href="#DejaVuSans-50"/>
       <use x="224.560547" xlink:href="#DejaVuSans-51"/>
      </g>
     </g>
    </g>
   </g>
   <g id="matplotlib.axis_2">
    <g id="ytick_1">
     <g id="line2d_4">
      <defs>
       <path d="M 0 0 
L -3.5 0 
" id="m537b0e4b11" style="stroke:#000000;stroke-width:0.8;"/>
      </defs>
      <g>
       <use style="stroke:#000000;stroke-width:0.8;" x="75.175" xlink:href="#m537b0e4b11" y="271.431301"/>
      </g>
     </g>
     <g id="text_4">
      <!-- 300 -->
      <g transform="translate(10.9125 282.828958)scale(0.3 -0.3)">
       <use xlink:href="#DejaVuSans-51"/>
       <use x="63.623047" xlink:href="#DejaVuSans-48"/>
       <use x="127.246094" xlink:href="#DejaVuSans-48"/>
      </g>
     </g>
    </g>
    <g id="ytick_2">
     <g id="line2d_5">
      <g>
       <use style="stroke:#000000;stroke-width:0.8;" x="75.175" xlink:href="#m537b0e4b11" y="154.860235"/>
      </g>
     </g>
     <g id="text_5">
      <!-- 600 -->
      <defs>
       <path d="M 33.015625 40.375 
Q 26.375 40.375 22.484375 35.828125 
Q 18.609375 31.296875 18.609375 23.390625 
Q 18.609375 15.53125 22.484375 10.953125 
Q 26.375 6.390625 33.015625 6.390625 
Q 39.65625 6.390625 43.53125 10.953125 
Q 47.40625 15.53125 47.40625 23.390625 
Q 47.40625 31.296875 43.53125 35.828125 
Q 39.65625 40.375 33.015625 40.375 
z
M 52.59375 71.296875 
L 52.59375 62.3125 
Q 48.875 64.0625 45.09375 64.984375 
Q 41.3125 65.921875 37.59375 65.921875 
Q 27.828125 65.921875 22.671875 59.328125 
Q 17.53125 52.734375 16.796875 39.40625 
Q 19.671875 43.65625 24.015625 45.921875 
Q 28.375 48.1875 33.59375 48.1875 
Q 44.578125 48.1875 50.953125 41.515625 
Q 57.328125 34.859375 57.328125 23.390625 
Q 57.328125 12.15625 50.6875 5.359375 
Q 44.046875 -1.421875 33.015625 -1.421875 
Q 20.359375 -1.421875 13.671875 8.265625 
Q 6.984375 17.96875 6.984375 36.375 
Q 6.984375 53.65625 15.1875 63.9375 
Q 23.390625 74.21875 37.203125 74.21875 
Q 40.921875 74.21875 44.703125 73.484375 
Q 48.484375 72.75 52.59375 71.296875 
z
" id="DejaVuSans-54"/>
      </defs>
      <g transform="translate(10.9125 166.257891)scale(0.3 -0.3)">
       <use xlink:href="#DejaVuSans-54"/>
       <use x="63.623047" xlink:href="#DejaVuSans-48"/>
       <use x="127.246094" xlink:href="#DejaVuSans-48"/>
      </g>
     </g>
    </g>
   </g>
   <g id="line2d_6">
    <path clip-path="url(#pb78e146a14)" d="M 109.954494 118.980171 
L 113.734874 118.140206 
L 117.515253 112.10762 
L 121.295633 110.122198 
L 132.636772 109.664044 
L 136.417152 110.351275 
L 140.197532 122.874601 
L 143.977912 120.81286 
L 147.758291 118.59836 
L 162.87981 119.285616 
L 166.66019 121.881902 
L 170.44057 118.951569 
L 174.22095 116.252591 
L 185.562089 116.483921 
L 189.342469 114.94164 
L 193.122849 111.471521 
L 196.903228 112.319764 
L 200.683608 115.327199 
L 212.024747 114.787436 
L 215.805127 115.404325 
L 219.585507 116.406795 
L 223.365887 107.153113 
L 227.146266 105.996414 
L 238.487406 110.391925 
L 246.048165 112.319764 
L 249.828545 115.944135 
L 253.608925 120.802306 
L 264.950064 117.949075 
L 268.730444 113.013778 
L 272.510824 109.466533 
L 276.291203 111.317293 
L 280.071583 108.078505 
L 295.193102 107.153113 
L 298.973482 108.078505 
L 302.753862 115.095868 
L 306.534241 115.867009 
L 317.875381 114.401854 
L 321.65576 113.476486 
L 325.43614 106.07354 
L 329.21652 103.682994 
L 332.9969 104.762614 
L 344.338039 103.991474 
L 348.118419 102.834751 
L 351.898799 101.523801 
L 355.679178 99.595963 
L 359.459558 98.97905 
L 370.800697 100.289977 
L 374.581077 102.449193 
L 378.361457 100.521331 
L 382.141837 88.8 
L 385.922216 93.889525 
L 397.263356 95.663136 
L 401.043735 96.66563 
L 404.824115 98.20791 
L 408.604495 99.133278 
L 412.384875 97.976556 
L 427.506394 99.441711 
L 431.286773 98.362138 
L 435.067153 96.341568 
L 438.847533 101.781552 
L 450.188672 102.403254 
L 453.969052 105.667254 
L 457.749432 109.475237 
L 461.529812 114.448931 
L 465.310191 113.594072 
L 476.651331 112.350643 
L 480.43171 112.272948 
L 484.21209 109.941526 
L 487.99247 110.019221 
L 491.77285 109.397518 
L 506.894369 104.268387 
L 510.674748 101.781552 
L 514.455128 104.035254 
L 518.235508 101.859247 
L 533.357027 101.315263 
L 537.137407 104.035254 
L 540.917787 103.413527 
L 544.698166 100.071833 
L 556.039306 97.42956 
L 559.819685 100.538122 
L 563.600065 99.605544 
L 567.380445 93.233007 
L 571.160825 92.688999 
L 582.501964 96.65242 
L 586.282344 95.253553 
L 590.062723 96.496982 
L 593.843103 94.864983 
L 597.623483 93.776991 
L 608.964622 96.186131 
L 612.745002 99.916395 
L 616.525382 100.693536 
L 620.305762 98.128982 
L 624.086141 96.419263 
L 635.427281 104.268387 
L 639.20766 104.656957 
L 642.98804 109.630651 
L 646.76842 106.677527 
L 650.5488 105.900386 
L 661.889939 110.252378 
L 665.670319 105.045527 
L 669.450698 105.278684 
L 673.231078 105.744949 
L 677.011458 112.195229 
L 688.352597 108.775816 
L 692.132977 108.775816 
L 695.913357 109.630651 
L 699.693737 115.381509 
L 703.474116 121.520914 
L 714.815256 115.381509 
L 718.595635 115.070634 
L 722.376015 113.827228 
L 726.156395 115.925493 
L 729.936775 115.303791 
L 741.277914 111.651221 
L 745.058294 111.495807 
L 748.838673 110.951799 
L 752.619053 107.29923 
L 756.399433 108.775816 
L 767.740572 109.941526 
L 775.301332 108.775816 
L 779.081712 385.2 
L 782.862091 111.418088 
L 794.203231 115.226072 
L 797.98361 100.693536 
L 801.76399 98.906122 
L 805.54437 102.014684 
L 805.54437 102.014684 
" style="fill:none;stroke:#000000;stroke-linecap:square;stroke-width:4;"/>
   </g>
   <g id="patch_3">
    <path d="M 75.175 385.2 
L 75.175 88.8 
" style="fill:none;stroke:#000000;stroke-linecap:square;stroke-linejoin:miter;stroke-width:0.8;"/>
   </g>
   <g id="patch_4">
    <path d="M 75.175 385.2 
L 840.323864 385.2 
" style="fill:none;stroke:#000000;stroke-linecap:square;stroke-linejoin:miter;stroke-width:0.8;"/>
   </g>
   <g id="text_6">
    <!-- INF   6% -->
    <defs>
     <path d="M 9.1875 72.90625 
L 27.984375 72.90625 
L 27.984375 0 
L 9.1875 0 
z
" id="DejaVuSans-Bold-73"/>
     <path d="M 9.1875 72.90625 
L 30.171875 72.90625 
L 56.6875 22.90625 
L 56.6875 72.90625 
L 74.515625 72.90625 
L 74.515625 0 
L 53.515625 0 
L 27 50 
L 27 0 
L 9.1875 0 
z
" id="DejaVuSans-Bold-78"/>
     <path d="M 9.1875 72.90625 
L 59.90625 72.90625 
L 59.90625 58.6875 
L 27.984375 58.6875 
L 27.984375 45.125 
L 58.015625 45.125 
L 58.015625 30.90625 
L 27.984375 30.90625 
L 27.984375 0 
L 9.1875 0 
z
" id="DejaVuSans-Bold-70"/>
     <path id="DejaVuSans-Bold-32"/>
     <path d="M 36.1875 35.984375 
Q 31.25 35.984375 28.78125 32.78125 
Q 26.3125 29.59375 26.3125 23.1875 
Q 26.3125 16.796875 28.78125 13.59375 
Q 31.25 10.40625 36.1875 10.40625 
Q 41.15625 10.40625 43.625 13.59375 
Q 46.09375 16.796875 46.09375 23.1875 
Q 46.09375 29.59375 43.625 32.78125 
Q 41.15625 35.984375 36.1875 35.984375 
z
M 59.421875 71 
L 59.421875 57.515625 
Q 54.78125 59.71875 50.671875 60.765625 
Q 46.578125 61.8125 42.671875 61.8125 
Q 34.28125 61.8125 29.59375 57.140625 
Q 24.90625 52.484375 24.125 43.3125 
Q 27.34375 45.703125 31.09375 46.890625 
Q 34.859375 48.09375 39.3125 48.09375 
Q 50.484375 48.09375 57.34375 41.546875 
Q 64.203125 35.015625 64.203125 24.421875 
Q 64.203125 12.703125 56.53125 5.640625 
Q 48.875 -1.421875 35.984375 -1.421875 
Q 21.78125 -1.421875 13.984375 8.171875 
Q 6.203125 17.78125 6.203125 35.40625 
Q 6.203125 53.46875 15.3125 63.796875 
Q 24.421875 74.125 40.28125 74.125 
Q 45.3125 74.125 50.046875 73.34375 
Q 54.78125 72.5625 59.421875 71 
z
" id="DejaVuSans-Bold-54"/>
     <path d="M 77.484375 30.078125 
Q 74.03125 30.078125 72.125 27.078125 
Q 70.21875 24.078125 70.21875 18.5 
Q 70.21875 12.890625 72.09375 9.890625 
Q 73.96875 6.890625 77.484375 6.890625 
Q 81 6.890625 82.859375 9.890625 
Q 84.71875 12.890625 84.71875 18.5 
Q 84.71875 24.078125 82.828125 27.078125 
Q 80.953125 30.078125 77.484375 30.078125 
z
M 77.484375 38.28125 
Q 86.578125 38.28125 91.796875 33 
Q 97.015625 27.734375 97.015625 18.5 
Q 97.015625 9.28125 91.796875 3.921875 
Q 86.578125 -1.421875 77.484375 -1.421875 
Q 68.40625 -1.421875 63.15625 3.921875 
Q 57.90625 9.28125 57.90625 18.5 
Q 57.90625 27.6875 63.15625 32.984375 
Q 68.40625 38.28125 77.484375 38.28125 
z
M 32.71875 -1.421875 
L 21.921875 -1.421875 
L 67.484375 74.21875 
L 78.328125 74.21875 
z
M 22.703125 74.21875 
Q 31.78125 74.21875 36.984375 68.921875 
Q 42.1875 63.625 42.1875 54.390625 
Q 42.1875 45.171875 36.984375 39.84375 
Q 31.78125 34.515625 22.703125 34.515625 
Q 13.625 34.515625 8.421875 39.84375 
Q 3.21875 45.171875 3.21875 54.390625 
Q 3.21875 63.625 8.421875 68.921875 
Q 13.625 74.21875 22.703125 74.21875 
z
M 22.703125 66.015625 
Q 19.1875 66.015625 17.28125 62.984375 
Q 15.375 59.96875 15.375 54.390625 
Q 15.375 48.78125 17.28125 45.71875 
Q 19.1875 42.671875 22.703125 42.671875 
Q 26.21875 42.671875 28.09375 45.71875 
Q 29.984375 48.78125 29.984375 54.390625 
Q 29.984375 59.96875 28.078125 62.984375 
Q 26.171875 66.015625 22.703125 66.015625 
z
" id="DejaVuSans-Bold-37"/>
    </defs>
    <g transform="translate(75.175 72.1625)scale(0.8 -0.8)">
     <use xlink:href="#DejaVuSans-Bold-73"/>
     <use x="37.207031" xlink:href="#DejaVuSans-Bold-78"/>
     <use x="120.898438" xlink:href="#DejaVuSans-Bold-70"/>
     <use x="189.208984" xlink:href="#DejaVuSans-Bold-32"/>
     <use x="224.023438" xlink:href="#DejaVuSans-Bold-32"/>
     <use x="258.837891" xlink:href="#DejaVuSans-Bold-32"/>
     <use x="293.652344" xlink:href="#DejaVuSans-Bold-54"/>
     <use x="363.232422" xlink:href="#DejaVuSans-Bold-37"/>
    </g>
   </g>
  </g>
 </g>
 <defs>
  <clipPath id="pb78e146a14">
   <rect height="296.4" width="765.148864" x="75.175" y="88.8"/>
  </clipPath>
 </defs>
</svg>
