<?xml version="1.0" encoding="utf-8" standalone="no"?>
<!DOCTYPE svg PUBLIC "-//W3C//DTD SVG 1.1//EN"
  "http://www.w3.org/Graphics/SVG/1.1/DTD/svg11.dtd">
<!-- Created with matplotlib (https://matplotlib.org/) -->
<svg height="432pt" version="1.1" viewBox="0 0 864 432" width="864pt" xmlns="http://www.w3.org/2000/svg" xmlns:xlink="http://www.w3.org/1999/xlink">
 <defs>
  <style type="text/css">
*{stroke-linecap:butt;stroke-linejoin:round;}
  </style>
 </defs>
 <g id="figure_1">
  <g id="patch_1">
   <path d="M 0 432 
L 864 432 
L 864 0 
L 0 0 
z
" style="fill:none;"/>
  </g>
  <g id="axes_1">
   <g id="patch_2">
    <path d="M 75.175 385.2 
L 840.323864 385.2 
L 840.323864 88.8 
L 75.175 88.8 
z
" style="fill:none;"/>
   </g>
   <g id="PolyCollection_1">
    <path clip-path="url(#p15d8b015c7)" d="M 109.954494 2691.430069 
L 109.954494 344.017368 
L 113.734874 291.542757 
L 117.515253 274.272442 
L 128.856393 270.286953 
L 132.636772 276.26529 
L 136.417152 385.2 
L 140.197532 367.265608 
L 143.977912 348.002857 
L 159.099431 353.980782 
L 162.87981 376.564945 
L 166.66019 351.075267 
L 170.44057 327.598036 
L 181.781709 329.610275 
L 185.562089 316.194655 
L 189.342469 286.009614 
L 193.122849 293.388101 
L 196.903228 319.548457 
L 208.244368 314.8533 
L 212.024747 320.219341 
L 215.805127 328.939391 
L 219.585507 248.445671 
L 223.365887 238.38406 
L 234.707026 276.61868 
L 238.487406 285.338729 
L 242.267785 293.388101 
L 246.048165 324.914912 
L 249.828545 367.174011 
L 261.169684 342.355011 
L 264.950064 299.425027 
L 268.730444 268.569101 
L 272.510824 284.668052 
L 276.291203 256.49525 
L 287.632343 249.78744 
L 291.412722 248.445671 
L 295.193102 256.49525 
L 298.973482 317.536217 
L 302.753862 324.244027 
L 314.095001 311.499292 
L 317.875381 303.44992 
L 321.65576 239.054944 
L 325.43614 218.26063 
L 329.21652 227.65177 
L 340.557659 220.94396 
L 344.338039 210.882142 
L 348.118419 199.478762 
L 351.898799 182.70934 
L 355.679178 177.343092 
L 367.020318 188.746266 
L 370.800697 207.52834 
L 374.581077 190.758712 
L 378.361457 88.8 
L 382.141837 133.071546 
L 393.482976 148.499406 
L 397.263356 157.219662 
L 401.043735 170.635282 
L 404.824115 178.684654 
L 408.604495 168.622836 
L 419.945634 178.01377 
L 423.726014 181.367572 
L 427.506394 171.976844 
L 431.286773 154.400793 
L 435.067153 201.720819 
L 446.408293 207.128739 
L 450.188672 235.520837 
L 453.969052 268.644813 
L 457.749432 311.908795 
L 461.529812 304.47275 
L 472.870951 293.656703 
L 476.651331 292.980867 
L 480.43171 272.700857 
L 484.21209 273.376692 
L 487.99247 267.968771 
L 503.113989 223.352706 
L 506.894369 201.720819 
L 510.674748 221.324788 
L 514.455128 202.396654 
L 525.796268 199.016652 
L 529.576647 197.664775 
L 533.357027 221.324788 
L 537.137407 215.916661 
L 540.917787 186.848728 
L 552.258926 163.864757 
L 556.039306 190.904771 
L 559.819685 182.792685 
L 563.600065 127.360779 
L 567.380445 122.628694 
L 578.721584 157.104753 
L 582.501964 144.936623 
L 586.282344 155.75267 
L 590.062723 141.556621 
L 593.843103 132.092657 
L 605.184242 153.04871 
L 608.964622 185.496645 
L 612.745002 192.256648 
L 616.525382 169.948719 
L 620.305762 155.076629 
L 631.646901 223.352706 
L 635.427281 226.732708 
L 639.20766 269.99669 
L 642.98804 244.308759 
L 646.76842 237.548755 
L 658.109559 275.404817 
L 661.889939 230.11271 
L 665.670319 232.140835 
L 669.450698 236.196672 
L 673.231078 292.304826 
L 684.572217 262.560851 
L 688.352597 262.560851 
L 692.132977 269.99669 
L 695.913357 320.020882 
L 699.693737 373.424869 
L 711.034876 320.020882 
L 714.815256 317.316715 
L 718.595635 306.500875 
L 722.376015 324.752761 
L 726.156395 319.34484 
L 737.497534 287.572741 
L 741.277914 286.220864 
L 745.058294 281.488779 
L 748.838673 249.716679 
L 752.619053 262.560851 
L 763.960192 272.700857 
L 767.740572 267.968771 
L 771.520952 262.560851 
L 775.301332 253.772723 
L 779.081712 285.544822 
L 790.422851 318.668799 
L 794.203231 192.256648 
L 797.98361 176.708723 
L 801.76399 203.748737 
L 805.54437 168.596636 
L 805.54437 2691.430069 
L 805.54437 2691.430069 
L 801.76399 2691.430069 
L 797.98361 2691.430069 
L 794.203231 2691.430069 
L 790.422851 2691.430069 
L 779.081712 2691.430069 
L 775.301332 2691.430069 
L 771.520952 2691.430069 
L 767.740572 2691.430069 
L 763.960192 2691.430069 
L 752.619053 2691.430069 
L 748.838673 2691.430069 
L 745.058294 2691.430069 
L 741.277914 2691.430069 
L 737.497534 2691.430069 
L 726.156395 2691.430069 
L 722.376015 2691.430069 
L 718.595635 2691.430069 
L 714.815256 2691.430069 
L 711.034876 2691.430069 
L 699.693737 2691.430069 
L 695.913357 2691.430069 
L 692.132977 2691.430069 
L 688.352597 2691.430069 
L 684.572217 2691.430069 
L 673.231078 2691.430069 
L 669.450698 2691.430069 
L 665.670319 2691.430069 
L 661.889939 2691.430069 
L 658.109559 2691.430069 
L 646.76842 2691.430069 
L 642.98804 2691.430069 
L 639.20766 2691.430069 
L 635.427281 2691.430069 
L 631.646901 2691.430069 
L 620.305762 2691.430069 
L 616.525382 2691.430069 
L 612.745002 2691.430069 
L 608.964622 2691.430069 
L 605.184242 2691.430069 
L 593.843103 2691.430069 
L 590.062723 2691.430069 
L 586.282344 2691.430069 
L 582.501964 2691.430069 
L 578.721584 2691.430069 
L 567.380445 2691.430069 
L 563.600065 2691.430069 
L 559.819685 2691.430069 
L 556.039306 2691.430069 
L 552.258926 2691.430069 
L 540.917787 2691.430069 
L 537.137407 2691.430069 
L 533.357027 2691.430069 
L 529.576647 2691.430069 
L 525.796268 2691.430069 
L 514.455128 2691.430069 
L 510.674748 2691.430069 
L 506.894369 2691.430069 
L 503.113989 2691.430069 
L 487.99247 2691.430069 
L 484.21209 2691.430069 
L 480.43171 2691.430069 
L 476.651331 2691.430069 
L 472.870951 2691.430069 
L 461.529812 2691.430069 
L 457.749432 2691.430069 
L 453.969052 2691.430069 
L 450.188672 2691.430069 
L 446.408293 2691.430069 
L 435.067153 2691.430069 
L 431.286773 2691.430069 
L 427.506394 2691.430069 
L 423.726014 2691.430069 
L 419.945634 2691.430069 
L 408.604495 2691.430069 
L 404.824115 2691.430069 
L 401.043735 2691.430069 
L 397.263356 2691.430069 
L 393.482976 2691.430069 
L 382.141837 2691.430069 
L 378.361457 2691.430069 
L 374.581077 2691.430069 
L 370.800697 2691.430069 
L 367.020318 2691.430069 
L 355.679178 2691.430069 
L 351.898799 2691.430069 
L 348.118419 2691.430069 
L 344.338039 2691.430069 
L 340.557659 2691.430069 
L 329.21652 2691.430069 
L 325.43614 2691.430069 
L 321.65576 2691.430069 
L 317.875381 2691.430069 
L 314.095001 2691.430069 
L 302.753862 2691.430069 
L 298.973482 2691.430069 
L 295.193102 2691.430069 
L 291.412722 2691.430069 
L 287.632343 2691.430069 
L 276.291203 2691.430069 
L 272.510824 2691.430069 
L 268.730444 2691.430069 
L 264.950064 2691.430069 
L 261.169684 2691.430069 
L 249.828545 2691.430069 
L 246.048165 2691.430069 
L 242.267785 2691.430069 
L 238.487406 2691.430069 
L 234.707026 2691.430069 
L 223.365887 2691.430069 
L 219.585507 2691.430069 
L 215.805127 2691.430069 
L 212.024747 2691.430069 
L 208.244368 2691.430069 
L 196.903228 2691.430069 
L 193.122849 2691.430069 
L 189.342469 2691.430069 
L 185.562089 2691.430069 
L 181.781709 2691.430069 
L 170.44057 2691.430069 
L 166.66019 2691.430069 
L 162.87981 2691.430069 
L 159.099431 2691.430069 
L 143.977912 2691.430069 
L 140.197532 2691.430069 
L 136.417152 2691.430069 
L 132.636772 2691.430069 
L 128.856393 2691.430069 
L 117.515253 2691.430069 
L 113.734874 2691.430069 
L 109.954494 2691.430069 
z
" style="fill:#0000ff;fill-opacity:0.1;stroke:#0000ff;stroke-opacity:0.1;"/>
   </g>
   <g id="matplotlib.axis_1">
    <g id="xtick_1">
     <g id="line2d_1">
      <defs>
       <path d="M 0 0 
L 0 3.5 
" id="m49a9792a05" style="stroke:#000000;stroke-width:0.8;"/>
      </defs>
      <g>
       <use style="stroke:#000000;stroke-width:0.8;" x="109.954494" xlink:href="#m49a9792a05" y="385.2"/>
      </g>
     </g>
     <g id="text_1">
      <!-- 05/23 -->
      <defs>
       <path d="M 31.78125 66.40625 
Q 24.171875 66.40625 20.328125 58.90625 
Q 16.5 51.421875 16.5 36.375 
Q 16.5 21.390625 20.328125 13.890625 
Q 24.171875 6.390625 31.78125 6.390625 
Q 39.453125 6.390625 43.28125 13.890625 
Q 47.125 21.390625 47.125 36.375 
Q 47.125 51.421875 43.28125 58.90625 
Q 39.453125 66.40625 31.78125 66.40625 
z
M 31.78125 74.21875 
Q 44.046875 74.21875 50.515625 64.515625 
Q 56.984375 54.828125 56.984375 36.375 
Q 56.984375 17.96875 50.515625 8.265625 
Q 44.046875 -1.421875 31.78125 -1.421875 
Q 19.53125 -1.421875 13.0625 8.265625 
Q 6.59375 17.96875 6.59375 36.375 
Q 6.59375 54.828125 13.0625 64.515625 
Q 19.53125 74.21875 31.78125 74.21875 
z
" id="DejaVuSans-48"/>
       <path d="M 10.796875 72.90625 
L 49.515625 72.90625 
L 49.515625 64.59375 
L 19.828125 64.59375 
L 19.828125 46.734375 
Q 21.96875 47.46875 24.109375 47.828125 
Q 26.265625 48.1875 28.421875 48.1875 
Q 40.625 48.1875 47.75 41.5 
Q 54.890625 34.8125 54.890625 23.390625 
Q 54.890625 11.625 47.5625 5.09375 
Q 40.234375 -1.421875 26.90625 -1.421875 
Q 22.3125 -1.421875 17.546875 -0.640625 
Q 12.796875 0.140625 7.71875 1.703125 
L 7.71875 11.625 
Q 12.109375 9.234375 16.796875 8.0625 
Q 21.484375 6.890625 26.703125 6.890625 
Q 35.15625 6.890625 40.078125 11.328125 
Q 45.015625 15.765625 45.015625 23.390625 
Q 45.015625 31 40.078125 35.4375 
Q 35.15625 39.890625 26.703125 39.890625 
Q 22.75 39.890625 18.8125 39.015625 
Q 14.890625 38.140625 10.796875 36.28125 
z
" id="DejaVuSans-53"/>
       <path d="M 25.390625 72.90625 
L 33.6875 72.90625 
L 8.296875 -9.28125 
L 0 -9.28125 
z
" id="DejaVuSans-47"/>
       <path d="M 19.1875 8.296875 
L 53.609375 8.296875 
L 53.609375 0 
L 7.328125 0 
L 7.328125 8.296875 
Q 12.9375 14.109375 22.625 23.890625 
Q 32.328125 33.6875 34.8125 36.53125 
Q 39.546875 41.84375 41.421875 45.53125 
Q 43.3125 49.21875 43.3125 52.78125 
Q 43.3125 58.59375 39.234375 62.25 
Q 35.15625 65.921875 28.609375 65.921875 
Q 23.96875 65.921875 18.8125 64.3125 
Q 13.671875 62.703125 7.8125 59.421875 
L 7.8125 69.390625 
Q 13.765625 71.78125 18.9375 73 
Q 24.125 74.21875 28.421875 74.21875 
Q 39.75 74.21875 46.484375 68.546875 
Q 53.21875 62.890625 53.21875 53.421875 
Q 53.21875 48.921875 51.53125 44.890625 
Q 49.859375 40.875 45.40625 35.40625 
Q 44.1875 33.984375 37.640625 27.21875 
Q 31.109375 20.453125 19.1875 8.296875 
z
" id="DejaVuSans-50"/>
       <path d="M 40.578125 39.3125 
Q 47.65625 37.796875 51.625 33 
Q 55.609375 28.21875 55.609375 21.1875 
Q 55.609375 10.40625 48.1875 4.484375 
Q 40.765625 -1.421875 27.09375 -1.421875 
Q 22.515625 -1.421875 17.65625 -0.515625 
Q 12.796875 0.390625 7.625 2.203125 
L 7.625 11.71875 
Q 11.71875 9.328125 16.59375 8.109375 
Q 21.484375 6.890625 26.8125 6.890625 
Q 36.078125 6.890625 40.9375 10.546875 
Q 45.796875 14.203125 45.796875 21.1875 
Q 45.796875 27.640625 41.28125 31.265625 
Q 36.765625 34.90625 28.71875 34.90625 
L 20.21875 34.90625 
L 20.21875 43.015625 
L 29.109375 43.015625 
Q 36.375 43.015625 40.234375 45.921875 
Q 44.09375 48.828125 44.09375 54.296875 
Q 44.09375 59.90625 40.109375 62.90625 
Q 36.140625 65.921875 28.71875 65.921875 
Q 24.65625 65.921875 20.015625 65.03125 
Q 15.375 64.15625 9.8125 62.3125 
L 9.8125 71.09375 
Q 15.4375 72.65625 20.34375 73.4375 
Q 25.25 74.21875 29.59375 74.21875 
Q 40.828125 74.21875 47.359375 69.109375 
Q 53.90625 64.015625 53.90625 55.328125 
Q 53.90625 49.265625 50.4375 45.09375 
Q 46.96875 40.921875 40.578125 39.3125 
z
" id="DejaVuSans-51"/>
      </defs>
      <g transform="translate(66.726369 414.995312)scale(0.3 -0.3)">
       <use xlink:href="#DejaVuSans-48"/>
       <use x="63.623047" xlink:href="#DejaVuSans-53"/>
       <use x="127.246094" xlink:href="#DejaVuSans-47"/>
       <use x="160.9375" xlink:href="#DejaVuSans-50"/>
       <use x="224.560547" xlink:href="#DejaVuSans-51"/>
      </g>
     </g>
    </g>
    <g id="xtick_2">
     <g id="line2d_2">
      <g>
       <use style="stroke:#000000;stroke-width:0.8;" x="457.749432" xlink:href="#m49a9792a05" y="385.2"/>
      </g>
     </g>
     <g id="text_2">
      <!-- 08/23 -->
      <defs>
       <path d="M 31.78125 34.625 
Q 24.75 34.625 20.71875 30.859375 
Q 16.703125 27.09375 16.703125 20.515625 
Q 16.703125 13.921875 20.71875 10.15625 
Q 24.75 6.390625 31.78125 6.390625 
Q 38.8125 6.390625 42.859375 10.171875 
Q 46.921875 13.96875 46.921875 20.515625 
Q 46.921875 27.09375 42.890625 30.859375 
Q 38.875 34.625 31.78125 34.625 
z
M 21.921875 38.8125 
Q 15.578125 40.375 12.03125 44.71875 
Q 8.5 49.078125 8.5 55.328125 
Q 8.5 64.0625 14.71875 69.140625 
Q 20.953125 74.21875 31.78125 74.21875 
Q 42.671875 74.21875 48.875 69.140625 
Q 55.078125 64.0625 55.078125 55.328125 
Q 55.078125 49.078125 51.53125 44.71875 
Q 48 40.375 41.703125 38.8125 
Q 48.828125 37.15625 52.796875 32.3125 
Q 56.78125 27.484375 56.78125 20.515625 
Q 56.78125 9.90625 50.3125 4.234375 
Q 43.84375 -1.421875 31.78125 -1.421875 
Q 19.734375 -1.421875 13.25 4.234375 
Q 6.78125 9.90625 6.78125 20.515625 
Q 6.78125 27.484375 10.78125 32.3125 
Q 14.796875 37.15625 21.921875 38.8125 
z
M 18.3125 54.390625 
Q 18.3125 48.734375 21.84375 45.5625 
Q 25.390625 42.390625 31.78125 42.390625 
Q 38.140625 42.390625 41.71875 45.5625 
Q 45.3125 48.734375 45.3125 54.390625 
Q 45.3125 60.0625 41.71875 63.234375 
Q 38.140625 66.40625 31.78125 66.40625 
Q 25.390625 66.40625 21.84375 63.234375 
Q 18.3125 60.0625 18.3125 54.390625 
z
" id="DejaVuSans-56"/>
      </defs>
      <g transform="translate(414.521307 414.995312)scale(0.3 -0.3)">
       <use xlink:href="#DejaVuSans-48"/>
       <use x="63.623047" xlink:href="#DejaVuSans-56"/>
       <use x="127.246094" xlink:href="#DejaVuSans-47"/>
       <use x="160.9375" xlink:href="#DejaVuSans-50"/>
       <use x="224.560547" xlink:href="#DejaVuSans-51"/>
      </g>
     </g>
    </g>
    <g id="xtick_3">
     <g id="line2d_3">
      <g>
       <use style="stroke:#000000;stroke-width:0.8;" x="805.54437" xlink:href="#m49a9792a05" y="385.2"/>
      </g>
     </g>
     <g id="text_3">
      <!-- 11/23 -->
      <defs>
       <path d="M 12.40625 8.296875 
L 28.515625 8.296875 
L 28.515625 63.921875 
L 10.984375 60.40625 
L 10.984375 69.390625 
L 28.421875 72.90625 
L 38.28125 72.90625 
L 38.28125 8.296875 
L 54.390625 8.296875 
L 54.390625 0 
L 12.40625 0 
z
" id="DejaVuSans-49"/>
      </defs>
      <g transform="translate(762.316245 414.995312)scale(0.3 -0.3)">
       <use xlink:href="#DejaVuSans-49"/>
       <use x="63.623047" xlink:href="#DejaVuSans-49"/>
       <use x="127.246094" xlink:href="#DejaVuSans-47"/>
       <use x="160.9375" xlink:href="#DejaVuSans-50"/>
       <use x="224.560547" xlink:href="#DejaVuSans-51"/>
      </g>
     </g>
    </g>
   </g>
   <g id="matplotlib.axis_2">
    <g id="ytick_1">
     <g id="line2d_4">
      <defs>
       <path d="M 0 0 
L -3.5 0 
" id="mf339fa0872" style="stroke:#000000;stroke-width:0.8;"/>
      </defs>
      <g>
       <use style="stroke:#000000;stroke-width:0.8;" x="75.175" xlink:href="#mf339fa0872" y="359.22882"/>
      </g>
     </g>
     <g id="text_4">
      <!-- 690 -->
      <defs>
       <path d="M 33.015625 40.375 
Q 26.375 40.375 22.484375 35.828125 
Q 18.609375 31.296875 18.609375 23.390625 
Q 18.609375 15.53125 22.484375 10.953125 
Q 26.375 6.390625 33.015625 6.390625 
Q 39.65625 6.390625 43.53125 10.953125 
Q 47.40625 15.53125 47.40625 23.390625 
Q 47.40625 31.296875 43.53125 35.828125 
Q 39.65625 40.375 33.015625 40.375 
z
M 52.59375 71.296875 
L 52.59375 62.3125 
Q 48.875 64.0625 45.09375 64.984375 
Q 41.3125 65.921875 37.59375 65.921875 
Q 27.828125 65.921875 22.671875 59.328125 
Q 17.53125 52.734375 16.796875 39.40625 
Q 19.671875 43.65625 24.015625 45.921875 
Q 28.375 48.1875 33.59375 48.1875 
Q 44.578125 48.1875 50.953125 41.515625 
Q 57.328125 34.859375 57.328125 23.390625 
Q 57.328125 12.15625 50.6875 5.359375 
Q 44.046875 -1.421875 33.015625 -1.421875 
Q 20.359375 -1.421875 13.671875 8.265625 
Q 6.984375 17.96875 6.984375 36.375 
Q 6.984375 53.65625 15.1875 63.9375 
Q 23.390625 74.21875 37.203125 74.21875 
Q 40.921875 74.21875 44.703125 73.484375 
Q 48.484375 72.75 52.59375 71.296875 
z
" id="DejaVuSans-54"/>
       <path d="M 10.984375 1.515625 
L 10.984375 10.5 
Q 14.703125 8.734375 18.5 7.8125 
Q 22.3125 6.890625 25.984375 6.890625 
Q 35.75 6.890625 40.890625 13.453125 
Q 46.046875 20.015625 46.78125 33.40625 
Q 43.953125 29.203125 39.59375 26.953125 
Q 35.25 24.703125 29.984375 24.703125 
Q 19.046875 24.703125 12.671875 31.3125 
Q 6.296875 37.9375 6.296875 49.421875 
Q 6.296875 60.640625 12.9375 67.421875 
Q 19.578125 74.21875 30.609375 74.21875 
Q 43.265625 74.21875 49.921875 64.515625 
Q 56.59375 54.828125 56.59375 36.375 
Q 56.59375 19.140625 48.40625 8.859375 
Q 40.234375 -1.421875 26.421875 -1.421875 
Q 22.703125 -1.421875 18.890625 -0.6875 
Q 15.09375 0.046875 10.984375 1.515625 
z
M 30.609375 32.421875 
Q 37.25 32.421875 41.125 36.953125 
Q 45.015625 41.5 45.015625 49.421875 
Q 45.015625 57.28125 41.125 61.84375 
Q 37.25 66.40625 30.609375 66.40625 
Q 23.96875 66.40625 20.09375 61.84375 
Q 16.21875 57.28125 16.21875 49.421875 
Q 16.21875 41.5 20.09375 36.953125 
Q 23.96875 32.421875 30.609375 32.421875 
z
" id="DejaVuSans-57"/>
      </defs>
      <g transform="translate(10.9125 370.626477)scale(0.3 -0.3)">
       <use xlink:href="#DejaVuSans-54"/>
       <use x="63.623047" xlink:href="#DejaVuSans-57"/>
       <use x="127.246094" xlink:href="#DejaVuSans-48"/>
      </g>
     </g>
    </g>
    <g id="ytick_2">
     <g id="line2d_5">
      <g>
       <use style="stroke:#000000;stroke-width:0.8;" x="75.175" xlink:href="#mf339fa0872" y="257.828766"/>
      </g>
     </g>
     <g id="text_5">
      <!-- 720 -->
      <defs>
       <path d="M 8.203125 72.90625 
L 55.078125 72.90625 
L 55.078125 68.703125 
L 28.609375 0 
L 18.3125 0 
L 43.21875 64.59375 
L 8.203125 64.59375 
z
" id="DejaVuSans-55"/>
      </defs>
      <g transform="translate(10.9125 269.226422)scale(0.3 -0.3)">
       <use xlink:href="#DejaVuSans-55"/>
       <use x="63.623047" xlink:href="#DejaVuSans-50"/>
       <use x="127.246094" xlink:href="#DejaVuSans-48"/>
      </g>
     </g>
    </g>
    <g id="ytick_3">
     <g id="line2d_6">
      <g>
       <use style="stroke:#000000;stroke-width:0.8;" x="75.175" xlink:href="#mf339fa0872" y="156.428712"/>
      </g>
     </g>
     <g id="text_6">
      <!-- 750 -->
      <g transform="translate(10.9125 167.826368)scale(0.3 -0.3)">
       <use xlink:href="#DejaVuSans-55"/>
       <use x="63.623047" xlink:href="#DejaVuSans-53"/>
       <use x="127.246094" xlink:href="#DejaVuSans-48"/>
      </g>
     </g>
    </g>
   </g>
   <g id="line2d_7">
    <path clip-path="url(#p15d8b015c7)" d="M 109.954494 344.017368 
L 113.734874 291.542757 
L 117.515253 274.272442 
L 128.856393 270.286953 
L 132.636772 276.26529 
L 136.417152 385.2 
L 140.197532 367.265608 
L 143.977912 348.002857 
L 159.099431 353.980782 
L 162.87981 376.564945 
L 166.66019 351.075267 
L 170.44057 327.598036 
L 181.781709 329.610275 
L 185.562089 316.194655 
L 189.342469 286.009614 
L 193.122849 293.388101 
L 196.903228 319.548457 
L 208.244368 314.8533 
L 212.024747 320.219341 
L 215.805127 328.939391 
L 219.585507 248.445671 
L 223.365887 238.38406 
L 234.707026 276.61868 
L 238.487406 285.338729 
L 242.267785 293.388101 
L 246.048165 324.914912 
L 249.828545 367.174011 
L 261.169684 342.355011 
L 264.950064 299.425027 
L 268.730444 268.569101 
L 272.510824 284.668052 
L 276.291203 256.49525 
L 287.632343 249.78744 
L 291.412722 248.445671 
L 295.193102 256.49525 
L 298.973482 317.536217 
L 302.753862 324.244027 
L 314.095001 311.499292 
L 317.875381 303.44992 
L 321.65576 239.054944 
L 325.43614 218.26063 
L 329.21652 227.65177 
L 340.557659 220.94396 
L 344.338039 210.882142 
L 348.118419 199.478762 
L 351.898799 182.70934 
L 355.679178 177.343092 
L 367.020318 188.746266 
L 370.800697 207.52834 
L 374.581077 190.758712 
L 378.361457 88.8 
L 382.141837 133.071546 
L 393.482976 148.499406 
L 397.263356 157.219662 
L 401.043735 170.635282 
L 404.824115 178.684654 
L 408.604495 168.622836 
L 419.945634 178.01377 
L 423.726014 181.367572 
L 427.506394 171.976844 
L 431.286773 154.400793 
L 435.067153 201.720819 
L 446.408293 207.128739 
L 450.188672 235.520837 
L 453.969052 268.644813 
L 457.749432 311.908795 
L 461.529812 304.47275 
L 472.870951 293.656703 
L 476.651331 292.980867 
L 480.43171 272.700857 
L 484.21209 273.376692 
L 487.99247 267.968771 
L 503.113989 223.352706 
L 506.894369 201.720819 
L 510.674748 221.324788 
L 514.455128 202.396654 
L 525.796268 199.016652 
L 529.576647 197.664775 
L 533.357027 221.324788 
L 537.137407 215.916661 
L 540.917787 186.848728 
L 552.258926 163.864757 
L 556.039306 190.904771 
L 559.819685 182.792685 
L 563.600065 127.360779 
L 567.380445 122.628694 
L 578.721584 157.104753 
L 582.501964 144.936623 
L 586.282344 155.75267 
L 590.062723 141.556621 
L 593.843103 132.092657 
L 605.184242 153.04871 
L 608.964622 185.496645 
L 612.745002 192.256648 
L 616.525382 169.948719 
L 620.305762 155.076629 
L 631.646901 223.352706 
L 635.427281 226.732708 
L 639.20766 269.99669 
L 642.98804 244.308759 
L 646.76842 237.548755 
L 658.109559 275.404817 
L 661.889939 230.11271 
L 665.670319 232.140835 
L 669.450698 236.196672 
L 673.231078 292.304826 
L 684.572217 262.560851 
L 688.352597 262.560851 
L 692.132977 269.99669 
L 695.913357 320.020882 
L 699.693737 373.424869 
L 711.034876 320.020882 
L 714.815256 317.316715 
L 718.595635 306.500875 
L 722.376015 324.752761 
L 726.156395 319.34484 
L 737.497534 287.572741 
L 741.277914 286.220864 
L 745.058294 281.488779 
L 748.838673 249.716679 
L 752.619053 262.560851 
L 763.960192 272.700857 
L 767.740572 267.968771 
L 771.520952 262.560851 
L 775.301332 253.772723 
L 779.081712 285.544822 
L 790.422851 318.668799 
L 794.203231 192.256648 
L 797.98361 176.708723 
L 801.76399 203.748737 
L 805.54437 168.596636 
L 805.54437 168.596636 
" style="fill:none;stroke:#000000;stroke-linecap:square;stroke-width:4;"/>
   </g>
   <g id="patch_3">
    <path d="M 75.175 385.2 
L 75.175 88.8 
" style="fill:none;stroke:#000000;stroke-linecap:square;stroke-linejoin:miter;stroke-width:0.8;"/>
   </g>
   <g id="patch_4">
    <path d="M 75.175 385.2 
L 840.323864 385.2 
" style="fill:none;stroke:#000000;stroke-linecap:square;stroke-linejoin:miter;stroke-width:0.8;"/>
   </g>
   <g id="text_7">
    <!-- INF   7% -->
    <defs>
     <path d="M 9.1875 72.90625 
L 27.984375 72.90625 
L 27.984375 0 
L 9.1875 0 
z
" id="DejaVuSans-Bold-73"/>
     <path d="M 9.1875 72.90625 
L 30.171875 72.90625 
L 56.6875 22.90625 
L 56.6875 72.90625 
L 74.515625 72.90625 
L 74.515625 0 
L 53.515625 0 
L 27 50 
L 27 0 
L 9.1875 0 
z
" id="DejaVuSans-Bold-78"/>
     <path d="M 9.1875 72.90625 
L 59.90625 72.90625 
L 59.90625 58.6875 
L 27.984375 58.6875 
L 27.984375 45.125 
L 58.015625 45.125 
L 58.015625 30.90625 
L 27.984375 30.90625 
L 27.984375 0 
L 9.1875 0 
z
" id="DejaVuSans-Bold-70"/>
     <path id="DejaVuSans-Bold-32"/>
     <path d="M 6.6875 72.90625 
L 61.625 72.90625 
L 61.625 62.3125 
L 33.203125 0 
L 14.890625 0 
L 41.796875 59.078125 
L 6.6875 59.078125 
z
" id="DejaVuSans-Bold-55"/>
     <path d="M 77.484375 30.078125 
Q 74.03125 30.078125 72.125 27.078125 
Q 70.21875 24.078125 70.21875 18.5 
Q 70.21875 12.890625 72.09375 9.890625 
Q 73.96875 6.890625 77.484375 6.890625 
Q 81 6.890625 82.859375 9.890625 
Q 84.71875 12.890625 84.71875 18.5 
Q 84.71875 24.078125 82.828125 27.078125 
Q 80.953125 30.078125 77.484375 30.078125 
z
M 77.484375 38.28125 
Q 86.578125 38.28125 91.796875 33 
Q 97.015625 27.734375 97.015625 18.5 
Q 97.015625 9.28125 91.796875 3.921875 
Q 86.578125 -1.421875 77.484375 -1.421875 
Q 68.40625 -1.421875 63.15625 3.921875 
Q 57.90625 9.28125 57.90625 18.5 
Q 57.90625 27.6875 63.15625 32.984375 
Q 68.40625 38.28125 77.484375 38.28125 
z
M 32.71875 -1.421875 
L 21.921875 -1.421875 
L 67.484375 74.21875 
L 78.328125 74.21875 
z
M 22.703125 74.21875 
Q 31.78125 74.21875 36.984375 68.921875 
Q 42.1875 63.625 42.1875 54.390625 
Q 42.1875 45.171875 36.984375 39.84375 
Q 31.78125 34.515625 22.703125 34.515625 
Q 13.625 34.515625 8.421875 39.84375 
Q 3.21875 45.171875 3.21875 54.390625 
Q 3.21875 63.625 8.421875 68.921875 
Q 13.625 74.21875 22.703125 74.21875 
z
M 22.703125 66.015625 
Q 19.1875 66.015625 17.28125 62.984375 
Q 15.375 59.96875 15.375 54.390625 
Q 15.375 48.78125 17.28125 45.71875 
Q 19.1875 42.671875 22.703125 42.671875 
Q 26.21875 42.671875 28.09375 45.71875 
Q 29.984375 48.78125 29.984375 54.390625 
Q 29.984375 59.96875 28.078125 62.984375 
Q 26.171875 66.015625 22.703125 66.015625 
z
" id="DejaVuSans-Bold-37"/>
    </defs>
    <g transform="translate(75.175 72.1625)scale(0.8 -0.8)">
     <use xlink:href="#DejaVuSans-Bold-73"/>
     <use x="37.207031" xlink:href="#DejaVuSans-Bold-78"/>
     <use x="120.898438" xlink:href="#DejaVuSans-Bold-70"/>
     <use x="189.208984" xlink:href="#DejaVuSans-Bold-32"/>
     <use x="224.023438" xlink:href="#DejaVuSans-Bold-32"/>
     <use x="258.837891" xlink:href="#DejaVuSans-Bold-32"/>
     <use x="293.652344" xlink:href="#DejaVuSans-Bold-55"/>
     <use x="363.232422" xlink:href="#DejaVuSans-Bold-37"/>
    </g>
   </g>
  </g>
 </g>
 <defs>
  <clipPath id="p15d8b015c7">
   <rect height="296.4" width="765.148864" x="75.175" y="88.8"/>
  </clipPath>
 </defs>
</svg>
