<?xml version="1.0" encoding="utf-8" standalone="no"?>
<!DOCTYPE svg PUBLIC "-//W3C//DTD SVG 1.1//EN"
  "http://www.w3.org/Graphics/SVG/1.1/DTD/svg11.dtd">
<!-- Created with matplotlib (https://matplotlib.org/) -->
<svg height="432pt" version="1.1" viewBox="0 0 864 432" width="864pt" xmlns="http://www.w3.org/2000/svg" xmlns:xlink="http://www.w3.org/1999/xlink">
 <defs>
  <style type="text/css">
*{stroke-linecap:butt;stroke-linejoin:round;}
  </style>
 </defs>
 <g id="figure_1">
  <g id="patch_1">
   <path d="M 0 432 
L 864 432 
L 864 0 
L 0 0 
z
" style="fill:none;"/>
  </g>
  <g id="axes_1">
   <g id="patch_2">
    <path d="M 75.175 385.2 
L 840.323864 385.2 
L 840.323864 88.8 
L 75.175 88.8 
z
" style="fill:none;"/>
   </g>
   <g id="PolyCollection_1">
    <path clip-path="url(#p66c750b097)" d="M 109.954494 1172.950534 
L 109.954494 335.210286 
L 113.755531 304.560721 
L 117.556569 307.722674 
L 128.959682 292.048768 
L 132.760719 300.409495 
L 136.561757 366.131273 
L 140.362794 371.601647 
L 144.163832 361.262315 
L 159.367982 385.2 
L 163.16902 359.92386 
L 166.970057 354.104303 
L 170.771095 337.867831 
L 182.174208 313.910721 
L 185.975245 302.950665 
L 189.776283 353.638745 
L 193.57732 351.698873 
L 197.378358 335.811584 
L 208.781471 307.548082 
L 212.582508 304.774104 
L 216.383546 307.354065 
L 220.184583 287.781049 
L 223.985621 290.264062 
L 239.189771 290.070104 
L 242.990809 298.993397 
L 246.791846 298.391981 
L 250.592884 294.803321 
L 261.995997 293.620032 
L 265.797034 282.504691 
L 269.598072 281.340768 
L 273.399109 288.731589 
L 277.200147 284.134172 
L 288.60326 296.975942 
L 296.205335 284.813113 
L 300.006372 297.111742 
L 303.80741 302.027986 
L 315.210523 270.664788 
L 319.01156 271.888948 
L 322.812598 246.355346 
L 326.613636 237.591496 
L 330.414673 232.461513 
L 341.817786 219.189413 
L 345.618823 210.231308 
L 349.419861 200.262664 
L 353.220899 217.323975 
L 357.021936 215.886016 
L 368.425049 223.697663 
L 372.226086 208.210348 
L 376.027124 207.452517 
L 379.828162 208.093736 
L 383.629199 178.343385 
L 395.032312 178.615401 
L 398.833349 184.833685 
L 402.634387 205.140116 
L 406.435425 207.219293 
L 410.236462 207.219293 
L 421.639575 191.129611 
L 425.440612 199.776849 
L 429.24165 207.763384 
L 433.042688 198.494353 
L 436.843725 205.684207 
L 448.246838 190.080339 
L 452.047875 206.830665 
L 455.848913 209.80377 
L 459.649951 227.681188 
L 463.450988 228.633391 
L 474.854101 224.163992 
L 478.655138 224.863546 
L 482.456176 199.679722 
L 486.257214 204.265674 
L 490.058251 164.332939 
L 501.461364 164.682716 
L 505.262401 130.443541 
L 509.063439 122.495738 
L 512.864477 120.105635 
L 516.665514 104.968156 
L 531.869665 103.063749 
L 535.670702 102.344829 
L 539.47174 97.175995 
L 543.272777 103.102719 
L 554.67589 105.551157 
L 558.476928 111.963696 
L 562.277965 119.83356 
L 566.079003 108.854554 
L 569.88004 127.353765 
L 581.283153 133.319459 
L 585.084191 144.628875 
L 588.885228 155.510694 
L 592.686266 192.859071 
L 596.487303 184.697647 
L 607.890416 185.202887 
L 611.691454 195.152046 
L 615.492491 185.338925 
L 619.293529 177.566129 
L 623.094566 180.09227 
L 634.497679 166.761893 
L 638.298717 186.815675 
L 642.099754 167.422596 
L 645.900792 167.928727 
L 649.701829 134.836783 
L 661.104942 131.702809 
L 664.90598 121.580544 
L 668.707017 118.719002 
L 672.508055 115.156837 
L 676.309092 135.323429 
L 687.712205 120.042665 
L 691.513243 124.169416 
L 695.31428 146.282712 
L 699.115318 157.767492 
L 702.916355 186.4018 
L 714.319468 191.813304 
L 718.120506 188.3289 
L 721.921543 232.691589 
L 725.722581 239.660337 
L 729.523618 239.524121 
L 740.926731 223.990351 
L 744.727769 209.488269 
L 748.528806 220.739528 
L 752.329844 198.976722 
L 756.130881 202.558432 
L 767.533994 198.684746 
L 771.335032 172.581094 
L 775.136069 156.093457 
L 778.937107 171.354736 
L 782.738144 143.42117 
L 794.141257 137.016948 
L 797.942295 91.583602 
L 801.743332 91.544751 
L 805.54437 88.8 
L 805.54437 1172.950534 
L 805.54437 1172.950534 
L 801.743332 1172.950534 
L 797.942295 1172.950534 
L 794.141257 1172.950534 
L 782.738144 1172.950534 
L 778.937107 1172.950534 
L 775.136069 1172.950534 
L 771.335032 1172.950534 
L 767.533994 1172.950534 
L 756.130881 1172.950534 
L 752.329844 1172.950534 
L 748.528806 1172.950534 
L 744.727769 1172.950534 
L 740.926731 1172.950534 
L 729.523618 1172.950534 
L 725.722581 1172.950534 
L 721.921543 1172.950534 
L 718.120506 1172.950534 
L 714.319468 1172.950534 
L 702.916355 1172.950534 
L 699.115318 1172.950534 
L 695.31428 1172.950534 
L 691.513243 1172.950534 
L 687.712205 1172.950534 
L 676.309092 1172.950534 
L 672.508055 1172.950534 
L 668.707017 1172.950534 
L 664.90598 1172.950534 
L 661.104942 1172.950534 
L 649.701829 1172.950534 
L 645.900792 1172.950534 
L 642.099754 1172.950534 
L 638.298717 1172.950534 
L 634.497679 1172.950534 
L 623.094566 1172.950534 
L 619.293529 1172.950534 
L 615.492491 1172.950534 
L 611.691454 1172.950534 
L 607.890416 1172.950534 
L 596.487303 1172.950534 
L 592.686266 1172.950534 
L 588.885228 1172.950534 
L 585.084191 1172.950534 
L 581.283153 1172.950534 
L 569.88004 1172.950534 
L 566.079003 1172.950534 
L 562.277965 1172.950534 
L 558.476928 1172.950534 
L 554.67589 1172.950534 
L 543.272777 1172.950534 
L 539.47174 1172.950534 
L 535.670702 1172.950534 
L 531.869665 1172.950534 
L 516.665514 1172.950534 
L 512.864477 1172.950534 
L 509.063439 1172.950534 
L 505.262401 1172.950534 
L 501.461364 1172.950534 
L 490.058251 1172.950534 
L 486.257214 1172.950534 
L 482.456176 1172.950534 
L 478.655138 1172.950534 
L 474.854101 1172.950534 
L 463.450988 1172.950534 
L 459.649951 1172.950534 
L 455.848913 1172.950534 
L 452.047875 1172.950534 
L 448.246838 1172.950534 
L 436.843725 1172.950534 
L 433.042688 1172.950534 
L 429.24165 1172.950534 
L 425.440612 1172.950534 
L 421.639575 1172.950534 
L 410.236462 1172.950534 
L 406.435425 1172.950534 
L 402.634387 1172.950534 
L 398.833349 1172.950534 
L 395.032312 1172.950534 
L 383.629199 1172.950534 
L 379.828162 1172.950534 
L 376.027124 1172.950534 
L 372.226086 1172.950534 
L 368.425049 1172.950534 
L 357.021936 1172.950534 
L 353.220899 1172.950534 
L 349.419861 1172.950534 
L 345.618823 1172.950534 
L 341.817786 1172.950534 
L 330.414673 1172.950534 
L 326.613636 1172.950534 
L 322.812598 1172.950534 
L 319.01156 1172.950534 
L 315.210523 1172.950534 
L 303.80741 1172.950534 
L 300.006372 1172.950534 
L 296.205335 1172.950534 
L 288.60326 1172.950534 
L 277.200147 1172.950534 
L 273.399109 1172.950534 
L 269.598072 1172.950534 
L 265.797034 1172.950534 
L 261.995997 1172.950534 
L 250.592884 1172.950534 
L 246.791846 1172.950534 
L 242.990809 1172.950534 
L 239.189771 1172.950534 
L 223.985621 1172.950534 
L 220.184583 1172.950534 
L 216.383546 1172.950534 
L 212.582508 1172.950534 
L 208.781471 1172.950534 
L 197.378358 1172.950534 
L 193.57732 1172.950534 
L 189.776283 1172.950534 
L 185.975245 1172.950534 
L 182.174208 1172.950534 
L 170.771095 1172.950534 
L 166.970057 1172.950534 
L 163.16902 1172.950534 
L 159.367982 1172.950534 
L 144.163832 1172.950534 
L 140.362794 1172.950534 
L 136.561757 1172.950534 
L 132.760719 1172.950534 
L 128.959682 1172.950534 
L 117.556569 1172.950534 
L 113.755531 1172.950534 
L 109.954494 1172.950534 
z
" style="fill:#0000ff;fill-opacity:0.1;stroke:#0000ff;stroke-opacity:0.1;"/>
   </g>
   <g id="matplotlib.axis_1">
    <g id="xtick_1">
     <g id="line2d_1">
      <defs>
       <path d="M 0 0 
L 0 3.5 
" id="m9f7afd4790" style="stroke:#000000;stroke-width:0.8;"/>
      </defs>
      <g>
       <use style="stroke:#000000;stroke-width:0.8;" x="109.954494" xlink:href="#m9f7afd4790" y="385.2"/>
      </g>
     </g>
     <g id="text_1">
      <!-- 05/23 -->
      <defs>
       <path d="M 31.78125 66.40625 
Q 24.171875 66.40625 20.328125 58.90625 
Q 16.5 51.421875 16.5 36.375 
Q 16.5 21.390625 20.328125 13.890625 
Q 24.171875 6.390625 31.78125 6.390625 
Q 39.453125 6.390625 43.28125 13.890625 
Q 47.125 21.390625 47.125 36.375 
Q 47.125 51.421875 43.28125 58.90625 
Q 39.453125 66.40625 31.78125 66.40625 
z
M 31.78125 74.21875 
Q 44.046875 74.21875 50.515625 64.515625 
Q 56.984375 54.828125 56.984375 36.375 
Q 56.984375 17.96875 50.515625 8.265625 
Q 44.046875 -1.421875 31.78125 -1.421875 
Q 19.53125 -1.421875 13.0625 8.265625 
Q 6.59375 17.96875 6.59375 36.375 
Q 6.59375 54.828125 13.0625 64.515625 
Q 19.53125 74.21875 31.78125 74.21875 
z
" id="DejaVuSans-48"/>
       <path d="M 10.796875 72.90625 
L 49.515625 72.90625 
L 49.515625 64.59375 
L 19.828125 64.59375 
L 19.828125 46.734375 
Q 21.96875 47.46875 24.109375 47.828125 
Q 26.265625 48.1875 28.421875 48.1875 
Q 40.625 48.1875 47.75 41.5 
Q 54.890625 34.8125 54.890625 23.390625 
Q 54.890625 11.625 47.5625 5.09375 
Q 40.234375 -1.421875 26.90625 -1.421875 
Q 22.3125 -1.421875 17.546875 -0.640625 
Q 12.796875 0.140625 7.71875 1.703125 
L 7.71875 11.625 
Q 12.109375 9.234375 16.796875 8.0625 
Q 21.484375 6.890625 26.703125 6.890625 
Q 35.15625 6.890625 40.078125 11.328125 
Q 45.015625 15.765625 45.015625 23.390625 
Q 45.015625 31 40.078125 35.4375 
Q 35.15625 39.890625 26.703125 39.890625 
Q 22.75 39.890625 18.8125 39.015625 
Q 14.890625 38.140625 10.796875 36.28125 
z
" id="DejaVuSans-53"/>
       <path d="M 25.390625 72.90625 
L 33.6875 72.90625 
L 8.296875 -9.28125 
L 0 -9.28125 
z
" id="DejaVuSans-47"/>
       <path d="M 19.1875 8.296875 
L 53.609375 8.296875 
L 53.609375 0 
L 7.328125 0 
L 7.328125 8.296875 
Q 12.9375 14.109375 22.625 23.890625 
Q 32.328125 33.6875 34.8125 36.53125 
Q 39.546875 41.84375 41.421875 45.53125 
Q 43.3125 49.21875 43.3125 52.78125 
Q 43.3125 58.59375 39.234375 62.25 
Q 35.15625 65.921875 28.609375 65.921875 
Q 23.96875 65.921875 18.8125 64.3125 
Q 13.671875 62.703125 7.8125 59.421875 
L 7.8125 69.390625 
Q 13.765625 71.78125 18.9375 73 
Q 24.125 74.21875 28.421875 74.21875 
Q 39.75 74.21875 46.484375 68.546875 
Q 53.21875 62.890625 53.21875 53.421875 
Q 53.21875 48.921875 51.53125 44.890625 
Q 49.859375 40.875 45.40625 35.40625 
Q 44.1875 33.984375 37.640625 27.21875 
Q 31.109375 20.453125 19.1875 8.296875 
z
" id="DejaVuSans-50"/>
       <path d="M 40.578125 39.3125 
Q 47.65625 37.796875 51.625 33 
Q 55.609375 28.21875 55.609375 21.1875 
Q 55.609375 10.40625 48.1875 4.484375 
Q 40.765625 -1.421875 27.09375 -1.421875 
Q 22.515625 -1.421875 17.65625 -0.515625 
Q 12.796875 0.390625 7.625 2.203125 
L 7.625 11.71875 
Q 11.71875 9.328125 16.59375 8.109375 
Q 21.484375 6.890625 26.8125 6.890625 
Q 36.078125 6.890625 40.9375 10.546875 
Q 45.796875 14.203125 45.796875 21.1875 
Q 45.796875 27.640625 41.28125 31.265625 
Q 36.765625 34.90625 28.71875 34.90625 
L 20.21875 34.90625 
L 20.21875 43.015625 
L 29.109375 43.015625 
Q 36.375 43.015625 40.234375 45.921875 
Q 44.09375 48.828125 44.09375 54.296875 
Q 44.09375 59.90625 40.109375 62.90625 
Q 36.140625 65.921875 28.71875 65.921875 
Q 24.65625 65.921875 20.015625 65.03125 
Q 15.375 64.15625 9.8125 62.3125 
L 9.8125 71.09375 
Q 15.4375 72.65625 20.34375 73.4375 
Q 25.25 74.21875 29.59375 74.21875 
Q 40.828125 74.21875 47.359375 69.109375 
Q 53.90625 64.015625 53.90625 55.328125 
Q 53.90625 49.265625 50.4375 45.09375 
Q 46.96875 40.921875 40.578125 39.3125 
z
" id="DejaVuSans-51"/>
      </defs>
      <g transform="translate(66.726369 414.995312)scale(0.3 -0.3)">
       <use xlink:href="#DejaVuSans-48"/>
       <use x="63.623047" xlink:href="#DejaVuSans-53"/>
       <use x="127.246094" xlink:href="#DejaVuSans-47"/>
       <use x="160.9375" xlink:href="#DejaVuSans-50"/>
       <use x="224.560547" xlink:href="#DejaVuSans-51"/>
      </g>
     </g>
    </g>
    <g id="xtick_2">
     <g id="line2d_2">
      <g>
       <use style="stroke:#000000;stroke-width:0.8;" x="463.450988" xlink:href="#m9f7afd4790" y="385.2"/>
      </g>
     </g>
     <g id="text_2">
      <!-- 08/23 -->
      <defs>
       <path d="M 31.78125 34.625 
Q 24.75 34.625 20.71875 30.859375 
Q 16.703125 27.09375 16.703125 20.515625 
Q 16.703125 13.921875 20.71875 10.15625 
Q 24.75 6.390625 31.78125 6.390625 
Q 38.8125 6.390625 42.859375 10.171875 
Q 46.921875 13.96875 46.921875 20.515625 
Q 46.921875 27.09375 42.890625 30.859375 
Q 38.875 34.625 31.78125 34.625 
z
M 21.921875 38.8125 
Q 15.578125 40.375 12.03125 44.71875 
Q 8.5 49.078125 8.5 55.328125 
Q 8.5 64.0625 14.71875 69.140625 
Q 20.953125 74.21875 31.78125 74.21875 
Q 42.671875 74.21875 48.875 69.140625 
Q 55.078125 64.0625 55.078125 55.328125 
Q 55.078125 49.078125 51.53125 44.71875 
Q 48 40.375 41.703125 38.8125 
Q 48.828125 37.15625 52.796875 32.3125 
Q 56.78125 27.484375 56.78125 20.515625 
Q 56.78125 9.90625 50.3125 4.234375 
Q 43.84375 -1.421875 31.78125 -1.421875 
Q 19.734375 -1.421875 13.25 4.234375 
Q 6.78125 9.90625 6.78125 20.515625 
Q 6.78125 27.484375 10.78125 32.3125 
Q 14.796875 37.15625 21.921875 38.8125 
z
M 18.3125 54.390625 
Q 18.3125 48.734375 21.84375 45.5625 
Q 25.390625 42.390625 31.78125 42.390625 
Q 38.140625 42.390625 41.71875 45.5625 
Q 45.3125 48.734375 45.3125 54.390625 
Q 45.3125 60.0625 41.71875 63.234375 
Q 38.140625 66.40625 31.78125 66.40625 
Q 25.390625 66.40625 21.84375 63.234375 
Q 18.3125 60.0625 18.3125 54.390625 
z
" id="DejaVuSans-56"/>
      </defs>
      <g transform="translate(420.222863 414.995312)scale(0.3 -0.3)">
       <use xlink:href="#DejaVuSans-48"/>
       <use x="63.623047" xlink:href="#DejaVuSans-56"/>
       <use x="127.246094" xlink:href="#DejaVuSans-47"/>
       <use x="160.9375" xlink:href="#DejaVuSans-50"/>
       <use x="224.560547" xlink:href="#DejaVuSans-51"/>
      </g>
     </g>
    </g>
    <g id="xtick_3">
     <g id="line2d_3">
      <g>
       <use style="stroke:#000000;stroke-width:0.8;" x="805.54437" xlink:href="#m9f7afd4790" y="385.2"/>
      </g>
     </g>
     <g id="text_3">
      <!-- 11/23 -->
      <defs>
       <path d="M 12.40625 8.296875 
L 28.515625 8.296875 
L 28.515625 63.921875 
L 10.984375 60.40625 
L 10.984375 69.390625 
L 28.421875 72.90625 
L 38.28125 72.90625 
L 38.28125 8.296875 
L 54.390625 8.296875 
L 54.390625 0 
L 12.40625 0 
z
" id="DejaVuSans-49"/>
      </defs>
      <g transform="translate(762.316245 414.995312)scale(0.3 -0.3)">
       <use xlink:href="#DejaVuSans-49"/>
       <use x="63.623047" xlink:href="#DejaVuSans-49"/>
       <use x="127.246094" xlink:href="#DejaVuSans-47"/>
       <use x="160.9375" xlink:href="#DejaVuSans-50"/>
       <use x="224.560547" xlink:href="#DejaVuSans-51"/>
      </g>
     </g>
    </g>
   </g>
   <g id="matplotlib.axis_2">
    <g id="ytick_1">
     <g id="line2d_4">
      <defs>
       <path d="M 0 0 
L -3.5 0 
" id="mfdb5d5f952" style="stroke:#000000;stroke-width:0.8;"/>
      </defs>
      <g>
       <use style="stroke:#000000;stroke-width:0.8;" x="75.175" xlink:href="#mfdb5d5f952" y="355.384838"/>
      </g>
     </g>
     <g id="text_4">
      <!-- 420 -->
      <defs>
       <path d="M 37.796875 64.3125 
L 12.890625 25.390625 
L 37.796875 25.390625 
z
M 35.203125 72.90625 
L 47.609375 72.90625 
L 47.609375 25.390625 
L 58.015625 25.390625 
L 58.015625 17.1875 
L 47.609375 17.1875 
L 47.609375 0 
L 37.796875 0 
L 37.796875 17.1875 
L 4.890625 17.1875 
L 4.890625 26.703125 
z
" id="DejaVuSans-52"/>
      </defs>
      <g transform="translate(10.9125 366.782494)scale(0.3 -0.3)">
       <use xlink:href="#DejaVuSans-52"/>
       <use x="63.623047" xlink:href="#DejaVuSans-50"/>
       <use x="127.246094" xlink:href="#DejaVuSans-48"/>
      </g>
     </g>
    </g>
    <g id="ytick_2">
     <g id="line2d_5">
      <g>
       <use style="stroke:#000000;stroke-width:0.8;" x="75.175" xlink:href="#mfdb5d5f952" y="238.589739"/>
      </g>
     </g>
     <g id="text_5">
      <!-- 480 -->
      <g transform="translate(10.9125 249.987395)scale(0.3 -0.3)">
       <use xlink:href="#DejaVuSans-52"/>
       <use x="63.623047" xlink:href="#DejaVuSans-56"/>
       <use x="127.246094" xlink:href="#DejaVuSans-48"/>
      </g>
     </g>
    </g>
    <g id="ytick_3">
     <g id="line2d_6">
      <g>
       <use style="stroke:#000000;stroke-width:0.8;" x="75.175" xlink:href="#mfdb5d5f952" y="121.794639"/>
      </g>
     </g>
     <g id="text_6">
      <!-- 540 -->
      <g transform="translate(10.9125 133.192296)scale(0.3 -0.3)">
       <use xlink:href="#DejaVuSans-53"/>
       <use x="63.623047" xlink:href="#DejaVuSans-52"/>
       <use x="127.246094" xlink:href="#DejaVuSans-48"/>
      </g>
     </g>
    </g>
   </g>
   <g id="line2d_7">
    <path clip-path="url(#p66c750b097)" d="M 109.954494 335.210286 
L 113.755531 304.560721 
L 117.556569 307.722674 
L 128.959682 292.048768 
L 132.760719 300.409495 
L 136.561757 366.131273 
L 140.362794 371.601647 
L 144.163832 361.262315 
L 159.367982 385.2 
L 163.16902 359.92386 
L 166.970057 354.104303 
L 170.771095 337.867831 
L 182.174208 313.910721 
L 185.975245 302.950665 
L 189.776283 353.638745 
L 193.57732 351.698873 
L 197.378358 335.811584 
L 208.781471 307.548082 
L 212.582508 304.774104 
L 216.383546 307.354065 
L 220.184583 287.781049 
L 223.985621 290.264062 
L 239.189771 290.070104 
L 242.990809 298.993397 
L 246.791846 298.391981 
L 250.592884 294.803321 
L 261.995997 293.620032 
L 265.797034 282.504691 
L 269.598072 281.340768 
L 273.399109 288.731589 
L 277.200147 284.134172 
L 288.60326 296.975942 
L 296.205335 284.813113 
L 300.006372 297.111742 
L 303.80741 302.027986 
L 315.210523 270.664788 
L 319.01156 271.888948 
L 322.812598 246.355346 
L 326.613636 237.591496 
L 330.414673 232.461513 
L 341.817786 219.189413 
L 345.618823 210.231308 
L 349.419861 200.262664 
L 353.220899 217.323975 
L 357.021936 215.886016 
L 368.425049 223.697663 
L 372.226086 208.210348 
L 376.027124 207.452517 
L 379.828162 208.093736 
L 383.629199 178.343385 
L 395.032312 178.615401 
L 398.833349 184.833685 
L 402.634387 205.140116 
L 406.435425 207.219293 
L 410.236462 207.219293 
L 421.639575 191.129611 
L 425.440612 199.776849 
L 429.24165 207.763384 
L 433.042688 198.494353 
L 436.843725 205.684207 
L 448.246838 190.080339 
L 452.047875 206.830665 
L 455.848913 209.80377 
L 459.649951 227.681188 
L 463.450988 228.633391 
L 474.854101 224.163992 
L 478.655138 224.863546 
L 482.456176 199.679722 
L 486.257214 204.265674 
L 490.058251 164.332939 
L 501.461364 164.682716 
L 505.262401 130.443541 
L 509.063439 122.495738 
L 512.864477 120.105635 
L 516.665514 104.968156 
L 531.869665 103.063749 
L 535.670702 102.344829 
L 539.47174 97.175995 
L 543.272777 103.102719 
L 554.67589 105.551157 
L 558.476928 111.963696 
L 562.277965 119.83356 
L 566.079003 108.854554 
L 569.88004 127.353765 
L 581.283153 133.319459 
L 585.084191 144.628875 
L 588.885228 155.510694 
L 592.686266 192.859071 
L 596.487303 184.697647 
L 607.890416 185.202887 
L 611.691454 195.152046 
L 615.492491 185.338925 
L 619.293529 177.566129 
L 623.094566 180.09227 
L 634.497679 166.761893 
L 638.298717 186.815675 
L 642.099754 167.422596 
L 645.900792 167.928727 
L 649.701829 134.836783 
L 661.104942 131.702809 
L 664.90598 121.580544 
L 668.707017 118.719002 
L 672.508055 115.156837 
L 676.309092 135.323429 
L 687.712205 120.042665 
L 691.513243 124.169416 
L 695.31428 146.282712 
L 699.115318 157.767492 
L 702.916355 186.4018 
L 714.319468 191.813304 
L 718.120506 188.3289 
L 721.921543 232.691589 
L 725.722581 239.660337 
L 729.523618 239.524121 
L 740.926731 223.990351 
L 744.727769 209.488269 
L 748.528806 220.739528 
L 752.329844 198.976722 
L 756.130881 202.558432 
L 767.533994 198.684746 
L 771.335032 172.581094 
L 775.136069 156.093457 
L 778.937107 171.354736 
L 782.738144 143.42117 
L 794.141257 137.016948 
L 797.942295 91.583602 
L 801.743332 91.544751 
L 805.54437 88.8 
L 805.54437 88.8 
" style="fill:none;stroke:#000000;stroke-linecap:square;stroke-width:4;"/>
   </g>
   <g id="patch_3">
    <path d="M 75.175 385.2 
L 75.175 88.8 
" style="fill:none;stroke:#000000;stroke-linecap:square;stroke-linejoin:miter;stroke-width:0.8;"/>
   </g>
   <g id="patch_4">
    <path d="M 75.175 385.2 
L 840.323864 385.2 
" style="fill:none;stroke:#000000;stroke-linecap:square;stroke-linejoin:miter;stroke-width:0.8;"/>
   </g>
   <g id="text_7">
    <!-- INTU   29% -->
    <defs>
     <path d="M 9.1875 72.90625 
L 27.984375 72.90625 
L 27.984375 0 
L 9.1875 0 
z
" id="DejaVuSans-Bold-73"/>
     <path d="M 9.1875 72.90625 
L 30.171875 72.90625 
L 56.6875 22.90625 
L 56.6875 72.90625 
L 74.515625 72.90625 
L 74.515625 0 
L 53.515625 0 
L 27 50 
L 27 0 
L 9.1875 0 
z
" id="DejaVuSans-Bold-78"/>
     <path d="M 0.484375 72.90625 
L 67.671875 72.90625 
L 67.671875 58.6875 
L 43.5 58.6875 
L 43.5 0 
L 24.703125 0 
L 24.703125 58.6875 
L 0.484375 58.6875 
z
" id="DejaVuSans-Bold-84"/>
     <path d="M 9.1875 72.90625 
L 27.984375 72.90625 
L 27.984375 29.203125 
Q 27.984375 20.171875 30.9375 16.28125 
Q 33.890625 12.40625 40.578125 12.40625 
Q 47.3125 12.40625 50.265625 16.28125 
Q 53.21875 20.171875 53.21875 29.203125 
L 53.21875 72.90625 
L 72.015625 72.90625 
L 72.015625 29.203125 
Q 72.015625 13.71875 64.25 6.140625 
Q 56.5 -1.421875 40.578125 -1.421875 
Q 24.703125 -1.421875 16.9375 6.140625 
Q 9.1875 13.71875 9.1875 29.203125 
z
" id="DejaVuSans-Bold-85"/>
     <path id="DejaVuSans-Bold-32"/>
     <path d="M 28.8125 13.8125 
L 60.890625 13.8125 
L 60.890625 0 
L 7.90625 0 
L 7.90625 13.8125 
L 34.515625 37.3125 
Q 38.09375 40.53125 39.796875 43.609375 
Q 41.5 46.6875 41.5 50 
Q 41.5 55.125 38.0625 58.25 
Q 34.625 61.375 28.90625 61.375 
Q 24.515625 61.375 19.28125 59.5 
Q 14.0625 57.625 8.109375 53.90625 
L 8.109375 69.921875 
Q 14.453125 72.015625 20.65625 73.109375 
Q 26.859375 74.21875 32.8125 74.21875 
Q 45.90625 74.21875 53.15625 68.453125 
Q 60.40625 62.703125 60.40625 52.390625 
Q 60.40625 46.4375 57.328125 41.28125 
Q 54.25 36.140625 44.390625 27.484375 
z
" id="DejaVuSans-Bold-50"/>
     <path d="M 10.015625 1.609375 
L 10.015625 15.09375 
Q 14.5 12.984375 18.59375 11.9375 
Q 22.703125 10.890625 26.703125 10.890625 
Q 35.109375 10.890625 39.796875 15.546875 
Q 44.484375 20.21875 45.3125 29.390625 
Q 42 26.953125 38.234375 25.734375 
Q 34.46875 24.515625 30.078125 24.515625 
Q 18.890625 24.515625 12.03125 31.03125 
Q 5.171875 37.546875 5.171875 48.1875 
Q 5.171875 59.96875 12.8125 67.046875 
Q 20.453125 74.125 33.296875 74.125 
Q 47.5625 74.125 55.375 64.5 
Q 63.1875 54.890625 63.1875 37.3125 
Q 63.1875 19.234375 54.046875 8.90625 
Q 44.921875 -1.421875 29 -1.421875 
Q 23.875 -1.421875 19.1875 -0.65625 
Q 14.5 0.09375 10.015625 1.609375 
z
M 33.203125 36.71875 
Q 38.140625 36.71875 40.625 39.90625 
Q 43.109375 43.109375 43.109375 49.515625 
Q 43.109375 55.859375 40.625 59.078125 
Q 38.140625 62.3125 33.203125 62.3125 
Q 28.265625 62.3125 25.78125 59.078125 
Q 23.296875 55.859375 23.296875 49.515625 
Q 23.296875 43.109375 25.78125 39.90625 
Q 28.265625 36.71875 33.203125 36.71875 
z
" id="DejaVuSans-Bold-57"/>
     <path d="M 77.484375 30.078125 
Q 74.03125 30.078125 72.125 27.078125 
Q 70.21875 24.078125 70.21875 18.5 
Q 70.21875 12.890625 72.09375 9.890625 
Q 73.96875 6.890625 77.484375 6.890625 
Q 81 6.890625 82.859375 9.890625 
Q 84.71875 12.890625 84.71875 18.5 
Q 84.71875 24.078125 82.828125 27.078125 
Q 80.953125 30.078125 77.484375 30.078125 
z
M 77.484375 38.28125 
Q 86.578125 38.28125 91.796875 33 
Q 97.015625 27.734375 97.015625 18.5 
Q 97.015625 9.28125 91.796875 3.921875 
Q 86.578125 -1.421875 77.484375 -1.421875 
Q 68.40625 -1.421875 63.15625 3.921875 
Q 57.90625 9.28125 57.90625 18.5 
Q 57.90625 27.6875 63.15625 32.984375 
Q 68.40625 38.28125 77.484375 38.28125 
z
M 32.71875 -1.421875 
L 21.921875 -1.421875 
L 67.484375 74.21875 
L 78.328125 74.21875 
z
M 22.703125 74.21875 
Q 31.78125 74.21875 36.984375 68.921875 
Q 42.1875 63.625 42.1875 54.390625 
Q 42.1875 45.171875 36.984375 39.84375 
Q 31.78125 34.515625 22.703125 34.515625 
Q 13.625 34.515625 8.421875 39.84375 
Q 3.21875 45.171875 3.21875 54.390625 
Q 3.21875 63.625 8.421875 68.921875 
Q 13.625 74.21875 22.703125 74.21875 
z
M 22.703125 66.015625 
Q 19.1875 66.015625 17.28125 62.984375 
Q 15.375 59.96875 15.375 54.390625 
Q 15.375 48.78125 17.28125 45.71875 
Q 19.1875 42.671875 22.703125 42.671875 
Q 26.21875 42.671875 28.09375 45.71875 
Q 29.984375 48.78125 29.984375 54.390625 
Q 29.984375 59.96875 28.078125 62.984375 
Q 26.171875 66.015625 22.703125 66.015625 
z
" id="DejaVuSans-Bold-37"/>
    </defs>
    <g transform="translate(75.175 72.1625)scale(0.8 -0.8)">
     <use xlink:href="#DejaVuSans-Bold-73"/>
     <use x="37.207031" xlink:href="#DejaVuSans-Bold-78"/>
     <use x="120.898438" xlink:href="#DejaVuSans-Bold-84"/>
     <use x="189.111328" xlink:href="#DejaVuSans-Bold-85"/>
     <use x="270.3125" xlink:href="#DejaVuSans-Bold-32"/>
     <use x="305.126953" xlink:href="#DejaVuSans-Bold-32"/>
     <use x="339.941406" xlink:href="#DejaVuSans-Bold-32"/>
     <use x="374.755859" xlink:href="#DejaVuSans-Bold-50"/>
     <use x="444.335938" xlink:href="#DejaVuSans-Bold-57"/>
     <use x="513.916016" xlink:href="#DejaVuSans-Bold-37"/>
    </g>
   </g>
  </g>
 </g>
 <defs>
  <clipPath id="p66c750b097">
   <rect height="296.4" width="765.148864" x="75.175" y="88.8"/>
  </clipPath>
 </defs>
</svg>
