<?xml version="1.0" encoding="utf-8" standalone="no"?>
<!DOCTYPE svg PUBLIC "-//W3C//DTD SVG 1.1//EN"
  "http://www.w3.org/Graphics/SVG/1.1/DTD/svg11.dtd">
<!-- Created with matplotlib (https://matplotlib.org/) -->
<svg height="432pt" version="1.1" viewBox="0 0 864 432" width="864pt" xmlns="http://www.w3.org/2000/svg" xmlns:xlink="http://www.w3.org/1999/xlink">
 <defs>
  <style type="text/css">
*{stroke-linecap:butt;stroke-linejoin:round;}
  </style>
 </defs>
 <g id="figure_1">
  <g id="patch_1">
   <path d="M 0 432 
L 864 432 
L 864 0 
L 0 0 
z
" style="fill:#ffffff;"/>
  </g>
  <g id="axes_1">
   <g id="patch_2">
    <path d="M 36.925 404.2 
L 853.2 404.2 
L 853.2 28.8 
L 36.925 28.8 
z
" style="fill:#ffffff;"/>
   </g>
   <g id="PolyCollection_1">
    <defs>
     <path d="M 74.028409 -44.863636 
L 74.028409 -268.6215 
L 76.067058 -266.291935 
L 82.183004 -271.76036 
L 84.221653 -279.398994 
L 86.260302 -270.803978 
L 88.298951 -292.070745 
L 90.3376 -295.013443 
L 96.453546 -288.649922 
L 98.492195 -294.388099 
L 100.530844 -286.197729 
L 102.569493 -278.975973 
L 104.608142 -277.866341 
L 110.724088 -274.75818 
L 112.762737 -285.321064 
L 114.801386 -287.540327 
L 118.878684 -285.468208 
L 124.99463 -281.281077 
L 127.033279 -277.645643 
L 129.071928 -294.737547 
L 131.110577 -299.936239 
L 133.149226 -294.939833 
L 139.265172 -287.105057 
L 141.303821 -283.819072 
L 143.34247 -283.126336 
L 145.381119 -293.370432 
L 147.419768 -289.980232 
L 153.535714 -296.693165 
L 155.574363 -307.489052 
L 157.613012 -301.683427 
L 159.651661 -287.957186 
L 161.69031 -280.87643 
L 167.806256 -279.981371 
L 169.844905 -282.163849 
L 171.883554 -285.995406 
L 173.922203 -280.244998 
L 175.960852 -280.576035 
L 184.115447 -279.730031 
L 186.154096 -275.677738 
L 188.192745 -284.487308 
L 190.231394 -283.475785 
L 198.385989 -284.677345 
L 200.424638 -284.916454 
L 202.463287 -275.138272 
L 204.501936 -281.820525 
L 210.617882 -287.717756 
L 212.656531 -283.626548 
L 214.69518 -287.699288 
L 216.733829 -288.553188 
L 218.772478 -286.409306 
L 226.927073 -284.560278 
L 228.965722 -282.023263 
L 231.004371 -277.4345 
L 233.043019 -289.394783 
L 239.158966 -296.723261 
L 241.197615 -291.532484 
L 243.236264 -291.747491 
L 245.274913 -298.289685 
L 247.313561 -304.475608 
L 253.429508 -300.685454 
L 255.468157 -304.506326 
L 257.506806 -312.418406 
L 259.545455 -322.621815 
L 261.584103 -305.175938 
L 267.70005 -299.788567 
L 269.738699 -307.577795 
L 271.777348 -303.93503 
L 273.815997 -302.706465 
L 275.854645 -298.885555 
L 281.970592 -301.692888 
L 284.009241 -304.076332 
L 286.04789 -303.627889 
L 288.086538 -295.715809 
L 290.125187 -293.270947 
L 298.279783 -288.28289 
L 300.318432 -294.499531 
L 302.35708 -297.878122 
L 304.395729 -302.74947 
L 310.511676 -298.33269 
L 312.550325 -294.990961 
L 314.588974 -291.360502 
L 316.627622 -290.807637 
L 318.666271 -295.814106 
L 324.782218 -298.387982 
L 326.820867 -296.287124 
L 328.859515 -300.820575 
L 330.898164 -293.3938 
L 332.936813 -286.040729 
L 339.05276 -285.39571 
L 341.091409 -295.678947 
L 343.130057 -294.46267 
L 345.168706 -301.72973 
L 347.207355 -298.989996 
L 353.323302 -297.853548 
L 355.361951 -304.113194 
L 357.400599 -299.309406 
L 359.439248 -310.538679 
L 361.477897 -308.74498 
L 367.593844 -307.12937 
L 369.632493 -302.454597 
L 371.671141 -311.030108 
L 373.70979 -315.207289 
L 375.748439 -318.733326 
L 381.864386 -315.563579 
L 383.903034 -315.035306 
L 385.941683 -314.629849 
L 387.980332 -319.792942 
L 396.134928 -318.53756 
L 398.173576 -314.094472 
L 400.212225 -312.611401 
L 402.250874 -316.746783 
L 404.289523 -316.629866 
L 410.40547 -315.688335 
L 412.444118 -317.226773 
L 414.482767 -319.011388 
L 416.521416 -320.186791 
L 418.560065 -319.571415 
L 424.676011 -317.060652 
L 426.71466 -303.220622 
L 428.753309 -299.448334 
L 430.791958 -308.962173 
L 432.830607 -318.063713 
L 438.946553 -317.177568 
L 440.985202 -313.454466 
L 443.023851 -309.263717 
L 445.0625 -304.832934 
L 447.101149 -306.986786 
L 453.217095 -307.565262 
L 455.255744 -308.051397 
L 457.294393 -310.414469 
L 459.333042 -306.334474 
L 461.371691 -308.014479 
L 467.487637 -307.146783 
L 469.526286 -304.192928 
L 471.564935 -310.623709 
L 473.603584 -320.346787 
L 475.642233 -319.343726 
L 481.758179 -324.31601 
L 483.796828 -321.663699 
L 485.835477 -300.814488 
L 487.874126 -299.079097 
L 489.912775 -302.359089 
L 498.06737 -294.765231 
L 500.106019 -302.783712 
L 502.144668 -304.629857 
L 504.183317 -309.780625 
L 510.299263 -317.380627 
L 512.337912 -320.857552 
L 514.376561 -304.777529 
L 516.41521 -305.392923 
L 518.453859 -310.432937 
L 524.569805 -319.399093 
L 526.608454 -320.279076 
L 528.647103 -319.460642 
L 530.685752 -325.669877 
L 532.724401 -324.88218 
L 540.878996 -324.94371 
L 542.917645 -322.112953 
L 544.956294 -322.303705 
L 546.994943 -323.442189 
L 553.110889 -323.817551 
L 555.149538 -327.343719 
L 557.188187 -327.712956 
L 559.226836 -325.368333 
L 561.265485 -326.826792 
L 567.381431 -322.75294 
L 571.458729 -326.611409 
L 573.497378 -322.70986 
L 575.536026 -321.150258 
L 581.651973 -331.099744 
L 583.690622 -330.711399 
L 585.729271 -338.811536 
L 587.76792 -341.591731 
L 589.806568 -343.219139 
L 595.922515 -347.429506 
L 597.961164 -350.271325 
L 599.999813 -353.433723 
L 602.038462 -348.021287 
L 604.07711 -348.477457 
L 610.193057 -345.999334 
L 612.231706 -350.912443 
L 614.270355 -351.152853 
L 616.309003 -350.949437 
L 618.347652 -360.387273 
L 624.463599 -360.30098 
L 626.502248 -358.328326 
L 628.540897 -351.886427 
L 630.579545 -351.22684 
L 632.618194 -351.22684 
L 638.734141 -356.331041 
L 640.77279 -353.58784 
L 642.811439 -351.054236 
L 644.850087 -353.994691 
L 646.888736 -351.713822 
L 653.004683 -356.663906 
L 655.043332 -351.350126 
L 657.081981 -350.406955 
L 659.120629 -344.735623 
L 661.159278 -344.433551 
L 667.275225 -345.851398 
L 669.313874 -345.629475 
L 671.352522 -353.618652 
L 673.391171 -352.16383 
L 675.42982 -364.831868 
L 681.545767 -364.720907 
L 683.584416 -375.582752 
L 685.623064 -378.104069 
L 687.661713 -378.862292 
L 689.700362 -383.664422 
L 697.854958 -384.268565 
L 699.893606 -384.496631 
L 701.932255 -386.136364 
L 703.970904 -384.256203 
L 710.086851 -383.479474 
L 712.1255 -381.445196 
L 714.164148 -378.948604 
L 716.202797 -382.431522 
L 718.241446 -376.562936 
L 724.357393 -374.670412 
L 726.396041 -371.082676 
L 728.43469 -367.630588 
L 730.473339 -355.782397 
L 732.511988 -358.371482 
L 738.627935 -358.211202 
L 740.666583 -355.054986 
L 742.705232 -358.168046 
L 744.743881 -360.633845 
L 746.78253 -359.832466 
L 752.898477 -364.06132 
L 754.937125 -357.69957 
L 756.975774 -363.851723 
L 759.014423 -363.69116 
L 761.053072 -374.189065 
L 767.169018 -375.183269 
L 769.207667 -378.3944 
L 771.246316 -379.30218 
L 773.284965 -380.432221 
L 775.323614 -374.034684 
L 781.43956 -378.882268 
L 783.478209 -377.573121 
L 785.516858 -370.558022 
L 787.555507 -366.914654 
L 789.594156 -357.830866 
L 795.710102 -356.11415 
L 797.748751 -357.219523 
L 799.7874 -343.146151 
L 801.826049 -340.935424 
L 803.864698 -340.978636 
L 809.980644 -345.906483 
L 812.019293 -350.507043 
L 814.057942 -346.937756 
L 816.096591 -353.841667 
L 816.096591 -44.863636 
L 816.096591 -44.863636 
L 814.057942 -44.863636 
L 812.019293 -44.863636 
L 809.980644 -44.863636 
L 803.864698 -44.863636 
L 801.826049 -44.863636 
L 799.7874 -44.863636 
L 797.748751 -44.863636 
L 795.710102 -44.863636 
L 789.594156 -44.863636 
L 787.555507 -44.863636 
L 785.516858 -44.863636 
L 783.478209 -44.863636 
L 781.43956 -44.863636 
L 775.323614 -44.863636 
L 773.284965 -44.863636 
L 771.246316 -44.863636 
L 769.207667 -44.863636 
L 767.169018 -44.863636 
L 761.053072 -44.863636 
L 759.014423 -44.863636 
L 756.975774 -44.863636 
L 754.937125 -44.863636 
L 752.898477 -44.863636 
L 746.78253 -44.863636 
L 744.743881 -44.863636 
L 742.705232 -44.863636 
L 740.666583 -44.863636 
L 738.627935 -44.863636 
L 732.511988 -44.863636 
L 730.473339 -44.863636 
L 728.43469 -44.863636 
L 726.396041 -44.863636 
L 724.357393 -44.863636 
L 718.241446 -44.863636 
L 716.202797 -44.863636 
L 714.164148 -44.863636 
L 712.1255 -44.863636 
L 710.086851 -44.863636 
L 703.970904 -44.863636 
L 701.932255 -44.863636 
L 699.893606 -44.863636 
L 697.854958 -44.863636 
L 689.700362 -44.863636 
L 687.661713 -44.863636 
L 685.623064 -44.863636 
L 683.584416 -44.863636 
L 681.545767 -44.863636 
L 675.42982 -44.863636 
L 673.391171 -44.863636 
L 671.352522 -44.863636 
L 669.313874 -44.863636 
L 667.275225 -44.863636 
L 661.159278 -44.863636 
L 659.120629 -44.863636 
L 657.081981 -44.863636 
L 655.043332 -44.863636 
L 653.004683 -44.863636 
L 646.888736 -44.863636 
L 644.850087 -44.863636 
L 642.811439 -44.863636 
L 640.77279 -44.863636 
L 638.734141 -44.863636 
L 632.618194 -44.863636 
L 630.579545 -44.863636 
L 628.540897 -44.863636 
L 626.502248 -44.863636 
L 624.463599 -44.863636 
L 618.347652 -44.863636 
L 616.309003 -44.863636 
L 614.270355 -44.863636 
L 612.231706 -44.863636 
L 610.193057 -44.863636 
L 604.07711 -44.863636 
L 602.038462 -44.863636 
L 599.999813 -44.863636 
L 597.961164 -44.863636 
L 595.922515 -44.863636 
L 589.806568 -44.863636 
L 587.76792 -44.863636 
L 585.729271 -44.863636 
L 583.690622 -44.863636 
L 581.651973 -44.863636 
L 575.536026 -44.863636 
L 573.497378 -44.863636 
L 571.458729 -44.863636 
L 567.381431 -44.863636 
L 561.265485 -44.863636 
L 559.226836 -44.863636 
L 557.188187 -44.863636 
L 555.149538 -44.863636 
L 553.110889 -44.863636 
L 546.994943 -44.863636 
L 544.956294 -44.863636 
L 542.917645 -44.863636 
L 540.878996 -44.863636 
L 532.724401 -44.863636 
L 530.685752 -44.863636 
L 528.647103 -44.863636 
L 526.608454 -44.863636 
L 524.569805 -44.863636 
L 518.453859 -44.863636 
L 516.41521 -44.863636 
L 514.376561 -44.863636 
L 512.337912 -44.863636 
L 510.299263 -44.863636 
L 504.183317 -44.863636 
L 502.144668 -44.863636 
L 500.106019 -44.863636 
L 498.06737 -44.863636 
L 489.912775 -44.863636 
L 487.874126 -44.863636 
L 485.835477 -44.863636 
L 483.796828 -44.863636 
L 481.758179 -44.863636 
L 475.642233 -44.863636 
L 473.603584 -44.863636 
L 471.564935 -44.863636 
L 469.526286 -44.863636 
L 467.487637 -44.863636 
L 461.371691 -44.863636 
L 459.333042 -44.863636 
L 457.294393 -44.863636 
L 455.255744 -44.863636 
L 453.217095 -44.863636 
L 447.101149 -44.863636 
L 445.0625 -44.863636 
L 443.023851 -44.863636 
L 440.985202 -44.863636 
L 438.946553 -44.863636 
L 432.830607 -44.863636 
L 430.791958 -44.863636 
L 428.753309 -44.863636 
L 426.71466 -44.863636 
L 424.676011 -44.863636 
L 418.560065 -44.863636 
L 416.521416 -44.863636 
L 414.482767 -44.863636 
L 412.444118 -44.863636 
L 410.40547 -44.863636 
L 404.289523 -44.863636 
L 402.250874 -44.863636 
L 400.212225 -44.863636 
L 398.173576 -44.863636 
L 396.134928 -44.863636 
L 387.980332 -44.863636 
L 385.941683 -44.863636 
L 383.903034 -44.863636 
L 381.864386 -44.863636 
L 375.748439 -44.863636 
L 373.70979 -44.863636 
L 371.671141 -44.863636 
L 369.632493 -44.863636 
L 367.593844 -44.863636 
L 361.477897 -44.863636 
L 359.439248 -44.863636 
L 357.400599 -44.863636 
L 355.361951 -44.863636 
L 353.323302 -44.863636 
L 347.207355 -44.863636 
L 345.168706 -44.863636 
L 343.130057 -44.863636 
L 341.091409 -44.863636 
L 339.05276 -44.863636 
L 332.936813 -44.863636 
L 330.898164 -44.863636 
L 328.859515 -44.863636 
L 326.820867 -44.863636 
L 324.782218 -44.863636 
L 318.666271 -44.863636 
L 316.627622 -44.863636 
L 314.588974 -44.863636 
L 312.550325 -44.863636 
L 310.511676 -44.863636 
L 304.395729 -44.863636 
L 302.35708 -44.863636 
L 300.318432 -44.863636 
L 298.279783 -44.863636 
L 290.125187 -44.863636 
L 288.086538 -44.863636 
L 286.04789 -44.863636 
L 284.009241 -44.863636 
L 281.970592 -44.863636 
L 275.854645 -44.863636 
L 273.815997 -44.863636 
L 271.777348 -44.863636 
L 269.738699 -44.863636 
L 267.70005 -44.863636 
L 261.584103 -44.863636 
L 259.545455 -44.863636 
L 257.506806 -44.863636 
L 255.468157 -44.863636 
L 253.429508 -44.863636 
L 247.313561 -44.863636 
L 245.274913 -44.863636 
L 243.236264 -44.863636 
L 241.197615 -44.863636 
L 239.158966 -44.863636 
L 233.043019 -44.863636 
L 231.004371 -44.863636 
L 228.965722 -44.863636 
L 226.927073 -44.863636 
L 218.772478 -44.863636 
L 216.733829 -44.863636 
L 214.69518 -44.863636 
L 212.656531 -44.863636 
L 210.617882 -44.863636 
L 204.501936 -44.863636 
L 202.463287 -44.863636 
L 200.424638 -44.863636 
L 198.385989 -44.863636 
L 190.231394 -44.863636 
L 188.192745 -44.863636 
L 186.154096 -44.863636 
L 184.115447 -44.863636 
L 175.960852 -44.863636 
L 173.922203 -44.863636 
L 171.883554 -44.863636 
L 169.844905 -44.863636 
L 167.806256 -44.863636 
L 161.69031 -44.863636 
L 159.651661 -44.863636 
L 157.613012 -44.863636 
L 155.574363 -44.863636 
L 153.535714 -44.863636 
L 147.419768 -44.863636 
L 145.381119 -44.863636 
L 143.34247 -44.863636 
L 141.303821 -44.863636 
L 139.265172 -44.863636 
L 133.149226 -44.863636 
L 131.110577 -44.863636 
L 129.071928 -44.863636 
L 127.033279 -44.863636 
L 124.99463 -44.863636 
L 118.878684 -44.863636 
L 114.801386 -44.863636 
L 112.762737 -44.863636 
L 110.724088 -44.863636 
L 104.608142 -44.863636 
L 102.569493 -44.863636 
L 100.530844 -44.863636 
L 98.492195 -44.863636 
L 96.453546 -44.863636 
L 90.3376 -44.863636 
L 88.298951 -44.863636 
L 86.260302 -44.863636 
L 84.221653 -44.863636 
L 82.183004 -44.863636 
L 76.067058 -44.863636 
L 74.028409 -44.863636 
z
" id="mf55b3efc38" style="stroke:#f5f6f8;"/>
    </defs>
    <g clip-path="url(#pbb3dc3958e)">
     <use style="fill:#f5f6f8;stroke:#f5f6f8;" x="0" xlink:href="#mf55b3efc38" y="432"/>
    </g>
   </g>
   <g id="matplotlib.axis_1">
    <g id="xtick_1">
     <g id="line2d_1">
      <defs>
       <path d="M 0 0 
L 0 3.5 
" id="m10ff4f2644" style="stroke:#000000;stroke-width:0.8;"/>
      </defs>
      <g>
       <use style="stroke:#000000;stroke-width:0.8;" x="69.951111" xlink:href="#m10ff4f2644" y="404.2"/>
      </g>
     </g>
     <g id="text_1">
      <!-- 2022-11 -->
      <defs>
       <path d="M 19.1875 8.296875 
L 53.609375 8.296875 
L 53.609375 0 
L 7.328125 0 
L 7.328125 8.296875 
Q 12.9375 14.109375 22.625 23.890625 
Q 32.328125 33.6875 34.8125 36.53125 
Q 39.546875 41.84375 41.421875 45.53125 
Q 43.3125 49.21875 43.3125 52.78125 
Q 43.3125 58.59375 39.234375 62.25 
Q 35.15625 65.921875 28.609375 65.921875 
Q 23.96875 65.921875 18.8125 64.3125 
Q 13.671875 62.703125 7.8125 59.421875 
L 7.8125 69.390625 
Q 13.765625 71.78125 18.9375 73 
Q 24.125 74.21875 28.421875 74.21875 
Q 39.75 74.21875 46.484375 68.546875 
Q 53.21875 62.890625 53.21875 53.421875 
Q 53.21875 48.921875 51.53125 44.890625 
Q 49.859375 40.875 45.40625 35.40625 
Q 44.1875 33.984375 37.640625 27.21875 
Q 31.109375 20.453125 19.1875 8.296875 
z
" id="DejaVuSans-50"/>
       <path d="M 31.78125 66.40625 
Q 24.171875 66.40625 20.328125 58.90625 
Q 16.5 51.421875 16.5 36.375 
Q 16.5 21.390625 20.328125 13.890625 
Q 24.171875 6.390625 31.78125 6.390625 
Q 39.453125 6.390625 43.28125 13.890625 
Q 47.125 21.390625 47.125 36.375 
Q 47.125 51.421875 43.28125 58.90625 
Q 39.453125 66.40625 31.78125 66.40625 
z
M 31.78125 74.21875 
Q 44.046875 74.21875 50.515625 64.515625 
Q 56.984375 54.828125 56.984375 36.375 
Q 56.984375 17.96875 50.515625 8.265625 
Q 44.046875 -1.421875 31.78125 -1.421875 
Q 19.53125 -1.421875 13.0625 8.265625 
Q 6.59375 17.96875 6.59375 36.375 
Q 6.59375 54.828125 13.0625 64.515625 
Q 19.53125 74.21875 31.78125 74.21875 
z
" id="DejaVuSans-48"/>
       <path d="M 4.890625 31.390625 
L 31.203125 31.390625 
L 31.203125 23.390625 
L 4.890625 23.390625 
z
" id="DejaVuSans-45"/>
       <path d="M 12.40625 8.296875 
L 28.515625 8.296875 
L 28.515625 63.921875 
L 10.984375 60.40625 
L 10.984375 69.390625 
L 28.421875 72.90625 
L 38.28125 72.90625 
L 38.28125 8.296875 
L 54.390625 8.296875 
L 54.390625 0 
L 12.40625 0 
z
" id="DejaVuSans-49"/>
      </defs>
      <g transform="translate(49.059705 418.798437)scale(0.1 -0.1)">
       <use xlink:href="#DejaVuSans-50"/>
       <use x="63.623047" xlink:href="#DejaVuSans-48"/>
       <use x="127.246094" xlink:href="#DejaVuSans-50"/>
       <use x="190.869141" xlink:href="#DejaVuSans-50"/>
       <use x="254.492188" xlink:href="#DejaVuSans-45"/>
       <use x="290.576172" xlink:href="#DejaVuSans-49"/>
       <use x="354.199219" xlink:href="#DejaVuSans-49"/>
      </g>
     </g>
    </g>
    <g id="xtick_2">
     <g id="line2d_2">
      <g>
       <use style="stroke:#000000;stroke-width:0.8;" x="194.308691" xlink:href="#m10ff4f2644" y="404.2"/>
      </g>
     </g>
     <g id="text_2">
      <!-- 2023-01 -->
      <defs>
       <path d="M 40.578125 39.3125 
Q 47.65625 37.796875 51.625 33 
Q 55.609375 28.21875 55.609375 21.1875 
Q 55.609375 10.40625 48.1875 4.484375 
Q 40.765625 -1.421875 27.09375 -1.421875 
Q 22.515625 -1.421875 17.65625 -0.515625 
Q 12.796875 0.390625 7.625 2.203125 
L 7.625 11.71875 
Q 11.71875 9.328125 16.59375 8.109375 
Q 21.484375 6.890625 26.8125 6.890625 
Q 36.078125 6.890625 40.9375 10.546875 
Q 45.796875 14.203125 45.796875 21.1875 
Q 45.796875 27.640625 41.28125 31.265625 
Q 36.765625 34.90625 28.71875 34.90625 
L 20.21875 34.90625 
L 20.21875 43.015625 
L 29.109375 43.015625 
Q 36.375 43.015625 40.234375 45.921875 
Q 44.09375 48.828125 44.09375 54.296875 
Q 44.09375 59.90625 40.109375 62.90625 
Q 36.140625 65.921875 28.71875 65.921875 
Q 24.65625 65.921875 20.015625 65.03125 
Q 15.375 64.15625 9.8125 62.3125 
L 9.8125 71.09375 
Q 15.4375 72.65625 20.34375 73.4375 
Q 25.25 74.21875 29.59375 74.21875 
Q 40.828125 74.21875 47.359375 69.109375 
Q 53.90625 64.015625 53.90625 55.328125 
Q 53.90625 49.265625 50.4375 45.09375 
Q 46.96875 40.921875 40.578125 39.3125 
z
" id="DejaVuSans-51"/>
      </defs>
      <g transform="translate(173.417285 418.798437)scale(0.1 -0.1)">
       <use xlink:href="#DejaVuSans-50"/>
       <use x="63.623047" xlink:href="#DejaVuSans-48"/>
       <use x="127.246094" xlink:href="#DejaVuSans-50"/>
       <use x="190.869141" xlink:href="#DejaVuSans-51"/>
       <use x="254.492188" xlink:href="#DejaVuSans-45"/>
       <use x="290.576172" xlink:href="#DejaVuSans-48"/>
       <use x="354.199219" xlink:href="#DejaVuSans-49"/>
      </g>
     </g>
    </g>
    <g id="xtick_3">
     <g id="line2d_3">
      <g>
       <use style="stroke:#000000;stroke-width:0.8;" x="314.588974" xlink:href="#m10ff4f2644" y="404.2"/>
      </g>
     </g>
     <g id="text_3">
      <!-- 2023-03 -->
      <g transform="translate(293.697567 418.798437)scale(0.1 -0.1)">
       <use xlink:href="#DejaVuSans-50"/>
       <use x="63.623047" xlink:href="#DejaVuSans-48"/>
       <use x="127.246094" xlink:href="#DejaVuSans-50"/>
       <use x="190.869141" xlink:href="#DejaVuSans-51"/>
       <use x="254.492188" xlink:href="#DejaVuSans-45"/>
       <use x="290.576172" xlink:href="#DejaVuSans-48"/>
       <use x="354.199219" xlink:href="#DejaVuSans-51"/>
      </g>
     </g>
    </g>
    <g id="xtick_4">
     <g id="line2d_4">
      <g>
       <use style="stroke:#000000;stroke-width:0.8;" x="438.946553" xlink:href="#m10ff4f2644" y="404.2"/>
      </g>
     </g>
     <g id="text_4">
      <!-- 2023-05 -->
      <defs>
       <path d="M 10.796875 72.90625 
L 49.515625 72.90625 
L 49.515625 64.59375 
L 19.828125 64.59375 
L 19.828125 46.734375 
Q 21.96875 47.46875 24.109375 47.828125 
Q 26.265625 48.1875 28.421875 48.1875 
Q 40.625 48.1875 47.75 41.5 
Q 54.890625 34.8125 54.890625 23.390625 
Q 54.890625 11.625 47.5625 5.09375 
Q 40.234375 -1.421875 26.90625 -1.421875 
Q 22.3125 -1.421875 17.546875 -0.640625 
Q 12.796875 0.140625 7.71875 1.703125 
L 7.71875 11.625 
Q 12.109375 9.234375 16.796875 8.0625 
Q 21.484375 6.890625 26.703125 6.890625 
Q 35.15625 6.890625 40.078125 11.328125 
Q 45.015625 15.765625 45.015625 23.390625 
Q 45.015625 31 40.078125 35.4375 
Q 35.15625 39.890625 26.703125 39.890625 
Q 22.75 39.890625 18.8125 39.015625 
Q 14.890625 38.140625 10.796875 36.28125 
z
" id="DejaVuSans-53"/>
      </defs>
      <g transform="translate(418.055147 418.798437)scale(0.1 -0.1)">
       <use xlink:href="#DejaVuSans-50"/>
       <use x="63.623047" xlink:href="#DejaVuSans-48"/>
       <use x="127.246094" xlink:href="#DejaVuSans-50"/>
       <use x="190.869141" xlink:href="#DejaVuSans-51"/>
       <use x="254.492188" xlink:href="#DejaVuSans-45"/>
       <use x="290.576172" xlink:href="#DejaVuSans-48"/>
       <use x="354.199219" xlink:href="#DejaVuSans-53"/>
      </g>
     </g>
    </g>
    <g id="xtick_5">
     <g id="line2d_5">
      <g>
       <use style="stroke:#000000;stroke-width:0.8;" x="563.304133" xlink:href="#m10ff4f2644" y="404.2"/>
      </g>
     </g>
     <g id="text_5">
      <!-- 2023-07 -->
      <defs>
       <path d="M 8.203125 72.90625 
L 55.078125 72.90625 
L 55.078125 68.703125 
L 28.609375 0 
L 18.3125 0 
L 43.21875 64.59375 
L 8.203125 64.59375 
z
" id="DejaVuSans-55"/>
      </defs>
      <g transform="translate(542.412727 418.798437)scale(0.1 -0.1)">
       <use xlink:href="#DejaVuSans-50"/>
       <use x="63.623047" xlink:href="#DejaVuSans-48"/>
       <use x="127.246094" xlink:href="#DejaVuSans-50"/>
       <use x="190.869141" xlink:href="#DejaVuSans-51"/>
       <use x="254.492188" xlink:href="#DejaVuSans-45"/>
       <use x="290.576172" xlink:href="#DejaVuSans-48"/>
       <use x="354.199219" xlink:href="#DejaVuSans-55"/>
      </g>
     </g>
    </g>
    <g id="xtick_6">
     <g id="line2d_6">
      <g>
       <use style="stroke:#000000;stroke-width:0.8;" x="689.700362" xlink:href="#m10ff4f2644" y="404.2"/>
      </g>
     </g>
     <g id="text_6">
      <!-- 2023-09 -->
      <defs>
       <path d="M 10.984375 1.515625 
L 10.984375 10.5 
Q 14.703125 8.734375 18.5 7.8125 
Q 22.3125 6.890625 25.984375 6.890625 
Q 35.75 6.890625 40.890625 13.453125 
Q 46.046875 20.015625 46.78125 33.40625 
Q 43.953125 29.203125 39.59375 26.953125 
Q 35.25 24.703125 29.984375 24.703125 
Q 19.046875 24.703125 12.671875 31.3125 
Q 6.296875 37.9375 6.296875 49.421875 
Q 6.296875 60.640625 12.9375 67.421875 
Q 19.578125 74.21875 30.609375 74.21875 
Q 43.265625 74.21875 49.921875 64.515625 
Q 56.59375 54.828125 56.59375 36.375 
Q 56.59375 19.140625 48.40625 8.859375 
Q 40.234375 -1.421875 26.421875 -1.421875 
Q 22.703125 -1.421875 18.890625 -0.6875 
Q 15.09375 0.046875 10.984375 1.515625 
z
M 30.609375 32.421875 
Q 37.25 32.421875 41.125 36.953125 
Q 45.015625 41.5 45.015625 49.421875 
Q 45.015625 57.28125 41.125 61.84375 
Q 37.25 66.40625 30.609375 66.40625 
Q 23.96875 66.40625 20.09375 61.84375 
Q 16.21875 57.28125 16.21875 49.421875 
Q 16.21875 41.5 20.09375 36.953125 
Q 23.96875 32.421875 30.609375 32.421875 
z
" id="DejaVuSans-57"/>
      </defs>
      <g transform="translate(668.808956 418.798437)scale(0.1 -0.1)">
       <use xlink:href="#DejaVuSans-50"/>
       <use x="63.623047" xlink:href="#DejaVuSans-48"/>
       <use x="127.246094" xlink:href="#DejaVuSans-50"/>
       <use x="190.869141" xlink:href="#DejaVuSans-51"/>
       <use x="254.492188" xlink:href="#DejaVuSans-45"/>
       <use x="290.576172" xlink:href="#DejaVuSans-48"/>
       <use x="354.199219" xlink:href="#DejaVuSans-57"/>
      </g>
     </g>
    </g>
    <g id="xtick_7">
     <g id="line2d_7">
      <g>
       <use style="stroke:#000000;stroke-width:0.8;" x="814.057942" xlink:href="#m10ff4f2644" y="404.2"/>
      </g>
     </g>
     <g id="text_7">
      <!-- 2023-11 -->
      <g transform="translate(793.166536 418.798437)scale(0.1 -0.1)">
       <use xlink:href="#DejaVuSans-50"/>
       <use x="63.623047" xlink:href="#DejaVuSans-48"/>
       <use x="127.246094" xlink:href="#DejaVuSans-50"/>
       <use x="190.869141" xlink:href="#DejaVuSans-51"/>
       <use x="254.492188" xlink:href="#DejaVuSans-45"/>
       <use x="290.576172" xlink:href="#DejaVuSans-49"/>
       <use x="354.199219" xlink:href="#DejaVuSans-49"/>
      </g>
     </g>
    </g>
   </g>
   <g id="matplotlib.axis_2">
    <g id="ytick_1">
     <g id="line2d_8">
      <defs>
       <path d="M 0 0 
L -3.5 0 
" id="m1d1d142bfe" style="stroke:#000000;stroke-width:0.8;"/>
      </defs>
      <g>
       <use style="stroke:#000000;stroke-width:0.8;" x="36.925" xlink:href="#m1d1d142bfe" y="387.136364"/>
      </g>
     </g>
     <g id="text_8">
      <!-- 0 -->
      <g transform="translate(23.5625 390.935582)scale(0.1 -0.1)">
       <use xlink:href="#DejaVuSans-48"/>
      </g>
     </g>
    </g>
    <g id="ytick_2">
     <g id="line2d_9">
      <g>
       <use style="stroke:#000000;stroke-width:0.8;" x="36.925" xlink:href="#m1d1d142bfe" y="325.383985"/>
      </g>
     </g>
     <g id="text_9">
      <!-- 100 -->
      <g transform="translate(10.8375 329.183204)scale(0.1 -0.1)">
       <use xlink:href="#DejaVuSans-49"/>
       <use x="63.623047" xlink:href="#DejaVuSans-48"/>
       <use x="127.246094" xlink:href="#DejaVuSans-48"/>
      </g>
     </g>
    </g>
    <g id="ytick_3">
     <g id="line2d_10">
      <g>
       <use style="stroke:#000000;stroke-width:0.8;" x="36.925" xlink:href="#m1d1d142bfe" y="263.631606"/>
      </g>
     </g>
     <g id="text_10">
      <!-- 200 -->
      <g transform="translate(10.8375 267.430825)scale(0.1 -0.1)">
       <use xlink:href="#DejaVuSans-50"/>
       <use x="63.623047" xlink:href="#DejaVuSans-48"/>
       <use x="127.246094" xlink:href="#DejaVuSans-48"/>
      </g>
     </g>
    </g>
    <g id="ytick_4">
     <g id="line2d_11">
      <g>
       <use style="stroke:#000000;stroke-width:0.8;" x="36.925" xlink:href="#m1d1d142bfe" y="201.879227"/>
      </g>
     </g>
     <g id="text_11">
      <!-- 300 -->
      <g transform="translate(10.8375 205.678446)scale(0.1 -0.1)">
       <use xlink:href="#DejaVuSans-51"/>
       <use x="63.623047" xlink:href="#DejaVuSans-48"/>
       <use x="127.246094" xlink:href="#DejaVuSans-48"/>
      </g>
     </g>
    </g>
    <g id="ytick_5">
     <g id="line2d_12">
      <g>
       <use style="stroke:#000000;stroke-width:0.8;" x="36.925" xlink:href="#m1d1d142bfe" y="140.126849"/>
      </g>
     </g>
     <g id="text_12">
      <!-- 400 -->
      <defs>
       <path d="M 37.796875 64.3125 
L 12.890625 25.390625 
L 37.796875 25.390625 
z
M 35.203125 72.90625 
L 47.609375 72.90625 
L 47.609375 25.390625 
L 58.015625 25.390625 
L 58.015625 17.1875 
L 47.609375 17.1875 
L 47.609375 0 
L 37.796875 0 
L 37.796875 17.1875 
L 4.890625 17.1875 
L 4.890625 26.703125 
z
" id="DejaVuSans-52"/>
      </defs>
      <g transform="translate(10.8375 143.926067)scale(0.1 -0.1)">
       <use xlink:href="#DejaVuSans-52"/>
       <use x="63.623047" xlink:href="#DejaVuSans-48"/>
       <use x="127.246094" xlink:href="#DejaVuSans-48"/>
      </g>
     </g>
    </g>
    <g id="ytick_6">
     <g id="line2d_13">
      <g>
       <use style="stroke:#000000;stroke-width:0.8;" x="36.925" xlink:href="#m1d1d142bfe" y="78.37447"/>
      </g>
     </g>
     <g id="text_13">
      <!-- 500 -->
      <g transform="translate(10.8375 82.173688)scale(0.1 -0.1)">
       <use xlink:href="#DejaVuSans-53"/>
       <use x="63.623047" xlink:href="#DejaVuSans-48"/>
       <use x="127.246094" xlink:href="#DejaVuSans-48"/>
      </g>
     </g>
    </g>
   </g>
   <g id="patch_3">
    <path d="M 36.925 404.2 
L 36.925 28.8 
" style="fill:none;stroke:#000000;stroke-linecap:square;stroke-linejoin:miter;stroke-width:0.8;"/>
   </g>
   <g id="patch_4">
    <path d="M 853.2 404.2 
L 853.2 28.8 
" style="fill:none;stroke:#000000;stroke-linecap:square;stroke-linejoin:miter;stroke-width:0.8;"/>
   </g>
   <g id="patch_5">
    <path d="M 36.925 404.2 
L 853.2 404.2 
" style="fill:none;stroke:#000000;stroke-linecap:square;stroke-linejoin:miter;stroke-width:0.8;"/>
   </g>
   <g id="patch_6">
    <path d="M 36.925 28.8 
L 853.2 28.8 
" style="fill:none;stroke:#000000;stroke-linecap:square;stroke-linejoin:miter;stroke-width:0.8;"/>
   </g>
   <g id="text_14">
    <!-- INTU - 38.09% -->
    <defs>
     <path d="M 9.1875 72.90625 
L 27.984375 72.90625 
L 27.984375 0 
L 9.1875 0 
z
" id="DejaVuSans-Bold-73"/>
     <path d="M 9.1875 72.90625 
L 30.171875 72.90625 
L 56.6875 22.90625 
L 56.6875 72.90625 
L 74.515625 72.90625 
L 74.515625 0 
L 53.515625 0 
L 27 50 
L 27 0 
L 9.1875 0 
z
" id="DejaVuSans-Bold-78"/>
     <path d="M 0.484375 72.90625 
L 67.671875 72.90625 
L 67.671875 58.6875 
L 43.5 58.6875 
L 43.5 0 
L 24.703125 0 
L 24.703125 58.6875 
L 0.484375 58.6875 
z
" id="DejaVuSans-Bold-84"/>
     <path d="M 9.1875 72.90625 
L 27.984375 72.90625 
L 27.984375 29.203125 
Q 27.984375 20.171875 30.9375 16.28125 
Q 33.890625 12.40625 40.578125 12.40625 
Q 47.3125 12.40625 50.265625 16.28125 
Q 53.21875 20.171875 53.21875 29.203125 
L 53.21875 72.90625 
L 72.015625 72.90625 
L 72.015625 29.203125 
Q 72.015625 13.71875 64.25 6.140625 
Q 56.5 -1.421875 40.578125 -1.421875 
Q 24.703125 -1.421875 16.9375 6.140625 
Q 9.1875 13.71875 9.1875 29.203125 
z
" id="DejaVuSans-Bold-85"/>
     <path id="DejaVuSans-Bold-32"/>
     <path d="M 5.421875 35.890625 
L 36.078125 35.890625 
L 36.078125 21.6875 
L 5.421875 21.6875 
z
" id="DejaVuSans-Bold-45"/>
     <path d="M 46.578125 39.3125 
Q 53.953125 37.40625 57.78125 32.6875 
Q 61.625 27.984375 61.625 20.703125 
Q 61.625 9.859375 53.3125 4.21875 
Q 45.015625 -1.421875 29.109375 -1.421875 
Q 23.484375 -1.421875 17.84375 -0.515625 
Q 12.203125 0.390625 6.6875 2.203125 
L 6.6875 16.703125 
Q 11.96875 14.0625 17.15625 12.71875 
Q 22.359375 11.375 27.390625 11.375 
Q 34.859375 11.375 38.84375 13.953125 
Q 42.828125 16.546875 42.828125 21.390625 
Q 42.828125 26.375 38.75 28.9375 
Q 34.671875 31.5 26.703125 31.5 
L 19.1875 31.5 
L 19.1875 43.609375 
L 27.09375 43.609375 
Q 34.1875 43.609375 37.640625 45.828125 
Q 41.109375 48.046875 41.109375 52.59375 
Q 41.109375 56.78125 37.734375 59.078125 
Q 34.375 61.375 28.21875 61.375 
Q 23.6875 61.375 19.046875 60.34375 
Q 14.40625 59.328125 9.8125 57.328125 
L 9.8125 71.09375 
Q 15.375 72.65625 20.84375 73.4375 
Q 26.3125 74.21875 31.59375 74.21875 
Q 45.796875 74.21875 52.84375 69.546875 
Q 59.90625 64.890625 59.90625 55.515625 
Q 59.90625 49.125 56.53125 45.046875 
Q 53.171875 40.96875 46.578125 39.3125 
z
" id="DejaVuSans-Bold-51"/>
     <path d="M 34.8125 32.625 
Q 29.546875 32.625 26.703125 29.734375 
Q 23.875 26.859375 23.875 21.484375 
Q 23.875 16.109375 26.703125 13.25 
Q 29.546875 10.40625 34.8125 10.40625 
Q 40.046875 10.40625 42.828125 13.25 
Q 45.609375 16.109375 45.609375 21.484375 
Q 45.609375 26.90625 42.828125 29.765625 
Q 40.046875 32.625 34.8125 32.625 
z
M 21.09375 38.8125 
Q 14.453125 40.828125 11.078125 44.96875 
Q 7.71875 49.125 7.71875 55.328125 
Q 7.71875 64.546875 14.59375 69.375 
Q 21.484375 74.21875 34.8125 74.21875 
Q 48.046875 74.21875 54.921875 69.40625 
Q 61.8125 64.59375 61.8125 55.328125 
Q 61.8125 49.125 58.421875 44.96875 
Q 55.03125 40.828125 48.390625 38.8125 
Q 55.8125 36.765625 59.59375 32.15625 
Q 63.375 27.546875 63.375 20.515625 
Q 63.375 9.671875 56.171875 4.125 
Q 48.96875 -1.421875 34.8125 -1.421875 
Q 20.609375 -1.421875 13.359375 4.125 
Q 6.109375 9.671875 6.109375 20.515625 
Q 6.109375 27.546875 9.890625 32.15625 
Q 13.671875 36.765625 21.09375 38.8125 
z
M 25.484375 53.421875 
Q 25.484375 49.078125 27.90625 46.734375 
Q 30.328125 44.390625 34.8125 44.390625 
Q 39.203125 44.390625 41.59375 46.734375 
Q 44 49.078125 44 53.421875 
Q 44 57.765625 41.59375 60.078125 
Q 39.203125 62.40625 34.8125 62.40625 
Q 30.328125 62.40625 27.90625 60.0625 
Q 25.484375 57.71875 25.484375 53.421875 
z
" id="DejaVuSans-Bold-56"/>
     <path d="M 10.203125 18.890625 
L 27.78125 18.890625 
L 27.78125 0 
L 10.203125 0 
z
" id="DejaVuSans-Bold-46"/>
     <path d="M 46 36.53125 
Q 46 50.203125 43.4375 55.78125 
Q 40.875 61.375 34.8125 61.375 
Q 28.765625 61.375 26.171875 55.78125 
Q 23.578125 50.203125 23.578125 36.53125 
Q 23.578125 22.703125 26.171875 17.03125 
Q 28.765625 11.375 34.8125 11.375 
Q 40.828125 11.375 43.40625 17.03125 
Q 46 22.703125 46 36.53125 
z
M 64.796875 36.375 
Q 64.796875 18.265625 56.984375 8.421875 
Q 49.171875 -1.421875 34.8125 -1.421875 
Q 20.40625 -1.421875 12.59375 8.421875 
Q 4.78125 18.265625 4.78125 36.375 
Q 4.78125 54.546875 12.59375 64.375 
Q 20.40625 74.21875 34.8125 74.21875 
Q 49.171875 74.21875 56.984375 64.375 
Q 64.796875 54.546875 64.796875 36.375 
z
" id="DejaVuSans-Bold-48"/>
     <path d="M 10.015625 1.609375 
L 10.015625 15.09375 
Q 14.5 12.984375 18.59375 11.9375 
Q 22.703125 10.890625 26.703125 10.890625 
Q 35.109375 10.890625 39.796875 15.546875 
Q 44.484375 20.21875 45.3125 29.390625 
Q 42 26.953125 38.234375 25.734375 
Q 34.46875 24.515625 30.078125 24.515625 
Q 18.890625 24.515625 12.03125 31.03125 
Q 5.171875 37.546875 5.171875 48.1875 
Q 5.171875 59.96875 12.8125 67.046875 
Q 20.453125 74.125 33.296875 74.125 
Q 47.5625 74.125 55.375 64.5 
Q 63.1875 54.890625 63.1875 37.3125 
Q 63.1875 19.234375 54.046875 8.90625 
Q 44.921875 -1.421875 29 -1.421875 
Q 23.875 -1.421875 19.1875 -0.65625 
Q 14.5 0.09375 10.015625 1.609375 
z
M 33.203125 36.71875 
Q 38.140625 36.71875 40.625 39.90625 
Q 43.109375 43.109375 43.109375 49.515625 
Q 43.109375 55.859375 40.625 59.078125 
Q 38.140625 62.3125 33.203125 62.3125 
Q 28.265625 62.3125 25.78125 59.078125 
Q 23.296875 55.859375 23.296875 49.515625 
Q 23.296875 43.109375 25.78125 39.90625 
Q 28.265625 36.71875 33.203125 36.71875 
z
" id="DejaVuSans-Bold-57"/>
     <path d="M 77.484375 30.078125 
Q 74.03125 30.078125 72.125 27.078125 
Q 70.21875 24.078125 70.21875 18.5 
Q 70.21875 12.890625 72.09375 9.890625 
Q 73.96875 6.890625 77.484375 6.890625 
Q 81 6.890625 82.859375 9.890625 
Q 84.71875 12.890625 84.71875 18.5 
Q 84.71875 24.078125 82.828125 27.078125 
Q 80.953125 30.078125 77.484375 30.078125 
z
M 77.484375 38.28125 
Q 86.578125 38.28125 91.796875 33 
Q 97.015625 27.734375 97.015625 18.5 
Q 97.015625 9.28125 91.796875 3.921875 
Q 86.578125 -1.421875 77.484375 -1.421875 
Q 68.40625 -1.421875 63.15625 3.921875 
Q 57.90625 9.28125 57.90625 18.5 
Q 57.90625 27.6875 63.15625 32.984375 
Q 68.40625 38.28125 77.484375 38.28125 
z
M 32.71875 -1.421875 
L 21.921875 -1.421875 
L 67.484375 74.21875 
L 78.328125 74.21875 
z
M 22.703125 74.21875 
Q 31.78125 74.21875 36.984375 68.921875 
Q 42.1875 63.625 42.1875 54.390625 
Q 42.1875 45.171875 36.984375 39.84375 
Q 31.78125 34.515625 22.703125 34.515625 
Q 13.625 34.515625 8.421875 39.84375 
Q 3.21875 45.171875 3.21875 54.390625 
Q 3.21875 63.625 8.421875 68.921875 
Q 13.625 74.21875 22.703125 74.21875 
z
M 22.703125 66.015625 
Q 19.1875 66.015625 17.28125 62.984375 
Q 15.375 59.96875 15.375 54.390625 
Q 15.375 48.78125 17.28125 45.71875 
Q 19.1875 42.671875 22.703125 42.671875 
Q 26.21875 42.671875 28.09375 45.71875 
Q 29.984375 48.78125 29.984375 54.390625 
Q 29.984375 59.96875 28.078125 62.984375 
Q 26.171875 66.015625 22.703125 66.015625 
z
" id="DejaVuSans-Bold-37"/>
    </defs>
    <g transform="translate(36.925 22.8)scale(0.16 -0.16)">
     <use xlink:href="#DejaVuSans-Bold-73"/>
     <use x="37.207031" xlink:href="#DejaVuSans-Bold-78"/>
     <use x="120.898438" xlink:href="#DejaVuSans-Bold-84"/>
     <use x="189.111328" xlink:href="#DejaVuSans-Bold-85"/>
     <use x="270.3125" xlink:href="#DejaVuSans-Bold-32"/>
     <use x="305.126953" xlink:href="#DejaVuSans-Bold-45"/>
     <use x="346.630859" xlink:href="#DejaVuSans-Bold-32"/>
     <use x="381.445312" xlink:href="#DejaVuSans-Bold-51"/>
     <use x="451.025391" xlink:href="#DejaVuSans-Bold-56"/>
     <use x="520.605469" xlink:href="#DejaVuSans-Bold-46"/>
     <use x="558.59375" xlink:href="#DejaVuSans-Bold-48"/>
     <use x="628.173828" xlink:href="#DejaVuSans-Bold-57"/>
     <use x="697.753906" xlink:href="#DejaVuSans-Bold-37"/>
    </g>
   </g>
  </g>
 </g>
 <defs>
  <clipPath id="pbb3dc3958e">
   <rect height="375.4" width="816.275" x="36.925" y="28.8"/>
  </clipPath>
 </defs>
</svg>
