<?xml version="1.0" encoding="utf-8" standalone="no"?>
<!DOCTYPE svg PUBLIC "-//W3C//DTD SVG 1.1//EN"
  "http://www.w3.org/Graphics/SVG/1.1/DTD/svg11.dtd">
<!-- Created with matplotlib (https://matplotlib.org/) -->
<svg height="432pt" version="1.1" viewBox="0 0 576 432" width="576pt" xmlns="http://www.w3.org/2000/svg" xmlns:xlink="http://www.w3.org/1999/xlink">
 <defs>
  <style type="text/css">
*{stroke-linecap:butt;stroke-linejoin:round;}
  </style>
 </defs>
 <g id="figure_1">
  <g id="patch_1">
   <path d="M 0 432 
L 576 432 
L 576 0 
L 0 0 
z
" style="fill:#ffffff;"/>
  </g>
  <g id="axes_1">
   <g id="patch_2">
    <path d="M 36.925 404.2 
L 565.2 404.2 
L 565.2 31.8 
L 36.925 31.8 
z
" style="fill:#ffffff;"/>
   </g>
   <g id="PolyCollection_1">
    <defs>
     <path d="M 60.9375 -44.727273 
L 60.9375 -266.697 
L 62.256868 -264.386032 
L 66.214973 -269.810738 
L 67.534341 -277.388328 
L 68.853709 -268.862017 
L 70.173077 -289.95885 
L 71.492445 -292.877995 
L 75.450549 -286.565383 
L 76.769918 -292.257666 
L 78.089286 -284.13275 
L 79.408654 -276.968706 
L 80.728022 -275.867942 
L 84.686126 -272.784601 
L 86.005495 -283.263109 
L 87.324863 -285.464619 
L 89.963599 -283.409059 
L 93.921703 -279.25537 
L 95.241071 -275.649008 
L 96.56044 -292.604323 
L 97.879808 -297.761469 
L 99.199176 -292.805029 
L 103.15728 -285.032808 
L 104.476648 -281.77312 
L 105.796016 -281.085883 
L 107.115385 -291.248132 
L 108.434753 -287.885044 
L 112.392857 -294.544331 
L 113.712225 -305.253905 
L 115.031593 -299.494695 
L 116.350962 -285.878146 
L 117.67033 -278.853995 
L 121.628434 -277.96607 
L 122.947802 -280.131125 
L 124.26717 -283.932044 
L 125.586538 -278.22759 
L 126.905907 -278.555982 
L 132.183379 -277.716719 
L 133.502747 -273.696867 
L 134.822115 -282.435998 
L 136.141484 -281.43254 
L 141.418956 -282.624534 
L 142.738324 -282.861696 
L 144.057692 -273.161655 
L 145.37706 -279.790507 
L 149.335165 -285.640611 
L 150.654533 -281.582135 
L 151.973901 -285.622328 
L 153.293269 -286.469386 
L 154.612637 -284.342636 
L 159.89011 -282.508403 
L 161.209478 -279.991644 
L 162.528846 -275.439552 
L 163.848214 -287.304236 
L 167.806319 -294.574167 
L 169.125687 -289.424873 
L 170.445055 -289.638161 
L 171.764423 -296.128073 
L 173.083791 -302.26458 
L 177.041896 -298.504697 
L 178.361264 -302.295053 
L 179.680632 -310.143885 
L 181 -320.265753 
L 182.319368 -302.959277 
L 186.277473 -297.614996 
L 187.596841 -305.341957 
L 188.916209 -301.728322 
L 190.235577 -300.509538 
L 191.554945 -296.719182 
L 195.513049 -299.504061 
L 196.832418 -301.868495 
L 198.151786 -301.423617 
L 199.471154 -293.574766 
L 200.790522 -291.149424 
L 206.067995 -286.201247 
L 207.387363 -292.368208 
L 208.706731 -295.719818 
L 210.026099 -300.552199 
L 213.984203 -296.170753 
L 215.303571 -292.855711 
L 216.62294 -289.254246 
L 217.942308 -288.705799 
L 219.261676 -293.672278 
L 223.21978 -296.225585 
L 224.539148 -294.141497 
L 225.858516 -298.638757 
L 227.177885 -291.271314 
L 228.497253 -283.977005 
L 232.455357 -283.337159 
L 233.774725 -293.538199 
L 235.094093 -292.331641 
L 236.413462 -299.540628 
L 237.73283 -296.822788 
L 241.690934 -295.695421 
L 243.010302 -301.905025 
L 244.32967 -297.139664 
L 245.649038 -308.279179 
L 246.968407 -306.499778 
L 250.926511 -304.897116 
L 252.245879 -300.259702 
L 253.565247 -308.7667 
L 254.884615 -312.910499 
L 256.203984 -316.408339 
L 260.162088 -313.263942 
L 261.481456 -312.739872 
L 262.800824 -312.337655 
L 264.120192 -317.459487 
L 269.397665 -316.214138 
L 270.717033 -311.806557 
L 272.036401 -310.335338 
L 273.355769 -314.437672 
L 274.675137 -314.321689 
L 278.633242 -313.387682 
L 279.95261 -314.913826 
L 281.271978 -316.68418 
L 282.591346 -317.850189 
L 283.910714 -317.239731 
L 287.868819 -314.749032 
L 289.188187 -301.019605 
L 290.507555 -297.277463 
L 291.826923 -306.715272 
L 293.146291 -315.744078 
L 297.104396 -314.865014 
L 298.423764 -311.171665 
L 299.743132 -307.014406 
L 301.0625 -302.619032 
L 302.381868 -304.755672 
L 306.339973 -305.329525 
L 307.659341 -305.811774 
L 308.978709 -308.155962 
L 310.298077 -304.108572 
L 311.617445 -305.775151 
L 315.575549 -304.91439 
L 316.894918 -301.984141 
L 318.214286 -308.36353 
L 319.533654 -318.008907 
L 320.853022 -317.013861 
L 324.811126 -321.946409 
L 326.130495 -319.315294 
L 327.449863 -298.632699 
L 328.769231 -296.911177 
L 330.088599 -300.164957 
L 335.366071 -292.631785 
L 336.68544 -300.586186 
L 338.004808 -302.417578 
L 339.324176 -307.527184 
L 343.28228 -315.06645 
L 344.601648 -318.51559 
L 345.921016 -302.56407 
L 347.240385 -303.174546 
L 348.559753 -308.174283 
L 352.517857 -317.068786 
L 353.837225 -317.941737 
L 355.156593 -317.129843 
L 356.475962 -323.289457 
L 357.79533 -322.508055 
L 363.072802 -322.569093 
L 364.39217 -319.760958 
L 365.711538 -319.950186 
L 367.030907 -321.079572 
L 370.989011 -321.451934 
L 372.308379 -324.949923 
L 373.627747 -325.316209 
L 374.947115 -322.990323 
L 376.266484 -324.437127 
L 380.224588 -320.395831 
L 382.863324 -324.223465 
L 384.182692 -320.353095 
L 385.50206 -318.805957 
L 389.460165 -328.675932 
L 390.779533 -328.29069 
L 392.098901 -336.326095 
L 393.418269 -339.084072 
L 394.737637 -340.698474 
L 398.695742 -344.875195 
L 400.01511 -347.694304 
L 401.334478 -350.831429 
L 402.653846 -345.462246 
L 403.973214 -345.914771 
L 407.931319 -343.456452 
L 409.250687 -348.330298 
L 410.570055 -348.568787 
L 411.889423 -348.366996 
L 413.208791 -357.729409 
L 417.166896 -357.643806 
L 418.486264 -355.686917 
L 419.805632 -349.296498 
L 421.125 -348.642182 
L 422.444368 -348.642182 
L 426.402473 -353.705593 
L 427.721841 -350.984314 
L 429.041209 -348.470957 
L 430.360577 -351.387914 
L 431.679945 -349.125273 
L 435.638049 -354.035798 
L 436.957418 -348.764483 
L 438.276786 -347.828849 
L 439.596154 -342.202839 
L 440.915522 -341.903181 
L 444.873626 -343.309698 
L 446.192995 -343.089549 
L 447.512363 -351.01488 
L 448.831731 -349.571684 
L 450.151099 -362.138486 
L 454.109203 -362.028412 
L 455.428571 -372.803455 
L 456.74794 -375.304623 
L 458.067308 -376.056786 
L 459.386676 -380.82054 
L 464.664148 -381.419855 
L 465.983516 -381.646099 
L 467.302885 -383.272727 
L 468.622253 -381.407592 
L 472.580357 -380.63707 
L 473.899725 -378.619049 
L 475.219093 -376.142408 
L 476.538462 -379.597493 
L 477.85783 -373.775805 
L 481.815934 -371.898406 
L 483.135302 -368.339341 
L 484.45467 -364.91484 
L 485.774038 -353.161334 
L 487.093407 -355.729728 
L 491.051511 -355.570729 
L 492.370879 -352.439736 
L 493.690247 -355.527918 
L 495.009615 -357.974011 
L 496.328984 -357.179037 
L 500.287088 -361.374096 
L 501.606456 -355.063186 
L 502.925824 -361.166174 
L 504.245192 -361.006894 
L 505.56456 -371.420905 
L 509.522665 -372.407164 
L 510.842033 -375.592634 
L 512.161401 -376.493159 
L 513.480769 -377.614169 
L 514.800137 -371.267758 
L 518.758242 -376.076603 
L 520.07761 -374.777917 
L 521.396978 -367.81888 
L 522.716346 -364.204628 
L 524.035714 -355.193432 
L 527.993819 -353.490436 
L 529.313187 -354.586975 
L 530.632555 -340.62607 
L 531.951923 -338.43301 
L 533.271291 -338.475877 
L 537.229396 -343.364343 
L 538.548764 -347.928137 
L 539.868132 -344.387374 
L 541.1875 -351.236113 
L 541.1875 -44.727273 
L 541.1875 -44.727273 
L 539.868132 -44.727273 
L 538.548764 -44.727273 
L 537.229396 -44.727273 
L 533.271291 -44.727273 
L 531.951923 -44.727273 
L 530.632555 -44.727273 
L 529.313187 -44.727273 
L 527.993819 -44.727273 
L 524.035714 -44.727273 
L 522.716346 -44.727273 
L 521.396978 -44.727273 
L 520.07761 -44.727273 
L 518.758242 -44.727273 
L 514.800137 -44.727273 
L 513.480769 -44.727273 
L 512.161401 -44.727273 
L 510.842033 -44.727273 
L 509.522665 -44.727273 
L 505.56456 -44.727273 
L 504.245192 -44.727273 
L 502.925824 -44.727273 
L 501.606456 -44.727273 
L 500.287088 -44.727273 
L 496.328984 -44.727273 
L 495.009615 -44.727273 
L 493.690247 -44.727273 
L 492.370879 -44.727273 
L 491.051511 -44.727273 
L 487.093407 -44.727273 
L 485.774038 -44.727273 
L 484.45467 -44.727273 
L 483.135302 -44.727273 
L 481.815934 -44.727273 
L 477.85783 -44.727273 
L 476.538462 -44.727273 
L 475.219093 -44.727273 
L 473.899725 -44.727273 
L 472.580357 -44.727273 
L 468.622253 -44.727273 
L 467.302885 -44.727273 
L 465.983516 -44.727273 
L 464.664148 -44.727273 
L 459.386676 -44.727273 
L 458.067308 -44.727273 
L 456.74794 -44.727273 
L 455.428571 -44.727273 
L 454.109203 -44.727273 
L 450.151099 -44.727273 
L 448.831731 -44.727273 
L 447.512363 -44.727273 
L 446.192995 -44.727273 
L 444.873626 -44.727273 
L 440.915522 -44.727273 
L 439.596154 -44.727273 
L 438.276786 -44.727273 
L 436.957418 -44.727273 
L 435.638049 -44.727273 
L 431.679945 -44.727273 
L 430.360577 -44.727273 
L 429.041209 -44.727273 
L 427.721841 -44.727273 
L 426.402473 -44.727273 
L 422.444368 -44.727273 
L 421.125 -44.727273 
L 419.805632 -44.727273 
L 418.486264 -44.727273 
L 417.166896 -44.727273 
L 413.208791 -44.727273 
L 411.889423 -44.727273 
L 410.570055 -44.727273 
L 409.250687 -44.727273 
L 407.931319 -44.727273 
L 403.973214 -44.727273 
L 402.653846 -44.727273 
L 401.334478 -44.727273 
L 400.01511 -44.727273 
L 398.695742 -44.727273 
L 394.737637 -44.727273 
L 393.418269 -44.727273 
L 392.098901 -44.727273 
L 390.779533 -44.727273 
L 389.460165 -44.727273 
L 385.50206 -44.727273 
L 384.182692 -44.727273 
L 382.863324 -44.727273 
L 380.224588 -44.727273 
L 376.266484 -44.727273 
L 374.947115 -44.727273 
L 373.627747 -44.727273 
L 372.308379 -44.727273 
L 370.989011 -44.727273 
L 367.030907 -44.727273 
L 365.711538 -44.727273 
L 364.39217 -44.727273 
L 363.072802 -44.727273 
L 357.79533 -44.727273 
L 356.475962 -44.727273 
L 355.156593 -44.727273 
L 353.837225 -44.727273 
L 352.517857 -44.727273 
L 348.559753 -44.727273 
L 347.240385 -44.727273 
L 345.921016 -44.727273 
L 344.601648 -44.727273 
L 343.28228 -44.727273 
L 339.324176 -44.727273 
L 338.004808 -44.727273 
L 336.68544 -44.727273 
L 335.366071 -44.727273 
L 330.088599 -44.727273 
L 328.769231 -44.727273 
L 327.449863 -44.727273 
L 326.130495 -44.727273 
L 324.811126 -44.727273 
L 320.853022 -44.727273 
L 319.533654 -44.727273 
L 318.214286 -44.727273 
L 316.894918 -44.727273 
L 315.575549 -44.727273 
L 311.617445 -44.727273 
L 310.298077 -44.727273 
L 308.978709 -44.727273 
L 307.659341 -44.727273 
L 306.339973 -44.727273 
L 302.381868 -44.727273 
L 301.0625 -44.727273 
L 299.743132 -44.727273 
L 298.423764 -44.727273 
L 297.104396 -44.727273 
L 293.146291 -44.727273 
L 291.826923 -44.727273 
L 290.507555 -44.727273 
L 289.188187 -44.727273 
L 287.868819 -44.727273 
L 283.910714 -44.727273 
L 282.591346 -44.727273 
L 281.271978 -44.727273 
L 279.95261 -44.727273 
L 278.633242 -44.727273 
L 274.675137 -44.727273 
L 273.355769 -44.727273 
L 272.036401 -44.727273 
L 270.717033 -44.727273 
L 269.397665 -44.727273 
L 264.120192 -44.727273 
L 262.800824 -44.727273 
L 261.481456 -44.727273 
L 260.162088 -44.727273 
L 256.203984 -44.727273 
L 254.884615 -44.727273 
L 253.565247 -44.727273 
L 252.245879 -44.727273 
L 250.926511 -44.727273 
L 246.968407 -44.727273 
L 245.649038 -44.727273 
L 244.32967 -44.727273 
L 243.010302 -44.727273 
L 241.690934 -44.727273 
L 237.73283 -44.727273 
L 236.413462 -44.727273 
L 235.094093 -44.727273 
L 233.774725 -44.727273 
L 232.455357 -44.727273 
L 228.497253 -44.727273 
L 227.177885 -44.727273 
L 225.858516 -44.727273 
L 224.539148 -44.727273 
L 223.21978 -44.727273 
L 219.261676 -44.727273 
L 217.942308 -44.727273 
L 216.62294 -44.727273 
L 215.303571 -44.727273 
L 213.984203 -44.727273 
L 210.026099 -44.727273 
L 208.706731 -44.727273 
L 207.387363 -44.727273 
L 206.067995 -44.727273 
L 200.790522 -44.727273 
L 199.471154 -44.727273 
L 198.151786 -44.727273 
L 196.832418 -44.727273 
L 195.513049 -44.727273 
L 191.554945 -44.727273 
L 190.235577 -44.727273 
L 188.916209 -44.727273 
L 187.596841 -44.727273 
L 186.277473 -44.727273 
L 182.319368 -44.727273 
L 181 -44.727273 
L 179.680632 -44.727273 
L 178.361264 -44.727273 
L 177.041896 -44.727273 
L 173.083791 -44.727273 
L 171.764423 -44.727273 
L 170.445055 -44.727273 
L 169.125687 -44.727273 
L 167.806319 -44.727273 
L 163.848214 -44.727273 
L 162.528846 -44.727273 
L 161.209478 -44.727273 
L 159.89011 -44.727273 
L 154.612637 -44.727273 
L 153.293269 -44.727273 
L 151.973901 -44.727273 
L 150.654533 -44.727273 
L 149.335165 -44.727273 
L 145.37706 -44.727273 
L 144.057692 -44.727273 
L 142.738324 -44.727273 
L 141.418956 -44.727273 
L 136.141484 -44.727273 
L 134.822115 -44.727273 
L 133.502747 -44.727273 
L 132.183379 -44.727273 
L 126.905907 -44.727273 
L 125.586538 -44.727273 
L 124.26717 -44.727273 
L 122.947802 -44.727273 
L 121.628434 -44.727273 
L 117.67033 -44.727273 
L 116.350962 -44.727273 
L 115.031593 -44.727273 
L 113.712225 -44.727273 
L 112.392857 -44.727273 
L 108.434753 -44.727273 
L 107.115385 -44.727273 
L 105.796016 -44.727273 
L 104.476648 -44.727273 
L 103.15728 -44.727273 
L 99.199176 -44.727273 
L 97.879808 -44.727273 
L 96.56044 -44.727273 
L 95.241071 -44.727273 
L 93.921703 -44.727273 
L 89.963599 -44.727273 
L 87.324863 -44.727273 
L 86.005495 -44.727273 
L 84.686126 -44.727273 
L 80.728022 -44.727273 
L 79.408654 -44.727273 
L 78.089286 -44.727273 
L 76.769918 -44.727273 
L 75.450549 -44.727273 
L 71.492445 -44.727273 
L 70.173077 -44.727273 
L 68.853709 -44.727273 
L 67.534341 -44.727273 
L 66.214973 -44.727273 
L 62.256868 -44.727273 
L 60.9375 -44.727273 
z
" id="m6b50be752d" style="stroke:#f5f6f8;"/>
    </defs>
    <g clip-path="url(#p8d99ac66ba)">
     <use style="fill:#f5f6f8;stroke:#f5f6f8;" x="0" xlink:href="#m6b50be752d" y="432"/>
    </g>
   </g>
   <g id="matplotlib.axis_1">
    <g id="xtick_1">
     <g id="line2d_1">
      <defs>
       <path d="M 0 0 
L 0 3.5 
" id="madde5e6a76" style="stroke:#000000;stroke-width:0.8;"/>
      </defs>
      <g>
       <use style="stroke:#000000;stroke-width:0.8;" x="58.298764" xlink:href="#madde5e6a76" y="404.2"/>
      </g>
     </g>
     <g id="text_1">
      <!-- 2022-11 -->
      <defs>
       <path d="M 19.1875 8.296875 
L 53.609375 8.296875 
L 53.609375 0 
L 7.328125 0 
L 7.328125 8.296875 
Q 12.9375 14.109375 22.625 23.890625 
Q 32.328125 33.6875 34.8125 36.53125 
Q 39.546875 41.84375 41.421875 45.53125 
Q 43.3125 49.21875 43.3125 52.78125 
Q 43.3125 58.59375 39.234375 62.25 
Q 35.15625 65.921875 28.609375 65.921875 
Q 23.96875 65.921875 18.8125 64.3125 
Q 13.671875 62.703125 7.8125 59.421875 
L 7.8125 69.390625 
Q 13.765625 71.78125 18.9375 73 
Q 24.125 74.21875 28.421875 74.21875 
Q 39.75 74.21875 46.484375 68.546875 
Q 53.21875 62.890625 53.21875 53.421875 
Q 53.21875 48.921875 51.53125 44.890625 
Q 49.859375 40.875 45.40625 35.40625 
Q 44.1875 33.984375 37.640625 27.21875 
Q 31.109375 20.453125 19.1875 8.296875 
z
" id="DejaVuSans-50"/>
       <path d="M 31.78125 66.40625 
Q 24.171875 66.40625 20.328125 58.90625 
Q 16.5 51.421875 16.5 36.375 
Q 16.5 21.390625 20.328125 13.890625 
Q 24.171875 6.390625 31.78125 6.390625 
Q 39.453125 6.390625 43.28125 13.890625 
Q 47.125 21.390625 47.125 36.375 
Q 47.125 51.421875 43.28125 58.90625 
Q 39.453125 66.40625 31.78125 66.40625 
z
M 31.78125 74.21875 
Q 44.046875 74.21875 50.515625 64.515625 
Q 56.984375 54.828125 56.984375 36.375 
Q 56.984375 17.96875 50.515625 8.265625 
Q 44.046875 -1.421875 31.78125 -1.421875 
Q 19.53125 -1.421875 13.0625 8.265625 
Q 6.59375 17.96875 6.59375 36.375 
Q 6.59375 54.828125 13.0625 64.515625 
Q 19.53125 74.21875 31.78125 74.21875 
z
" id="DejaVuSans-48"/>
       <path d="M 4.890625 31.390625 
L 31.203125 31.390625 
L 31.203125 23.390625 
L 4.890625 23.390625 
z
" id="DejaVuSans-45"/>
       <path d="M 12.40625 8.296875 
L 28.515625 8.296875 
L 28.515625 63.921875 
L 10.984375 60.40625 
L 10.984375 69.390625 
L 28.421875 72.90625 
L 38.28125 72.90625 
L 38.28125 8.296875 
L 54.390625 8.296875 
L 54.390625 0 
L 12.40625 0 
z
" id="DejaVuSans-49"/>
      </defs>
      <g transform="translate(37.407357 418.798437)scale(0.1 -0.1)">
       <use xlink:href="#DejaVuSans-50"/>
       <use x="63.623047" xlink:href="#DejaVuSans-48"/>
       <use x="127.246094" xlink:href="#DejaVuSans-50"/>
       <use x="190.869141" xlink:href="#DejaVuSans-50"/>
       <use x="254.492188" xlink:href="#DejaVuSans-45"/>
       <use x="290.576172" xlink:href="#DejaVuSans-49"/>
       <use x="354.199219" xlink:href="#DejaVuSans-49"/>
      </g>
     </g>
    </g>
    <g id="xtick_2">
     <g id="line2d_2">
      <g>
       <use style="stroke:#000000;stroke-width:0.8;" x="138.78022" xlink:href="#madde5e6a76" y="404.2"/>
      </g>
     </g>
     <g id="text_2">
      <!-- 2023-01 -->
      <defs>
       <path d="M 40.578125 39.3125 
Q 47.65625 37.796875 51.625 33 
Q 55.609375 28.21875 55.609375 21.1875 
Q 55.609375 10.40625 48.1875 4.484375 
Q 40.765625 -1.421875 27.09375 -1.421875 
Q 22.515625 -1.421875 17.65625 -0.515625 
Q 12.796875 0.390625 7.625 2.203125 
L 7.625 11.71875 
Q 11.71875 9.328125 16.59375 8.109375 
Q 21.484375 6.890625 26.8125 6.890625 
Q 36.078125 6.890625 40.9375 10.546875 
Q 45.796875 14.203125 45.796875 21.1875 
Q 45.796875 27.640625 41.28125 31.265625 
Q 36.765625 34.90625 28.71875 34.90625 
L 20.21875 34.90625 
L 20.21875 43.015625 
L 29.109375 43.015625 
Q 36.375 43.015625 40.234375 45.921875 
Q 44.09375 48.828125 44.09375 54.296875 
Q 44.09375 59.90625 40.109375 62.90625 
Q 36.140625 65.921875 28.71875 65.921875 
Q 24.65625 65.921875 20.015625 65.03125 
Q 15.375 64.15625 9.8125 62.3125 
L 9.8125 71.09375 
Q 15.4375 72.65625 20.34375 73.4375 
Q 25.25 74.21875 29.59375 74.21875 
Q 40.828125 74.21875 47.359375 69.109375 
Q 53.90625 64.015625 53.90625 55.328125 
Q 53.90625 49.265625 50.4375 45.09375 
Q 46.96875 40.921875 40.578125 39.3125 
z
" id="DejaVuSans-51"/>
      </defs>
      <g transform="translate(117.888814 418.798437)scale(0.1 -0.1)">
       <use xlink:href="#DejaVuSans-50"/>
       <use x="63.623047" xlink:href="#DejaVuSans-48"/>
       <use x="127.246094" xlink:href="#DejaVuSans-50"/>
       <use x="190.869141" xlink:href="#DejaVuSans-51"/>
       <use x="254.492188" xlink:href="#DejaVuSans-45"/>
       <use x="290.576172" xlink:href="#DejaVuSans-48"/>
       <use x="354.199219" xlink:href="#DejaVuSans-49"/>
      </g>
     </g>
    </g>
    <g id="xtick_3">
     <g id="line2d_3">
      <g>
       <use style="stroke:#000000;stroke-width:0.8;" x="216.62294" xlink:href="#madde5e6a76" y="404.2"/>
      </g>
     </g>
     <g id="text_3">
      <!-- 2023-03 -->
      <g transform="translate(195.731533 418.798437)scale(0.1 -0.1)">
       <use xlink:href="#DejaVuSans-50"/>
       <use x="63.623047" xlink:href="#DejaVuSans-48"/>
       <use x="127.246094" xlink:href="#DejaVuSans-50"/>
       <use x="190.869141" xlink:href="#DejaVuSans-51"/>
       <use x="254.492188" xlink:href="#DejaVuSans-45"/>
       <use x="290.576172" xlink:href="#DejaVuSans-48"/>
       <use x="354.199219" xlink:href="#DejaVuSans-51"/>
      </g>
     </g>
    </g>
    <g id="xtick_4">
     <g id="line2d_4">
      <g>
       <use style="stroke:#000000;stroke-width:0.8;" x="297.104396" xlink:href="#madde5e6a76" y="404.2"/>
      </g>
     </g>
     <g id="text_4">
      <!-- 2023-05 -->
      <defs>
       <path d="M 10.796875 72.90625 
L 49.515625 72.90625 
L 49.515625 64.59375 
L 19.828125 64.59375 
L 19.828125 46.734375 
Q 21.96875 47.46875 24.109375 47.828125 
Q 26.265625 48.1875 28.421875 48.1875 
Q 40.625 48.1875 47.75 41.5 
Q 54.890625 34.8125 54.890625 23.390625 
Q 54.890625 11.625 47.5625 5.09375 
Q 40.234375 -1.421875 26.90625 -1.421875 
Q 22.3125 -1.421875 17.546875 -0.640625 
Q 12.796875 0.140625 7.71875 1.703125 
L 7.71875 11.625 
Q 12.109375 9.234375 16.796875 8.0625 
Q 21.484375 6.890625 26.703125 6.890625 
Q 35.15625 6.890625 40.078125 11.328125 
Q 45.015625 15.765625 45.015625 23.390625 
Q 45.015625 31 40.078125 35.4375 
Q 35.15625 39.890625 26.703125 39.890625 
Q 22.75 39.890625 18.8125 39.015625 
Q 14.890625 38.140625 10.796875 36.28125 
z
" id="DejaVuSans-53"/>
      </defs>
      <g transform="translate(276.212989 418.798437)scale(0.1 -0.1)">
       <use xlink:href="#DejaVuSans-50"/>
       <use x="63.623047" xlink:href="#DejaVuSans-48"/>
       <use x="127.246094" xlink:href="#DejaVuSans-50"/>
       <use x="190.869141" xlink:href="#DejaVuSans-51"/>
       <use x="254.492188" xlink:href="#DejaVuSans-45"/>
       <use x="290.576172" xlink:href="#DejaVuSans-48"/>
       <use x="354.199219" xlink:href="#DejaVuSans-53"/>
      </g>
     </g>
    </g>
    <g id="xtick_5">
     <g id="line2d_5">
      <g>
       <use style="stroke:#000000;stroke-width:0.8;" x="377.585852" xlink:href="#madde5e6a76" y="404.2"/>
      </g>
     </g>
     <g id="text_5">
      <!-- 2023-07 -->
      <defs>
       <path d="M 8.203125 72.90625 
L 55.078125 72.90625 
L 55.078125 68.703125 
L 28.609375 0 
L 18.3125 0 
L 43.21875 64.59375 
L 8.203125 64.59375 
z
" id="DejaVuSans-55"/>
      </defs>
      <g transform="translate(356.694445 418.798437)scale(0.1 -0.1)">
       <use xlink:href="#DejaVuSans-50"/>
       <use x="63.623047" xlink:href="#DejaVuSans-48"/>
       <use x="127.246094" xlink:href="#DejaVuSans-50"/>
       <use x="190.869141" xlink:href="#DejaVuSans-51"/>
       <use x="254.492188" xlink:href="#DejaVuSans-45"/>
       <use x="290.576172" xlink:href="#DejaVuSans-48"/>
       <use x="354.199219" xlink:href="#DejaVuSans-55"/>
      </g>
     </g>
    </g>
    <g id="xtick_6">
     <g id="line2d_6">
      <g>
       <use style="stroke:#000000;stroke-width:0.8;" x="459.386676" xlink:href="#madde5e6a76" y="404.2"/>
      </g>
     </g>
     <g id="text_6">
      <!-- 2023-09 -->
      <defs>
       <path d="M 10.984375 1.515625 
L 10.984375 10.5 
Q 14.703125 8.734375 18.5 7.8125 
Q 22.3125 6.890625 25.984375 6.890625 
Q 35.75 6.890625 40.890625 13.453125 
Q 46.046875 20.015625 46.78125 33.40625 
Q 43.953125 29.203125 39.59375 26.953125 
Q 35.25 24.703125 29.984375 24.703125 
Q 19.046875 24.703125 12.671875 31.3125 
Q 6.296875 37.9375 6.296875 49.421875 
Q 6.296875 60.640625 12.9375 67.421875 
Q 19.578125 74.21875 30.609375 74.21875 
Q 43.265625 74.21875 49.921875 64.515625 
Q 56.59375 54.828125 56.59375 36.375 
Q 56.59375 19.140625 48.40625 8.859375 
Q 40.234375 -1.421875 26.421875 -1.421875 
Q 22.703125 -1.421875 18.890625 -0.6875 
Q 15.09375 0.046875 10.984375 1.515625 
z
M 30.609375 32.421875 
Q 37.25 32.421875 41.125 36.953125 
Q 45.015625 41.5 45.015625 49.421875 
Q 45.015625 57.28125 41.125 61.84375 
Q 37.25 66.40625 30.609375 66.40625 
Q 23.96875 66.40625 20.09375 61.84375 
Q 16.21875 57.28125 16.21875 49.421875 
Q 16.21875 41.5 20.09375 36.953125 
Q 23.96875 32.421875 30.609375 32.421875 
z
" id="DejaVuSans-57"/>
      </defs>
      <g transform="translate(438.49527 418.798437)scale(0.1 -0.1)">
       <use xlink:href="#DejaVuSans-50"/>
       <use x="63.623047" xlink:href="#DejaVuSans-48"/>
       <use x="127.246094" xlink:href="#DejaVuSans-50"/>
       <use x="190.869141" xlink:href="#DejaVuSans-51"/>
       <use x="254.492188" xlink:href="#DejaVuSans-45"/>
       <use x="290.576172" xlink:href="#DejaVuSans-48"/>
       <use x="354.199219" xlink:href="#DejaVuSans-57"/>
      </g>
     </g>
    </g>
    <g id="xtick_7">
     <g id="line2d_7">
      <g>
       <use style="stroke:#000000;stroke-width:0.8;" x="539.868132" xlink:href="#madde5e6a76" y="404.2"/>
      </g>
     </g>
     <g id="text_7">
      <!-- 2023-11 -->
      <g transform="translate(518.976726 418.798437)scale(0.1 -0.1)">
       <use xlink:href="#DejaVuSans-50"/>
       <use x="63.623047" xlink:href="#DejaVuSans-48"/>
       <use x="127.246094" xlink:href="#DejaVuSans-50"/>
       <use x="190.869141" xlink:href="#DejaVuSans-51"/>
       <use x="254.492188" xlink:href="#DejaVuSans-45"/>
       <use x="290.576172" xlink:href="#DejaVuSans-49"/>
       <use x="354.199219" xlink:href="#DejaVuSans-49"/>
      </g>
     </g>
    </g>
   </g>
   <g id="matplotlib.axis_2">
    <g id="ytick_1">
     <g id="line2d_8">
      <defs>
       <path d="M 0 0 
L -3.5 0 
" id="md4bbe72248" style="stroke:#000000;stroke-width:0.8;"/>
      </defs>
      <g>
       <use style="stroke:#000000;stroke-width:0.8;" x="36.925" xlink:href="#md4bbe72248" y="387.272727"/>
      </g>
     </g>
     <g id="text_8">
      <!-- 0 -->
      <g transform="translate(23.5625 391.071946)scale(0.1 -0.1)">
       <use xlink:href="#DejaVuSans-48"/>
      </g>
     </g>
    </g>
    <g id="ytick_2">
     <g id="line2d_9">
      <g>
       <use style="stroke:#000000;stroke-width:0.8;" x="36.925" xlink:href="#md4bbe72248" y="326.013841"/>
      </g>
     </g>
     <g id="text_9">
      <!-- 100 -->
      <g transform="translate(10.8375 329.81306)scale(0.1 -0.1)">
       <use xlink:href="#DejaVuSans-49"/>
       <use x="63.623047" xlink:href="#DejaVuSans-48"/>
       <use x="127.246094" xlink:href="#DejaVuSans-48"/>
      </g>
     </g>
    </g>
    <g id="ytick_3">
     <g id="line2d_10">
      <g>
       <use style="stroke:#000000;stroke-width:0.8;" x="36.925" xlink:href="#md4bbe72248" y="264.754955"/>
      </g>
     </g>
     <g id="text_10">
      <!-- 200 -->
      <g transform="translate(10.8375 268.554174)scale(0.1 -0.1)">
       <use xlink:href="#DejaVuSans-50"/>
       <use x="63.623047" xlink:href="#DejaVuSans-48"/>
       <use x="127.246094" xlink:href="#DejaVuSans-48"/>
      </g>
     </g>
    </g>
    <g id="ytick_4">
     <g id="line2d_11">
      <g>
       <use style="stroke:#000000;stroke-width:0.8;" x="36.925" xlink:href="#md4bbe72248" y="203.496069"/>
      </g>
     </g>
     <g id="text_11">
      <!-- 300 -->
      <g transform="translate(10.8375 207.295288)scale(0.1 -0.1)">
       <use xlink:href="#DejaVuSans-51"/>
       <use x="63.623047" xlink:href="#DejaVuSans-48"/>
       <use x="127.246094" xlink:href="#DejaVuSans-48"/>
      </g>
     </g>
    </g>
    <g id="ytick_5">
     <g id="line2d_12">
      <g>
       <use style="stroke:#000000;stroke-width:0.8;" x="36.925" xlink:href="#md4bbe72248" y="142.237183"/>
      </g>
     </g>
     <g id="text_12">
      <!-- 400 -->
      <defs>
       <path d="M 37.796875 64.3125 
L 12.890625 25.390625 
L 37.796875 25.390625 
z
M 35.203125 72.90625 
L 47.609375 72.90625 
L 47.609375 25.390625 
L 58.015625 25.390625 
L 58.015625 17.1875 
L 47.609375 17.1875 
L 47.609375 0 
L 37.796875 0 
L 37.796875 17.1875 
L 4.890625 17.1875 
L 4.890625 26.703125 
z
" id="DejaVuSans-52"/>
      </defs>
      <g transform="translate(10.8375 146.036401)scale(0.1 -0.1)">
       <use xlink:href="#DejaVuSans-52"/>
       <use x="63.623047" xlink:href="#DejaVuSans-48"/>
       <use x="127.246094" xlink:href="#DejaVuSans-48"/>
      </g>
     </g>
    </g>
    <g id="ytick_6">
     <g id="line2d_13">
      <g>
       <use style="stroke:#000000;stroke-width:0.8;" x="36.925" xlink:href="#md4bbe72248" y="80.978297"/>
      </g>
     </g>
     <g id="text_13">
      <!-- 500 -->
      <g transform="translate(10.8375 84.777515)scale(0.1 -0.1)">
       <use xlink:href="#DejaVuSans-53"/>
       <use x="63.623047" xlink:href="#DejaVuSans-48"/>
       <use x="127.246094" xlink:href="#DejaVuSans-48"/>
      </g>
     </g>
    </g>
   </g>
   <g id="patch_3">
    <path d="M 36.925 404.2 
L 36.925 31.8 
" style="fill:none;stroke:#000000;stroke-linecap:square;stroke-linejoin:miter;stroke-width:0.8;"/>
   </g>
   <g id="patch_4">
    <path d="M 565.2 404.2 
L 565.2 31.8 
" style="fill:none;stroke:#000000;stroke-linecap:square;stroke-linejoin:miter;stroke-width:0.8;"/>
   </g>
   <g id="patch_5">
    <path d="M 36.925 404.2 
L 565.2 404.2 
" style="fill:none;stroke:#000000;stroke-linecap:square;stroke-linejoin:miter;stroke-width:0.8;"/>
   </g>
   <g id="patch_6">
    <path d="M 36.925 31.8 
L 565.2 31.8 
" style="fill:none;stroke:#000000;stroke-linecap:square;stroke-linejoin:miter;stroke-width:0.8;"/>
   </g>
   <g id="text_14">
    <!-- INTU - 38.09% -->
    <defs>
     <path d="M 9.1875 72.90625 
L 27.984375 72.90625 
L 27.984375 0 
L 9.1875 0 
z
" id="DejaVuSans-Bold-73"/>
     <path d="M 9.1875 72.90625 
L 30.171875 72.90625 
L 56.6875 22.90625 
L 56.6875 72.90625 
L 74.515625 72.90625 
L 74.515625 0 
L 53.515625 0 
L 27 50 
L 27 0 
L 9.1875 0 
z
" id="DejaVuSans-Bold-78"/>
     <path d="M 0.484375 72.90625 
L 67.671875 72.90625 
L 67.671875 58.6875 
L 43.5 58.6875 
L 43.5 0 
L 24.703125 0 
L 24.703125 58.6875 
L 0.484375 58.6875 
z
" id="DejaVuSans-Bold-84"/>
     <path d="M 9.1875 72.90625 
L 27.984375 72.90625 
L 27.984375 29.203125 
Q 27.984375 20.171875 30.9375 16.28125 
Q 33.890625 12.40625 40.578125 12.40625 
Q 47.3125 12.40625 50.265625 16.28125 
Q 53.21875 20.171875 53.21875 29.203125 
L 53.21875 72.90625 
L 72.015625 72.90625 
L 72.015625 29.203125 
Q 72.015625 13.71875 64.25 6.140625 
Q 56.5 -1.421875 40.578125 -1.421875 
Q 24.703125 -1.421875 16.9375 6.140625 
Q 9.1875 13.71875 9.1875 29.203125 
z
" id="DejaVuSans-Bold-85"/>
     <path id="DejaVuSans-Bold-32"/>
     <path d="M 5.421875 35.890625 
L 36.078125 35.890625 
L 36.078125 21.6875 
L 5.421875 21.6875 
z
" id="DejaVuSans-Bold-45"/>
     <path d="M 46.578125 39.3125 
Q 53.953125 37.40625 57.78125 32.6875 
Q 61.625 27.984375 61.625 20.703125 
Q 61.625 9.859375 53.3125 4.21875 
Q 45.015625 -1.421875 29.109375 -1.421875 
Q 23.484375 -1.421875 17.84375 -0.515625 
Q 12.203125 0.390625 6.6875 2.203125 
L 6.6875 16.703125 
Q 11.96875 14.0625 17.15625 12.71875 
Q 22.359375 11.375 27.390625 11.375 
Q 34.859375 11.375 38.84375 13.953125 
Q 42.828125 16.546875 42.828125 21.390625 
Q 42.828125 26.375 38.75 28.9375 
Q 34.671875 31.5 26.703125 31.5 
L 19.1875 31.5 
L 19.1875 43.609375 
L 27.09375 43.609375 
Q 34.1875 43.609375 37.640625 45.828125 
Q 41.109375 48.046875 41.109375 52.59375 
Q 41.109375 56.78125 37.734375 59.078125 
Q 34.375 61.375 28.21875 61.375 
Q 23.6875 61.375 19.046875 60.34375 
Q 14.40625 59.328125 9.8125 57.328125 
L 9.8125 71.09375 
Q 15.375 72.65625 20.84375 73.4375 
Q 26.3125 74.21875 31.59375 74.21875 
Q 45.796875 74.21875 52.84375 69.546875 
Q 59.90625 64.890625 59.90625 55.515625 
Q 59.90625 49.125 56.53125 45.046875 
Q 53.171875 40.96875 46.578125 39.3125 
z
" id="DejaVuSans-Bold-51"/>
     <path d="M 34.8125 32.625 
Q 29.546875 32.625 26.703125 29.734375 
Q 23.875 26.859375 23.875 21.484375 
Q 23.875 16.109375 26.703125 13.25 
Q 29.546875 10.40625 34.8125 10.40625 
Q 40.046875 10.40625 42.828125 13.25 
Q 45.609375 16.109375 45.609375 21.484375 
Q 45.609375 26.90625 42.828125 29.765625 
Q 40.046875 32.625 34.8125 32.625 
z
M 21.09375 38.8125 
Q 14.453125 40.828125 11.078125 44.96875 
Q 7.71875 49.125 7.71875 55.328125 
Q 7.71875 64.546875 14.59375 69.375 
Q 21.484375 74.21875 34.8125 74.21875 
Q 48.046875 74.21875 54.921875 69.40625 
Q 61.8125 64.59375 61.8125 55.328125 
Q 61.8125 49.125 58.421875 44.96875 
Q 55.03125 40.828125 48.390625 38.8125 
Q 55.8125 36.765625 59.59375 32.15625 
Q 63.375 27.546875 63.375 20.515625 
Q 63.375 9.671875 56.171875 4.125 
Q 48.96875 -1.421875 34.8125 -1.421875 
Q 20.609375 -1.421875 13.359375 4.125 
Q 6.109375 9.671875 6.109375 20.515625 
Q 6.109375 27.546875 9.890625 32.15625 
Q 13.671875 36.765625 21.09375 38.8125 
z
M 25.484375 53.421875 
Q 25.484375 49.078125 27.90625 46.734375 
Q 30.328125 44.390625 34.8125 44.390625 
Q 39.203125 44.390625 41.59375 46.734375 
Q 44 49.078125 44 53.421875 
Q 44 57.765625 41.59375 60.078125 
Q 39.203125 62.40625 34.8125 62.40625 
Q 30.328125 62.40625 27.90625 60.0625 
Q 25.484375 57.71875 25.484375 53.421875 
z
" id="DejaVuSans-Bold-56"/>
     <path d="M 10.203125 18.890625 
L 27.78125 18.890625 
L 27.78125 0 
L 10.203125 0 
z
" id="DejaVuSans-Bold-46"/>
     <path d="M 46 36.53125 
Q 46 50.203125 43.4375 55.78125 
Q 40.875 61.375 34.8125 61.375 
Q 28.765625 61.375 26.171875 55.78125 
Q 23.578125 50.203125 23.578125 36.53125 
Q 23.578125 22.703125 26.171875 17.03125 
Q 28.765625 11.375 34.8125 11.375 
Q 40.828125 11.375 43.40625 17.03125 
Q 46 22.703125 46 36.53125 
z
M 64.796875 36.375 
Q 64.796875 18.265625 56.984375 8.421875 
Q 49.171875 -1.421875 34.8125 -1.421875 
Q 20.40625 -1.421875 12.59375 8.421875 
Q 4.78125 18.265625 4.78125 36.375 
Q 4.78125 54.546875 12.59375 64.375 
Q 20.40625 74.21875 34.8125 74.21875 
Q 49.171875 74.21875 56.984375 64.375 
Q 64.796875 54.546875 64.796875 36.375 
z
" id="DejaVuSans-Bold-48"/>
     <path d="M 10.015625 1.609375 
L 10.015625 15.09375 
Q 14.5 12.984375 18.59375 11.9375 
Q 22.703125 10.890625 26.703125 10.890625 
Q 35.109375 10.890625 39.796875 15.546875 
Q 44.484375 20.21875 45.3125 29.390625 
Q 42 26.953125 38.234375 25.734375 
Q 34.46875 24.515625 30.078125 24.515625 
Q 18.890625 24.515625 12.03125 31.03125 
Q 5.171875 37.546875 5.171875 48.1875 
Q 5.171875 59.96875 12.8125 67.046875 
Q 20.453125 74.125 33.296875 74.125 
Q 47.5625 74.125 55.375 64.5 
Q 63.1875 54.890625 63.1875 37.3125 
Q 63.1875 19.234375 54.046875 8.90625 
Q 44.921875 -1.421875 29 -1.421875 
Q 23.875 -1.421875 19.1875 -0.65625 
Q 14.5 0.09375 10.015625 1.609375 
z
M 33.203125 36.71875 
Q 38.140625 36.71875 40.625 39.90625 
Q 43.109375 43.109375 43.109375 49.515625 
Q 43.109375 55.859375 40.625 59.078125 
Q 38.140625 62.3125 33.203125 62.3125 
Q 28.265625 62.3125 25.78125 59.078125 
Q 23.296875 55.859375 23.296875 49.515625 
Q 23.296875 43.109375 25.78125 39.90625 
Q 28.265625 36.71875 33.203125 36.71875 
z
" id="DejaVuSans-Bold-57"/>
     <path d="M 77.484375 30.078125 
Q 74.03125 30.078125 72.125 27.078125 
Q 70.21875 24.078125 70.21875 18.5 
Q 70.21875 12.890625 72.09375 9.890625 
Q 73.96875 6.890625 77.484375 6.890625 
Q 81 6.890625 82.859375 9.890625 
Q 84.71875 12.890625 84.71875 18.5 
Q 84.71875 24.078125 82.828125 27.078125 
Q 80.953125 30.078125 77.484375 30.078125 
z
M 77.484375 38.28125 
Q 86.578125 38.28125 91.796875 33 
Q 97.015625 27.734375 97.015625 18.5 
Q 97.015625 9.28125 91.796875 3.921875 
Q 86.578125 -1.421875 77.484375 -1.421875 
Q 68.40625 -1.421875 63.15625 3.921875 
Q 57.90625 9.28125 57.90625 18.5 
Q 57.90625 27.6875 63.15625 32.984375 
Q 68.40625 38.28125 77.484375 38.28125 
z
M 32.71875 -1.421875 
L 21.921875 -1.421875 
L 67.484375 74.21875 
L 78.328125 74.21875 
z
M 22.703125 74.21875 
Q 31.78125 74.21875 36.984375 68.921875 
Q 42.1875 63.625 42.1875 54.390625 
Q 42.1875 45.171875 36.984375 39.84375 
Q 31.78125 34.515625 22.703125 34.515625 
Q 13.625 34.515625 8.421875 39.84375 
Q 3.21875 45.171875 3.21875 54.390625 
Q 3.21875 63.625 8.421875 68.921875 
Q 13.625 74.21875 22.703125 74.21875 
z
M 22.703125 66.015625 
Q 19.1875 66.015625 17.28125 62.984375 
Q 15.375 59.96875 15.375 54.390625 
Q 15.375 48.78125 17.28125 45.71875 
Q 19.1875 42.671875 22.703125 42.671875 
Q 26.21875 42.671875 28.09375 45.71875 
Q 29.984375 48.78125 29.984375 54.390625 
Q 29.984375 59.96875 28.078125 62.984375 
Q 26.171875 66.015625 22.703125 66.015625 
z
" id="DejaVuSans-Bold-37"/>
    </defs>
    <g transform="translate(36.925 25.8)scale(0.2 -0.2)">
     <use xlink:href="#DejaVuSans-Bold-73"/>
     <use x="37.207031" xlink:href="#DejaVuSans-Bold-78"/>
     <use x="120.898438" xlink:href="#DejaVuSans-Bold-84"/>
     <use x="189.111328" xlink:href="#DejaVuSans-Bold-85"/>
     <use x="270.3125" xlink:href="#DejaVuSans-Bold-32"/>
     <use x="305.126953" xlink:href="#DejaVuSans-Bold-45"/>
     <use x="346.630859" xlink:href="#DejaVuSans-Bold-32"/>
     <use x="381.445312" xlink:href="#DejaVuSans-Bold-51"/>
     <use x="451.025391" xlink:href="#DejaVuSans-Bold-56"/>
     <use x="520.605469" xlink:href="#DejaVuSans-Bold-46"/>
     <use x="558.59375" xlink:href="#DejaVuSans-Bold-48"/>
     <use x="628.173828" xlink:href="#DejaVuSans-Bold-57"/>
     <use x="697.753906" xlink:href="#DejaVuSans-Bold-37"/>
    </g>
   </g>
  </g>
 </g>
 <defs>
  <clipPath id="p8d99ac66ba">
   <rect height="372.4" width="528.275" x="36.925" y="31.8"/>
  </clipPath>
 </defs>
</svg>
