<?xml version="1.0" encoding="utf-8" standalone="no"?>
<!DOCTYPE svg PUBLIC "-//W3C//DTD SVG 1.1//EN"
  "http://www.w3.org/Graphics/SVG/1.1/DTD/svg11.dtd">
<svg xmlns:xlink="http://www.w3.org/1999/xlink" width="720pt" height="720pt" viewBox="0 0 720 720" xmlns="http://www.w3.org/2000/svg" version="1.1">
 <metadata>
  <rdf:RDF xmlns:dc="http://purl.org/dc/elements/1.1/" xmlns:cc="http://creativecommons.org/ns#" xmlns:rdf="http://www.w3.org/1999/02/22-rdf-syntax-ns#">
   <cc:Work>
    <dc:type rdf:resource="http://purl.org/dc/dcmitype/StillImage"/>
    <dc:date>2023-10-17T23:38:27.564464</dc:date>
    <dc:format>image/svg+xml</dc:format>
    <dc:creator>
     <cc:Agent>
      <dc:title>Matplotlib v3.7.2, https://matplotlib.org/</dc:title>
     </cc:Agent>
    </dc:creator>
   </cc:Work>
  </rdf:RDF>
 </metadata>
 <defs>
  <style type="text/css">*{stroke-linejoin: round; stroke-linecap: butt}</style>
 </defs>
 <g id="figure_1">
  <g id="patch_1">
   <path d="M 0 720 
L 720 720 
L 720 0 
L 0 0 
z
" style="fill: #ffffff"/>
  </g>
  <g id="axes_1">
   <g id="patch_2">
    <path d="M 90 640.8 
L 648 640.8 
L 648 86.4 
L 90 86.4 
z
" style="fill: #ffffff"/>
   </g>
   <g id="matplotlib.axis_1">
    <g id="xtick_1">
     <g id="line2d_1">
      <defs>
       <path id="m78ce1a88c3" d="M 0 0 
L 0 3.5 
" style="stroke: #000000; stroke-width: 0.8"/>
      </defs>
      <g>
       <use xlink:href="#m78ce1a88c3" x="264.47952" y="640.8" style="stroke: #000000; stroke-width: 0.8"/>
      </g>
     </g>
     <g id="text_1">
      <!-- Feb-2023 -->
      <g transform="translate(189.66202 672.115) scale(0.32 -0.32)">
       <defs>
        <path id="DejaVuSans-46" d="M 628 4666 
L 3309 4666 
L 3309 4134 
L 1259 4134 
L 1259 2759 
L 3109 2759 
L 3109 2228 
L 1259 2228 
L 1259 0 
L 628 0 
L 628 4666 
z
" transform="scale(0.015625)"/>
        <path id="DejaVuSans-65" d="M 3597 1894 
L 3597 1613 
L 953 1613 
Q 991 1019 1311 708 
Q 1631 397 2203 397 
Q 2534 397 2845 478 
Q 3156 559 3463 722 
L 3463 178 
Q 3153 47 2828 -22 
Q 2503 -91 2169 -91 
Q 1331 -91 842 396 
Q 353 884 353 1716 
Q 353 2575 817 3079 
Q 1281 3584 2069 3584 
Q 2775 3584 3186 3129 
Q 3597 2675 3597 1894 
z
M 3022 2063 
Q 3016 2534 2758 2815 
Q 2500 3097 2075 3097 
Q 1594 3097 1305 2825 
Q 1016 2553 972 2059 
L 3022 2063 
z
" transform="scale(0.015625)"/>
        <path id="DejaVuSans-62" d="M 3116 1747 
Q 3116 2381 2855 2742 
Q 2594 3103 2138 3103 
Q 1681 3103 1420 2742 
Q 1159 2381 1159 1747 
Q 1159 1113 1420 752 
Q 1681 391 2138 391 
Q 2594 391 2855 752 
Q 3116 1113 3116 1747 
z
M 1159 2969 
Q 1341 3281 1617 3432 
Q 1894 3584 2278 3584 
Q 2916 3584 3314 3078 
Q 3713 2572 3713 1747 
Q 3713 922 3314 415 
Q 2916 -91 2278 -91 
Q 1894 -91 1617 61 
Q 1341 213 1159 525 
L 1159 0 
L 581 0 
L 581 4863 
L 1159 4863 
L 1159 2969 
z
" transform="scale(0.015625)"/>
        <path id="DejaVuSans-2d" d="M 313 2009 
L 1997 2009 
L 1997 1497 
L 313 1497 
L 313 2009 
z
" transform="scale(0.015625)"/>
        <path id="DejaVuSans-32" d="M 1228 531 
L 3431 531 
L 3431 0 
L 469 0 
L 469 531 
Q 828 903 1448 1529 
Q 2069 2156 2228 2338 
Q 2531 2678 2651 2914 
Q 2772 3150 2772 3378 
Q 2772 3750 2511 3984 
Q 2250 4219 1831 4219 
Q 1534 4219 1204 4116 
Q 875 4013 500 3803 
L 500 4441 
Q 881 4594 1212 4672 
Q 1544 4750 1819 4750 
Q 2544 4750 2975 4387 
Q 3406 4025 3406 3419 
Q 3406 3131 3298 2873 
Q 3191 2616 2906 2266 
Q 2828 2175 2409 1742 
Q 1991 1309 1228 531 
z
" transform="scale(0.015625)"/>
        <path id="DejaVuSans-30" d="M 2034 4250 
Q 1547 4250 1301 3770 
Q 1056 3291 1056 2328 
Q 1056 1369 1301 889 
Q 1547 409 2034 409 
Q 2525 409 2770 889 
Q 3016 1369 3016 2328 
Q 3016 3291 2770 3770 
Q 2525 4250 2034 4250 
z
M 2034 4750 
Q 2819 4750 3233 4129 
Q 3647 3509 3647 2328 
Q 3647 1150 3233 529 
Q 2819 -91 2034 -91 
Q 1250 -91 836 529 
Q 422 1150 422 2328 
Q 422 3509 836 4129 
Q 1250 4750 2034 4750 
z
" transform="scale(0.015625)"/>
        <path id="DejaVuSans-33" d="M 2597 2516 
Q 3050 2419 3304 2112 
Q 3559 1806 3559 1356 
Q 3559 666 3084 287 
Q 2609 -91 1734 -91 
Q 1441 -91 1130 -33 
Q 819 25 488 141 
L 488 750 
Q 750 597 1062 519 
Q 1375 441 1716 441 
Q 2309 441 2620 675 
Q 2931 909 2931 1356 
Q 2931 1769 2642 2001 
Q 2353 2234 1838 2234 
L 1294 2234 
L 1294 2753 
L 1863 2753 
Q 2328 2753 2575 2939 
Q 2822 3125 2822 3475 
Q 2822 3834 2567 4026 
Q 2313 4219 1838 4219 
Q 1578 4219 1281 4162 
Q 984 4106 628 3988 
L 628 4550 
Q 988 4650 1302 4700 
Q 1616 4750 1894 4750 
Q 2613 4750 3031 4423 
Q 3450 4097 3450 3541 
Q 3450 3153 3228 2886 
Q 3006 2619 2597 2516 
z
" transform="scale(0.015625)"/>
       </defs>
       <use xlink:href="#DejaVuSans-46"/>
       <use xlink:href="#DejaVuSans-65" x="52.019531"/>
       <use xlink:href="#DejaVuSans-62" x="113.542969"/>
       <use xlink:href="#DejaVuSans-2d" x="177.019531"/>
       <use xlink:href="#DejaVuSans-32" x="213.103516"/>
       <use xlink:href="#DejaVuSans-30" x="276.726562"/>
       <use xlink:href="#DejaVuSans-32" x="340.349609"/>
       <use xlink:href="#DejaVuSans-33" x="403.972656"/>
      </g>
     </g>
    </g>
    <g id="xtick_2">
     <g id="line2d_2">
      <g>
       <use xlink:href="#m78ce1a88c3" x="516.722278" y="640.8" style="stroke: #000000; stroke-width: 0.8"/>
      </g>
     </g>
     <g id="text_2">
      <!-- Aug-2023 -->
      <g transform="translate(438.987278 672.115) scale(0.32 -0.32)">
       <defs>
        <path id="DejaVuSans-41" d="M 2188 4044 
L 1331 1722 
L 3047 1722 
L 2188 4044 
z
M 1831 4666 
L 2547 4666 
L 4325 0 
L 3669 0 
L 3244 1197 
L 1141 1197 
L 716 0 
L 50 0 
L 1831 4666 
z
" transform="scale(0.015625)"/>
        <path id="DejaVuSans-75" d="M 544 1381 
L 544 3500 
L 1119 3500 
L 1119 1403 
Q 1119 906 1312 657 
Q 1506 409 1894 409 
Q 2359 409 2629 706 
Q 2900 1003 2900 1516 
L 2900 3500 
L 3475 3500 
L 3475 0 
L 2900 0 
L 2900 538 
Q 2691 219 2414 64 
Q 2138 -91 1772 -91 
Q 1169 -91 856 284 
Q 544 659 544 1381 
z
M 1991 3584 
L 1991 3584 
z
" transform="scale(0.015625)"/>
        <path id="DejaVuSans-67" d="M 2906 1791 
Q 2906 2416 2648 2759 
Q 2391 3103 1925 3103 
Q 1463 3103 1205 2759 
Q 947 2416 947 1791 
Q 947 1169 1205 825 
Q 1463 481 1925 481 
Q 2391 481 2648 825 
Q 2906 1169 2906 1791 
z
M 3481 434 
Q 3481 -459 3084 -895 
Q 2688 -1331 1869 -1331 
Q 1566 -1331 1297 -1286 
Q 1028 -1241 775 -1147 
L 775 -588 
Q 1028 -725 1275 -790 
Q 1522 -856 1778 -856 
Q 2344 -856 2625 -561 
Q 2906 -266 2906 331 
L 2906 616 
Q 2728 306 2450 153 
Q 2172 0 1784 0 
Q 1141 0 747 490 
Q 353 981 353 1791 
Q 353 2603 747 3093 
Q 1141 3584 1784 3584 
Q 2172 3584 2450 3431 
Q 2728 3278 2906 2969 
L 2906 3500 
L 3481 3500 
L 3481 434 
z
" transform="scale(0.015625)"/>
       </defs>
       <use xlink:href="#DejaVuSans-41"/>
       <use xlink:href="#DejaVuSans-75" x="68.408203"/>
       <use xlink:href="#DejaVuSans-67" x="131.787109"/>
       <use xlink:href="#DejaVuSans-2d" x="195.263672"/>
       <use xlink:href="#DejaVuSans-32" x="231.347656"/>
       <use xlink:href="#DejaVuSans-30" x="294.970703"/>
       <use xlink:href="#DejaVuSans-32" x="358.59375"/>
       <use xlink:href="#DejaVuSans-33" x="422.216797"/>
      </g>
     </g>
    </g>
   </g>
   <g id="matplotlib.axis_2">
    <g id="ytick_1">
     <g id="line2d_3">
      <defs>
       <path id="m2e0f60692c" d="M 0 0 
L -3.5 0 
" style="stroke: #000000; stroke-width: 0.8"/>
      </defs>
      <g>
       <use xlink:href="#m2e0f60692c" x="90" y="618.092372" style="stroke: #000000; stroke-width: 0.8"/>
      </g>
     </g>
     <g id="text_3">
      <!-- 140 -->
      <g transform="translate(21.92 630.249872) scale(0.32 -0.32)">
       <defs>
        <path id="DejaVuSans-31" d="M 794 531 
L 1825 531 
L 1825 4091 
L 703 3866 
L 703 4441 
L 1819 4666 
L 2450 4666 
L 2450 531 
L 3481 531 
L 3481 0 
L 794 0 
L 794 531 
z
" transform="scale(0.015625)"/>
        <path id="DejaVuSans-34" d="M 2419 4116 
L 825 1625 
L 2419 1625 
L 2419 4116 
z
M 2253 4666 
L 3047 4666 
L 3047 1625 
L 3713 1625 
L 3713 1100 
L 3047 1100 
L 3047 0 
L 2419 0 
L 2419 1100 
L 313 1100 
L 313 1709 
L 2253 4666 
z
" transform="scale(0.015625)"/>
       </defs>
       <use xlink:href="#DejaVuSans-31"/>
       <use xlink:href="#DejaVuSans-34" x="63.623047"/>
       <use xlink:href="#DejaVuSans-30" x="127.246094"/>
      </g>
     </g>
    </g>
    <g id="ytick_2">
     <g id="line2d_4">
      <g>
       <use xlink:href="#m2e0f60692c" x="90" y="532.497814" style="stroke: #000000; stroke-width: 0.8"/>
      </g>
     </g>
     <g id="text_4">
      <!-- 150 -->
      <g transform="translate(21.92 544.655314) scale(0.32 -0.32)">
       <defs>
        <path id="DejaVuSans-35" d="M 691 4666 
L 3169 4666 
L 3169 4134 
L 1269 4134 
L 1269 2991 
Q 1406 3038 1543 3061 
Q 1681 3084 1819 3084 
Q 2600 3084 3056 2656 
Q 3513 2228 3513 1497 
Q 3513 744 3044 326 
Q 2575 -91 1722 -91 
Q 1428 -91 1123 -41 
Q 819 9 494 109 
L 494 744 
Q 775 591 1075 516 
Q 1375 441 1709 441 
Q 2250 441 2565 725 
Q 2881 1009 2881 1497 
Q 2881 1984 2565 2268 
Q 2250 2553 1709 2553 
Q 1456 2553 1204 2497 
Q 953 2441 691 2322 
L 691 4666 
z
" transform="scale(0.015625)"/>
       </defs>
       <use xlink:href="#DejaVuSans-31"/>
       <use xlink:href="#DejaVuSans-35" x="63.623047"/>
       <use xlink:href="#DejaVuSans-30" x="127.246094"/>
      </g>
     </g>
    </g>
    <g id="ytick_3">
     <g id="line2d_5">
      <g>
       <use xlink:href="#m2e0f60692c" x="90" y="446.903256" style="stroke: #000000; stroke-width: 0.8"/>
      </g>
     </g>
     <g id="text_5">
      <!-- 160 -->
      <g transform="translate(21.92 459.060756) scale(0.32 -0.32)">
       <defs>
        <path id="DejaVuSans-36" d="M 2113 2584 
Q 1688 2584 1439 2293 
Q 1191 2003 1191 1497 
Q 1191 994 1439 701 
Q 1688 409 2113 409 
Q 2538 409 2786 701 
Q 3034 994 3034 1497 
Q 3034 2003 2786 2293 
Q 2538 2584 2113 2584 
z
M 3366 4563 
L 3366 3988 
Q 3128 4100 2886 4159 
Q 2644 4219 2406 4219 
Q 1781 4219 1451 3797 
Q 1122 3375 1075 2522 
Q 1259 2794 1537 2939 
Q 1816 3084 2150 3084 
Q 2853 3084 3261 2657 
Q 3669 2231 3669 1497 
Q 3669 778 3244 343 
Q 2819 -91 2113 -91 
Q 1303 -91 875 529 
Q 447 1150 447 2328 
Q 447 3434 972 4092 
Q 1497 4750 2381 4750 
Q 2619 4750 2861 4703 
Q 3103 4656 3366 4563 
z
" transform="scale(0.015625)"/>
       </defs>
       <use xlink:href="#DejaVuSans-31"/>
       <use xlink:href="#DejaVuSans-36" x="63.623047"/>
       <use xlink:href="#DejaVuSans-30" x="127.246094"/>
      </g>
     </g>
    </g>
    <g id="ytick_4">
     <g id="line2d_6">
      <g>
       <use xlink:href="#m2e0f60692c" x="90" y="361.308697" style="stroke: #000000; stroke-width: 0.8"/>
      </g>
     </g>
     <g id="text_6">
      <!-- 170 -->
      <g transform="translate(21.92 373.466197) scale(0.32 -0.32)">
       <defs>
        <path id="DejaVuSans-37" d="M 525 4666 
L 3525 4666 
L 3525 4397 
L 1831 0 
L 1172 0 
L 2766 4134 
L 525 4134 
L 525 4666 
z
" transform="scale(0.015625)"/>
       </defs>
       <use xlink:href="#DejaVuSans-31"/>
       <use xlink:href="#DejaVuSans-37" x="63.623047"/>
       <use xlink:href="#DejaVuSans-30" x="127.246094"/>
      </g>
     </g>
    </g>
    <g id="ytick_5">
     <g id="line2d_7">
      <g>
       <use xlink:href="#m2e0f60692c" x="90" y="275.714139" style="stroke: #000000; stroke-width: 0.8"/>
      </g>
     </g>
     <g id="text_7">
      <!-- 180 -->
      <g transform="translate(21.92 287.871639) scale(0.32 -0.32)">
       <defs>
        <path id="DejaVuSans-38" d="M 2034 2216 
Q 1584 2216 1326 1975 
Q 1069 1734 1069 1313 
Q 1069 891 1326 650 
Q 1584 409 2034 409 
Q 2484 409 2743 651 
Q 3003 894 3003 1313 
Q 3003 1734 2745 1975 
Q 2488 2216 2034 2216 
z
M 1403 2484 
Q 997 2584 770 2862 
Q 544 3141 544 3541 
Q 544 4100 942 4425 
Q 1341 4750 2034 4750 
Q 2731 4750 3128 4425 
Q 3525 4100 3525 3541 
Q 3525 3141 3298 2862 
Q 3072 2584 2669 2484 
Q 3125 2378 3379 2068 
Q 3634 1759 3634 1313 
Q 3634 634 3220 271 
Q 2806 -91 2034 -91 
Q 1263 -91 848 271 
Q 434 634 434 1313 
Q 434 1759 690 2068 
Q 947 2378 1403 2484 
z
M 1172 3481 
Q 1172 3119 1398 2916 
Q 1625 2713 2034 2713 
Q 2441 2713 2670 2916 
Q 2900 3119 2900 3481 
Q 2900 3844 2670 4047 
Q 2441 4250 2034 4250 
Q 1625 4250 1398 4047 
Q 1172 3844 1172 3481 
z
" transform="scale(0.015625)"/>
       </defs>
       <use xlink:href="#DejaVuSans-31"/>
       <use xlink:href="#DejaVuSans-38" x="63.623047"/>
       <use xlink:href="#DejaVuSans-30" x="127.246094"/>
      </g>
     </g>
    </g>
    <g id="ytick_6">
     <g id="line2d_8">
      <g>
       <use xlink:href="#m2e0f60692c" x="90" y="190.119581" style="stroke: #000000; stroke-width: 0.8"/>
      </g>
     </g>
     <g id="text_8">
      <!-- 190 -->
      <g transform="translate(21.92 202.277081) scale(0.32 -0.32)">
       <defs>
        <path id="DejaVuSans-39" d="M 703 97 
L 703 672 
Q 941 559 1184 500 
Q 1428 441 1663 441 
Q 2288 441 2617 861 
Q 2947 1281 2994 2138 
Q 2813 1869 2534 1725 
Q 2256 1581 1919 1581 
Q 1219 1581 811 2004 
Q 403 2428 403 3163 
Q 403 3881 828 4315 
Q 1253 4750 1959 4750 
Q 2769 4750 3195 4129 
Q 3622 3509 3622 2328 
Q 3622 1225 3098 567 
Q 2575 -91 1691 -91 
Q 1453 -91 1209 -44 
Q 966 3 703 97 
z
M 1959 2075 
Q 2384 2075 2632 2365 
Q 2881 2656 2881 3163 
Q 2881 3666 2632 3958 
Q 2384 4250 1959 4250 
Q 1534 4250 1286 3958 
Q 1038 3666 1038 3163 
Q 1038 2656 1286 2365 
Q 1534 2075 1959 2075 
z
" transform="scale(0.015625)"/>
       </defs>
       <use xlink:href="#DejaVuSans-31"/>
       <use xlink:href="#DejaVuSans-39" x="63.623047"/>
       <use xlink:href="#DejaVuSans-30" x="127.246094"/>
      </g>
     </g>
    </g>
    <g id="ytick_7">
     <g id="line2d_9">
      <g>
       <use xlink:href="#m2e0f60692c" x="90" y="104.525023" style="stroke: #000000; stroke-width: 0.8"/>
      </g>
     </g>
     <g id="text_9">
      <!-- 200 -->
      <g transform="translate(21.92 116.682523) scale(0.32 -0.32)">
       <use xlink:href="#DejaVuSans-32"/>
       <use xlink:href="#DejaVuSans-30" x="63.623047"/>
       <use xlink:href="#DejaVuSans-30" x="127.246094"/>
      </g>
     </g>
    </g>
   </g>
   <g id="line2d_10">
    <path d="M 115.363636 237.773087 
L 116.757243 219.603442 
L 118.150849 235.153373 
L 119.544456 249.09723 
L 120.938062 233.378555 
L 125.118881 217.997891 
L 126.512488 188.165832 
L 127.906094 183.264284 
L 129.2997 157.150734 
L 130.693307 111.6 
L 134.874126 134.164045 
L 136.267732 115.740893 
L 139.054945 298.451108 
L 140.448551 291.352229 
L 144.629371 279.605311 
L 146.022977 287.295709 
L 147.416583 358.453107 
L 148.81019 331.15652 
L 150.203796 341.804511 
L 154.384615 316.958763 
L 155.778222 285.098508 
L 157.171828 289.831181 
L 158.565435 269.041562 
L 159.959041 236.420913 
L 164.13986 220.78648 
L 165.533467 219.687815 
L 166.927073 210.222991 
L 169.714286 198.729451 
L 173.895105 220.870983 
L 175.288711 245.378981 
L 176.682318 211.994021 
L 178.075924 200.300913 
L 179.46953 192.929066 
L 183.65035 215.55293 
L 185.043956 261.647642 
L 186.437562 250.717148 
L 187.831169 249.530976 
L 189.224775 278.170855 
L 193.405594 266.731647 
L 194.799201 265.121786 
L 197.586414 308.759521 
L 198.98002 311.979243 
L 203.160839 330.451243 
L 204.554446 321.130348 
L 205.948052 305.709066 
L 207.341658 319.435854 
L 208.735265 313.758632 
L 214.30969 300.540296 
L 215.703297 319.690015 
L 217.096903 312.487696 
L 218.490509 328.841251 
L 224.064935 324.265437 
L 225.458541 315.029568 
L 226.852148 343.923609 
L 228.245754 305.624171 
L 232.426573 306.471549 
L 233.82018 305.031085 
L 235.213786 281.8989 
L 236.607393 277.747036 
L 238.000999 276.306572 
L 243.575425 276.052542 
L 244.969031 290.795974 
L 246.362637 317.99526 
L 247.756244 300.879091 
L 251.937063 287.32183 
L 253.330669 304.522763 
L 254.724276 300.370899 
L 256.117882 280.119641 
L 257.511489 286.898272 
L 261.692308 299.015069 
L 264.47952 281.390577 
L 265.873127 270.290556 
L 267.266733 285.28828 
L 271.447552 310.79294 
L 272.841159 278.848444 
L 274.234765 422.217109 
L 277.021978 372.478724 
L 281.202797 371.377316 
L 282.596404 405.10094 
L 283.99001 389.255968 
L 285.383616 416.963576 
L 286.777223 384.425993 
L 292.351648 404.931543 
L 293.745255 408.744351 
L 295.138861 405.10094 
L 296.532468 416.116329 
L 300.713287 411.964334 
L 302.106893 424.759112 
L 303.5005 427.300984 
L 304.894106 411.117087 
L 306.287712 409.337568 
L 310.468531 420.776514 
L 311.862138 425.366695 
L 313.255744 420.096444 
L 314.649351 432.506845 
L 316.042957 472.712491 
L 320.223776 615.6 
L 321.617383 611.18 
L 323.010989 579.984274 
L 324.404595 557.458888 
L 325.798202 571.484244 
L 329.979021 524.308367 
L 331.372627 522.948488 
L 332.766234 562.133963 
L 334.15984 569.614214 
L 335.553447 564.853983 
L 339.734266 546.238838 
L 341.127872 543.773633 
L 342.521479 553.973773 
L 343.915085 558.564084 
L 345.308691 535.273603 
L 349.48951 536.378538 
L 352.276723 565.449159 
L 353.67033 553.208808 
L 359.244755 552.273923 
L 360.638362 512.578167 
L 362.031968 527.708327 
L 363.425574 470.757436 
L 364.819181 507.732911 
L 369 481.977616 
L 370.393606 502.463052 
L 371.787213 507.477966 
L 373.180819 490.902771 
L 374.574426 480.362662 
L 378.755245 469.057456 
L 380.148851 490.987797 
L 381.542458 500.847967 
L 382.936064 459.197155 
L 384.32967 428.00169 
L 388.51049 429.786695 
L 389.904096 456.732211 
L 391.297702 473.647506 
L 392.691309 557.543913 
L 394.084915 516.488277 
L 398.265734 505.693092 
L 399.659341 522.523362 
L 401.052947 513.343132 
L 402.446553 499.062962 
L 403.84016 492.007837 
L 408.020979 501.018017 
L 409.414585 559.329049 
L 410.808192 556.353823 
L 412.201798 535.443653 
L 413.595405 551.593853 
L 417.776224 534.763583 
L 419.16983 550.828758 
L 420.563437 573.949189 
L 421.957043 551.258193 
L 423.350649 549.125513 
L 428.925075 549.125513 
L 430.318681 512.188436 
L 431.712288 526.860949 
L 433.105894 513.467992 
L 437.286713 492.227126 
L 438.68032 490.776997 
L 440.073926 483.867107 
L 441.467532 485.999787 
L 442.861139 469.536 
L 447.041958 459.128717 
L 448.435564 463.479234 
L 449.829171 443.944486 
L 451.222777 405.727853 
L 452.616384 421.338777 
L 458.190809 419.461956 
L 459.584416 415.111308 
L 460.978022 432.257778 
L 462.371628 427.651141 
L 466.552448 420.144508 
L 467.946054 411.784489 
L 469.33966 415.282012 
L 470.733267 396.258981 
L 472.126873 389.008076 
L 476.307692 381.245323 
L 479.094905 395.405988 
L 480.488511 422.021068 
L 481.882118 425.859867 
L 486.062937 424.068462 
L 487.456543 410.33436 
L 488.85015 406.495561 
L 490.243756 396.514971 
L 491.637363 393.955728 
L 495.818182 380.562771 
L 497.211788 365.634399 
L 498.605395 342.687545 
L 499.999001 349.767877 
L 501.392607 352.497562 
L 505.573427 338.166325 
L 506.967033 337.057341 
L 508.360639 358.810187 
L 511.147852 381.415896 
L 515.328671 386.960682 
L 516.722278 352.326859 
L 518.115884 367.51122 
L 519.509491 356.33623 
L 520.903097 374.42098 
L 525.083916 349.170612 
L 526.477522 361.795731 
L 527.871129 350.023736 
L 529.264735 350.791444 
L 530.658342 351.729854 
L 534.839161 349.511757 
L 536.232767 380.648188 
L 537.626374 481.64927 
L 539.01998 495.554076 
L 540.413586 493.933244 
L 544.594406 493.08012 
L 545.988012 480.369714 
L 547.381618 481.137422 
L 548.775225 469.621286 
L 550.168831 465.441342 
L 554.34965 462.796944 
L 555.743257 472.777664 
L 557.136863 453.669217 
L 558.53047 479.004872 
L 559.924076 467.915168 
L 565.498501 484.720231 
L 566.892108 505.278807 
L 568.285714 524.109584 
L 569.679321 520.514628 
L 573.86014 520.685723 
L 575.253746 506.819446 
L 576.647353 519.829856 
L 578.040959 508.95931 
L 579.434565 494.06581 
L 583.615385 488.074217 
L 585.008991 509.472857 
L 586.402597 507.846539 
L 587.796204 544.395452 
L 589.18981 550.558271 
L 593.370629 551.842137 
L 594.764236 553.554133 
L 596.157842 545.850544 
L 597.551449 518.203538 
L 598.945055 522.740039 
L 603.125874 533.610585 
L 604.519481 561.257591 
L 605.913087 553.896453 
L 607.306693 544.652225 
L 608.7003 541.314043 
L 612.881119 551.328591 
L 614.274725 542.597909 
L 615.668332 556.635542 
L 617.061938 579.917142 
L 618.455544 571.61459 
L 622.636364 550.472723 
L 622.636364 550.472723 
" clip-path="url(#p8c864dd910)" style="fill: none; stroke: #000000; stroke-width: 2.5; stroke-linecap: square"/>
   </g>
   <g id="patch_3">
    <path d="M 90 640.8 
L 90 86.4 
" style="fill: none; stroke: #000000; stroke-width: 0.8; stroke-linejoin: miter; stroke-linecap: square"/>
   </g>
   <g id="patch_4">
    <path d="M 90 640.8 
L 648 640.8 
" style="fill: none; stroke: #000000; stroke-width: 0.8; stroke-linejoin: miter; stroke-linecap: square"/>
   </g>
   <g id="text_10">
    <!-- -20% -->
    <g transform="translate(529.632614 628.227098) scale(0.36 -0.36)">
     <defs>
      <path id="DejaVuSans-25" d="M 4653 2053 
Q 4381 2053 4226 1822 
Q 4072 1591 4072 1178 
Q 4072 772 4226 539 
Q 4381 306 4653 306 
Q 4919 306 5073 539 
Q 5228 772 5228 1178 
Q 5228 1588 5073 1820 
Q 4919 2053 4653 2053 
z
M 4653 2450 
Q 5147 2450 5437 2106 
Q 5728 1763 5728 1178 
Q 5728 594 5436 251 
Q 5144 -91 4653 -91 
Q 4153 -91 3862 251 
Q 3572 594 3572 1178 
Q 3572 1766 3864 2108 
Q 4156 2450 4653 2450 
z
M 1428 4353 
Q 1159 4353 1004 4120 
Q 850 3888 850 3481 
Q 850 3069 1003 2837 
Q 1156 2606 1428 2606 
Q 1700 2606 1854 2837 
Q 2009 3069 2009 3481 
Q 2009 3884 1853 4118 
Q 1697 4353 1428 4353 
z
M 4250 4750 
L 4750 4750 
L 1831 -91 
L 1331 -91 
L 4250 4750 
z
M 1428 4750 
Q 1922 4750 2215 4408 
Q 2509 4066 2509 3481 
Q 2509 2891 2217 2550 
Q 1925 2209 1428 2209 
Q 931 2209 642 2551 
Q 353 2894 353 3481 
Q 353 4063 643 4406 
Q 934 4750 1428 4750 
z
" transform="scale(0.015625)"/>
     </defs>
     <use xlink:href="#DejaVuSans-2d"/>
     <use xlink:href="#DejaVuSans-32" x="36.083984"/>
     <use xlink:href="#DejaVuSans-30" x="99.707031"/>
     <use xlink:href="#DejaVuSans-25" x="163.330078"/>
    </g>
   </g>
  </g>
 </g>
 <defs>
  <clipPath id="p8c864dd910">
   <rect x="90" y="86.4" width="558" height="554.4"/>
  </clipPath>
 </defs>
</svg>
