<?xml version="1.0" encoding="utf-8" standalone="no"?>
<!DOCTYPE svg PUBLIC "-//W3C//DTD SVG 1.1//EN"
  "http://www.w3.org/Graphics/SVG/1.1/DTD/svg11.dtd">
<!-- Created with matplotlib (https://matplotlib.org/) -->
<svg height="720pt" version="1.1" viewBox="0 0 720 720" width="720pt" xmlns="http://www.w3.org/2000/svg" xmlns:xlink="http://www.w3.org/1999/xlink">
 <defs>
  <style type="text/css">
*{stroke-linecap:butt;stroke-linejoin:round;}
  </style>
 </defs>
 <g id="figure_1">
  <g id="patch_1">
   <path d="M 0 720 
L 720 720 
L 720 0 
L 0 0 
z
" style="fill:none;"/>
  </g>
  <g id="axes_1">
   <g id="patch_2">
    <path d="M 90 630 
L 648 630 
L 648 86.4 
L 90 86.4 
z
" style="fill:none;"/>
   </g>
   <g id="matplotlib.axis_1">
    <g id="xtick_1">
     <g id="line2d_1">
      <defs>
       <path d="M 0 0 
L 0 3.5 
" id="mfad8a75734" style="stroke:#000000;stroke-width:0.8;"/>
      </defs>
      <g>
       <use style="stroke:#000000;stroke-width:0.8;" x="282.138232" xlink:href="#mfad8a75734" y="630"/>
      </g>
     </g>
     <g id="text_1">
      <!-- Mar-2023 -->
      <defs>
       <path d="M 9.8125 72.90625 
L 24.515625 72.90625 
L 43.109375 23.296875 
L 61.8125 72.90625 
L 76.515625 72.90625 
L 76.515625 0 
L 66.890625 0 
L 66.890625 64.015625 
L 48.09375 14.015625 
L 38.1875 14.015625 
L 19.390625 64.015625 
L 19.390625 0 
L 9.8125 0 
z
" id="DejaVuSans-77"/>
       <path d="M 34.28125 27.484375 
Q 23.390625 27.484375 19.1875 25 
Q 14.984375 22.515625 14.984375 16.5 
Q 14.984375 11.71875 18.140625 8.90625 
Q 21.296875 6.109375 26.703125 6.109375 
Q 34.1875 6.109375 38.703125 11.40625 
Q 43.21875 16.703125 43.21875 25.484375 
L 43.21875 27.484375 
z
M 52.203125 31.203125 
L 52.203125 0 
L 43.21875 0 
L 43.21875 8.296875 
Q 40.140625 3.328125 35.546875 0.953125 
Q 30.953125 -1.421875 24.3125 -1.421875 
Q 15.921875 -1.421875 10.953125 3.296875 
Q 6 8.015625 6 15.921875 
Q 6 25.140625 12.171875 29.828125 
Q 18.359375 34.515625 30.609375 34.515625 
L 43.21875 34.515625 
L 43.21875 35.40625 
Q 43.21875 41.609375 39.140625 45 
Q 35.0625 48.390625 27.6875 48.390625 
Q 23 48.390625 18.546875 47.265625 
Q 14.109375 46.140625 10.015625 43.890625 
L 10.015625 52.203125 
Q 14.9375 54.109375 19.578125 55.046875 
Q 24.21875 56 28.609375 56 
Q 40.484375 56 46.34375 49.84375 
Q 52.203125 43.703125 52.203125 31.203125 
z
" id="DejaVuSans-97"/>
       <path d="M 41.109375 46.296875 
Q 39.59375 47.171875 37.8125 47.578125 
Q 36.03125 48 33.890625 48 
Q 26.265625 48 22.1875 43.046875 
Q 18.109375 38.09375 18.109375 28.8125 
L 18.109375 0 
L 9.078125 0 
L 9.078125 54.6875 
L 18.109375 54.6875 
L 18.109375 46.1875 
Q 20.953125 51.171875 25.484375 53.578125 
Q 30.03125 56 36.53125 56 
Q 37.453125 56 38.578125 55.875 
Q 39.703125 55.765625 41.0625 55.515625 
z
" id="DejaVuSans-114"/>
       <path d="M 4.890625 31.390625 
L 31.203125 31.390625 
L 31.203125 23.390625 
L 4.890625 23.390625 
z
" id="DejaVuSans-45"/>
       <path d="M 19.1875 8.296875 
L 53.609375 8.296875 
L 53.609375 0 
L 7.328125 0 
L 7.328125 8.296875 
Q 12.9375 14.109375 22.625 23.890625 
Q 32.328125 33.6875 34.8125 36.53125 
Q 39.546875 41.84375 41.421875 45.53125 
Q 43.3125 49.21875 43.3125 52.78125 
Q 43.3125 58.59375 39.234375 62.25 
Q 35.15625 65.921875 28.609375 65.921875 
Q 23.96875 65.921875 18.8125 64.3125 
Q 13.671875 62.703125 7.8125 59.421875 
L 7.8125 69.390625 
Q 13.765625 71.78125 18.9375 73 
Q 24.125 74.21875 28.421875 74.21875 
Q 39.75 74.21875 46.484375 68.546875 
Q 53.21875 62.890625 53.21875 53.421875 
Q 53.21875 48.921875 51.53125 44.890625 
Q 49.859375 40.875 45.40625 35.40625 
Q 44.1875 33.984375 37.640625 27.21875 
Q 31.109375 20.453125 19.1875 8.296875 
z
" id="DejaVuSans-50"/>
       <path d="M 31.78125 66.40625 
Q 24.171875 66.40625 20.328125 58.90625 
Q 16.5 51.421875 16.5 36.375 
Q 16.5 21.390625 20.328125 13.890625 
Q 24.171875 6.390625 31.78125 6.390625 
Q 39.453125 6.390625 43.28125 13.890625 
Q 47.125 21.390625 47.125 36.375 
Q 47.125 51.421875 43.28125 58.90625 
Q 39.453125 66.40625 31.78125 66.40625 
z
M 31.78125 74.21875 
Q 44.046875 74.21875 50.515625 64.515625 
Q 56.984375 54.828125 56.984375 36.375 
Q 56.984375 17.96875 50.515625 8.265625 
Q 44.046875 -1.421875 31.78125 -1.421875 
Q 19.53125 -1.421875 13.0625 8.265625 
Q 6.59375 17.96875 6.59375 36.375 
Q 6.59375 54.828125 13.0625 64.515625 
Q 19.53125 74.21875 31.78125 74.21875 
z
" id="DejaVuSans-48"/>
       <path d="M 40.578125 39.3125 
Q 47.65625 37.796875 51.625 33 
Q 55.609375 28.21875 55.609375 21.1875 
Q 55.609375 10.40625 48.1875 4.484375 
Q 40.765625 -1.421875 27.09375 -1.421875 
Q 22.515625 -1.421875 17.65625 -0.515625 
Q 12.796875 0.390625 7.625 2.203125 
L 7.625 11.71875 
Q 11.71875 9.328125 16.59375 8.109375 
Q 21.484375 6.890625 26.8125 6.890625 
Q 36.078125 6.890625 40.9375 10.546875 
Q 45.796875 14.203125 45.796875 21.1875 
Q 45.796875 27.640625 41.28125 31.265625 
Q 36.765625 34.90625 28.71875 34.90625 
L 20.21875 34.90625 
L 20.21875 43.015625 
L 29.109375 43.015625 
Q 36.375 43.015625 40.234375 45.921875 
Q 44.09375 48.828125 44.09375 54.296875 
Q 44.09375 59.90625 40.109375 62.90625 
Q 36.140625 65.921875 28.71875 65.921875 
Q 24.65625 65.921875 20.015625 65.03125 
Q 15.375 64.15625 9.8125 62.3125 
L 9.8125 71.09375 
Q 15.4375 72.65625 20.34375 73.4375 
Q 25.25 74.21875 29.59375 74.21875 
Q 40.828125 74.21875 47.359375 69.109375 
Q 53.90625 64.015625 53.90625 55.328125 
Q 53.90625 49.265625 50.4375 45.09375 
Q 46.96875 40.921875 40.578125 39.3125 
z
" id="DejaVuSans-51"/>
      </defs>
      <g transform="translate(205.473232 661.315)scale(0.32 -0.32)">
       <use xlink:href="#DejaVuSans-77"/>
       <use x="86.279297" xlink:href="#DejaVuSans-97"/>
       <use x="147.558594" xlink:href="#DejaVuSans-114"/>
       <use x="188.578125" xlink:href="#DejaVuSans-45"/>
       <use x="224.662109" xlink:href="#DejaVuSans-50"/>
       <use x="288.285156" xlink:href="#DejaVuSans-48"/>
       <use x="351.908203" xlink:href="#DejaVuSans-50"/>
       <use x="415.53125" xlink:href="#DejaVuSans-51"/>
      </g>
     </g>
    </g>
    <g id="xtick_2">
     <g id="line2d_2">
      <g>
       <use style="stroke:#000000;stroke-width:0.8;" x="537.859278" xlink:href="#mfad8a75734" y="630"/>
      </g>
     </g>
     <g id="text_2">
      <!-- Sep-2023 -->
      <defs>
       <path d="M 53.515625 70.515625 
L 53.515625 60.890625 
Q 47.90625 63.578125 42.921875 64.890625 
Q 37.9375 66.21875 33.296875 66.21875 
Q 25.25 66.21875 20.875 63.09375 
Q 16.5 59.96875 16.5 54.203125 
Q 16.5 49.359375 19.40625 46.890625 
Q 22.3125 44.4375 30.421875 42.921875 
L 36.375 41.703125 
Q 47.40625 39.59375 52.65625 34.296875 
Q 57.90625 29 57.90625 20.125 
Q 57.90625 9.515625 50.796875 4.046875 
Q 43.703125 -1.421875 29.984375 -1.421875 
Q 24.8125 -1.421875 18.96875 -0.25 
Q 13.140625 0.921875 6.890625 3.21875 
L 6.890625 13.375 
Q 12.890625 10.015625 18.65625 8.296875 
Q 24.421875 6.59375 29.984375 6.59375 
Q 38.421875 6.59375 43.015625 9.90625 
Q 47.609375 13.234375 47.609375 19.390625 
Q 47.609375 24.75 44.3125 27.78125 
Q 41.015625 30.8125 33.5 32.328125 
L 27.484375 33.5 
Q 16.453125 35.6875 11.515625 40.375 
Q 6.59375 45.0625 6.59375 53.421875 
Q 6.59375 63.09375 13.40625 68.65625 
Q 20.21875 74.21875 32.171875 74.21875 
Q 37.3125 74.21875 42.625 73.28125 
Q 47.953125 72.359375 53.515625 70.515625 
z
" id="DejaVuSans-83"/>
       <path d="M 56.203125 29.59375 
L 56.203125 25.203125 
L 14.890625 25.203125 
Q 15.484375 15.921875 20.484375 11.0625 
Q 25.484375 6.203125 34.421875 6.203125 
Q 39.59375 6.203125 44.453125 7.46875 
Q 49.3125 8.734375 54.109375 11.28125 
L 54.109375 2.78125 
Q 49.265625 0.734375 44.1875 -0.34375 
Q 39.109375 -1.421875 33.890625 -1.421875 
Q 20.796875 -1.421875 13.15625 6.1875 
Q 5.515625 13.8125 5.515625 26.8125 
Q 5.515625 40.234375 12.765625 48.109375 
Q 20.015625 56 32.328125 56 
Q 43.359375 56 49.78125 48.890625 
Q 56.203125 41.796875 56.203125 29.59375 
z
M 47.21875 32.234375 
Q 47.125 39.59375 43.09375 43.984375 
Q 39.0625 48.390625 32.421875 48.390625 
Q 24.90625 48.390625 20.390625 44.140625 
Q 15.875 39.890625 15.1875 32.171875 
z
" id="DejaVuSans-101"/>
       <path d="M 18.109375 8.203125 
L 18.109375 -20.796875 
L 9.078125 -20.796875 
L 9.078125 54.6875 
L 18.109375 54.6875 
L 18.109375 46.390625 
Q 20.953125 51.265625 25.265625 53.625 
Q 29.59375 56 35.59375 56 
Q 45.5625 56 51.78125 48.09375 
Q 58.015625 40.1875 58.015625 27.296875 
Q 58.015625 14.40625 51.78125 6.484375 
Q 45.5625 -1.421875 35.59375 -1.421875 
Q 29.59375 -1.421875 25.265625 0.953125 
Q 20.953125 3.328125 18.109375 8.203125 
z
M 48.6875 27.296875 
Q 48.6875 37.203125 44.609375 42.84375 
Q 40.53125 48.484375 33.40625 48.484375 
Q 26.265625 48.484375 22.1875 42.84375 
Q 18.109375 37.203125 18.109375 27.296875 
Q 18.109375 17.390625 22.1875 11.75 
Q 26.265625 6.109375 33.40625 6.109375 
Q 40.53125 6.109375 44.609375 11.75 
Q 48.6875 17.390625 48.6875 27.296875 
z
" id="DejaVuSans-112"/>
      </defs>
      <g transform="translate(461.206778 661.315)scale(0.32 -0.32)">
       <use xlink:href="#DejaVuSans-83"/>
       <use x="63.476562" xlink:href="#DejaVuSans-101"/>
       <use x="125" xlink:href="#DejaVuSans-112"/>
       <use x="188.476562" xlink:href="#DejaVuSans-45"/>
       <use x="224.560547" xlink:href="#DejaVuSans-50"/>
       <use x="288.183594" xlink:href="#DejaVuSans-48"/>
       <use x="351.806641" xlink:href="#DejaVuSans-50"/>
       <use x="415.429688" xlink:href="#DejaVuSans-51"/>
      </g>
     </g>
    </g>
   </g>
   <g id="matplotlib.axis_2">
    <g id="ytick_1">
     <g id="line2d_3">
      <defs>
       <path d="M 0 0 
L -3.5 0 
" id="me368426027" style="stroke:#000000;stroke-width:0.8;"/>
      </defs>
      <g>
       <use style="stroke:#000000;stroke-width:0.8;" x="90" xlink:href="#me368426027" y="610.008674"/>
      </g>
     </g>
     <g id="text_3">
      <!-- 60 -->
      <defs>
       <path d="M 33.015625 40.375 
Q 26.375 40.375 22.484375 35.828125 
Q 18.609375 31.296875 18.609375 23.390625 
Q 18.609375 15.53125 22.484375 10.953125 
Q 26.375 6.390625 33.015625 6.390625 
Q 39.65625 6.390625 43.53125 10.953125 
Q 47.40625 15.53125 47.40625 23.390625 
Q 47.40625 31.296875 43.53125 35.828125 
Q 39.65625 40.375 33.015625 40.375 
z
M 52.59375 71.296875 
L 52.59375 62.3125 
Q 48.875 64.0625 45.09375 64.984375 
Q 41.3125 65.921875 37.59375 65.921875 
Q 27.828125 65.921875 22.671875 59.328125 
Q 17.53125 52.734375 16.796875 39.40625 
Q 19.671875 43.65625 24.015625 45.921875 
Q 28.375 48.1875 33.59375 48.1875 
Q 44.578125 48.1875 50.953125 41.515625 
Q 57.328125 34.859375 57.328125 23.390625 
Q 57.328125 12.15625 50.6875 5.359375 
Q 44.046875 -1.421875 33.015625 -1.421875 
Q 20.359375 -1.421875 13.671875 8.265625 
Q 6.984375 17.96875 6.984375 36.375 
Q 6.984375 53.65625 15.1875 63.9375 
Q 23.390625 74.21875 37.203125 74.21875 
Q 40.921875 74.21875 44.703125 73.484375 
Q 48.484375 72.75 52.59375 71.296875 
z
" id="DejaVuSans-54"/>
      </defs>
      <g transform="translate(42.28 622.166174)scale(0.32 -0.32)">
       <use xlink:href="#DejaVuSans-54"/>
       <use x="63.623047" xlink:href="#DejaVuSans-48"/>
      </g>
     </g>
    </g>
    <g id="ytick_2">
     <g id="line2d_4">
      <g>
       <use style="stroke:#000000;stroke-width:0.8;" x="90" xlink:href="#me368426027" y="490.654716"/>
      </g>
     </g>
     <g id="text_4">
      <!-- 70 -->
      <defs>
       <path d="M 8.203125 72.90625 
L 55.078125 72.90625 
L 55.078125 68.703125 
L 28.609375 0 
L 18.3125 0 
L 43.21875 64.59375 
L 8.203125 64.59375 
z
" id="DejaVuSans-55"/>
      </defs>
      <g transform="translate(42.28 502.812216)scale(0.32 -0.32)">
       <use xlink:href="#DejaVuSans-55"/>
       <use x="63.623047" xlink:href="#DejaVuSans-48"/>
      </g>
     </g>
    </g>
    <g id="ytick_3">
     <g id="line2d_5">
      <g>
       <use style="stroke:#000000;stroke-width:0.8;" x="90" xlink:href="#me368426027" y="371.300757"/>
      </g>
     </g>
     <g id="text_5">
      <!-- 80 -->
      <defs>
       <path d="M 31.78125 34.625 
Q 24.75 34.625 20.71875 30.859375 
Q 16.703125 27.09375 16.703125 20.515625 
Q 16.703125 13.921875 20.71875 10.15625 
Q 24.75 6.390625 31.78125 6.390625 
Q 38.8125 6.390625 42.859375 10.171875 
Q 46.921875 13.96875 46.921875 20.515625 
Q 46.921875 27.09375 42.890625 30.859375 
Q 38.875 34.625 31.78125 34.625 
z
M 21.921875 38.8125 
Q 15.578125 40.375 12.03125 44.71875 
Q 8.5 49.078125 8.5 55.328125 
Q 8.5 64.0625 14.71875 69.140625 
Q 20.953125 74.21875 31.78125 74.21875 
Q 42.671875 74.21875 48.875 69.140625 
Q 55.078125 64.0625 55.078125 55.328125 
Q 55.078125 49.078125 51.53125 44.71875 
Q 48 40.375 41.703125 38.8125 
Q 48.828125 37.15625 52.796875 32.3125 
Q 56.78125 27.484375 56.78125 20.515625 
Q 56.78125 9.90625 50.3125 4.234375 
Q 43.84375 -1.421875 31.78125 -1.421875 
Q 19.734375 -1.421875 13.25 4.234375 
Q 6.78125 9.90625 6.78125 20.515625 
Q 6.78125 27.484375 10.78125 32.3125 
Q 14.796875 37.15625 21.921875 38.8125 
z
M 18.3125 54.390625 
Q 18.3125 48.734375 21.84375 45.5625 
Q 25.390625 42.390625 31.78125 42.390625 
Q 38.140625 42.390625 41.71875 45.5625 
Q 45.3125 48.734375 45.3125 54.390625 
Q 45.3125 60.0625 41.71875 63.234375 
Q 38.140625 66.40625 31.78125 66.40625 
Q 25.390625 66.40625 21.84375 63.234375 
Q 18.3125 60.0625 18.3125 54.390625 
z
" id="DejaVuSans-56"/>
      </defs>
      <g transform="translate(42.28 383.458257)scale(0.32 -0.32)">
       <use xlink:href="#DejaVuSans-56"/>
       <use x="63.623047" xlink:href="#DejaVuSans-48"/>
      </g>
     </g>
    </g>
    <g id="ytick_4">
     <g id="line2d_6">
      <g>
       <use style="stroke:#000000;stroke-width:0.8;" x="90" xlink:href="#me368426027" y="251.946798"/>
      </g>
     </g>
     <g id="text_6">
      <!-- 90 -->
      <defs>
       <path d="M 10.984375 1.515625 
L 10.984375 10.5 
Q 14.703125 8.734375 18.5 7.8125 
Q 22.3125 6.890625 25.984375 6.890625 
Q 35.75 6.890625 40.890625 13.453125 
Q 46.046875 20.015625 46.78125 33.40625 
Q 43.953125 29.203125 39.59375 26.953125 
Q 35.25 24.703125 29.984375 24.703125 
Q 19.046875 24.703125 12.671875 31.3125 
Q 6.296875 37.9375 6.296875 49.421875 
Q 6.296875 60.640625 12.9375 67.421875 
Q 19.578125 74.21875 30.609375 74.21875 
Q 43.265625 74.21875 49.921875 64.515625 
Q 56.59375 54.828125 56.59375 36.375 
Q 56.59375 19.140625 48.40625 8.859375 
Q 40.234375 -1.421875 26.421875 -1.421875 
Q 22.703125 -1.421875 18.890625 -0.6875 
Q 15.09375 0.046875 10.984375 1.515625 
z
M 30.609375 32.421875 
Q 37.25 32.421875 41.125 36.953125 
Q 45.015625 41.5 45.015625 49.421875 
Q 45.015625 57.28125 41.125 61.84375 
Q 37.25 66.40625 30.609375 66.40625 
Q 23.96875 66.40625 20.09375 61.84375 
Q 16.21875 57.28125 16.21875 49.421875 
Q 16.21875 41.5 20.09375 36.953125 
Q 23.96875 32.421875 30.609375 32.421875 
z
" id="DejaVuSans-57"/>
      </defs>
      <g transform="translate(42.28 264.104298)scale(0.32 -0.32)">
       <use xlink:href="#DejaVuSans-57"/>
       <use x="63.623047" xlink:href="#DejaVuSans-48"/>
      </g>
     </g>
    </g>
    <g id="ytick_5">
     <g id="line2d_7">
      <g>
       <use style="stroke:#000000;stroke-width:0.8;" x="90" xlink:href="#me368426027" y="132.59284"/>
      </g>
     </g>
     <g id="text_7">
      <!-- 100 -->
      <defs>
       <path d="M 12.40625 8.296875 
L 28.515625 8.296875 
L 28.515625 63.921875 
L 10.984375 60.40625 
L 10.984375 69.390625 
L 28.421875 72.90625 
L 38.28125 72.90625 
L 38.28125 8.296875 
L 54.390625 8.296875 
L 54.390625 0 
L 12.40625 0 
z
" id="DejaVuSans-49"/>
      </defs>
      <g transform="translate(21.92 144.75034)scale(0.32 -0.32)">
       <use xlink:href="#DejaVuSans-49"/>
       <use x="63.623047" xlink:href="#DejaVuSans-48"/>
       <use x="127.246094" xlink:href="#DejaVuSans-48"/>
      </g>
     </g>
    </g>
   </g>
   <g id="line2d_8">
    <path clip-path="url(#pc7a6b9c1b3)" d="M 115.363636 599.632815 
L 116.753425 599.632815 
L 118.143213 605.290909 
L 119.533001 587.18498 
L 123.702366 579.263684 
L 125.092154 565.684293 
L 126.481943 578.132083 
L 127.871731 555.499705 
L 129.261519 510.234858 
L 133.430884 513.62966 
L 134.820672 523.81434 
L 136.210461 511.366459 
L 137.600249 505.708456 
L 138.990037 509.103349 
L 143.159402 517.291359 
L 144.549191 501.160654 
L 145.938979 480.421046 
L 147.328767 464.29025 
L 148.718555 450.463905 
L 152.88792 450.463905 
L 154.277709 449.311816 
L 155.667497 451.616177 
L 157.057285 444.703004 
L 158.447073 438.942012 
L 162.616438 473.507874 
L 164.006227 474.660054 
L 165.396015 471.203513 
L 166.785803 463.13807 
L 168.175592 485.029767 
L 172.344956 494.247482 
L 173.734745 467.746882 
L 175.124533 479.268775 
L 176.514321 511.530276 
L 177.90411 513.834727 
L 182.073474 500.008383 
L 183.463263 518.443448 
L 184.853051 541.487416 
L 186.242839 529.965523 
L 187.632628 541.487416 
M 194.581569 519.595719 
L 195.971357 534.574244 
L 197.361146 502.312743 
M 202.920299 496.551751 
L 204.310087 489.638579 
L 205.699875 495.399571 
L 207.089664 496.551751 
L 212.648817 496.551751 
L 214.038605 473.507874 
L 215.428394 461.985981 
L 216.818182 444.703004 
L 220.987547 457.377078 
L 222.377335 456.224897 
L 223.767123 450.463905 
L 225.156912 505.769375 
L 226.5467 496.551751 
L 230.716065 496.551751 
L 232.105853 493.095119 
L 233.495641 488.486399 
L 234.88543 488.486399 
L 236.275218 479.268775 
L 240.444583 485.029767 
L 241.834371 481.573226 
L 243.224159 465.442612 
L 244.613948 425.115668 
L 246.003736 425.115668 
L 250.173101 430.87666 
L 251.562889 426.267939 
L 252.952677 430.87666 
L 254.342466 422.811307 
L 255.732254 415.898135 
L 259.901619 410.137143 
L 261.291407 417.050224 
L 262.681196 410.137143 
L 264.070984 361.745028 
L 265.460772 360.592666 
L 269.630137 376.723462 
L 271.019925 381.332183 
L 272.409714 418.202404 
L 273.799502 438.942012 
L 275.18929 429.72448 
L 279.358655 418.202404 
L 280.748443 468.899062 
L 282.138232 460.833709 
L 283.52802 478.116686 
L 284.917808 473.507874 
L 289.087173 461.985981 
L 290.476961 470.051242 
L 291.86675 473.507874 
L 294.646326 444.703004 
L 298.815691 472.355694 
L 300.205479 463.13807 
L 301.595268 488.486399 
L 302.985056 496.551751 
L 304.374844 500.008383 
L 308.544209 495.399571 
L 309.933998 479.268775 
L 311.323786 489.638579 
L 312.713574 455.072808 
L 314.103362 481.573226 
L 318.272727 457.377078 
L 319.662516 466.594701 
L 321.052304 461.985981 
L 322.442092 465.442612 
L 323.83188 456.224897 
L 328.001245 467.746882 
L 329.391034 459.681529 
L 330.780822 458.300698 
L 332.17061 481.755619 
M 339.119552 481.755619 
L 340.50934 473.546392 
L 341.899128 478.23734 
L 343.288917 491.137606 
L 347.458281 465.337165 
L 348.84807 479.410191 
L 350.237858 452.43699 
L 353.017435 452.43699 
L 357.1868 423.118361 
L 358.576588 406.699907 
L 359.966376 399.66344 
L 361.356164 396.145161 
L 362.745953 358.617304 
M 368.305106 396.145161 
L 369.694894 393.799732 
L 371.084682 379.726798 
L 372.474471 341.026182 
M 378.033624 358.617304 
L 379.423412 352.753597 
L 380.8132 345.71713 
L 382.202989 348.062558 
L 386.372354 341.026182 
L 387.762142 343.37161 
L 389.15193 364.481012 
L 391.931507 387.935933 
L 396.100872 413.736374 
L 397.49066 417.254562 
L 398.880448 404.354388 
L 400.270237 396.145161 
L 401.660025 393.799732 
M 407.219178 387.935933 
L 408.608966 387.935933 
L 409.998755 404.354388 
L 411.388543 430.154828 
L 415.557908 446.573283 
L 416.947696 417.254562 
L 418.337484 363.308343 
L 419.727273 384.417654 
L 421.117061 346.889889 
L 425.286426 352.753597 
L 426.676214 338.680662 
L 428.066002 351.580837 
L 429.455791 344.544461 
L 430.845579 375.035759 
L 435.014944 364.481012 
L 436.404732 376.208518 
L 437.794521 378.553947 
L 439.184309 399.66344 
L 440.574097 387.935933 
L 444.743462 396.145161 
L 446.13325 402.008868 
L 447.523039 392.626972 
L 450.302615 392.626972 
L 454.47198 380.899557 
L 455.861768 372.690239 
L 457.251557 398.49068 
L 458.641345 419.600082 
L 460.031133 423.118361 
L 464.200498 393.799732 
L 465.590286 364.481012 
L 466.980075 378.553947 
L 468.369863 337.507903 
L 469.759651 322.262208 
L 473.929016 363.308343 
L 475.318804 345.71713 
L 476.708593 348.062558 
L 478.098381 360.962824 
L 479.488169 317.57126 
L 483.657534 341.026182 
L 485.047323 328.126007 
L 486.437111 316.398501 
L 487.826899 235.479081 
L 489.216687 223.751575 
L 493.386052 250.724775 
L 494.775841 214.369588 
L 496.165629 243.688217 
L 497.555417 240.170029 
L 498.945205 220.233296 
L 503.11457 188.569238 
L 504.504359 196.778374 
L 505.894147 181.532771 
L 507.283935 190.914667 
L 508.673724 181.532771 
L 512.843088 212.02416 
L 514.232877 235.479081 
L 515.622665 250.724775 
L 517.012453 269.488658 
L 518.402242 258.933911 
L 522.571606 254.242963 
L 523.961395 227.269854 
L 525.351183 174.366725 
L 526.740971 182.721466 
L 528.13076 162.43133 
M 533.689913 127.818663 
L 535.079701 132.59284 
L 536.469489 111.109091 
L 537.859278 151.689455 
L 542.028643 144.528236 
L 543.418431 191.076298 
L 544.808219 192.269819 
L 546.198007 216.140611 
L 547.587796 213.753568 
L 551.757161 207.78587 
L 553.146949 194.656862 
L 554.536737 168.399027 
L 555.926526 162.43133 
L 557.316314 180.334423 
L 561.485679 175.560247 
L 562.875467 187.495643 
L 564.265255 187.495643 
L 565.655044 191.076298 
L 567.044832 180.334423 
L 571.214197 212.559956 
L 572.603985 192.269819 
L 573.993773 156.463632 
L 575.383562 162.43133 
L 576.77335 170.78607 
L 580.942715 167.205506 
L 582.332503 183.915078 
L 583.722291 218.527654 
L 586.501868 228.076007 
L 590.671233 216.140611 
L 592.061021 220.914787 
L 593.450809 238.817881 
L 594.840598 219.721266 
L 596.230386 229.269528 
L 600.399751 226.882485 
L 601.789539 232.850183 
L 603.179328 216.140611 
L 604.569116 228.076007 
L 605.958904 223.30183 
L 610.128269 242.398445 
L 611.518057 222.108309 
L 612.907846 222.108309 
L 614.297634 238.817881 
L 615.687422 240.011403 
L 619.856787 226.882485 
L 621.246575 247.172622 
L 622.636364 257.914496 
L 622.636364 257.914496 
" style="fill:none;stroke:#000000;stroke-linecap:square;stroke-width:2.5;"/>
   </g>
   <g id="patch_3">
    <path d="M 90 630 
L 90 86.4 
" style="fill:none;stroke:#000000;stroke-linecap:square;stroke-linejoin:miter;stroke-width:0.8;"/>
   </g>
   <g id="patch_4">
    <path d="M 90 630 
L 648 630 
" style="fill:none;stroke:#000000;stroke-linecap:square;stroke-linejoin:miter;stroke-width:0.8;"/>
   </g>
   <g id="text_8">
    <!-- 47% -->
    <defs>
     <path d="M 37.796875 64.3125 
L 12.890625 25.390625 
L 37.796875 25.390625 
z
M 35.203125 72.90625 
L 47.609375 72.90625 
L 47.609375 25.390625 
L 58.015625 25.390625 
L 58.015625 17.1875 
L 47.609375 17.1875 
L 47.609375 0 
L 37.796875 0 
L 37.796875 17.1875 
L 4.890625 17.1875 
L 4.890625 26.703125 
z
" id="DejaVuSans-52"/>
     <path d="M 72.703125 32.078125 
Q 68.453125 32.078125 66.03125 28.46875 
Q 63.625 24.859375 63.625 18.40625 
Q 63.625 12.0625 66.03125 8.421875 
Q 68.453125 4.78125 72.703125 4.78125 
Q 76.859375 4.78125 79.265625 8.421875 
Q 81.6875 12.0625 81.6875 18.40625 
Q 81.6875 24.8125 79.265625 28.4375 
Q 76.859375 32.078125 72.703125 32.078125 
z
M 72.703125 38.28125 
Q 80.421875 38.28125 84.953125 32.90625 
Q 89.5 27.546875 89.5 18.40625 
Q 89.5 9.28125 84.9375 3.921875 
Q 80.375 -1.421875 72.703125 -1.421875 
Q 64.890625 -1.421875 60.34375 3.921875 
Q 55.8125 9.28125 55.8125 18.40625 
Q 55.8125 27.59375 60.375 32.9375 
Q 64.9375 38.28125 72.703125 38.28125 
z
M 22.3125 68.015625 
Q 18.109375 68.015625 15.6875 64.375 
Q 13.28125 60.75 13.28125 54.390625 
Q 13.28125 47.953125 15.671875 44.328125 
Q 18.0625 40.71875 22.3125 40.71875 
Q 26.5625 40.71875 28.96875 44.328125 
Q 31.390625 47.953125 31.390625 54.390625 
Q 31.390625 60.6875 28.953125 64.34375 
Q 26.515625 68.015625 22.3125 68.015625 
z
M 66.40625 74.21875 
L 74.21875 74.21875 
L 28.609375 -1.421875 
L 20.796875 -1.421875 
z
M 22.3125 74.21875 
Q 30.03125 74.21875 34.609375 68.875 
Q 39.203125 63.53125 39.203125 54.390625 
Q 39.203125 45.171875 34.640625 39.84375 
Q 30.078125 34.515625 22.3125 34.515625 
Q 14.546875 34.515625 10.03125 39.859375 
Q 5.515625 45.21875 5.515625 54.390625 
Q 5.515625 63.484375 10.046875 68.84375 
Q 14.59375 74.21875 22.3125 74.21875 
z
" id="DejaVuSans-37"/>
    </defs>
    <g transform="translate(542.620739 334.687053)scale(0.36 -0.36)">
     <use xlink:href="#DejaVuSans-52"/>
     <use x="63.623047" xlink:href="#DejaVuSans-55"/>
     <use x="127.246094" xlink:href="#DejaVuSans-37"/>
    </g>
   </g>
  </g>
 </g>
 <defs>
  <clipPath id="pc7a6b9c1b3">
   <rect height="543.6" width="558" x="90" y="86.4"/>
  </clipPath>
 </defs>
</svg>
