<?xml version="1.0" encoding="utf-8" standalone="no"?>
<!DOCTYPE svg PUBLIC "-//W3C//DTD SVG 1.1//EN"
  "http://www.w3.org/Graphics/SVG/1.1/DTD/svg11.dtd">
<!-- Created with matplotlib (https://matplotlib.org/) -->
<svg height="432pt" version="1.1" viewBox="0 0 864 432" width="864pt" xmlns="http://www.w3.org/2000/svg" xmlns:xlink="http://www.w3.org/1999/xlink">
 <defs>
  <style type="text/css">
*{stroke-linecap:butt;stroke-linejoin:round;}
  </style>
 </defs>
 <g id="figure_1">
  <g id="patch_1">
   <path d="M 0 432 
L 864 432 
L 864 0 
L 0 0 
z
" style="fill:none;"/>
  </g>
  <g id="axes_1">
   <g id="patch_2">
    <path d="M 56.05 385.2 
L 840.323864 385.2 
L 840.323864 88.8 
L 56.05 88.8 
z
" style="fill:none;"/>
   </g>
   <g id="PolyCollection_1">
    <path clip-path="url(#pd9ddb1ff59)" d="M 91.698812 1162.335979 
L 91.698812 294.015883 
L 95.594857 312.667256 
L 99.490902 323.02903 
L 103.386947 333.390886 
L 115.075082 356.186853 
L 118.971127 359.295443 
L 122.867172 347.897418 
L 126.763217 340.64407 
L 130.659262 338.571813 
L 146.243442 333.390886 
L 150.139487 333.390886 
L 154.035532 347.897418 
L 157.931577 370.693386 
L 169.619712 385.2 
L 173.515758 359.295443 
L 177.411803 311.631087 
L 181.307848 330.282296 
L 185.203893 297.124555 
L 196.892028 302.305482 
L 200.788073 289.871288 
L 204.684118 301.269313 
L 208.580163 295.052216 
L 212.476208 321.992861 
L 224.164343 312.667256 
L 228.060388 323.02903 
L 231.956433 325.10145 
L 235.852478 343.752659 
L 239.748523 333.390886 
L 251.436658 340.64407 
L 255.332703 345.824998 
L 259.228748 337.535644 
L 263.124793 337.535644 
L 267.020838 337.535644 
L 278.708973 327.173871 
L 282.605018 319.92044 
L 286.501063 342.71649 
L 290.397108 361.367781 
L 294.293153 364.476289 
L 305.981288 338.571813 
L 309.877333 312.667256 
L 313.773378 325.10145 
L 317.669423 288.835037 
L 321.565468 275.364756 
L 333.253604 311.631087 
L 337.149649 296.088385 
L 341.045694 298.160724 
L 344.941739 309.558667 
L 348.837784 271.219997 
L 360.525919 291.943627 
L 364.421964 280.545602 
L 368.318009 270.183828 
L 372.214054 198.687253 
L 376.110099 188.32548 
L 387.798234 212.157699 
L 391.694279 180.035962 
L 395.590324 205.94052 
L 399.486369 202.832012 
L 403.382414 185.216972 
L 415.070549 157.240077 
L 418.966594 164.493261 
L 422.862639 151.022898 
L 426.758684 159.312415 
L 430.654729 151.022898 
L 442.342864 177.963624 
L 446.238909 198.687253 
L 450.134954 212.157699 
L 454.030999 228.736569 
L 457.927044 219.410965 
L 469.615179 215.266206 
L 473.511224 191.434069 
L 477.40727 144.691363 
L 481.303315 152.073259 
L 485.19936 134.145834 
L 500.78354 103.56379 
L 504.679585 107.782051 
L 508.57563 88.8 
L 512.471675 124.654849 
L 524.15981 118.327581 
L 528.055855 159.455154 
L 531.9519 160.509699 
L 535.847945 181.600757 
L 539.74399 179.49175 
L 551.432125 174.218944 
L 555.32817 162.618788 
L 559.224215 139.41864 
L 563.12026 134.145834 
L 567.016305 149.964169 
L 578.70444 145.745908 
L 582.600485 156.291438 
L 586.49653 156.291438 
L 590.392575 159.455154 
L 594.28862 149.964169 
L 605.976755 178.437123 
L 609.8728 160.509699 
L 613.768845 128.87311 
L 617.66489 134.145834 
L 621.560935 141.527729 
L 633.249071 138.364095 
L 637.145116 153.127885 
L 641.041161 183.709847 
L 644.937206 187.928108 
L 648.833251 192.146287 
L 660.521386 181.600757 
L 664.417431 185.819018 
L 668.313476 201.637354 
L 672.209521 184.764474 
L 676.105566 193.200832 
L 687.793701 191.091824 
L 691.689746 196.364548 
L 695.585791 181.600757 
L 699.481836 192.146287 
L 703.377881 187.928108 
L 715.066016 204.800906 
L 718.962061 186.873563 
L 722.858106 186.873563 
L 726.754151 201.637354 
L 730.650196 202.691898 
L 742.338331 191.091824 
L 746.234376 209.019167 
L 750.130421 218.510151 
L 754.026466 212.182883 
L 757.922511 213.237428 
L 769.610646 197.419093 
L 773.506691 194.255376 
L 777.402736 218.510151 
L 781.298782 206.910077 
L 785.194827 210.073712 
L 796.882962 197.419093 
L 800.779007 171.055228 
L 804.675052 184.764474 
L 804.675052 1162.335979 
L 804.675052 1162.335979 
L 800.779007 1162.335979 
L 796.882962 1162.335979 
L 785.194827 1162.335979 
L 781.298782 1162.335979 
L 777.402736 1162.335979 
L 773.506691 1162.335979 
L 769.610646 1162.335979 
L 757.922511 1162.335979 
L 754.026466 1162.335979 
L 750.130421 1162.335979 
L 746.234376 1162.335979 
L 742.338331 1162.335979 
L 730.650196 1162.335979 
L 726.754151 1162.335979 
L 722.858106 1162.335979 
L 718.962061 1162.335979 
L 715.066016 1162.335979 
L 703.377881 1162.335979 
L 699.481836 1162.335979 
L 695.585791 1162.335979 
L 691.689746 1162.335979 
L 687.793701 1162.335979 
L 676.105566 1162.335979 
L 672.209521 1162.335979 
L 668.313476 1162.335979 
L 664.417431 1162.335979 
L 660.521386 1162.335979 
L 648.833251 1162.335979 
L 644.937206 1162.335979 
L 641.041161 1162.335979 
L 637.145116 1162.335979 
L 633.249071 1162.335979 
L 621.560935 1162.335979 
L 617.66489 1162.335979 
L 613.768845 1162.335979 
L 609.8728 1162.335979 
L 605.976755 1162.335979 
L 594.28862 1162.335979 
L 590.392575 1162.335979 
L 586.49653 1162.335979 
L 582.600485 1162.335979 
L 578.70444 1162.335979 
L 567.016305 1162.335979 
L 563.12026 1162.335979 
L 559.224215 1162.335979 
L 555.32817 1162.335979 
L 551.432125 1162.335979 
L 539.74399 1162.335979 
L 535.847945 1162.335979 
L 531.9519 1162.335979 
L 528.055855 1162.335979 
L 524.15981 1162.335979 
L 512.471675 1162.335979 
L 508.57563 1162.335979 
L 504.679585 1162.335979 
L 500.78354 1162.335979 
L 485.19936 1162.335979 
L 481.303315 1162.335979 
L 477.40727 1162.335979 
L 473.511224 1162.335979 
L 469.615179 1162.335979 
L 457.927044 1162.335979 
L 454.030999 1162.335979 
L 450.134954 1162.335979 
L 446.238909 1162.335979 
L 442.342864 1162.335979 
L 430.654729 1162.335979 
L 426.758684 1162.335979 
L 422.862639 1162.335979 
L 418.966594 1162.335979 
L 415.070549 1162.335979 
L 403.382414 1162.335979 
L 399.486369 1162.335979 
L 395.590324 1162.335979 
L 391.694279 1162.335979 
L 387.798234 1162.335979 
L 376.110099 1162.335979 
L 372.214054 1162.335979 
L 368.318009 1162.335979 
L 364.421964 1162.335979 
L 360.525919 1162.335979 
L 348.837784 1162.335979 
L 344.941739 1162.335979 
L 341.045694 1162.335979 
L 337.149649 1162.335979 
L 333.253604 1162.335979 
L 321.565468 1162.335979 
L 317.669423 1162.335979 
L 313.773378 1162.335979 
L 309.877333 1162.335979 
L 305.981288 1162.335979 
L 294.293153 1162.335979 
L 290.397108 1162.335979 
L 286.501063 1162.335979 
L 282.605018 1162.335979 
L 278.708973 1162.335979 
L 267.020838 1162.335979 
L 263.124793 1162.335979 
L 259.228748 1162.335979 
L 255.332703 1162.335979 
L 251.436658 1162.335979 
L 239.748523 1162.335979 
L 235.852478 1162.335979 
L 231.956433 1162.335979 
L 228.060388 1162.335979 
L 224.164343 1162.335979 
L 212.476208 1162.335979 
L 208.580163 1162.335979 
L 204.684118 1162.335979 
L 200.788073 1162.335979 
L 196.892028 1162.335979 
L 185.203893 1162.335979 
L 181.307848 1162.335979 
L 177.411803 1162.335979 
L 173.515758 1162.335979 
L 169.619712 1162.335979 
L 157.931577 1162.335979 
L 154.035532 1162.335979 
L 150.139487 1162.335979 
L 146.243442 1162.335979 
L 130.659262 1162.335979 
L 126.763217 1162.335979 
L 122.867172 1162.335979 
L 118.971127 1162.335979 
L 115.075082 1162.335979 
L 103.386947 1162.335979 
L 99.490902 1162.335979 
L 95.594857 1162.335979 
L 91.698812 1162.335979 
z
" style="fill:#0000ff;fill-opacity:0.1;stroke:#0000ff;stroke-opacity:0.1;"/>
   </g>
   <g id="matplotlib.axis_1">
    <g id="xtick_1">
     <g id="line2d_1">
      <defs>
       <path d="M 0 0 
L 0 3.5 
" id="m073675b7b6" style="stroke:#000000;stroke-width:0.8;"/>
      </defs>
      <g>
       <use style="stroke:#000000;stroke-width:0.8;" x="91.698812" xlink:href="#m073675b7b6" y="385.2"/>
      </g>
     </g>
     <g id="text_1">
      <!-- 05/23 -->
      <defs>
       <path d="M 31.78125 66.40625 
Q 24.171875 66.40625 20.328125 58.90625 
Q 16.5 51.421875 16.5 36.375 
Q 16.5 21.390625 20.328125 13.890625 
Q 24.171875 6.390625 31.78125 6.390625 
Q 39.453125 6.390625 43.28125 13.890625 
Q 47.125 21.390625 47.125 36.375 
Q 47.125 51.421875 43.28125 58.90625 
Q 39.453125 66.40625 31.78125 66.40625 
z
M 31.78125 74.21875 
Q 44.046875 74.21875 50.515625 64.515625 
Q 56.984375 54.828125 56.984375 36.375 
Q 56.984375 17.96875 50.515625 8.265625 
Q 44.046875 -1.421875 31.78125 -1.421875 
Q 19.53125 -1.421875 13.0625 8.265625 
Q 6.59375 17.96875 6.59375 36.375 
Q 6.59375 54.828125 13.0625 64.515625 
Q 19.53125 74.21875 31.78125 74.21875 
z
" id="DejaVuSans-48"/>
       <path d="M 10.796875 72.90625 
L 49.515625 72.90625 
L 49.515625 64.59375 
L 19.828125 64.59375 
L 19.828125 46.734375 
Q 21.96875 47.46875 24.109375 47.828125 
Q 26.265625 48.1875 28.421875 48.1875 
Q 40.625 48.1875 47.75 41.5 
Q 54.890625 34.8125 54.890625 23.390625 
Q 54.890625 11.625 47.5625 5.09375 
Q 40.234375 -1.421875 26.90625 -1.421875 
Q 22.3125 -1.421875 17.546875 -0.640625 
Q 12.796875 0.140625 7.71875 1.703125 
L 7.71875 11.625 
Q 12.109375 9.234375 16.796875 8.0625 
Q 21.484375 6.890625 26.703125 6.890625 
Q 35.15625 6.890625 40.078125 11.328125 
Q 45.015625 15.765625 45.015625 23.390625 
Q 45.015625 31 40.078125 35.4375 
Q 35.15625 39.890625 26.703125 39.890625 
Q 22.75 39.890625 18.8125 39.015625 
Q 14.890625 38.140625 10.796875 36.28125 
z
" id="DejaVuSans-53"/>
       <path d="M 25.390625 72.90625 
L 33.6875 72.90625 
L 8.296875 -9.28125 
L 0 -9.28125 
z
" id="DejaVuSans-47"/>
       <path d="M 19.1875 8.296875 
L 53.609375 8.296875 
L 53.609375 0 
L 7.328125 0 
L 7.328125 8.296875 
Q 12.9375 14.109375 22.625 23.890625 
Q 32.328125 33.6875 34.8125 36.53125 
Q 39.546875 41.84375 41.421875 45.53125 
Q 43.3125 49.21875 43.3125 52.78125 
Q 43.3125 58.59375 39.234375 62.25 
Q 35.15625 65.921875 28.609375 65.921875 
Q 23.96875 65.921875 18.8125 64.3125 
Q 13.671875 62.703125 7.8125 59.421875 
L 7.8125 69.390625 
Q 13.765625 71.78125 18.9375 73 
Q 24.125 74.21875 28.421875 74.21875 
Q 39.75 74.21875 46.484375 68.546875 
Q 53.21875 62.890625 53.21875 53.421875 
Q 53.21875 48.921875 51.53125 44.890625 
Q 49.859375 40.875 45.40625 35.40625 
Q 44.1875 33.984375 37.640625 27.21875 
Q 31.109375 20.453125 19.1875 8.296875 
z
" id="DejaVuSans-50"/>
       <path d="M 40.578125 39.3125 
Q 47.65625 37.796875 51.625 33 
Q 55.609375 28.21875 55.609375 21.1875 
Q 55.609375 10.40625 48.1875 4.484375 
Q 40.765625 -1.421875 27.09375 -1.421875 
Q 22.515625 -1.421875 17.65625 -0.515625 
Q 12.796875 0.390625 7.625 2.203125 
L 7.625 11.71875 
Q 11.71875 9.328125 16.59375 8.109375 
Q 21.484375 6.890625 26.8125 6.890625 
Q 36.078125 6.890625 40.9375 10.546875 
Q 45.796875 14.203125 45.796875 21.1875 
Q 45.796875 27.640625 41.28125 31.265625 
Q 36.765625 34.90625 28.71875 34.90625 
L 20.21875 34.90625 
L 20.21875 43.015625 
L 29.109375 43.015625 
Q 36.375 43.015625 40.234375 45.921875 
Q 44.09375 48.828125 44.09375 54.296875 
Q 44.09375 59.90625 40.109375 62.90625 
Q 36.140625 65.921875 28.71875 65.921875 
Q 24.65625 65.921875 20.015625 65.03125 
Q 15.375 64.15625 9.8125 62.3125 
L 9.8125 71.09375 
Q 15.4375 72.65625 20.34375 73.4375 
Q 25.25 74.21875 29.59375 74.21875 
Q 40.828125 74.21875 47.359375 69.109375 
Q 53.90625 64.015625 53.90625 55.328125 
Q 53.90625 49.265625 50.4375 45.09375 
Q 46.96875 40.921875 40.578125 39.3125 
z
" id="DejaVuSans-51"/>
      </defs>
      <g transform="translate(48.470687 414.995312)scale(0.3 -0.3)">
       <use xlink:href="#DejaVuSans-48"/>
       <use x="63.623047" xlink:href="#DejaVuSans-53"/>
       <use x="127.246094" xlink:href="#DejaVuSans-47"/>
       <use x="160.9375" xlink:href="#DejaVuSans-50"/>
       <use x="224.560547" xlink:href="#DejaVuSans-51"/>
      </g>
     </g>
    </g>
    <g id="xtick_2">
     <g id="line2d_2">
      <g>
       <use style="stroke:#000000;stroke-width:0.8;" x="450.134954" xlink:href="#m073675b7b6" y="385.2"/>
      </g>
     </g>
     <g id="text_2">
      <!-- 08/23 -->
      <defs>
       <path d="M 31.78125 34.625 
Q 24.75 34.625 20.71875 30.859375 
Q 16.703125 27.09375 16.703125 20.515625 
Q 16.703125 13.921875 20.71875 10.15625 
Q 24.75 6.390625 31.78125 6.390625 
Q 38.8125 6.390625 42.859375 10.171875 
Q 46.921875 13.96875 46.921875 20.515625 
Q 46.921875 27.09375 42.890625 30.859375 
Q 38.875 34.625 31.78125 34.625 
z
M 21.921875 38.8125 
Q 15.578125 40.375 12.03125 44.71875 
Q 8.5 49.078125 8.5 55.328125 
Q 8.5 64.0625 14.71875 69.140625 
Q 20.953125 74.21875 31.78125 74.21875 
Q 42.671875 74.21875 48.875 69.140625 
Q 55.078125 64.0625 55.078125 55.328125 
Q 55.078125 49.078125 51.53125 44.71875 
Q 48 40.375 41.703125 38.8125 
Q 48.828125 37.15625 52.796875 32.3125 
Q 56.78125 27.484375 56.78125 20.515625 
Q 56.78125 9.90625 50.3125 4.234375 
Q 43.84375 -1.421875 31.78125 -1.421875 
Q 19.734375 -1.421875 13.25 4.234375 
Q 6.78125 9.90625 6.78125 20.515625 
Q 6.78125 27.484375 10.78125 32.3125 
Q 14.796875 37.15625 21.921875 38.8125 
z
M 18.3125 54.390625 
Q 18.3125 48.734375 21.84375 45.5625 
Q 25.390625 42.390625 31.78125 42.390625 
Q 38.140625 42.390625 41.71875 45.5625 
Q 45.3125 48.734375 45.3125 54.390625 
Q 45.3125 60.0625 41.71875 63.234375 
Q 38.140625 66.40625 31.78125 66.40625 
Q 25.390625 66.40625 21.84375 63.234375 
Q 18.3125 60.0625 18.3125 54.390625 
z
" id="DejaVuSans-56"/>
      </defs>
      <g transform="translate(406.906829 414.995312)scale(0.3 -0.3)">
       <use xlink:href="#DejaVuSans-48"/>
       <use x="63.623047" xlink:href="#DejaVuSans-56"/>
       <use x="127.246094" xlink:href="#DejaVuSans-47"/>
       <use x="160.9375" xlink:href="#DejaVuSans-50"/>
       <use x="224.560547" xlink:href="#DejaVuSans-51"/>
      </g>
     </g>
    </g>
    <g id="xtick_3">
     <g id="line2d_3">
      <g>
       <use style="stroke:#000000;stroke-width:0.8;" x="804.675052" xlink:href="#m073675b7b6" y="385.2"/>
      </g>
     </g>
     <g id="text_3">
      <!-- 11/23 -->
      <defs>
       <path d="M 12.40625 8.296875 
L 28.515625 8.296875 
L 28.515625 63.921875 
L 10.984375 60.40625 
L 10.984375 69.390625 
L 28.421875 72.90625 
L 38.28125 72.90625 
L 38.28125 8.296875 
L 54.390625 8.296875 
L 54.390625 0 
L 12.40625 0 
z
" id="DejaVuSans-49"/>
      </defs>
      <g transform="translate(761.446927 414.995312)scale(0.3 -0.3)">
       <use xlink:href="#DejaVuSans-49"/>
       <use x="63.623047" xlink:href="#DejaVuSans-49"/>
       <use x="127.246094" xlink:href="#DejaVuSans-47"/>
       <use x="160.9375" xlink:href="#DejaVuSans-50"/>
       <use x="224.560547" xlink:href="#DejaVuSans-51"/>
      </g>
     </g>
    </g>
   </g>
   <g id="matplotlib.axis_2">
    <g id="ytick_1">
     <g id="line2d_4">
      <defs>
       <path d="M 0 0 
L -3.5 0 
" id="m194f912c34" style="stroke:#000000;stroke-width:0.8;"/>
      </defs>
      <g>
       <use style="stroke:#000000;stroke-width:0.8;" x="56.05" xlink:href="#m194f912c34" y="302.149044"/>
      </g>
     </g>
     <g id="text_4">
      <!-- 80 -->
      <g transform="translate(10.875 313.5467)scale(0.3 -0.3)">
       <use xlink:href="#DejaVuSans-56"/>
       <use x="63.623047" xlink:href="#DejaVuSans-48"/>
      </g>
     </g>
    </g>
    <g id="ytick_2">
     <g id="line2d_5">
      <g>
       <use style="stroke:#000000;stroke-width:0.8;" x="56.05" xlink:href="#m194f912c34" y="194.625677"/>
      </g>
     </g>
     <g id="text_5">
      <!-- 90 -->
      <defs>
       <path d="M 10.984375 1.515625 
L 10.984375 10.5 
Q 14.703125 8.734375 18.5 7.8125 
Q 22.3125 6.890625 25.984375 6.890625 
Q 35.75 6.890625 40.890625 13.453125 
Q 46.046875 20.015625 46.78125 33.40625 
Q 43.953125 29.203125 39.59375 26.953125 
Q 35.25 24.703125 29.984375 24.703125 
Q 19.046875 24.703125 12.671875 31.3125 
Q 6.296875 37.9375 6.296875 49.421875 
Q 6.296875 60.640625 12.9375 67.421875 
Q 19.578125 74.21875 30.609375 74.21875 
Q 43.265625 74.21875 49.921875 64.515625 
Q 56.59375 54.828125 56.59375 36.375 
Q 56.59375 19.140625 48.40625 8.859375 
Q 40.234375 -1.421875 26.421875 -1.421875 
Q 22.703125 -1.421875 18.890625 -0.6875 
Q 15.09375 0.046875 10.984375 1.515625 
z
M 30.609375 32.421875 
Q 37.25 32.421875 41.125 36.953125 
Q 45.015625 41.5 45.015625 49.421875 
Q 45.015625 57.28125 41.125 61.84375 
Q 37.25 66.40625 30.609375 66.40625 
Q 23.96875 66.40625 20.09375 61.84375 
Q 16.21875 57.28125 16.21875 49.421875 
Q 16.21875 41.5 20.09375 36.953125 
Q 23.96875 32.421875 30.609375 32.421875 
z
" id="DejaVuSans-57"/>
      </defs>
      <g transform="translate(10.875 206.023333)scale(0.3 -0.3)">
       <use xlink:href="#DejaVuSans-57"/>
       <use x="63.623047" xlink:href="#DejaVuSans-48"/>
      </g>
     </g>
    </g>
   </g>
   <g id="line2d_6">
    <path clip-path="url(#pd9ddb1ff59)" d="M 91.698812 294.015883 
L 95.594857 312.667256 
L 103.386947 333.390886 
L 115.075082 356.186853 
L 118.971127 359.295443 
L 122.867172 347.897418 
L 126.763217 340.64407 
L 130.659262 338.571813 
L 146.243442 333.390886 
L 150.139487 333.390886 
L 154.035532 347.897418 
L 157.931577 370.693386 
L 169.619712 385.2 
L 173.515758 359.295443 
L 177.411803 311.631087 
L 181.307848 330.282296 
L 185.203893 297.124555 
L 196.892028 302.305482 
L 200.788073 289.871288 
L 204.684118 301.269313 
L 208.580163 295.052216 
L 212.476208 321.992861 
L 224.164343 312.667256 
L 228.060388 323.02903 
L 231.956433 325.10145 
L 235.852478 343.752659 
L 239.748523 333.390886 
L 251.436658 340.64407 
L 255.332703 345.824998 
L 259.228748 337.535644 
L 267.020838 337.535644 
L 278.708973 327.173871 
L 282.605018 319.92044 
L 286.501063 342.71649 
L 290.397108 361.367781 
L 294.293153 364.476289 
L 305.981288 338.571813 
L 309.877333 312.667256 
L 313.773378 325.10145 
L 317.669423 288.835037 
L 321.565468 275.364756 
L 333.253604 311.631087 
L 337.149649 296.088385 
L 341.045694 298.160724 
L 344.941739 309.558667 
L 348.837784 271.219997 
L 360.525919 291.943627 
L 364.421964 280.545602 
L 368.318009 270.183828 
L 372.214054 198.687253 
L 376.110099 188.32548 
L 387.798234 212.157699 
L 391.694279 180.035962 
L 395.590324 205.94052 
L 399.486369 202.832012 
L 403.382414 185.216972 
L 415.070549 157.240077 
L 418.966594 164.493261 
L 422.862639 151.022898 
L 426.758684 159.312415 
L 430.654729 151.022898 
L 442.342864 177.963624 
L 446.238909 198.687253 
L 450.134954 212.157699 
L 454.030999 228.736569 
L 457.927044 219.410965 
L 469.615179 215.266206 
L 473.511224 191.434069 
L 477.40727 144.691363 
L 481.303315 152.073259 
L 485.19936 134.145834 
L 500.78354 103.56379 
L 504.679585 107.782051 
L 508.57563 88.8 
L 512.471675 124.654849 
L 524.15981 118.327581 
L 528.055855 159.455154 
L 531.9519 160.509699 
L 535.847945 181.600757 
L 539.74399 179.49175 
L 551.432125 174.218944 
L 555.32817 162.618788 
L 559.224215 139.41864 
L 563.12026 134.145834 
L 567.016305 149.964169 
L 578.70444 145.745908 
L 582.600485 156.291438 
L 586.49653 156.291438 
L 590.392575 159.455154 
L 594.28862 149.964169 
L 605.976755 178.437123 
L 609.8728 160.509699 
L 613.768845 128.87311 
L 617.66489 134.145834 
L 621.560935 141.527729 
L 633.249071 138.364095 
L 637.145116 153.127885 
L 641.041161 183.709847 
L 648.833251 192.146287 
L 660.521386 181.600757 
L 664.417431 185.819018 
L 668.313476 201.637354 
L 672.209521 184.764474 
L 676.105566 193.200832 
L 687.793701 191.091824 
L 691.689746 196.364548 
L 695.585791 181.600757 
L 699.481836 192.146287 
L 703.377881 187.928108 
L 715.066016 204.800906 
L 718.962061 186.873563 
L 722.858106 186.873563 
L 726.754151 201.637354 
L 730.650196 202.691898 
L 742.338331 191.091824 
L 746.234376 209.019167 
L 750.130421 218.510151 
L 754.026466 212.182883 
L 757.922511 213.237428 
L 769.610646 197.419093 
L 773.506691 194.255376 
L 777.402736 218.510151 
L 781.298782 206.910077 
L 785.194827 210.073712 
L 796.882962 197.419093 
L 800.779007 171.055228 
L 804.675052 184.764474 
L 804.675052 184.764474 
" style="fill:none;stroke:#000000;stroke-linecap:square;stroke-width:4;"/>
   </g>
   <g id="patch_3">
    <path d="M 56.05 385.2 
L 56.05 88.8 
" style="fill:none;stroke:#000000;stroke-linecap:square;stroke-linejoin:miter;stroke-width:0.8;"/>
   </g>
   <g id="patch_4">
    <path d="M 56.05 385.2 
L 840.323864 385.2 
" style="fill:none;stroke:#000000;stroke-linecap:square;stroke-linejoin:miter;stroke-width:0.8;"/>
   </g>
   <g id="text_6">
    <!-- KSPI.IL   12% -->
    <defs>
     <path d="M 9.1875 72.90625 
L 27.984375 72.90625 
L 27.984375 46.296875 
L 55.078125 72.90625 
L 76.90625 72.90625 
L 41.796875 38.375 
L 80.515625 0 
L 56.984375 0 
L 27.984375 28.71875 
L 27.984375 0 
L 9.1875 0 
z
" id="DejaVuSans-Bold-75"/>
     <path d="M 59.90625 70.609375 
L 59.90625 55.171875 
Q 53.90625 57.859375 48.1875 59.21875 
Q 42.484375 60.59375 37.40625 60.59375 
Q 30.671875 60.59375 27.4375 58.734375 
Q 24.21875 56.890625 24.21875 52.984375 
Q 24.21875 50.046875 26.390625 48.40625 
Q 28.5625 46.78125 34.28125 45.609375 
L 42.28125 44 
Q 54.4375 41.546875 59.5625 36.5625 
Q 64.703125 31.59375 64.703125 22.40625 
Q 64.703125 10.359375 57.546875 4.46875 
Q 50.390625 -1.421875 35.6875 -1.421875 
Q 28.765625 -1.421875 21.78125 -0.09375 
Q 14.796875 1.21875 7.8125 3.8125 
L 7.8125 19.671875 
Q 14.796875 15.96875 21.3125 14.078125 
Q 27.828125 12.203125 33.890625 12.203125 
Q 40.046875 12.203125 43.3125 14.25 
Q 46.578125 16.3125 46.578125 20.125 
Q 46.578125 23.53125 44.359375 25.390625 
Q 42.140625 27.25 35.5 28.71875 
L 28.21875 30.328125 
Q 17.28125 32.671875 12.21875 37.796875 
Q 7.171875 42.921875 7.171875 51.609375 
Q 7.171875 62.5 14.203125 68.359375 
Q 21.234375 74.21875 34.421875 74.21875 
Q 40.4375 74.21875 46.78125 73.3125 
Q 53.125 72.40625 59.90625 70.609375 
z
" id="DejaVuSans-Bold-83"/>
     <path d="M 9.1875 72.90625 
L 40.375 72.90625 
Q 54.296875 72.90625 61.734375 66.71875 
Q 69.1875 60.546875 69.1875 49.125 
Q 69.1875 37.640625 61.734375 31.46875 
Q 54.296875 25.296875 40.375 25.296875 
L 27.984375 25.296875 
L 27.984375 0 
L 9.1875 0 
z
M 27.984375 59.28125 
L 27.984375 38.921875 
L 38.375 38.921875 
Q 43.84375 38.921875 46.828125 41.578125 
Q 49.8125 44.234375 49.8125 49.125 
Q 49.8125 54 46.828125 56.640625 
Q 43.84375 59.28125 38.375 59.28125 
z
" id="DejaVuSans-Bold-80"/>
     <path d="M 9.1875 72.90625 
L 27.984375 72.90625 
L 27.984375 0 
L 9.1875 0 
z
" id="DejaVuSans-Bold-73"/>
     <path d="M 10.203125 18.890625 
L 27.78125 18.890625 
L 27.78125 0 
L 10.203125 0 
z
" id="DejaVuSans-Bold-46"/>
     <path d="M 9.1875 72.90625 
L 27.984375 72.90625 
L 27.984375 14.203125 
L 60.984375 14.203125 
L 60.984375 0 
L 9.1875 0 
z
" id="DejaVuSans-Bold-76"/>
     <path id="DejaVuSans-Bold-32"/>
     <path d="M 11.71875 12.984375 
L 28.328125 12.984375 
L 28.328125 60.109375 
L 11.28125 56.59375 
L 11.28125 69.390625 
L 28.21875 72.90625 
L 46.09375 72.90625 
L 46.09375 12.984375 
L 62.703125 12.984375 
L 62.703125 0 
L 11.71875 0 
z
" id="DejaVuSans-Bold-49"/>
     <path d="M 28.8125 13.8125 
L 60.890625 13.8125 
L 60.890625 0 
L 7.90625 0 
L 7.90625 13.8125 
L 34.515625 37.3125 
Q 38.09375 40.53125 39.796875 43.609375 
Q 41.5 46.6875 41.5 50 
Q 41.5 55.125 38.0625 58.25 
Q 34.625 61.375 28.90625 61.375 
Q 24.515625 61.375 19.28125 59.5 
Q 14.0625 57.625 8.109375 53.90625 
L 8.109375 69.921875 
Q 14.453125 72.015625 20.65625 73.109375 
Q 26.859375 74.21875 32.8125 74.21875 
Q 45.90625 74.21875 53.15625 68.453125 
Q 60.40625 62.703125 60.40625 52.390625 
Q 60.40625 46.4375 57.328125 41.28125 
Q 54.25 36.140625 44.390625 27.484375 
z
" id="DejaVuSans-Bold-50"/>
     <path d="M 77.484375 30.078125 
Q 74.03125 30.078125 72.125 27.078125 
Q 70.21875 24.078125 70.21875 18.5 
Q 70.21875 12.890625 72.09375 9.890625 
Q 73.96875 6.890625 77.484375 6.890625 
Q 81 6.890625 82.859375 9.890625 
Q 84.71875 12.890625 84.71875 18.5 
Q 84.71875 24.078125 82.828125 27.078125 
Q 80.953125 30.078125 77.484375 30.078125 
z
M 77.484375 38.28125 
Q 86.578125 38.28125 91.796875 33 
Q 97.015625 27.734375 97.015625 18.5 
Q 97.015625 9.28125 91.796875 3.921875 
Q 86.578125 -1.421875 77.484375 -1.421875 
Q 68.40625 -1.421875 63.15625 3.921875 
Q 57.90625 9.28125 57.90625 18.5 
Q 57.90625 27.6875 63.15625 32.984375 
Q 68.40625 38.28125 77.484375 38.28125 
z
M 32.71875 -1.421875 
L 21.921875 -1.421875 
L 67.484375 74.21875 
L 78.328125 74.21875 
z
M 22.703125 74.21875 
Q 31.78125 74.21875 36.984375 68.921875 
Q 42.1875 63.625 42.1875 54.390625 
Q 42.1875 45.171875 36.984375 39.84375 
Q 31.78125 34.515625 22.703125 34.515625 
Q 13.625 34.515625 8.421875 39.84375 
Q 3.21875 45.171875 3.21875 54.390625 
Q 3.21875 63.625 8.421875 68.921875 
Q 13.625 74.21875 22.703125 74.21875 
z
M 22.703125 66.015625 
Q 19.1875 66.015625 17.28125 62.984375 
Q 15.375 59.96875 15.375 54.390625 
Q 15.375 48.78125 17.28125 45.71875 
Q 19.1875 42.671875 22.703125 42.671875 
Q 26.21875 42.671875 28.09375 45.71875 
Q 29.984375 48.78125 29.984375 54.390625 
Q 29.984375 59.96875 28.078125 62.984375 
Q 26.171875 66.015625 22.703125 66.015625 
z
" id="DejaVuSans-Bold-37"/>
    </defs>
    <g transform="translate(56.05 72.1625)scale(0.8 -0.8)">
     <use xlink:href="#DejaVuSans-Bold-75"/>
     <use x="77.490234" xlink:href="#DejaVuSans-Bold-83"/>
     <use x="149.511719" xlink:href="#DejaVuSans-Bold-80"/>
     <use x="222.802734" xlink:href="#DejaVuSans-Bold-73"/>
     <use x="260.009766" xlink:href="#DejaVuSans-Bold-46"/>
     <use x="297.998047" xlink:href="#DejaVuSans-Bold-73"/>
     <use x="335.205078" xlink:href="#DejaVuSans-Bold-76"/>
     <use x="398.925781" xlink:href="#DejaVuSans-Bold-32"/>
     <use x="433.740234" xlink:href="#DejaVuSans-Bold-32"/>
     <use x="468.554688" xlink:href="#DejaVuSans-Bold-32"/>
     <use x="503.369141" xlink:href="#DejaVuSans-Bold-49"/>
     <use x="572.949219" xlink:href="#DejaVuSans-Bold-50"/>
     <use x="642.529297" xlink:href="#DejaVuSans-Bold-37"/>
    </g>
   </g>
  </g>
 </g>
 <defs>
  <clipPath id="pd9ddb1ff59">
   <rect height="296.4" width="784.273864" x="56.05" y="88.8"/>
  </clipPath>
 </defs>
</svg>
