<?xml version="1.0" encoding="utf-8" standalone="no"?>
<!DOCTYPE svg PUBLIC "-//W3C//DTD SVG 1.1//EN"
  "http://www.w3.org/Graphics/SVG/1.1/DTD/svg11.dtd">
<!-- Created with matplotlib (https://matplotlib.org/) -->
<svg height="432pt" version="1.1" viewBox="0 0 576 432" width="576pt" xmlns="http://www.w3.org/2000/svg" xmlns:xlink="http://www.w3.org/1999/xlink">
 <defs>
  <style type="text/css">
*{stroke-linecap:butt;stroke-linejoin:round;}
  </style>
 </defs>
 <g id="figure_1">
  <g id="patch_1">
   <path d="M 0 432 
L 576 432 
L 576 0 
L 0 0 
z
" style="fill:#ffffff;"/>
  </g>
  <g id="axes_1">
   <g id="patch_2">
    <path d="M 31.404862 404.2 
L 565.2 404.2 
L 565.2 50.8 
L 31.404862 50.8 
z
" style="fill:#ffffff;"/>
   </g>
   <g id="PolyCollection_1">
    <defs>
     <path d="M 55.668278 -43.863636 
L 55.668278 -259.495422 
L 58.320017 -256.1812 
L 60.971756 -258.252598 
L 68.926974 -264.466755 
L 71.578714 -265.502455 
L 74.230453 -273.373742 
L 76.882193 -284.144984 
L 79.533932 -271.509487 
L 87.48915 -266.538154 
L 90.140889 -265.709598 
L 92.792629 -268.816677 
L 95.444368 -266.123866 
L 98.096108 -267.780997 
L 108.703065 -269.023821 
L 111.354805 -275.652265 
L 114.006544 -284.352108 
L 116.658283 -287.044919 
L 124.613501 -288.080618 
L 127.265241 -304.858893 
L 129.91698 -302.166082 
L 132.56872 -298.644716 
L 135.220459 -297.401873 
L 143.175677 -316.872958 
L 145.827417 -315.422971 
L 148.479156 -302.787494 
L 151.130895 -308.380259 
L 153.782635 -301.751795 
L 164.389592 -288.70203 
L 167.041332 -296.780461 
L 169.693071 -299.266128 
L 172.34481 -295.744762 
L 180.300029 -291.187696 
L 182.951768 -290.773429 
L 185.603507 -295.744762 
L 188.255247 -293.880507 
L 190.906986 -294.087651 
L 198.862204 -288.909174 
L 204.165683 -289.530585 
L 206.817422 -283.316429 
L 209.469162 -285.594951 
L 217.42438 -300.716095 
L 220.076119 -304.237461 
L 222.727859 -312.315893 
L 225.379598 -316.458671 
L 228.031337 -313.351592 
L 235.986556 -319.565769 
L 238.638295 -327.64418 
L 241.290034 -341.936788 
L 243.941774 -332.201246 
L 246.593513 -332.615514 
L 254.548731 -332.40839 
L 257.200471 -340.901089 
L 259.85221 -348.358089 
L 262.503949 -345.872422 
L 265.155689 -351.879455 
L 273.110907 -360.372154 
L 275.762646 -363.686377 
L 278.414386 -360.993586 
L 281.066125 -365.136364 
L 283.717864 -364.514932 
L 291.673083 -364.92922 
L 294.324822 -361.822141 
L 296.976561 -296.780461 
L 299.628301 -304.030337 
L 302.28004 -304.858893 
L 310.235258 -298.85186 
L 312.886998 -301.958938 
L 315.538737 -302.787494 
L 318.190476 -296.366174 
L 320.842216 -294.087651 
L 328.797434 -290.152017 
L 331.449173 -291.39484 
L 334.100913 -290.566285 
L 336.752652 -282.487873 
L 339.404392 -281.24503 
L 347.35961 -275.030853 
L 350.011349 -277.309396 
L 352.663088 -279.380775 
L 355.314828 -280.20933 
L 357.966567 -278.137951 
L 368.573525 -277.930808 
L 371.225264 -273.580886 
L 373.877003 -249.449183 
L 376.528743 -252.866977 
L 384.483961 -255.559788 
L 387.1357 -251.831278 
L 389.78744 -252.970549 
L 392.439179 -251.106294 
L 395.090919 -255.1455 
L 403.046137 -257.631167 
L 405.697876 -258.045455 
L 408.349615 -256.595487 
L 411.001355 -253.902677 
L 413.653094 -258.045455 
L 421.608312 -261.359677 
L 424.260052 -263.016788 
L 426.911791 -264.466755 
L 429.563531 -267.366709 
L 432.21527 -270.473788 
L 440.170488 -265.088187 
L 442.822227 -259.288278 
L 445.473967 -263.016788 
L 448.125706 -264.259631 
L 450.777446 -264.052487 
L 458.732664 -261.152533 
L 461.384403 -261.152533 
L 464.036143 -261.773964 
L 466.687882 -254.731232 
L 469.339621 -248.517056 
L 477.294839 -262.188232 
L 479.946579 -267.780997 
L 482.598318 -261.359677 
L 485.250058 -258.252598 
L 487.901797 -253.902677 
L 495.857015 -252.45269 
L 498.508755 -255.1455 
L 501.160494 -255.559788 
L 503.812233 -255.559788 
L 506.463973 -255.352644 
L 514.419191 -254.938356 
L 517.07093 -250.381311 
L 519.72267 -247.895644 
L 522.374409 -256.388343 
L 525.026148 -262.60252 
L 532.981366 -257.631167 
L 535.633106 -262.60252 
L 538.284845 -275.030853 
L 540.936585 -268.195265 
L 540.936585 -43.863636 
L 540.936585 -43.863636 
L 538.284845 -43.863636 
L 535.633106 -43.863636 
L 532.981366 -43.863636 
L 525.026148 -43.863636 
L 522.374409 -43.863636 
L 519.72267 -43.863636 
L 517.07093 -43.863636 
L 514.419191 -43.863636 
L 506.463973 -43.863636 
L 503.812233 -43.863636 
L 501.160494 -43.863636 
L 498.508755 -43.863636 
L 495.857015 -43.863636 
L 487.901797 -43.863636 
L 485.250058 -43.863636 
L 482.598318 -43.863636 
L 479.946579 -43.863636 
L 477.294839 -43.863636 
L 469.339621 -43.863636 
L 466.687882 -43.863636 
L 464.036143 -43.863636 
L 461.384403 -43.863636 
L 458.732664 -43.863636 
L 450.777446 -43.863636 
L 448.125706 -43.863636 
L 445.473967 -43.863636 
L 442.822227 -43.863636 
L 440.170488 -43.863636 
L 432.21527 -43.863636 
L 429.563531 -43.863636 
L 426.911791 -43.863636 
L 424.260052 -43.863636 
L 421.608312 -43.863636 
L 413.653094 -43.863636 
L 411.001355 -43.863636 
L 408.349615 -43.863636 
L 405.697876 -43.863636 
L 403.046137 -43.863636 
L 395.090919 -43.863636 
L 392.439179 -43.863636 
L 389.78744 -43.863636 
L 387.1357 -43.863636 
L 384.483961 -43.863636 
L 376.528743 -43.863636 
L 373.877003 -43.863636 
L 371.225264 -43.863636 
L 368.573525 -43.863636 
L 357.966567 -43.863636 
L 355.314828 -43.863636 
L 352.663088 -43.863636 
L 350.011349 -43.863636 
L 347.35961 -43.863636 
L 339.404392 -43.863636 
L 336.752652 -43.863636 
L 334.100913 -43.863636 
L 331.449173 -43.863636 
L 328.797434 -43.863636 
L 320.842216 -43.863636 
L 318.190476 -43.863636 
L 315.538737 -43.863636 
L 312.886998 -43.863636 
L 310.235258 -43.863636 
L 302.28004 -43.863636 
L 299.628301 -43.863636 
L 296.976561 -43.863636 
L 294.324822 -43.863636 
L 291.673083 -43.863636 
L 283.717864 -43.863636 
L 281.066125 -43.863636 
L 278.414386 -43.863636 
L 275.762646 -43.863636 
L 273.110907 -43.863636 
L 265.155689 -43.863636 
L 262.503949 -43.863636 
L 259.85221 -43.863636 
L 257.200471 -43.863636 
L 254.548731 -43.863636 
L 246.593513 -43.863636 
L 243.941774 -43.863636 
L 241.290034 -43.863636 
L 238.638295 -43.863636 
L 235.986556 -43.863636 
L 228.031337 -43.863636 
L 225.379598 -43.863636 
L 222.727859 -43.863636 
L 220.076119 -43.863636 
L 217.42438 -43.863636 
L 209.469162 -43.863636 
L 206.817422 -43.863636 
L 204.165683 -43.863636 
L 198.862204 -43.863636 
L 190.906986 -43.863636 
L 188.255247 -43.863636 
L 185.603507 -43.863636 
L 182.951768 -43.863636 
L 180.300029 -43.863636 
L 172.34481 -43.863636 
L 169.693071 -43.863636 
L 167.041332 -43.863636 
L 164.389592 -43.863636 
L 153.782635 -43.863636 
L 151.130895 -43.863636 
L 148.479156 -43.863636 
L 145.827417 -43.863636 
L 143.175677 -43.863636 
L 135.220459 -43.863636 
L 132.56872 -43.863636 
L 129.91698 -43.863636 
L 127.265241 -43.863636 
L 124.613501 -43.863636 
L 116.658283 -43.863636 
L 114.006544 -43.863636 
L 111.354805 -43.863636 
L 108.703065 -43.863636 
L 98.096108 -43.863636 
L 95.444368 -43.863636 
L 92.792629 -43.863636 
L 90.140889 -43.863636 
L 87.48915 -43.863636 
L 79.533932 -43.863636 
L 76.882193 -43.863636 
L 74.230453 -43.863636 
L 71.578714 -43.863636 
L 68.926974 -43.863636 
L 60.971756 -43.863636 
L 58.320017 -43.863636 
L 55.668278 -43.863636 
z
" id="mdf3642b096" style="stroke:#f5f6f8;"/>
    </defs>
    <g clip-path="url(#pb64c689d85)">
     <use style="fill:#f5f6f8;stroke:#f5f6f8;" x="0" xlink:href="#mdf3642b096" y="432"/>
    </g>
   </g>
   <g id="matplotlib.axis_1">
    <g id="xtick_1">
     <g id="line2d_1">
      <defs>
       <path d="M 0 0 
L 0 3.5 
" id="mfedcc93461" style="stroke:#000000;stroke-width:0.8;"/>
      </defs>
      <g>
       <use style="stroke:#000000;stroke-width:0.8;" x="31.802623" xlink:href="#mfedcc93461" y="404.2"/>
      </g>
     </g>
     <g id="text_1">
      <!-- 2023-05 -->
      <defs>
       <path d="M 19.1875 8.296875 
L 53.609375 8.296875 
L 53.609375 0 
L 7.328125 0 
L 7.328125 8.296875 
Q 12.9375 14.109375 22.625 23.890625 
Q 32.328125 33.6875 34.8125 36.53125 
Q 39.546875 41.84375 41.421875 45.53125 
Q 43.3125 49.21875 43.3125 52.78125 
Q 43.3125 58.59375 39.234375 62.25 
Q 35.15625 65.921875 28.609375 65.921875 
Q 23.96875 65.921875 18.8125 64.3125 
Q 13.671875 62.703125 7.8125 59.421875 
L 7.8125 69.390625 
Q 13.765625 71.78125 18.9375 73 
Q 24.125 74.21875 28.421875 74.21875 
Q 39.75 74.21875 46.484375 68.546875 
Q 53.21875 62.890625 53.21875 53.421875 
Q 53.21875 48.921875 51.53125 44.890625 
Q 49.859375 40.875 45.40625 35.40625 
Q 44.1875 33.984375 37.640625 27.21875 
Q 31.109375 20.453125 19.1875 8.296875 
z
" id="DejaVuSans-50"/>
       <path d="M 31.78125 66.40625 
Q 24.171875 66.40625 20.328125 58.90625 
Q 16.5 51.421875 16.5 36.375 
Q 16.5 21.390625 20.328125 13.890625 
Q 24.171875 6.390625 31.78125 6.390625 
Q 39.453125 6.390625 43.28125 13.890625 
Q 47.125 21.390625 47.125 36.375 
Q 47.125 51.421875 43.28125 58.90625 
Q 39.453125 66.40625 31.78125 66.40625 
z
M 31.78125 74.21875 
Q 44.046875 74.21875 50.515625 64.515625 
Q 56.984375 54.828125 56.984375 36.375 
Q 56.984375 17.96875 50.515625 8.265625 
Q 44.046875 -1.421875 31.78125 -1.421875 
Q 19.53125 -1.421875 13.0625 8.265625 
Q 6.59375 17.96875 6.59375 36.375 
Q 6.59375 54.828125 13.0625 64.515625 
Q 19.53125 74.21875 31.78125 74.21875 
z
" id="DejaVuSans-48"/>
       <path d="M 40.578125 39.3125 
Q 47.65625 37.796875 51.625 33 
Q 55.609375 28.21875 55.609375 21.1875 
Q 55.609375 10.40625 48.1875 4.484375 
Q 40.765625 -1.421875 27.09375 -1.421875 
Q 22.515625 -1.421875 17.65625 -0.515625 
Q 12.796875 0.390625 7.625 2.203125 
L 7.625 11.71875 
Q 11.71875 9.328125 16.59375 8.109375 
Q 21.484375 6.890625 26.8125 6.890625 
Q 36.078125 6.890625 40.9375 10.546875 
Q 45.796875 14.203125 45.796875 21.1875 
Q 45.796875 27.640625 41.28125 31.265625 
Q 36.765625 34.90625 28.71875 34.90625 
L 20.21875 34.90625 
L 20.21875 43.015625 
L 29.109375 43.015625 
Q 36.375 43.015625 40.234375 45.921875 
Q 44.09375 48.828125 44.09375 54.296875 
Q 44.09375 59.90625 40.109375 62.90625 
Q 36.140625 65.921875 28.71875 65.921875 
Q 24.65625 65.921875 20.015625 65.03125 
Q 15.375 64.15625 9.8125 62.3125 
L 9.8125 71.09375 
Q 15.4375 72.65625 20.34375 73.4375 
Q 25.25 74.21875 29.59375 74.21875 
Q 40.828125 74.21875 47.359375 69.109375 
Q 53.90625 64.015625 53.90625 55.328125 
Q 53.90625 49.265625 50.4375 45.09375 
Q 46.96875 40.921875 40.578125 39.3125 
z
" id="DejaVuSans-51"/>
       <path d="M 4.890625 31.390625 
L 31.203125 31.390625 
L 31.203125 23.390625 
L 4.890625 23.390625 
z
" id="DejaVuSans-45"/>
       <path d="M 10.796875 72.90625 
L 49.515625 72.90625 
L 49.515625 64.59375 
L 19.828125 64.59375 
L 19.828125 46.734375 
Q 21.96875 47.46875 24.109375 47.828125 
Q 26.265625 48.1875 28.421875 48.1875 
Q 40.625 48.1875 47.75 41.5 
Q 54.890625 34.8125 54.890625 23.390625 
Q 54.890625 11.625 47.5625 5.09375 
Q 40.234375 -1.421875 26.90625 -1.421875 
Q 22.3125 -1.421875 17.546875 -0.640625 
Q 12.796875 0.140625 7.71875 1.703125 
L 7.71875 11.625 
Q 12.109375 9.234375 16.796875 8.0625 
Q 21.484375 6.890625 26.703125 6.890625 
Q 35.15625 6.890625 40.078125 11.328125 
Q 45.015625 15.765625 45.015625 23.390625 
Q 45.015625 31 40.078125 35.4375 
Q 35.15625 39.890625 26.703125 39.890625 
Q 22.75 39.890625 18.8125 39.015625 
Q 14.890625 38.140625 10.796875 36.28125 
z
" id="DejaVuSans-53"/>
      </defs>
      <g transform="translate(10.911217 418.798437)scale(0.1 -0.1)">
       <use xlink:href="#DejaVuSans-50"/>
       <use x="63.623047" xlink:href="#DejaVuSans-48"/>
       <use x="127.246094" xlink:href="#DejaVuSans-50"/>
       <use x="190.869141" xlink:href="#DejaVuSans-51"/>
       <use x="254.492188" xlink:href="#DejaVuSans-45"/>
       <use x="290.576172" xlink:href="#DejaVuSans-48"/>
       <use x="354.199219" xlink:href="#DejaVuSans-53"/>
      </g>
     </g>
    </g>
    <g id="xtick_2">
     <g id="line2d_2">
      <g>
       <use style="stroke:#000000;stroke-width:0.8;" x="114.006544" xlink:href="#mfedcc93461" y="404.2"/>
      </g>
     </g>
     <g id="text_2">
      <!-- 2023-06 -->
      <defs>
       <path d="M 33.015625 40.375 
Q 26.375 40.375 22.484375 35.828125 
Q 18.609375 31.296875 18.609375 23.390625 
Q 18.609375 15.53125 22.484375 10.953125 
Q 26.375 6.390625 33.015625 6.390625 
Q 39.65625 6.390625 43.53125 10.953125 
Q 47.40625 15.53125 47.40625 23.390625 
Q 47.40625 31.296875 43.53125 35.828125 
Q 39.65625 40.375 33.015625 40.375 
z
M 52.59375 71.296875 
L 52.59375 62.3125 
Q 48.875 64.0625 45.09375 64.984375 
Q 41.3125 65.921875 37.59375 65.921875 
Q 27.828125 65.921875 22.671875 59.328125 
Q 17.53125 52.734375 16.796875 39.40625 
Q 19.671875 43.65625 24.015625 45.921875 
Q 28.375 48.1875 33.59375 48.1875 
Q 44.578125 48.1875 50.953125 41.515625 
Q 57.328125 34.859375 57.328125 23.390625 
Q 57.328125 12.15625 50.6875 5.359375 
Q 44.046875 -1.421875 33.015625 -1.421875 
Q 20.359375 -1.421875 13.671875 8.265625 
Q 6.984375 17.96875 6.984375 36.375 
Q 6.984375 53.65625 15.1875 63.9375 
Q 23.390625 74.21875 37.203125 74.21875 
Q 40.921875 74.21875 44.703125 73.484375 
Q 48.484375 72.75 52.59375 71.296875 
z
" id="DejaVuSans-54"/>
      </defs>
      <g transform="translate(93.115138 418.798437)scale(0.1 -0.1)">
       <use xlink:href="#DejaVuSans-50"/>
       <use x="63.623047" xlink:href="#DejaVuSans-48"/>
       <use x="127.246094" xlink:href="#DejaVuSans-50"/>
       <use x="190.869141" xlink:href="#DejaVuSans-51"/>
       <use x="254.492188" xlink:href="#DejaVuSans-45"/>
       <use x="290.576172" xlink:href="#DejaVuSans-48"/>
       <use x="354.199219" xlink:href="#DejaVuSans-54"/>
      </g>
     </g>
    </g>
    <g id="xtick_3">
     <g id="line2d_3">
      <g>
       <use style="stroke:#000000;stroke-width:0.8;" x="193.558725" xlink:href="#mfedcc93461" y="404.2"/>
      </g>
     </g>
     <g id="text_3">
      <!-- 2023-07 -->
      <defs>
       <path d="M 8.203125 72.90625 
L 55.078125 72.90625 
L 55.078125 68.703125 
L 28.609375 0 
L 18.3125 0 
L 43.21875 64.59375 
L 8.203125 64.59375 
z
" id="DejaVuSans-55"/>
      </defs>
      <g transform="translate(172.667319 418.798437)scale(0.1 -0.1)">
       <use xlink:href="#DejaVuSans-50"/>
       <use x="63.623047" xlink:href="#DejaVuSans-48"/>
       <use x="127.246094" xlink:href="#DejaVuSans-50"/>
       <use x="190.869141" xlink:href="#DejaVuSans-51"/>
       <use x="254.492188" xlink:href="#DejaVuSans-45"/>
       <use x="290.576172" xlink:href="#DejaVuSans-48"/>
       <use x="354.199219" xlink:href="#DejaVuSans-55"/>
      </g>
     </g>
    </g>
    <g id="xtick_4">
     <g id="line2d_4">
      <g>
       <use style="stroke:#000000;stroke-width:0.8;" x="275.762646" xlink:href="#mfedcc93461" y="404.2"/>
      </g>
     </g>
     <g id="text_4">
      <!-- 2023-08 -->
      <defs>
       <path d="M 31.78125 34.625 
Q 24.75 34.625 20.71875 30.859375 
Q 16.703125 27.09375 16.703125 20.515625 
Q 16.703125 13.921875 20.71875 10.15625 
Q 24.75 6.390625 31.78125 6.390625 
Q 38.8125 6.390625 42.859375 10.171875 
Q 46.921875 13.96875 46.921875 20.515625 
Q 46.921875 27.09375 42.890625 30.859375 
Q 38.875 34.625 31.78125 34.625 
z
M 21.921875 38.8125 
Q 15.578125 40.375 12.03125 44.71875 
Q 8.5 49.078125 8.5 55.328125 
Q 8.5 64.0625 14.71875 69.140625 
Q 20.953125 74.21875 31.78125 74.21875 
Q 42.671875 74.21875 48.875 69.140625 
Q 55.078125 64.0625 55.078125 55.328125 
Q 55.078125 49.078125 51.53125 44.71875 
Q 48 40.375 41.703125 38.8125 
Q 48.828125 37.15625 52.796875 32.3125 
Q 56.78125 27.484375 56.78125 20.515625 
Q 56.78125 9.90625 50.3125 4.234375 
Q 43.84375 -1.421875 31.78125 -1.421875 
Q 19.734375 -1.421875 13.25 4.234375 
Q 6.78125 9.90625 6.78125 20.515625 
Q 6.78125 27.484375 10.78125 32.3125 
Q 14.796875 37.15625 21.921875 38.8125 
z
M 18.3125 54.390625 
Q 18.3125 48.734375 21.84375 45.5625 
Q 25.390625 42.390625 31.78125 42.390625 
Q 38.140625 42.390625 41.71875 45.5625 
Q 45.3125 48.734375 45.3125 54.390625 
Q 45.3125 60.0625 41.71875 63.234375 
Q 38.140625 66.40625 31.78125 66.40625 
Q 25.390625 66.40625 21.84375 63.234375 
Q 18.3125 60.0625 18.3125 54.390625 
z
" id="DejaVuSans-56"/>
      </defs>
      <g transform="translate(254.87124 418.798437)scale(0.1 -0.1)">
       <use xlink:href="#DejaVuSans-50"/>
       <use x="63.623047" xlink:href="#DejaVuSans-48"/>
       <use x="127.246094" xlink:href="#DejaVuSans-50"/>
       <use x="190.869141" xlink:href="#DejaVuSans-51"/>
       <use x="254.492188" xlink:href="#DejaVuSans-45"/>
       <use x="290.576172" xlink:href="#DejaVuSans-48"/>
       <use x="354.199219" xlink:href="#DejaVuSans-56"/>
      </g>
     </g>
    </g>
    <g id="xtick_5">
     <g id="line2d_5">
      <g>
       <use style="stroke:#000000;stroke-width:0.8;" x="357.966567" xlink:href="#mfedcc93461" y="404.2"/>
      </g>
     </g>
     <g id="text_5">
      <!-- 2023-09 -->
      <defs>
       <path d="M 10.984375 1.515625 
L 10.984375 10.5 
Q 14.703125 8.734375 18.5 7.8125 
Q 22.3125 6.890625 25.984375 6.890625 
Q 35.75 6.890625 40.890625 13.453125 
Q 46.046875 20.015625 46.78125 33.40625 
Q 43.953125 29.203125 39.59375 26.953125 
Q 35.25 24.703125 29.984375 24.703125 
Q 19.046875 24.703125 12.671875 31.3125 
Q 6.296875 37.9375 6.296875 49.421875 
Q 6.296875 60.640625 12.9375 67.421875 
Q 19.578125 74.21875 30.609375 74.21875 
Q 43.265625 74.21875 49.921875 64.515625 
Q 56.59375 54.828125 56.59375 36.375 
Q 56.59375 19.140625 48.40625 8.859375 
Q 40.234375 -1.421875 26.421875 -1.421875 
Q 22.703125 -1.421875 18.890625 -0.6875 
Q 15.09375 0.046875 10.984375 1.515625 
z
M 30.609375 32.421875 
Q 37.25 32.421875 41.125 36.953125 
Q 45.015625 41.5 45.015625 49.421875 
Q 45.015625 57.28125 41.125 61.84375 
Q 37.25 66.40625 30.609375 66.40625 
Q 23.96875 66.40625 20.09375 61.84375 
Q 16.21875 57.28125 16.21875 49.421875 
Q 16.21875 41.5 20.09375 36.953125 
Q 23.96875 32.421875 30.609375 32.421875 
z
" id="DejaVuSans-57"/>
      </defs>
      <g transform="translate(337.075161 418.798437)scale(0.1 -0.1)">
       <use xlink:href="#DejaVuSans-50"/>
       <use x="63.623047" xlink:href="#DejaVuSans-48"/>
       <use x="127.246094" xlink:href="#DejaVuSans-50"/>
       <use x="190.869141" xlink:href="#DejaVuSans-51"/>
       <use x="254.492188" xlink:href="#DejaVuSans-45"/>
       <use x="290.576172" xlink:href="#DejaVuSans-48"/>
       <use x="354.199219" xlink:href="#DejaVuSans-57"/>
      </g>
     </g>
    </g>
    <g id="xtick_6">
     <g id="line2d_6">
      <g>
       <use style="stroke:#000000;stroke-width:0.8;" x="437.518749" xlink:href="#mfedcc93461" y="404.2"/>
      </g>
     </g>
     <g id="text_6">
      <!-- 2023-10 -->
      <defs>
       <path d="M 12.40625 8.296875 
L 28.515625 8.296875 
L 28.515625 63.921875 
L 10.984375 60.40625 
L 10.984375 69.390625 
L 28.421875 72.90625 
L 38.28125 72.90625 
L 38.28125 8.296875 
L 54.390625 8.296875 
L 54.390625 0 
L 12.40625 0 
z
" id="DejaVuSans-49"/>
      </defs>
      <g transform="translate(416.627342 418.798437)scale(0.1 -0.1)">
       <use xlink:href="#DejaVuSans-50"/>
       <use x="63.623047" xlink:href="#DejaVuSans-48"/>
       <use x="127.246094" xlink:href="#DejaVuSans-50"/>
       <use x="190.869141" xlink:href="#DejaVuSans-51"/>
       <use x="254.492188" xlink:href="#DejaVuSans-45"/>
       <use x="290.576172" xlink:href="#DejaVuSans-49"/>
       <use x="354.199219" xlink:href="#DejaVuSans-48"/>
      </g>
     </g>
    </g>
    <g id="xtick_7">
     <g id="line2d_7">
      <g>
       <use style="stroke:#000000;stroke-width:0.8;" x="519.72267" xlink:href="#mfedcc93461" y="404.2"/>
      </g>
     </g>
     <g id="text_7">
      <!-- 2023-11 -->
      <g transform="translate(498.831263 418.798437)scale(0.1 -0.1)">
       <use xlink:href="#DejaVuSans-50"/>
       <use x="63.623047" xlink:href="#DejaVuSans-48"/>
       <use x="127.246094" xlink:href="#DejaVuSans-50"/>
       <use x="190.869141" xlink:href="#DejaVuSans-51"/>
       <use x="254.492188" xlink:href="#DejaVuSans-45"/>
       <use x="290.576172" xlink:href="#DejaVuSans-49"/>
       <use x="354.199219" xlink:href="#DejaVuSans-49"/>
      </g>
     </g>
    </g>
   </g>
   <g id="matplotlib.axis_2">
    <g id="ytick_1">
     <g id="line2d_8">
      <defs>
       <path d="M 0 0 
L -3.5 0 
" id="mbdaee8cf22" style="stroke:#000000;stroke-width:0.8;"/>
      </defs>
      <g>
       <use style="stroke:#000000;stroke-width:0.8;" x="31.404862" xlink:href="#mbdaee8cf22" y="388.136364"/>
      </g>
     </g>
     <g id="text_8">
      <!-- 0 -->
      <g transform="translate(18.042362 391.935582)scale(0.1 -0.1)">
       <use xlink:href="#DejaVuSans-48"/>
      </g>
     </g>
    </g>
    <g id="ytick_2">
     <g id="line2d_9">
      <g>
       <use style="stroke:#000000;stroke-width:0.8;" x="31.404862" xlink:href="#mbdaee8cf22" y="346.708546"/>
      </g>
     </g>
     <g id="text_9">
      <!-- 2 -->
      <g transform="translate(18.042362 350.507765)scale(0.1 -0.1)">
       <use xlink:href="#DejaVuSans-50"/>
      </g>
     </g>
    </g>
    <g id="ytick_3">
     <g id="line2d_10">
      <g>
       <use style="stroke:#000000;stroke-width:0.8;" x="31.404862" xlink:href="#mbdaee8cf22" y="305.280729"/>
      </g>
     </g>
     <g id="text_10">
      <!-- 4 -->
      <defs>
       <path d="M 37.796875 64.3125 
L 12.890625 25.390625 
L 37.796875 25.390625 
z
M 35.203125 72.90625 
L 47.609375 72.90625 
L 47.609375 25.390625 
L 58.015625 25.390625 
L 58.015625 17.1875 
L 47.609375 17.1875 
L 47.609375 0 
L 37.796875 0 
L 37.796875 17.1875 
L 4.890625 17.1875 
L 4.890625 26.703125 
z
" id="DejaVuSans-52"/>
      </defs>
      <g transform="translate(18.042362 309.079948)scale(0.1 -0.1)">
       <use xlink:href="#DejaVuSans-52"/>
      </g>
     </g>
    </g>
    <g id="ytick_4">
     <g id="line2d_11">
      <g>
       <use style="stroke:#000000;stroke-width:0.8;" x="31.404862" xlink:href="#mbdaee8cf22" y="263.852912"/>
      </g>
     </g>
     <g id="text_11">
      <!-- 6 -->
      <g transform="translate(18.042362 267.652131)scale(0.1 -0.1)">
       <use xlink:href="#DejaVuSans-54"/>
      </g>
     </g>
    </g>
    <g id="ytick_5">
     <g id="line2d_12">
      <g>
       <use style="stroke:#000000;stroke-width:0.8;" x="31.404862" xlink:href="#mbdaee8cf22" y="222.425095"/>
      </g>
     </g>
     <g id="text_12">
      <!-- 8 -->
      <g transform="translate(18.042362 226.224314)scale(0.1 -0.1)">
       <use xlink:href="#DejaVuSans-56"/>
      </g>
     </g>
    </g>
    <g id="ytick_6">
     <g id="line2d_13">
      <g>
       <use style="stroke:#000000;stroke-width:0.8;" x="31.404862" xlink:href="#mbdaee8cf22" y="180.997278"/>
      </g>
     </g>
     <g id="text_13">
      <!-- 10 -->
      <g transform="translate(11.679862 184.796496)scale(0.1 -0.1)">
       <use xlink:href="#DejaVuSans-49"/>
       <use x="63.623047" xlink:href="#DejaVuSans-48"/>
      </g>
     </g>
    </g>
    <g id="ytick_7">
     <g id="line2d_14">
      <g>
       <use style="stroke:#000000;stroke-width:0.8;" x="31.404862" xlink:href="#mbdaee8cf22" y="139.56946"/>
      </g>
     </g>
     <g id="text_14">
      <!-- 12 -->
      <g transform="translate(11.679862 143.368679)scale(0.1 -0.1)">
       <use xlink:href="#DejaVuSans-49"/>
       <use x="63.623047" xlink:href="#DejaVuSans-50"/>
      </g>
     </g>
    </g>
    <g id="ytick_8">
     <g id="line2d_15">
      <g>
       <use style="stroke:#000000;stroke-width:0.8;" x="31.404862" xlink:href="#mbdaee8cf22" y="98.141643"/>
      </g>
     </g>
     <g id="text_15">
      <!-- 14 -->
      <g transform="translate(11.679862 101.940862)scale(0.1 -0.1)">
       <use xlink:href="#DejaVuSans-49"/>
       <use x="63.623047" xlink:href="#DejaVuSans-52"/>
      </g>
     </g>
    </g>
    <g id="ytick_9">
     <g id="line2d_16">
      <g>
       <use style="stroke:#000000;stroke-width:0.8;" x="31.404862" xlink:href="#mbdaee8cf22" y="56.713826"/>
      </g>
     </g>
     <g id="text_16">
      <!-- 16 -->
      <g transform="translate(11.679862 60.513045)scale(0.1 -0.1)">
       <use xlink:href="#DejaVuSans-49"/>
       <use x="63.623047" xlink:href="#DejaVuSans-54"/>
      </g>
     </g>
    </g>
   </g>
   <g id="patch_3">
    <path d="M 31.404862 404.2 
L 31.404862 50.8 
" style="fill:none;stroke:#000000;stroke-linecap:square;stroke-linejoin:miter;stroke-width:0.8;"/>
   </g>
   <g id="patch_4">
    <path d="M 565.2 404.2 
L 565.2 50.8 
" style="fill:none;stroke:#000000;stroke-linecap:square;stroke-linejoin:miter;stroke-width:0.8;"/>
   </g>
   <g id="patch_5">
    <path d="M 31.404862 404.2 
L 565.2 404.2 
" style="fill:none;stroke:#000000;stroke-linecap:square;stroke-linejoin:miter;stroke-width:0.8;"/>
   </g>
   <g id="patch_6">
    <path d="M 31.404862 50.8 
L 565.2 50.8 
" style="fill:none;stroke:#000000;stroke-linecap:square;stroke-linejoin:miter;stroke-width:0.8;"/>
   </g>
   <g id="text_17">
    <!-- LZ   4% -->
    <defs>
     <path d="M 9.1875 72.90625 
L 27.984375 72.90625 
L 27.984375 14.203125 
L 60.984375 14.203125 
L 60.984375 0 
L 9.1875 0 
z
" id="DejaVuSans-Bold-76"/>
     <path d="M 5.609375 72.90625 
L 66.890625 72.90625 
L 66.890625 61.53125 
L 27.78125 14.203125 
L 68.015625 14.203125 
L 68.015625 0 
L 4.5 0 
L 4.5 11.375 
L 43.609375 58.6875 
L 5.609375 58.6875 
z
" id="DejaVuSans-Bold-90"/>
     <path id="DejaVuSans-Bold-32"/>
     <path d="M 36.8125 57.421875 
L 16.21875 26.90625 
L 36.8125 26.90625 
z
M 33.6875 72.90625 
L 54.59375 72.90625 
L 54.59375 26.90625 
L 64.984375 26.90625 
L 64.984375 13.28125 
L 54.59375 13.28125 
L 54.59375 0 
L 36.8125 0 
L 36.8125 13.28125 
L 4.5 13.28125 
L 4.5 29.390625 
z
" id="DejaVuSans-Bold-52"/>
     <path d="M 77.484375 30.078125 
Q 74.03125 30.078125 72.125 27.078125 
Q 70.21875 24.078125 70.21875 18.5 
Q 70.21875 12.890625 72.09375 9.890625 
Q 73.96875 6.890625 77.484375 6.890625 
Q 81 6.890625 82.859375 9.890625 
Q 84.71875 12.890625 84.71875 18.5 
Q 84.71875 24.078125 82.828125 27.078125 
Q 80.953125 30.078125 77.484375 30.078125 
z
M 77.484375 38.28125 
Q 86.578125 38.28125 91.796875 33 
Q 97.015625 27.734375 97.015625 18.5 
Q 97.015625 9.28125 91.796875 3.921875 
Q 86.578125 -1.421875 77.484375 -1.421875 
Q 68.40625 -1.421875 63.15625 3.921875 
Q 57.90625 9.28125 57.90625 18.5 
Q 57.90625 27.6875 63.15625 32.984375 
Q 68.40625 38.28125 77.484375 38.28125 
z
M 32.71875 -1.421875 
L 21.921875 -1.421875 
L 67.484375 74.21875 
L 78.328125 74.21875 
z
M 22.703125 74.21875 
Q 31.78125 74.21875 36.984375 68.921875 
Q 42.1875 63.625 42.1875 54.390625 
Q 42.1875 45.171875 36.984375 39.84375 
Q 31.78125 34.515625 22.703125 34.515625 
Q 13.625 34.515625 8.421875 39.84375 
Q 3.21875 45.171875 3.21875 54.390625 
Q 3.21875 63.625 8.421875 68.921875 
Q 13.625 74.21875 22.703125 74.21875 
z
M 22.703125 66.015625 
Q 19.1875 66.015625 17.28125 62.984375 
Q 15.375 59.96875 15.375 54.390625 
Q 15.375 48.78125 17.28125 45.71875 
Q 19.1875 42.671875 22.703125 42.671875 
Q 26.21875 42.671875 28.09375 45.71875 
Q 29.984375 48.78125 29.984375 54.390625 
Q 29.984375 59.96875 28.078125 62.984375 
Q 26.171875 66.015625 22.703125 66.015625 
z
" id="DejaVuSans-Bold-37"/>
    </defs>
    <g transform="translate(31.404862 42.48125)scale(0.4 -0.4)">
     <use xlink:href="#DejaVuSans-Bold-76"/>
     <use x="63.720703" xlink:href="#DejaVuSans-Bold-90"/>
     <use x="136.230469" xlink:href="#DejaVuSans-Bold-32"/>
     <use x="171.044922" xlink:href="#DejaVuSans-Bold-32"/>
     <use x="205.859375" xlink:href="#DejaVuSans-Bold-32"/>
     <use x="240.673828" xlink:href="#DejaVuSans-Bold-52"/>
     <use x="310.253906" xlink:href="#DejaVuSans-Bold-37"/>
    </g>
   </g>
  </g>
 </g>
 <defs>
  <clipPath id="pb64c689d85">
   <rect height="353.4" width="533.795138" x="31.404862" y="50.8"/>
  </clipPath>
 </defs>
</svg>
