<?xml version="1.0" encoding="utf-8" standalone="no"?>
<!DOCTYPE svg PUBLIC "-//W3C//DTD SVG 1.1//EN"
  "http://www.w3.org/Graphics/SVG/1.1/DTD/svg11.dtd">
<!-- Created with matplotlib (https://matplotlib.org/) -->
<svg height="432pt" version="1.1" viewBox="0 0 576 432" width="576pt" xmlns="http://www.w3.org/2000/svg" xmlns:xlink="http://www.w3.org/1999/xlink">
 <defs>
  <style type="text/css">
*{stroke-linecap:butt;stroke-linejoin:round;}
  </style>
 </defs>
 <g id="figure_1">
  <g id="patch_1">
   <path d="M 0 432 
L 576 432 
L 576 0 
L 0 0 
z
" style="fill:#ffffff;"/>
  </g>
  <g id="axes_1">
   <g id="patch_2">
    <path d="M 36.925 404.2 
L 565.2 404.2 
L 565.2 31.8 
L 36.925 31.8 
z
" style="fill:#ffffff;"/>
   </g>
   <g id="PolyCollection_1">
    <defs>
     <path d="M 60.9375 -44.727273 
L 60.9375 -294.4915 
L 62.253253 -301.923747 
L 66.200514 -307.384857 
L 67.516267 -307.885728 
L 68.832021 -299.718334 
L 70.147774 -317.192179 
L 71.463527 -318.82407 
L 75.410788 -318.888685 
L 76.726541 -322.233206 
L 78.042295 -321.627314 
L 79.358048 -320.423592 
L 80.673801 -322.378632 
L 84.621062 -317.983904 
L 85.936815 -323.404607 
L 87.252568 -326.377511 
L 89.884075 -328.51831 
L 93.831336 -323.105692 
L 95.147089 -321.926229 
L 96.462842 -332.646444 
L 97.778596 -336.201006 
L 99.094349 -335.603175 
L 103.04161 -332.395996 
L 104.357363 -325.480766 
L 105.673116 -325.391942 
L 106.98887 -328.421375 
L 108.304623 -326.530975 
L 112.251884 -334.076355 
L 113.567637 -333.25231 
L 114.88339 -333.543164 
L 116.199144 -324.44673 
L 117.514897 -324.11552 
L 121.462158 -320.415556 
L 122.777911 -321.780827 
L 124.093664 -323.994327 
L 125.409418 -320.625573 
L 126.725171 -322.305931 
L 131.988185 -324.374004 
L 133.303938 -320.972955 
L 134.619692 -326.030129 
L 135.935445 -325.642365 
L 141.198459 -324.891047 
L 142.514212 -331.636616 
L 143.829966 -328.906074 
L 145.145719 -342.233033 
L 149.092979 -344.903277 
L 150.408733 -344.935646 
L 151.724486 -350.478411 
L 153.04024 -352.056279 
L 154.355993 -348.584985 
L 159.619007 -348.164207 
L 160.93476 -343.244498 
L 162.250514 -342.451483 
L 163.566267 -349.199955 
L 167.513527 -351.05295 
L 168.829281 -352.218151 
L 170.145034 -354.143947 
L 171.460788 -349.976722 
L 172.776541 -347.379304 
L 176.723801 -345.024619 
L 178.039555 -344.60389 
L 179.355308 -347.419759 
L 180.671062 -348.115665 
L 181.986815 -347.282195 
L 185.934075 -346.521625 
L 187.249829 -348.212749 
L 188.565582 -344.401588 
L 189.881336 -344.45824 
L 191.197089 -341.5533 
L 195.144349 -344.789971 
L 196.460103 -344.086004 
L 197.775856 -343.827098 
L 199.09161 -342.135925 
L 200.407363 -336.941063 
L 205.670377 -332.75769 
L 206.98613 -331.956615 
L 208.301884 -332.409762 
L 209.617637 -330.459658 
L 213.564897 -332.369307 
L 214.880651 -332.21557 
L 216.196404 -330.767131 
L 217.512158 -332.442132 
L 218.827911 -337.240474 
L 222.775171 -341.634236 
L 224.090925 -335.97819 
L 225.406678 -335.241828 
L 226.722432 -331.527775 
L 228.038185 -325.596577 
L 231.985445 -323.654584 
L 233.301199 -330.2169 
L 234.616952 -326.381455 
L 235.932705 -326.316741 
L 237.248459 -327.659937 
L 241.195719 -327.384859 
L 242.511473 -331.63297 
L 243.827226 -328.76851 
L 245.142979 -331.471123 
L 246.458733 -329.254027 
L 250.405993 -331.673401 
L 251.721747 -331.438753 
L 253.0375 -335.646409 
L 254.353253 -335.427959 
L 255.669007 -338.785997 
L 259.616267 -341.262024 
L 260.932021 -339.182467 
L 262.247774 -339.555274 
L 263.563527 -337.675068 
L 268.826541 -336.597178 
L 270.142295 -339.830823 
L 271.458048 -337.926285 
L 272.773801 -344.304405 
L 274.089555 -346.557417 
L 278.036815 -346.824881 
L 279.352568 -346.468296 
L 280.668322 -346.857275 
L 281.984075 -348.640224 
L 283.299829 -348.834738 
L 287.247089 -348.421426 
L 288.562842 -343.396721 
L 289.878596 -341.962271 
L 291.194349 -347.562358 
L 292.510103 -352.71674 
L 296.457363 -352.578953 
L 297.773116 -349.475008 
L 299.08887 -348.559189 
L 300.404623 -349.547908 
L 301.720377 -356.469041 
L 305.667637 -357.157927 
L 306.98339 -355.075096 
L 308.299144 -354.75093 
L 309.614897 -355.439792 
L 310.930651 -354.248447 
L 314.877911 -355.455989 
L 316.193664 -352.886921 
L 317.509418 -358.365444 
L 318.825171 -362.433824 
L 320.140925 -357.206543 
L 324.088185 -356.363673 
L 325.403938 -347.627197 
L 326.719692 -343.372413 
L 328.035445 -344.620509 
L 329.351199 -348.129655 
L 334.614212 -342.561986 
L 335.929966 -340.552104 
L 337.245719 -345.30126 
L 338.561473 -347.610999 
L 342.508733 -345.009488 
L 343.824486 -352.659988 
L 345.14024 -345.714596 
L 346.455993 -342.63491 
L 347.771747 -343.955931 
L 351.719007 -348.89149 
L 353.03476 -345.706461 
L 354.350514 -348.445759 
L 355.666267 -351.914399 
L 356.982021 -349.880209 
L 362.245034 -348.332255 
L 363.560788 -349.56413 
L 364.876541 -350.909458 
L 366.192295 -352.538423 
L 370.139555 -350.601514 
L 371.455308 -354.143079 
L 372.771062 -352.87881 
L 374.086815 -358.908457 
L 375.402568 -363.471184 
L 379.349829 -364.006061 
L 381.981336 -364.630134 
L 383.297089 -363.802295 
L 384.612842 -360.182523 
L 388.560103 -363.0069 
L 389.875856 -367.584361 
L 391.19161 -369.929918 
L 392.507363 -369.824401 
L 393.823116 -371.407056 
L 397.770377 -371.155442 
L 399.08613 -367.876554 
L 400.401884 -367.965824 
L 401.717637 -367.795395 
L 403.03339 -367.332772 
L 406.980651 -373.257497 
L 408.296404 -370.408762 
L 409.612158 -371.325872 
L 410.927911 -364.906056 
L 412.243664 -363.656174 
L 416.190925 -364.727516 
L 417.506678 -366.991913 
L 418.822432 -361.270062 
L 420.138185 -363.696778 
L 421.453938 -362.349515 
L 425.401199 -366.82957 
L 426.716952 -363.842875 
L 428.032705 -364.232449 
L 429.348459 -367.048715 
L 430.664212 -365.295655 
L 434.611473 -368.217413 
L 435.927226 -364.865501 
L 437.242979 -364.800564 
L 438.558733 -363.380252 
L 439.874486 -363.015035 
L 443.821747 -363.850986 
L 445.1375 -367.61683 
L 446.453253 -370.230197 
L 447.769007 -367.478869 
L 449.08476 -371.715446 
L 453.032021 -375.408267 
L 454.347774 -378.825116 
L 455.663527 -380.65936 
L 456.979281 -379.628622 
L 458.295034 -382.006623 
L 463.558048 -378.703377 
L 464.873801 -380.066862 
L 466.189555 -381.235585 
L 467.505308 -381.414151 
L 471.452568 -382.915622 
L 472.768322 -382.574738 
L 474.084075 -382.599071 
L 475.399829 -380.196737 
L 476.715582 -380.983997 
L 480.662842 -383.272727 
L 481.978596 -380.350945 
L 483.294349 -377.908006 
L 484.610103 -372.096885 
L 485.925856 -371.171664 
L 489.873116 -371.390784 
L 491.18887 -365.620292 
L 492.504623 -365.701451 
L 493.820377 -368.915402 
L 495.13613 -366.050446 
L 499.08339 -366.001731 
L 500.399144 -362.114148 
L 501.714897 -364.305497 
L 503.030651 -365.126391 
L 504.346404 -368.190575 
L 508.293664 -365.565277 
L 509.609418 -370.141249 
L 510.925171 -369.686093 
L 512.240925 -369.75924 
L 513.556678 -368.23934 
L 517.503938 -370.783355 
L 518.819692 -371.279141 
L 520.135445 -364.321719 
L 521.451199 -359.98146 
L 522.766952 -357.169238 
L 526.714212 -356.567786 
L 528.029966 -359.201196 
L 529.345719 -358.713521 
L 530.661473 -341.05987 
L 531.977226 -340.645343 
L 535.924486 -347.423976 
L 537.24024 -350.618208 
L 538.555993 -351.813 
L 539.871747 -355.77125 
L 541.1875 -357.819454 
L 541.1875 -44.727273 
L 541.1875 -44.727273 
L 539.871747 -44.727273 
L 538.555993 -44.727273 
L 537.24024 -44.727273 
L 535.924486 -44.727273 
L 531.977226 -44.727273 
L 530.661473 -44.727273 
L 529.345719 -44.727273 
L 528.029966 -44.727273 
L 526.714212 -44.727273 
L 522.766952 -44.727273 
L 521.451199 -44.727273 
L 520.135445 -44.727273 
L 518.819692 -44.727273 
L 517.503938 -44.727273 
L 513.556678 -44.727273 
L 512.240925 -44.727273 
L 510.925171 -44.727273 
L 509.609418 -44.727273 
L 508.293664 -44.727273 
L 504.346404 -44.727273 
L 503.030651 -44.727273 
L 501.714897 -44.727273 
L 500.399144 -44.727273 
L 499.08339 -44.727273 
L 495.13613 -44.727273 
L 493.820377 -44.727273 
L 492.504623 -44.727273 
L 491.18887 -44.727273 
L 489.873116 -44.727273 
L 485.925856 -44.727273 
L 484.610103 -44.727273 
L 483.294349 -44.727273 
L 481.978596 -44.727273 
L 480.662842 -44.727273 
L 476.715582 -44.727273 
L 475.399829 -44.727273 
L 474.084075 -44.727273 
L 472.768322 -44.727273 
L 471.452568 -44.727273 
L 467.505308 -44.727273 
L 466.189555 -44.727273 
L 464.873801 -44.727273 
L 463.558048 -44.727273 
L 458.295034 -44.727273 
L 456.979281 -44.727273 
L 455.663527 -44.727273 
L 454.347774 -44.727273 
L 453.032021 -44.727273 
L 449.08476 -44.727273 
L 447.769007 -44.727273 
L 446.453253 -44.727273 
L 445.1375 -44.727273 
L 443.821747 -44.727273 
L 439.874486 -44.727273 
L 438.558733 -44.727273 
L 437.242979 -44.727273 
L 435.927226 -44.727273 
L 434.611473 -44.727273 
L 430.664212 -44.727273 
L 429.348459 -44.727273 
L 428.032705 -44.727273 
L 426.716952 -44.727273 
L 425.401199 -44.727273 
L 421.453938 -44.727273 
L 420.138185 -44.727273 
L 418.822432 -44.727273 
L 417.506678 -44.727273 
L 416.190925 -44.727273 
L 412.243664 -44.727273 
L 410.927911 -44.727273 
L 409.612158 -44.727273 
L 408.296404 -44.727273 
L 406.980651 -44.727273 
L 403.03339 -44.727273 
L 401.717637 -44.727273 
L 400.401884 -44.727273 
L 399.08613 -44.727273 
L 397.770377 -44.727273 
L 393.823116 -44.727273 
L 392.507363 -44.727273 
L 391.19161 -44.727273 
L 389.875856 -44.727273 
L 388.560103 -44.727273 
L 384.612842 -44.727273 
L 383.297089 -44.727273 
L 381.981336 -44.727273 
L 379.349829 -44.727273 
L 375.402568 -44.727273 
L 374.086815 -44.727273 
L 372.771062 -44.727273 
L 371.455308 -44.727273 
L 370.139555 -44.727273 
L 366.192295 -44.727273 
L 364.876541 -44.727273 
L 363.560788 -44.727273 
L 362.245034 -44.727273 
L 356.982021 -44.727273 
L 355.666267 -44.727273 
L 354.350514 -44.727273 
L 353.03476 -44.727273 
L 351.719007 -44.727273 
L 347.771747 -44.727273 
L 346.455993 -44.727273 
L 345.14024 -44.727273 
L 343.824486 -44.727273 
L 342.508733 -44.727273 
L 338.561473 -44.727273 
L 337.245719 -44.727273 
L 335.929966 -44.727273 
L 334.614212 -44.727273 
L 329.351199 -44.727273 
L 328.035445 -44.727273 
L 326.719692 -44.727273 
L 325.403938 -44.727273 
L 324.088185 -44.727273 
L 320.140925 -44.727273 
L 318.825171 -44.727273 
L 317.509418 -44.727273 
L 316.193664 -44.727273 
L 314.877911 -44.727273 
L 310.930651 -44.727273 
L 309.614897 -44.727273 
L 308.299144 -44.727273 
L 306.98339 -44.727273 
L 305.667637 -44.727273 
L 301.720377 -44.727273 
L 300.404623 -44.727273 
L 299.08887 -44.727273 
L 297.773116 -44.727273 
L 296.457363 -44.727273 
L 292.510103 -44.727273 
L 291.194349 -44.727273 
L 289.878596 -44.727273 
L 288.562842 -44.727273 
L 287.247089 -44.727273 
L 283.299829 -44.727273 
L 281.984075 -44.727273 
L 280.668322 -44.727273 
L 279.352568 -44.727273 
L 278.036815 -44.727273 
L 274.089555 -44.727273 
L 272.773801 -44.727273 
L 271.458048 -44.727273 
L 270.142295 -44.727273 
L 268.826541 -44.727273 
L 263.563527 -44.727273 
L 262.247774 -44.727273 
L 260.932021 -44.727273 
L 259.616267 -44.727273 
L 255.669007 -44.727273 
L 254.353253 -44.727273 
L 253.0375 -44.727273 
L 251.721747 -44.727273 
L 250.405993 -44.727273 
L 246.458733 -44.727273 
L 245.142979 -44.727273 
L 243.827226 -44.727273 
L 242.511473 -44.727273 
L 241.195719 -44.727273 
L 237.248459 -44.727273 
L 235.932705 -44.727273 
L 234.616952 -44.727273 
L 233.301199 -44.727273 
L 231.985445 -44.727273 
L 228.038185 -44.727273 
L 226.722432 -44.727273 
L 225.406678 -44.727273 
L 224.090925 -44.727273 
L 222.775171 -44.727273 
L 218.827911 -44.727273 
L 217.512158 -44.727273 
L 216.196404 -44.727273 
L 214.880651 -44.727273 
L 213.564897 -44.727273 
L 209.617637 -44.727273 
L 208.301884 -44.727273 
L 206.98613 -44.727273 
L 205.670377 -44.727273 
L 200.407363 -44.727273 
L 199.09161 -44.727273 
L 197.775856 -44.727273 
L 196.460103 -44.727273 
L 195.144349 -44.727273 
L 191.197089 -44.727273 
L 189.881336 -44.727273 
L 188.565582 -44.727273 
L 187.249829 -44.727273 
L 185.934075 -44.727273 
L 181.986815 -44.727273 
L 180.671062 -44.727273 
L 179.355308 -44.727273 
L 178.039555 -44.727273 
L 176.723801 -44.727273 
L 172.776541 -44.727273 
L 171.460788 -44.727273 
L 170.145034 -44.727273 
L 168.829281 -44.727273 
L 167.513527 -44.727273 
L 163.566267 -44.727273 
L 162.250514 -44.727273 
L 160.93476 -44.727273 
L 159.619007 -44.727273 
L 154.355993 -44.727273 
L 153.04024 -44.727273 
L 151.724486 -44.727273 
L 150.408733 -44.727273 
L 149.092979 -44.727273 
L 145.145719 -44.727273 
L 143.829966 -44.727273 
L 142.514212 -44.727273 
L 141.198459 -44.727273 
L 135.935445 -44.727273 
L 134.619692 -44.727273 
L 133.303938 -44.727273 
L 131.988185 -44.727273 
L 126.725171 -44.727273 
L 125.409418 -44.727273 
L 124.093664 -44.727273 
L 122.777911 -44.727273 
L 121.462158 -44.727273 
L 117.514897 -44.727273 
L 116.199144 -44.727273 
L 114.88339 -44.727273 
L 113.567637 -44.727273 
L 112.251884 -44.727273 
L 108.304623 -44.727273 
L 106.98887 -44.727273 
L 105.673116 -44.727273 
L 104.357363 -44.727273 
L 103.04161 -44.727273 
L 99.094349 -44.727273 
L 97.778596 -44.727273 
L 96.462842 -44.727273 
L 95.147089 -44.727273 
L 93.831336 -44.727273 
L 89.884075 -44.727273 
L 87.252568 -44.727273 
L 85.936815 -44.727273 
L 84.621062 -44.727273 
L 80.673801 -44.727273 
L 79.358048 -44.727273 
L 78.042295 -44.727273 
L 76.726541 -44.727273 
L 75.410788 -44.727273 
L 71.463527 -44.727273 
L 70.147774 -44.727273 
L 68.832021 -44.727273 
L 67.516267 -44.727273 
L 66.200514 -44.727273 
L 62.253253 -44.727273 
L 60.9375 -44.727273 
z
" id="m22e9ee2a01" style="stroke:#f5d128;"/>
    </defs>
    <g clip-path="url(#p5e44caf186)">
     <use style="fill:#f5d128;stroke:#f5d128;" x="0" xlink:href="#m22e9ee2a01" y="432"/>
    </g>
   </g>
   <g id="matplotlib.axis_1">
    <g id="xtick_1">
     <g id="line2d_1">
      <defs>
       <path d="M 0 0 
L 0 3.5 
" id="m4842155d11" style="stroke:#000000;stroke-width:0.8;"/>
      </defs>
      <g>
       <use style="stroke:#000000;stroke-width:0.8;" x="58.305993" xlink:href="#m4842155d11" y="404.2"/>
      </g>
     </g>
     <g id="text_1">
      <!-- 2022-11 -->
      <defs>
       <path d="M 19.1875 8.296875 
L 53.609375 8.296875 
L 53.609375 0 
L 7.328125 0 
L 7.328125 8.296875 
Q 12.9375 14.109375 22.625 23.890625 
Q 32.328125 33.6875 34.8125 36.53125 
Q 39.546875 41.84375 41.421875 45.53125 
Q 43.3125 49.21875 43.3125 52.78125 
Q 43.3125 58.59375 39.234375 62.25 
Q 35.15625 65.921875 28.609375 65.921875 
Q 23.96875 65.921875 18.8125 64.3125 
Q 13.671875 62.703125 7.8125 59.421875 
L 7.8125 69.390625 
Q 13.765625 71.78125 18.9375 73 
Q 24.125 74.21875 28.421875 74.21875 
Q 39.75 74.21875 46.484375 68.546875 
Q 53.21875 62.890625 53.21875 53.421875 
Q 53.21875 48.921875 51.53125 44.890625 
Q 49.859375 40.875 45.40625 35.40625 
Q 44.1875 33.984375 37.640625 27.21875 
Q 31.109375 20.453125 19.1875 8.296875 
z
" id="DejaVuSans-50"/>
       <path d="M 31.78125 66.40625 
Q 24.171875 66.40625 20.328125 58.90625 
Q 16.5 51.421875 16.5 36.375 
Q 16.5 21.390625 20.328125 13.890625 
Q 24.171875 6.390625 31.78125 6.390625 
Q 39.453125 6.390625 43.28125 13.890625 
Q 47.125 21.390625 47.125 36.375 
Q 47.125 51.421875 43.28125 58.90625 
Q 39.453125 66.40625 31.78125 66.40625 
z
M 31.78125 74.21875 
Q 44.046875 74.21875 50.515625 64.515625 
Q 56.984375 54.828125 56.984375 36.375 
Q 56.984375 17.96875 50.515625 8.265625 
Q 44.046875 -1.421875 31.78125 -1.421875 
Q 19.53125 -1.421875 13.0625 8.265625 
Q 6.59375 17.96875 6.59375 36.375 
Q 6.59375 54.828125 13.0625 64.515625 
Q 19.53125 74.21875 31.78125 74.21875 
z
" id="DejaVuSans-48"/>
       <path d="M 4.890625 31.390625 
L 31.203125 31.390625 
L 31.203125 23.390625 
L 4.890625 23.390625 
z
" id="DejaVuSans-45"/>
       <path d="M 12.40625 8.296875 
L 28.515625 8.296875 
L 28.515625 63.921875 
L 10.984375 60.40625 
L 10.984375 69.390625 
L 28.421875 72.90625 
L 38.28125 72.90625 
L 38.28125 8.296875 
L 54.390625 8.296875 
L 54.390625 0 
L 12.40625 0 
z
" id="DejaVuSans-49"/>
      </defs>
      <g transform="translate(37.414587 418.798437)scale(0.1 -0.1)">
       <use xlink:href="#DejaVuSans-50"/>
       <use x="63.623047" xlink:href="#DejaVuSans-48"/>
       <use x="127.246094" xlink:href="#DejaVuSans-50"/>
       <use x="190.869141" xlink:href="#DejaVuSans-50"/>
       <use x="254.492188" xlink:href="#DejaVuSans-45"/>
       <use x="290.576172" xlink:href="#DejaVuSans-49"/>
       <use x="354.199219" xlink:href="#DejaVuSans-49"/>
      </g>
     </g>
    </g>
    <g id="xtick_2">
     <g id="line2d_2">
      <g>
       <use style="stroke:#000000;stroke-width:0.8;" x="138.566952" xlink:href="#m4842155d11" y="404.2"/>
      </g>
     </g>
     <g id="text_2">
      <!-- 2023-01 -->
      <defs>
       <path d="M 40.578125 39.3125 
Q 47.65625 37.796875 51.625 33 
Q 55.609375 28.21875 55.609375 21.1875 
Q 55.609375 10.40625 48.1875 4.484375 
Q 40.765625 -1.421875 27.09375 -1.421875 
Q 22.515625 -1.421875 17.65625 -0.515625 
Q 12.796875 0.390625 7.625 2.203125 
L 7.625 11.71875 
Q 11.71875 9.328125 16.59375 8.109375 
Q 21.484375 6.890625 26.8125 6.890625 
Q 36.078125 6.890625 40.9375 10.546875 
Q 45.796875 14.203125 45.796875 21.1875 
Q 45.796875 27.640625 41.28125 31.265625 
Q 36.765625 34.90625 28.71875 34.90625 
L 20.21875 34.90625 
L 20.21875 43.015625 
L 29.109375 43.015625 
Q 36.375 43.015625 40.234375 45.921875 
Q 44.09375 48.828125 44.09375 54.296875 
Q 44.09375 59.90625 40.109375 62.90625 
Q 36.140625 65.921875 28.71875 65.921875 
Q 24.65625 65.921875 20.015625 65.03125 
Q 15.375 64.15625 9.8125 62.3125 
L 9.8125 71.09375 
Q 15.4375 72.65625 20.34375 73.4375 
Q 25.25 74.21875 29.59375 74.21875 
Q 40.828125 74.21875 47.359375 69.109375 
Q 53.90625 64.015625 53.90625 55.328125 
Q 53.90625 49.265625 50.4375 45.09375 
Q 46.96875 40.921875 40.578125 39.3125 
z
" id="DejaVuSans-51"/>
      </defs>
      <g transform="translate(117.675546 418.798437)scale(0.1 -0.1)">
       <use xlink:href="#DejaVuSans-50"/>
       <use x="63.623047" xlink:href="#DejaVuSans-48"/>
       <use x="127.246094" xlink:href="#DejaVuSans-50"/>
       <use x="190.869141" xlink:href="#DejaVuSans-51"/>
       <use x="254.492188" xlink:href="#DejaVuSans-45"/>
       <use x="290.576172" xlink:href="#DejaVuSans-48"/>
       <use x="354.199219" xlink:href="#DejaVuSans-49"/>
      </g>
     </g>
    </g>
    <g id="xtick_3">
     <g id="line2d_3">
      <g>
       <use style="stroke:#000000;stroke-width:0.8;" x="216.196404" xlink:href="#m4842155d11" y="404.2"/>
      </g>
     </g>
     <g id="text_3">
      <!-- 2023-03 -->
      <g transform="translate(195.304998 418.798437)scale(0.1 -0.1)">
       <use xlink:href="#DejaVuSans-50"/>
       <use x="63.623047" xlink:href="#DejaVuSans-48"/>
       <use x="127.246094" xlink:href="#DejaVuSans-50"/>
       <use x="190.869141" xlink:href="#DejaVuSans-51"/>
       <use x="254.492188" xlink:href="#DejaVuSans-45"/>
       <use x="290.576172" xlink:href="#DejaVuSans-48"/>
       <use x="354.199219" xlink:href="#DejaVuSans-51"/>
      </g>
     </g>
    </g>
    <g id="xtick_4">
     <g id="line2d_4">
      <g>
       <use style="stroke:#000000;stroke-width:0.8;" x="296.457363" xlink:href="#m4842155d11" y="404.2"/>
      </g>
     </g>
     <g id="text_4">
      <!-- 2023-05 -->
      <defs>
       <path d="M 10.796875 72.90625 
L 49.515625 72.90625 
L 49.515625 64.59375 
L 19.828125 64.59375 
L 19.828125 46.734375 
Q 21.96875 47.46875 24.109375 47.828125 
Q 26.265625 48.1875 28.421875 48.1875 
Q 40.625 48.1875 47.75 41.5 
Q 54.890625 34.8125 54.890625 23.390625 
Q 54.890625 11.625 47.5625 5.09375 
Q 40.234375 -1.421875 26.90625 -1.421875 
Q 22.3125 -1.421875 17.546875 -0.640625 
Q 12.796875 0.140625 7.71875 1.703125 
L 7.71875 11.625 
Q 12.109375 9.234375 16.796875 8.0625 
Q 21.484375 6.890625 26.703125 6.890625 
Q 35.15625 6.890625 40.078125 11.328125 
Q 45.015625 15.765625 45.015625 23.390625 
Q 45.015625 31 40.078125 35.4375 
Q 35.15625 39.890625 26.703125 39.890625 
Q 22.75 39.890625 18.8125 39.015625 
Q 14.890625 38.140625 10.796875 36.28125 
z
" id="DejaVuSans-53"/>
      </defs>
      <g transform="translate(275.565957 418.798437)scale(0.1 -0.1)">
       <use xlink:href="#DejaVuSans-50"/>
       <use x="63.623047" xlink:href="#DejaVuSans-48"/>
       <use x="127.246094" xlink:href="#DejaVuSans-50"/>
       <use x="190.869141" xlink:href="#DejaVuSans-51"/>
       <use x="254.492188" xlink:href="#DejaVuSans-45"/>
       <use x="290.576172" xlink:href="#DejaVuSans-48"/>
       <use x="354.199219" xlink:href="#DejaVuSans-53"/>
      </g>
     </g>
    </g>
    <g id="xtick_5">
     <g id="line2d_5">
      <g>
       <use style="stroke:#000000;stroke-width:0.8;" x="376.718322" xlink:href="#m4842155d11" y="404.2"/>
      </g>
     </g>
     <g id="text_5">
      <!-- 2023-07 -->
      <defs>
       <path d="M 8.203125 72.90625 
L 55.078125 72.90625 
L 55.078125 68.703125 
L 28.609375 0 
L 18.3125 0 
L 43.21875 64.59375 
L 8.203125 64.59375 
z
" id="DejaVuSans-55"/>
      </defs>
      <g transform="translate(355.826916 418.798437)scale(0.1 -0.1)">
       <use xlink:href="#DejaVuSans-50"/>
       <use x="63.623047" xlink:href="#DejaVuSans-48"/>
       <use x="127.246094" xlink:href="#DejaVuSans-50"/>
       <use x="190.869141" xlink:href="#DejaVuSans-51"/>
       <use x="254.492188" xlink:href="#DejaVuSans-45"/>
       <use x="290.576172" xlink:href="#DejaVuSans-48"/>
       <use x="354.199219" xlink:href="#DejaVuSans-55"/>
      </g>
     </g>
    </g>
    <g id="xtick_6">
     <g id="line2d_6">
      <g>
       <use style="stroke:#000000;stroke-width:0.8;" x="458.295034" xlink:href="#m4842155d11" y="404.2"/>
      </g>
     </g>
     <g id="text_6">
      <!-- 2023-09 -->
      <defs>
       <path d="M 10.984375 1.515625 
L 10.984375 10.5 
Q 14.703125 8.734375 18.5 7.8125 
Q 22.3125 6.890625 25.984375 6.890625 
Q 35.75 6.890625 40.890625 13.453125 
Q 46.046875 20.015625 46.78125 33.40625 
Q 43.953125 29.203125 39.59375 26.953125 
Q 35.25 24.703125 29.984375 24.703125 
Q 19.046875 24.703125 12.671875 31.3125 
Q 6.296875 37.9375 6.296875 49.421875 
Q 6.296875 60.640625 12.9375 67.421875 
Q 19.578125 74.21875 30.609375 74.21875 
Q 43.265625 74.21875 49.921875 64.515625 
Q 56.59375 54.828125 56.59375 36.375 
Q 56.59375 19.140625 48.40625 8.859375 
Q 40.234375 -1.421875 26.421875 -1.421875 
Q 22.703125 -1.421875 18.890625 -0.6875 
Q 15.09375 0.046875 10.984375 1.515625 
z
M 30.609375 32.421875 
Q 37.25 32.421875 41.125 36.953125 
Q 45.015625 41.5 45.015625 49.421875 
Q 45.015625 57.28125 41.125 61.84375 
Q 37.25 66.40625 30.609375 66.40625 
Q 23.96875 66.40625 20.09375 61.84375 
Q 16.21875 57.28125 16.21875 49.421875 
Q 16.21875 41.5 20.09375 36.953125 
Q 23.96875 32.421875 30.609375 32.421875 
z
" id="DejaVuSans-57"/>
      </defs>
      <g transform="translate(437.403628 418.798437)scale(0.1 -0.1)">
       <use xlink:href="#DejaVuSans-50"/>
       <use x="63.623047" xlink:href="#DejaVuSans-48"/>
       <use x="127.246094" xlink:href="#DejaVuSans-50"/>
       <use x="190.869141" xlink:href="#DejaVuSans-51"/>
       <use x="254.492188" xlink:href="#DejaVuSans-45"/>
       <use x="290.576172" xlink:href="#DejaVuSans-48"/>
       <use x="354.199219" xlink:href="#DejaVuSans-57"/>
      </g>
     </g>
    </g>
    <g id="xtick_7">
     <g id="line2d_7">
      <g>
       <use style="stroke:#000000;stroke-width:0.8;" x="538.555993" xlink:href="#m4842155d11" y="404.2"/>
      </g>
     </g>
     <g id="text_7">
      <!-- 2023-11 -->
      <g transform="translate(517.664587 418.798437)scale(0.1 -0.1)">
       <use xlink:href="#DejaVuSans-50"/>
       <use x="63.623047" xlink:href="#DejaVuSans-48"/>
       <use x="127.246094" xlink:href="#DejaVuSans-50"/>
       <use x="190.869141" xlink:href="#DejaVuSans-51"/>
       <use x="254.492188" xlink:href="#DejaVuSans-45"/>
       <use x="290.576172" xlink:href="#DejaVuSans-49"/>
       <use x="354.199219" xlink:href="#DejaVuSans-49"/>
      </g>
     </g>
    </g>
   </g>
   <g id="matplotlib.axis_2">
    <g id="ytick_1">
     <g id="line2d_8">
      <defs>
       <path d="M 0 0 
L -3.5 0 
" id="m1feb90ae90" style="stroke:#000000;stroke-width:0.8;"/>
      </defs>
      <g>
       <use style="stroke:#000000;stroke-width:0.8;" x="36.925" xlink:href="#m1feb90ae90" y="387.272727"/>
      </g>
     </g>
     <g id="text_8">
      <!-- 0 -->
      <g transform="translate(23.5625 391.071946)scale(0.1 -0.1)">
       <use xlink:href="#DejaVuSans-48"/>
      </g>
     </g>
    </g>
    <g id="ytick_2">
     <g id="line2d_9">
      <g>
       <use style="stroke:#000000;stroke-width:0.8;" x="36.925" xlink:href="#m1feb90ae90" y="305.994415"/>
      </g>
     </g>
     <g id="text_9">
      <!-- 100 -->
      <g transform="translate(10.8375 309.793633)scale(0.1 -0.1)">
       <use xlink:href="#DejaVuSans-49"/>
       <use x="63.623047" xlink:href="#DejaVuSans-48"/>
       <use x="127.246094" xlink:href="#DejaVuSans-48"/>
      </g>
     </g>
    </g>
    <g id="ytick_3">
     <g id="line2d_10">
      <g>
       <use style="stroke:#000000;stroke-width:0.8;" x="36.925" xlink:href="#m1feb90ae90" y="224.716102"/>
      </g>
     </g>
     <g id="text_10">
      <!-- 200 -->
      <g transform="translate(10.8375 228.515321)scale(0.1 -0.1)">
       <use xlink:href="#DejaVuSans-50"/>
       <use x="63.623047" xlink:href="#DejaVuSans-48"/>
       <use x="127.246094" xlink:href="#DejaVuSans-48"/>
      </g>
     </g>
    </g>
    <g id="ytick_4">
     <g id="line2d_11">
      <g>
       <use style="stroke:#000000;stroke-width:0.8;" x="36.925" xlink:href="#m1feb90ae90" y="143.437789"/>
      </g>
     </g>
     <g id="text_11">
      <!-- 300 -->
      <g transform="translate(10.8375 147.237008)scale(0.1 -0.1)">
       <use xlink:href="#DejaVuSans-51"/>
       <use x="63.623047" xlink:href="#DejaVuSans-48"/>
       <use x="127.246094" xlink:href="#DejaVuSans-48"/>
      </g>
     </g>
    </g>
    <g id="ytick_5">
     <g id="line2d_12">
      <g>
       <use style="stroke:#000000;stroke-width:0.8;" x="36.925" xlink:href="#m1feb90ae90" y="62.159476"/>
      </g>
     </g>
     <g id="text_12">
      <!-- 400 -->
      <defs>
       <path d="M 37.796875 64.3125 
L 12.890625 25.390625 
L 37.796875 25.390625 
z
M 35.203125 72.90625 
L 47.609375 72.90625 
L 47.609375 25.390625 
L 58.015625 25.390625 
L 58.015625 17.1875 
L 47.609375 17.1875 
L 47.609375 0 
L 37.796875 0 
L 37.796875 17.1875 
L 4.890625 17.1875 
L 4.890625 26.703125 
z
" id="DejaVuSans-52"/>
      </defs>
      <g transform="translate(10.8375 65.958695)scale(0.1 -0.1)">
       <use xlink:href="#DejaVuSans-52"/>
       <use x="63.623047" xlink:href="#DejaVuSans-48"/>
       <use x="127.246094" xlink:href="#DejaVuSans-48"/>
      </g>
     </g>
    </g>
   </g>
   <g id="patch_3">
    <path d="M 36.925 404.2 
L 36.925 31.8 
" style="fill:none;stroke:#000000;stroke-linecap:square;stroke-linejoin:miter;stroke-width:0.8;"/>
   </g>
   <g id="patch_4">
    <path d="M 565.2 404.2 
L 565.2 31.8 
" style="fill:none;stroke:#000000;stroke-linecap:square;stroke-linejoin:miter;stroke-width:0.8;"/>
   </g>
   <g id="patch_5">
    <path d="M 36.925 404.2 
L 565.2 404.2 
" style="fill:none;stroke:#000000;stroke-linecap:square;stroke-linejoin:miter;stroke-width:0.8;"/>
   </g>
   <g id="patch_6">
    <path d="M 36.925 31.8 
L 565.2 31.8 
" style="fill:none;stroke:#000000;stroke-linecap:square;stroke-linejoin:miter;stroke-width:0.8;"/>
   </g>
   <g id="text_13">
    <!-- MA - 25% -->
    <defs>
     <path d="M 9.1875 72.90625 
L 33.109375 72.90625 
L 49.703125 33.890625 
L 66.40625 72.90625 
L 90.28125 72.90625 
L 90.28125 0 
L 72.515625 0 
L 72.515625 53.328125 
L 55.71875 14.015625 
L 43.796875 14.015625 
L 27 53.328125 
L 27 0 
L 9.1875 0 
z
" id="DejaVuSans-Bold-77"/>
     <path d="M 53.421875 13.28125 
L 24.03125 13.28125 
L 19.390625 0 
L 0.484375 0 
L 27.484375 72.90625 
L 49.90625 72.90625 
L 76.90625 0 
L 58.015625 0 
z
M 28.71875 26.8125 
L 48.6875 26.8125 
L 38.71875 55.8125 
z
" id="DejaVuSans-Bold-65"/>
     <path id="DejaVuSans-Bold-32"/>
     <path d="M 5.421875 35.890625 
L 36.078125 35.890625 
L 36.078125 21.6875 
L 5.421875 21.6875 
z
" id="DejaVuSans-Bold-45"/>
     <path d="M 28.8125 13.8125 
L 60.890625 13.8125 
L 60.890625 0 
L 7.90625 0 
L 7.90625 13.8125 
L 34.515625 37.3125 
Q 38.09375 40.53125 39.796875 43.609375 
Q 41.5 46.6875 41.5 50 
Q 41.5 55.125 38.0625 58.25 
Q 34.625 61.375 28.90625 61.375 
Q 24.515625 61.375 19.28125 59.5 
Q 14.0625 57.625 8.109375 53.90625 
L 8.109375 69.921875 
Q 14.453125 72.015625 20.65625 73.109375 
Q 26.859375 74.21875 32.8125 74.21875 
Q 45.90625 74.21875 53.15625 68.453125 
Q 60.40625 62.703125 60.40625 52.390625 
Q 60.40625 46.4375 57.328125 41.28125 
Q 54.25 36.140625 44.390625 27.484375 
z
" id="DejaVuSans-Bold-50"/>
     <path d="M 10.59375 72.90625 
L 57.328125 72.90625 
L 57.328125 59.078125 
L 25.59375 59.078125 
L 25.59375 47.796875 
Q 27.734375 48.390625 29.90625 48.703125 
Q 32.078125 49.03125 34.421875 49.03125 
Q 47.75 49.03125 55.171875 42.359375 
Q 62.59375 35.6875 62.59375 23.78125 
Q 62.59375 11.96875 54.515625 5.265625 
Q 46.4375 -1.421875 32.078125 -1.421875 
Q 25.875 -1.421875 19.796875 -0.21875 
Q 13.71875 0.984375 7.71875 3.421875 
L 7.71875 18.21875 
Q 13.671875 14.796875 19.015625 13.078125 
Q 24.359375 11.375 29.109375 11.375 
Q 35.9375 11.375 39.859375 14.71875 
Q 43.796875 18.0625 43.796875 23.78125 
Q 43.796875 29.546875 39.859375 32.859375 
Q 35.9375 36.1875 29.109375 36.1875 
Q 25.046875 36.1875 20.453125 35.125 
Q 15.875 34.078125 10.59375 31.890625 
z
" id="DejaVuSans-Bold-53"/>
     <path d="M 77.484375 30.078125 
Q 74.03125 30.078125 72.125 27.078125 
Q 70.21875 24.078125 70.21875 18.5 
Q 70.21875 12.890625 72.09375 9.890625 
Q 73.96875 6.890625 77.484375 6.890625 
Q 81 6.890625 82.859375 9.890625 
Q 84.71875 12.890625 84.71875 18.5 
Q 84.71875 24.078125 82.828125 27.078125 
Q 80.953125 30.078125 77.484375 30.078125 
z
M 77.484375 38.28125 
Q 86.578125 38.28125 91.796875 33 
Q 97.015625 27.734375 97.015625 18.5 
Q 97.015625 9.28125 91.796875 3.921875 
Q 86.578125 -1.421875 77.484375 -1.421875 
Q 68.40625 -1.421875 63.15625 3.921875 
Q 57.90625 9.28125 57.90625 18.5 
Q 57.90625 27.6875 63.15625 32.984375 
Q 68.40625 38.28125 77.484375 38.28125 
z
M 32.71875 -1.421875 
L 21.921875 -1.421875 
L 67.484375 74.21875 
L 78.328125 74.21875 
z
M 22.703125 74.21875 
Q 31.78125 74.21875 36.984375 68.921875 
Q 42.1875 63.625 42.1875 54.390625 
Q 42.1875 45.171875 36.984375 39.84375 
Q 31.78125 34.515625 22.703125 34.515625 
Q 13.625 34.515625 8.421875 39.84375 
Q 3.21875 45.171875 3.21875 54.390625 
Q 3.21875 63.625 8.421875 68.921875 
Q 13.625 74.21875 22.703125 74.21875 
z
M 22.703125 66.015625 
Q 19.1875 66.015625 17.28125 62.984375 
Q 15.375 59.96875 15.375 54.390625 
Q 15.375 48.78125 17.28125 45.71875 
Q 19.1875 42.671875 22.703125 42.671875 
Q 26.21875 42.671875 28.09375 45.71875 
Q 29.984375 48.78125 29.984375 54.390625 
Q 29.984375 59.96875 28.078125 62.984375 
Q 26.171875 66.015625 22.703125 66.015625 
z
" id="DejaVuSans-Bold-37"/>
    </defs>
    <g transform="translate(36.925 25.8)scale(0.2 -0.2)">
     <use xlink:href="#DejaVuSans-Bold-77"/>
     <use x="99.511719" xlink:href="#DejaVuSans-Bold-65"/>
     <use x="176.904297" xlink:href="#DejaVuSans-Bold-32"/>
     <use x="211.71875" xlink:href="#DejaVuSans-Bold-45"/>
     <use x="253.222656" xlink:href="#DejaVuSans-Bold-32"/>
     <use x="288.037109" xlink:href="#DejaVuSans-Bold-50"/>
     <use x="357.617188" xlink:href="#DejaVuSans-Bold-53"/>
     <use x="427.197266" xlink:href="#DejaVuSans-Bold-37"/>
    </g>
   </g>
  </g>
 </g>
 <defs>
  <clipPath id="p5e44caf186">
   <rect height="372.4" width="528.275" x="36.925" y="31.8"/>
  </clipPath>
 </defs>
</svg>
