<?xml version="1.0" encoding="utf-8" standalone="no"?>
<!DOCTYPE svg PUBLIC "-//W3C//DTD SVG 1.1//EN"
  "http://www.w3.org/Graphics/SVG/1.1/DTD/svg11.dtd">
<!-- Created with matplotlib (https://matplotlib.org/) -->
<svg height="432pt" version="1.1" viewBox="0 0 864 432" width="864pt" xmlns="http://www.w3.org/2000/svg" xmlns:xlink="http://www.w3.org/1999/xlink">
 <defs>
  <style type="text/css">
*{stroke-linecap:butt;stroke-linejoin:round;}
  </style>
 </defs>
 <g id="figure_1">
  <g id="patch_1">
   <path d="M 0 432 
L 864 432 
L 864 0 
L 0 0 
z
" style="fill:none;"/>
  </g>
  <g id="axes_1">
   <g id="patch_2">
    <path d="M 75.175 385.2 
L 840.323864 385.2 
L 840.323864 88.8 
L 75.175 88.8 
z
" style="fill:none;"/>
   </g>
   <g id="PolyCollection_1">
    <path clip-path="url(#pe477e40ed6)" d="M 109.954494 2437.662562 
L 109.954494 261.609249 
L 113.755531 233.382415 
L 117.556569 269.649818 
L 128.959682 275.49774 
L 132.760719 336.112293 
L 136.561757 365.632412 
L 140.362794 356.972994 
L 144.163832 332.626188 
L 159.367982 371.255235 
L 163.16902 385.2 
L 166.970057 352.249878 
L 170.771095 336.22467 
L 182.174208 354.274218 
L 185.975245 301.194278 
L 189.776283 349.382106 
L 193.57732 370.749279 
L 197.378358 361.583904 
L 208.781471 327.340497 
L 212.582508 349.438553 
L 216.383546 330.433024 
L 220.184583 306.367247 
L 223.985621 320.480664 
L 239.189771 331.220525 
L 242.990809 322.673656 
L 246.791846 313.339629 
L 250.592884 302.03771 
L 261.995997 315.476175 
L 265.797034 290.904442 
L 269.598072 299.676066 
L 273.399109 257.84177 
L 277.200147 226.185106 
L 288.60326 222.474074 
L 296.205335 218.144193 
L 300.006372 223.887825 
L 303.80741 249.00217 
L 315.210523 229.406359 
L 319.01156 197.64747 
L 322.812598 181.373759 
L 326.613636 182.105846 
L 330.414673 171.125226 
L 341.817786 172.870946 
L 345.618823 195.620205 
L 349.419861 195.000839 
L 353.220899 196.183296 
L 357.021936 199.393018 
L 368.425049 158.28668 
L 372.226086 178.051487 
L 376.027124 171.688489 
L 379.828162 216.229821 
L 383.629199 224.90163 
L 395.032312 217.468552 
L 398.833349 201.757932 
L 402.634387 241.456715 
L 406.435425 224.619912 
L 410.236462 233.967362 
L 421.639575 202.884286 
L 425.440612 223.606279 
L 429.24165 220.903373 
L 433.042688 201.363837 
L 436.843725 213.526742 
L 448.246838 193.255291 
L 452.047875 216.511194 
L 455.848913 216.961736 
L 459.649951 226.816002 
L 463.450988 229.349912 
L 474.854101 223.550005 
L 478.655138 197.422199 
L 482.456176 179.290391 
L 486.257214 198.379385 
L 490.058251 168.985583 
L 501.461364 143.364422 
L 505.262401 119.657977 
L 509.063439 106.931809 
L 512.864477 114.083169 
L 516.665514 97.584359 
L 531.869665 120.502614 
L 535.670702 111.042614 
L 539.47174 102.933896 
L 543.272777 101.694993 
L 554.67589 91.277635 
L 558.476928 93.642721 
L 562.277965 93.473897 
L 566.079003 110.141531 
L 569.88004 104.679444 
L 581.283153 88.8 
L 585.084191 109.071624 
L 588.885228 126.020975 
L 592.686266 166.339124 
L 596.487303 172.758396 
L 607.890416 171.238119 
L 611.691454 211.274378 
L 615.492491 210.711287 
L 619.293529 188.41257 
L 623.094566 208.289926 
L 634.497679 208.627919 
L 638.298717 235.600361 
L 642.099754 220.396557 
L 645.900792 214.701111 
L 649.701829 193.441496 
L 661.104942 211.656082 
L 664.90598 179.907519 
L 668.707017 183.065442 
L 672.508055 182.557937 
L 676.309092 193.10316 
L 687.712205 175.452526 
L 691.513243 172.012714 
L 695.31428 220.284008 
L 699.115318 250.397162 
L 702.916355 269.908647 
L 714.319468 274.081579 
L 718.120506 255.810719 
L 721.921543 259.194256 
L 725.722581 381.677067 
L 729.523618 384.553099 
L 740.926731 337.522258 
L 744.727769 315.360355 
L 748.528806 307.070767 
L 752.329844 279.608029 
L 756.130881 260.660496 
L 767.533994 260.040097 
L 771.335032 244.757991 
L 775.136069 240.077382 
L 778.937107 249.889658 
L 782.738144 213.686101 
L 794.141257 213.85527 
L 797.942295 195.246073 
L 801.743332 199.870234 
L 805.54437 198.347548 
L 805.54437 2437.662562 
L 805.54437 2437.662562 
L 801.743332 2437.662562 
L 797.942295 2437.662562 
L 794.141257 2437.662562 
L 782.738144 2437.662562 
L 778.937107 2437.662562 
L 775.136069 2437.662562 
L 771.335032 2437.662562 
L 767.533994 2437.662562 
L 756.130881 2437.662562 
L 752.329844 2437.662562 
L 748.528806 2437.662562 
L 744.727769 2437.662562 
L 740.926731 2437.662562 
L 729.523618 2437.662562 
L 725.722581 2437.662562 
L 721.921543 2437.662562 
L 718.120506 2437.662562 
L 714.319468 2437.662562 
L 702.916355 2437.662562 
L 699.115318 2437.662562 
L 695.31428 2437.662562 
L 691.513243 2437.662562 
L 687.712205 2437.662562 
L 676.309092 2437.662562 
L 672.508055 2437.662562 
L 668.707017 2437.662562 
L 664.90598 2437.662562 
L 661.104942 2437.662562 
L 649.701829 2437.662562 
L 645.900792 2437.662562 
L 642.099754 2437.662562 
L 638.298717 2437.662562 
L 634.497679 2437.662562 
L 623.094566 2437.662562 
L 619.293529 2437.662562 
L 615.492491 2437.662562 
L 611.691454 2437.662562 
L 607.890416 2437.662562 
L 596.487303 2437.662562 
L 592.686266 2437.662562 
L 588.885228 2437.662562 
L 585.084191 2437.662562 
L 581.283153 2437.662562 
L 569.88004 2437.662562 
L 566.079003 2437.662562 
L 562.277965 2437.662562 
L 558.476928 2437.662562 
L 554.67589 2437.662562 
L 543.272777 2437.662562 
L 539.47174 2437.662562 
L 535.670702 2437.662562 
L 531.869665 2437.662562 
L 516.665514 2437.662562 
L 512.864477 2437.662562 
L 509.063439 2437.662562 
L 505.262401 2437.662562 
L 501.461364 2437.662562 
L 490.058251 2437.662562 
L 486.257214 2437.662562 
L 482.456176 2437.662562 
L 478.655138 2437.662562 
L 474.854101 2437.662562 
L 463.450988 2437.662562 
L 459.649951 2437.662562 
L 455.848913 2437.662562 
L 452.047875 2437.662562 
L 448.246838 2437.662562 
L 436.843725 2437.662562 
L 433.042688 2437.662562 
L 429.24165 2437.662562 
L 425.440612 2437.662562 
L 421.639575 2437.662562 
L 410.236462 2437.662562 
L 406.435425 2437.662562 
L 402.634387 2437.662562 
L 398.833349 2437.662562 
L 395.032312 2437.662562 
L 383.629199 2437.662562 
L 379.828162 2437.662562 
L 376.027124 2437.662562 
L 372.226086 2437.662562 
L 368.425049 2437.662562 
L 357.021936 2437.662562 
L 353.220899 2437.662562 
L 349.419861 2437.662562 
L 345.618823 2437.662562 
L 341.817786 2437.662562 
L 330.414673 2437.662562 
L 326.613636 2437.662562 
L 322.812598 2437.662562 
L 319.01156 2437.662562 
L 315.210523 2437.662562 
L 303.80741 2437.662562 
L 300.006372 2437.662562 
L 296.205335 2437.662562 
L 288.60326 2437.662562 
L 277.200147 2437.662562 
L 273.399109 2437.662562 
L 269.598072 2437.662562 
L 265.797034 2437.662562 
L 261.995997 2437.662562 
L 250.592884 2437.662562 
L 246.791846 2437.662562 
L 242.990809 2437.662562 
L 239.189771 2437.662562 
L 223.985621 2437.662562 
L 220.184583 2437.662562 
L 216.383546 2437.662562 
L 212.582508 2437.662562 
L 208.781471 2437.662562 
L 197.378358 2437.662562 
L 193.57732 2437.662562 
L 189.776283 2437.662562 
L 185.975245 2437.662562 
L 182.174208 2437.662562 
L 170.771095 2437.662562 
L 166.970057 2437.662562 
L 163.16902 2437.662562 
L 159.367982 2437.662562 
L 144.163832 2437.662562 
L 140.362794 2437.662562 
L 136.561757 2437.662562 
L 132.760719 2437.662562 
L 128.959682 2437.662562 
L 117.556569 2437.662562 
L 113.755531 2437.662562 
L 109.954494 2437.662562 
z
" style="fill:#0000ff;fill-opacity:0.1;stroke:#0000ff;stroke-opacity:0.1;"/>
   </g>
   <g id="matplotlib.axis_1">
    <g id="xtick_1">
     <g id="line2d_1">
      <defs>
       <path d="M 0 0 
L 0 3.5 
" id="m2a7e5b78d5" style="stroke:#000000;stroke-width:0.8;"/>
      </defs>
      <g>
       <use style="stroke:#000000;stroke-width:0.8;" x="109.954494" xlink:href="#m2a7e5b78d5" y="385.2"/>
      </g>
     </g>
     <g id="text_1">
      <!-- 05/23 -->
      <defs>
       <path d="M 31.78125 66.40625 
Q 24.171875 66.40625 20.328125 58.90625 
Q 16.5 51.421875 16.5 36.375 
Q 16.5 21.390625 20.328125 13.890625 
Q 24.171875 6.390625 31.78125 6.390625 
Q 39.453125 6.390625 43.28125 13.890625 
Q 47.125 21.390625 47.125 36.375 
Q 47.125 51.421875 43.28125 58.90625 
Q 39.453125 66.40625 31.78125 66.40625 
z
M 31.78125 74.21875 
Q 44.046875 74.21875 50.515625 64.515625 
Q 56.984375 54.828125 56.984375 36.375 
Q 56.984375 17.96875 50.515625 8.265625 
Q 44.046875 -1.421875 31.78125 -1.421875 
Q 19.53125 -1.421875 13.0625 8.265625 
Q 6.59375 17.96875 6.59375 36.375 
Q 6.59375 54.828125 13.0625 64.515625 
Q 19.53125 74.21875 31.78125 74.21875 
z
" id="DejaVuSans-48"/>
       <path d="M 10.796875 72.90625 
L 49.515625 72.90625 
L 49.515625 64.59375 
L 19.828125 64.59375 
L 19.828125 46.734375 
Q 21.96875 47.46875 24.109375 47.828125 
Q 26.265625 48.1875 28.421875 48.1875 
Q 40.625 48.1875 47.75 41.5 
Q 54.890625 34.8125 54.890625 23.390625 
Q 54.890625 11.625 47.5625 5.09375 
Q 40.234375 -1.421875 26.90625 -1.421875 
Q 22.3125 -1.421875 17.546875 -0.640625 
Q 12.796875 0.140625 7.71875 1.703125 
L 7.71875 11.625 
Q 12.109375 9.234375 16.796875 8.0625 
Q 21.484375 6.890625 26.703125 6.890625 
Q 35.15625 6.890625 40.078125 11.328125 
Q 45.015625 15.765625 45.015625 23.390625 
Q 45.015625 31 40.078125 35.4375 
Q 35.15625 39.890625 26.703125 39.890625 
Q 22.75 39.890625 18.8125 39.015625 
Q 14.890625 38.140625 10.796875 36.28125 
z
" id="DejaVuSans-53"/>
       <path d="M 25.390625 72.90625 
L 33.6875 72.90625 
L 8.296875 -9.28125 
L 0 -9.28125 
z
" id="DejaVuSans-47"/>
       <path d="M 19.1875 8.296875 
L 53.609375 8.296875 
L 53.609375 0 
L 7.328125 0 
L 7.328125 8.296875 
Q 12.9375 14.109375 22.625 23.890625 
Q 32.328125 33.6875 34.8125 36.53125 
Q 39.546875 41.84375 41.421875 45.53125 
Q 43.3125 49.21875 43.3125 52.78125 
Q 43.3125 58.59375 39.234375 62.25 
Q 35.15625 65.921875 28.609375 65.921875 
Q 23.96875 65.921875 18.8125 64.3125 
Q 13.671875 62.703125 7.8125 59.421875 
L 7.8125 69.390625 
Q 13.765625 71.78125 18.9375 73 
Q 24.125 74.21875 28.421875 74.21875 
Q 39.75 74.21875 46.484375 68.546875 
Q 53.21875 62.890625 53.21875 53.421875 
Q 53.21875 48.921875 51.53125 44.890625 
Q 49.859375 40.875 45.40625 35.40625 
Q 44.1875 33.984375 37.640625 27.21875 
Q 31.109375 20.453125 19.1875 8.296875 
z
" id="DejaVuSans-50"/>
       <path d="M 40.578125 39.3125 
Q 47.65625 37.796875 51.625 33 
Q 55.609375 28.21875 55.609375 21.1875 
Q 55.609375 10.40625 48.1875 4.484375 
Q 40.765625 -1.421875 27.09375 -1.421875 
Q 22.515625 -1.421875 17.65625 -0.515625 
Q 12.796875 0.390625 7.625 2.203125 
L 7.625 11.71875 
Q 11.71875 9.328125 16.59375 8.109375 
Q 21.484375 6.890625 26.8125 6.890625 
Q 36.078125 6.890625 40.9375 10.546875 
Q 45.796875 14.203125 45.796875 21.1875 
Q 45.796875 27.640625 41.28125 31.265625 
Q 36.765625 34.90625 28.71875 34.90625 
L 20.21875 34.90625 
L 20.21875 43.015625 
L 29.109375 43.015625 
Q 36.375 43.015625 40.234375 45.921875 
Q 44.09375 48.828125 44.09375 54.296875 
Q 44.09375 59.90625 40.109375 62.90625 
Q 36.140625 65.921875 28.71875 65.921875 
Q 24.65625 65.921875 20.015625 65.03125 
Q 15.375 64.15625 9.8125 62.3125 
L 9.8125 71.09375 
Q 15.4375 72.65625 20.34375 73.4375 
Q 25.25 74.21875 29.59375 74.21875 
Q 40.828125 74.21875 47.359375 69.109375 
Q 53.90625 64.015625 53.90625 55.328125 
Q 53.90625 49.265625 50.4375 45.09375 
Q 46.96875 40.921875 40.578125 39.3125 
z
" id="DejaVuSans-51"/>
      </defs>
      <g transform="translate(66.726369 414.995312)scale(0.3 -0.3)">
       <use xlink:href="#DejaVuSans-48"/>
       <use x="63.623047" xlink:href="#DejaVuSans-53"/>
       <use x="127.246094" xlink:href="#DejaVuSans-47"/>
       <use x="160.9375" xlink:href="#DejaVuSans-50"/>
       <use x="224.560547" xlink:href="#DejaVuSans-51"/>
      </g>
     </g>
    </g>
    <g id="xtick_2">
     <g id="line2d_2">
      <g>
       <use style="stroke:#000000;stroke-width:0.8;" x="463.450988" xlink:href="#m2a7e5b78d5" y="385.2"/>
      </g>
     </g>
     <g id="text_2">
      <!-- 08/23 -->
      <defs>
       <path d="M 31.78125 34.625 
Q 24.75 34.625 20.71875 30.859375 
Q 16.703125 27.09375 16.703125 20.515625 
Q 16.703125 13.921875 20.71875 10.15625 
Q 24.75 6.390625 31.78125 6.390625 
Q 38.8125 6.390625 42.859375 10.171875 
Q 46.921875 13.96875 46.921875 20.515625 
Q 46.921875 27.09375 42.890625 30.859375 
Q 38.875 34.625 31.78125 34.625 
z
M 21.921875 38.8125 
Q 15.578125 40.375 12.03125 44.71875 
Q 8.5 49.078125 8.5 55.328125 
Q 8.5 64.0625 14.71875 69.140625 
Q 20.953125 74.21875 31.78125 74.21875 
Q 42.671875 74.21875 48.875 69.140625 
Q 55.078125 64.0625 55.078125 55.328125 
Q 55.078125 49.078125 51.53125 44.71875 
Q 48 40.375 41.703125 38.8125 
Q 48.828125 37.15625 52.796875 32.3125 
Q 56.78125 27.484375 56.78125 20.515625 
Q 56.78125 9.90625 50.3125 4.234375 
Q 43.84375 -1.421875 31.78125 -1.421875 
Q 19.734375 -1.421875 13.25 4.234375 
Q 6.78125 9.90625 6.78125 20.515625 
Q 6.78125 27.484375 10.78125 32.3125 
Q 14.796875 37.15625 21.921875 38.8125 
z
M 18.3125 54.390625 
Q 18.3125 48.734375 21.84375 45.5625 
Q 25.390625 42.390625 31.78125 42.390625 
Q 38.140625 42.390625 41.71875 45.5625 
Q 45.3125 48.734375 45.3125 54.390625 
Q 45.3125 60.0625 41.71875 63.234375 
Q 38.140625 66.40625 31.78125 66.40625 
Q 25.390625 66.40625 21.84375 63.234375 
Q 18.3125 60.0625 18.3125 54.390625 
z
" id="DejaVuSans-56"/>
      </defs>
      <g transform="translate(420.222863 414.995312)scale(0.3 -0.3)">
       <use xlink:href="#DejaVuSans-48"/>
       <use x="63.623047" xlink:href="#DejaVuSans-56"/>
       <use x="127.246094" xlink:href="#DejaVuSans-47"/>
       <use x="160.9375" xlink:href="#DejaVuSans-50"/>
       <use x="224.560547" xlink:href="#DejaVuSans-51"/>
      </g>
     </g>
    </g>
    <g id="xtick_3">
     <g id="line2d_3">
      <g>
       <use style="stroke:#000000;stroke-width:0.8;" x="805.54437" xlink:href="#m2a7e5b78d5" y="385.2"/>
      </g>
     </g>
     <g id="text_3">
      <!-- 11/23 -->
      <defs>
       <path d="M 12.40625 8.296875 
L 28.515625 8.296875 
L 28.515625 63.921875 
L 10.984375 60.40625 
L 10.984375 69.390625 
L 28.421875 72.90625 
L 38.28125 72.90625 
L 38.28125 8.296875 
L 54.390625 8.296875 
L 54.390625 0 
L 12.40625 0 
z
" id="DejaVuSans-49"/>
      </defs>
      <g transform="translate(762.316245 414.995312)scale(0.3 -0.3)">
       <use xlink:href="#DejaVuSans-49"/>
       <use x="63.623047" xlink:href="#DejaVuSans-49"/>
       <use x="127.246094" xlink:href="#DejaVuSans-47"/>
       <use x="160.9375" xlink:href="#DejaVuSans-50"/>
       <use x="224.560547" xlink:href="#DejaVuSans-51"/>
      </g>
     </g>
    </g>
   </g>
   <g id="matplotlib.axis_2">
    <g id="ytick_1">
     <g id="line2d_4">
      <defs>
       <path d="M 0 0 
L -3.5 0 
" id="m2c685d40c6" style="stroke:#000000;stroke-width:0.8;"/>
      </defs>
      <g>
       <use style="stroke:#000000;stroke-width:0.8;" x="75.175" xlink:href="#m2c685d40c6" y="294.777414"/>
      </g>
     </g>
     <g id="text_4">
      <!-- 380 -->
      <g transform="translate(10.9125 306.17507)scale(0.3 -0.3)">
       <use xlink:href="#DejaVuSans-51"/>
       <use x="63.623047" xlink:href="#DejaVuSans-56"/>
       <use x="127.246094" xlink:href="#DejaVuSans-48"/>
      </g>
     </g>
    </g>
    <g id="ytick_2">
     <g id="line2d_5">
      <g>
       <use style="stroke:#000000;stroke-width:0.8;" x="75.175" xlink:href="#m2c685d40c6" y="181.993985"/>
      </g>
     </g>
     <g id="text_5">
      <!-- 400 -->
      <defs>
       <path d="M 37.796875 64.3125 
L 12.890625 25.390625 
L 37.796875 25.390625 
z
M 35.203125 72.90625 
L 47.609375 72.90625 
L 47.609375 25.390625 
L 58.015625 25.390625 
L 58.015625 17.1875 
L 47.609375 17.1875 
L 47.609375 0 
L 37.796875 0 
L 37.796875 17.1875 
L 4.890625 17.1875 
L 4.890625 26.703125 
z
" id="DejaVuSans-52"/>
      </defs>
      <g transform="translate(10.9125 193.391642)scale(0.3 -0.3)">
       <use xlink:href="#DejaVuSans-52"/>
       <use x="63.623047" xlink:href="#DejaVuSans-48"/>
       <use x="127.246094" xlink:href="#DejaVuSans-48"/>
      </g>
     </g>
    </g>
   </g>
   <g id="line2d_6">
    <path clip-path="url(#pe477e40ed6)" d="M 109.954494 261.609249 
L 113.755531 233.382415 
L 117.556569 269.649818 
L 128.959682 275.49774 
L 132.760719 336.112293 
L 136.561757 365.632412 
L 140.362794 356.972994 
L 144.163832 332.626188 
L 159.367982 371.255235 
L 163.16902 385.2 
L 166.970057 352.249878 
L 170.771095 336.22467 
L 182.174208 354.274218 
L 185.975245 301.194278 
L 189.776283 349.382106 
L 193.57732 370.749279 
L 197.378358 361.583904 
L 208.781471 327.340497 
L 212.582508 349.438553 
L 216.383546 330.433024 
L 220.184583 306.367247 
L 223.985621 320.480664 
L 239.189771 331.220525 
L 242.990809 322.673656 
L 246.791846 313.339629 
L 250.592884 302.03771 
L 261.995997 315.476175 
L 265.797034 290.904442 
L 269.598072 299.676066 
L 273.399109 257.84177 
L 277.200147 226.185106 
L 288.60326 222.474074 
L 296.205335 218.144193 
L 300.006372 223.887825 
L 303.80741 249.00217 
L 315.210523 229.406359 
L 319.01156 197.64747 
L 322.812598 181.373759 
L 326.613636 182.105846 
L 330.414673 171.125226 
L 341.817786 172.870946 
L 345.618823 195.620205 
L 349.419861 195.000839 
L 353.220899 196.183296 
L 357.021936 199.393018 
L 368.425049 158.28668 
L 372.226086 178.051487 
L 376.027124 171.688489 
L 379.828162 216.229821 
L 383.629199 224.90163 
L 395.032312 217.468552 
L 398.833349 201.757932 
L 402.634387 241.456715 
L 406.435425 224.619912 
L 410.236462 233.967362 
L 421.639575 202.884286 
L 425.440612 223.606279 
L 429.24165 220.903373 
L 433.042688 201.363837 
L 436.843725 213.526742 
L 448.246838 193.255291 
L 452.047875 216.511194 
L 455.848913 216.961736 
L 459.649951 226.816002 
L 463.450988 229.349912 
L 474.854101 223.550005 
L 478.655138 197.422199 
L 482.456176 179.290391 
L 486.257214 198.379385 
L 490.058251 168.985583 
L 501.461364 143.364422 
L 505.262401 119.657977 
L 509.063439 106.931809 
L 512.864477 114.083169 
L 516.665514 97.584359 
L 531.869665 120.502614 
L 535.670702 111.042614 
L 539.47174 102.933896 
L 543.272777 101.694993 
L 554.67589 91.277635 
L 558.476928 93.642721 
L 562.277965 93.473897 
L 566.079003 110.141531 
L 569.88004 104.679444 
L 581.283153 88.8 
L 585.084191 109.071624 
L 588.885228 126.020975 
L 592.686266 166.339124 
L 596.487303 172.758396 
L 607.890416 171.238119 
L 611.691454 211.274378 
L 615.492491 210.711287 
L 619.293529 188.41257 
L 623.094566 208.289926 
L 634.497679 208.627919 
L 638.298717 235.600361 
L 642.099754 220.396557 
L 645.900792 214.701111 
L 649.701829 193.441496 
L 661.104942 211.656082 
L 664.90598 179.907519 
L 668.707017 183.065442 
L 672.508055 182.557937 
L 676.309092 193.10316 
L 687.712205 175.452526 
L 691.513243 172.012714 
L 695.31428 220.284008 
L 699.115318 250.397162 
L 702.916355 269.908647 
L 714.319468 274.081579 
L 718.120506 255.810719 
L 721.921543 259.194256 
L 725.722581 381.677067 
L 729.523618 384.553099 
L 740.926731 337.522258 
L 744.727769 315.360355 
L 748.528806 307.070767 
L 752.329844 279.608029 
L 756.130881 260.660496 
L 767.533994 260.040097 
L 771.335032 244.757991 
L 775.136069 240.077382 
L 778.937107 249.889658 
L 782.738144 213.686101 
L 794.141257 213.85527 
L 797.942295 195.246073 
L 801.743332 199.870234 
L 805.54437 198.347548 
L 805.54437 198.347548 
" style="fill:none;stroke:#000000;stroke-linecap:square;stroke-width:4;"/>
   </g>
   <g id="patch_3">
    <path d="M 75.175 385.2 
L 75.175 88.8 
" style="fill:none;stroke:#000000;stroke-linecap:square;stroke-linejoin:miter;stroke-width:0.8;"/>
   </g>
   <g id="patch_4">
    <path d="M 75.175 385.2 
L 840.323864 385.2 
" style="fill:none;stroke:#000000;stroke-linecap:square;stroke-linejoin:miter;stroke-width:0.8;"/>
   </g>
   <g id="text_6">
    <!-- MA   2% -->
    <defs>
     <path d="M 9.1875 72.90625 
L 33.109375 72.90625 
L 49.703125 33.890625 
L 66.40625 72.90625 
L 90.28125 72.90625 
L 90.28125 0 
L 72.515625 0 
L 72.515625 53.328125 
L 55.71875 14.015625 
L 43.796875 14.015625 
L 27 53.328125 
L 27 0 
L 9.1875 0 
z
" id="DejaVuSans-Bold-77"/>
     <path d="M 53.421875 13.28125 
L 24.03125 13.28125 
L 19.390625 0 
L 0.484375 0 
L 27.484375 72.90625 
L 49.90625 72.90625 
L 76.90625 0 
L 58.015625 0 
z
M 28.71875 26.8125 
L 48.6875 26.8125 
L 38.71875 55.8125 
z
" id="DejaVuSans-Bold-65"/>
     <path id="DejaVuSans-Bold-32"/>
     <path d="M 28.8125 13.8125 
L 60.890625 13.8125 
L 60.890625 0 
L 7.90625 0 
L 7.90625 13.8125 
L 34.515625 37.3125 
Q 38.09375 40.53125 39.796875 43.609375 
Q 41.5 46.6875 41.5 50 
Q 41.5 55.125 38.0625 58.25 
Q 34.625 61.375 28.90625 61.375 
Q 24.515625 61.375 19.28125 59.5 
Q 14.0625 57.625 8.109375 53.90625 
L 8.109375 69.921875 
Q 14.453125 72.015625 20.65625 73.109375 
Q 26.859375 74.21875 32.8125 74.21875 
Q 45.90625 74.21875 53.15625 68.453125 
Q 60.40625 62.703125 60.40625 52.390625 
Q 60.40625 46.4375 57.328125 41.28125 
Q 54.25 36.140625 44.390625 27.484375 
z
" id="DejaVuSans-Bold-50"/>
     <path d="M 77.484375 30.078125 
Q 74.03125 30.078125 72.125 27.078125 
Q 70.21875 24.078125 70.21875 18.5 
Q 70.21875 12.890625 72.09375 9.890625 
Q 73.96875 6.890625 77.484375 6.890625 
Q 81 6.890625 82.859375 9.890625 
Q 84.71875 12.890625 84.71875 18.5 
Q 84.71875 24.078125 82.828125 27.078125 
Q 80.953125 30.078125 77.484375 30.078125 
z
M 77.484375 38.28125 
Q 86.578125 38.28125 91.796875 33 
Q 97.015625 27.734375 97.015625 18.5 
Q 97.015625 9.28125 91.796875 3.921875 
Q 86.578125 -1.421875 77.484375 -1.421875 
Q 68.40625 -1.421875 63.15625 3.921875 
Q 57.90625 9.28125 57.90625 18.5 
Q 57.90625 27.6875 63.15625 32.984375 
Q 68.40625 38.28125 77.484375 38.28125 
z
M 32.71875 -1.421875 
L 21.921875 -1.421875 
L 67.484375 74.21875 
L 78.328125 74.21875 
z
M 22.703125 74.21875 
Q 31.78125 74.21875 36.984375 68.921875 
Q 42.1875 63.625 42.1875 54.390625 
Q 42.1875 45.171875 36.984375 39.84375 
Q 31.78125 34.515625 22.703125 34.515625 
Q 13.625 34.515625 8.421875 39.84375 
Q 3.21875 45.171875 3.21875 54.390625 
Q 3.21875 63.625 8.421875 68.921875 
Q 13.625 74.21875 22.703125 74.21875 
z
M 22.703125 66.015625 
Q 19.1875 66.015625 17.28125 62.984375 
Q 15.375 59.96875 15.375 54.390625 
Q 15.375 48.78125 17.28125 45.71875 
Q 19.1875 42.671875 22.703125 42.671875 
Q 26.21875 42.671875 28.09375 45.71875 
Q 29.984375 48.78125 29.984375 54.390625 
Q 29.984375 59.96875 28.078125 62.984375 
Q 26.171875 66.015625 22.703125 66.015625 
z
" id="DejaVuSans-Bold-37"/>
    </defs>
    <g transform="translate(75.175 72.1625)scale(0.8 -0.8)">
     <use xlink:href="#DejaVuSans-Bold-77"/>
     <use x="99.511719" xlink:href="#DejaVuSans-Bold-65"/>
     <use x="176.904297" xlink:href="#DejaVuSans-Bold-32"/>
     <use x="211.71875" xlink:href="#DejaVuSans-Bold-32"/>
     <use x="246.533203" xlink:href="#DejaVuSans-Bold-32"/>
     <use x="281.347656" xlink:href="#DejaVuSans-Bold-50"/>
     <use x="350.927734" xlink:href="#DejaVuSans-Bold-37"/>
    </g>
   </g>
  </g>
 </g>
 <defs>
  <clipPath id="pe477e40ed6">
   <rect height="296.4" width="765.148864" x="75.175" y="88.8"/>
  </clipPath>
 </defs>
</svg>
