<?xml version="1.0" encoding="utf-8" standalone="no"?>
<!DOCTYPE svg PUBLIC "-//W3C//DTD SVG 1.1//EN"
  "http://www.w3.org/Graphics/SVG/1.1/DTD/svg11.dtd">
<!-- Created with matplotlib (https://matplotlib.org/) -->
<svg height="432pt" version="1.1" viewBox="0 0 576 432" width="576pt" xmlns="http://www.w3.org/2000/svg" xmlns:xlink="http://www.w3.org/1999/xlink">
 <defs>
  <style type="text/css">
*{stroke-linecap:butt;stroke-linejoin:round;}
  </style>
 </defs>
 <g id="figure_1">
  <g id="patch_1">
   <path d="M 0 432 
L 576 432 
L 576 0 
L 0 0 
z
" style="fill:#ffffff;"/>
  </g>
  <g id="axes_1">
   <g id="patch_2">
    <path d="M 36.925 404.2 
L 565.2 404.2 
L 565.2 31.8 
L 36.925 31.8 
z
" style="fill:#ffffff;"/>
   </g>
   <g id="PolyCollection_1">
    <defs>
     <path d="M 60.9375 -44.727273 
L 60.9375 -294.491475 
L 62.256868 -301.923747 
L 66.214973 -307.384833 
L 67.534341 -307.885703 
L 68.853709 -299.718309 
L 70.173077 -317.192179 
L 71.492445 -318.82407 
L 75.450549 -318.888685 
L 76.769918 -322.233206 
L 78.089286 -321.627339 
L 79.408654 -320.423617 
L 80.728022 -322.378657 
L 84.686126 -317.983904 
L 86.005495 -323.404632 
L 87.324863 -326.377511 
L 89.963599 -328.518335 
L 93.921703 -323.105692 
L 95.241071 -321.926204 
L 96.56044 -332.646444 
L 97.879808 -336.200981 
L 99.199176 -335.603151 
L 103.15728 -332.395996 
L 104.476648 -325.480791 
L 105.796016 -325.391918 
L 107.115385 -328.421375 
L 108.434753 -326.531 
L 112.392857 -334.076379 
L 113.712225 -333.252335 
L 115.031593 -333.543164 
L 116.350962 -324.44673 
L 117.67033 -324.115495 
L 121.628434 -320.415531 
L 122.947802 -321.780852 
L 124.26717 -323.994327 
L 125.586538 -320.625548 
L 126.905907 -322.305931 
L 132.183379 -324.374029 
L 133.502747 -320.97298 
L 134.822115 -326.030129 
L 136.141484 -325.642365 
L 141.418956 -324.891047 
L 142.738324 -331.636641 
L 144.057692 -328.906074 
L 145.37706 -342.233058 
L 149.335165 -344.903277 
L 150.654533 -344.935646 
L 151.973901 -350.478411 
L 153.293269 -352.056279 
L 154.612637 -348.58496 
L 159.89011 -348.164207 
L 161.209478 -343.244498 
L 162.528846 -342.451508 
L 163.848214 -349.19993 
L 167.806319 -351.052926 
L 169.125687 -352.218151 
L 170.445055 -354.143922 
L 171.764423 -349.976747 
L 173.083791 -347.379304 
L 177.041896 -345.024644 
L 178.361264 -344.60389 
L 179.680632 -347.419759 
L 181 -348.115665 
L 182.319368 -347.28222 
L 186.277473 -346.5216 
L 187.596841 -348.212773 
L 188.916209 -344.401588 
L 190.235577 -344.458265 
L 191.554945 -341.5533 
L 195.513049 -344.789971 
L 196.832418 -344.086004 
L 198.151786 -343.827098 
L 199.471154 -342.1359 
L 200.790522 -336.941113 
L 206.067995 -332.75769 
L 207.387363 -331.95664 
L 208.706731 -332.409762 
L 210.026099 -330.459683 
L 213.984203 -332.369331 
L 215.303571 -332.21557 
L 216.62294 -330.767156 
L 217.942308 -332.442132 
L 219.261676 -337.240474 
L 223.21978 -341.63426 
L 224.539148 -335.97819 
L 225.858516 -335.241828 
L 227.177885 -331.527775 
L 228.497253 -325.596577 
L 232.455357 -323.654559 
L 233.774725 -330.216925 
L 235.094093 -326.381455 
L 236.413462 -326.316741 
L 237.73283 -327.659962 
L 241.690934 -327.384859 
L 243.010302 -331.63297 
L 244.32967 -328.76851 
L 245.649038 -331.471148 
L 246.968407 -329.254027 
L 250.926511 -331.673426 
L 252.245879 -331.438753 
L 253.565247 -335.646434 
L 254.884615 -335.427959 
L 256.203984 -338.785997 
L 260.162088 -341.261999 
L 261.481456 -339.182467 
L 262.800824 -339.555274 
L 264.120192 -337.675068 
L 269.397665 -336.597203 
L 270.717033 -339.830823 
L 272.036401 -337.926285 
L 273.355769 -344.304405 
L 274.675137 -346.557417 
L 278.633242 -346.824881 
L 279.95261 -346.468271 
L 281.271978 -346.857275 
L 282.591346 -348.640249 
L 283.910714 -348.834738 
L 287.868819 -348.421426 
L 289.188187 -343.396746 
L 290.507555 -341.962271 
L 291.826923 -347.562383 
L 293.146291 -352.71674 
L 297.104396 -352.578953 
L 298.423764 -349.474983 
L 299.743132 -348.559189 
L 301.0625 -349.547932 
L 302.381868 -356.469066 
L 306.339973 -357.157902 
L 307.659341 -355.075096 
L 308.978709 -354.75093 
L 310.298077 -355.439816 
L 311.617445 -354.248447 
L 315.575549 -355.456014 
L 316.894918 -352.886921 
L 318.214286 -358.365469 
L 319.533654 -362.433824 
L 320.853022 -357.206518 
L 324.811126 -356.363697 
L 326.130495 -347.627197 
L 327.449863 -343.372413 
L 328.769231 -344.620484 
L 330.088599 -348.129655 
L 335.366071 -342.561986 
L 336.68544 -340.552104 
L 338.004808 -345.30126 
L 339.324176 -347.610999 
L 343.28228 -345.009488 
L 344.601648 -352.659988 
L 345.921016 -345.714572 
L 347.240385 -342.63491 
L 348.559753 -343.955931 
L 352.517857 -348.891465 
L 353.837225 -345.706485 
L 355.156593 -348.445734 
L 356.475962 -351.914399 
L 357.79533 -349.880209 
L 363.072802 -348.33228 
L 364.39217 -349.564154 
L 365.711538 -350.909433 
L 367.030907 -352.538423 
L 370.989011 -350.60149 
L 372.308379 -354.143079 
L 373.627747 -352.87881 
L 374.947115 -358.908457 
L 376.266484 -363.471184 
L 380.224588 -364.006061 
L 382.863324 -364.630134 
L 384.182692 -363.802295 
L 385.50206 -360.182523 
L 389.460165 -363.0069 
L 390.779533 -367.584361 
L 392.098901 -369.929918 
L 393.418269 -369.824401 
L 394.737637 -371.407056 
L 398.695742 -371.155442 
L 400.01511 -367.876554 
L 401.334478 -367.965824 
L 402.653846 -367.795395 
L 403.973214 -367.332772 
L 407.931319 -373.257497 
L 409.250687 -370.408762 
L 410.570055 -371.325872 
L 411.889423 -364.906056 
L 413.208791 -363.656174 
L 417.166896 -364.727516 
L 418.486264 -366.991913 
L 419.805632 -361.270062 
L 421.125 -363.696778 
L 422.444368 -362.349515 
L 426.402473 -366.82957 
L 427.721841 -363.842875 
L 429.041209 -364.232449 
L 430.360577 -367.048715 
L 431.679945 -365.295655 
L 435.638049 -368.217413 
L 436.957418 -364.865501 
L 438.276786 -364.800564 
L 439.596154 -363.380252 
L 440.915522 -363.015035 
L 444.873626 -363.850986 
L 446.192995 -367.61683 
L 447.512363 -370.230197 
L 448.831731 -367.478869 
L 450.151099 -371.715446 
L 454.109203 -375.408267 
L 455.428571 -378.825116 
L 456.74794 -380.65936 
L 458.067308 -379.628622 
L 459.386676 -382.006623 
L 464.664148 -378.703377 
L 465.983516 -380.066862 
L 467.302885 -381.235585 
L 468.622253 -381.414151 
L 472.580357 -382.915622 
L 473.899725 -382.574738 
L 475.219093 -382.599071 
L 476.538462 -380.196737 
L 477.85783 -380.983997 
L 481.815934 -383.272727 
L 483.135302 -380.350945 
L 484.45467 -377.908006 
L 485.774038 -372.096885 
L 487.093407 -371.171664 
L 491.051511 -371.390784 
L 492.370879 -365.620292 
L 493.690247 -365.701451 
L 495.009615 -368.915402 
L 496.328984 -366.050446 
L 500.287088 -366.001731 
L 501.606456 -362.114148 
L 502.925824 -364.305497 
L 504.245192 -365.126391 
L 505.56456 -368.190575 
L 509.522665 -365.565277 
L 510.842033 -370.141249 
L 512.161401 -369.686093 
L 513.480769 -369.75924 
L 514.800137 -368.23934 
L 518.758242 -370.783355 
L 520.07761 -371.279141 
L 521.396978 -364.321719 
L 522.716346 -359.98146 
L 524.035714 -357.169238 
L 527.993819 -356.567786 
L 529.313187 -359.201196 
L 530.632555 -358.713521 
L 531.951923 -341.05987 
L 533.271291 -340.645343 
L 537.229396 -347.423976 
L 538.548764 -350.618208 
L 539.868132 -351.813 
L 541.1875 -355.77125 
L 541.1875 -44.727273 
L 541.1875 -44.727273 
L 539.868132 -44.727273 
L 538.548764 -44.727273 
L 537.229396 -44.727273 
L 533.271291 -44.727273 
L 531.951923 -44.727273 
L 530.632555 -44.727273 
L 529.313187 -44.727273 
L 527.993819 -44.727273 
L 524.035714 -44.727273 
L 522.716346 -44.727273 
L 521.396978 -44.727273 
L 520.07761 -44.727273 
L 518.758242 -44.727273 
L 514.800137 -44.727273 
L 513.480769 -44.727273 
L 512.161401 -44.727273 
L 510.842033 -44.727273 
L 509.522665 -44.727273 
L 505.56456 -44.727273 
L 504.245192 -44.727273 
L 502.925824 -44.727273 
L 501.606456 -44.727273 
L 500.287088 -44.727273 
L 496.328984 -44.727273 
L 495.009615 -44.727273 
L 493.690247 -44.727273 
L 492.370879 -44.727273 
L 491.051511 -44.727273 
L 487.093407 -44.727273 
L 485.774038 -44.727273 
L 484.45467 -44.727273 
L 483.135302 -44.727273 
L 481.815934 -44.727273 
L 477.85783 -44.727273 
L 476.538462 -44.727273 
L 475.219093 -44.727273 
L 473.899725 -44.727273 
L 472.580357 -44.727273 
L 468.622253 -44.727273 
L 467.302885 -44.727273 
L 465.983516 -44.727273 
L 464.664148 -44.727273 
L 459.386676 -44.727273 
L 458.067308 -44.727273 
L 456.74794 -44.727273 
L 455.428571 -44.727273 
L 454.109203 -44.727273 
L 450.151099 -44.727273 
L 448.831731 -44.727273 
L 447.512363 -44.727273 
L 446.192995 -44.727273 
L 444.873626 -44.727273 
L 440.915522 -44.727273 
L 439.596154 -44.727273 
L 438.276786 -44.727273 
L 436.957418 -44.727273 
L 435.638049 -44.727273 
L 431.679945 -44.727273 
L 430.360577 -44.727273 
L 429.041209 -44.727273 
L 427.721841 -44.727273 
L 426.402473 -44.727273 
L 422.444368 -44.727273 
L 421.125 -44.727273 
L 419.805632 -44.727273 
L 418.486264 -44.727273 
L 417.166896 -44.727273 
L 413.208791 -44.727273 
L 411.889423 -44.727273 
L 410.570055 -44.727273 
L 409.250687 -44.727273 
L 407.931319 -44.727273 
L 403.973214 -44.727273 
L 402.653846 -44.727273 
L 401.334478 -44.727273 
L 400.01511 -44.727273 
L 398.695742 -44.727273 
L 394.737637 -44.727273 
L 393.418269 -44.727273 
L 392.098901 -44.727273 
L 390.779533 -44.727273 
L 389.460165 -44.727273 
L 385.50206 -44.727273 
L 384.182692 -44.727273 
L 382.863324 -44.727273 
L 380.224588 -44.727273 
L 376.266484 -44.727273 
L 374.947115 -44.727273 
L 373.627747 -44.727273 
L 372.308379 -44.727273 
L 370.989011 -44.727273 
L 367.030907 -44.727273 
L 365.711538 -44.727273 
L 364.39217 -44.727273 
L 363.072802 -44.727273 
L 357.79533 -44.727273 
L 356.475962 -44.727273 
L 355.156593 -44.727273 
L 353.837225 -44.727273 
L 352.517857 -44.727273 
L 348.559753 -44.727273 
L 347.240385 -44.727273 
L 345.921016 -44.727273 
L 344.601648 -44.727273 
L 343.28228 -44.727273 
L 339.324176 -44.727273 
L 338.004808 -44.727273 
L 336.68544 -44.727273 
L 335.366071 -44.727273 
L 330.088599 -44.727273 
L 328.769231 -44.727273 
L 327.449863 -44.727273 
L 326.130495 -44.727273 
L 324.811126 -44.727273 
L 320.853022 -44.727273 
L 319.533654 -44.727273 
L 318.214286 -44.727273 
L 316.894918 -44.727273 
L 315.575549 -44.727273 
L 311.617445 -44.727273 
L 310.298077 -44.727273 
L 308.978709 -44.727273 
L 307.659341 -44.727273 
L 306.339973 -44.727273 
L 302.381868 -44.727273 
L 301.0625 -44.727273 
L 299.743132 -44.727273 
L 298.423764 -44.727273 
L 297.104396 -44.727273 
L 293.146291 -44.727273 
L 291.826923 -44.727273 
L 290.507555 -44.727273 
L 289.188187 -44.727273 
L 287.868819 -44.727273 
L 283.910714 -44.727273 
L 282.591346 -44.727273 
L 281.271978 -44.727273 
L 279.95261 -44.727273 
L 278.633242 -44.727273 
L 274.675137 -44.727273 
L 273.355769 -44.727273 
L 272.036401 -44.727273 
L 270.717033 -44.727273 
L 269.397665 -44.727273 
L 264.120192 -44.727273 
L 262.800824 -44.727273 
L 261.481456 -44.727273 
L 260.162088 -44.727273 
L 256.203984 -44.727273 
L 254.884615 -44.727273 
L 253.565247 -44.727273 
L 252.245879 -44.727273 
L 250.926511 -44.727273 
L 246.968407 -44.727273 
L 245.649038 -44.727273 
L 244.32967 -44.727273 
L 243.010302 -44.727273 
L 241.690934 -44.727273 
L 237.73283 -44.727273 
L 236.413462 -44.727273 
L 235.094093 -44.727273 
L 233.774725 -44.727273 
L 232.455357 -44.727273 
L 228.497253 -44.727273 
L 227.177885 -44.727273 
L 225.858516 -44.727273 
L 224.539148 -44.727273 
L 223.21978 -44.727273 
L 219.261676 -44.727273 
L 217.942308 -44.727273 
L 216.62294 -44.727273 
L 215.303571 -44.727273 
L 213.984203 -44.727273 
L 210.026099 -44.727273 
L 208.706731 -44.727273 
L 207.387363 -44.727273 
L 206.067995 -44.727273 
L 200.790522 -44.727273 
L 199.471154 -44.727273 
L 198.151786 -44.727273 
L 196.832418 -44.727273 
L 195.513049 -44.727273 
L 191.554945 -44.727273 
L 190.235577 -44.727273 
L 188.916209 -44.727273 
L 187.596841 -44.727273 
L 186.277473 -44.727273 
L 182.319368 -44.727273 
L 181 -44.727273 
L 179.680632 -44.727273 
L 178.361264 -44.727273 
L 177.041896 -44.727273 
L 173.083791 -44.727273 
L 171.764423 -44.727273 
L 170.445055 -44.727273 
L 169.125687 -44.727273 
L 167.806319 -44.727273 
L 163.848214 -44.727273 
L 162.528846 -44.727273 
L 161.209478 -44.727273 
L 159.89011 -44.727273 
L 154.612637 -44.727273 
L 153.293269 -44.727273 
L 151.973901 -44.727273 
L 150.654533 -44.727273 
L 149.335165 -44.727273 
L 145.37706 -44.727273 
L 144.057692 -44.727273 
L 142.738324 -44.727273 
L 141.418956 -44.727273 
L 136.141484 -44.727273 
L 134.822115 -44.727273 
L 133.502747 -44.727273 
L 132.183379 -44.727273 
L 126.905907 -44.727273 
L 125.586538 -44.727273 
L 124.26717 -44.727273 
L 122.947802 -44.727273 
L 121.628434 -44.727273 
L 117.67033 -44.727273 
L 116.350962 -44.727273 
L 115.031593 -44.727273 
L 113.712225 -44.727273 
L 112.392857 -44.727273 
L 108.434753 -44.727273 
L 107.115385 -44.727273 
L 105.796016 -44.727273 
L 104.476648 -44.727273 
L 103.15728 -44.727273 
L 99.199176 -44.727273 
L 97.879808 -44.727273 
L 96.56044 -44.727273 
L 95.241071 -44.727273 
L 93.921703 -44.727273 
L 89.963599 -44.727273 
L 87.324863 -44.727273 
L 86.005495 -44.727273 
L 84.686126 -44.727273 
L 80.728022 -44.727273 
L 79.408654 -44.727273 
L 78.089286 -44.727273 
L 76.769918 -44.727273 
L 75.450549 -44.727273 
L 71.492445 -44.727273 
L 70.173077 -44.727273 
L 68.853709 -44.727273 
L 67.534341 -44.727273 
L 66.214973 -44.727273 
L 62.256868 -44.727273 
L 60.9375 -44.727273 
z
" id="m91d3442213" style="stroke:#f5d128;"/>
    </defs>
    <g clip-path="url(#pb79a0fa44c)">
     <use style="fill:#f5d128;stroke:#f5d128;" x="0" xlink:href="#m91d3442213" y="432"/>
    </g>
   </g>
   <g id="matplotlib.axis_1">
    <g id="xtick_1">
     <g id="line2d_1">
      <defs>
       <path d="M 0 0 
L 0 3.5 
" id="mf1ac99b524" style="stroke:#000000;stroke-width:0.8;"/>
      </defs>
      <g>
       <use style="stroke:#000000;stroke-width:0.8;" x="58.298764" xlink:href="#mf1ac99b524" y="404.2"/>
      </g>
     </g>
     <g id="text_1">
      <!-- 2022-11 -->
      <defs>
       <path d="M 19.1875 8.296875 
L 53.609375 8.296875 
L 53.609375 0 
L 7.328125 0 
L 7.328125 8.296875 
Q 12.9375 14.109375 22.625 23.890625 
Q 32.328125 33.6875 34.8125 36.53125 
Q 39.546875 41.84375 41.421875 45.53125 
Q 43.3125 49.21875 43.3125 52.78125 
Q 43.3125 58.59375 39.234375 62.25 
Q 35.15625 65.921875 28.609375 65.921875 
Q 23.96875 65.921875 18.8125 64.3125 
Q 13.671875 62.703125 7.8125 59.421875 
L 7.8125 69.390625 
Q 13.765625 71.78125 18.9375 73 
Q 24.125 74.21875 28.421875 74.21875 
Q 39.75 74.21875 46.484375 68.546875 
Q 53.21875 62.890625 53.21875 53.421875 
Q 53.21875 48.921875 51.53125 44.890625 
Q 49.859375 40.875 45.40625 35.40625 
Q 44.1875 33.984375 37.640625 27.21875 
Q 31.109375 20.453125 19.1875 8.296875 
z
" id="DejaVuSans-50"/>
       <path d="M 31.78125 66.40625 
Q 24.171875 66.40625 20.328125 58.90625 
Q 16.5 51.421875 16.5 36.375 
Q 16.5 21.390625 20.328125 13.890625 
Q 24.171875 6.390625 31.78125 6.390625 
Q 39.453125 6.390625 43.28125 13.890625 
Q 47.125 21.390625 47.125 36.375 
Q 47.125 51.421875 43.28125 58.90625 
Q 39.453125 66.40625 31.78125 66.40625 
z
M 31.78125 74.21875 
Q 44.046875 74.21875 50.515625 64.515625 
Q 56.984375 54.828125 56.984375 36.375 
Q 56.984375 17.96875 50.515625 8.265625 
Q 44.046875 -1.421875 31.78125 -1.421875 
Q 19.53125 -1.421875 13.0625 8.265625 
Q 6.59375 17.96875 6.59375 36.375 
Q 6.59375 54.828125 13.0625 64.515625 
Q 19.53125 74.21875 31.78125 74.21875 
z
" id="DejaVuSans-48"/>
       <path d="M 4.890625 31.390625 
L 31.203125 31.390625 
L 31.203125 23.390625 
L 4.890625 23.390625 
z
" id="DejaVuSans-45"/>
       <path d="M 12.40625 8.296875 
L 28.515625 8.296875 
L 28.515625 63.921875 
L 10.984375 60.40625 
L 10.984375 69.390625 
L 28.421875 72.90625 
L 38.28125 72.90625 
L 38.28125 8.296875 
L 54.390625 8.296875 
L 54.390625 0 
L 12.40625 0 
z
" id="DejaVuSans-49"/>
      </defs>
      <g transform="translate(37.407357 418.798437)scale(0.1 -0.1)">
       <use xlink:href="#DejaVuSans-50"/>
       <use x="63.623047" xlink:href="#DejaVuSans-48"/>
       <use x="127.246094" xlink:href="#DejaVuSans-50"/>
       <use x="190.869141" xlink:href="#DejaVuSans-50"/>
       <use x="254.492188" xlink:href="#DejaVuSans-45"/>
       <use x="290.576172" xlink:href="#DejaVuSans-49"/>
       <use x="354.199219" xlink:href="#DejaVuSans-49"/>
      </g>
     </g>
    </g>
    <g id="xtick_2">
     <g id="line2d_2">
      <g>
       <use style="stroke:#000000;stroke-width:0.8;" x="138.78022" xlink:href="#mf1ac99b524" y="404.2"/>
      </g>
     </g>
     <g id="text_2">
      <!-- 2023-01 -->
      <defs>
       <path d="M 40.578125 39.3125 
Q 47.65625 37.796875 51.625 33 
Q 55.609375 28.21875 55.609375 21.1875 
Q 55.609375 10.40625 48.1875 4.484375 
Q 40.765625 -1.421875 27.09375 -1.421875 
Q 22.515625 -1.421875 17.65625 -0.515625 
Q 12.796875 0.390625 7.625 2.203125 
L 7.625 11.71875 
Q 11.71875 9.328125 16.59375 8.109375 
Q 21.484375 6.890625 26.8125 6.890625 
Q 36.078125 6.890625 40.9375 10.546875 
Q 45.796875 14.203125 45.796875 21.1875 
Q 45.796875 27.640625 41.28125 31.265625 
Q 36.765625 34.90625 28.71875 34.90625 
L 20.21875 34.90625 
L 20.21875 43.015625 
L 29.109375 43.015625 
Q 36.375 43.015625 40.234375 45.921875 
Q 44.09375 48.828125 44.09375 54.296875 
Q 44.09375 59.90625 40.109375 62.90625 
Q 36.140625 65.921875 28.71875 65.921875 
Q 24.65625 65.921875 20.015625 65.03125 
Q 15.375 64.15625 9.8125 62.3125 
L 9.8125 71.09375 
Q 15.4375 72.65625 20.34375 73.4375 
Q 25.25 74.21875 29.59375 74.21875 
Q 40.828125 74.21875 47.359375 69.109375 
Q 53.90625 64.015625 53.90625 55.328125 
Q 53.90625 49.265625 50.4375 45.09375 
Q 46.96875 40.921875 40.578125 39.3125 
z
" id="DejaVuSans-51"/>
      </defs>
      <g transform="translate(117.888814 418.798437)scale(0.1 -0.1)">
       <use xlink:href="#DejaVuSans-50"/>
       <use x="63.623047" xlink:href="#DejaVuSans-48"/>
       <use x="127.246094" xlink:href="#DejaVuSans-50"/>
       <use x="190.869141" xlink:href="#DejaVuSans-51"/>
       <use x="254.492188" xlink:href="#DejaVuSans-45"/>
       <use x="290.576172" xlink:href="#DejaVuSans-48"/>
       <use x="354.199219" xlink:href="#DejaVuSans-49"/>
      </g>
     </g>
    </g>
    <g id="xtick_3">
     <g id="line2d_3">
      <g>
       <use style="stroke:#000000;stroke-width:0.8;" x="216.62294" xlink:href="#mf1ac99b524" y="404.2"/>
      </g>
     </g>
     <g id="text_3">
      <!-- 2023-03 -->
      <g transform="translate(195.731533 418.798437)scale(0.1 -0.1)">
       <use xlink:href="#DejaVuSans-50"/>
       <use x="63.623047" xlink:href="#DejaVuSans-48"/>
       <use x="127.246094" xlink:href="#DejaVuSans-50"/>
       <use x="190.869141" xlink:href="#DejaVuSans-51"/>
       <use x="254.492188" xlink:href="#DejaVuSans-45"/>
       <use x="290.576172" xlink:href="#DejaVuSans-48"/>
       <use x="354.199219" xlink:href="#DejaVuSans-51"/>
      </g>
     </g>
    </g>
    <g id="xtick_4">
     <g id="line2d_4">
      <g>
       <use style="stroke:#000000;stroke-width:0.8;" x="297.104396" xlink:href="#mf1ac99b524" y="404.2"/>
      </g>
     </g>
     <g id="text_4">
      <!-- 2023-05 -->
      <defs>
       <path d="M 10.796875 72.90625 
L 49.515625 72.90625 
L 49.515625 64.59375 
L 19.828125 64.59375 
L 19.828125 46.734375 
Q 21.96875 47.46875 24.109375 47.828125 
Q 26.265625 48.1875 28.421875 48.1875 
Q 40.625 48.1875 47.75 41.5 
Q 54.890625 34.8125 54.890625 23.390625 
Q 54.890625 11.625 47.5625 5.09375 
Q 40.234375 -1.421875 26.90625 -1.421875 
Q 22.3125 -1.421875 17.546875 -0.640625 
Q 12.796875 0.140625 7.71875 1.703125 
L 7.71875 11.625 
Q 12.109375 9.234375 16.796875 8.0625 
Q 21.484375 6.890625 26.703125 6.890625 
Q 35.15625 6.890625 40.078125 11.328125 
Q 45.015625 15.765625 45.015625 23.390625 
Q 45.015625 31 40.078125 35.4375 
Q 35.15625 39.890625 26.703125 39.890625 
Q 22.75 39.890625 18.8125 39.015625 
Q 14.890625 38.140625 10.796875 36.28125 
z
" id="DejaVuSans-53"/>
      </defs>
      <g transform="translate(276.212989 418.798437)scale(0.1 -0.1)">
       <use xlink:href="#DejaVuSans-50"/>
       <use x="63.623047" xlink:href="#DejaVuSans-48"/>
       <use x="127.246094" xlink:href="#DejaVuSans-50"/>
       <use x="190.869141" xlink:href="#DejaVuSans-51"/>
       <use x="254.492188" xlink:href="#DejaVuSans-45"/>
       <use x="290.576172" xlink:href="#DejaVuSans-48"/>
       <use x="354.199219" xlink:href="#DejaVuSans-53"/>
      </g>
     </g>
    </g>
    <g id="xtick_5">
     <g id="line2d_5">
      <g>
       <use style="stroke:#000000;stroke-width:0.8;" x="377.585852" xlink:href="#mf1ac99b524" y="404.2"/>
      </g>
     </g>
     <g id="text_5">
      <!-- 2023-07 -->
      <defs>
       <path d="M 8.203125 72.90625 
L 55.078125 72.90625 
L 55.078125 68.703125 
L 28.609375 0 
L 18.3125 0 
L 43.21875 64.59375 
L 8.203125 64.59375 
z
" id="DejaVuSans-55"/>
      </defs>
      <g transform="translate(356.694445 418.798437)scale(0.1 -0.1)">
       <use xlink:href="#DejaVuSans-50"/>
       <use x="63.623047" xlink:href="#DejaVuSans-48"/>
       <use x="127.246094" xlink:href="#DejaVuSans-50"/>
       <use x="190.869141" xlink:href="#DejaVuSans-51"/>
       <use x="254.492188" xlink:href="#DejaVuSans-45"/>
       <use x="290.576172" xlink:href="#DejaVuSans-48"/>
       <use x="354.199219" xlink:href="#DejaVuSans-55"/>
      </g>
     </g>
    </g>
    <g id="xtick_6">
     <g id="line2d_6">
      <g>
       <use style="stroke:#000000;stroke-width:0.8;" x="459.386676" xlink:href="#mf1ac99b524" y="404.2"/>
      </g>
     </g>
     <g id="text_6">
      <!-- 2023-09 -->
      <defs>
       <path d="M 10.984375 1.515625 
L 10.984375 10.5 
Q 14.703125 8.734375 18.5 7.8125 
Q 22.3125 6.890625 25.984375 6.890625 
Q 35.75 6.890625 40.890625 13.453125 
Q 46.046875 20.015625 46.78125 33.40625 
Q 43.953125 29.203125 39.59375 26.953125 
Q 35.25 24.703125 29.984375 24.703125 
Q 19.046875 24.703125 12.671875 31.3125 
Q 6.296875 37.9375 6.296875 49.421875 
Q 6.296875 60.640625 12.9375 67.421875 
Q 19.578125 74.21875 30.609375 74.21875 
Q 43.265625 74.21875 49.921875 64.515625 
Q 56.59375 54.828125 56.59375 36.375 
Q 56.59375 19.140625 48.40625 8.859375 
Q 40.234375 -1.421875 26.421875 -1.421875 
Q 22.703125 -1.421875 18.890625 -0.6875 
Q 15.09375 0.046875 10.984375 1.515625 
z
M 30.609375 32.421875 
Q 37.25 32.421875 41.125 36.953125 
Q 45.015625 41.5 45.015625 49.421875 
Q 45.015625 57.28125 41.125 61.84375 
Q 37.25 66.40625 30.609375 66.40625 
Q 23.96875 66.40625 20.09375 61.84375 
Q 16.21875 57.28125 16.21875 49.421875 
Q 16.21875 41.5 20.09375 36.953125 
Q 23.96875 32.421875 30.609375 32.421875 
z
" id="DejaVuSans-57"/>
      </defs>
      <g transform="translate(438.49527 418.798437)scale(0.1 -0.1)">
       <use xlink:href="#DejaVuSans-50"/>
       <use x="63.623047" xlink:href="#DejaVuSans-48"/>
       <use x="127.246094" xlink:href="#DejaVuSans-50"/>
       <use x="190.869141" xlink:href="#DejaVuSans-51"/>
       <use x="254.492188" xlink:href="#DejaVuSans-45"/>
       <use x="290.576172" xlink:href="#DejaVuSans-48"/>
       <use x="354.199219" xlink:href="#DejaVuSans-57"/>
      </g>
     </g>
    </g>
    <g id="xtick_7">
     <g id="line2d_7">
      <g>
       <use style="stroke:#000000;stroke-width:0.8;" x="539.868132" xlink:href="#mf1ac99b524" y="404.2"/>
      </g>
     </g>
     <g id="text_7">
      <!-- 2023-11 -->
      <g transform="translate(518.976726 418.798437)scale(0.1 -0.1)">
       <use xlink:href="#DejaVuSans-50"/>
       <use x="63.623047" xlink:href="#DejaVuSans-48"/>
       <use x="127.246094" xlink:href="#DejaVuSans-50"/>
       <use x="190.869141" xlink:href="#DejaVuSans-51"/>
       <use x="254.492188" xlink:href="#DejaVuSans-45"/>
       <use x="290.576172" xlink:href="#DejaVuSans-49"/>
       <use x="354.199219" xlink:href="#DejaVuSans-49"/>
      </g>
     </g>
    </g>
   </g>
   <g id="matplotlib.axis_2">
    <g id="ytick_1">
     <g id="line2d_8">
      <defs>
       <path d="M 0 0 
L -3.5 0 
" id="m065c0ce9c6" style="stroke:#000000;stroke-width:0.8;"/>
      </defs>
      <g>
       <use style="stroke:#000000;stroke-width:0.8;" x="36.925" xlink:href="#m065c0ce9c6" y="387.272727"/>
      </g>
     </g>
     <g id="text_8">
      <!-- 0 -->
      <g transform="translate(23.5625 391.071946)scale(0.1 -0.1)">
       <use xlink:href="#DejaVuSans-48"/>
      </g>
     </g>
    </g>
    <g id="ytick_2">
     <g id="line2d_9">
      <g>
       <use style="stroke:#000000;stroke-width:0.8;" x="36.925" xlink:href="#m065c0ce9c6" y="305.994415"/>
      </g>
     </g>
     <g id="text_9">
      <!-- 100 -->
      <g transform="translate(10.8375 309.793633)scale(0.1 -0.1)">
       <use xlink:href="#DejaVuSans-49"/>
       <use x="63.623047" xlink:href="#DejaVuSans-48"/>
       <use x="127.246094" xlink:href="#DejaVuSans-48"/>
      </g>
     </g>
    </g>
    <g id="ytick_3">
     <g id="line2d_10">
      <g>
       <use style="stroke:#000000;stroke-width:0.8;" x="36.925" xlink:href="#m065c0ce9c6" y="224.716102"/>
      </g>
     </g>
     <g id="text_10">
      <!-- 200 -->
      <g transform="translate(10.8375 228.515321)scale(0.1 -0.1)">
       <use xlink:href="#DejaVuSans-50"/>
       <use x="63.623047" xlink:href="#DejaVuSans-48"/>
       <use x="127.246094" xlink:href="#DejaVuSans-48"/>
      </g>
     </g>
    </g>
    <g id="ytick_4">
     <g id="line2d_11">
      <g>
       <use style="stroke:#000000;stroke-width:0.8;" x="36.925" xlink:href="#m065c0ce9c6" y="143.437789"/>
      </g>
     </g>
     <g id="text_11">
      <!-- 300 -->
      <g transform="translate(10.8375 147.237008)scale(0.1 -0.1)">
       <use xlink:href="#DejaVuSans-51"/>
       <use x="63.623047" xlink:href="#DejaVuSans-48"/>
       <use x="127.246094" xlink:href="#DejaVuSans-48"/>
      </g>
     </g>
    </g>
    <g id="ytick_5">
     <g id="line2d_12">
      <g>
       <use style="stroke:#000000;stroke-width:0.8;" x="36.925" xlink:href="#m065c0ce9c6" y="62.159476"/>
      </g>
     </g>
     <g id="text_12">
      <!-- 400 -->
      <defs>
       <path d="M 37.796875 64.3125 
L 12.890625 25.390625 
L 37.796875 25.390625 
z
M 35.203125 72.90625 
L 47.609375 72.90625 
L 47.609375 25.390625 
L 58.015625 25.390625 
L 58.015625 17.1875 
L 47.609375 17.1875 
L 47.609375 0 
L 37.796875 0 
L 37.796875 17.1875 
L 4.890625 17.1875 
L 4.890625 26.703125 
z
" id="DejaVuSans-52"/>
      </defs>
      <g transform="translate(10.8375 65.958695)scale(0.1 -0.1)">
       <use xlink:href="#DejaVuSans-52"/>
       <use x="63.623047" xlink:href="#DejaVuSans-48"/>
       <use x="127.246094" xlink:href="#DejaVuSans-48"/>
      </g>
     </g>
    </g>
   </g>
   <g id="patch_3">
    <path d="M 36.925 404.2 
L 36.925 31.8 
" style="fill:none;stroke:#000000;stroke-linecap:square;stroke-linejoin:miter;stroke-width:0.8;"/>
   </g>
   <g id="patch_4">
    <path d="M 565.2 404.2 
L 565.2 31.8 
" style="fill:none;stroke:#000000;stroke-linecap:square;stroke-linejoin:miter;stroke-width:0.8;"/>
   </g>
   <g id="patch_5">
    <path d="M 36.925 404.2 
L 565.2 404.2 
" style="fill:none;stroke:#000000;stroke-linecap:square;stroke-linejoin:miter;stroke-width:0.8;"/>
   </g>
   <g id="patch_6">
    <path d="M 36.925 31.8 
L 565.2 31.8 
" style="fill:none;stroke:#000000;stroke-linecap:square;stroke-linejoin:miter;stroke-width:0.8;"/>
   </g>
   <g id="text_13">
    <!-- MA - 24.54% -->
    <defs>
     <path d="M 9.1875 72.90625 
L 33.109375 72.90625 
L 49.703125 33.890625 
L 66.40625 72.90625 
L 90.28125 72.90625 
L 90.28125 0 
L 72.515625 0 
L 72.515625 53.328125 
L 55.71875 14.015625 
L 43.796875 14.015625 
L 27 53.328125 
L 27 0 
L 9.1875 0 
z
" id="DejaVuSans-Bold-77"/>
     <path d="M 53.421875 13.28125 
L 24.03125 13.28125 
L 19.390625 0 
L 0.484375 0 
L 27.484375 72.90625 
L 49.90625 72.90625 
L 76.90625 0 
L 58.015625 0 
z
M 28.71875 26.8125 
L 48.6875 26.8125 
L 38.71875 55.8125 
z
" id="DejaVuSans-Bold-65"/>
     <path id="DejaVuSans-Bold-32"/>
     <path d="M 5.421875 35.890625 
L 36.078125 35.890625 
L 36.078125 21.6875 
L 5.421875 21.6875 
z
" id="DejaVuSans-Bold-45"/>
     <path d="M 28.8125 13.8125 
L 60.890625 13.8125 
L 60.890625 0 
L 7.90625 0 
L 7.90625 13.8125 
L 34.515625 37.3125 
Q 38.09375 40.53125 39.796875 43.609375 
Q 41.5 46.6875 41.5 50 
Q 41.5 55.125 38.0625 58.25 
Q 34.625 61.375 28.90625 61.375 
Q 24.515625 61.375 19.28125 59.5 
Q 14.0625 57.625 8.109375 53.90625 
L 8.109375 69.921875 
Q 14.453125 72.015625 20.65625 73.109375 
Q 26.859375 74.21875 32.8125 74.21875 
Q 45.90625 74.21875 53.15625 68.453125 
Q 60.40625 62.703125 60.40625 52.390625 
Q 60.40625 46.4375 57.328125 41.28125 
Q 54.25 36.140625 44.390625 27.484375 
z
" id="DejaVuSans-Bold-50"/>
     <path d="M 36.8125 57.421875 
L 16.21875 26.90625 
L 36.8125 26.90625 
z
M 33.6875 72.90625 
L 54.59375 72.90625 
L 54.59375 26.90625 
L 64.984375 26.90625 
L 64.984375 13.28125 
L 54.59375 13.28125 
L 54.59375 0 
L 36.8125 0 
L 36.8125 13.28125 
L 4.5 13.28125 
L 4.5 29.390625 
z
" id="DejaVuSans-Bold-52"/>
     <path d="M 10.203125 18.890625 
L 27.78125 18.890625 
L 27.78125 0 
L 10.203125 0 
z
" id="DejaVuSans-Bold-46"/>
     <path d="M 10.59375 72.90625 
L 57.328125 72.90625 
L 57.328125 59.078125 
L 25.59375 59.078125 
L 25.59375 47.796875 
Q 27.734375 48.390625 29.90625 48.703125 
Q 32.078125 49.03125 34.421875 49.03125 
Q 47.75 49.03125 55.171875 42.359375 
Q 62.59375 35.6875 62.59375 23.78125 
Q 62.59375 11.96875 54.515625 5.265625 
Q 46.4375 -1.421875 32.078125 -1.421875 
Q 25.875 -1.421875 19.796875 -0.21875 
Q 13.71875 0.984375 7.71875 3.421875 
L 7.71875 18.21875 
Q 13.671875 14.796875 19.015625 13.078125 
Q 24.359375 11.375 29.109375 11.375 
Q 35.9375 11.375 39.859375 14.71875 
Q 43.796875 18.0625 43.796875 23.78125 
Q 43.796875 29.546875 39.859375 32.859375 
Q 35.9375 36.1875 29.109375 36.1875 
Q 25.046875 36.1875 20.453125 35.125 
Q 15.875 34.078125 10.59375 31.890625 
z
" id="DejaVuSans-Bold-53"/>
     <path d="M 77.484375 30.078125 
Q 74.03125 30.078125 72.125 27.078125 
Q 70.21875 24.078125 70.21875 18.5 
Q 70.21875 12.890625 72.09375 9.890625 
Q 73.96875 6.890625 77.484375 6.890625 
Q 81 6.890625 82.859375 9.890625 
Q 84.71875 12.890625 84.71875 18.5 
Q 84.71875 24.078125 82.828125 27.078125 
Q 80.953125 30.078125 77.484375 30.078125 
z
M 77.484375 38.28125 
Q 86.578125 38.28125 91.796875 33 
Q 97.015625 27.734375 97.015625 18.5 
Q 97.015625 9.28125 91.796875 3.921875 
Q 86.578125 -1.421875 77.484375 -1.421875 
Q 68.40625 -1.421875 63.15625 3.921875 
Q 57.90625 9.28125 57.90625 18.5 
Q 57.90625 27.6875 63.15625 32.984375 
Q 68.40625 38.28125 77.484375 38.28125 
z
M 32.71875 -1.421875 
L 21.921875 -1.421875 
L 67.484375 74.21875 
L 78.328125 74.21875 
z
M 22.703125 74.21875 
Q 31.78125 74.21875 36.984375 68.921875 
Q 42.1875 63.625 42.1875 54.390625 
Q 42.1875 45.171875 36.984375 39.84375 
Q 31.78125 34.515625 22.703125 34.515625 
Q 13.625 34.515625 8.421875 39.84375 
Q 3.21875 45.171875 3.21875 54.390625 
Q 3.21875 63.625 8.421875 68.921875 
Q 13.625 74.21875 22.703125 74.21875 
z
M 22.703125 66.015625 
Q 19.1875 66.015625 17.28125 62.984375 
Q 15.375 59.96875 15.375 54.390625 
Q 15.375 48.78125 17.28125 45.71875 
Q 19.1875 42.671875 22.703125 42.671875 
Q 26.21875 42.671875 28.09375 45.71875 
Q 29.984375 48.78125 29.984375 54.390625 
Q 29.984375 59.96875 28.078125 62.984375 
Q 26.171875 66.015625 22.703125 66.015625 
z
" id="DejaVuSans-Bold-37"/>
    </defs>
    <g transform="translate(36.925 25.8)scale(0.2 -0.2)">
     <use xlink:href="#DejaVuSans-Bold-77"/>
     <use x="99.511719" xlink:href="#DejaVuSans-Bold-65"/>
     <use x="176.904297" xlink:href="#DejaVuSans-Bold-32"/>
     <use x="211.71875" xlink:href="#DejaVuSans-Bold-45"/>
     <use x="253.222656" xlink:href="#DejaVuSans-Bold-32"/>
     <use x="288.037109" xlink:href="#DejaVuSans-Bold-50"/>
     <use x="357.617188" xlink:href="#DejaVuSans-Bold-52"/>
     <use x="427.197266" xlink:href="#DejaVuSans-Bold-46"/>
     <use x="465.185547" xlink:href="#DejaVuSans-Bold-53"/>
     <use x="534.765625" xlink:href="#DejaVuSans-Bold-52"/>
     <use x="604.345703" xlink:href="#DejaVuSans-Bold-37"/>
    </g>
   </g>
  </g>
 </g>
 <defs>
  <clipPath id="pb79a0fa44c">
   <rect height="372.4" width="528.275" x="36.925" y="31.8"/>
  </clipPath>
 </defs>
</svg>
