<?xml version="1.0" encoding="utf-8" standalone="no"?>
<!DOCTYPE svg PUBLIC "-//W3C//DTD SVG 1.1//EN"
  "http://www.w3.org/Graphics/SVG/1.1/DTD/svg11.dtd">
<!-- Created with matplotlib (https://matplotlib.org/) -->
<svg height="432pt" version="1.1" viewBox="0 0 864 432" width="864pt" xmlns="http://www.w3.org/2000/svg" xmlns:xlink="http://www.w3.org/1999/xlink">
 <defs>
  <style type="text/css">
*{stroke-linecap:butt;stroke-linejoin:round;}
  </style>
 </defs>
 <g id="figure_1">
  <g id="patch_1">
   <path d="M 0 432 
L 864 432 
L 864 0 
L 0 0 
z
" style="fill:none;"/>
  </g>
  <g id="axes_1">
   <g id="patch_2">
    <path d="M 75.175 385.2 
L 840.323864 385.2 
L 840.323864 88.8 
L 75.175 88.8 
z
" style="fill:none;"/>
   </g>
   <g id="PolyCollection_1">
    <path clip-path="url(#pc79ffa824d)" d="M 109.954494 2437.662562 
L 109.954494 261.609249 
L 113.734874 233.382415 
L 117.515253 269.649818 
L 128.856393 275.49774 
L 132.636772 336.112293 
L 136.417152 365.632412 
L 140.197532 356.972994 
L 143.977912 332.626188 
L 159.099431 371.255235 
L 162.87981 385.2 
L 166.66019 352.249878 
L 170.44057 336.22467 
L 181.781709 354.274218 
L 185.562089 301.194278 
L 189.342469 349.382106 
L 193.122849 370.749279 
L 196.903228 361.583904 
L 208.244368 327.340497 
L 212.024747 349.438553 
L 215.805127 330.433024 
L 219.585507 306.367247 
L 223.365887 320.480664 
L 238.487406 331.220525 
L 242.267785 322.673656 
L 246.048165 313.339629 
L 249.828545 302.03771 
L 261.169684 315.476175 
L 264.950064 290.904442 
L 268.730444 299.676066 
L 272.510824 257.84177 
L 276.291203 226.185106 
L 287.632343 222.474074 
L 295.193102 218.144193 
L 298.973482 223.887825 
L 302.753862 249.00217 
L 314.095001 229.406359 
L 317.875381 197.64747 
L 321.65576 181.373759 
L 325.43614 182.105846 
L 329.21652 171.125226 
L 340.557659 172.870946 
L 344.338039 195.620205 
L 348.118419 195.000839 
L 351.898799 196.183296 
L 355.679178 199.393018 
L 367.020318 158.28668 
L 370.800697 178.051487 
L 374.581077 171.688489 
L 378.361457 216.229821 
L 382.141837 224.90163 
L 393.482976 217.468552 
L 397.263356 201.757932 
L 401.043735 241.456715 
L 404.824115 224.619912 
L 408.604495 233.967362 
L 419.945634 202.884286 
L 423.726014 223.606279 
L 427.506394 220.903373 
L 431.286773 201.363837 
L 435.067153 213.526742 
L 446.408293 193.255291 
L 450.188672 216.511194 
L 453.969052 216.961736 
L 457.749432 226.816002 
L 461.529812 229.349912 
L 472.870951 223.550005 
L 476.651331 197.422199 
L 480.43171 179.290391 
L 484.21209 198.379385 
L 487.99247 168.985583 
L 499.333609 143.364422 
L 503.113989 119.657977 
L 506.894369 106.931809 
L 510.674748 114.083169 
L 514.455128 97.584359 
L 529.576647 120.502614 
L 533.357027 111.042614 
L 537.137407 102.933896 
L 540.917787 101.694993 
L 552.258926 91.277635 
L 556.039306 93.642721 
L 559.819685 93.473897 
L 563.600065 110.141531 
L 567.380445 104.679444 
L 578.721584 88.8 
L 582.501964 109.071624 
L 586.282344 126.020975 
L 590.062723 166.339124 
L 593.843103 172.758396 
L 605.184242 171.238119 
L 608.964622 211.274378 
L 612.745002 210.711287 
L 616.525382 188.41257 
L 620.305762 208.289926 
L 631.646901 208.627919 
L 635.427281 235.600361 
L 639.20766 220.396557 
L 642.98804 214.701111 
L 646.76842 193.441496 
L 658.109559 211.656082 
L 661.889939 179.907519 
L 665.670319 183.065442 
L 669.450698 182.557937 
L 673.231078 193.10316 
L 684.572217 175.452526 
L 688.352597 172.012714 
L 692.132977 220.284008 
L 695.913357 250.397162 
L 699.693737 269.908647 
L 711.034876 274.081579 
L 714.815256 255.810719 
L 718.595635 259.194256 
L 722.376015 381.677067 
L 726.156395 384.553099 
L 737.497534 337.522258 
L 741.277914 315.360355 
L 745.058294 307.070767 
L 748.838673 279.608029 
L 752.619053 260.660496 
L 763.960192 260.040097 
L 767.740572 244.757991 
L 771.520952 240.077382 
L 775.301332 249.889658 
L 779.081712 213.686101 
L 790.422851 213.85527 
L 794.203231 195.246073 
L 797.98361 199.870234 
L 801.76399 198.347548 
L 805.54437 184.277843 
L 805.54437 2437.662562 
L 805.54437 2437.662562 
L 801.76399 2437.662562 
L 797.98361 2437.662562 
L 794.203231 2437.662562 
L 790.422851 2437.662562 
L 779.081712 2437.662562 
L 775.301332 2437.662562 
L 771.520952 2437.662562 
L 767.740572 2437.662562 
L 763.960192 2437.662562 
L 752.619053 2437.662562 
L 748.838673 2437.662562 
L 745.058294 2437.662562 
L 741.277914 2437.662562 
L 737.497534 2437.662562 
L 726.156395 2437.662562 
L 722.376015 2437.662562 
L 718.595635 2437.662562 
L 714.815256 2437.662562 
L 711.034876 2437.662562 
L 699.693737 2437.662562 
L 695.913357 2437.662562 
L 692.132977 2437.662562 
L 688.352597 2437.662562 
L 684.572217 2437.662562 
L 673.231078 2437.662562 
L 669.450698 2437.662562 
L 665.670319 2437.662562 
L 661.889939 2437.662562 
L 658.109559 2437.662562 
L 646.76842 2437.662562 
L 642.98804 2437.662562 
L 639.20766 2437.662562 
L 635.427281 2437.662562 
L 631.646901 2437.662562 
L 620.305762 2437.662562 
L 616.525382 2437.662562 
L 612.745002 2437.662562 
L 608.964622 2437.662562 
L 605.184242 2437.662562 
L 593.843103 2437.662562 
L 590.062723 2437.662562 
L 586.282344 2437.662562 
L 582.501964 2437.662562 
L 578.721584 2437.662562 
L 567.380445 2437.662562 
L 563.600065 2437.662562 
L 559.819685 2437.662562 
L 556.039306 2437.662562 
L 552.258926 2437.662562 
L 540.917787 2437.662562 
L 537.137407 2437.662562 
L 533.357027 2437.662562 
L 529.576647 2437.662562 
L 514.455128 2437.662562 
L 510.674748 2437.662562 
L 506.894369 2437.662562 
L 503.113989 2437.662562 
L 499.333609 2437.662562 
L 487.99247 2437.662562 
L 484.21209 2437.662562 
L 480.43171 2437.662562 
L 476.651331 2437.662562 
L 472.870951 2437.662562 
L 461.529812 2437.662562 
L 457.749432 2437.662562 
L 453.969052 2437.662562 
L 450.188672 2437.662562 
L 446.408293 2437.662562 
L 435.067153 2437.662562 
L 431.286773 2437.662562 
L 427.506394 2437.662562 
L 423.726014 2437.662562 
L 419.945634 2437.662562 
L 408.604495 2437.662562 
L 404.824115 2437.662562 
L 401.043735 2437.662562 
L 397.263356 2437.662562 
L 393.482976 2437.662562 
L 382.141837 2437.662562 
L 378.361457 2437.662562 
L 374.581077 2437.662562 
L 370.800697 2437.662562 
L 367.020318 2437.662562 
L 355.679178 2437.662562 
L 351.898799 2437.662562 
L 348.118419 2437.662562 
L 344.338039 2437.662562 
L 340.557659 2437.662562 
L 329.21652 2437.662562 
L 325.43614 2437.662562 
L 321.65576 2437.662562 
L 317.875381 2437.662562 
L 314.095001 2437.662562 
L 302.753862 2437.662562 
L 298.973482 2437.662562 
L 295.193102 2437.662562 
L 287.632343 2437.662562 
L 276.291203 2437.662562 
L 272.510824 2437.662562 
L 268.730444 2437.662562 
L 264.950064 2437.662562 
L 261.169684 2437.662562 
L 249.828545 2437.662562 
L 246.048165 2437.662562 
L 242.267785 2437.662562 
L 238.487406 2437.662562 
L 223.365887 2437.662562 
L 219.585507 2437.662562 
L 215.805127 2437.662562 
L 212.024747 2437.662562 
L 208.244368 2437.662562 
L 196.903228 2437.662562 
L 193.122849 2437.662562 
L 189.342469 2437.662562 
L 185.562089 2437.662562 
L 181.781709 2437.662562 
L 170.44057 2437.662562 
L 166.66019 2437.662562 
L 162.87981 2437.662562 
L 159.099431 2437.662562 
L 143.977912 2437.662562 
L 140.197532 2437.662562 
L 136.417152 2437.662562 
L 132.636772 2437.662562 
L 128.856393 2437.662562 
L 117.515253 2437.662562 
L 113.734874 2437.662562 
L 109.954494 2437.662562 
z
" style="fill:#0000ff;fill-opacity:0.1;stroke:#0000ff;stroke-opacity:0.1;"/>
   </g>
   <g id="matplotlib.axis_1">
    <g id="xtick_1">
     <g id="line2d_1">
      <defs>
       <path d="M 0 0 
L 0 3.5 
" id="m9be7b14f64" style="stroke:#000000;stroke-width:0.8;"/>
      </defs>
      <g>
       <use style="stroke:#000000;stroke-width:0.8;" x="109.954494" xlink:href="#m9be7b14f64" y="385.2"/>
      </g>
     </g>
     <g id="text_1">
      <!-- 05/23 -->
      <defs>
       <path d="M 31.78125 66.40625 
Q 24.171875 66.40625 20.328125 58.90625 
Q 16.5 51.421875 16.5 36.375 
Q 16.5 21.390625 20.328125 13.890625 
Q 24.171875 6.390625 31.78125 6.390625 
Q 39.453125 6.390625 43.28125 13.890625 
Q 47.125 21.390625 47.125 36.375 
Q 47.125 51.421875 43.28125 58.90625 
Q 39.453125 66.40625 31.78125 66.40625 
z
M 31.78125 74.21875 
Q 44.046875 74.21875 50.515625 64.515625 
Q 56.984375 54.828125 56.984375 36.375 
Q 56.984375 17.96875 50.515625 8.265625 
Q 44.046875 -1.421875 31.78125 -1.421875 
Q 19.53125 -1.421875 13.0625 8.265625 
Q 6.59375 17.96875 6.59375 36.375 
Q 6.59375 54.828125 13.0625 64.515625 
Q 19.53125 74.21875 31.78125 74.21875 
z
" id="DejaVuSans-48"/>
       <path d="M 10.796875 72.90625 
L 49.515625 72.90625 
L 49.515625 64.59375 
L 19.828125 64.59375 
L 19.828125 46.734375 
Q 21.96875 47.46875 24.109375 47.828125 
Q 26.265625 48.1875 28.421875 48.1875 
Q 40.625 48.1875 47.75 41.5 
Q 54.890625 34.8125 54.890625 23.390625 
Q 54.890625 11.625 47.5625 5.09375 
Q 40.234375 -1.421875 26.90625 -1.421875 
Q 22.3125 -1.421875 17.546875 -0.640625 
Q 12.796875 0.140625 7.71875 1.703125 
L 7.71875 11.625 
Q 12.109375 9.234375 16.796875 8.0625 
Q 21.484375 6.890625 26.703125 6.890625 
Q 35.15625 6.890625 40.078125 11.328125 
Q 45.015625 15.765625 45.015625 23.390625 
Q 45.015625 31 40.078125 35.4375 
Q 35.15625 39.890625 26.703125 39.890625 
Q 22.75 39.890625 18.8125 39.015625 
Q 14.890625 38.140625 10.796875 36.28125 
z
" id="DejaVuSans-53"/>
       <path d="M 25.390625 72.90625 
L 33.6875 72.90625 
L 8.296875 -9.28125 
L 0 -9.28125 
z
" id="DejaVuSans-47"/>
       <path d="M 19.1875 8.296875 
L 53.609375 8.296875 
L 53.609375 0 
L 7.328125 0 
L 7.328125 8.296875 
Q 12.9375 14.109375 22.625 23.890625 
Q 32.328125 33.6875 34.8125 36.53125 
Q 39.546875 41.84375 41.421875 45.53125 
Q 43.3125 49.21875 43.3125 52.78125 
Q 43.3125 58.59375 39.234375 62.25 
Q 35.15625 65.921875 28.609375 65.921875 
Q 23.96875 65.921875 18.8125 64.3125 
Q 13.671875 62.703125 7.8125 59.421875 
L 7.8125 69.390625 
Q 13.765625 71.78125 18.9375 73 
Q 24.125 74.21875 28.421875 74.21875 
Q 39.75 74.21875 46.484375 68.546875 
Q 53.21875 62.890625 53.21875 53.421875 
Q 53.21875 48.921875 51.53125 44.890625 
Q 49.859375 40.875 45.40625 35.40625 
Q 44.1875 33.984375 37.640625 27.21875 
Q 31.109375 20.453125 19.1875 8.296875 
z
" id="DejaVuSans-50"/>
       <path d="M 40.578125 39.3125 
Q 47.65625 37.796875 51.625 33 
Q 55.609375 28.21875 55.609375 21.1875 
Q 55.609375 10.40625 48.1875 4.484375 
Q 40.765625 -1.421875 27.09375 -1.421875 
Q 22.515625 -1.421875 17.65625 -0.515625 
Q 12.796875 0.390625 7.625 2.203125 
L 7.625 11.71875 
Q 11.71875 9.328125 16.59375 8.109375 
Q 21.484375 6.890625 26.8125 6.890625 
Q 36.078125 6.890625 40.9375 10.546875 
Q 45.796875 14.203125 45.796875 21.1875 
Q 45.796875 27.640625 41.28125 31.265625 
Q 36.765625 34.90625 28.71875 34.90625 
L 20.21875 34.90625 
L 20.21875 43.015625 
L 29.109375 43.015625 
Q 36.375 43.015625 40.234375 45.921875 
Q 44.09375 48.828125 44.09375 54.296875 
Q 44.09375 59.90625 40.109375 62.90625 
Q 36.140625 65.921875 28.71875 65.921875 
Q 24.65625 65.921875 20.015625 65.03125 
Q 15.375 64.15625 9.8125 62.3125 
L 9.8125 71.09375 
Q 15.4375 72.65625 20.34375 73.4375 
Q 25.25 74.21875 29.59375 74.21875 
Q 40.828125 74.21875 47.359375 69.109375 
Q 53.90625 64.015625 53.90625 55.328125 
Q 53.90625 49.265625 50.4375 45.09375 
Q 46.96875 40.921875 40.578125 39.3125 
z
" id="DejaVuSans-51"/>
      </defs>
      <g transform="translate(66.726369 414.995312)scale(0.3 -0.3)">
       <use xlink:href="#DejaVuSans-48"/>
       <use x="63.623047" xlink:href="#DejaVuSans-53"/>
       <use x="127.246094" xlink:href="#DejaVuSans-47"/>
       <use x="160.9375" xlink:href="#DejaVuSans-50"/>
       <use x="224.560547" xlink:href="#DejaVuSans-51"/>
      </g>
     </g>
    </g>
    <g id="xtick_2">
     <g id="line2d_2">
      <g>
       <use style="stroke:#000000;stroke-width:0.8;" x="461.529812" xlink:href="#m9be7b14f64" y="385.2"/>
      </g>
     </g>
     <g id="text_2">
      <!-- 08/23 -->
      <defs>
       <path d="M 31.78125 34.625 
Q 24.75 34.625 20.71875 30.859375 
Q 16.703125 27.09375 16.703125 20.515625 
Q 16.703125 13.921875 20.71875 10.15625 
Q 24.75 6.390625 31.78125 6.390625 
Q 38.8125 6.390625 42.859375 10.171875 
Q 46.921875 13.96875 46.921875 20.515625 
Q 46.921875 27.09375 42.890625 30.859375 
Q 38.875 34.625 31.78125 34.625 
z
M 21.921875 38.8125 
Q 15.578125 40.375 12.03125 44.71875 
Q 8.5 49.078125 8.5 55.328125 
Q 8.5 64.0625 14.71875 69.140625 
Q 20.953125 74.21875 31.78125 74.21875 
Q 42.671875 74.21875 48.875 69.140625 
Q 55.078125 64.0625 55.078125 55.328125 
Q 55.078125 49.078125 51.53125 44.71875 
Q 48 40.375 41.703125 38.8125 
Q 48.828125 37.15625 52.796875 32.3125 
Q 56.78125 27.484375 56.78125 20.515625 
Q 56.78125 9.90625 50.3125 4.234375 
Q 43.84375 -1.421875 31.78125 -1.421875 
Q 19.734375 -1.421875 13.25 4.234375 
Q 6.78125 9.90625 6.78125 20.515625 
Q 6.78125 27.484375 10.78125 32.3125 
Q 14.796875 37.15625 21.921875 38.8125 
z
M 18.3125 54.390625 
Q 18.3125 48.734375 21.84375 45.5625 
Q 25.390625 42.390625 31.78125 42.390625 
Q 38.140625 42.390625 41.71875 45.5625 
Q 45.3125 48.734375 45.3125 54.390625 
Q 45.3125 60.0625 41.71875 63.234375 
Q 38.140625 66.40625 31.78125 66.40625 
Q 25.390625 66.40625 21.84375 63.234375 
Q 18.3125 60.0625 18.3125 54.390625 
z
" id="DejaVuSans-56"/>
      </defs>
      <g transform="translate(418.301687 414.995312)scale(0.3 -0.3)">
       <use xlink:href="#DejaVuSans-48"/>
       <use x="63.623047" xlink:href="#DejaVuSans-56"/>
       <use x="127.246094" xlink:href="#DejaVuSans-47"/>
       <use x="160.9375" xlink:href="#DejaVuSans-50"/>
       <use x="224.560547" xlink:href="#DejaVuSans-51"/>
      </g>
     </g>
    </g>
    <g id="xtick_3">
     <g id="line2d_3">
      <g>
       <use style="stroke:#000000;stroke-width:0.8;" x="805.54437" xlink:href="#m9be7b14f64" y="385.2"/>
      </g>
     </g>
     <g id="text_3">
      <!-- 11/23 -->
      <defs>
       <path d="M 12.40625 8.296875 
L 28.515625 8.296875 
L 28.515625 63.921875 
L 10.984375 60.40625 
L 10.984375 69.390625 
L 28.421875 72.90625 
L 38.28125 72.90625 
L 38.28125 8.296875 
L 54.390625 8.296875 
L 54.390625 0 
L 12.40625 0 
z
" id="DejaVuSans-49"/>
      </defs>
      <g transform="translate(762.316245 414.995312)scale(0.3 -0.3)">
       <use xlink:href="#DejaVuSans-49"/>
       <use x="63.623047" xlink:href="#DejaVuSans-49"/>
       <use x="127.246094" xlink:href="#DejaVuSans-47"/>
       <use x="160.9375" xlink:href="#DejaVuSans-50"/>
       <use x="224.560547" xlink:href="#DejaVuSans-51"/>
      </g>
     </g>
    </g>
   </g>
   <g id="matplotlib.axis_2">
    <g id="ytick_1">
     <g id="line2d_4">
      <defs>
       <path d="M 0 0 
L -3.5 0 
" id="mef10da92fe" style="stroke:#000000;stroke-width:0.8;"/>
      </defs>
      <g>
       <use style="stroke:#000000;stroke-width:0.8;" x="75.175" xlink:href="#mef10da92fe" y="294.777414"/>
      </g>
     </g>
     <g id="text_4">
      <!-- 380 -->
      <g transform="translate(10.9125 306.17507)scale(0.3 -0.3)">
       <use xlink:href="#DejaVuSans-51"/>
       <use x="63.623047" xlink:href="#DejaVuSans-56"/>
       <use x="127.246094" xlink:href="#DejaVuSans-48"/>
      </g>
     </g>
    </g>
    <g id="ytick_2">
     <g id="line2d_5">
      <g>
       <use style="stroke:#000000;stroke-width:0.8;" x="75.175" xlink:href="#mef10da92fe" y="181.993985"/>
      </g>
     </g>
     <g id="text_5">
      <!-- 400 -->
      <defs>
       <path d="M 37.796875 64.3125 
L 12.890625 25.390625 
L 37.796875 25.390625 
z
M 35.203125 72.90625 
L 47.609375 72.90625 
L 47.609375 25.390625 
L 58.015625 25.390625 
L 58.015625 17.1875 
L 47.609375 17.1875 
L 47.609375 0 
L 37.796875 0 
L 37.796875 17.1875 
L 4.890625 17.1875 
L 4.890625 26.703125 
z
" id="DejaVuSans-52"/>
      </defs>
      <g transform="translate(10.9125 193.391642)scale(0.3 -0.3)">
       <use xlink:href="#DejaVuSans-52"/>
       <use x="63.623047" xlink:href="#DejaVuSans-48"/>
       <use x="127.246094" xlink:href="#DejaVuSans-48"/>
      </g>
     </g>
    </g>
   </g>
   <g id="line2d_6">
    <path clip-path="url(#pc79ffa824d)" d="M 109.954494 261.609249 
L 113.734874 233.382415 
L 117.515253 269.649818 
L 128.856393 275.49774 
L 132.636772 336.112293 
L 136.417152 365.632412 
L 140.197532 356.972994 
L 143.977912 332.626188 
L 159.099431 371.255235 
L 162.87981 385.2 
L 166.66019 352.249878 
L 170.44057 336.22467 
L 181.781709 354.274218 
L 185.562089 301.194278 
L 189.342469 349.382106 
L 193.122849 370.749279 
L 196.903228 361.583904 
L 208.244368 327.340497 
L 212.024747 349.438553 
L 215.805127 330.433024 
L 219.585507 306.367247 
L 223.365887 320.480664 
L 238.487406 331.220525 
L 242.267785 322.673656 
L 246.048165 313.339629 
L 249.828545 302.03771 
L 261.169684 315.476175 
L 264.950064 290.904442 
L 268.730444 299.676066 
L 272.510824 257.84177 
L 276.291203 226.185106 
L 287.632343 222.474074 
L 295.193102 218.144193 
L 298.973482 223.887825 
L 302.753862 249.00217 
L 314.095001 229.406359 
L 317.875381 197.64747 
L 321.65576 181.373759 
L 325.43614 182.105846 
L 329.21652 171.125226 
L 340.557659 172.870946 
L 344.338039 195.620205 
L 348.118419 195.000839 
L 351.898799 196.183296 
L 355.679178 199.393018 
L 367.020318 158.28668 
L 370.800697 178.051487 
L 374.581077 171.688489 
L 378.361457 216.229821 
L 382.141837 224.90163 
L 393.482976 217.468552 
L 397.263356 201.757932 
L 401.043735 241.456715 
L 404.824115 224.619912 
L 408.604495 233.967362 
L 419.945634 202.884286 
L 423.726014 223.606279 
L 427.506394 220.903373 
L 431.286773 201.363837 
L 435.067153 213.526742 
L 446.408293 193.255291 
L 450.188672 216.511194 
L 453.969052 216.961736 
L 457.749432 226.816002 
L 461.529812 229.349912 
L 472.870951 223.550005 
L 476.651331 197.422199 
L 480.43171 179.290391 
L 484.21209 198.379385 
L 487.99247 168.985583 
L 499.333609 143.364422 
L 503.113989 119.657977 
L 506.894369 106.931809 
L 510.674748 114.083169 
L 514.455128 97.584359 
L 529.576647 120.502614 
L 533.357027 111.042614 
L 537.137407 102.933896 
L 540.917787 101.694993 
L 552.258926 91.277635 
L 556.039306 93.642721 
L 559.819685 93.473897 
L 563.600065 110.141531 
L 567.380445 104.679444 
L 578.721584 88.8 
L 582.501964 109.071624 
L 586.282344 126.020975 
L 590.062723 166.339124 
L 593.843103 172.758396 
L 605.184242 171.238119 
L 608.964622 211.274378 
L 612.745002 210.711287 
L 616.525382 188.41257 
L 620.305762 208.289926 
L 631.646901 208.627919 
L 635.427281 235.600361 
L 639.20766 220.396557 
L 642.98804 214.701111 
L 646.76842 193.441496 
L 658.109559 211.656082 
L 661.889939 179.907519 
L 665.670319 183.065442 
L 669.450698 182.557937 
L 673.231078 193.10316 
L 684.572217 175.452526 
L 688.352597 172.012714 
L 692.132977 220.284008 
L 695.913357 250.397162 
L 699.693737 269.908647 
L 711.034876 274.081579 
L 714.815256 255.810719 
L 718.595635 259.194256 
L 722.376015 381.677067 
L 726.156395 384.553099 
L 737.497534 337.522258 
L 741.277914 315.360355 
L 745.058294 307.070767 
L 748.838673 279.608029 
L 752.619053 260.660496 
L 763.960192 260.040097 
L 767.740572 244.757991 
L 771.520952 240.077382 
L 775.301332 249.889658 
L 779.081712 213.686101 
L 790.422851 213.85527 
L 794.203231 195.246073 
L 797.98361 199.870234 
L 801.76399 198.347548 
L 805.54437 184.277843 
L 805.54437 184.277843 
" style="fill:none;stroke:#000000;stroke-linecap:square;stroke-width:4;"/>
   </g>
   <g id="patch_3">
    <path d="M 75.175 385.2 
L 75.175 88.8 
" style="fill:none;stroke:#000000;stroke-linecap:square;stroke-linejoin:miter;stroke-width:0.8;"/>
   </g>
   <g id="patch_4">
    <path d="M 75.175 385.2 
L 840.323864 385.2 
" style="fill:none;stroke:#000000;stroke-linecap:square;stroke-linejoin:miter;stroke-width:0.8;"/>
   </g>
   <g id="text_6">
    <!-- MA   3% -->
    <defs>
     <path d="M 9.1875 72.90625 
L 33.109375 72.90625 
L 49.703125 33.890625 
L 66.40625 72.90625 
L 90.28125 72.90625 
L 90.28125 0 
L 72.515625 0 
L 72.515625 53.328125 
L 55.71875 14.015625 
L 43.796875 14.015625 
L 27 53.328125 
L 27 0 
L 9.1875 0 
z
" id="DejaVuSans-Bold-77"/>
     <path d="M 53.421875 13.28125 
L 24.03125 13.28125 
L 19.390625 0 
L 0.484375 0 
L 27.484375 72.90625 
L 49.90625 72.90625 
L 76.90625 0 
L 58.015625 0 
z
M 28.71875 26.8125 
L 48.6875 26.8125 
L 38.71875 55.8125 
z
" id="DejaVuSans-Bold-65"/>
     <path id="DejaVuSans-Bold-32"/>
     <path d="M 46.578125 39.3125 
Q 53.953125 37.40625 57.78125 32.6875 
Q 61.625 27.984375 61.625 20.703125 
Q 61.625 9.859375 53.3125 4.21875 
Q 45.015625 -1.421875 29.109375 -1.421875 
Q 23.484375 -1.421875 17.84375 -0.515625 
Q 12.203125 0.390625 6.6875 2.203125 
L 6.6875 16.703125 
Q 11.96875 14.0625 17.15625 12.71875 
Q 22.359375 11.375 27.390625 11.375 
Q 34.859375 11.375 38.84375 13.953125 
Q 42.828125 16.546875 42.828125 21.390625 
Q 42.828125 26.375 38.75 28.9375 
Q 34.671875 31.5 26.703125 31.5 
L 19.1875 31.5 
L 19.1875 43.609375 
L 27.09375 43.609375 
Q 34.1875 43.609375 37.640625 45.828125 
Q 41.109375 48.046875 41.109375 52.59375 
Q 41.109375 56.78125 37.734375 59.078125 
Q 34.375 61.375 28.21875 61.375 
Q 23.6875 61.375 19.046875 60.34375 
Q 14.40625 59.328125 9.8125 57.328125 
L 9.8125 71.09375 
Q 15.375 72.65625 20.84375 73.4375 
Q 26.3125 74.21875 31.59375 74.21875 
Q 45.796875 74.21875 52.84375 69.546875 
Q 59.90625 64.890625 59.90625 55.515625 
Q 59.90625 49.125 56.53125 45.046875 
Q 53.171875 40.96875 46.578125 39.3125 
z
" id="DejaVuSans-Bold-51"/>
     <path d="M 77.484375 30.078125 
Q 74.03125 30.078125 72.125 27.078125 
Q 70.21875 24.078125 70.21875 18.5 
Q 70.21875 12.890625 72.09375 9.890625 
Q 73.96875 6.890625 77.484375 6.890625 
Q 81 6.890625 82.859375 9.890625 
Q 84.71875 12.890625 84.71875 18.5 
Q 84.71875 24.078125 82.828125 27.078125 
Q 80.953125 30.078125 77.484375 30.078125 
z
M 77.484375 38.28125 
Q 86.578125 38.28125 91.796875 33 
Q 97.015625 27.734375 97.015625 18.5 
Q 97.015625 9.28125 91.796875 3.921875 
Q 86.578125 -1.421875 77.484375 -1.421875 
Q 68.40625 -1.421875 63.15625 3.921875 
Q 57.90625 9.28125 57.90625 18.5 
Q 57.90625 27.6875 63.15625 32.984375 
Q 68.40625 38.28125 77.484375 38.28125 
z
M 32.71875 -1.421875 
L 21.921875 -1.421875 
L 67.484375 74.21875 
L 78.328125 74.21875 
z
M 22.703125 74.21875 
Q 31.78125 74.21875 36.984375 68.921875 
Q 42.1875 63.625 42.1875 54.390625 
Q 42.1875 45.171875 36.984375 39.84375 
Q 31.78125 34.515625 22.703125 34.515625 
Q 13.625 34.515625 8.421875 39.84375 
Q 3.21875 45.171875 3.21875 54.390625 
Q 3.21875 63.625 8.421875 68.921875 
Q 13.625 74.21875 22.703125 74.21875 
z
M 22.703125 66.015625 
Q 19.1875 66.015625 17.28125 62.984375 
Q 15.375 59.96875 15.375 54.390625 
Q 15.375 48.78125 17.28125 45.71875 
Q 19.1875 42.671875 22.703125 42.671875 
Q 26.21875 42.671875 28.09375 45.71875 
Q 29.984375 48.78125 29.984375 54.390625 
Q 29.984375 59.96875 28.078125 62.984375 
Q 26.171875 66.015625 22.703125 66.015625 
z
" id="DejaVuSans-Bold-37"/>
    </defs>
    <g transform="translate(75.175 72.1625)scale(0.8 -0.8)">
     <use xlink:href="#DejaVuSans-Bold-77"/>
     <use x="99.511719" xlink:href="#DejaVuSans-Bold-65"/>
     <use x="176.904297" xlink:href="#DejaVuSans-Bold-32"/>
     <use x="211.71875" xlink:href="#DejaVuSans-Bold-32"/>
     <use x="246.533203" xlink:href="#DejaVuSans-Bold-32"/>
     <use x="281.347656" xlink:href="#DejaVuSans-Bold-51"/>
     <use x="350.927734" xlink:href="#DejaVuSans-Bold-37"/>
    </g>
   </g>
  </g>
 </g>
 <defs>
  <clipPath id="pc79ffa824d">
   <rect height="296.4" width="765.148864" x="75.175" y="88.8"/>
  </clipPath>
 </defs>
</svg>
