<?xml version="1.0" encoding="utf-8" standalone="no"?>
<!DOCTYPE svg PUBLIC "-//W3C//DTD SVG 1.1//EN"
  "http://www.w3.org/Graphics/SVG/1.1/DTD/svg11.dtd">
<!-- Created with matplotlib (https://matplotlib.org/) -->
<svg height="432pt" version="1.1" viewBox="0 0 864 432" width="864pt" xmlns="http://www.w3.org/2000/svg" xmlns:xlink="http://www.w3.org/1999/xlink">
 <defs>
  <style type="text/css">
*{stroke-linecap:butt;stroke-linejoin:round;}
  </style>
 </defs>
 <g id="figure_1">
  <g id="patch_1">
   <path d="M 0 432 
L 864 432 
L 864 0 
L 0 0 
z
" style="fill:none;"/>
  </g>
  <g id="axes_1">
   <g id="patch_2">
    <path d="M 75.175 385.2 
L 840.323864 385.2 
L 840.323864 88.8 
L 75.175 88.8 
z
" style="fill:none;"/>
   </g>
   <g id="PolyCollection_1">
    <path clip-path="url(#pbd9383751a)" d="M 109.954494 895.685394 
L 109.954494 380.203838 
L 113.734874 367.067949 
L 117.515253 353.557795 
L 121.295633 380.765236 
L 132.636772 365.589676 
L 136.417152 385.2 
L 140.197532 376.274338 
L 143.977912 362.558321 
L 147.758291 365.458734 
L 162.87981 348.599094 
L 166.66019 345.941948 
L 170.44057 345.623874 
L 174.22095 191.548268 
L 185.562089 168.588458 
L 189.342469 170.366133 
L 193.122849 206.031432 
L 196.903228 194.598296 
L 200.683608 194.897697 
L 212.024747 181.275275 
L 215.805127 176.952779 
L 219.585507 194.748025 
L 223.365887 174.520226 
L 227.146266 184.811893 
L 242.267785 185.036429 
L 246.048165 197.79811 
L 249.828545 168.981454 
L 253.608925 165.931369 
L 264.950064 184.662164 
L 268.730444 169.018858 
L 272.510824 150.905537 
L 276.291203 141.60561 
L 280.071583 126.635913 
L 291.412722 125.831248 
L 298.973482 129.293002 
L 302.753862 149.034325 
L 306.534241 168.49492 
L 317.875381 157.267647 
L 321.65576 158.016121 
L 325.43614 163.891754 
L 329.21652 133.709093 
L 332.9969 149.67053 
L 344.338039 130.041476 
L 348.118419 98.511596 
L 351.898799 88.8 
L 355.679178 123.548367 
L 359.459558 128.900064 
L 370.800697 127.403117 
L 374.581077 111.703619 
L 378.361457 137.582458 
L 382.141837 140.501602 
L 385.922216 125.45704 
L 397.263356 103.414163 
L 401.043735 101.224819 
L 404.824115 149.558262 
L 408.604495 141.961145 
L 412.384875 144.2627 
L 423.726014 151.785009 
L 427.506394 202.981347 
L 431.286773 222.049004 
L 435.067153 222.68521 
L 438.847533 229.122184 
L 450.188672 213.796952 
L 453.969052 208.314314 
L 457.749432 224.238348 
L 461.529812 238.571783 
L 465.310191 239.208045 
L 476.651331 224.66869 
L 480.43171 218.231715 
L 484.21209 201.952204 
L 487.99247 220.645595 
L 491.77285 215.574626 
L 503.113989 232.677476 
L 506.894369 208.239449 
L 510.674748 193.007812 
L 514.455128 182.192207 
L 518.235508 160.523538 
L 533.357027 158.184523 
L 537.137407 180.395803 
L 540.917787 189.227926 
L 544.698166 189.695729 
L 556.039306 157.903853 
L 559.819685 194.785429 
L 563.600065 200.829465 
L 567.380445 210.971403 
L 571.160825 218.063313 
L 582.501964 228.523382 
L 586.282344 230.263653 
L 590.062723 237.654907 
L 593.843103 271.411591 
L 597.623483 267.40717 
L 608.964622 271.991662 
L 612.745002 286.98009 
L 616.525382 281.628394 
L 620.305762 253.653806 
L 624.086141 248.507972 
L 635.427281 242.491975 
L 639.20766 275.172746 
L 642.98804 267.051635 
L 646.76842 265.498554 
L 650.5488 233.987347 
L 661.889939 225.211357 
L 665.670319 224.911957 
L 669.450698 212.281274 
L 673.231078 213.90922 
L 677.011458 239.488716 
L 688.352597 206.779906 
L 692.132977 211.383072 
L 695.913357 224.519018 
L 699.693737 225.791429 
L 703.474116 247.722038 
L 714.815256 255.206887 
L 718.595635 236.943837 
L 722.376015 279.439107 
L 726.156395 283.181532 
L 729.936775 268.249238 
L 741.277914 266.396756 
L 745.058294 250.884391 
L 748.838673 261.307057 
L 752.619053 280.056582 
L 756.399433 253.653806 
L 767.740572 273.78801 
L 771.520952 205.13323 
L 775.301332 203.262018 
L 779.081712 212.112872 
L 782.862091 190.444203 
L 794.203231 188.423319 
L 797.98361 151.37334 
L 801.76399 161.084936 
L 805.54437 167.727717 
L 805.54437 895.685394 
L 805.54437 895.685394 
L 801.76399 895.685394 
L 797.98361 895.685394 
L 794.203231 895.685394 
L 782.862091 895.685394 
L 779.081712 895.685394 
L 775.301332 895.685394 
L 771.520952 895.685394 
L 767.740572 895.685394 
L 756.399433 895.685394 
L 752.619053 895.685394 
L 748.838673 895.685394 
L 745.058294 895.685394 
L 741.277914 895.685394 
L 729.936775 895.685394 
L 726.156395 895.685394 
L 722.376015 895.685394 
L 718.595635 895.685394 
L 714.815256 895.685394 
L 703.474116 895.685394 
L 699.693737 895.685394 
L 695.913357 895.685394 
L 692.132977 895.685394 
L 688.352597 895.685394 
L 677.011458 895.685394 
L 673.231078 895.685394 
L 669.450698 895.685394 
L 665.670319 895.685394 
L 661.889939 895.685394 
L 650.5488 895.685394 
L 646.76842 895.685394 
L 642.98804 895.685394 
L 639.20766 895.685394 
L 635.427281 895.685394 
L 624.086141 895.685394 
L 620.305762 895.685394 
L 616.525382 895.685394 
L 612.745002 895.685394 
L 608.964622 895.685394 
L 597.623483 895.685394 
L 593.843103 895.685394 
L 590.062723 895.685394 
L 586.282344 895.685394 
L 582.501964 895.685394 
L 571.160825 895.685394 
L 567.380445 895.685394 
L 563.600065 895.685394 
L 559.819685 895.685394 
L 556.039306 895.685394 
L 544.698166 895.685394 
L 540.917787 895.685394 
L 537.137407 895.685394 
L 533.357027 895.685394 
L 518.235508 895.685394 
L 514.455128 895.685394 
L 510.674748 895.685394 
L 506.894369 895.685394 
L 503.113989 895.685394 
L 491.77285 895.685394 
L 487.99247 895.685394 
L 484.21209 895.685394 
L 480.43171 895.685394 
L 476.651331 895.685394 
L 465.310191 895.685394 
L 461.529812 895.685394 
L 457.749432 895.685394 
L 453.969052 895.685394 
L 450.188672 895.685394 
L 438.847533 895.685394 
L 435.067153 895.685394 
L 431.286773 895.685394 
L 427.506394 895.685394 
L 423.726014 895.685394 
L 412.384875 895.685394 
L 408.604495 895.685394 
L 404.824115 895.685394 
L 401.043735 895.685394 
L 397.263356 895.685394 
L 385.922216 895.685394 
L 382.141837 895.685394 
L 378.361457 895.685394 
L 374.581077 895.685394 
L 370.800697 895.685394 
L 359.459558 895.685394 
L 355.679178 895.685394 
L 351.898799 895.685394 
L 348.118419 895.685394 
L 344.338039 895.685394 
L 332.9969 895.685394 
L 329.21652 895.685394 
L 325.43614 895.685394 
L 321.65576 895.685394 
L 317.875381 895.685394 
L 306.534241 895.685394 
L 302.753862 895.685394 
L 298.973482 895.685394 
L 291.412722 895.685394 
L 280.071583 895.685394 
L 276.291203 895.685394 
L 272.510824 895.685394 
L 268.730444 895.685394 
L 264.950064 895.685394 
L 253.608925 895.685394 
L 249.828545 895.685394 
L 246.048165 895.685394 
L 242.267785 895.685394 
L 227.146266 895.685394 
L 223.365887 895.685394 
L 219.585507 895.685394 
L 215.805127 895.685394 
L 212.024747 895.685394 
L 200.683608 895.685394 
L 196.903228 895.685394 
L 193.122849 895.685394 
L 189.342469 895.685394 
L 185.562089 895.685394 
L 174.22095 895.685394 
L 170.44057 895.685394 
L 166.66019 895.685394 
L 162.87981 895.685394 
L 147.758291 895.685394 
L 143.977912 895.685394 
L 140.197532 895.685394 
L 136.417152 895.685394 
L 132.636772 895.685394 
L 121.295633 895.685394 
L 117.515253 895.685394 
L 113.734874 895.685394 
L 109.954494 895.685394 
z
" style="fill:#0000ff;fill-opacity:0.1;stroke:#0000ff;stroke-opacity:0.1;"/>
   </g>
   <g id="matplotlib.axis_1">
    <g id="xtick_1">
     <g id="line2d_1">
      <defs>
       <path d="M 0 0 
L 0 3.5 
" id="m6622b57f14" style="stroke:#000000;stroke-width:0.8;"/>
      </defs>
      <g>
       <use style="stroke:#000000;stroke-width:0.8;" x="109.954494" xlink:href="#m6622b57f14" y="385.2"/>
      </g>
     </g>
     <g id="text_1">
      <!-- 05/23 -->
      <defs>
       <path d="M 31.78125 66.40625 
Q 24.171875 66.40625 20.328125 58.90625 
Q 16.5 51.421875 16.5 36.375 
Q 16.5 21.390625 20.328125 13.890625 
Q 24.171875 6.390625 31.78125 6.390625 
Q 39.453125 6.390625 43.28125 13.890625 
Q 47.125 21.390625 47.125 36.375 
Q 47.125 51.421875 43.28125 58.90625 
Q 39.453125 66.40625 31.78125 66.40625 
z
M 31.78125 74.21875 
Q 44.046875 74.21875 50.515625 64.515625 
Q 56.984375 54.828125 56.984375 36.375 
Q 56.984375 17.96875 50.515625 8.265625 
Q 44.046875 -1.421875 31.78125 -1.421875 
Q 19.53125 -1.421875 13.0625 8.265625 
Q 6.59375 17.96875 6.59375 36.375 
Q 6.59375 54.828125 13.0625 64.515625 
Q 19.53125 74.21875 31.78125 74.21875 
z
" id="DejaVuSans-48"/>
       <path d="M 10.796875 72.90625 
L 49.515625 72.90625 
L 49.515625 64.59375 
L 19.828125 64.59375 
L 19.828125 46.734375 
Q 21.96875 47.46875 24.109375 47.828125 
Q 26.265625 48.1875 28.421875 48.1875 
Q 40.625 48.1875 47.75 41.5 
Q 54.890625 34.8125 54.890625 23.390625 
Q 54.890625 11.625 47.5625 5.09375 
Q 40.234375 -1.421875 26.90625 -1.421875 
Q 22.3125 -1.421875 17.546875 -0.640625 
Q 12.796875 0.140625 7.71875 1.703125 
L 7.71875 11.625 
Q 12.109375 9.234375 16.796875 8.0625 
Q 21.484375 6.890625 26.703125 6.890625 
Q 35.15625 6.890625 40.078125 11.328125 
Q 45.015625 15.765625 45.015625 23.390625 
Q 45.015625 31 40.078125 35.4375 
Q 35.15625 39.890625 26.703125 39.890625 
Q 22.75 39.890625 18.8125 39.015625 
Q 14.890625 38.140625 10.796875 36.28125 
z
" id="DejaVuSans-53"/>
       <path d="M 25.390625 72.90625 
L 33.6875 72.90625 
L 8.296875 -9.28125 
L 0 -9.28125 
z
" id="DejaVuSans-47"/>
       <path d="M 19.1875 8.296875 
L 53.609375 8.296875 
L 53.609375 0 
L 7.328125 0 
L 7.328125 8.296875 
Q 12.9375 14.109375 22.625 23.890625 
Q 32.328125 33.6875 34.8125 36.53125 
Q 39.546875 41.84375 41.421875 45.53125 
Q 43.3125 49.21875 43.3125 52.78125 
Q 43.3125 58.59375 39.234375 62.25 
Q 35.15625 65.921875 28.609375 65.921875 
Q 23.96875 65.921875 18.8125 64.3125 
Q 13.671875 62.703125 7.8125 59.421875 
L 7.8125 69.390625 
Q 13.765625 71.78125 18.9375 73 
Q 24.125 74.21875 28.421875 74.21875 
Q 39.75 74.21875 46.484375 68.546875 
Q 53.21875 62.890625 53.21875 53.421875 
Q 53.21875 48.921875 51.53125 44.890625 
Q 49.859375 40.875 45.40625 35.40625 
Q 44.1875 33.984375 37.640625 27.21875 
Q 31.109375 20.453125 19.1875 8.296875 
z
" id="DejaVuSans-50"/>
       <path d="M 40.578125 39.3125 
Q 47.65625 37.796875 51.625 33 
Q 55.609375 28.21875 55.609375 21.1875 
Q 55.609375 10.40625 48.1875 4.484375 
Q 40.765625 -1.421875 27.09375 -1.421875 
Q 22.515625 -1.421875 17.65625 -0.515625 
Q 12.796875 0.390625 7.625 2.203125 
L 7.625 11.71875 
Q 11.71875 9.328125 16.59375 8.109375 
Q 21.484375 6.890625 26.8125 6.890625 
Q 36.078125 6.890625 40.9375 10.546875 
Q 45.796875 14.203125 45.796875 21.1875 
Q 45.796875 27.640625 41.28125 31.265625 
Q 36.765625 34.90625 28.71875 34.90625 
L 20.21875 34.90625 
L 20.21875 43.015625 
L 29.109375 43.015625 
Q 36.375 43.015625 40.234375 45.921875 
Q 44.09375 48.828125 44.09375 54.296875 
Q 44.09375 59.90625 40.109375 62.90625 
Q 36.140625 65.921875 28.71875 65.921875 
Q 24.65625 65.921875 20.015625 65.03125 
Q 15.375 64.15625 9.8125 62.3125 
L 9.8125 71.09375 
Q 15.4375 72.65625 20.34375 73.4375 
Q 25.25 74.21875 29.59375 74.21875 
Q 40.828125 74.21875 47.359375 69.109375 
Q 53.90625 64.015625 53.90625 55.328125 
Q 53.90625 49.265625 50.4375 45.09375 
Q 46.96875 40.921875 40.578125 39.3125 
z
" id="DejaVuSans-51"/>
      </defs>
      <g transform="translate(66.726369 414.995312)scale(0.3 -0.3)">
       <use xlink:href="#DejaVuSans-48"/>
       <use x="63.623047" xlink:href="#DejaVuSans-53"/>
       <use x="127.246094" xlink:href="#DejaVuSans-47"/>
       <use x="160.9375" xlink:href="#DejaVuSans-50"/>
       <use x="224.560547" xlink:href="#DejaVuSans-51"/>
      </g>
     </g>
    </g>
    <g id="xtick_2">
     <g id="line2d_2">
      <g>
       <use style="stroke:#000000;stroke-width:0.8;" x="461.529812" xlink:href="#m6622b57f14" y="385.2"/>
      </g>
     </g>
     <g id="text_2">
      <!-- 08/23 -->
      <defs>
       <path d="M 31.78125 34.625 
Q 24.75 34.625 20.71875 30.859375 
Q 16.703125 27.09375 16.703125 20.515625 
Q 16.703125 13.921875 20.71875 10.15625 
Q 24.75 6.390625 31.78125 6.390625 
Q 38.8125 6.390625 42.859375 10.171875 
Q 46.921875 13.96875 46.921875 20.515625 
Q 46.921875 27.09375 42.890625 30.859375 
Q 38.875 34.625 31.78125 34.625 
z
M 21.921875 38.8125 
Q 15.578125 40.375 12.03125 44.71875 
Q 8.5 49.078125 8.5 55.328125 
Q 8.5 64.0625 14.71875 69.140625 
Q 20.953125 74.21875 31.78125 74.21875 
Q 42.671875 74.21875 48.875 69.140625 
Q 55.078125 64.0625 55.078125 55.328125 
Q 55.078125 49.078125 51.53125 44.71875 
Q 48 40.375 41.703125 38.8125 
Q 48.828125 37.15625 52.796875 32.3125 
Q 56.78125 27.484375 56.78125 20.515625 
Q 56.78125 9.90625 50.3125 4.234375 
Q 43.84375 -1.421875 31.78125 -1.421875 
Q 19.734375 -1.421875 13.25 4.234375 
Q 6.78125 9.90625 6.78125 20.515625 
Q 6.78125 27.484375 10.78125 32.3125 
Q 14.796875 37.15625 21.921875 38.8125 
z
M 18.3125 54.390625 
Q 18.3125 48.734375 21.84375 45.5625 
Q 25.390625 42.390625 31.78125 42.390625 
Q 38.140625 42.390625 41.71875 45.5625 
Q 45.3125 48.734375 45.3125 54.390625 
Q 45.3125 60.0625 41.71875 63.234375 
Q 38.140625 66.40625 31.78125 66.40625 
Q 25.390625 66.40625 21.84375 63.234375 
Q 18.3125 60.0625 18.3125 54.390625 
z
" id="DejaVuSans-56"/>
      </defs>
      <g transform="translate(418.301687 414.995312)scale(0.3 -0.3)">
       <use xlink:href="#DejaVuSans-48"/>
       <use x="63.623047" xlink:href="#DejaVuSans-56"/>
       <use x="127.246094" xlink:href="#DejaVuSans-47"/>
       <use x="160.9375" xlink:href="#DejaVuSans-50"/>
       <use x="224.560547" xlink:href="#DejaVuSans-51"/>
      </g>
     </g>
    </g>
    <g id="xtick_3">
     <g id="line2d_3">
      <g>
       <use style="stroke:#000000;stroke-width:0.8;" x="805.54437" xlink:href="#m6622b57f14" y="385.2"/>
      </g>
     </g>
     <g id="text_3">
      <!-- 11/23 -->
      <defs>
       <path d="M 12.40625 8.296875 
L 28.515625 8.296875 
L 28.515625 63.921875 
L 10.984375 60.40625 
L 10.984375 69.390625 
L 28.421875 72.90625 
L 38.28125 72.90625 
L 38.28125 8.296875 
L 54.390625 8.296875 
L 54.390625 0 
L 12.40625 0 
z
" id="DejaVuSans-49"/>
      </defs>
      <g transform="translate(762.316245 414.995312)scale(0.3 -0.3)">
       <use xlink:href="#DejaVuSans-49"/>
       <use x="63.623047" xlink:href="#DejaVuSans-49"/>
       <use x="127.246094" xlink:href="#DejaVuSans-47"/>
       <use x="160.9375" xlink:href="#DejaVuSans-50"/>
       <use x="224.560547" xlink:href="#DejaVuSans-51"/>
      </g>
     </g>
    </g>
   </g>
   <g id="matplotlib.axis_2">
    <g id="ytick_1">
     <g id="line2d_4">
      <defs>
       <path d="M 0 0 
L -3.5 0 
" id="m9decb80ede" style="stroke:#000000;stroke-width:0.8;"/>
      </defs>
      <g>
       <use style="stroke:#000000;stroke-width:0.8;" x="75.175" xlink:href="#m9decb80ede" y="334.321736"/>
      </g>
     </g>
     <g id="text_4">
      <!-- 300 -->
      <g transform="translate(10.9125 345.719392)scale(0.3 -0.3)">
       <use xlink:href="#DejaVuSans-51"/>
       <use x="63.623047" xlink:href="#DejaVuSans-48"/>
       <use x="127.246094" xlink:href="#DejaVuSans-48"/>
      </g>
     </g>
    </g>
    <g id="ytick_2">
     <g id="line2d_5">
      <g>
       <use style="stroke:#000000;stroke-width:0.8;" x="75.175" xlink:href="#m9decb80ede" y="222.049004"/>
      </g>
     </g>
     <g id="text_5">
      <!-- 360 -->
      <defs>
       <path d="M 33.015625 40.375 
Q 26.375 40.375 22.484375 35.828125 
Q 18.609375 31.296875 18.609375 23.390625 
Q 18.609375 15.53125 22.484375 10.953125 
Q 26.375 6.390625 33.015625 6.390625 
Q 39.65625 6.390625 43.53125 10.953125 
Q 47.40625 15.53125 47.40625 23.390625 
Q 47.40625 31.296875 43.53125 35.828125 
Q 39.65625 40.375 33.015625 40.375 
z
M 52.59375 71.296875 
L 52.59375 62.3125 
Q 48.875 64.0625 45.09375 64.984375 
Q 41.3125 65.921875 37.59375 65.921875 
Q 27.828125 65.921875 22.671875 59.328125 
Q 17.53125 52.734375 16.796875 39.40625 
Q 19.671875 43.65625 24.015625 45.921875 
Q 28.375 48.1875 33.59375 48.1875 
Q 44.578125 48.1875 50.953125 41.515625 
Q 57.328125 34.859375 57.328125 23.390625 
Q 57.328125 12.15625 50.6875 5.359375 
Q 44.046875 -1.421875 33.015625 -1.421875 
Q 20.359375 -1.421875 13.671875 8.265625 
Q 6.984375 17.96875 6.984375 36.375 
Q 6.984375 53.65625 15.1875 63.9375 
Q 23.390625 74.21875 37.203125 74.21875 
Q 40.921875 74.21875 44.703125 73.484375 
Q 48.484375 72.75 52.59375 71.296875 
z
" id="DejaVuSans-54"/>
      </defs>
      <g transform="translate(10.9125 233.446661)scale(0.3 -0.3)">
       <use xlink:href="#DejaVuSans-51"/>
       <use x="63.623047" xlink:href="#DejaVuSans-54"/>
       <use x="127.246094" xlink:href="#DejaVuSans-48"/>
      </g>
     </g>
    </g>
    <g id="ytick_3">
     <g id="line2d_6">
      <g>
       <use style="stroke:#000000;stroke-width:0.8;" x="75.175" xlink:href="#m9decb80ede" y="109.776273"/>
      </g>
     </g>
     <g id="text_6">
      <!-- 420 -->
      <defs>
       <path d="M 37.796875 64.3125 
L 12.890625 25.390625 
L 37.796875 25.390625 
z
M 35.203125 72.90625 
L 47.609375 72.90625 
L 47.609375 25.390625 
L 58.015625 25.390625 
L 58.015625 17.1875 
L 47.609375 17.1875 
L 47.609375 0 
L 37.796875 0 
L 37.796875 17.1875 
L 4.890625 17.1875 
L 4.890625 26.703125 
z
" id="DejaVuSans-52"/>
      </defs>
      <g transform="translate(10.9125 121.173929)scale(0.3 -0.3)">
       <use xlink:href="#DejaVuSans-52"/>
       <use x="63.623047" xlink:href="#DejaVuSans-50"/>
       <use x="127.246094" xlink:href="#DejaVuSans-48"/>
      </g>
     </g>
    </g>
   </g>
   <g id="line2d_7">
    <path clip-path="url(#pbd9383751a)" d="M 109.954494 380.203838 
L 117.515253 353.557795 
L 121.295633 380.765236 
L 132.636772 365.589676 
L 136.417152 385.2 
L 140.197532 376.274338 
L 143.977912 362.558321 
L 147.758291 365.458734 
L 162.87981 348.599094 
L 166.66019 345.941948 
L 170.44057 345.623874 
L 174.22095 191.548268 
L 185.562089 168.588458 
L 189.342469 170.366133 
L 193.122849 206.031432 
L 196.903228 194.598296 
L 200.683608 194.897697 
L 212.024747 181.275275 
L 215.805127 176.952779 
L 219.585507 194.748025 
L 223.365887 174.520226 
L 227.146266 184.811893 
L 242.267785 185.036429 
L 246.048165 197.79811 
L 249.828545 168.981454 
L 253.608925 165.931369 
L 264.950064 184.662164 
L 268.730444 169.018858 
L 272.510824 150.905537 
L 276.291203 141.60561 
L 280.071583 126.635913 
L 291.412722 125.831248 
L 298.973482 129.293002 
L 306.534241 168.49492 
L 317.875381 157.267647 
L 321.65576 158.016121 
L 325.43614 163.891754 
L 329.21652 133.709093 
L 332.9969 149.67053 
L 344.338039 130.041476 
L 348.118419 98.511596 
L 351.898799 88.8 
L 355.679178 123.548367 
L 359.459558 128.900064 
L 370.800697 127.403117 
L 374.581077 111.703619 
L 378.361457 137.582458 
L 382.141837 140.501602 
L 385.922216 125.45704 
L 397.263356 103.414163 
L 401.043735 101.224819 
L 404.824115 149.558262 
L 408.604495 141.961145 
L 412.384875 144.2627 
L 423.726014 151.785009 
L 427.506394 202.981347 
L 431.286773 222.049004 
L 435.067153 222.68521 
L 438.847533 229.122184 
L 450.188672 213.796952 
L 453.969052 208.314314 
L 457.749432 224.238348 
L 461.529812 238.571783 
L 465.310191 239.208045 
L 476.651331 224.66869 
L 480.43171 218.231715 
L 484.21209 201.952204 
L 487.99247 220.645595 
L 491.77285 215.574626 
L 503.113989 232.677476 
L 506.894369 208.239449 
L 510.674748 193.007812 
L 514.455128 182.192207 
L 518.235508 160.523538 
L 533.357027 158.184523 
L 537.137407 180.395803 
L 540.917787 189.227926 
L 544.698166 189.695729 
L 556.039306 157.903853 
L 559.819685 194.785429 
L 563.600065 200.829465 
L 567.380445 210.971403 
L 571.160825 218.063313 
L 582.501964 228.523382 
L 586.282344 230.263653 
L 590.062723 237.654907 
L 593.843103 271.411591 
L 597.623483 267.40717 
L 608.964622 271.991662 
L 612.745002 286.98009 
L 616.525382 281.628394 
L 620.305762 253.653806 
L 624.086141 248.507972 
L 635.427281 242.491975 
L 639.20766 275.172746 
L 642.98804 267.051635 
L 646.76842 265.498554 
L 650.5488 233.987347 
L 661.889939 225.211357 
L 665.670319 224.911957 
L 669.450698 212.281274 
L 673.231078 213.90922 
L 677.011458 239.488716 
L 688.352597 206.779906 
L 692.132977 211.383072 
L 695.913357 224.519018 
L 699.693737 225.791429 
L 703.474116 247.722038 
L 714.815256 255.206887 
L 718.595635 236.943837 
L 722.376015 279.439107 
L 726.156395 283.181532 
L 729.936775 268.249238 
L 741.277914 266.396756 
L 745.058294 250.884391 
L 748.838673 261.307057 
L 752.619053 280.056582 
L 756.399433 253.653806 
L 767.740572 273.78801 
L 771.520952 205.13323 
L 775.301332 203.262018 
L 779.081712 212.112872 
L 782.862091 190.444203 
L 794.203231 188.423319 
L 797.98361 151.37334 
L 801.76399 161.084936 
L 805.54437 167.727717 
L 805.54437 167.727717 
" style="fill:none;stroke:#000000;stroke-linecap:square;stroke-width:4;"/>
   </g>
   <g id="patch_3">
    <path d="M 75.175 385.2 
L 75.175 88.8 
" style="fill:none;stroke:#000000;stroke-linecap:square;stroke-linejoin:miter;stroke-width:0.8;"/>
   </g>
   <g id="patch_4">
    <path d="M 75.175 385.2 
L 840.323864 385.2 
" style="fill:none;stroke:#000000;stroke-linecap:square;stroke-linejoin:miter;stroke-width:0.8;"/>
   </g>
   <g id="text_7">
    <!-- MDB   41% -->
    <defs>
     <path d="M 9.1875 72.90625 
L 33.109375 72.90625 
L 49.703125 33.890625 
L 66.40625 72.90625 
L 90.28125 72.90625 
L 90.28125 0 
L 72.515625 0 
L 72.515625 53.328125 
L 55.71875 14.015625 
L 43.796875 14.015625 
L 27 53.328125 
L 27 0 
L 9.1875 0 
z
" id="DejaVuSans-Bold-77"/>
     <path d="M 27.984375 58.6875 
L 27.984375 14.203125 
L 34.71875 14.203125 
Q 46.234375 14.203125 52.3125 19.921875 
Q 58.40625 25.640625 58.40625 36.53125 
Q 58.40625 47.359375 52.34375 53.015625 
Q 46.296875 58.6875 34.71875 58.6875 
z
M 9.1875 72.90625 
L 29 72.90625 
Q 45.609375 72.90625 53.734375 70.53125 
Q 61.859375 68.171875 67.671875 62.5 
Q 72.796875 57.5625 75.28125 51.109375 
Q 77.78125 44.671875 77.78125 36.53125 
Q 77.78125 28.265625 75.28125 21.796875 
Q 72.796875 15.328125 67.671875 10.40625 
Q 61.8125 4.734375 53.609375 2.359375 
Q 45.40625 0 29 0 
L 9.1875 0 
z
" id="DejaVuSans-Bold-68"/>
     <path d="M 38.375 44.671875 
Q 42.828125 44.671875 45.109375 46.625 
Q 47.40625 48.578125 47.40625 52.390625 
Q 47.40625 56.15625 45.109375 58.125 
Q 42.828125 60.109375 38.375 60.109375 
L 27.984375 60.109375 
L 27.984375 44.671875 
z
M 39.015625 12.796875 
Q 44.671875 12.796875 47.53125 15.1875 
Q 50.390625 17.578125 50.390625 22.40625 
Q 50.390625 27.15625 47.5625 29.515625 
Q 44.734375 31.890625 39.015625 31.890625 
L 27.984375 31.890625 
L 27.984375 12.796875 
z
M 56.5 39.015625 
Q 62.546875 37.25 65.859375 32.515625 
Q 69.1875 27.78125 69.1875 20.90625 
Q 69.1875 10.359375 62.0625 5.171875 
Q 54.9375 0 40.375 0 
L 9.1875 0 
L 9.1875 72.90625 
L 37.40625 72.90625 
Q 52.59375 72.90625 59.40625 68.3125 
Q 66.21875 63.71875 66.21875 53.609375 
Q 66.21875 48.296875 63.71875 44.5625 
Q 61.234375 40.828125 56.5 39.015625 
z
" id="DejaVuSans-Bold-66"/>
     <path id="DejaVuSans-Bold-32"/>
     <path d="M 36.8125 57.421875 
L 16.21875 26.90625 
L 36.8125 26.90625 
z
M 33.6875 72.90625 
L 54.59375 72.90625 
L 54.59375 26.90625 
L 64.984375 26.90625 
L 64.984375 13.28125 
L 54.59375 13.28125 
L 54.59375 0 
L 36.8125 0 
L 36.8125 13.28125 
L 4.5 13.28125 
L 4.5 29.390625 
z
" id="DejaVuSans-Bold-52"/>
     <path d="M 11.71875 12.984375 
L 28.328125 12.984375 
L 28.328125 60.109375 
L 11.28125 56.59375 
L 11.28125 69.390625 
L 28.21875 72.90625 
L 46.09375 72.90625 
L 46.09375 12.984375 
L 62.703125 12.984375 
L 62.703125 0 
L 11.71875 0 
z
" id="DejaVuSans-Bold-49"/>
     <path d="M 77.484375 30.078125 
Q 74.03125 30.078125 72.125 27.078125 
Q 70.21875 24.078125 70.21875 18.5 
Q 70.21875 12.890625 72.09375 9.890625 
Q 73.96875 6.890625 77.484375 6.890625 
Q 81 6.890625 82.859375 9.890625 
Q 84.71875 12.890625 84.71875 18.5 
Q 84.71875 24.078125 82.828125 27.078125 
Q 80.953125 30.078125 77.484375 30.078125 
z
M 77.484375 38.28125 
Q 86.578125 38.28125 91.796875 33 
Q 97.015625 27.734375 97.015625 18.5 
Q 97.015625 9.28125 91.796875 3.921875 
Q 86.578125 -1.421875 77.484375 -1.421875 
Q 68.40625 -1.421875 63.15625 3.921875 
Q 57.90625 9.28125 57.90625 18.5 
Q 57.90625 27.6875 63.15625 32.984375 
Q 68.40625 38.28125 77.484375 38.28125 
z
M 32.71875 -1.421875 
L 21.921875 -1.421875 
L 67.484375 74.21875 
L 78.328125 74.21875 
z
M 22.703125 74.21875 
Q 31.78125 74.21875 36.984375 68.921875 
Q 42.1875 63.625 42.1875 54.390625 
Q 42.1875 45.171875 36.984375 39.84375 
Q 31.78125 34.515625 22.703125 34.515625 
Q 13.625 34.515625 8.421875 39.84375 
Q 3.21875 45.171875 3.21875 54.390625 
Q 3.21875 63.625 8.421875 68.921875 
Q 13.625 74.21875 22.703125 74.21875 
z
M 22.703125 66.015625 
Q 19.1875 66.015625 17.28125 62.984375 
Q 15.375 59.96875 15.375 54.390625 
Q 15.375 48.78125 17.28125 45.71875 
Q 19.1875 42.671875 22.703125 42.671875 
Q 26.21875 42.671875 28.09375 45.71875 
Q 29.984375 48.78125 29.984375 54.390625 
Q 29.984375 59.96875 28.078125 62.984375 
Q 26.171875 66.015625 22.703125 66.015625 
z
" id="DejaVuSans-Bold-37"/>
    </defs>
    <g transform="translate(75.175 72.1625)scale(0.8 -0.8)">
     <use xlink:href="#DejaVuSans-Bold-77"/>
     <use x="99.511719" xlink:href="#DejaVuSans-Bold-68"/>
     <use x="182.519531" xlink:href="#DejaVuSans-Bold-66"/>
     <use x="258.740234" xlink:href="#DejaVuSans-Bold-32"/>
     <use x="293.554688" xlink:href="#DejaVuSans-Bold-32"/>
     <use x="328.369141" xlink:href="#DejaVuSans-Bold-32"/>
     <use x="363.183594" xlink:href="#DejaVuSans-Bold-52"/>
     <use x="432.763672" xlink:href="#DejaVuSans-Bold-49"/>
     <use x="502.34375" xlink:href="#DejaVuSans-Bold-37"/>
    </g>
   </g>
  </g>
 </g>
 <defs>
  <clipPath id="pbd9383751a">
   <rect height="296.4" width="765.148864" x="75.175" y="88.8"/>
  </clipPath>
 </defs>
</svg>
