<?xml version="1.0" encoding="utf-8" standalone="no"?>
<!DOCTYPE svg PUBLIC "-//W3C//DTD SVG 1.1//EN"
  "http://www.w3.org/Graphics/SVG/1.1/DTD/svg11.dtd">
<!-- Created with matplotlib (https://matplotlib.org/) -->
<svg height="432pt" version="1.1" viewBox="0 0 864 432" width="864pt" xmlns="http://www.w3.org/2000/svg" xmlns:xlink="http://www.w3.org/1999/xlink">
 <defs>
  <style type="text/css">
*{stroke-linecap:butt;stroke-linejoin:round;}
  </style>
 </defs>
 <g id="figure_1">
  <g id="patch_1">
   <path d="M 0 432 
L 864 432 
L 864 0 
L 0 0 
z
" style="fill:none;"/>
  </g>
  <g id="axes_1">
   <g id="patch_2">
    <path d="M 94.3 361.2 
L 840.323864 361.2 
L 840.323864 88.8 
L 94.3 88.8 
z
" style="fill:none;"/>
   </g>
   <g id="PolyCollection_1">
    <path clip-path="url(#p05ab20a676)" d="M 128.210176 1133.583715 
L 128.210176 227.461786 
L 131.896064 195.661296 
L 135.581953 186.894164 
L 139.267842 202.247335 
L 150.325508 181.828534 
L 154.011396 210.098025 
L 157.697285 221.252315 
L 161.383174 245.564459 
L 165.069062 222.580884 
L 179.812617 245.699493 
L 183.498505 253.315673 
L 187.184394 239.802586 
L 190.870283 230.815167 
L 201.927949 217.444225 
L 205.613837 242.339 
L 209.299726 275.134073 
L 212.985615 274.103931 
L 216.671503 274.949345 
L 227.729169 253.919553 
L 231.415058 274.260213 
L 235.100947 272.611969 
L 238.786835 264.136065 
L 242.472724 284.760929 
L 257.216279 282.62953 
L 260.902167 273.279766 
L 264.588056 251.532395 
L 268.273944 262.203617 
L 279.33161 312.632518 
L 283.017499 307.957679 
L 286.703388 275.560422 
L 290.389276 301.307723 
L 294.075165 291.96507 
L 305.132831 285.464284 
L 312.504608 247.376184 
L 316.190497 313.996645 
L 319.876386 313.833251 
L 330.934052 361.2 
L 334.61994 336.738686 
L 338.305829 322.84903 
L 341.991718 318.877546 
L 345.677606 326.692678 
L 356.735272 295.822855 
L 360.421161 274.871204 
L 364.107049 262.729355 
L 367.792938 282.203267 
L 371.478827 266.082736 
L 382.536493 282.139263 
L 386.222381 293.925965 
L 389.90827 297.911672 
L 393.594159 302.408894 
L 397.280047 263.247982 
L 408.337713 253.990582 
L 412.023602 273.634999 
L 415.709491 306.025144 
L 419.395379 193.558343 
L 423.081268 212.705382 
L 434.138934 168.194636 
L 437.824823 189.828394 
L 441.510711 200.982684 
L 445.1966 148.123956 
L 448.882489 188.663218 
L 459.940155 212.449624 
L 463.626043 219.8953 
L 467.311932 247.319377 
L 470.99782 283.467832 
L 474.683709 281.315184 
L 485.741375 260.76846 
L 489.427264 250.665647 
L 493.113152 239.198707 
L 496.799041 270.146584 
L 500.48493 254.139839 
L 511.542596 245.884221 
L 515.228484 206.666416 
L 518.914373 179.334789 
L 522.600262 158.567866 
L 526.28615 123.556054 
L 541.029705 114.028674 
L 544.715594 120.479765 
L 548.401482 113.105119 
L 552.087371 118.902551 
L 563.145037 122.639525 
L 566.830925 139.541551 
L 570.516814 140.735173 
L 574.202703 150.702953 
L 577.888591 141.303495 
L 588.946257 150.489865 
L 592.632146 179.682911 
L 596.318035 191.26355 
L 600.003923 214.751529 
L 603.689812 226.346391 
L 614.747478 216.705312 
L 618.433367 232.271658 
L 622.119255 240.868286 
L 625.805144 228.349869 
L 629.491033 232.797396 
L 640.548699 238.815027 
L 644.234587 260.931854 
L 647.920476 258.601503 
L 651.606365 270.807356 
L 655.292253 254.360038 
L 666.349919 253.756159 
L 670.035808 239.596523 
L 673.721696 249.798899 
L 677.407585 259.738319 
L 681.093474 264.327905 
L 692.15114 262.40968 
L 695.837028 252.143386 
L 699.522917 272.711445 
L 703.208806 295.261646 
L 706.894694 302.572287 
L 717.95236 295.140835 
L 721.638249 265.400716 
L 725.324138 287.43229 
L 729.010026 298.785532 
L 732.695915 280.704193 
L 743.753581 262.381233 
L 747.43947 252.079469 
L 751.125358 209.970103 
L 754.811247 196.123117 
L 758.497136 147.605329 
L 769.554801 156.855618 
L 773.24069 151.207443 
L 776.926579 162.134422 
L 780.612467 180.578106 
L 784.298356 157.125598 
L 795.356022 154.354761 
L 799.041911 117.25422 
L 802.727799 108.700175 
L 806.413688 88.8 
L 806.413688 1133.583715 
L 806.413688 1133.583715 
L 802.727799 1133.583715 
L 799.041911 1133.583715 
L 795.356022 1133.583715 
L 784.298356 1133.583715 
L 780.612467 1133.583715 
L 776.926579 1133.583715 
L 773.24069 1133.583715 
L 769.554801 1133.583715 
L 758.497136 1133.583715 
L 754.811247 1133.583715 
L 751.125358 1133.583715 
L 747.43947 1133.583715 
L 743.753581 1133.583715 
L 732.695915 1133.583715 
L 729.010026 1133.583715 
L 725.324138 1133.583715 
L 721.638249 1133.583715 
L 717.95236 1133.583715 
L 706.894694 1133.583715 
L 703.208806 1133.583715 
L 699.522917 1133.583715 
L 695.837028 1133.583715 
L 692.15114 1133.583715 
L 681.093474 1133.583715 
L 677.407585 1133.583715 
L 673.721696 1133.583715 
L 670.035808 1133.583715 
L 666.349919 1133.583715 
L 655.292253 1133.583715 
L 651.606365 1133.583715 
L 647.920476 1133.583715 
L 644.234587 1133.583715 
L 640.548699 1133.583715 
L 629.491033 1133.583715 
L 625.805144 1133.583715 
L 622.119255 1133.583715 
L 618.433367 1133.583715 
L 614.747478 1133.583715 
L 603.689812 1133.583715 
L 600.003923 1133.583715 
L 596.318035 1133.583715 
L 592.632146 1133.583715 
L 588.946257 1133.583715 
L 577.888591 1133.583715 
L 574.202703 1133.583715 
L 570.516814 1133.583715 
L 566.830925 1133.583715 
L 563.145037 1133.583715 
L 552.087371 1133.583715 
L 548.401482 1133.583715 
L 544.715594 1133.583715 
L 541.029705 1133.583715 
L 526.28615 1133.583715 
L 522.600262 1133.583715 
L 518.914373 1133.583715 
L 515.228484 1133.583715 
L 511.542596 1133.583715 
L 500.48493 1133.583715 
L 496.799041 1133.583715 
L 493.113152 1133.583715 
L 489.427264 1133.583715 
L 485.741375 1133.583715 
L 474.683709 1133.583715 
L 470.99782 1133.583715 
L 467.311932 1133.583715 
L 463.626043 1133.583715 
L 459.940155 1133.583715 
L 448.882489 1133.583715 
L 445.1966 1133.583715 
L 441.510711 1133.583715 
L 437.824823 1133.583715 
L 434.138934 1133.583715 
L 423.081268 1133.583715 
L 419.395379 1133.583715 
L 415.709491 1133.583715 
L 412.023602 1133.583715 
L 408.337713 1133.583715 
L 397.280047 1133.583715 
L 393.594159 1133.583715 
L 389.90827 1133.583715 
L 386.222381 1133.583715 
L 382.536493 1133.583715 
L 371.478827 1133.583715 
L 367.792938 1133.583715 
L 364.107049 1133.583715 
L 360.421161 1133.583715 
L 356.735272 1133.583715 
L 345.677606 1133.583715 
L 341.991718 1133.583715 
L 338.305829 1133.583715 
L 334.61994 1133.583715 
L 330.934052 1133.583715 
L 319.876386 1133.583715 
L 316.190497 1133.583715 
L 312.504608 1133.583715 
L 305.132831 1133.583715 
L 294.075165 1133.583715 
L 290.389276 1133.583715 
L 286.703388 1133.583715 
L 283.017499 1133.583715 
L 279.33161 1133.583715 
L 268.273944 1133.583715 
L 264.588056 1133.583715 
L 260.902167 1133.583715 
L 257.216279 1133.583715 
L 242.472724 1133.583715 
L 238.786835 1133.583715 
L 235.100947 1133.583715 
L 231.415058 1133.583715 
L 227.729169 1133.583715 
L 216.671503 1133.583715 
L 212.985615 1133.583715 
L 209.299726 1133.583715 
L 205.613837 1133.583715 
L 201.927949 1133.583715 
L 190.870283 1133.583715 
L 187.184394 1133.583715 
L 183.498505 1133.583715 
L 179.812617 1133.583715 
L 165.069062 1133.583715 
L 161.383174 1133.583715 
L 157.697285 1133.583715 
L 154.011396 1133.583715 
L 150.325508 1133.583715 
L 139.267842 1133.583715 
L 135.581953 1133.583715 
L 131.896064 1133.583715 
L 128.210176 1133.583715 
z
" style="fill:#0000ff;fill-opacity:0.1;stroke:#0000ff;stroke-opacity:0.1;"/>
   </g>
   <g id="matplotlib.axis_1">
    <g id="xtick_1">
     <g id="line2d_1">
      <defs>
       <path d="M 0 0 
L 0 3.5 
" id="md879c59db7" style="stroke:#000000;stroke-width:0.8;"/>
      </defs>
      <g>
       <use style="stroke:#000000;stroke-width:0.8;" x="128.210176" xlink:href="#md879c59db7" y="361.2"/>
      </g>
     </g>
     <g id="text_1">
      <!-- 05/23 -->
      <defs>
       <path d="M 31.78125 66.40625 
Q 24.171875 66.40625 20.328125 58.90625 
Q 16.5 51.421875 16.5 36.375 
Q 16.5 21.390625 20.328125 13.890625 
Q 24.171875 6.390625 31.78125 6.390625 
Q 39.453125 6.390625 43.28125 13.890625 
Q 47.125 21.390625 47.125 36.375 
Q 47.125 51.421875 43.28125 58.90625 
Q 39.453125 66.40625 31.78125 66.40625 
z
M 31.78125 74.21875 
Q 44.046875 74.21875 50.515625 64.515625 
Q 56.984375 54.828125 56.984375 36.375 
Q 56.984375 17.96875 50.515625 8.265625 
Q 44.046875 -1.421875 31.78125 -1.421875 
Q 19.53125 -1.421875 13.0625 8.265625 
Q 6.59375 17.96875 6.59375 36.375 
Q 6.59375 54.828125 13.0625 64.515625 
Q 19.53125 74.21875 31.78125 74.21875 
z
" id="DejaVuSans-48"/>
       <path d="M 10.796875 72.90625 
L 49.515625 72.90625 
L 49.515625 64.59375 
L 19.828125 64.59375 
L 19.828125 46.734375 
Q 21.96875 47.46875 24.109375 47.828125 
Q 26.265625 48.1875 28.421875 48.1875 
Q 40.625 48.1875 47.75 41.5 
Q 54.890625 34.8125 54.890625 23.390625 
Q 54.890625 11.625 47.5625 5.09375 
Q 40.234375 -1.421875 26.90625 -1.421875 
Q 22.3125 -1.421875 17.546875 -0.640625 
Q 12.796875 0.140625 7.71875 1.703125 
L 7.71875 11.625 
Q 12.109375 9.234375 16.796875 8.0625 
Q 21.484375 6.890625 26.703125 6.890625 
Q 35.15625 6.890625 40.078125 11.328125 
Q 45.015625 15.765625 45.015625 23.390625 
Q 45.015625 31 40.078125 35.4375 
Q 35.15625 39.890625 26.703125 39.890625 
Q 22.75 39.890625 18.8125 39.015625 
Q 14.890625 38.140625 10.796875 36.28125 
z
" id="DejaVuSans-53"/>
       <path d="M 25.390625 72.90625 
L 33.6875 72.90625 
L 8.296875 -9.28125 
L 0 -9.28125 
z
" id="DejaVuSans-47"/>
       <path d="M 19.1875 8.296875 
L 53.609375 8.296875 
L 53.609375 0 
L 7.328125 0 
L 7.328125 8.296875 
Q 12.9375 14.109375 22.625 23.890625 
Q 32.328125 33.6875 34.8125 36.53125 
Q 39.546875 41.84375 41.421875 45.53125 
Q 43.3125 49.21875 43.3125 52.78125 
Q 43.3125 58.59375 39.234375 62.25 
Q 35.15625 65.921875 28.609375 65.921875 
Q 23.96875 65.921875 18.8125 64.3125 
Q 13.671875 62.703125 7.8125 59.421875 
L 7.8125 69.390625 
Q 13.765625 71.78125 18.9375 73 
Q 24.125 74.21875 28.421875 74.21875 
Q 39.75 74.21875 46.484375 68.546875 
Q 53.21875 62.890625 53.21875 53.421875 
Q 53.21875 48.921875 51.53125 44.890625 
Q 49.859375 40.875 45.40625 35.40625 
Q 44.1875 33.984375 37.640625 27.21875 
Q 31.109375 20.453125 19.1875 8.296875 
z
" id="DejaVuSans-50"/>
       <path d="M 40.578125 39.3125 
Q 47.65625 37.796875 51.625 33 
Q 55.609375 28.21875 55.609375 21.1875 
Q 55.609375 10.40625 48.1875 4.484375 
Q 40.765625 -1.421875 27.09375 -1.421875 
Q 22.515625 -1.421875 17.65625 -0.515625 
Q 12.796875 0.390625 7.625 2.203125 
L 7.625 11.71875 
Q 11.71875 9.328125 16.59375 8.109375 
Q 21.484375 6.890625 26.8125 6.890625 
Q 36.078125 6.890625 40.9375 10.546875 
Q 45.796875 14.203125 45.796875 21.1875 
Q 45.796875 27.640625 41.28125 31.265625 
Q 36.765625 34.90625 28.71875 34.90625 
L 20.21875 34.90625 
L 20.21875 43.015625 
L 29.109375 43.015625 
Q 36.375 43.015625 40.234375 45.921875 
Q 44.09375 48.828125 44.09375 54.296875 
Q 44.09375 59.90625 40.109375 62.90625 
Q 36.140625 65.921875 28.71875 65.921875 
Q 24.65625 65.921875 20.015625 65.03125 
Q 15.375 64.15625 9.8125 62.3125 
L 9.8125 71.09375 
Q 15.4375 72.65625 20.34375 73.4375 
Q 25.25 74.21875 29.59375 74.21875 
Q 40.828125 74.21875 47.359375 69.109375 
Q 53.90625 64.015625 53.90625 55.328125 
Q 53.90625 49.265625 50.4375 45.09375 
Q 46.96875 40.921875 40.578125 39.3125 
z
" id="DejaVuSans-51"/>
      </defs>
      <g transform="translate(84.982051 390.995313)scale(0.3 -0.3)">
       <use xlink:href="#DejaVuSans-48"/>
       <use x="63.623047" xlink:href="#DejaVuSans-53"/>
       <use x="127.246094" xlink:href="#DejaVuSans-47"/>
       <use x="160.9375" xlink:href="#DejaVuSans-50"/>
       <use x="224.560547" xlink:href="#DejaVuSans-51"/>
      </g>
     </g>
    </g>
    <g id="xtick_2">
     <g id="line2d_2">
      <g>
       <use style="stroke:#000000;stroke-width:0.8;" x="470.99782" xlink:href="#md879c59db7" y="361.2"/>
      </g>
     </g>
     <g id="text_2">
      <!-- 08/23 -->
      <defs>
       <path d="M 31.78125 34.625 
Q 24.75 34.625 20.71875 30.859375 
Q 16.703125 27.09375 16.703125 20.515625 
Q 16.703125 13.921875 20.71875 10.15625 
Q 24.75 6.390625 31.78125 6.390625 
Q 38.8125 6.390625 42.859375 10.171875 
Q 46.921875 13.96875 46.921875 20.515625 
Q 46.921875 27.09375 42.890625 30.859375 
Q 38.875 34.625 31.78125 34.625 
z
M 21.921875 38.8125 
Q 15.578125 40.375 12.03125 44.71875 
Q 8.5 49.078125 8.5 55.328125 
Q 8.5 64.0625 14.71875 69.140625 
Q 20.953125 74.21875 31.78125 74.21875 
Q 42.671875 74.21875 48.875 69.140625 
Q 55.078125 64.0625 55.078125 55.328125 
Q 55.078125 49.078125 51.53125 44.71875 
Q 48 40.375 41.703125 38.8125 
Q 48.828125 37.15625 52.796875 32.3125 
Q 56.78125 27.484375 56.78125 20.515625 
Q 56.78125 9.90625 50.3125 4.234375 
Q 43.84375 -1.421875 31.78125 -1.421875 
Q 19.734375 -1.421875 13.25 4.234375 
Q 6.78125 9.90625 6.78125 20.515625 
Q 6.78125 27.484375 10.78125 32.3125 
Q 14.796875 37.15625 21.921875 38.8125 
z
M 18.3125 54.390625 
Q 18.3125 48.734375 21.84375 45.5625 
Q 25.390625 42.390625 31.78125 42.390625 
Q 38.140625 42.390625 41.71875 45.5625 
Q 45.3125 48.734375 45.3125 54.390625 
Q 45.3125 60.0625 41.71875 63.234375 
Q 38.140625 66.40625 31.78125 66.40625 
Q 25.390625 66.40625 21.84375 63.234375 
Q 18.3125 60.0625 18.3125 54.390625 
z
" id="DejaVuSans-56"/>
      </defs>
      <g transform="translate(427.769695 390.995313)scale(0.3 -0.3)">
       <use xlink:href="#DejaVuSans-48"/>
       <use x="63.623047" xlink:href="#DejaVuSans-56"/>
       <use x="127.246094" xlink:href="#DejaVuSans-47"/>
       <use x="160.9375" xlink:href="#DejaVuSans-50"/>
       <use x="224.560547" xlink:href="#DejaVuSans-51"/>
      </g>
     </g>
    </g>
    <g id="xtick_3">
     <g id="line2d_3">
      <g>
       <use style="stroke:#000000;stroke-width:0.8;" x="806.413688" xlink:href="#md879c59db7" y="361.2"/>
      </g>
     </g>
     <g id="text_3">
      <!-- 11/23 -->
      <defs>
       <path d="M 12.40625 8.296875 
L 28.515625 8.296875 
L 28.515625 63.921875 
L 10.984375 60.40625 
L 10.984375 69.390625 
L 28.421875 72.90625 
L 38.28125 72.90625 
L 38.28125 8.296875 
L 54.390625 8.296875 
L 54.390625 0 
L 12.40625 0 
z
" id="DejaVuSans-49"/>
      </defs>
      <g transform="translate(763.185563 390.995313)scale(0.3 -0.3)">
       <use xlink:href="#DejaVuSans-49"/>
       <use x="63.623047" xlink:href="#DejaVuSans-49"/>
       <use x="127.246094" xlink:href="#DejaVuSans-47"/>
       <use x="160.9375" xlink:href="#DejaVuSans-50"/>
       <use x="224.560547" xlink:href="#DejaVuSans-51"/>
      </g>
     </g>
    </g>
    <g id="text_4">
     <!-- Over last 6 months -->
     <defs>
      <path d="M 39.40625 66.21875 
Q 28.65625 66.21875 22.328125 58.203125 
Q 16.015625 50.203125 16.015625 36.375 
Q 16.015625 22.609375 22.328125 14.59375 
Q 28.65625 6.59375 39.40625 6.59375 
Q 50.140625 6.59375 56.421875 14.59375 
Q 62.703125 22.609375 62.703125 36.375 
Q 62.703125 50.203125 56.421875 58.203125 
Q 50.140625 66.21875 39.40625 66.21875 
z
M 39.40625 74.21875 
Q 54.734375 74.21875 63.90625 63.9375 
Q 73.09375 53.65625 73.09375 36.375 
Q 73.09375 19.140625 63.90625 8.859375 
Q 54.734375 -1.421875 39.40625 -1.421875 
Q 24.03125 -1.421875 14.8125 8.828125 
Q 5.609375 19.09375 5.609375 36.375 
Q 5.609375 53.65625 14.8125 63.9375 
Q 24.03125 74.21875 39.40625 74.21875 
z
" id="DejaVuSans-79"/>
      <path d="M 2.984375 54.6875 
L 12.5 54.6875 
L 29.59375 8.796875 
L 46.6875 54.6875 
L 56.203125 54.6875 
L 35.6875 0 
L 23.484375 0 
z
" id="DejaVuSans-118"/>
      <path d="M 56.203125 29.59375 
L 56.203125 25.203125 
L 14.890625 25.203125 
Q 15.484375 15.921875 20.484375 11.0625 
Q 25.484375 6.203125 34.421875 6.203125 
Q 39.59375 6.203125 44.453125 7.46875 
Q 49.3125 8.734375 54.109375 11.28125 
L 54.109375 2.78125 
Q 49.265625 0.734375 44.1875 -0.34375 
Q 39.109375 -1.421875 33.890625 -1.421875 
Q 20.796875 -1.421875 13.15625 6.1875 
Q 5.515625 13.8125 5.515625 26.8125 
Q 5.515625 40.234375 12.765625 48.109375 
Q 20.015625 56 32.328125 56 
Q 43.359375 56 49.78125 48.890625 
Q 56.203125 41.796875 56.203125 29.59375 
z
M 47.21875 32.234375 
Q 47.125 39.59375 43.09375 43.984375 
Q 39.0625 48.390625 32.421875 48.390625 
Q 24.90625 48.390625 20.390625 44.140625 
Q 15.875 39.890625 15.1875 32.171875 
z
" id="DejaVuSans-101"/>
      <path d="M 41.109375 46.296875 
Q 39.59375 47.171875 37.8125 47.578125 
Q 36.03125 48 33.890625 48 
Q 26.265625 48 22.1875 43.046875 
Q 18.109375 38.09375 18.109375 28.8125 
L 18.109375 0 
L 9.078125 0 
L 9.078125 54.6875 
L 18.109375 54.6875 
L 18.109375 46.1875 
Q 20.953125 51.171875 25.484375 53.578125 
Q 30.03125 56 36.53125 56 
Q 37.453125 56 38.578125 55.875 
Q 39.703125 55.765625 41.0625 55.515625 
z
" id="DejaVuSans-114"/>
      <path id="DejaVuSans-32"/>
      <path d="M 9.421875 75.984375 
L 18.40625 75.984375 
L 18.40625 0 
L 9.421875 0 
z
" id="DejaVuSans-108"/>
      <path d="M 34.28125 27.484375 
Q 23.390625 27.484375 19.1875 25 
Q 14.984375 22.515625 14.984375 16.5 
Q 14.984375 11.71875 18.140625 8.90625 
Q 21.296875 6.109375 26.703125 6.109375 
Q 34.1875 6.109375 38.703125 11.40625 
Q 43.21875 16.703125 43.21875 25.484375 
L 43.21875 27.484375 
z
M 52.203125 31.203125 
L 52.203125 0 
L 43.21875 0 
L 43.21875 8.296875 
Q 40.140625 3.328125 35.546875 0.953125 
Q 30.953125 -1.421875 24.3125 -1.421875 
Q 15.921875 -1.421875 10.953125 3.296875 
Q 6 8.015625 6 15.921875 
Q 6 25.140625 12.171875 29.828125 
Q 18.359375 34.515625 30.609375 34.515625 
L 43.21875 34.515625 
L 43.21875 35.40625 
Q 43.21875 41.609375 39.140625 45 
Q 35.0625 48.390625 27.6875 48.390625 
Q 23 48.390625 18.546875 47.265625 
Q 14.109375 46.140625 10.015625 43.890625 
L 10.015625 52.203125 
Q 14.9375 54.109375 19.578125 55.046875 
Q 24.21875 56 28.609375 56 
Q 40.484375 56 46.34375 49.84375 
Q 52.203125 43.703125 52.203125 31.203125 
z
" id="DejaVuSans-97"/>
      <path d="M 44.28125 53.078125 
L 44.28125 44.578125 
Q 40.484375 46.53125 36.375 47.5 
Q 32.28125 48.484375 27.875 48.484375 
Q 21.1875 48.484375 17.84375 46.4375 
Q 14.5 44.390625 14.5 40.28125 
Q 14.5 37.15625 16.890625 35.375 
Q 19.28125 33.59375 26.515625 31.984375 
L 29.59375 31.296875 
Q 39.15625 29.25 43.1875 25.515625 
Q 47.21875 21.78125 47.21875 15.09375 
Q 47.21875 7.46875 41.1875 3.015625 
Q 35.15625 -1.421875 24.609375 -1.421875 
Q 20.21875 -1.421875 15.453125 -0.5625 
Q 10.6875 0.296875 5.421875 2 
L 5.421875 11.28125 
Q 10.40625 8.6875 15.234375 7.390625 
Q 20.0625 6.109375 24.8125 6.109375 
Q 31.15625 6.109375 34.5625 8.28125 
Q 37.984375 10.453125 37.984375 14.40625 
Q 37.984375 18.0625 35.515625 20.015625 
Q 33.0625 21.96875 24.703125 23.78125 
L 21.578125 24.515625 
Q 13.234375 26.265625 9.515625 29.90625 
Q 5.8125 33.546875 5.8125 39.890625 
Q 5.8125 47.609375 11.28125 51.796875 
Q 16.75 56 26.8125 56 
Q 31.78125 56 36.171875 55.265625 
Q 40.578125 54.546875 44.28125 53.078125 
z
" id="DejaVuSans-115"/>
      <path d="M 18.3125 70.21875 
L 18.3125 54.6875 
L 36.8125 54.6875 
L 36.8125 47.703125 
L 18.3125 47.703125 
L 18.3125 18.015625 
Q 18.3125 11.328125 20.140625 9.421875 
Q 21.96875 7.515625 27.59375 7.515625 
L 36.8125 7.515625 
L 36.8125 0 
L 27.59375 0 
Q 17.1875 0 13.234375 3.875 
Q 9.28125 7.765625 9.28125 18.015625 
L 9.28125 47.703125 
L 2.6875 47.703125 
L 2.6875 54.6875 
L 9.28125 54.6875 
L 9.28125 70.21875 
z
" id="DejaVuSans-116"/>
      <path d="M 33.015625 40.375 
Q 26.375 40.375 22.484375 35.828125 
Q 18.609375 31.296875 18.609375 23.390625 
Q 18.609375 15.53125 22.484375 10.953125 
Q 26.375 6.390625 33.015625 6.390625 
Q 39.65625 6.390625 43.53125 10.953125 
Q 47.40625 15.53125 47.40625 23.390625 
Q 47.40625 31.296875 43.53125 35.828125 
Q 39.65625 40.375 33.015625 40.375 
z
M 52.59375 71.296875 
L 52.59375 62.3125 
Q 48.875 64.0625 45.09375 64.984375 
Q 41.3125 65.921875 37.59375 65.921875 
Q 27.828125 65.921875 22.671875 59.328125 
Q 17.53125 52.734375 16.796875 39.40625 
Q 19.671875 43.65625 24.015625 45.921875 
Q 28.375 48.1875 33.59375 48.1875 
Q 44.578125 48.1875 50.953125 41.515625 
Q 57.328125 34.859375 57.328125 23.390625 
Q 57.328125 12.15625 50.6875 5.359375 
Q 44.046875 -1.421875 33.015625 -1.421875 
Q 20.359375 -1.421875 13.671875 8.265625 
Q 6.984375 17.96875 6.984375 36.375 
Q 6.984375 53.65625 15.1875 63.9375 
Q 23.390625 74.21875 37.203125 74.21875 
Q 40.921875 74.21875 44.703125 73.484375 
Q 48.484375 72.75 52.59375 71.296875 
z
" id="DejaVuSans-54"/>
      <path d="M 52 44.1875 
Q 55.375 50.25 60.0625 53.125 
Q 64.75 56 71.09375 56 
Q 79.640625 56 84.28125 50.015625 
Q 88.921875 44.046875 88.921875 33.015625 
L 88.921875 0 
L 79.890625 0 
L 79.890625 32.71875 
Q 79.890625 40.578125 77.09375 44.375 
Q 74.3125 48.1875 68.609375 48.1875 
Q 61.625 48.1875 57.5625 43.546875 
Q 53.515625 38.921875 53.515625 30.90625 
L 53.515625 0 
L 44.484375 0 
L 44.484375 32.71875 
Q 44.484375 40.625 41.703125 44.40625 
Q 38.921875 48.1875 33.109375 48.1875 
Q 26.21875 48.1875 22.15625 43.53125 
Q 18.109375 38.875 18.109375 30.90625 
L 18.109375 0 
L 9.078125 0 
L 9.078125 54.6875 
L 18.109375 54.6875 
L 18.109375 46.1875 
Q 21.1875 51.21875 25.484375 53.609375 
Q 29.78125 56 35.6875 56 
Q 41.65625 56 45.828125 52.96875 
Q 50 49.953125 52 44.1875 
z
" id="DejaVuSans-109"/>
      <path d="M 30.609375 48.390625 
Q 23.390625 48.390625 19.1875 42.75 
Q 14.984375 37.109375 14.984375 27.296875 
Q 14.984375 17.484375 19.15625 11.84375 
Q 23.34375 6.203125 30.609375 6.203125 
Q 37.796875 6.203125 41.984375 11.859375 
Q 46.1875 17.53125 46.1875 27.296875 
Q 46.1875 37.015625 41.984375 42.703125 
Q 37.796875 48.390625 30.609375 48.390625 
z
M 30.609375 56 
Q 42.328125 56 49.015625 48.375 
Q 55.71875 40.765625 55.71875 27.296875 
Q 55.71875 13.875 49.015625 6.21875 
Q 42.328125 -1.421875 30.609375 -1.421875 
Q 18.84375 -1.421875 12.171875 6.21875 
Q 5.515625 13.875 5.515625 27.296875 
Q 5.515625 40.765625 12.171875 48.375 
Q 18.84375 56 30.609375 56 
z
" id="DejaVuSans-111"/>
      <path d="M 54.890625 33.015625 
L 54.890625 0 
L 45.90625 0 
L 45.90625 32.71875 
Q 45.90625 40.484375 42.875 44.328125 
Q 39.84375 48.1875 33.796875 48.1875 
Q 26.515625 48.1875 22.3125 43.546875 
Q 18.109375 38.921875 18.109375 30.90625 
L 18.109375 0 
L 9.078125 0 
L 9.078125 54.6875 
L 18.109375 54.6875 
L 18.109375 46.1875 
Q 21.34375 51.125 25.703125 53.5625 
Q 30.078125 56 35.796875 56 
Q 45.21875 56 50.046875 50.171875 
Q 54.890625 44.34375 54.890625 33.015625 
z
" id="DejaVuSans-110"/>
      <path d="M 54.890625 33.015625 
L 54.890625 0 
L 45.90625 0 
L 45.90625 32.71875 
Q 45.90625 40.484375 42.875 44.328125 
Q 39.84375 48.1875 33.796875 48.1875 
Q 26.515625 48.1875 22.3125 43.546875 
Q 18.109375 38.921875 18.109375 30.90625 
L 18.109375 0 
L 9.078125 0 
L 9.078125 75.984375 
L 18.109375 75.984375 
L 18.109375 46.1875 
Q 21.34375 51.125 25.703125 53.5625 
Q 30.078125 56 35.796875 56 
Q 45.21875 56 50.046875 50.171875 
Q 54.890625 44.34375 54.890625 33.015625 
z
" id="DejaVuSans-104"/>
     </defs>
     <g transform="translate(362.095213 417.950938)scale(0.22 -0.22)">
      <use xlink:href="#DejaVuSans-79"/>
      <use x="78.710938" xlink:href="#DejaVuSans-118"/>
      <use x="137.890625" xlink:href="#DejaVuSans-101"/>
      <use x="199.414062" xlink:href="#DejaVuSans-114"/>
      <use x="240.527344" xlink:href="#DejaVuSans-32"/>
      <use x="272.314453" xlink:href="#DejaVuSans-108"/>
      <use x="300.097656" xlink:href="#DejaVuSans-97"/>
      <use x="361.376953" xlink:href="#DejaVuSans-115"/>
      <use x="413.476562" xlink:href="#DejaVuSans-116"/>
      <use x="452.685547" xlink:href="#DejaVuSans-32"/>
      <use x="484.472656" xlink:href="#DejaVuSans-54"/>
      <use x="548.095703" xlink:href="#DejaVuSans-32"/>
      <use x="579.882812" xlink:href="#DejaVuSans-109"/>
      <use x="677.294922" xlink:href="#DejaVuSans-111"/>
      <use x="738.476562" xlink:href="#DejaVuSans-110"/>
      <use x="801.855469" xlink:href="#DejaVuSans-116"/>
      <use x="841.064453" xlink:href="#DejaVuSans-104"/>
      <use x="904.443359" xlink:href="#DejaVuSans-115"/>
     </g>
    </g>
   </g>
   <g id="matplotlib.axis_2">
    <g id="ytick_1">
     <g id="line2d_4">
      <defs>
       <path d="M 0 0 
L -3.5 0 
" id="m169d7b2dbd" style="stroke:#000000;stroke-width:0.8;"/>
      </defs>
      <g>
       <use style="stroke:#000000;stroke-width:0.8;" x="94.3" xlink:href="#m169d7b2dbd" y="281.023868"/>
      </g>
     </g>
     <g id="text_5">
      <!-- 1200 -->
      <g transform="translate(10.95 292.421525)scale(0.3 -0.3)">
       <use xlink:href="#DejaVuSans-49"/>
       <use x="63.623047" xlink:href="#DejaVuSans-50"/>
       <use x="127.246094" xlink:href="#DejaVuSans-48"/>
       <use x="190.869141" xlink:href="#DejaVuSans-48"/>
      </g>
     </g>
    </g>
    <g id="ytick_2">
     <g id="line2d_5">
      <g>
       <use style="stroke:#000000;stroke-width:0.8;" x="94.3" xlink:href="#m169d7b2dbd" y="174.453888"/>
      </g>
     </g>
     <g id="text_6">
      <!-- 1350 -->
      <g transform="translate(10.95 185.851544)scale(0.3 -0.3)">
       <use xlink:href="#DejaVuSans-49"/>
       <use x="63.623047" xlink:href="#DejaVuSans-51"/>
       <use x="127.246094" xlink:href="#DejaVuSans-53"/>
       <use x="190.869141" xlink:href="#DejaVuSans-48"/>
      </g>
     </g>
    </g>
   </g>
   <g id="line2d_6">
    <path clip-path="url(#p05ab20a676)" d="M 128.210176 227.461786 
L 131.896064 195.661296 
L 135.581953 186.894164 
L 139.267842 202.247335 
L 150.325508 181.828534 
L 154.011396 210.098025 
L 157.697285 221.252315 
L 161.383174 245.564459 
L 165.069062 222.580884 
L 179.812617 245.699493 
L 183.498505 253.315673 
L 187.184394 239.802586 
L 190.870283 230.815167 
L 201.927949 217.444225 
L 205.613837 242.339 
L 209.299726 275.134073 
L 212.985615 274.103931 
L 216.671503 274.949345 
L 227.729169 253.919553 
L 231.415058 274.260213 
L 235.100947 272.611969 
L 238.786835 264.136065 
L 242.472724 284.760929 
L 257.216279 282.62953 
L 260.902167 273.279766 
L 264.588056 251.532395 
L 268.273944 262.203617 
L 279.33161 312.632518 
L 283.017499 307.957679 
L 286.703388 275.560422 
L 290.389276 301.307723 
L 294.075165 291.96507 
L 305.132831 285.464284 
L 312.504608 247.376184 
L 316.190497 313.996645 
L 319.876386 313.833251 
L 330.934052 361.2 
L 334.61994 336.738686 
L 338.305829 322.84903 
L 341.991718 318.877546 
L 345.677606 326.692678 
L 356.735272 295.822855 
L 360.421161 274.871204 
L 364.107049 262.729355 
L 367.792938 282.203267 
L 371.478827 266.082736 
L 382.536493 282.139263 
L 386.222381 293.925965 
L 389.90827 297.911672 
L 393.594159 302.408894 
L 397.280047 263.247982 
L 408.337713 253.990582 
L 412.023602 273.634999 
L 415.709491 306.025144 
L 419.395379 193.558343 
L 423.081268 212.705382 
L 434.138934 168.194636 
L 437.824823 189.828394 
L 441.510711 200.982684 
L 445.1966 148.123956 
L 448.882489 188.663218 
L 459.940155 212.449624 
L 463.626043 219.8953 
L 467.311932 247.319377 
L 470.99782 283.467832 
L 474.683709 281.315184 
L 485.741375 260.76846 
L 489.427264 250.665647 
L 493.113152 239.198707 
L 496.799041 270.146584 
L 500.48493 254.139839 
L 511.542596 245.884221 
L 515.228484 206.666416 
L 518.914373 179.334789 
L 522.600262 158.567866 
L 526.28615 123.556054 
L 541.029705 114.028674 
L 544.715594 120.479765 
L 548.401482 113.105119 
L 552.087371 118.902551 
L 563.145037 122.639525 
L 566.830925 139.541551 
L 570.516814 140.735173 
L 574.202703 150.702953 
L 577.888591 141.303495 
L 588.946257 150.489865 
L 592.632146 179.682911 
L 596.318035 191.26355 
L 600.003923 214.751529 
L 603.689812 226.346391 
L 614.747478 216.705312 
L 618.433367 232.271658 
L 622.119255 240.868286 
L 625.805144 228.349869 
L 629.491033 232.797396 
L 640.548699 238.815027 
L 644.234587 260.931854 
L 647.920476 258.601503 
L 651.606365 270.807356 
L 655.292253 254.360038 
L 666.349919 253.756159 
L 670.035808 239.596523 
L 677.407585 259.738319 
L 681.093474 264.327905 
L 692.15114 262.40968 
L 695.837028 252.143386 
L 699.522917 272.711445 
L 703.208806 295.261646 
L 706.894694 302.572287 
L 717.95236 295.140835 
L 721.638249 265.400716 
L 725.324138 287.43229 
L 729.010026 298.785532 
L 732.695915 280.704193 
L 743.753581 262.381233 
L 747.43947 252.079469 
L 751.125358 209.970103 
L 754.811247 196.123117 
L 758.497136 147.605329 
L 769.554801 156.855618 
L 773.24069 151.207443 
L 776.926579 162.134422 
L 780.612467 180.578106 
L 784.298356 157.125598 
L 795.356022 154.354761 
L 799.041911 117.25422 
L 802.727799 108.700175 
L 806.413688 88.8 
L 806.413688 88.8 
" style="fill:none;stroke:#000000;stroke-linecap:square;stroke-width:4;"/>
   </g>
   <g id="patch_3">
    <path d="M 94.3 361.2 
L 94.3 88.8 
" style="fill:none;stroke:#000000;stroke-linecap:square;stroke-linejoin:miter;stroke-width:0.8;"/>
   </g>
   <g id="patch_4">
    <path d="M 94.3 361.2 
L 840.323864 361.2 
" style="fill:none;stroke:#000000;stroke-linecap:square;stroke-linejoin:miter;stroke-width:0.8;"/>
   </g>
   <g id="text_7">
    <!-- MELI   15% -->
    <defs>
     <path d="M 9.1875 72.90625 
L 33.109375 72.90625 
L 49.703125 33.890625 
L 66.40625 72.90625 
L 90.28125 72.90625 
L 90.28125 0 
L 72.515625 0 
L 72.515625 53.328125 
L 55.71875 14.015625 
L 43.796875 14.015625 
L 27 53.328125 
L 27 0 
L 9.1875 0 
z
" id="DejaVuSans-Bold-77"/>
     <path d="M 9.1875 72.90625 
L 59.90625 72.90625 
L 59.90625 58.6875 
L 27.984375 58.6875 
L 27.984375 45.125 
L 58.015625 45.125 
L 58.015625 30.90625 
L 27.984375 30.90625 
L 27.984375 14.203125 
L 60.984375 14.203125 
L 60.984375 0 
L 9.1875 0 
z
" id="DejaVuSans-Bold-69"/>
     <path d="M 9.1875 72.90625 
L 27.984375 72.90625 
L 27.984375 14.203125 
L 60.984375 14.203125 
L 60.984375 0 
L 9.1875 0 
z
" id="DejaVuSans-Bold-76"/>
     <path d="M 9.1875 72.90625 
L 27.984375 72.90625 
L 27.984375 0 
L 9.1875 0 
z
" id="DejaVuSans-Bold-73"/>
     <path id="DejaVuSans-Bold-32"/>
     <path d="M 11.71875 12.984375 
L 28.328125 12.984375 
L 28.328125 60.109375 
L 11.28125 56.59375 
L 11.28125 69.390625 
L 28.21875 72.90625 
L 46.09375 72.90625 
L 46.09375 12.984375 
L 62.703125 12.984375 
L 62.703125 0 
L 11.71875 0 
z
" id="DejaVuSans-Bold-49"/>
     <path d="M 10.59375 72.90625 
L 57.328125 72.90625 
L 57.328125 59.078125 
L 25.59375 59.078125 
L 25.59375 47.796875 
Q 27.734375 48.390625 29.90625 48.703125 
Q 32.078125 49.03125 34.421875 49.03125 
Q 47.75 49.03125 55.171875 42.359375 
Q 62.59375 35.6875 62.59375 23.78125 
Q 62.59375 11.96875 54.515625 5.265625 
Q 46.4375 -1.421875 32.078125 -1.421875 
Q 25.875 -1.421875 19.796875 -0.21875 
Q 13.71875 0.984375 7.71875 3.421875 
L 7.71875 18.21875 
Q 13.671875 14.796875 19.015625 13.078125 
Q 24.359375 11.375 29.109375 11.375 
Q 35.9375 11.375 39.859375 14.71875 
Q 43.796875 18.0625 43.796875 23.78125 
Q 43.796875 29.546875 39.859375 32.859375 
Q 35.9375 36.1875 29.109375 36.1875 
Q 25.046875 36.1875 20.453125 35.125 
Q 15.875 34.078125 10.59375 31.890625 
z
" id="DejaVuSans-Bold-53"/>
     <path d="M 77.484375 30.078125 
Q 74.03125 30.078125 72.125 27.078125 
Q 70.21875 24.078125 70.21875 18.5 
Q 70.21875 12.890625 72.09375 9.890625 
Q 73.96875 6.890625 77.484375 6.890625 
Q 81 6.890625 82.859375 9.890625 
Q 84.71875 12.890625 84.71875 18.5 
Q 84.71875 24.078125 82.828125 27.078125 
Q 80.953125 30.078125 77.484375 30.078125 
z
M 77.484375 38.28125 
Q 86.578125 38.28125 91.796875 33 
Q 97.015625 27.734375 97.015625 18.5 
Q 97.015625 9.28125 91.796875 3.921875 
Q 86.578125 -1.421875 77.484375 -1.421875 
Q 68.40625 -1.421875 63.15625 3.921875 
Q 57.90625 9.28125 57.90625 18.5 
Q 57.90625 27.6875 63.15625 32.984375 
Q 68.40625 38.28125 77.484375 38.28125 
z
M 32.71875 -1.421875 
L 21.921875 -1.421875 
L 67.484375 74.21875 
L 78.328125 74.21875 
z
M 22.703125 74.21875 
Q 31.78125 74.21875 36.984375 68.921875 
Q 42.1875 63.625 42.1875 54.390625 
Q 42.1875 45.171875 36.984375 39.84375 
Q 31.78125 34.515625 22.703125 34.515625 
Q 13.625 34.515625 8.421875 39.84375 
Q 3.21875 45.171875 3.21875 54.390625 
Q 3.21875 63.625 8.421875 68.921875 
Q 13.625 74.21875 22.703125 74.21875 
z
M 22.703125 66.015625 
Q 19.1875 66.015625 17.28125 62.984375 
Q 15.375 59.96875 15.375 54.390625 
Q 15.375 48.78125 17.28125 45.71875 
Q 19.1875 42.671875 22.703125 42.671875 
Q 26.21875 42.671875 28.09375 45.71875 
Q 29.984375 48.78125 29.984375 54.390625 
Q 29.984375 59.96875 28.078125 62.984375 
Q 26.171875 66.015625 22.703125 66.015625 
z
" id="DejaVuSans-Bold-37"/>
    </defs>
    <g transform="translate(94.3 72.1625)scale(0.8 -0.8)">
     <use xlink:href="#DejaVuSans-Bold-77"/>
     <use x="99.511719" xlink:href="#DejaVuSans-Bold-69"/>
     <use x="167.822266" xlink:href="#DejaVuSans-Bold-76"/>
     <use x="231.542969" xlink:href="#DejaVuSans-Bold-73"/>
     <use x="268.75" xlink:href="#DejaVuSans-Bold-32"/>
     <use x="303.564453" xlink:href="#DejaVuSans-Bold-32"/>
     <use x="338.378906" xlink:href="#DejaVuSans-Bold-32"/>
     <use x="373.193359" xlink:href="#DejaVuSans-Bold-49"/>
     <use x="442.773438" xlink:href="#DejaVuSans-Bold-53"/>
     <use x="512.353516" xlink:href="#DejaVuSans-Bold-37"/>
    </g>
   </g>
  </g>
 </g>
 <defs>
  <clipPath id="p05ab20a676">
   <rect height="272.4" width="746.023864" x="94.3" y="88.8"/>
  </clipPath>
 </defs>
</svg>
