<?xml version="1.0" encoding="utf-8" standalone="no"?>
<!DOCTYPE svg PUBLIC "-//W3C//DTD SVG 1.1//EN"
  "http://www.w3.org/Graphics/SVG/1.1/DTD/svg11.dtd">
<!-- Created with matplotlib (https://matplotlib.org/) -->
<svg height="432pt" version="1.1" viewBox="0 0 576 432" width="576pt" xmlns="http://www.w3.org/2000/svg" xmlns:xlink="http://www.w3.org/1999/xlink">
 <defs>
  <style type="text/css">
*{stroke-linecap:butt;stroke-linejoin:round;}
  </style>
 </defs>
 <g id="figure_1">
  <g id="patch_1">
   <path d="M 0 432 
L 576 432 
L 576 0 
L 0 0 
z
" style="fill:#ffffff;"/>
  </g>
  <g id="axes_1">
   <g id="patch_2">
    <path d="M 36.925 404.2 
L 565.2 404.2 
L 565.2 31.8 
L 36.925 31.8 
z
" style="fill:#ffffff;"/>
   </g>
   <g id="PolyCollection_1">
    <defs>
     <path d="M 60.9375 -44.727273 
L 60.9375 -235.732995 
L 62.256868 -245.757625 
L 66.214973 -246.45491 
L 67.534341 -248.278091 
L 68.853709 -241.242536 
L 70.173077 -265.83552 
L 71.492445 -269.55048 
L 75.450549 -266.464225 
L 76.769918 -276.214535 
L 78.089286 -259.268645 
L 79.408654 -259.645843 
L 80.728022 -260.37171 
L 84.686126 -255.210767 
L 86.005495 -258.491329 
L 87.324863 -259.44582 
L 89.963599 -255.782308 
L 93.921703 -247.900875 
L 95.241071 -247.592274 
L 96.56044 -263.029301 
L 97.879808 -263.092182 
L 99.199176 -263.743735 
L 103.15728 -259.085753 
L 104.476648 -252.684585 
L 105.796016 -254.919281 
L 107.115385 -264.966812 
L 108.434753 -265.395476 
L 112.392857 -269.356156 
L 113.712225 -274.208463 
L 115.031593 -270.704994 
L 116.350962 -258.07985 
L 117.67033 -254.496351 
L 121.628434 -249.912664 
L 122.947802 -249.261146 
L 124.26717 -254.479219 
L 125.586538 -243.391503 
L 126.905907 -245.111788 
L 132.183379 -240.350962 
L 133.502747 -239.207881 
L 134.822115 -247.163997 
L 136.141484 -247.272821 
L 141.418956 -241.16685 
L 142.738324 -249.690004 
L 144.057692 -243.521029 
L 145.37706 -255.200302 
L 149.335165 -264.370717 
L 150.654533 -267.068604 
L 151.973901 -272.338283 
L 153.293269 -273.638523 
L 154.612637 -272.962626 
L 159.89011 -274.80702 
L 161.209478 -272.613218 
L 162.528846 -264.273343 
L 163.848214 -272.573133 
L 167.806319 -290.17508 
L 169.125687 -284.802276 
L 170.445055 -287.987013 
L 171.764423 -292.609447 
L 173.083791 -288.204678 
L 177.041896 -278.209404 
L 178.361264 -289.058119 
L 179.680632 -306.935001 
L 181 -316.208541 
L 182.319368 -306.092993 
L 186.277473 -302.301116 
L 187.596841 -312.577024 
L 188.916209 -309.930742 
L 190.235577 -337.098332 
L 191.554945 -326.553205 
L 195.513049 -331.937459 
L 196.832418 -342.900697 
L 198.151786 -348.359476 
L 199.471154 -338.78233 
L 200.790522 -332.321218 
L 206.067995 -320.767989 
L 207.387363 -321.220469 
L 208.706731 -328.202834 
L 210.026099 -321.420967 
L 213.984203 -323.25391 
L 215.303571 -322.125499 
L 216.62294 -323.408554 
L 217.942308 -327.538388 
L 219.261676 -334.578024 
L 223.21978 -329.525993 
L 224.539148 -326.999986 
L 225.858516 -333.856307 
L 227.177885 -326.925531 
L 228.497253 -319.066806 
L 232.455357 -323.276811 
L 233.774725 -327.526955 
L 235.094093 -317.726446 
L 236.413462 -329.961323 
L 237.73283 -324.428124 
L 241.690934 -327.882079 
L 243.010302 -330.230542 
L 244.32967 -325.287317 
L 245.649038 -337.138417 
L 246.968407 -322.76131 
L 250.926511 -321.289207 
L 252.245879 -316.827167 
L 253.565247 -325.917411 
L 254.884615 -330.440239 
L 256.203984 -332.018633 
L 260.162088 -327.673736 
L 261.481456 -321.957066 
L 262.800824 -316.395372 
L 264.120192 -316.561801 
L 269.397665 -325.257345 
L 270.717033 -322.892613 
L 272.036401 -312.130823 
L 273.355769 -318.41571 
L 274.675137 -318.662503 
L 278.633242 -321.583965 
L 279.95261 -317.71547 
L 281.271978 -310.759049 
L 282.591346 -312.435027 
L 283.910714 -310.472065 
L 287.868819 -316.171498 
L 289.188187 -303.481204 
L 290.507555 -305.329362 
L 291.826923 -302.212713 
L 293.146291 -309.880877 
L 297.104396 -315.488496 
L 298.423764 -313.416481 
L 299.743132 -312.257078 
L 301.0625 -308.13602 
L 302.381868 -280.780949 
L 306.339973 -284.999591 
L 307.659341 -275.104487 
L 308.978709 -283.484324 
L 310.298077 -273.51459 
L 311.617445 -273.847499 
L 315.575549 -281.52138 
L 316.894918 -275.770287 
L 318.214286 -283.329347 
L 319.533654 -292.37502 
L 320.853022 -292.690674 
L 324.811126 -302.09221 
L 326.130495 -287.915337 
L 327.449863 -283.34085 
L 328.769231 -325.004818 
L 330.088599 -343.715952 
L 335.366071 -340.300886 
L 336.68544 -325.917411 
L 338.004808 -331.301173 
L 339.324176 -330.130301 
L 343.28228 -324.333248 
L 344.601648 -330.222134 
L 345.921016 -328.597815 
L 347.240385 -330.38858 
L 348.559753 -332.782 
L 352.517857 -346.757988 
L 353.837225 -352.193409 
L 355.156593 -353.065864 
L 356.475962 -342.774688 
L 357.79533 -341.816152 
L 363.072802 -337.580326 
L 364.39217 -334.624406 
L 365.711538 -338.733978 
L 367.030907 -335.152466 
L 370.989011 -337.970628 
L 372.308379 -350.54042 
L 373.627747 -347.360661 
L 374.947115 -352.840899 
L 376.266484 -355.3884 
L 380.224588 -356.734037 
L 382.863324 -345.629752 
L 384.182692 -340.586533 
L 385.50206 -340.247239 
L 389.460165 -351.995602 
L 390.779533 -356.71103 
L 392.098901 -367.355254 
L 393.418269 -376.314582 
L 394.737637 -369.638214 
L 398.695742 -383.272727 
L 400.01511 -382.921965 
L 401.334478 -375.10125 
L 402.653846 -348.9593 
L 403.973214 -351.616029 
L 407.931319 -351.357258 
L 409.250687 -361.886519 
L 410.570055 -348.815526 
L 411.889423 -353.640253 
L 413.208791 -358.447673 
L 417.166896 -366.463908 
L 418.486264 -361.173422 
L 419.805632 -349.752885 
L 421.125 -351.04674 
L 422.444368 -353.553961 
L 426.402473 -356.2452 
L 427.721841 -349.333103 
L 429.041209 -344.353099 
L 430.360577 -342.880962 
L 431.679945 -333.501869 
L 435.638049 -346.434805 
L 436.957418 -343.116761 
L 438.276786 -328.751931 
L 439.596154 -323.829461 
L 440.915522 -322.069812 
L 444.873626 -331.615702 
L 446.192995 -332.616275 
L 447.512363 -343.438783 
L 448.831731 -325.359116 
L 450.151099 -325.9744 
L 454.109203 -328.728925 
L 455.428571 -339.626185 
L 456.74794 -340.960301 
L 458.067308 -344.450895 
L 459.386676 -346.584313 
L 464.664148 -348.769513 
L 465.983516 -345.583739 
L 467.302885 -335.78483 
L 468.622253 -332.754297 
L 472.580357 -324.295256 
L 473.899725 -317.268109 
L 475.219093 -315.209409 
L 476.538462 -320.275635 
L 477.85783 -311.684341 
L 481.815934 -311.086276 
L 483.135302 -307.975238 
L 484.45467 -305.145978 
L 485.774038 -297.969306 
L 487.093407 -303.093048 
L 491.051511 -305.31274 
L 492.370879 -300.36153 
L 493.690247 -298.429349 
L 495.009615 -305.195825 
L 496.328984 -311.005525 
L 500.287088 -309.472406 
L 501.606456 -303.472497 
L 502.925824 -308.221715 
L 504.245192 -305.103606 
L 505.56456 -317.737404 
L 509.522665 -319.086084 
L 510.842033 -327.143601 
L 512.161401 -334.082978 
L 513.480769 -328.89574 
L 514.800137 -318.930473 
L 518.758242 -323.178242 
L 520.07761 -319.397323 
L 521.396978 -310.463745 
L 522.716346 -294.723359 
L 524.035714 -286.82147 
L 527.993819 -283.046303 
L 529.313187 -285.645691 
L 530.632555 -275.115603 
L 531.951923 -277.611234 
L 533.271291 -278.689024 
L 537.229396 -277.576653 
L 538.548764 -299.328469 
L 539.868132 -307.870126 
L 541.1875 -316.607743 
L 541.1875 -44.727273 
L 541.1875 -44.727273 
L 539.868132 -44.727273 
L 538.548764 -44.727273 
L 537.229396 -44.727273 
L 533.271291 -44.727273 
L 531.951923 -44.727273 
L 530.632555 -44.727273 
L 529.313187 -44.727273 
L 527.993819 -44.727273 
L 524.035714 -44.727273 
L 522.716346 -44.727273 
L 521.396978 -44.727273 
L 520.07761 -44.727273 
L 518.758242 -44.727273 
L 514.800137 -44.727273 
L 513.480769 -44.727273 
L 512.161401 -44.727273 
L 510.842033 -44.727273 
L 509.522665 -44.727273 
L 505.56456 -44.727273 
L 504.245192 -44.727273 
L 502.925824 -44.727273 
L 501.606456 -44.727273 
L 500.287088 -44.727273 
L 496.328984 -44.727273 
L 495.009615 -44.727273 
L 493.690247 -44.727273 
L 492.370879 -44.727273 
L 491.051511 -44.727273 
L 487.093407 -44.727273 
L 485.774038 -44.727273 
L 484.45467 -44.727273 
L 483.135302 -44.727273 
L 481.815934 -44.727273 
L 477.85783 -44.727273 
L 476.538462 -44.727273 
L 475.219093 -44.727273 
L 473.899725 -44.727273 
L 472.580357 -44.727273 
L 468.622253 -44.727273 
L 467.302885 -44.727273 
L 465.983516 -44.727273 
L 464.664148 -44.727273 
L 459.386676 -44.727273 
L 458.067308 -44.727273 
L 456.74794 -44.727273 
L 455.428571 -44.727273 
L 454.109203 -44.727273 
L 450.151099 -44.727273 
L 448.831731 -44.727273 
L 447.512363 -44.727273 
L 446.192995 -44.727273 
L 444.873626 -44.727273 
L 440.915522 -44.727273 
L 439.596154 -44.727273 
L 438.276786 -44.727273 
L 436.957418 -44.727273 
L 435.638049 -44.727273 
L 431.679945 -44.727273 
L 430.360577 -44.727273 
L 429.041209 -44.727273 
L 427.721841 -44.727273 
L 426.402473 -44.727273 
L 422.444368 -44.727273 
L 421.125 -44.727273 
L 419.805632 -44.727273 
L 418.486264 -44.727273 
L 417.166896 -44.727273 
L 413.208791 -44.727273 
L 411.889423 -44.727273 
L 410.570055 -44.727273 
L 409.250687 -44.727273 
L 407.931319 -44.727273 
L 403.973214 -44.727273 
L 402.653846 -44.727273 
L 401.334478 -44.727273 
L 400.01511 -44.727273 
L 398.695742 -44.727273 
L 394.737637 -44.727273 
L 393.418269 -44.727273 
L 392.098901 -44.727273 
L 390.779533 -44.727273 
L 389.460165 -44.727273 
L 385.50206 -44.727273 
L 384.182692 -44.727273 
L 382.863324 -44.727273 
L 380.224588 -44.727273 
L 376.266484 -44.727273 
L 374.947115 -44.727273 
L 373.627747 -44.727273 
L 372.308379 -44.727273 
L 370.989011 -44.727273 
L 367.030907 -44.727273 
L 365.711538 -44.727273 
L 364.39217 -44.727273 
L 363.072802 -44.727273 
L 357.79533 -44.727273 
L 356.475962 -44.727273 
L 355.156593 -44.727273 
L 353.837225 -44.727273 
L 352.517857 -44.727273 
L 348.559753 -44.727273 
L 347.240385 -44.727273 
L 345.921016 -44.727273 
L 344.601648 -44.727273 
L 343.28228 -44.727273 
L 339.324176 -44.727273 
L 338.004808 -44.727273 
L 336.68544 -44.727273 
L 335.366071 -44.727273 
L 330.088599 -44.727273 
L 328.769231 -44.727273 
L 327.449863 -44.727273 
L 326.130495 -44.727273 
L 324.811126 -44.727273 
L 320.853022 -44.727273 
L 319.533654 -44.727273 
L 318.214286 -44.727273 
L 316.894918 -44.727273 
L 315.575549 -44.727273 
L 311.617445 -44.727273 
L 310.298077 -44.727273 
L 308.978709 -44.727273 
L 307.659341 -44.727273 
L 306.339973 -44.727273 
L 302.381868 -44.727273 
L 301.0625 -44.727273 
L 299.743132 -44.727273 
L 298.423764 -44.727273 
L 297.104396 -44.727273 
L 293.146291 -44.727273 
L 291.826923 -44.727273 
L 290.507555 -44.727273 
L 289.188187 -44.727273 
L 287.868819 -44.727273 
L 283.910714 -44.727273 
L 282.591346 -44.727273 
L 281.271978 -44.727273 
L 279.95261 -44.727273 
L 278.633242 -44.727273 
L 274.675137 -44.727273 
L 273.355769 -44.727273 
L 272.036401 -44.727273 
L 270.717033 -44.727273 
L 269.397665 -44.727273 
L 264.120192 -44.727273 
L 262.800824 -44.727273 
L 261.481456 -44.727273 
L 260.162088 -44.727273 
L 256.203984 -44.727273 
L 254.884615 -44.727273 
L 253.565247 -44.727273 
L 252.245879 -44.727273 
L 250.926511 -44.727273 
L 246.968407 -44.727273 
L 245.649038 -44.727273 
L 244.32967 -44.727273 
L 243.010302 -44.727273 
L 241.690934 -44.727273 
L 237.73283 -44.727273 
L 236.413462 -44.727273 
L 235.094093 -44.727273 
L 233.774725 -44.727273 
L 232.455357 -44.727273 
L 228.497253 -44.727273 
L 227.177885 -44.727273 
L 225.858516 -44.727273 
L 224.539148 -44.727273 
L 223.21978 -44.727273 
L 219.261676 -44.727273 
L 217.942308 -44.727273 
L 216.62294 -44.727273 
L 215.303571 -44.727273 
L 213.984203 -44.727273 
L 210.026099 -44.727273 
L 208.706731 -44.727273 
L 207.387363 -44.727273 
L 206.067995 -44.727273 
L 200.790522 -44.727273 
L 199.471154 -44.727273 
L 198.151786 -44.727273 
L 196.832418 -44.727273 
L 195.513049 -44.727273 
L 191.554945 -44.727273 
L 190.235577 -44.727273 
L 188.916209 -44.727273 
L 187.596841 -44.727273 
L 186.277473 -44.727273 
L 182.319368 -44.727273 
L 181 -44.727273 
L 179.680632 -44.727273 
L 178.361264 -44.727273 
L 177.041896 -44.727273 
L 173.083791 -44.727273 
L 171.764423 -44.727273 
L 170.445055 -44.727273 
L 169.125687 -44.727273 
L 167.806319 -44.727273 
L 163.848214 -44.727273 
L 162.528846 -44.727273 
L 161.209478 -44.727273 
L 159.89011 -44.727273 
L 154.612637 -44.727273 
L 153.293269 -44.727273 
L 151.973901 -44.727273 
L 150.654533 -44.727273 
L 149.335165 -44.727273 
L 145.37706 -44.727273 
L 144.057692 -44.727273 
L 142.738324 -44.727273 
L 141.418956 -44.727273 
L 136.141484 -44.727273 
L 134.822115 -44.727273 
L 133.502747 -44.727273 
L 132.183379 -44.727273 
L 126.905907 -44.727273 
L 125.586538 -44.727273 
L 124.26717 -44.727273 
L 122.947802 -44.727273 
L 121.628434 -44.727273 
L 117.67033 -44.727273 
L 116.350962 -44.727273 
L 115.031593 -44.727273 
L 113.712225 -44.727273 
L 112.392857 -44.727273 
L 108.434753 -44.727273 
L 107.115385 -44.727273 
L 105.796016 -44.727273 
L 104.476648 -44.727273 
L 103.15728 -44.727273 
L 99.199176 -44.727273 
L 97.879808 -44.727273 
L 96.56044 -44.727273 
L 95.241071 -44.727273 
L 93.921703 -44.727273 
L 89.963599 -44.727273 
L 87.324863 -44.727273 
L 86.005495 -44.727273 
L 84.686126 -44.727273 
L 80.728022 -44.727273 
L 79.408654 -44.727273 
L 78.089286 -44.727273 
L 76.769918 -44.727273 
L 75.450549 -44.727273 
L 71.492445 -44.727273 
L 70.173077 -44.727273 
L 68.853709 -44.727273 
L 67.534341 -44.727273 
L 66.214973 -44.727273 
L 62.256868 -44.727273 
L 60.9375 -44.727273 
z
" id="mee9a660bc3" style="stroke:#ffcee0;"/>
    </defs>
    <g clip-path="url(#p83d2782d99)">
     <use style="fill:#ffcee0;stroke:#ffcee0;" x="0" xlink:href="#mee9a660bc3" y="432"/>
    </g>
   </g>
   <g id="matplotlib.axis_1">
    <g id="xtick_1">
     <g id="line2d_1">
      <defs>
       <path d="M 0 0 
L 0 3.5 
" id="m743268adff" style="stroke:#000000;stroke-width:0.8;"/>
      </defs>
      <g>
       <use style="stroke:#000000;stroke-width:0.8;" x="58.298764" xlink:href="#m743268adff" y="404.2"/>
      </g>
     </g>
     <g id="text_1">
      <!-- 2022-11 -->
      <defs>
       <path d="M 19.1875 8.296875 
L 53.609375 8.296875 
L 53.609375 0 
L 7.328125 0 
L 7.328125 8.296875 
Q 12.9375 14.109375 22.625 23.890625 
Q 32.328125 33.6875 34.8125 36.53125 
Q 39.546875 41.84375 41.421875 45.53125 
Q 43.3125 49.21875 43.3125 52.78125 
Q 43.3125 58.59375 39.234375 62.25 
Q 35.15625 65.921875 28.609375 65.921875 
Q 23.96875 65.921875 18.8125 64.3125 
Q 13.671875 62.703125 7.8125 59.421875 
L 7.8125 69.390625 
Q 13.765625 71.78125 18.9375 73 
Q 24.125 74.21875 28.421875 74.21875 
Q 39.75 74.21875 46.484375 68.546875 
Q 53.21875 62.890625 53.21875 53.421875 
Q 53.21875 48.921875 51.53125 44.890625 
Q 49.859375 40.875 45.40625 35.40625 
Q 44.1875 33.984375 37.640625 27.21875 
Q 31.109375 20.453125 19.1875 8.296875 
z
" id="DejaVuSans-50"/>
       <path d="M 31.78125 66.40625 
Q 24.171875 66.40625 20.328125 58.90625 
Q 16.5 51.421875 16.5 36.375 
Q 16.5 21.390625 20.328125 13.890625 
Q 24.171875 6.390625 31.78125 6.390625 
Q 39.453125 6.390625 43.28125 13.890625 
Q 47.125 21.390625 47.125 36.375 
Q 47.125 51.421875 43.28125 58.90625 
Q 39.453125 66.40625 31.78125 66.40625 
z
M 31.78125 74.21875 
Q 44.046875 74.21875 50.515625 64.515625 
Q 56.984375 54.828125 56.984375 36.375 
Q 56.984375 17.96875 50.515625 8.265625 
Q 44.046875 -1.421875 31.78125 -1.421875 
Q 19.53125 -1.421875 13.0625 8.265625 
Q 6.59375 17.96875 6.59375 36.375 
Q 6.59375 54.828125 13.0625 64.515625 
Q 19.53125 74.21875 31.78125 74.21875 
z
" id="DejaVuSans-48"/>
       <path d="M 4.890625 31.390625 
L 31.203125 31.390625 
L 31.203125 23.390625 
L 4.890625 23.390625 
z
" id="DejaVuSans-45"/>
       <path d="M 12.40625 8.296875 
L 28.515625 8.296875 
L 28.515625 63.921875 
L 10.984375 60.40625 
L 10.984375 69.390625 
L 28.421875 72.90625 
L 38.28125 72.90625 
L 38.28125 8.296875 
L 54.390625 8.296875 
L 54.390625 0 
L 12.40625 0 
z
" id="DejaVuSans-49"/>
      </defs>
      <g transform="translate(37.407357 418.798437)scale(0.1 -0.1)">
       <use xlink:href="#DejaVuSans-50"/>
       <use x="63.623047" xlink:href="#DejaVuSans-48"/>
       <use x="127.246094" xlink:href="#DejaVuSans-50"/>
       <use x="190.869141" xlink:href="#DejaVuSans-50"/>
       <use x="254.492188" xlink:href="#DejaVuSans-45"/>
       <use x="290.576172" xlink:href="#DejaVuSans-49"/>
       <use x="354.199219" xlink:href="#DejaVuSans-49"/>
      </g>
     </g>
    </g>
    <g id="xtick_2">
     <g id="line2d_2">
      <g>
       <use style="stroke:#000000;stroke-width:0.8;" x="138.78022" xlink:href="#m743268adff" y="404.2"/>
      </g>
     </g>
     <g id="text_2">
      <!-- 2023-01 -->
      <defs>
       <path d="M 40.578125 39.3125 
Q 47.65625 37.796875 51.625 33 
Q 55.609375 28.21875 55.609375 21.1875 
Q 55.609375 10.40625 48.1875 4.484375 
Q 40.765625 -1.421875 27.09375 -1.421875 
Q 22.515625 -1.421875 17.65625 -0.515625 
Q 12.796875 0.390625 7.625 2.203125 
L 7.625 11.71875 
Q 11.71875 9.328125 16.59375 8.109375 
Q 21.484375 6.890625 26.8125 6.890625 
Q 36.078125 6.890625 40.9375 10.546875 
Q 45.796875 14.203125 45.796875 21.1875 
Q 45.796875 27.640625 41.28125 31.265625 
Q 36.765625 34.90625 28.71875 34.90625 
L 20.21875 34.90625 
L 20.21875 43.015625 
L 29.109375 43.015625 
Q 36.375 43.015625 40.234375 45.921875 
Q 44.09375 48.828125 44.09375 54.296875 
Q 44.09375 59.90625 40.109375 62.90625 
Q 36.140625 65.921875 28.71875 65.921875 
Q 24.65625 65.921875 20.015625 65.03125 
Q 15.375 64.15625 9.8125 62.3125 
L 9.8125 71.09375 
Q 15.4375 72.65625 20.34375 73.4375 
Q 25.25 74.21875 29.59375 74.21875 
Q 40.828125 74.21875 47.359375 69.109375 
Q 53.90625 64.015625 53.90625 55.328125 
Q 53.90625 49.265625 50.4375 45.09375 
Q 46.96875 40.921875 40.578125 39.3125 
z
" id="DejaVuSans-51"/>
      </defs>
      <g transform="translate(117.888814 418.798437)scale(0.1 -0.1)">
       <use xlink:href="#DejaVuSans-50"/>
       <use x="63.623047" xlink:href="#DejaVuSans-48"/>
       <use x="127.246094" xlink:href="#DejaVuSans-50"/>
       <use x="190.869141" xlink:href="#DejaVuSans-51"/>
       <use x="254.492188" xlink:href="#DejaVuSans-45"/>
       <use x="290.576172" xlink:href="#DejaVuSans-48"/>
       <use x="354.199219" xlink:href="#DejaVuSans-49"/>
      </g>
     </g>
    </g>
    <g id="xtick_3">
     <g id="line2d_3">
      <g>
       <use style="stroke:#000000;stroke-width:0.8;" x="216.62294" xlink:href="#m743268adff" y="404.2"/>
      </g>
     </g>
     <g id="text_3">
      <!-- 2023-03 -->
      <g transform="translate(195.731533 418.798437)scale(0.1 -0.1)">
       <use xlink:href="#DejaVuSans-50"/>
       <use x="63.623047" xlink:href="#DejaVuSans-48"/>
       <use x="127.246094" xlink:href="#DejaVuSans-50"/>
       <use x="190.869141" xlink:href="#DejaVuSans-51"/>
       <use x="254.492188" xlink:href="#DejaVuSans-45"/>
       <use x="290.576172" xlink:href="#DejaVuSans-48"/>
       <use x="354.199219" xlink:href="#DejaVuSans-51"/>
      </g>
     </g>
    </g>
    <g id="xtick_4">
     <g id="line2d_4">
      <g>
       <use style="stroke:#000000;stroke-width:0.8;" x="297.104396" xlink:href="#m743268adff" y="404.2"/>
      </g>
     </g>
     <g id="text_4">
      <!-- 2023-05 -->
      <defs>
       <path d="M 10.796875 72.90625 
L 49.515625 72.90625 
L 49.515625 64.59375 
L 19.828125 64.59375 
L 19.828125 46.734375 
Q 21.96875 47.46875 24.109375 47.828125 
Q 26.265625 48.1875 28.421875 48.1875 
Q 40.625 48.1875 47.75 41.5 
Q 54.890625 34.8125 54.890625 23.390625 
Q 54.890625 11.625 47.5625 5.09375 
Q 40.234375 -1.421875 26.90625 -1.421875 
Q 22.3125 -1.421875 17.546875 -0.640625 
Q 12.796875 0.140625 7.71875 1.703125 
L 7.71875 11.625 
Q 12.109375 9.234375 16.796875 8.0625 
Q 21.484375 6.890625 26.703125 6.890625 
Q 35.15625 6.890625 40.078125 11.328125 
Q 45.015625 15.765625 45.015625 23.390625 
Q 45.015625 31 40.078125 35.4375 
Q 35.15625 39.890625 26.703125 39.890625 
Q 22.75 39.890625 18.8125 39.015625 
Q 14.890625 38.140625 10.796875 36.28125 
z
" id="DejaVuSans-53"/>
      </defs>
      <g transform="translate(276.212989 418.798437)scale(0.1 -0.1)">
       <use xlink:href="#DejaVuSans-50"/>
       <use x="63.623047" xlink:href="#DejaVuSans-48"/>
       <use x="127.246094" xlink:href="#DejaVuSans-50"/>
       <use x="190.869141" xlink:href="#DejaVuSans-51"/>
       <use x="254.492188" xlink:href="#DejaVuSans-45"/>
       <use x="290.576172" xlink:href="#DejaVuSans-48"/>
       <use x="354.199219" xlink:href="#DejaVuSans-53"/>
      </g>
     </g>
    </g>
    <g id="xtick_5">
     <g id="line2d_5">
      <g>
       <use style="stroke:#000000;stroke-width:0.8;" x="377.585852" xlink:href="#m743268adff" y="404.2"/>
      </g>
     </g>
     <g id="text_5">
      <!-- 2023-07 -->
      <defs>
       <path d="M 8.203125 72.90625 
L 55.078125 72.90625 
L 55.078125 68.703125 
L 28.609375 0 
L 18.3125 0 
L 43.21875 64.59375 
L 8.203125 64.59375 
z
" id="DejaVuSans-55"/>
      </defs>
      <g transform="translate(356.694445 418.798437)scale(0.1 -0.1)">
       <use xlink:href="#DejaVuSans-50"/>
       <use x="63.623047" xlink:href="#DejaVuSans-48"/>
       <use x="127.246094" xlink:href="#DejaVuSans-50"/>
       <use x="190.869141" xlink:href="#DejaVuSans-51"/>
       <use x="254.492188" xlink:href="#DejaVuSans-45"/>
       <use x="290.576172" xlink:href="#DejaVuSans-48"/>
       <use x="354.199219" xlink:href="#DejaVuSans-55"/>
      </g>
     </g>
    </g>
    <g id="xtick_6">
     <g id="line2d_6">
      <g>
       <use style="stroke:#000000;stroke-width:0.8;" x="459.386676" xlink:href="#m743268adff" y="404.2"/>
      </g>
     </g>
     <g id="text_6">
      <!-- 2023-09 -->
      <defs>
       <path d="M 10.984375 1.515625 
L 10.984375 10.5 
Q 14.703125 8.734375 18.5 7.8125 
Q 22.3125 6.890625 25.984375 6.890625 
Q 35.75 6.890625 40.890625 13.453125 
Q 46.046875 20.015625 46.78125 33.40625 
Q 43.953125 29.203125 39.59375 26.953125 
Q 35.25 24.703125 29.984375 24.703125 
Q 19.046875 24.703125 12.671875 31.3125 
Q 6.296875 37.9375 6.296875 49.421875 
Q 6.296875 60.640625 12.9375 67.421875 
Q 19.578125 74.21875 30.609375 74.21875 
Q 43.265625 74.21875 49.921875 64.515625 
Q 56.59375 54.828125 56.59375 36.375 
Q 56.59375 19.140625 48.40625 8.859375 
Q 40.234375 -1.421875 26.421875 -1.421875 
Q 22.703125 -1.421875 18.890625 -0.6875 
Q 15.09375 0.046875 10.984375 1.515625 
z
M 30.609375 32.421875 
Q 37.25 32.421875 41.125 36.953125 
Q 45.015625 41.5 45.015625 49.421875 
Q 45.015625 57.28125 41.125 61.84375 
Q 37.25 66.40625 30.609375 66.40625 
Q 23.96875 66.40625 20.09375 61.84375 
Q 16.21875 57.28125 16.21875 49.421875 
Q 16.21875 41.5 20.09375 36.953125 
Q 23.96875 32.421875 30.609375 32.421875 
z
" id="DejaVuSans-57"/>
      </defs>
      <g transform="translate(438.49527 418.798437)scale(0.1 -0.1)">
       <use xlink:href="#DejaVuSans-50"/>
       <use x="63.623047" xlink:href="#DejaVuSans-48"/>
       <use x="127.246094" xlink:href="#DejaVuSans-50"/>
       <use x="190.869141" xlink:href="#DejaVuSans-51"/>
       <use x="254.492188" xlink:href="#DejaVuSans-45"/>
       <use x="290.576172" xlink:href="#DejaVuSans-48"/>
       <use x="354.199219" xlink:href="#DejaVuSans-57"/>
      </g>
     </g>
    </g>
    <g id="xtick_7">
     <g id="line2d_7">
      <g>
       <use style="stroke:#000000;stroke-width:0.8;" x="539.868132" xlink:href="#m743268adff" y="404.2"/>
      </g>
     </g>
     <g id="text_7">
      <!-- 2023-11 -->
      <g transform="translate(518.976726 418.798437)scale(0.1 -0.1)">
       <use xlink:href="#DejaVuSans-50"/>
       <use x="63.623047" xlink:href="#DejaVuSans-48"/>
       <use x="127.246094" xlink:href="#DejaVuSans-50"/>
       <use x="190.869141" xlink:href="#DejaVuSans-51"/>
       <use x="254.492188" xlink:href="#DejaVuSans-45"/>
       <use x="290.576172" xlink:href="#DejaVuSans-49"/>
       <use x="354.199219" xlink:href="#DejaVuSans-49"/>
      </g>
     </g>
    </g>
   </g>
   <g id="matplotlib.axis_2">
    <g id="ytick_1">
     <g id="line2d_8">
      <defs>
       <path d="M 0 0 
L -3.5 0 
" id="m4a748d55d3" style="stroke:#000000;stroke-width:0.8;"/>
      </defs>
      <g>
       <use style="stroke:#000000;stroke-width:0.8;" x="36.925" xlink:href="#m4a748d55d3" y="387.272727"/>
      </g>
     </g>
     <g id="text_8">
      <!-- 0 -->
      <g transform="translate(23.5625 391.071946)scale(0.1 -0.1)">
       <use xlink:href="#DejaVuSans-48"/>
      </g>
     </g>
    </g>
    <g id="ytick_2">
     <g id="line2d_9">
      <g>
       <use style="stroke:#000000;stroke-width:0.8;" x="36.925" xlink:href="#m4a748d55d3" y="329.636742"/>
      </g>
     </g>
     <g id="text_9">
      <!-- 100 -->
      <g transform="translate(10.8375 333.435961)scale(0.1 -0.1)">
       <use xlink:href="#DejaVuSans-49"/>
       <use x="63.623047" xlink:href="#DejaVuSans-48"/>
       <use x="127.246094" xlink:href="#DejaVuSans-48"/>
      </g>
     </g>
    </g>
    <g id="ytick_3">
     <g id="line2d_10">
      <g>
       <use style="stroke:#000000;stroke-width:0.8;" x="36.925" xlink:href="#m4a748d55d3" y="272.000757"/>
      </g>
     </g>
     <g id="text_10">
      <!-- 200 -->
      <g transform="translate(10.8375 275.799975)scale(0.1 -0.1)">
       <use xlink:href="#DejaVuSans-50"/>
       <use x="63.623047" xlink:href="#DejaVuSans-48"/>
       <use x="127.246094" xlink:href="#DejaVuSans-48"/>
      </g>
     </g>
    </g>
    <g id="ytick_4">
     <g id="line2d_11">
      <g>
       <use style="stroke:#000000;stroke-width:0.8;" x="36.925" xlink:href="#m4a748d55d3" y="214.364771"/>
      </g>
     </g>
     <g id="text_11">
      <!-- 300 -->
      <g transform="translate(10.8375 218.16399)scale(0.1 -0.1)">
       <use xlink:href="#DejaVuSans-51"/>
       <use x="63.623047" xlink:href="#DejaVuSans-48"/>
       <use x="127.246094" xlink:href="#DejaVuSans-48"/>
      </g>
     </g>
    </g>
    <g id="ytick_5">
     <g id="line2d_12">
      <g>
       <use style="stroke:#000000;stroke-width:0.8;" x="36.925" xlink:href="#m4a748d55d3" y="156.728786"/>
      </g>
     </g>
     <g id="text_12">
      <!-- 400 -->
      <defs>
       <path d="M 37.796875 64.3125 
L 12.890625 25.390625 
L 37.796875 25.390625 
z
M 35.203125 72.90625 
L 47.609375 72.90625 
L 47.609375 25.390625 
L 58.015625 25.390625 
L 58.015625 17.1875 
L 47.609375 17.1875 
L 47.609375 0 
L 37.796875 0 
L 37.796875 17.1875 
L 4.890625 17.1875 
L 4.890625 26.703125 
z
" id="DejaVuSans-52"/>
      </defs>
      <g transform="translate(10.8375 160.528005)scale(0.1 -0.1)">
       <use xlink:href="#DejaVuSans-52"/>
       <use x="63.623047" xlink:href="#DejaVuSans-48"/>
       <use x="127.246094" xlink:href="#DejaVuSans-48"/>
      </g>
     </g>
    </g>
    <g id="ytick_6">
     <g id="line2d_13">
      <g>
       <use style="stroke:#000000;stroke-width:0.8;" x="36.925" xlink:href="#m4a748d55d3" y="99.092801"/>
      </g>
     </g>
     <g id="text_13">
      <!-- 500 -->
      <g transform="translate(10.8375 102.892019)scale(0.1 -0.1)">
       <use xlink:href="#DejaVuSans-53"/>
       <use x="63.623047" xlink:href="#DejaVuSans-48"/>
       <use x="127.246094" xlink:href="#DejaVuSans-48"/>
      </g>
     </g>
    </g>
    <g id="ytick_7">
     <g id="line2d_14">
      <g>
       <use style="stroke:#000000;stroke-width:0.8;" x="36.925" xlink:href="#m4a748d55d3" y="41.456815"/>
      </g>
     </g>
     <g id="text_14">
      <!-- 600 -->
      <defs>
       <path d="M 33.015625 40.375 
Q 26.375 40.375 22.484375 35.828125 
Q 18.609375 31.296875 18.609375 23.390625 
Q 18.609375 15.53125 22.484375 10.953125 
Q 26.375 6.390625 33.015625 6.390625 
Q 39.65625 6.390625 43.53125 10.953125 
Q 47.40625 15.53125 47.40625 23.390625 
Q 47.40625 31.296875 43.53125 35.828125 
Q 39.65625 40.375 33.015625 40.375 
z
M 52.59375 71.296875 
L 52.59375 62.3125 
Q 48.875 64.0625 45.09375 64.984375 
Q 41.3125 65.921875 37.59375 65.921875 
Q 27.828125 65.921875 22.671875 59.328125 
Q 17.53125 52.734375 16.796875 39.40625 
Q 19.671875 43.65625 24.015625 45.921875 
Q 28.375 48.1875 33.59375 48.1875 
Q 44.578125 48.1875 50.953125 41.515625 
Q 57.328125 34.859375 57.328125 23.390625 
Q 57.328125 12.15625 50.6875 5.359375 
Q 44.046875 -1.421875 33.015625 -1.421875 
Q 20.359375 -1.421875 13.671875 8.265625 
Q 6.984375 17.96875 6.984375 36.375 
Q 6.984375 53.65625 15.1875 63.9375 
Q 23.390625 74.21875 37.203125 74.21875 
Q 40.921875 74.21875 44.703125 73.484375 
Q 48.484375 72.75 52.59375 71.296875 
z
" id="DejaVuSans-54"/>
      </defs>
      <g transform="translate(10.8375 45.256034)scale(0.1 -0.1)">
       <use xlink:href="#DejaVuSans-54"/>
       <use x="63.623047" xlink:href="#DejaVuSans-48"/>
       <use x="127.246094" xlink:href="#DejaVuSans-48"/>
      </g>
     </g>
    </g>
   </g>
   <g id="patch_3">
    <path d="M 36.925 404.2 
L 36.925 31.8 
" style="fill:none;stroke:#000000;stroke-linecap:square;stroke-linejoin:miter;stroke-width:0.8;"/>
   </g>
   <g id="patch_4">
    <path d="M 565.2 404.2 
L 565.2 31.8 
" style="fill:none;stroke:#000000;stroke-linecap:square;stroke-linejoin:miter;stroke-width:0.8;"/>
   </g>
   <g id="patch_5">
    <path d="M 36.925 404.2 
L 565.2 404.2 
" style="fill:none;stroke:#000000;stroke-linecap:square;stroke-linejoin:miter;stroke-width:0.8;"/>
   </g>
   <g id="patch_6">
    <path d="M 36.925 31.8 
L 565.2 31.8 
" style="fill:none;stroke:#000000;stroke-linecap:square;stroke-linejoin:miter;stroke-width:0.8;"/>
   </g>
   <g id="text_15">
    <!-- MPWR - 42% -->
    <defs>
     <path d="M 9.1875 72.90625 
L 33.109375 72.90625 
L 49.703125 33.890625 
L 66.40625 72.90625 
L 90.28125 72.90625 
L 90.28125 0 
L 72.515625 0 
L 72.515625 53.328125 
L 55.71875 14.015625 
L 43.796875 14.015625 
L 27 53.328125 
L 27 0 
L 9.1875 0 
z
" id="DejaVuSans-Bold-77"/>
     <path d="M 9.1875 72.90625 
L 40.375 72.90625 
Q 54.296875 72.90625 61.734375 66.71875 
Q 69.1875 60.546875 69.1875 49.125 
Q 69.1875 37.640625 61.734375 31.46875 
Q 54.296875 25.296875 40.375 25.296875 
L 27.984375 25.296875 
L 27.984375 0 
L 9.1875 0 
z
M 27.984375 59.28125 
L 27.984375 38.921875 
L 38.375 38.921875 
Q 43.84375 38.921875 46.828125 41.578125 
Q 49.8125 44.234375 49.8125 49.125 
Q 49.8125 54 46.828125 56.640625 
Q 43.84375 59.28125 38.375 59.28125 
z
" id="DejaVuSans-Bold-80"/>
     <path d="M 2.984375 72.90625 
L 21 72.90625 
L 33.59375 19.921875 
L 46.09375 72.90625 
L 64.203125 72.90625 
L 76.703125 19.921875 
L 89.3125 72.90625 
L 107.171875 72.90625 
L 89.984375 0 
L 68.3125 0 
L 55.078125 55.421875 
L 42 0 
L 20.3125 0 
z
" id="DejaVuSans-Bold-87"/>
     <path d="M 35.890625 40.578125 
Q 41.796875 40.578125 44.359375 42.765625 
Q 46.921875 44.96875 46.921875 50 
Q 46.921875 54.984375 44.359375 57.125 
Q 41.796875 59.28125 35.890625 59.28125 
L 27.984375 59.28125 
L 27.984375 40.578125 
z
M 27.984375 27.59375 
L 27.984375 0 
L 9.1875 0 
L 9.1875 72.90625 
L 37.890625 72.90625 
Q 52.296875 72.90625 59 68.0625 
Q 65.71875 63.234375 65.71875 52.78125 
Q 65.71875 45.5625 62.21875 40.921875 
Q 58.734375 36.28125 51.703125 34.078125 
Q 55.5625 33.203125 58.609375 30.09375 
Q 61.671875 27 64.796875 20.703125 
L 75 0 
L 54.984375 0 
L 46.09375 18.109375 
Q 43.40625 23.578125 40.640625 25.578125 
Q 37.890625 27.59375 33.296875 27.59375 
z
" id="DejaVuSans-Bold-82"/>
     <path id="DejaVuSans-Bold-32"/>
     <path d="M 5.421875 35.890625 
L 36.078125 35.890625 
L 36.078125 21.6875 
L 5.421875 21.6875 
z
" id="DejaVuSans-Bold-45"/>
     <path d="M 36.8125 57.421875 
L 16.21875 26.90625 
L 36.8125 26.90625 
z
M 33.6875 72.90625 
L 54.59375 72.90625 
L 54.59375 26.90625 
L 64.984375 26.90625 
L 64.984375 13.28125 
L 54.59375 13.28125 
L 54.59375 0 
L 36.8125 0 
L 36.8125 13.28125 
L 4.5 13.28125 
L 4.5 29.390625 
z
" id="DejaVuSans-Bold-52"/>
     <path d="M 28.8125 13.8125 
L 60.890625 13.8125 
L 60.890625 0 
L 7.90625 0 
L 7.90625 13.8125 
L 34.515625 37.3125 
Q 38.09375 40.53125 39.796875 43.609375 
Q 41.5 46.6875 41.5 50 
Q 41.5 55.125 38.0625 58.25 
Q 34.625 61.375 28.90625 61.375 
Q 24.515625 61.375 19.28125 59.5 
Q 14.0625 57.625 8.109375 53.90625 
L 8.109375 69.921875 
Q 14.453125 72.015625 20.65625 73.109375 
Q 26.859375 74.21875 32.8125 74.21875 
Q 45.90625 74.21875 53.15625 68.453125 
Q 60.40625 62.703125 60.40625 52.390625 
Q 60.40625 46.4375 57.328125 41.28125 
Q 54.25 36.140625 44.390625 27.484375 
z
" id="DejaVuSans-Bold-50"/>
     <path d="M 77.484375 30.078125 
Q 74.03125 30.078125 72.125 27.078125 
Q 70.21875 24.078125 70.21875 18.5 
Q 70.21875 12.890625 72.09375 9.890625 
Q 73.96875 6.890625 77.484375 6.890625 
Q 81 6.890625 82.859375 9.890625 
Q 84.71875 12.890625 84.71875 18.5 
Q 84.71875 24.078125 82.828125 27.078125 
Q 80.953125 30.078125 77.484375 30.078125 
z
M 77.484375 38.28125 
Q 86.578125 38.28125 91.796875 33 
Q 97.015625 27.734375 97.015625 18.5 
Q 97.015625 9.28125 91.796875 3.921875 
Q 86.578125 -1.421875 77.484375 -1.421875 
Q 68.40625 -1.421875 63.15625 3.921875 
Q 57.90625 9.28125 57.90625 18.5 
Q 57.90625 27.6875 63.15625 32.984375 
Q 68.40625 38.28125 77.484375 38.28125 
z
M 32.71875 -1.421875 
L 21.921875 -1.421875 
L 67.484375 74.21875 
L 78.328125 74.21875 
z
M 22.703125 74.21875 
Q 31.78125 74.21875 36.984375 68.921875 
Q 42.1875 63.625 42.1875 54.390625 
Q 42.1875 45.171875 36.984375 39.84375 
Q 31.78125 34.515625 22.703125 34.515625 
Q 13.625 34.515625 8.421875 39.84375 
Q 3.21875 45.171875 3.21875 54.390625 
Q 3.21875 63.625 8.421875 68.921875 
Q 13.625 74.21875 22.703125 74.21875 
z
M 22.703125 66.015625 
Q 19.1875 66.015625 17.28125 62.984375 
Q 15.375 59.96875 15.375 54.390625 
Q 15.375 48.78125 17.28125 45.71875 
Q 19.1875 42.671875 22.703125 42.671875 
Q 26.21875 42.671875 28.09375 45.71875 
Q 29.984375 48.78125 29.984375 54.390625 
Q 29.984375 59.96875 28.078125 62.984375 
Q 26.171875 66.015625 22.703125 66.015625 
z
" id="DejaVuSans-Bold-37"/>
    </defs>
    <g transform="translate(36.925 25.8)scale(0.2 -0.2)">
     <use xlink:href="#DejaVuSans-Bold-77"/>
     <use x="99.511719" xlink:href="#DejaVuSans-Bold-80"/>
     <use x="172.802734" xlink:href="#DejaVuSans-Bold-87"/>
     <use x="283.105469" xlink:href="#DejaVuSans-Bold-82"/>
     <use x="360.107422" xlink:href="#DejaVuSans-Bold-32"/>
     <use x="394.921875" xlink:href="#DejaVuSans-Bold-45"/>
     <use x="436.425781" xlink:href="#DejaVuSans-Bold-32"/>
     <use x="471.240234" xlink:href="#DejaVuSans-Bold-52"/>
     <use x="540.820312" xlink:href="#DejaVuSans-Bold-50"/>
     <use x="610.400391" xlink:href="#DejaVuSans-Bold-37"/>
    </g>
   </g>
  </g>
 </g>
 <defs>
  <clipPath id="p83d2782d99">
   <rect height="372.4" width="528.275" x="36.925" y="31.8"/>
  </clipPath>
 </defs>
</svg>
