<?xml version="1.0" encoding="utf-8" standalone="no"?>
<!DOCTYPE svg PUBLIC "-//W3C//DTD SVG 1.1//EN"
  "http://www.w3.org/Graphics/SVG/1.1/DTD/svg11.dtd">
<!-- Created with matplotlib (https://matplotlib.org/) -->
<svg height="432pt" version="1.1" viewBox="0 0 864 432" width="864pt" xmlns="http://www.w3.org/2000/svg" xmlns:xlink="http://www.w3.org/1999/xlink">
 <defs>
  <style type="text/css">
*{stroke-linecap:butt;stroke-linejoin:round;}
  </style>
 </defs>
 <g id="figure_1">
  <g id="patch_1">
   <path d="M 0 432 
L 864 432 
L 864 0 
L 0 0 
z
" style="fill:none;"/>
  </g>
  <g id="axes_1">
   <g id="patch_2">
    <path d="M 75.175 385.2 
L 840.323864 385.2 
L 840.323864 88.8 
L 75.175 88.8 
z
" style="fill:none;"/>
   </g>
   <g id="PolyCollection_1">
    <path clip-path="url(#p88816a3360)" d="M 109.954494 2153.374376 
L 109.954494 267.567358 
L 113.734874 259.348181 
L 117.515253 234.236688 
L 121.295633 228.28254 
L 132.636772 252.164127 
L 136.417152 306.075833 
L 140.197532 318.049123 
L 143.977912 328.274549 
L 147.758291 311.641611 
L 162.87981 308.664637 
L 166.66019 328.79231 
L 170.44057 326.850856 
L 174.22095 323.549908 
L 185.562089 320.184762 
L 189.342469 352.544506 
L 193.122849 335.652788 
L 196.903228 346.331577 
L 200.683608 354.227377 
L 212.024747 332.805203 
L 215.805127 341.283361 
L 219.585507 346.477265 
L 223.365887 320.767516 
L 227.146266 333.882066 
L 242.267785 341.283559 
L 246.048165 327.974029 
L 249.828545 311.613189 
L 253.608925 344.52965 
L 264.950064 332.973153 
L 268.730444 310.314713 
L 272.510824 312.522103 
L 276.291203 279.735628 
L 280.071583 249.286332 
L 291.412722 252.662211 
L 298.973482 252.792198 
L 302.753862 234.09418 
L 306.534241 258.44046 
L 317.875381 238.314178 
L 321.65576 229.679401 
L 325.43614 239.02831 
L 329.21652 256.557639 
L 332.9969 263.699358 
L 344.338039 260.907624 
L 348.118419 265.971741 
L 351.898799 257.856314 
L 355.679178 234.808113 
L 359.459558 230.393334 
L 370.800697 234.483544 
L 374.581077 218.90183 
L 378.361457 235.522444 
L 382.141837 259.609148 
L 385.922216 263.764351 
L 397.263356 292.460616 
L 401.043735 282.721945 
L 404.824115 285.838447 
L 408.604495 285.448884 
L 412.384875 342.971399 
L 423.726014 332.843365 
L 427.506394 349.788549 
L 431.286773 327.584466 
L 435.067153 322.585343 
L 438.847533 296.8106 
L 450.188672 302.783432 
L 453.969052 327.12991 
L 457.749432 324.857527 
L 461.529812 351.995938 
L 465.310191 350.567674 
L 476.651331 353.943553 
L 480.43171 362.188768 
L 484.21209 349.853343 
L 487.99247 364.071588 
L 491.77285 343.425956 
L 503.113989 329.791856 
L 506.894369 322.325568 
L 510.674748 314.794486 
L 514.455128 312.327321 
L 518.235508 311.613189 
L 533.357027 328.558373 
L 537.137407 329.532081 
L 540.917787 319.858603 
L 544.698166 319.274258 
L 556.039306 312.716884 
L 559.819685 327.065116 
L 563.600065 334.98596 
L 567.380445 298.318566 
L 571.160825 308.869356 
L 582.501964 281.580486 
L 586.282344 292.001091 
L 590.062723 292.391846 
L 593.843103 335.181139 
L 597.623483 344.494669 
L 608.964622 351.528463 
L 612.745002 372.109102 
L 616.525382 375.495714 
L 620.305762 367.615218 
L 624.086141 380.31536 
L 635.427281 375.886469 
L 639.20766 385.2 
L 642.98804 367.354648 
L 646.76842 373.867501 
L 650.5488 354.915075 
L 661.889939 288.679472 
L 665.670319 296.88573 
L 669.450698 280.277836 
L 673.231078 275.849144 
L 677.011458 276.695846 
L 688.352597 243.024309 
L 692.132977 265.623917 
L 695.913357 276.239899 
L 699.693737 317.140607 
L 703.474116 321.634492 
L 714.815256 333.487932 
L 718.595635 320.397034 
L 722.376015 326.453939 
L 726.156395 363.381903 
L 729.936775 379.338273 
L 741.277914 354.394134 
L 745.058294 339.805407 
L 748.838673 326.519132 
L 752.619053 322.155433 
L 756.399433 203.295867 
L 767.740572 169.689721 
L 771.520952 167.084421 
L 775.301332 139.665365 
L 779.081712 142.205473 
L 782.862091 127.746932 
L 794.203231 136.734502 
L 797.98361 119.670859 
L 801.76399 107.557048 
L 805.54437 88.8 
L 805.54437 2153.374376 
L 805.54437 2153.374376 
L 801.76399 2153.374376 
L 797.98361 2153.374376 
L 794.203231 2153.374376 
L 782.862091 2153.374376 
L 779.081712 2153.374376 
L 775.301332 2153.374376 
L 771.520952 2153.374376 
L 767.740572 2153.374376 
L 756.399433 2153.374376 
L 752.619053 2153.374376 
L 748.838673 2153.374376 
L 745.058294 2153.374376 
L 741.277914 2153.374376 
L 729.936775 2153.374376 
L 726.156395 2153.374376 
L 722.376015 2153.374376 
L 718.595635 2153.374376 
L 714.815256 2153.374376 
L 703.474116 2153.374376 
L 699.693737 2153.374376 
L 695.913357 2153.374376 
L 692.132977 2153.374376 
L 688.352597 2153.374376 
L 677.011458 2153.374376 
L 673.231078 2153.374376 
L 669.450698 2153.374376 
L 665.670319 2153.374376 
L 661.889939 2153.374376 
L 650.5488 2153.374376 
L 646.76842 2153.374376 
L 642.98804 2153.374376 
L 639.20766 2153.374376 
L 635.427281 2153.374376 
L 624.086141 2153.374376 
L 620.305762 2153.374376 
L 616.525382 2153.374376 
L 612.745002 2153.374376 
L 608.964622 2153.374376 
L 597.623483 2153.374376 
L 593.843103 2153.374376 
L 590.062723 2153.374376 
L 586.282344 2153.374376 
L 582.501964 2153.374376 
L 571.160825 2153.374376 
L 567.380445 2153.374376 
L 563.600065 2153.374376 
L 559.819685 2153.374376 
L 556.039306 2153.374376 
L 544.698166 2153.374376 
L 540.917787 2153.374376 
L 537.137407 2153.374376 
L 533.357027 2153.374376 
L 518.235508 2153.374376 
L 514.455128 2153.374376 
L 510.674748 2153.374376 
L 506.894369 2153.374376 
L 503.113989 2153.374376 
L 491.77285 2153.374376 
L 487.99247 2153.374376 
L 484.21209 2153.374376 
L 480.43171 2153.374376 
L 476.651331 2153.374376 
L 465.310191 2153.374376 
L 461.529812 2153.374376 
L 457.749432 2153.374376 
L 453.969052 2153.374376 
L 450.188672 2153.374376 
L 438.847533 2153.374376 
L 435.067153 2153.374376 
L 431.286773 2153.374376 
L 427.506394 2153.374376 
L 423.726014 2153.374376 
L 412.384875 2153.374376 
L 408.604495 2153.374376 
L 404.824115 2153.374376 
L 401.043735 2153.374376 
L 397.263356 2153.374376 
L 385.922216 2153.374376 
L 382.141837 2153.374376 
L 378.361457 2153.374376 
L 374.581077 2153.374376 
L 370.800697 2153.374376 
L 359.459558 2153.374376 
L 355.679178 2153.374376 
L 351.898799 2153.374376 
L 348.118419 2153.374376 
L 344.338039 2153.374376 
L 332.9969 2153.374376 
L 329.21652 2153.374376 
L 325.43614 2153.374376 
L 321.65576 2153.374376 
L 317.875381 2153.374376 
L 306.534241 2153.374376 
L 302.753862 2153.374376 
L 298.973482 2153.374376 
L 291.412722 2153.374376 
L 280.071583 2153.374376 
L 276.291203 2153.374376 
L 272.510824 2153.374376 
L 268.730444 2153.374376 
L 264.950064 2153.374376 
L 253.608925 2153.374376 
L 249.828545 2153.374376 
L 246.048165 2153.374376 
L 242.267785 2153.374376 
L 227.146266 2153.374376 
L 223.365887 2153.374376 
L 219.585507 2153.374376 
L 215.805127 2153.374376 
L 212.024747 2153.374376 
L 200.683608 2153.374376 
L 196.903228 2153.374376 
L 193.122849 2153.374376 
L 189.342469 2153.374376 
L 185.562089 2153.374376 
L 174.22095 2153.374376 
L 170.44057 2153.374376 
L 166.66019 2153.374376 
L 162.87981 2153.374376 
L 147.758291 2153.374376 
L 143.977912 2153.374376 
L 140.197532 2153.374376 
L 136.417152 2153.374376 
L 132.636772 2153.374376 
L 121.295633 2153.374376 
L 117.515253 2153.374376 
L 113.734874 2153.374376 
L 109.954494 2153.374376 
z
" style="fill:#0000ff;fill-opacity:0.1;stroke:#0000ff;stroke-opacity:0.1;"/>
   </g>
   <g id="matplotlib.axis_1">
    <g id="xtick_1">
     <g id="line2d_1">
      <defs>
       <path d="M 0 0 
L 0 3.5 
" id="m2040fd056a" style="stroke:#000000;stroke-width:0.8;"/>
      </defs>
      <g>
       <use style="stroke:#000000;stroke-width:0.8;" x="109.954494" xlink:href="#m2040fd056a" y="385.2"/>
      </g>
     </g>
     <g id="text_1">
      <!-- 05/23 -->
      <defs>
       <path d="M 31.78125 66.40625 
Q 24.171875 66.40625 20.328125 58.90625 
Q 16.5 51.421875 16.5 36.375 
Q 16.5 21.390625 20.328125 13.890625 
Q 24.171875 6.390625 31.78125 6.390625 
Q 39.453125 6.390625 43.28125 13.890625 
Q 47.125 21.390625 47.125 36.375 
Q 47.125 51.421875 43.28125 58.90625 
Q 39.453125 66.40625 31.78125 66.40625 
z
M 31.78125 74.21875 
Q 44.046875 74.21875 50.515625 64.515625 
Q 56.984375 54.828125 56.984375 36.375 
Q 56.984375 17.96875 50.515625 8.265625 
Q 44.046875 -1.421875 31.78125 -1.421875 
Q 19.53125 -1.421875 13.0625 8.265625 
Q 6.59375 17.96875 6.59375 36.375 
Q 6.59375 54.828125 13.0625 64.515625 
Q 19.53125 74.21875 31.78125 74.21875 
z
" id="DejaVuSans-48"/>
       <path d="M 10.796875 72.90625 
L 49.515625 72.90625 
L 49.515625 64.59375 
L 19.828125 64.59375 
L 19.828125 46.734375 
Q 21.96875 47.46875 24.109375 47.828125 
Q 26.265625 48.1875 28.421875 48.1875 
Q 40.625 48.1875 47.75 41.5 
Q 54.890625 34.8125 54.890625 23.390625 
Q 54.890625 11.625 47.5625 5.09375 
Q 40.234375 -1.421875 26.90625 -1.421875 
Q 22.3125 -1.421875 17.546875 -0.640625 
Q 12.796875 0.140625 7.71875 1.703125 
L 7.71875 11.625 
Q 12.109375 9.234375 16.796875 8.0625 
Q 21.484375 6.890625 26.703125 6.890625 
Q 35.15625 6.890625 40.078125 11.328125 
Q 45.015625 15.765625 45.015625 23.390625 
Q 45.015625 31 40.078125 35.4375 
Q 35.15625 39.890625 26.703125 39.890625 
Q 22.75 39.890625 18.8125 39.015625 
Q 14.890625 38.140625 10.796875 36.28125 
z
" id="DejaVuSans-53"/>
       <path d="M 25.390625 72.90625 
L 33.6875 72.90625 
L 8.296875 -9.28125 
L 0 -9.28125 
z
" id="DejaVuSans-47"/>
       <path d="M 19.1875 8.296875 
L 53.609375 8.296875 
L 53.609375 0 
L 7.328125 0 
L 7.328125 8.296875 
Q 12.9375 14.109375 22.625 23.890625 
Q 32.328125 33.6875 34.8125 36.53125 
Q 39.546875 41.84375 41.421875 45.53125 
Q 43.3125 49.21875 43.3125 52.78125 
Q 43.3125 58.59375 39.234375 62.25 
Q 35.15625 65.921875 28.609375 65.921875 
Q 23.96875 65.921875 18.8125 64.3125 
Q 13.671875 62.703125 7.8125 59.421875 
L 7.8125 69.390625 
Q 13.765625 71.78125 18.9375 73 
Q 24.125 74.21875 28.421875 74.21875 
Q 39.75 74.21875 46.484375 68.546875 
Q 53.21875 62.890625 53.21875 53.421875 
Q 53.21875 48.921875 51.53125 44.890625 
Q 49.859375 40.875 45.40625 35.40625 
Q 44.1875 33.984375 37.640625 27.21875 
Q 31.109375 20.453125 19.1875 8.296875 
z
" id="DejaVuSans-50"/>
       <path d="M 40.578125 39.3125 
Q 47.65625 37.796875 51.625 33 
Q 55.609375 28.21875 55.609375 21.1875 
Q 55.609375 10.40625 48.1875 4.484375 
Q 40.765625 -1.421875 27.09375 -1.421875 
Q 22.515625 -1.421875 17.65625 -0.515625 
Q 12.796875 0.390625 7.625 2.203125 
L 7.625 11.71875 
Q 11.71875 9.328125 16.59375 8.109375 
Q 21.484375 6.890625 26.8125 6.890625 
Q 36.078125 6.890625 40.9375 10.546875 
Q 45.796875 14.203125 45.796875 21.1875 
Q 45.796875 27.640625 41.28125 31.265625 
Q 36.765625 34.90625 28.71875 34.90625 
L 20.21875 34.90625 
L 20.21875 43.015625 
L 29.109375 43.015625 
Q 36.375 43.015625 40.234375 45.921875 
Q 44.09375 48.828125 44.09375 54.296875 
Q 44.09375 59.90625 40.109375 62.90625 
Q 36.140625 65.921875 28.71875 65.921875 
Q 24.65625 65.921875 20.015625 65.03125 
Q 15.375 64.15625 9.8125 62.3125 
L 9.8125 71.09375 
Q 15.4375 72.65625 20.34375 73.4375 
Q 25.25 74.21875 29.59375 74.21875 
Q 40.828125 74.21875 47.359375 69.109375 
Q 53.90625 64.015625 53.90625 55.328125 
Q 53.90625 49.265625 50.4375 45.09375 
Q 46.96875 40.921875 40.578125 39.3125 
z
" id="DejaVuSans-51"/>
      </defs>
      <g transform="translate(66.726369 414.995312)scale(0.3 -0.3)">
       <use xlink:href="#DejaVuSans-48"/>
       <use x="63.623047" xlink:href="#DejaVuSans-53"/>
       <use x="127.246094" xlink:href="#DejaVuSans-47"/>
       <use x="160.9375" xlink:href="#DejaVuSans-50"/>
       <use x="224.560547" xlink:href="#DejaVuSans-51"/>
      </g>
     </g>
    </g>
    <g id="xtick_2">
     <g id="line2d_2">
      <g>
       <use style="stroke:#000000;stroke-width:0.8;" x="461.529812" xlink:href="#m2040fd056a" y="385.2"/>
      </g>
     </g>
     <g id="text_2">
      <!-- 08/23 -->
      <defs>
       <path d="M 31.78125 34.625 
Q 24.75 34.625 20.71875 30.859375 
Q 16.703125 27.09375 16.703125 20.515625 
Q 16.703125 13.921875 20.71875 10.15625 
Q 24.75 6.390625 31.78125 6.390625 
Q 38.8125 6.390625 42.859375 10.171875 
Q 46.921875 13.96875 46.921875 20.515625 
Q 46.921875 27.09375 42.890625 30.859375 
Q 38.875 34.625 31.78125 34.625 
z
M 21.921875 38.8125 
Q 15.578125 40.375 12.03125 44.71875 
Q 8.5 49.078125 8.5 55.328125 
Q 8.5 64.0625 14.71875 69.140625 
Q 20.953125 74.21875 31.78125 74.21875 
Q 42.671875 74.21875 48.875 69.140625 
Q 55.078125 64.0625 55.078125 55.328125 
Q 55.078125 49.078125 51.53125 44.71875 
Q 48 40.375 41.703125 38.8125 
Q 48.828125 37.15625 52.796875 32.3125 
Q 56.78125 27.484375 56.78125 20.515625 
Q 56.78125 9.90625 50.3125 4.234375 
Q 43.84375 -1.421875 31.78125 -1.421875 
Q 19.734375 -1.421875 13.25 4.234375 
Q 6.78125 9.90625 6.78125 20.515625 
Q 6.78125 27.484375 10.78125 32.3125 
Q 14.796875 37.15625 21.921875 38.8125 
z
M 18.3125 54.390625 
Q 18.3125 48.734375 21.84375 45.5625 
Q 25.390625 42.390625 31.78125 42.390625 
Q 38.140625 42.390625 41.71875 45.5625 
Q 45.3125 48.734375 45.3125 54.390625 
Q 45.3125 60.0625 41.71875 63.234375 
Q 38.140625 66.40625 31.78125 66.40625 
Q 25.390625 66.40625 21.84375 63.234375 
Q 18.3125 60.0625 18.3125 54.390625 
z
" id="DejaVuSans-56"/>
      </defs>
      <g transform="translate(418.301687 414.995312)scale(0.3 -0.3)">
       <use xlink:href="#DejaVuSans-48"/>
       <use x="63.623047" xlink:href="#DejaVuSans-56"/>
       <use x="127.246094" xlink:href="#DejaVuSans-47"/>
       <use x="160.9375" xlink:href="#DejaVuSans-50"/>
       <use x="224.560547" xlink:href="#DejaVuSans-51"/>
      </g>
     </g>
    </g>
    <g id="xtick_3">
     <g id="line2d_3">
      <g>
       <use style="stroke:#000000;stroke-width:0.8;" x="805.54437" xlink:href="#m2040fd056a" y="385.2"/>
      </g>
     </g>
     <g id="text_3">
      <!-- 11/23 -->
      <defs>
       <path d="M 12.40625 8.296875 
L 28.515625 8.296875 
L 28.515625 63.921875 
L 10.984375 60.40625 
L 10.984375 69.390625 
L 28.421875 72.90625 
L 38.28125 72.90625 
L 38.28125 8.296875 
L 54.390625 8.296875 
L 54.390625 0 
L 12.40625 0 
z
" id="DejaVuSans-49"/>
      </defs>
      <g transform="translate(762.316245 414.995312)scale(0.3 -0.3)">
       <use xlink:href="#DejaVuSans-49"/>
       <use x="63.623047" xlink:href="#DejaVuSans-49"/>
       <use x="127.246094" xlink:href="#DejaVuSans-47"/>
       <use x="160.9375" xlink:href="#DejaVuSans-50"/>
       <use x="224.560547" xlink:href="#DejaVuSans-51"/>
      </g>
     </g>
    </g>
   </g>
   <g id="matplotlib.axis_2">
    <g id="ytick_1">
     <g id="line2d_4">
      <defs>
       <path d="M 0 0 
L -3.5 0 
" id="m1be8a2c16f" style="stroke:#000000;stroke-width:0.8;"/>
      </defs>
      <g>
       <use style="stroke:#000000;stroke-width:0.8;" x="75.175" xlink:href="#m1be8a2c16f" y="329.775558"/>
      </g>
     </g>
     <g id="text_4">
      <!-- 280 -->
      <g transform="translate(10.9125 341.173214)scale(0.3 -0.3)">
       <use xlink:href="#DejaVuSans-50"/>
       <use x="63.623047" xlink:href="#DejaVuSans-56"/>
       <use x="127.246094" xlink:href="#DejaVuSans-48"/>
      </g>
     </g>
    </g>
    <g id="ytick_2">
     <g id="line2d_5">
      <g>
       <use style="stroke:#000000;stroke-width:0.8;" x="75.175" xlink:href="#m1be8a2c16f" y="199.5185"/>
      </g>
     </g>
     <g id="text_5">
      <!-- 300 -->
      <g transform="translate(10.9125 210.916156)scale(0.3 -0.3)">
       <use xlink:href="#DejaVuSans-51"/>
       <use x="63.623047" xlink:href="#DejaVuSans-48"/>
       <use x="127.246094" xlink:href="#DejaVuSans-48"/>
      </g>
     </g>
    </g>
   </g>
   <g id="line2d_6">
    <path clip-path="url(#p88816a3360)" d="M 109.954494 267.567358 
L 113.734874 259.348181 
L 117.515253 234.236688 
L 121.295633 228.28254 
L 132.636772 252.164127 
L 136.417152 306.075833 
L 140.197532 318.049123 
L 143.977912 328.274549 
L 147.758291 311.641611 
L 162.87981 308.664637 
L 166.66019 328.79231 
L 170.44057 326.850856 
L 174.22095 323.549908 
L 185.562089 320.184762 
L 189.342469 352.544506 
L 193.122849 335.652788 
L 196.903228 346.331577 
L 200.683608 354.227377 
L 212.024747 332.805203 
L 215.805127 341.283361 
L 219.585507 346.477265 
L 223.365887 320.767516 
L 227.146266 333.882066 
L 242.267785 341.283559 
L 246.048165 327.974029 
L 249.828545 311.613189 
L 253.608925 344.52965 
L 264.950064 332.973153 
L 268.730444 310.314713 
L 272.510824 312.522103 
L 276.291203 279.735628 
L 280.071583 249.286332 
L 291.412722 252.662211 
L 298.973482 252.792198 
L 302.753862 234.09418 
L 306.534241 258.44046 
L 317.875381 238.314178 
L 321.65576 229.679401 
L 325.43614 239.02831 
L 329.21652 256.557639 
L 332.9969 263.699358 
L 344.338039 260.907624 
L 348.118419 265.971741 
L 351.898799 257.856314 
L 355.679178 234.808113 
L 359.459558 230.393334 
L 370.800697 234.483544 
L 374.581077 218.90183 
L 378.361457 235.522444 
L 382.141837 259.609148 
L 385.922216 263.764351 
L 397.263356 292.460616 
L 401.043735 282.721945 
L 404.824115 285.838447 
L 408.604495 285.448884 
L 412.384875 342.971399 
L 423.726014 332.843365 
L 427.506394 349.788549 
L 431.286773 327.584466 
L 435.067153 322.585343 
L 438.847533 296.8106 
L 450.188672 302.783432 
L 453.969052 327.12991 
L 457.749432 324.857527 
L 461.529812 351.995938 
L 465.310191 350.567674 
L 476.651331 353.943553 
L 480.43171 362.188768 
L 484.21209 349.853343 
L 487.99247 364.071588 
L 491.77285 343.425956 
L 503.113989 329.791856 
L 510.674748 314.794486 
L 514.455128 312.327321 
L 518.235508 311.613189 
L 533.357027 328.558373 
L 537.137407 329.532081 
L 540.917787 319.858603 
L 544.698166 319.274258 
L 556.039306 312.716884 
L 559.819685 327.065116 
L 563.600065 334.98596 
L 567.380445 298.318566 
L 571.160825 308.869356 
L 582.501964 281.580486 
L 586.282344 292.001091 
L 590.062723 292.391846 
L 593.843103 335.181139 
L 597.623483 344.494669 
L 608.964622 351.528463 
L 612.745002 372.109102 
L 616.525382 375.495714 
L 620.305762 367.615218 
L 624.086141 380.31536 
L 635.427281 375.886469 
L 639.20766 385.2 
L 642.98804 367.354648 
L 646.76842 373.867501 
L 650.5488 354.915075 
L 661.889939 288.679472 
L 665.670319 296.88573 
L 669.450698 280.277836 
L 673.231078 275.849144 
L 677.011458 276.695846 
L 688.352597 243.024309 
L 692.132977 265.623917 
L 695.913357 276.239899 
L 699.693737 317.140607 
L 703.474116 321.634492 
L 714.815256 333.487932 
L 718.595635 320.397034 
L 722.376015 326.453939 
L 726.156395 363.381903 
L 729.936775 379.338273 
L 741.277914 354.394134 
L 745.058294 339.805407 
L 748.838673 326.519132 
L 752.619053 322.155433 
L 756.399433 203.295867 
L 767.740572 169.689721 
L 771.520952 167.084421 
L 775.301332 139.665365 
L 779.081712 142.205473 
L 782.862091 127.746932 
L 794.203231 136.734502 
L 797.98361 119.670859 
L 801.76399 107.557048 
L 805.54437 88.8 
L 805.54437 88.8 
" style="fill:none;stroke:#000000;stroke-linecap:square;stroke-width:4;"/>
   </g>
   <g id="patch_3">
    <path d="M 75.175 385.2 
L 75.175 88.8 
" style="fill:none;stroke:#000000;stroke-linecap:square;stroke-linejoin:miter;stroke-width:0.8;"/>
   </g>
   <g id="patch_4">
    <path d="M 75.175 385.2 
L 840.323864 385.2 
" style="fill:none;stroke:#000000;stroke-linecap:square;stroke-linejoin:miter;stroke-width:0.8;"/>
   </g>
   <g id="text_6">
    <!-- MSI   9% -->
    <defs>
     <path d="M 9.1875 72.90625 
L 33.109375 72.90625 
L 49.703125 33.890625 
L 66.40625 72.90625 
L 90.28125 72.90625 
L 90.28125 0 
L 72.515625 0 
L 72.515625 53.328125 
L 55.71875 14.015625 
L 43.796875 14.015625 
L 27 53.328125 
L 27 0 
L 9.1875 0 
z
" id="DejaVuSans-Bold-77"/>
     <path d="M 59.90625 70.609375 
L 59.90625 55.171875 
Q 53.90625 57.859375 48.1875 59.21875 
Q 42.484375 60.59375 37.40625 60.59375 
Q 30.671875 60.59375 27.4375 58.734375 
Q 24.21875 56.890625 24.21875 52.984375 
Q 24.21875 50.046875 26.390625 48.40625 
Q 28.5625 46.78125 34.28125 45.609375 
L 42.28125 44 
Q 54.4375 41.546875 59.5625 36.5625 
Q 64.703125 31.59375 64.703125 22.40625 
Q 64.703125 10.359375 57.546875 4.46875 
Q 50.390625 -1.421875 35.6875 -1.421875 
Q 28.765625 -1.421875 21.78125 -0.09375 
Q 14.796875 1.21875 7.8125 3.8125 
L 7.8125 19.671875 
Q 14.796875 15.96875 21.3125 14.078125 
Q 27.828125 12.203125 33.890625 12.203125 
Q 40.046875 12.203125 43.3125 14.25 
Q 46.578125 16.3125 46.578125 20.125 
Q 46.578125 23.53125 44.359375 25.390625 
Q 42.140625 27.25 35.5 28.71875 
L 28.21875 30.328125 
Q 17.28125 32.671875 12.21875 37.796875 
Q 7.171875 42.921875 7.171875 51.609375 
Q 7.171875 62.5 14.203125 68.359375 
Q 21.234375 74.21875 34.421875 74.21875 
Q 40.4375 74.21875 46.78125 73.3125 
Q 53.125 72.40625 59.90625 70.609375 
z
" id="DejaVuSans-Bold-83"/>
     <path d="M 9.1875 72.90625 
L 27.984375 72.90625 
L 27.984375 0 
L 9.1875 0 
z
" id="DejaVuSans-Bold-73"/>
     <path id="DejaVuSans-Bold-32"/>
     <path d="M 10.015625 1.609375 
L 10.015625 15.09375 
Q 14.5 12.984375 18.59375 11.9375 
Q 22.703125 10.890625 26.703125 10.890625 
Q 35.109375 10.890625 39.796875 15.546875 
Q 44.484375 20.21875 45.3125 29.390625 
Q 42 26.953125 38.234375 25.734375 
Q 34.46875 24.515625 30.078125 24.515625 
Q 18.890625 24.515625 12.03125 31.03125 
Q 5.171875 37.546875 5.171875 48.1875 
Q 5.171875 59.96875 12.8125 67.046875 
Q 20.453125 74.125 33.296875 74.125 
Q 47.5625 74.125 55.375 64.5 
Q 63.1875 54.890625 63.1875 37.3125 
Q 63.1875 19.234375 54.046875 8.90625 
Q 44.921875 -1.421875 29 -1.421875 
Q 23.875 -1.421875 19.1875 -0.65625 
Q 14.5 0.09375 10.015625 1.609375 
z
M 33.203125 36.71875 
Q 38.140625 36.71875 40.625 39.90625 
Q 43.109375 43.109375 43.109375 49.515625 
Q 43.109375 55.859375 40.625 59.078125 
Q 38.140625 62.3125 33.203125 62.3125 
Q 28.265625 62.3125 25.78125 59.078125 
Q 23.296875 55.859375 23.296875 49.515625 
Q 23.296875 43.109375 25.78125 39.90625 
Q 28.265625 36.71875 33.203125 36.71875 
z
" id="DejaVuSans-Bold-57"/>
     <path d="M 77.484375 30.078125 
Q 74.03125 30.078125 72.125 27.078125 
Q 70.21875 24.078125 70.21875 18.5 
Q 70.21875 12.890625 72.09375 9.890625 
Q 73.96875 6.890625 77.484375 6.890625 
Q 81 6.890625 82.859375 9.890625 
Q 84.71875 12.890625 84.71875 18.5 
Q 84.71875 24.078125 82.828125 27.078125 
Q 80.953125 30.078125 77.484375 30.078125 
z
M 77.484375 38.28125 
Q 86.578125 38.28125 91.796875 33 
Q 97.015625 27.734375 97.015625 18.5 
Q 97.015625 9.28125 91.796875 3.921875 
Q 86.578125 -1.421875 77.484375 -1.421875 
Q 68.40625 -1.421875 63.15625 3.921875 
Q 57.90625 9.28125 57.90625 18.5 
Q 57.90625 27.6875 63.15625 32.984375 
Q 68.40625 38.28125 77.484375 38.28125 
z
M 32.71875 -1.421875 
L 21.921875 -1.421875 
L 67.484375 74.21875 
L 78.328125 74.21875 
z
M 22.703125 74.21875 
Q 31.78125 74.21875 36.984375 68.921875 
Q 42.1875 63.625 42.1875 54.390625 
Q 42.1875 45.171875 36.984375 39.84375 
Q 31.78125 34.515625 22.703125 34.515625 
Q 13.625 34.515625 8.421875 39.84375 
Q 3.21875 45.171875 3.21875 54.390625 
Q 3.21875 63.625 8.421875 68.921875 
Q 13.625 74.21875 22.703125 74.21875 
z
M 22.703125 66.015625 
Q 19.1875 66.015625 17.28125 62.984375 
Q 15.375 59.96875 15.375 54.390625 
Q 15.375 48.78125 17.28125 45.71875 
Q 19.1875 42.671875 22.703125 42.671875 
Q 26.21875 42.671875 28.09375 45.71875 
Q 29.984375 48.78125 29.984375 54.390625 
Q 29.984375 59.96875 28.078125 62.984375 
Q 26.171875 66.015625 22.703125 66.015625 
z
" id="DejaVuSans-Bold-37"/>
    </defs>
    <g transform="translate(75.175 72.1625)scale(0.8 -0.8)">
     <use xlink:href="#DejaVuSans-Bold-77"/>
     <use x="99.511719" xlink:href="#DejaVuSans-Bold-83"/>
     <use x="171.533203" xlink:href="#DejaVuSans-Bold-73"/>
     <use x="208.740234" xlink:href="#DejaVuSans-Bold-32"/>
     <use x="243.554688" xlink:href="#DejaVuSans-Bold-32"/>
     <use x="278.369141" xlink:href="#DejaVuSans-Bold-32"/>
     <use x="313.183594" xlink:href="#DejaVuSans-Bold-57"/>
     <use x="382.763672" xlink:href="#DejaVuSans-Bold-37"/>
    </g>
   </g>
  </g>
 </g>
 <defs>
  <clipPath id="p88816a3360">
   <rect height="296.4" width="765.148864" x="75.175" y="88.8"/>
  </clipPath>
 </defs>
</svg>
