<?xml version="1.0" encoding="utf-8" standalone="no"?>
<!DOCTYPE svg PUBLIC "-//W3C//DTD SVG 1.1//EN"
  "http://www.w3.org/Graphics/SVG/1.1/DTD/svg11.dtd">
<!-- Created with matplotlib (https://matplotlib.org/) -->
<svg height="432pt" version="1.1" viewBox="0 0 864 432" width="864pt" xmlns="http://www.w3.org/2000/svg" xmlns:xlink="http://www.w3.org/1999/xlink">
 <defs>
  <style type="text/css">
*{stroke-linecap:butt;stroke-linejoin:round;}
  </style>
 </defs>
 <g id="figure_1">
  <g id="patch_1">
   <path d="M 0 432 
L 864 432 
L 864 0 
L 0 0 
z
" style="fill:none;"/>
  </g>
  <g id="axes_1">
   <g id="patch_2">
    <path d="M 84.8 385.2 
L 840.323864 385.2 
L 840.323864 88.8 
L 84.8 88.8 
z
" style="fill:none;"/>
   </g>
   <g id="PolyCollection_1">
    <path clip-path="url(#pbbd287e3f8)" d="M 119.141994 2115.348562 
L 119.141994 230.107067 
L 122.874819 224.937182 
L 126.607645 247.339523 
L 137.806121 242.169803 
L 141.538946 276.634881 
L 145.271772 293.867502 
L 149.004597 302.483648 
L 152.737423 274.911586 
L 167.668724 283.527896 
L 171.40155 293.867502 
L 175.134375 269.741865 
L 178.8672 247.339523 
L 190.065677 259.40226 
L 193.798502 240.446508 
L 197.531327 266.29544 
L 201.264153 254.232539 
L 204.996978 228.383772 
L 216.195455 219.767461 
L 219.92828 199.088414 
L 223.661105 224.937182 
L 227.393931 207.704725 
L 231.126756 224.937182 
L 246.058058 230.107067 
L 249.790883 235.276787 
L 253.523709 209.427855 
L 257.256534 264.572145 
L 268.45501 235.276787 
L 272.187836 193.918694 
L 275.920661 166.346467 
L 279.653487 162.900041 
L 283.386312 154.28373 
L 294.584788 162.900041 
L 302.050439 195.641824 
L 305.783264 224.937182 
L 309.51609 197.365119 
L 320.714566 199.088414 
L 324.447392 181.855793 
L 328.180217 161.176746 
L 331.913042 116.372062 
L 335.645868 154.28373 
L 346.844344 150.837305 
L 350.577169 128.434963 
L 354.309995 142.220994 
L 358.04282 150.837305 
L 361.775646 154.28373 
L 372.974122 138.774404 
L 376.706947 181.855793 
L 380.439773 197.365119 
L 384.172598 183.579088 
L 387.905424 168.069762 
L 399.1039 171.516352 
L 402.836725 199.088414 
L 406.569551 235.276787 
L 410.302376 192.195399 
L 414.035201 259.40226 
L 425.233678 240.446508 
L 428.966503 268.01857 
L 432.699329 288.697617 
L 436.432154 266.29544 
L 440.164979 271.46516 
L 451.363456 266.29544 
L 455.096281 280.081471 
L 458.829106 268.01857 
L 462.561932 311.099959 
L 466.294757 311.099959 
L 477.493233 305.930238 
L 481.226059 317.992975 
L 484.958884 286.974486 
L 488.69171 330.055875 
L 492.424535 323.162859 
L 503.623011 305.930238 
L 507.355837 292.144207 
L 511.088662 288.697617 
L 514.821488 276.634881 
L 518.554313 274.911586 
L 533.485615 283.527896 
L 537.21844 280.081471 
L 540.951265 266.29544 
L 544.684091 254.232539 
L 555.882567 233.553492 
L 559.615393 250.786113 
L 563.348218 276.634881 
L 567.081043 250.786113 
L 570.813869 285.251191 
L 582.012345 281.804601 
L 585.74517 247.339523 
L 589.477996 305.930238 
L 593.210821 335.225596 
L 596.943647 328.33258 
L 608.142123 321.439565 
L 611.874948 323.162859 
L 615.607774 330.055875 
L 619.340599 345.565037 
L 623.073425 331.779006 
L 634.271901 371.413969 
L 638.004726 361.074363 
L 641.737552 354.181348 
L 645.470377 324.88599 
L 649.203202 311.099959 
L 660.401679 305.930238 
L 664.134504 297.313928 
L 667.86733 304.206943 
L 671.600155 309.376828 
L 675.33298 354.181348 
L 686.531457 330.055875 
L 690.264282 362.797658 
L 693.997107 385.2 
L 697.729933 376.583689 
L 701.462758 380.030279 
L 712.661235 376.583689 
L 716.39406 373.137264 
L 720.126885 362.797658 
L 723.859711 371.413969 
L 727.592536 352.458217 
L 738.791012 357.627938 
L 742.523838 336.948891 
L 746.256663 309.376828 
L 749.989489 286.974486 
L 753.722314 254.232539 
L 764.92079 274.911586 
L 768.653616 223.214051 
L 772.386441 157.73032 
L 776.119267 102.586031 
L 779.852092 150.837305 
L 791.050568 109.479047 
L 794.783394 88.8 
L 798.516219 130.158094 
L 802.249044 104.309326 
L 805.98187 130.158094 
L 805.98187 2115.348562 
L 805.98187 2115.348562 
L 802.249044 2115.348562 
L 798.516219 2115.348562 
L 794.783394 2115.348562 
L 791.050568 2115.348562 
L 779.852092 2115.348562 
L 776.119267 2115.348562 
L 772.386441 2115.348562 
L 768.653616 2115.348562 
L 764.92079 2115.348562 
L 753.722314 2115.348562 
L 749.989489 2115.348562 
L 746.256663 2115.348562 
L 742.523838 2115.348562 
L 738.791012 2115.348562 
L 727.592536 2115.348562 
L 723.859711 2115.348562 
L 720.126885 2115.348562 
L 716.39406 2115.348562 
L 712.661235 2115.348562 
L 701.462758 2115.348562 
L 697.729933 2115.348562 
L 693.997107 2115.348562 
L 690.264282 2115.348562 
L 686.531457 2115.348562 
L 675.33298 2115.348562 
L 671.600155 2115.348562 
L 667.86733 2115.348562 
L 664.134504 2115.348562 
L 660.401679 2115.348562 
L 649.203202 2115.348562 
L 645.470377 2115.348562 
L 641.737552 2115.348562 
L 638.004726 2115.348562 
L 634.271901 2115.348562 
L 623.073425 2115.348562 
L 619.340599 2115.348562 
L 615.607774 2115.348562 
L 611.874948 2115.348562 
L 608.142123 2115.348562 
L 596.943647 2115.348562 
L 593.210821 2115.348562 
L 589.477996 2115.348562 
L 585.74517 2115.348562 
L 582.012345 2115.348562 
L 570.813869 2115.348562 
L 567.081043 2115.348562 
L 563.348218 2115.348562 
L 559.615393 2115.348562 
L 555.882567 2115.348562 
L 544.684091 2115.348562 
L 540.951265 2115.348562 
L 537.21844 2115.348562 
L 533.485615 2115.348562 
L 518.554313 2115.348562 
L 514.821488 2115.348562 
L 511.088662 2115.348562 
L 507.355837 2115.348562 
L 503.623011 2115.348562 
L 492.424535 2115.348562 
L 488.69171 2115.348562 
L 484.958884 2115.348562 
L 481.226059 2115.348562 
L 477.493233 2115.348562 
L 466.294757 2115.348562 
L 462.561932 2115.348562 
L 458.829106 2115.348562 
L 455.096281 2115.348562 
L 451.363456 2115.348562 
L 440.164979 2115.348562 
L 436.432154 2115.348562 
L 432.699329 2115.348562 
L 428.966503 2115.348562 
L 425.233678 2115.348562 
L 414.035201 2115.348562 
L 410.302376 2115.348562 
L 406.569551 2115.348562 
L 402.836725 2115.348562 
L 399.1039 2115.348562 
L 387.905424 2115.348562 
L 384.172598 2115.348562 
L 380.439773 2115.348562 
L 376.706947 2115.348562 
L 372.974122 2115.348562 
L 361.775646 2115.348562 
L 358.04282 2115.348562 
L 354.309995 2115.348562 
L 350.577169 2115.348562 
L 346.844344 2115.348562 
L 335.645868 2115.348562 
L 331.913042 2115.348562 
L 328.180217 2115.348562 
L 324.447392 2115.348562 
L 320.714566 2115.348562 
L 309.51609 2115.348562 
L 305.783264 2115.348562 
L 302.050439 2115.348562 
L 294.584788 2115.348562 
L 283.386312 2115.348562 
L 279.653487 2115.348562 
L 275.920661 2115.348562 
L 272.187836 2115.348562 
L 268.45501 2115.348562 
L 257.256534 2115.348562 
L 253.523709 2115.348562 
L 249.790883 2115.348562 
L 246.058058 2115.348562 
L 231.126756 2115.348562 
L 227.393931 2115.348562 
L 223.661105 2115.348562 
L 219.92828 2115.348562 
L 216.195455 2115.348562 
L 204.996978 2115.348562 
L 201.264153 2115.348562 
L 197.531327 2115.348562 
L 193.798502 2115.348562 
L 190.065677 2115.348562 
L 178.8672 2115.348562 
L 175.134375 2115.348562 
L 171.40155 2115.348562 
L 167.668724 2115.348562 
L 152.737423 2115.348562 
L 149.004597 2115.348562 
L 145.271772 2115.348562 
L 141.538946 2115.348562 
L 137.806121 2115.348562 
L 126.607645 2115.348562 
L 122.874819 2115.348562 
L 119.141994 2115.348562 
z
" style="fill:#0000ff;fill-opacity:0.1;stroke:#0000ff;stroke-opacity:0.1;"/>
   </g>
   <g id="matplotlib.axis_1">
    <g id="xtick_1">
     <g id="line2d_1">
      <defs>
       <path d="M 0 0 
L 0 3.5 
" id="ma6971cc517" style="stroke:#000000;stroke-width:0.8;"/>
      </defs>
      <g>
       <use style="stroke:#000000;stroke-width:0.8;" x="119.141994" xlink:href="#ma6971cc517" y="385.2"/>
      </g>
     </g>
     <g id="text_1">
      <!-- 05/23 -->
      <defs>
       <path d="M 31.78125 66.40625 
Q 24.171875 66.40625 20.328125 58.90625 
Q 16.5 51.421875 16.5 36.375 
Q 16.5 21.390625 20.328125 13.890625 
Q 24.171875 6.390625 31.78125 6.390625 
Q 39.453125 6.390625 43.28125 13.890625 
Q 47.125 21.390625 47.125 36.375 
Q 47.125 51.421875 43.28125 58.90625 
Q 39.453125 66.40625 31.78125 66.40625 
z
M 31.78125 74.21875 
Q 44.046875 74.21875 50.515625 64.515625 
Q 56.984375 54.828125 56.984375 36.375 
Q 56.984375 17.96875 50.515625 8.265625 
Q 44.046875 -1.421875 31.78125 -1.421875 
Q 19.53125 -1.421875 13.0625 8.265625 
Q 6.59375 17.96875 6.59375 36.375 
Q 6.59375 54.828125 13.0625 64.515625 
Q 19.53125 74.21875 31.78125 74.21875 
z
" id="DejaVuSans-48"/>
       <path d="M 10.796875 72.90625 
L 49.515625 72.90625 
L 49.515625 64.59375 
L 19.828125 64.59375 
L 19.828125 46.734375 
Q 21.96875 47.46875 24.109375 47.828125 
Q 26.265625 48.1875 28.421875 48.1875 
Q 40.625 48.1875 47.75 41.5 
Q 54.890625 34.8125 54.890625 23.390625 
Q 54.890625 11.625 47.5625 5.09375 
Q 40.234375 -1.421875 26.90625 -1.421875 
Q 22.3125 -1.421875 17.546875 -0.640625 
Q 12.796875 0.140625 7.71875 1.703125 
L 7.71875 11.625 
Q 12.109375 9.234375 16.796875 8.0625 
Q 21.484375 6.890625 26.703125 6.890625 
Q 35.15625 6.890625 40.078125 11.328125 
Q 45.015625 15.765625 45.015625 23.390625 
Q 45.015625 31 40.078125 35.4375 
Q 35.15625 39.890625 26.703125 39.890625 
Q 22.75 39.890625 18.8125 39.015625 
Q 14.890625 38.140625 10.796875 36.28125 
z
" id="DejaVuSans-53"/>
       <path d="M 25.390625 72.90625 
L 33.6875 72.90625 
L 8.296875 -9.28125 
L 0 -9.28125 
z
" id="DejaVuSans-47"/>
       <path d="M 19.1875 8.296875 
L 53.609375 8.296875 
L 53.609375 0 
L 7.328125 0 
L 7.328125 8.296875 
Q 12.9375 14.109375 22.625 23.890625 
Q 32.328125 33.6875 34.8125 36.53125 
Q 39.546875 41.84375 41.421875 45.53125 
Q 43.3125 49.21875 43.3125 52.78125 
Q 43.3125 58.59375 39.234375 62.25 
Q 35.15625 65.921875 28.609375 65.921875 
Q 23.96875 65.921875 18.8125 64.3125 
Q 13.671875 62.703125 7.8125 59.421875 
L 7.8125 69.390625 
Q 13.765625 71.78125 18.9375 73 
Q 24.125 74.21875 28.421875 74.21875 
Q 39.75 74.21875 46.484375 68.546875 
Q 53.21875 62.890625 53.21875 53.421875 
Q 53.21875 48.921875 51.53125 44.890625 
Q 49.859375 40.875 45.40625 35.40625 
Q 44.1875 33.984375 37.640625 27.21875 
Q 31.109375 20.453125 19.1875 8.296875 
z
" id="DejaVuSans-50"/>
       <path d="M 40.578125 39.3125 
Q 47.65625 37.796875 51.625 33 
Q 55.609375 28.21875 55.609375 21.1875 
Q 55.609375 10.40625 48.1875 4.484375 
Q 40.765625 -1.421875 27.09375 -1.421875 
Q 22.515625 -1.421875 17.65625 -0.515625 
Q 12.796875 0.390625 7.625 2.203125 
L 7.625 11.71875 
Q 11.71875 9.328125 16.59375 8.109375 
Q 21.484375 6.890625 26.8125 6.890625 
Q 36.078125 6.890625 40.9375 10.546875 
Q 45.796875 14.203125 45.796875 21.1875 
Q 45.796875 27.640625 41.28125 31.265625 
Q 36.765625 34.90625 28.71875 34.90625 
L 20.21875 34.90625 
L 20.21875 43.015625 
L 29.109375 43.015625 
Q 36.375 43.015625 40.234375 45.921875 
Q 44.09375 48.828125 44.09375 54.296875 
Q 44.09375 59.90625 40.109375 62.90625 
Q 36.140625 65.921875 28.71875 65.921875 
Q 24.65625 65.921875 20.015625 65.03125 
Q 15.375 64.15625 9.8125 62.3125 
L 9.8125 71.09375 
Q 15.4375 72.65625 20.34375 73.4375 
Q 25.25 74.21875 29.59375 74.21875 
Q 40.828125 74.21875 47.359375 69.109375 
Q 53.90625 64.015625 53.90625 55.328125 
Q 53.90625 49.265625 50.4375 45.09375 
Q 46.96875 40.921875 40.578125 39.3125 
z
" id="DejaVuSans-51"/>
      </defs>
      <g transform="translate(75.913869 414.995312)scale(0.3 -0.3)">
       <use xlink:href="#DejaVuSans-48"/>
       <use x="63.623047" xlink:href="#DejaVuSans-53"/>
       <use x="127.246094" xlink:href="#DejaVuSans-47"/>
       <use x="160.9375" xlink:href="#DejaVuSans-50"/>
       <use x="224.560547" xlink:href="#DejaVuSans-51"/>
      </g>
     </g>
    </g>
    <g id="xtick_2">
     <g id="line2d_2">
      <g>
       <use style="stroke:#000000;stroke-width:0.8;" x="466.294757" xlink:href="#ma6971cc517" y="385.2"/>
      </g>
     </g>
     <g id="text_2">
      <!-- 08/23 -->
      <defs>
       <path d="M 31.78125 34.625 
Q 24.75 34.625 20.71875 30.859375 
Q 16.703125 27.09375 16.703125 20.515625 
Q 16.703125 13.921875 20.71875 10.15625 
Q 24.75 6.390625 31.78125 6.390625 
Q 38.8125 6.390625 42.859375 10.171875 
Q 46.921875 13.96875 46.921875 20.515625 
Q 46.921875 27.09375 42.890625 30.859375 
Q 38.875 34.625 31.78125 34.625 
z
M 21.921875 38.8125 
Q 15.578125 40.375 12.03125 44.71875 
Q 8.5 49.078125 8.5 55.328125 
Q 8.5 64.0625 14.71875 69.140625 
Q 20.953125 74.21875 31.78125 74.21875 
Q 42.671875 74.21875 48.875 69.140625 
Q 55.078125 64.0625 55.078125 55.328125 
Q 55.078125 49.078125 51.53125 44.71875 
Q 48 40.375 41.703125 38.8125 
Q 48.828125 37.15625 52.796875 32.3125 
Q 56.78125 27.484375 56.78125 20.515625 
Q 56.78125 9.90625 50.3125 4.234375 
Q 43.84375 -1.421875 31.78125 -1.421875 
Q 19.734375 -1.421875 13.25 4.234375 
Q 6.78125 9.90625 6.78125 20.515625 
Q 6.78125 27.484375 10.78125 32.3125 
Q 14.796875 37.15625 21.921875 38.8125 
z
M 18.3125 54.390625 
Q 18.3125 48.734375 21.84375 45.5625 
Q 25.390625 42.390625 31.78125 42.390625 
Q 38.140625 42.390625 41.71875 45.5625 
Q 45.3125 48.734375 45.3125 54.390625 
Q 45.3125 60.0625 41.71875 63.234375 
Q 38.140625 66.40625 31.78125 66.40625 
Q 25.390625 66.40625 21.84375 63.234375 
Q 18.3125 60.0625 18.3125 54.390625 
z
" id="DejaVuSans-56"/>
      </defs>
      <g transform="translate(423.066632 414.995312)scale(0.3 -0.3)">
       <use xlink:href="#DejaVuSans-48"/>
       <use x="63.623047" xlink:href="#DejaVuSans-56"/>
       <use x="127.246094" xlink:href="#DejaVuSans-47"/>
       <use x="160.9375" xlink:href="#DejaVuSans-50"/>
       <use x="224.560547" xlink:href="#DejaVuSans-51"/>
      </g>
     </g>
    </g>
    <g id="xtick_3">
     <g id="line2d_3">
      <g>
       <use style="stroke:#000000;stroke-width:0.8;" x="805.98187" xlink:href="#ma6971cc517" y="385.2"/>
      </g>
     </g>
     <g id="text_3">
      <!-- 11/23 -->
      <defs>
       <path d="M 12.40625 8.296875 
L 28.515625 8.296875 
L 28.515625 63.921875 
L 10.984375 60.40625 
L 10.984375 69.390625 
L 28.421875 72.90625 
L 38.28125 72.90625 
L 38.28125 8.296875 
L 54.390625 8.296875 
L 54.390625 0 
L 12.40625 0 
z
" id="DejaVuSans-49"/>
      </defs>
      <g transform="translate(762.753745 414.995312)scale(0.3 -0.3)">
       <use xlink:href="#DejaVuSans-49"/>
       <use x="63.623047" xlink:href="#DejaVuSans-49"/>
       <use x="127.246094" xlink:href="#DejaVuSans-47"/>
       <use x="160.9375" xlink:href="#DejaVuSans-50"/>
       <use x="224.560547" xlink:href="#DejaVuSans-51"/>
      </g>
     </g>
    </g>
   </g>
   <g id="matplotlib.axis_2">
    <g id="ytick_1">
     <g id="line2d_4">
      <defs>
       <path d="M 0 0 
L -3.5 0 
" id="mf24cdca2ed" style="stroke:#000000;stroke-width:0.8;"/>
      </defs>
      <g>
       <use style="stroke:#000000;stroke-width:0.8;" x="84.8" xlink:href="#mf24cdca2ed" y="357.627905"/>
      </g>
     </g>
     <g id="text_4">
      <!-- 10.2 -->
      <defs>
       <path d="M 10.6875 12.40625 
L 21 12.40625 
L 21 0 
L 10.6875 0 
z
" id="DejaVuSans-46"/>
      </defs>
      <g transform="translate(11.003125 369.025561)scale(0.3 -0.3)">
       <use xlink:href="#DejaVuSans-49"/>
       <use x="63.623047" xlink:href="#DejaVuSans-48"/>
       <use x="127.246094" xlink:href="#DejaVuSans-46"/>
       <use x="159.033203" xlink:href="#DejaVuSans-50"/>
      </g>
     </g>
    </g>
    <g id="ytick_2">
     <g id="line2d_5">
      <g>
       <use style="stroke:#000000;stroke-width:0.8;" x="84.8" xlink:href="#mf24cdca2ed" y="254.232572"/>
      </g>
     </g>
     <g id="text_5">
      <!-- 10.8 -->
      <g transform="translate(11.003125 265.630228)scale(0.3 -0.3)">
       <use xlink:href="#DejaVuSans-49"/>
       <use x="63.623047" xlink:href="#DejaVuSans-48"/>
       <use x="127.246094" xlink:href="#DejaVuSans-46"/>
       <use x="159.033203" xlink:href="#DejaVuSans-56"/>
      </g>
     </g>
    </g>
    <g id="ytick_3">
     <g id="line2d_6">
      <g>
       <use style="stroke:#000000;stroke-width:0.8;" x="84.8" xlink:href="#mf24cdca2ed" y="150.837239"/>
      </g>
     </g>
     <g id="text_6">
      <!-- 11.4 -->
      <defs>
       <path d="M 37.796875 64.3125 
L 12.890625 25.390625 
L 37.796875 25.390625 
z
M 35.203125 72.90625 
L 47.609375 72.90625 
L 47.609375 25.390625 
L 58.015625 25.390625 
L 58.015625 17.1875 
L 47.609375 17.1875 
L 47.609375 0 
L 37.796875 0 
L 37.796875 17.1875 
L 4.890625 17.1875 
L 4.890625 26.703125 
z
" id="DejaVuSans-52"/>
      </defs>
      <g transform="translate(11.003125 162.234895)scale(0.3 -0.3)">
       <use xlink:href="#DejaVuSans-49"/>
       <use x="63.623047" xlink:href="#DejaVuSans-49"/>
       <use x="127.246094" xlink:href="#DejaVuSans-46"/>
       <use x="159.033203" xlink:href="#DejaVuSans-52"/>
      </g>
     </g>
    </g>
   </g>
   <g id="line2d_7">
    <path clip-path="url(#pbbd287e3f8)" d="M 119.141994 230.107067 
L 122.874819 224.937182 
L 126.607645 247.339523 
L 137.806121 242.169803 
L 141.538946 276.634881 
L 145.271772 293.867502 
L 149.004597 302.483648 
L 152.737423 274.911586 
L 167.668724 283.527896 
L 171.40155 293.867502 
L 175.134375 269.741865 
L 178.8672 247.339523 
L 190.065677 259.40226 
L 193.798502 240.446508 
L 197.531327 266.29544 
L 201.264153 254.232539 
L 204.996978 228.383772 
L 216.195455 219.767461 
L 219.92828 199.088414 
L 223.661105 224.937182 
L 227.393931 207.704725 
L 231.126756 224.937182 
L 246.058058 230.107067 
L 249.790883 235.276787 
L 253.523709 209.427855 
L 257.256534 264.572145 
L 268.45501 235.276787 
L 272.187836 193.918694 
L 275.920661 166.346467 
L 279.653487 162.900041 
L 283.386312 154.28373 
L 294.584788 162.900041 
L 302.050439 195.641824 
L 305.783264 224.937182 
L 309.51609 197.365119 
L 320.714566 199.088414 
L 324.447392 181.855793 
L 328.180217 161.176746 
L 331.913042 116.372062 
L 335.645868 154.28373 
L 346.844344 150.837305 
L 350.577169 128.434963 
L 354.309995 142.220994 
L 358.04282 150.837305 
L 361.775646 154.28373 
L 372.974122 138.774404 
L 376.706947 181.855793 
L 380.439773 197.365119 
L 384.172598 183.579088 
L 387.905424 168.069762 
L 399.1039 171.516352 
L 402.836725 199.088414 
L 406.569551 235.276787 
L 410.302376 192.195399 
L 414.035201 259.40226 
L 425.233678 240.446508 
L 428.966503 268.01857 
L 432.699329 288.697617 
L 436.432154 266.29544 
L 440.164979 271.46516 
L 451.363456 266.29544 
L 455.096281 280.081471 
L 458.829106 268.01857 
L 462.561932 311.099959 
L 466.294757 311.099959 
L 477.493233 305.930238 
L 481.226059 317.992975 
L 484.958884 286.974486 
L 488.69171 330.055875 
L 492.424535 323.162859 
L 503.623011 305.930238 
L 507.355837 292.144207 
L 511.088662 288.697617 
L 514.821488 276.634881 
L 518.554313 274.911586 
L 533.485615 283.527896 
L 537.21844 280.081471 
L 540.951265 266.29544 
L 544.684091 254.232539 
L 555.882567 233.553492 
L 559.615393 250.786113 
L 563.348218 276.634881 
L 567.081043 250.786113 
L 570.813869 285.251191 
L 582.012345 281.804601 
L 585.74517 247.339523 
L 589.477996 305.930238 
L 593.210821 335.225596 
L 596.943647 328.33258 
L 608.142123 321.439565 
L 611.874948 323.162859 
L 615.607774 330.055875 
L 619.340599 345.565037 
L 623.073425 331.779006 
L 634.271901 371.413969 
L 638.004726 361.074363 
L 641.737552 354.181348 
L 645.470377 324.88599 
L 649.203202 311.099959 
L 660.401679 305.930238 
L 664.134504 297.313928 
L 667.86733 304.206943 
L 671.600155 309.376828 
L 675.33298 354.181348 
L 686.531457 330.055875 
L 690.264282 362.797658 
L 693.997107 385.2 
L 697.729933 376.583689 
L 701.462758 380.030279 
L 712.661235 376.583689 
L 716.39406 373.137264 
L 720.126885 362.797658 
L 723.859711 371.413969 
L 727.592536 352.458217 
L 738.791012 357.627938 
L 742.523838 336.948891 
L 746.256663 309.376828 
L 749.989489 286.974486 
L 753.722314 254.232539 
L 764.92079 274.911586 
L 768.653616 223.214051 
L 772.386441 157.73032 
L 776.119267 102.586031 
L 779.852092 150.837305 
L 791.050568 109.479047 
L 794.783394 88.8 
L 798.516219 130.158094 
L 802.249044 104.309326 
L 805.98187 130.158094 
L 805.98187 130.158094 
" style="fill:none;stroke:#000000;stroke-linecap:square;stroke-width:4;"/>
   </g>
   <g id="patch_3">
    <path d="M 84.8 385.2 
L 84.8 88.8 
" style="fill:none;stroke:#000000;stroke-linecap:square;stroke-linejoin:miter;stroke-width:0.8;"/>
   </g>
   <g id="patch_4">
    <path d="M 84.8 385.2 
L 840.323864 385.2 
" style="fill:none;stroke:#000000;stroke-linecap:square;stroke-linejoin:miter;stroke-width:0.8;"/>
   </g>
   <g id="text_7">
    <!-- NTDOY   5% -->
    <defs>
     <path d="M 9.1875 72.90625 
L 30.171875 72.90625 
L 56.6875 22.90625 
L 56.6875 72.90625 
L 74.515625 72.90625 
L 74.515625 0 
L 53.515625 0 
L 27 50 
L 27 0 
L 9.1875 0 
z
" id="DejaVuSans-Bold-78"/>
     <path d="M 0.484375 72.90625 
L 67.671875 72.90625 
L 67.671875 58.6875 
L 43.5 58.6875 
L 43.5 0 
L 24.703125 0 
L 24.703125 58.6875 
L 0.484375 58.6875 
z
" id="DejaVuSans-Bold-84"/>
     <path d="M 27.984375 58.6875 
L 27.984375 14.203125 
L 34.71875 14.203125 
Q 46.234375 14.203125 52.3125 19.921875 
Q 58.40625 25.640625 58.40625 36.53125 
Q 58.40625 47.359375 52.34375 53.015625 
Q 46.296875 58.6875 34.71875 58.6875 
z
M 9.1875 72.90625 
L 29 72.90625 
Q 45.609375 72.90625 53.734375 70.53125 
Q 61.859375 68.171875 67.671875 62.5 
Q 72.796875 57.5625 75.28125 51.109375 
Q 77.78125 44.671875 77.78125 36.53125 
Q 77.78125 28.265625 75.28125 21.796875 
Q 72.796875 15.328125 67.671875 10.40625 
Q 61.8125 4.734375 53.609375 2.359375 
Q 45.40625 0 29 0 
L 9.1875 0 
z
" id="DejaVuSans-Bold-68"/>
     <path d="M 42.484375 60.59375 
Q 33.890625 60.59375 29.15625 54.25 
Q 24.421875 47.90625 24.421875 36.375 
Q 24.421875 24.90625 29.15625 18.546875 
Q 33.890625 12.203125 42.484375 12.203125 
Q 51.125 12.203125 55.859375 18.546875 
Q 60.59375 24.90625 60.59375 36.375 
Q 60.59375 47.90625 55.859375 54.25 
Q 51.125 60.59375 42.484375 60.59375 
z
M 42.484375 74.21875 
Q 60.0625 74.21875 70.015625 64.15625 
Q 79.984375 54.109375 79.984375 36.375 
Q 79.984375 18.703125 70.015625 8.640625 
Q 60.0625 -1.421875 42.484375 -1.421875 
Q 24.953125 -1.421875 14.96875 8.640625 
Q 4.984375 18.703125 4.984375 36.375 
Q 4.984375 54.109375 14.96875 64.15625 
Q 24.953125 74.21875 42.484375 74.21875 
z
" id="DejaVuSans-Bold-79"/>
     <path d="M -0.984375 72.90625 
L 19.578125 72.90625 
L 36.1875 46.921875 
L 52.78125 72.90625 
L 73.390625 72.90625 
L 45.609375 30.71875 
L 45.609375 0 
L 26.8125 0 
L 26.8125 30.71875 
z
" id="DejaVuSans-Bold-89"/>
     <path id="DejaVuSans-Bold-32"/>
     <path d="M 10.59375 72.90625 
L 57.328125 72.90625 
L 57.328125 59.078125 
L 25.59375 59.078125 
L 25.59375 47.796875 
Q 27.734375 48.390625 29.90625 48.703125 
Q 32.078125 49.03125 34.421875 49.03125 
Q 47.75 49.03125 55.171875 42.359375 
Q 62.59375 35.6875 62.59375 23.78125 
Q 62.59375 11.96875 54.515625 5.265625 
Q 46.4375 -1.421875 32.078125 -1.421875 
Q 25.875 -1.421875 19.796875 -0.21875 
Q 13.71875 0.984375 7.71875 3.421875 
L 7.71875 18.21875 
Q 13.671875 14.796875 19.015625 13.078125 
Q 24.359375 11.375 29.109375 11.375 
Q 35.9375 11.375 39.859375 14.71875 
Q 43.796875 18.0625 43.796875 23.78125 
Q 43.796875 29.546875 39.859375 32.859375 
Q 35.9375 36.1875 29.109375 36.1875 
Q 25.046875 36.1875 20.453125 35.125 
Q 15.875 34.078125 10.59375 31.890625 
z
" id="DejaVuSans-Bold-53"/>
     <path d="M 77.484375 30.078125 
Q 74.03125 30.078125 72.125 27.078125 
Q 70.21875 24.078125 70.21875 18.5 
Q 70.21875 12.890625 72.09375 9.890625 
Q 73.96875 6.890625 77.484375 6.890625 
Q 81 6.890625 82.859375 9.890625 
Q 84.71875 12.890625 84.71875 18.5 
Q 84.71875 24.078125 82.828125 27.078125 
Q 80.953125 30.078125 77.484375 30.078125 
z
M 77.484375 38.28125 
Q 86.578125 38.28125 91.796875 33 
Q 97.015625 27.734375 97.015625 18.5 
Q 97.015625 9.28125 91.796875 3.921875 
Q 86.578125 -1.421875 77.484375 -1.421875 
Q 68.40625 -1.421875 63.15625 3.921875 
Q 57.90625 9.28125 57.90625 18.5 
Q 57.90625 27.6875 63.15625 32.984375 
Q 68.40625 38.28125 77.484375 38.28125 
z
M 32.71875 -1.421875 
L 21.921875 -1.421875 
L 67.484375 74.21875 
L 78.328125 74.21875 
z
M 22.703125 74.21875 
Q 31.78125 74.21875 36.984375 68.921875 
Q 42.1875 63.625 42.1875 54.390625 
Q 42.1875 45.171875 36.984375 39.84375 
Q 31.78125 34.515625 22.703125 34.515625 
Q 13.625 34.515625 8.421875 39.84375 
Q 3.21875 45.171875 3.21875 54.390625 
Q 3.21875 63.625 8.421875 68.921875 
Q 13.625 74.21875 22.703125 74.21875 
z
M 22.703125 66.015625 
Q 19.1875 66.015625 17.28125 62.984375 
Q 15.375 59.96875 15.375 54.390625 
Q 15.375 48.78125 17.28125 45.71875 
Q 19.1875 42.671875 22.703125 42.671875 
Q 26.21875 42.671875 28.09375 45.71875 
Q 29.984375 48.78125 29.984375 54.390625 
Q 29.984375 59.96875 28.078125 62.984375 
Q 26.171875 66.015625 22.703125 66.015625 
z
" id="DejaVuSans-Bold-37"/>
    </defs>
    <g transform="translate(84.8 72.1625)scale(0.8 -0.8)">
     <use xlink:href="#DejaVuSans-Bold-78"/>
     <use x="83.691406" xlink:href="#DejaVuSans-Bold-84"/>
     <use x="151.904297" xlink:href="#DejaVuSans-Bold-68"/>
     <use x="234.912109" xlink:href="#DejaVuSans-Bold-79"/>
     <use x="319.875" xlink:href="#DejaVuSans-Bold-89"/>
     <use x="392.287109" xlink:href="#DejaVuSans-Bold-32"/>
     <use x="427.101562" xlink:href="#DejaVuSans-Bold-32"/>
     <use x="461.916016" xlink:href="#DejaVuSans-Bold-32"/>
     <use x="496.730469" xlink:href="#DejaVuSans-Bold-53"/>
     <use x="566.310547" xlink:href="#DejaVuSans-Bold-37"/>
    </g>
   </g>
  </g>
 </g>
 <defs>
  <clipPath id="pbbd287e3f8">
   <rect height="296.4" width="755.523864" x="84.8" y="88.8"/>
  </clipPath>
 </defs>
</svg>
