<?xml version="1.0" encoding="utf-8" standalone="no"?>
<!DOCTYPE svg PUBLIC "-//W3C//DTD SVG 1.1//EN"
  "http://www.w3.org/Graphics/SVG/1.1/DTD/svg11.dtd">
<!-- Created with matplotlib (https://matplotlib.org/) -->
<svg height="432pt" version="1.1" viewBox="0 0 864 432" width="864pt" xmlns="http://www.w3.org/2000/svg" xmlns:xlink="http://www.w3.org/1999/xlink">
 <defs>
  <style type="text/css">
*{stroke-linecap:butt;stroke-linejoin:round;}
  </style>
 </defs>
 <g id="figure_1">
  <g id="patch_1">
   <path d="M 0 432 
L 864 432 
L 864 0 
L 0 0 
z
" style="fill:none;"/>
  </g>
  <g id="axes_1">
   <g id="patch_2">
    <path d="M 75.175 385.2 
L 840.323864 385.2 
L 840.323864 88.8 
L 75.175 88.8 
z
" style="fill:none;"/>
   </g>
   <g id="PolyCollection_1">
    <path clip-path="url(#p380bcbb583)" d="M 109.954494 793.703786 
L 109.954494 235.271819 
L 113.734874 229.663366 
L 117.515253 243.554042 
L 128.856393 237.815182 
L 132.636772 255.423084 
L 136.417152 273.357078 
L 140.197532 258.944674 
L 143.977912 228.815545 
L 159.099431 246.097404 
L 162.87981 248.51036 
L 166.66019 220.142051 
L 170.44057 227.446046 
L 181.781709 235.271819 
L 185.562089 216.685639 
L 189.342469 211.729371 
L 193.122849 206.838282 
L 196.903228 213.164099 
L 208.244368 199.86033 
L 212.024747 189.360787 
L 215.805127 188.904287 
L 219.585507 200.251601 
L 223.365887 205.794826 
L 238.487406 210.816372 
L 242.267785 219.359459 
L 246.048165 213.620598 
L 249.828545 222.946278 
L 261.169684 215.77264 
L 264.950064 194.577919 
L 268.730444 198.882102 
L 272.510824 193.20842 
L 276.291203 176.904789 
L 287.632343 162.23152 
L 295.193102 187.534788 
L 298.973482 189.752058 
L 302.753862 185.25224 
L 314.095001 167.774745 
L 317.875381 163.470612 
L 321.65576 150.492935 
L 325.43614 128.254758 
L 329.21652 143.64539 
L 340.557659 113.320626 
L 344.338039 109.994721 
L 348.118419 129.102529 
L 351.898799 159.16643 
L 355.679178 149.645115 
L 367.020318 156.623067 
L 370.800697 141.297663 
L 374.581077 146.449617 
L 378.361457 127.798259 
L 382.141837 108.364358 
L 393.482976 91.01727 
L 397.263356 88.8 
L 401.043735 118.276944 
L 404.824115 123.950625 
L 408.604495 126.493988 
L 419.945634 118.146537 
L 423.726014 132.558941 
L 427.506394 147.493073 
L 431.286773 156.362203 
L 435.067153 176.970017 
L 446.408293 160.340293 
L 450.188672 179.839472 
L 453.969052 192.556285 
L 457.749432 206.577418 
L 461.529812 202.012371 
L 472.870951 187.01306 
L 476.651331 191.317193 
L 480.43171 187.991288 
L 484.21209 207.033917 
L 487.99247 191.643285 
L 499.333609 183.100198 
L 503.113989 157.144795 
L 506.894369 149.058208 
L 510.674748 151.60157 
L 514.455128 145.471389 
L 529.576647 146.058346 
L 533.357027 144.884482 
L 537.137407 151.275478 
L 540.917787 155.123161 
L 552.258926 155.579661 
L 556.039306 162.492384 
L 559.819685 162.23152 
L 563.600065 164.579247 
L 567.380445 186.55656 
L 578.721584 176.774381 
L 582.501964 179.122108 
L 586.282344 188.252152 
L 590.062723 200.7081 
L 593.843103 181.926335 
L 605.184242 177.687381 
L 608.964622 205.794826 
L 612.745002 193.404056 
L 616.525382 180.36115 
L 620.305762 187.534788 
L 631.646901 184.79574 
L 635.427281 208.338188 
L 639.20766 206.838282 
L 642.98804 218.707324 
L 646.76842 200.7081 
L 658.109559 200.7081 
L 661.889939 185.121833 
L 665.670319 173.252791 
L 669.450698 186.882603 
L 673.231078 212.381507 
L 684.572217 195.751783 
L 688.352597 195.751783 
L 692.132977 209.446873 
L 695.913357 226.272183 
L 699.693737 240.488951 
L 711.034876 248.445131 
L 714.815256 238.793409 
L 718.595635 264.42267 
L 722.376015 253.79272 
L 726.156395 249.032088 
L 737.497534 367.592098 
L 741.277914 385.2 
L 745.058294 370.852824 
L 748.838673 359.179418 
L 752.619053 348.614647 
L 763.960192 361.787959 
L 767.740572 358.070733 
L 771.520952 361.657552 
L 775.301332 374.048322 
L 779.081712 354.288329 
L 790.422851 359.048961 
L 794.203231 337.462969 
L 797.98361 329.832882 
L 801.76399 340.723695 
L 805.54437 339.680239 
L 805.54437 793.703786 
L 805.54437 793.703786 
L 801.76399 793.703786 
L 797.98361 793.703786 
L 794.203231 793.703786 
L 790.422851 793.703786 
L 779.081712 793.703786 
L 775.301332 793.703786 
L 771.520952 793.703786 
L 767.740572 793.703786 
L 763.960192 793.703786 
L 752.619053 793.703786 
L 748.838673 793.703786 
L 745.058294 793.703786 
L 741.277914 793.703786 
L 737.497534 793.703786 
L 726.156395 793.703786 
L 722.376015 793.703786 
L 718.595635 793.703786 
L 714.815256 793.703786 
L 711.034876 793.703786 
L 699.693737 793.703786 
L 695.913357 793.703786 
L 692.132977 793.703786 
L 688.352597 793.703786 
L 684.572217 793.703786 
L 673.231078 793.703786 
L 669.450698 793.703786 
L 665.670319 793.703786 
L 661.889939 793.703786 
L 658.109559 793.703786 
L 646.76842 793.703786 
L 642.98804 793.703786 
L 639.20766 793.703786 
L 635.427281 793.703786 
L 631.646901 793.703786 
L 620.305762 793.703786 
L 616.525382 793.703786 
L 612.745002 793.703786 
L 608.964622 793.703786 
L 605.184242 793.703786 
L 593.843103 793.703786 
L 590.062723 793.703786 
L 586.282344 793.703786 
L 582.501964 793.703786 
L 578.721584 793.703786 
L 567.380445 793.703786 
L 563.600065 793.703786 
L 559.819685 793.703786 
L 556.039306 793.703786 
L 552.258926 793.703786 
L 540.917787 793.703786 
L 537.137407 793.703786 
L 533.357027 793.703786 
L 529.576647 793.703786 
L 514.455128 793.703786 
L 510.674748 793.703786 
L 506.894369 793.703786 
L 503.113989 793.703786 
L 499.333609 793.703786 
L 487.99247 793.703786 
L 484.21209 793.703786 
L 480.43171 793.703786 
L 476.651331 793.703786 
L 472.870951 793.703786 
L 461.529812 793.703786 
L 457.749432 793.703786 
L 453.969052 793.703786 
L 450.188672 793.703786 
L 446.408293 793.703786 
L 435.067153 793.703786 
L 431.286773 793.703786 
L 427.506394 793.703786 
L 423.726014 793.703786 
L 419.945634 793.703786 
L 408.604495 793.703786 
L 404.824115 793.703786 
L 401.043735 793.703786 
L 397.263356 793.703786 
L 393.482976 793.703786 
L 382.141837 793.703786 
L 378.361457 793.703786 
L 374.581077 793.703786 
L 370.800697 793.703786 
L 367.020318 793.703786 
L 355.679178 793.703786 
L 351.898799 793.703786 
L 348.118419 793.703786 
L 344.338039 793.703786 
L 340.557659 793.703786 
L 329.21652 793.703786 
L 325.43614 793.703786 
L 321.65576 793.703786 
L 317.875381 793.703786 
L 314.095001 793.703786 
L 302.753862 793.703786 
L 298.973482 793.703786 
L 295.193102 793.703786 
L 287.632343 793.703786 
L 276.291203 793.703786 
L 272.510824 793.703786 
L 268.730444 793.703786 
L 264.950064 793.703786 
L 261.169684 793.703786 
L 249.828545 793.703786 
L 246.048165 793.703786 
L 242.267785 793.703786 
L 238.487406 793.703786 
L 223.365887 793.703786 
L 219.585507 793.703786 
L 215.805127 793.703786 
L 212.024747 793.703786 
L 208.244368 793.703786 
L 196.903228 793.703786 
L 193.122849 793.703786 
L 189.342469 793.703786 
L 185.562089 793.703786 
L 181.781709 793.703786 
L 170.44057 793.703786 
L 166.66019 793.703786 
L 162.87981 793.703786 
L 159.099431 793.703786 
L 143.977912 793.703786 
L 140.197532 793.703786 
L 136.417152 793.703786 
L 132.636772 793.703786 
L 128.856393 793.703786 
L 117.515253 793.703786 
L 113.734874 793.703786 
L 109.954494 793.703786 
z
" style="fill:#0000ff;fill-opacity:0.1;stroke:#0000ff;stroke-opacity:0.1;"/>
   </g>
   <g id="matplotlib.axis_1">
    <g id="xtick_1">
     <g id="line2d_1">
      <defs>
       <path d="M 0 0 
L 0 3.5 
" id="m5dd4f01ccb" style="stroke:#000000;stroke-width:0.8;"/>
      </defs>
      <g>
       <use style="stroke:#000000;stroke-width:0.8;" x="109.954494" xlink:href="#m5dd4f01ccb" y="385.2"/>
      </g>
     </g>
     <g id="text_1">
      <!-- 05/23 -->
      <defs>
       <path d="M 31.78125 66.40625 
Q 24.171875 66.40625 20.328125 58.90625 
Q 16.5 51.421875 16.5 36.375 
Q 16.5 21.390625 20.328125 13.890625 
Q 24.171875 6.390625 31.78125 6.390625 
Q 39.453125 6.390625 43.28125 13.890625 
Q 47.125 21.390625 47.125 36.375 
Q 47.125 51.421875 43.28125 58.90625 
Q 39.453125 66.40625 31.78125 66.40625 
z
M 31.78125 74.21875 
Q 44.046875 74.21875 50.515625 64.515625 
Q 56.984375 54.828125 56.984375 36.375 
Q 56.984375 17.96875 50.515625 8.265625 
Q 44.046875 -1.421875 31.78125 -1.421875 
Q 19.53125 -1.421875 13.0625 8.265625 
Q 6.59375 17.96875 6.59375 36.375 
Q 6.59375 54.828125 13.0625 64.515625 
Q 19.53125 74.21875 31.78125 74.21875 
z
" id="DejaVuSans-48"/>
       <path d="M 10.796875 72.90625 
L 49.515625 72.90625 
L 49.515625 64.59375 
L 19.828125 64.59375 
L 19.828125 46.734375 
Q 21.96875 47.46875 24.109375 47.828125 
Q 26.265625 48.1875 28.421875 48.1875 
Q 40.625 48.1875 47.75 41.5 
Q 54.890625 34.8125 54.890625 23.390625 
Q 54.890625 11.625 47.5625 5.09375 
Q 40.234375 -1.421875 26.90625 -1.421875 
Q 22.3125 -1.421875 17.546875 -0.640625 
Q 12.796875 0.140625 7.71875 1.703125 
L 7.71875 11.625 
Q 12.109375 9.234375 16.796875 8.0625 
Q 21.484375 6.890625 26.703125 6.890625 
Q 35.15625 6.890625 40.078125 11.328125 
Q 45.015625 15.765625 45.015625 23.390625 
Q 45.015625 31 40.078125 35.4375 
Q 35.15625 39.890625 26.703125 39.890625 
Q 22.75 39.890625 18.8125 39.015625 
Q 14.890625 38.140625 10.796875 36.28125 
z
" id="DejaVuSans-53"/>
       <path d="M 25.390625 72.90625 
L 33.6875 72.90625 
L 8.296875 -9.28125 
L 0 -9.28125 
z
" id="DejaVuSans-47"/>
       <path d="M 19.1875 8.296875 
L 53.609375 8.296875 
L 53.609375 0 
L 7.328125 0 
L 7.328125 8.296875 
Q 12.9375 14.109375 22.625 23.890625 
Q 32.328125 33.6875 34.8125 36.53125 
Q 39.546875 41.84375 41.421875 45.53125 
Q 43.3125 49.21875 43.3125 52.78125 
Q 43.3125 58.59375 39.234375 62.25 
Q 35.15625 65.921875 28.609375 65.921875 
Q 23.96875 65.921875 18.8125 64.3125 
Q 13.671875 62.703125 7.8125 59.421875 
L 7.8125 69.390625 
Q 13.765625 71.78125 18.9375 73 
Q 24.125 74.21875 28.421875 74.21875 
Q 39.75 74.21875 46.484375 68.546875 
Q 53.21875 62.890625 53.21875 53.421875 
Q 53.21875 48.921875 51.53125 44.890625 
Q 49.859375 40.875 45.40625 35.40625 
Q 44.1875 33.984375 37.640625 27.21875 
Q 31.109375 20.453125 19.1875 8.296875 
z
" id="DejaVuSans-50"/>
       <path d="M 40.578125 39.3125 
Q 47.65625 37.796875 51.625 33 
Q 55.609375 28.21875 55.609375 21.1875 
Q 55.609375 10.40625 48.1875 4.484375 
Q 40.765625 -1.421875 27.09375 -1.421875 
Q 22.515625 -1.421875 17.65625 -0.515625 
Q 12.796875 0.390625 7.625 2.203125 
L 7.625 11.71875 
Q 11.71875 9.328125 16.59375 8.109375 
Q 21.484375 6.890625 26.8125 6.890625 
Q 36.078125 6.890625 40.9375 10.546875 
Q 45.796875 14.203125 45.796875 21.1875 
Q 45.796875 27.640625 41.28125 31.265625 
Q 36.765625 34.90625 28.71875 34.90625 
L 20.21875 34.90625 
L 20.21875 43.015625 
L 29.109375 43.015625 
Q 36.375 43.015625 40.234375 45.921875 
Q 44.09375 48.828125 44.09375 54.296875 
Q 44.09375 59.90625 40.109375 62.90625 
Q 36.140625 65.921875 28.71875 65.921875 
Q 24.65625 65.921875 20.015625 65.03125 
Q 15.375 64.15625 9.8125 62.3125 
L 9.8125 71.09375 
Q 15.4375 72.65625 20.34375 73.4375 
Q 25.25 74.21875 29.59375 74.21875 
Q 40.828125 74.21875 47.359375 69.109375 
Q 53.90625 64.015625 53.90625 55.328125 
Q 53.90625 49.265625 50.4375 45.09375 
Q 46.96875 40.921875 40.578125 39.3125 
z
" id="DejaVuSans-51"/>
      </defs>
      <g transform="translate(66.726369 414.995312)scale(0.3 -0.3)">
       <use xlink:href="#DejaVuSans-48"/>
       <use x="63.623047" xlink:href="#DejaVuSans-53"/>
       <use x="127.246094" xlink:href="#DejaVuSans-47"/>
       <use x="160.9375" xlink:href="#DejaVuSans-50"/>
       <use x="224.560547" xlink:href="#DejaVuSans-51"/>
      </g>
     </g>
    </g>
    <g id="xtick_2">
     <g id="line2d_2">
      <g>
       <use style="stroke:#000000;stroke-width:0.8;" x="461.529812" xlink:href="#m5dd4f01ccb" y="385.2"/>
      </g>
     </g>
     <g id="text_2">
      <!-- 08/23 -->
      <defs>
       <path d="M 31.78125 34.625 
Q 24.75 34.625 20.71875 30.859375 
Q 16.703125 27.09375 16.703125 20.515625 
Q 16.703125 13.921875 20.71875 10.15625 
Q 24.75 6.390625 31.78125 6.390625 
Q 38.8125 6.390625 42.859375 10.171875 
Q 46.921875 13.96875 46.921875 20.515625 
Q 46.921875 27.09375 42.890625 30.859375 
Q 38.875 34.625 31.78125 34.625 
z
M 21.921875 38.8125 
Q 15.578125 40.375 12.03125 44.71875 
Q 8.5 49.078125 8.5 55.328125 
Q 8.5 64.0625 14.71875 69.140625 
Q 20.953125 74.21875 31.78125 74.21875 
Q 42.671875 74.21875 48.875 69.140625 
Q 55.078125 64.0625 55.078125 55.328125 
Q 55.078125 49.078125 51.53125 44.71875 
Q 48 40.375 41.703125 38.8125 
Q 48.828125 37.15625 52.796875 32.3125 
Q 56.78125 27.484375 56.78125 20.515625 
Q 56.78125 9.90625 50.3125 4.234375 
Q 43.84375 -1.421875 31.78125 -1.421875 
Q 19.734375 -1.421875 13.25 4.234375 
Q 6.78125 9.90625 6.78125 20.515625 
Q 6.78125 27.484375 10.78125 32.3125 
Q 14.796875 37.15625 21.921875 38.8125 
z
M 18.3125 54.390625 
Q 18.3125 48.734375 21.84375 45.5625 
Q 25.390625 42.390625 31.78125 42.390625 
Q 38.140625 42.390625 41.71875 45.5625 
Q 45.3125 48.734375 45.3125 54.390625 
Q 45.3125 60.0625 41.71875 63.234375 
Q 38.140625 66.40625 31.78125 66.40625 
Q 25.390625 66.40625 21.84375 63.234375 
Q 18.3125 60.0625 18.3125 54.390625 
z
" id="DejaVuSans-56"/>
      </defs>
      <g transform="translate(418.301687 414.995312)scale(0.3 -0.3)">
       <use xlink:href="#DejaVuSans-48"/>
       <use x="63.623047" xlink:href="#DejaVuSans-56"/>
       <use x="127.246094" xlink:href="#DejaVuSans-47"/>
       <use x="160.9375" xlink:href="#DejaVuSans-50"/>
       <use x="224.560547" xlink:href="#DejaVuSans-51"/>
      </g>
     </g>
    </g>
    <g id="xtick_3">
     <g id="line2d_3">
      <g>
       <use style="stroke:#000000;stroke-width:0.8;" x="805.54437" xlink:href="#m5dd4f01ccb" y="385.2"/>
      </g>
     </g>
     <g id="text_3">
      <!-- 11/23 -->
      <defs>
       <path d="M 12.40625 8.296875 
L 28.515625 8.296875 
L 28.515625 63.921875 
L 10.984375 60.40625 
L 10.984375 69.390625 
L 28.421875 72.90625 
L 38.28125 72.90625 
L 38.28125 8.296875 
L 54.390625 8.296875 
L 54.390625 0 
L 12.40625 0 
z
" id="DejaVuSans-49"/>
      </defs>
      <g transform="translate(762.316245 414.995312)scale(0.3 -0.3)">
       <use xlink:href="#DejaVuSans-49"/>
       <use x="63.623047" xlink:href="#DejaVuSans-49"/>
       <use x="127.246094" xlink:href="#DejaVuSans-47"/>
       <use x="160.9375" xlink:href="#DejaVuSans-50"/>
       <use x="224.560547" xlink:href="#DejaVuSans-51"/>
      </g>
     </g>
    </g>
   </g>
   <g id="matplotlib.axis_2">
    <g id="ytick_1">
     <g id="line2d_4">
      <defs>
       <path d="M 0 0 
L -3.5 0 
" id="mc8d007b308" style="stroke:#000000;stroke-width:0.8;"/>
      </defs>
      <g>
       <use style="stroke:#000000;stroke-width:0.8;" x="75.175" xlink:href="#mc8d007b308" y="271.987579"/>
      </g>
     </g>
     <g id="text_4">
      <!-- 80 -->
      <g transform="translate(30 283.385235)scale(0.3 -0.3)">
       <use xlink:href="#DejaVuSans-56"/>
       <use x="63.623047" xlink:href="#DejaVuSans-48"/>
      </g>
     </g>
    </g>
    <g id="ytick_2">
     <g id="line2d_5">
      <g>
       <use style="stroke:#000000;stroke-width:0.8;" x="75.175" xlink:href="#mc8d007b308" y="141.558528"/>
      </g>
     </g>
     <g id="text_5">
      <!-- 100 -->
      <g transform="translate(10.9125 152.956184)scale(0.3 -0.3)">
       <use xlink:href="#DejaVuSans-49"/>
       <use x="63.623047" xlink:href="#DejaVuSans-48"/>
       <use x="127.246094" xlink:href="#DejaVuSans-48"/>
      </g>
     </g>
    </g>
   </g>
   <g id="line2d_6">
    <path clip-path="url(#p380bcbb583)" d="M 109.954494 235.271819 
L 113.734874 229.663366 
L 117.515253 243.554042 
L 128.856393 237.815182 
L 136.417152 273.357078 
L 140.197532 258.944674 
L 143.977912 228.815545 
L 159.099431 246.097404 
L 162.87981 248.51036 
L 166.66019 220.142051 
L 170.44057 227.446046 
L 181.781709 235.271819 
L 185.562089 216.685639 
L 193.122849 206.838282 
L 196.903228 213.164099 
L 208.244368 199.86033 
L 212.024747 189.360787 
L 215.805127 188.904287 
L 219.585507 200.251601 
L 223.365887 205.794826 
L 238.487406 210.816372 
L 242.267785 219.359459 
L 246.048165 213.620598 
L 249.828545 222.946278 
L 261.169684 215.77264 
L 264.950064 194.577919 
L 268.730444 198.882102 
L 272.510824 193.20842 
L 276.291203 176.904789 
L 287.632343 162.23152 
L 295.193102 187.534788 
L 298.973482 189.752058 
L 302.753862 185.25224 
L 314.095001 167.774745 
L 317.875381 163.470612 
L 321.65576 150.492935 
L 325.43614 128.254758 
L 329.21652 143.64539 
L 340.557659 113.320626 
L 344.338039 109.994721 
L 348.118419 129.102529 
L 351.898799 159.16643 
L 355.679178 149.645115 
L 367.020318 156.623067 
L 370.800697 141.297663 
L 374.581077 146.449617 
L 378.361457 127.798259 
L 382.141837 108.364358 
L 393.482976 91.01727 
L 397.263356 88.8 
L 401.043735 118.276944 
L 404.824115 123.950625 
L 408.604495 126.493988 
L 419.945634 118.146537 
L 423.726014 132.558941 
L 427.506394 147.493073 
L 431.286773 156.362203 
L 435.067153 176.970017 
L 446.408293 160.340293 
L 450.188672 179.839472 
L 453.969052 192.556285 
L 457.749432 206.577418 
L 461.529812 202.012371 
L 472.870951 187.01306 
L 476.651331 191.317193 
L 480.43171 187.991288 
L 484.21209 207.033917 
L 487.99247 191.643285 
L 499.333609 183.100198 
L 503.113989 157.144795 
L 506.894369 149.058208 
L 510.674748 151.60157 
L 514.455128 145.471389 
L 529.576647 146.058346 
L 533.357027 144.884482 
L 537.137407 151.275478 
L 540.917787 155.123161 
L 552.258926 155.579661 
L 556.039306 162.492384 
L 559.819685 162.23152 
L 563.600065 164.579247 
L 567.380445 186.55656 
L 578.721584 176.774381 
L 582.501964 179.122108 
L 586.282344 188.252152 
L 590.062723 200.7081 
L 593.843103 181.926335 
L 605.184242 177.687381 
L 608.964622 205.794826 
L 612.745002 193.404056 
L 616.525382 180.36115 
L 620.305762 187.534788 
L 631.646901 184.79574 
L 635.427281 208.338188 
L 639.20766 206.838282 
L 642.98804 218.707324 
L 646.76842 200.7081 
L 658.109559 200.7081 
L 661.889939 185.121833 
L 665.670319 173.252791 
L 669.450698 186.882603 
L 673.231078 212.381507 
L 684.572217 195.751783 
L 688.352597 195.751783 
L 692.132977 209.446873 
L 695.913357 226.272183 
L 699.693737 240.488951 
L 711.034876 248.445131 
L 714.815256 238.793409 
L 718.595635 264.42267 
L 722.376015 253.79272 
L 726.156395 249.032088 
L 737.497534 367.592098 
L 741.277914 385.2 
L 745.058294 370.852824 
L 748.838673 359.179418 
L 752.619053 348.614647 
L 763.960192 361.787959 
L 767.740572 358.070733 
L 771.520952 361.657552 
L 775.301332 374.048322 
L 779.081712 354.288329 
L 790.422851 359.048961 
L 794.203231 337.462969 
L 797.98361 329.832882 
L 801.76399 340.723695 
L 805.54437 339.680239 
L 805.54437 339.680239 
" style="fill:none;stroke:#000000;stroke-linecap:square;stroke-width:4;"/>
   </g>
   <g id="patch_3">
    <path d="M 75.175 385.2 
L 75.175 88.8 
" style="fill:none;stroke:#000000;stroke-linecap:square;stroke-linejoin:miter;stroke-width:0.8;"/>
   </g>
   <g id="patch_4">
    <path d="M 75.175 385.2 
L 840.323864 385.2 
" style="fill:none;stroke:#000000;stroke-linecap:square;stroke-linejoin:miter;stroke-width:0.8;"/>
   </g>
   <g id="text_6">
    <!-- ON   -18% -->
    <defs>
     <path d="M 42.484375 60.59375 
Q 33.890625 60.59375 29.15625 54.25 
Q 24.421875 47.90625 24.421875 36.375 
Q 24.421875 24.90625 29.15625 18.546875 
Q 33.890625 12.203125 42.484375 12.203125 
Q 51.125 12.203125 55.859375 18.546875 
Q 60.59375 24.90625 60.59375 36.375 
Q 60.59375 47.90625 55.859375 54.25 
Q 51.125 60.59375 42.484375 60.59375 
z
M 42.484375 74.21875 
Q 60.0625 74.21875 70.015625 64.15625 
Q 79.984375 54.109375 79.984375 36.375 
Q 79.984375 18.703125 70.015625 8.640625 
Q 60.0625 -1.421875 42.484375 -1.421875 
Q 24.953125 -1.421875 14.96875 8.640625 
Q 4.984375 18.703125 4.984375 36.375 
Q 4.984375 54.109375 14.96875 64.15625 
Q 24.953125 74.21875 42.484375 74.21875 
z
" id="DejaVuSans-Bold-79"/>
     <path d="M 9.1875 72.90625 
L 30.171875 72.90625 
L 56.6875 22.90625 
L 56.6875 72.90625 
L 74.515625 72.90625 
L 74.515625 0 
L 53.515625 0 
L 27 50 
L 27 0 
L 9.1875 0 
z
" id="DejaVuSans-Bold-78"/>
     <path id="DejaVuSans-Bold-32"/>
     <path d="M 5.421875 35.890625 
L 36.078125 35.890625 
L 36.078125 21.6875 
L 5.421875 21.6875 
z
" id="DejaVuSans-Bold-45"/>
     <path d="M 11.71875 12.984375 
L 28.328125 12.984375 
L 28.328125 60.109375 
L 11.28125 56.59375 
L 11.28125 69.390625 
L 28.21875 72.90625 
L 46.09375 72.90625 
L 46.09375 12.984375 
L 62.703125 12.984375 
L 62.703125 0 
L 11.71875 0 
z
" id="DejaVuSans-Bold-49"/>
     <path d="M 34.8125 32.625 
Q 29.546875 32.625 26.703125 29.734375 
Q 23.875 26.859375 23.875 21.484375 
Q 23.875 16.109375 26.703125 13.25 
Q 29.546875 10.40625 34.8125 10.40625 
Q 40.046875 10.40625 42.828125 13.25 
Q 45.609375 16.109375 45.609375 21.484375 
Q 45.609375 26.90625 42.828125 29.765625 
Q 40.046875 32.625 34.8125 32.625 
z
M 21.09375 38.8125 
Q 14.453125 40.828125 11.078125 44.96875 
Q 7.71875 49.125 7.71875 55.328125 
Q 7.71875 64.546875 14.59375 69.375 
Q 21.484375 74.21875 34.8125 74.21875 
Q 48.046875 74.21875 54.921875 69.40625 
Q 61.8125 64.59375 61.8125 55.328125 
Q 61.8125 49.125 58.421875 44.96875 
Q 55.03125 40.828125 48.390625 38.8125 
Q 55.8125 36.765625 59.59375 32.15625 
Q 63.375 27.546875 63.375 20.515625 
Q 63.375 9.671875 56.171875 4.125 
Q 48.96875 -1.421875 34.8125 -1.421875 
Q 20.609375 -1.421875 13.359375 4.125 
Q 6.109375 9.671875 6.109375 20.515625 
Q 6.109375 27.546875 9.890625 32.15625 
Q 13.671875 36.765625 21.09375 38.8125 
z
M 25.484375 53.421875 
Q 25.484375 49.078125 27.90625 46.734375 
Q 30.328125 44.390625 34.8125 44.390625 
Q 39.203125 44.390625 41.59375 46.734375 
Q 44 49.078125 44 53.421875 
Q 44 57.765625 41.59375 60.078125 
Q 39.203125 62.40625 34.8125 62.40625 
Q 30.328125 62.40625 27.90625 60.0625 
Q 25.484375 57.71875 25.484375 53.421875 
z
" id="DejaVuSans-Bold-56"/>
     <path d="M 77.484375 30.078125 
Q 74.03125 30.078125 72.125 27.078125 
Q 70.21875 24.078125 70.21875 18.5 
Q 70.21875 12.890625 72.09375 9.890625 
Q 73.96875 6.890625 77.484375 6.890625 
Q 81 6.890625 82.859375 9.890625 
Q 84.71875 12.890625 84.71875 18.5 
Q 84.71875 24.078125 82.828125 27.078125 
Q 80.953125 30.078125 77.484375 30.078125 
z
M 77.484375 38.28125 
Q 86.578125 38.28125 91.796875 33 
Q 97.015625 27.734375 97.015625 18.5 
Q 97.015625 9.28125 91.796875 3.921875 
Q 86.578125 -1.421875 77.484375 -1.421875 
Q 68.40625 -1.421875 63.15625 3.921875 
Q 57.90625 9.28125 57.90625 18.5 
Q 57.90625 27.6875 63.15625 32.984375 
Q 68.40625 38.28125 77.484375 38.28125 
z
M 32.71875 -1.421875 
L 21.921875 -1.421875 
L 67.484375 74.21875 
L 78.328125 74.21875 
z
M 22.703125 74.21875 
Q 31.78125 74.21875 36.984375 68.921875 
Q 42.1875 63.625 42.1875 54.390625 
Q 42.1875 45.171875 36.984375 39.84375 
Q 31.78125 34.515625 22.703125 34.515625 
Q 13.625 34.515625 8.421875 39.84375 
Q 3.21875 45.171875 3.21875 54.390625 
Q 3.21875 63.625 8.421875 68.921875 
Q 13.625 74.21875 22.703125 74.21875 
z
M 22.703125 66.015625 
Q 19.1875 66.015625 17.28125 62.984375 
Q 15.375 59.96875 15.375 54.390625 
Q 15.375 48.78125 17.28125 45.71875 
Q 19.1875 42.671875 22.703125 42.671875 
Q 26.21875 42.671875 28.09375 45.71875 
Q 29.984375 48.78125 29.984375 54.390625 
Q 29.984375 59.96875 28.078125 62.984375 
Q 26.171875 66.015625 22.703125 66.015625 
z
" id="DejaVuSans-Bold-37"/>
    </defs>
    <g transform="translate(75.175 72.1625)scale(0.8 -0.8)">
     <use xlink:href="#DejaVuSans-Bold-79"/>
     <use x="85.009766" xlink:href="#DejaVuSans-Bold-78"/>
     <use x="168.701172" xlink:href="#DejaVuSans-Bold-32"/>
     <use x="203.515625" xlink:href="#DejaVuSans-Bold-32"/>
     <use x="238.330078" xlink:href="#DejaVuSans-Bold-32"/>
     <use x="273.144531" xlink:href="#DejaVuSans-Bold-45"/>
     <use x="314.648438" xlink:href="#DejaVuSans-Bold-49"/>
     <use x="384.228516" xlink:href="#DejaVuSans-Bold-56"/>
     <use x="453.808594" xlink:href="#DejaVuSans-Bold-37"/>
    </g>
   </g>
  </g>
 </g>
 <defs>
  <clipPath id="p380bcbb583">
   <rect height="296.4" width="765.148864" x="75.175" y="88.8"/>
  </clipPath>
 </defs>
</svg>
