<?xml version="1.0" encoding="utf-8" standalone="no"?>
<!DOCTYPE svg PUBLIC "-//W3C//DTD SVG 1.1//EN"
  "http://www.w3.org/Graphics/SVG/1.1/DTD/svg11.dtd">
<!-- Created with matplotlib (https://matplotlib.org/) -->
<svg height="432pt" version="1.1" viewBox="0 0 576 432" width="576pt" xmlns="http://www.w3.org/2000/svg" xmlns:xlink="http://www.w3.org/1999/xlink">
 <defs>
  <style type="text/css">
*{stroke-linecap:butt;stroke-linejoin:round;}
  </style>
 </defs>
 <g id="figure_1">
  <g id="patch_1">
   <path d="M 0 432 
L 576 432 
L 576 0 
L 0 0 
z
" style="fill:#ffffff;"/>
  </g>
  <g id="axes_1">
   <g id="patch_2">
    <path d="M 30.55 404.2 
L 565.2 404.2 
L 565.2 31.8 
L 30.55 31.8 
z
" style="fill:#ffffff;"/>
   </g>
   <g id="PolyCollection_1">
    <defs>
     <path d="M 54.852273 -44.727273 
L 54.852273 -295.771083 
L 56.187562 -291.473129 
L 60.193432 -293.567003 
L 61.528721 -294.007827 
L 62.864011 -279.240543 
L 64.199301 -300.069017 
L 65.53459 -311.419995 
L 69.54046 -313.844467 
L 70.875749 -334.45255 
L 72.211039 -324.203611 
L 73.546329 -314.946507 
L 74.881618 -313.403643 
L 78.887488 -307.011835 
L 80.222777 -314.726095 
L 81.558067 -320.566893 
L 84.228646 -320.126069 
L 88.234515 -313.183251 
L 89.569805 -309.215915 
L 90.905095 -324.864827 
L 92.240385 -326.628083 
L 93.575674 -318.693431 
L 97.581543 -308.444493 
L 98.916833 -295.109847 
L 100.252123 -294.669043 
L 101.587413 -294.007827 
L 102.922702 -299.958811 
L 106.928571 -304.917981 
L 108.263861 -335.885187 
L 109.599151 -333.681107 
L 110.934441 -321.999531 
L 112.26973 -318.032195 
L 116.275599 -311.089377 
L 117.610889 -314.064879 
L 118.946179 -321.779119 
L 120.281469 -317.150567 
L 121.616758 -315.056713 
L 126.957917 -302.934313 
L 128.293207 -296.652711 
L 129.628497 -307.232247 
L 130.963786 -312.301623 
L 136.304945 -296.983309 
L 137.640235 -306.791443 
L 138.975524 -304.697569 
L 140.310814 -314.285271 
L 144.316683 -318.913823 
L 145.651973 -330.595419 
L 146.987263 -342.387201 
L 148.322552 -336.1056 
L 149.657842 -338.86069 
L 154.999001 -338.089268 
L 156.334291 -332.138263 
L 157.66958 -339.742318 
L 159.00487 -337.868855 
L 163.010739 -338.86069 
L 164.346029 -329.383173 
L 165.681319 -332.579088 
L 167.016608 -335.334178 
L 168.351898 -339.411699 
L 172.357767 -330.375007 
L 173.693057 -334.45255 
L 175.028347 -338.970896 
L 176.363636 -365.419756 
L 177.698926 -347.566763 
L 181.704795 -352.085109 
L 183.040085 -336.215806 
L 184.375375 -329.934183 
L 185.710664 -317.260773 
L 187.045954 -318.473019 
L 191.051823 -316.930175 
L 192.387113 -316.709763 
L 193.722403 -324.424003 
L 195.057692 -318.473019 
L 196.392982 -313.954673 
L 201.734141 -314.175085 
L 203.069431 -321.779119 
L 204.40472 -325.746455 
L 205.74001 -320.566893 
L 209.745879 -320.126069 
L 211.081169 -321.448521 
L 212.416459 -319.905657 
L 213.751748 -323.983199 
L 215.087038 -335.664775 
L 219.092907 -338.750483 
L 220.428197 -338.309659 
L 221.763487 -328.391339 
L 223.098776 -318.473019 
L 224.434066 -311.089377 
L 228.439935 -305.799609 
L 229.775225 -320.126069 
L 231.110514 -320.566893 
L 232.445804 -337.097434 
L 233.781094 -335.334178 
L 237.786963 -339.521905 
L 239.122253 -348.007588 
L 240.457542 -347.456557 
L 241.792832 -348.999422 
L 243.128122 -347.456557 
L 247.133991 -354.068777 
L 248.469281 -340.513739 
L 249.80457 -336.766815 
L 251.13986 -335.003559 
L 252.47515 -345.252498 
L 256.481019 -350.542265 
L 257.816309 -353.076943 
L 259.151598 -345.913713 
L 260.486888 -356.052445 
L 265.828047 -352.63614 
L 267.163337 -355.39123 
L 268.498626 -350.432059 
L 269.833916 -358.366711 
L 271.169206 -359.689163 
L 275.175075 -360.129988 
L 276.510365 -355.281024 
L 277.845654 -355.721827 
L 279.180944 -348.117794 
L 280.516234 -346.574929 
L 284.522103 -349.219813 
L 285.857393 -350.432059 
L 287.192682 -337.979062 
L 288.527972 -345.252498 
L 289.863262 -298.195555 
L 293.869131 -287.836411 
L 295.204421 -280.232377 
L 296.53971 -275.163001 
L 297.875 -273.730363 
L 299.21029 -276.265041 
L 303.216159 -282.656849 
L 304.551449 -281.334396 
L 305.886738 -281.995633 
L 307.222028 -281.444603 
L 308.557318 -280.562975 
L 312.563187 -287.726204 
L 313.898477 -282.656849 
L 315.233766 -286.624185 
L 316.569056 -292.24455 
L 317.904346 -294.889455 
L 321.910215 -301.060851 
L 323.245504 -306.571031 
L 324.580794 -312.632221 
L 325.916084 -306.350619 
L 327.251374 -311.750593 
L 332.592532 -313.734261 
L 333.927822 -308.554699 
L 335.263112 -304.917981 
L 336.598402 -303.375117 
L 340.604271 -310.317955 
L 341.93956 -316.158733 
L 343.27485 -313.073045 
L 344.61014 -308.554699 
L 345.94543 -307.783277 
L 349.951299 -310.317955 
L 351.286588 -311.971005 
L 352.621878 -313.844467 
L 353.957168 -319.795451 
L 355.292458 -324.203611 
L 360.633616 -322.550541 
L 361.968906 -319.134235 
L 363.304196 -332.799479 
L 364.639486 -333.901519 
L 368.645355 -326.958701 
L 369.980644 -335.664775 
L 371.315934 -354.840199 
L 372.651224 -349.330019 
L 373.986513 -346.023919 
L 377.992383 -344.921879 
L 380.662962 -350.321853 
L 381.998252 -344.481076 
L 383.333541 -347.236166 
L 387.339411 -347.897381 
L 388.6747 -360.129988 
L 390.00999 -361.783038 
L 391.34528 -360.240173 
L 392.680569 -361.121801 
L 396.686439 -365.970765 
L 398.021728 -378.754381 
L 399.357018 -373.57482 
L 400.692308 -358.366711 
L 402.027597 -352.856531 
L 406.033467 -350.98309 
L 407.368756 -344.481076 
L 408.704046 -349.991256 
L 410.039336 -340.734152 
L 411.374625 -358.256526 
L 415.380495 -364.207509 
L 416.715784 -363.876891 
L 418.051074 -351.644306 
L 419.386364 -344.040251 
L 420.721653 -338.530071 
L 424.727522 -344.150457 
L 426.062812 -339.96273 
L 427.398102 -333.240303 
L 428.733392 -330.375007 
L 430.068681 -328.832164 
L 434.07455 -332.909685 
L 435.40984 -327.950536 
L 436.74513 -333.570901 
L 438.08042 -338.970896 
L 439.415709 -336.215806 
L 443.421578 -348.007588 
L 444.756868 -341.946377 
L 446.092158 -345.47291 
L 447.427448 -339.411699 
L 448.762737 -341.285161 
L 452.768606 -343.489242 
L 454.103896 -346.244332 
L 455.439186 -345.47291 
L 456.774476 -347.676969 
L 458.109765 -349.440225 
L 463.450924 -361.893244 
L 464.786214 -349.440225 
L 466.121503 -353.297355 
L 467.456793 -348.338185 
L 471.462662 -352.305521 
L 472.797952 -351.864718 
L 474.133242 -334.562735 
L 475.468531 -331.477047 
L 476.803821 -328.060721 
L 480.80969 -324.644415 
L 482.14498 -333.570901 
L 483.48027 -342.497408 
L 484.815559 -336.215806 
L 486.150849 -339.191287 
L 490.156718 -331.917851 
L 491.492008 -330.264801 
L 492.827298 -332.028057 
L 494.162587 -336.656609 
L 495.497877 -342.607614 
L 499.503746 -342.71782 
L 500.839036 -330.705626 
L 502.174326 -335.554569 
L 503.509615 -342.387201 
L 504.844905 -354.178983 
L 508.850774 -355.942239 
L 510.186064 -359.909576 
L 511.521354 -358.366711 
L 512.856643 -350.762678 
L 514.191933 -338.089268 
L 518.197802 -347.897381 
L 519.533092 -353.297355 
L 520.868382 -340.403533 
L 522.203671 -337.317825 
L 523.538961 -330.815811 
L 527.54483 -338.309659 
L 528.88012 -339.96273 
L 530.21541 -326.407671 
L 531.550699 -310.317955 
L 532.885989 -313.183251 
L 536.891858 -321.338315 
L 538.227148 -374.015623 
L 539.562438 -374.456448 
L 540.897727 -383.272727 
L 540.897727 -44.727273 
L 540.897727 -44.727273 
L 539.562438 -44.727273 
L 538.227148 -44.727273 
L 536.891858 -44.727273 
L 532.885989 -44.727273 
L 531.550699 -44.727273 
L 530.21541 -44.727273 
L 528.88012 -44.727273 
L 527.54483 -44.727273 
L 523.538961 -44.727273 
L 522.203671 -44.727273 
L 520.868382 -44.727273 
L 519.533092 -44.727273 
L 518.197802 -44.727273 
L 514.191933 -44.727273 
L 512.856643 -44.727273 
L 511.521354 -44.727273 
L 510.186064 -44.727273 
L 508.850774 -44.727273 
L 504.844905 -44.727273 
L 503.509615 -44.727273 
L 502.174326 -44.727273 
L 500.839036 -44.727273 
L 499.503746 -44.727273 
L 495.497877 -44.727273 
L 494.162587 -44.727273 
L 492.827298 -44.727273 
L 491.492008 -44.727273 
L 490.156718 -44.727273 
L 486.150849 -44.727273 
L 484.815559 -44.727273 
L 483.48027 -44.727273 
L 482.14498 -44.727273 
L 480.80969 -44.727273 
L 476.803821 -44.727273 
L 475.468531 -44.727273 
L 474.133242 -44.727273 
L 472.797952 -44.727273 
L 471.462662 -44.727273 
L 467.456793 -44.727273 
L 466.121503 -44.727273 
L 464.786214 -44.727273 
L 463.450924 -44.727273 
L 458.109765 -44.727273 
L 456.774476 -44.727273 
L 455.439186 -44.727273 
L 454.103896 -44.727273 
L 452.768606 -44.727273 
L 448.762737 -44.727273 
L 447.427448 -44.727273 
L 446.092158 -44.727273 
L 444.756868 -44.727273 
L 443.421578 -44.727273 
L 439.415709 -44.727273 
L 438.08042 -44.727273 
L 436.74513 -44.727273 
L 435.40984 -44.727273 
L 434.07455 -44.727273 
L 430.068681 -44.727273 
L 428.733392 -44.727273 
L 427.398102 -44.727273 
L 426.062812 -44.727273 
L 424.727522 -44.727273 
L 420.721653 -44.727273 
L 419.386364 -44.727273 
L 418.051074 -44.727273 
L 416.715784 -44.727273 
L 415.380495 -44.727273 
L 411.374625 -44.727273 
L 410.039336 -44.727273 
L 408.704046 -44.727273 
L 407.368756 -44.727273 
L 406.033467 -44.727273 
L 402.027597 -44.727273 
L 400.692308 -44.727273 
L 399.357018 -44.727273 
L 398.021728 -44.727273 
L 396.686439 -44.727273 
L 392.680569 -44.727273 
L 391.34528 -44.727273 
L 390.00999 -44.727273 
L 388.6747 -44.727273 
L 387.339411 -44.727273 
L 383.333541 -44.727273 
L 381.998252 -44.727273 
L 380.662962 -44.727273 
L 377.992383 -44.727273 
L 373.986513 -44.727273 
L 372.651224 -44.727273 
L 371.315934 -44.727273 
L 369.980644 -44.727273 
L 368.645355 -44.727273 
L 364.639486 -44.727273 
L 363.304196 -44.727273 
L 361.968906 -44.727273 
L 360.633616 -44.727273 
L 355.292458 -44.727273 
L 353.957168 -44.727273 
L 352.621878 -44.727273 
L 351.286588 -44.727273 
L 349.951299 -44.727273 
L 345.94543 -44.727273 
L 344.61014 -44.727273 
L 343.27485 -44.727273 
L 341.93956 -44.727273 
L 340.604271 -44.727273 
L 336.598402 -44.727273 
L 335.263112 -44.727273 
L 333.927822 -44.727273 
L 332.592532 -44.727273 
L 327.251374 -44.727273 
L 325.916084 -44.727273 
L 324.580794 -44.727273 
L 323.245504 -44.727273 
L 321.910215 -44.727273 
L 317.904346 -44.727273 
L 316.569056 -44.727273 
L 315.233766 -44.727273 
L 313.898477 -44.727273 
L 312.563187 -44.727273 
L 308.557318 -44.727273 
L 307.222028 -44.727273 
L 305.886738 -44.727273 
L 304.551449 -44.727273 
L 303.216159 -44.727273 
L 299.21029 -44.727273 
L 297.875 -44.727273 
L 296.53971 -44.727273 
L 295.204421 -44.727273 
L 293.869131 -44.727273 
L 289.863262 -44.727273 
L 288.527972 -44.727273 
L 287.192682 -44.727273 
L 285.857393 -44.727273 
L 284.522103 -44.727273 
L 280.516234 -44.727273 
L 279.180944 -44.727273 
L 277.845654 -44.727273 
L 276.510365 -44.727273 
L 275.175075 -44.727273 
L 271.169206 -44.727273 
L 269.833916 -44.727273 
L 268.498626 -44.727273 
L 267.163337 -44.727273 
L 265.828047 -44.727273 
L 260.486888 -44.727273 
L 259.151598 -44.727273 
L 257.816309 -44.727273 
L 256.481019 -44.727273 
L 252.47515 -44.727273 
L 251.13986 -44.727273 
L 249.80457 -44.727273 
L 248.469281 -44.727273 
L 247.133991 -44.727273 
L 243.128122 -44.727273 
L 241.792832 -44.727273 
L 240.457542 -44.727273 
L 239.122253 -44.727273 
L 237.786963 -44.727273 
L 233.781094 -44.727273 
L 232.445804 -44.727273 
L 231.110514 -44.727273 
L 229.775225 -44.727273 
L 228.439935 -44.727273 
L 224.434066 -44.727273 
L 223.098776 -44.727273 
L 221.763487 -44.727273 
L 220.428197 -44.727273 
L 219.092907 -44.727273 
L 215.087038 -44.727273 
L 213.751748 -44.727273 
L 212.416459 -44.727273 
L 211.081169 -44.727273 
L 209.745879 -44.727273 
L 205.74001 -44.727273 
L 204.40472 -44.727273 
L 203.069431 -44.727273 
L 201.734141 -44.727273 
L 196.392982 -44.727273 
L 195.057692 -44.727273 
L 193.722403 -44.727273 
L 192.387113 -44.727273 
L 191.051823 -44.727273 
L 187.045954 -44.727273 
L 185.710664 -44.727273 
L 184.375375 -44.727273 
L 183.040085 -44.727273 
L 181.704795 -44.727273 
L 177.698926 -44.727273 
L 176.363636 -44.727273 
L 175.028347 -44.727273 
L 173.693057 -44.727273 
L 172.357767 -44.727273 
L 168.351898 -44.727273 
L 167.016608 -44.727273 
L 165.681319 -44.727273 
L 164.346029 -44.727273 
L 163.010739 -44.727273 
L 159.00487 -44.727273 
L 157.66958 -44.727273 
L 156.334291 -44.727273 
L 154.999001 -44.727273 
L 149.657842 -44.727273 
L 148.322552 -44.727273 
L 146.987263 -44.727273 
L 145.651973 -44.727273 
L 144.316683 -44.727273 
L 140.310814 -44.727273 
L 138.975524 -44.727273 
L 137.640235 -44.727273 
L 136.304945 -44.727273 
L 130.963786 -44.727273 
L 129.628497 -44.727273 
L 128.293207 -44.727273 
L 126.957917 -44.727273 
L 121.616758 -44.727273 
L 120.281469 -44.727273 
L 118.946179 -44.727273 
L 117.610889 -44.727273 
L 116.275599 -44.727273 
L 112.26973 -44.727273 
L 110.934441 -44.727273 
L 109.599151 -44.727273 
L 108.263861 -44.727273 
L 106.928571 -44.727273 
L 102.922702 -44.727273 
L 101.587413 -44.727273 
L 100.252123 -44.727273 
L 98.916833 -44.727273 
L 97.581543 -44.727273 
L 93.575674 -44.727273 
L 92.240385 -44.727273 
L 90.905095 -44.727273 
L 89.569805 -44.727273 
L 88.234515 -44.727273 
L 84.228646 -44.727273 
L 81.558067 -44.727273 
L 80.222777 -44.727273 
L 78.887488 -44.727273 
L 74.881618 -44.727273 
L 73.546329 -44.727273 
L 72.211039 -44.727273 
L 70.875749 -44.727273 
L 69.54046 -44.727273 
L 65.53459 -44.727273 
L 64.199301 -44.727273 
L 62.864011 -44.727273 
L 61.528721 -44.727273 
L 60.193432 -44.727273 
L 56.187562 -44.727273 
L 54.852273 -44.727273 
z
" id="mee880deab4" style="stroke:#c6a2d2;"/>
    </defs>
    <g clip-path="url(#p20f81ea8b9)">
     <use style="fill:#c6a2d2;stroke:#c6a2d2;" x="0" xlink:href="#mee880deab4" y="432"/>
    </g>
   </g>
   <g id="matplotlib.axis_1">
    <g id="xtick_1">
     <g id="line2d_1">
      <defs>
       <path d="M 0 0 
L 0 3.5 
" id="m8de0d86a18" style="stroke:#000000;stroke-width:0.8;"/>
      </defs>
      <g>
       <use style="stroke:#000000;stroke-width:0.8;" x="52.181693" xlink:href="#m8de0d86a18" y="404.2"/>
      </g>
     </g>
     <g id="text_1">
      <!-- 2022-11 -->
      <defs>
       <path d="M 19.1875 8.296875 
L 53.609375 8.296875 
L 53.609375 0 
L 7.328125 0 
L 7.328125 8.296875 
Q 12.9375 14.109375 22.625 23.890625 
Q 32.328125 33.6875 34.8125 36.53125 
Q 39.546875 41.84375 41.421875 45.53125 
Q 43.3125 49.21875 43.3125 52.78125 
Q 43.3125 58.59375 39.234375 62.25 
Q 35.15625 65.921875 28.609375 65.921875 
Q 23.96875 65.921875 18.8125 64.3125 
Q 13.671875 62.703125 7.8125 59.421875 
L 7.8125 69.390625 
Q 13.765625 71.78125 18.9375 73 
Q 24.125 74.21875 28.421875 74.21875 
Q 39.75 74.21875 46.484375 68.546875 
Q 53.21875 62.890625 53.21875 53.421875 
Q 53.21875 48.921875 51.53125 44.890625 
Q 49.859375 40.875 45.40625 35.40625 
Q 44.1875 33.984375 37.640625 27.21875 
Q 31.109375 20.453125 19.1875 8.296875 
z
" id="DejaVuSans-50"/>
       <path d="M 31.78125 66.40625 
Q 24.171875 66.40625 20.328125 58.90625 
Q 16.5 51.421875 16.5 36.375 
Q 16.5 21.390625 20.328125 13.890625 
Q 24.171875 6.390625 31.78125 6.390625 
Q 39.453125 6.390625 43.28125 13.890625 
Q 47.125 21.390625 47.125 36.375 
Q 47.125 51.421875 43.28125 58.90625 
Q 39.453125 66.40625 31.78125 66.40625 
z
M 31.78125 74.21875 
Q 44.046875 74.21875 50.515625 64.515625 
Q 56.984375 54.828125 56.984375 36.375 
Q 56.984375 17.96875 50.515625 8.265625 
Q 44.046875 -1.421875 31.78125 -1.421875 
Q 19.53125 -1.421875 13.0625 8.265625 
Q 6.59375 17.96875 6.59375 36.375 
Q 6.59375 54.828125 13.0625 64.515625 
Q 19.53125 74.21875 31.78125 74.21875 
z
" id="DejaVuSans-48"/>
       <path d="M 4.890625 31.390625 
L 31.203125 31.390625 
L 31.203125 23.390625 
L 4.890625 23.390625 
z
" id="DejaVuSans-45"/>
       <path d="M 12.40625 8.296875 
L 28.515625 8.296875 
L 28.515625 63.921875 
L 10.984375 60.40625 
L 10.984375 69.390625 
L 28.421875 72.90625 
L 38.28125 72.90625 
L 38.28125 8.296875 
L 54.390625 8.296875 
L 54.390625 0 
L 12.40625 0 
z
" id="DejaVuSans-49"/>
      </defs>
      <g transform="translate(31.290287 418.798437)scale(0.1 -0.1)">
       <use xlink:href="#DejaVuSans-50"/>
       <use x="63.623047" xlink:href="#DejaVuSans-48"/>
       <use x="127.246094" xlink:href="#DejaVuSans-50"/>
       <use x="190.869141" xlink:href="#DejaVuSans-50"/>
       <use x="254.492188" xlink:href="#DejaVuSans-45"/>
       <use x="290.576172" xlink:href="#DejaVuSans-49"/>
       <use x="354.199219" xlink:href="#DejaVuSans-49"/>
      </g>
     </g>
    </g>
    <g id="xtick_2">
     <g id="line2d_2">
      <g>
       <use style="stroke:#000000;stroke-width:0.8;" x="133.634366" xlink:href="#m8de0d86a18" y="404.2"/>
      </g>
     </g>
     <g id="text_2">
      <!-- 2023-01 -->
      <defs>
       <path d="M 40.578125 39.3125 
Q 47.65625 37.796875 51.625 33 
Q 55.609375 28.21875 55.609375 21.1875 
Q 55.609375 10.40625 48.1875 4.484375 
Q 40.765625 -1.421875 27.09375 -1.421875 
Q 22.515625 -1.421875 17.65625 -0.515625 
Q 12.796875 0.390625 7.625 2.203125 
L 7.625 11.71875 
Q 11.71875 9.328125 16.59375 8.109375 
Q 21.484375 6.890625 26.8125 6.890625 
Q 36.078125 6.890625 40.9375 10.546875 
Q 45.796875 14.203125 45.796875 21.1875 
Q 45.796875 27.640625 41.28125 31.265625 
Q 36.765625 34.90625 28.71875 34.90625 
L 20.21875 34.90625 
L 20.21875 43.015625 
L 29.109375 43.015625 
Q 36.375 43.015625 40.234375 45.921875 
Q 44.09375 48.828125 44.09375 54.296875 
Q 44.09375 59.90625 40.109375 62.90625 
Q 36.140625 65.921875 28.71875 65.921875 
Q 24.65625 65.921875 20.015625 65.03125 
Q 15.375 64.15625 9.8125 62.3125 
L 9.8125 71.09375 
Q 15.4375 72.65625 20.34375 73.4375 
Q 25.25 74.21875 29.59375 74.21875 
Q 40.828125 74.21875 47.359375 69.109375 
Q 53.90625 64.015625 53.90625 55.328125 
Q 53.90625 49.265625 50.4375 45.09375 
Q 46.96875 40.921875 40.578125 39.3125 
z
" id="DejaVuSans-51"/>
      </defs>
      <g transform="translate(112.742959 418.798437)scale(0.1 -0.1)">
       <use xlink:href="#DejaVuSans-50"/>
       <use x="63.623047" xlink:href="#DejaVuSans-48"/>
       <use x="127.246094" xlink:href="#DejaVuSans-50"/>
       <use x="190.869141" xlink:href="#DejaVuSans-51"/>
       <use x="254.492188" xlink:href="#DejaVuSans-45"/>
       <use x="290.576172" xlink:href="#DejaVuSans-48"/>
       <use x="354.199219" xlink:href="#DejaVuSans-49"/>
      </g>
     </g>
    </g>
    <g id="xtick_3">
     <g id="line2d_3">
      <g>
       <use style="stroke:#000000;stroke-width:0.8;" x="212.416459" xlink:href="#m8de0d86a18" y="404.2"/>
      </g>
     </g>
     <g id="text_3">
      <!-- 2023-03 -->
      <g transform="translate(191.525052 418.798437)scale(0.1 -0.1)">
       <use xlink:href="#DejaVuSans-50"/>
       <use x="63.623047" xlink:href="#DejaVuSans-48"/>
       <use x="127.246094" xlink:href="#DejaVuSans-50"/>
       <use x="190.869141" xlink:href="#DejaVuSans-51"/>
       <use x="254.492188" xlink:href="#DejaVuSans-45"/>
       <use x="290.576172" xlink:href="#DejaVuSans-48"/>
       <use x="354.199219" xlink:href="#DejaVuSans-51"/>
      </g>
     </g>
    </g>
    <g id="xtick_4">
     <g id="line2d_4">
      <g>
       <use style="stroke:#000000;stroke-width:0.8;" x="293.869131" xlink:href="#m8de0d86a18" y="404.2"/>
      </g>
     </g>
     <g id="text_4">
      <!-- 2023-05 -->
      <defs>
       <path d="M 10.796875 72.90625 
L 49.515625 72.90625 
L 49.515625 64.59375 
L 19.828125 64.59375 
L 19.828125 46.734375 
Q 21.96875 47.46875 24.109375 47.828125 
Q 26.265625 48.1875 28.421875 48.1875 
Q 40.625 48.1875 47.75 41.5 
Q 54.890625 34.8125 54.890625 23.390625 
Q 54.890625 11.625 47.5625 5.09375 
Q 40.234375 -1.421875 26.90625 -1.421875 
Q 22.3125 -1.421875 17.546875 -0.640625 
Q 12.796875 0.140625 7.71875 1.703125 
L 7.71875 11.625 
Q 12.109375 9.234375 16.796875 8.0625 
Q 21.484375 6.890625 26.703125 6.890625 
Q 35.15625 6.890625 40.078125 11.328125 
Q 45.015625 15.765625 45.015625 23.390625 
Q 45.015625 31 40.078125 35.4375 
Q 35.15625 39.890625 26.703125 39.890625 
Q 22.75 39.890625 18.8125 39.015625 
Q 14.890625 38.140625 10.796875 36.28125 
z
" id="DejaVuSans-53"/>
      </defs>
      <g transform="translate(272.977725 418.798437)scale(0.1 -0.1)">
       <use xlink:href="#DejaVuSans-50"/>
       <use x="63.623047" xlink:href="#DejaVuSans-48"/>
       <use x="127.246094" xlink:href="#DejaVuSans-50"/>
       <use x="190.869141" xlink:href="#DejaVuSans-51"/>
       <use x="254.492188" xlink:href="#DejaVuSans-45"/>
       <use x="290.576172" xlink:href="#DejaVuSans-48"/>
       <use x="354.199219" xlink:href="#DejaVuSans-53"/>
      </g>
     </g>
    </g>
    <g id="xtick_5">
     <g id="line2d_5">
      <g>
       <use style="stroke:#000000;stroke-width:0.8;" x="375.321803" xlink:href="#m8de0d86a18" y="404.2"/>
      </g>
     </g>
     <g id="text_5">
      <!-- 2023-07 -->
      <defs>
       <path d="M 8.203125 72.90625 
L 55.078125 72.90625 
L 55.078125 68.703125 
L 28.609375 0 
L 18.3125 0 
L 43.21875 64.59375 
L 8.203125 64.59375 
z
" id="DejaVuSans-55"/>
      </defs>
      <g transform="translate(354.430397 418.798437)scale(0.1 -0.1)">
       <use xlink:href="#DejaVuSans-50"/>
       <use x="63.623047" xlink:href="#DejaVuSans-48"/>
       <use x="127.246094" xlink:href="#DejaVuSans-50"/>
       <use x="190.869141" xlink:href="#DejaVuSans-51"/>
       <use x="254.492188" xlink:href="#DejaVuSans-45"/>
       <use x="290.576172" xlink:href="#DejaVuSans-48"/>
       <use x="354.199219" xlink:href="#DejaVuSans-55"/>
      </g>
     </g>
    </g>
    <g id="xtick_6">
     <g id="line2d_6">
      <g>
       <use style="stroke:#000000;stroke-width:0.8;" x="458.109765" xlink:href="#m8de0d86a18" y="404.2"/>
      </g>
     </g>
     <g id="text_6">
      <!-- 2023-09 -->
      <defs>
       <path d="M 10.984375 1.515625 
L 10.984375 10.5 
Q 14.703125 8.734375 18.5 7.8125 
Q 22.3125 6.890625 25.984375 6.890625 
Q 35.75 6.890625 40.890625 13.453125 
Q 46.046875 20.015625 46.78125 33.40625 
Q 43.953125 29.203125 39.59375 26.953125 
Q 35.25 24.703125 29.984375 24.703125 
Q 19.046875 24.703125 12.671875 31.3125 
Q 6.296875 37.9375 6.296875 49.421875 
Q 6.296875 60.640625 12.9375 67.421875 
Q 19.578125 74.21875 30.609375 74.21875 
Q 43.265625 74.21875 49.921875 64.515625 
Q 56.59375 54.828125 56.59375 36.375 
Q 56.59375 19.140625 48.40625 8.859375 
Q 40.234375 -1.421875 26.421875 -1.421875 
Q 22.703125 -1.421875 18.890625 -0.6875 
Q 15.09375 0.046875 10.984375 1.515625 
z
M 30.609375 32.421875 
Q 37.25 32.421875 41.125 36.953125 
Q 45.015625 41.5 45.015625 49.421875 
Q 45.015625 57.28125 41.125 61.84375 
Q 37.25 66.40625 30.609375 66.40625 
Q 23.96875 66.40625 20.09375 61.84375 
Q 16.21875 57.28125 16.21875 49.421875 
Q 16.21875 41.5 20.09375 36.953125 
Q 23.96875 32.421875 30.609375 32.421875 
z
" id="DejaVuSans-57"/>
      </defs>
      <g transform="translate(437.218359 418.798437)scale(0.1 -0.1)">
       <use xlink:href="#DejaVuSans-50"/>
       <use x="63.623047" xlink:href="#DejaVuSans-48"/>
       <use x="127.246094" xlink:href="#DejaVuSans-50"/>
       <use x="190.869141" xlink:href="#DejaVuSans-51"/>
       <use x="254.492188" xlink:href="#DejaVuSans-45"/>
       <use x="290.576172" xlink:href="#DejaVuSans-48"/>
       <use x="354.199219" xlink:href="#DejaVuSans-57"/>
      </g>
     </g>
    </g>
    <g id="xtick_7">
     <g id="line2d_7">
      <g>
       <use style="stroke:#000000;stroke-width:0.8;" x="539.562438" xlink:href="#m8de0d86a18" y="404.2"/>
      </g>
     </g>
     <g id="text_7">
      <!-- 2023-11 -->
      <g transform="translate(518.671031 418.798437)scale(0.1 -0.1)">
       <use xlink:href="#DejaVuSans-50"/>
       <use x="63.623047" xlink:href="#DejaVuSans-48"/>
       <use x="127.246094" xlink:href="#DejaVuSans-50"/>
       <use x="190.869141" xlink:href="#DejaVuSans-51"/>
       <use x="254.492188" xlink:href="#DejaVuSans-45"/>
       <use x="290.576172" xlink:href="#DejaVuSans-49"/>
       <use x="354.199219" xlink:href="#DejaVuSans-49"/>
      </g>
     </g>
    </g>
   </g>
   <g id="matplotlib.axis_2">
    <g id="ytick_1">
     <g id="line2d_8">
      <defs>
       <path d="M 0 0 
L -3.5 0 
" id="mc1b2bbdb49" style="stroke:#000000;stroke-width:0.8;"/>
      </defs>
      <g>
       <use style="stroke:#000000;stroke-width:0.8;" x="30.55" xlink:href="#mc1b2bbdb49" y="387.272727"/>
      </g>
     </g>
     <g id="text_8">
      <!-- 0 -->
      <g transform="translate(17.1875 391.071946)scale(0.1 -0.1)">
       <use xlink:href="#DejaVuSans-48"/>
      </g>
     </g>
    </g>
    <g id="ytick_2">
     <g id="line2d_9">
      <g>
       <use style="stroke:#000000;stroke-width:0.8;" x="30.55" xlink:href="#mc1b2bbdb49" y="332.170927"/>
      </g>
     </g>
     <g id="text_9">
      <!-- 5 -->
      <g transform="translate(17.1875 335.970146)scale(0.1 -0.1)">
       <use xlink:href="#DejaVuSans-53"/>
      </g>
     </g>
    </g>
    <g id="ytick_3">
     <g id="line2d_10">
      <g>
       <use style="stroke:#000000;stroke-width:0.8;" x="30.55" xlink:href="#mc1b2bbdb49" y="277.069126"/>
      </g>
     </g>
     <g id="text_10">
      <!-- 10 -->
      <g transform="translate(10.825 280.868345)scale(0.1 -0.1)">
       <use xlink:href="#DejaVuSans-49"/>
       <use x="63.623047" xlink:href="#DejaVuSans-48"/>
      </g>
     </g>
    </g>
    <g id="ytick_4">
     <g id="line2d_11">
      <g>
       <use style="stroke:#000000;stroke-width:0.8;" x="30.55" xlink:href="#mc1b2bbdb49" y="221.967326"/>
      </g>
     </g>
     <g id="text_11">
      <!-- 15 -->
      <g transform="translate(10.825 225.766545)scale(0.1 -0.1)">
       <use xlink:href="#DejaVuSans-49"/>
       <use x="63.623047" xlink:href="#DejaVuSans-53"/>
      </g>
     </g>
    </g>
    <g id="ytick_5">
     <g id="line2d_12">
      <g>
       <use style="stroke:#000000;stroke-width:0.8;" x="30.55" xlink:href="#mc1b2bbdb49" y="166.865525"/>
      </g>
     </g>
     <g id="text_12">
      <!-- 20 -->
      <g transform="translate(10.825 170.664744)scale(0.1 -0.1)">
       <use xlink:href="#DejaVuSans-50"/>
       <use x="63.623047" xlink:href="#DejaVuSans-48"/>
      </g>
     </g>
    </g>
    <g id="ytick_6">
     <g id="line2d_13">
      <g>
       <use style="stroke:#000000;stroke-width:0.8;" x="30.55" xlink:href="#mc1b2bbdb49" y="111.763725"/>
      </g>
     </g>
     <g id="text_13">
      <!-- 25 -->
      <g transform="translate(10.825 115.562944)scale(0.1 -0.1)">
       <use xlink:href="#DejaVuSans-50"/>
       <use x="63.623047" xlink:href="#DejaVuSans-53"/>
      </g>
     </g>
    </g>
    <g id="ytick_7">
     <g id="line2d_14">
      <g>
       <use style="stroke:#000000;stroke-width:0.8;" x="30.55" xlink:href="#mc1b2bbdb49" y="56.661924"/>
      </g>
     </g>
     <g id="text_14">
      <!-- 30 -->
      <g transform="translate(10.825 60.461143)scale(0.1 -0.1)">
       <use xlink:href="#DejaVuSans-51"/>
       <use x="63.623047" xlink:href="#DejaVuSans-48"/>
      </g>
     </g>
    </g>
   </g>
   <g id="patch_3">
    <path d="M 30.55 404.2 
L 30.55 31.8 
" style="fill:none;stroke:#000000;stroke-linecap:square;stroke-linejoin:miter;stroke-width:0.8;"/>
   </g>
   <g id="patch_4">
    <path d="M 565.2 404.2 
L 565.2 31.8 
" style="fill:none;stroke:#000000;stroke-linecap:square;stroke-linejoin:miter;stroke-width:0.8;"/>
   </g>
   <g id="patch_5">
    <path d="M 30.55 404.2 
L 565.2 404.2 
" style="fill:none;stroke:#000000;stroke-linecap:square;stroke-linejoin:miter;stroke-width:0.8;"/>
   </g>
   <g id="patch_6">
    <path d="M 30.55 31.8 
L 565.2 31.8 
" style="fill:none;stroke:#000000;stroke-linecap:square;stroke-linejoin:miter;stroke-width:0.8;"/>
   </g>
   <g id="text_15">
    <!-- PINS - 34.86% -->
    <defs>
     <path d="M 9.1875 72.90625 
L 40.375 72.90625 
Q 54.296875 72.90625 61.734375 66.71875 
Q 69.1875 60.546875 69.1875 49.125 
Q 69.1875 37.640625 61.734375 31.46875 
Q 54.296875 25.296875 40.375 25.296875 
L 27.984375 25.296875 
L 27.984375 0 
L 9.1875 0 
z
M 27.984375 59.28125 
L 27.984375 38.921875 
L 38.375 38.921875 
Q 43.84375 38.921875 46.828125 41.578125 
Q 49.8125 44.234375 49.8125 49.125 
Q 49.8125 54 46.828125 56.640625 
Q 43.84375 59.28125 38.375 59.28125 
z
" id="DejaVuSans-Bold-80"/>
     <path d="M 9.1875 72.90625 
L 27.984375 72.90625 
L 27.984375 0 
L 9.1875 0 
z
" id="DejaVuSans-Bold-73"/>
     <path d="M 9.1875 72.90625 
L 30.171875 72.90625 
L 56.6875 22.90625 
L 56.6875 72.90625 
L 74.515625 72.90625 
L 74.515625 0 
L 53.515625 0 
L 27 50 
L 27 0 
L 9.1875 0 
z
" id="DejaVuSans-Bold-78"/>
     <path d="M 59.90625 70.609375 
L 59.90625 55.171875 
Q 53.90625 57.859375 48.1875 59.21875 
Q 42.484375 60.59375 37.40625 60.59375 
Q 30.671875 60.59375 27.4375 58.734375 
Q 24.21875 56.890625 24.21875 52.984375 
Q 24.21875 50.046875 26.390625 48.40625 
Q 28.5625 46.78125 34.28125 45.609375 
L 42.28125 44 
Q 54.4375 41.546875 59.5625 36.5625 
Q 64.703125 31.59375 64.703125 22.40625 
Q 64.703125 10.359375 57.546875 4.46875 
Q 50.390625 -1.421875 35.6875 -1.421875 
Q 28.765625 -1.421875 21.78125 -0.09375 
Q 14.796875 1.21875 7.8125 3.8125 
L 7.8125 19.671875 
Q 14.796875 15.96875 21.3125 14.078125 
Q 27.828125 12.203125 33.890625 12.203125 
Q 40.046875 12.203125 43.3125 14.25 
Q 46.578125 16.3125 46.578125 20.125 
Q 46.578125 23.53125 44.359375 25.390625 
Q 42.140625 27.25 35.5 28.71875 
L 28.21875 30.328125 
Q 17.28125 32.671875 12.21875 37.796875 
Q 7.171875 42.921875 7.171875 51.609375 
Q 7.171875 62.5 14.203125 68.359375 
Q 21.234375 74.21875 34.421875 74.21875 
Q 40.4375 74.21875 46.78125 73.3125 
Q 53.125 72.40625 59.90625 70.609375 
z
" id="DejaVuSans-Bold-83"/>
     <path id="DejaVuSans-Bold-32"/>
     <path d="M 5.421875 35.890625 
L 36.078125 35.890625 
L 36.078125 21.6875 
L 5.421875 21.6875 
z
" id="DejaVuSans-Bold-45"/>
     <path d="M 46.578125 39.3125 
Q 53.953125 37.40625 57.78125 32.6875 
Q 61.625 27.984375 61.625 20.703125 
Q 61.625 9.859375 53.3125 4.21875 
Q 45.015625 -1.421875 29.109375 -1.421875 
Q 23.484375 -1.421875 17.84375 -0.515625 
Q 12.203125 0.390625 6.6875 2.203125 
L 6.6875 16.703125 
Q 11.96875 14.0625 17.15625 12.71875 
Q 22.359375 11.375 27.390625 11.375 
Q 34.859375 11.375 38.84375 13.953125 
Q 42.828125 16.546875 42.828125 21.390625 
Q 42.828125 26.375 38.75 28.9375 
Q 34.671875 31.5 26.703125 31.5 
L 19.1875 31.5 
L 19.1875 43.609375 
L 27.09375 43.609375 
Q 34.1875 43.609375 37.640625 45.828125 
Q 41.109375 48.046875 41.109375 52.59375 
Q 41.109375 56.78125 37.734375 59.078125 
Q 34.375 61.375 28.21875 61.375 
Q 23.6875 61.375 19.046875 60.34375 
Q 14.40625 59.328125 9.8125 57.328125 
L 9.8125 71.09375 
Q 15.375 72.65625 20.84375 73.4375 
Q 26.3125 74.21875 31.59375 74.21875 
Q 45.796875 74.21875 52.84375 69.546875 
Q 59.90625 64.890625 59.90625 55.515625 
Q 59.90625 49.125 56.53125 45.046875 
Q 53.171875 40.96875 46.578125 39.3125 
z
" id="DejaVuSans-Bold-51"/>
     <path d="M 36.8125 57.421875 
L 16.21875 26.90625 
L 36.8125 26.90625 
z
M 33.6875 72.90625 
L 54.59375 72.90625 
L 54.59375 26.90625 
L 64.984375 26.90625 
L 64.984375 13.28125 
L 54.59375 13.28125 
L 54.59375 0 
L 36.8125 0 
L 36.8125 13.28125 
L 4.5 13.28125 
L 4.5 29.390625 
z
" id="DejaVuSans-Bold-52"/>
     <path d="M 10.203125 18.890625 
L 27.78125 18.890625 
L 27.78125 0 
L 10.203125 0 
z
" id="DejaVuSans-Bold-46"/>
     <path d="M 34.8125 32.625 
Q 29.546875 32.625 26.703125 29.734375 
Q 23.875 26.859375 23.875 21.484375 
Q 23.875 16.109375 26.703125 13.25 
Q 29.546875 10.40625 34.8125 10.40625 
Q 40.046875 10.40625 42.828125 13.25 
Q 45.609375 16.109375 45.609375 21.484375 
Q 45.609375 26.90625 42.828125 29.765625 
Q 40.046875 32.625 34.8125 32.625 
z
M 21.09375 38.8125 
Q 14.453125 40.828125 11.078125 44.96875 
Q 7.71875 49.125 7.71875 55.328125 
Q 7.71875 64.546875 14.59375 69.375 
Q 21.484375 74.21875 34.8125 74.21875 
Q 48.046875 74.21875 54.921875 69.40625 
Q 61.8125 64.59375 61.8125 55.328125 
Q 61.8125 49.125 58.421875 44.96875 
Q 55.03125 40.828125 48.390625 38.8125 
Q 55.8125 36.765625 59.59375 32.15625 
Q 63.375 27.546875 63.375 20.515625 
Q 63.375 9.671875 56.171875 4.125 
Q 48.96875 -1.421875 34.8125 -1.421875 
Q 20.609375 -1.421875 13.359375 4.125 
Q 6.109375 9.671875 6.109375 20.515625 
Q 6.109375 27.546875 9.890625 32.15625 
Q 13.671875 36.765625 21.09375 38.8125 
z
M 25.484375 53.421875 
Q 25.484375 49.078125 27.90625 46.734375 
Q 30.328125 44.390625 34.8125 44.390625 
Q 39.203125 44.390625 41.59375 46.734375 
Q 44 49.078125 44 53.421875 
Q 44 57.765625 41.59375 60.078125 
Q 39.203125 62.40625 34.8125 62.40625 
Q 30.328125 62.40625 27.90625 60.0625 
Q 25.484375 57.71875 25.484375 53.421875 
z
" id="DejaVuSans-Bold-56"/>
     <path d="M 36.1875 35.984375 
Q 31.25 35.984375 28.78125 32.78125 
Q 26.3125 29.59375 26.3125 23.1875 
Q 26.3125 16.796875 28.78125 13.59375 
Q 31.25 10.40625 36.1875 10.40625 
Q 41.15625 10.40625 43.625 13.59375 
Q 46.09375 16.796875 46.09375 23.1875 
Q 46.09375 29.59375 43.625 32.78125 
Q 41.15625 35.984375 36.1875 35.984375 
z
M 59.421875 71 
L 59.421875 57.515625 
Q 54.78125 59.71875 50.671875 60.765625 
Q 46.578125 61.8125 42.671875 61.8125 
Q 34.28125 61.8125 29.59375 57.140625 
Q 24.90625 52.484375 24.125 43.3125 
Q 27.34375 45.703125 31.09375 46.890625 
Q 34.859375 48.09375 39.3125 48.09375 
Q 50.484375 48.09375 57.34375 41.546875 
Q 64.203125 35.015625 64.203125 24.421875 
Q 64.203125 12.703125 56.53125 5.640625 
Q 48.875 -1.421875 35.984375 -1.421875 
Q 21.78125 -1.421875 13.984375 8.171875 
Q 6.203125 17.78125 6.203125 35.40625 
Q 6.203125 53.46875 15.3125 63.796875 
Q 24.421875 74.125 40.28125 74.125 
Q 45.3125 74.125 50.046875 73.34375 
Q 54.78125 72.5625 59.421875 71 
z
" id="DejaVuSans-Bold-54"/>
     <path d="M 77.484375 30.078125 
Q 74.03125 30.078125 72.125 27.078125 
Q 70.21875 24.078125 70.21875 18.5 
Q 70.21875 12.890625 72.09375 9.890625 
Q 73.96875 6.890625 77.484375 6.890625 
Q 81 6.890625 82.859375 9.890625 
Q 84.71875 12.890625 84.71875 18.5 
Q 84.71875 24.078125 82.828125 27.078125 
Q 80.953125 30.078125 77.484375 30.078125 
z
M 77.484375 38.28125 
Q 86.578125 38.28125 91.796875 33 
Q 97.015625 27.734375 97.015625 18.5 
Q 97.015625 9.28125 91.796875 3.921875 
Q 86.578125 -1.421875 77.484375 -1.421875 
Q 68.40625 -1.421875 63.15625 3.921875 
Q 57.90625 9.28125 57.90625 18.5 
Q 57.90625 27.6875 63.15625 32.984375 
Q 68.40625 38.28125 77.484375 38.28125 
z
M 32.71875 -1.421875 
L 21.921875 -1.421875 
L 67.484375 74.21875 
L 78.328125 74.21875 
z
M 22.703125 74.21875 
Q 31.78125 74.21875 36.984375 68.921875 
Q 42.1875 63.625 42.1875 54.390625 
Q 42.1875 45.171875 36.984375 39.84375 
Q 31.78125 34.515625 22.703125 34.515625 
Q 13.625 34.515625 8.421875 39.84375 
Q 3.21875 45.171875 3.21875 54.390625 
Q 3.21875 63.625 8.421875 68.921875 
Q 13.625 74.21875 22.703125 74.21875 
z
M 22.703125 66.015625 
Q 19.1875 66.015625 17.28125 62.984375 
Q 15.375 59.96875 15.375 54.390625 
Q 15.375 48.78125 17.28125 45.71875 
Q 19.1875 42.671875 22.703125 42.671875 
Q 26.21875 42.671875 28.09375 45.71875 
Q 29.984375 48.78125 29.984375 54.390625 
Q 29.984375 59.96875 28.078125 62.984375 
Q 26.171875 66.015625 22.703125 66.015625 
z
" id="DejaVuSans-Bold-37"/>
    </defs>
    <g transform="translate(30.55 25.8)scale(0.2 -0.2)">
     <use xlink:href="#DejaVuSans-Bold-80"/>
     <use x="73.291016" xlink:href="#DejaVuSans-Bold-73"/>
     <use x="110.498047" xlink:href="#DejaVuSans-Bold-78"/>
     <use x="194.189453" xlink:href="#DejaVuSans-Bold-83"/>
     <use x="266.210938" xlink:href="#DejaVuSans-Bold-32"/>
     <use x="301.025391" xlink:href="#DejaVuSans-Bold-45"/>
     <use x="342.529297" xlink:href="#DejaVuSans-Bold-32"/>
     <use x="377.34375" xlink:href="#DejaVuSans-Bold-51"/>
     <use x="446.923828" xlink:href="#DejaVuSans-Bold-52"/>
     <use x="516.503906" xlink:href="#DejaVuSans-Bold-46"/>
     <use x="554.492188" xlink:href="#DejaVuSans-Bold-56"/>
     <use x="624.072266" xlink:href="#DejaVuSans-Bold-54"/>
     <use x="693.652344" xlink:href="#DejaVuSans-Bold-37"/>
    </g>
   </g>
  </g>
 </g>
 <defs>
  <clipPath id="p20f81ea8b9">
   <rect height="372.4" width="534.65" x="30.55" y="31.8"/>
  </clipPath>
 </defs>
</svg>
