<?xml version="1.0" encoding="utf-8" standalone="no"?>
<!DOCTYPE svg PUBLIC "-//W3C//DTD SVG 1.1//EN"
  "http://www.w3.org/Graphics/SVG/1.1/DTD/svg11.dtd">
<!-- Created with matplotlib (https://matplotlib.org/) -->
<svg height="432pt" version="1.1" viewBox="0 0 864 432" width="864pt" xmlns="http://www.w3.org/2000/svg" xmlns:xlink="http://www.w3.org/1999/xlink">
 <defs>
  <style type="text/css">
*{stroke-linecap:butt;stroke-linejoin:round;}
  </style>
 </defs>
 <g id="figure_1">
  <g id="patch_1">
   <path d="M 0 432 
L 864 432 
L 864 0 
L 0 0 
z
" style="fill:none;"/>
  </g>
  <g id="axes_1">
   <g id="patch_2">
    <path d="M 56.05 385.2 
L 840.323864 385.2 
L 840.323864 88.8 
L 56.05 88.8 
z
" style="fill:none;"/>
   </g>
   <g id="PolyCollection_1">
    <path clip-path="url(#pa86d5cdf39)" d="M 91.698812 1021.793139 
L 91.698812 385.2 
L 95.573683 370.409047 
L 99.448554 363.448527 
L 111.073166 347.207442 
L 114.948037 332.70646 
L 118.822908 316.755402 
L 122.697779 333.286513 
L 126.57265 319.075557 
L 142.072133 313.855194 
L 145.947004 327.486098 
L 149.821875 337.056744 
L 153.696746 341.117056 
L 165.321358 322.845788 
L 169.196229 307.474782 
L 173.0711 315.595297 
L 176.945971 327.486098 
L 180.820842 329.516226 
L 192.445455 322.845788 
L 196.320325 318.495504 
L 200.195196 313.565168 
L 204.070067 297.904136 
L 207.944938 286.303306 
L 223.444421 290.653645 
L 227.319292 299.644238 
L 231.194163 263.681809 
L 235.069034 260.781602 
L 246.693647 279.052815 
L 250.568518 256.141292 
L 254.443388 205.677881 
L 258.318259 220.178863 
L 262.19313 228.87943 
L 273.817743 231.779638 
L 281.567485 217.568682 
L 285.442355 232.939687 
L 289.317226 225.689196 
L 300.941839 223.949094 
L 304.81671 191.756896 
L 308.691581 187.406612 
L 312.566451 191.466925 
L 316.441322 189.14677 
L 328.065935 176.38589 
L 331.940806 142.743616 
L 335.815677 156.374519 
L 339.690548 196.397261 
L 343.565418 210.898243 
L 355.190031 215.828524 
L 359.064902 232.939687 
L 362.939773 218.438705 
L 366.814644 242.80036 
L 370.689514 196.687232 
L 382.314127 181.0262 
L 386.188998 181.896279 
L 390.063869 214.088422 
L 393.93874 234.099793 
L 397.813611 248.600775 
L 409.438223 233.809766 
L 413.313094 244.830488 
L 417.187965 262.521704 
L 421.062836 270.062222 
L 424.937707 274.122479 
L 436.562319 263.391783 
L 440.43719 276.442634 
L 444.312061 261.651681 
L 448.186932 247.44067 
L 452.061803 254.691161 
L 463.686415 223.659068 
L 467.561286 239.610181 
L 471.436157 230.329506 
L 475.311028 246.28062 
L 479.185899 241.350284 
L 490.810511 235.549869 
L 494.685382 228.299378 
L 498.560253 230.329506 
L 502.435124 224.529146 
L 506.309995 219.888837 
L 521.809478 187.116586 
L 525.684349 219.888837 
L 529.55922 209.738138 
L 533.434091 222.789044 
L 545.058704 212.348319 
L 548.933574 213.508369 
L 552.808445 259.0415 
L 556.683316 267.162014 
L 560.558187 276.152663 
L 572.1828 285.143256 
L 576.05767 261.651681 
L 579.932541 238.16005 
L 583.807412 254.691161 
L 587.682283 246.860672 
L 599.306896 266.001964 
L 603.181767 270.352248 
L 607.056637 265.711938 
L 610.931508 253.531111 
L 614.806379 237.870024 
L 626.430992 237.579997 
L 630.305863 269.192143 
L 634.180733 256.431318 
L 638.055604 238.450076 
L 641.930475 207.417983 
L 653.555088 202.777673 
L 657.429959 192.336948 
L 661.30483 196.397261 
L 665.1797 216.408577 
L 669.054571 249.760824 
L 680.679184 223.949094 
L 684.554055 209.738138 
L 688.428926 243.670439 
L 692.303796 251.791008 
L 696.178667 268.902172 
L 707.80328 249.180827 
L 711.678151 244.830488 
L 715.553022 280.502946 
L 719.427893 322.845788 
L 723.302763 315.30527 
L 734.927376 293.843823 
L 738.802247 155.21447 
L 742.677118 154.054364 
L 746.551989 130.852815 
L 750.42686 124.472348 
L 762.051472 125.0524 
L 765.926343 124.182321 
L 769.801214 112.001494 
L 773.676085 115.191728 
L 777.550956 120.702116 
L 789.175568 108.521289 
L 793.050439 88.8 
L 796.92531 103.590953 
L 800.800181 114.901701 
L 804.675052 119.513025 
L 804.675052 1021.793139 
L 804.675052 1021.793139 
L 800.800181 1021.793139 
L 796.92531 1021.793139 
L 793.050439 1021.793139 
L 789.175568 1021.793139 
L 777.550956 1021.793139 
L 773.676085 1021.793139 
L 769.801214 1021.793139 
L 765.926343 1021.793139 
L 762.051472 1021.793139 
L 750.42686 1021.793139 
L 746.551989 1021.793139 
L 742.677118 1021.793139 
L 738.802247 1021.793139 
L 734.927376 1021.793139 
L 723.302763 1021.793139 
L 719.427893 1021.793139 
L 715.553022 1021.793139 
L 711.678151 1021.793139 
L 707.80328 1021.793139 
L 696.178667 1021.793139 
L 692.303796 1021.793139 
L 688.428926 1021.793139 
L 684.554055 1021.793139 
L 680.679184 1021.793139 
L 669.054571 1021.793139 
L 665.1797 1021.793139 
L 661.30483 1021.793139 
L 657.429959 1021.793139 
L 653.555088 1021.793139 
L 641.930475 1021.793139 
L 638.055604 1021.793139 
L 634.180733 1021.793139 
L 630.305863 1021.793139 
L 626.430992 1021.793139 
L 614.806379 1021.793139 
L 610.931508 1021.793139 
L 607.056637 1021.793139 
L 603.181767 1021.793139 
L 599.306896 1021.793139 
L 587.682283 1021.793139 
L 583.807412 1021.793139 
L 579.932541 1021.793139 
L 576.05767 1021.793139 
L 572.1828 1021.793139 
L 560.558187 1021.793139 
L 556.683316 1021.793139 
L 552.808445 1021.793139 
L 548.933574 1021.793139 
L 545.058704 1021.793139 
L 533.434091 1021.793139 
L 529.55922 1021.793139 
L 525.684349 1021.793139 
L 521.809478 1021.793139 
L 506.309995 1021.793139 
L 502.435124 1021.793139 
L 498.560253 1021.793139 
L 494.685382 1021.793139 
L 490.810511 1021.793139 
L 479.185899 1021.793139 
L 475.311028 1021.793139 
L 471.436157 1021.793139 
L 467.561286 1021.793139 
L 463.686415 1021.793139 
L 452.061803 1021.793139 
L 448.186932 1021.793139 
L 444.312061 1021.793139 
L 440.43719 1021.793139 
L 436.562319 1021.793139 
L 424.937707 1021.793139 
L 421.062836 1021.793139 
L 417.187965 1021.793139 
L 413.313094 1021.793139 
L 409.438223 1021.793139 
L 397.813611 1021.793139 
L 393.93874 1021.793139 
L 390.063869 1021.793139 
L 386.188998 1021.793139 
L 382.314127 1021.793139 
L 370.689514 1021.793139 
L 366.814644 1021.793139 
L 362.939773 1021.793139 
L 359.064902 1021.793139 
L 355.190031 1021.793139 
L 343.565418 1021.793139 
L 339.690548 1021.793139 
L 335.815677 1021.793139 
L 331.940806 1021.793139 
L 328.065935 1021.793139 
L 316.441322 1021.793139 
L 312.566451 1021.793139 
L 308.691581 1021.793139 
L 304.81671 1021.793139 
L 300.941839 1021.793139 
L 289.317226 1021.793139 
L 285.442355 1021.793139 
L 281.567485 1021.793139 
L 273.817743 1021.793139 
L 262.19313 1021.793139 
L 258.318259 1021.793139 
L 254.443388 1021.793139 
L 250.568518 1021.793139 
L 246.693647 1021.793139 
L 235.069034 1021.793139 
L 231.194163 1021.793139 
L 227.319292 1021.793139 
L 223.444421 1021.793139 
L 207.944938 1021.793139 
L 204.070067 1021.793139 
L 200.195196 1021.793139 
L 196.320325 1021.793139 
L 192.445455 1021.793139 
L 180.820842 1021.793139 
L 176.945971 1021.793139 
L 173.0711 1021.793139 
L 169.196229 1021.793139 
L 165.321358 1021.793139 
L 153.696746 1021.793139 
L 149.821875 1021.793139 
L 145.947004 1021.793139 
L 142.072133 1021.793139 
L 126.57265 1021.793139 
L 122.697779 1021.793139 
L 118.822908 1021.793139 
L 114.948037 1021.793139 
L 111.073166 1021.793139 
L 99.448554 1021.793139 
L 95.573683 1021.793139 
L 91.698812 1021.793139 
z
" style="fill:#0000ff;fill-opacity:0.1;stroke:#0000ff;stroke-opacity:0.1;"/>
   </g>
   <g id="matplotlib.axis_1">
    <g id="xtick_1">
     <g id="line2d_1">
      <defs>
       <path d="M 0 0 
L 0 3.5 
" id="m831f0be5b1" style="stroke:#000000;stroke-width:0.8;"/>
      </defs>
      <g>
       <use style="stroke:#000000;stroke-width:0.8;" x="91.698812" xlink:href="#m831f0be5b1" y="385.2"/>
      </g>
     </g>
     <g id="text_1">
      <!-- 05/23 -->
      <defs>
       <path d="M 31.78125 66.40625 
Q 24.171875 66.40625 20.328125 58.90625 
Q 16.5 51.421875 16.5 36.375 
Q 16.5 21.390625 20.328125 13.890625 
Q 24.171875 6.390625 31.78125 6.390625 
Q 39.453125 6.390625 43.28125 13.890625 
Q 47.125 21.390625 47.125 36.375 
Q 47.125 51.421875 43.28125 58.90625 
Q 39.453125 66.40625 31.78125 66.40625 
z
M 31.78125 74.21875 
Q 44.046875 74.21875 50.515625 64.515625 
Q 56.984375 54.828125 56.984375 36.375 
Q 56.984375 17.96875 50.515625 8.265625 
Q 44.046875 -1.421875 31.78125 -1.421875 
Q 19.53125 -1.421875 13.0625 8.265625 
Q 6.59375 17.96875 6.59375 36.375 
Q 6.59375 54.828125 13.0625 64.515625 
Q 19.53125 74.21875 31.78125 74.21875 
z
" id="DejaVuSans-48"/>
       <path d="M 10.796875 72.90625 
L 49.515625 72.90625 
L 49.515625 64.59375 
L 19.828125 64.59375 
L 19.828125 46.734375 
Q 21.96875 47.46875 24.109375 47.828125 
Q 26.265625 48.1875 28.421875 48.1875 
Q 40.625 48.1875 47.75 41.5 
Q 54.890625 34.8125 54.890625 23.390625 
Q 54.890625 11.625 47.5625 5.09375 
Q 40.234375 -1.421875 26.90625 -1.421875 
Q 22.3125 -1.421875 17.546875 -0.640625 
Q 12.796875 0.140625 7.71875 1.703125 
L 7.71875 11.625 
Q 12.109375 9.234375 16.796875 8.0625 
Q 21.484375 6.890625 26.703125 6.890625 
Q 35.15625 6.890625 40.078125 11.328125 
Q 45.015625 15.765625 45.015625 23.390625 
Q 45.015625 31 40.078125 35.4375 
Q 35.15625 39.890625 26.703125 39.890625 
Q 22.75 39.890625 18.8125 39.015625 
Q 14.890625 38.140625 10.796875 36.28125 
z
" id="DejaVuSans-53"/>
       <path d="M 25.390625 72.90625 
L 33.6875 72.90625 
L 8.296875 -9.28125 
L 0 -9.28125 
z
" id="DejaVuSans-47"/>
       <path d="M 19.1875 8.296875 
L 53.609375 8.296875 
L 53.609375 0 
L 7.328125 0 
L 7.328125 8.296875 
Q 12.9375 14.109375 22.625 23.890625 
Q 32.328125 33.6875 34.8125 36.53125 
Q 39.546875 41.84375 41.421875 45.53125 
Q 43.3125 49.21875 43.3125 52.78125 
Q 43.3125 58.59375 39.234375 62.25 
Q 35.15625 65.921875 28.609375 65.921875 
Q 23.96875 65.921875 18.8125 64.3125 
Q 13.671875 62.703125 7.8125 59.421875 
L 7.8125 69.390625 
Q 13.765625 71.78125 18.9375 73 
Q 24.125 74.21875 28.421875 74.21875 
Q 39.75 74.21875 46.484375 68.546875 
Q 53.21875 62.890625 53.21875 53.421875 
Q 53.21875 48.921875 51.53125 44.890625 
Q 49.859375 40.875 45.40625 35.40625 
Q 44.1875 33.984375 37.640625 27.21875 
Q 31.109375 20.453125 19.1875 8.296875 
z
" id="DejaVuSans-50"/>
       <path d="M 40.578125 39.3125 
Q 47.65625 37.796875 51.625 33 
Q 55.609375 28.21875 55.609375 21.1875 
Q 55.609375 10.40625 48.1875 4.484375 
Q 40.765625 -1.421875 27.09375 -1.421875 
Q 22.515625 -1.421875 17.65625 -0.515625 
Q 12.796875 0.390625 7.625 2.203125 
L 7.625 11.71875 
Q 11.71875 9.328125 16.59375 8.109375 
Q 21.484375 6.890625 26.8125 6.890625 
Q 36.078125 6.890625 40.9375 10.546875 
Q 45.796875 14.203125 45.796875 21.1875 
Q 45.796875 27.640625 41.28125 31.265625 
Q 36.765625 34.90625 28.71875 34.90625 
L 20.21875 34.90625 
L 20.21875 43.015625 
L 29.109375 43.015625 
Q 36.375 43.015625 40.234375 45.921875 
Q 44.09375 48.828125 44.09375 54.296875 
Q 44.09375 59.90625 40.109375 62.90625 
Q 36.140625 65.921875 28.71875 65.921875 
Q 24.65625 65.921875 20.015625 65.03125 
Q 15.375 64.15625 9.8125 62.3125 
L 9.8125 71.09375 
Q 15.4375 72.65625 20.34375 73.4375 
Q 25.25 74.21875 29.59375 74.21875 
Q 40.828125 74.21875 47.359375 69.109375 
Q 53.90625 64.015625 53.90625 55.328125 
Q 53.90625 49.265625 50.4375 45.09375 
Q 46.96875 40.921875 40.578125 39.3125 
z
" id="DejaVuSans-51"/>
      </defs>
      <g transform="translate(48.470687 414.995312)scale(0.3 -0.3)">
       <use xlink:href="#DejaVuSans-48"/>
       <use x="63.623047" xlink:href="#DejaVuSans-53"/>
       <use x="127.246094" xlink:href="#DejaVuSans-47"/>
       <use x="160.9375" xlink:href="#DejaVuSans-50"/>
       <use x="224.560547" xlink:href="#DejaVuSans-51"/>
      </g>
     </g>
    </g>
    <g id="xtick_2">
     <g id="line2d_2">
      <g>
       <use style="stroke:#000000;stroke-width:0.8;" x="452.061803" xlink:href="#m831f0be5b1" y="385.2"/>
      </g>
     </g>
     <g id="text_2">
      <!-- 08/23 -->
      <defs>
       <path d="M 31.78125 34.625 
Q 24.75 34.625 20.71875 30.859375 
Q 16.703125 27.09375 16.703125 20.515625 
Q 16.703125 13.921875 20.71875 10.15625 
Q 24.75 6.390625 31.78125 6.390625 
Q 38.8125 6.390625 42.859375 10.171875 
Q 46.921875 13.96875 46.921875 20.515625 
Q 46.921875 27.09375 42.890625 30.859375 
Q 38.875 34.625 31.78125 34.625 
z
M 21.921875 38.8125 
Q 15.578125 40.375 12.03125 44.71875 
Q 8.5 49.078125 8.5 55.328125 
Q 8.5 64.0625 14.71875 69.140625 
Q 20.953125 74.21875 31.78125 74.21875 
Q 42.671875 74.21875 48.875 69.140625 
Q 55.078125 64.0625 55.078125 55.328125 
Q 55.078125 49.078125 51.53125 44.71875 
Q 48 40.375 41.703125 38.8125 
Q 48.828125 37.15625 52.796875 32.3125 
Q 56.78125 27.484375 56.78125 20.515625 
Q 56.78125 9.90625 50.3125 4.234375 
Q 43.84375 -1.421875 31.78125 -1.421875 
Q 19.734375 -1.421875 13.25 4.234375 
Q 6.78125 9.90625 6.78125 20.515625 
Q 6.78125 27.484375 10.78125 32.3125 
Q 14.796875 37.15625 21.921875 38.8125 
z
M 18.3125 54.390625 
Q 18.3125 48.734375 21.84375 45.5625 
Q 25.390625 42.390625 31.78125 42.390625 
Q 38.140625 42.390625 41.71875 45.5625 
Q 45.3125 48.734375 45.3125 54.390625 
Q 45.3125 60.0625 41.71875 63.234375 
Q 38.140625 66.40625 31.78125 66.40625 
Q 25.390625 66.40625 21.84375 63.234375 
Q 18.3125 60.0625 18.3125 54.390625 
z
" id="DejaVuSans-56"/>
      </defs>
      <g transform="translate(408.833678 414.995312)scale(0.3 -0.3)">
       <use xlink:href="#DejaVuSans-48"/>
       <use x="63.623047" xlink:href="#DejaVuSans-56"/>
       <use x="127.246094" xlink:href="#DejaVuSans-47"/>
       <use x="160.9375" xlink:href="#DejaVuSans-50"/>
       <use x="224.560547" xlink:href="#DejaVuSans-51"/>
      </g>
     </g>
    </g>
    <g id="xtick_3">
     <g id="line2d_3">
      <g>
       <use style="stroke:#000000;stroke-width:0.8;" x="804.675052" xlink:href="#m831f0be5b1" y="385.2"/>
      </g>
     </g>
     <g id="text_3">
      <!-- 11/23 -->
      <defs>
       <path d="M 12.40625 8.296875 
L 28.515625 8.296875 
L 28.515625 63.921875 
L 10.984375 60.40625 
L 10.984375 69.390625 
L 28.421875 72.90625 
L 38.28125 72.90625 
L 38.28125 8.296875 
L 54.390625 8.296875 
L 54.390625 0 
L 12.40625 0 
z
" id="DejaVuSans-49"/>
      </defs>
      <g transform="translate(761.446927 414.995312)scale(0.3 -0.3)">
       <use xlink:href="#DejaVuSans-49"/>
       <use x="63.623047" xlink:href="#DejaVuSans-49"/>
       <use x="127.246094" xlink:href="#DejaVuSans-47"/>
       <use x="160.9375" xlink:href="#DejaVuSans-50"/>
       <use x="224.560547" xlink:href="#DejaVuSans-51"/>
      </g>
     </g>
    </g>
   </g>
   <g id="matplotlib.axis_2">
    <g id="ytick_1">
     <g id="line2d_4">
      <defs>
       <path d="M 0 0 
L -3.5 0 
" id="m786f06cf5d" style="stroke:#000000;stroke-width:0.8;"/>
      </defs>
      <g>
       <use style="stroke:#000000;stroke-width:0.8;" x="56.05" xlink:href="#m786f06cf5d" y="325.745995"/>
      </g>
     </g>
     <g id="text_4">
      <!-- 24 -->
      <defs>
       <path d="M 37.796875 64.3125 
L 12.890625 25.390625 
L 37.796875 25.390625 
z
M 35.203125 72.90625 
L 47.609375 72.90625 
L 47.609375 25.390625 
L 58.015625 25.390625 
L 58.015625 17.1875 
L 47.609375 17.1875 
L 47.609375 0 
L 37.796875 0 
L 37.796875 17.1875 
L 4.890625 17.1875 
L 4.890625 26.703125 
z
" id="DejaVuSans-52"/>
      </defs>
      <g transform="translate(10.875 337.143652)scale(0.3 -0.3)">
       <use xlink:href="#DejaVuSans-50"/>
       <use x="63.623047" xlink:href="#DejaVuSans-52"/>
      </g>
     </g>
    </g>
    <g id="ytick_2">
     <g id="line2d_5">
      <g>
       <use style="stroke:#000000;stroke-width:0.8;" x="56.05" xlink:href="#m786f06cf5d" y="209.738138"/>
      </g>
     </g>
     <g id="text_5">
      <!-- 28 -->
      <g transform="translate(10.875 221.135794)scale(0.3 -0.3)">
       <use xlink:href="#DejaVuSans-50"/>
       <use x="63.623047" xlink:href="#DejaVuSans-56"/>
      </g>
     </g>
    </g>
    <g id="ytick_3">
     <g id="line2d_6">
      <g>
       <use style="stroke:#000000;stroke-width:0.8;" x="56.05" xlink:href="#m786f06cf5d" y="93.730281"/>
      </g>
     </g>
     <g id="text_6">
      <!-- 32 -->
      <g transform="translate(10.875 105.127937)scale(0.3 -0.3)">
       <use xlink:href="#DejaVuSans-51"/>
       <use x="63.623047" xlink:href="#DejaVuSans-50"/>
      </g>
     </g>
    </g>
   </g>
   <g id="line2d_7">
    <path clip-path="url(#pa86d5cdf39)" d="M 91.698812 385.2 
L 95.573683 370.409047 
L 99.448554 363.448527 
L 111.073166 347.207442 
L 114.948037 332.70646 
L 118.822908 316.755402 
L 122.697779 333.286513 
L 126.57265 319.075557 
L 142.072133 313.855194 
L 145.947004 327.486098 
L 149.821875 337.056744 
L 153.696746 341.117056 
L 165.321358 322.845788 
L 169.196229 307.474782 
L 173.0711 315.595297 
L 176.945971 327.486098 
L 180.820842 329.516226 
L 192.445455 322.845788 
L 196.320325 318.495504 
L 200.195196 313.565168 
L 204.070067 297.904136 
L 207.944938 286.303306 
L 223.444421 290.653645 
L 227.319292 299.644238 
L 231.194163 263.681809 
L 235.069034 260.781602 
L 246.693647 279.052815 
L 250.568518 256.141292 
L 254.443388 205.677881 
L 258.318259 220.178863 
L 262.19313 228.87943 
L 273.817743 231.779638 
L 281.567485 217.568682 
L 285.442355 232.939687 
L 289.317226 225.689196 
L 300.941839 223.949094 
L 304.81671 191.756896 
L 308.691581 187.406612 
L 312.566451 191.466925 
L 316.441322 189.14677 
L 328.065935 176.38589 
L 331.940806 142.743616 
L 335.815677 156.374519 
L 339.690548 196.397261 
L 343.565418 210.898243 
L 355.190031 215.828524 
L 359.064902 232.939687 
L 362.939773 218.438705 
L 366.814644 242.80036 
L 370.689514 196.687232 
L 382.314127 181.0262 
L 386.188998 181.896279 
L 390.063869 214.088422 
L 393.93874 234.099793 
L 397.813611 248.600775 
L 409.438223 233.809766 
L 413.313094 244.830488 
L 417.187965 262.521704 
L 421.062836 270.062222 
L 424.937707 274.122479 
L 436.562319 263.391783 
L 440.43719 276.442634 
L 444.312061 261.651681 
L 448.186932 247.44067 
L 452.061803 254.691161 
L 463.686415 223.659068 
L 467.561286 239.610181 
L 471.436157 230.329506 
L 475.311028 246.28062 
L 479.185899 241.350284 
L 490.810511 235.549869 
L 494.685382 228.299378 
L 498.560253 230.329506 
L 502.435124 224.529146 
L 506.309995 219.888837 
L 521.809478 187.116586 
L 525.684349 219.888837 
L 529.55922 209.738138 
L 533.434091 222.789044 
L 545.058704 212.348319 
L 548.933574 213.508369 
L 552.808445 259.0415 
L 556.683316 267.162014 
L 560.558187 276.152663 
L 572.1828 285.143256 
L 579.932541 238.16005 
L 583.807412 254.691161 
L 587.682283 246.860672 
L 599.306896 266.001964 
L 603.181767 270.352248 
L 607.056637 265.711938 
L 610.931508 253.531111 
L 614.806379 237.870024 
L 626.430992 237.579997 
L 630.305863 269.192143 
L 634.180733 256.431318 
L 638.055604 238.450076 
L 641.930475 207.417983 
L 653.555088 202.777673 
L 657.429959 192.336948 
L 661.30483 196.397261 
L 665.1797 216.408577 
L 669.054571 249.760824 
L 680.679184 223.949094 
L 684.554055 209.738138 
L 688.428926 243.670439 
L 692.303796 251.791008 
L 696.178667 268.902172 
L 707.80328 249.180827 
L 711.678151 244.830488 
L 715.553022 280.502946 
L 719.427893 322.845788 
L 723.302763 315.30527 
L 734.927376 293.843823 
L 738.802247 155.21447 
L 742.677118 154.054364 
L 746.551989 130.852815 
L 750.42686 124.472348 
L 762.051472 125.0524 
L 765.926343 124.182321 
L 769.801214 112.001494 
L 773.676085 115.191728 
L 777.550956 120.702116 
L 789.175568 108.521289 
L 793.050439 88.8 
L 796.92531 103.590953 
L 800.800181 114.901701 
L 804.675052 119.513025 
L 804.675052 119.513025 
" style="fill:none;stroke:#000000;stroke-linecap:square;stroke-width:4;"/>
   </g>
   <g id="patch_3">
    <path d="M 56.05 385.2 
L 56.05 88.8 
" style="fill:none;stroke:#000000;stroke-linecap:square;stroke-linejoin:miter;stroke-width:0.8;"/>
   </g>
   <g id="patch_4">
    <path d="M 56.05 385.2 
L 840.323864 385.2 
" style="fill:none;stroke:#000000;stroke-linecap:square;stroke-linejoin:miter;stroke-width:0.8;"/>
   </g>
   <g id="text_7">
    <!-- PINS   41% -->
    <defs>
     <path d="M 9.1875 72.90625 
L 40.375 72.90625 
Q 54.296875 72.90625 61.734375 66.71875 
Q 69.1875 60.546875 69.1875 49.125 
Q 69.1875 37.640625 61.734375 31.46875 
Q 54.296875 25.296875 40.375 25.296875 
L 27.984375 25.296875 
L 27.984375 0 
L 9.1875 0 
z
M 27.984375 59.28125 
L 27.984375 38.921875 
L 38.375 38.921875 
Q 43.84375 38.921875 46.828125 41.578125 
Q 49.8125 44.234375 49.8125 49.125 
Q 49.8125 54 46.828125 56.640625 
Q 43.84375 59.28125 38.375 59.28125 
z
" id="DejaVuSans-Bold-80"/>
     <path d="M 9.1875 72.90625 
L 27.984375 72.90625 
L 27.984375 0 
L 9.1875 0 
z
" id="DejaVuSans-Bold-73"/>
     <path d="M 9.1875 72.90625 
L 30.171875 72.90625 
L 56.6875 22.90625 
L 56.6875 72.90625 
L 74.515625 72.90625 
L 74.515625 0 
L 53.515625 0 
L 27 50 
L 27 0 
L 9.1875 0 
z
" id="DejaVuSans-Bold-78"/>
     <path d="M 59.90625 70.609375 
L 59.90625 55.171875 
Q 53.90625 57.859375 48.1875 59.21875 
Q 42.484375 60.59375 37.40625 60.59375 
Q 30.671875 60.59375 27.4375 58.734375 
Q 24.21875 56.890625 24.21875 52.984375 
Q 24.21875 50.046875 26.390625 48.40625 
Q 28.5625 46.78125 34.28125 45.609375 
L 42.28125 44 
Q 54.4375 41.546875 59.5625 36.5625 
Q 64.703125 31.59375 64.703125 22.40625 
Q 64.703125 10.359375 57.546875 4.46875 
Q 50.390625 -1.421875 35.6875 -1.421875 
Q 28.765625 -1.421875 21.78125 -0.09375 
Q 14.796875 1.21875 7.8125 3.8125 
L 7.8125 19.671875 
Q 14.796875 15.96875 21.3125 14.078125 
Q 27.828125 12.203125 33.890625 12.203125 
Q 40.046875 12.203125 43.3125 14.25 
Q 46.578125 16.3125 46.578125 20.125 
Q 46.578125 23.53125 44.359375 25.390625 
Q 42.140625 27.25 35.5 28.71875 
L 28.21875 30.328125 
Q 17.28125 32.671875 12.21875 37.796875 
Q 7.171875 42.921875 7.171875 51.609375 
Q 7.171875 62.5 14.203125 68.359375 
Q 21.234375 74.21875 34.421875 74.21875 
Q 40.4375 74.21875 46.78125 73.3125 
Q 53.125 72.40625 59.90625 70.609375 
z
" id="DejaVuSans-Bold-83"/>
     <path id="DejaVuSans-Bold-32"/>
     <path d="M 36.8125 57.421875 
L 16.21875 26.90625 
L 36.8125 26.90625 
z
M 33.6875 72.90625 
L 54.59375 72.90625 
L 54.59375 26.90625 
L 64.984375 26.90625 
L 64.984375 13.28125 
L 54.59375 13.28125 
L 54.59375 0 
L 36.8125 0 
L 36.8125 13.28125 
L 4.5 13.28125 
L 4.5 29.390625 
z
" id="DejaVuSans-Bold-52"/>
     <path d="M 11.71875 12.984375 
L 28.328125 12.984375 
L 28.328125 60.109375 
L 11.28125 56.59375 
L 11.28125 69.390625 
L 28.21875 72.90625 
L 46.09375 72.90625 
L 46.09375 12.984375 
L 62.703125 12.984375 
L 62.703125 0 
L 11.71875 0 
z
" id="DejaVuSans-Bold-49"/>
     <path d="M 77.484375 30.078125 
Q 74.03125 30.078125 72.125 27.078125 
Q 70.21875 24.078125 70.21875 18.5 
Q 70.21875 12.890625 72.09375 9.890625 
Q 73.96875 6.890625 77.484375 6.890625 
Q 81 6.890625 82.859375 9.890625 
Q 84.71875 12.890625 84.71875 18.5 
Q 84.71875 24.078125 82.828125 27.078125 
Q 80.953125 30.078125 77.484375 30.078125 
z
M 77.484375 38.28125 
Q 86.578125 38.28125 91.796875 33 
Q 97.015625 27.734375 97.015625 18.5 
Q 97.015625 9.28125 91.796875 3.921875 
Q 86.578125 -1.421875 77.484375 -1.421875 
Q 68.40625 -1.421875 63.15625 3.921875 
Q 57.90625 9.28125 57.90625 18.5 
Q 57.90625 27.6875 63.15625 32.984375 
Q 68.40625 38.28125 77.484375 38.28125 
z
M 32.71875 -1.421875 
L 21.921875 -1.421875 
L 67.484375 74.21875 
L 78.328125 74.21875 
z
M 22.703125 74.21875 
Q 31.78125 74.21875 36.984375 68.921875 
Q 42.1875 63.625 42.1875 54.390625 
Q 42.1875 45.171875 36.984375 39.84375 
Q 31.78125 34.515625 22.703125 34.515625 
Q 13.625 34.515625 8.421875 39.84375 
Q 3.21875 45.171875 3.21875 54.390625 
Q 3.21875 63.625 8.421875 68.921875 
Q 13.625 74.21875 22.703125 74.21875 
z
M 22.703125 66.015625 
Q 19.1875 66.015625 17.28125 62.984375 
Q 15.375 59.96875 15.375 54.390625 
Q 15.375 48.78125 17.28125 45.71875 
Q 19.1875 42.671875 22.703125 42.671875 
Q 26.21875 42.671875 28.09375 45.71875 
Q 29.984375 48.78125 29.984375 54.390625 
Q 29.984375 59.96875 28.078125 62.984375 
Q 26.171875 66.015625 22.703125 66.015625 
z
" id="DejaVuSans-Bold-37"/>
    </defs>
    <g transform="translate(56.05 72.1625)scale(0.8 -0.8)">
     <use xlink:href="#DejaVuSans-Bold-80"/>
     <use x="73.291016" xlink:href="#DejaVuSans-Bold-73"/>
     <use x="110.498047" xlink:href="#DejaVuSans-Bold-78"/>
     <use x="194.189453" xlink:href="#DejaVuSans-Bold-83"/>
     <use x="266.210938" xlink:href="#DejaVuSans-Bold-32"/>
     <use x="301.025391" xlink:href="#DejaVuSans-Bold-32"/>
     <use x="335.839844" xlink:href="#DejaVuSans-Bold-32"/>
     <use x="370.654297" xlink:href="#DejaVuSans-Bold-52"/>
     <use x="440.234375" xlink:href="#DejaVuSans-Bold-49"/>
     <use x="509.814453" xlink:href="#DejaVuSans-Bold-37"/>
    </g>
   </g>
  </g>
 </g>
 <defs>
  <clipPath id="pa86d5cdf39">
   <rect height="296.4" width="784.273864" x="56.05" y="88.8"/>
  </clipPath>
 </defs>
</svg>
