<?xml version="1.0" encoding="utf-8" standalone="no"?>
<!DOCTYPE svg PUBLIC "-//W3C//DTD SVG 1.1//EN"
  "http://www.w3.org/Graphics/SVG/1.1/DTD/svg11.dtd">
<!-- Created with matplotlib (https://matplotlib.org/) -->
<svg height="432pt" version="1.1" viewBox="0 0 576 432" width="576pt" xmlns="http://www.w3.org/2000/svg" xmlns:xlink="http://www.w3.org/1999/xlink">
 <defs>
  <style type="text/css">
*{stroke-linecap:butt;stroke-linejoin:round;}
  </style>
 </defs>
 <g id="figure_1">
  <g id="patch_1">
   <path d="M 0 432 
L 576 432 
L 576 0 
L 0 0 
z
" style="fill:#ffffff;"/>
  </g>
  <g id="axes_1">
   <g id="patch_2">
    <path d="M 30.55 404.2 
L 565.2 404.2 
L 565.2 31.8 
L 30.55 31.8 
z
" style="fill:#ffffff;"/>
   </g>
   <g id="PolyCollection_1">
    <defs>
     <path d="M 54.852273 -44.727273 
L 54.852273 -293.18299 
L 56.183904 -288.929344 
L 60.178798 -291.001632 
L 61.51043 -291.437912 
L 62.842061 -276.822868 
L 64.173692 -297.436615 
L 65.505324 -308.670572 
L 69.500218 -311.070049 
L 70.831849 -331.465676 
L 72.163481 -321.322398 
L 73.495112 -312.160728 
L 74.826743 -310.633769 
L 78.821638 -304.307857 
L 80.153269 -311.942588 
L 81.4849 -317.723172 
L 84.148163 -317.286892 
L 88.143057 -310.41565 
L 89.474689 -306.489214 
L 90.80632 -321.976797 
L 92.137951 -323.721875 
L 93.469583 -315.869024 
L 97.464477 -305.725745 
L 98.796108 -292.52857 
L 100.12774 -292.092311 
L 101.459371 -291.437912 
L 102.791002 -297.327545 
L 106.785897 -302.23559 
L 108.117528 -332.883544 
L 109.449159 -330.702187 
L 110.780791 -319.14104 
L 112.112422 -315.214604 
L 116.107316 -308.343362 
L 117.438948 -311.288189 
L 118.770579 -318.9229 
L 120.10221 -314.342065 
L 121.433842 -312.269798 
L 126.760367 -300.272372 
L 128.091999 -294.055529 
L 129.42363 -304.525997 
L 130.755262 -309.543111 
L 136.081787 -294.382718 
L 137.413418 -304.089737 
L 138.74505 -302.01745 
L 140.076681 -311.506308 
L 144.071575 -316.087143 
L 145.403207 -327.648311 
L 146.734838 -339.318527 
L 148.066469 -333.101684 
L 149.398101 -335.828371 
L 154.724626 -335.064902 
L 156.056258 -329.175249 
L 157.387889 -336.70091 
L 158.719521 -334.846762 
L 162.714415 -335.828371 
L 164.046046 -326.448562 
L 165.377677 -329.611528 
L 166.709309 -332.338215 
L 168.04094 -336.3737 
L 172.035834 -327.430171 
L 173.367466 -331.465676 
L 174.699097 -335.937441 
L 176.030729 -362.113631 
L 177.36236 -344.444691 
L 181.357254 -348.916456 
L 182.688885 -333.210754 
L 184.020517 -326.993891 
L 185.352148 -314.451135 
L 186.68378 -315.650884 
L 190.678674 -314.123946 
L 192.010305 -313.905806 
L 193.341936 -321.540517 
L 194.673568 -315.650884 
L 196.005199 -311.179119 
L 201.331725 -311.397259 
L 202.663356 -318.9229 
L 203.994988 -322.849336 
L 205.326619 -317.723172 
L 209.321513 -317.286892 
L 210.653144 -318.595711 
L 211.984776 -317.068752 
L 213.316407 -321.104258 
L 214.648039 -332.665404 
L 218.642933 -335.719301 
L 219.974564 -335.283021 
L 221.306196 -325.466953 
L 222.637827 -315.650884 
L 223.969458 -308.343362 
L 227.964352 -303.108128 
L 229.295984 -317.286892 
L 230.627615 -317.723172 
L 231.959247 -334.083293 
L 233.290878 -332.338215 
L 237.285772 -336.48277 
L 238.617403 -344.880971 
L 239.949035 -344.335621 
L 241.280666 -345.86258 
L 242.612298 -344.335621 
L 246.607192 -350.879674 
L 247.938823 -337.464379 
L 249.270455 -333.756083 
L 250.602086 -332.011005 
L 251.933717 -342.154284 
L 255.928611 -347.389518 
L 257.260243 -349.898065 
L 258.591874 -342.808683 
L 259.923506 -352.842892 
L 265.250031 -349.461806 
L 266.581663 -352.188493 
L 267.913294 -347.280448 
L 269.244925 -355.133299 
L 270.576557 -356.442117 
L 274.571451 -356.878397 
L 275.903082 -352.079423 
L 277.234714 -352.515682 
L 278.566345 -344.990041 
L 279.897976 -343.463082 
L 283.89287 -346.080699 
L 285.224502 -347.280448 
L 286.556133 -334.955832 
L 287.887765 -342.154284 
L 289.219396 -295.582467 
L 293.21429 -285.330118 
L 294.545922 -277.804477 
L 295.877553 -272.787363 
L 297.209184 -271.369495 
L 298.540816 -273.878042 
L 302.53571 -280.203954 
L 303.867341 -278.895136 
L 305.198973 -279.549555 
L 306.530604 -279.004206 
L 307.862235 -278.131667 
L 311.85713 -285.221048 
L 313.188761 -280.203954 
L 314.520392 -284.13039 
L 315.852024 -289.692813 
L 317.183655 -292.310451 
L 321.178549 -298.418224 
L 322.510181 -303.871597 
L 323.841812 -309.8703 
L 325.173443 -303.653458 
L 326.505075 -308.997761 
L 331.8316 -310.960979 
L 333.163232 -305.834815 
L 334.494863 -302.23559 
L 335.826494 -300.708631 
L 339.821389 -307.579893 
L 341.15302 -313.360456 
L 342.484651 -310.30658 
L 343.816283 -305.834815 
L 345.147914 -305.071346 
L 349.142808 -307.579893 
L 350.47444 -309.215901 
L 351.806071 -311.070049 
L 353.137702 -316.959682 
L 354.469334 -321.322398 
L 359.795859 -319.686369 
L 361.127491 -316.305283 
L 362.459122 -329.829648 
L 363.790753 -330.920326 
L 367.785648 -324.049085 
L 369.117279 -332.665404 
L 370.44891 -351.643143 
L 371.780542 -346.189769 
L 373.112173 -342.917753 
L 377.107067 -341.827074 
L 379.77033 -347.171378 
L 381.101961 -341.390815 
L 382.433593 -344.117502 
L 386.428487 -344.771901 
L 387.760118 -356.878397 
L 389.09175 -358.514405 
L 390.423381 -356.987446 
L 391.755012 -357.859985 
L 395.749907 -362.65896 
L 397.081538 -375.310786 
L 398.413169 -370.184622 
L 399.744801 -355.133299 
L 401.076432 -349.679925 
L 405.071326 -347.825798 
L 406.402958 -341.390815 
L 407.734589 -346.844189 
L 409.06622 -337.682519 
L 410.397852 -355.024249 
L 414.392746 -360.913882 
L 415.724377 -360.586672 
L 417.056009 -348.480197 
L 418.38764 -340.954535 
L 419.719271 -335.501161 
L 423.714166 -341.063605 
L 425.045797 -336.91905 
L 426.377428 -330.265927 
L 427.70906 -327.430171 
L 429.040691 -325.903233 
L 433.035585 -329.938718 
L 434.367217 -325.030694 
L 435.698848 -330.593117 
L 437.030479 -335.937441 
L 438.362111 -333.210754 
L 442.357005 -344.880971 
L 443.688636 -338.882247 
L 445.020268 -342.372424 
L 446.351899 -336.3737 
L 447.683531 -338.227848 
L 451.678425 -340.409206 
L 453.010056 -343.135893 
L 454.341687 -342.372424 
L 455.673319 -344.553761 
L 457.00495 -346.298839 
L 462.331476 -358.623475 
L 463.663107 -346.298839 
L 464.994738 -350.116205 
L 466.32637 -345.20816 
L 470.321264 -349.134596 
L 471.652895 -348.698337 
L 472.984527 -331.574725 
L 474.316158 -328.520849 
L 475.64779 -325.139743 
L 479.642684 -321.758657 
L 480.974315 -330.593117 
L 482.305946 -339.427597 
L 483.637578 -333.210754 
L 484.969209 -336.15556 
L 488.964103 -328.957109 
L 490.295735 -327.321101 
L 491.627366 -329.066179 
L 492.958998 -333.647013 
L 494.290629 -339.536667 
L 498.285523 -339.645737 
L 499.617154 -327.75738 
L 500.948786 -332.556334 
L 502.280417 -339.318527 
L 503.612049 -350.988744 
L 507.606943 -352.733822 
L 508.938574 -356.660257 
L 510.270205 -355.133299 
L 511.601837 -347.607658 
L 512.933468 -335.064902 
L 516.928362 -344.771901 
L 518.259994 -350.116205 
L 519.591625 -337.355309 
L 520.923257 -334.301412 
L 522.254888 -327.86643 
L 526.249782 -335.283021 
L 527.581413 -336.91905 
L 528.913045 -323.503735 
L 530.244676 -307.579893 
L 531.576308 -310.41565 
L 535.571202 -318.486641 
L 536.902833 -370.620881 
L 538.234465 -371.057161 
L 539.566096 -379.782551 
L 540.897727 -383.272727 
L 540.897727 -44.727273 
L 540.897727 -44.727273 
L 539.566096 -44.727273 
L 538.234465 -44.727273 
L 536.902833 -44.727273 
L 535.571202 -44.727273 
L 531.576308 -44.727273 
L 530.244676 -44.727273 
L 528.913045 -44.727273 
L 527.581413 -44.727273 
L 526.249782 -44.727273 
L 522.254888 -44.727273 
L 520.923257 -44.727273 
L 519.591625 -44.727273 
L 518.259994 -44.727273 
L 516.928362 -44.727273 
L 512.933468 -44.727273 
L 511.601837 -44.727273 
L 510.270205 -44.727273 
L 508.938574 -44.727273 
L 507.606943 -44.727273 
L 503.612049 -44.727273 
L 502.280417 -44.727273 
L 500.948786 -44.727273 
L 499.617154 -44.727273 
L 498.285523 -44.727273 
L 494.290629 -44.727273 
L 492.958998 -44.727273 
L 491.627366 -44.727273 
L 490.295735 -44.727273 
L 488.964103 -44.727273 
L 484.969209 -44.727273 
L 483.637578 -44.727273 
L 482.305946 -44.727273 
L 480.974315 -44.727273 
L 479.642684 -44.727273 
L 475.64779 -44.727273 
L 474.316158 -44.727273 
L 472.984527 -44.727273 
L 471.652895 -44.727273 
L 470.321264 -44.727273 
L 466.32637 -44.727273 
L 464.994738 -44.727273 
L 463.663107 -44.727273 
L 462.331476 -44.727273 
L 457.00495 -44.727273 
L 455.673319 -44.727273 
L 454.341687 -44.727273 
L 453.010056 -44.727273 
L 451.678425 -44.727273 
L 447.683531 -44.727273 
L 446.351899 -44.727273 
L 445.020268 -44.727273 
L 443.688636 -44.727273 
L 442.357005 -44.727273 
L 438.362111 -44.727273 
L 437.030479 -44.727273 
L 435.698848 -44.727273 
L 434.367217 -44.727273 
L 433.035585 -44.727273 
L 429.040691 -44.727273 
L 427.70906 -44.727273 
L 426.377428 -44.727273 
L 425.045797 -44.727273 
L 423.714166 -44.727273 
L 419.719271 -44.727273 
L 418.38764 -44.727273 
L 417.056009 -44.727273 
L 415.724377 -44.727273 
L 414.392746 -44.727273 
L 410.397852 -44.727273 
L 409.06622 -44.727273 
L 407.734589 -44.727273 
L 406.402958 -44.727273 
L 405.071326 -44.727273 
L 401.076432 -44.727273 
L 399.744801 -44.727273 
L 398.413169 -44.727273 
L 397.081538 -44.727273 
L 395.749907 -44.727273 
L 391.755012 -44.727273 
L 390.423381 -44.727273 
L 389.09175 -44.727273 
L 387.760118 -44.727273 
L 386.428487 -44.727273 
L 382.433593 -44.727273 
L 381.101961 -44.727273 
L 379.77033 -44.727273 
L 377.107067 -44.727273 
L 373.112173 -44.727273 
L 371.780542 -44.727273 
L 370.44891 -44.727273 
L 369.117279 -44.727273 
L 367.785648 -44.727273 
L 363.790753 -44.727273 
L 362.459122 -44.727273 
L 361.127491 -44.727273 
L 359.795859 -44.727273 
L 354.469334 -44.727273 
L 353.137702 -44.727273 
L 351.806071 -44.727273 
L 350.47444 -44.727273 
L 349.142808 -44.727273 
L 345.147914 -44.727273 
L 343.816283 -44.727273 
L 342.484651 -44.727273 
L 341.15302 -44.727273 
L 339.821389 -44.727273 
L 335.826494 -44.727273 
L 334.494863 -44.727273 
L 333.163232 -44.727273 
L 331.8316 -44.727273 
L 326.505075 -44.727273 
L 325.173443 -44.727273 
L 323.841812 -44.727273 
L 322.510181 -44.727273 
L 321.178549 -44.727273 
L 317.183655 -44.727273 
L 315.852024 -44.727273 
L 314.520392 -44.727273 
L 313.188761 -44.727273 
L 311.85713 -44.727273 
L 307.862235 -44.727273 
L 306.530604 -44.727273 
L 305.198973 -44.727273 
L 303.867341 -44.727273 
L 302.53571 -44.727273 
L 298.540816 -44.727273 
L 297.209184 -44.727273 
L 295.877553 -44.727273 
L 294.545922 -44.727273 
L 293.21429 -44.727273 
L 289.219396 -44.727273 
L 287.887765 -44.727273 
L 286.556133 -44.727273 
L 285.224502 -44.727273 
L 283.89287 -44.727273 
L 279.897976 -44.727273 
L 278.566345 -44.727273 
L 277.234714 -44.727273 
L 275.903082 -44.727273 
L 274.571451 -44.727273 
L 270.576557 -44.727273 
L 269.244925 -44.727273 
L 267.913294 -44.727273 
L 266.581663 -44.727273 
L 265.250031 -44.727273 
L 259.923506 -44.727273 
L 258.591874 -44.727273 
L 257.260243 -44.727273 
L 255.928611 -44.727273 
L 251.933717 -44.727273 
L 250.602086 -44.727273 
L 249.270455 -44.727273 
L 247.938823 -44.727273 
L 246.607192 -44.727273 
L 242.612298 -44.727273 
L 241.280666 -44.727273 
L 239.949035 -44.727273 
L 238.617403 -44.727273 
L 237.285772 -44.727273 
L 233.290878 -44.727273 
L 231.959247 -44.727273 
L 230.627615 -44.727273 
L 229.295984 -44.727273 
L 227.964352 -44.727273 
L 223.969458 -44.727273 
L 222.637827 -44.727273 
L 221.306196 -44.727273 
L 219.974564 -44.727273 
L 218.642933 -44.727273 
L 214.648039 -44.727273 
L 213.316407 -44.727273 
L 211.984776 -44.727273 
L 210.653144 -44.727273 
L 209.321513 -44.727273 
L 205.326619 -44.727273 
L 203.994988 -44.727273 
L 202.663356 -44.727273 
L 201.331725 -44.727273 
L 196.005199 -44.727273 
L 194.673568 -44.727273 
L 193.341936 -44.727273 
L 192.010305 -44.727273 
L 190.678674 -44.727273 
L 186.68378 -44.727273 
L 185.352148 -44.727273 
L 184.020517 -44.727273 
L 182.688885 -44.727273 
L 181.357254 -44.727273 
L 177.36236 -44.727273 
L 176.030729 -44.727273 
L 174.699097 -44.727273 
L 173.367466 -44.727273 
L 172.035834 -44.727273 
L 168.04094 -44.727273 
L 166.709309 -44.727273 
L 165.377677 -44.727273 
L 164.046046 -44.727273 
L 162.714415 -44.727273 
L 158.719521 -44.727273 
L 157.387889 -44.727273 
L 156.056258 -44.727273 
L 154.724626 -44.727273 
L 149.398101 -44.727273 
L 148.066469 -44.727273 
L 146.734838 -44.727273 
L 145.403207 -44.727273 
L 144.071575 -44.727273 
L 140.076681 -44.727273 
L 138.74505 -44.727273 
L 137.413418 -44.727273 
L 136.081787 -44.727273 
L 130.755262 -44.727273 
L 129.42363 -44.727273 
L 128.091999 -44.727273 
L 126.760367 -44.727273 
L 121.433842 -44.727273 
L 120.10221 -44.727273 
L 118.770579 -44.727273 
L 117.438948 -44.727273 
L 116.107316 -44.727273 
L 112.112422 -44.727273 
L 110.780791 -44.727273 
L 109.449159 -44.727273 
L 108.117528 -44.727273 
L 106.785897 -44.727273 
L 102.791002 -44.727273 
L 101.459371 -44.727273 
L 100.12774 -44.727273 
L 98.796108 -44.727273 
L 97.464477 -44.727273 
L 93.469583 -44.727273 
L 92.137951 -44.727273 
L 90.80632 -44.727273 
L 89.474689 -44.727273 
L 88.143057 -44.727273 
L 84.148163 -44.727273 
L 81.4849 -44.727273 
L 80.153269 -44.727273 
L 78.821638 -44.727273 
L 74.826743 -44.727273 
L 73.495112 -44.727273 
L 72.163481 -44.727273 
L 70.831849 -44.727273 
L 69.500218 -44.727273 
L 65.505324 -44.727273 
L 64.173692 -44.727273 
L 62.842061 -44.727273 
L 61.51043 -44.727273 
L 60.178798 -44.727273 
L 56.183904 -44.727273 
L 54.852273 -44.727273 
z
" id="m962e3988e0" style="stroke:#c6a2d2;"/>
    </defs>
    <g clip-path="url(#p6259bb5e06)">
     <use style="fill:#c6a2d2;stroke:#c6a2d2;" x="0" xlink:href="#m962e3988e0" y="432"/>
    </g>
   </g>
   <g id="matplotlib.axis_1">
    <g id="xtick_1">
     <g id="line2d_1">
      <defs>
       <path d="M 0 0 
L 0 3.5 
" id="m83d5de2de8" style="stroke:#000000;stroke-width:0.8;"/>
      </defs>
      <g>
       <use style="stroke:#000000;stroke-width:0.8;" x="52.18901" xlink:href="#m83d5de2de8" y="404.2"/>
      </g>
     </g>
     <g id="text_1">
      <!-- 2022-11 -->
      <defs>
       <path d="M 19.1875 8.296875 
L 53.609375 8.296875 
L 53.609375 0 
L 7.328125 0 
L 7.328125 8.296875 
Q 12.9375 14.109375 22.625 23.890625 
Q 32.328125 33.6875 34.8125 36.53125 
Q 39.546875 41.84375 41.421875 45.53125 
Q 43.3125 49.21875 43.3125 52.78125 
Q 43.3125 58.59375 39.234375 62.25 
Q 35.15625 65.921875 28.609375 65.921875 
Q 23.96875 65.921875 18.8125 64.3125 
Q 13.671875 62.703125 7.8125 59.421875 
L 7.8125 69.390625 
Q 13.765625 71.78125 18.9375 73 
Q 24.125 74.21875 28.421875 74.21875 
Q 39.75 74.21875 46.484375 68.546875 
Q 53.21875 62.890625 53.21875 53.421875 
Q 53.21875 48.921875 51.53125 44.890625 
Q 49.859375 40.875 45.40625 35.40625 
Q 44.1875 33.984375 37.640625 27.21875 
Q 31.109375 20.453125 19.1875 8.296875 
z
" id="DejaVuSans-50"/>
       <path d="M 31.78125 66.40625 
Q 24.171875 66.40625 20.328125 58.90625 
Q 16.5 51.421875 16.5 36.375 
Q 16.5 21.390625 20.328125 13.890625 
Q 24.171875 6.390625 31.78125 6.390625 
Q 39.453125 6.390625 43.28125 13.890625 
Q 47.125 21.390625 47.125 36.375 
Q 47.125 51.421875 43.28125 58.90625 
Q 39.453125 66.40625 31.78125 66.40625 
z
M 31.78125 74.21875 
Q 44.046875 74.21875 50.515625 64.515625 
Q 56.984375 54.828125 56.984375 36.375 
Q 56.984375 17.96875 50.515625 8.265625 
Q 44.046875 -1.421875 31.78125 -1.421875 
Q 19.53125 -1.421875 13.0625 8.265625 
Q 6.59375 17.96875 6.59375 36.375 
Q 6.59375 54.828125 13.0625 64.515625 
Q 19.53125 74.21875 31.78125 74.21875 
z
" id="DejaVuSans-48"/>
       <path d="M 4.890625 31.390625 
L 31.203125 31.390625 
L 31.203125 23.390625 
L 4.890625 23.390625 
z
" id="DejaVuSans-45"/>
       <path d="M 12.40625 8.296875 
L 28.515625 8.296875 
L 28.515625 63.921875 
L 10.984375 60.40625 
L 10.984375 69.390625 
L 28.421875 72.90625 
L 38.28125 72.90625 
L 38.28125 8.296875 
L 54.390625 8.296875 
L 54.390625 0 
L 12.40625 0 
z
" id="DejaVuSans-49"/>
      </defs>
      <g transform="translate(31.297604 418.798437)scale(0.1 -0.1)">
       <use xlink:href="#DejaVuSans-50"/>
       <use x="63.623047" xlink:href="#DejaVuSans-48"/>
       <use x="127.246094" xlink:href="#DejaVuSans-50"/>
       <use x="190.869141" xlink:href="#DejaVuSans-50"/>
       <use x="254.492188" xlink:href="#DejaVuSans-45"/>
       <use x="290.576172" xlink:href="#DejaVuSans-49"/>
       <use x="354.199219" xlink:href="#DejaVuSans-49"/>
      </g>
     </g>
    </g>
    <g id="xtick_2">
     <g id="line2d_2">
      <g>
       <use style="stroke:#000000;stroke-width:0.8;" x="133.418524" xlink:href="#m83d5de2de8" y="404.2"/>
      </g>
     </g>
     <g id="text_2">
      <!-- 2023-01 -->
      <defs>
       <path d="M 40.578125 39.3125 
Q 47.65625 37.796875 51.625 33 
Q 55.609375 28.21875 55.609375 21.1875 
Q 55.609375 10.40625 48.1875 4.484375 
Q 40.765625 -1.421875 27.09375 -1.421875 
Q 22.515625 -1.421875 17.65625 -0.515625 
Q 12.796875 0.390625 7.625 2.203125 
L 7.625 11.71875 
Q 11.71875 9.328125 16.59375 8.109375 
Q 21.484375 6.890625 26.8125 6.890625 
Q 36.078125 6.890625 40.9375 10.546875 
Q 45.796875 14.203125 45.796875 21.1875 
Q 45.796875 27.640625 41.28125 31.265625 
Q 36.765625 34.90625 28.71875 34.90625 
L 20.21875 34.90625 
L 20.21875 43.015625 
L 29.109375 43.015625 
Q 36.375 43.015625 40.234375 45.921875 
Q 44.09375 48.828125 44.09375 54.296875 
Q 44.09375 59.90625 40.109375 62.90625 
Q 36.140625 65.921875 28.71875 65.921875 
Q 24.65625 65.921875 20.015625 65.03125 
Q 15.375 64.15625 9.8125 62.3125 
L 9.8125 71.09375 
Q 15.4375 72.65625 20.34375 73.4375 
Q 25.25 74.21875 29.59375 74.21875 
Q 40.828125 74.21875 47.359375 69.109375 
Q 53.90625 64.015625 53.90625 55.328125 
Q 53.90625 49.265625 50.4375 45.09375 
Q 46.96875 40.921875 40.578125 39.3125 
z
" id="DejaVuSans-51"/>
      </defs>
      <g transform="translate(112.527118 418.798437)scale(0.1 -0.1)">
       <use xlink:href="#DejaVuSans-50"/>
       <use x="63.623047" xlink:href="#DejaVuSans-48"/>
       <use x="127.246094" xlink:href="#DejaVuSans-50"/>
       <use x="190.869141" xlink:href="#DejaVuSans-51"/>
       <use x="254.492188" xlink:href="#DejaVuSans-45"/>
       <use x="290.576172" xlink:href="#DejaVuSans-48"/>
       <use x="354.199219" xlink:href="#DejaVuSans-49"/>
      </g>
     </g>
    </g>
    <g id="xtick_3">
     <g id="line2d_3">
      <g>
       <use style="stroke:#000000;stroke-width:0.8;" x="211.984776" xlink:href="#m83d5de2de8" y="404.2"/>
      </g>
     </g>
     <g id="text_3">
      <!-- 2023-03 -->
      <g transform="translate(191.09337 418.798437)scale(0.1 -0.1)">
       <use xlink:href="#DejaVuSans-50"/>
       <use x="63.623047" xlink:href="#DejaVuSans-48"/>
       <use x="127.246094" xlink:href="#DejaVuSans-50"/>
       <use x="190.869141" xlink:href="#DejaVuSans-51"/>
       <use x="254.492188" xlink:href="#DejaVuSans-45"/>
       <use x="290.576172" xlink:href="#DejaVuSans-48"/>
       <use x="354.199219" xlink:href="#DejaVuSans-51"/>
      </g>
     </g>
    </g>
    <g id="xtick_4">
     <g id="line2d_4">
      <g>
       <use style="stroke:#000000;stroke-width:0.8;" x="293.21429" xlink:href="#m83d5de2de8" y="404.2"/>
      </g>
     </g>
     <g id="text_4">
      <!-- 2023-05 -->
      <defs>
       <path d="M 10.796875 72.90625 
L 49.515625 72.90625 
L 49.515625 64.59375 
L 19.828125 64.59375 
L 19.828125 46.734375 
Q 21.96875 47.46875 24.109375 47.828125 
Q 26.265625 48.1875 28.421875 48.1875 
Q 40.625 48.1875 47.75 41.5 
Q 54.890625 34.8125 54.890625 23.390625 
Q 54.890625 11.625 47.5625 5.09375 
Q 40.234375 -1.421875 26.90625 -1.421875 
Q 22.3125 -1.421875 17.546875 -0.640625 
Q 12.796875 0.140625 7.71875 1.703125 
L 7.71875 11.625 
Q 12.109375 9.234375 16.796875 8.0625 
Q 21.484375 6.890625 26.703125 6.890625 
Q 35.15625 6.890625 40.078125 11.328125 
Q 45.015625 15.765625 45.015625 23.390625 
Q 45.015625 31 40.078125 35.4375 
Q 35.15625 39.890625 26.703125 39.890625 
Q 22.75 39.890625 18.8125 39.015625 
Q 14.890625 38.140625 10.796875 36.28125 
z
" id="DejaVuSans-53"/>
      </defs>
      <g transform="translate(272.322884 418.798437)scale(0.1 -0.1)">
       <use xlink:href="#DejaVuSans-50"/>
       <use x="63.623047" xlink:href="#DejaVuSans-48"/>
       <use x="127.246094" xlink:href="#DejaVuSans-50"/>
       <use x="190.869141" xlink:href="#DejaVuSans-51"/>
       <use x="254.492188" xlink:href="#DejaVuSans-45"/>
       <use x="290.576172" xlink:href="#DejaVuSans-48"/>
       <use x="354.199219" xlink:href="#DejaVuSans-53"/>
      </g>
     </g>
    </g>
    <g id="xtick_5">
     <g id="line2d_5">
      <g>
       <use style="stroke:#000000;stroke-width:0.8;" x="374.443804" xlink:href="#m83d5de2de8" y="404.2"/>
      </g>
     </g>
     <g id="text_5">
      <!-- 2023-07 -->
      <defs>
       <path d="M 8.203125 72.90625 
L 55.078125 72.90625 
L 55.078125 68.703125 
L 28.609375 0 
L 18.3125 0 
L 43.21875 64.59375 
L 8.203125 64.59375 
z
" id="DejaVuSans-55"/>
      </defs>
      <g transform="translate(353.552398 418.798437)scale(0.1 -0.1)">
       <use xlink:href="#DejaVuSans-50"/>
       <use x="63.623047" xlink:href="#DejaVuSans-48"/>
       <use x="127.246094" xlink:href="#DejaVuSans-50"/>
       <use x="190.869141" xlink:href="#DejaVuSans-51"/>
       <use x="254.492188" xlink:href="#DejaVuSans-45"/>
       <use x="290.576172" xlink:href="#DejaVuSans-48"/>
       <use x="354.199219" xlink:href="#DejaVuSans-55"/>
      </g>
     </g>
    </g>
    <g id="xtick_6">
     <g id="line2d_6">
      <g>
       <use style="stroke:#000000;stroke-width:0.8;" x="457.00495" xlink:href="#m83d5de2de8" y="404.2"/>
      </g>
     </g>
     <g id="text_6">
      <!-- 2023-09 -->
      <defs>
       <path d="M 10.984375 1.515625 
L 10.984375 10.5 
Q 14.703125 8.734375 18.5 7.8125 
Q 22.3125 6.890625 25.984375 6.890625 
Q 35.75 6.890625 40.890625 13.453125 
Q 46.046875 20.015625 46.78125 33.40625 
Q 43.953125 29.203125 39.59375 26.953125 
Q 35.25 24.703125 29.984375 24.703125 
Q 19.046875 24.703125 12.671875 31.3125 
Q 6.296875 37.9375 6.296875 49.421875 
Q 6.296875 60.640625 12.9375 67.421875 
Q 19.578125 74.21875 30.609375 74.21875 
Q 43.265625 74.21875 49.921875 64.515625 
Q 56.59375 54.828125 56.59375 36.375 
Q 56.59375 19.140625 48.40625 8.859375 
Q 40.234375 -1.421875 26.421875 -1.421875 
Q 22.703125 -1.421875 18.890625 -0.6875 
Q 15.09375 0.046875 10.984375 1.515625 
z
M 30.609375 32.421875 
Q 37.25 32.421875 41.125 36.953125 
Q 45.015625 41.5 45.015625 49.421875 
Q 45.015625 57.28125 41.125 61.84375 
Q 37.25 66.40625 30.609375 66.40625 
Q 23.96875 66.40625 20.09375 61.84375 
Q 16.21875 57.28125 16.21875 49.421875 
Q 16.21875 41.5 20.09375 36.953125 
Q 23.96875 32.421875 30.609375 32.421875 
z
" id="DejaVuSans-57"/>
      </defs>
      <g transform="translate(436.113544 418.798437)scale(0.1 -0.1)">
       <use xlink:href="#DejaVuSans-50"/>
       <use x="63.623047" xlink:href="#DejaVuSans-48"/>
       <use x="127.246094" xlink:href="#DejaVuSans-50"/>
       <use x="190.869141" xlink:href="#DejaVuSans-51"/>
       <use x="254.492188" xlink:href="#DejaVuSans-45"/>
       <use x="290.576172" xlink:href="#DejaVuSans-48"/>
       <use x="354.199219" xlink:href="#DejaVuSans-57"/>
      </g>
     </g>
    </g>
    <g id="xtick_7">
     <g id="line2d_7">
      <g>
       <use style="stroke:#000000;stroke-width:0.8;" x="538.234465" xlink:href="#m83d5de2de8" y="404.2"/>
      </g>
     </g>
     <g id="text_7">
      <!-- 2023-11 -->
      <g transform="translate(517.343058 418.798437)scale(0.1 -0.1)">
       <use xlink:href="#DejaVuSans-50"/>
       <use x="63.623047" xlink:href="#DejaVuSans-48"/>
       <use x="127.246094" xlink:href="#DejaVuSans-50"/>
       <use x="190.869141" xlink:href="#DejaVuSans-51"/>
       <use x="254.492188" xlink:href="#DejaVuSans-45"/>
       <use x="290.576172" xlink:href="#DejaVuSans-49"/>
       <use x="354.199219" xlink:href="#DejaVuSans-49"/>
      </g>
     </g>
    </g>
   </g>
   <g id="matplotlib.axis_2">
    <g id="ytick_1">
     <g id="line2d_8">
      <defs>
       <path d="M 0 0 
L -3.5 0 
" id="m36460edbf7" style="stroke:#000000;stroke-width:0.8;"/>
      </defs>
      <g>
       <use style="stroke:#000000;stroke-width:0.8;" x="30.55" xlink:href="#m36460edbf7" y="387.272727"/>
      </g>
     </g>
     <g id="text_8">
      <!-- 0 -->
      <g transform="translate(17.1875 391.071946)scale(0.1 -0.1)">
       <use xlink:href="#DejaVuSans-48"/>
      </g>
     </g>
    </g>
    <g id="ytick_2">
     <g id="line2d_9">
      <g>
       <use style="stroke:#000000;stroke-width:0.8;" x="30.55" xlink:href="#m36460edbf7" y="332.738989"/>
      </g>
     </g>
     <g id="text_9">
      <!-- 5 -->
      <g transform="translate(17.1875 336.538208)scale(0.1 -0.1)">
       <use xlink:href="#DejaVuSans-53"/>
      </g>
     </g>
    </g>
    <g id="ytick_3">
     <g id="line2d_10">
      <g>
       <use style="stroke:#000000;stroke-width:0.8;" x="30.55" xlink:href="#m36460edbf7" y="278.205252"/>
      </g>
     </g>
     <g id="text_10">
      <!-- 10 -->
      <g transform="translate(10.825 282.00447)scale(0.1 -0.1)">
       <use xlink:href="#DejaVuSans-49"/>
       <use x="63.623047" xlink:href="#DejaVuSans-48"/>
      </g>
     </g>
    </g>
    <g id="ytick_4">
     <g id="line2d_11">
      <g>
       <use style="stroke:#000000;stroke-width:0.8;" x="30.55" xlink:href="#m36460edbf7" y="223.671514"/>
      </g>
     </g>
     <g id="text_11">
      <!-- 15 -->
      <g transform="translate(10.825 227.470732)scale(0.1 -0.1)">
       <use xlink:href="#DejaVuSans-49"/>
       <use x="63.623047" xlink:href="#DejaVuSans-53"/>
      </g>
     </g>
    </g>
    <g id="ytick_5">
     <g id="line2d_12">
      <g>
       <use style="stroke:#000000;stroke-width:0.8;" x="30.55" xlink:href="#m36460edbf7" y="169.137776"/>
      </g>
     </g>
     <g id="text_12">
      <!-- 20 -->
      <g transform="translate(10.825 172.936995)scale(0.1 -0.1)">
       <use xlink:href="#DejaVuSans-50"/>
       <use x="63.623047" xlink:href="#DejaVuSans-48"/>
      </g>
     </g>
    </g>
    <g id="ytick_6">
     <g id="line2d_13">
      <g>
       <use style="stroke:#000000;stroke-width:0.8;" x="30.55" xlink:href="#m36460edbf7" y="114.604038"/>
      </g>
     </g>
     <g id="text_13">
      <!-- 25 -->
      <g transform="translate(10.825 118.403257)scale(0.1 -0.1)">
       <use xlink:href="#DejaVuSans-50"/>
       <use x="63.623047" xlink:href="#DejaVuSans-53"/>
      </g>
     </g>
    </g>
    <g id="ytick_7">
     <g id="line2d_14">
      <g>
       <use style="stroke:#000000;stroke-width:0.8;" x="30.55" xlink:href="#m36460edbf7" y="60.0703"/>
      </g>
     </g>
     <g id="text_14">
      <!-- 30 -->
      <g transform="translate(10.825 63.869519)scale(0.1 -0.1)">
       <use xlink:href="#DejaVuSans-51"/>
       <use x="63.623047" xlink:href="#DejaVuSans-48"/>
      </g>
     </g>
    </g>
   </g>
   <g id="patch_3">
    <path d="M 30.55 404.2 
L 30.55 31.8 
" style="fill:none;stroke:#000000;stroke-linecap:square;stroke-linejoin:miter;stroke-width:0.8;"/>
   </g>
   <g id="patch_4">
    <path d="M 565.2 404.2 
L 565.2 31.8 
" style="fill:none;stroke:#000000;stroke-linecap:square;stroke-linejoin:miter;stroke-width:0.8;"/>
   </g>
   <g id="patch_5">
    <path d="M 30.55 404.2 
L 565.2 404.2 
" style="fill:none;stroke:#000000;stroke-linecap:square;stroke-linejoin:miter;stroke-width:0.8;"/>
   </g>
   <g id="patch_6">
    <path d="M 30.55 31.8 
L 565.2 31.8 
" style="fill:none;stroke:#000000;stroke-linecap:square;stroke-linejoin:miter;stroke-width:0.8;"/>
   </g>
   <g id="text_15">
    <!-- PINS - 36% -->
    <defs>
     <path d="M 9.1875 72.90625 
L 40.375 72.90625 
Q 54.296875 72.90625 61.734375 66.71875 
Q 69.1875 60.546875 69.1875 49.125 
Q 69.1875 37.640625 61.734375 31.46875 
Q 54.296875 25.296875 40.375 25.296875 
L 27.984375 25.296875 
L 27.984375 0 
L 9.1875 0 
z
M 27.984375 59.28125 
L 27.984375 38.921875 
L 38.375 38.921875 
Q 43.84375 38.921875 46.828125 41.578125 
Q 49.8125 44.234375 49.8125 49.125 
Q 49.8125 54 46.828125 56.640625 
Q 43.84375 59.28125 38.375 59.28125 
z
" id="DejaVuSans-Bold-80"/>
     <path d="M 9.1875 72.90625 
L 27.984375 72.90625 
L 27.984375 0 
L 9.1875 0 
z
" id="DejaVuSans-Bold-73"/>
     <path d="M 9.1875 72.90625 
L 30.171875 72.90625 
L 56.6875 22.90625 
L 56.6875 72.90625 
L 74.515625 72.90625 
L 74.515625 0 
L 53.515625 0 
L 27 50 
L 27 0 
L 9.1875 0 
z
" id="DejaVuSans-Bold-78"/>
     <path d="M 59.90625 70.609375 
L 59.90625 55.171875 
Q 53.90625 57.859375 48.1875 59.21875 
Q 42.484375 60.59375 37.40625 60.59375 
Q 30.671875 60.59375 27.4375 58.734375 
Q 24.21875 56.890625 24.21875 52.984375 
Q 24.21875 50.046875 26.390625 48.40625 
Q 28.5625 46.78125 34.28125 45.609375 
L 42.28125 44 
Q 54.4375 41.546875 59.5625 36.5625 
Q 64.703125 31.59375 64.703125 22.40625 
Q 64.703125 10.359375 57.546875 4.46875 
Q 50.390625 -1.421875 35.6875 -1.421875 
Q 28.765625 -1.421875 21.78125 -0.09375 
Q 14.796875 1.21875 7.8125 3.8125 
L 7.8125 19.671875 
Q 14.796875 15.96875 21.3125 14.078125 
Q 27.828125 12.203125 33.890625 12.203125 
Q 40.046875 12.203125 43.3125 14.25 
Q 46.578125 16.3125 46.578125 20.125 
Q 46.578125 23.53125 44.359375 25.390625 
Q 42.140625 27.25 35.5 28.71875 
L 28.21875 30.328125 
Q 17.28125 32.671875 12.21875 37.796875 
Q 7.171875 42.921875 7.171875 51.609375 
Q 7.171875 62.5 14.203125 68.359375 
Q 21.234375 74.21875 34.421875 74.21875 
Q 40.4375 74.21875 46.78125 73.3125 
Q 53.125 72.40625 59.90625 70.609375 
z
" id="DejaVuSans-Bold-83"/>
     <path id="DejaVuSans-Bold-32"/>
     <path d="M 5.421875 35.890625 
L 36.078125 35.890625 
L 36.078125 21.6875 
L 5.421875 21.6875 
z
" id="DejaVuSans-Bold-45"/>
     <path d="M 46.578125 39.3125 
Q 53.953125 37.40625 57.78125 32.6875 
Q 61.625 27.984375 61.625 20.703125 
Q 61.625 9.859375 53.3125 4.21875 
Q 45.015625 -1.421875 29.109375 -1.421875 
Q 23.484375 -1.421875 17.84375 -0.515625 
Q 12.203125 0.390625 6.6875 2.203125 
L 6.6875 16.703125 
Q 11.96875 14.0625 17.15625 12.71875 
Q 22.359375 11.375 27.390625 11.375 
Q 34.859375 11.375 38.84375 13.953125 
Q 42.828125 16.546875 42.828125 21.390625 
Q 42.828125 26.375 38.75 28.9375 
Q 34.671875 31.5 26.703125 31.5 
L 19.1875 31.5 
L 19.1875 43.609375 
L 27.09375 43.609375 
Q 34.1875 43.609375 37.640625 45.828125 
Q 41.109375 48.046875 41.109375 52.59375 
Q 41.109375 56.78125 37.734375 59.078125 
Q 34.375 61.375 28.21875 61.375 
Q 23.6875 61.375 19.046875 60.34375 
Q 14.40625 59.328125 9.8125 57.328125 
L 9.8125 71.09375 
Q 15.375 72.65625 20.84375 73.4375 
Q 26.3125 74.21875 31.59375 74.21875 
Q 45.796875 74.21875 52.84375 69.546875 
Q 59.90625 64.890625 59.90625 55.515625 
Q 59.90625 49.125 56.53125 45.046875 
Q 53.171875 40.96875 46.578125 39.3125 
z
" id="DejaVuSans-Bold-51"/>
     <path d="M 36.1875 35.984375 
Q 31.25 35.984375 28.78125 32.78125 
Q 26.3125 29.59375 26.3125 23.1875 
Q 26.3125 16.796875 28.78125 13.59375 
Q 31.25 10.40625 36.1875 10.40625 
Q 41.15625 10.40625 43.625 13.59375 
Q 46.09375 16.796875 46.09375 23.1875 
Q 46.09375 29.59375 43.625 32.78125 
Q 41.15625 35.984375 36.1875 35.984375 
z
M 59.421875 71 
L 59.421875 57.515625 
Q 54.78125 59.71875 50.671875 60.765625 
Q 46.578125 61.8125 42.671875 61.8125 
Q 34.28125 61.8125 29.59375 57.140625 
Q 24.90625 52.484375 24.125 43.3125 
Q 27.34375 45.703125 31.09375 46.890625 
Q 34.859375 48.09375 39.3125 48.09375 
Q 50.484375 48.09375 57.34375 41.546875 
Q 64.203125 35.015625 64.203125 24.421875 
Q 64.203125 12.703125 56.53125 5.640625 
Q 48.875 -1.421875 35.984375 -1.421875 
Q 21.78125 -1.421875 13.984375 8.171875 
Q 6.203125 17.78125 6.203125 35.40625 
Q 6.203125 53.46875 15.3125 63.796875 
Q 24.421875 74.125 40.28125 74.125 
Q 45.3125 74.125 50.046875 73.34375 
Q 54.78125 72.5625 59.421875 71 
z
" id="DejaVuSans-Bold-54"/>
     <path d="M 77.484375 30.078125 
Q 74.03125 30.078125 72.125 27.078125 
Q 70.21875 24.078125 70.21875 18.5 
Q 70.21875 12.890625 72.09375 9.890625 
Q 73.96875 6.890625 77.484375 6.890625 
Q 81 6.890625 82.859375 9.890625 
Q 84.71875 12.890625 84.71875 18.5 
Q 84.71875 24.078125 82.828125 27.078125 
Q 80.953125 30.078125 77.484375 30.078125 
z
M 77.484375 38.28125 
Q 86.578125 38.28125 91.796875 33 
Q 97.015625 27.734375 97.015625 18.5 
Q 97.015625 9.28125 91.796875 3.921875 
Q 86.578125 -1.421875 77.484375 -1.421875 
Q 68.40625 -1.421875 63.15625 3.921875 
Q 57.90625 9.28125 57.90625 18.5 
Q 57.90625 27.6875 63.15625 32.984375 
Q 68.40625 38.28125 77.484375 38.28125 
z
M 32.71875 -1.421875 
L 21.921875 -1.421875 
L 67.484375 74.21875 
L 78.328125 74.21875 
z
M 22.703125 74.21875 
Q 31.78125 74.21875 36.984375 68.921875 
Q 42.1875 63.625 42.1875 54.390625 
Q 42.1875 45.171875 36.984375 39.84375 
Q 31.78125 34.515625 22.703125 34.515625 
Q 13.625 34.515625 8.421875 39.84375 
Q 3.21875 45.171875 3.21875 54.390625 
Q 3.21875 63.625 8.421875 68.921875 
Q 13.625 74.21875 22.703125 74.21875 
z
M 22.703125 66.015625 
Q 19.1875 66.015625 17.28125 62.984375 
Q 15.375 59.96875 15.375 54.390625 
Q 15.375 48.78125 17.28125 45.71875 
Q 19.1875 42.671875 22.703125 42.671875 
Q 26.21875 42.671875 28.09375 45.71875 
Q 29.984375 48.78125 29.984375 54.390625 
Q 29.984375 59.96875 28.078125 62.984375 
Q 26.171875 66.015625 22.703125 66.015625 
z
" id="DejaVuSans-Bold-37"/>
    </defs>
    <g transform="translate(30.55 25.8)scale(0.2 -0.2)">
     <use xlink:href="#DejaVuSans-Bold-80"/>
     <use x="73.291016" xlink:href="#DejaVuSans-Bold-73"/>
     <use x="110.498047" xlink:href="#DejaVuSans-Bold-78"/>
     <use x="194.189453" xlink:href="#DejaVuSans-Bold-83"/>
     <use x="266.210938" xlink:href="#DejaVuSans-Bold-32"/>
     <use x="301.025391" xlink:href="#DejaVuSans-Bold-45"/>
     <use x="342.529297" xlink:href="#DejaVuSans-Bold-32"/>
     <use x="377.34375" xlink:href="#DejaVuSans-Bold-51"/>
     <use x="446.923828" xlink:href="#DejaVuSans-Bold-54"/>
     <use x="516.503906" xlink:href="#DejaVuSans-Bold-37"/>
    </g>
   </g>
  </g>
 </g>
 <defs>
  <clipPath id="p6259bb5e06">
   <rect height="372.4" width="534.65" x="30.55" y="31.8"/>
  </clipPath>
 </defs>
</svg>
