<?xml version="1.0" encoding="utf-8" standalone="no"?>
<!DOCTYPE svg PUBLIC "-//W3C//DTD SVG 1.1//EN"
  "http://www.w3.org/Graphics/SVG/1.1/DTD/svg11.dtd">
<!-- Created with matplotlib (https://matplotlib.org/) -->
<svg height="432pt" version="1.1" viewBox="0 0 864 432" width="864pt" xmlns="http://www.w3.org/2000/svg" xmlns:xlink="http://www.w3.org/1999/xlink">
 <defs>
  <style type="text/css">
*{stroke-linecap:butt;stroke-linejoin:round;}
  </style>
 </defs>
 <g id="figure_1">
  <g id="patch_1">
   <path d="M 0 432 
L 864 432 
L 864 0 
L 0 0 
z
" style="fill:#ffffff;"/>
  </g>
  <g id="axes_1">
   <g id="patch_2">
    <path d="M 30.55 404.2 
L 853.2 404.2 
L 853.2 28.8 
L 30.55 28.8 
z
" style="fill:#ffffff;"/>
   </g>
   <g id="PolyCollection_1">
    <defs>
     <path d="M 67.943182 -44.863636 
L 67.943182 -297.929819 
L 69.997752 -293.597241 
L 76.161464 -295.707983 
L 78.216034 -296.152359 
L 80.270604 -281.266111 
L 82.325175 -302.262376 
L 84.379745 -313.704797 
L 90.543457 -316.1488 
L 92.598027 -336.922898 
L 94.652597 -326.591396 
L 96.707168 -317.259718 
L 98.761738 -315.704424 
L 104.92545 -309.261124 
L 106.98002 -317.03753 
L 109.03459 -322.925381 
L 113.143731 -322.481005 
L 119.307443 -315.482257 
L 121.362013 -311.482961 
L 123.416583 -327.257938 
L 125.471154 -329.035398 
L 127.525724 -321.036826 
L 133.689436 -310.705324 
L 135.744006 -297.263256 
L 137.798576 -296.818901 
L 139.853147 -296.152359 
L 141.907717 -302.151282 
L 148.071429 -307.150403 
L 150.125999 -338.367077 
L 152.180569 -336.14524 
L 154.23514 -324.369559 
L 156.28971 -320.370263 
L 162.453422 -313.371515 
L 164.507992 -316.370987 
L 166.562562 -324.147372 
L 168.617133 -319.481533 
L 170.671703 -317.370812 
L 178.889985 -305.150755 
L 180.944555 -298.818549 
L 182.999126 -309.483312 
L 185.053696 -314.593527 
L 193.271978 -299.15181 
L 195.326548 -309.038958 
L 197.381119 -306.928215 
L 199.435689 -316.593154 
L 205.599401 -321.258993 
L 207.653971 -333.034695 
L 209.708541 -344.92147 
L 211.763112 -338.589264 
L 213.817682 -341.366549 
L 222.035964 -340.588913 
L 224.090534 -334.589968 
L 226.145105 -342.255279 
L 228.199675 -340.366725 
L 234.363387 -341.366549 
L 236.417957 -331.812683 
L 238.472527 -335.034343 
L 240.527098 -337.811628 
L 242.581668 -341.921997 
L 248.74538 -332.812507 
L 250.79995 -336.922898 
L 252.85452 -341.477643 
L 254.909091 -368.139571 
L 256.963661 -350.142757 
L 263.127373 -354.697503 
L 265.181943 -338.700358 
L 267.236513 -332.368132 
L 269.291084 -319.592627 
L 271.345654 -320.814639 
L 277.509366 -319.259366 
L 279.563936 -319.037178 
L 281.618506 -326.813562 
L 283.673077 -320.814639 
L 285.727647 -316.259893 
L 293.945929 -316.482081 
L 296.0005 -324.147372 
L 298.05507 -328.146668 
L 300.10964 -322.925381 
L 306.273352 -322.481005 
L 308.327922 -323.814111 
L 310.382493 -322.258817 
L 312.437063 -326.369208 
L 314.491633 -338.144889 
L 320.655345 -341.255455 
L 322.709915 -340.811079 
L 324.764486 -330.812859 
L 326.819056 -320.814639 
L 328.873626 -313.371515 
L 335.037338 -308.039134 
L 337.091908 -322.481005 
L 339.146479 -322.925381 
L 341.201049 -339.589089 
L 343.255619 -337.811628 
L 349.419331 -342.033091 
L 351.473901 -350.587133 
L 353.528472 -350.031663 
L 355.583042 -351.586957 
L 357.637612 -350.031663 
L 363.801324 -356.697151 
L 365.855894 -343.032916 
L 367.910465 -339.255807 
L 369.965035 -337.478346 
L 372.019605 -347.809849 
L 378.183317 -353.14223 
L 380.237887 -355.697327 
L 382.292458 -348.476391 
L 384.347028 -358.696799 
L 392.56531 -355.252972 
L 394.61988 -358.030257 
L 396.674451 -353.031136 
L 398.729021 -361.029708 
L 400.783591 -362.362814 
L 406.947303 -362.80719 
L 409.001873 -357.919163 
L 411.056444 -358.363517 
L 413.111014 -350.698227 
L 415.165584 -349.142933 
L 421.329296 -351.809124 
L 423.383866 -353.031136 
L 425.438437 -340.477819 
L 427.493007 -347.809849 
L 429.547577 -300.373822 
L 435.711289 -289.931226 
L 437.765859 -282.265936 
L 439.82043 -277.155721 
L 441.875 -275.711542 
L 443.92957 -278.266639 
L 450.093282 -284.709938 
L 452.147852 -283.376832 
L 454.202423 -284.043396 
L 456.256993 -283.487926 
L 458.311563 -282.599196 
L 464.475275 -289.820132 
L 466.529845 -284.709938 
L 468.584416 -288.709235 
L 470.638986 -294.374877 
L 472.693556 -297.041089 
L 478.857268 -303.262201 
L 480.911838 -308.81677 
L 482.966409 -314.926788 
L 485.020979 -308.594582 
L 487.075549 -314.038057 
L 495.293831 -316.037706 
L 497.348402 -310.816418 
L 499.402972 -307.150403 
L 501.457542 -305.595109 
L 507.621254 -312.593879 
L 509.675824 -318.481708 
L 511.730395 -315.371163 
L 513.784965 -310.816418 
L 515.839535 -310.038782 
L 522.003247 -312.593879 
L 524.057817 -314.260245 
L 526.112388 -316.1488 
L 528.166958 -322.147723 
L 530.221528 -326.591396 
L 538.43981 -324.925008 
L 540.494381 -321.481181 
L 542.548951 -335.25651 
L 544.603521 -336.367428 
L 550.767233 -329.36868 
L 552.821803 -338.144889 
L 554.876374 -357.474787 
L 556.930944 -351.920218 
L 558.985514 -348.587485 
L 565.149226 -347.476567 
L 569.258367 -352.920042 
L 571.312937 -347.032212 
L 573.367507 -349.809497 
L 579.531219 -350.476039 
L 581.585789 -362.80719 
L 583.64036 -364.473556 
L 585.69493 -362.918262 
L 587.7495 -363.806993 
L 593.913212 -368.69502 
L 595.967782 -381.581619 
L 598.022353 -376.360331 
L 600.076923 -361.029708 
L 602.131494 -355.475139 
L 608.295205 -353.586606 
L 610.349775 -347.032212 
L 612.404346 -352.586781 
L 614.458916 -343.255103 
L 616.513487 -360.918635 
L 622.677198 -366.917559 
L 624.731768 -366.584277 
L 626.786339 -354.253148 
L 628.840909 -346.587836 
L 630.89548 -341.033267 
L 637.059191 -346.69893 
L 639.113761 -342.477467 
L 641.168332 -335.700886 
L 643.222902 -332.812507 
L 645.277473 -331.257235 
L 651.441184 -335.367604 
L 653.495754 -330.368504 
L 655.550325 -336.034146 
L 657.604895 -341.477643 
L 659.659466 -338.700358 
L 665.823177 -350.587133 
L 667.877747 -344.477094 
L 669.932318 -348.032036 
L 671.986888 -341.921997 
L 674.041459 -343.810552 
L 680.20517 -346.032388 
L 682.25974 -348.809673 
L 684.314311 -348.032036 
L 686.368881 -350.253851 
L 688.423452 -352.031312 
L 696.641733 -364.58465 
L 698.696304 -352.031312 
L 700.750874 -355.919515 
L 702.805445 -350.920394 
L 708.969156 -354.91969 
L 711.023726 -354.475336 
L 713.078297 -337.033971 
L 715.132867 -333.923425 
L 717.187438 -330.479577 
L 723.351149 -327.03575 
L 725.405719 -336.034146 
L 727.46029 -345.032564 
L 729.51486 -338.700358 
L 731.569431 -341.69981 
L 737.733142 -334.36778 
L 739.787712 -332.701413 
L 741.842283 -334.478874 
L 743.896853 -339.144713 
L 745.951424 -345.143658 
L 752.115135 -345.254752 
L 754.169705 -333.145789 
L 756.224276 -338.033795 
L 758.278846 -344.92147 
L 760.333417 -356.808245 
L 766.497128 -358.585705 
L 768.551698 -362.585002 
L 770.606269 -361.029708 
L 772.660839 -353.364418 
L 774.71541 -340.588913 
L 780.879121 -350.476039 
L 782.933691 -355.919515 
L 784.988262 -342.921822 
L 787.042832 -339.811255 
L 789.097403 -333.256862 
L 795.261114 -340.811079 
L 797.315684 -342.477467 
L 799.370255 -328.813211 
L 801.424825 -312.593879 
L 803.479396 -315.482257 
L 809.643107 -323.703017 
L 811.697677 -376.804686 
L 813.752248 -377.249061 
L 815.806818 -386.136364 
L 815.806818 -44.863636 
L 815.806818 -44.863636 
L 813.752248 -44.863636 
L 811.697677 -44.863636 
L 809.643107 -44.863636 
L 803.479396 -44.863636 
L 801.424825 -44.863636 
L 799.370255 -44.863636 
L 797.315684 -44.863636 
L 795.261114 -44.863636 
L 789.097403 -44.863636 
L 787.042832 -44.863636 
L 784.988262 -44.863636 
L 782.933691 -44.863636 
L 780.879121 -44.863636 
L 774.71541 -44.863636 
L 772.660839 -44.863636 
L 770.606269 -44.863636 
L 768.551698 -44.863636 
L 766.497128 -44.863636 
L 760.333417 -44.863636 
L 758.278846 -44.863636 
L 756.224276 -44.863636 
L 754.169705 -44.863636 
L 752.115135 -44.863636 
L 745.951424 -44.863636 
L 743.896853 -44.863636 
L 741.842283 -44.863636 
L 739.787712 -44.863636 
L 737.733142 -44.863636 
L 731.569431 -44.863636 
L 729.51486 -44.863636 
L 727.46029 -44.863636 
L 725.405719 -44.863636 
L 723.351149 -44.863636 
L 717.187438 -44.863636 
L 715.132867 -44.863636 
L 713.078297 -44.863636 
L 711.023726 -44.863636 
L 708.969156 -44.863636 
L 702.805445 -44.863636 
L 700.750874 -44.863636 
L 698.696304 -44.863636 
L 696.641733 -44.863636 
L 688.423452 -44.863636 
L 686.368881 -44.863636 
L 684.314311 -44.863636 
L 682.25974 -44.863636 
L 680.20517 -44.863636 
L 674.041459 -44.863636 
L 671.986888 -44.863636 
L 669.932318 -44.863636 
L 667.877747 -44.863636 
L 665.823177 -44.863636 
L 659.659466 -44.863636 
L 657.604895 -44.863636 
L 655.550325 -44.863636 
L 653.495754 -44.863636 
L 651.441184 -44.863636 
L 645.277473 -44.863636 
L 643.222902 -44.863636 
L 641.168332 -44.863636 
L 639.113761 -44.863636 
L 637.059191 -44.863636 
L 630.89548 -44.863636 
L 628.840909 -44.863636 
L 626.786339 -44.863636 
L 624.731768 -44.863636 
L 622.677198 -44.863636 
L 616.513487 -44.863636 
L 614.458916 -44.863636 
L 612.404346 -44.863636 
L 610.349775 -44.863636 
L 608.295205 -44.863636 
L 602.131494 -44.863636 
L 600.076923 -44.863636 
L 598.022353 -44.863636 
L 595.967782 -44.863636 
L 593.913212 -44.863636 
L 587.7495 -44.863636 
L 585.69493 -44.863636 
L 583.64036 -44.863636 
L 581.585789 -44.863636 
L 579.531219 -44.863636 
L 573.367507 -44.863636 
L 571.312937 -44.863636 
L 569.258367 -44.863636 
L 565.149226 -44.863636 
L 558.985514 -44.863636 
L 556.930944 -44.863636 
L 554.876374 -44.863636 
L 552.821803 -44.863636 
L 550.767233 -44.863636 
L 544.603521 -44.863636 
L 542.548951 -44.863636 
L 540.494381 -44.863636 
L 538.43981 -44.863636 
L 530.221528 -44.863636 
L 528.166958 -44.863636 
L 526.112388 -44.863636 
L 524.057817 -44.863636 
L 522.003247 -44.863636 
L 515.839535 -44.863636 
L 513.784965 -44.863636 
L 511.730395 -44.863636 
L 509.675824 -44.863636 
L 507.621254 -44.863636 
L 501.457542 -44.863636 
L 499.402972 -44.863636 
L 497.348402 -44.863636 
L 495.293831 -44.863636 
L 487.075549 -44.863636 
L 485.020979 -44.863636 
L 482.966409 -44.863636 
L 480.911838 -44.863636 
L 478.857268 -44.863636 
L 472.693556 -44.863636 
L 470.638986 -44.863636 
L 468.584416 -44.863636 
L 466.529845 -44.863636 
L 464.475275 -44.863636 
L 458.311563 -44.863636 
L 456.256993 -44.863636 
L 454.202423 -44.863636 
L 452.147852 -44.863636 
L 450.093282 -44.863636 
L 443.92957 -44.863636 
L 441.875 -44.863636 
L 439.82043 -44.863636 
L 437.765859 -44.863636 
L 435.711289 -44.863636 
L 429.547577 -44.863636 
L 427.493007 -44.863636 
L 425.438437 -44.863636 
L 423.383866 -44.863636 
L 421.329296 -44.863636 
L 415.165584 -44.863636 
L 413.111014 -44.863636 
L 411.056444 -44.863636 
L 409.001873 -44.863636 
L 406.947303 -44.863636 
L 400.783591 -44.863636 
L 398.729021 -44.863636 
L 396.674451 -44.863636 
L 394.61988 -44.863636 
L 392.56531 -44.863636 
L 384.347028 -44.863636 
L 382.292458 -44.863636 
L 380.237887 -44.863636 
L 378.183317 -44.863636 
L 372.019605 -44.863636 
L 369.965035 -44.863636 
L 367.910465 -44.863636 
L 365.855894 -44.863636 
L 363.801324 -44.863636 
L 357.637612 -44.863636 
L 355.583042 -44.863636 
L 353.528472 -44.863636 
L 351.473901 -44.863636 
L 349.419331 -44.863636 
L 343.255619 -44.863636 
L 341.201049 -44.863636 
L 339.146479 -44.863636 
L 337.091908 -44.863636 
L 335.037338 -44.863636 
L 328.873626 -44.863636 
L 326.819056 -44.863636 
L 324.764486 -44.863636 
L 322.709915 -44.863636 
L 320.655345 -44.863636 
L 314.491633 -44.863636 
L 312.437063 -44.863636 
L 310.382493 -44.863636 
L 308.327922 -44.863636 
L 306.273352 -44.863636 
L 300.10964 -44.863636 
L 298.05507 -44.863636 
L 296.0005 -44.863636 
L 293.945929 -44.863636 
L 285.727647 -44.863636 
L 283.673077 -44.863636 
L 281.618506 -44.863636 
L 279.563936 -44.863636 
L 277.509366 -44.863636 
L 271.345654 -44.863636 
L 269.291084 -44.863636 
L 267.236513 -44.863636 
L 265.181943 -44.863636 
L 263.127373 -44.863636 
L 256.963661 -44.863636 
L 254.909091 -44.863636 
L 252.85452 -44.863636 
L 250.79995 -44.863636 
L 248.74538 -44.863636 
L 242.581668 -44.863636 
L 240.527098 -44.863636 
L 238.472527 -44.863636 
L 236.417957 -44.863636 
L 234.363387 -44.863636 
L 228.199675 -44.863636 
L 226.145105 -44.863636 
L 224.090534 -44.863636 
L 222.035964 -44.863636 
L 213.817682 -44.863636 
L 211.763112 -44.863636 
L 209.708541 -44.863636 
L 207.653971 -44.863636 
L 205.599401 -44.863636 
L 199.435689 -44.863636 
L 197.381119 -44.863636 
L 195.326548 -44.863636 
L 193.271978 -44.863636 
L 185.053696 -44.863636 
L 182.999126 -44.863636 
L 180.944555 -44.863636 
L 178.889985 -44.863636 
L 170.671703 -44.863636 
L 168.617133 -44.863636 
L 166.562562 -44.863636 
L 164.507992 -44.863636 
L 162.453422 -44.863636 
L 156.28971 -44.863636 
L 154.23514 -44.863636 
L 152.180569 -44.863636 
L 150.125999 -44.863636 
L 148.071429 -44.863636 
L 141.907717 -44.863636 
L 139.853147 -44.863636 
L 137.798576 -44.863636 
L 135.744006 -44.863636 
L 133.689436 -44.863636 
L 127.525724 -44.863636 
L 125.471154 -44.863636 
L 123.416583 -44.863636 
L 121.362013 -44.863636 
L 119.307443 -44.863636 
L 113.143731 -44.863636 
L 109.03459 -44.863636 
L 106.98002 -44.863636 
L 104.92545 -44.863636 
L 98.761738 -44.863636 
L 96.707168 -44.863636 
L 94.652597 -44.863636 
L 92.598027 -44.863636 
L 90.543457 -44.863636 
L 84.379745 -44.863636 
L 82.325175 -44.863636 
L 80.270604 -44.863636 
L 78.216034 -44.863636 
L 76.161464 -44.863636 
L 69.997752 -44.863636 
L 67.943182 -44.863636 
z
" id="m576c9d7065" style="stroke:#c6a2d2;"/>
    </defs>
    <g clip-path="url(#p63096746e9)">
     <use style="fill:#c6a2d2;stroke:#c6a2d2;" x="0" xlink:href="#m576c9d7065" y="432"/>
    </g>
   </g>
   <g id="matplotlib.axis_1">
    <g id="xtick_1">
     <g id="line2d_1">
      <defs>
       <path d="M 0 0 
L 0 3.5 
" id="ma8f8c013ec" style="stroke:#000000;stroke-width:0.8;"/>
      </defs>
      <g>
       <use style="stroke:#000000;stroke-width:0.8;" x="63.834041" xlink:href="#ma8f8c013ec" y="404.2"/>
      </g>
     </g>
     <g id="text_1">
      <!-- 2022-11 -->
      <defs>
       <path d="M 19.1875 8.296875 
L 53.609375 8.296875 
L 53.609375 0 
L 7.328125 0 
L 7.328125 8.296875 
Q 12.9375 14.109375 22.625 23.890625 
Q 32.328125 33.6875 34.8125 36.53125 
Q 39.546875 41.84375 41.421875 45.53125 
Q 43.3125 49.21875 43.3125 52.78125 
Q 43.3125 58.59375 39.234375 62.25 
Q 35.15625 65.921875 28.609375 65.921875 
Q 23.96875 65.921875 18.8125 64.3125 
Q 13.671875 62.703125 7.8125 59.421875 
L 7.8125 69.390625 
Q 13.765625 71.78125 18.9375 73 
Q 24.125 74.21875 28.421875 74.21875 
Q 39.75 74.21875 46.484375 68.546875 
Q 53.21875 62.890625 53.21875 53.421875 
Q 53.21875 48.921875 51.53125 44.890625 
Q 49.859375 40.875 45.40625 35.40625 
Q 44.1875 33.984375 37.640625 27.21875 
Q 31.109375 20.453125 19.1875 8.296875 
z
" id="DejaVuSans-50"/>
       <path d="M 31.78125 66.40625 
Q 24.171875 66.40625 20.328125 58.90625 
Q 16.5 51.421875 16.5 36.375 
Q 16.5 21.390625 20.328125 13.890625 
Q 24.171875 6.390625 31.78125 6.390625 
Q 39.453125 6.390625 43.28125 13.890625 
Q 47.125 21.390625 47.125 36.375 
Q 47.125 51.421875 43.28125 58.90625 
Q 39.453125 66.40625 31.78125 66.40625 
z
M 31.78125 74.21875 
Q 44.046875 74.21875 50.515625 64.515625 
Q 56.984375 54.828125 56.984375 36.375 
Q 56.984375 17.96875 50.515625 8.265625 
Q 44.046875 -1.421875 31.78125 -1.421875 
Q 19.53125 -1.421875 13.0625 8.265625 
Q 6.59375 17.96875 6.59375 36.375 
Q 6.59375 54.828125 13.0625 64.515625 
Q 19.53125 74.21875 31.78125 74.21875 
z
" id="DejaVuSans-48"/>
       <path d="M 4.890625 31.390625 
L 31.203125 31.390625 
L 31.203125 23.390625 
L 4.890625 23.390625 
z
" id="DejaVuSans-45"/>
       <path d="M 12.40625 8.296875 
L 28.515625 8.296875 
L 28.515625 63.921875 
L 10.984375 60.40625 
L 10.984375 69.390625 
L 28.421875 72.90625 
L 38.28125 72.90625 
L 38.28125 8.296875 
L 54.390625 8.296875 
L 54.390625 0 
L 12.40625 0 
z
" id="DejaVuSans-49"/>
      </defs>
      <g transform="translate(42.942635 418.798437)scale(0.1 -0.1)">
       <use xlink:href="#DejaVuSans-50"/>
       <use x="63.623047" xlink:href="#DejaVuSans-48"/>
       <use x="127.246094" xlink:href="#DejaVuSans-50"/>
       <use x="190.869141" xlink:href="#DejaVuSans-50"/>
       <use x="254.492188" xlink:href="#DejaVuSans-45"/>
       <use x="290.576172" xlink:href="#DejaVuSans-49"/>
       <use x="354.199219" xlink:href="#DejaVuSans-49"/>
      </g>
     </g>
    </g>
    <g id="xtick_2">
     <g id="line2d_2">
      <g>
       <use style="stroke:#000000;stroke-width:0.8;" x="189.162837" xlink:href="#ma8f8c013ec" y="404.2"/>
      </g>
     </g>
     <g id="text_2">
      <!-- 2023-01 -->
      <defs>
       <path d="M 40.578125 39.3125 
Q 47.65625 37.796875 51.625 33 
Q 55.609375 28.21875 55.609375 21.1875 
Q 55.609375 10.40625 48.1875 4.484375 
Q 40.765625 -1.421875 27.09375 -1.421875 
Q 22.515625 -1.421875 17.65625 -0.515625 
Q 12.796875 0.390625 7.625 2.203125 
L 7.625 11.71875 
Q 11.71875 9.328125 16.59375 8.109375 
Q 21.484375 6.890625 26.8125 6.890625 
Q 36.078125 6.890625 40.9375 10.546875 
Q 45.796875 14.203125 45.796875 21.1875 
Q 45.796875 27.640625 41.28125 31.265625 
Q 36.765625 34.90625 28.71875 34.90625 
L 20.21875 34.90625 
L 20.21875 43.015625 
L 29.109375 43.015625 
Q 36.375 43.015625 40.234375 45.921875 
Q 44.09375 48.828125 44.09375 54.296875 
Q 44.09375 59.90625 40.109375 62.90625 
Q 36.140625 65.921875 28.71875 65.921875 
Q 24.65625 65.921875 20.015625 65.03125 
Q 15.375 64.15625 9.8125 62.3125 
L 9.8125 71.09375 
Q 15.4375 72.65625 20.34375 73.4375 
Q 25.25 74.21875 29.59375 74.21875 
Q 40.828125 74.21875 47.359375 69.109375 
Q 53.90625 64.015625 53.90625 55.328125 
Q 53.90625 49.265625 50.4375 45.09375 
Q 46.96875 40.921875 40.578125 39.3125 
z
" id="DejaVuSans-51"/>
      </defs>
      <g transform="translate(168.271431 418.798437)scale(0.1 -0.1)">
       <use xlink:href="#DejaVuSans-50"/>
       <use x="63.623047" xlink:href="#DejaVuSans-48"/>
       <use x="127.246094" xlink:href="#DejaVuSans-50"/>
       <use x="190.869141" xlink:href="#DejaVuSans-51"/>
       <use x="254.492188" xlink:href="#DejaVuSans-45"/>
       <use x="290.576172" xlink:href="#DejaVuSans-48"/>
       <use x="354.199219" xlink:href="#DejaVuSans-49"/>
      </g>
     </g>
    </g>
    <g id="xtick_3">
     <g id="line2d_3">
      <g>
       <use style="stroke:#000000;stroke-width:0.8;" x="310.382493" xlink:href="#ma8f8c013ec" y="404.2"/>
      </g>
     </g>
     <g id="text_3">
      <!-- 2023-03 -->
      <g transform="translate(289.491086 418.798437)scale(0.1 -0.1)">
       <use xlink:href="#DejaVuSans-50"/>
       <use x="63.623047" xlink:href="#DejaVuSans-48"/>
       <use x="127.246094" xlink:href="#DejaVuSans-50"/>
       <use x="190.869141" xlink:href="#DejaVuSans-51"/>
       <use x="254.492188" xlink:href="#DejaVuSans-45"/>
       <use x="290.576172" xlink:href="#DejaVuSans-48"/>
       <use x="354.199219" xlink:href="#DejaVuSans-51"/>
      </g>
     </g>
    </g>
    <g id="xtick_4">
     <g id="line2d_4">
      <g>
       <use style="stroke:#000000;stroke-width:0.8;" x="435.711289" xlink:href="#ma8f8c013ec" y="404.2"/>
      </g>
     </g>
     <g id="text_4">
      <!-- 2023-05 -->
      <defs>
       <path d="M 10.796875 72.90625 
L 49.515625 72.90625 
L 49.515625 64.59375 
L 19.828125 64.59375 
L 19.828125 46.734375 
Q 21.96875 47.46875 24.109375 47.828125 
Q 26.265625 48.1875 28.421875 48.1875 
Q 40.625 48.1875 47.75 41.5 
Q 54.890625 34.8125 54.890625 23.390625 
Q 54.890625 11.625 47.5625 5.09375 
Q 40.234375 -1.421875 26.90625 -1.421875 
Q 22.3125 -1.421875 17.546875 -0.640625 
Q 12.796875 0.140625 7.71875 1.703125 
L 7.71875 11.625 
Q 12.109375 9.234375 16.796875 8.0625 
Q 21.484375 6.890625 26.703125 6.890625 
Q 35.15625 6.890625 40.078125 11.328125 
Q 45.015625 15.765625 45.015625 23.390625 
Q 45.015625 31 40.078125 35.4375 
Q 35.15625 39.890625 26.703125 39.890625 
Q 22.75 39.890625 18.8125 39.015625 
Q 14.890625 38.140625 10.796875 36.28125 
z
" id="DejaVuSans-53"/>
      </defs>
      <g transform="translate(414.819882 418.798437)scale(0.1 -0.1)">
       <use xlink:href="#DejaVuSans-50"/>
       <use x="63.623047" xlink:href="#DejaVuSans-48"/>
       <use x="127.246094" xlink:href="#DejaVuSans-50"/>
       <use x="190.869141" xlink:href="#DejaVuSans-51"/>
       <use x="254.492188" xlink:href="#DejaVuSans-45"/>
       <use x="290.576172" xlink:href="#DejaVuSans-48"/>
       <use x="354.199219" xlink:href="#DejaVuSans-53"/>
      </g>
     </g>
    </g>
    <g id="xtick_5">
     <g id="line2d_5">
      <g>
       <use style="stroke:#000000;stroke-width:0.8;" x="561.040085" xlink:href="#ma8f8c013ec" y="404.2"/>
      </g>
     </g>
     <g id="text_5">
      <!-- 2023-07 -->
      <defs>
       <path d="M 8.203125 72.90625 
L 55.078125 72.90625 
L 55.078125 68.703125 
L 28.609375 0 
L 18.3125 0 
L 43.21875 64.59375 
L 8.203125 64.59375 
z
" id="DejaVuSans-55"/>
      </defs>
      <g transform="translate(540.148679 418.798437)scale(0.1 -0.1)">
       <use xlink:href="#DejaVuSans-50"/>
       <use x="63.623047" xlink:href="#DejaVuSans-48"/>
       <use x="127.246094" xlink:href="#DejaVuSans-50"/>
       <use x="190.869141" xlink:href="#DejaVuSans-51"/>
       <use x="254.492188" xlink:href="#DejaVuSans-45"/>
       <use x="290.576172" xlink:href="#DejaVuSans-48"/>
       <use x="354.199219" xlink:href="#DejaVuSans-55"/>
      </g>
     </g>
    </g>
    <g id="xtick_6">
     <g id="line2d_6">
      <g>
       <use style="stroke:#000000;stroke-width:0.8;" x="688.423452" xlink:href="#ma8f8c013ec" y="404.2"/>
      </g>
     </g>
     <g id="text_6">
      <!-- 2023-09 -->
      <defs>
       <path d="M 10.984375 1.515625 
L 10.984375 10.5 
Q 14.703125 8.734375 18.5 7.8125 
Q 22.3125 6.890625 25.984375 6.890625 
Q 35.75 6.890625 40.890625 13.453125 
Q 46.046875 20.015625 46.78125 33.40625 
Q 43.953125 29.203125 39.59375 26.953125 
Q 35.25 24.703125 29.984375 24.703125 
Q 19.046875 24.703125 12.671875 31.3125 
Q 6.296875 37.9375 6.296875 49.421875 
Q 6.296875 60.640625 12.9375 67.421875 
Q 19.578125 74.21875 30.609375 74.21875 
Q 43.265625 74.21875 49.921875 64.515625 
Q 56.59375 54.828125 56.59375 36.375 
Q 56.59375 19.140625 48.40625 8.859375 
Q 40.234375 -1.421875 26.421875 -1.421875 
Q 22.703125 -1.421875 18.890625 -0.6875 
Q 15.09375 0.046875 10.984375 1.515625 
z
M 30.609375 32.421875 
Q 37.25 32.421875 41.125 36.953125 
Q 45.015625 41.5 45.015625 49.421875 
Q 45.015625 57.28125 41.125 61.84375 
Q 37.25 66.40625 30.609375 66.40625 
Q 23.96875 66.40625 20.09375 61.84375 
Q 16.21875 57.28125 16.21875 49.421875 
Q 16.21875 41.5 20.09375 36.953125 
Q 23.96875 32.421875 30.609375 32.421875 
z
" id="DejaVuSans-57"/>
      </defs>
      <g transform="translate(667.532045 418.798437)scale(0.1 -0.1)">
       <use xlink:href="#DejaVuSans-50"/>
       <use x="63.623047" xlink:href="#DejaVuSans-48"/>
       <use x="127.246094" xlink:href="#DejaVuSans-50"/>
       <use x="190.869141" xlink:href="#DejaVuSans-51"/>
       <use x="254.492188" xlink:href="#DejaVuSans-45"/>
       <use x="290.576172" xlink:href="#DejaVuSans-48"/>
       <use x="354.199219" xlink:href="#DejaVuSans-57"/>
      </g>
     </g>
    </g>
    <g id="xtick_7">
     <g id="line2d_7">
      <g>
       <use style="stroke:#000000;stroke-width:0.8;" x="813.752248" xlink:href="#ma8f8c013ec" y="404.2"/>
      </g>
     </g>
     <g id="text_7">
      <!-- 2023-11 -->
      <g transform="translate(792.860842 418.798437)scale(0.1 -0.1)">
       <use xlink:href="#DejaVuSans-50"/>
       <use x="63.623047" xlink:href="#DejaVuSans-48"/>
       <use x="127.246094" xlink:href="#DejaVuSans-50"/>
       <use x="190.869141" xlink:href="#DejaVuSans-51"/>
       <use x="254.492188" xlink:href="#DejaVuSans-45"/>
       <use x="290.576172" xlink:href="#DejaVuSans-49"/>
       <use x="354.199219" xlink:href="#DejaVuSans-49"/>
      </g>
     </g>
    </g>
   </g>
   <g id="matplotlib.axis_2">
    <g id="ytick_1">
     <g id="line2d_8">
      <defs>
       <path d="M 0 0 
L -3.5 0 
" id="m32d75ba6eb" style="stroke:#000000;stroke-width:0.8;"/>
      </defs>
      <g>
       <use style="stroke:#000000;stroke-width:0.8;" x="30.55" xlink:href="#m32d75ba6eb" y="387.136364"/>
      </g>
     </g>
     <g id="text_8">
      <!-- 0 -->
      <g transform="translate(17.1875 390.935582)scale(0.1 -0.1)">
       <use xlink:href="#DejaVuSans-48"/>
      </g>
     </g>
    </g>
    <g id="ytick_2">
     <g id="line2d_9">
      <g>
       <use style="stroke:#000000;stroke-width:0.8;" x="30.55" xlink:href="#m32d75ba6eb" y="331.590671"/>
      </g>
     </g>
     <g id="text_9">
      <!-- 5 -->
      <g transform="translate(17.1875 335.38989)scale(0.1 -0.1)">
       <use xlink:href="#DejaVuSans-53"/>
      </g>
     </g>
    </g>
    <g id="ytick_3">
     <g id="line2d_10">
      <g>
       <use style="stroke:#000000;stroke-width:0.8;" x="30.55" xlink:href="#m32d75ba6eb" y="276.044979"/>
      </g>
     </g>
     <g id="text_10">
      <!-- 10 -->
      <g transform="translate(10.825 279.844197)scale(0.1 -0.1)">
       <use xlink:href="#DejaVuSans-49"/>
       <use x="63.623047" xlink:href="#DejaVuSans-48"/>
      </g>
     </g>
    </g>
    <g id="ytick_4">
     <g id="line2d_11">
      <g>
       <use style="stroke:#000000;stroke-width:0.8;" x="30.55" xlink:href="#m32d75ba6eb" y="220.499286"/>
      </g>
     </g>
     <g id="text_11">
      <!-- 15 -->
      <g transform="translate(10.825 224.298505)scale(0.1 -0.1)">
       <use xlink:href="#DejaVuSans-49"/>
       <use x="63.623047" xlink:href="#DejaVuSans-53"/>
      </g>
     </g>
    </g>
    <g id="ytick_5">
     <g id="line2d_12">
      <g>
       <use style="stroke:#000000;stroke-width:0.8;" x="30.55" xlink:href="#m32d75ba6eb" y="164.953594"/>
      </g>
     </g>
     <g id="text_12">
      <!-- 20 -->
      <g transform="translate(10.825 168.752812)scale(0.1 -0.1)">
       <use xlink:href="#DejaVuSans-50"/>
       <use x="63.623047" xlink:href="#DejaVuSans-48"/>
      </g>
     </g>
    </g>
    <g id="ytick_6">
     <g id="line2d_13">
      <g>
       <use style="stroke:#000000;stroke-width:0.8;" x="30.55" xlink:href="#m32d75ba6eb" y="109.407901"/>
      </g>
     </g>
     <g id="text_13">
      <!-- 25 -->
      <g transform="translate(10.825 113.20712)scale(0.1 -0.1)">
       <use xlink:href="#DejaVuSans-50"/>
       <use x="63.623047" xlink:href="#DejaVuSans-53"/>
      </g>
     </g>
    </g>
    <g id="ytick_7">
     <g id="line2d_14">
      <g>
       <use style="stroke:#000000;stroke-width:0.8;" x="30.55" xlink:href="#m32d75ba6eb" y="53.862208"/>
      </g>
     </g>
     <g id="text_14">
      <!-- 30 -->
      <g transform="translate(10.825 57.661427)scale(0.1 -0.1)">
       <use xlink:href="#DejaVuSans-51"/>
       <use x="63.623047" xlink:href="#DejaVuSans-48"/>
      </g>
     </g>
    </g>
   </g>
   <g id="patch_3">
    <path d="M 30.55 404.2 
L 30.55 28.8 
" style="fill:none;stroke:#000000;stroke-linecap:square;stroke-linejoin:miter;stroke-width:0.8;"/>
   </g>
   <g id="patch_4">
    <path d="M 853.2 404.2 
L 853.2 28.8 
" style="fill:none;stroke:#000000;stroke-linecap:square;stroke-linejoin:miter;stroke-width:0.8;"/>
   </g>
   <g id="patch_5">
    <path d="M 30.55 404.2 
L 853.2 404.2 
" style="fill:none;stroke:#000000;stroke-linecap:square;stroke-linejoin:miter;stroke-width:0.8;"/>
   </g>
   <g id="patch_6">
    <path d="M 30.55 28.8 
L 853.2 28.8 
" style="fill:none;stroke:#000000;stroke-linecap:square;stroke-linejoin:miter;stroke-width:0.8;"/>
   </g>
   <g id="text_15">
    <!-- PINS - 34.86% -->
    <defs>
     <path d="M 9.1875 72.90625 
L 40.375 72.90625 
Q 54.296875 72.90625 61.734375 66.71875 
Q 69.1875 60.546875 69.1875 49.125 
Q 69.1875 37.640625 61.734375 31.46875 
Q 54.296875 25.296875 40.375 25.296875 
L 27.984375 25.296875 
L 27.984375 0 
L 9.1875 0 
z
M 27.984375 59.28125 
L 27.984375 38.921875 
L 38.375 38.921875 
Q 43.84375 38.921875 46.828125 41.578125 
Q 49.8125 44.234375 49.8125 49.125 
Q 49.8125 54 46.828125 56.640625 
Q 43.84375 59.28125 38.375 59.28125 
z
" id="DejaVuSans-Bold-80"/>
     <path d="M 9.1875 72.90625 
L 27.984375 72.90625 
L 27.984375 0 
L 9.1875 0 
z
" id="DejaVuSans-Bold-73"/>
     <path d="M 9.1875 72.90625 
L 30.171875 72.90625 
L 56.6875 22.90625 
L 56.6875 72.90625 
L 74.515625 72.90625 
L 74.515625 0 
L 53.515625 0 
L 27 50 
L 27 0 
L 9.1875 0 
z
" id="DejaVuSans-Bold-78"/>
     <path d="M 59.90625 70.609375 
L 59.90625 55.171875 
Q 53.90625 57.859375 48.1875 59.21875 
Q 42.484375 60.59375 37.40625 60.59375 
Q 30.671875 60.59375 27.4375 58.734375 
Q 24.21875 56.890625 24.21875 52.984375 
Q 24.21875 50.046875 26.390625 48.40625 
Q 28.5625 46.78125 34.28125 45.609375 
L 42.28125 44 
Q 54.4375 41.546875 59.5625 36.5625 
Q 64.703125 31.59375 64.703125 22.40625 
Q 64.703125 10.359375 57.546875 4.46875 
Q 50.390625 -1.421875 35.6875 -1.421875 
Q 28.765625 -1.421875 21.78125 -0.09375 
Q 14.796875 1.21875 7.8125 3.8125 
L 7.8125 19.671875 
Q 14.796875 15.96875 21.3125 14.078125 
Q 27.828125 12.203125 33.890625 12.203125 
Q 40.046875 12.203125 43.3125 14.25 
Q 46.578125 16.3125 46.578125 20.125 
Q 46.578125 23.53125 44.359375 25.390625 
Q 42.140625 27.25 35.5 28.71875 
L 28.21875 30.328125 
Q 17.28125 32.671875 12.21875 37.796875 
Q 7.171875 42.921875 7.171875 51.609375 
Q 7.171875 62.5 14.203125 68.359375 
Q 21.234375 74.21875 34.421875 74.21875 
Q 40.4375 74.21875 46.78125 73.3125 
Q 53.125 72.40625 59.90625 70.609375 
z
" id="DejaVuSans-Bold-83"/>
     <path id="DejaVuSans-Bold-32"/>
     <path d="M 5.421875 35.890625 
L 36.078125 35.890625 
L 36.078125 21.6875 
L 5.421875 21.6875 
z
" id="DejaVuSans-Bold-45"/>
     <path d="M 46.578125 39.3125 
Q 53.953125 37.40625 57.78125 32.6875 
Q 61.625 27.984375 61.625 20.703125 
Q 61.625 9.859375 53.3125 4.21875 
Q 45.015625 -1.421875 29.109375 -1.421875 
Q 23.484375 -1.421875 17.84375 -0.515625 
Q 12.203125 0.390625 6.6875 2.203125 
L 6.6875 16.703125 
Q 11.96875 14.0625 17.15625 12.71875 
Q 22.359375 11.375 27.390625 11.375 
Q 34.859375 11.375 38.84375 13.953125 
Q 42.828125 16.546875 42.828125 21.390625 
Q 42.828125 26.375 38.75 28.9375 
Q 34.671875 31.5 26.703125 31.5 
L 19.1875 31.5 
L 19.1875 43.609375 
L 27.09375 43.609375 
Q 34.1875 43.609375 37.640625 45.828125 
Q 41.109375 48.046875 41.109375 52.59375 
Q 41.109375 56.78125 37.734375 59.078125 
Q 34.375 61.375 28.21875 61.375 
Q 23.6875 61.375 19.046875 60.34375 
Q 14.40625 59.328125 9.8125 57.328125 
L 9.8125 71.09375 
Q 15.375 72.65625 20.84375 73.4375 
Q 26.3125 74.21875 31.59375 74.21875 
Q 45.796875 74.21875 52.84375 69.546875 
Q 59.90625 64.890625 59.90625 55.515625 
Q 59.90625 49.125 56.53125 45.046875 
Q 53.171875 40.96875 46.578125 39.3125 
z
" id="DejaVuSans-Bold-51"/>
     <path d="M 36.8125 57.421875 
L 16.21875 26.90625 
L 36.8125 26.90625 
z
M 33.6875 72.90625 
L 54.59375 72.90625 
L 54.59375 26.90625 
L 64.984375 26.90625 
L 64.984375 13.28125 
L 54.59375 13.28125 
L 54.59375 0 
L 36.8125 0 
L 36.8125 13.28125 
L 4.5 13.28125 
L 4.5 29.390625 
z
" id="DejaVuSans-Bold-52"/>
     <path d="M 10.203125 18.890625 
L 27.78125 18.890625 
L 27.78125 0 
L 10.203125 0 
z
" id="DejaVuSans-Bold-46"/>
     <path d="M 34.8125 32.625 
Q 29.546875 32.625 26.703125 29.734375 
Q 23.875 26.859375 23.875 21.484375 
Q 23.875 16.109375 26.703125 13.25 
Q 29.546875 10.40625 34.8125 10.40625 
Q 40.046875 10.40625 42.828125 13.25 
Q 45.609375 16.109375 45.609375 21.484375 
Q 45.609375 26.90625 42.828125 29.765625 
Q 40.046875 32.625 34.8125 32.625 
z
M 21.09375 38.8125 
Q 14.453125 40.828125 11.078125 44.96875 
Q 7.71875 49.125 7.71875 55.328125 
Q 7.71875 64.546875 14.59375 69.375 
Q 21.484375 74.21875 34.8125 74.21875 
Q 48.046875 74.21875 54.921875 69.40625 
Q 61.8125 64.59375 61.8125 55.328125 
Q 61.8125 49.125 58.421875 44.96875 
Q 55.03125 40.828125 48.390625 38.8125 
Q 55.8125 36.765625 59.59375 32.15625 
Q 63.375 27.546875 63.375 20.515625 
Q 63.375 9.671875 56.171875 4.125 
Q 48.96875 -1.421875 34.8125 -1.421875 
Q 20.609375 -1.421875 13.359375 4.125 
Q 6.109375 9.671875 6.109375 20.515625 
Q 6.109375 27.546875 9.890625 32.15625 
Q 13.671875 36.765625 21.09375 38.8125 
z
M 25.484375 53.421875 
Q 25.484375 49.078125 27.90625 46.734375 
Q 30.328125 44.390625 34.8125 44.390625 
Q 39.203125 44.390625 41.59375 46.734375 
Q 44 49.078125 44 53.421875 
Q 44 57.765625 41.59375 60.078125 
Q 39.203125 62.40625 34.8125 62.40625 
Q 30.328125 62.40625 27.90625 60.0625 
Q 25.484375 57.71875 25.484375 53.421875 
z
" id="DejaVuSans-Bold-56"/>
     <path d="M 36.1875 35.984375 
Q 31.25 35.984375 28.78125 32.78125 
Q 26.3125 29.59375 26.3125 23.1875 
Q 26.3125 16.796875 28.78125 13.59375 
Q 31.25 10.40625 36.1875 10.40625 
Q 41.15625 10.40625 43.625 13.59375 
Q 46.09375 16.796875 46.09375 23.1875 
Q 46.09375 29.59375 43.625 32.78125 
Q 41.15625 35.984375 36.1875 35.984375 
z
M 59.421875 71 
L 59.421875 57.515625 
Q 54.78125 59.71875 50.671875 60.765625 
Q 46.578125 61.8125 42.671875 61.8125 
Q 34.28125 61.8125 29.59375 57.140625 
Q 24.90625 52.484375 24.125 43.3125 
Q 27.34375 45.703125 31.09375 46.890625 
Q 34.859375 48.09375 39.3125 48.09375 
Q 50.484375 48.09375 57.34375 41.546875 
Q 64.203125 35.015625 64.203125 24.421875 
Q 64.203125 12.703125 56.53125 5.640625 
Q 48.875 -1.421875 35.984375 -1.421875 
Q 21.78125 -1.421875 13.984375 8.171875 
Q 6.203125 17.78125 6.203125 35.40625 
Q 6.203125 53.46875 15.3125 63.796875 
Q 24.421875 74.125 40.28125 74.125 
Q 45.3125 74.125 50.046875 73.34375 
Q 54.78125 72.5625 59.421875 71 
z
" id="DejaVuSans-Bold-54"/>
     <path d="M 77.484375 30.078125 
Q 74.03125 30.078125 72.125 27.078125 
Q 70.21875 24.078125 70.21875 18.5 
Q 70.21875 12.890625 72.09375 9.890625 
Q 73.96875 6.890625 77.484375 6.890625 
Q 81 6.890625 82.859375 9.890625 
Q 84.71875 12.890625 84.71875 18.5 
Q 84.71875 24.078125 82.828125 27.078125 
Q 80.953125 30.078125 77.484375 30.078125 
z
M 77.484375 38.28125 
Q 86.578125 38.28125 91.796875 33 
Q 97.015625 27.734375 97.015625 18.5 
Q 97.015625 9.28125 91.796875 3.921875 
Q 86.578125 -1.421875 77.484375 -1.421875 
Q 68.40625 -1.421875 63.15625 3.921875 
Q 57.90625 9.28125 57.90625 18.5 
Q 57.90625 27.6875 63.15625 32.984375 
Q 68.40625 38.28125 77.484375 38.28125 
z
M 32.71875 -1.421875 
L 21.921875 -1.421875 
L 67.484375 74.21875 
L 78.328125 74.21875 
z
M 22.703125 74.21875 
Q 31.78125 74.21875 36.984375 68.921875 
Q 42.1875 63.625 42.1875 54.390625 
Q 42.1875 45.171875 36.984375 39.84375 
Q 31.78125 34.515625 22.703125 34.515625 
Q 13.625 34.515625 8.421875 39.84375 
Q 3.21875 45.171875 3.21875 54.390625 
Q 3.21875 63.625 8.421875 68.921875 
Q 13.625 74.21875 22.703125 74.21875 
z
M 22.703125 66.015625 
Q 19.1875 66.015625 17.28125 62.984375 
Q 15.375 59.96875 15.375 54.390625 
Q 15.375 48.78125 17.28125 45.71875 
Q 19.1875 42.671875 22.703125 42.671875 
Q 26.21875 42.671875 28.09375 45.71875 
Q 29.984375 48.78125 29.984375 54.390625 
Q 29.984375 59.96875 28.078125 62.984375 
Q 26.171875 66.015625 22.703125 66.015625 
z
" id="DejaVuSans-Bold-37"/>
    </defs>
    <g transform="translate(30.55 22.8)scale(0.16 -0.16)">
     <use xlink:href="#DejaVuSans-Bold-80"/>
     <use x="73.291016" xlink:href="#DejaVuSans-Bold-73"/>
     <use x="110.498047" xlink:href="#DejaVuSans-Bold-78"/>
     <use x="194.189453" xlink:href="#DejaVuSans-Bold-83"/>
     <use x="266.210938" xlink:href="#DejaVuSans-Bold-32"/>
     <use x="301.025391" xlink:href="#DejaVuSans-Bold-45"/>
     <use x="342.529297" xlink:href="#DejaVuSans-Bold-32"/>
     <use x="377.34375" xlink:href="#DejaVuSans-Bold-51"/>
     <use x="446.923828" xlink:href="#DejaVuSans-Bold-52"/>
     <use x="516.503906" xlink:href="#DejaVuSans-Bold-46"/>
     <use x="554.492188" xlink:href="#DejaVuSans-Bold-56"/>
     <use x="624.072266" xlink:href="#DejaVuSans-Bold-54"/>
     <use x="693.652344" xlink:href="#DejaVuSans-Bold-37"/>
    </g>
   </g>
  </g>
 </g>
 <defs>
  <clipPath id="p63096746e9">
   <rect height="375.4" width="822.65" x="30.55" y="28.8"/>
  </clipPath>
 </defs>
</svg>
