<?xml version="1.0" encoding="utf-8" standalone="no"?>
<!DOCTYPE svg PUBLIC "-//W3C//DTD SVG 1.1//EN"
  "http://www.w3.org/Graphics/SVG/1.1/DTD/svg11.dtd">
<!-- Created with matplotlib (https://matplotlib.org/) -->
<svg height="432pt" version="1.1" viewBox="0 0 864 432" width="864pt" xmlns="http://www.w3.org/2000/svg" xmlns:xlink="http://www.w3.org/1999/xlink">
 <defs>
  <style type="text/css">
*{stroke-linecap:butt;stroke-linejoin:round;}
  </style>
 </defs>
 <g id="figure_1">
  <g id="patch_1">
   <path d="M 0 432 
L 864 432 
L 864 0 
L 0 0 
z
" style="fill:#ffffff;"/>
  </g>
  <g id="axes_1">
   <g id="patch_2">
    <path d="M 30.55 404.2 
L 853.2 404.2 
L 853.2 28.8 
L 30.55 28.8 
z
" style="fill:#ffffff;"/>
   </g>
   <g id="PolyCollection_1">
    <defs>
     <path d="M 67.943182 -44.863636 
L 67.943182 -303.982846 
L 69.997752 -302.623534 
L 76.161464 -305.2572 
L 78.216034 -307.211209 
L 80.270604 -296.846447 
L 82.325175 -307.805923 
L 84.379745 -306.361651 
L 90.543457 -308.825399 
L 92.598027 -312.988296 
L 94.652597 -303.812928 
L 96.707168 -303.897887 
L 98.761738 -306.106774 
L 104.92545 -303.558067 
L 106.98002 -303.812928 
L 109.03459 -304.91738 
L 113.143731 -303.64301 
L 119.307443 -295.826971 
L 121.362013 -295.147298 
L 123.416583 -292.853468 
L 125.471154 -301.858918 
L 127.525724 -296.421668 
L 133.689436 -293.618084 
L 135.744006 -291.409197 
L 137.798576 -288.520653 
L 139.853147 -292.428673 
L 141.907717 -292.428673 
L 148.071429 -298.1208 
L 150.125999 -301.264221 
L 152.180569 -305.2572 
L 154.23514 -291.918935 
L 156.28971 -288.010915 
L 162.453422 -278.665629 
L 164.507992 -280.619639 
L 166.562562 -280.364762 
L 168.617133 -273.908019 
L 170.671703 -271.274352 
L 178.889985 -269.235384 
L 180.944555 -268.130948 
L 182.999126 -274.587691 
L 185.053696 -272.208886 
L 193.271978 -275.522208 
L 195.326548 -273.313321 
L 197.381119 -266.00702 
L 199.435689 -271.444271 
L 205.599401 -269.150425 
L 207.653971 -269.660163 
L 209.708541 -270.594696 
L 211.763112 -270.169917 
L 213.817682 -269.660163 
L 222.035964 -275.437249 
L 224.090534 -272.038968 
L 226.145105 -264.81761 
L 228.199675 -265.837102 
L 234.363387 -274.672634 
L 236.417957 -279.855023 
L 238.472527 -279.430244 
L 240.527098 -284.782536 
L 242.581668 -285.292274 
L 248.74538 -285.462192 
L 250.79995 -290.72954 
L 252.85452 -295.911913 
L 254.909091 -302.028836 
L 256.963661 -298.970375 
L 263.127373 -295.062355 
L 265.181943 -301.858918 
L 267.236513 -303.473108 
L 269.291084 -307.551046 
L 271.345654 -304.407625 
L 277.509366 -306.616512 
L 279.563936 -310.949327 
L 281.618506 -316.386578 
L 283.673077 -313.243173 
L 285.727647 -303.812928 
L 293.945929 -295.402175 
L 296.0005 -291.918935 
L 298.05507 -295.062355 
L 300.10964 -283.508182 
L 306.273352 -287.925956 
L 308.327922 -287.331259 
L 310.382493 -289.455187 
L 312.437063 -252.413878 
L 314.491633 -253.518314 
L 320.655345 -252.668739 
L 322.709915 -252.159001 
L 324.764486 -254.962585 
L 326.819056 -246.80671 
L 328.873626 -244.088084 
L 335.037338 -241.029623 
L 337.091908 -244.173027 
L 339.146479 -243.23851 
L 341.201049 -249.780212 
L 343.255619 -249.185499 
L 349.419331 -251.479345 
L 351.473901 -257.936088 
L 353.528472 -253.008575 
L 355.583042 -249.780212 
L 357.637612 -246.80671 
L 363.801324 -248.590801 
L 365.855894 -247.656284 
L 367.910465 -254.19797 
L 369.965035 -255.132503 
L 372.019605 -261.589246 
L 378.183317 -261.674205 
L 380.237887 -263.033518 
L 382.292458 -259.975056 
L 384.347028 -262.52378 
L 392.56531 -266.091979 
L 394.61988 -267.366333 
L 396.674451 -263.628215 
L 398.729021 -266.856578 
L 400.783591 -266.176922 
L 406.947303 -265.497266 
L 409.001873 -266.176922 
L 411.056444 -253.348412 
L 413.111014 -247.571325 
L 415.165584 -242.643813 
L 421.329296 -239.840229 
L 423.383866 -234.148101 
L 425.438437 -237.291505 
L 427.493007 -238.650818 
L 429.547577 -238.820736 
L 435.711289 -240.604844 
L 437.765859 -236.017152 
L 439.82043 -233.893224 
L 441.875 -233.638347 
L 443.92957 -237.206546 
L 450.093282 -238.14108 
L 452.147852 -241.199541 
L 454.202423 -240.604844 
L 456.256993 -239.755269 
L 458.311563 -242.303977 
L 464.475275 -245.532356 
L 466.529845 -246.127053 
L 468.584416 -249.185499 
L 470.638986 -255.727201 
L 472.693556 -250.799688 
L 478.857268 -255.897119 
L 480.911838 -253.178493 
L 482.966409 -253.263453 
L 485.020979 -264.81761 
L 487.075549 -279.005449 
L 495.293831 -294.63756 
L 497.348402 -289.455187 
L 499.402972 -336.096626 
L 501.457542 -335.841765 
L 507.621254 -337.201078 
L 509.675824 -341.363991 
L 511.730395 -333.887756 
L 513.784965 -338.390472 
L 515.839535 -345.356953 
L 522.003247 -352.40841 
L 524.057817 -355.806675 
L 526.112388 -362.263434 
L 528.166958 -364.302387 
L 530.221528 -365.491814 
L 538.43981 -359.374891 
L 540.494381 -351.558819 
L 542.548951 -356.231487 
L 544.603521 -349.434891 
L 550.767233 -346.971159 
L 552.821803 -349.944646 
L 554.876374 -349.519867 
L 556.930944 -351.898655 
L 558.985514 -357.675742 
L 565.149226 -360.054531 
L 569.258367 -358.270439 
L 571.312937 -357.930603 
L 573.367507 -361.328901 
L 579.531219 -368.890079 
L 581.585789 -369.399833 
L 583.64036 -363.452829 
L 585.69493 -370.41931 
L 587.7495 -367.021012 
L 593.913212 -371.94854 
L 595.967782 -372.798099 
L 598.022353 -372.713156 
L 600.076923 -364.642223 
L 602.131494 -359.79967 
L 608.295205 -366.766151 
L 610.349775 -373.90255 
L 612.404346 -369.314858 
L 614.458916 -367.785627 
L 616.513487 -363.877608 
L 622.677198 -359.12003 
L 624.731768 -364.472305 
L 626.786339 -363.112992 
L 628.840909 -364.132501 
L 630.89548 -363.877608 
L 637.059191 -364.812141 
L 639.113761 -358.950112 
L 641.168332 -352.238492 
L 643.222902 -354.702256 
L 645.277473 -350.879179 
L 651.441184 -356.146511 
L 653.495754 -355.466871 
L 655.550325 -359.12003 
L 657.604895 -355.211978 
L 659.659466 -357.675742 
L 665.823177 -361.923598 
L 667.877747 -363.02805 
L 669.932318 -367.615742 
L 671.986888 -348.075579 
L 674.041459 -348.755251 
L 680.20517 -350.794204 
L 682.25974 -353.427886 
L 684.314311 -354.787199 
L 686.368881 -355.721732 
L 688.423452 -370.759146 
L 696.641733 -386.136364 
L 698.696304 -381.718622 
L 700.750874 -375.85656 
L 702.805445 -377.045955 
L 708.969156 -377.725627 
L 711.023726 -370.164449 
L 713.078297 -361.838655 
L 715.132867 -358.355415 
L 717.187438 -352.833189 
L 723.351149 -349.944646 
L 725.405719 -350.539343 
L 727.46029 -348.245497 
L 729.51486 -339.325006 
L 731.569431 -339.070145 
L 737.733142 -332.783304 
L 739.787712 -329.385039 
L 741.842283 -337.88075 
L 743.896853 -343.148083 
L 745.951424 -347.480881 
L 752.115135 -346.801241 
L 754.169705 -336.266544 
L 756.224276 -337.03116 
L 758.278846 -337.455939 
L 760.333417 -345.187035 
L 766.497128 -343.402944 
L 768.551698 -351.473876 
L 770.606269 -355.636789 
L 772.660839 -349.859703 
L 774.71541 -343.148083 
L 780.879121 -347.22602 
L 782.933691 -346.206544 
L 784.988262 -336.011683 
L 787.042832 -332.358525 
L 789.097403 -325.901798 
L 795.261114 -328.705366 
L 797.315684 -333.462976 
L 799.370255 -326.836299 
L 801.424825 -321.484024 
L 803.479396 -324.797347 
L 809.643107 -324.967265 
L 811.697677 -332.103664 
L 813.752248 -334.312535 
L 815.806818 -335.586904 
L 815.806818 -44.863636 
L 815.806818 -44.863636 
L 813.752248 -44.863636 
L 811.697677 -44.863636 
L 809.643107 -44.863636 
L 803.479396 -44.863636 
L 801.424825 -44.863636 
L 799.370255 -44.863636 
L 797.315684 -44.863636 
L 795.261114 -44.863636 
L 789.097403 -44.863636 
L 787.042832 -44.863636 
L 784.988262 -44.863636 
L 782.933691 -44.863636 
L 780.879121 -44.863636 
L 774.71541 -44.863636 
L 772.660839 -44.863636 
L 770.606269 -44.863636 
L 768.551698 -44.863636 
L 766.497128 -44.863636 
L 760.333417 -44.863636 
L 758.278846 -44.863636 
L 756.224276 -44.863636 
L 754.169705 -44.863636 
L 752.115135 -44.863636 
L 745.951424 -44.863636 
L 743.896853 -44.863636 
L 741.842283 -44.863636 
L 739.787712 -44.863636 
L 737.733142 -44.863636 
L 731.569431 -44.863636 
L 729.51486 -44.863636 
L 727.46029 -44.863636 
L 725.405719 -44.863636 
L 723.351149 -44.863636 
L 717.187438 -44.863636 
L 715.132867 -44.863636 
L 713.078297 -44.863636 
L 711.023726 -44.863636 
L 708.969156 -44.863636 
L 702.805445 -44.863636 
L 700.750874 -44.863636 
L 698.696304 -44.863636 
L 696.641733 -44.863636 
L 688.423452 -44.863636 
L 686.368881 -44.863636 
L 684.314311 -44.863636 
L 682.25974 -44.863636 
L 680.20517 -44.863636 
L 674.041459 -44.863636 
L 671.986888 -44.863636 
L 669.932318 -44.863636 
L 667.877747 -44.863636 
L 665.823177 -44.863636 
L 659.659466 -44.863636 
L 657.604895 -44.863636 
L 655.550325 -44.863636 
L 653.495754 -44.863636 
L 651.441184 -44.863636 
L 645.277473 -44.863636 
L 643.222902 -44.863636 
L 641.168332 -44.863636 
L 639.113761 -44.863636 
L 637.059191 -44.863636 
L 630.89548 -44.863636 
L 628.840909 -44.863636 
L 626.786339 -44.863636 
L 624.731768 -44.863636 
L 622.677198 -44.863636 
L 616.513487 -44.863636 
L 614.458916 -44.863636 
L 612.404346 -44.863636 
L 610.349775 -44.863636 
L 608.295205 -44.863636 
L 602.131494 -44.863636 
L 600.076923 -44.863636 
L 598.022353 -44.863636 
L 595.967782 -44.863636 
L 593.913212 -44.863636 
L 587.7495 -44.863636 
L 585.69493 -44.863636 
L 583.64036 -44.863636 
L 581.585789 -44.863636 
L 579.531219 -44.863636 
L 573.367507 -44.863636 
L 571.312937 -44.863636 
L 569.258367 -44.863636 
L 565.149226 -44.863636 
L 558.985514 -44.863636 
L 556.930944 -44.863636 
L 554.876374 -44.863636 
L 552.821803 -44.863636 
L 550.767233 -44.863636 
L 544.603521 -44.863636 
L 542.548951 -44.863636 
L 540.494381 -44.863636 
L 538.43981 -44.863636 
L 530.221528 -44.863636 
L 528.166958 -44.863636 
L 526.112388 -44.863636 
L 524.057817 -44.863636 
L 522.003247 -44.863636 
L 515.839535 -44.863636 
L 513.784965 -44.863636 
L 511.730395 -44.863636 
L 509.675824 -44.863636 
L 507.621254 -44.863636 
L 501.457542 -44.863636 
L 499.402972 -44.863636 
L 497.348402 -44.863636 
L 495.293831 -44.863636 
L 487.075549 -44.863636 
L 485.020979 -44.863636 
L 482.966409 -44.863636 
L 480.911838 -44.863636 
L 478.857268 -44.863636 
L 472.693556 -44.863636 
L 470.638986 -44.863636 
L 468.584416 -44.863636 
L 466.529845 -44.863636 
L 464.475275 -44.863636 
L 458.311563 -44.863636 
L 456.256993 -44.863636 
L 454.202423 -44.863636 
L 452.147852 -44.863636 
L 450.093282 -44.863636 
L 443.92957 -44.863636 
L 441.875 -44.863636 
L 439.82043 -44.863636 
L 437.765859 -44.863636 
L 435.711289 -44.863636 
L 429.547577 -44.863636 
L 427.493007 -44.863636 
L 425.438437 -44.863636 
L 423.383866 -44.863636 
L 421.329296 -44.863636 
L 415.165584 -44.863636 
L 413.111014 -44.863636 
L 411.056444 -44.863636 
L 409.001873 -44.863636 
L 406.947303 -44.863636 
L 400.783591 -44.863636 
L 398.729021 -44.863636 
L 396.674451 -44.863636 
L 394.61988 -44.863636 
L 392.56531 -44.863636 
L 384.347028 -44.863636 
L 382.292458 -44.863636 
L 380.237887 -44.863636 
L 378.183317 -44.863636 
L 372.019605 -44.863636 
L 369.965035 -44.863636 
L 367.910465 -44.863636 
L 365.855894 -44.863636 
L 363.801324 -44.863636 
L 357.637612 -44.863636 
L 355.583042 -44.863636 
L 353.528472 -44.863636 
L 351.473901 -44.863636 
L 349.419331 -44.863636 
L 343.255619 -44.863636 
L 341.201049 -44.863636 
L 339.146479 -44.863636 
L 337.091908 -44.863636 
L 335.037338 -44.863636 
L 328.873626 -44.863636 
L 326.819056 -44.863636 
L 324.764486 -44.863636 
L 322.709915 -44.863636 
L 320.655345 -44.863636 
L 314.491633 -44.863636 
L 312.437063 -44.863636 
L 310.382493 -44.863636 
L 308.327922 -44.863636 
L 306.273352 -44.863636 
L 300.10964 -44.863636 
L 298.05507 -44.863636 
L 296.0005 -44.863636 
L 293.945929 -44.863636 
L 285.727647 -44.863636 
L 283.673077 -44.863636 
L 281.618506 -44.863636 
L 279.563936 -44.863636 
L 277.509366 -44.863636 
L 271.345654 -44.863636 
L 269.291084 -44.863636 
L 267.236513 -44.863636 
L 265.181943 -44.863636 
L 263.127373 -44.863636 
L 256.963661 -44.863636 
L 254.909091 -44.863636 
L 252.85452 -44.863636 
L 250.79995 -44.863636 
L 248.74538 -44.863636 
L 242.581668 -44.863636 
L 240.527098 -44.863636 
L 238.472527 -44.863636 
L 236.417957 -44.863636 
L 234.363387 -44.863636 
L 228.199675 -44.863636 
L 226.145105 -44.863636 
L 224.090534 -44.863636 
L 222.035964 -44.863636 
L 213.817682 -44.863636 
L 211.763112 -44.863636 
L 209.708541 -44.863636 
L 207.653971 -44.863636 
L 205.599401 -44.863636 
L 199.435689 -44.863636 
L 197.381119 -44.863636 
L 195.326548 -44.863636 
L 193.271978 -44.863636 
L 185.053696 -44.863636 
L 182.999126 -44.863636 
L 180.944555 -44.863636 
L 178.889985 -44.863636 
L 170.671703 -44.863636 
L 168.617133 -44.863636 
L 166.562562 -44.863636 
L 164.507992 -44.863636 
L 162.453422 -44.863636 
L 156.28971 -44.863636 
L 154.23514 -44.863636 
L 152.180569 -44.863636 
L 150.125999 -44.863636 
L 148.071429 -44.863636 
L 141.907717 -44.863636 
L 139.853147 -44.863636 
L 137.798576 -44.863636 
L 135.744006 -44.863636 
L 133.689436 -44.863636 
L 127.525724 -44.863636 
L 125.471154 -44.863636 
L 123.416583 -44.863636 
L 121.362013 -44.863636 
L 119.307443 -44.863636 
L 113.143731 -44.863636 
L 109.03459 -44.863636 
L 106.98002 -44.863636 
L 104.92545 -44.863636 
L 98.761738 -44.863636 
L 96.707168 -44.863636 
L 94.652597 -44.863636 
L 92.598027 -44.863636 
L 90.543457 -44.863636 
L 84.379745 -44.863636 
L 82.325175 -44.863636 
L 80.270604 -44.863636 
L 78.216034 -44.863636 
L 76.161464 -44.863636 
L 69.997752 -44.863636 
L 67.943182 -44.863636 
z
" id="maac7d7d72f" style="stroke:#f0939d;"/>
    </defs>
    <g clip-path="url(#p5736e1f43a)">
     <use style="fill:#f0939d;stroke:#f0939d;" x="0" xlink:href="#maac7d7d72f" y="432"/>
    </g>
   </g>
   <g id="matplotlib.axis_1">
    <g id="xtick_1">
     <g id="line2d_1">
      <defs>
       <path d="M 0 0 
L 0 3.5 
" id="m9bd1940b4f" style="stroke:#000000;stroke-width:0.8;"/>
      </defs>
      <g>
       <use style="stroke:#000000;stroke-width:0.8;" x="63.834041" xlink:href="#m9bd1940b4f" y="404.2"/>
      </g>
     </g>
     <g id="text_1">
      <!-- 2022-11 -->
      <defs>
       <path d="M 19.1875 8.296875 
L 53.609375 8.296875 
L 53.609375 0 
L 7.328125 0 
L 7.328125 8.296875 
Q 12.9375 14.109375 22.625 23.890625 
Q 32.328125 33.6875 34.8125 36.53125 
Q 39.546875 41.84375 41.421875 45.53125 
Q 43.3125 49.21875 43.3125 52.78125 
Q 43.3125 58.59375 39.234375 62.25 
Q 35.15625 65.921875 28.609375 65.921875 
Q 23.96875 65.921875 18.8125 64.3125 
Q 13.671875 62.703125 7.8125 59.421875 
L 7.8125 69.390625 
Q 13.765625 71.78125 18.9375 73 
Q 24.125 74.21875 28.421875 74.21875 
Q 39.75 74.21875 46.484375 68.546875 
Q 53.21875 62.890625 53.21875 53.421875 
Q 53.21875 48.921875 51.53125 44.890625 
Q 49.859375 40.875 45.40625 35.40625 
Q 44.1875 33.984375 37.640625 27.21875 
Q 31.109375 20.453125 19.1875 8.296875 
z
" id="DejaVuSans-50"/>
       <path d="M 31.78125 66.40625 
Q 24.171875 66.40625 20.328125 58.90625 
Q 16.5 51.421875 16.5 36.375 
Q 16.5 21.390625 20.328125 13.890625 
Q 24.171875 6.390625 31.78125 6.390625 
Q 39.453125 6.390625 43.28125 13.890625 
Q 47.125 21.390625 47.125 36.375 
Q 47.125 51.421875 43.28125 58.90625 
Q 39.453125 66.40625 31.78125 66.40625 
z
M 31.78125 74.21875 
Q 44.046875 74.21875 50.515625 64.515625 
Q 56.984375 54.828125 56.984375 36.375 
Q 56.984375 17.96875 50.515625 8.265625 
Q 44.046875 -1.421875 31.78125 -1.421875 
Q 19.53125 -1.421875 13.0625 8.265625 
Q 6.59375 17.96875 6.59375 36.375 
Q 6.59375 54.828125 13.0625 64.515625 
Q 19.53125 74.21875 31.78125 74.21875 
z
" id="DejaVuSans-48"/>
       <path d="M 4.890625 31.390625 
L 31.203125 31.390625 
L 31.203125 23.390625 
L 4.890625 23.390625 
z
" id="DejaVuSans-45"/>
       <path d="M 12.40625 8.296875 
L 28.515625 8.296875 
L 28.515625 63.921875 
L 10.984375 60.40625 
L 10.984375 69.390625 
L 28.421875 72.90625 
L 38.28125 72.90625 
L 38.28125 8.296875 
L 54.390625 8.296875 
L 54.390625 0 
L 12.40625 0 
z
" id="DejaVuSans-49"/>
      </defs>
      <g transform="translate(42.942635 418.798437)scale(0.1 -0.1)">
       <use xlink:href="#DejaVuSans-50"/>
       <use x="63.623047" xlink:href="#DejaVuSans-48"/>
       <use x="127.246094" xlink:href="#DejaVuSans-50"/>
       <use x="190.869141" xlink:href="#DejaVuSans-50"/>
       <use x="254.492188" xlink:href="#DejaVuSans-45"/>
       <use x="290.576172" xlink:href="#DejaVuSans-49"/>
       <use x="354.199219" xlink:href="#DejaVuSans-49"/>
      </g>
     </g>
    </g>
    <g id="xtick_2">
     <g id="line2d_2">
      <g>
       <use style="stroke:#000000;stroke-width:0.8;" x="189.162837" xlink:href="#m9bd1940b4f" y="404.2"/>
      </g>
     </g>
     <g id="text_2">
      <!-- 2023-01 -->
      <defs>
       <path d="M 40.578125 39.3125 
Q 47.65625 37.796875 51.625 33 
Q 55.609375 28.21875 55.609375 21.1875 
Q 55.609375 10.40625 48.1875 4.484375 
Q 40.765625 -1.421875 27.09375 -1.421875 
Q 22.515625 -1.421875 17.65625 -0.515625 
Q 12.796875 0.390625 7.625 2.203125 
L 7.625 11.71875 
Q 11.71875 9.328125 16.59375 8.109375 
Q 21.484375 6.890625 26.8125 6.890625 
Q 36.078125 6.890625 40.9375 10.546875 
Q 45.796875 14.203125 45.796875 21.1875 
Q 45.796875 27.640625 41.28125 31.265625 
Q 36.765625 34.90625 28.71875 34.90625 
L 20.21875 34.90625 
L 20.21875 43.015625 
L 29.109375 43.015625 
Q 36.375 43.015625 40.234375 45.921875 
Q 44.09375 48.828125 44.09375 54.296875 
Q 44.09375 59.90625 40.109375 62.90625 
Q 36.140625 65.921875 28.71875 65.921875 
Q 24.65625 65.921875 20.015625 65.03125 
Q 15.375 64.15625 9.8125 62.3125 
L 9.8125 71.09375 
Q 15.4375 72.65625 20.34375 73.4375 
Q 25.25 74.21875 29.59375 74.21875 
Q 40.828125 74.21875 47.359375 69.109375 
Q 53.90625 64.015625 53.90625 55.328125 
Q 53.90625 49.265625 50.4375 45.09375 
Q 46.96875 40.921875 40.578125 39.3125 
z
" id="DejaVuSans-51"/>
      </defs>
      <g transform="translate(168.271431 418.798437)scale(0.1 -0.1)">
       <use xlink:href="#DejaVuSans-50"/>
       <use x="63.623047" xlink:href="#DejaVuSans-48"/>
       <use x="127.246094" xlink:href="#DejaVuSans-50"/>
       <use x="190.869141" xlink:href="#DejaVuSans-51"/>
       <use x="254.492188" xlink:href="#DejaVuSans-45"/>
       <use x="290.576172" xlink:href="#DejaVuSans-48"/>
       <use x="354.199219" xlink:href="#DejaVuSans-49"/>
      </g>
     </g>
    </g>
    <g id="xtick_3">
     <g id="line2d_3">
      <g>
       <use style="stroke:#000000;stroke-width:0.8;" x="310.382493" xlink:href="#m9bd1940b4f" y="404.2"/>
      </g>
     </g>
     <g id="text_3">
      <!-- 2023-03 -->
      <g transform="translate(289.491086 418.798437)scale(0.1 -0.1)">
       <use xlink:href="#DejaVuSans-50"/>
       <use x="63.623047" xlink:href="#DejaVuSans-48"/>
       <use x="127.246094" xlink:href="#DejaVuSans-50"/>
       <use x="190.869141" xlink:href="#DejaVuSans-51"/>
       <use x="254.492188" xlink:href="#DejaVuSans-45"/>
       <use x="290.576172" xlink:href="#DejaVuSans-48"/>
       <use x="354.199219" xlink:href="#DejaVuSans-51"/>
      </g>
     </g>
    </g>
    <g id="xtick_4">
     <g id="line2d_4">
      <g>
       <use style="stroke:#000000;stroke-width:0.8;" x="435.711289" xlink:href="#m9bd1940b4f" y="404.2"/>
      </g>
     </g>
     <g id="text_4">
      <!-- 2023-05 -->
      <defs>
       <path d="M 10.796875 72.90625 
L 49.515625 72.90625 
L 49.515625 64.59375 
L 19.828125 64.59375 
L 19.828125 46.734375 
Q 21.96875 47.46875 24.109375 47.828125 
Q 26.265625 48.1875 28.421875 48.1875 
Q 40.625 48.1875 47.75 41.5 
Q 54.890625 34.8125 54.890625 23.390625 
Q 54.890625 11.625 47.5625 5.09375 
Q 40.234375 -1.421875 26.90625 -1.421875 
Q 22.3125 -1.421875 17.546875 -0.640625 
Q 12.796875 0.140625 7.71875 1.703125 
L 7.71875 11.625 
Q 12.109375 9.234375 16.796875 8.0625 
Q 21.484375 6.890625 26.703125 6.890625 
Q 35.15625 6.890625 40.078125 11.328125 
Q 45.015625 15.765625 45.015625 23.390625 
Q 45.015625 31 40.078125 35.4375 
Q 35.15625 39.890625 26.703125 39.890625 
Q 22.75 39.890625 18.8125 39.015625 
Q 14.890625 38.140625 10.796875 36.28125 
z
" id="DejaVuSans-53"/>
      </defs>
      <g transform="translate(414.819882 418.798437)scale(0.1 -0.1)">
       <use xlink:href="#DejaVuSans-50"/>
       <use x="63.623047" xlink:href="#DejaVuSans-48"/>
       <use x="127.246094" xlink:href="#DejaVuSans-50"/>
       <use x="190.869141" xlink:href="#DejaVuSans-51"/>
       <use x="254.492188" xlink:href="#DejaVuSans-45"/>
       <use x="290.576172" xlink:href="#DejaVuSans-48"/>
       <use x="354.199219" xlink:href="#DejaVuSans-53"/>
      </g>
     </g>
    </g>
    <g id="xtick_5">
     <g id="line2d_5">
      <g>
       <use style="stroke:#000000;stroke-width:0.8;" x="561.040085" xlink:href="#m9bd1940b4f" y="404.2"/>
      </g>
     </g>
     <g id="text_5">
      <!-- 2023-07 -->
      <defs>
       <path d="M 8.203125 72.90625 
L 55.078125 72.90625 
L 55.078125 68.703125 
L 28.609375 0 
L 18.3125 0 
L 43.21875 64.59375 
L 8.203125 64.59375 
z
" id="DejaVuSans-55"/>
      </defs>
      <g transform="translate(540.148679 418.798437)scale(0.1 -0.1)">
       <use xlink:href="#DejaVuSans-50"/>
       <use x="63.623047" xlink:href="#DejaVuSans-48"/>
       <use x="127.246094" xlink:href="#DejaVuSans-50"/>
       <use x="190.869141" xlink:href="#DejaVuSans-51"/>
       <use x="254.492188" xlink:href="#DejaVuSans-45"/>
       <use x="290.576172" xlink:href="#DejaVuSans-48"/>
       <use x="354.199219" xlink:href="#DejaVuSans-55"/>
      </g>
     </g>
    </g>
    <g id="xtick_6">
     <g id="line2d_6">
      <g>
       <use style="stroke:#000000;stroke-width:0.8;" x="688.423452" xlink:href="#m9bd1940b4f" y="404.2"/>
      </g>
     </g>
     <g id="text_6">
      <!-- 2023-09 -->
      <defs>
       <path d="M 10.984375 1.515625 
L 10.984375 10.5 
Q 14.703125 8.734375 18.5 7.8125 
Q 22.3125 6.890625 25.984375 6.890625 
Q 35.75 6.890625 40.890625 13.453125 
Q 46.046875 20.015625 46.78125 33.40625 
Q 43.953125 29.203125 39.59375 26.953125 
Q 35.25 24.703125 29.984375 24.703125 
Q 19.046875 24.703125 12.671875 31.3125 
Q 6.296875 37.9375 6.296875 49.421875 
Q 6.296875 60.640625 12.9375 67.421875 
Q 19.578125 74.21875 30.609375 74.21875 
Q 43.265625 74.21875 49.921875 64.515625 
Q 56.59375 54.828125 56.59375 36.375 
Q 56.59375 19.140625 48.40625 8.859375 
Q 40.234375 -1.421875 26.421875 -1.421875 
Q 22.703125 -1.421875 18.890625 -0.6875 
Q 15.09375 0.046875 10.984375 1.515625 
z
M 30.609375 32.421875 
Q 37.25 32.421875 41.125 36.953125 
Q 45.015625 41.5 45.015625 49.421875 
Q 45.015625 57.28125 41.125 61.84375 
Q 37.25 66.40625 30.609375 66.40625 
Q 23.96875 66.40625 20.09375 61.84375 
Q 16.21875 57.28125 16.21875 49.421875 
Q 16.21875 41.5 20.09375 36.953125 
Q 23.96875 32.421875 30.609375 32.421875 
z
" id="DejaVuSans-57"/>
      </defs>
      <g transform="translate(667.532045 418.798437)scale(0.1 -0.1)">
       <use xlink:href="#DejaVuSans-50"/>
       <use x="63.623047" xlink:href="#DejaVuSans-48"/>
       <use x="127.246094" xlink:href="#DejaVuSans-50"/>
       <use x="190.869141" xlink:href="#DejaVuSans-51"/>
       <use x="254.492188" xlink:href="#DejaVuSans-45"/>
       <use x="290.576172" xlink:href="#DejaVuSans-48"/>
       <use x="354.199219" xlink:href="#DejaVuSans-57"/>
      </g>
     </g>
    </g>
    <g id="xtick_7">
     <g id="line2d_7">
      <g>
       <use style="stroke:#000000;stroke-width:0.8;" x="813.752248" xlink:href="#m9bd1940b4f" y="404.2"/>
      </g>
     </g>
     <g id="text_7">
      <!-- 2023-11 -->
      <g transform="translate(792.860842 418.798437)scale(0.1 -0.1)">
       <use xlink:href="#DejaVuSans-50"/>
       <use x="63.623047" xlink:href="#DejaVuSans-48"/>
       <use x="127.246094" xlink:href="#DejaVuSans-50"/>
       <use x="190.869141" xlink:href="#DejaVuSans-51"/>
       <use x="254.492188" xlink:href="#DejaVuSans-45"/>
       <use x="290.576172" xlink:href="#DejaVuSans-49"/>
       <use x="354.199219" xlink:href="#DejaVuSans-49"/>
      </g>
     </g>
    </g>
   </g>
   <g id="matplotlib.axis_2">
    <g id="ytick_1">
     <g id="line2d_8">
      <defs>
       <path d="M 0 0 
L -3.5 0 
" id="m3948a56dd2" style="stroke:#000000;stroke-width:0.8;"/>
      </defs>
      <g>
       <use style="stroke:#000000;stroke-width:0.8;" x="30.55" xlink:href="#m3948a56dd2" y="387.136364"/>
      </g>
     </g>
     <g id="text_8">
      <!-- 0 -->
      <g transform="translate(17.1875 390.935582)scale(0.1 -0.1)">
       <use xlink:href="#DejaVuSans-48"/>
      </g>
     </g>
    </g>
    <g id="ytick_2">
     <g id="line2d_9">
      <g>
       <use style="stroke:#000000;stroke-width:0.8;" x="30.55" xlink:href="#m3948a56dd2" y="344.657805"/>
      </g>
     </g>
     <g id="text_9">
      <!-- 5 -->
      <g transform="translate(17.1875 348.457023)scale(0.1 -0.1)">
       <use xlink:href="#DejaVuSans-53"/>
      </g>
     </g>
    </g>
    <g id="ytick_3">
     <g id="line2d_10">
      <g>
       <use style="stroke:#000000;stroke-width:0.8;" x="30.55" xlink:href="#m3948a56dd2" y="302.179246"/>
      </g>
     </g>
     <g id="text_10">
      <!-- 10 -->
      <g transform="translate(10.825 305.978464)scale(0.1 -0.1)">
       <use xlink:href="#DejaVuSans-49"/>
       <use x="63.623047" xlink:href="#DejaVuSans-48"/>
      </g>
     </g>
    </g>
    <g id="ytick_4">
     <g id="line2d_11">
      <g>
       <use style="stroke:#000000;stroke-width:0.8;" x="30.55" xlink:href="#m3948a56dd2" y="259.700687"/>
      </g>
     </g>
     <g id="text_11">
      <!-- 15 -->
      <g transform="translate(10.825 263.499905)scale(0.1 -0.1)">
       <use xlink:href="#DejaVuSans-49"/>
       <use x="63.623047" xlink:href="#DejaVuSans-53"/>
      </g>
     </g>
    </g>
    <g id="ytick_5">
     <g id="line2d_12">
      <g>
       <use style="stroke:#000000;stroke-width:0.8;" x="30.55" xlink:href="#m3948a56dd2" y="217.222128"/>
      </g>
     </g>
     <g id="text_12">
      <!-- 20 -->
      <g transform="translate(10.825 221.021346)scale(0.1 -0.1)">
       <use xlink:href="#DejaVuSans-50"/>
       <use x="63.623047" xlink:href="#DejaVuSans-48"/>
      </g>
     </g>
    </g>
    <g id="ytick_6">
     <g id="line2d_13">
      <g>
       <use style="stroke:#000000;stroke-width:0.8;" x="30.55" xlink:href="#m3948a56dd2" y="174.743569"/>
      </g>
     </g>
     <g id="text_13">
      <!-- 25 -->
      <g transform="translate(10.825 178.542787)scale(0.1 -0.1)">
       <use xlink:href="#DejaVuSans-50"/>
       <use x="63.623047" xlink:href="#DejaVuSans-53"/>
      </g>
     </g>
    </g>
    <g id="ytick_7">
     <g id="line2d_14">
      <g>
       <use style="stroke:#000000;stroke-width:0.8;" x="30.55" xlink:href="#m3948a56dd2" y="132.26501"/>
      </g>
     </g>
     <g id="text_14">
      <!-- 30 -->
      <g transform="translate(10.825 136.064229)scale(0.1 -0.1)">
       <use xlink:href="#DejaVuSans-51"/>
       <use x="63.623047" xlink:href="#DejaVuSans-48"/>
      </g>
     </g>
    </g>
    <g id="ytick_8">
     <g id="line2d_15">
      <g>
       <use style="stroke:#000000;stroke-width:0.8;" x="30.55" xlink:href="#m3948a56dd2" y="89.786451"/>
      </g>
     </g>
     <g id="text_15">
      <!-- 35 -->
      <g transform="translate(10.825 93.58567)scale(0.1 -0.1)">
       <use xlink:href="#DejaVuSans-51"/>
       <use x="63.623047" xlink:href="#DejaVuSans-53"/>
      </g>
     </g>
    </g>
    <g id="ytick_9">
     <g id="line2d_16">
      <g>
       <use style="stroke:#000000;stroke-width:0.8;" x="30.55" xlink:href="#m3948a56dd2" y="47.307892"/>
      </g>
     </g>
     <g id="text_16">
      <!-- 40 -->
      <defs>
       <path d="M 37.796875 64.3125 
L 12.890625 25.390625 
L 37.796875 25.390625 
z
M 35.203125 72.90625 
L 47.609375 72.90625 
L 47.609375 25.390625 
L 58.015625 25.390625 
L 58.015625 17.1875 
L 47.609375 17.1875 
L 47.609375 0 
L 37.796875 0 
L 37.796875 17.1875 
L 4.890625 17.1875 
L 4.890625 26.703125 
z
" id="DejaVuSans-52"/>
      </defs>
      <g transform="translate(10.825 51.107111)scale(0.1 -0.1)">
       <use xlink:href="#DejaVuSans-52"/>
       <use x="63.623047" xlink:href="#DejaVuSans-48"/>
      </g>
     </g>
    </g>
   </g>
   <g id="patch_3">
    <path d="M 30.55 404.2 
L 30.55 28.8 
" style="fill:none;stroke:#000000;stroke-linecap:square;stroke-linejoin:miter;stroke-width:0.8;"/>
   </g>
   <g id="patch_4">
    <path d="M 853.2 404.2 
L 853.2 28.8 
" style="fill:none;stroke:#000000;stroke-linecap:square;stroke-linejoin:miter;stroke-width:0.8;"/>
   </g>
   <g id="patch_5">
    <path d="M 30.55 404.2 
L 853.2 404.2 
" style="fill:none;stroke:#000000;stroke-linecap:square;stroke-linejoin:miter;stroke-width:0.8;"/>
   </g>
   <g id="patch_6">
    <path d="M 30.55 28.8 
L 853.2 28.8 
" style="fill:none;stroke:#000000;stroke-linecap:square;stroke-linejoin:miter;stroke-width:0.8;"/>
   </g>
   <g id="text_17">
    <!-- PSTG - 12.20% -->
    <defs>
     <path d="M 9.1875 72.90625 
L 40.375 72.90625 
Q 54.296875 72.90625 61.734375 66.71875 
Q 69.1875 60.546875 69.1875 49.125 
Q 69.1875 37.640625 61.734375 31.46875 
Q 54.296875 25.296875 40.375 25.296875 
L 27.984375 25.296875 
L 27.984375 0 
L 9.1875 0 
z
M 27.984375 59.28125 
L 27.984375 38.921875 
L 38.375 38.921875 
Q 43.84375 38.921875 46.828125 41.578125 
Q 49.8125 44.234375 49.8125 49.125 
Q 49.8125 54 46.828125 56.640625 
Q 43.84375 59.28125 38.375 59.28125 
z
" id="DejaVuSans-Bold-80"/>
     <path d="M 59.90625 70.609375 
L 59.90625 55.171875 
Q 53.90625 57.859375 48.1875 59.21875 
Q 42.484375 60.59375 37.40625 60.59375 
Q 30.671875 60.59375 27.4375 58.734375 
Q 24.21875 56.890625 24.21875 52.984375 
Q 24.21875 50.046875 26.390625 48.40625 
Q 28.5625 46.78125 34.28125 45.609375 
L 42.28125 44 
Q 54.4375 41.546875 59.5625 36.5625 
Q 64.703125 31.59375 64.703125 22.40625 
Q 64.703125 10.359375 57.546875 4.46875 
Q 50.390625 -1.421875 35.6875 -1.421875 
Q 28.765625 -1.421875 21.78125 -0.09375 
Q 14.796875 1.21875 7.8125 3.8125 
L 7.8125 19.671875 
Q 14.796875 15.96875 21.3125 14.078125 
Q 27.828125 12.203125 33.890625 12.203125 
Q 40.046875 12.203125 43.3125 14.25 
Q 46.578125 16.3125 46.578125 20.125 
Q 46.578125 23.53125 44.359375 25.390625 
Q 42.140625 27.25 35.5 28.71875 
L 28.21875 30.328125 
Q 17.28125 32.671875 12.21875 37.796875 
Q 7.171875 42.921875 7.171875 51.609375 
Q 7.171875 62.5 14.203125 68.359375 
Q 21.234375 74.21875 34.421875 74.21875 
Q 40.4375 74.21875 46.78125 73.3125 
Q 53.125 72.40625 59.90625 70.609375 
z
" id="DejaVuSans-Bold-83"/>
     <path d="M 0.484375 72.90625 
L 67.671875 72.90625 
L 67.671875 58.6875 
L 43.5 58.6875 
L 43.5 0 
L 24.703125 0 
L 24.703125 58.6875 
L 0.484375 58.6875 
z
" id="DejaVuSans-Bold-84"/>
     <path d="M 74.703125 5.421875 
Q 67.671875 2 60.109375 0.28125 
Q 52.546875 -1.421875 44.484375 -1.421875 
Q 26.265625 -1.421875 15.625 8.765625 
Q 4.984375 18.953125 4.984375 36.375 
Q 4.984375 54 15.8125 64.109375 
Q 26.65625 74.21875 45.515625 74.21875 
Q 52.78125 74.21875 59.4375 72.84375 
Q 66.109375 71.484375 72.015625 68.796875 
L 72.015625 53.71875 
Q 65.921875 57.171875 59.890625 58.875 
Q 53.859375 60.59375 47.796875 60.59375 
Q 36.578125 60.59375 30.5 54.3125 
Q 24.421875 48.046875 24.421875 36.375 
Q 24.421875 24.8125 30.28125 18.5 
Q 36.140625 12.203125 46.921875 12.203125 
Q 49.859375 12.203125 52.375 12.5625 
Q 54.890625 12.9375 56.890625 13.71875 
L 56.890625 27.875 
L 45.40625 27.875 
L 45.40625 40.484375 
L 74.703125 40.484375 
z
" id="DejaVuSans-Bold-71"/>
     <path id="DejaVuSans-Bold-32"/>
     <path d="M 5.421875 35.890625 
L 36.078125 35.890625 
L 36.078125 21.6875 
L 5.421875 21.6875 
z
" id="DejaVuSans-Bold-45"/>
     <path d="M 11.71875 12.984375 
L 28.328125 12.984375 
L 28.328125 60.109375 
L 11.28125 56.59375 
L 11.28125 69.390625 
L 28.21875 72.90625 
L 46.09375 72.90625 
L 46.09375 12.984375 
L 62.703125 12.984375 
L 62.703125 0 
L 11.71875 0 
z
" id="DejaVuSans-Bold-49"/>
     <path d="M 28.8125 13.8125 
L 60.890625 13.8125 
L 60.890625 0 
L 7.90625 0 
L 7.90625 13.8125 
L 34.515625 37.3125 
Q 38.09375 40.53125 39.796875 43.609375 
Q 41.5 46.6875 41.5 50 
Q 41.5 55.125 38.0625 58.25 
Q 34.625 61.375 28.90625 61.375 
Q 24.515625 61.375 19.28125 59.5 
Q 14.0625 57.625 8.109375 53.90625 
L 8.109375 69.921875 
Q 14.453125 72.015625 20.65625 73.109375 
Q 26.859375 74.21875 32.8125 74.21875 
Q 45.90625 74.21875 53.15625 68.453125 
Q 60.40625 62.703125 60.40625 52.390625 
Q 60.40625 46.4375 57.328125 41.28125 
Q 54.25 36.140625 44.390625 27.484375 
z
" id="DejaVuSans-Bold-50"/>
     <path d="M 10.203125 18.890625 
L 27.78125 18.890625 
L 27.78125 0 
L 10.203125 0 
z
" id="DejaVuSans-Bold-46"/>
     <path d="M 46 36.53125 
Q 46 50.203125 43.4375 55.78125 
Q 40.875 61.375 34.8125 61.375 
Q 28.765625 61.375 26.171875 55.78125 
Q 23.578125 50.203125 23.578125 36.53125 
Q 23.578125 22.703125 26.171875 17.03125 
Q 28.765625 11.375 34.8125 11.375 
Q 40.828125 11.375 43.40625 17.03125 
Q 46 22.703125 46 36.53125 
z
M 64.796875 36.375 
Q 64.796875 18.265625 56.984375 8.421875 
Q 49.171875 -1.421875 34.8125 -1.421875 
Q 20.40625 -1.421875 12.59375 8.421875 
Q 4.78125 18.265625 4.78125 36.375 
Q 4.78125 54.546875 12.59375 64.375 
Q 20.40625 74.21875 34.8125 74.21875 
Q 49.171875 74.21875 56.984375 64.375 
Q 64.796875 54.546875 64.796875 36.375 
z
" id="DejaVuSans-Bold-48"/>
     <path d="M 77.484375 30.078125 
Q 74.03125 30.078125 72.125 27.078125 
Q 70.21875 24.078125 70.21875 18.5 
Q 70.21875 12.890625 72.09375 9.890625 
Q 73.96875 6.890625 77.484375 6.890625 
Q 81 6.890625 82.859375 9.890625 
Q 84.71875 12.890625 84.71875 18.5 
Q 84.71875 24.078125 82.828125 27.078125 
Q 80.953125 30.078125 77.484375 30.078125 
z
M 77.484375 38.28125 
Q 86.578125 38.28125 91.796875 33 
Q 97.015625 27.734375 97.015625 18.5 
Q 97.015625 9.28125 91.796875 3.921875 
Q 86.578125 -1.421875 77.484375 -1.421875 
Q 68.40625 -1.421875 63.15625 3.921875 
Q 57.90625 9.28125 57.90625 18.5 
Q 57.90625 27.6875 63.15625 32.984375 
Q 68.40625 38.28125 77.484375 38.28125 
z
M 32.71875 -1.421875 
L 21.921875 -1.421875 
L 67.484375 74.21875 
L 78.328125 74.21875 
z
M 22.703125 74.21875 
Q 31.78125 74.21875 36.984375 68.921875 
Q 42.1875 63.625 42.1875 54.390625 
Q 42.1875 45.171875 36.984375 39.84375 
Q 31.78125 34.515625 22.703125 34.515625 
Q 13.625 34.515625 8.421875 39.84375 
Q 3.21875 45.171875 3.21875 54.390625 
Q 3.21875 63.625 8.421875 68.921875 
Q 13.625 74.21875 22.703125 74.21875 
z
M 22.703125 66.015625 
Q 19.1875 66.015625 17.28125 62.984375 
Q 15.375 59.96875 15.375 54.390625 
Q 15.375 48.78125 17.28125 45.71875 
Q 19.1875 42.671875 22.703125 42.671875 
Q 26.21875 42.671875 28.09375 45.71875 
Q 29.984375 48.78125 29.984375 54.390625 
Q 29.984375 59.96875 28.078125 62.984375 
Q 26.171875 66.015625 22.703125 66.015625 
z
" id="DejaVuSans-Bold-37"/>
    </defs>
    <g transform="translate(30.55 22.8)scale(0.16 -0.16)">
     <use xlink:href="#DejaVuSans-Bold-80"/>
     <use x="73.291016" xlink:href="#DejaVuSans-Bold-83"/>
     <use x="145.3125" xlink:href="#DejaVuSans-Bold-84"/>
     <use x="213.525391" xlink:href="#DejaVuSans-Bold-71"/>
     <use x="295.605469" xlink:href="#DejaVuSans-Bold-32"/>
     <use x="330.419922" xlink:href="#DejaVuSans-Bold-45"/>
     <use x="371.923828" xlink:href="#DejaVuSans-Bold-32"/>
     <use x="406.738281" xlink:href="#DejaVuSans-Bold-49"/>
     <use x="476.318359" xlink:href="#DejaVuSans-Bold-50"/>
     <use x="545.898438" xlink:href="#DejaVuSans-Bold-46"/>
     <use x="583.886719" xlink:href="#DejaVuSans-Bold-50"/>
     <use x="653.466797" xlink:href="#DejaVuSans-Bold-48"/>
     <use x="723.046875" xlink:href="#DejaVuSans-Bold-37"/>
    </g>
   </g>
  </g>
 </g>
 <defs>
  <clipPath id="p5736e1f43a">
   <rect height="375.4" width="822.65" x="30.55" y="28.8"/>
  </clipPath>
 </defs>
</svg>
