<?xml version="1.0" encoding="utf-8" standalone="no"?>
<!DOCTYPE svg PUBLIC "-//W3C//DTD SVG 1.1//EN"
  "http://www.w3.org/Graphics/SVG/1.1/DTD/svg11.dtd">
<!-- Created with matplotlib (https://matplotlib.org/) -->
<svg height="432pt" version="1.1" viewBox="0 0 864 432" width="864pt" xmlns="http://www.w3.org/2000/svg" xmlns:xlink="http://www.w3.org/1999/xlink">
 <defs>
  <style type="text/css">
*{stroke-linecap:butt;stroke-linejoin:round;}
  </style>
 </defs>
 <g id="figure_1">
  <g id="patch_1">
   <path d="M 0 432 
L 864 432 
L 864 0 
L 0 0 
z
" style="fill:none;"/>
  </g>
  <g id="axes_1">
   <g id="patch_2">
    <path d="M 75.175 385.2 
L 840.323864 385.2 
L 840.323864 88.8 
L 75.175 88.8 
z
" style="fill:none;"/>
   </g>
   <g id="PolyCollection_1">
    <path clip-path="url(#pdec9822a31)" d="M 109.954494 1400.740743 
L 109.954494 367.554752 
L 113.755531 346.360656 
L 117.556569 357.204122 
L 128.959682 362.921618 
L 132.760719 379.87688 
L 136.561757 385.2 
L 140.362794 375.342283 
L 144.163832 312.943045 
L 159.367982 257.247053 
L 163.16902 275.014785 
L 166.970057 250.993477 
L 170.771095 253.078002 
L 182.174208 281.764629 
L 185.975245 245.732667 
L 189.776283 257.445499 
L 193.57732 245.831967 
L 197.378358 218.435699 
L 208.781471 188.359491 
L 212.582508 165.628541 
L 216.383546 175.852492 
L 220.184583 173.767967 
L 223.985621 182.999305 
L 239.189771 211.388109 
L 242.990809 251.688344 
L 246.791846 245.335622 
L 250.592884 274.816339 
L 261.995997 243.052651 
L 265.797034 211.685931 
L 269.598072 234.019759 
L 273.399109 228.858248 
L 277.200147 219.130566 
L 288.60326 208.708093 
L 296.205335 238.08951 
L 300.006372 257.048454 
L 303.80741 249.901641 
L 315.210523 238.188733 
L 319.01156 240.670303 
L 322.812598 222.703972 
L 326.613636 178.631808 
L 330.414673 184.190517 
L 341.817786 175.852492 
L 345.618823 181.212602 
L 349.419861 165.727841 
L 353.220899 202.454593 
L 357.021936 162.749926 
L 368.425049 168.904202 
L 372.226086 159.275819 
L 376.027124 169.698292 
L 379.828162 151.533439 
L 383.629199 115.501477 
L 395.032312 88.8 
L 398.833349 89.69339 
L 402.634387 117.58585 
L 406.435425 222.50545 
L 410.236462 194.712213 
L 421.639575 216.152727 
L 425.440612 232.828624 
L 429.24165 243.648142 
L 433.042688 253.177302 
L 436.843725 263.103431 
L 448.246838 268.959885 
L 452.047875 292.187102 
L 455.848913 307.374117 
L 459.649951 308.068908 
L 463.450988 307.870462 
L 474.854101 302.113231 
L 478.655138 314.123885 
L 482.456176 297.249466 
L 486.257214 323.652968 
L 490.058251 305.686637 
L 501.461364 292.187102 
L 505.262401 271.342156 
L 509.063439 268.443253 
L 512.864477 255.847709 
L 516.665514 247.250759 
L 531.869665 235.654844 
L 535.670702 254.348227 
L 539.47174 337.118793 
L 543.272777 339.717891 
L 554.67589 298.332607 
L 558.476928 288.835937 
L 562.277965 274.740987 
L 566.079003 260.745946 
L 569.88004 269.742764 
L 581.283153 273.641372 
L 585.084191 293.934147 
L 588.885228 308.928817 
L 592.686266 321.524361 
L 596.487303 324.323354 
L 607.890416 296.833125 
L 611.691454 303.930593 
L 615.492491 309.228698 
L 619.293529 290.135524 
L 623.094566 290.535391 
L 634.497679 290.135524 
L 638.298717 299.232251 
L 642.099754 302.631083 
L 645.900792 303.130859 
L 649.701829 292.334755 
L 661.104942 283.137966 
L 664.90598 278.039833 
L 668.707017 289.935553 
L 672.508055 286.536797 
L 676.309092 314.526802 
L 687.712205 296.033391 
L 691.513243 279.139448 
L 695.31428 291.335049 
L 699.115318 288.336161 
L 702.916355 314.82676 
L 714.319468 314.526802 
L 718.120506 307.229439 
L 721.921543 353.313065 
L 725.722581 344.91601 
L 729.523618 336.519031 
L 740.926731 322.823872 
L 744.727769 311.228033 
L 748.528806 292.234769 
L 752.329844 227.557746 
L 756.130881 205.965461 
L 767.533994 201.866881 
L 771.335032 193.969679 
L 775.136069 200.567371 
L 778.937107 200.167503 
L 782.738144 159.082101 
L 794.141257 162.680828 
L 797.942295 127.593279 
L 801.743332 111.998846 
L 805.54437 114.198077 
L 805.54437 1400.740743 
L 805.54437 1400.740743 
L 801.743332 1400.740743 
L 797.942295 1400.740743 
L 794.141257 1400.740743 
L 782.738144 1400.740743 
L 778.937107 1400.740743 
L 775.136069 1400.740743 
L 771.335032 1400.740743 
L 767.533994 1400.740743 
L 756.130881 1400.740743 
L 752.329844 1400.740743 
L 748.528806 1400.740743 
L 744.727769 1400.740743 
L 740.926731 1400.740743 
L 729.523618 1400.740743 
L 725.722581 1400.740743 
L 721.921543 1400.740743 
L 718.120506 1400.740743 
L 714.319468 1400.740743 
L 702.916355 1400.740743 
L 699.115318 1400.740743 
L 695.31428 1400.740743 
L 691.513243 1400.740743 
L 687.712205 1400.740743 
L 676.309092 1400.740743 
L 672.508055 1400.740743 
L 668.707017 1400.740743 
L 664.90598 1400.740743 
L 661.104942 1400.740743 
L 649.701829 1400.740743 
L 645.900792 1400.740743 
L 642.099754 1400.740743 
L 638.298717 1400.740743 
L 634.497679 1400.740743 
L 623.094566 1400.740743 
L 619.293529 1400.740743 
L 615.492491 1400.740743 
L 611.691454 1400.740743 
L 607.890416 1400.740743 
L 596.487303 1400.740743 
L 592.686266 1400.740743 
L 588.885228 1400.740743 
L 585.084191 1400.740743 
L 581.283153 1400.740743 
L 569.88004 1400.740743 
L 566.079003 1400.740743 
L 562.277965 1400.740743 
L 558.476928 1400.740743 
L 554.67589 1400.740743 
L 543.272777 1400.740743 
L 539.47174 1400.740743 
L 535.670702 1400.740743 
L 531.869665 1400.740743 
L 516.665514 1400.740743 
L 512.864477 1400.740743 
L 509.063439 1400.740743 
L 505.262401 1400.740743 
L 501.461364 1400.740743 
L 490.058251 1400.740743 
L 486.257214 1400.740743 
L 482.456176 1400.740743 
L 478.655138 1400.740743 
L 474.854101 1400.740743 
L 463.450988 1400.740743 
L 459.649951 1400.740743 
L 455.848913 1400.740743 
L 452.047875 1400.740743 
L 448.246838 1400.740743 
L 436.843725 1400.740743 
L 433.042688 1400.740743 
L 429.24165 1400.740743 
L 425.440612 1400.740743 
L 421.639575 1400.740743 
L 410.236462 1400.740743 
L 406.435425 1400.740743 
L 402.634387 1400.740743 
L 398.833349 1400.740743 
L 395.032312 1400.740743 
L 383.629199 1400.740743 
L 379.828162 1400.740743 
L 376.027124 1400.740743 
L 372.226086 1400.740743 
L 368.425049 1400.740743 
L 357.021936 1400.740743 
L 353.220899 1400.740743 
L 349.419861 1400.740743 
L 345.618823 1400.740743 
L 341.817786 1400.740743 
L 330.414673 1400.740743 
L 326.613636 1400.740743 
L 322.812598 1400.740743 
L 319.01156 1400.740743 
L 315.210523 1400.740743 
L 303.80741 1400.740743 
L 300.006372 1400.740743 
L 296.205335 1400.740743 
L 288.60326 1400.740743 
L 277.200147 1400.740743 
L 273.399109 1400.740743 
L 269.598072 1400.740743 
L 265.797034 1400.740743 
L 261.995997 1400.740743 
L 250.592884 1400.740743 
L 246.791846 1400.740743 
L 242.990809 1400.740743 
L 239.189771 1400.740743 
L 223.985621 1400.740743 
L 220.184583 1400.740743 
L 216.383546 1400.740743 
L 212.582508 1400.740743 
L 208.781471 1400.740743 
L 197.378358 1400.740743 
L 193.57732 1400.740743 
L 189.776283 1400.740743 
L 185.975245 1400.740743 
L 182.174208 1400.740743 
L 170.771095 1400.740743 
L 166.970057 1400.740743 
L 163.16902 1400.740743 
L 159.367982 1400.740743 
L 144.163832 1400.740743 
L 140.362794 1400.740743 
L 136.561757 1400.740743 
L 132.760719 1400.740743 
L 128.959682 1400.740743 
L 117.556569 1400.740743 
L 113.755531 1400.740743 
L 109.954494 1400.740743 
z
" style="fill:#0000ff;fill-opacity:0.1;stroke:#0000ff;stroke-opacity:0.1;"/>
   </g>
   <g id="matplotlib.axis_1">
    <g id="xtick_1">
     <g id="line2d_1">
      <defs>
       <path d="M 0 0 
L 0 3.5 
" id="m859dca0c9f" style="stroke:#000000;stroke-width:0.8;"/>
      </defs>
      <g>
       <use style="stroke:#000000;stroke-width:0.8;" x="109.954494" xlink:href="#m859dca0c9f" y="385.2"/>
      </g>
     </g>
     <g id="text_1">
      <!-- 05/23 -->
      <defs>
       <path d="M 31.78125 66.40625 
Q 24.171875 66.40625 20.328125 58.90625 
Q 16.5 51.421875 16.5 36.375 
Q 16.5 21.390625 20.328125 13.890625 
Q 24.171875 6.390625 31.78125 6.390625 
Q 39.453125 6.390625 43.28125 13.890625 
Q 47.125 21.390625 47.125 36.375 
Q 47.125 51.421875 43.28125 58.90625 
Q 39.453125 66.40625 31.78125 66.40625 
z
M 31.78125 74.21875 
Q 44.046875 74.21875 50.515625 64.515625 
Q 56.984375 54.828125 56.984375 36.375 
Q 56.984375 17.96875 50.515625 8.265625 
Q 44.046875 -1.421875 31.78125 -1.421875 
Q 19.53125 -1.421875 13.0625 8.265625 
Q 6.59375 17.96875 6.59375 36.375 
Q 6.59375 54.828125 13.0625 64.515625 
Q 19.53125 74.21875 31.78125 74.21875 
z
" id="DejaVuSans-48"/>
       <path d="M 10.796875 72.90625 
L 49.515625 72.90625 
L 49.515625 64.59375 
L 19.828125 64.59375 
L 19.828125 46.734375 
Q 21.96875 47.46875 24.109375 47.828125 
Q 26.265625 48.1875 28.421875 48.1875 
Q 40.625 48.1875 47.75 41.5 
Q 54.890625 34.8125 54.890625 23.390625 
Q 54.890625 11.625 47.5625 5.09375 
Q 40.234375 -1.421875 26.90625 -1.421875 
Q 22.3125 -1.421875 17.546875 -0.640625 
Q 12.796875 0.140625 7.71875 1.703125 
L 7.71875 11.625 
Q 12.109375 9.234375 16.796875 8.0625 
Q 21.484375 6.890625 26.703125 6.890625 
Q 35.15625 6.890625 40.078125 11.328125 
Q 45.015625 15.765625 45.015625 23.390625 
Q 45.015625 31 40.078125 35.4375 
Q 35.15625 39.890625 26.703125 39.890625 
Q 22.75 39.890625 18.8125 39.015625 
Q 14.890625 38.140625 10.796875 36.28125 
z
" id="DejaVuSans-53"/>
       <path d="M 25.390625 72.90625 
L 33.6875 72.90625 
L 8.296875 -9.28125 
L 0 -9.28125 
z
" id="DejaVuSans-47"/>
       <path d="M 19.1875 8.296875 
L 53.609375 8.296875 
L 53.609375 0 
L 7.328125 0 
L 7.328125 8.296875 
Q 12.9375 14.109375 22.625 23.890625 
Q 32.328125 33.6875 34.8125 36.53125 
Q 39.546875 41.84375 41.421875 45.53125 
Q 43.3125 49.21875 43.3125 52.78125 
Q 43.3125 58.59375 39.234375 62.25 
Q 35.15625 65.921875 28.609375 65.921875 
Q 23.96875 65.921875 18.8125 64.3125 
Q 13.671875 62.703125 7.8125 59.421875 
L 7.8125 69.390625 
Q 13.765625 71.78125 18.9375 73 
Q 24.125 74.21875 28.421875 74.21875 
Q 39.75 74.21875 46.484375 68.546875 
Q 53.21875 62.890625 53.21875 53.421875 
Q 53.21875 48.921875 51.53125 44.890625 
Q 49.859375 40.875 45.40625 35.40625 
Q 44.1875 33.984375 37.640625 27.21875 
Q 31.109375 20.453125 19.1875 8.296875 
z
" id="DejaVuSans-50"/>
       <path d="M 40.578125 39.3125 
Q 47.65625 37.796875 51.625 33 
Q 55.609375 28.21875 55.609375 21.1875 
Q 55.609375 10.40625 48.1875 4.484375 
Q 40.765625 -1.421875 27.09375 -1.421875 
Q 22.515625 -1.421875 17.65625 -0.515625 
Q 12.796875 0.390625 7.625 2.203125 
L 7.625 11.71875 
Q 11.71875 9.328125 16.59375 8.109375 
Q 21.484375 6.890625 26.8125 6.890625 
Q 36.078125 6.890625 40.9375 10.546875 
Q 45.796875 14.203125 45.796875 21.1875 
Q 45.796875 27.640625 41.28125 31.265625 
Q 36.765625 34.90625 28.71875 34.90625 
L 20.21875 34.90625 
L 20.21875 43.015625 
L 29.109375 43.015625 
Q 36.375 43.015625 40.234375 45.921875 
Q 44.09375 48.828125 44.09375 54.296875 
Q 44.09375 59.90625 40.109375 62.90625 
Q 36.140625 65.921875 28.71875 65.921875 
Q 24.65625 65.921875 20.015625 65.03125 
Q 15.375 64.15625 9.8125 62.3125 
L 9.8125 71.09375 
Q 15.4375 72.65625 20.34375 73.4375 
Q 25.25 74.21875 29.59375 74.21875 
Q 40.828125 74.21875 47.359375 69.109375 
Q 53.90625 64.015625 53.90625 55.328125 
Q 53.90625 49.265625 50.4375 45.09375 
Q 46.96875 40.921875 40.578125 39.3125 
z
" id="DejaVuSans-51"/>
      </defs>
      <g transform="translate(66.726369 414.995312)scale(0.3 -0.3)">
       <use xlink:href="#DejaVuSans-48"/>
       <use x="63.623047" xlink:href="#DejaVuSans-53"/>
       <use x="127.246094" xlink:href="#DejaVuSans-47"/>
       <use x="160.9375" xlink:href="#DejaVuSans-50"/>
       <use x="224.560547" xlink:href="#DejaVuSans-51"/>
      </g>
     </g>
    </g>
    <g id="xtick_2">
     <g id="line2d_2">
      <g>
       <use style="stroke:#000000;stroke-width:0.8;" x="463.450988" xlink:href="#m859dca0c9f" y="385.2"/>
      </g>
     </g>
     <g id="text_2">
      <!-- 08/23 -->
      <defs>
       <path d="M 31.78125 34.625 
Q 24.75 34.625 20.71875 30.859375 
Q 16.703125 27.09375 16.703125 20.515625 
Q 16.703125 13.921875 20.71875 10.15625 
Q 24.75 6.390625 31.78125 6.390625 
Q 38.8125 6.390625 42.859375 10.171875 
Q 46.921875 13.96875 46.921875 20.515625 
Q 46.921875 27.09375 42.890625 30.859375 
Q 38.875 34.625 31.78125 34.625 
z
M 21.921875 38.8125 
Q 15.578125 40.375 12.03125 44.71875 
Q 8.5 49.078125 8.5 55.328125 
Q 8.5 64.0625 14.71875 69.140625 
Q 20.953125 74.21875 31.78125 74.21875 
Q 42.671875 74.21875 48.875 69.140625 
Q 55.078125 64.0625 55.078125 55.328125 
Q 55.078125 49.078125 51.53125 44.71875 
Q 48 40.375 41.703125 38.8125 
Q 48.828125 37.15625 52.796875 32.3125 
Q 56.78125 27.484375 56.78125 20.515625 
Q 56.78125 9.90625 50.3125 4.234375 
Q 43.84375 -1.421875 31.78125 -1.421875 
Q 19.734375 -1.421875 13.25 4.234375 
Q 6.78125 9.90625 6.78125 20.515625 
Q 6.78125 27.484375 10.78125 32.3125 
Q 14.796875 37.15625 21.921875 38.8125 
z
M 18.3125 54.390625 
Q 18.3125 48.734375 21.84375 45.5625 
Q 25.390625 42.390625 31.78125 42.390625 
Q 38.140625 42.390625 41.71875 45.5625 
Q 45.3125 48.734375 45.3125 54.390625 
Q 45.3125 60.0625 41.71875 63.234375 
Q 38.140625 66.40625 31.78125 66.40625 
Q 25.390625 66.40625 21.84375 63.234375 
Q 18.3125 60.0625 18.3125 54.390625 
z
" id="DejaVuSans-56"/>
      </defs>
      <g transform="translate(420.222863 414.995312)scale(0.3 -0.3)">
       <use xlink:href="#DejaVuSans-48"/>
       <use x="63.623047" xlink:href="#DejaVuSans-56"/>
       <use x="127.246094" xlink:href="#DejaVuSans-47"/>
       <use x="160.9375" xlink:href="#DejaVuSans-50"/>
       <use x="224.560547" xlink:href="#DejaVuSans-51"/>
      </g>
     </g>
    </g>
    <g id="xtick_3">
     <g id="line2d_3">
      <g>
       <use style="stroke:#000000;stroke-width:0.8;" x="805.54437" xlink:href="#m859dca0c9f" y="385.2"/>
      </g>
     </g>
     <g id="text_3">
      <!-- 11/23 -->
      <defs>
       <path d="M 12.40625 8.296875 
L 28.515625 8.296875 
L 28.515625 63.921875 
L 10.984375 60.40625 
L 10.984375 69.390625 
L 28.421875 72.90625 
L 38.28125 72.90625 
L 38.28125 8.296875 
L 54.390625 8.296875 
L 54.390625 0 
L 12.40625 0 
z
" id="DejaVuSans-49"/>
      </defs>
      <g transform="translate(762.316245 414.995312)scale(0.3 -0.3)">
       <use xlink:href="#DejaVuSans-49"/>
       <use x="63.623047" xlink:href="#DejaVuSans-49"/>
       <use x="127.246094" xlink:href="#DejaVuSans-47"/>
       <use x="160.9375" xlink:href="#DejaVuSans-50"/>
       <use x="224.560547" xlink:href="#DejaVuSans-51"/>
      </g>
     </g>
    </g>
   </g>
   <g id="matplotlib.axis_2">
    <g id="ytick_1">
     <g id="line2d_4">
      <defs>
       <path d="M 0 0 
L -3.5 0 
" id="m62b8bcb2d5" style="stroke:#000000;stroke-width:0.8;"/>
      </defs>
      <g>
       <use style="stroke:#000000;stroke-width:0.8;" x="75.175" xlink:href="#m62b8bcb2d5" y="301.1316"/>
      </g>
     </g>
     <g id="text_4">
      <!-- 110 -->
      <g transform="translate(10.9125 312.529257)scale(0.3 -0.3)">
       <use xlink:href="#DejaVuSans-49"/>
       <use x="63.623047" xlink:href="#DejaVuSans-49"/>
       <use x="127.246094" xlink:href="#DejaVuSans-48"/>
      </g>
     </g>
    </g>
    <g id="ytick_2">
     <g id="line2d_5">
      <g>
       <use style="stroke:#000000;stroke-width:0.8;" x="75.175" xlink:href="#m62b8bcb2d5" y="201.167133"/>
      </g>
     </g>
     <g id="text_5">
      <!-- 120 -->
      <g transform="translate(10.9125 212.564789)scale(0.3 -0.3)">
       <use xlink:href="#DejaVuSans-49"/>
       <use x="63.623047" xlink:href="#DejaVuSans-50"/>
       <use x="127.246094" xlink:href="#DejaVuSans-48"/>
      </g>
     </g>
    </g>
    <g id="ytick_3">
     <g id="line2d_6">
      <g>
       <use style="stroke:#000000;stroke-width:0.8;" x="75.175" xlink:href="#m62b8bcb2d5" y="101.202665"/>
      </g>
     </g>
     <g id="text_6">
      <!-- 130 -->
      <g transform="translate(10.9125 112.600322)scale(0.3 -0.3)">
       <use xlink:href="#DejaVuSans-49"/>
       <use x="63.623047" xlink:href="#DejaVuSans-51"/>
       <use x="127.246094" xlink:href="#DejaVuSans-48"/>
      </g>
     </g>
    </g>
   </g>
   <g id="line2d_7">
    <path clip-path="url(#pdec9822a31)" d="M 109.954494 367.554752 
L 113.755531 346.360656 
L 117.556569 357.204122 
L 128.959682 362.921618 
L 132.760719 379.87688 
L 136.561757 385.2 
L 140.362794 375.342283 
L 144.163832 312.943045 
L 159.367982 257.247053 
L 163.16902 275.014785 
L 166.970057 250.993477 
L 170.771095 253.078002 
L 182.174208 281.764629 
L 185.975245 245.732667 
L 189.776283 257.445499 
L 193.57732 245.831967 
L 197.378358 218.435699 
L 208.781471 188.359491 
L 212.582508 165.628541 
L 216.383546 175.852492 
L 220.184583 173.767967 
L 223.985621 182.999305 
L 239.189771 211.388109 
L 242.990809 251.688344 
L 246.791846 245.335622 
L 250.592884 274.816339 
L 261.995997 243.052651 
L 265.797034 211.685931 
L 269.598072 234.019759 
L 273.399109 228.858248 
L 277.200147 219.130566 
L 288.60326 208.708093 
L 296.205335 238.08951 
L 300.006372 257.048454 
L 303.80741 249.901641 
L 315.210523 238.188733 
L 319.01156 240.670303 
L 322.812598 222.703972 
L 326.613636 178.631808 
L 330.414673 184.190517 
L 341.817786 175.852492 
L 345.618823 181.212602 
L 349.419861 165.727841 
L 353.220899 202.454593 
L 357.021936 162.749926 
L 368.425049 168.904202 
L 372.226086 159.275819 
L 376.027124 169.698292 
L 379.828162 151.533439 
L 383.629199 115.501477 
L 395.032312 88.8 
L 398.833349 89.69339 
L 402.634387 117.58585 
L 406.435425 222.50545 
L 410.236462 194.712213 
L 421.639575 216.152727 
L 425.440612 232.828624 
L 429.24165 243.648142 
L 433.042688 253.177302 
L 436.843725 263.103431 
L 448.246838 268.959885 
L 452.047875 292.187102 
L 455.848913 307.374117 
L 459.649951 308.068908 
L 463.450988 307.870462 
L 474.854101 302.113231 
L 478.655138 314.123885 
L 482.456176 297.249466 
L 486.257214 323.652968 
L 490.058251 305.686637 
L 501.461364 292.187102 
L 505.262401 271.342156 
L 509.063439 268.443253 
L 512.864477 255.847709 
L 516.665514 247.250759 
L 531.869665 235.654844 
L 535.670702 254.348227 
L 539.47174 337.118793 
L 543.272777 339.717891 
L 554.67589 298.332607 
L 558.476928 288.835937 
L 566.079003 260.745946 
L 569.88004 269.742764 
L 581.283153 273.641372 
L 585.084191 293.934147 
L 588.885228 308.928817 
L 592.686266 321.524361 
L 596.487303 324.323354 
L 607.890416 296.833125 
L 611.691454 303.930593 
L 615.492491 309.228698 
L 619.293529 290.135524 
L 623.094566 290.535391 
L 634.497679 290.135524 
L 638.298717 299.232251 
L 642.099754 302.631083 
L 645.900792 303.130859 
L 649.701829 292.334755 
L 661.104942 283.137966 
L 664.90598 278.039833 
L 668.707017 289.935553 
L 672.508055 286.536797 
L 676.309092 314.526802 
L 687.712205 296.033391 
L 691.513243 279.139448 
L 695.31428 291.335049 
L 699.115318 288.336161 
L 702.916355 314.82676 
L 714.319468 314.526802 
L 718.120506 307.229439 
L 721.921543 353.313065 
L 729.523618 336.519031 
L 740.926731 322.823872 
L 744.727769 311.228033 
L 748.528806 292.234769 
L 752.329844 227.557746 
L 756.130881 205.965461 
L 767.533994 201.866881 
L 771.335032 193.969679 
L 775.136069 200.567371 
L 778.937107 200.167503 
L 782.738144 159.082101 
L 794.141257 162.680828 
L 797.942295 127.593279 
L 801.743332 111.998846 
L 805.54437 114.198077 
L 805.54437 114.198077 
" style="fill:none;stroke:#000000;stroke-linecap:square;stroke-width:4;"/>
   </g>
   <g id="patch_3">
    <path d="M 75.175 385.2 
L 75.175 88.8 
" style="fill:none;stroke:#000000;stroke-linecap:square;stroke-linejoin:miter;stroke-width:0.8;"/>
   </g>
   <g id="patch_4">
    <path d="M 75.175 385.2 
L 840.323864 385.2 
" style="fill:none;stroke:#000000;stroke-linecap:square;stroke-linejoin:miter;stroke-width:0.8;"/>
   </g>
   <g id="text_7">
    <!-- QCOM   24% -->
    <defs>
     <path d="M 44.484375 -1.3125 
L 43.015625 -1.3125 
Q 25 -1.3125 14.984375 8.640625 
Q 4.984375 18.609375 4.984375 36.375 
Q 4.984375 54.109375 14.96875 64.15625 
Q 24.953125 74.21875 42.484375 74.21875 
Q 60.203125 74.21875 70.09375 64.25 
Q 79.984375 54.296875 79.984375 36.375 
Q 79.984375 24.078125 74.734375 15.1875 
Q 69.484375 6.296875 59.625 1.8125 
L 74.3125 -14.59375 
L 56.390625 -14.59375 
z
M 42.484375 60.59375 
Q 33.890625 60.59375 29.15625 54.25 
Q 24.421875 47.90625 24.421875 36.375 
Q 24.421875 24.65625 29.046875 18.421875 
Q 33.6875 12.203125 42.484375 12.203125 
Q 51.125 12.203125 55.859375 18.546875 
Q 60.59375 24.90625 60.59375 36.375 
Q 60.59375 47.90625 55.859375 54.25 
Q 51.125 60.59375 42.484375 60.59375 
z
" id="DejaVuSans-Bold-81"/>
     <path d="M 67 4 
Q 61.8125 1.3125 56.203125 -0.046875 
Q 50.59375 -1.421875 44.484375 -1.421875 
Q 26.265625 -1.421875 15.625 8.765625 
Q 4.984375 18.953125 4.984375 36.375 
Q 4.984375 53.859375 15.625 64.03125 
Q 26.265625 74.21875 44.484375 74.21875 
Q 50.59375 74.21875 56.203125 72.84375 
Q 61.8125 71.484375 67 68.796875 
L 67 53.71875 
Q 61.765625 57.28125 56.6875 58.9375 
Q 51.609375 60.59375 46 60.59375 
Q 35.9375 60.59375 30.171875 54.140625 
Q 24.421875 47.703125 24.421875 36.375 
Q 24.421875 25.09375 30.171875 18.640625 
Q 35.9375 12.203125 46 12.203125 
Q 51.609375 12.203125 56.6875 13.859375 
Q 61.765625 15.53125 67 19.09375 
z
" id="DejaVuSans-Bold-67"/>
     <path d="M 42.484375 60.59375 
Q 33.890625 60.59375 29.15625 54.25 
Q 24.421875 47.90625 24.421875 36.375 
Q 24.421875 24.90625 29.15625 18.546875 
Q 33.890625 12.203125 42.484375 12.203125 
Q 51.125 12.203125 55.859375 18.546875 
Q 60.59375 24.90625 60.59375 36.375 
Q 60.59375 47.90625 55.859375 54.25 
Q 51.125 60.59375 42.484375 60.59375 
z
M 42.484375 74.21875 
Q 60.0625 74.21875 70.015625 64.15625 
Q 79.984375 54.109375 79.984375 36.375 
Q 79.984375 18.703125 70.015625 8.640625 
Q 60.0625 -1.421875 42.484375 -1.421875 
Q 24.953125 -1.421875 14.96875 8.640625 
Q 4.984375 18.703125 4.984375 36.375 
Q 4.984375 54.109375 14.96875 64.15625 
Q 24.953125 74.21875 42.484375 74.21875 
z
" id="DejaVuSans-Bold-79"/>
     <path d="M 9.1875 72.90625 
L 33.109375 72.90625 
L 49.703125 33.890625 
L 66.40625 72.90625 
L 90.28125 72.90625 
L 90.28125 0 
L 72.515625 0 
L 72.515625 53.328125 
L 55.71875 14.015625 
L 43.796875 14.015625 
L 27 53.328125 
L 27 0 
L 9.1875 0 
z
" id="DejaVuSans-Bold-77"/>
     <path id="DejaVuSans-Bold-32"/>
     <path d="M 28.8125 13.8125 
L 60.890625 13.8125 
L 60.890625 0 
L 7.90625 0 
L 7.90625 13.8125 
L 34.515625 37.3125 
Q 38.09375 40.53125 39.796875 43.609375 
Q 41.5 46.6875 41.5 50 
Q 41.5 55.125 38.0625 58.25 
Q 34.625 61.375 28.90625 61.375 
Q 24.515625 61.375 19.28125 59.5 
Q 14.0625 57.625 8.109375 53.90625 
L 8.109375 69.921875 
Q 14.453125 72.015625 20.65625 73.109375 
Q 26.859375 74.21875 32.8125 74.21875 
Q 45.90625 74.21875 53.15625 68.453125 
Q 60.40625 62.703125 60.40625 52.390625 
Q 60.40625 46.4375 57.328125 41.28125 
Q 54.25 36.140625 44.390625 27.484375 
z
" id="DejaVuSans-Bold-50"/>
     <path d="M 36.8125 57.421875 
L 16.21875 26.90625 
L 36.8125 26.90625 
z
M 33.6875 72.90625 
L 54.59375 72.90625 
L 54.59375 26.90625 
L 64.984375 26.90625 
L 64.984375 13.28125 
L 54.59375 13.28125 
L 54.59375 0 
L 36.8125 0 
L 36.8125 13.28125 
L 4.5 13.28125 
L 4.5 29.390625 
z
" id="DejaVuSans-Bold-52"/>
     <path d="M 77.484375 30.078125 
Q 74.03125 30.078125 72.125 27.078125 
Q 70.21875 24.078125 70.21875 18.5 
Q 70.21875 12.890625 72.09375 9.890625 
Q 73.96875 6.890625 77.484375 6.890625 
Q 81 6.890625 82.859375 9.890625 
Q 84.71875 12.890625 84.71875 18.5 
Q 84.71875 24.078125 82.828125 27.078125 
Q 80.953125 30.078125 77.484375 30.078125 
z
M 77.484375 38.28125 
Q 86.578125 38.28125 91.796875 33 
Q 97.015625 27.734375 97.015625 18.5 
Q 97.015625 9.28125 91.796875 3.921875 
Q 86.578125 -1.421875 77.484375 -1.421875 
Q 68.40625 -1.421875 63.15625 3.921875 
Q 57.90625 9.28125 57.90625 18.5 
Q 57.90625 27.6875 63.15625 32.984375 
Q 68.40625 38.28125 77.484375 38.28125 
z
M 32.71875 -1.421875 
L 21.921875 -1.421875 
L 67.484375 74.21875 
L 78.328125 74.21875 
z
M 22.703125 74.21875 
Q 31.78125 74.21875 36.984375 68.921875 
Q 42.1875 63.625 42.1875 54.390625 
Q 42.1875 45.171875 36.984375 39.84375 
Q 31.78125 34.515625 22.703125 34.515625 
Q 13.625 34.515625 8.421875 39.84375 
Q 3.21875 45.171875 3.21875 54.390625 
Q 3.21875 63.625 8.421875 68.921875 
Q 13.625 74.21875 22.703125 74.21875 
z
M 22.703125 66.015625 
Q 19.1875 66.015625 17.28125 62.984375 
Q 15.375 59.96875 15.375 54.390625 
Q 15.375 48.78125 17.28125 45.71875 
Q 19.1875 42.671875 22.703125 42.671875 
Q 26.21875 42.671875 28.09375 45.71875 
Q 29.984375 48.78125 29.984375 54.390625 
Q 29.984375 59.96875 28.078125 62.984375 
Q 26.171875 66.015625 22.703125 66.015625 
z
" id="DejaVuSans-Bold-37"/>
    </defs>
    <g transform="translate(75.175 72.1625)scale(0.8 -0.8)">
     <use xlink:href="#DejaVuSans-Bold-81"/>
     <use x="85.009766" xlink:href="#DejaVuSans-Bold-67"/>
     <use x="158.398438" xlink:href="#DejaVuSans-Bold-79"/>
     <use x="243.408203" xlink:href="#DejaVuSans-Bold-77"/>
     <use x="342.919922" xlink:href="#DejaVuSans-Bold-32"/>
     <use x="377.734375" xlink:href="#DejaVuSans-Bold-32"/>
     <use x="412.548828" xlink:href="#DejaVuSans-Bold-32"/>
     <use x="447.363281" xlink:href="#DejaVuSans-Bold-50"/>
     <use x="516.943359" xlink:href="#DejaVuSans-Bold-52"/>
     <use x="586.523438" xlink:href="#DejaVuSans-Bold-37"/>
    </g>
   </g>
  </g>
 </g>
 <defs>
  <clipPath id="pdec9822a31">
   <rect height="296.4" width="765.148864" x="75.175" y="88.8"/>
  </clipPath>
 </defs>
</svg>
