<?xml version="1.0" encoding="utf-8" standalone="no"?>
<!DOCTYPE svg PUBLIC "-//W3C//DTD SVG 1.1//EN"
  "http://www.w3.org/Graphics/SVG/1.1/DTD/svg11.dtd">
<!-- Created with matplotlib (https://matplotlib.org/) -->
<svg height="432pt" version="1.1" viewBox="0 0 576 432" width="576pt" xmlns="http://www.w3.org/2000/svg" xmlns:xlink="http://www.w3.org/1999/xlink">
 <defs>
  <style type="text/css">
*{stroke-linecap:butt;stroke-linejoin:round;}
  </style>
 </defs>
 <g id="figure_1">
  <g id="patch_1">
   <path d="M 0 432 
L 576 432 
L 576 0 
L 0 0 
z
" style="fill:#ffffff;"/>
  </g>
  <g id="axes_1">
   <g id="patch_2">
    <path d="M 43.3 404.2 
L 565.2 404.2 
L 565.2 31.8 
L 43.3 31.8 
z
" style="fill:#ffffff;"/>
   </g>
   <g id="PolyCollection_1">
    <defs>
     <path d="M 67.022727 -44.727273 
L 67.022727 -304.701239 
L 68.322603 -307.310032 
L 69.622478 -306.516062 
L 73.522105 -303.453528 
L 74.82198 -307.196632 
L 76.121856 -308.330886 
L 77.421731 -314.342498 
L 78.721606 -298.235914 
L 82.621233 -299.710453 
L 83.921108 -300.61785 
L 85.220984 -303.340128 
L 86.520859 -301.071563 
L 87.820735 -303.680413 
L 91.720361 -309.238284 
L 93.020237 -306.969747 
L 94.320112 -307.650345 
L 95.619988 -306.856347 
L 96.919863 -308.444314 
L 100.819489 -309.805425 
L 102.119365 -304.474382 
L 103.41924 -306.969747 
L 104.719116 -309.465168 
L 106.018991 -309.805425 
L 109.918618 -309.011455 
L 111.218493 -307.536917 
L 112.518369 -309.578597 
L 113.818244 -307.310032 
L 115.11812 -308.897999 
L 119.017746 -309.011455 
L 120.317621 -308.557742 
L 121.617497 -310.14571 
L 122.917372 -308.330886 
L 124.217248 -306.289206 
L 128.116874 -305.26838 
L 129.41675 -303.793813 
L 130.716625 -306.856347 
L 132.016501 -306.516062 
L 133.316376 -305.495208 
L 139.815753 -307.877173 
L 141.115629 -307.763745 
L 142.415504 -304.247526 
L 147.615006 -306.402634 
L 148.914882 -312.981387 
L 150.214757 -308.671171 
L 151.514633 -310.485994 
L 155.414259 -309.238284 
L 156.714134 -310.372566 
L 158.01401 -312.981387 
L 159.313885 -311.506848 
L 160.613761 -314.342498 
L 164.513387 -317.291604 
L 165.813263 -316.951319 
L 167.113138 -316.837891 
L 168.413014 -314.342498 
L 169.712889 -312.414246 
L 173.612516 -314.909639 
L 174.912391 -314.342498 
L 176.212267 -311.620248 
L 177.512142 -314.569354 
L 178.812017 -314.455926 
L 182.711644 -317.518432 
L 184.011519 -317.178176 
L 185.311395 -317.405032 
L 186.61127 -324.097214 
L 187.911146 -323.076359 
L 191.810772 -321.715249 
L 193.110648 -319.333284 
L 194.410523 -319.673569 
L 195.710399 -318.766143 
L 197.010274 -316.270778 
L 200.9099 -320.467538 
L 202.209776 -319.333284 
L 203.509651 -322.39579 
L 204.809527 -326.47915 
L 206.109402 -327.386576 
L 210.009029 -326.592578 
L 211.308904 -327.273119 
L 212.60878 -334.192186 
L 213.908655 -333.057903 
L 215.208531 -331.356508 
L 219.108157 -332.490762 
L 220.408032 -328.634258 
L 221.707908 -331.469936 
L 223.007783 -333.851901 
L 224.307659 -332.490762 
L 228.207285 -332.263934 
L 229.507161 -333.965301 
L 230.807036 -334.532442 
L 232.106912 -336.800979 
L 233.406787 -331.016223 
L 237.306413 -328.861115 
L 238.606289 -332.490762 
L 239.906164 -329.655084 
L 241.20604 -333.171331 
L 242.505915 -331.696793 
L 246.405542 -334.419014 
L 247.705417 -335.893553 
L 249.005293 -340.203769 
L 250.305168 -337.708405 
L 251.605044 -337.027835 
L 255.50467 -338.048689 
L 256.804545 -336.120437 
L 258.104421 -338.72923 
L 259.404296 -340.317198 
L 260.704172 -341.678336 
L 264.603798 -339.750085 
L 265.903674 -341.45148 
L 267.203549 -342.472334 
L 268.503425 -342.812619 
L 275.002802 -342.699162 
L 276.302677 -345.421412 
L 277.602553 -345.307984 
L 278.902428 -343.719988 
L 282.802055 -343.49316 
L 284.10193 -343.152875 
L 285.401806 -344.513986 
L 286.701681 -349.731628 
L 288.001557 -353.474704 
L 291.901183 -353.134419 
L 293.201059 -352.113593 
L 294.500934 -347.122807 
L 295.800809 -346.8811 
L 297.100685 -349.29831 
L 302.300187 -333.75898 
L 303.600062 -335.255356 
L 304.899938 -326.737518 
L 306.199813 -324.895794 
L 311.399315 -330.075589 
L 312.699191 -328.233893 
L 313.999066 -332.032382 
L 315.298941 -331.456868 
L 319.198568 -329.615172 
L 320.498443 -329.03963 
L 321.798319 -328.348991 
L 323.098194 -332.492827 
L 324.39807 -332.607924 
L 328.297696 -331.917285 
L 329.597572 -331.571965 
L 330.897447 -328.348991 
L 332.197323 -326.737518 
L 333.497198 -330.996423 
L 338.6967 -330.766228 
L 339.996575 -333.643883 
L 341.296451 -337.327274 
L 342.596326 -340.089832 
L 346.495953 -341.81643 
L 347.795828 -341.010666 
L 349.095704 -340.435152 
L 350.395579 -338.82365 
L 351.695455 -336.061121 
L 355.595081 -339.399193 
L 356.894956 -341.471111 
L 358.194832 -341.701305 
L 359.494707 -346.190461 
L 360.794583 -349.29831 
L 364.694209 -345.269599 
L 365.994085 -345.614919 
L 367.29396 -344.003446 
L 368.593836 -343.658126 
L 369.893711 -344.463863 
L 373.793337 -342.737264 
L 375.093213 -342.50707 
L 376.393088 -345.154502 
L 377.692964 -344.463863 
L 378.992839 -346.420655 
L 382.892466 -344.23364 
L 384.192341 -342.967487 
L 385.492217 -340.204929 
L 386.792092 -336.751732 
L 388.091968 -328.233893 
L 391.991594 -329.500047 
L 393.291469 -325.816656 
L 394.591345 -330.766228 
L 395.89122 -334.564717 
L 397.191096 -337.442371 
L 401.090722 -338.478331 
L 402.390598 -338.248136 
L 403.690473 -340.780471 
L 404.990349 -341.586208 
L 406.290224 -344.924279 
L 410.189851 -341.931528 
L 411.489726 -339.629415 
L 412.789601 -337.327274 
L 414.089477 -351.024908 
L 415.389352 -347.801934 
L 419.288979 -346.305558 
L 420.588854 -344.348765 
L 421.88873 -345.154502 
L 423.188605 -342.605563 
L 424.488481 -342.25798 
L 428.388107 -342.721424 
L 429.687983 -343.764171 
L 430.987858 -345.154502 
L 432.287733 -349.093771 
L 433.587609 -342.25798 
L 437.487235 -344.343476 
L 438.787111 -340.172485 
L 440.086986 -336.117354 
L 441.386862 -333.104972 
L 442.686737 -332.178085 
L 446.586364 -332.062224 
L 447.886239 -331.251198 
L 449.186115 -334.379441 
L 450.48599 -336.233215 
L 451.785866 -337.623546 
L 456.985367 -340.86765 
L 458.285243 -343.995893 
L 459.585118 -343.416589 
L 460.884994 -343.53245 
L 464.78462 -344.111754 
L 466.084496 -346.544832 
L 467.384371 -350.25238 
L 468.684247 -356.97231 
L 469.984122 -360.100554 
L 473.883748 -358.941945 
L 475.183624 -359.63711 
L 476.483499 -362.649493 
L 477.783375 -366.472901 
L 479.08325 -369.137701 
L 482.982877 -367.747371 
L 484.282752 -367.052206 
L 485.582628 -372.381806 
L 486.882503 -367.979093 
L 488.182379 -367.052206 
L 492.082005 -366.009458 
L 493.38188 -363.923962 
L 494.681756 -362.30191 
L 495.981631 -364.96671 
L 497.281507 -366.24118 
L 501.181133 -364.039823 
L 502.481009 -364.503267 
L 503.780884 -371.223197 
L 505.08076 -375.162467 
L 506.380635 -376.436936 
L 510.280262 -375.857632 
L 511.580137 -381.303093 
L 512.880012 -380.723788 
L 514.179888 -383.272727 
L 515.479763 -382.229979 
L 519.37939 -379.912762 
L 520.679265 -381.303093 
L 521.979141 -379.333458 
L 523.279016 -378.406571 
L 524.578892 -372.845249 
L 528.478518 -375.278327 
L 529.778394 -372.497667 
L 531.078269 -376.205214 
L 532.378144 -374.467301 
L 533.67802 -371.107336 
L 537.577646 -375.62591 
L 538.877522 -377.01624 
L 540.177397 -376.321075 
L 541.477273 -379.449319 
L 541.477273 -44.727273 
L 541.477273 -44.727273 
L 540.177397 -44.727273 
L 538.877522 -44.727273 
L 537.577646 -44.727273 
L 533.67802 -44.727273 
L 532.378144 -44.727273 
L 531.078269 -44.727273 
L 529.778394 -44.727273 
L 528.478518 -44.727273 
L 524.578892 -44.727273 
L 523.279016 -44.727273 
L 521.979141 -44.727273 
L 520.679265 -44.727273 
L 519.37939 -44.727273 
L 515.479763 -44.727273 
L 514.179888 -44.727273 
L 512.880012 -44.727273 
L 511.580137 -44.727273 
L 510.280262 -44.727273 
L 506.380635 -44.727273 
L 505.08076 -44.727273 
L 503.780884 -44.727273 
L 502.481009 -44.727273 
L 501.181133 -44.727273 
L 497.281507 -44.727273 
L 495.981631 -44.727273 
L 494.681756 -44.727273 
L 493.38188 -44.727273 
L 492.082005 -44.727273 
L 488.182379 -44.727273 
L 486.882503 -44.727273 
L 485.582628 -44.727273 
L 484.282752 -44.727273 
L 482.982877 -44.727273 
L 479.08325 -44.727273 
L 477.783375 -44.727273 
L 476.483499 -44.727273 
L 475.183624 -44.727273 
L 473.883748 -44.727273 
L 469.984122 -44.727273 
L 468.684247 -44.727273 
L 467.384371 -44.727273 
L 466.084496 -44.727273 
L 464.78462 -44.727273 
L 460.884994 -44.727273 
L 459.585118 -44.727273 
L 458.285243 -44.727273 
L 456.985367 -44.727273 
L 451.785866 -44.727273 
L 450.48599 -44.727273 
L 449.186115 -44.727273 
L 447.886239 -44.727273 
L 446.586364 -44.727273 
L 442.686737 -44.727273 
L 441.386862 -44.727273 
L 440.086986 -44.727273 
L 438.787111 -44.727273 
L 437.487235 -44.727273 
L 433.587609 -44.727273 
L 432.287733 -44.727273 
L 430.987858 -44.727273 
L 429.687983 -44.727273 
L 428.388107 -44.727273 
L 424.488481 -44.727273 
L 423.188605 -44.727273 
L 421.88873 -44.727273 
L 420.588854 -44.727273 
L 419.288979 -44.727273 
L 415.389352 -44.727273 
L 414.089477 -44.727273 
L 412.789601 -44.727273 
L 411.489726 -44.727273 
L 410.189851 -44.727273 
L 406.290224 -44.727273 
L 404.990349 -44.727273 
L 403.690473 -44.727273 
L 402.390598 -44.727273 
L 401.090722 -44.727273 
L 397.191096 -44.727273 
L 395.89122 -44.727273 
L 394.591345 -44.727273 
L 393.291469 -44.727273 
L 391.991594 -44.727273 
L 388.091968 -44.727273 
L 386.792092 -44.727273 
L 385.492217 -44.727273 
L 384.192341 -44.727273 
L 382.892466 -44.727273 
L 378.992839 -44.727273 
L 377.692964 -44.727273 
L 376.393088 -44.727273 
L 375.093213 -44.727273 
L 373.793337 -44.727273 
L 369.893711 -44.727273 
L 368.593836 -44.727273 
L 367.29396 -44.727273 
L 365.994085 -44.727273 
L 364.694209 -44.727273 
L 360.794583 -44.727273 
L 359.494707 -44.727273 
L 358.194832 -44.727273 
L 356.894956 -44.727273 
L 355.595081 -44.727273 
L 351.695455 -44.727273 
L 350.395579 -44.727273 
L 349.095704 -44.727273 
L 347.795828 -44.727273 
L 346.495953 -44.727273 
L 342.596326 -44.727273 
L 341.296451 -44.727273 
L 339.996575 -44.727273 
L 338.6967 -44.727273 
L 333.497198 -44.727273 
L 332.197323 -44.727273 
L 330.897447 -44.727273 
L 329.597572 -44.727273 
L 328.297696 -44.727273 
L 324.39807 -44.727273 
L 323.098194 -44.727273 
L 321.798319 -44.727273 
L 320.498443 -44.727273 
L 319.198568 -44.727273 
L 315.298941 -44.727273 
L 313.999066 -44.727273 
L 312.699191 -44.727273 
L 311.399315 -44.727273 
L 306.199813 -44.727273 
L 304.899938 -44.727273 
L 303.600062 -44.727273 
L 302.300187 -44.727273 
L 297.100685 -44.727273 
L 295.800809 -44.727273 
L 294.500934 -44.727273 
L 293.201059 -44.727273 
L 291.901183 -44.727273 
L 288.001557 -44.727273 
L 286.701681 -44.727273 
L 285.401806 -44.727273 
L 284.10193 -44.727273 
L 282.802055 -44.727273 
L 278.902428 -44.727273 
L 277.602553 -44.727273 
L 276.302677 -44.727273 
L 275.002802 -44.727273 
L 268.503425 -44.727273 
L 267.203549 -44.727273 
L 265.903674 -44.727273 
L 264.603798 -44.727273 
L 260.704172 -44.727273 
L 259.404296 -44.727273 
L 258.104421 -44.727273 
L 256.804545 -44.727273 
L 255.50467 -44.727273 
L 251.605044 -44.727273 
L 250.305168 -44.727273 
L 249.005293 -44.727273 
L 247.705417 -44.727273 
L 246.405542 -44.727273 
L 242.505915 -44.727273 
L 241.20604 -44.727273 
L 239.906164 -44.727273 
L 238.606289 -44.727273 
L 237.306413 -44.727273 
L 233.406787 -44.727273 
L 232.106912 -44.727273 
L 230.807036 -44.727273 
L 229.507161 -44.727273 
L 228.207285 -44.727273 
L 224.307659 -44.727273 
L 223.007783 -44.727273 
L 221.707908 -44.727273 
L 220.408032 -44.727273 
L 219.108157 -44.727273 
L 215.208531 -44.727273 
L 213.908655 -44.727273 
L 212.60878 -44.727273 
L 211.308904 -44.727273 
L 210.009029 -44.727273 
L 206.109402 -44.727273 
L 204.809527 -44.727273 
L 203.509651 -44.727273 
L 202.209776 -44.727273 
L 200.9099 -44.727273 
L 197.010274 -44.727273 
L 195.710399 -44.727273 
L 194.410523 -44.727273 
L 193.110648 -44.727273 
L 191.810772 -44.727273 
L 187.911146 -44.727273 
L 186.61127 -44.727273 
L 185.311395 -44.727273 
L 184.011519 -44.727273 
L 182.711644 -44.727273 
L 178.812017 -44.727273 
L 177.512142 -44.727273 
L 176.212267 -44.727273 
L 174.912391 -44.727273 
L 173.612516 -44.727273 
L 169.712889 -44.727273 
L 168.413014 -44.727273 
L 167.113138 -44.727273 
L 165.813263 -44.727273 
L 164.513387 -44.727273 
L 160.613761 -44.727273 
L 159.313885 -44.727273 
L 158.01401 -44.727273 
L 156.714134 -44.727273 
L 155.414259 -44.727273 
L 151.514633 -44.727273 
L 150.214757 -44.727273 
L 148.914882 -44.727273 
L 147.615006 -44.727273 
L 142.415504 -44.727273 
L 141.115629 -44.727273 
L 139.815753 -44.727273 
L 133.316376 -44.727273 
L 132.016501 -44.727273 
L 130.716625 -44.727273 
L 129.41675 -44.727273 
L 128.116874 -44.727273 
L 124.217248 -44.727273 
L 122.917372 -44.727273 
L 121.617497 -44.727273 
L 120.317621 -44.727273 
L 119.017746 -44.727273 
L 115.11812 -44.727273 
L 113.818244 -44.727273 
L 112.518369 -44.727273 
L 111.218493 -44.727273 
L 109.918618 -44.727273 
L 106.018991 -44.727273 
L 104.719116 -44.727273 
L 103.41924 -44.727273 
L 102.119365 -44.727273 
L 100.819489 -44.727273 
L 96.919863 -44.727273 
L 95.619988 -44.727273 
L 94.320112 -44.727273 
L 93.020237 -44.727273 
L 91.720361 -44.727273 
L 87.820735 -44.727273 
L 86.520859 -44.727273 
L 85.220984 -44.727273 
L 83.921108 -44.727273 
L 82.621233 -44.727273 
L 78.721606 -44.727273 
L 77.421731 -44.727273 
L 76.121856 -44.727273 
L 74.82198 -44.727273 
L 73.522105 -44.727273 
L 69.622478 -44.727273 
L 68.322603 -44.727273 
L 67.022727 -44.727273 
z
" id="ma236fbc15c" style="stroke:#f5d128;"/>
    </defs>
    <g clip-path="url(#p51da9172d9)">
     <use style="fill:#f5d128;stroke:#f5d128;" x="0" xlink:href="#ma236fbc15c" y="432"/>
    </g>
   </g>
   <g id="matplotlib.axis_1">
    <g id="xtick_1">
     <g id="line2d_1">
      <defs>
       <path d="M 0 0 
L 0 3.5 
" id="m14d5537827" style="stroke:#000000;stroke-width:0.8;"/>
      </defs>
      <g>
       <use style="stroke:#000000;stroke-width:0.8;" x="65.722852" xlink:href="#m14d5537827" y="404.2"/>
      </g>
     </g>
     <g id="text_1">
      <!-- 2022-11 -->
      <defs>
       <path d="M 19.1875 8.296875 
L 53.609375 8.296875 
L 53.609375 0 
L 7.328125 0 
L 7.328125 8.296875 
Q 12.9375 14.109375 22.625 23.890625 
Q 32.328125 33.6875 34.8125 36.53125 
Q 39.546875 41.84375 41.421875 45.53125 
Q 43.3125 49.21875 43.3125 52.78125 
Q 43.3125 58.59375 39.234375 62.25 
Q 35.15625 65.921875 28.609375 65.921875 
Q 23.96875 65.921875 18.8125 64.3125 
Q 13.671875 62.703125 7.8125 59.421875 
L 7.8125 69.390625 
Q 13.765625 71.78125 18.9375 73 
Q 24.125 74.21875 28.421875 74.21875 
Q 39.75 74.21875 46.484375 68.546875 
Q 53.21875 62.890625 53.21875 53.421875 
Q 53.21875 48.921875 51.53125 44.890625 
Q 49.859375 40.875 45.40625 35.40625 
Q 44.1875 33.984375 37.640625 27.21875 
Q 31.109375 20.453125 19.1875 8.296875 
z
" id="DejaVuSans-50"/>
       <path d="M 31.78125 66.40625 
Q 24.171875 66.40625 20.328125 58.90625 
Q 16.5 51.421875 16.5 36.375 
Q 16.5 21.390625 20.328125 13.890625 
Q 24.171875 6.390625 31.78125 6.390625 
Q 39.453125 6.390625 43.28125 13.890625 
Q 47.125 21.390625 47.125 36.375 
Q 47.125 51.421875 43.28125 58.90625 
Q 39.453125 66.40625 31.78125 66.40625 
z
M 31.78125 74.21875 
Q 44.046875 74.21875 50.515625 64.515625 
Q 56.984375 54.828125 56.984375 36.375 
Q 56.984375 17.96875 50.515625 8.265625 
Q 44.046875 -1.421875 31.78125 -1.421875 
Q 19.53125 -1.421875 13.0625 8.265625 
Q 6.59375 17.96875 6.59375 36.375 
Q 6.59375 54.828125 13.0625 64.515625 
Q 19.53125 74.21875 31.78125 74.21875 
z
" id="DejaVuSans-48"/>
       <path d="M 4.890625 31.390625 
L 31.203125 31.390625 
L 31.203125 23.390625 
L 4.890625 23.390625 
z
" id="DejaVuSans-45"/>
       <path d="M 12.40625 8.296875 
L 28.515625 8.296875 
L 28.515625 63.921875 
L 10.984375 60.40625 
L 10.984375 69.390625 
L 28.421875 72.90625 
L 38.28125 72.90625 
L 38.28125 8.296875 
L 54.390625 8.296875 
L 54.390625 0 
L 12.40625 0 
z
" id="DejaVuSans-49"/>
      </defs>
      <g transform="translate(44.831446 418.798437)scale(0.1 -0.1)">
       <use xlink:href="#DejaVuSans-50"/>
       <use x="63.623047" xlink:href="#DejaVuSans-48"/>
       <use x="127.246094" xlink:href="#DejaVuSans-50"/>
       <use x="190.869141" xlink:href="#DejaVuSans-50"/>
       <use x="254.492188" xlink:href="#DejaVuSans-45"/>
       <use x="290.576172" xlink:href="#DejaVuSans-49"/>
       <use x="354.199219" xlink:href="#DejaVuSans-49"/>
      </g>
     </g>
    </g>
    <g id="xtick_2">
     <g id="line2d_2">
      <g>
       <use style="stroke:#000000;stroke-width:0.8;" x="145.015255" xlink:href="#m14d5537827" y="404.2"/>
      </g>
     </g>
     <g id="text_2">
      <!-- 2023-01 -->
      <defs>
       <path d="M 40.578125 39.3125 
Q 47.65625 37.796875 51.625 33 
Q 55.609375 28.21875 55.609375 21.1875 
Q 55.609375 10.40625 48.1875 4.484375 
Q 40.765625 -1.421875 27.09375 -1.421875 
Q 22.515625 -1.421875 17.65625 -0.515625 
Q 12.796875 0.390625 7.625 2.203125 
L 7.625 11.71875 
Q 11.71875 9.328125 16.59375 8.109375 
Q 21.484375 6.890625 26.8125 6.890625 
Q 36.078125 6.890625 40.9375 10.546875 
Q 45.796875 14.203125 45.796875 21.1875 
Q 45.796875 27.640625 41.28125 31.265625 
Q 36.765625 34.90625 28.71875 34.90625 
L 20.21875 34.90625 
L 20.21875 43.015625 
L 29.109375 43.015625 
Q 36.375 43.015625 40.234375 45.921875 
Q 44.09375 48.828125 44.09375 54.296875 
Q 44.09375 59.90625 40.109375 62.90625 
Q 36.140625 65.921875 28.71875 65.921875 
Q 24.65625 65.921875 20.015625 65.03125 
Q 15.375 64.15625 9.8125 62.3125 
L 9.8125 71.09375 
Q 15.4375 72.65625 20.34375 73.4375 
Q 25.25 74.21875 29.59375 74.21875 
Q 40.828125 74.21875 47.359375 69.109375 
Q 53.90625 64.015625 53.90625 55.328125 
Q 53.90625 49.265625 50.4375 45.09375 
Q 46.96875 40.921875 40.578125 39.3125 
z
" id="DejaVuSans-51"/>
      </defs>
      <g transform="translate(124.123849 418.798437)scale(0.1 -0.1)">
       <use xlink:href="#DejaVuSans-50"/>
       <use x="63.623047" xlink:href="#DejaVuSans-48"/>
       <use x="127.246094" xlink:href="#DejaVuSans-50"/>
       <use x="190.869141" xlink:href="#DejaVuSans-51"/>
       <use x="254.492188" xlink:href="#DejaVuSans-45"/>
       <use x="290.576172" xlink:href="#DejaVuSans-48"/>
       <use x="354.199219" xlink:href="#DejaVuSans-49"/>
      </g>
     </g>
    </g>
    <g id="xtick_3">
     <g id="line2d_3">
      <g>
       <use style="stroke:#000000;stroke-width:0.8;" x="221.707908" xlink:href="#m14d5537827" y="404.2"/>
      </g>
     </g>
     <g id="text_3">
      <!-- 2023-03 -->
      <g transform="translate(200.816502 418.798437)scale(0.1 -0.1)">
       <use xlink:href="#DejaVuSans-50"/>
       <use x="63.623047" xlink:href="#DejaVuSans-48"/>
       <use x="127.246094" xlink:href="#DejaVuSans-50"/>
       <use x="190.869141" xlink:href="#DejaVuSans-51"/>
       <use x="254.492188" xlink:href="#DejaVuSans-45"/>
       <use x="290.576172" xlink:href="#DejaVuSans-48"/>
       <use x="354.199219" xlink:href="#DejaVuSans-51"/>
      </g>
     </g>
    </g>
    <g id="xtick_4">
     <g id="line2d_4">
      <g>
       <use style="stroke:#000000;stroke-width:0.8;" x="301.000311" xlink:href="#m14d5537827" y="404.2"/>
      </g>
     </g>
     <g id="text_4">
      <!-- 2023-05 -->
      <defs>
       <path d="M 10.796875 72.90625 
L 49.515625 72.90625 
L 49.515625 64.59375 
L 19.828125 64.59375 
L 19.828125 46.734375 
Q 21.96875 47.46875 24.109375 47.828125 
Q 26.265625 48.1875 28.421875 48.1875 
Q 40.625 48.1875 47.75 41.5 
Q 54.890625 34.8125 54.890625 23.390625 
Q 54.890625 11.625 47.5625 5.09375 
Q 40.234375 -1.421875 26.90625 -1.421875 
Q 22.3125 -1.421875 17.546875 -0.640625 
Q 12.796875 0.140625 7.71875 1.703125 
L 7.71875 11.625 
Q 12.109375 9.234375 16.796875 8.0625 
Q 21.484375 6.890625 26.703125 6.890625 
Q 35.15625 6.890625 40.078125 11.328125 
Q 45.015625 15.765625 45.015625 23.390625 
Q 45.015625 31 40.078125 35.4375 
Q 35.15625 39.890625 26.703125 39.890625 
Q 22.75 39.890625 18.8125 39.015625 
Q 14.890625 38.140625 10.796875 36.28125 
z
" id="DejaVuSans-53"/>
      </defs>
      <g transform="translate(280.108905 418.798437)scale(0.1 -0.1)">
       <use xlink:href="#DejaVuSans-50"/>
       <use x="63.623047" xlink:href="#DejaVuSans-48"/>
       <use x="127.246094" xlink:href="#DejaVuSans-50"/>
       <use x="190.869141" xlink:href="#DejaVuSans-51"/>
       <use x="254.492188" xlink:href="#DejaVuSans-45"/>
       <use x="290.576172" xlink:href="#DejaVuSans-48"/>
       <use x="354.199219" xlink:href="#DejaVuSans-53"/>
      </g>
     </g>
    </g>
    <g id="xtick_5">
     <g id="line2d_5">
      <g>
       <use style="stroke:#000000;stroke-width:0.8;" x="380.292715" xlink:href="#m14d5537827" y="404.2"/>
      </g>
     </g>
     <g id="text_5">
      <!-- 2023-07 -->
      <defs>
       <path d="M 8.203125 72.90625 
L 55.078125 72.90625 
L 55.078125 68.703125 
L 28.609375 0 
L 18.3125 0 
L 43.21875 64.59375 
L 8.203125 64.59375 
z
" id="DejaVuSans-55"/>
      </defs>
      <g transform="translate(359.401309 418.798437)scale(0.1 -0.1)">
       <use xlink:href="#DejaVuSans-50"/>
       <use x="63.623047" xlink:href="#DejaVuSans-48"/>
       <use x="127.246094" xlink:href="#DejaVuSans-50"/>
       <use x="190.869141" xlink:href="#DejaVuSans-51"/>
       <use x="254.492188" xlink:href="#DejaVuSans-45"/>
       <use x="290.576172" xlink:href="#DejaVuSans-48"/>
       <use x="354.199219" xlink:href="#DejaVuSans-55"/>
      </g>
     </g>
    </g>
    <g id="xtick_6">
     <g id="line2d_6">
      <g>
       <use style="stroke:#000000;stroke-width:0.8;" x="460.884994" xlink:href="#m14d5537827" y="404.2"/>
      </g>
     </g>
     <g id="text_6">
      <!-- 2023-09 -->
      <defs>
       <path d="M 10.984375 1.515625 
L 10.984375 10.5 
Q 14.703125 8.734375 18.5 7.8125 
Q 22.3125 6.890625 25.984375 6.890625 
Q 35.75 6.890625 40.890625 13.453125 
Q 46.046875 20.015625 46.78125 33.40625 
Q 43.953125 29.203125 39.59375 26.953125 
Q 35.25 24.703125 29.984375 24.703125 
Q 19.046875 24.703125 12.671875 31.3125 
Q 6.296875 37.9375 6.296875 49.421875 
Q 6.296875 60.640625 12.9375 67.421875 
Q 19.578125 74.21875 30.609375 74.21875 
Q 43.265625 74.21875 49.921875 64.515625 
Q 56.59375 54.828125 56.59375 36.375 
Q 56.59375 19.140625 48.40625 8.859375 
Q 40.234375 -1.421875 26.421875 -1.421875 
Q 22.703125 -1.421875 18.890625 -0.6875 
Q 15.09375 0.046875 10.984375 1.515625 
z
M 30.609375 32.421875 
Q 37.25 32.421875 41.125 36.953125 
Q 45.015625 41.5 45.015625 49.421875 
Q 45.015625 57.28125 41.125 61.84375 
Q 37.25 66.40625 30.609375 66.40625 
Q 23.96875 66.40625 20.09375 61.84375 
Q 16.21875 57.28125 16.21875 49.421875 
Q 16.21875 41.5 20.09375 36.953125 
Q 23.96875 32.421875 30.609375 32.421875 
z
" id="DejaVuSans-57"/>
      </defs>
      <g transform="translate(439.993588 418.798437)scale(0.1 -0.1)">
       <use xlink:href="#DejaVuSans-50"/>
       <use x="63.623047" xlink:href="#DejaVuSans-48"/>
       <use x="127.246094" xlink:href="#DejaVuSans-50"/>
       <use x="190.869141" xlink:href="#DejaVuSans-51"/>
       <use x="254.492188" xlink:href="#DejaVuSans-45"/>
       <use x="290.576172" xlink:href="#DejaVuSans-48"/>
       <use x="354.199219" xlink:href="#DejaVuSans-57"/>
      </g>
     </g>
    </g>
    <g id="xtick_7">
     <g id="line2d_7">
      <g>
       <use style="stroke:#000000;stroke-width:0.8;" x="540.177397" xlink:href="#m14d5537827" y="404.2"/>
      </g>
     </g>
     <g id="text_7">
      <!-- 2023-11 -->
      <g transform="translate(519.285991 418.798437)scale(0.1 -0.1)">
       <use xlink:href="#DejaVuSans-50"/>
       <use x="63.623047" xlink:href="#DejaVuSans-48"/>
       <use x="127.246094" xlink:href="#DejaVuSans-50"/>
       <use x="190.869141" xlink:href="#DejaVuSans-51"/>
       <use x="254.492188" xlink:href="#DejaVuSans-45"/>
       <use x="290.576172" xlink:href="#DejaVuSans-49"/>
       <use x="354.199219" xlink:href="#DejaVuSans-49"/>
      </g>
     </g>
    </g>
   </g>
   <g id="matplotlib.axis_2">
    <g id="ytick_1">
     <g id="line2d_8">
      <defs>
       <path d="M 0 0 
L -3.5 0 
" id="ma6dcb14a0a" style="stroke:#000000;stroke-width:0.8;"/>
      </defs>
      <g>
       <use style="stroke:#000000;stroke-width:0.8;" x="43.3" xlink:href="#ma6dcb14a0a" y="387.272727"/>
      </g>
     </g>
     <g id="text_8">
      <!-- 0 -->
      <g transform="translate(29.9375 391.071946)scale(0.1 -0.1)">
       <use xlink:href="#DejaVuSans-48"/>
      </g>
     </g>
    </g>
    <g id="ytick_2">
     <g id="line2d_9">
      <g>
       <use style="stroke:#000000;stroke-width:0.8;" x="43.3" xlink:href="#ma6dcb14a0a" y="329.342294"/>
      </g>
     </g>
     <g id="text_9">
      <!-- 500 -->
      <g transform="translate(17.2125 333.141512)scale(0.1 -0.1)">
       <use xlink:href="#DejaVuSans-53"/>
       <use x="63.623047" xlink:href="#DejaVuSans-48"/>
       <use x="127.246094" xlink:href="#DejaVuSans-48"/>
      </g>
     </g>
    </g>
    <g id="ytick_3">
     <g id="line2d_10">
      <g>
       <use style="stroke:#000000;stroke-width:0.8;" x="43.3" xlink:href="#ma6dcb14a0a" y="271.41186"/>
      </g>
     </g>
     <g id="text_10">
      <!-- 1000 -->
      <g transform="translate(10.85 275.211079)scale(0.1 -0.1)">
       <use xlink:href="#DejaVuSans-49"/>
       <use x="63.623047" xlink:href="#DejaVuSans-48"/>
       <use x="127.246094" xlink:href="#DejaVuSans-48"/>
       <use x="190.869141" xlink:href="#DejaVuSans-48"/>
      </g>
     </g>
    </g>
    <g id="ytick_4">
     <g id="line2d_11">
      <g>
       <use style="stroke:#000000;stroke-width:0.8;" x="43.3" xlink:href="#ma6dcb14a0a" y="213.481426"/>
      </g>
     </g>
     <g id="text_11">
      <!-- 1500 -->
      <g transform="translate(10.85 217.280645)scale(0.1 -0.1)">
       <use xlink:href="#DejaVuSans-49"/>
       <use x="63.623047" xlink:href="#DejaVuSans-53"/>
       <use x="127.246094" xlink:href="#DejaVuSans-48"/>
       <use x="190.869141" xlink:href="#DejaVuSans-48"/>
      </g>
     </g>
    </g>
    <g id="ytick_5">
     <g id="line2d_12">
      <g>
       <use style="stroke:#000000;stroke-width:0.8;" x="43.3" xlink:href="#ma6dcb14a0a" y="155.550992"/>
      </g>
     </g>
     <g id="text_12">
      <!-- 2000 -->
      <g transform="translate(10.85 159.350211)scale(0.1 -0.1)">
       <use xlink:href="#DejaVuSans-50"/>
       <use x="63.623047" xlink:href="#DejaVuSans-48"/>
       <use x="127.246094" xlink:href="#DejaVuSans-48"/>
       <use x="190.869141" xlink:href="#DejaVuSans-48"/>
      </g>
     </g>
    </g>
    <g id="ytick_6">
     <g id="line2d_13">
      <g>
       <use style="stroke:#000000;stroke-width:0.8;" x="43.3" xlink:href="#ma6dcb14a0a" y="97.620559"/>
      </g>
     </g>
     <g id="text_13">
      <!-- 2500 -->
      <g transform="translate(10.85 101.419778)scale(0.1 -0.1)">
       <use xlink:href="#DejaVuSans-50"/>
       <use x="63.623047" xlink:href="#DejaVuSans-53"/>
       <use x="127.246094" xlink:href="#DejaVuSans-48"/>
       <use x="190.869141" xlink:href="#DejaVuSans-48"/>
      </g>
     </g>
    </g>
    <g id="ytick_7">
     <g id="line2d_14">
      <g>
       <use style="stroke:#000000;stroke-width:0.8;" x="43.3" xlink:href="#ma6dcb14a0a" y="39.690125"/>
      </g>
     </g>
     <g id="text_14">
      <!-- 3000 -->
      <g transform="translate(10.85 43.489344)scale(0.1 -0.1)">
       <use xlink:href="#DejaVuSans-51"/>
       <use x="63.623047" xlink:href="#DejaVuSans-48"/>
       <use x="127.246094" xlink:href="#DejaVuSans-48"/>
       <use x="190.869141" xlink:href="#DejaVuSans-48"/>
      </g>
     </g>
    </g>
   </g>
   <g id="patch_3">
    <path d="M 43.3 404.2 
L 43.3 31.8 
" style="fill:none;stroke:#000000;stroke-linecap:square;stroke-linejoin:miter;stroke-width:0.8;"/>
   </g>
   <g id="patch_4">
    <path d="M 565.2 404.2 
L 565.2 31.8 
" style="fill:none;stroke:#000000;stroke-linecap:square;stroke-linejoin:miter;stroke-width:0.8;"/>
   </g>
   <g id="patch_5">
    <path d="M 43.3 404.2 
L 565.2 404.2 
" style="fill:none;stroke:#000000;stroke-linecap:square;stroke-linejoin:miter;stroke-width:0.8;"/>
   </g>
   <g id="patch_6">
    <path d="M 43.3 31.8 
L 565.2 31.8 
" style="fill:none;stroke:#000000;stroke-linecap:square;stroke-linejoin:miter;stroke-width:0.8;"/>
   </g>
   <g id="text_15">
    <!-- REL.L - 28.75% -->
    <defs>
     <path d="M 35.890625 40.578125 
Q 41.796875 40.578125 44.359375 42.765625 
Q 46.921875 44.96875 46.921875 50 
Q 46.921875 54.984375 44.359375 57.125 
Q 41.796875 59.28125 35.890625 59.28125 
L 27.984375 59.28125 
L 27.984375 40.578125 
z
M 27.984375 27.59375 
L 27.984375 0 
L 9.1875 0 
L 9.1875 72.90625 
L 37.890625 72.90625 
Q 52.296875 72.90625 59 68.0625 
Q 65.71875 63.234375 65.71875 52.78125 
Q 65.71875 45.5625 62.21875 40.921875 
Q 58.734375 36.28125 51.703125 34.078125 
Q 55.5625 33.203125 58.609375 30.09375 
Q 61.671875 27 64.796875 20.703125 
L 75 0 
L 54.984375 0 
L 46.09375 18.109375 
Q 43.40625 23.578125 40.640625 25.578125 
Q 37.890625 27.59375 33.296875 27.59375 
z
" id="DejaVuSans-Bold-82"/>
     <path d="M 9.1875 72.90625 
L 59.90625 72.90625 
L 59.90625 58.6875 
L 27.984375 58.6875 
L 27.984375 45.125 
L 58.015625 45.125 
L 58.015625 30.90625 
L 27.984375 30.90625 
L 27.984375 14.203125 
L 60.984375 14.203125 
L 60.984375 0 
L 9.1875 0 
z
" id="DejaVuSans-Bold-69"/>
     <path d="M 9.1875 72.90625 
L 27.984375 72.90625 
L 27.984375 14.203125 
L 60.984375 14.203125 
L 60.984375 0 
L 9.1875 0 
z
" id="DejaVuSans-Bold-76"/>
     <path d="M 10.203125 18.890625 
L 27.78125 18.890625 
L 27.78125 0 
L 10.203125 0 
z
" id="DejaVuSans-Bold-46"/>
     <path id="DejaVuSans-Bold-32"/>
     <path d="M 5.421875 35.890625 
L 36.078125 35.890625 
L 36.078125 21.6875 
L 5.421875 21.6875 
z
" id="DejaVuSans-Bold-45"/>
     <path d="M 28.8125 13.8125 
L 60.890625 13.8125 
L 60.890625 0 
L 7.90625 0 
L 7.90625 13.8125 
L 34.515625 37.3125 
Q 38.09375 40.53125 39.796875 43.609375 
Q 41.5 46.6875 41.5 50 
Q 41.5 55.125 38.0625 58.25 
Q 34.625 61.375 28.90625 61.375 
Q 24.515625 61.375 19.28125 59.5 
Q 14.0625 57.625 8.109375 53.90625 
L 8.109375 69.921875 
Q 14.453125 72.015625 20.65625 73.109375 
Q 26.859375 74.21875 32.8125 74.21875 
Q 45.90625 74.21875 53.15625 68.453125 
Q 60.40625 62.703125 60.40625 52.390625 
Q 60.40625 46.4375 57.328125 41.28125 
Q 54.25 36.140625 44.390625 27.484375 
z
" id="DejaVuSans-Bold-50"/>
     <path d="M 34.8125 32.625 
Q 29.546875 32.625 26.703125 29.734375 
Q 23.875 26.859375 23.875 21.484375 
Q 23.875 16.109375 26.703125 13.25 
Q 29.546875 10.40625 34.8125 10.40625 
Q 40.046875 10.40625 42.828125 13.25 
Q 45.609375 16.109375 45.609375 21.484375 
Q 45.609375 26.90625 42.828125 29.765625 
Q 40.046875 32.625 34.8125 32.625 
z
M 21.09375 38.8125 
Q 14.453125 40.828125 11.078125 44.96875 
Q 7.71875 49.125 7.71875 55.328125 
Q 7.71875 64.546875 14.59375 69.375 
Q 21.484375 74.21875 34.8125 74.21875 
Q 48.046875 74.21875 54.921875 69.40625 
Q 61.8125 64.59375 61.8125 55.328125 
Q 61.8125 49.125 58.421875 44.96875 
Q 55.03125 40.828125 48.390625 38.8125 
Q 55.8125 36.765625 59.59375 32.15625 
Q 63.375 27.546875 63.375 20.515625 
Q 63.375 9.671875 56.171875 4.125 
Q 48.96875 -1.421875 34.8125 -1.421875 
Q 20.609375 -1.421875 13.359375 4.125 
Q 6.109375 9.671875 6.109375 20.515625 
Q 6.109375 27.546875 9.890625 32.15625 
Q 13.671875 36.765625 21.09375 38.8125 
z
M 25.484375 53.421875 
Q 25.484375 49.078125 27.90625 46.734375 
Q 30.328125 44.390625 34.8125 44.390625 
Q 39.203125 44.390625 41.59375 46.734375 
Q 44 49.078125 44 53.421875 
Q 44 57.765625 41.59375 60.078125 
Q 39.203125 62.40625 34.8125 62.40625 
Q 30.328125 62.40625 27.90625 60.0625 
Q 25.484375 57.71875 25.484375 53.421875 
z
" id="DejaVuSans-Bold-56"/>
     <path d="M 6.6875 72.90625 
L 61.625 72.90625 
L 61.625 62.3125 
L 33.203125 0 
L 14.890625 0 
L 41.796875 59.078125 
L 6.6875 59.078125 
z
" id="DejaVuSans-Bold-55"/>
     <path d="M 10.59375 72.90625 
L 57.328125 72.90625 
L 57.328125 59.078125 
L 25.59375 59.078125 
L 25.59375 47.796875 
Q 27.734375 48.390625 29.90625 48.703125 
Q 32.078125 49.03125 34.421875 49.03125 
Q 47.75 49.03125 55.171875 42.359375 
Q 62.59375 35.6875 62.59375 23.78125 
Q 62.59375 11.96875 54.515625 5.265625 
Q 46.4375 -1.421875 32.078125 -1.421875 
Q 25.875 -1.421875 19.796875 -0.21875 
Q 13.71875 0.984375 7.71875 3.421875 
L 7.71875 18.21875 
Q 13.671875 14.796875 19.015625 13.078125 
Q 24.359375 11.375 29.109375 11.375 
Q 35.9375 11.375 39.859375 14.71875 
Q 43.796875 18.0625 43.796875 23.78125 
Q 43.796875 29.546875 39.859375 32.859375 
Q 35.9375 36.1875 29.109375 36.1875 
Q 25.046875 36.1875 20.453125 35.125 
Q 15.875 34.078125 10.59375 31.890625 
z
" id="DejaVuSans-Bold-53"/>
     <path d="M 77.484375 30.078125 
Q 74.03125 30.078125 72.125 27.078125 
Q 70.21875 24.078125 70.21875 18.5 
Q 70.21875 12.890625 72.09375 9.890625 
Q 73.96875 6.890625 77.484375 6.890625 
Q 81 6.890625 82.859375 9.890625 
Q 84.71875 12.890625 84.71875 18.5 
Q 84.71875 24.078125 82.828125 27.078125 
Q 80.953125 30.078125 77.484375 30.078125 
z
M 77.484375 38.28125 
Q 86.578125 38.28125 91.796875 33 
Q 97.015625 27.734375 97.015625 18.5 
Q 97.015625 9.28125 91.796875 3.921875 
Q 86.578125 -1.421875 77.484375 -1.421875 
Q 68.40625 -1.421875 63.15625 3.921875 
Q 57.90625 9.28125 57.90625 18.5 
Q 57.90625 27.6875 63.15625 32.984375 
Q 68.40625 38.28125 77.484375 38.28125 
z
M 32.71875 -1.421875 
L 21.921875 -1.421875 
L 67.484375 74.21875 
L 78.328125 74.21875 
z
M 22.703125 74.21875 
Q 31.78125 74.21875 36.984375 68.921875 
Q 42.1875 63.625 42.1875 54.390625 
Q 42.1875 45.171875 36.984375 39.84375 
Q 31.78125 34.515625 22.703125 34.515625 
Q 13.625 34.515625 8.421875 39.84375 
Q 3.21875 45.171875 3.21875 54.390625 
Q 3.21875 63.625 8.421875 68.921875 
Q 13.625 74.21875 22.703125 74.21875 
z
M 22.703125 66.015625 
Q 19.1875 66.015625 17.28125 62.984375 
Q 15.375 59.96875 15.375 54.390625 
Q 15.375 48.78125 17.28125 45.71875 
Q 19.1875 42.671875 22.703125 42.671875 
Q 26.21875 42.671875 28.09375 45.71875 
Q 29.984375 48.78125 29.984375 54.390625 
Q 29.984375 59.96875 28.078125 62.984375 
Q 26.171875 66.015625 22.703125 66.015625 
z
" id="DejaVuSans-Bold-37"/>
    </defs>
    <g transform="translate(43.3 25.8)scale(0.2 -0.2)">
     <use xlink:href="#DejaVuSans-Bold-82"/>
     <use x="77.001953" xlink:href="#DejaVuSans-Bold-69"/>
     <use x="145.3125" xlink:href="#DejaVuSans-Bold-76"/>
     <use x="209.033203" xlink:href="#DejaVuSans-Bold-46"/>
     <use x="247.021484" xlink:href="#DejaVuSans-Bold-76"/>
     <use x="310.742188" xlink:href="#DejaVuSans-Bold-32"/>
     <use x="345.556641" xlink:href="#DejaVuSans-Bold-45"/>
     <use x="387.060547" xlink:href="#DejaVuSans-Bold-32"/>
     <use x="421.875" xlink:href="#DejaVuSans-Bold-50"/>
     <use x="491.455078" xlink:href="#DejaVuSans-Bold-56"/>
     <use x="561.035156" xlink:href="#DejaVuSans-Bold-46"/>
     <use x="599.023438" xlink:href="#DejaVuSans-Bold-55"/>
     <use x="668.603516" xlink:href="#DejaVuSans-Bold-53"/>
     <use x="738.183594" xlink:href="#DejaVuSans-Bold-37"/>
    </g>
   </g>
  </g>
 </g>
 <defs>
  <clipPath id="p51da9172d9">
   <rect height="372.4" width="521.9" x="43.3" y="31.8"/>
  </clipPath>
 </defs>
</svg>
