<?xml version="1.0" encoding="utf-8" standalone="no"?>
<!DOCTYPE svg PUBLIC "-//W3C//DTD SVG 1.1//EN"
  "http://www.w3.org/Graphics/SVG/1.1/DTD/svg11.dtd">
<!-- Created with matplotlib (https://matplotlib.org/) -->
<svg height="432pt" version="1.1" viewBox="0 0 576 432" width="576pt" xmlns="http://www.w3.org/2000/svg" xmlns:xlink="http://www.w3.org/1999/xlink">
 <defs>
  <style type="text/css">
*{stroke-linecap:butt;stroke-linejoin:round;}
  </style>
 </defs>
 <g id="figure_1">
  <g id="patch_1">
   <path d="M 0 432 
L 576 432 
L 576 0 
L 0 0 
z
" style="fill:#ffffff;"/>
  </g>
  <g id="axes_1">
   <g id="patch_2">
    <path d="M 30.55 404.2 
L 565.2 404.2 
L 565.2 31.8 
L 30.55 31.8 
z
" style="fill:#ffffff;"/>
   </g>
   <g id="PolyCollection_1">
    <defs>
     <path d="M 54.852273 -44.727273 
L 54.852273 -217.715264 
L 56.187562 -224.331452 
L 60.193432 -230.845851 
L 61.528721 -229.420831 
L 62.864011 -228.301161 
L 64.199301 -235.426299 
L 65.53459 -235.528089 
L 69.54046 -236.393274 
L 70.875749 -240.312098 
L 72.211039 -235.019139 
L 73.546329 -234.561095 
L 74.881618 -236.138809 
L 78.887488 -232.932495 
L 80.222777 -234.30663 
L 81.558067 -236.851319 
L 84.228646 -234.561095 
L 88.234515 -231.96552 
L 89.569805 -233.69591 
L 90.905095 -240.057633 
L 92.240385 -241.686233 
L 93.575674 -239.955843 
L 97.581543 -237.512944 
L 98.916833 -233.950375 
L 100.252123 -234.20484 
L 101.587413 -237.462039 
L 102.922702 -235.070044 
L 106.928571 -238.174549 
L 108.263861 -239.345123 
L 109.599151 -238.021874 
L 110.934441 -234.510209 
L 112.26973 -233.797699 
L 116.275599 -229.369926 
L 117.610889 -230.387806 
L 118.946179 -233.034285 
L 120.281469 -229.217251 
L 121.616758 -227.894021 
L 126.957917 -227.843116 
L 128.293207 -224.636802 
L 129.628497 -228.860996 
L 130.963786 -227.028816 
L 136.304945 -222.957317 
L 137.640235 -226.977931 
L 138.975524 -225.858262 
L 140.310814 -231.914615 
L 144.316683 -235.528089 
L 145.651973 -238.072778 
L 146.987263 -238.479919 
L 148.322552 -243.416622 
L 149.657842 -244.841642 
L 154.999001 -245.350572 
L 156.334291 -257.310624 
L 157.66958 -252.78108 
L 159.00487 -258.532064 
L 163.010739 -262.756257 
L 164.346029 -262.552678 
L 165.681319 -264.333972 
L 167.016608 -264.588437 
L 168.351898 -259.906198 
L 172.357767 -254.358775 
L 173.693057 -250.694435 
L 175.028347 -265.657202 
L 176.363636 -270.390325 
L 177.698926 -266.725967 
L 181.704795 -264.181277 
L 183.040085 -260.974983 
L 184.375375 -267.184011 
L 185.710664 -277.922604 
L 187.045954 -275.276124 
L 191.051823 -276.294004 
L 192.387113 -276.344889 
L 193.722403 -276.599374 
L 195.057692 -273.851104 
L 196.392982 -269.728701 
L 201.734141 -264.588437 
L 203.069431 -263.977717 
L 204.40472 -266.878661 
L 205.74001 -266.929546 
L 209.745879 -268.710821 
L 211.081169 -269.830491 
L 212.416459 -273.90199 
L 213.751748 -271.15374 
L 215.087038 -272.1716 
L 219.092907 -272.324295 
L 220.428197 -264.384857 
L 221.763487 -266.827756 
L 223.098776 -262.298212 
L 224.434066 -254.918609 
L 228.439935 -254.613259 
L 229.775225 -263.977717 
L 231.110514 -258.786548 
L 232.445804 -273.240384 
L 233.781094 -269.067095 
L 237.786963 -272.426085 
L 239.122253 -276.395794 
L 240.457542 -272.629645 
L 241.792832 -276.802934 
L 243.128122 -270.390325 
L 247.133991 -276.446679 
L 248.469281 -266.064361 
L 249.80457 -287.490641 
L 251.13986 -301.893573 
L 252.47515 -305.608817 
L 256.481019 -302.402522 
L 257.816309 -293.08895 
L 259.151598 -294.717549 
L 260.486888 -292.020185 
L 265.828047 -298.992628 
L 267.163337 -299.043533 
L 268.498626 -297.211354 
L 269.833916 -302.707872 
L 271.169206 -299.501578 
L 275.175075 -296.244359 
L 276.510365 -296.804194 
L 277.845654 -294.717549 
L 279.180944 -295.939009 
L 280.516234 -295.633639 
L 284.522103 -292.17286 
L 285.857393 -275.225239 
L 287.192682 -278.584228 
L 288.527972 -273.18948 
L 289.863262 -270.390325 
L 293.869131 -275.174334 
L 295.204421 -291.613025 
L 296.53971 -284.691487 
L 297.875 -282.553937 
L 299.21029 -290.696955 
L 303.216159 -291.511255 
L 304.551449 -286.370971 
L 305.886738 -295.430059 
L 307.222028 -295.582754 
L 308.557318 -297.160449 
L 312.563187 -303.267707 
L 313.898477 -312.3777 
L 315.233766 -317.263499 
L 316.569056 -343.524692 
L 317.904346 -347.392631 
L 321.910215 -343.473807 
L 323.245504 -339.453193 
L 324.580794 -336.501363 
L 325.916084 -366.579591 
L 327.251374 -383.272727 
L 332.592532 -378.285158 
L 333.927822 -370.24393 
L 335.263112 -380.982522 
L 336.598402 -369.735 
L 340.604271 -366.477801 
L 341.93956 -365.968851 
L 343.27485 -370.600185 
L 344.61014 -372.737715 
L 345.94543 -368.768006 
L 349.951299 -367.393891 
L 351.286588 -367.088521 
L 352.621878 -362.151817 
L 353.957168 -353.092729 
L 355.292458 -352.023965 
L 360.633616 -349.275695 
L 361.968906 -345.305986 
L 363.304196 -355.179374 
L 364.639486 -346.374751 
L 368.645355 -338.079058 
L 369.980644 -348.563185 
L 371.315934 -349.22481 
L 372.651224 -365.867061 
L 373.986513 -371.312695 
L 377.992383 -370.04035 
L 380.662962 -363.322372 
L 381.998252 -353.143615 
L 383.333541 -351.616805 
L 387.339411 -358.029433 
L 388.6747 -355.891884 
L 390.00999 -357.215133 
L 391.34528 -374.977054 
L 392.680569 -359.352663 
L 396.686439 -369.073375 
L 398.021728 -365.358131 
L 399.357018 -351.36234 
L 400.692308 -343.422902 
L 402.027597 -352.78736 
L 406.033467 -349.02123 
L 407.368756 -352.940054 
L 408.704046 -346.272961 
L 410.039336 -355.026699 
L 411.374625 -363.118812 
L 415.380495 -363.373277 
L 416.715784 -323.981477 
L 418.051074 -319.350143 
L 419.386364 -317.619754 
L 420.721653 -318.383168 
L 424.727522 -318.077798 
L 426.062812 -306.524906 
L 427.398102 -300.061393 
L 428.733392 -295.531849 
L 430.068681 -310.901775 
L 434.07455 -323.065387 
L 435.40984 -318.128703 
L 436.74513 -313.70093 
L 438.08042 -304.590957 
L 439.415709 -308.153506 
L 443.421578 -317.314403 
L 444.756868 -317.365289 
L 446.092158 -328.358346 
L 447.427448 -314.260764 
L 448.762737 -315.889364 
L 452.768606 -320.368023 
L 454.103896 -326.526166 
L 455.439186 -331.87001 
L 456.774476 -332.124495 
L 458.109765 -336.145089 
L 463.450924 -335.839739 
L 464.786214 -334.974534 
L 466.121503 -329.83427 
L 467.456793 -325.915446 
L 471.462662 -332.7861 
L 472.797952 -334.058444 
L 474.133242 -343.422902 
L 475.468531 -346.476541 
L 476.803821 -327.442256 
L 480.80969 -333.905769 
L 482.14498 -328.918181 
L 483.48027 -321.945737 
L 484.815559 -314.515229 
L 486.150849 -317.823333 
L 490.156718 -318.841213 
L 491.492008 -312.3777 
L 492.827298 -321.894832 
L 494.162587 -328.40925 
L 495.497877 -328.663715 
L 499.503746 -330.597665 
L 500.839036 -323.268967 
L 502.174326 -335.330789 
L 503.509615 -335.941529 
L 504.844905 -346.832796 
L 508.850774 -346.629216 
L 510.186064 -354.415959 
L 511.521354 -354.517749 
L 512.856643 -351.56592 
L 514.191933 -335.992414 
L 518.197802 -344.440782 
L 519.533092 -344.847941 
L 520.868382 -341.234468 
L 522.203671 -326.373491 
L 523.538961 -323.472547 
L 527.54483 -324.134172 
L 528.88012 -327.849416 
L 530.21541 -310.85089 
L 531.550699 -290.188005 
L 532.885989 -307.390111 
L 536.891858 -297.262239 
L 538.227148 -321.233227 
L 539.562438 -320.520698 
L 540.897727 -322.301992 
L 540.897727 -44.727273 
L 540.897727 -44.727273 
L 539.562438 -44.727273 
L 538.227148 -44.727273 
L 536.891858 -44.727273 
L 532.885989 -44.727273 
L 531.550699 -44.727273 
L 530.21541 -44.727273 
L 528.88012 -44.727273 
L 527.54483 -44.727273 
L 523.538961 -44.727273 
L 522.203671 -44.727273 
L 520.868382 -44.727273 
L 519.533092 -44.727273 
L 518.197802 -44.727273 
L 514.191933 -44.727273 
L 512.856643 -44.727273 
L 511.521354 -44.727273 
L 510.186064 -44.727273 
L 508.850774 -44.727273 
L 504.844905 -44.727273 
L 503.509615 -44.727273 
L 502.174326 -44.727273 
L 500.839036 -44.727273 
L 499.503746 -44.727273 
L 495.497877 -44.727273 
L 494.162587 -44.727273 
L 492.827298 -44.727273 
L 491.492008 -44.727273 
L 490.156718 -44.727273 
L 486.150849 -44.727273 
L 484.815559 -44.727273 
L 483.48027 -44.727273 
L 482.14498 -44.727273 
L 480.80969 -44.727273 
L 476.803821 -44.727273 
L 475.468531 -44.727273 
L 474.133242 -44.727273 
L 472.797952 -44.727273 
L 471.462662 -44.727273 
L 467.456793 -44.727273 
L 466.121503 -44.727273 
L 464.786214 -44.727273 
L 463.450924 -44.727273 
L 458.109765 -44.727273 
L 456.774476 -44.727273 
L 455.439186 -44.727273 
L 454.103896 -44.727273 
L 452.768606 -44.727273 
L 448.762737 -44.727273 
L 447.427448 -44.727273 
L 446.092158 -44.727273 
L 444.756868 -44.727273 
L 443.421578 -44.727273 
L 439.415709 -44.727273 
L 438.08042 -44.727273 
L 436.74513 -44.727273 
L 435.40984 -44.727273 
L 434.07455 -44.727273 
L 430.068681 -44.727273 
L 428.733392 -44.727273 
L 427.398102 -44.727273 
L 426.062812 -44.727273 
L 424.727522 -44.727273 
L 420.721653 -44.727273 
L 419.386364 -44.727273 
L 418.051074 -44.727273 
L 416.715784 -44.727273 
L 415.380495 -44.727273 
L 411.374625 -44.727273 
L 410.039336 -44.727273 
L 408.704046 -44.727273 
L 407.368756 -44.727273 
L 406.033467 -44.727273 
L 402.027597 -44.727273 
L 400.692308 -44.727273 
L 399.357018 -44.727273 
L 398.021728 -44.727273 
L 396.686439 -44.727273 
L 392.680569 -44.727273 
L 391.34528 -44.727273 
L 390.00999 -44.727273 
L 388.6747 -44.727273 
L 387.339411 -44.727273 
L 383.333541 -44.727273 
L 381.998252 -44.727273 
L 380.662962 -44.727273 
L 377.992383 -44.727273 
L 373.986513 -44.727273 
L 372.651224 -44.727273 
L 371.315934 -44.727273 
L 369.980644 -44.727273 
L 368.645355 -44.727273 
L 364.639486 -44.727273 
L 363.304196 -44.727273 
L 361.968906 -44.727273 
L 360.633616 -44.727273 
L 355.292458 -44.727273 
L 353.957168 -44.727273 
L 352.621878 -44.727273 
L 351.286588 -44.727273 
L 349.951299 -44.727273 
L 345.94543 -44.727273 
L 344.61014 -44.727273 
L 343.27485 -44.727273 
L 341.93956 -44.727273 
L 340.604271 -44.727273 
L 336.598402 -44.727273 
L 335.263112 -44.727273 
L 333.927822 -44.727273 
L 332.592532 -44.727273 
L 327.251374 -44.727273 
L 325.916084 -44.727273 
L 324.580794 -44.727273 
L 323.245504 -44.727273 
L 321.910215 -44.727273 
L 317.904346 -44.727273 
L 316.569056 -44.727273 
L 315.233766 -44.727273 
L 313.898477 -44.727273 
L 312.563187 -44.727273 
L 308.557318 -44.727273 
L 307.222028 -44.727273 
L 305.886738 -44.727273 
L 304.551449 -44.727273 
L 303.216159 -44.727273 
L 299.21029 -44.727273 
L 297.875 -44.727273 
L 296.53971 -44.727273 
L 295.204421 -44.727273 
L 293.869131 -44.727273 
L 289.863262 -44.727273 
L 288.527972 -44.727273 
L 287.192682 -44.727273 
L 285.857393 -44.727273 
L 284.522103 -44.727273 
L 280.516234 -44.727273 
L 279.180944 -44.727273 
L 277.845654 -44.727273 
L 276.510365 -44.727273 
L 275.175075 -44.727273 
L 271.169206 -44.727273 
L 269.833916 -44.727273 
L 268.498626 -44.727273 
L 267.163337 -44.727273 
L 265.828047 -44.727273 
L 260.486888 -44.727273 
L 259.151598 -44.727273 
L 257.816309 -44.727273 
L 256.481019 -44.727273 
L 252.47515 -44.727273 
L 251.13986 -44.727273 
L 249.80457 -44.727273 
L 248.469281 -44.727273 
L 247.133991 -44.727273 
L 243.128122 -44.727273 
L 241.792832 -44.727273 
L 240.457542 -44.727273 
L 239.122253 -44.727273 
L 237.786963 -44.727273 
L 233.781094 -44.727273 
L 232.445804 -44.727273 
L 231.110514 -44.727273 
L 229.775225 -44.727273 
L 228.439935 -44.727273 
L 224.434066 -44.727273 
L 223.098776 -44.727273 
L 221.763487 -44.727273 
L 220.428197 -44.727273 
L 219.092907 -44.727273 
L 215.087038 -44.727273 
L 213.751748 -44.727273 
L 212.416459 -44.727273 
L 211.081169 -44.727273 
L 209.745879 -44.727273 
L 205.74001 -44.727273 
L 204.40472 -44.727273 
L 203.069431 -44.727273 
L 201.734141 -44.727273 
L 196.392982 -44.727273 
L 195.057692 -44.727273 
L 193.722403 -44.727273 
L 192.387113 -44.727273 
L 191.051823 -44.727273 
L 187.045954 -44.727273 
L 185.710664 -44.727273 
L 184.375375 -44.727273 
L 183.040085 -44.727273 
L 181.704795 -44.727273 
L 177.698926 -44.727273 
L 176.363636 -44.727273 
L 175.028347 -44.727273 
L 173.693057 -44.727273 
L 172.357767 -44.727273 
L 168.351898 -44.727273 
L 167.016608 -44.727273 
L 165.681319 -44.727273 
L 164.346029 -44.727273 
L 163.010739 -44.727273 
L 159.00487 -44.727273 
L 157.66958 -44.727273 
L 156.334291 -44.727273 
L 154.999001 -44.727273 
L 149.657842 -44.727273 
L 148.322552 -44.727273 
L 146.987263 -44.727273 
L 145.651973 -44.727273 
L 144.316683 -44.727273 
L 140.310814 -44.727273 
L 138.975524 -44.727273 
L 137.640235 -44.727273 
L 136.304945 -44.727273 
L 130.963786 -44.727273 
L 129.628497 -44.727273 
L 128.293207 -44.727273 
L 126.957917 -44.727273 
L 121.616758 -44.727273 
L 120.281469 -44.727273 
L 118.946179 -44.727273 
L 117.610889 -44.727273 
L 116.275599 -44.727273 
L 112.26973 -44.727273 
L 110.934441 -44.727273 
L 109.599151 -44.727273 
L 108.263861 -44.727273 
L 106.928571 -44.727273 
L 102.922702 -44.727273 
L 101.587413 -44.727273 
L 100.252123 -44.727273 
L 98.916833 -44.727273 
L 97.581543 -44.727273 
L 93.575674 -44.727273 
L 92.240385 -44.727273 
L 90.905095 -44.727273 
L 89.569805 -44.727273 
L 88.234515 -44.727273 
L 84.228646 -44.727273 
L 81.558067 -44.727273 
L 80.222777 -44.727273 
L 78.887488 -44.727273 
L 74.881618 -44.727273 
L 73.546329 -44.727273 
L 72.211039 -44.727273 
L 70.875749 -44.727273 
L 69.54046 -44.727273 
L 65.53459 -44.727273 
L 64.199301 -44.727273 
L 62.864011 -44.727273 
L 61.528721 -44.727273 
L 60.193432 -44.727273 
L 56.187562 -44.727273 
L 54.852273 -44.727273 
z
" id="mc22e515a9f" style="stroke:#ffcee0;"/>
    </defs>
    <g clip-path="url(#pc36ee8ddb3)">
     <use style="fill:#ffcee0;stroke:#ffcee0;" x="0" xlink:href="#mc22e515a9f" y="432"/>
    </g>
   </g>
   <g id="matplotlib.axis_1">
    <g id="xtick_1">
     <g id="line2d_1">
      <defs>
       <path d="M 0 0 
L 0 3.5 
" id="m812d2db568" style="stroke:#000000;stroke-width:0.8;"/>
      </defs>
      <g>
       <use style="stroke:#000000;stroke-width:0.8;" x="52.181693" xlink:href="#m812d2db568" y="404.2"/>
      </g>
     </g>
     <g id="text_1">
      <!-- 2022-11 -->
      <defs>
       <path d="M 19.1875 8.296875 
L 53.609375 8.296875 
L 53.609375 0 
L 7.328125 0 
L 7.328125 8.296875 
Q 12.9375 14.109375 22.625 23.890625 
Q 32.328125 33.6875 34.8125 36.53125 
Q 39.546875 41.84375 41.421875 45.53125 
Q 43.3125 49.21875 43.3125 52.78125 
Q 43.3125 58.59375 39.234375 62.25 
Q 35.15625 65.921875 28.609375 65.921875 
Q 23.96875 65.921875 18.8125 64.3125 
Q 13.671875 62.703125 7.8125 59.421875 
L 7.8125 69.390625 
Q 13.765625 71.78125 18.9375 73 
Q 24.125 74.21875 28.421875 74.21875 
Q 39.75 74.21875 46.484375 68.546875 
Q 53.21875 62.890625 53.21875 53.421875 
Q 53.21875 48.921875 51.53125 44.890625 
Q 49.859375 40.875 45.40625 35.40625 
Q 44.1875 33.984375 37.640625 27.21875 
Q 31.109375 20.453125 19.1875 8.296875 
z
" id="DejaVuSans-50"/>
       <path d="M 31.78125 66.40625 
Q 24.171875 66.40625 20.328125 58.90625 
Q 16.5 51.421875 16.5 36.375 
Q 16.5 21.390625 20.328125 13.890625 
Q 24.171875 6.390625 31.78125 6.390625 
Q 39.453125 6.390625 43.28125 13.890625 
Q 47.125 21.390625 47.125 36.375 
Q 47.125 51.421875 43.28125 58.90625 
Q 39.453125 66.40625 31.78125 66.40625 
z
M 31.78125 74.21875 
Q 44.046875 74.21875 50.515625 64.515625 
Q 56.984375 54.828125 56.984375 36.375 
Q 56.984375 17.96875 50.515625 8.265625 
Q 44.046875 -1.421875 31.78125 -1.421875 
Q 19.53125 -1.421875 13.0625 8.265625 
Q 6.59375 17.96875 6.59375 36.375 
Q 6.59375 54.828125 13.0625 64.515625 
Q 19.53125 74.21875 31.78125 74.21875 
z
" id="DejaVuSans-48"/>
       <path d="M 4.890625 31.390625 
L 31.203125 31.390625 
L 31.203125 23.390625 
L 4.890625 23.390625 
z
" id="DejaVuSans-45"/>
       <path d="M 12.40625 8.296875 
L 28.515625 8.296875 
L 28.515625 63.921875 
L 10.984375 60.40625 
L 10.984375 69.390625 
L 28.421875 72.90625 
L 38.28125 72.90625 
L 38.28125 8.296875 
L 54.390625 8.296875 
L 54.390625 0 
L 12.40625 0 
z
" id="DejaVuSans-49"/>
      </defs>
      <g transform="translate(31.290287 418.798437)scale(0.1 -0.1)">
       <use xlink:href="#DejaVuSans-50"/>
       <use x="63.623047" xlink:href="#DejaVuSans-48"/>
       <use x="127.246094" xlink:href="#DejaVuSans-50"/>
       <use x="190.869141" xlink:href="#DejaVuSans-50"/>
       <use x="254.492188" xlink:href="#DejaVuSans-45"/>
       <use x="290.576172" xlink:href="#DejaVuSans-49"/>
       <use x="354.199219" xlink:href="#DejaVuSans-49"/>
      </g>
     </g>
    </g>
    <g id="xtick_2">
     <g id="line2d_2">
      <g>
       <use style="stroke:#000000;stroke-width:0.8;" x="133.634366" xlink:href="#m812d2db568" y="404.2"/>
      </g>
     </g>
     <g id="text_2">
      <!-- 2023-01 -->
      <defs>
       <path d="M 40.578125 39.3125 
Q 47.65625 37.796875 51.625 33 
Q 55.609375 28.21875 55.609375 21.1875 
Q 55.609375 10.40625 48.1875 4.484375 
Q 40.765625 -1.421875 27.09375 -1.421875 
Q 22.515625 -1.421875 17.65625 -0.515625 
Q 12.796875 0.390625 7.625 2.203125 
L 7.625 11.71875 
Q 11.71875 9.328125 16.59375 8.109375 
Q 21.484375 6.890625 26.8125 6.890625 
Q 36.078125 6.890625 40.9375 10.546875 
Q 45.796875 14.203125 45.796875 21.1875 
Q 45.796875 27.640625 41.28125 31.265625 
Q 36.765625 34.90625 28.71875 34.90625 
L 20.21875 34.90625 
L 20.21875 43.015625 
L 29.109375 43.015625 
Q 36.375 43.015625 40.234375 45.921875 
Q 44.09375 48.828125 44.09375 54.296875 
Q 44.09375 59.90625 40.109375 62.90625 
Q 36.140625 65.921875 28.71875 65.921875 
Q 24.65625 65.921875 20.015625 65.03125 
Q 15.375 64.15625 9.8125 62.3125 
L 9.8125 71.09375 
Q 15.4375 72.65625 20.34375 73.4375 
Q 25.25 74.21875 29.59375 74.21875 
Q 40.828125 74.21875 47.359375 69.109375 
Q 53.90625 64.015625 53.90625 55.328125 
Q 53.90625 49.265625 50.4375 45.09375 
Q 46.96875 40.921875 40.578125 39.3125 
z
" id="DejaVuSans-51"/>
      </defs>
      <g transform="translate(112.742959 418.798437)scale(0.1 -0.1)">
       <use xlink:href="#DejaVuSans-50"/>
       <use x="63.623047" xlink:href="#DejaVuSans-48"/>
       <use x="127.246094" xlink:href="#DejaVuSans-50"/>
       <use x="190.869141" xlink:href="#DejaVuSans-51"/>
       <use x="254.492188" xlink:href="#DejaVuSans-45"/>
       <use x="290.576172" xlink:href="#DejaVuSans-48"/>
       <use x="354.199219" xlink:href="#DejaVuSans-49"/>
      </g>
     </g>
    </g>
    <g id="xtick_3">
     <g id="line2d_3">
      <g>
       <use style="stroke:#000000;stroke-width:0.8;" x="212.416459" xlink:href="#m812d2db568" y="404.2"/>
      </g>
     </g>
     <g id="text_3">
      <!-- 2023-03 -->
      <g transform="translate(191.525052 418.798437)scale(0.1 -0.1)">
       <use xlink:href="#DejaVuSans-50"/>
       <use x="63.623047" xlink:href="#DejaVuSans-48"/>
       <use x="127.246094" xlink:href="#DejaVuSans-50"/>
       <use x="190.869141" xlink:href="#DejaVuSans-51"/>
       <use x="254.492188" xlink:href="#DejaVuSans-45"/>
       <use x="290.576172" xlink:href="#DejaVuSans-48"/>
       <use x="354.199219" xlink:href="#DejaVuSans-51"/>
      </g>
     </g>
    </g>
    <g id="xtick_4">
     <g id="line2d_4">
      <g>
       <use style="stroke:#000000;stroke-width:0.8;" x="293.869131" xlink:href="#m812d2db568" y="404.2"/>
      </g>
     </g>
     <g id="text_4">
      <!-- 2023-05 -->
      <defs>
       <path d="M 10.796875 72.90625 
L 49.515625 72.90625 
L 49.515625 64.59375 
L 19.828125 64.59375 
L 19.828125 46.734375 
Q 21.96875 47.46875 24.109375 47.828125 
Q 26.265625 48.1875 28.421875 48.1875 
Q 40.625 48.1875 47.75 41.5 
Q 54.890625 34.8125 54.890625 23.390625 
Q 54.890625 11.625 47.5625 5.09375 
Q 40.234375 -1.421875 26.90625 -1.421875 
Q 22.3125 -1.421875 17.546875 -0.640625 
Q 12.796875 0.140625 7.71875 1.703125 
L 7.71875 11.625 
Q 12.109375 9.234375 16.796875 8.0625 
Q 21.484375 6.890625 26.703125 6.890625 
Q 35.15625 6.890625 40.078125 11.328125 
Q 45.015625 15.765625 45.015625 23.390625 
Q 45.015625 31 40.078125 35.4375 
Q 35.15625 39.890625 26.703125 39.890625 
Q 22.75 39.890625 18.8125 39.015625 
Q 14.890625 38.140625 10.796875 36.28125 
z
" id="DejaVuSans-53"/>
      </defs>
      <g transform="translate(272.977725 418.798437)scale(0.1 -0.1)">
       <use xlink:href="#DejaVuSans-50"/>
       <use x="63.623047" xlink:href="#DejaVuSans-48"/>
       <use x="127.246094" xlink:href="#DejaVuSans-50"/>
       <use x="190.869141" xlink:href="#DejaVuSans-51"/>
       <use x="254.492188" xlink:href="#DejaVuSans-45"/>
       <use x="290.576172" xlink:href="#DejaVuSans-48"/>
       <use x="354.199219" xlink:href="#DejaVuSans-53"/>
      </g>
     </g>
    </g>
    <g id="xtick_5">
     <g id="line2d_5">
      <g>
       <use style="stroke:#000000;stroke-width:0.8;" x="375.321803" xlink:href="#m812d2db568" y="404.2"/>
      </g>
     </g>
     <g id="text_5">
      <!-- 2023-07 -->
      <defs>
       <path d="M 8.203125 72.90625 
L 55.078125 72.90625 
L 55.078125 68.703125 
L 28.609375 0 
L 18.3125 0 
L 43.21875 64.59375 
L 8.203125 64.59375 
z
" id="DejaVuSans-55"/>
      </defs>
      <g transform="translate(354.430397 418.798437)scale(0.1 -0.1)">
       <use xlink:href="#DejaVuSans-50"/>
       <use x="63.623047" xlink:href="#DejaVuSans-48"/>
       <use x="127.246094" xlink:href="#DejaVuSans-50"/>
       <use x="190.869141" xlink:href="#DejaVuSans-51"/>
       <use x="254.492188" xlink:href="#DejaVuSans-45"/>
       <use x="290.576172" xlink:href="#DejaVuSans-48"/>
       <use x="354.199219" xlink:href="#DejaVuSans-55"/>
      </g>
     </g>
    </g>
    <g id="xtick_6">
     <g id="line2d_6">
      <g>
       <use style="stroke:#000000;stroke-width:0.8;" x="458.109765" xlink:href="#m812d2db568" y="404.2"/>
      </g>
     </g>
     <g id="text_6">
      <!-- 2023-09 -->
      <defs>
       <path d="M 10.984375 1.515625 
L 10.984375 10.5 
Q 14.703125 8.734375 18.5 7.8125 
Q 22.3125 6.890625 25.984375 6.890625 
Q 35.75 6.890625 40.890625 13.453125 
Q 46.046875 20.015625 46.78125 33.40625 
Q 43.953125 29.203125 39.59375 26.953125 
Q 35.25 24.703125 29.984375 24.703125 
Q 19.046875 24.703125 12.671875 31.3125 
Q 6.296875 37.9375 6.296875 49.421875 
Q 6.296875 60.640625 12.9375 67.421875 
Q 19.578125 74.21875 30.609375 74.21875 
Q 43.265625 74.21875 49.921875 64.515625 
Q 56.59375 54.828125 56.59375 36.375 
Q 56.59375 19.140625 48.40625 8.859375 
Q 40.234375 -1.421875 26.421875 -1.421875 
Q 22.703125 -1.421875 18.890625 -0.6875 
Q 15.09375 0.046875 10.984375 1.515625 
z
M 30.609375 32.421875 
Q 37.25 32.421875 41.125 36.953125 
Q 45.015625 41.5 45.015625 49.421875 
Q 45.015625 57.28125 41.125 61.84375 
Q 37.25 66.40625 30.609375 66.40625 
Q 23.96875 66.40625 20.09375 61.84375 
Q 16.21875 57.28125 16.21875 49.421875 
Q 16.21875 41.5 20.09375 36.953125 
Q 23.96875 32.421875 30.609375 32.421875 
z
" id="DejaVuSans-57"/>
      </defs>
      <g transform="translate(437.218359 418.798437)scale(0.1 -0.1)">
       <use xlink:href="#DejaVuSans-50"/>
       <use x="63.623047" xlink:href="#DejaVuSans-48"/>
       <use x="127.246094" xlink:href="#DejaVuSans-50"/>
       <use x="190.869141" xlink:href="#DejaVuSans-51"/>
       <use x="254.492188" xlink:href="#DejaVuSans-45"/>
       <use x="290.576172" xlink:href="#DejaVuSans-48"/>
       <use x="354.199219" xlink:href="#DejaVuSans-57"/>
      </g>
     </g>
    </g>
    <g id="xtick_7">
     <g id="line2d_7">
      <g>
       <use style="stroke:#000000;stroke-width:0.8;" x="539.562438" xlink:href="#m812d2db568" y="404.2"/>
      </g>
     </g>
     <g id="text_7">
      <!-- 2023-11 -->
      <g transform="translate(518.671031 418.798437)scale(0.1 -0.1)">
       <use xlink:href="#DejaVuSans-50"/>
       <use x="63.623047" xlink:href="#DejaVuSans-48"/>
       <use x="127.246094" xlink:href="#DejaVuSans-50"/>
       <use x="190.869141" xlink:href="#DejaVuSans-51"/>
       <use x="254.492188" xlink:href="#DejaVuSans-45"/>
       <use x="290.576172" xlink:href="#DejaVuSans-49"/>
       <use x="354.199219" xlink:href="#DejaVuSans-49"/>
      </g>
     </g>
    </g>
   </g>
   <g id="matplotlib.axis_2">
    <g id="ytick_1">
     <g id="line2d_8">
      <defs>
       <path d="M 0 0 
L -3.5 0 
" id="mf338d78775" style="stroke:#000000;stroke-width:0.8;"/>
      </defs>
      <g>
       <use style="stroke:#000000;stroke-width:0.8;" x="30.55" xlink:href="#mf338d78775" y="387.272727"/>
      </g>
     </g>
     <g id="text_8">
      <!-- 0 -->
      <g transform="translate(17.1875 391.071946)scale(0.1 -0.1)">
       <use xlink:href="#DejaVuSans-48"/>
      </g>
     </g>
    </g>
    <g id="ytick_2">
     <g id="line2d_9">
      <g>
       <use style="stroke:#000000;stroke-width:0.8;" x="30.55" xlink:href="#mf338d78775" y="336.37894"/>
      </g>
     </g>
     <g id="text_9">
      <!-- 10 -->
      <g transform="translate(10.825 340.178159)scale(0.1 -0.1)">
       <use xlink:href="#DejaVuSans-49"/>
       <use x="63.623047" xlink:href="#DejaVuSans-48"/>
      </g>
     </g>
    </g>
    <g id="ytick_3">
     <g id="line2d_10">
      <g>
       <use style="stroke:#000000;stroke-width:0.8;" x="30.55" xlink:href="#mf338d78775" y="285.485153"/>
      </g>
     </g>
     <g id="text_10">
      <!-- 20 -->
      <g transform="translate(10.825 289.284372)scale(0.1 -0.1)">
       <use xlink:href="#DejaVuSans-50"/>
       <use x="63.623047" xlink:href="#DejaVuSans-48"/>
      </g>
     </g>
    </g>
    <g id="ytick_4">
     <g id="line2d_11">
      <g>
       <use style="stroke:#000000;stroke-width:0.8;" x="30.55" xlink:href="#mf338d78775" y="234.591366"/>
      </g>
     </g>
     <g id="text_11">
      <!-- 30 -->
      <g transform="translate(10.825 238.390585)scale(0.1 -0.1)">
       <use xlink:href="#DejaVuSans-51"/>
       <use x="63.623047" xlink:href="#DejaVuSans-48"/>
      </g>
     </g>
    </g>
    <g id="ytick_5">
     <g id="line2d_12">
      <g>
       <use style="stroke:#000000;stroke-width:0.8;" x="30.55" xlink:href="#mf338d78775" y="183.697579"/>
      </g>
     </g>
     <g id="text_12">
      <!-- 40 -->
      <defs>
       <path d="M 37.796875 64.3125 
L 12.890625 25.390625 
L 37.796875 25.390625 
z
M 35.203125 72.90625 
L 47.609375 72.90625 
L 47.609375 25.390625 
L 58.015625 25.390625 
L 58.015625 17.1875 
L 47.609375 17.1875 
L 47.609375 0 
L 37.796875 0 
L 37.796875 17.1875 
L 4.890625 17.1875 
L 4.890625 26.703125 
z
" id="DejaVuSans-52"/>
      </defs>
      <g transform="translate(10.825 187.496798)scale(0.1 -0.1)">
       <use xlink:href="#DejaVuSans-52"/>
       <use x="63.623047" xlink:href="#DejaVuSans-48"/>
      </g>
     </g>
    </g>
    <g id="ytick_6">
     <g id="line2d_13">
      <g>
       <use style="stroke:#000000;stroke-width:0.8;" x="30.55" xlink:href="#mf338d78775" y="132.803792"/>
      </g>
     </g>
     <g id="text_13">
      <!-- 50 -->
      <g transform="translate(10.825 136.603011)scale(0.1 -0.1)">
       <use xlink:href="#DejaVuSans-53"/>
       <use x="63.623047" xlink:href="#DejaVuSans-48"/>
      </g>
     </g>
    </g>
    <g id="ytick_7">
     <g id="line2d_14">
      <g>
       <use style="stroke:#000000;stroke-width:0.8;" x="30.55" xlink:href="#mf338d78775" y="81.910005"/>
      </g>
     </g>
     <g id="text_14">
      <!-- 60 -->
      <defs>
       <path d="M 33.015625 40.375 
Q 26.375 40.375 22.484375 35.828125 
Q 18.609375 31.296875 18.609375 23.390625 
Q 18.609375 15.53125 22.484375 10.953125 
Q 26.375 6.390625 33.015625 6.390625 
Q 39.65625 6.390625 43.53125 10.953125 
Q 47.40625 15.53125 47.40625 23.390625 
Q 47.40625 31.296875 43.53125 35.828125 
Q 39.65625 40.375 33.015625 40.375 
z
M 52.59375 71.296875 
L 52.59375 62.3125 
Q 48.875 64.0625 45.09375 64.984375 
Q 41.3125 65.921875 37.59375 65.921875 
Q 27.828125 65.921875 22.671875 59.328125 
Q 17.53125 52.734375 16.796875 39.40625 
Q 19.671875 43.65625 24.015625 45.921875 
Q 28.375 48.1875 33.59375 48.1875 
Q 44.578125 48.1875 50.953125 41.515625 
Q 57.328125 34.859375 57.328125 23.390625 
Q 57.328125 12.15625 50.6875 5.359375 
Q 44.046875 -1.421875 33.015625 -1.421875 
Q 20.359375 -1.421875 13.671875 8.265625 
Q 6.984375 17.96875 6.984375 36.375 
Q 6.984375 53.65625 15.1875 63.9375 
Q 23.390625 74.21875 37.203125 74.21875 
Q 40.921875 74.21875 44.703125 73.484375 
Q 48.484375 72.75 52.59375 71.296875 
z
" id="DejaVuSans-54"/>
      </defs>
      <g transform="translate(10.825 85.709224)scale(0.1 -0.1)">
       <use xlink:href="#DejaVuSans-54"/>
       <use x="63.623047" xlink:href="#DejaVuSans-48"/>
      </g>
     </g>
    </g>
   </g>
   <g id="patch_3">
    <path d="M 30.55 404.2 
L 30.55 31.8 
" style="fill:none;stroke:#000000;stroke-linecap:square;stroke-linejoin:miter;stroke-width:0.8;"/>
   </g>
   <g id="patch_4">
    <path d="M 565.2 404.2 
L 565.2 31.8 
" style="fill:none;stroke:#000000;stroke-linecap:square;stroke-linejoin:miter;stroke-width:0.8;"/>
   </g>
   <g id="patch_5">
    <path d="M 30.55 404.2 
L 565.2 404.2 
" style="fill:none;stroke:#000000;stroke-linecap:square;stroke-linejoin:miter;stroke-width:0.8;"/>
   </g>
   <g id="patch_6">
    <path d="M 30.55 31.8 
L 565.2 31.8 
" style="fill:none;stroke:#000000;stroke-linecap:square;stroke-linejoin:miter;stroke-width:0.8;"/>
   </g>
   <g id="text_15">
    <!-- RMBS - 60.46% -->
    <defs>
     <path d="M 35.890625 40.578125 
Q 41.796875 40.578125 44.359375 42.765625 
Q 46.921875 44.96875 46.921875 50 
Q 46.921875 54.984375 44.359375 57.125 
Q 41.796875 59.28125 35.890625 59.28125 
L 27.984375 59.28125 
L 27.984375 40.578125 
z
M 27.984375 27.59375 
L 27.984375 0 
L 9.1875 0 
L 9.1875 72.90625 
L 37.890625 72.90625 
Q 52.296875 72.90625 59 68.0625 
Q 65.71875 63.234375 65.71875 52.78125 
Q 65.71875 45.5625 62.21875 40.921875 
Q 58.734375 36.28125 51.703125 34.078125 
Q 55.5625 33.203125 58.609375 30.09375 
Q 61.671875 27 64.796875 20.703125 
L 75 0 
L 54.984375 0 
L 46.09375 18.109375 
Q 43.40625 23.578125 40.640625 25.578125 
Q 37.890625 27.59375 33.296875 27.59375 
z
" id="DejaVuSans-Bold-82"/>
     <path d="M 9.1875 72.90625 
L 33.109375 72.90625 
L 49.703125 33.890625 
L 66.40625 72.90625 
L 90.28125 72.90625 
L 90.28125 0 
L 72.515625 0 
L 72.515625 53.328125 
L 55.71875 14.015625 
L 43.796875 14.015625 
L 27 53.328125 
L 27 0 
L 9.1875 0 
z
" id="DejaVuSans-Bold-77"/>
     <path d="M 38.375 44.671875 
Q 42.828125 44.671875 45.109375 46.625 
Q 47.40625 48.578125 47.40625 52.390625 
Q 47.40625 56.15625 45.109375 58.125 
Q 42.828125 60.109375 38.375 60.109375 
L 27.984375 60.109375 
L 27.984375 44.671875 
z
M 39.015625 12.796875 
Q 44.671875 12.796875 47.53125 15.1875 
Q 50.390625 17.578125 50.390625 22.40625 
Q 50.390625 27.15625 47.5625 29.515625 
Q 44.734375 31.890625 39.015625 31.890625 
L 27.984375 31.890625 
L 27.984375 12.796875 
z
M 56.5 39.015625 
Q 62.546875 37.25 65.859375 32.515625 
Q 69.1875 27.78125 69.1875 20.90625 
Q 69.1875 10.359375 62.0625 5.171875 
Q 54.9375 0 40.375 0 
L 9.1875 0 
L 9.1875 72.90625 
L 37.40625 72.90625 
Q 52.59375 72.90625 59.40625 68.3125 
Q 66.21875 63.71875 66.21875 53.609375 
Q 66.21875 48.296875 63.71875 44.5625 
Q 61.234375 40.828125 56.5 39.015625 
z
" id="DejaVuSans-Bold-66"/>
     <path d="M 59.90625 70.609375 
L 59.90625 55.171875 
Q 53.90625 57.859375 48.1875 59.21875 
Q 42.484375 60.59375 37.40625 60.59375 
Q 30.671875 60.59375 27.4375 58.734375 
Q 24.21875 56.890625 24.21875 52.984375 
Q 24.21875 50.046875 26.390625 48.40625 
Q 28.5625 46.78125 34.28125 45.609375 
L 42.28125 44 
Q 54.4375 41.546875 59.5625 36.5625 
Q 64.703125 31.59375 64.703125 22.40625 
Q 64.703125 10.359375 57.546875 4.46875 
Q 50.390625 -1.421875 35.6875 -1.421875 
Q 28.765625 -1.421875 21.78125 -0.09375 
Q 14.796875 1.21875 7.8125 3.8125 
L 7.8125 19.671875 
Q 14.796875 15.96875 21.3125 14.078125 
Q 27.828125 12.203125 33.890625 12.203125 
Q 40.046875 12.203125 43.3125 14.25 
Q 46.578125 16.3125 46.578125 20.125 
Q 46.578125 23.53125 44.359375 25.390625 
Q 42.140625 27.25 35.5 28.71875 
L 28.21875 30.328125 
Q 17.28125 32.671875 12.21875 37.796875 
Q 7.171875 42.921875 7.171875 51.609375 
Q 7.171875 62.5 14.203125 68.359375 
Q 21.234375 74.21875 34.421875 74.21875 
Q 40.4375 74.21875 46.78125 73.3125 
Q 53.125 72.40625 59.90625 70.609375 
z
" id="DejaVuSans-Bold-83"/>
     <path id="DejaVuSans-Bold-32"/>
     <path d="M 5.421875 35.890625 
L 36.078125 35.890625 
L 36.078125 21.6875 
L 5.421875 21.6875 
z
" id="DejaVuSans-Bold-45"/>
     <path d="M 36.1875 35.984375 
Q 31.25 35.984375 28.78125 32.78125 
Q 26.3125 29.59375 26.3125 23.1875 
Q 26.3125 16.796875 28.78125 13.59375 
Q 31.25 10.40625 36.1875 10.40625 
Q 41.15625 10.40625 43.625 13.59375 
Q 46.09375 16.796875 46.09375 23.1875 
Q 46.09375 29.59375 43.625 32.78125 
Q 41.15625 35.984375 36.1875 35.984375 
z
M 59.421875 71 
L 59.421875 57.515625 
Q 54.78125 59.71875 50.671875 60.765625 
Q 46.578125 61.8125 42.671875 61.8125 
Q 34.28125 61.8125 29.59375 57.140625 
Q 24.90625 52.484375 24.125 43.3125 
Q 27.34375 45.703125 31.09375 46.890625 
Q 34.859375 48.09375 39.3125 48.09375 
Q 50.484375 48.09375 57.34375 41.546875 
Q 64.203125 35.015625 64.203125 24.421875 
Q 64.203125 12.703125 56.53125 5.640625 
Q 48.875 -1.421875 35.984375 -1.421875 
Q 21.78125 -1.421875 13.984375 8.171875 
Q 6.203125 17.78125 6.203125 35.40625 
Q 6.203125 53.46875 15.3125 63.796875 
Q 24.421875 74.125 40.28125 74.125 
Q 45.3125 74.125 50.046875 73.34375 
Q 54.78125 72.5625 59.421875 71 
z
" id="DejaVuSans-Bold-54"/>
     <path d="M 46 36.53125 
Q 46 50.203125 43.4375 55.78125 
Q 40.875 61.375 34.8125 61.375 
Q 28.765625 61.375 26.171875 55.78125 
Q 23.578125 50.203125 23.578125 36.53125 
Q 23.578125 22.703125 26.171875 17.03125 
Q 28.765625 11.375 34.8125 11.375 
Q 40.828125 11.375 43.40625 17.03125 
Q 46 22.703125 46 36.53125 
z
M 64.796875 36.375 
Q 64.796875 18.265625 56.984375 8.421875 
Q 49.171875 -1.421875 34.8125 -1.421875 
Q 20.40625 -1.421875 12.59375 8.421875 
Q 4.78125 18.265625 4.78125 36.375 
Q 4.78125 54.546875 12.59375 64.375 
Q 20.40625 74.21875 34.8125 74.21875 
Q 49.171875 74.21875 56.984375 64.375 
Q 64.796875 54.546875 64.796875 36.375 
z
" id="DejaVuSans-Bold-48"/>
     <path d="M 10.203125 18.890625 
L 27.78125 18.890625 
L 27.78125 0 
L 10.203125 0 
z
" id="DejaVuSans-Bold-46"/>
     <path d="M 36.8125 57.421875 
L 16.21875 26.90625 
L 36.8125 26.90625 
z
M 33.6875 72.90625 
L 54.59375 72.90625 
L 54.59375 26.90625 
L 64.984375 26.90625 
L 64.984375 13.28125 
L 54.59375 13.28125 
L 54.59375 0 
L 36.8125 0 
L 36.8125 13.28125 
L 4.5 13.28125 
L 4.5 29.390625 
z
" id="DejaVuSans-Bold-52"/>
     <path d="M 77.484375 30.078125 
Q 74.03125 30.078125 72.125 27.078125 
Q 70.21875 24.078125 70.21875 18.5 
Q 70.21875 12.890625 72.09375 9.890625 
Q 73.96875 6.890625 77.484375 6.890625 
Q 81 6.890625 82.859375 9.890625 
Q 84.71875 12.890625 84.71875 18.5 
Q 84.71875 24.078125 82.828125 27.078125 
Q 80.953125 30.078125 77.484375 30.078125 
z
M 77.484375 38.28125 
Q 86.578125 38.28125 91.796875 33 
Q 97.015625 27.734375 97.015625 18.5 
Q 97.015625 9.28125 91.796875 3.921875 
Q 86.578125 -1.421875 77.484375 -1.421875 
Q 68.40625 -1.421875 63.15625 3.921875 
Q 57.90625 9.28125 57.90625 18.5 
Q 57.90625 27.6875 63.15625 32.984375 
Q 68.40625 38.28125 77.484375 38.28125 
z
M 32.71875 -1.421875 
L 21.921875 -1.421875 
L 67.484375 74.21875 
L 78.328125 74.21875 
z
M 22.703125 74.21875 
Q 31.78125 74.21875 36.984375 68.921875 
Q 42.1875 63.625 42.1875 54.390625 
Q 42.1875 45.171875 36.984375 39.84375 
Q 31.78125 34.515625 22.703125 34.515625 
Q 13.625 34.515625 8.421875 39.84375 
Q 3.21875 45.171875 3.21875 54.390625 
Q 3.21875 63.625 8.421875 68.921875 
Q 13.625 74.21875 22.703125 74.21875 
z
M 22.703125 66.015625 
Q 19.1875 66.015625 17.28125 62.984375 
Q 15.375 59.96875 15.375 54.390625 
Q 15.375 48.78125 17.28125 45.71875 
Q 19.1875 42.671875 22.703125 42.671875 
Q 26.21875 42.671875 28.09375 45.71875 
Q 29.984375 48.78125 29.984375 54.390625 
Q 29.984375 59.96875 28.078125 62.984375 
Q 26.171875 66.015625 22.703125 66.015625 
z
" id="DejaVuSans-Bold-37"/>
    </defs>
    <g transform="translate(30.55 25.8)scale(0.2 -0.2)">
     <use xlink:href="#DejaVuSans-Bold-82"/>
     <use x="77.001953" xlink:href="#DejaVuSans-Bold-77"/>
     <use x="176.513672" xlink:href="#DejaVuSans-Bold-66"/>
     <use x="252.734375" xlink:href="#DejaVuSans-Bold-83"/>
     <use x="324.755859" xlink:href="#DejaVuSans-Bold-32"/>
     <use x="359.570312" xlink:href="#DejaVuSans-Bold-45"/>
     <use x="401.074219" xlink:href="#DejaVuSans-Bold-32"/>
     <use x="435.888672" xlink:href="#DejaVuSans-Bold-54"/>
     <use x="505.46875" xlink:href="#DejaVuSans-Bold-48"/>
     <use x="575.048828" xlink:href="#DejaVuSans-Bold-46"/>
     <use x="613.037109" xlink:href="#DejaVuSans-Bold-52"/>
     <use x="682.617188" xlink:href="#DejaVuSans-Bold-54"/>
     <use x="752.197266" xlink:href="#DejaVuSans-Bold-37"/>
    </g>
   </g>
  </g>
 </g>
 <defs>
  <clipPath id="pc36ee8ddb3">
   <rect height="372.4" width="534.65" x="30.55" y="31.8"/>
  </clipPath>
 </defs>
</svg>
