<?xml version="1.0" encoding="utf-8" standalone="no"?>
<!DOCTYPE svg PUBLIC "-//W3C//DTD SVG 1.1//EN"
  "http://www.w3.org/Graphics/SVG/1.1/DTD/svg11.dtd">
<!-- Created with matplotlib (https://matplotlib.org/) -->
<svg height="432pt" version="1.1" viewBox="0 0 576 432" width="576pt" xmlns="http://www.w3.org/2000/svg" xmlns:xlink="http://www.w3.org/1999/xlink">
 <defs>
  <style type="text/css">
*{stroke-linecap:butt;stroke-linejoin:round;}
  </style>
 </defs>
 <g id="figure_1">
  <g id="patch_1">
   <path d="M 0 432 
L 576 432 
L 576 0 
L 0 0 
z
" style="fill:#ffffff;"/>
  </g>
  <g id="axes_1">
   <g id="patch_2">
    <path d="M 24.175 404.2 
L 565.2 404.2 
L 565.2 31.8 
L 24.175 31.8 
z
" style="fill:#ffffff;"/>
   </g>
   <g id="PolyCollection_1">
    <defs>
     <path d="M 48.767045 -44.727273 
L 48.767045 -251.731555 
L 50.114555 -246.885305 
L 54.157083 -248.96227 
L 55.504592 -251.731555 
L 56.852101 -242.731361 
L 58.199611 -233.038862 
L 59.54712 -242.731361 
L 63.589648 -251.039234 
L 64.937158 -255.885483 
L 66.284667 -254.50084 
L 67.632176 -275.270497 
L 68.979686 -269.731927 
L 73.022214 -255.885483 
L 74.369723 -247.577627 
L 75.717232 -250.346912 
L 77.064742 -253.808519 
L 78.412251 -256.577804 
L 82.454779 -253.116198 
L 83.802288 -253.116198 
L 85.149798 -266.27032 
L 86.497307 -262.808713 
L 87.844816 -261.42407 
L 91.887344 -263.501034 
L 93.234854 -257.962447 
L 94.582363 -248.96227 
L 95.929872 -251.039234 
L 97.277382 -249.654591 
L 101.31991 -251.039234 
L 102.667419 -252.423876 
L 104.014928 -259.34709 
L 105.362438 -259.34709 
L 106.709947 -268.347284 
L 110.752475 -262.116392 
L 112.099984 -251.039234 
L 113.447494 -249.654591 
L 114.795003 -257.270126 
L 116.142512 -256.577804 
L 122.880059 -253.808519 
L 124.227568 -252.423876 
L 125.575078 -255.193162 
L 130.965115 -255.193162 
L 132.312625 -255.193162 
L 133.660134 -259.34709 
L 135.007643 -260.731732 
L 139.050171 -262.116392 
L 140.397681 -260.039411 
L 141.74519 -269.731927 
L 143.092699 -271.808891 
L 144.440209 -284.270691 
L 148.482737 -279.424442 
L 149.830246 -288.42462 
L 151.177755 -282.886049 
L 152.525265 -282.886049 
L 153.872774 -279.424442 
L 157.915302 -286.347656 
L 159.262811 -300.88642 
L 160.610321 -293.96319 
L 163.305339 -306.424991 
L 167.347867 -300.88642 
L 168.695377 -305.040349 
L 170.042886 -325.810006 
L 171.390395 -332.040914 
L 172.737905 -344.502699 
L 176.780433 -323.04072 
L 178.127942 -325.117701 
L 179.475451 -320.271435 
L 180.822961 -317.502149 
L 182.17047 -311.271241 
L 186.212998 -303.655706 
L 187.560507 -303.655706 
L 188.908017 -309.194277 
L 190.255526 -325.117701 
L 191.603035 -315.425185 
L 195.645564 -313.348221 
L 196.993073 -311.271241 
L 198.340582 -327.194648 
L 199.688092 -311.271241 
L 201.035601 -316.809828 
L 205.078129 -309.886598 
L 206.425638 -328.579291 
L 207.773148 -313.348221 
L 209.120657 -309.886598 
L 210.468166 -311.963562 
L 214.510694 -312.655883 
L 215.858204 -314.732864 
L 217.205713 -311.271241 
L 218.553222 -314.732864 
L 219.900732 -306.424991 
L 223.94326 -293.96319 
L 225.290769 -287.732298 
L 226.638278 -279.424442 
L 227.985788 -266.962641 
L 229.333297 -266.962641 
L 233.375825 -262.808713 
L 234.723334 -253.116198 
L 236.070844 -257.270126 
L 237.418353 -252.423876 
L 238.765862 -257.270126 
L 242.80839 -273.193533 
L 244.1559 -275.270497 
L 245.503409 -269.039605 
L 246.850918 -280.116763 
L 248.198428 -282.193727 
L 252.240956 -284.270691 
L 253.588465 -287.039977 
L 254.935974 -289.809262 
L 256.283484 -277.347461 
L 263.021031 -280.116763 
L 264.36854 -281.501406 
L 265.716049 -274.578176 
L 267.063559 -267.654963 
L 271.106087 -264.193356 
L 272.453596 -266.962641 
L 273.801105 -273.193533 
L 275.148615 -283.57837 
L 276.496124 -291.886226 
L 280.538652 -280.809085 
L 283.233671 -275.962819 
L 284.58118 -283.57837 
L 285.928689 -296.732492 
L 289.971217 -282.193727 
L 291.318727 -278.039783 
L 292.666236 -273.885855 
L 294.013745 -269.731927 
L 295.361255 -271.116569 
L 299.403783 -269.731927 
L 300.751292 -264.885677 
L 302.098801 -257.962447 
L 303.446311 -258.654768 
L 304.79382 -264.885677 
L 308.836348 -258.654768 
L 310.183857 -255.885483 
L 311.531367 -256.577804 
L 312.878876 -252.423876 
L 314.226385 -252.423876 
L 318.268913 -252.423876 
L 319.616423 -255.193162 
L 320.963932 -259.34709 
L 322.311441 -274.578176 
L 323.658951 -263.501034 
L 327.701479 -262.808713 
L 329.048988 -267.654963 
L 330.396498 -261.42407 
L 331.744007 -259.34709 
L 333.091516 -264.193356 
L 337.134044 -258.654768 
L 338.481554 -257.270126 
L 339.829063 -261.42407 
L 341.176572 -257.270126 
L 342.524082 -259.34709 
L 347.914119 -257.270126 
L 349.261628 -260.039411 
L 350.609138 -255.885483 
L 351.956647 -266.962641 
L 355.999175 -260.039411 
L 357.346684 -262.808713 
L 358.694194 -262.116392 
L 360.041703 -251.039234 
L 361.389212 -236.500469 
L 365.43174 -229.577255 
L 366.77925 -226.80797 
L 368.126759 -225.423311 
L 369.474268 -239.962075 
L 370.821778 -246.885305 
L 374.864306 -240.654397 
L 376.211815 -246.192984 
L 377.559324 -253.808519 
L 378.906834 -256.577804 
L 380.254343 -251.731555 
L 384.296871 -256.577804 
L 385.64438 -259.34709 
L 386.99189 -269.731927 
L 388.339399 -280.809085 
L 389.686908 -291.886226 
L 393.729436 -291.193905 
L 395.076946 -289.116941 
L 396.424455 -290.501584 
L 397.771965 -299.501778 
L 399.119474 -290.501584 
L 403.162002 -287.732298 
L 404.509511 -284.963013 
L 405.857021 -289.116941 
L 407.20453 -289.116941 
L 408.552039 -341.733413 
L 412.594567 -336.194842 
L 413.942077 -339.656466 
L 415.289586 -343.810394 
L 416.637095 -337.579485 
L 417.984605 -327.886986 
L 422.027133 -330.656272 
L 423.374642 -331.348576 
L 424.722151 -332.040914 
L 426.069661 -338.27179 
L 427.41717 -341.041108 
L 431.459698 -341.041108 
L 432.807207 -343.810394 
L 434.154717 -335.502504 
L 435.502226 -340.34877 
L 436.849735 -341.041108 
L 440.892263 -341.041108 
L 442.239773 -332.733219 
L 443.587282 -341.041108 
L 444.934791 -347.271984 
L 446.282301 -356.272178 
L 450.324829 -352.11825 
L 451.672338 -360.426106 
L 453.019847 -375.657209 
L 454.367357 -383.272727 
L 455.714866 -375.657209 
L 459.757394 -378.426494 
L 461.104903 -377.734156 
L 462.452413 -370.118605 
L 463.799922 -374.964871 
L 465.147432 -377.734156 
L 469.18996 -377.734156 
L 470.537469 -378.426494 
L 471.884978 -372.195586 
L 473.232488 -370.118605 
L 474.579997 -370.810943 
L 478.622525 -370.118605 
L 479.970034 -368.041658 
L 481.317544 -374.272566 
L 482.665053 -372.88789 
L 484.012562 -359.733801 
L 488.05509 -359.733801 
L 489.4026 -359.733801 
L 490.750109 -361.118444 
L 492.097618 -363.195392 
L 493.445128 -365.272372 
L 497.487656 -364.580034 
L 498.835165 -361.810749 
L 500.182674 -359.041463 
L 501.530184 -359.041463 
L 502.877693 -362.503087 
L 506.920221 -362.503087 
L 508.26773 -366.657015 
L 509.61524 -368.041658 
L 510.962749 -370.810943 
L 512.310258 -365.272372 
L 516.352786 -356.272178 
L 517.700296 -345.887341 
L 519.047805 -348.656627 
L 520.395314 -336.887147 
L 521.742824 -333.425557 
L 525.785352 -321.656077 
L 527.132861 -317.502149 
L 528.48037 -320.271435 
L 529.82788 -316.809828 
L 531.175389 -317.502149 
L 535.217917 -323.04072 
L 536.565427 -326.502343 
L 537.912936 -329.963934 
L 539.260445 -338.964128 
L 540.607955 -343.810394 
L 540.607955 -44.727273 
L 540.607955 -44.727273 
L 539.260445 -44.727273 
L 537.912936 -44.727273 
L 536.565427 -44.727273 
L 535.217917 -44.727273 
L 531.175389 -44.727273 
L 529.82788 -44.727273 
L 528.48037 -44.727273 
L 527.132861 -44.727273 
L 525.785352 -44.727273 
L 521.742824 -44.727273 
L 520.395314 -44.727273 
L 519.047805 -44.727273 
L 517.700296 -44.727273 
L 516.352786 -44.727273 
L 512.310258 -44.727273 
L 510.962749 -44.727273 
L 509.61524 -44.727273 
L 508.26773 -44.727273 
L 506.920221 -44.727273 
L 502.877693 -44.727273 
L 501.530184 -44.727273 
L 500.182674 -44.727273 
L 498.835165 -44.727273 
L 497.487656 -44.727273 
L 493.445128 -44.727273 
L 492.097618 -44.727273 
L 490.750109 -44.727273 
L 489.4026 -44.727273 
L 488.05509 -44.727273 
L 484.012562 -44.727273 
L 482.665053 -44.727273 
L 481.317544 -44.727273 
L 479.970034 -44.727273 
L 478.622525 -44.727273 
L 474.579997 -44.727273 
L 473.232488 -44.727273 
L 471.884978 -44.727273 
L 470.537469 -44.727273 
L 469.18996 -44.727273 
L 465.147432 -44.727273 
L 463.799922 -44.727273 
L 462.452413 -44.727273 
L 461.104903 -44.727273 
L 459.757394 -44.727273 
L 455.714866 -44.727273 
L 454.367357 -44.727273 
L 453.019847 -44.727273 
L 451.672338 -44.727273 
L 450.324829 -44.727273 
L 446.282301 -44.727273 
L 444.934791 -44.727273 
L 443.587282 -44.727273 
L 442.239773 -44.727273 
L 440.892263 -44.727273 
L 436.849735 -44.727273 
L 435.502226 -44.727273 
L 434.154717 -44.727273 
L 432.807207 -44.727273 
L 431.459698 -44.727273 
L 427.41717 -44.727273 
L 426.069661 -44.727273 
L 424.722151 -44.727273 
L 423.374642 -44.727273 
L 422.027133 -44.727273 
L 417.984605 -44.727273 
L 416.637095 -44.727273 
L 415.289586 -44.727273 
L 413.942077 -44.727273 
L 412.594567 -44.727273 
L 408.552039 -44.727273 
L 407.20453 -44.727273 
L 405.857021 -44.727273 
L 404.509511 -44.727273 
L 403.162002 -44.727273 
L 399.119474 -44.727273 
L 397.771965 -44.727273 
L 396.424455 -44.727273 
L 395.076946 -44.727273 
L 393.729436 -44.727273 
L 389.686908 -44.727273 
L 388.339399 -44.727273 
L 386.99189 -44.727273 
L 385.64438 -44.727273 
L 384.296871 -44.727273 
L 380.254343 -44.727273 
L 378.906834 -44.727273 
L 377.559324 -44.727273 
L 376.211815 -44.727273 
L 374.864306 -44.727273 
L 370.821778 -44.727273 
L 369.474268 -44.727273 
L 368.126759 -44.727273 
L 366.77925 -44.727273 
L 365.43174 -44.727273 
L 361.389212 -44.727273 
L 360.041703 -44.727273 
L 358.694194 -44.727273 
L 357.346684 -44.727273 
L 355.999175 -44.727273 
L 351.956647 -44.727273 
L 350.609138 -44.727273 
L 349.261628 -44.727273 
L 347.914119 -44.727273 
L 342.524082 -44.727273 
L 341.176572 -44.727273 
L 339.829063 -44.727273 
L 338.481554 -44.727273 
L 337.134044 -44.727273 
L 333.091516 -44.727273 
L 331.744007 -44.727273 
L 330.396498 -44.727273 
L 329.048988 -44.727273 
L 327.701479 -44.727273 
L 323.658951 -44.727273 
L 322.311441 -44.727273 
L 320.963932 -44.727273 
L 319.616423 -44.727273 
L 318.268913 -44.727273 
L 314.226385 -44.727273 
L 312.878876 -44.727273 
L 311.531367 -44.727273 
L 310.183857 -44.727273 
L 308.836348 -44.727273 
L 304.79382 -44.727273 
L 303.446311 -44.727273 
L 302.098801 -44.727273 
L 300.751292 -44.727273 
L 299.403783 -44.727273 
L 295.361255 -44.727273 
L 294.013745 -44.727273 
L 292.666236 -44.727273 
L 291.318727 -44.727273 
L 289.971217 -44.727273 
L 285.928689 -44.727273 
L 284.58118 -44.727273 
L 283.233671 -44.727273 
L 280.538652 -44.727273 
L 276.496124 -44.727273 
L 275.148615 -44.727273 
L 273.801105 -44.727273 
L 272.453596 -44.727273 
L 271.106087 -44.727273 
L 267.063559 -44.727273 
L 265.716049 -44.727273 
L 264.36854 -44.727273 
L 263.021031 -44.727273 
L 256.283484 -44.727273 
L 254.935974 -44.727273 
L 253.588465 -44.727273 
L 252.240956 -44.727273 
L 248.198428 -44.727273 
L 246.850918 -44.727273 
L 245.503409 -44.727273 
L 244.1559 -44.727273 
L 242.80839 -44.727273 
L 238.765862 -44.727273 
L 237.418353 -44.727273 
L 236.070844 -44.727273 
L 234.723334 -44.727273 
L 233.375825 -44.727273 
L 229.333297 -44.727273 
L 227.985788 -44.727273 
L 226.638278 -44.727273 
L 225.290769 -44.727273 
L 223.94326 -44.727273 
L 219.900732 -44.727273 
L 218.553222 -44.727273 
L 217.205713 -44.727273 
L 215.858204 -44.727273 
L 214.510694 -44.727273 
L 210.468166 -44.727273 
L 209.120657 -44.727273 
L 207.773148 -44.727273 
L 206.425638 -44.727273 
L 205.078129 -44.727273 
L 201.035601 -44.727273 
L 199.688092 -44.727273 
L 198.340582 -44.727273 
L 196.993073 -44.727273 
L 195.645564 -44.727273 
L 191.603035 -44.727273 
L 190.255526 -44.727273 
L 188.908017 -44.727273 
L 187.560507 -44.727273 
L 186.212998 -44.727273 
L 182.17047 -44.727273 
L 180.822961 -44.727273 
L 179.475451 -44.727273 
L 178.127942 -44.727273 
L 176.780433 -44.727273 
L 172.737905 -44.727273 
L 171.390395 -44.727273 
L 170.042886 -44.727273 
L 168.695377 -44.727273 
L 167.347867 -44.727273 
L 163.305339 -44.727273 
L 160.610321 -44.727273 
L 159.262811 -44.727273 
L 157.915302 -44.727273 
L 153.872774 -44.727273 
L 152.525265 -44.727273 
L 151.177755 -44.727273 
L 149.830246 -44.727273 
L 148.482737 -44.727273 
L 144.440209 -44.727273 
L 143.092699 -44.727273 
L 141.74519 -44.727273 
L 140.397681 -44.727273 
L 139.050171 -44.727273 
L 135.007643 -44.727273 
L 133.660134 -44.727273 
L 132.312625 -44.727273 
L 130.965115 -44.727273 
L 125.575078 -44.727273 
L 124.227568 -44.727273 
L 122.880059 -44.727273 
L 116.142512 -44.727273 
L 114.795003 -44.727273 
L 113.447494 -44.727273 
L 112.099984 -44.727273 
L 110.752475 -44.727273 
L 106.709947 -44.727273 
L 105.362438 -44.727273 
L 104.014928 -44.727273 
L 102.667419 -44.727273 
L 101.31991 -44.727273 
L 97.277382 -44.727273 
L 95.929872 -44.727273 
L 94.582363 -44.727273 
L 93.234854 -44.727273 
L 91.887344 -44.727273 
L 87.844816 -44.727273 
L 86.497307 -44.727273 
L 85.149798 -44.727273 
L 83.802288 -44.727273 
L 82.454779 -44.727273 
L 78.412251 -44.727273 
L 77.064742 -44.727273 
L 75.717232 -44.727273 
L 74.369723 -44.727273 
L 73.022214 -44.727273 
L 68.979686 -44.727273 
L 67.632176 -44.727273 
L 66.284667 -44.727273 
L 64.937158 -44.727273 
L 63.589648 -44.727273 
L 59.54712 -44.727273 
L 58.199611 -44.727273 
L 56.852101 -44.727273 
L 55.504592 -44.727273 
L 54.157083 -44.727273 
L 50.114555 -44.727273 
L 48.767045 -44.727273 
z
" id="m82162cacb1" style="stroke:#f5f6f8;"/>
    </defs>
    <g clip-path="url(#p20046af97e)">
     <use style="fill:#f5f6f8;stroke:#f5f6f8;" x="0" xlink:href="#m82162cacb1" y="432"/>
    </g>
   </g>
   <g id="matplotlib.axis_1">
    <g id="xtick_1">
     <g id="line2d_1">
      <defs>
       <path d="M 0 0 
L 0 3.5 
" id="m08c8f67af0" style="stroke:#000000;stroke-width:0.8;"/>
      </defs>
      <g>
       <use style="stroke:#000000;stroke-width:0.8;" x="46.072027" xlink:href="#m08c8f67af0" y="404.2"/>
      </g>
     </g>
     <g id="text_1">
      <!-- 2022-11 -->
      <defs>
       <path d="M 19.1875 8.296875 
L 53.609375 8.296875 
L 53.609375 0 
L 7.328125 0 
L 7.328125 8.296875 
Q 12.9375 14.109375 22.625 23.890625 
Q 32.328125 33.6875 34.8125 36.53125 
Q 39.546875 41.84375 41.421875 45.53125 
Q 43.3125 49.21875 43.3125 52.78125 
Q 43.3125 58.59375 39.234375 62.25 
Q 35.15625 65.921875 28.609375 65.921875 
Q 23.96875 65.921875 18.8125 64.3125 
Q 13.671875 62.703125 7.8125 59.421875 
L 7.8125 69.390625 
Q 13.765625 71.78125 18.9375 73 
Q 24.125 74.21875 28.421875 74.21875 
Q 39.75 74.21875 46.484375 68.546875 
Q 53.21875 62.890625 53.21875 53.421875 
Q 53.21875 48.921875 51.53125 44.890625 
Q 49.859375 40.875 45.40625 35.40625 
Q 44.1875 33.984375 37.640625 27.21875 
Q 31.109375 20.453125 19.1875 8.296875 
z
" id="DejaVuSans-50"/>
       <path d="M 31.78125 66.40625 
Q 24.171875 66.40625 20.328125 58.90625 
Q 16.5 51.421875 16.5 36.375 
Q 16.5 21.390625 20.328125 13.890625 
Q 24.171875 6.390625 31.78125 6.390625 
Q 39.453125 6.390625 43.28125 13.890625 
Q 47.125 21.390625 47.125 36.375 
Q 47.125 51.421875 43.28125 58.90625 
Q 39.453125 66.40625 31.78125 66.40625 
z
M 31.78125 74.21875 
Q 44.046875 74.21875 50.515625 64.515625 
Q 56.984375 54.828125 56.984375 36.375 
Q 56.984375 17.96875 50.515625 8.265625 
Q 44.046875 -1.421875 31.78125 -1.421875 
Q 19.53125 -1.421875 13.0625 8.265625 
Q 6.59375 17.96875 6.59375 36.375 
Q 6.59375 54.828125 13.0625 64.515625 
Q 19.53125 74.21875 31.78125 74.21875 
z
" id="DejaVuSans-48"/>
       <path d="M 4.890625 31.390625 
L 31.203125 31.390625 
L 31.203125 23.390625 
L 4.890625 23.390625 
z
" id="DejaVuSans-45"/>
       <path d="M 12.40625 8.296875 
L 28.515625 8.296875 
L 28.515625 63.921875 
L 10.984375 60.40625 
L 10.984375 69.390625 
L 28.421875 72.90625 
L 38.28125 72.90625 
L 38.28125 8.296875 
L 54.390625 8.296875 
L 54.390625 0 
L 12.40625 0 
z
" id="DejaVuSans-49"/>
      </defs>
      <g transform="translate(25.180621 418.798437)scale(0.1 -0.1)">
       <use xlink:href="#DejaVuSans-50"/>
       <use x="63.623047" xlink:href="#DejaVuSans-48"/>
       <use x="127.246094" xlink:href="#DejaVuSans-50"/>
       <use x="190.869141" xlink:href="#DejaVuSans-50"/>
       <use x="254.492188" xlink:href="#DejaVuSans-45"/>
       <use x="290.576172" xlink:href="#DejaVuSans-49"/>
       <use x="354.199219" xlink:href="#DejaVuSans-49"/>
      </g>
     </g>
    </g>
    <g id="xtick_2">
     <g id="line2d_2">
      <g>
       <use style="stroke:#000000;stroke-width:0.8;" x="128.270097" xlink:href="#m08c8f67af0" y="404.2"/>
      </g>
     </g>
     <g id="text_2">
      <!-- 2023-01 -->
      <defs>
       <path d="M 40.578125 39.3125 
Q 47.65625 37.796875 51.625 33 
Q 55.609375 28.21875 55.609375 21.1875 
Q 55.609375 10.40625 48.1875 4.484375 
Q 40.765625 -1.421875 27.09375 -1.421875 
Q 22.515625 -1.421875 17.65625 -0.515625 
Q 12.796875 0.390625 7.625 2.203125 
L 7.625 11.71875 
Q 11.71875 9.328125 16.59375 8.109375 
Q 21.484375 6.890625 26.8125 6.890625 
Q 36.078125 6.890625 40.9375 10.546875 
Q 45.796875 14.203125 45.796875 21.1875 
Q 45.796875 27.640625 41.28125 31.265625 
Q 36.765625 34.90625 28.71875 34.90625 
L 20.21875 34.90625 
L 20.21875 43.015625 
L 29.109375 43.015625 
Q 36.375 43.015625 40.234375 45.921875 
Q 44.09375 48.828125 44.09375 54.296875 
Q 44.09375 59.90625 40.109375 62.90625 
Q 36.140625 65.921875 28.71875 65.921875 
Q 24.65625 65.921875 20.015625 65.03125 
Q 15.375 64.15625 9.8125 62.3125 
L 9.8125 71.09375 
Q 15.4375 72.65625 20.34375 73.4375 
Q 25.25 74.21875 29.59375 74.21875 
Q 40.828125 74.21875 47.359375 69.109375 
Q 53.90625 64.015625 53.90625 55.328125 
Q 53.90625 49.265625 50.4375 45.09375 
Q 46.96875 40.921875 40.578125 39.3125 
z
" id="DejaVuSans-51"/>
      </defs>
      <g transform="translate(107.37869 418.798437)scale(0.1 -0.1)">
       <use xlink:href="#DejaVuSans-50"/>
       <use x="63.623047" xlink:href="#DejaVuSans-48"/>
       <use x="127.246094" xlink:href="#DejaVuSans-50"/>
       <use x="190.869141" xlink:href="#DejaVuSans-51"/>
       <use x="254.492188" xlink:href="#DejaVuSans-45"/>
       <use x="290.576172" xlink:href="#DejaVuSans-48"/>
       <use x="354.199219" xlink:href="#DejaVuSans-49"/>
      </g>
     </g>
    </g>
    <g id="xtick_3">
     <g id="line2d_3">
      <g>
       <use style="stroke:#000000;stroke-width:0.8;" x="207.773148" xlink:href="#m08c8f67af0" y="404.2"/>
      </g>
     </g>
     <g id="text_3">
      <!-- 2023-03 -->
      <g transform="translate(186.881741 418.798437)scale(0.1 -0.1)">
       <use xlink:href="#DejaVuSans-50"/>
       <use x="63.623047" xlink:href="#DejaVuSans-48"/>
       <use x="127.246094" xlink:href="#DejaVuSans-50"/>
       <use x="190.869141" xlink:href="#DejaVuSans-51"/>
       <use x="254.492188" xlink:href="#DejaVuSans-45"/>
       <use x="290.576172" xlink:href="#DejaVuSans-48"/>
       <use x="354.199219" xlink:href="#DejaVuSans-51"/>
      </g>
     </g>
    </g>
    <g id="xtick_4">
     <g id="line2d_4">
      <g>
       <use style="stroke:#000000;stroke-width:0.8;" x="289.971217" xlink:href="#m08c8f67af0" y="404.2"/>
      </g>
     </g>
     <g id="text_4">
      <!-- 2023-05 -->
      <defs>
       <path d="M 10.796875 72.90625 
L 49.515625 72.90625 
L 49.515625 64.59375 
L 19.828125 64.59375 
L 19.828125 46.734375 
Q 21.96875 47.46875 24.109375 47.828125 
Q 26.265625 48.1875 28.421875 48.1875 
Q 40.625 48.1875 47.75 41.5 
Q 54.890625 34.8125 54.890625 23.390625 
Q 54.890625 11.625 47.5625 5.09375 
Q 40.234375 -1.421875 26.90625 -1.421875 
Q 22.3125 -1.421875 17.546875 -0.640625 
Q 12.796875 0.140625 7.71875 1.703125 
L 7.71875 11.625 
Q 12.109375 9.234375 16.796875 8.0625 
Q 21.484375 6.890625 26.703125 6.890625 
Q 35.15625 6.890625 40.078125 11.328125 
Q 45.015625 15.765625 45.015625 23.390625 
Q 45.015625 31 40.078125 35.4375 
Q 35.15625 39.890625 26.703125 39.890625 
Q 22.75 39.890625 18.8125 39.015625 
Q 14.890625 38.140625 10.796875 36.28125 
z
" id="DejaVuSans-53"/>
      </defs>
      <g transform="translate(269.079811 418.798437)scale(0.1 -0.1)">
       <use xlink:href="#DejaVuSans-50"/>
       <use x="63.623047" xlink:href="#DejaVuSans-48"/>
       <use x="127.246094" xlink:href="#DejaVuSans-50"/>
       <use x="190.869141" xlink:href="#DejaVuSans-51"/>
       <use x="254.492188" xlink:href="#DejaVuSans-45"/>
       <use x="290.576172" xlink:href="#DejaVuSans-48"/>
       <use x="354.199219" xlink:href="#DejaVuSans-53"/>
      </g>
     </g>
    </g>
    <g id="xtick_5">
     <g id="line2d_5">
      <g>
       <use style="stroke:#000000;stroke-width:0.8;" x="372.169287" xlink:href="#m08c8f67af0" y="404.2"/>
      </g>
     </g>
     <g id="text_5">
      <!-- 2023-07 -->
      <defs>
       <path d="M 8.203125 72.90625 
L 55.078125 72.90625 
L 55.078125 68.703125 
L 28.609375 0 
L 18.3125 0 
L 43.21875 64.59375 
L 8.203125 64.59375 
z
" id="DejaVuSans-55"/>
      </defs>
      <g transform="translate(351.277881 418.798437)scale(0.1 -0.1)">
       <use xlink:href="#DejaVuSans-50"/>
       <use x="63.623047" xlink:href="#DejaVuSans-48"/>
       <use x="127.246094" xlink:href="#DejaVuSans-50"/>
       <use x="190.869141" xlink:href="#DejaVuSans-51"/>
       <use x="254.492188" xlink:href="#DejaVuSans-45"/>
       <use x="290.576172" xlink:href="#DejaVuSans-48"/>
       <use x="354.199219" xlink:href="#DejaVuSans-55"/>
      </g>
     </g>
    </g>
    <g id="xtick_6">
     <g id="line2d_6">
      <g>
       <use style="stroke:#000000;stroke-width:0.8;" x="455.714866" xlink:href="#m08c8f67af0" y="404.2"/>
      </g>
     </g>
     <g id="text_6">
      <!-- 2023-09 -->
      <defs>
       <path d="M 10.984375 1.515625 
L 10.984375 10.5 
Q 14.703125 8.734375 18.5 7.8125 
Q 22.3125 6.890625 25.984375 6.890625 
Q 35.75 6.890625 40.890625 13.453125 
Q 46.046875 20.015625 46.78125 33.40625 
Q 43.953125 29.203125 39.59375 26.953125 
Q 35.25 24.703125 29.984375 24.703125 
Q 19.046875 24.703125 12.671875 31.3125 
Q 6.296875 37.9375 6.296875 49.421875 
Q 6.296875 60.640625 12.9375 67.421875 
Q 19.578125 74.21875 30.609375 74.21875 
Q 43.265625 74.21875 49.921875 64.515625 
Q 56.59375 54.828125 56.59375 36.375 
Q 56.59375 19.140625 48.40625 8.859375 
Q 40.234375 -1.421875 26.421875 -1.421875 
Q 22.703125 -1.421875 18.890625 -0.6875 
Q 15.09375 0.046875 10.984375 1.515625 
z
M 30.609375 32.421875 
Q 37.25 32.421875 41.125 36.953125 
Q 45.015625 41.5 45.015625 49.421875 
Q 45.015625 57.28125 41.125 61.84375 
Q 37.25 66.40625 30.609375 66.40625 
Q 23.96875 66.40625 20.09375 61.84375 
Q 16.21875 57.28125 16.21875 49.421875 
Q 16.21875 41.5 20.09375 36.953125 
Q 23.96875 32.421875 30.609375 32.421875 
z
" id="DejaVuSans-57"/>
      </defs>
      <g transform="translate(434.82346 418.798437)scale(0.1 -0.1)">
       <use xlink:href="#DejaVuSans-50"/>
       <use x="63.623047" xlink:href="#DejaVuSans-48"/>
       <use x="127.246094" xlink:href="#DejaVuSans-50"/>
       <use x="190.869141" xlink:href="#DejaVuSans-51"/>
       <use x="254.492188" xlink:href="#DejaVuSans-45"/>
       <use x="290.576172" xlink:href="#DejaVuSans-48"/>
       <use x="354.199219" xlink:href="#DejaVuSans-57"/>
      </g>
     </g>
    </g>
    <g id="xtick_7">
     <g id="line2d_7">
      <g>
       <use style="stroke:#000000;stroke-width:0.8;" x="537.912936" xlink:href="#m08c8f67af0" y="404.2"/>
      </g>
     </g>
     <g id="text_7">
      <!-- 2023-11 -->
      <g transform="translate(517.02153 418.798437)scale(0.1 -0.1)">
       <use xlink:href="#DejaVuSans-50"/>
       <use x="63.623047" xlink:href="#DejaVuSans-48"/>
       <use x="127.246094" xlink:href="#DejaVuSans-50"/>
       <use x="190.869141" xlink:href="#DejaVuSans-51"/>
       <use x="254.492188" xlink:href="#DejaVuSans-45"/>
       <use x="290.576172" xlink:href="#DejaVuSans-49"/>
       <use x="354.199219" xlink:href="#DejaVuSans-49"/>
      </g>
     </g>
    </g>
   </g>
   <g id="matplotlib.axis_2">
    <g id="ytick_1">
     <g id="line2d_8">
      <defs>
       <path d="M 0 0 
L -3.5 0 
" id="m304988c5fd" style="stroke:#000000;stroke-width:0.8;"/>
      </defs>
      <g>
       <use style="stroke:#000000;stroke-width:0.8;" x="24.175" xlink:href="#m304988c5fd" y="387.272727"/>
      </g>
     </g>
     <g id="text_8">
      <!-- 0 -->
      <g transform="translate(10.8125 391.071946)scale(0.1 -0.1)">
       <use xlink:href="#DejaVuSans-48"/>
      </g>
     </g>
    </g>
    <g id="ytick_2">
     <g id="line2d_9">
      <g>
       <use style="stroke:#000000;stroke-width:0.8;" x="24.175" xlink:href="#m304988c5fd" y="318.040526"/>
      </g>
     </g>
     <g id="text_9">
      <!-- 1 -->
      <g transform="translate(10.8125 321.839745)scale(0.1 -0.1)">
       <use xlink:href="#DejaVuSans-49"/>
      </g>
     </g>
    </g>
    <g id="ytick_3">
     <g id="line2d_10">
      <g>
       <use style="stroke:#000000;stroke-width:0.8;" x="24.175" xlink:href="#m304988c5fd" y="248.808325"/>
      </g>
     </g>
     <g id="text_10">
      <!-- 2 -->
      <g transform="translate(10.8125 252.607544)scale(0.1 -0.1)">
       <use xlink:href="#DejaVuSans-50"/>
      </g>
     </g>
    </g>
    <g id="ytick_4">
     <g id="line2d_11">
      <g>
       <use style="stroke:#000000;stroke-width:0.8;" x="24.175" xlink:href="#m304988c5fd" y="179.576124"/>
      </g>
     </g>
     <g id="text_11">
      <!-- 3 -->
      <g transform="translate(10.8125 183.375342)scale(0.1 -0.1)">
       <use xlink:href="#DejaVuSans-51"/>
      </g>
     </g>
    </g>
    <g id="ytick_5">
     <g id="line2d_12">
      <g>
       <use style="stroke:#000000;stroke-width:0.8;" x="24.175" xlink:href="#m304988c5fd" y="110.343923"/>
      </g>
     </g>
     <g id="text_12">
      <!-- 4 -->
      <defs>
       <path d="M 37.796875 64.3125 
L 12.890625 25.390625 
L 37.796875 25.390625 
z
M 35.203125 72.90625 
L 47.609375 72.90625 
L 47.609375 25.390625 
L 58.015625 25.390625 
L 58.015625 17.1875 
L 47.609375 17.1875 
L 47.609375 0 
L 37.796875 0 
L 37.796875 17.1875 
L 4.890625 17.1875 
L 4.890625 26.703125 
z
" id="DejaVuSans-52"/>
      </defs>
      <g transform="translate(10.8125 114.143141)scale(0.1 -0.1)">
       <use xlink:href="#DejaVuSans-52"/>
      </g>
     </g>
    </g>
    <g id="ytick_6">
     <g id="line2d_13">
      <g>
       <use style="stroke:#000000;stroke-width:0.8;" x="24.175" xlink:href="#m304988c5fd" y="41.111721"/>
      </g>
     </g>
     <g id="text_13">
      <!-- 5 -->
      <g transform="translate(10.8125 44.91094)scale(0.1 -0.1)">
       <use xlink:href="#DejaVuSans-53"/>
      </g>
     </g>
    </g>
   </g>
   <g id="patch_3">
    <path d="M 24.175 404.2 
L 24.175 31.8 
" style="fill:none;stroke:#000000;stroke-linecap:square;stroke-linejoin:miter;stroke-width:0.8;"/>
   </g>
   <g id="patch_4">
    <path d="M 565.2 404.2 
L 565.2 31.8 
" style="fill:none;stroke:#000000;stroke-linecap:square;stroke-linejoin:miter;stroke-width:0.8;"/>
   </g>
   <g id="patch_5">
    <path d="M 24.175 404.2 
L 565.2 404.2 
" style="fill:none;stroke:#000000;stroke-linecap:square;stroke-linejoin:miter;stroke-width:0.8;"/>
   </g>
   <g id="patch_6">
    <path d="M 24.175 31.8 
L 565.2 31.8 
" style="fill:none;stroke:#000000;stroke-linecap:square;stroke-linejoin:miter;stroke-width:0.8;"/>
   </g>
   <g id="text_14">
    <!-- SDR.AX - 44% -->
    <defs>
     <path d="M 59.90625 70.609375 
L 59.90625 55.171875 
Q 53.90625 57.859375 48.1875 59.21875 
Q 42.484375 60.59375 37.40625 60.59375 
Q 30.671875 60.59375 27.4375 58.734375 
Q 24.21875 56.890625 24.21875 52.984375 
Q 24.21875 50.046875 26.390625 48.40625 
Q 28.5625 46.78125 34.28125 45.609375 
L 42.28125 44 
Q 54.4375 41.546875 59.5625 36.5625 
Q 64.703125 31.59375 64.703125 22.40625 
Q 64.703125 10.359375 57.546875 4.46875 
Q 50.390625 -1.421875 35.6875 -1.421875 
Q 28.765625 -1.421875 21.78125 -0.09375 
Q 14.796875 1.21875 7.8125 3.8125 
L 7.8125 19.671875 
Q 14.796875 15.96875 21.3125 14.078125 
Q 27.828125 12.203125 33.890625 12.203125 
Q 40.046875 12.203125 43.3125 14.25 
Q 46.578125 16.3125 46.578125 20.125 
Q 46.578125 23.53125 44.359375 25.390625 
Q 42.140625 27.25 35.5 28.71875 
L 28.21875 30.328125 
Q 17.28125 32.671875 12.21875 37.796875 
Q 7.171875 42.921875 7.171875 51.609375 
Q 7.171875 62.5 14.203125 68.359375 
Q 21.234375 74.21875 34.421875 74.21875 
Q 40.4375 74.21875 46.78125 73.3125 
Q 53.125 72.40625 59.90625 70.609375 
z
" id="DejaVuSans-Bold-83"/>
     <path d="M 27.984375 58.6875 
L 27.984375 14.203125 
L 34.71875 14.203125 
Q 46.234375 14.203125 52.3125 19.921875 
Q 58.40625 25.640625 58.40625 36.53125 
Q 58.40625 47.359375 52.34375 53.015625 
Q 46.296875 58.6875 34.71875 58.6875 
z
M 9.1875 72.90625 
L 29 72.90625 
Q 45.609375 72.90625 53.734375 70.53125 
Q 61.859375 68.171875 67.671875 62.5 
Q 72.796875 57.5625 75.28125 51.109375 
Q 77.78125 44.671875 77.78125 36.53125 
Q 77.78125 28.265625 75.28125 21.796875 
Q 72.796875 15.328125 67.671875 10.40625 
Q 61.8125 4.734375 53.609375 2.359375 
Q 45.40625 0 29 0 
L 9.1875 0 
z
" id="DejaVuSans-Bold-68"/>
     <path d="M 35.890625 40.578125 
Q 41.796875 40.578125 44.359375 42.765625 
Q 46.921875 44.96875 46.921875 50 
Q 46.921875 54.984375 44.359375 57.125 
Q 41.796875 59.28125 35.890625 59.28125 
L 27.984375 59.28125 
L 27.984375 40.578125 
z
M 27.984375 27.59375 
L 27.984375 0 
L 9.1875 0 
L 9.1875 72.90625 
L 37.890625 72.90625 
Q 52.296875 72.90625 59 68.0625 
Q 65.71875 63.234375 65.71875 52.78125 
Q 65.71875 45.5625 62.21875 40.921875 
Q 58.734375 36.28125 51.703125 34.078125 
Q 55.5625 33.203125 58.609375 30.09375 
Q 61.671875 27 64.796875 20.703125 
L 75 0 
L 54.984375 0 
L 46.09375 18.109375 
Q 43.40625 23.578125 40.640625 25.578125 
Q 37.890625 27.59375 33.296875 27.59375 
z
" id="DejaVuSans-Bold-82"/>
     <path d="M 10.203125 18.890625 
L 27.78125 18.890625 
L 27.78125 0 
L 10.203125 0 
z
" id="DejaVuSans-Bold-46"/>
     <path d="M 53.421875 13.28125 
L 24.03125 13.28125 
L 19.390625 0 
L 0.484375 0 
L 27.484375 72.90625 
L 49.90625 72.90625 
L 76.90625 0 
L 58.015625 0 
z
M 28.71875 26.8125 
L 48.6875 26.8125 
L 38.71875 55.8125 
z
" id="DejaVuSans-Bold-65"/>
     <path d="M 49.8125 37.203125 
L 75.09375 0 
L 55.515625 0 
L 38.484375 24.90625 
L 21.578125 0 
L 1.90625 0 
L 27.203125 37.203125 
L 2.875 72.90625 
L 22.515625 72.90625 
L 38.484375 49.421875 
L 54.390625 72.90625 
L 74.125 72.90625 
z
" id="DejaVuSans-Bold-88"/>
     <path id="DejaVuSans-Bold-32"/>
     <path d="M 5.421875 35.890625 
L 36.078125 35.890625 
L 36.078125 21.6875 
L 5.421875 21.6875 
z
" id="DejaVuSans-Bold-45"/>
     <path d="M 36.8125 57.421875 
L 16.21875 26.90625 
L 36.8125 26.90625 
z
M 33.6875 72.90625 
L 54.59375 72.90625 
L 54.59375 26.90625 
L 64.984375 26.90625 
L 64.984375 13.28125 
L 54.59375 13.28125 
L 54.59375 0 
L 36.8125 0 
L 36.8125 13.28125 
L 4.5 13.28125 
L 4.5 29.390625 
z
" id="DejaVuSans-Bold-52"/>
     <path d="M 77.484375 30.078125 
Q 74.03125 30.078125 72.125 27.078125 
Q 70.21875 24.078125 70.21875 18.5 
Q 70.21875 12.890625 72.09375 9.890625 
Q 73.96875 6.890625 77.484375 6.890625 
Q 81 6.890625 82.859375 9.890625 
Q 84.71875 12.890625 84.71875 18.5 
Q 84.71875 24.078125 82.828125 27.078125 
Q 80.953125 30.078125 77.484375 30.078125 
z
M 77.484375 38.28125 
Q 86.578125 38.28125 91.796875 33 
Q 97.015625 27.734375 97.015625 18.5 
Q 97.015625 9.28125 91.796875 3.921875 
Q 86.578125 -1.421875 77.484375 -1.421875 
Q 68.40625 -1.421875 63.15625 3.921875 
Q 57.90625 9.28125 57.90625 18.5 
Q 57.90625 27.6875 63.15625 32.984375 
Q 68.40625 38.28125 77.484375 38.28125 
z
M 32.71875 -1.421875 
L 21.921875 -1.421875 
L 67.484375 74.21875 
L 78.328125 74.21875 
z
M 22.703125 74.21875 
Q 31.78125 74.21875 36.984375 68.921875 
Q 42.1875 63.625 42.1875 54.390625 
Q 42.1875 45.171875 36.984375 39.84375 
Q 31.78125 34.515625 22.703125 34.515625 
Q 13.625 34.515625 8.421875 39.84375 
Q 3.21875 45.171875 3.21875 54.390625 
Q 3.21875 63.625 8.421875 68.921875 
Q 13.625 74.21875 22.703125 74.21875 
z
M 22.703125 66.015625 
Q 19.1875 66.015625 17.28125 62.984375 
Q 15.375 59.96875 15.375 54.390625 
Q 15.375 48.78125 17.28125 45.71875 
Q 19.1875 42.671875 22.703125 42.671875 
Q 26.21875 42.671875 28.09375 45.71875 
Q 29.984375 48.78125 29.984375 54.390625 
Q 29.984375 59.96875 28.078125 62.984375 
Q 26.171875 66.015625 22.703125 66.015625 
z
" id="DejaVuSans-Bold-37"/>
    </defs>
    <g transform="translate(24.175 25.8)scale(0.2 -0.2)">
     <use xlink:href="#DejaVuSans-Bold-83"/>
     <use x="72.021484" xlink:href="#DejaVuSans-Bold-68"/>
     <use x="155.029297" xlink:href="#DejaVuSans-Bold-82"/>
     <use x="232.046875" xlink:href="#DejaVuSans-Bold-46"/>
     <use x="270.035156" xlink:href="#DejaVuSans-Bold-65"/>
     <use x="347.427734" xlink:href="#DejaVuSans-Bold-88"/>
     <use x="424.527344" xlink:href="#DejaVuSans-Bold-32"/>
     <use x="459.341797" xlink:href="#DejaVuSans-Bold-45"/>
     <use x="500.845703" xlink:href="#DejaVuSans-Bold-32"/>
     <use x="535.660156" xlink:href="#DejaVuSans-Bold-52"/>
     <use x="605.240234" xlink:href="#DejaVuSans-Bold-52"/>
     <use x="674.820312" xlink:href="#DejaVuSans-Bold-37"/>
    </g>
   </g>
  </g>
 </g>
 <defs>
  <clipPath id="p20046af97e">
   <rect height="372.4" width="541.025" x="24.175" y="31.8"/>
  </clipPath>
 </defs>
</svg>
