<?xml version="1.0" encoding="utf-8" standalone="no"?>
<!DOCTYPE svg PUBLIC "-//W3C//DTD SVG 1.1//EN"
  "http://www.w3.org/Graphics/SVG/1.1/DTD/svg11.dtd">
<!-- Created with matplotlib (https://matplotlib.org/) -->
<svg height="432pt" version="1.1" viewBox="0 0 864 432" width="864pt" xmlns="http://www.w3.org/2000/svg" xmlns:xlink="http://www.w3.org/1999/xlink">
 <defs>
  <style type="text/css">
*{stroke-linecap:butt;stroke-linejoin:round;}
  </style>
 </defs>
 <g id="figure_1">
  <g id="patch_1">
   <path d="M 0 432 
L 864 432 
L 864 0 
L 0 0 
z
" style="fill:none;"/>
  </g>
  <g id="axes_1">
   <g id="patch_2">
    <path d="M 75.175 385.2 
L 840.323864 385.2 
L 840.323864 88.8 
L 75.175 88.8 
z
" style="fill:none;"/>
   </g>
   <g id="PolyCollection_1">
    <path clip-path="url(#p93b55bf147)" d="M 109.954494 615.059688 
L 109.954494 385.2 
L 113.734874 369.931632 
L 117.515253 370.482776 
L 128.856393 369.559233 
L 132.636772 373.879055 
L 136.417152 365.373469 
L 140.197532 306.92168 
L 143.977912 288.569859 
L 159.099431 266.345054 
L 162.87981 281.464475 
L 166.66019 270.933015 
L 170.44057 284.458557 
L 181.781709 281.896449 
L 185.562089 267.760189 
L 189.342469 257.884154 
L 193.122849 236.180717 
L 196.903228 225.291768 
L 208.244368 229.775469 
L 212.024747 251.240542 
L 215.805127 245.982267 
L 219.585507 251.717224 
L 223.365887 271.305414 
L 238.487406 283.773355 
L 242.267785 287.482437 
L 246.048165 277.725573 
L 249.828545 293.217394 
L 261.169684 292.561968 
L 264.950064 278.157569 
L 268.730444 263.604201 
L 272.510824 263.619111 
L 276.291203 243.77767 
L 287.632343 243.852155 
L 295.193102 235.212488 
L 298.973482 241.870988 
L 302.753862 227.749593 
L 314.095001 212.972818 
L 317.875381 211.4534 
L 321.65576 202.97759 
L 325.43614 177.043749 
L 329.21652 175.06256 
L 340.557659 165.126974 
L 344.338039 140.772056 
L 348.118419 162.713789 
L 351.898799 163.786301 
L 355.679178 163.488408 
L 367.020318 154.223114 
L 370.800697 136.377727 
L 374.581077 142.32125 
L 378.361457 127.455057 
L 382.141837 116.789538 
L 393.482976 123.090549 
L 397.263356 112.231375 
L 401.043735 138.969657 
L 404.824115 136.586293 
L 408.604495 111.44189 
L 419.945634 88.8 
L 423.726014 97.573747 
L 427.506394 218.633268 
L 431.286773 202.262613 
L 435.067153 236.061569 
L 446.408293 213.67293 
L 450.188672 221.478403 
L 453.969052 237.104283 
L 457.749432 251.508682 
L 461.529812 252.268368 
L 472.870951 238.727938 
L 476.651331 230.609639 
L 480.43171 201.532725 
L 484.21209 224.040512 
L 487.99247 236.761659 
L 499.333609 234.974147 
L 503.113989 225.336454 
L 506.894369 215.966877 
L 510.674748 205.301403 
L 514.455128 194.755032 
L 529.576647 197.555481 
L 533.357027 206.865462 
L 537.137407 216.622303 
L 540.917787 196.989427 
L 552.258926 201.964675 
L 556.039306 216.324411 
L 559.819685 211.438535 
L 563.600065 211.721562 
L 567.380445 243.762782 
L 578.721584 251.15117 
L 582.501964 246.026953 
L 586.282344 252.983368 
L 590.062723 270.158441 
L 593.843103 263.887228 
L 605.184242 244.358612 
L 608.964622 243.837244 
L 612.745002 231.4289 
L 616.525382 213.792078 
L 620.305762 206.582435 
L 631.646901 184.77476 
L 635.427281 212.913221 
L 639.20766 197.376737 
L 642.98804 186.651622 
L 646.76842 183.568145 
L 658.109559 183.076598 
L 661.889939 152.82289 
L 665.670319 154.982823 
L 669.450698 178.295005 
L 673.231078 190.226645 
L 684.572217 180.559176 
L 688.352597 170.355428 
L 692.132977 190.479896 
L 695.913357 220.242058 
L 699.693737 244.775697 
L 711.034876 235.376345 
L 714.815256 223.861767 
L 718.595635 236.716973 
L 722.376015 258.360814 
L 726.156395 255.471015 
L 737.497534 262.591286 
L 741.277914 258.345926 
L 745.058294 239.279081 
L 748.838673 248.767829 
L 752.619053 235.212488 
L 763.960192 238.802422 
L 767.740572 236.136031 
L 771.520952 227.362329 
L 775.301332 220.495264 
L 779.081712 218.782237 
L 790.422851 234.020806 
L 794.203231 177.311866 
L 797.98361 186.383505 
L 801.76399 192.505726 
L 805.54437 180.486351 
L 805.54437 615.059688 
L 805.54437 615.059688 
L 801.76399 615.059688 
L 797.98361 615.059688 
L 794.203231 615.059688 
L 790.422851 615.059688 
L 779.081712 615.059688 
L 775.301332 615.059688 
L 771.520952 615.059688 
L 767.740572 615.059688 
L 763.960192 615.059688 
L 752.619053 615.059688 
L 748.838673 615.059688 
L 745.058294 615.059688 
L 741.277914 615.059688 
L 737.497534 615.059688 
L 726.156395 615.059688 
L 722.376015 615.059688 
L 718.595635 615.059688 
L 714.815256 615.059688 
L 711.034876 615.059688 
L 699.693737 615.059688 
L 695.913357 615.059688 
L 692.132977 615.059688 
L 688.352597 615.059688 
L 684.572217 615.059688 
L 673.231078 615.059688 
L 669.450698 615.059688 
L 665.670319 615.059688 
L 661.889939 615.059688 
L 658.109559 615.059688 
L 646.76842 615.059688 
L 642.98804 615.059688 
L 639.20766 615.059688 
L 635.427281 615.059688 
L 631.646901 615.059688 
L 620.305762 615.059688 
L 616.525382 615.059688 
L 612.745002 615.059688 
L 608.964622 615.059688 
L 605.184242 615.059688 
L 593.843103 615.059688 
L 590.062723 615.059688 
L 586.282344 615.059688 
L 582.501964 615.059688 
L 578.721584 615.059688 
L 567.380445 615.059688 
L 563.600065 615.059688 
L 559.819685 615.059688 
L 556.039306 615.059688 
L 552.258926 615.059688 
L 540.917787 615.059688 
L 537.137407 615.059688 
L 533.357027 615.059688 
L 529.576647 615.059688 
L 514.455128 615.059688 
L 510.674748 615.059688 
L 506.894369 615.059688 
L 503.113989 615.059688 
L 499.333609 615.059688 
L 487.99247 615.059688 
L 484.21209 615.059688 
L 480.43171 615.059688 
L 476.651331 615.059688 
L 472.870951 615.059688 
L 461.529812 615.059688 
L 457.749432 615.059688 
L 453.969052 615.059688 
L 450.188672 615.059688 
L 446.408293 615.059688 
L 435.067153 615.059688 
L 431.286773 615.059688 
L 427.506394 615.059688 
L 423.726014 615.059688 
L 419.945634 615.059688 
L 408.604495 615.059688 
L 404.824115 615.059688 
L 401.043735 615.059688 
L 397.263356 615.059688 
L 393.482976 615.059688 
L 382.141837 615.059688 
L 378.361457 615.059688 
L 374.581077 615.059688 
L 370.800697 615.059688 
L 367.020318 615.059688 
L 355.679178 615.059688 
L 351.898799 615.059688 
L 348.118419 615.059688 
L 344.338039 615.059688 
L 340.557659 615.059688 
L 329.21652 615.059688 
L 325.43614 615.059688 
L 321.65576 615.059688 
L 317.875381 615.059688 
L 314.095001 615.059688 
L 302.753862 615.059688 
L 298.973482 615.059688 
L 295.193102 615.059688 
L 287.632343 615.059688 
L 276.291203 615.059688 
L 272.510824 615.059688 
L 268.730444 615.059688 
L 264.950064 615.059688 
L 261.169684 615.059688 
L 249.828545 615.059688 
L 246.048165 615.059688 
L 242.267785 615.059688 
L 238.487406 615.059688 
L 223.365887 615.059688 
L 219.585507 615.059688 
L 215.805127 615.059688 
L 212.024747 615.059688 
L 208.244368 615.059688 
L 196.903228 615.059688 
L 193.122849 615.059688 
L 189.342469 615.059688 
L 185.562089 615.059688 
L 181.781709 615.059688 
L 170.44057 615.059688 
L 166.66019 615.059688 
L 162.87981 615.059688 
L 159.099431 615.059688 
L 143.977912 615.059688 
L 140.197532 615.059688 
L 136.417152 615.059688 
L 132.636772 615.059688 
L 128.856393 615.059688 
L 117.515253 615.059688 
L 113.734874 615.059688 
L 109.954494 615.059688 
z
" style="fill:#0000ff;fill-opacity:0.1;stroke:#0000ff;stroke-opacity:0.1;"/>
   </g>
   <g id="matplotlib.axis_1">
    <g id="xtick_1">
     <g id="line2d_1">
      <defs>
       <path d="M 0 0 
L 0 3.5 
" id="m13af7c0308" style="stroke:#000000;stroke-width:0.8;"/>
      </defs>
      <g>
       <use style="stroke:#000000;stroke-width:0.8;" x="109.954494" xlink:href="#m13af7c0308" y="385.2"/>
      </g>
     </g>
     <g id="text_1">
      <!-- 05/23 -->
      <defs>
       <path d="M 31.78125 66.40625 
Q 24.171875 66.40625 20.328125 58.90625 
Q 16.5 51.421875 16.5 36.375 
Q 16.5 21.390625 20.328125 13.890625 
Q 24.171875 6.390625 31.78125 6.390625 
Q 39.453125 6.390625 43.28125 13.890625 
Q 47.125 21.390625 47.125 36.375 
Q 47.125 51.421875 43.28125 58.90625 
Q 39.453125 66.40625 31.78125 66.40625 
z
M 31.78125 74.21875 
Q 44.046875 74.21875 50.515625 64.515625 
Q 56.984375 54.828125 56.984375 36.375 
Q 56.984375 17.96875 50.515625 8.265625 
Q 44.046875 -1.421875 31.78125 -1.421875 
Q 19.53125 -1.421875 13.0625 8.265625 
Q 6.59375 17.96875 6.59375 36.375 
Q 6.59375 54.828125 13.0625 64.515625 
Q 19.53125 74.21875 31.78125 74.21875 
z
" id="DejaVuSans-48"/>
       <path d="M 10.796875 72.90625 
L 49.515625 72.90625 
L 49.515625 64.59375 
L 19.828125 64.59375 
L 19.828125 46.734375 
Q 21.96875 47.46875 24.109375 47.828125 
Q 26.265625 48.1875 28.421875 48.1875 
Q 40.625 48.1875 47.75 41.5 
Q 54.890625 34.8125 54.890625 23.390625 
Q 54.890625 11.625 47.5625 5.09375 
Q 40.234375 -1.421875 26.90625 -1.421875 
Q 22.3125 -1.421875 17.546875 -0.640625 
Q 12.796875 0.140625 7.71875 1.703125 
L 7.71875 11.625 
Q 12.109375 9.234375 16.796875 8.0625 
Q 21.484375 6.890625 26.703125 6.890625 
Q 35.15625 6.890625 40.078125 11.328125 
Q 45.015625 15.765625 45.015625 23.390625 
Q 45.015625 31 40.078125 35.4375 
Q 35.15625 39.890625 26.703125 39.890625 
Q 22.75 39.890625 18.8125 39.015625 
Q 14.890625 38.140625 10.796875 36.28125 
z
" id="DejaVuSans-53"/>
       <path d="M 25.390625 72.90625 
L 33.6875 72.90625 
L 8.296875 -9.28125 
L 0 -9.28125 
z
" id="DejaVuSans-47"/>
       <path d="M 19.1875 8.296875 
L 53.609375 8.296875 
L 53.609375 0 
L 7.328125 0 
L 7.328125 8.296875 
Q 12.9375 14.109375 22.625 23.890625 
Q 32.328125 33.6875 34.8125 36.53125 
Q 39.546875 41.84375 41.421875 45.53125 
Q 43.3125 49.21875 43.3125 52.78125 
Q 43.3125 58.59375 39.234375 62.25 
Q 35.15625 65.921875 28.609375 65.921875 
Q 23.96875 65.921875 18.8125 64.3125 
Q 13.671875 62.703125 7.8125 59.421875 
L 7.8125 69.390625 
Q 13.765625 71.78125 18.9375 73 
Q 24.125 74.21875 28.421875 74.21875 
Q 39.75 74.21875 46.484375 68.546875 
Q 53.21875 62.890625 53.21875 53.421875 
Q 53.21875 48.921875 51.53125 44.890625 
Q 49.859375 40.875 45.40625 35.40625 
Q 44.1875 33.984375 37.640625 27.21875 
Q 31.109375 20.453125 19.1875 8.296875 
z
" id="DejaVuSans-50"/>
       <path d="M 40.578125 39.3125 
Q 47.65625 37.796875 51.625 33 
Q 55.609375 28.21875 55.609375 21.1875 
Q 55.609375 10.40625 48.1875 4.484375 
Q 40.765625 -1.421875 27.09375 -1.421875 
Q 22.515625 -1.421875 17.65625 -0.515625 
Q 12.796875 0.390625 7.625 2.203125 
L 7.625 11.71875 
Q 11.71875 9.328125 16.59375 8.109375 
Q 21.484375 6.890625 26.8125 6.890625 
Q 36.078125 6.890625 40.9375 10.546875 
Q 45.796875 14.203125 45.796875 21.1875 
Q 45.796875 27.640625 41.28125 31.265625 
Q 36.765625 34.90625 28.71875 34.90625 
L 20.21875 34.90625 
L 20.21875 43.015625 
L 29.109375 43.015625 
Q 36.375 43.015625 40.234375 45.921875 
Q 44.09375 48.828125 44.09375 54.296875 
Q 44.09375 59.90625 40.109375 62.90625 
Q 36.140625 65.921875 28.71875 65.921875 
Q 24.65625 65.921875 20.015625 65.03125 
Q 15.375 64.15625 9.8125 62.3125 
L 9.8125 71.09375 
Q 15.4375 72.65625 20.34375 73.4375 
Q 25.25 74.21875 29.59375 74.21875 
Q 40.828125 74.21875 47.359375 69.109375 
Q 53.90625 64.015625 53.90625 55.328125 
Q 53.90625 49.265625 50.4375 45.09375 
Q 46.96875 40.921875 40.578125 39.3125 
z
" id="DejaVuSans-51"/>
      </defs>
      <g transform="translate(66.726369 414.995312)scale(0.3 -0.3)">
       <use xlink:href="#DejaVuSans-48"/>
       <use x="63.623047" xlink:href="#DejaVuSans-53"/>
       <use x="127.246094" xlink:href="#DejaVuSans-47"/>
       <use x="160.9375" xlink:href="#DejaVuSans-50"/>
       <use x="224.560547" xlink:href="#DejaVuSans-51"/>
      </g>
     </g>
    </g>
    <g id="xtick_2">
     <g id="line2d_2">
      <g>
       <use style="stroke:#000000;stroke-width:0.8;" x="461.529812" xlink:href="#m13af7c0308" y="385.2"/>
      </g>
     </g>
     <g id="text_2">
      <!-- 08/23 -->
      <defs>
       <path d="M 31.78125 34.625 
Q 24.75 34.625 20.71875 30.859375 
Q 16.703125 27.09375 16.703125 20.515625 
Q 16.703125 13.921875 20.71875 10.15625 
Q 24.75 6.390625 31.78125 6.390625 
Q 38.8125 6.390625 42.859375 10.171875 
Q 46.921875 13.96875 46.921875 20.515625 
Q 46.921875 27.09375 42.890625 30.859375 
Q 38.875 34.625 31.78125 34.625 
z
M 21.921875 38.8125 
Q 15.578125 40.375 12.03125 44.71875 
Q 8.5 49.078125 8.5 55.328125 
Q 8.5 64.0625 14.71875 69.140625 
Q 20.953125 74.21875 31.78125 74.21875 
Q 42.671875 74.21875 48.875 69.140625 
Q 55.078125 64.0625 55.078125 55.328125 
Q 55.078125 49.078125 51.53125 44.71875 
Q 48 40.375 41.703125 38.8125 
Q 48.828125 37.15625 52.796875 32.3125 
Q 56.78125 27.484375 56.78125 20.515625 
Q 56.78125 9.90625 50.3125 4.234375 
Q 43.84375 -1.421875 31.78125 -1.421875 
Q 19.734375 -1.421875 13.25 4.234375 
Q 6.78125 9.90625 6.78125 20.515625 
Q 6.78125 27.484375 10.78125 32.3125 
Q 14.796875 37.15625 21.921875 38.8125 
z
M 18.3125 54.390625 
Q 18.3125 48.734375 21.84375 45.5625 
Q 25.390625 42.390625 31.78125 42.390625 
Q 38.140625 42.390625 41.71875 45.5625 
Q 45.3125 48.734375 45.3125 54.390625 
Q 45.3125 60.0625 41.71875 63.234375 
Q 38.140625 66.40625 31.78125 66.40625 
Q 25.390625 66.40625 21.84375 63.234375 
Q 18.3125 60.0625 18.3125 54.390625 
z
" id="DejaVuSans-56"/>
      </defs>
      <g transform="translate(418.301687 414.995312)scale(0.3 -0.3)">
       <use xlink:href="#DejaVuSans-48"/>
       <use x="63.623047" xlink:href="#DejaVuSans-56"/>
       <use x="127.246094" xlink:href="#DejaVuSans-47"/>
       <use x="160.9375" xlink:href="#DejaVuSans-50"/>
       <use x="224.560547" xlink:href="#DejaVuSans-51"/>
      </g>
     </g>
    </g>
    <g id="xtick_3">
     <g id="line2d_3">
      <g>
       <use style="stroke:#000000;stroke-width:0.8;" x="805.54437" xlink:href="#m13af7c0308" y="385.2"/>
      </g>
     </g>
     <g id="text_3">
      <!-- 11/23 -->
      <defs>
       <path d="M 12.40625 8.296875 
L 28.515625 8.296875 
L 28.515625 63.921875 
L 10.984375 60.40625 
L 10.984375 69.390625 
L 28.421875 72.90625 
L 38.28125 72.90625 
L 38.28125 8.296875 
L 54.390625 8.296875 
L 54.390625 0 
L 12.40625 0 
z
" id="DejaVuSans-49"/>
      </defs>
      <g transform="translate(762.316245 414.995312)scale(0.3 -0.3)">
       <use xlink:href="#DejaVuSans-49"/>
       <use x="63.623047" xlink:href="#DejaVuSans-49"/>
       <use x="127.246094" xlink:href="#DejaVuSans-47"/>
       <use x="160.9375" xlink:href="#DejaVuSans-50"/>
       <use x="224.560547" xlink:href="#DejaVuSans-51"/>
      </g>
     </g>
    </g>
   </g>
   <g id="matplotlib.axis_2">
    <g id="ytick_1">
     <g id="line2d_4">
      <defs>
       <path d="M 0 0 
L -3.5 0 
" id="m21a3091a77" style="stroke:#000000;stroke-width:0.8;"/>
      </defs>
      <g>
       <use style="stroke:#000000;stroke-width:0.8;" x="75.175" xlink:href="#m21a3091a77" y="376.72419"/>
      </g>
     </g>
     <g id="text_4">
      <!-- 160 -->
      <defs>
       <path d="M 33.015625 40.375 
Q 26.375 40.375 22.484375 35.828125 
Q 18.609375 31.296875 18.609375 23.390625 
Q 18.609375 15.53125 22.484375 10.953125 
Q 26.375 6.390625 33.015625 6.390625 
Q 39.65625 6.390625 43.53125 10.953125 
Q 47.40625 15.53125 47.40625 23.390625 
Q 47.40625 31.296875 43.53125 35.828125 
Q 39.65625 40.375 33.015625 40.375 
z
M 52.59375 71.296875 
L 52.59375 62.3125 
Q 48.875 64.0625 45.09375 64.984375 
Q 41.3125 65.921875 37.59375 65.921875 
Q 27.828125 65.921875 22.671875 59.328125 
Q 17.53125 52.734375 16.796875 39.40625 
Q 19.671875 43.65625 24.015625 45.921875 
Q 28.375 48.1875 33.59375 48.1875 
Q 44.578125 48.1875 50.953125 41.515625 
Q 57.328125 34.859375 57.328125 23.390625 
Q 57.328125 12.15625 50.6875 5.359375 
Q 44.046875 -1.421875 33.015625 -1.421875 
Q 20.359375 -1.421875 13.671875 8.265625 
Q 6.984375 17.96875 6.984375 36.375 
Q 6.984375 53.65625 15.1875 63.9375 
Q 23.390625 74.21875 37.203125 74.21875 
Q 40.921875 74.21875 44.703125 73.484375 
Q 48.484375 72.75 52.59375 71.296875 
z
" id="DejaVuSans-54"/>
      </defs>
      <g transform="translate(10.9125 388.121846)scale(0.3 -0.3)">
       <use xlink:href="#DejaVuSans-49"/>
       <use x="63.623047" xlink:href="#DejaVuSans-54"/>
       <use x="127.246094" xlink:href="#DejaVuSans-48"/>
      </g>
     </g>
    </g>
    <g id="ytick_2">
     <g id="line2d_5">
      <g>
       <use style="stroke:#000000;stroke-width:0.8;" x="75.175" xlink:href="#m21a3091a77" y="257.556441"/>
      </g>
     </g>
     <g id="text_5">
      <!-- 240 -->
      <defs>
       <path d="M 37.796875 64.3125 
L 12.890625 25.390625 
L 37.796875 25.390625 
z
M 35.203125 72.90625 
L 47.609375 72.90625 
L 47.609375 25.390625 
L 58.015625 25.390625 
L 58.015625 17.1875 
L 47.609375 17.1875 
L 47.609375 0 
L 37.796875 0 
L 37.796875 17.1875 
L 4.890625 17.1875 
L 4.890625 26.703125 
z
" id="DejaVuSans-52"/>
      </defs>
      <g transform="translate(10.9125 268.954097)scale(0.3 -0.3)">
       <use xlink:href="#DejaVuSans-50"/>
       <use x="63.623047" xlink:href="#DejaVuSans-52"/>
       <use x="127.246094" xlink:href="#DejaVuSans-48"/>
      </g>
     </g>
    </g>
    <g id="ytick_3">
     <g id="line2d_6">
      <g>
       <use style="stroke:#000000;stroke-width:0.8;" x="75.175" xlink:href="#m21a3091a77" y="138.388692"/>
      </g>
     </g>
     <g id="text_6">
      <!-- 320 -->
      <g transform="translate(10.9125 149.786349)scale(0.3 -0.3)">
       <use xlink:href="#DejaVuSans-51"/>
       <use x="63.623047" xlink:href="#DejaVuSans-50"/>
       <use x="127.246094" xlink:href="#DejaVuSans-48"/>
      </g>
     </g>
    </g>
   </g>
   <g id="line2d_7">
    <path clip-path="url(#p93b55bf147)" d="M 109.954494 385.2 
L 113.734874 369.931632 
L 117.515253 370.482776 
L 128.856393 369.559233 
L 132.636772 373.879055 
L 136.417152 365.373469 
L 140.197532 306.92168 
L 143.977912 288.569859 
L 159.099431 266.345054 
L 162.87981 281.464475 
L 166.66019 270.933015 
L 170.44057 284.458557 
L 181.781709 281.896449 
L 185.562089 267.760189 
L 189.342469 257.884154 
L 193.122849 236.180717 
L 196.903228 225.291768 
L 208.244368 229.775469 
L 212.024747 251.240542 
L 215.805127 245.982267 
L 219.585507 251.717224 
L 223.365887 271.305414 
L 238.487406 283.773355 
L 242.267785 287.482437 
L 246.048165 277.725573 
L 249.828545 293.217394 
L 261.169684 292.561968 
L 268.730444 263.604201 
L 272.510824 263.619111 
L 276.291203 243.77767 
L 287.632343 243.852155 
L 295.193102 235.212488 
L 298.973482 241.870988 
L 302.753862 227.749593 
L 314.095001 212.972818 
L 317.875381 211.4534 
L 321.65576 202.97759 
L 325.43614 177.043749 
L 329.21652 175.06256 
L 340.557659 165.126974 
L 344.338039 140.772056 
L 348.118419 162.713789 
L 351.898799 163.786301 
L 355.679178 163.488408 
L 367.020318 154.223114 
L 370.800697 136.377727 
L 374.581077 142.32125 
L 378.361457 127.455057 
L 382.141837 116.789538 
L 393.482976 123.090549 
L 397.263356 112.231375 
L 401.043735 138.969657 
L 404.824115 136.586293 
L 408.604495 111.44189 
L 419.945634 88.8 
L 423.726014 97.573747 
L 427.506394 218.633268 
L 431.286773 202.262613 
L 435.067153 236.061569 
L 446.408293 213.67293 
L 450.188672 221.478403 
L 453.969052 237.104283 
L 457.749432 251.508682 
L 461.529812 252.268368 
L 472.870951 238.727938 
L 476.651331 230.609639 
L 480.43171 201.532725 
L 484.21209 224.040512 
L 487.99247 236.761659 
L 499.333609 234.974147 
L 506.894369 215.966877 
L 514.455128 194.755032 
L 529.576647 197.555481 
L 533.357027 206.865462 
L 537.137407 216.622303 
L 540.917787 196.989427 
L 552.258926 201.964675 
L 556.039306 216.324411 
L 559.819685 211.438535 
L 563.600065 211.721562 
L 567.380445 243.762782 
L 578.721584 251.15117 
L 582.501964 246.026953 
L 586.282344 252.983368 
L 590.062723 270.158441 
L 593.843103 263.887228 
L 605.184242 244.358612 
L 608.964622 243.837244 
L 612.745002 231.4289 
L 616.525382 213.792078 
L 631.646901 184.77476 
L 635.427281 212.913221 
L 639.20766 197.376737 
L 642.98804 186.651622 
L 646.76842 183.568145 
L 658.109559 183.076598 
L 661.889939 152.82289 
L 665.670319 154.982823 
L 669.450698 178.295005 
L 673.231078 190.226645 
L 684.572217 180.559176 
L 688.352597 170.355428 
L 692.132977 190.479896 
L 695.913357 220.242058 
L 699.693737 244.775697 
L 711.034876 235.376345 
L 714.815256 223.861767 
L 718.595635 236.716973 
L 722.376015 258.360814 
L 726.156395 255.471015 
L 737.497534 262.591286 
L 741.277914 258.345926 
L 745.058294 239.279081 
L 748.838673 248.767829 
L 752.619053 235.212488 
L 763.960192 238.802422 
L 767.740572 236.136031 
L 771.520952 227.362329 
L 775.301332 220.495264 
L 779.081712 218.782237 
L 790.422851 234.020806 
L 794.203231 177.311866 
L 797.98361 186.383505 
L 801.76399 192.505726 
L 805.54437 180.486351 
L 805.54437 180.486351 
" style="fill:none;stroke:#000000;stroke-linecap:square;stroke-width:4;"/>
   </g>
   <g id="patch_3">
    <path d="M 75.175 385.2 
L 75.175 88.8 
" style="fill:none;stroke:#000000;stroke-linecap:square;stroke-linejoin:miter;stroke-width:0.8;"/>
   </g>
   <g id="patch_4">
    <path d="M 75.175 385.2 
L 840.323864 385.2 
" style="fill:none;stroke:#000000;stroke-linecap:square;stroke-linejoin:miter;stroke-width:0.8;"/>
   </g>
   <g id="text_7">
    <!-- SMCI   89% -->
    <defs>
     <path d="M 59.90625 70.609375 
L 59.90625 55.171875 
Q 53.90625 57.859375 48.1875 59.21875 
Q 42.484375 60.59375 37.40625 60.59375 
Q 30.671875 60.59375 27.4375 58.734375 
Q 24.21875 56.890625 24.21875 52.984375 
Q 24.21875 50.046875 26.390625 48.40625 
Q 28.5625 46.78125 34.28125 45.609375 
L 42.28125 44 
Q 54.4375 41.546875 59.5625 36.5625 
Q 64.703125 31.59375 64.703125 22.40625 
Q 64.703125 10.359375 57.546875 4.46875 
Q 50.390625 -1.421875 35.6875 -1.421875 
Q 28.765625 -1.421875 21.78125 -0.09375 
Q 14.796875 1.21875 7.8125 3.8125 
L 7.8125 19.671875 
Q 14.796875 15.96875 21.3125 14.078125 
Q 27.828125 12.203125 33.890625 12.203125 
Q 40.046875 12.203125 43.3125 14.25 
Q 46.578125 16.3125 46.578125 20.125 
Q 46.578125 23.53125 44.359375 25.390625 
Q 42.140625 27.25 35.5 28.71875 
L 28.21875 30.328125 
Q 17.28125 32.671875 12.21875 37.796875 
Q 7.171875 42.921875 7.171875 51.609375 
Q 7.171875 62.5 14.203125 68.359375 
Q 21.234375 74.21875 34.421875 74.21875 
Q 40.4375 74.21875 46.78125 73.3125 
Q 53.125 72.40625 59.90625 70.609375 
z
" id="DejaVuSans-Bold-83"/>
     <path d="M 9.1875 72.90625 
L 33.109375 72.90625 
L 49.703125 33.890625 
L 66.40625 72.90625 
L 90.28125 72.90625 
L 90.28125 0 
L 72.515625 0 
L 72.515625 53.328125 
L 55.71875 14.015625 
L 43.796875 14.015625 
L 27 53.328125 
L 27 0 
L 9.1875 0 
z
" id="DejaVuSans-Bold-77"/>
     <path d="M 67 4 
Q 61.8125 1.3125 56.203125 -0.046875 
Q 50.59375 -1.421875 44.484375 -1.421875 
Q 26.265625 -1.421875 15.625 8.765625 
Q 4.984375 18.953125 4.984375 36.375 
Q 4.984375 53.859375 15.625 64.03125 
Q 26.265625 74.21875 44.484375 74.21875 
Q 50.59375 74.21875 56.203125 72.84375 
Q 61.8125 71.484375 67 68.796875 
L 67 53.71875 
Q 61.765625 57.28125 56.6875 58.9375 
Q 51.609375 60.59375 46 60.59375 
Q 35.9375 60.59375 30.171875 54.140625 
Q 24.421875 47.703125 24.421875 36.375 
Q 24.421875 25.09375 30.171875 18.640625 
Q 35.9375 12.203125 46 12.203125 
Q 51.609375 12.203125 56.6875 13.859375 
Q 61.765625 15.53125 67 19.09375 
z
" id="DejaVuSans-Bold-67"/>
     <path d="M 9.1875 72.90625 
L 27.984375 72.90625 
L 27.984375 0 
L 9.1875 0 
z
" id="DejaVuSans-Bold-73"/>
     <path id="DejaVuSans-Bold-32"/>
     <path d="M 34.8125 32.625 
Q 29.546875 32.625 26.703125 29.734375 
Q 23.875 26.859375 23.875 21.484375 
Q 23.875 16.109375 26.703125 13.25 
Q 29.546875 10.40625 34.8125 10.40625 
Q 40.046875 10.40625 42.828125 13.25 
Q 45.609375 16.109375 45.609375 21.484375 
Q 45.609375 26.90625 42.828125 29.765625 
Q 40.046875 32.625 34.8125 32.625 
z
M 21.09375 38.8125 
Q 14.453125 40.828125 11.078125 44.96875 
Q 7.71875 49.125 7.71875 55.328125 
Q 7.71875 64.546875 14.59375 69.375 
Q 21.484375 74.21875 34.8125 74.21875 
Q 48.046875 74.21875 54.921875 69.40625 
Q 61.8125 64.59375 61.8125 55.328125 
Q 61.8125 49.125 58.421875 44.96875 
Q 55.03125 40.828125 48.390625 38.8125 
Q 55.8125 36.765625 59.59375 32.15625 
Q 63.375 27.546875 63.375 20.515625 
Q 63.375 9.671875 56.171875 4.125 
Q 48.96875 -1.421875 34.8125 -1.421875 
Q 20.609375 -1.421875 13.359375 4.125 
Q 6.109375 9.671875 6.109375 20.515625 
Q 6.109375 27.546875 9.890625 32.15625 
Q 13.671875 36.765625 21.09375 38.8125 
z
M 25.484375 53.421875 
Q 25.484375 49.078125 27.90625 46.734375 
Q 30.328125 44.390625 34.8125 44.390625 
Q 39.203125 44.390625 41.59375 46.734375 
Q 44 49.078125 44 53.421875 
Q 44 57.765625 41.59375 60.078125 
Q 39.203125 62.40625 34.8125 62.40625 
Q 30.328125 62.40625 27.90625 60.0625 
Q 25.484375 57.71875 25.484375 53.421875 
z
" id="DejaVuSans-Bold-56"/>
     <path d="M 10.015625 1.609375 
L 10.015625 15.09375 
Q 14.5 12.984375 18.59375 11.9375 
Q 22.703125 10.890625 26.703125 10.890625 
Q 35.109375 10.890625 39.796875 15.546875 
Q 44.484375 20.21875 45.3125 29.390625 
Q 42 26.953125 38.234375 25.734375 
Q 34.46875 24.515625 30.078125 24.515625 
Q 18.890625 24.515625 12.03125 31.03125 
Q 5.171875 37.546875 5.171875 48.1875 
Q 5.171875 59.96875 12.8125 67.046875 
Q 20.453125 74.125 33.296875 74.125 
Q 47.5625 74.125 55.375 64.5 
Q 63.1875 54.890625 63.1875 37.3125 
Q 63.1875 19.234375 54.046875 8.90625 
Q 44.921875 -1.421875 29 -1.421875 
Q 23.875 -1.421875 19.1875 -0.65625 
Q 14.5 0.09375 10.015625 1.609375 
z
M 33.203125 36.71875 
Q 38.140625 36.71875 40.625 39.90625 
Q 43.109375 43.109375 43.109375 49.515625 
Q 43.109375 55.859375 40.625 59.078125 
Q 38.140625 62.3125 33.203125 62.3125 
Q 28.265625 62.3125 25.78125 59.078125 
Q 23.296875 55.859375 23.296875 49.515625 
Q 23.296875 43.109375 25.78125 39.90625 
Q 28.265625 36.71875 33.203125 36.71875 
z
" id="DejaVuSans-Bold-57"/>
     <path d="M 77.484375 30.078125 
Q 74.03125 30.078125 72.125 27.078125 
Q 70.21875 24.078125 70.21875 18.5 
Q 70.21875 12.890625 72.09375 9.890625 
Q 73.96875 6.890625 77.484375 6.890625 
Q 81 6.890625 82.859375 9.890625 
Q 84.71875 12.890625 84.71875 18.5 
Q 84.71875 24.078125 82.828125 27.078125 
Q 80.953125 30.078125 77.484375 30.078125 
z
M 77.484375 38.28125 
Q 86.578125 38.28125 91.796875 33 
Q 97.015625 27.734375 97.015625 18.5 
Q 97.015625 9.28125 91.796875 3.921875 
Q 86.578125 -1.421875 77.484375 -1.421875 
Q 68.40625 -1.421875 63.15625 3.921875 
Q 57.90625 9.28125 57.90625 18.5 
Q 57.90625 27.6875 63.15625 32.984375 
Q 68.40625 38.28125 77.484375 38.28125 
z
M 32.71875 -1.421875 
L 21.921875 -1.421875 
L 67.484375 74.21875 
L 78.328125 74.21875 
z
M 22.703125 74.21875 
Q 31.78125 74.21875 36.984375 68.921875 
Q 42.1875 63.625 42.1875 54.390625 
Q 42.1875 45.171875 36.984375 39.84375 
Q 31.78125 34.515625 22.703125 34.515625 
Q 13.625 34.515625 8.421875 39.84375 
Q 3.21875 45.171875 3.21875 54.390625 
Q 3.21875 63.625 8.421875 68.921875 
Q 13.625 74.21875 22.703125 74.21875 
z
M 22.703125 66.015625 
Q 19.1875 66.015625 17.28125 62.984375 
Q 15.375 59.96875 15.375 54.390625 
Q 15.375 48.78125 17.28125 45.71875 
Q 19.1875 42.671875 22.703125 42.671875 
Q 26.21875 42.671875 28.09375 45.71875 
Q 29.984375 48.78125 29.984375 54.390625 
Q 29.984375 59.96875 28.078125 62.984375 
Q 26.171875 66.015625 22.703125 66.015625 
z
" id="DejaVuSans-Bold-37"/>
    </defs>
    <g transform="translate(75.175 72.1625)scale(0.8 -0.8)">
     <use xlink:href="#DejaVuSans-Bold-83"/>
     <use x="72.021484" xlink:href="#DejaVuSans-Bold-77"/>
     <use x="171.533203" xlink:href="#DejaVuSans-Bold-67"/>
     <use x="244.921875" xlink:href="#DejaVuSans-Bold-73"/>
     <use x="282.128906" xlink:href="#DejaVuSans-Bold-32"/>
     <use x="316.943359" xlink:href="#DejaVuSans-Bold-32"/>
     <use x="351.757812" xlink:href="#DejaVuSans-Bold-32"/>
     <use x="386.572266" xlink:href="#DejaVuSans-Bold-56"/>
     <use x="456.152344" xlink:href="#DejaVuSans-Bold-57"/>
     <use x="525.732422" xlink:href="#DejaVuSans-Bold-37"/>
    </g>
   </g>
  </g>
 </g>
 <defs>
  <clipPath id="p93b55bf147">
   <rect height="296.4" width="765.148864" x="75.175" y="88.8"/>
  </clipPath>
 </defs>
</svg>
