<?xml version="1.0" encoding="utf-8" standalone="no"?>
<!DOCTYPE svg PUBLIC "-//W3C//DTD SVG 1.1//EN"
  "http://www.w3.org/Graphics/SVG/1.1/DTD/svg11.dtd">
<!-- Created with matplotlib (https://matplotlib.org/) -->
<svg height="432pt" version="1.1" viewBox="0 0 864 432" width="864pt" xmlns="http://www.w3.org/2000/svg" xmlns:xlink="http://www.w3.org/1999/xlink">
 <defs>
  <style type="text/css">
*{stroke-linecap:butt;stroke-linejoin:round;}
  </style>
 </defs>
 <g id="figure_1">
  <g id="patch_1">
   <path d="M 0 432 
L 864 432 
L 864 0 
L 0 0 
z
" style="fill:#ffffff;"/>
  </g>
  <g id="axes_1">
   <g id="patch_2">
    <path d="M 30.55 404.2 
L 853.2 404.2 
L 853.2 28.8 
L 30.55 28.8 
z
" style="fill:#ffffff;"/>
   </g>
   <g id="PolyCollection_1">
    <defs>
     <path d="M 67.943182 -44.863636 
L 67.943182 -276.252095 
L 69.997752 -275.746893 
L 76.161464 -297.723741 
L 78.216034 -304.544131 
L 80.270604 -286.356409 
L 82.325175 -315.911464 
L 84.379745 -337.38311 
L 90.543457 -330.057494 
L 92.598027 -342.435255 
L 94.652597 -324.500122 
L 96.707168 -320.711019 
L 98.761738 -310.606729 
L 104.92545 -296.460699 
L 106.98002 -295.197657 
L 109.03459 -305.55456 
L 113.143731 -302.018071 
L 119.307443 -293.429412 
L 121.362013 -292.924186 
L 123.416583 -305.301971 
L 125.471154 -319.447977 
L 127.525724 -310.101503 
L 133.689436 -299.997213 
L 135.744006 -282.819896 
L 137.798576 -279.788609 
L 139.853147 -282.314669 
L 141.907717 -283.577711 
L 148.071429 -283.830325 
L 150.125999 -282.567282 
L 152.180569 -285.851183 
L 154.23514 -266.147805 
L 156.28971 -258.822189 
L 162.453422 -251.749162 
L 164.507992 -252.254388 
L 166.562562 -263.116518 
L 168.617133 -264.126947 
L 170.671703 -261.600862 
L 178.889985 -261.09566 
L 180.944555 -260.843047 
L 182.999126 -267.410847 
L 185.053696 -270.947337 
L 193.271978 -268.421276 
L 195.326548 -279.788609 
L 197.381119 -275.746893 
L 199.435689 -277.767751 
L 205.599401 -277.262524 
L 207.653971 -282.819896 
L 209.708541 -288.88247 
L 211.763112 -288.377267 
L 213.817682 -292.418983 
L 222.035964 -289.135083 
L 224.090534 -282.567282 
L 226.145105 -287.872041 
L 228.199675 -297.218515 
L 234.363387 -302.523273 
L 236.417957 -304.038929 
L 238.472527 -289.135083 
L 240.527098 -302.27066 
L 242.581668 -320.458406 
L 248.74538 -325.005349 
L 250.79995 -336.877908 
L 252.85452 -306.817603 
L 254.909091 -332.836167 
L 256.963661 -322.731877 
L 263.127373 -349.760871 
L 265.181943 -353.297385 
L 267.236513 -336.877908 
L 269.291084 -322.226651 
L 271.345654 -313.890606 
L 277.509366 -315.406261 
L 279.563936 -318.942775 
L 281.618506 -329.299678 
L 283.673077 -315.911464 
L 285.727647 -306.564989 
L 293.945929 -292.671596 
L 296.0005 -294.945044 
L 298.05507 -299.997213 
L 300.10964 -292.671596 
L 306.273352 -294.439841 
L 308.327922 -301.260231 
L 310.382493 -301.007642 
L 312.437063 -299.997213 
L 314.491633 -313.890606 
L 320.655345 -339.403968 
L 322.709915 -340.919624 
L 324.764486 -323.99492 
L 326.819056 -314.143219 
L 328.873626 -306.059787 
L 335.037338 -303.281089 
L 337.091908 -306.817603 
L 339.146479 -306.059787 
L 341.201049 -325.005349 
L 343.255619 -315.153648 
L 349.419331 -314.143219 
L 351.473901 -332.330965 
L 353.528472 -323.99492 
L 355.583042 -332.583578 
L 357.637612 -336.877908 
L 363.801324 -341.424826 
L 365.855894 -324.247533 
L 367.910465 -317.174506 
L 369.965035 -320.458406 
L 372.019605 -328.036636 
L 378.183317 -328.794451 
L 380.237887 -322.731877 
L 382.292458 -307.322829 
L 384.347028 -311.617158 
L 392.56531 -306.564989 
L 394.61988 -311.617158 
L 396.674451 -313.13279 
L 398.729021 -316.164077 
L 400.783591 -314.901035 
L 406.947303 -319.70059 
L 409.001873 -323.742306 
L 411.056444 -322.226651 
L 413.111014 -301.007642 
L 415.165584 -297.723741 
L 421.329296 -303.0285 
L 423.383866 -301.512844 
L 425.438437 -294.439841 
L 427.493007 -310.101503 
L 429.547577 -264.884763 
L 435.711289 -265.389965 
L 437.765859 -254.780473 
L 439.82043 -248.717875 
L 441.875 -244.676159 
L 443.92957 -252.759591 
L 450.093282 -257.559146 
L 452.147852 -253.770044 
L 454.202423 -264.632149 
L 456.256993 -265.895192 
L 458.311563 -260.843047 
L 464.475275 -264.632149 
L 466.529845 -262.358678 
L 468.584416 -281.556853 
L 470.638986 -289.640285 
L 472.693556 -290.398125 
L 478.857268 -291.408554 
L 480.911838 -292.418983 
L 482.966409 -292.418983 
L 485.020979 -291.913757 
L 487.075549 -304.544131 
L 495.293831 -303.0285 
L 497.348402 -302.523273 
L 499.402972 -305.807174 
L 501.457542 -307.828032 
L 507.621254 -310.354116 
L 509.675824 -310.354116 
L 511.730395 -302.27066 
L 513.784965 -298.481557 
L 515.839535 -299.744599 
L 522.003247 -303.281089 
L 524.057817 -305.55456 
L 526.112388 -303.786316 
L 528.166958 -314.143219 
L 530.221528 -314.648445 
L 538.43981 -312.122361 
L 540.494381 -303.281089 
L 542.548951 -313.638016 
L 544.603521 -318.184935 
L 550.767233 -328.036636 
L 552.821803 -334.857025 
L 554.876374 -339.151355 
L 556.930944 -339.909195 
L 558.985514 -343.950911 
L 565.149226 -348.497853 
L 569.258367 -351.023914 
L 571.312937 -345.719155 
L 573.367507 -339.909195 
L 579.531219 -342.435255 
L 581.585789 -366.685575 
L 583.64036 -382.59985 
L 585.69493 -386.136364 
L 587.7495 -377.042479 
L 593.913212 -385.125935 
L 595.967782 -382.59985 
L 598.022353 -376.03205 
L 600.076923 -371.485131 
L 602.131494 -366.685575 
L 608.295205 -365.169944 
L 610.349775 -360.875614 
L 612.404346 -315.911464 
L 614.458916 -305.807174 
L 616.513487 -314.648445 
L 622.677198 -331.825738 
L 624.731768 -329.80488 
L 626.786339 -321.974062 
L 628.840909 -317.427119 
L 630.89548 -316.41669 
L 637.059191 -311.869748 
L 639.113761 -311.111932 
L 641.168332 -308.585847 
L 643.222902 -303.0285 
L 645.277473 -298.228944 
L 651.441184 -295.955473 
L 653.495754 -286.356409 
L 655.550325 -276.252095 
L 657.604895 -273.220808 
L 659.659466 -276.757322 
L 665.823177 -281.30424 
L 667.877747 -278.525566 
L 669.932318 -278.272953 
L 671.986888 -281.556853 
L 674.041459 -278.525566 
L 680.20517 -283.577711 
L 682.25974 -294.692454 
L 684.314311 -300.502415 
L 686.368881 -306.3124 
L 688.423452 -308.585847 
L 696.641733 -309.091074 
L 698.696304 -288.124654 
L 700.750874 -290.398125 
L 702.805445 -282.06208 
L 708.969156 -283.325098 
L 711.023726 -286.861612 
L 713.078297 -279.535995 
L 715.132867 -276.252095 
L 717.187438 -276.252095 
L 723.351149 -269.431705 
L 725.405719 -272.210379 
L 727.46029 -272.968195 
L 729.51486 -262.863905 
L 731.569431 -264.379536 
L 737.733142 -262.106089 
L 739.787712 -255.538288 
L 741.842283 -259.327391 
L 743.896853 -261.09566 
L 745.951424 -269.936908 
L 752.115135 -265.642578 
L 754.169705 -260.590433 
L 756.224276 -264.379536 
L 758.278846 -265.642578 
L 760.333417 -262.863905 
L 766.497128 -262.358678 
L 768.551698 -267.663436 
L 770.606269 -274.989053 
L 772.660839 -274.989053 
L 774.71541 -264.126947 
L 780.879121 -290.398125 
L 782.933691 -289.640285 
L 784.988262 -287.366838 
L 787.042832 -288.629856 
L 789.097403 -283.325098 
L 795.261114 -284.58814 
L 797.315684 -290.145512 
L 799.370255 -277.009911 
L 801.424825 -279.788609 
L 803.479396 -279.788609 
L 809.643107 -289.892899 
L 811.697677 -297.723741 
L 813.752248 -297.218515 
L 815.806818 -308.333258 
L 815.806818 -44.863636 
L 815.806818 -44.863636 
L 813.752248 -44.863636 
L 811.697677 -44.863636 
L 809.643107 -44.863636 
L 803.479396 -44.863636 
L 801.424825 -44.863636 
L 799.370255 -44.863636 
L 797.315684 -44.863636 
L 795.261114 -44.863636 
L 789.097403 -44.863636 
L 787.042832 -44.863636 
L 784.988262 -44.863636 
L 782.933691 -44.863636 
L 780.879121 -44.863636 
L 774.71541 -44.863636 
L 772.660839 -44.863636 
L 770.606269 -44.863636 
L 768.551698 -44.863636 
L 766.497128 -44.863636 
L 760.333417 -44.863636 
L 758.278846 -44.863636 
L 756.224276 -44.863636 
L 754.169705 -44.863636 
L 752.115135 -44.863636 
L 745.951424 -44.863636 
L 743.896853 -44.863636 
L 741.842283 -44.863636 
L 739.787712 -44.863636 
L 737.733142 -44.863636 
L 731.569431 -44.863636 
L 729.51486 -44.863636 
L 727.46029 -44.863636 
L 725.405719 -44.863636 
L 723.351149 -44.863636 
L 717.187438 -44.863636 
L 715.132867 -44.863636 
L 713.078297 -44.863636 
L 711.023726 -44.863636 
L 708.969156 -44.863636 
L 702.805445 -44.863636 
L 700.750874 -44.863636 
L 698.696304 -44.863636 
L 696.641733 -44.863636 
L 688.423452 -44.863636 
L 686.368881 -44.863636 
L 684.314311 -44.863636 
L 682.25974 -44.863636 
L 680.20517 -44.863636 
L 674.041459 -44.863636 
L 671.986888 -44.863636 
L 669.932318 -44.863636 
L 667.877747 -44.863636 
L 665.823177 -44.863636 
L 659.659466 -44.863636 
L 657.604895 -44.863636 
L 655.550325 -44.863636 
L 653.495754 -44.863636 
L 651.441184 -44.863636 
L 645.277473 -44.863636 
L 643.222902 -44.863636 
L 641.168332 -44.863636 
L 639.113761 -44.863636 
L 637.059191 -44.863636 
L 630.89548 -44.863636 
L 628.840909 -44.863636 
L 626.786339 -44.863636 
L 624.731768 -44.863636 
L 622.677198 -44.863636 
L 616.513487 -44.863636 
L 614.458916 -44.863636 
L 612.404346 -44.863636 
L 610.349775 -44.863636 
L 608.295205 -44.863636 
L 602.131494 -44.863636 
L 600.076923 -44.863636 
L 598.022353 -44.863636 
L 595.967782 -44.863636 
L 593.913212 -44.863636 
L 587.7495 -44.863636 
L 585.69493 -44.863636 
L 583.64036 -44.863636 
L 581.585789 -44.863636 
L 579.531219 -44.863636 
L 573.367507 -44.863636 
L 571.312937 -44.863636 
L 569.258367 -44.863636 
L 565.149226 -44.863636 
L 558.985514 -44.863636 
L 556.930944 -44.863636 
L 554.876374 -44.863636 
L 552.821803 -44.863636 
L 550.767233 -44.863636 
L 544.603521 -44.863636 
L 542.548951 -44.863636 
L 540.494381 -44.863636 
L 538.43981 -44.863636 
L 530.221528 -44.863636 
L 528.166958 -44.863636 
L 526.112388 -44.863636 
L 524.057817 -44.863636 
L 522.003247 -44.863636 
L 515.839535 -44.863636 
L 513.784965 -44.863636 
L 511.730395 -44.863636 
L 509.675824 -44.863636 
L 507.621254 -44.863636 
L 501.457542 -44.863636 
L 499.402972 -44.863636 
L 497.348402 -44.863636 
L 495.293831 -44.863636 
L 487.075549 -44.863636 
L 485.020979 -44.863636 
L 482.966409 -44.863636 
L 480.911838 -44.863636 
L 478.857268 -44.863636 
L 472.693556 -44.863636 
L 470.638986 -44.863636 
L 468.584416 -44.863636 
L 466.529845 -44.863636 
L 464.475275 -44.863636 
L 458.311563 -44.863636 
L 456.256993 -44.863636 
L 454.202423 -44.863636 
L 452.147852 -44.863636 
L 450.093282 -44.863636 
L 443.92957 -44.863636 
L 441.875 -44.863636 
L 439.82043 -44.863636 
L 437.765859 -44.863636 
L 435.711289 -44.863636 
L 429.547577 -44.863636 
L 427.493007 -44.863636 
L 425.438437 -44.863636 
L 423.383866 -44.863636 
L 421.329296 -44.863636 
L 415.165584 -44.863636 
L 413.111014 -44.863636 
L 411.056444 -44.863636 
L 409.001873 -44.863636 
L 406.947303 -44.863636 
L 400.783591 -44.863636 
L 398.729021 -44.863636 
L 396.674451 -44.863636 
L 394.61988 -44.863636 
L 392.56531 -44.863636 
L 384.347028 -44.863636 
L 382.292458 -44.863636 
L 380.237887 -44.863636 
L 378.183317 -44.863636 
L 372.019605 -44.863636 
L 369.965035 -44.863636 
L 367.910465 -44.863636 
L 365.855894 -44.863636 
L 363.801324 -44.863636 
L 357.637612 -44.863636 
L 355.583042 -44.863636 
L 353.528472 -44.863636 
L 351.473901 -44.863636 
L 349.419331 -44.863636 
L 343.255619 -44.863636 
L 341.201049 -44.863636 
L 339.146479 -44.863636 
L 337.091908 -44.863636 
L 335.037338 -44.863636 
L 328.873626 -44.863636 
L 326.819056 -44.863636 
L 324.764486 -44.863636 
L 322.709915 -44.863636 
L 320.655345 -44.863636 
L 314.491633 -44.863636 
L 312.437063 -44.863636 
L 310.382493 -44.863636 
L 308.327922 -44.863636 
L 306.273352 -44.863636 
L 300.10964 -44.863636 
L 298.05507 -44.863636 
L 296.0005 -44.863636 
L 293.945929 -44.863636 
L 285.727647 -44.863636 
L 283.673077 -44.863636 
L 281.618506 -44.863636 
L 279.563936 -44.863636 
L 277.509366 -44.863636 
L 271.345654 -44.863636 
L 269.291084 -44.863636 
L 267.236513 -44.863636 
L 265.181943 -44.863636 
L 263.127373 -44.863636 
L 256.963661 -44.863636 
L 254.909091 -44.863636 
L 252.85452 -44.863636 
L 250.79995 -44.863636 
L 248.74538 -44.863636 
L 242.581668 -44.863636 
L 240.527098 -44.863636 
L 238.472527 -44.863636 
L 236.417957 -44.863636 
L 234.363387 -44.863636 
L 228.199675 -44.863636 
L 226.145105 -44.863636 
L 224.090534 -44.863636 
L 222.035964 -44.863636 
L 213.817682 -44.863636 
L 211.763112 -44.863636 
L 209.708541 -44.863636 
L 207.653971 -44.863636 
L 205.599401 -44.863636 
L 199.435689 -44.863636 
L 197.381119 -44.863636 
L 195.326548 -44.863636 
L 193.271978 -44.863636 
L 185.053696 -44.863636 
L 182.999126 -44.863636 
L 180.944555 -44.863636 
L 178.889985 -44.863636 
L 170.671703 -44.863636 
L 168.617133 -44.863636 
L 166.562562 -44.863636 
L 164.507992 -44.863636 
L 162.453422 -44.863636 
L 156.28971 -44.863636 
L 154.23514 -44.863636 
L 152.180569 -44.863636 
L 150.125999 -44.863636 
L 148.071429 -44.863636 
L 141.907717 -44.863636 
L 139.853147 -44.863636 
L 137.798576 -44.863636 
L 135.744006 -44.863636 
L 133.689436 -44.863636 
L 127.525724 -44.863636 
L 125.471154 -44.863636 
L 123.416583 -44.863636 
L 121.362013 -44.863636 
L 119.307443 -44.863636 
L 113.143731 -44.863636 
L 109.03459 -44.863636 
L 106.98002 -44.863636 
L 104.92545 -44.863636 
L 98.761738 -44.863636 
L 96.707168 -44.863636 
L 94.652597 -44.863636 
L 92.598027 -44.863636 
L 90.543457 -44.863636 
L 84.379745 -44.863636 
L 82.325175 -44.863636 
L 80.270604 -44.863636 
L 78.216034 -44.863636 
L 76.161464 -44.863636 
L 69.997752 -44.863636 
L 67.943182 -44.863636 
z
" id="ma1f7f99887" style="stroke:#c6a2d2;"/>
    </defs>
    <g clip-path="url(#p81fac02192)">
     <use style="fill:#c6a2d2;stroke:#c6a2d2;" x="0" xlink:href="#ma1f7f99887" y="432"/>
    </g>
   </g>
   <g id="matplotlib.axis_1">
    <g id="xtick_1">
     <g id="line2d_1">
      <defs>
       <path d="M 0 0 
L 0 3.5 
" id="mf627dd3f7b" style="stroke:#000000;stroke-width:0.8;"/>
      </defs>
      <g>
       <use style="stroke:#000000;stroke-width:0.8;" x="63.834041" xlink:href="#mf627dd3f7b" y="404.2"/>
      </g>
     </g>
     <g id="text_1">
      <!-- 2022-11 -->
      <defs>
       <path d="M 19.1875 8.296875 
L 53.609375 8.296875 
L 53.609375 0 
L 7.328125 0 
L 7.328125 8.296875 
Q 12.9375 14.109375 22.625 23.890625 
Q 32.328125 33.6875 34.8125 36.53125 
Q 39.546875 41.84375 41.421875 45.53125 
Q 43.3125 49.21875 43.3125 52.78125 
Q 43.3125 58.59375 39.234375 62.25 
Q 35.15625 65.921875 28.609375 65.921875 
Q 23.96875 65.921875 18.8125 64.3125 
Q 13.671875 62.703125 7.8125 59.421875 
L 7.8125 69.390625 
Q 13.765625 71.78125 18.9375 73 
Q 24.125 74.21875 28.421875 74.21875 
Q 39.75 74.21875 46.484375 68.546875 
Q 53.21875 62.890625 53.21875 53.421875 
Q 53.21875 48.921875 51.53125 44.890625 
Q 49.859375 40.875 45.40625 35.40625 
Q 44.1875 33.984375 37.640625 27.21875 
Q 31.109375 20.453125 19.1875 8.296875 
z
" id="DejaVuSans-50"/>
       <path d="M 31.78125 66.40625 
Q 24.171875 66.40625 20.328125 58.90625 
Q 16.5 51.421875 16.5 36.375 
Q 16.5 21.390625 20.328125 13.890625 
Q 24.171875 6.390625 31.78125 6.390625 
Q 39.453125 6.390625 43.28125 13.890625 
Q 47.125 21.390625 47.125 36.375 
Q 47.125 51.421875 43.28125 58.90625 
Q 39.453125 66.40625 31.78125 66.40625 
z
M 31.78125 74.21875 
Q 44.046875 74.21875 50.515625 64.515625 
Q 56.984375 54.828125 56.984375 36.375 
Q 56.984375 17.96875 50.515625 8.265625 
Q 44.046875 -1.421875 31.78125 -1.421875 
Q 19.53125 -1.421875 13.0625 8.265625 
Q 6.59375 17.96875 6.59375 36.375 
Q 6.59375 54.828125 13.0625 64.515625 
Q 19.53125 74.21875 31.78125 74.21875 
z
" id="DejaVuSans-48"/>
       <path d="M 4.890625 31.390625 
L 31.203125 31.390625 
L 31.203125 23.390625 
L 4.890625 23.390625 
z
" id="DejaVuSans-45"/>
       <path d="M 12.40625 8.296875 
L 28.515625 8.296875 
L 28.515625 63.921875 
L 10.984375 60.40625 
L 10.984375 69.390625 
L 28.421875 72.90625 
L 38.28125 72.90625 
L 38.28125 8.296875 
L 54.390625 8.296875 
L 54.390625 0 
L 12.40625 0 
z
" id="DejaVuSans-49"/>
      </defs>
      <g transform="translate(42.942635 418.798437)scale(0.1 -0.1)">
       <use xlink:href="#DejaVuSans-50"/>
       <use x="63.623047" xlink:href="#DejaVuSans-48"/>
       <use x="127.246094" xlink:href="#DejaVuSans-50"/>
       <use x="190.869141" xlink:href="#DejaVuSans-50"/>
       <use x="254.492188" xlink:href="#DejaVuSans-45"/>
       <use x="290.576172" xlink:href="#DejaVuSans-49"/>
       <use x="354.199219" xlink:href="#DejaVuSans-49"/>
      </g>
     </g>
    </g>
    <g id="xtick_2">
     <g id="line2d_2">
      <g>
       <use style="stroke:#000000;stroke-width:0.8;" x="189.162837" xlink:href="#mf627dd3f7b" y="404.2"/>
      </g>
     </g>
     <g id="text_2">
      <!-- 2023-01 -->
      <defs>
       <path d="M 40.578125 39.3125 
Q 47.65625 37.796875 51.625 33 
Q 55.609375 28.21875 55.609375 21.1875 
Q 55.609375 10.40625 48.1875 4.484375 
Q 40.765625 -1.421875 27.09375 -1.421875 
Q 22.515625 -1.421875 17.65625 -0.515625 
Q 12.796875 0.390625 7.625 2.203125 
L 7.625 11.71875 
Q 11.71875 9.328125 16.59375 8.109375 
Q 21.484375 6.890625 26.8125 6.890625 
Q 36.078125 6.890625 40.9375 10.546875 
Q 45.796875 14.203125 45.796875 21.1875 
Q 45.796875 27.640625 41.28125 31.265625 
Q 36.765625 34.90625 28.71875 34.90625 
L 20.21875 34.90625 
L 20.21875 43.015625 
L 29.109375 43.015625 
Q 36.375 43.015625 40.234375 45.921875 
Q 44.09375 48.828125 44.09375 54.296875 
Q 44.09375 59.90625 40.109375 62.90625 
Q 36.140625 65.921875 28.71875 65.921875 
Q 24.65625 65.921875 20.015625 65.03125 
Q 15.375 64.15625 9.8125 62.3125 
L 9.8125 71.09375 
Q 15.4375 72.65625 20.34375 73.4375 
Q 25.25 74.21875 29.59375 74.21875 
Q 40.828125 74.21875 47.359375 69.109375 
Q 53.90625 64.015625 53.90625 55.328125 
Q 53.90625 49.265625 50.4375 45.09375 
Q 46.96875 40.921875 40.578125 39.3125 
z
" id="DejaVuSans-51"/>
      </defs>
      <g transform="translate(168.271431 418.798437)scale(0.1 -0.1)">
       <use xlink:href="#DejaVuSans-50"/>
       <use x="63.623047" xlink:href="#DejaVuSans-48"/>
       <use x="127.246094" xlink:href="#DejaVuSans-50"/>
       <use x="190.869141" xlink:href="#DejaVuSans-51"/>
       <use x="254.492188" xlink:href="#DejaVuSans-45"/>
       <use x="290.576172" xlink:href="#DejaVuSans-48"/>
       <use x="354.199219" xlink:href="#DejaVuSans-49"/>
      </g>
     </g>
    </g>
    <g id="xtick_3">
     <g id="line2d_3">
      <g>
       <use style="stroke:#000000;stroke-width:0.8;" x="310.382493" xlink:href="#mf627dd3f7b" y="404.2"/>
      </g>
     </g>
     <g id="text_3">
      <!-- 2023-03 -->
      <g transform="translate(289.491086 418.798437)scale(0.1 -0.1)">
       <use xlink:href="#DejaVuSans-50"/>
       <use x="63.623047" xlink:href="#DejaVuSans-48"/>
       <use x="127.246094" xlink:href="#DejaVuSans-50"/>
       <use x="190.869141" xlink:href="#DejaVuSans-51"/>
       <use x="254.492188" xlink:href="#DejaVuSans-45"/>
       <use x="290.576172" xlink:href="#DejaVuSans-48"/>
       <use x="354.199219" xlink:href="#DejaVuSans-51"/>
      </g>
     </g>
    </g>
    <g id="xtick_4">
     <g id="line2d_4">
      <g>
       <use style="stroke:#000000;stroke-width:0.8;" x="435.711289" xlink:href="#mf627dd3f7b" y="404.2"/>
      </g>
     </g>
     <g id="text_4">
      <!-- 2023-05 -->
      <defs>
       <path d="M 10.796875 72.90625 
L 49.515625 72.90625 
L 49.515625 64.59375 
L 19.828125 64.59375 
L 19.828125 46.734375 
Q 21.96875 47.46875 24.109375 47.828125 
Q 26.265625 48.1875 28.421875 48.1875 
Q 40.625 48.1875 47.75 41.5 
Q 54.890625 34.8125 54.890625 23.390625 
Q 54.890625 11.625 47.5625 5.09375 
Q 40.234375 -1.421875 26.90625 -1.421875 
Q 22.3125 -1.421875 17.546875 -0.640625 
Q 12.796875 0.140625 7.71875 1.703125 
L 7.71875 11.625 
Q 12.109375 9.234375 16.796875 8.0625 
Q 21.484375 6.890625 26.703125 6.890625 
Q 35.15625 6.890625 40.078125 11.328125 
Q 45.015625 15.765625 45.015625 23.390625 
Q 45.015625 31 40.078125 35.4375 
Q 35.15625 39.890625 26.703125 39.890625 
Q 22.75 39.890625 18.8125 39.015625 
Q 14.890625 38.140625 10.796875 36.28125 
z
" id="DejaVuSans-53"/>
      </defs>
      <g transform="translate(414.819882 418.798437)scale(0.1 -0.1)">
       <use xlink:href="#DejaVuSans-50"/>
       <use x="63.623047" xlink:href="#DejaVuSans-48"/>
       <use x="127.246094" xlink:href="#DejaVuSans-50"/>
       <use x="190.869141" xlink:href="#DejaVuSans-51"/>
       <use x="254.492188" xlink:href="#DejaVuSans-45"/>
       <use x="290.576172" xlink:href="#DejaVuSans-48"/>
       <use x="354.199219" xlink:href="#DejaVuSans-53"/>
      </g>
     </g>
    </g>
    <g id="xtick_5">
     <g id="line2d_5">
      <g>
       <use style="stroke:#000000;stroke-width:0.8;" x="561.040085" xlink:href="#mf627dd3f7b" y="404.2"/>
      </g>
     </g>
     <g id="text_5">
      <!-- 2023-07 -->
      <defs>
       <path d="M 8.203125 72.90625 
L 55.078125 72.90625 
L 55.078125 68.703125 
L 28.609375 0 
L 18.3125 0 
L 43.21875 64.59375 
L 8.203125 64.59375 
z
" id="DejaVuSans-55"/>
      </defs>
      <g transform="translate(540.148679 418.798437)scale(0.1 -0.1)">
       <use xlink:href="#DejaVuSans-50"/>
       <use x="63.623047" xlink:href="#DejaVuSans-48"/>
       <use x="127.246094" xlink:href="#DejaVuSans-50"/>
       <use x="190.869141" xlink:href="#DejaVuSans-51"/>
       <use x="254.492188" xlink:href="#DejaVuSans-45"/>
       <use x="290.576172" xlink:href="#DejaVuSans-48"/>
       <use x="354.199219" xlink:href="#DejaVuSans-55"/>
      </g>
     </g>
    </g>
    <g id="xtick_6">
     <g id="line2d_6">
      <g>
       <use style="stroke:#000000;stroke-width:0.8;" x="688.423452" xlink:href="#mf627dd3f7b" y="404.2"/>
      </g>
     </g>
     <g id="text_6">
      <!-- 2023-09 -->
      <defs>
       <path d="M 10.984375 1.515625 
L 10.984375 10.5 
Q 14.703125 8.734375 18.5 7.8125 
Q 22.3125 6.890625 25.984375 6.890625 
Q 35.75 6.890625 40.890625 13.453125 
Q 46.046875 20.015625 46.78125 33.40625 
Q 43.953125 29.203125 39.59375 26.953125 
Q 35.25 24.703125 29.984375 24.703125 
Q 19.046875 24.703125 12.671875 31.3125 
Q 6.296875 37.9375 6.296875 49.421875 
Q 6.296875 60.640625 12.9375 67.421875 
Q 19.578125 74.21875 30.609375 74.21875 
Q 43.265625 74.21875 49.921875 64.515625 
Q 56.59375 54.828125 56.59375 36.375 
Q 56.59375 19.140625 48.40625 8.859375 
Q 40.234375 -1.421875 26.421875 -1.421875 
Q 22.703125 -1.421875 18.890625 -0.6875 
Q 15.09375 0.046875 10.984375 1.515625 
z
M 30.609375 32.421875 
Q 37.25 32.421875 41.125 36.953125 
Q 45.015625 41.5 45.015625 49.421875 
Q 45.015625 57.28125 41.125 61.84375 
Q 37.25 66.40625 30.609375 66.40625 
Q 23.96875 66.40625 20.09375 61.84375 
Q 16.21875 57.28125 16.21875 49.421875 
Q 16.21875 41.5 20.09375 36.953125 
Q 23.96875 32.421875 30.609375 32.421875 
z
" id="DejaVuSans-57"/>
      </defs>
      <g transform="translate(667.532045 418.798437)scale(0.1 -0.1)">
       <use xlink:href="#DejaVuSans-50"/>
       <use x="63.623047" xlink:href="#DejaVuSans-48"/>
       <use x="127.246094" xlink:href="#DejaVuSans-50"/>
       <use x="190.869141" xlink:href="#DejaVuSans-51"/>
       <use x="254.492188" xlink:href="#DejaVuSans-45"/>
       <use x="290.576172" xlink:href="#DejaVuSans-48"/>
       <use x="354.199219" xlink:href="#DejaVuSans-57"/>
      </g>
     </g>
    </g>
    <g id="xtick_7">
     <g id="line2d_7">
      <g>
       <use style="stroke:#000000;stroke-width:0.8;" x="813.752248" xlink:href="#mf627dd3f7b" y="404.2"/>
      </g>
     </g>
     <g id="text_7">
      <!-- 2023-11 -->
      <g transform="translate(792.860842 418.798437)scale(0.1 -0.1)">
       <use xlink:href="#DejaVuSans-50"/>
       <use x="63.623047" xlink:href="#DejaVuSans-48"/>
       <use x="127.246094" xlink:href="#DejaVuSans-50"/>
       <use x="190.869141" xlink:href="#DejaVuSans-51"/>
       <use x="254.492188" xlink:href="#DejaVuSans-45"/>
       <use x="290.576172" xlink:href="#DejaVuSans-49"/>
       <use x="354.199219" xlink:href="#DejaVuSans-49"/>
      </g>
     </g>
    </g>
   </g>
   <g id="matplotlib.axis_2">
    <g id="ytick_1">
     <g id="line2d_8">
      <defs>
       <path d="M 0 0 
L -3.5 0 
" id="m34228f6149" style="stroke:#000000;stroke-width:0.8;"/>
      </defs>
      <g>
       <use style="stroke:#000000;stroke-width:0.8;" x="30.55" xlink:href="#m34228f6149" y="387.136364"/>
      </g>
     </g>
     <g id="text_8">
      <!-- 0 -->
      <g transform="translate(17.1875 390.935582)scale(0.1 -0.1)">
       <use xlink:href="#DejaVuSans-48"/>
      </g>
     </g>
    </g>
    <g id="ytick_2">
     <g id="line2d_9">
      <g>
       <use style="stroke:#000000;stroke-width:0.8;" x="30.55" xlink:href="#m34228f6149" y="336.614865"/>
      </g>
     </g>
     <g id="text_9">
      <!-- 2 -->
      <g transform="translate(17.1875 340.414084)scale(0.1 -0.1)">
       <use xlink:href="#DejaVuSans-50"/>
      </g>
     </g>
    </g>
    <g id="ytick_3">
     <g id="line2d_10">
      <g>
       <use style="stroke:#000000;stroke-width:0.8;" x="30.55" xlink:href="#m34228f6149" y="286.093367"/>
      </g>
     </g>
     <g id="text_10">
      <!-- 4 -->
      <defs>
       <path d="M 37.796875 64.3125 
L 12.890625 25.390625 
L 37.796875 25.390625 
z
M 35.203125 72.90625 
L 47.609375 72.90625 
L 47.609375 25.390625 
L 58.015625 25.390625 
L 58.015625 17.1875 
L 47.609375 17.1875 
L 47.609375 0 
L 37.796875 0 
L 37.796875 17.1875 
L 4.890625 17.1875 
L 4.890625 26.703125 
z
" id="DejaVuSans-52"/>
      </defs>
      <g transform="translate(17.1875 289.892586)scale(0.1 -0.1)">
       <use xlink:href="#DejaVuSans-52"/>
      </g>
     </g>
    </g>
    <g id="ytick_4">
     <g id="line2d_11">
      <g>
       <use style="stroke:#000000;stroke-width:0.8;" x="30.55" xlink:href="#m34228f6149" y="235.571869"/>
      </g>
     </g>
     <g id="text_11">
      <!-- 6 -->
      <defs>
       <path d="M 33.015625 40.375 
Q 26.375 40.375 22.484375 35.828125 
Q 18.609375 31.296875 18.609375 23.390625 
Q 18.609375 15.53125 22.484375 10.953125 
Q 26.375 6.390625 33.015625 6.390625 
Q 39.65625 6.390625 43.53125 10.953125 
Q 47.40625 15.53125 47.40625 23.390625 
Q 47.40625 31.296875 43.53125 35.828125 
Q 39.65625 40.375 33.015625 40.375 
z
M 52.59375 71.296875 
L 52.59375 62.3125 
Q 48.875 64.0625 45.09375 64.984375 
Q 41.3125 65.921875 37.59375 65.921875 
Q 27.828125 65.921875 22.671875 59.328125 
Q 17.53125 52.734375 16.796875 39.40625 
Q 19.671875 43.65625 24.015625 45.921875 
Q 28.375 48.1875 33.59375 48.1875 
Q 44.578125 48.1875 50.953125 41.515625 
Q 57.328125 34.859375 57.328125 23.390625 
Q 57.328125 12.15625 50.6875 5.359375 
Q 44.046875 -1.421875 33.015625 -1.421875 
Q 20.359375 -1.421875 13.671875 8.265625 
Q 6.984375 17.96875 6.984375 36.375 
Q 6.984375 53.65625 15.1875 63.9375 
Q 23.390625 74.21875 37.203125 74.21875 
Q 40.921875 74.21875 44.703125 73.484375 
Q 48.484375 72.75 52.59375 71.296875 
z
" id="DejaVuSans-54"/>
      </defs>
      <g transform="translate(17.1875 239.371087)scale(0.1 -0.1)">
       <use xlink:href="#DejaVuSans-54"/>
      </g>
     </g>
    </g>
    <g id="ytick_5">
     <g id="line2d_12">
      <g>
       <use style="stroke:#000000;stroke-width:0.8;" x="30.55" xlink:href="#m34228f6149" y="185.05037"/>
      </g>
     </g>
     <g id="text_12">
      <!-- 8 -->
      <defs>
       <path d="M 31.78125 34.625 
Q 24.75 34.625 20.71875 30.859375 
Q 16.703125 27.09375 16.703125 20.515625 
Q 16.703125 13.921875 20.71875 10.15625 
Q 24.75 6.390625 31.78125 6.390625 
Q 38.8125 6.390625 42.859375 10.171875 
Q 46.921875 13.96875 46.921875 20.515625 
Q 46.921875 27.09375 42.890625 30.859375 
Q 38.875 34.625 31.78125 34.625 
z
M 21.921875 38.8125 
Q 15.578125 40.375 12.03125 44.71875 
Q 8.5 49.078125 8.5 55.328125 
Q 8.5 64.0625 14.71875 69.140625 
Q 20.953125 74.21875 31.78125 74.21875 
Q 42.671875 74.21875 48.875 69.140625 
Q 55.078125 64.0625 55.078125 55.328125 
Q 55.078125 49.078125 51.53125 44.71875 
Q 48 40.375 41.703125 38.8125 
Q 48.828125 37.15625 52.796875 32.3125 
Q 56.78125 27.484375 56.78125 20.515625 
Q 56.78125 9.90625 50.3125 4.234375 
Q 43.84375 -1.421875 31.78125 -1.421875 
Q 19.734375 -1.421875 13.25 4.234375 
Q 6.78125 9.90625 6.78125 20.515625 
Q 6.78125 27.484375 10.78125 32.3125 
Q 14.796875 37.15625 21.921875 38.8125 
z
M 18.3125 54.390625 
Q 18.3125 48.734375 21.84375 45.5625 
Q 25.390625 42.390625 31.78125 42.390625 
Q 38.140625 42.390625 41.71875 45.5625 
Q 45.3125 48.734375 45.3125 54.390625 
Q 45.3125 60.0625 41.71875 63.234375 
Q 38.140625 66.40625 31.78125 66.40625 
Q 25.390625 66.40625 21.84375 63.234375 
Q 18.3125 60.0625 18.3125 54.390625 
z
" id="DejaVuSans-56"/>
      </defs>
      <g transform="translate(17.1875 188.849589)scale(0.1 -0.1)">
       <use xlink:href="#DejaVuSans-56"/>
      </g>
     </g>
    </g>
    <g id="ytick_6">
     <g id="line2d_13">
      <g>
       <use style="stroke:#000000;stroke-width:0.8;" x="30.55" xlink:href="#m34228f6149" y="134.528872"/>
      </g>
     </g>
     <g id="text_13">
      <!-- 10 -->
      <g transform="translate(10.825 138.328091)scale(0.1 -0.1)">
       <use xlink:href="#DejaVuSans-49"/>
       <use x="63.623047" xlink:href="#DejaVuSans-48"/>
      </g>
     </g>
    </g>
    <g id="ytick_7">
     <g id="line2d_14">
      <g>
       <use style="stroke:#000000;stroke-width:0.8;" x="30.55" xlink:href="#m34228f6149" y="84.007373"/>
      </g>
     </g>
     <g id="text_14">
      <!-- 12 -->
      <g transform="translate(10.825 87.806592)scale(0.1 -0.1)">
       <use xlink:href="#DejaVuSans-49"/>
       <use x="63.623047" xlink:href="#DejaVuSans-50"/>
      </g>
     </g>
    </g>
    <g id="ytick_8">
     <g id="line2d_15">
      <g>
       <use style="stroke:#000000;stroke-width:0.8;" x="30.55" xlink:href="#m34228f6149" y="33.485875"/>
      </g>
     </g>
     <g id="text_15">
      <!-- 14 -->
      <g transform="translate(10.825 37.285094)scale(0.1 -0.1)">
       <use xlink:href="#DejaVuSans-49"/>
       <use x="63.623047" xlink:href="#DejaVuSans-52"/>
      </g>
     </g>
    </g>
   </g>
   <g id="patch_3">
    <path d="M 30.55 404.2 
L 30.55 28.8 
" style="fill:none;stroke:#000000;stroke-linecap:square;stroke-linejoin:miter;stroke-width:0.8;"/>
   </g>
   <g id="patch_4">
    <path d="M 853.2 404.2 
L 853.2 28.8 
" style="fill:none;stroke:#000000;stroke-linecap:square;stroke-linejoin:miter;stroke-width:0.8;"/>
   </g>
   <g id="patch_5">
    <path d="M 30.55 404.2 
L 853.2 404.2 
" style="fill:none;stroke:#000000;stroke-linecap:square;stroke-linejoin:miter;stroke-width:0.8;"/>
   </g>
   <g id="patch_6">
    <path d="M 30.55 28.8 
L 853.2 28.8 
" style="fill:none;stroke:#000000;stroke-linecap:square;stroke-linejoin:miter;stroke-width:0.8;"/>
   </g>
   <g id="text_16">
    <!-- SNAP - 13.86% -->
    <defs>
     <path d="M 59.90625 70.609375 
L 59.90625 55.171875 
Q 53.90625 57.859375 48.1875 59.21875 
Q 42.484375 60.59375 37.40625 60.59375 
Q 30.671875 60.59375 27.4375 58.734375 
Q 24.21875 56.890625 24.21875 52.984375 
Q 24.21875 50.046875 26.390625 48.40625 
Q 28.5625 46.78125 34.28125 45.609375 
L 42.28125 44 
Q 54.4375 41.546875 59.5625 36.5625 
Q 64.703125 31.59375 64.703125 22.40625 
Q 64.703125 10.359375 57.546875 4.46875 
Q 50.390625 -1.421875 35.6875 -1.421875 
Q 28.765625 -1.421875 21.78125 -0.09375 
Q 14.796875 1.21875 7.8125 3.8125 
L 7.8125 19.671875 
Q 14.796875 15.96875 21.3125 14.078125 
Q 27.828125 12.203125 33.890625 12.203125 
Q 40.046875 12.203125 43.3125 14.25 
Q 46.578125 16.3125 46.578125 20.125 
Q 46.578125 23.53125 44.359375 25.390625 
Q 42.140625 27.25 35.5 28.71875 
L 28.21875 30.328125 
Q 17.28125 32.671875 12.21875 37.796875 
Q 7.171875 42.921875 7.171875 51.609375 
Q 7.171875 62.5 14.203125 68.359375 
Q 21.234375 74.21875 34.421875 74.21875 
Q 40.4375 74.21875 46.78125 73.3125 
Q 53.125 72.40625 59.90625 70.609375 
z
" id="DejaVuSans-Bold-83"/>
     <path d="M 9.1875 72.90625 
L 30.171875 72.90625 
L 56.6875 22.90625 
L 56.6875 72.90625 
L 74.515625 72.90625 
L 74.515625 0 
L 53.515625 0 
L 27 50 
L 27 0 
L 9.1875 0 
z
" id="DejaVuSans-Bold-78"/>
     <path d="M 53.421875 13.28125 
L 24.03125 13.28125 
L 19.390625 0 
L 0.484375 0 
L 27.484375 72.90625 
L 49.90625 72.90625 
L 76.90625 0 
L 58.015625 0 
z
M 28.71875 26.8125 
L 48.6875 26.8125 
L 38.71875 55.8125 
z
" id="DejaVuSans-Bold-65"/>
     <path d="M 9.1875 72.90625 
L 40.375 72.90625 
Q 54.296875 72.90625 61.734375 66.71875 
Q 69.1875 60.546875 69.1875 49.125 
Q 69.1875 37.640625 61.734375 31.46875 
Q 54.296875 25.296875 40.375 25.296875 
L 27.984375 25.296875 
L 27.984375 0 
L 9.1875 0 
z
M 27.984375 59.28125 
L 27.984375 38.921875 
L 38.375 38.921875 
Q 43.84375 38.921875 46.828125 41.578125 
Q 49.8125 44.234375 49.8125 49.125 
Q 49.8125 54 46.828125 56.640625 
Q 43.84375 59.28125 38.375 59.28125 
z
" id="DejaVuSans-Bold-80"/>
     <path id="DejaVuSans-Bold-32"/>
     <path d="M 5.421875 35.890625 
L 36.078125 35.890625 
L 36.078125 21.6875 
L 5.421875 21.6875 
z
" id="DejaVuSans-Bold-45"/>
     <path d="M 11.71875 12.984375 
L 28.328125 12.984375 
L 28.328125 60.109375 
L 11.28125 56.59375 
L 11.28125 69.390625 
L 28.21875 72.90625 
L 46.09375 72.90625 
L 46.09375 12.984375 
L 62.703125 12.984375 
L 62.703125 0 
L 11.71875 0 
z
" id="DejaVuSans-Bold-49"/>
     <path d="M 46.578125 39.3125 
Q 53.953125 37.40625 57.78125 32.6875 
Q 61.625 27.984375 61.625 20.703125 
Q 61.625 9.859375 53.3125 4.21875 
Q 45.015625 -1.421875 29.109375 -1.421875 
Q 23.484375 -1.421875 17.84375 -0.515625 
Q 12.203125 0.390625 6.6875 2.203125 
L 6.6875 16.703125 
Q 11.96875 14.0625 17.15625 12.71875 
Q 22.359375 11.375 27.390625 11.375 
Q 34.859375 11.375 38.84375 13.953125 
Q 42.828125 16.546875 42.828125 21.390625 
Q 42.828125 26.375 38.75 28.9375 
Q 34.671875 31.5 26.703125 31.5 
L 19.1875 31.5 
L 19.1875 43.609375 
L 27.09375 43.609375 
Q 34.1875 43.609375 37.640625 45.828125 
Q 41.109375 48.046875 41.109375 52.59375 
Q 41.109375 56.78125 37.734375 59.078125 
Q 34.375 61.375 28.21875 61.375 
Q 23.6875 61.375 19.046875 60.34375 
Q 14.40625 59.328125 9.8125 57.328125 
L 9.8125 71.09375 
Q 15.375 72.65625 20.84375 73.4375 
Q 26.3125 74.21875 31.59375 74.21875 
Q 45.796875 74.21875 52.84375 69.546875 
Q 59.90625 64.890625 59.90625 55.515625 
Q 59.90625 49.125 56.53125 45.046875 
Q 53.171875 40.96875 46.578125 39.3125 
z
" id="DejaVuSans-Bold-51"/>
     <path d="M 10.203125 18.890625 
L 27.78125 18.890625 
L 27.78125 0 
L 10.203125 0 
z
" id="DejaVuSans-Bold-46"/>
     <path d="M 34.8125 32.625 
Q 29.546875 32.625 26.703125 29.734375 
Q 23.875 26.859375 23.875 21.484375 
Q 23.875 16.109375 26.703125 13.25 
Q 29.546875 10.40625 34.8125 10.40625 
Q 40.046875 10.40625 42.828125 13.25 
Q 45.609375 16.109375 45.609375 21.484375 
Q 45.609375 26.90625 42.828125 29.765625 
Q 40.046875 32.625 34.8125 32.625 
z
M 21.09375 38.8125 
Q 14.453125 40.828125 11.078125 44.96875 
Q 7.71875 49.125 7.71875 55.328125 
Q 7.71875 64.546875 14.59375 69.375 
Q 21.484375 74.21875 34.8125 74.21875 
Q 48.046875 74.21875 54.921875 69.40625 
Q 61.8125 64.59375 61.8125 55.328125 
Q 61.8125 49.125 58.421875 44.96875 
Q 55.03125 40.828125 48.390625 38.8125 
Q 55.8125 36.765625 59.59375 32.15625 
Q 63.375 27.546875 63.375 20.515625 
Q 63.375 9.671875 56.171875 4.125 
Q 48.96875 -1.421875 34.8125 -1.421875 
Q 20.609375 -1.421875 13.359375 4.125 
Q 6.109375 9.671875 6.109375 20.515625 
Q 6.109375 27.546875 9.890625 32.15625 
Q 13.671875 36.765625 21.09375 38.8125 
z
M 25.484375 53.421875 
Q 25.484375 49.078125 27.90625 46.734375 
Q 30.328125 44.390625 34.8125 44.390625 
Q 39.203125 44.390625 41.59375 46.734375 
Q 44 49.078125 44 53.421875 
Q 44 57.765625 41.59375 60.078125 
Q 39.203125 62.40625 34.8125 62.40625 
Q 30.328125 62.40625 27.90625 60.0625 
Q 25.484375 57.71875 25.484375 53.421875 
z
" id="DejaVuSans-Bold-56"/>
     <path d="M 36.1875 35.984375 
Q 31.25 35.984375 28.78125 32.78125 
Q 26.3125 29.59375 26.3125 23.1875 
Q 26.3125 16.796875 28.78125 13.59375 
Q 31.25 10.40625 36.1875 10.40625 
Q 41.15625 10.40625 43.625 13.59375 
Q 46.09375 16.796875 46.09375 23.1875 
Q 46.09375 29.59375 43.625 32.78125 
Q 41.15625 35.984375 36.1875 35.984375 
z
M 59.421875 71 
L 59.421875 57.515625 
Q 54.78125 59.71875 50.671875 60.765625 
Q 46.578125 61.8125 42.671875 61.8125 
Q 34.28125 61.8125 29.59375 57.140625 
Q 24.90625 52.484375 24.125 43.3125 
Q 27.34375 45.703125 31.09375 46.890625 
Q 34.859375 48.09375 39.3125 48.09375 
Q 50.484375 48.09375 57.34375 41.546875 
Q 64.203125 35.015625 64.203125 24.421875 
Q 64.203125 12.703125 56.53125 5.640625 
Q 48.875 -1.421875 35.984375 -1.421875 
Q 21.78125 -1.421875 13.984375 8.171875 
Q 6.203125 17.78125 6.203125 35.40625 
Q 6.203125 53.46875 15.3125 63.796875 
Q 24.421875 74.125 40.28125 74.125 
Q 45.3125 74.125 50.046875 73.34375 
Q 54.78125 72.5625 59.421875 71 
z
" id="DejaVuSans-Bold-54"/>
     <path d="M 77.484375 30.078125 
Q 74.03125 30.078125 72.125 27.078125 
Q 70.21875 24.078125 70.21875 18.5 
Q 70.21875 12.890625 72.09375 9.890625 
Q 73.96875 6.890625 77.484375 6.890625 
Q 81 6.890625 82.859375 9.890625 
Q 84.71875 12.890625 84.71875 18.5 
Q 84.71875 24.078125 82.828125 27.078125 
Q 80.953125 30.078125 77.484375 30.078125 
z
M 77.484375 38.28125 
Q 86.578125 38.28125 91.796875 33 
Q 97.015625 27.734375 97.015625 18.5 
Q 97.015625 9.28125 91.796875 3.921875 
Q 86.578125 -1.421875 77.484375 -1.421875 
Q 68.40625 -1.421875 63.15625 3.921875 
Q 57.90625 9.28125 57.90625 18.5 
Q 57.90625 27.6875 63.15625 32.984375 
Q 68.40625 38.28125 77.484375 38.28125 
z
M 32.71875 -1.421875 
L 21.921875 -1.421875 
L 67.484375 74.21875 
L 78.328125 74.21875 
z
M 22.703125 74.21875 
Q 31.78125 74.21875 36.984375 68.921875 
Q 42.1875 63.625 42.1875 54.390625 
Q 42.1875 45.171875 36.984375 39.84375 
Q 31.78125 34.515625 22.703125 34.515625 
Q 13.625 34.515625 8.421875 39.84375 
Q 3.21875 45.171875 3.21875 54.390625 
Q 3.21875 63.625 8.421875 68.921875 
Q 13.625 74.21875 22.703125 74.21875 
z
M 22.703125 66.015625 
Q 19.1875 66.015625 17.28125 62.984375 
Q 15.375 59.96875 15.375 54.390625 
Q 15.375 48.78125 17.28125 45.71875 
Q 19.1875 42.671875 22.703125 42.671875 
Q 26.21875 42.671875 28.09375 45.71875 
Q 29.984375 48.78125 29.984375 54.390625 
Q 29.984375 59.96875 28.078125 62.984375 
Q 26.171875 66.015625 22.703125 66.015625 
z
" id="DejaVuSans-Bold-37"/>
    </defs>
    <g transform="translate(30.55 22.8)scale(0.16 -0.16)">
     <use xlink:href="#DejaVuSans-Bold-83"/>
     <use x="72.021484" xlink:href="#DejaVuSans-Bold-78"/>
     <use x="155.712891" xlink:href="#DejaVuSans-Bold-65"/>
     <use x="233.105469" xlink:href="#DejaVuSans-Bold-80"/>
     <use x="306.396484" xlink:href="#DejaVuSans-Bold-32"/>
     <use x="341.210938" xlink:href="#DejaVuSans-Bold-45"/>
     <use x="382.714844" xlink:href="#DejaVuSans-Bold-32"/>
     <use x="417.529297" xlink:href="#DejaVuSans-Bold-49"/>
     <use x="487.109375" xlink:href="#DejaVuSans-Bold-51"/>
     <use x="556.689453" xlink:href="#DejaVuSans-Bold-46"/>
     <use x="594.677734" xlink:href="#DejaVuSans-Bold-56"/>
     <use x="664.257812" xlink:href="#DejaVuSans-Bold-54"/>
     <use x="733.837891" xlink:href="#DejaVuSans-Bold-37"/>
    </g>
   </g>
  </g>
 </g>
 <defs>
  <clipPath id="p81fac02192">
   <rect height="375.4" width="822.65" x="30.55" y="28.8"/>
  </clipPath>
 </defs>
</svg>
