<?xml version="1.0" encoding="utf-8" standalone="no"?>
<!DOCTYPE svg PUBLIC "-//W3C//DTD SVG 1.1//EN"
  "http://www.w3.org/Graphics/SVG/1.1/DTD/svg11.dtd">
<!-- Created with matplotlib (https://matplotlib.org/) -->
<svg height="432pt" version="1.1" viewBox="0 0 576 432" width="576pt" xmlns="http://www.w3.org/2000/svg" xmlns:xlink="http://www.w3.org/1999/xlink">
 <defs>
  <style type="text/css">
*{stroke-linecap:butt;stroke-linejoin:round;}
  </style>
 </defs>
 <g id="figure_1">
  <g id="patch_1">
   <path d="M 0 432 
L 576 432 
L 576 0 
L 0 0 
z
" style="fill:#ffffff;"/>
  </g>
  <g id="axes_1">
   <g id="patch_2">
    <path d="M 36.925 404.2 
L 565.2 404.2 
L 565.2 31.8 
L 36.925 31.8 
z
" style="fill:#ffffff;"/>
   </g>
   <g id="PolyCollection_1">
    <defs>
     <path d="M 60.9375 -44.727273 
L 60.9375 -235.268677 
L 62.256868 -233.412997 
L 66.214973 -236.114641 
L 67.534341 -243.653329 
L 68.853709 -242.629977 
L 70.173077 -262.196491 
L 71.492445 -270.81993 
L 75.450549 -270.32872 
L 76.769918 -272.7302 
L 78.089286 -270.854054 
L 79.408654 -265.955591 
L 80.728022 -267.060829 
L 84.686126 -266.330833 
L 86.005495 -267.790805 
L 87.324863 -272.791599 
L 89.963599 -271.665915 
L 93.921703 -269.264435 
L 95.241071 -265.539438 
L 96.56044 -276.373332 
L 97.879808 -288.858223 
L 99.199176 -282.261023 
L 103.15728 -270.731236 
L 104.476648 -268.513972 
L 105.796016 -265.63494 
L 107.115385 -270.280958 
L 108.434753 -266.965306 
L 112.392857 -272.825702 
L 113.712225 -275.411378 
L 115.031593 -271.249741 
L 116.350962 -265.648598 
L 117.67033 -269.264435 
L 121.628434 -265.355242 
L 122.947802 -266.064751 
L 124.26717 -270.014897 
L 125.586538 -264.2159 
L 126.905907 -263.185719 
L 132.183379 -261.643882 
L 133.502747 -259.842772 
L 134.822115 -264.393288 
L 136.141484 -262.558074 
L 141.418956 -262.824135 
L 142.738324 -263.676929 
L 144.057692 -259.658576 
L 145.37706 -263.410868 
L 149.335165 -267.101762 
L 150.654533 -268.247911 
L 151.973901 -272.832531 
L 153.293269 -271.979737 
L 154.612637 -271.891043 
L 159.89011 -274.845112 
L 161.209478 -273.726257 
L 162.528846 -270.738065 
L 163.848214 -278.338172 
L 167.806319 -283.734632 
L 169.125687 -283.018294 
L 170.445055 -283.011465 
L 171.764423 -288.06002 
L 173.083791 -288.469344 
L 177.041896 -283.427639 
L 178.361264 -286.067885 
L 179.680632 -295.141601 
L 181 -296.192249 
L 182.319368 -291.314273 
L 186.277473 -290.311387 
L 187.596841 -294.936939 
L 188.916209 -290.741198 
L 190.235577 -292.862939 
L 191.554945 -289.724654 
L 195.513049 -291.532593 
L 196.832418 -301.20668 
L 198.151786 -303.621797 
L 199.471154 -290.133999 
L 200.790522 -286.545458 
L 206.067995 -285.11276 
L 207.387363 -286.961611 
L 208.706731 -294.070508 
L 210.026099 -291.887348 
L 213.984203 -292.624153 
L 215.303571 -292.897063 
L 216.62294 -291.027725 
L 217.942308 -292.637811 
L 219.261676 -295.448615 
L 223.21978 -296.315046 
L 224.539148 -291.205113 
L 225.858516 -296.485605 
L 227.177885 -291.641753 
L 228.497253 -287.0776 
L 232.455357 -288.483002 
L 233.774725 -297.045043 
L 235.094093 -294.9847 
L 236.413462 -299.883142 
L 237.73283 -298.880256 
L 241.690934 -300.967893 
L 243.010302 -300.128737 
L 244.32967 -298.075224 
L 245.649038 -303.567207 
L 246.968407 -301.629662 
L 250.926511 -299.828573 
L 252.245879 -297.065509 
L 253.565247 -300.592673 
L 254.884615 -301.20668 
L 256.203984 -308.24052 
L 260.162088 -310.075734 
L 261.481456 -307.339965 
L 262.800824 -302.857677 
L 264.120192 -301.193043 
L 269.397665 -303.969723 
L 270.717033 -303.567207 
L 272.036401 -301.602367 
L 273.355769 -305.040837 
L 274.675137 -305.122702 
L 278.633242 -304.106178 
L 279.95261 -304.269908 
L 281.271978 -303.137396 
L 282.591346 -302.311897 
L 283.910714 -302.107235 
L 287.868819 -301.022484 
L 289.188187 -293.422377 
L 290.507555 -293.811256 
L 291.826923 -296.055814 
L 293.146291 -298.054758 
L 297.104396 -298.25942 
L 298.423764 -296.355979 
L 299.743132 -295.789733 
L 301.0625 -294.848245 
L 302.381868 -298.218487 
L 306.339973 -298.341285 
L 307.659341 -295.073394 
L 308.978709 -297.236067 
L 310.298077 -295.762437 
L 311.617445 -296.362808 
L 315.575549 -299.391932 
L 316.894918 -300.6609 
L 318.214286 -301.984417 
L 319.533654 -324.245746 
L 320.853022 -323.420248 
L 324.811126 -318.767401 
L 326.130495 -312.907005 
L 327.449863 -314.476158 
L 328.769231 -340.953694 
L 330.088599 -348.137628 
L 335.366071 -361.850533 
L 336.68544 -355.116878 
L 338.004808 -354.837159 
L 339.324176 -351.296358 
L 343.28228 -351.842158 
L 344.601648 -347.530428 
L 345.921016 -341.717794 
L 347.240385 -343.334688 
L 348.559753 -344.078321 
L 352.517857 -349.031354 
L 353.837225 -351.719361 
L 355.156593 -349.038162 
L 356.475962 -349.256482 
L 357.79533 -345.72251 
L 363.072802 -341.840592 
L 364.39217 -335.591317 
L 365.711538 -335.448053 
L 367.030907 -330.965765 
L 370.989011 -329.362509 
L 372.308379 -335.891502 
L 373.627747 -336.143926 
L 374.947115 -336.655602 
L 376.266484 -341.779193 
L 380.224588 -340.824068 
L 382.863324 -339.957616 
L 384.182692 -338.84557 
L 385.50206 -338.968388 
L 389.460165 -348.813034 
L 390.779533 -344.023752 
L 392.098901 -345.83167 
L 393.418269 -350.941603 
L 394.737637 -354.536974 
L 398.695742 -359.36038 
L 400.01511 -360.554291 
L 401.334478 -356.733771 
L 402.653846 -352.899614 
L 403.973214 -354.461938 
L 407.931319 -352.244674 
L 409.250687 -356.133422 
L 410.570055 -351.275892 
L 411.889423 -350.873376 
L 413.208791 -352.347006 
L 417.166896 -352.961013 
L 418.486264 -354.12765 
L 419.805632 -345.715681 
L 421.125 -344.992514 
L 422.444368 -345.879432 
L 426.402473 -347.639589 
L 427.721841 -342.17488 
L 429.041209 -337.378769 
L 430.360577 -339.036616 
L 431.679945 -337.037652 
L 435.638049 -341.397143 
L 436.957418 -342.686556 
L 438.276786 -336.867093 
L 439.596154 -334.063117 
L 440.915522 -335.372997 
L 444.873626 -342.50236 
L 446.192995 -342.447791 
L 447.512363 -350.532258 
L 448.831731 -342.086186 
L 450.151099 -346.438848 
L 454.109203 -347.421268 
L 455.428571 -352.804112 
L 456.74794 -356.699668 
L 458.067308 -357.798077 
L 459.386676 -358.862362 
L 464.664148 -363.228661 
L 465.983516 -362.437266 
L 467.302885 -357.252276 
L 468.622253 -357.968636 
L 472.580357 -359.79702 
L 473.899725 -354.707533 
L 475.219093 -363.235469 
L 476.538462 -362.751088 
L 477.85783 -353.049707 
L 481.815934 -358.562177 
L 483.135302 -358.568985 
L 484.45467 -353.970728 
L 485.774038 -347.823785 
L 487.093407 -349.583962 
L 491.051511 -350.252539 
L 492.370879 -347.878375 
L 493.690247 -349.488439 
L 495.009615 -359.039729 
L 496.328984 -357.852647 
L 500.287088 -361.16149 
L 501.606456 -352.224208 
L 502.925824 -359.455903 
L 504.245192 -358.384789 
L 505.56456 -367.60179 
L 509.522665 -372.145477 
L 510.842033 -379.097432 
L 512.161401 -382.399467 
L 513.480769 -383.272727 
L 514.800137 -378.797268 
L 518.758242 -380.359571 
L 520.07761 -380.420969 
L 521.396978 -376.10926 
L 522.716346 -373.81694 
L 524.035714 -363.767633 
L 527.993819 -363.89043 
L 529.313187 -364.033693 
L 530.632555 -355.321561 
L 531.951923 -354.148116 
L 533.271291 -356.508643 
L 537.229396 -359.19665 
L 538.548764 -364.995647 
L 539.868132 -369.048124 
L 541.1875 -371.272217 
L 541.1875 -44.727273 
L 541.1875 -44.727273 
L 539.868132 -44.727273 
L 538.548764 -44.727273 
L 537.229396 -44.727273 
L 533.271291 -44.727273 
L 531.951923 -44.727273 
L 530.632555 -44.727273 
L 529.313187 -44.727273 
L 527.993819 -44.727273 
L 524.035714 -44.727273 
L 522.716346 -44.727273 
L 521.396978 -44.727273 
L 520.07761 -44.727273 
L 518.758242 -44.727273 
L 514.800137 -44.727273 
L 513.480769 -44.727273 
L 512.161401 -44.727273 
L 510.842033 -44.727273 
L 509.522665 -44.727273 
L 505.56456 -44.727273 
L 504.245192 -44.727273 
L 502.925824 -44.727273 
L 501.606456 -44.727273 
L 500.287088 -44.727273 
L 496.328984 -44.727273 
L 495.009615 -44.727273 
L 493.690247 -44.727273 
L 492.370879 -44.727273 
L 491.051511 -44.727273 
L 487.093407 -44.727273 
L 485.774038 -44.727273 
L 484.45467 -44.727273 
L 483.135302 -44.727273 
L 481.815934 -44.727273 
L 477.85783 -44.727273 
L 476.538462 -44.727273 
L 475.219093 -44.727273 
L 473.899725 -44.727273 
L 472.580357 -44.727273 
L 468.622253 -44.727273 
L 467.302885 -44.727273 
L 465.983516 -44.727273 
L 464.664148 -44.727273 
L 459.386676 -44.727273 
L 458.067308 -44.727273 
L 456.74794 -44.727273 
L 455.428571 -44.727273 
L 454.109203 -44.727273 
L 450.151099 -44.727273 
L 448.831731 -44.727273 
L 447.512363 -44.727273 
L 446.192995 -44.727273 
L 444.873626 -44.727273 
L 440.915522 -44.727273 
L 439.596154 -44.727273 
L 438.276786 -44.727273 
L 436.957418 -44.727273 
L 435.638049 -44.727273 
L 431.679945 -44.727273 
L 430.360577 -44.727273 
L 429.041209 -44.727273 
L 427.721841 -44.727273 
L 426.402473 -44.727273 
L 422.444368 -44.727273 
L 421.125 -44.727273 
L 419.805632 -44.727273 
L 418.486264 -44.727273 
L 417.166896 -44.727273 
L 413.208791 -44.727273 
L 411.889423 -44.727273 
L 410.570055 -44.727273 
L 409.250687 -44.727273 
L 407.931319 -44.727273 
L 403.973214 -44.727273 
L 402.653846 -44.727273 
L 401.334478 -44.727273 
L 400.01511 -44.727273 
L 398.695742 -44.727273 
L 394.737637 -44.727273 
L 393.418269 -44.727273 
L 392.098901 -44.727273 
L 390.779533 -44.727273 
L 389.460165 -44.727273 
L 385.50206 -44.727273 
L 384.182692 -44.727273 
L 382.863324 -44.727273 
L 380.224588 -44.727273 
L 376.266484 -44.727273 
L 374.947115 -44.727273 
L 373.627747 -44.727273 
L 372.308379 -44.727273 
L 370.989011 -44.727273 
L 367.030907 -44.727273 
L 365.711538 -44.727273 
L 364.39217 -44.727273 
L 363.072802 -44.727273 
L 357.79533 -44.727273 
L 356.475962 -44.727273 
L 355.156593 -44.727273 
L 353.837225 -44.727273 
L 352.517857 -44.727273 
L 348.559753 -44.727273 
L 347.240385 -44.727273 
L 345.921016 -44.727273 
L 344.601648 -44.727273 
L 343.28228 -44.727273 
L 339.324176 -44.727273 
L 338.004808 -44.727273 
L 336.68544 -44.727273 
L 335.366071 -44.727273 
L 330.088599 -44.727273 
L 328.769231 -44.727273 
L 327.449863 -44.727273 
L 326.130495 -44.727273 
L 324.811126 -44.727273 
L 320.853022 -44.727273 
L 319.533654 -44.727273 
L 318.214286 -44.727273 
L 316.894918 -44.727273 
L 315.575549 -44.727273 
L 311.617445 -44.727273 
L 310.298077 -44.727273 
L 308.978709 -44.727273 
L 307.659341 -44.727273 
L 306.339973 -44.727273 
L 302.381868 -44.727273 
L 301.0625 -44.727273 
L 299.743132 -44.727273 
L 298.423764 -44.727273 
L 297.104396 -44.727273 
L 293.146291 -44.727273 
L 291.826923 -44.727273 
L 290.507555 -44.727273 
L 289.188187 -44.727273 
L 287.868819 -44.727273 
L 283.910714 -44.727273 
L 282.591346 -44.727273 
L 281.271978 -44.727273 
L 279.95261 -44.727273 
L 278.633242 -44.727273 
L 274.675137 -44.727273 
L 273.355769 -44.727273 
L 272.036401 -44.727273 
L 270.717033 -44.727273 
L 269.397665 -44.727273 
L 264.120192 -44.727273 
L 262.800824 -44.727273 
L 261.481456 -44.727273 
L 260.162088 -44.727273 
L 256.203984 -44.727273 
L 254.884615 -44.727273 
L 253.565247 -44.727273 
L 252.245879 -44.727273 
L 250.926511 -44.727273 
L 246.968407 -44.727273 
L 245.649038 -44.727273 
L 244.32967 -44.727273 
L 243.010302 -44.727273 
L 241.690934 -44.727273 
L 237.73283 -44.727273 
L 236.413462 -44.727273 
L 235.094093 -44.727273 
L 233.774725 -44.727273 
L 232.455357 -44.727273 
L 228.497253 -44.727273 
L 227.177885 -44.727273 
L 225.858516 -44.727273 
L 224.539148 -44.727273 
L 223.21978 -44.727273 
L 219.261676 -44.727273 
L 217.942308 -44.727273 
L 216.62294 -44.727273 
L 215.303571 -44.727273 
L 213.984203 -44.727273 
L 210.026099 -44.727273 
L 208.706731 -44.727273 
L 207.387363 -44.727273 
L 206.067995 -44.727273 
L 200.790522 -44.727273 
L 199.471154 -44.727273 
L 198.151786 -44.727273 
L 196.832418 -44.727273 
L 195.513049 -44.727273 
L 191.554945 -44.727273 
L 190.235577 -44.727273 
L 188.916209 -44.727273 
L 187.596841 -44.727273 
L 186.277473 -44.727273 
L 182.319368 -44.727273 
L 181 -44.727273 
L 179.680632 -44.727273 
L 178.361264 -44.727273 
L 177.041896 -44.727273 
L 173.083791 -44.727273 
L 171.764423 -44.727273 
L 170.445055 -44.727273 
L 169.125687 -44.727273 
L 167.806319 -44.727273 
L 163.848214 -44.727273 
L 162.528846 -44.727273 
L 161.209478 -44.727273 
L 159.89011 -44.727273 
L 154.612637 -44.727273 
L 153.293269 -44.727273 
L 151.973901 -44.727273 
L 150.654533 -44.727273 
L 149.335165 -44.727273 
L 145.37706 -44.727273 
L 144.057692 -44.727273 
L 142.738324 -44.727273 
L 141.418956 -44.727273 
L 136.141484 -44.727273 
L 134.822115 -44.727273 
L 133.502747 -44.727273 
L 132.183379 -44.727273 
L 126.905907 -44.727273 
L 125.586538 -44.727273 
L 124.26717 -44.727273 
L 122.947802 -44.727273 
L 121.628434 -44.727273 
L 117.67033 -44.727273 
L 116.350962 -44.727273 
L 115.031593 -44.727273 
L 113.712225 -44.727273 
L 112.392857 -44.727273 
L 108.434753 -44.727273 
L 107.115385 -44.727273 
L 105.796016 -44.727273 
L 104.476648 -44.727273 
L 103.15728 -44.727273 
L 99.199176 -44.727273 
L 97.879808 -44.727273 
L 96.56044 -44.727273 
L 95.241071 -44.727273 
L 93.921703 -44.727273 
L 89.963599 -44.727273 
L 87.324863 -44.727273 
L 86.005495 -44.727273 
L 84.686126 -44.727273 
L 80.728022 -44.727273 
L 79.408654 -44.727273 
L 78.089286 -44.727273 
L 76.769918 -44.727273 
L 75.450549 -44.727273 
L 71.492445 -44.727273 
L 70.173077 -44.727273 
L 68.853709 -44.727273 
L 67.534341 -44.727273 
L 66.214973 -44.727273 
L 62.256868 -44.727273 
L 60.9375 -44.727273 
z
" id="m247cd4a124" style="stroke:#f5f6f8;"/>
    </defs>
    <g clip-path="url(#p6523c805ee)">
     <use style="fill:#f5f6f8;stroke:#f5f6f8;" x="0" xlink:href="#m247cd4a124" y="432"/>
    </g>
   </g>
   <g id="matplotlib.axis_1">
    <g id="xtick_1">
     <g id="line2d_1">
      <defs>
       <path d="M 0 0 
L 0 3.5 
" id="m5c2c50b01e" style="stroke:#000000;stroke-width:0.8;"/>
      </defs>
      <g>
       <use style="stroke:#000000;stroke-width:0.8;" x="58.298764" xlink:href="#m5c2c50b01e" y="404.2"/>
      </g>
     </g>
     <g id="text_1">
      <!-- 2022-11 -->
      <defs>
       <path d="M 19.1875 8.296875 
L 53.609375 8.296875 
L 53.609375 0 
L 7.328125 0 
L 7.328125 8.296875 
Q 12.9375 14.109375 22.625 23.890625 
Q 32.328125 33.6875 34.8125 36.53125 
Q 39.546875 41.84375 41.421875 45.53125 
Q 43.3125 49.21875 43.3125 52.78125 
Q 43.3125 58.59375 39.234375 62.25 
Q 35.15625 65.921875 28.609375 65.921875 
Q 23.96875 65.921875 18.8125 64.3125 
Q 13.671875 62.703125 7.8125 59.421875 
L 7.8125 69.390625 
Q 13.765625 71.78125 18.9375 73 
Q 24.125 74.21875 28.421875 74.21875 
Q 39.75 74.21875 46.484375 68.546875 
Q 53.21875 62.890625 53.21875 53.421875 
Q 53.21875 48.921875 51.53125 44.890625 
Q 49.859375 40.875 45.40625 35.40625 
Q 44.1875 33.984375 37.640625 27.21875 
Q 31.109375 20.453125 19.1875 8.296875 
z
" id="DejaVuSans-50"/>
       <path d="M 31.78125 66.40625 
Q 24.171875 66.40625 20.328125 58.90625 
Q 16.5 51.421875 16.5 36.375 
Q 16.5 21.390625 20.328125 13.890625 
Q 24.171875 6.390625 31.78125 6.390625 
Q 39.453125 6.390625 43.28125 13.890625 
Q 47.125 21.390625 47.125 36.375 
Q 47.125 51.421875 43.28125 58.90625 
Q 39.453125 66.40625 31.78125 66.40625 
z
M 31.78125 74.21875 
Q 44.046875 74.21875 50.515625 64.515625 
Q 56.984375 54.828125 56.984375 36.375 
Q 56.984375 17.96875 50.515625 8.265625 
Q 44.046875 -1.421875 31.78125 -1.421875 
Q 19.53125 -1.421875 13.0625 8.265625 
Q 6.59375 17.96875 6.59375 36.375 
Q 6.59375 54.828125 13.0625 64.515625 
Q 19.53125 74.21875 31.78125 74.21875 
z
" id="DejaVuSans-48"/>
       <path d="M 4.890625 31.390625 
L 31.203125 31.390625 
L 31.203125 23.390625 
L 4.890625 23.390625 
z
" id="DejaVuSans-45"/>
       <path d="M 12.40625 8.296875 
L 28.515625 8.296875 
L 28.515625 63.921875 
L 10.984375 60.40625 
L 10.984375 69.390625 
L 28.421875 72.90625 
L 38.28125 72.90625 
L 38.28125 8.296875 
L 54.390625 8.296875 
L 54.390625 0 
L 12.40625 0 
z
" id="DejaVuSans-49"/>
      </defs>
      <g transform="translate(37.407357 418.798437)scale(0.1 -0.1)">
       <use xlink:href="#DejaVuSans-50"/>
       <use x="63.623047" xlink:href="#DejaVuSans-48"/>
       <use x="127.246094" xlink:href="#DejaVuSans-50"/>
       <use x="190.869141" xlink:href="#DejaVuSans-50"/>
       <use x="254.492188" xlink:href="#DejaVuSans-45"/>
       <use x="290.576172" xlink:href="#DejaVuSans-49"/>
       <use x="354.199219" xlink:href="#DejaVuSans-49"/>
      </g>
     </g>
    </g>
    <g id="xtick_2">
     <g id="line2d_2">
      <g>
       <use style="stroke:#000000;stroke-width:0.8;" x="138.78022" xlink:href="#m5c2c50b01e" y="404.2"/>
      </g>
     </g>
     <g id="text_2">
      <!-- 2023-01 -->
      <defs>
       <path d="M 40.578125 39.3125 
Q 47.65625 37.796875 51.625 33 
Q 55.609375 28.21875 55.609375 21.1875 
Q 55.609375 10.40625 48.1875 4.484375 
Q 40.765625 -1.421875 27.09375 -1.421875 
Q 22.515625 -1.421875 17.65625 -0.515625 
Q 12.796875 0.390625 7.625 2.203125 
L 7.625 11.71875 
Q 11.71875 9.328125 16.59375 8.109375 
Q 21.484375 6.890625 26.8125 6.890625 
Q 36.078125 6.890625 40.9375 10.546875 
Q 45.796875 14.203125 45.796875 21.1875 
Q 45.796875 27.640625 41.28125 31.265625 
Q 36.765625 34.90625 28.71875 34.90625 
L 20.21875 34.90625 
L 20.21875 43.015625 
L 29.109375 43.015625 
Q 36.375 43.015625 40.234375 45.921875 
Q 44.09375 48.828125 44.09375 54.296875 
Q 44.09375 59.90625 40.109375 62.90625 
Q 36.140625 65.921875 28.71875 65.921875 
Q 24.65625 65.921875 20.015625 65.03125 
Q 15.375 64.15625 9.8125 62.3125 
L 9.8125 71.09375 
Q 15.4375 72.65625 20.34375 73.4375 
Q 25.25 74.21875 29.59375 74.21875 
Q 40.828125 74.21875 47.359375 69.109375 
Q 53.90625 64.015625 53.90625 55.328125 
Q 53.90625 49.265625 50.4375 45.09375 
Q 46.96875 40.921875 40.578125 39.3125 
z
" id="DejaVuSans-51"/>
      </defs>
      <g transform="translate(117.888814 418.798437)scale(0.1 -0.1)">
       <use xlink:href="#DejaVuSans-50"/>
       <use x="63.623047" xlink:href="#DejaVuSans-48"/>
       <use x="127.246094" xlink:href="#DejaVuSans-50"/>
       <use x="190.869141" xlink:href="#DejaVuSans-51"/>
       <use x="254.492188" xlink:href="#DejaVuSans-45"/>
       <use x="290.576172" xlink:href="#DejaVuSans-48"/>
       <use x="354.199219" xlink:href="#DejaVuSans-49"/>
      </g>
     </g>
    </g>
    <g id="xtick_3">
     <g id="line2d_3">
      <g>
       <use style="stroke:#000000;stroke-width:0.8;" x="216.62294" xlink:href="#m5c2c50b01e" y="404.2"/>
      </g>
     </g>
     <g id="text_3">
      <!-- 2023-03 -->
      <g transform="translate(195.731533 418.798437)scale(0.1 -0.1)">
       <use xlink:href="#DejaVuSans-50"/>
       <use x="63.623047" xlink:href="#DejaVuSans-48"/>
       <use x="127.246094" xlink:href="#DejaVuSans-50"/>
       <use x="190.869141" xlink:href="#DejaVuSans-51"/>
       <use x="254.492188" xlink:href="#DejaVuSans-45"/>
       <use x="290.576172" xlink:href="#DejaVuSans-48"/>
       <use x="354.199219" xlink:href="#DejaVuSans-51"/>
      </g>
     </g>
    </g>
    <g id="xtick_4">
     <g id="line2d_4">
      <g>
       <use style="stroke:#000000;stroke-width:0.8;" x="297.104396" xlink:href="#m5c2c50b01e" y="404.2"/>
      </g>
     </g>
     <g id="text_4">
      <!-- 2023-05 -->
      <defs>
       <path d="M 10.796875 72.90625 
L 49.515625 72.90625 
L 49.515625 64.59375 
L 19.828125 64.59375 
L 19.828125 46.734375 
Q 21.96875 47.46875 24.109375 47.828125 
Q 26.265625 48.1875 28.421875 48.1875 
Q 40.625 48.1875 47.75 41.5 
Q 54.890625 34.8125 54.890625 23.390625 
Q 54.890625 11.625 47.5625 5.09375 
Q 40.234375 -1.421875 26.90625 -1.421875 
Q 22.3125 -1.421875 17.546875 -0.640625 
Q 12.796875 0.140625 7.71875 1.703125 
L 7.71875 11.625 
Q 12.109375 9.234375 16.796875 8.0625 
Q 21.484375 6.890625 26.703125 6.890625 
Q 35.15625 6.890625 40.078125 11.328125 
Q 45.015625 15.765625 45.015625 23.390625 
Q 45.015625 31 40.078125 35.4375 
Q 35.15625 39.890625 26.703125 39.890625 
Q 22.75 39.890625 18.8125 39.015625 
Q 14.890625 38.140625 10.796875 36.28125 
z
" id="DejaVuSans-53"/>
      </defs>
      <g transform="translate(276.212989 418.798437)scale(0.1 -0.1)">
       <use xlink:href="#DejaVuSans-50"/>
       <use x="63.623047" xlink:href="#DejaVuSans-48"/>
       <use x="127.246094" xlink:href="#DejaVuSans-50"/>
       <use x="190.869141" xlink:href="#DejaVuSans-51"/>
       <use x="254.492188" xlink:href="#DejaVuSans-45"/>
       <use x="290.576172" xlink:href="#DejaVuSans-48"/>
       <use x="354.199219" xlink:href="#DejaVuSans-53"/>
      </g>
     </g>
    </g>
    <g id="xtick_5">
     <g id="line2d_5">
      <g>
       <use style="stroke:#000000;stroke-width:0.8;" x="377.585852" xlink:href="#m5c2c50b01e" y="404.2"/>
      </g>
     </g>
     <g id="text_5">
      <!-- 2023-07 -->
      <defs>
       <path d="M 8.203125 72.90625 
L 55.078125 72.90625 
L 55.078125 68.703125 
L 28.609375 0 
L 18.3125 0 
L 43.21875 64.59375 
L 8.203125 64.59375 
z
" id="DejaVuSans-55"/>
      </defs>
      <g transform="translate(356.694445 418.798437)scale(0.1 -0.1)">
       <use xlink:href="#DejaVuSans-50"/>
       <use x="63.623047" xlink:href="#DejaVuSans-48"/>
       <use x="127.246094" xlink:href="#DejaVuSans-50"/>
       <use x="190.869141" xlink:href="#DejaVuSans-51"/>
       <use x="254.492188" xlink:href="#DejaVuSans-45"/>
       <use x="290.576172" xlink:href="#DejaVuSans-48"/>
       <use x="354.199219" xlink:href="#DejaVuSans-55"/>
      </g>
     </g>
    </g>
    <g id="xtick_6">
     <g id="line2d_6">
      <g>
       <use style="stroke:#000000;stroke-width:0.8;" x="459.386676" xlink:href="#m5c2c50b01e" y="404.2"/>
      </g>
     </g>
     <g id="text_6">
      <!-- 2023-09 -->
      <defs>
       <path d="M 10.984375 1.515625 
L 10.984375 10.5 
Q 14.703125 8.734375 18.5 7.8125 
Q 22.3125 6.890625 25.984375 6.890625 
Q 35.75 6.890625 40.890625 13.453125 
Q 46.046875 20.015625 46.78125 33.40625 
Q 43.953125 29.203125 39.59375 26.953125 
Q 35.25 24.703125 29.984375 24.703125 
Q 19.046875 24.703125 12.671875 31.3125 
Q 6.296875 37.9375 6.296875 49.421875 
Q 6.296875 60.640625 12.9375 67.421875 
Q 19.578125 74.21875 30.609375 74.21875 
Q 43.265625 74.21875 49.921875 64.515625 
Q 56.59375 54.828125 56.59375 36.375 
Q 56.59375 19.140625 48.40625 8.859375 
Q 40.234375 -1.421875 26.421875 -1.421875 
Q 22.703125 -1.421875 18.890625 -0.6875 
Q 15.09375 0.046875 10.984375 1.515625 
z
M 30.609375 32.421875 
Q 37.25 32.421875 41.125 36.953125 
Q 45.015625 41.5 45.015625 49.421875 
Q 45.015625 57.28125 41.125 61.84375 
Q 37.25 66.40625 30.609375 66.40625 
Q 23.96875 66.40625 20.09375 61.84375 
Q 16.21875 57.28125 16.21875 49.421875 
Q 16.21875 41.5 20.09375 36.953125 
Q 23.96875 32.421875 30.609375 32.421875 
z
" id="DejaVuSans-57"/>
      </defs>
      <g transform="translate(438.49527 418.798437)scale(0.1 -0.1)">
       <use xlink:href="#DejaVuSans-50"/>
       <use x="63.623047" xlink:href="#DejaVuSans-48"/>
       <use x="127.246094" xlink:href="#DejaVuSans-50"/>
       <use x="190.869141" xlink:href="#DejaVuSans-51"/>
       <use x="254.492188" xlink:href="#DejaVuSans-45"/>
       <use x="290.576172" xlink:href="#DejaVuSans-48"/>
       <use x="354.199219" xlink:href="#DejaVuSans-57"/>
      </g>
     </g>
    </g>
    <g id="xtick_7">
     <g id="line2d_7">
      <g>
       <use style="stroke:#000000;stroke-width:0.8;" x="539.868132" xlink:href="#m5c2c50b01e" y="404.2"/>
      </g>
     </g>
     <g id="text_7">
      <!-- 2023-11 -->
      <g transform="translate(518.976726 418.798437)scale(0.1 -0.1)">
       <use xlink:href="#DejaVuSans-50"/>
       <use x="63.623047" xlink:href="#DejaVuSans-48"/>
       <use x="127.246094" xlink:href="#DejaVuSans-50"/>
       <use x="190.869141" xlink:href="#DejaVuSans-51"/>
       <use x="254.492188" xlink:href="#DejaVuSans-45"/>
       <use x="290.576172" xlink:href="#DejaVuSans-49"/>
       <use x="354.199219" xlink:href="#DejaVuSans-49"/>
      </g>
     </g>
    </g>
   </g>
   <g id="matplotlib.axis_2">
    <g id="ytick_1">
     <g id="line2d_8">
      <defs>
       <path d="M 0 0 
L -3.5 0 
" id="m1d62889db5" style="stroke:#000000;stroke-width:0.8;"/>
      </defs>
      <g>
       <use style="stroke:#000000;stroke-width:0.8;" x="36.925" xlink:href="#m1d62889db5" y="387.272727"/>
      </g>
     </g>
     <g id="text_8">
      <!-- 0 -->
      <g transform="translate(23.5625 391.071946)scale(0.1 -0.1)">
       <use xlink:href="#DejaVuSans-48"/>
      </g>
     </g>
    </g>
    <g id="ytick_2">
     <g id="line2d_9">
      <g>
       <use style="stroke:#000000;stroke-width:0.8;" x="36.925" xlink:href="#m1d62889db5" y="319.049233"/>
      </g>
     </g>
     <g id="text_9">
      <!-- 100 -->
      <g transform="translate(10.8375 322.848451)scale(0.1 -0.1)">
       <use xlink:href="#DejaVuSans-49"/>
       <use x="63.623047" xlink:href="#DejaVuSans-48"/>
       <use x="127.246094" xlink:href="#DejaVuSans-48"/>
      </g>
     </g>
    </g>
    <g id="ytick_3">
     <g id="line2d_10">
      <g>
       <use style="stroke:#000000;stroke-width:0.8;" x="36.925" xlink:href="#m1d62889db5" y="250.825738"/>
      </g>
     </g>
     <g id="text_10">
      <!-- 200 -->
      <g transform="translate(10.8375 254.624957)scale(0.1 -0.1)">
       <use xlink:href="#DejaVuSans-50"/>
       <use x="63.623047" xlink:href="#DejaVuSans-48"/>
       <use x="127.246094" xlink:href="#DejaVuSans-48"/>
      </g>
     </g>
    </g>
    <g id="ytick_4">
     <g id="line2d_11">
      <g>
       <use style="stroke:#000000;stroke-width:0.8;" x="36.925" xlink:href="#m1d62889db5" y="182.602244"/>
      </g>
     </g>
     <g id="text_11">
      <!-- 300 -->
      <g transform="translate(10.8375 186.401462)scale(0.1 -0.1)">
       <use xlink:href="#DejaVuSans-51"/>
       <use x="63.623047" xlink:href="#DejaVuSans-48"/>
       <use x="127.246094" xlink:href="#DejaVuSans-48"/>
      </g>
     </g>
    </g>
    <g id="ytick_5">
     <g id="line2d_12">
      <g>
       <use style="stroke:#000000;stroke-width:0.8;" x="36.925" xlink:href="#m1d62889db5" y="114.378749"/>
      </g>
     </g>
     <g id="text_12">
      <!-- 400 -->
      <defs>
       <path d="M 37.796875 64.3125 
L 12.890625 25.390625 
L 37.796875 25.390625 
z
M 35.203125 72.90625 
L 47.609375 72.90625 
L 47.609375 25.390625 
L 58.015625 25.390625 
L 58.015625 17.1875 
L 47.609375 17.1875 
L 47.609375 0 
L 37.796875 0 
L 37.796875 17.1875 
L 4.890625 17.1875 
L 4.890625 26.703125 
z
" id="DejaVuSans-52"/>
      </defs>
      <g transform="translate(10.8375 118.177968)scale(0.1 -0.1)">
       <use xlink:href="#DejaVuSans-52"/>
       <use x="63.623047" xlink:href="#DejaVuSans-48"/>
       <use x="127.246094" xlink:href="#DejaVuSans-48"/>
      </g>
     </g>
    </g>
    <g id="ytick_6">
     <g id="line2d_13">
      <g>
       <use style="stroke:#000000;stroke-width:0.8;" x="36.925" xlink:href="#m1d62889db5" y="46.155254"/>
      </g>
     </g>
     <g id="text_13">
      <!-- 500 -->
      <g transform="translate(10.8375 49.954473)scale(0.1 -0.1)">
       <use xlink:href="#DejaVuSans-53"/>
       <use x="63.623047" xlink:href="#DejaVuSans-48"/>
       <use x="127.246094" xlink:href="#DejaVuSans-48"/>
      </g>
     </g>
    </g>
   </g>
   <g id="patch_3">
    <path d="M 36.925 404.2 
L 36.925 31.8 
" style="fill:none;stroke:#000000;stroke-linecap:square;stroke-linejoin:miter;stroke-width:0.8;"/>
   </g>
   <g id="patch_4">
    <path d="M 565.2 404.2 
L 565.2 31.8 
" style="fill:none;stroke:#000000;stroke-linecap:square;stroke-linejoin:miter;stroke-width:0.8;"/>
   </g>
   <g id="patch_5">
    <path d="M 36.925 404.2 
L 565.2 404.2 
" style="fill:none;stroke:#000000;stroke-linecap:square;stroke-linejoin:miter;stroke-width:0.8;"/>
   </g>
   <g id="patch_6">
    <path d="M 36.925 31.8 
L 565.2 31.8 
" style="fill:none;stroke:#000000;stroke-linecap:square;stroke-linejoin:miter;stroke-width:0.8;"/>
   </g>
   <g id="text_14">
    <!-- SNPS - 71% -->
    <defs>
     <path d="M 59.90625 70.609375 
L 59.90625 55.171875 
Q 53.90625 57.859375 48.1875 59.21875 
Q 42.484375 60.59375 37.40625 60.59375 
Q 30.671875 60.59375 27.4375 58.734375 
Q 24.21875 56.890625 24.21875 52.984375 
Q 24.21875 50.046875 26.390625 48.40625 
Q 28.5625 46.78125 34.28125 45.609375 
L 42.28125 44 
Q 54.4375 41.546875 59.5625 36.5625 
Q 64.703125 31.59375 64.703125 22.40625 
Q 64.703125 10.359375 57.546875 4.46875 
Q 50.390625 -1.421875 35.6875 -1.421875 
Q 28.765625 -1.421875 21.78125 -0.09375 
Q 14.796875 1.21875 7.8125 3.8125 
L 7.8125 19.671875 
Q 14.796875 15.96875 21.3125 14.078125 
Q 27.828125 12.203125 33.890625 12.203125 
Q 40.046875 12.203125 43.3125 14.25 
Q 46.578125 16.3125 46.578125 20.125 
Q 46.578125 23.53125 44.359375 25.390625 
Q 42.140625 27.25 35.5 28.71875 
L 28.21875 30.328125 
Q 17.28125 32.671875 12.21875 37.796875 
Q 7.171875 42.921875 7.171875 51.609375 
Q 7.171875 62.5 14.203125 68.359375 
Q 21.234375 74.21875 34.421875 74.21875 
Q 40.4375 74.21875 46.78125 73.3125 
Q 53.125 72.40625 59.90625 70.609375 
z
" id="DejaVuSans-Bold-83"/>
     <path d="M 9.1875 72.90625 
L 30.171875 72.90625 
L 56.6875 22.90625 
L 56.6875 72.90625 
L 74.515625 72.90625 
L 74.515625 0 
L 53.515625 0 
L 27 50 
L 27 0 
L 9.1875 0 
z
" id="DejaVuSans-Bold-78"/>
     <path d="M 9.1875 72.90625 
L 40.375 72.90625 
Q 54.296875 72.90625 61.734375 66.71875 
Q 69.1875 60.546875 69.1875 49.125 
Q 69.1875 37.640625 61.734375 31.46875 
Q 54.296875 25.296875 40.375 25.296875 
L 27.984375 25.296875 
L 27.984375 0 
L 9.1875 0 
z
M 27.984375 59.28125 
L 27.984375 38.921875 
L 38.375 38.921875 
Q 43.84375 38.921875 46.828125 41.578125 
Q 49.8125 44.234375 49.8125 49.125 
Q 49.8125 54 46.828125 56.640625 
Q 43.84375 59.28125 38.375 59.28125 
z
" id="DejaVuSans-Bold-80"/>
     <path id="DejaVuSans-Bold-32"/>
     <path d="M 5.421875 35.890625 
L 36.078125 35.890625 
L 36.078125 21.6875 
L 5.421875 21.6875 
z
" id="DejaVuSans-Bold-45"/>
     <path d="M 6.6875 72.90625 
L 61.625 72.90625 
L 61.625 62.3125 
L 33.203125 0 
L 14.890625 0 
L 41.796875 59.078125 
L 6.6875 59.078125 
z
" id="DejaVuSans-Bold-55"/>
     <path d="M 11.71875 12.984375 
L 28.328125 12.984375 
L 28.328125 60.109375 
L 11.28125 56.59375 
L 11.28125 69.390625 
L 28.21875 72.90625 
L 46.09375 72.90625 
L 46.09375 12.984375 
L 62.703125 12.984375 
L 62.703125 0 
L 11.71875 0 
z
" id="DejaVuSans-Bold-49"/>
     <path d="M 77.484375 30.078125 
Q 74.03125 30.078125 72.125 27.078125 
Q 70.21875 24.078125 70.21875 18.5 
Q 70.21875 12.890625 72.09375 9.890625 
Q 73.96875 6.890625 77.484375 6.890625 
Q 81 6.890625 82.859375 9.890625 
Q 84.71875 12.890625 84.71875 18.5 
Q 84.71875 24.078125 82.828125 27.078125 
Q 80.953125 30.078125 77.484375 30.078125 
z
M 77.484375 38.28125 
Q 86.578125 38.28125 91.796875 33 
Q 97.015625 27.734375 97.015625 18.5 
Q 97.015625 9.28125 91.796875 3.921875 
Q 86.578125 -1.421875 77.484375 -1.421875 
Q 68.40625 -1.421875 63.15625 3.921875 
Q 57.90625 9.28125 57.90625 18.5 
Q 57.90625 27.6875 63.15625 32.984375 
Q 68.40625 38.28125 77.484375 38.28125 
z
M 32.71875 -1.421875 
L 21.921875 -1.421875 
L 67.484375 74.21875 
L 78.328125 74.21875 
z
M 22.703125 74.21875 
Q 31.78125 74.21875 36.984375 68.921875 
Q 42.1875 63.625 42.1875 54.390625 
Q 42.1875 45.171875 36.984375 39.84375 
Q 31.78125 34.515625 22.703125 34.515625 
Q 13.625 34.515625 8.421875 39.84375 
Q 3.21875 45.171875 3.21875 54.390625 
Q 3.21875 63.625 8.421875 68.921875 
Q 13.625 74.21875 22.703125 74.21875 
z
M 22.703125 66.015625 
Q 19.1875 66.015625 17.28125 62.984375 
Q 15.375 59.96875 15.375 54.390625 
Q 15.375 48.78125 17.28125 45.71875 
Q 19.1875 42.671875 22.703125 42.671875 
Q 26.21875 42.671875 28.09375 45.71875 
Q 29.984375 48.78125 29.984375 54.390625 
Q 29.984375 59.96875 28.078125 62.984375 
Q 26.171875 66.015625 22.703125 66.015625 
z
" id="DejaVuSans-Bold-37"/>
    </defs>
    <g transform="translate(36.925 25.8)scale(0.2 -0.2)">
     <use xlink:href="#DejaVuSans-Bold-83"/>
     <use x="72.021484" xlink:href="#DejaVuSans-Bold-78"/>
     <use x="155.712891" xlink:href="#DejaVuSans-Bold-80"/>
     <use x="229.003906" xlink:href="#DejaVuSans-Bold-83"/>
     <use x="301.025391" xlink:href="#DejaVuSans-Bold-32"/>
     <use x="335.839844" xlink:href="#DejaVuSans-Bold-45"/>
     <use x="377.34375" xlink:href="#DejaVuSans-Bold-32"/>
     <use x="412.158203" xlink:href="#DejaVuSans-Bold-55"/>
     <use x="481.738281" xlink:href="#DejaVuSans-Bold-49"/>
     <use x="551.318359" xlink:href="#DejaVuSans-Bold-37"/>
    </g>
   </g>
  </g>
 </g>
 <defs>
  <clipPath id="p6523c805ee">
   <rect height="372.4" width="528.275" x="36.925" y="31.8"/>
  </clipPath>
 </defs>
</svg>
