<?xml version="1.0" encoding="utf-8" standalone="no"?>
<!DOCTYPE svg PUBLIC "-//W3C//DTD SVG 1.1//EN"
  "http://www.w3.org/Graphics/SVG/1.1/DTD/svg11.dtd">
<!-- Created with matplotlib (https://matplotlib.org/) -->
<svg height="720pt" version="1.1" viewBox="0 0 720 720" width="720pt" xmlns="http://www.w3.org/2000/svg" xmlns:xlink="http://www.w3.org/1999/xlink">
 <defs>
  <style type="text/css">
*{stroke-linecap:butt;stroke-linejoin:round;}
  </style>
 </defs>
 <g id="figure_1">
  <g id="patch_1">
   <path d="M 0 720 
L 720 720 
L 720 0 
L 0 0 
z
" style="fill:none;"/>
  </g>
  <g id="axes_1">
   <g id="patch_2">
    <path d="M 90 630 
L 648 630 
L 648 86.4 
L 90 86.4 
z
" style="fill:none;"/>
   </g>
   <g id="matplotlib.axis_1">
    <g id="xtick_1">
     <g id="line2d_1">
      <defs>
       <path d="M 0 0 
L 0 3.5 
" id="me4b6fc80b0" style="stroke:#000000;stroke-width:0.8;"/>
      </defs>
      <g>
       <use style="stroke:#000000;stroke-width:0.8;" x="281.202797" xlink:href="#me4b6fc80b0" y="630"/>
      </g>
     </g>
     <g id="text_1">
      <!-- Mar-2023 -->
      <defs>
       <path d="M 9.8125 72.90625 
L 24.515625 72.90625 
L 43.109375 23.296875 
L 61.8125 72.90625 
L 76.515625 72.90625 
L 76.515625 0 
L 66.890625 0 
L 66.890625 64.015625 
L 48.09375 14.015625 
L 38.1875 14.015625 
L 19.390625 64.015625 
L 19.390625 0 
L 9.8125 0 
z
" id="DejaVuSans-77"/>
       <path d="M 34.28125 27.484375 
Q 23.390625 27.484375 19.1875 25 
Q 14.984375 22.515625 14.984375 16.5 
Q 14.984375 11.71875 18.140625 8.90625 
Q 21.296875 6.109375 26.703125 6.109375 
Q 34.1875 6.109375 38.703125 11.40625 
Q 43.21875 16.703125 43.21875 25.484375 
L 43.21875 27.484375 
z
M 52.203125 31.203125 
L 52.203125 0 
L 43.21875 0 
L 43.21875 8.296875 
Q 40.140625 3.328125 35.546875 0.953125 
Q 30.953125 -1.421875 24.3125 -1.421875 
Q 15.921875 -1.421875 10.953125 3.296875 
Q 6 8.015625 6 15.921875 
Q 6 25.140625 12.171875 29.828125 
Q 18.359375 34.515625 30.609375 34.515625 
L 43.21875 34.515625 
L 43.21875 35.40625 
Q 43.21875 41.609375 39.140625 45 
Q 35.0625 48.390625 27.6875 48.390625 
Q 23 48.390625 18.546875 47.265625 
Q 14.109375 46.140625 10.015625 43.890625 
L 10.015625 52.203125 
Q 14.9375 54.109375 19.578125 55.046875 
Q 24.21875 56 28.609375 56 
Q 40.484375 56 46.34375 49.84375 
Q 52.203125 43.703125 52.203125 31.203125 
z
" id="DejaVuSans-97"/>
       <path d="M 41.109375 46.296875 
Q 39.59375 47.171875 37.8125 47.578125 
Q 36.03125 48 33.890625 48 
Q 26.265625 48 22.1875 43.046875 
Q 18.109375 38.09375 18.109375 28.8125 
L 18.109375 0 
L 9.078125 0 
L 9.078125 54.6875 
L 18.109375 54.6875 
L 18.109375 46.1875 
Q 20.953125 51.171875 25.484375 53.578125 
Q 30.03125 56 36.53125 56 
Q 37.453125 56 38.578125 55.875 
Q 39.703125 55.765625 41.0625 55.515625 
z
" id="DejaVuSans-114"/>
       <path d="M 4.890625 31.390625 
L 31.203125 31.390625 
L 31.203125 23.390625 
L 4.890625 23.390625 
z
" id="DejaVuSans-45"/>
       <path d="M 19.1875 8.296875 
L 53.609375 8.296875 
L 53.609375 0 
L 7.328125 0 
L 7.328125 8.296875 
Q 12.9375 14.109375 22.625 23.890625 
Q 32.328125 33.6875 34.8125 36.53125 
Q 39.546875 41.84375 41.421875 45.53125 
Q 43.3125 49.21875 43.3125 52.78125 
Q 43.3125 58.59375 39.234375 62.25 
Q 35.15625 65.921875 28.609375 65.921875 
Q 23.96875 65.921875 18.8125 64.3125 
Q 13.671875 62.703125 7.8125 59.421875 
L 7.8125 69.390625 
Q 13.765625 71.78125 18.9375 73 
Q 24.125 74.21875 28.421875 74.21875 
Q 39.75 74.21875 46.484375 68.546875 
Q 53.21875 62.890625 53.21875 53.421875 
Q 53.21875 48.921875 51.53125 44.890625 
Q 49.859375 40.875 45.40625 35.40625 
Q 44.1875 33.984375 37.640625 27.21875 
Q 31.109375 20.453125 19.1875 8.296875 
z
" id="DejaVuSans-50"/>
       <path d="M 31.78125 66.40625 
Q 24.171875 66.40625 20.328125 58.90625 
Q 16.5 51.421875 16.5 36.375 
Q 16.5 21.390625 20.328125 13.890625 
Q 24.171875 6.390625 31.78125 6.390625 
Q 39.453125 6.390625 43.28125 13.890625 
Q 47.125 21.390625 47.125 36.375 
Q 47.125 51.421875 43.28125 58.90625 
Q 39.453125 66.40625 31.78125 66.40625 
z
M 31.78125 74.21875 
Q 44.046875 74.21875 50.515625 64.515625 
Q 56.984375 54.828125 56.984375 36.375 
Q 56.984375 17.96875 50.515625 8.265625 
Q 44.046875 -1.421875 31.78125 -1.421875 
Q 19.53125 -1.421875 13.0625 8.265625 
Q 6.59375 17.96875 6.59375 36.375 
Q 6.59375 54.828125 13.0625 64.515625 
Q 19.53125 74.21875 31.78125 74.21875 
z
" id="DejaVuSans-48"/>
       <path d="M 40.578125 39.3125 
Q 47.65625 37.796875 51.625 33 
Q 55.609375 28.21875 55.609375 21.1875 
Q 55.609375 10.40625 48.1875 4.484375 
Q 40.765625 -1.421875 27.09375 -1.421875 
Q 22.515625 -1.421875 17.65625 -0.515625 
Q 12.796875 0.390625 7.625 2.203125 
L 7.625 11.71875 
Q 11.71875 9.328125 16.59375 8.109375 
Q 21.484375 6.890625 26.8125 6.890625 
Q 36.078125 6.890625 40.9375 10.546875 
Q 45.796875 14.203125 45.796875 21.1875 
Q 45.796875 27.640625 41.28125 31.265625 
Q 36.765625 34.90625 28.71875 34.90625 
L 20.21875 34.90625 
L 20.21875 43.015625 
L 29.109375 43.015625 
Q 36.375 43.015625 40.234375 45.921875 
Q 44.09375 48.828125 44.09375 54.296875 
Q 44.09375 59.90625 40.109375 62.90625 
Q 36.140625 65.921875 28.71875 65.921875 
Q 24.65625 65.921875 20.015625 65.03125 
Q 15.375 64.15625 9.8125 62.3125 
L 9.8125 71.09375 
Q 15.4375 72.65625 20.34375 73.4375 
Q 25.25 74.21875 29.59375 74.21875 
Q 40.828125 74.21875 47.359375 69.109375 
Q 53.90625 64.015625 53.90625 55.328125 
Q 53.90625 49.265625 50.4375 45.09375 
Q 46.96875 40.921875 40.578125 39.3125 
z
" id="DejaVuSans-51"/>
      </defs>
      <g transform="translate(204.537797 661.315)scale(0.32 -0.32)">
       <use xlink:href="#DejaVuSans-77"/>
       <use x="86.279297" xlink:href="#DejaVuSans-97"/>
       <use x="147.558594" xlink:href="#DejaVuSans-114"/>
       <use x="188.578125" xlink:href="#DejaVuSans-45"/>
       <use x="224.662109" xlink:href="#DejaVuSans-50"/>
       <use x="288.285156" xlink:href="#DejaVuSans-48"/>
       <use x="351.908203" xlink:href="#DejaVuSans-50"/>
       <use x="415.53125" xlink:href="#DejaVuSans-51"/>
      </g>
     </g>
    </g>
    <g id="xtick_2">
     <g id="line2d_2">
      <g>
       <use style="stroke:#000000;stroke-width:0.8;" x="537.626374" xlink:href="#me4b6fc80b0" y="630"/>
      </g>
     </g>
     <g id="text_2">
      <!-- Sep-2023 -->
      <defs>
       <path d="M 53.515625 70.515625 
L 53.515625 60.890625 
Q 47.90625 63.578125 42.921875 64.890625 
Q 37.9375 66.21875 33.296875 66.21875 
Q 25.25 66.21875 20.875 63.09375 
Q 16.5 59.96875 16.5 54.203125 
Q 16.5 49.359375 19.40625 46.890625 
Q 22.3125 44.4375 30.421875 42.921875 
L 36.375 41.703125 
Q 47.40625 39.59375 52.65625 34.296875 
Q 57.90625 29 57.90625 20.125 
Q 57.90625 9.515625 50.796875 4.046875 
Q 43.703125 -1.421875 29.984375 -1.421875 
Q 24.8125 -1.421875 18.96875 -0.25 
Q 13.140625 0.921875 6.890625 3.21875 
L 6.890625 13.375 
Q 12.890625 10.015625 18.65625 8.296875 
Q 24.421875 6.59375 29.984375 6.59375 
Q 38.421875 6.59375 43.015625 9.90625 
Q 47.609375 13.234375 47.609375 19.390625 
Q 47.609375 24.75 44.3125 27.78125 
Q 41.015625 30.8125 33.5 32.328125 
L 27.484375 33.5 
Q 16.453125 35.6875 11.515625 40.375 
Q 6.59375 45.0625 6.59375 53.421875 
Q 6.59375 63.09375 13.40625 68.65625 
Q 20.21875 74.21875 32.171875 74.21875 
Q 37.3125 74.21875 42.625 73.28125 
Q 47.953125 72.359375 53.515625 70.515625 
z
" id="DejaVuSans-83"/>
       <path d="M 56.203125 29.59375 
L 56.203125 25.203125 
L 14.890625 25.203125 
Q 15.484375 15.921875 20.484375 11.0625 
Q 25.484375 6.203125 34.421875 6.203125 
Q 39.59375 6.203125 44.453125 7.46875 
Q 49.3125 8.734375 54.109375 11.28125 
L 54.109375 2.78125 
Q 49.265625 0.734375 44.1875 -0.34375 
Q 39.109375 -1.421875 33.890625 -1.421875 
Q 20.796875 -1.421875 13.15625 6.1875 
Q 5.515625 13.8125 5.515625 26.8125 
Q 5.515625 40.234375 12.765625 48.109375 
Q 20.015625 56 32.328125 56 
Q 43.359375 56 49.78125 48.890625 
Q 56.203125 41.796875 56.203125 29.59375 
z
M 47.21875 32.234375 
Q 47.125 39.59375 43.09375 43.984375 
Q 39.0625 48.390625 32.421875 48.390625 
Q 24.90625 48.390625 20.390625 44.140625 
Q 15.875 39.890625 15.1875 32.171875 
z
" id="DejaVuSans-101"/>
       <path d="M 18.109375 8.203125 
L 18.109375 -20.796875 
L 9.078125 -20.796875 
L 9.078125 54.6875 
L 18.109375 54.6875 
L 18.109375 46.390625 
Q 20.953125 51.265625 25.265625 53.625 
Q 29.59375 56 35.59375 56 
Q 45.5625 56 51.78125 48.09375 
Q 58.015625 40.1875 58.015625 27.296875 
Q 58.015625 14.40625 51.78125 6.484375 
Q 45.5625 -1.421875 35.59375 -1.421875 
Q 29.59375 -1.421875 25.265625 0.953125 
Q 20.953125 3.328125 18.109375 8.203125 
z
M 48.6875 27.296875 
Q 48.6875 37.203125 44.609375 42.84375 
Q 40.53125 48.484375 33.40625 48.484375 
Q 26.265625 48.484375 22.1875 42.84375 
Q 18.109375 37.203125 18.109375 27.296875 
Q 18.109375 17.390625 22.1875 11.75 
Q 26.265625 6.109375 33.40625 6.109375 
Q 40.53125 6.109375 44.609375 11.75 
Q 48.6875 17.390625 48.6875 27.296875 
z
" id="DejaVuSans-112"/>
      </defs>
      <g transform="translate(460.973874 661.315)scale(0.32 -0.32)">
       <use xlink:href="#DejaVuSans-83"/>
       <use x="63.476562" xlink:href="#DejaVuSans-101"/>
       <use x="125" xlink:href="#DejaVuSans-112"/>
       <use x="188.476562" xlink:href="#DejaVuSans-45"/>
       <use x="224.560547" xlink:href="#DejaVuSans-50"/>
       <use x="288.183594" xlink:href="#DejaVuSans-48"/>
       <use x="351.806641" xlink:href="#DejaVuSans-50"/>
       <use x="415.429688" xlink:href="#DejaVuSans-51"/>
      </g>
     </g>
    </g>
   </g>
   <g id="matplotlib.axis_2">
    <g id="ytick_1">
     <g id="line2d_3">
      <defs>
       <path d="M 0 0 
L -3.5 0 
" id="m3f4cd2fef6" style="stroke:#000000;stroke-width:0.8;"/>
      </defs>
      <g>
       <use style="stroke:#000000;stroke-width:0.8;" x="90" xlink:href="#m3f4cd2fef6" y="552.579099"/>
      </g>
     </g>
     <g id="text_3">
      <!-- 300 -->
      <g transform="translate(21.92 564.736599)scale(0.32 -0.32)">
       <use xlink:href="#DejaVuSans-51"/>
       <use x="63.623047" xlink:href="#DejaVuSans-48"/>
       <use x="127.246094" xlink:href="#DejaVuSans-48"/>
      </g>
     </g>
    </g>
    <g id="ytick_2">
     <g id="line2d_4">
      <g>
       <use style="stroke:#000000;stroke-width:0.8;" x="90" xlink:href="#m3f4cd2fef6" y="440.091206"/>
      </g>
     </g>
     <g id="text_4">
      <!-- 350 -->
      <defs>
       <path d="M 10.796875 72.90625 
L 49.515625 72.90625 
L 49.515625 64.59375 
L 19.828125 64.59375 
L 19.828125 46.734375 
Q 21.96875 47.46875 24.109375 47.828125 
Q 26.265625 48.1875 28.421875 48.1875 
Q 40.625 48.1875 47.75 41.5 
Q 54.890625 34.8125 54.890625 23.390625 
Q 54.890625 11.625 47.5625 5.09375 
Q 40.234375 -1.421875 26.90625 -1.421875 
Q 22.3125 -1.421875 17.546875 -0.640625 
Q 12.796875 0.140625 7.71875 1.703125 
L 7.71875 11.625 
Q 12.109375 9.234375 16.796875 8.0625 
Q 21.484375 6.890625 26.703125 6.890625 
Q 35.15625 6.890625 40.078125 11.328125 
Q 45.015625 15.765625 45.015625 23.390625 
Q 45.015625 31 40.078125 35.4375 
Q 35.15625 39.890625 26.703125 39.890625 
Q 22.75 39.890625 18.8125 39.015625 
Q 14.890625 38.140625 10.796875 36.28125 
z
" id="DejaVuSans-53"/>
      </defs>
      <g transform="translate(21.92 452.248706)scale(0.32 -0.32)">
       <use xlink:href="#DejaVuSans-51"/>
       <use x="63.623047" xlink:href="#DejaVuSans-53"/>
       <use x="127.246094" xlink:href="#DejaVuSans-48"/>
      </g>
     </g>
    </g>
    <g id="ytick_3">
     <g id="line2d_5">
      <g>
       <use style="stroke:#000000;stroke-width:0.8;" x="90" xlink:href="#m3f4cd2fef6" y="327.603314"/>
      </g>
     </g>
     <g id="text_5">
      <!-- 400 -->
      <defs>
       <path d="M 37.796875 64.3125 
L 12.890625 25.390625 
L 37.796875 25.390625 
z
M 35.203125 72.90625 
L 47.609375 72.90625 
L 47.609375 25.390625 
L 58.015625 25.390625 
L 58.015625 17.1875 
L 47.609375 17.1875 
L 47.609375 0 
L 37.796875 0 
L 37.796875 17.1875 
L 4.890625 17.1875 
L 4.890625 26.703125 
z
" id="DejaVuSans-52"/>
      </defs>
      <g transform="translate(21.92 339.760814)scale(0.32 -0.32)">
       <use xlink:href="#DejaVuSans-52"/>
       <use x="63.623047" xlink:href="#DejaVuSans-48"/>
       <use x="127.246094" xlink:href="#DejaVuSans-48"/>
      </g>
     </g>
    </g>
    <g id="ytick_4">
     <g id="line2d_6">
      <g>
       <use style="stroke:#000000;stroke-width:0.8;" x="90" xlink:href="#m3f4cd2fef6" y="215.115421"/>
      </g>
     </g>
     <g id="text_6">
      <!-- 450 -->
      <g transform="translate(21.92 227.272921)scale(0.32 -0.32)">
       <use xlink:href="#DejaVuSans-52"/>
       <use x="63.623047" xlink:href="#DejaVuSans-53"/>
       <use x="127.246094" xlink:href="#DejaVuSans-48"/>
      </g>
     </g>
    </g>
    <g id="ytick_5">
     <g id="line2d_7">
      <g>
       <use style="stroke:#000000;stroke-width:0.8;" x="90" xlink:href="#m3f4cd2fef6" y="102.627529"/>
      </g>
     </g>
     <g id="text_7">
      <!-- 500 -->
      <g transform="translate(21.92 114.785029)scale(0.32 -0.32)">
       <use xlink:href="#DejaVuSans-53"/>
       <use x="63.623047" xlink:href="#DejaVuSans-48"/>
       <use x="127.246094" xlink:href="#DejaVuSans-48"/>
      </g>
     </g>
    </g>
   </g>
   <g id="line2d_8">
    <path clip-path="url(#pb51a6410f6)" d="M 115.363636 595.077058 
L 116.757243 599.171565 
L 118.150849 605.290909 
L 122.331668 596.381887 
L 123.725275 571.52209 
L 125.118881 574.896727 
L 126.512488 510.37362 
L 127.906094 481.936716 
L 132.086913 483.556545 
L 133.480519 475.637353 
L 134.874126 481.824187 
L 136.267732 497.977501 
L 137.661339 494.332835 
L 141.842158 496.740093 
L 143.235764 491.925647 
L 144.629371 475.434883 
M 147.416583 479.14697 
L 151.597403 487.066161 
L 152.991009 499.34982 
L 154.384615 463.623654 
L 155.778222 422.453113 
L 157.171828 444.208233 
L 161.352647 482.229196 
L 162.746254 489.540909 
L 164.13986 499.03489 
L 165.533467 483.714044 
L 166.927073 494.647834 
L 171.107892 475.322423 
L 172.501499 466.795821 
L 173.895105 480.519358 
L 175.288711 498.989851 
L 176.682318 487.066161 
L 180.863137 499.95723 
L 182.256743 497.617531 
L 183.65035 484.591414 
L 185.043956 503.714356 
L 186.437562 507.111512 
M 192.011988 512.195918 
L 193.405594 518.135312 
L 194.799201 503.129397 
L 196.192807 509.181251 
M 201.767233 508.303881 
L 203.160839 505.491684 
L 204.554446 518.742722 
L 205.948052 506.369054 
L 211.522478 490.418279 
L 212.916084 475.299903 
L 214.30969 478.1121 
L 215.703297 478.40458 
M 221.277722 468.663159 
L 222.671329 472.352726 
L 224.064935 482.206676 
L 225.458541 457.144341 
L 229.639361 439.348817 
L 231.032967 441.711035 
L 232.426573 441.733554 
L 233.82018 425.085291 
L 235.213786 423.735492 
L 239.394605 440.361166 
L 240.788212 431.654614 
L 242.181818 401.732863 
L 243.575425 398.268216 
L 244.969031 414.353971 
L 249.14985 417.661118 
L 250.543457 402.407762 
L 251.937063 416.243759 
L 253.330669 409.247046 
L 254.724276 419.595945 
L 258.905095 413.634032 
L 260.298701 381.732482 
L 261.692308 373.76832 
L 263.085914 418.246077 
L 264.47952 430.079757 
M 270.053946 434.804262 
L 271.447552 428.707437 
L 272.841159 405.26493 
L 274.234765 412.464183 
L 279.809191 409.134516 
L 281.202797 415.2989 
L 282.596404 409.989435 
L 283.99001 400.720444 
L 288.170829 397.863276 
L 289.564436 414.713941 
L 290.958042 397.300837 
L 293.745255 428.324948 
L 297.926074 423.690452 
L 299.31968 395.456019 
L 300.713287 402.250263 
L 302.106893 386.097018 
L 303.5005 389.404165 
L 307.681319 382.519911 
L 309.074925 385.287138 
L 310.468531 392.058863 
L 311.862138 373.948339 
L 313.255744 380.337643 
L 317.436563 386.276968 
L 318.83017 395.388529 
L 320.223776 383.757251 
L 321.617383 381.732482 
L 323.010989 358.537484 
L 327.191808 352.48563 
L 328.585415 361.507181 
L 329.979021 376.288107 
L 331.372627 381.777453 
M 336.947053 372.62099 
L 338.340659 373.948339 
L 339.734266 380.427653 
L 341.127872 369.088854 
L 342.521479 368.818894 
L 346.702298 372.171011 
L 348.095904 371.631091 
L 349.48951 375.365698 
L 350.883117 378.087886 
L 352.276723 378.762785 
L 356.457542 382.339892 
L 357.851149 407.402228 
L 359.244755 406.119849 
L 360.638362 398.718127 
L 362.031968 392.126353 
L 366.212787 391.451453 
L 367.606394 397.728296 
L 369 399.595565 
L 370.393606 402.700242 
L 371.787213 391.586433 
L 375.968032 391.181493 
L 377.361638 401.957783 
L 378.755245 394.826089 
L 380.148851 399.685575 
L 381.542458 397.705777 
L 385.723277 387.716846 
L 388.51049 379.167794 
L 389.904096 305.758184 
L 391.297702 308.480372 
L 395.478521 323.823737 
L 396.872128 343.149149 
L 398.265734 337.974665 
L 399.659341 250.661568 
L 401.052947 226.97162 
M 406.627373 181.751542 
L 408.020979 203.956641 
L 409.414585 204.87905 
L 410.808192 216.555299 
L 414.989011 214.755452 
L 416.382617 228.973938 
L 417.776224 248.14185 
L 419.16983 242.809935 
L 420.563437 240.357707 
L 424.744256 224.024443 
L 426.137862 215.160392 
L 427.531469 224.001992 
L 428.925075 223.282053 
L 430.318681 234.935782 
M 435.893107 247.73691 
L 437.286713 268.3447 
L 438.68032 268.81713 
L 440.073926 283.598056 
L 444.254745 288.885 
L 445.648352 267.354801 
L 447.041958 266.522402 
L 448.435564 264.835083 
L 449.829171 247.93938 
L 454.00999 251.089027 
M 456.797203 253.946264 
L 458.190809 257.61338 
L 459.584416 257.208371 
L 463.765235 224.744382 
L 465.158841 240.537657 
L 466.552448 234.575813 
L 467.946054 217.725149 
L 469.33966 205.868949 
L 473.52048 189.963145 
L 474.914086 186.026069 
L 477.701299 211.268354 
L 479.094905 206.11639 
L 483.275724 213.428103 
L 484.669331 200.604456 
L 486.062937 216.622789 
L 487.456543 217.950138 
L 488.85015 213.090653 
L 493.030969 211.065884 
L 494.424575 207.218749 
L 495.818182 234.958302 
L 497.211788 237.34304 
L 498.605395 234.418313 
L 502.786214 228.613968 
L 504.17982 246.634551 
L 505.573427 262.450346 
L 506.967033 256.983382 
L 508.360639 263.575225 
L 512.541459 249.199239 
L 513.935065 244.947232 
L 515.328671 264.137664 
L 516.722278 273.384136 
L 518.115884 269.064639 
L 522.296703 245.554642 
L 523.69031 245.734593 
L 525.083916 219.075017 
L 526.477522 246.92703 
L 527.871129 232.573564 
L 532.051948 229.333907 
L 533.445554 211.583285 
L 534.839161 198.737187 
L 537.626374 191.605424 
M 543.200799 177.206988 
L 544.594406 179.816715 
L 545.988012 196.914888 
L 547.381618 194.552601 
L 551.562438 188.523267 
L 552.956044 205.30651 
L 554.34965 177.184537 
L 555.743257 178.781846 
L 557.136863 210.773405 
L 561.317682 192.595323 
L 562.711289 192.572872 
L 564.104895 207.736218 
L 565.498501 228.006558 
L 566.892108 222.202145 
L 571.072927 219.997426 
L 572.466533 227.826539 
L 573.86014 222.517144 
L 575.253746 191.020534 
L 576.647353 194.93509 
L 580.828172 184.023751 
L 582.221778 213.495593 
L 583.615385 189.648146 
L 585.008991 193.180282 
L 586.402597 162.786032 
L 590.583417 147.802636 
L 591.977023 124.877667 
L 593.370629 113.988778 
L 594.764236 111.109091 
L 596.157842 125.867497 
L 600.338661 120.715601 
L 601.732268 120.513131 
L 603.125874 134.731548 
L 604.519481 142.29077 
L 605.913087 175.42966 
L 610.093906 175.02472 
L 611.487512 174.55229 
L 612.881119 203.281673 
L 614.274725 207.151259 
L 615.668332 199.367116 
L 619.849151 190.503065 
L 621.242757 171.380123 
L 622.636364 158.016556 
L 622.636364 158.016556 
" style="fill:none;stroke:#000000;stroke-linecap:square;stroke-width:2.5;"/>
   </g>
   <g id="patch_3">
    <path d="M 90 630 
L 90 86.4 
" style="fill:none;stroke:#000000;stroke-linecap:square;stroke-linejoin:miter;stroke-width:0.8;"/>
   </g>
   <g id="patch_4">
    <path d="M 90 630 
L 648 630 
" style="fill:none;stroke:#000000;stroke-linecap:square;stroke-linejoin:miter;stroke-width:0.8;"/>
   </g>
   <g id="text_8">
    <!-- nan% -->
    <defs>
     <path d="M 54.890625 33.015625 
L 54.890625 0 
L 45.90625 0 
L 45.90625 32.71875 
Q 45.90625 40.484375 42.875 44.328125 
Q 39.84375 48.1875 33.796875 48.1875 
Q 26.515625 48.1875 22.3125 43.546875 
Q 18.109375 38.921875 18.109375 30.90625 
L 18.109375 0 
L 9.078125 0 
L 9.078125 54.6875 
L 18.109375 54.6875 
L 18.109375 46.1875 
Q 21.34375 51.125 25.703125 53.5625 
Q 30.078125 56 35.796875 56 
Q 45.21875 56 50.046875 50.171875 
Q 54.890625 44.34375 54.890625 33.015625 
z
" id="DejaVuSans-110"/>
     <path d="M 72.703125 32.078125 
Q 68.453125 32.078125 66.03125 28.46875 
Q 63.625 24.859375 63.625 18.40625 
Q 63.625 12.0625 66.03125 8.421875 
Q 68.453125 4.78125 72.703125 4.78125 
Q 76.859375 4.78125 79.265625 8.421875 
Q 81.6875 12.0625 81.6875 18.40625 
Q 81.6875 24.8125 79.265625 28.4375 
Q 76.859375 32.078125 72.703125 32.078125 
z
M 72.703125 38.28125 
Q 80.421875 38.28125 84.953125 32.90625 
Q 89.5 27.546875 89.5 18.40625 
Q 89.5 9.28125 84.9375 3.921875 
Q 80.375 -1.421875 72.703125 -1.421875 
Q 64.890625 -1.421875 60.34375 3.921875 
Q 55.8125 9.28125 55.8125 18.40625 
Q 55.8125 27.59375 60.375 32.9375 
Q 64.9375 38.28125 72.703125 38.28125 
z
M 22.3125 68.015625 
Q 18.109375 68.015625 15.6875 64.375 
Q 13.28125 60.75 13.28125 54.390625 
Q 13.28125 47.953125 15.671875 44.328125 
Q 18.0625 40.71875 22.3125 40.71875 
Q 26.5625 40.71875 28.96875 44.328125 
Q 31.390625 47.953125 31.390625 54.390625 
Q 31.390625 60.6875 28.953125 64.34375 
Q 26.515625 68.015625 22.3125 68.015625 
z
M 66.40625 74.21875 
L 74.21875 74.21875 
L 28.609375 -1.421875 
L 20.796875 -1.421875 
z
M 22.3125 74.21875 
Q 30.03125 74.21875 34.609375 68.875 
Q 39.203125 63.53125 39.203125 54.390625 
Q 39.203125 45.171875 34.640625 39.84375 
Q 30.078125 34.515625 22.3125 34.515625 
Q 14.546875 34.515625 10.03125 39.859375 
Q 5.515625 45.21875 5.515625 54.390625 
Q 5.515625 63.484375 10.046875 68.84375 
Q 14.59375 74.21875 22.3125 74.21875 
z
" id="DejaVuSans-37"/>
    </defs>
    <g transform="translate(520.739489 234.789113)scale(0.36 -0.36)">
     <use xlink:href="#DejaVuSans-110"/>
     <use x="63.378906" xlink:href="#DejaVuSans-97"/>
     <use x="124.658203" xlink:href="#DejaVuSans-110"/>
     <use x="188.037109" xlink:href="#DejaVuSans-37"/>
    </g>
   </g>
  </g>
 </g>
 <defs>
  <clipPath id="pb51a6410f6">
   <rect height="543.6" width="558" x="90" y="86.4"/>
  </clipPath>
 </defs>
</svg>
