<?xml version="1.0" encoding="utf-8" standalone="no"?>
<!DOCTYPE svg PUBLIC "-//W3C//DTD SVG 1.1//EN"
  "http://www.w3.org/Graphics/SVG/1.1/DTD/svg11.dtd">
<!-- Created with matplotlib (https://matplotlib.org/) -->
<svg height="432pt" version="1.1" viewBox="0 0 864 432" width="864pt" xmlns="http://www.w3.org/2000/svg" xmlns:xlink="http://www.w3.org/1999/xlink">
 <defs>
  <style type="text/css">
*{stroke-linecap:butt;stroke-linejoin:round;}
  </style>
 </defs>
 <g id="figure_1">
  <g id="patch_1">
   <path d="M 0 432 
L 864 432 
L 864 0 
L 0 0 
z
" style="fill:#ffffff;"/>
  </g>
  <g id="axes_1">
   <g id="patch_2">
    <path d="M 36.925 404.2 
L 853.2 404.2 
L 853.2 28.8 
L 36.925 28.8 
z
" style="fill:#ffffff;"/>
   </g>
   <g id="PolyCollection_1">
    <defs>
     <path d="M 74.028409 -44.863636 
L 74.028409 -236.940014 
L 76.067058 -235.069385 
L 82.183004 -237.792793 
L 84.221653 -245.392212 
L 86.260302 -244.360615 
L 88.298951 -264.084755 
L 90.3376 -272.777663 
L 96.453546 -272.282495 
L 98.492195 -274.703322 
L 100.530844 -272.812062 
L 102.569493 -267.874138 
L 104.608142 -268.988279 
L 110.724088 -268.252402 
L 112.762737 -269.724136 
L 114.801386 -274.765215 
L 118.878684 -273.630463 
L 124.99463 -271.209637 
L 127.033279 -267.454632 
L 129.071928 -278.375802 
L 131.110577 -290.96127 
L 133.149226 -284.310924 
L 139.265172 -272.688254 
L 141.303821 -270.453129 
L 143.34247 -267.550903 
L 145.381119 -272.234349 
L 147.419768 -268.891987 
L 153.535714 -274.799593 
L 155.574363 -277.406099 
L 157.613012 -273.210936 
L 159.651661 -267.564671 
L 161.69031 -271.209637 
L 167.806256 -267.268952 
L 169.844905 -267.984177 
L 171.883554 -271.966145 
L 173.922203 -266.120432 
L 175.960852 -265.081952 
L 184.115447 -263.527694 
L 186.154096 -261.712074 
L 188.192745 -266.299249 
L 190.231394 -264.449251 
L 198.385989 -264.717455 
L 200.424638 -265.577119 
L 202.463287 -261.526395 
L 204.501936 -265.308915 
L 210.617882 -269.029542 
L 212.656531 -270.184925 
L 214.69518 -274.806477 
L 216.733829 -273.946814 
L 218.772478 -273.857405 
L 226.927073 -276.835271 
L 228.965722 -275.707403 
L 231.004371 -272.695138 
L 233.043019 -280.356471 
L 239.158966 -285.796404 
L 241.197615 -285.074295 
L 243.236264 -285.067411 
L 245.274913 -290.156637 
L 247.313561 -290.569258 
L 253.429508 -285.486938 
L 255.468157 -288.148453 
L 257.506806 -297.295266 
L 259.545455 -298.354378 
L 261.584103 -293.437106 
L 267.70005 -292.42614 
L 269.738699 -297.088955 
L 271.777348 -292.859414 
L 273.815997 -294.998247 
L 275.854645 -291.834681 
L 281.970592 -293.657185 
L 284.009241 -303.409204 
L 286.04789 -305.843777 
L 288.086538 -292.247324 
L 290.125187 -288.629873 
L 298.279783 -287.185634 
L 300.318432 -289.049379 
L 302.35708 -296.215544 
L 304.395729 -294.014797 
L 310.511676 -294.757537 
L 312.550325 -295.032646 
L 314.588974 -293.148249 
L 316.627622 -294.771305 
L 318.666271 -297.604753 
L 324.782218 -298.478164 
L 326.820867 -293.327066 
L 328.859515 -298.650097 
L 330.898164 -293.767224 
L 332.936813 -289.166302 
L 339.05276 -290.583026 
L 341.091409 -299.214041 
L 343.130057 -297.137101 
L 345.168706 -302.075004 
L 347.207355 -301.064039 
L 353.323302 -303.168494 
L 355.361951 -302.322577 
L 357.400599 -300.252522 
L 359.439248 -305.788747 
L 361.477897 -303.835594 
L 367.593844 -302.019995 
L 369.632493 -299.234672 
L 371.671141 -302.79025 
L 373.70979 -303.409204 
L 375.748439 -310.499708 
L 381.864386 -312.349706 
L 383.903034 -309.591898 
L 385.941683 -305.073501 
L 387.980332 -303.395457 
L 396.134928 -306.194506 
L 398.173576 -305.788747 
L 400.212225 -303.808079 
L 402.250874 -307.274249 
L 404.289523 -307.356773 
L 410.40547 -306.332061 
L 412.444118 -306.497109 
L 414.482767 -305.355473 
L 416.521416 -304.523325 
L 418.560065 -304.317014 
L 424.676011 -303.223524 
L 426.71466 -295.562192 
L 428.753309 -295.954203 
L 430.791958 -298.216844 
L 432.830607 -300.231891 
L 438.946553 -300.438201 
L 440.985202 -298.519426 
L 443.023851 -297.948619 
L 445.0625 -296.999547 
L 447.101149 -300.396939 
L 453.217095 -300.520726 
L 455.255744 -297.22651 
L 457.294393 -299.406605 
L 459.333042 -297.921104 
L 461.371691 -298.52631 
L 467.487637 -301.579837 
L 469.526286 -302.859028 
L 471.564935 -304.193206 
L 473.603584 -326.63387 
L 475.642233 -325.801722 
L 481.758179 -321.111392 
L 483.796828 -315.203785 
L 485.835477 -316.785579 
L 487.874126 -343.476415 
L 489.912775 -350.718221 
L 498.06737 -364.541596 
L 500.106019 -357.753695 
L 502.144668 -357.471722 
L 504.183317 -353.902397 
L 510.299263 -354.452595 
L 512.337912 -350.10613 
L 514.376561 -344.24667 
L 516.41521 -345.876589 
L 518.453859 -346.626213 
L 524.569805 -351.619147 
L 526.608454 -354.328808 
L 528.647103 -351.62601 
L 530.685752 -351.846089 
L 532.724401 -348.283647 
L 540.878996 -344.370457 
L 542.917645 -338.070839 
L 544.956294 -337.926421 
L 546.994943 -333.408024 
L 553.110889 -331.791852 
L 555.149538 -338.373442 
L 557.188187 -338.627899 
L 559.226836 -339.143697 
L 561.265485 -344.308563 
L 567.381431 -343.345744 
L 571.458729 -342.472313 
L 573.497378 -341.351308 
L 575.536026 -341.475115 
L 581.651973 -351.399068 
L 583.690622 -346.571204 
L 585.729271 -348.393687 
L 587.76792 -353.544785 
L 589.806568 -357.169119 
L 595.922515 -362.031382 
L 597.961164 -363.234911 
L 599.999813 -359.383614 
L 602.038462 -355.518569 
L 604.07711 -357.093479 
L 610.193057 -354.858353 
L 612.231706 -358.778428 
L 614.270355 -353.881766 
L 616.309003 -353.476007 
L 618.347652 -354.961509 
L 624.463599 -355.580462 
L 626.502248 -356.756497 
L 628.540897 -348.276763 
L 630.579545 -347.54777 
L 632.618194 -348.441833 
L 638.734141 -350.21617 
L 640.77279 -344.707438 
L 642.811439 -339.87269 
L 644.850087 -341.543893 
L 646.888736 -339.528825 
L 653.004683 -343.923436 
L 655.043332 -345.223236 
L 657.081981 -339.356892 
L 659.120629 -336.530328 
L 661.159278 -337.85076 
L 667.275225 -345.037557 
L 669.313874 -344.982547 
L 671.352522 -353.132142 
L 673.391171 -344.61803 
L 675.42982 -349.005756 
L 681.545767 -349.996091 
L 683.584416 -355.422298 
L 685.623064 -359.349235 
L 687.661713 -360.456493 
L 689.700362 -361.529352 
L 697.854958 -365.930826 
L 699.893606 -365.133055 
L 701.932255 -359.906296 
L 703.970904 -360.628426 
L 710.086851 -362.47154 
L 712.1255 -357.341052 
L 714.164148 -365.937689 
L 716.202797 -365.449405 
L 718.241446 -355.669871 
L 724.357393 -361.226748 
L 726.396041 -361.233612 
L 728.43469 -356.598312 
L 730.473339 -350.401849 
L 732.511988 -352.176207 
L 738.627935 -352.85017 
L 740.666583 -350.45688 
L 742.705232 -352.079915 
L 744.743881 -361.708148 
L 746.78253 -360.511502 
L 752.898477 -363.847002 
L 754.937125 -354.837722 
L 756.975774 -362.127674 
L 759.014423 -361.047932 
L 761.053072 -370.339183 
L 767.169018 -374.919474 
L 769.207667 -381.927433 
L 771.246316 -385.256069 
L 773.284965 -386.136364 
L 775.323614 -381.62485 
L 781.43956 -383.199739 
L 783.478209 -383.261632 
L 785.516858 -378.915189 
L 787.555507 -376.604402 
L 789.594156 -366.474139 
L 795.710102 -366.597925 
L 797.748751 -366.742343 
L 799.7874 -357.960027 
L 801.826049 -356.777129 
L 803.864698 -359.156672 
L 809.980644 -361.866333 
L 812.019293 -367.712046 
L 814.057942 -371.79717 
L 816.096591 -374.039179 
L 816.096591 -44.863636 
L 816.096591 -44.863636 
L 814.057942 -44.863636 
L 812.019293 -44.863636 
L 809.980644 -44.863636 
L 803.864698 -44.863636 
L 801.826049 -44.863636 
L 799.7874 -44.863636 
L 797.748751 -44.863636 
L 795.710102 -44.863636 
L 789.594156 -44.863636 
L 787.555507 -44.863636 
L 785.516858 -44.863636 
L 783.478209 -44.863636 
L 781.43956 -44.863636 
L 775.323614 -44.863636 
L 773.284965 -44.863636 
L 771.246316 -44.863636 
L 769.207667 -44.863636 
L 767.169018 -44.863636 
L 761.053072 -44.863636 
L 759.014423 -44.863636 
L 756.975774 -44.863636 
L 754.937125 -44.863636 
L 752.898477 -44.863636 
L 746.78253 -44.863636 
L 744.743881 -44.863636 
L 742.705232 -44.863636 
L 740.666583 -44.863636 
L 738.627935 -44.863636 
L 732.511988 -44.863636 
L 730.473339 -44.863636 
L 728.43469 -44.863636 
L 726.396041 -44.863636 
L 724.357393 -44.863636 
L 718.241446 -44.863636 
L 716.202797 -44.863636 
L 714.164148 -44.863636 
L 712.1255 -44.863636 
L 710.086851 -44.863636 
L 703.970904 -44.863636 
L 701.932255 -44.863636 
L 699.893606 -44.863636 
L 697.854958 -44.863636 
L 689.700362 -44.863636 
L 687.661713 -44.863636 
L 685.623064 -44.863636 
L 683.584416 -44.863636 
L 681.545767 -44.863636 
L 675.42982 -44.863636 
L 673.391171 -44.863636 
L 671.352522 -44.863636 
L 669.313874 -44.863636 
L 667.275225 -44.863636 
L 661.159278 -44.863636 
L 659.120629 -44.863636 
L 657.081981 -44.863636 
L 655.043332 -44.863636 
L 653.004683 -44.863636 
L 646.888736 -44.863636 
L 644.850087 -44.863636 
L 642.811439 -44.863636 
L 640.77279 -44.863636 
L 638.734141 -44.863636 
L 632.618194 -44.863636 
L 630.579545 -44.863636 
L 628.540897 -44.863636 
L 626.502248 -44.863636 
L 624.463599 -44.863636 
L 618.347652 -44.863636 
L 616.309003 -44.863636 
L 614.270355 -44.863636 
L 612.231706 -44.863636 
L 610.193057 -44.863636 
L 604.07711 -44.863636 
L 602.038462 -44.863636 
L 599.999813 -44.863636 
L 597.961164 -44.863636 
L 595.922515 -44.863636 
L 589.806568 -44.863636 
L 587.76792 -44.863636 
L 585.729271 -44.863636 
L 583.690622 -44.863636 
L 581.651973 -44.863636 
L 575.536026 -44.863636 
L 573.497378 -44.863636 
L 571.458729 -44.863636 
L 567.381431 -44.863636 
L 561.265485 -44.863636 
L 559.226836 -44.863636 
L 557.188187 -44.863636 
L 555.149538 -44.863636 
L 553.110889 -44.863636 
L 546.994943 -44.863636 
L 544.956294 -44.863636 
L 542.917645 -44.863636 
L 540.878996 -44.863636 
L 532.724401 -44.863636 
L 530.685752 -44.863636 
L 528.647103 -44.863636 
L 526.608454 -44.863636 
L 524.569805 -44.863636 
L 518.453859 -44.863636 
L 516.41521 -44.863636 
L 514.376561 -44.863636 
L 512.337912 -44.863636 
L 510.299263 -44.863636 
L 504.183317 -44.863636 
L 502.144668 -44.863636 
L 500.106019 -44.863636 
L 498.06737 -44.863636 
L 489.912775 -44.863636 
L 487.874126 -44.863636 
L 485.835477 -44.863636 
L 483.796828 -44.863636 
L 481.758179 -44.863636 
L 475.642233 -44.863636 
L 473.603584 -44.863636 
L 471.564935 -44.863636 
L 469.526286 -44.863636 
L 467.487637 -44.863636 
L 461.371691 -44.863636 
L 459.333042 -44.863636 
L 457.294393 -44.863636 
L 455.255744 -44.863636 
L 453.217095 -44.863636 
L 447.101149 -44.863636 
L 445.0625 -44.863636 
L 443.023851 -44.863636 
L 440.985202 -44.863636 
L 438.946553 -44.863636 
L 432.830607 -44.863636 
L 430.791958 -44.863636 
L 428.753309 -44.863636 
L 426.71466 -44.863636 
L 424.676011 -44.863636 
L 418.560065 -44.863636 
L 416.521416 -44.863636 
L 414.482767 -44.863636 
L 412.444118 -44.863636 
L 410.40547 -44.863636 
L 404.289523 -44.863636 
L 402.250874 -44.863636 
L 400.212225 -44.863636 
L 398.173576 -44.863636 
L 396.134928 -44.863636 
L 387.980332 -44.863636 
L 385.941683 -44.863636 
L 383.903034 -44.863636 
L 381.864386 -44.863636 
L 375.748439 -44.863636 
L 373.70979 -44.863636 
L 371.671141 -44.863636 
L 369.632493 -44.863636 
L 367.593844 -44.863636 
L 361.477897 -44.863636 
L 359.439248 -44.863636 
L 357.400599 -44.863636 
L 355.361951 -44.863636 
L 353.323302 -44.863636 
L 347.207355 -44.863636 
L 345.168706 -44.863636 
L 343.130057 -44.863636 
L 341.091409 -44.863636 
L 339.05276 -44.863636 
L 332.936813 -44.863636 
L 330.898164 -44.863636 
L 328.859515 -44.863636 
L 326.820867 -44.863636 
L 324.782218 -44.863636 
L 318.666271 -44.863636 
L 316.627622 -44.863636 
L 314.588974 -44.863636 
L 312.550325 -44.863636 
L 310.511676 -44.863636 
L 304.395729 -44.863636 
L 302.35708 -44.863636 
L 300.318432 -44.863636 
L 298.279783 -44.863636 
L 290.125187 -44.863636 
L 288.086538 -44.863636 
L 286.04789 -44.863636 
L 284.009241 -44.863636 
L 281.970592 -44.863636 
L 275.854645 -44.863636 
L 273.815997 -44.863636 
L 271.777348 -44.863636 
L 269.738699 -44.863636 
L 267.70005 -44.863636 
L 261.584103 -44.863636 
L 259.545455 -44.863636 
L 257.506806 -44.863636 
L 255.468157 -44.863636 
L 253.429508 -44.863636 
L 247.313561 -44.863636 
L 245.274913 -44.863636 
L 243.236264 -44.863636 
L 241.197615 -44.863636 
L 239.158966 -44.863636 
L 233.043019 -44.863636 
L 231.004371 -44.863636 
L 228.965722 -44.863636 
L 226.927073 -44.863636 
L 218.772478 -44.863636 
L 216.733829 -44.863636 
L 214.69518 -44.863636 
L 212.656531 -44.863636 
L 210.617882 -44.863636 
L 204.501936 -44.863636 
L 202.463287 -44.863636 
L 200.424638 -44.863636 
L 198.385989 -44.863636 
L 190.231394 -44.863636 
L 188.192745 -44.863636 
L 186.154096 -44.863636 
L 184.115447 -44.863636 
L 175.960852 -44.863636 
L 173.922203 -44.863636 
L 171.883554 -44.863636 
L 169.844905 -44.863636 
L 167.806256 -44.863636 
L 161.69031 -44.863636 
L 159.651661 -44.863636 
L 157.613012 -44.863636 
L 155.574363 -44.863636 
L 153.535714 -44.863636 
L 147.419768 -44.863636 
L 145.381119 -44.863636 
L 143.34247 -44.863636 
L 141.303821 -44.863636 
L 139.265172 -44.863636 
L 133.149226 -44.863636 
L 131.110577 -44.863636 
L 129.071928 -44.863636 
L 127.033279 -44.863636 
L 124.99463 -44.863636 
L 118.878684 -44.863636 
L 114.801386 -44.863636 
L 112.762737 -44.863636 
L 110.724088 -44.863636 
L 104.608142 -44.863636 
L 102.569493 -44.863636 
L 100.530844 -44.863636 
L 98.492195 -44.863636 
L 96.453546 -44.863636 
L 90.3376 -44.863636 
L 88.298951 -44.863636 
L 86.260302 -44.863636 
L 84.221653 -44.863636 
L 82.183004 -44.863636 
L 76.067058 -44.863636 
L 74.028409 -44.863636 
z
" id="m7d81c12b4f" style="stroke:#f5f6f8;"/>
    </defs>
    <g clip-path="url(#pb9daa2bcfa)">
     <use style="fill:#f5f6f8;stroke:#f5f6f8;" x="0" xlink:href="#m7d81c12b4f" y="432"/>
    </g>
   </g>
   <g id="matplotlib.axis_1">
    <g id="xtick_1">
     <g id="line2d_1">
      <defs>
       <path d="M 0 0 
L 0 3.5 
" id="m533721c4b6" style="stroke:#000000;stroke-width:0.8;"/>
      </defs>
      <g>
       <use style="stroke:#000000;stroke-width:0.8;" x="69.951111" xlink:href="#m533721c4b6" y="404.2"/>
      </g>
     </g>
     <g id="text_1">
      <!-- 2022-11 -->
      <defs>
       <path d="M 19.1875 8.296875 
L 53.609375 8.296875 
L 53.609375 0 
L 7.328125 0 
L 7.328125 8.296875 
Q 12.9375 14.109375 22.625 23.890625 
Q 32.328125 33.6875 34.8125 36.53125 
Q 39.546875 41.84375 41.421875 45.53125 
Q 43.3125 49.21875 43.3125 52.78125 
Q 43.3125 58.59375 39.234375 62.25 
Q 35.15625 65.921875 28.609375 65.921875 
Q 23.96875 65.921875 18.8125 64.3125 
Q 13.671875 62.703125 7.8125 59.421875 
L 7.8125 69.390625 
Q 13.765625 71.78125 18.9375 73 
Q 24.125 74.21875 28.421875 74.21875 
Q 39.75 74.21875 46.484375 68.546875 
Q 53.21875 62.890625 53.21875 53.421875 
Q 53.21875 48.921875 51.53125 44.890625 
Q 49.859375 40.875 45.40625 35.40625 
Q 44.1875 33.984375 37.640625 27.21875 
Q 31.109375 20.453125 19.1875 8.296875 
z
" id="DejaVuSans-50"/>
       <path d="M 31.78125 66.40625 
Q 24.171875 66.40625 20.328125 58.90625 
Q 16.5 51.421875 16.5 36.375 
Q 16.5 21.390625 20.328125 13.890625 
Q 24.171875 6.390625 31.78125 6.390625 
Q 39.453125 6.390625 43.28125 13.890625 
Q 47.125 21.390625 47.125 36.375 
Q 47.125 51.421875 43.28125 58.90625 
Q 39.453125 66.40625 31.78125 66.40625 
z
M 31.78125 74.21875 
Q 44.046875 74.21875 50.515625 64.515625 
Q 56.984375 54.828125 56.984375 36.375 
Q 56.984375 17.96875 50.515625 8.265625 
Q 44.046875 -1.421875 31.78125 -1.421875 
Q 19.53125 -1.421875 13.0625 8.265625 
Q 6.59375 17.96875 6.59375 36.375 
Q 6.59375 54.828125 13.0625 64.515625 
Q 19.53125 74.21875 31.78125 74.21875 
z
" id="DejaVuSans-48"/>
       <path d="M 4.890625 31.390625 
L 31.203125 31.390625 
L 31.203125 23.390625 
L 4.890625 23.390625 
z
" id="DejaVuSans-45"/>
       <path d="M 12.40625 8.296875 
L 28.515625 8.296875 
L 28.515625 63.921875 
L 10.984375 60.40625 
L 10.984375 69.390625 
L 28.421875 72.90625 
L 38.28125 72.90625 
L 38.28125 8.296875 
L 54.390625 8.296875 
L 54.390625 0 
L 12.40625 0 
z
" id="DejaVuSans-49"/>
      </defs>
      <g transform="translate(49.059705 418.798437)scale(0.1 -0.1)">
       <use xlink:href="#DejaVuSans-50"/>
       <use x="63.623047" xlink:href="#DejaVuSans-48"/>
       <use x="127.246094" xlink:href="#DejaVuSans-50"/>
       <use x="190.869141" xlink:href="#DejaVuSans-50"/>
       <use x="254.492188" xlink:href="#DejaVuSans-45"/>
       <use x="290.576172" xlink:href="#DejaVuSans-49"/>
       <use x="354.199219" xlink:href="#DejaVuSans-49"/>
      </g>
     </g>
    </g>
    <g id="xtick_2">
     <g id="line2d_2">
      <g>
       <use style="stroke:#000000;stroke-width:0.8;" x="194.308691" xlink:href="#m533721c4b6" y="404.2"/>
      </g>
     </g>
     <g id="text_2">
      <!-- 2023-01 -->
      <defs>
       <path d="M 40.578125 39.3125 
Q 47.65625 37.796875 51.625 33 
Q 55.609375 28.21875 55.609375 21.1875 
Q 55.609375 10.40625 48.1875 4.484375 
Q 40.765625 -1.421875 27.09375 -1.421875 
Q 22.515625 -1.421875 17.65625 -0.515625 
Q 12.796875 0.390625 7.625 2.203125 
L 7.625 11.71875 
Q 11.71875 9.328125 16.59375 8.109375 
Q 21.484375 6.890625 26.8125 6.890625 
Q 36.078125 6.890625 40.9375 10.546875 
Q 45.796875 14.203125 45.796875 21.1875 
Q 45.796875 27.640625 41.28125 31.265625 
Q 36.765625 34.90625 28.71875 34.90625 
L 20.21875 34.90625 
L 20.21875 43.015625 
L 29.109375 43.015625 
Q 36.375 43.015625 40.234375 45.921875 
Q 44.09375 48.828125 44.09375 54.296875 
Q 44.09375 59.90625 40.109375 62.90625 
Q 36.140625 65.921875 28.71875 65.921875 
Q 24.65625 65.921875 20.015625 65.03125 
Q 15.375 64.15625 9.8125 62.3125 
L 9.8125 71.09375 
Q 15.4375 72.65625 20.34375 73.4375 
Q 25.25 74.21875 29.59375 74.21875 
Q 40.828125 74.21875 47.359375 69.109375 
Q 53.90625 64.015625 53.90625 55.328125 
Q 53.90625 49.265625 50.4375 45.09375 
Q 46.96875 40.921875 40.578125 39.3125 
z
" id="DejaVuSans-51"/>
      </defs>
      <g transform="translate(173.417285 418.798437)scale(0.1 -0.1)">
       <use xlink:href="#DejaVuSans-50"/>
       <use x="63.623047" xlink:href="#DejaVuSans-48"/>
       <use x="127.246094" xlink:href="#DejaVuSans-50"/>
       <use x="190.869141" xlink:href="#DejaVuSans-51"/>
       <use x="254.492188" xlink:href="#DejaVuSans-45"/>
       <use x="290.576172" xlink:href="#DejaVuSans-48"/>
       <use x="354.199219" xlink:href="#DejaVuSans-49"/>
      </g>
     </g>
    </g>
    <g id="xtick_3">
     <g id="line2d_3">
      <g>
       <use style="stroke:#000000;stroke-width:0.8;" x="314.588974" xlink:href="#m533721c4b6" y="404.2"/>
      </g>
     </g>
     <g id="text_3">
      <!-- 2023-03 -->
      <g transform="translate(293.697567 418.798437)scale(0.1 -0.1)">
       <use xlink:href="#DejaVuSans-50"/>
       <use x="63.623047" xlink:href="#DejaVuSans-48"/>
       <use x="127.246094" xlink:href="#DejaVuSans-50"/>
       <use x="190.869141" xlink:href="#DejaVuSans-51"/>
       <use x="254.492188" xlink:href="#DejaVuSans-45"/>
       <use x="290.576172" xlink:href="#DejaVuSans-48"/>
       <use x="354.199219" xlink:href="#DejaVuSans-51"/>
      </g>
     </g>
    </g>
    <g id="xtick_4">
     <g id="line2d_4">
      <g>
       <use style="stroke:#000000;stroke-width:0.8;" x="438.946553" xlink:href="#m533721c4b6" y="404.2"/>
      </g>
     </g>
     <g id="text_4">
      <!-- 2023-05 -->
      <defs>
       <path d="M 10.796875 72.90625 
L 49.515625 72.90625 
L 49.515625 64.59375 
L 19.828125 64.59375 
L 19.828125 46.734375 
Q 21.96875 47.46875 24.109375 47.828125 
Q 26.265625 48.1875 28.421875 48.1875 
Q 40.625 48.1875 47.75 41.5 
Q 54.890625 34.8125 54.890625 23.390625 
Q 54.890625 11.625 47.5625 5.09375 
Q 40.234375 -1.421875 26.90625 -1.421875 
Q 22.3125 -1.421875 17.546875 -0.640625 
Q 12.796875 0.140625 7.71875 1.703125 
L 7.71875 11.625 
Q 12.109375 9.234375 16.796875 8.0625 
Q 21.484375 6.890625 26.703125 6.890625 
Q 35.15625 6.890625 40.078125 11.328125 
Q 45.015625 15.765625 45.015625 23.390625 
Q 45.015625 31 40.078125 35.4375 
Q 35.15625 39.890625 26.703125 39.890625 
Q 22.75 39.890625 18.8125 39.015625 
Q 14.890625 38.140625 10.796875 36.28125 
z
" id="DejaVuSans-53"/>
      </defs>
      <g transform="translate(418.055147 418.798437)scale(0.1 -0.1)">
       <use xlink:href="#DejaVuSans-50"/>
       <use x="63.623047" xlink:href="#DejaVuSans-48"/>
       <use x="127.246094" xlink:href="#DejaVuSans-50"/>
       <use x="190.869141" xlink:href="#DejaVuSans-51"/>
       <use x="254.492188" xlink:href="#DejaVuSans-45"/>
       <use x="290.576172" xlink:href="#DejaVuSans-48"/>
       <use x="354.199219" xlink:href="#DejaVuSans-53"/>
      </g>
     </g>
    </g>
    <g id="xtick_5">
     <g id="line2d_5">
      <g>
       <use style="stroke:#000000;stroke-width:0.8;" x="563.304133" xlink:href="#m533721c4b6" y="404.2"/>
      </g>
     </g>
     <g id="text_5">
      <!-- 2023-07 -->
      <defs>
       <path d="M 8.203125 72.90625 
L 55.078125 72.90625 
L 55.078125 68.703125 
L 28.609375 0 
L 18.3125 0 
L 43.21875 64.59375 
L 8.203125 64.59375 
z
" id="DejaVuSans-55"/>
      </defs>
      <g transform="translate(542.412727 418.798437)scale(0.1 -0.1)">
       <use xlink:href="#DejaVuSans-50"/>
       <use x="63.623047" xlink:href="#DejaVuSans-48"/>
       <use x="127.246094" xlink:href="#DejaVuSans-50"/>
       <use x="190.869141" xlink:href="#DejaVuSans-51"/>
       <use x="254.492188" xlink:href="#DejaVuSans-45"/>
       <use x="290.576172" xlink:href="#DejaVuSans-48"/>
       <use x="354.199219" xlink:href="#DejaVuSans-55"/>
      </g>
     </g>
    </g>
    <g id="xtick_6">
     <g id="line2d_6">
      <g>
       <use style="stroke:#000000;stroke-width:0.8;" x="689.700362" xlink:href="#m533721c4b6" y="404.2"/>
      </g>
     </g>
     <g id="text_6">
      <!-- 2023-09 -->
      <defs>
       <path d="M 10.984375 1.515625 
L 10.984375 10.5 
Q 14.703125 8.734375 18.5 7.8125 
Q 22.3125 6.890625 25.984375 6.890625 
Q 35.75 6.890625 40.890625 13.453125 
Q 46.046875 20.015625 46.78125 33.40625 
Q 43.953125 29.203125 39.59375 26.953125 
Q 35.25 24.703125 29.984375 24.703125 
Q 19.046875 24.703125 12.671875 31.3125 
Q 6.296875 37.9375 6.296875 49.421875 
Q 6.296875 60.640625 12.9375 67.421875 
Q 19.578125 74.21875 30.609375 74.21875 
Q 43.265625 74.21875 49.921875 64.515625 
Q 56.59375 54.828125 56.59375 36.375 
Q 56.59375 19.140625 48.40625 8.859375 
Q 40.234375 -1.421875 26.421875 -1.421875 
Q 22.703125 -1.421875 18.890625 -0.6875 
Q 15.09375 0.046875 10.984375 1.515625 
z
M 30.609375 32.421875 
Q 37.25 32.421875 41.125 36.953125 
Q 45.015625 41.5 45.015625 49.421875 
Q 45.015625 57.28125 41.125 61.84375 
Q 37.25 66.40625 30.609375 66.40625 
Q 23.96875 66.40625 20.09375 61.84375 
Q 16.21875 57.28125 16.21875 49.421875 
Q 16.21875 41.5 20.09375 36.953125 
Q 23.96875 32.421875 30.609375 32.421875 
z
" id="DejaVuSans-57"/>
      </defs>
      <g transform="translate(668.808956 418.798437)scale(0.1 -0.1)">
       <use xlink:href="#DejaVuSans-50"/>
       <use x="63.623047" xlink:href="#DejaVuSans-48"/>
       <use x="127.246094" xlink:href="#DejaVuSans-50"/>
       <use x="190.869141" xlink:href="#DejaVuSans-51"/>
       <use x="254.492188" xlink:href="#DejaVuSans-45"/>
       <use x="290.576172" xlink:href="#DejaVuSans-48"/>
       <use x="354.199219" xlink:href="#DejaVuSans-57"/>
      </g>
     </g>
    </g>
    <g id="xtick_7">
     <g id="line2d_7">
      <g>
       <use style="stroke:#000000;stroke-width:0.8;" x="814.057942" xlink:href="#m533721c4b6" y="404.2"/>
      </g>
     </g>
     <g id="text_7">
      <!-- 2023-11 -->
      <g transform="translate(793.166536 418.798437)scale(0.1 -0.1)">
       <use xlink:href="#DejaVuSans-50"/>
       <use x="63.623047" xlink:href="#DejaVuSans-48"/>
       <use x="127.246094" xlink:href="#DejaVuSans-50"/>
       <use x="190.869141" xlink:href="#DejaVuSans-51"/>
       <use x="254.492188" xlink:href="#DejaVuSans-45"/>
       <use x="290.576172" xlink:href="#DejaVuSans-49"/>
       <use x="354.199219" xlink:href="#DejaVuSans-49"/>
      </g>
     </g>
    </g>
   </g>
   <g id="matplotlib.axis_2">
    <g id="ytick_1">
     <g id="line2d_8">
      <defs>
       <path d="M 0 0 
L -3.5 0 
" id="m1303090f12" style="stroke:#000000;stroke-width:0.8;"/>
      </defs>
      <g>
       <use style="stroke:#000000;stroke-width:0.8;" x="36.925" xlink:href="#m1303090f12" y="387.136364"/>
      </g>
     </g>
     <g id="text_8">
      <!-- 0 -->
      <g transform="translate(23.5625 390.935582)scale(0.1 -0.1)">
       <use xlink:href="#DejaVuSans-48"/>
      </g>
     </g>
    </g>
    <g id="ytick_2">
     <g id="line2d_9">
      <g>
       <use style="stroke:#000000;stroke-width:0.8;" x="36.925" xlink:href="#m1303090f12" y="318.363271"/>
      </g>
     </g>
     <g id="text_9">
      <!-- 100 -->
      <g transform="translate(10.8375 322.162489)scale(0.1 -0.1)">
       <use xlink:href="#DejaVuSans-49"/>
       <use x="63.623047" xlink:href="#DejaVuSans-48"/>
       <use x="127.246094" xlink:href="#DejaVuSans-48"/>
      </g>
     </g>
    </g>
    <g id="ytick_3">
     <g id="line2d_10">
      <g>
       <use style="stroke:#000000;stroke-width:0.8;" x="36.925" xlink:href="#m1303090f12" y="249.590178"/>
      </g>
     </g>
     <g id="text_10">
      <!-- 200 -->
      <g transform="translate(10.8375 253.389396)scale(0.1 -0.1)">
       <use xlink:href="#DejaVuSans-50"/>
       <use x="63.623047" xlink:href="#DejaVuSans-48"/>
       <use x="127.246094" xlink:href="#DejaVuSans-48"/>
      </g>
     </g>
    </g>
    <g id="ytick_4">
     <g id="line2d_11">
      <g>
       <use style="stroke:#000000;stroke-width:0.8;" x="36.925" xlink:href="#m1303090f12" y="180.817084"/>
      </g>
     </g>
     <g id="text_11">
      <!-- 300 -->
      <g transform="translate(10.8375 184.616303)scale(0.1 -0.1)">
       <use xlink:href="#DejaVuSans-51"/>
       <use x="63.623047" xlink:href="#DejaVuSans-48"/>
       <use x="127.246094" xlink:href="#DejaVuSans-48"/>
      </g>
     </g>
    </g>
    <g id="ytick_5">
     <g id="line2d_12">
      <g>
       <use style="stroke:#000000;stroke-width:0.8;" x="36.925" xlink:href="#m1303090f12" y="112.043991"/>
      </g>
     </g>
     <g id="text_12">
      <!-- 400 -->
      <defs>
       <path d="M 37.796875 64.3125 
L 12.890625 25.390625 
L 37.796875 25.390625 
z
M 35.203125 72.90625 
L 47.609375 72.90625 
L 47.609375 25.390625 
L 58.015625 25.390625 
L 58.015625 17.1875 
L 47.609375 17.1875 
L 47.609375 0 
L 37.796875 0 
L 37.796875 17.1875 
L 4.890625 17.1875 
L 4.890625 26.703125 
z
" id="DejaVuSans-52"/>
      </defs>
      <g transform="translate(10.8375 115.84321)scale(0.1 -0.1)">
       <use xlink:href="#DejaVuSans-52"/>
       <use x="63.623047" xlink:href="#DejaVuSans-48"/>
       <use x="127.246094" xlink:href="#DejaVuSans-48"/>
      </g>
     </g>
    </g>
    <g id="ytick_6">
     <g id="line2d_13">
      <g>
       <use style="stroke:#000000;stroke-width:0.8;" x="36.925" xlink:href="#m1303090f12" y="43.270898"/>
      </g>
     </g>
     <g id="text_13">
      <!-- 500 -->
      <g transform="translate(10.8375 47.070117)scale(0.1 -0.1)">
       <use xlink:href="#DejaVuSans-53"/>
       <use x="63.623047" xlink:href="#DejaVuSans-48"/>
       <use x="127.246094" xlink:href="#DejaVuSans-48"/>
      </g>
     </g>
    </g>
   </g>
   <g id="patch_3">
    <path d="M 36.925 404.2 
L 36.925 28.8 
" style="fill:none;stroke:#000000;stroke-linecap:square;stroke-linejoin:miter;stroke-width:0.8;"/>
   </g>
   <g id="patch_4">
    <path d="M 853.2 404.2 
L 853.2 28.8 
" style="fill:none;stroke:#000000;stroke-linecap:square;stroke-linejoin:miter;stroke-width:0.8;"/>
   </g>
   <g id="patch_5">
    <path d="M 36.925 404.2 
L 853.2 404.2 
" style="fill:none;stroke:#000000;stroke-linecap:square;stroke-linejoin:miter;stroke-width:0.8;"/>
   </g>
   <g id="patch_6">
    <path d="M 36.925 28.8 
L 853.2 28.8 
" style="fill:none;stroke:#000000;stroke-linecap:square;stroke-linejoin:miter;stroke-width:0.8;"/>
   </g>
   <g id="text_14">
    <!-- SNPS - 71.38% -->
    <defs>
     <path d="M 59.90625 70.609375 
L 59.90625 55.171875 
Q 53.90625 57.859375 48.1875 59.21875 
Q 42.484375 60.59375 37.40625 60.59375 
Q 30.671875 60.59375 27.4375 58.734375 
Q 24.21875 56.890625 24.21875 52.984375 
Q 24.21875 50.046875 26.390625 48.40625 
Q 28.5625 46.78125 34.28125 45.609375 
L 42.28125 44 
Q 54.4375 41.546875 59.5625 36.5625 
Q 64.703125 31.59375 64.703125 22.40625 
Q 64.703125 10.359375 57.546875 4.46875 
Q 50.390625 -1.421875 35.6875 -1.421875 
Q 28.765625 -1.421875 21.78125 -0.09375 
Q 14.796875 1.21875 7.8125 3.8125 
L 7.8125 19.671875 
Q 14.796875 15.96875 21.3125 14.078125 
Q 27.828125 12.203125 33.890625 12.203125 
Q 40.046875 12.203125 43.3125 14.25 
Q 46.578125 16.3125 46.578125 20.125 
Q 46.578125 23.53125 44.359375 25.390625 
Q 42.140625 27.25 35.5 28.71875 
L 28.21875 30.328125 
Q 17.28125 32.671875 12.21875 37.796875 
Q 7.171875 42.921875 7.171875 51.609375 
Q 7.171875 62.5 14.203125 68.359375 
Q 21.234375 74.21875 34.421875 74.21875 
Q 40.4375 74.21875 46.78125 73.3125 
Q 53.125 72.40625 59.90625 70.609375 
z
" id="DejaVuSans-Bold-83"/>
     <path d="M 9.1875 72.90625 
L 30.171875 72.90625 
L 56.6875 22.90625 
L 56.6875 72.90625 
L 74.515625 72.90625 
L 74.515625 0 
L 53.515625 0 
L 27 50 
L 27 0 
L 9.1875 0 
z
" id="DejaVuSans-Bold-78"/>
     <path d="M 9.1875 72.90625 
L 40.375 72.90625 
Q 54.296875 72.90625 61.734375 66.71875 
Q 69.1875 60.546875 69.1875 49.125 
Q 69.1875 37.640625 61.734375 31.46875 
Q 54.296875 25.296875 40.375 25.296875 
L 27.984375 25.296875 
L 27.984375 0 
L 9.1875 0 
z
M 27.984375 59.28125 
L 27.984375 38.921875 
L 38.375 38.921875 
Q 43.84375 38.921875 46.828125 41.578125 
Q 49.8125 44.234375 49.8125 49.125 
Q 49.8125 54 46.828125 56.640625 
Q 43.84375 59.28125 38.375 59.28125 
z
" id="DejaVuSans-Bold-80"/>
     <path id="DejaVuSans-Bold-32"/>
     <path d="M 5.421875 35.890625 
L 36.078125 35.890625 
L 36.078125 21.6875 
L 5.421875 21.6875 
z
" id="DejaVuSans-Bold-45"/>
     <path d="M 6.6875 72.90625 
L 61.625 72.90625 
L 61.625 62.3125 
L 33.203125 0 
L 14.890625 0 
L 41.796875 59.078125 
L 6.6875 59.078125 
z
" id="DejaVuSans-Bold-55"/>
     <path d="M 11.71875 12.984375 
L 28.328125 12.984375 
L 28.328125 60.109375 
L 11.28125 56.59375 
L 11.28125 69.390625 
L 28.21875 72.90625 
L 46.09375 72.90625 
L 46.09375 12.984375 
L 62.703125 12.984375 
L 62.703125 0 
L 11.71875 0 
z
" id="DejaVuSans-Bold-49"/>
     <path d="M 10.203125 18.890625 
L 27.78125 18.890625 
L 27.78125 0 
L 10.203125 0 
z
" id="DejaVuSans-Bold-46"/>
     <path d="M 46.578125 39.3125 
Q 53.953125 37.40625 57.78125 32.6875 
Q 61.625 27.984375 61.625 20.703125 
Q 61.625 9.859375 53.3125 4.21875 
Q 45.015625 -1.421875 29.109375 -1.421875 
Q 23.484375 -1.421875 17.84375 -0.515625 
Q 12.203125 0.390625 6.6875 2.203125 
L 6.6875 16.703125 
Q 11.96875 14.0625 17.15625 12.71875 
Q 22.359375 11.375 27.390625 11.375 
Q 34.859375 11.375 38.84375 13.953125 
Q 42.828125 16.546875 42.828125 21.390625 
Q 42.828125 26.375 38.75 28.9375 
Q 34.671875 31.5 26.703125 31.5 
L 19.1875 31.5 
L 19.1875 43.609375 
L 27.09375 43.609375 
Q 34.1875 43.609375 37.640625 45.828125 
Q 41.109375 48.046875 41.109375 52.59375 
Q 41.109375 56.78125 37.734375 59.078125 
Q 34.375 61.375 28.21875 61.375 
Q 23.6875 61.375 19.046875 60.34375 
Q 14.40625 59.328125 9.8125 57.328125 
L 9.8125 71.09375 
Q 15.375 72.65625 20.84375 73.4375 
Q 26.3125 74.21875 31.59375 74.21875 
Q 45.796875 74.21875 52.84375 69.546875 
Q 59.90625 64.890625 59.90625 55.515625 
Q 59.90625 49.125 56.53125 45.046875 
Q 53.171875 40.96875 46.578125 39.3125 
z
" id="DejaVuSans-Bold-51"/>
     <path d="M 34.8125 32.625 
Q 29.546875 32.625 26.703125 29.734375 
Q 23.875 26.859375 23.875 21.484375 
Q 23.875 16.109375 26.703125 13.25 
Q 29.546875 10.40625 34.8125 10.40625 
Q 40.046875 10.40625 42.828125 13.25 
Q 45.609375 16.109375 45.609375 21.484375 
Q 45.609375 26.90625 42.828125 29.765625 
Q 40.046875 32.625 34.8125 32.625 
z
M 21.09375 38.8125 
Q 14.453125 40.828125 11.078125 44.96875 
Q 7.71875 49.125 7.71875 55.328125 
Q 7.71875 64.546875 14.59375 69.375 
Q 21.484375 74.21875 34.8125 74.21875 
Q 48.046875 74.21875 54.921875 69.40625 
Q 61.8125 64.59375 61.8125 55.328125 
Q 61.8125 49.125 58.421875 44.96875 
Q 55.03125 40.828125 48.390625 38.8125 
Q 55.8125 36.765625 59.59375 32.15625 
Q 63.375 27.546875 63.375 20.515625 
Q 63.375 9.671875 56.171875 4.125 
Q 48.96875 -1.421875 34.8125 -1.421875 
Q 20.609375 -1.421875 13.359375 4.125 
Q 6.109375 9.671875 6.109375 20.515625 
Q 6.109375 27.546875 9.890625 32.15625 
Q 13.671875 36.765625 21.09375 38.8125 
z
M 25.484375 53.421875 
Q 25.484375 49.078125 27.90625 46.734375 
Q 30.328125 44.390625 34.8125 44.390625 
Q 39.203125 44.390625 41.59375 46.734375 
Q 44 49.078125 44 53.421875 
Q 44 57.765625 41.59375 60.078125 
Q 39.203125 62.40625 34.8125 62.40625 
Q 30.328125 62.40625 27.90625 60.0625 
Q 25.484375 57.71875 25.484375 53.421875 
z
" id="DejaVuSans-Bold-56"/>
     <path d="M 77.484375 30.078125 
Q 74.03125 30.078125 72.125 27.078125 
Q 70.21875 24.078125 70.21875 18.5 
Q 70.21875 12.890625 72.09375 9.890625 
Q 73.96875 6.890625 77.484375 6.890625 
Q 81 6.890625 82.859375 9.890625 
Q 84.71875 12.890625 84.71875 18.5 
Q 84.71875 24.078125 82.828125 27.078125 
Q 80.953125 30.078125 77.484375 30.078125 
z
M 77.484375 38.28125 
Q 86.578125 38.28125 91.796875 33 
Q 97.015625 27.734375 97.015625 18.5 
Q 97.015625 9.28125 91.796875 3.921875 
Q 86.578125 -1.421875 77.484375 -1.421875 
Q 68.40625 -1.421875 63.15625 3.921875 
Q 57.90625 9.28125 57.90625 18.5 
Q 57.90625 27.6875 63.15625 32.984375 
Q 68.40625 38.28125 77.484375 38.28125 
z
M 32.71875 -1.421875 
L 21.921875 -1.421875 
L 67.484375 74.21875 
L 78.328125 74.21875 
z
M 22.703125 74.21875 
Q 31.78125 74.21875 36.984375 68.921875 
Q 42.1875 63.625 42.1875 54.390625 
Q 42.1875 45.171875 36.984375 39.84375 
Q 31.78125 34.515625 22.703125 34.515625 
Q 13.625 34.515625 8.421875 39.84375 
Q 3.21875 45.171875 3.21875 54.390625 
Q 3.21875 63.625 8.421875 68.921875 
Q 13.625 74.21875 22.703125 74.21875 
z
M 22.703125 66.015625 
Q 19.1875 66.015625 17.28125 62.984375 
Q 15.375 59.96875 15.375 54.390625 
Q 15.375 48.78125 17.28125 45.71875 
Q 19.1875 42.671875 22.703125 42.671875 
Q 26.21875 42.671875 28.09375 45.71875 
Q 29.984375 48.78125 29.984375 54.390625 
Q 29.984375 59.96875 28.078125 62.984375 
Q 26.171875 66.015625 22.703125 66.015625 
z
" id="DejaVuSans-Bold-37"/>
    </defs>
    <g transform="translate(36.925 22.8)scale(0.16 -0.16)">
     <use xlink:href="#DejaVuSans-Bold-83"/>
     <use x="72.021484" xlink:href="#DejaVuSans-Bold-78"/>
     <use x="155.712891" xlink:href="#DejaVuSans-Bold-80"/>
     <use x="229.003906" xlink:href="#DejaVuSans-Bold-83"/>
     <use x="301.025391" xlink:href="#DejaVuSans-Bold-32"/>
     <use x="335.839844" xlink:href="#DejaVuSans-Bold-45"/>
     <use x="377.34375" xlink:href="#DejaVuSans-Bold-32"/>
     <use x="412.158203" xlink:href="#DejaVuSans-Bold-55"/>
     <use x="481.738281" xlink:href="#DejaVuSans-Bold-49"/>
     <use x="551.318359" xlink:href="#DejaVuSans-Bold-46"/>
     <use x="589.306641" xlink:href="#DejaVuSans-Bold-51"/>
     <use x="658.886719" xlink:href="#DejaVuSans-Bold-56"/>
     <use x="728.466797" xlink:href="#DejaVuSans-Bold-37"/>
    </g>
   </g>
  </g>
 </g>
 <defs>
  <clipPath id="pb9daa2bcfa">
   <rect height="375.4" width="816.275" x="36.925" y="28.8"/>
  </clipPath>
 </defs>
</svg>
