<?xml version="1.0" encoding="utf-8" standalone="no"?>
<!DOCTYPE svg PUBLIC "-//W3C//DTD SVG 1.1//EN"
  "http://www.w3.org/Graphics/SVG/1.1/DTD/svg11.dtd">
<!-- Created with matplotlib (https://matplotlib.org/) -->
<svg height="432pt" version="1.1" viewBox="0 0 864 432" width="864pt" xmlns="http://www.w3.org/2000/svg" xmlns:xlink="http://www.w3.org/1999/xlink">
 <defs>
  <style type="text/css">
*{stroke-linecap:butt;stroke-linejoin:round;}
  </style>
 </defs>
 <g id="figure_1">
  <g id="patch_1">
   <path d="M 0 432 
L 864 432 
L 864 0 
L 0 0 
z
" style="fill:none;"/>
  </g>
  <g id="axes_1">
   <g id="patch_2">
    <path d="M 75.175 385.2 
L 840.323864 385.2 
L 840.323864 88.8 
L 75.175 88.8 
z
" style="fill:none;"/>
   </g>
   <g id="PolyCollection_1">
    <path clip-path="url(#pbc6e6019af)" d="M 109.954494 1078.368529 
L 109.954494 385.2 
L 113.755531 325.217786 
L 117.556569 327.442057 
L 128.959682 339.978958 
L 132.760719 355.769547 
L 136.561757 351.54153 
L 140.362794 280.198924 
L 144.163832 260.842119 
L 159.367982 223.893273 
L 163.16902 242.036824 
L 166.970057 242.790515 
L 170.771095 252.331054 
L 182.174208 250.860418 
L 185.975245 262.478192 
L 189.776283 278.14009 
L 193.57732 273.783438 
L 197.378358 271.779749 
L 208.781471 258.434012 
L 212.582508 251.19129 
L 216.383546 258.415668 
L 220.184583 257.827413 
L 223.985621 267.349552 
L 239.189771 277.809218 
L 242.990809 294.647625 
L 246.791846 295.033642 
L 250.592884 307.11098 
L 261.995997 311.430886 
L 265.797034 293.838789 
L 269.598072 293.158644 
L 273.399109 291.779954 
L 277.200147 277.974654 
L 288.60326 280.548197 
L 296.205335 282.882815 
L 300.006372 285.879177 
L 303.80741 285.548248 
L 315.210523 259.022267 
L 319.01156 271.926785 
L 322.812598 267.055425 
L 326.613636 253.286925 
L 330.414673 243.599351 
L 341.817786 230.602886 
L 345.618823 227.385943 
L 349.419861 237.680173 
L 353.220899 248.011147 
L 357.021936 243.801532 
L 368.425049 249.775855 
L 372.226086 239.297789 
L 376.027124 252.386199 
L 379.828162 253.470762 
L 383.629199 249.500128 
L 395.032312 247.845711 
L 398.833349 244.702258 
L 402.634387 267.367952 
L 406.435425 269.316496 
L 410.236462 266.926733 
L 421.639575 262.184065 
L 425.440612 276.908491 
L 429.24165 289.83141 
L 433.042688 285.364412 
L 436.843725 290.750537 
L 448.246838 279.004071 
L 452.047875 275.529801 
L 455.848913 291.2101 
L 459.649951 298.765294 
L 463.450988 295.235879 
L 474.854101 276.02611 
L 478.655138 276.173145 
L 482.456176 254.389889 
L 486.257214 277.147473 
L 490.058251 265.419408 
L 501.461364 262.772319 
L 505.262401 248.268474 
L 509.063439 237.772063 
L 512.864477 234.812446 
L 516.665514 231.944775 
L 531.869665 220.179965 
L 535.670702 222.312346 
L 539.47174 236.283082 
L 543.272777 234.352883 
L 554.67589 229.426377 
L 558.476928 243.139787 
L 562.277965 220.161621 
L 566.079003 221.466765 
L 569.88004 247.606729 
L 581.283153 232.753611 
L 585.084191 232.735267 
L 588.885228 245.125076 
L 592.686266 261.687756 
L 596.487303 256.945031 
L 607.890416 255.143579 
L 611.691454 261.540665 
L 615.492491 257.202414 
L 619.293529 231.466868 
L 623.094566 234.66541 
L 634.497679 225.749871 
L 638.298717 249.831 
L 642.099754 230.345504 
L 645.900792 233.231575 
L 649.701829 208.396755 
L 661.104942 196.153981 
L 664.90598 177.422232 
L 668.707017 168.525037 
L 672.508055 166.172075 
L 676.309092 178.231012 
L 687.712205 174.021452 
L 691.513243 173.856016 
L 695.31428 185.473734 
L 699.115318 191.650294 
L 702.916355 218.72773 
L 714.319468 218.396858 
L 718.120506 218.01084 
L 721.921543 241.485314 
L 725.722581 244.647112 
L 729.523618 238.286772 
L 740.926731 231.044049 
L 744.727769 215.418896 
L 748.528806 204.499667 
L 752.329844 198.506943 
L 756.130881 181.41121 
L 767.533994 177.734704 
L 771.335032 161.043388 
L 775.136069 147.918233 
L 778.937107 149.738086 
L 782.738144 124.627539 
L 794.141257 117.182635 
L 797.942295 88.8 
L 801.743332 105.34428 
L 805.54437 97.752285 
L 805.54437 1078.368529 
L 805.54437 1078.368529 
L 801.743332 1078.368529 
L 797.942295 1078.368529 
L 794.141257 1078.368529 
L 782.738144 1078.368529 
L 778.937107 1078.368529 
L 775.136069 1078.368529 
L 771.335032 1078.368529 
L 767.533994 1078.368529 
L 756.130881 1078.368529 
L 752.329844 1078.368529 
L 748.528806 1078.368529 
L 744.727769 1078.368529 
L 740.926731 1078.368529 
L 729.523618 1078.368529 
L 725.722581 1078.368529 
L 721.921543 1078.368529 
L 718.120506 1078.368529 
L 714.319468 1078.368529 
L 702.916355 1078.368529 
L 699.115318 1078.368529 
L 695.31428 1078.368529 
L 691.513243 1078.368529 
L 687.712205 1078.368529 
L 676.309092 1078.368529 
L 672.508055 1078.368529 
L 668.707017 1078.368529 
L 664.90598 1078.368529 
L 661.104942 1078.368529 
L 649.701829 1078.368529 
L 645.900792 1078.368529 
L 642.099754 1078.368529 
L 638.298717 1078.368529 
L 634.497679 1078.368529 
L 623.094566 1078.368529 
L 619.293529 1078.368529 
L 615.492491 1078.368529 
L 611.691454 1078.368529 
L 607.890416 1078.368529 
L 596.487303 1078.368529 
L 592.686266 1078.368529 
L 588.885228 1078.368529 
L 585.084191 1078.368529 
L 581.283153 1078.368529 
L 569.88004 1078.368529 
L 566.079003 1078.368529 
L 562.277965 1078.368529 
L 558.476928 1078.368529 
L 554.67589 1078.368529 
L 543.272777 1078.368529 
L 539.47174 1078.368529 
L 535.670702 1078.368529 
L 531.869665 1078.368529 
L 516.665514 1078.368529 
L 512.864477 1078.368529 
L 509.063439 1078.368529 
L 505.262401 1078.368529 
L 501.461364 1078.368529 
L 490.058251 1078.368529 
L 486.257214 1078.368529 
L 482.456176 1078.368529 
L 478.655138 1078.368529 
L 474.854101 1078.368529 
L 463.450988 1078.368529 
L 459.649951 1078.368529 
L 455.848913 1078.368529 
L 452.047875 1078.368529 
L 448.246838 1078.368529 
L 436.843725 1078.368529 
L 433.042688 1078.368529 
L 429.24165 1078.368529 
L 425.440612 1078.368529 
L 421.639575 1078.368529 
L 410.236462 1078.368529 
L 406.435425 1078.368529 
L 402.634387 1078.368529 
L 398.833349 1078.368529 
L 395.032312 1078.368529 
L 383.629199 1078.368529 
L 379.828162 1078.368529 
L 376.027124 1078.368529 
L 372.226086 1078.368529 
L 368.425049 1078.368529 
L 357.021936 1078.368529 
L 353.220899 1078.368529 
L 349.419861 1078.368529 
L 345.618823 1078.368529 
L 341.817786 1078.368529 
L 330.414673 1078.368529 
L 326.613636 1078.368529 
L 322.812598 1078.368529 
L 319.01156 1078.368529 
L 315.210523 1078.368529 
L 303.80741 1078.368529 
L 300.006372 1078.368529 
L 296.205335 1078.368529 
L 288.60326 1078.368529 
L 277.200147 1078.368529 
L 273.399109 1078.368529 
L 269.598072 1078.368529 
L 265.797034 1078.368529 
L 261.995997 1078.368529 
L 250.592884 1078.368529 
L 246.791846 1078.368529 
L 242.990809 1078.368529 
L 239.189771 1078.368529 
L 223.985621 1078.368529 
L 220.184583 1078.368529 
L 216.383546 1078.368529 
L 212.582508 1078.368529 
L 208.781471 1078.368529 
L 197.378358 1078.368529 
L 193.57732 1078.368529 
L 189.776283 1078.368529 
L 185.975245 1078.368529 
L 182.174208 1078.368529 
L 170.771095 1078.368529 
L 166.970057 1078.368529 
L 163.16902 1078.368529 
L 159.367982 1078.368529 
L 144.163832 1078.368529 
L 140.362794 1078.368529 
L 136.561757 1078.368529 
L 132.760719 1078.368529 
L 128.959682 1078.368529 
L 117.556569 1078.368529 
L 113.755531 1078.368529 
L 109.954494 1078.368529 
z
" style="fill:#0000ff;fill-opacity:0.1;stroke:#0000ff;stroke-opacity:0.1;"/>
   </g>
   <g id="matplotlib.axis_1">
    <g id="xtick_1">
     <g id="line2d_1">
      <defs>
       <path d="M 0 0 
L 0 3.5 
" id="m627718101a" style="stroke:#000000;stroke-width:0.8;"/>
      </defs>
      <g>
       <use style="stroke:#000000;stroke-width:0.8;" x="109.954494" xlink:href="#m627718101a" y="385.2"/>
      </g>
     </g>
     <g id="text_1">
      <!-- 05/23 -->
      <defs>
       <path d="M 31.78125 66.40625 
Q 24.171875 66.40625 20.328125 58.90625 
Q 16.5 51.421875 16.5 36.375 
Q 16.5 21.390625 20.328125 13.890625 
Q 24.171875 6.390625 31.78125 6.390625 
Q 39.453125 6.390625 43.28125 13.890625 
Q 47.125 21.390625 47.125 36.375 
Q 47.125 51.421875 43.28125 58.90625 
Q 39.453125 66.40625 31.78125 66.40625 
z
M 31.78125 74.21875 
Q 44.046875 74.21875 50.515625 64.515625 
Q 56.984375 54.828125 56.984375 36.375 
Q 56.984375 17.96875 50.515625 8.265625 
Q 44.046875 -1.421875 31.78125 -1.421875 
Q 19.53125 -1.421875 13.0625 8.265625 
Q 6.59375 17.96875 6.59375 36.375 
Q 6.59375 54.828125 13.0625 64.515625 
Q 19.53125 74.21875 31.78125 74.21875 
z
" id="DejaVuSans-48"/>
       <path d="M 10.796875 72.90625 
L 49.515625 72.90625 
L 49.515625 64.59375 
L 19.828125 64.59375 
L 19.828125 46.734375 
Q 21.96875 47.46875 24.109375 47.828125 
Q 26.265625 48.1875 28.421875 48.1875 
Q 40.625 48.1875 47.75 41.5 
Q 54.890625 34.8125 54.890625 23.390625 
Q 54.890625 11.625 47.5625 5.09375 
Q 40.234375 -1.421875 26.90625 -1.421875 
Q 22.3125 -1.421875 17.546875 -0.640625 
Q 12.796875 0.140625 7.71875 1.703125 
L 7.71875 11.625 
Q 12.109375 9.234375 16.796875 8.0625 
Q 21.484375 6.890625 26.703125 6.890625 
Q 35.15625 6.890625 40.078125 11.328125 
Q 45.015625 15.765625 45.015625 23.390625 
Q 45.015625 31 40.078125 35.4375 
Q 35.15625 39.890625 26.703125 39.890625 
Q 22.75 39.890625 18.8125 39.015625 
Q 14.890625 38.140625 10.796875 36.28125 
z
" id="DejaVuSans-53"/>
       <path d="M 25.390625 72.90625 
L 33.6875 72.90625 
L 8.296875 -9.28125 
L 0 -9.28125 
z
" id="DejaVuSans-47"/>
       <path d="M 19.1875 8.296875 
L 53.609375 8.296875 
L 53.609375 0 
L 7.328125 0 
L 7.328125 8.296875 
Q 12.9375 14.109375 22.625 23.890625 
Q 32.328125 33.6875 34.8125 36.53125 
Q 39.546875 41.84375 41.421875 45.53125 
Q 43.3125 49.21875 43.3125 52.78125 
Q 43.3125 58.59375 39.234375 62.25 
Q 35.15625 65.921875 28.609375 65.921875 
Q 23.96875 65.921875 18.8125 64.3125 
Q 13.671875 62.703125 7.8125 59.421875 
L 7.8125 69.390625 
Q 13.765625 71.78125 18.9375 73 
Q 24.125 74.21875 28.421875 74.21875 
Q 39.75 74.21875 46.484375 68.546875 
Q 53.21875 62.890625 53.21875 53.421875 
Q 53.21875 48.921875 51.53125 44.890625 
Q 49.859375 40.875 45.40625 35.40625 
Q 44.1875 33.984375 37.640625 27.21875 
Q 31.109375 20.453125 19.1875 8.296875 
z
" id="DejaVuSans-50"/>
       <path d="M 40.578125 39.3125 
Q 47.65625 37.796875 51.625 33 
Q 55.609375 28.21875 55.609375 21.1875 
Q 55.609375 10.40625 48.1875 4.484375 
Q 40.765625 -1.421875 27.09375 -1.421875 
Q 22.515625 -1.421875 17.65625 -0.515625 
Q 12.796875 0.390625 7.625 2.203125 
L 7.625 11.71875 
Q 11.71875 9.328125 16.59375 8.109375 
Q 21.484375 6.890625 26.8125 6.890625 
Q 36.078125 6.890625 40.9375 10.546875 
Q 45.796875 14.203125 45.796875 21.1875 
Q 45.796875 27.640625 41.28125 31.265625 
Q 36.765625 34.90625 28.71875 34.90625 
L 20.21875 34.90625 
L 20.21875 43.015625 
L 29.109375 43.015625 
Q 36.375 43.015625 40.234375 45.921875 
Q 44.09375 48.828125 44.09375 54.296875 
Q 44.09375 59.90625 40.109375 62.90625 
Q 36.140625 65.921875 28.71875 65.921875 
Q 24.65625 65.921875 20.015625 65.03125 
Q 15.375 64.15625 9.8125 62.3125 
L 9.8125 71.09375 
Q 15.4375 72.65625 20.34375 73.4375 
Q 25.25 74.21875 29.59375 74.21875 
Q 40.828125 74.21875 47.359375 69.109375 
Q 53.90625 64.015625 53.90625 55.328125 
Q 53.90625 49.265625 50.4375 45.09375 
Q 46.96875 40.921875 40.578125 39.3125 
z
" id="DejaVuSans-51"/>
      </defs>
      <g transform="translate(66.726369 414.995312)scale(0.3 -0.3)">
       <use xlink:href="#DejaVuSans-48"/>
       <use x="63.623047" xlink:href="#DejaVuSans-53"/>
       <use x="127.246094" xlink:href="#DejaVuSans-47"/>
       <use x="160.9375" xlink:href="#DejaVuSans-50"/>
       <use x="224.560547" xlink:href="#DejaVuSans-51"/>
      </g>
     </g>
    </g>
    <g id="xtick_2">
     <g id="line2d_2">
      <g>
       <use style="stroke:#000000;stroke-width:0.8;" x="463.450988" xlink:href="#m627718101a" y="385.2"/>
      </g>
     </g>
     <g id="text_2">
      <!-- 08/23 -->
      <defs>
       <path d="M 31.78125 34.625 
Q 24.75 34.625 20.71875 30.859375 
Q 16.703125 27.09375 16.703125 20.515625 
Q 16.703125 13.921875 20.71875 10.15625 
Q 24.75 6.390625 31.78125 6.390625 
Q 38.8125 6.390625 42.859375 10.171875 
Q 46.921875 13.96875 46.921875 20.515625 
Q 46.921875 27.09375 42.890625 30.859375 
Q 38.875 34.625 31.78125 34.625 
z
M 21.921875 38.8125 
Q 15.578125 40.375 12.03125 44.71875 
Q 8.5 49.078125 8.5 55.328125 
Q 8.5 64.0625 14.71875 69.140625 
Q 20.953125 74.21875 31.78125 74.21875 
Q 42.671875 74.21875 48.875 69.140625 
Q 55.078125 64.0625 55.078125 55.328125 
Q 55.078125 49.078125 51.53125 44.71875 
Q 48 40.375 41.703125 38.8125 
Q 48.828125 37.15625 52.796875 32.3125 
Q 56.78125 27.484375 56.78125 20.515625 
Q 56.78125 9.90625 50.3125 4.234375 
Q 43.84375 -1.421875 31.78125 -1.421875 
Q 19.734375 -1.421875 13.25 4.234375 
Q 6.78125 9.90625 6.78125 20.515625 
Q 6.78125 27.484375 10.78125 32.3125 
Q 14.796875 37.15625 21.921875 38.8125 
z
M 18.3125 54.390625 
Q 18.3125 48.734375 21.84375 45.5625 
Q 25.390625 42.390625 31.78125 42.390625 
Q 38.140625 42.390625 41.71875 45.5625 
Q 45.3125 48.734375 45.3125 54.390625 
Q 45.3125 60.0625 41.71875 63.234375 
Q 38.140625 66.40625 31.78125 66.40625 
Q 25.390625 66.40625 21.84375 63.234375 
Q 18.3125 60.0625 18.3125 54.390625 
z
" id="DejaVuSans-56"/>
      </defs>
      <g transform="translate(420.222863 414.995312)scale(0.3 -0.3)">
       <use xlink:href="#DejaVuSans-48"/>
       <use x="63.623047" xlink:href="#DejaVuSans-56"/>
       <use x="127.246094" xlink:href="#DejaVuSans-47"/>
       <use x="160.9375" xlink:href="#DejaVuSans-50"/>
       <use x="224.560547" xlink:href="#DejaVuSans-51"/>
      </g>
     </g>
    </g>
    <g id="xtick_3">
     <g id="line2d_3">
      <g>
       <use style="stroke:#000000;stroke-width:0.8;" x="805.54437" xlink:href="#m627718101a" y="385.2"/>
      </g>
     </g>
     <g id="text_3">
      <!-- 11/23 -->
      <defs>
       <path d="M 12.40625 8.296875 
L 28.515625 8.296875 
L 28.515625 63.921875 
L 10.984375 60.40625 
L 10.984375 69.390625 
L 28.421875 72.90625 
L 38.28125 72.90625 
L 38.28125 8.296875 
L 54.390625 8.296875 
L 54.390625 0 
L 12.40625 0 
z
" id="DejaVuSans-49"/>
      </defs>
      <g transform="translate(762.316245 414.995312)scale(0.3 -0.3)">
       <use xlink:href="#DejaVuSans-49"/>
       <use x="63.623047" xlink:href="#DejaVuSans-49"/>
       <use x="127.246094" xlink:href="#DejaVuSans-47"/>
       <use x="160.9375" xlink:href="#DejaVuSans-50"/>
       <use x="224.560547" xlink:href="#DejaVuSans-51"/>
      </g>
     </g>
    </g>
   </g>
   <g id="matplotlib.axis_2">
    <g id="ytick_1">
     <g id="line2d_4">
      <defs>
       <path d="M 0 0 
L -3.5 0 
" id="m3bdb81b643" style="stroke:#000000;stroke-width:0.8;"/>
      </defs>
      <g>
       <use style="stroke:#000000;stroke-width:0.8;" x="75.175" xlink:href="#m3bdb81b643" y="306.302144"/>
      </g>
     </g>
     <g id="text_4">
      <!-- 420 -->
      <defs>
       <path d="M 37.796875 64.3125 
L 12.890625 25.390625 
L 37.796875 25.390625 
z
M 35.203125 72.90625 
L 47.609375 72.90625 
L 47.609375 25.390625 
L 58.015625 25.390625 
L 58.015625 17.1875 
L 47.609375 17.1875 
L 47.609375 0 
L 37.796875 0 
L 37.796875 17.1875 
L 4.890625 17.1875 
L 4.890625 26.703125 
z
" id="DejaVuSans-52"/>
      </defs>
      <g transform="translate(10.9125 317.6998)scale(0.3 -0.3)">
       <use xlink:href="#DejaVuSans-52"/>
       <use x="63.623047" xlink:href="#DejaVuSans-50"/>
       <use x="127.246094" xlink:href="#DejaVuSans-48"/>
      </g>
     </g>
    </g>
    <g id="ytick_2">
     <g id="line2d_5">
      <g>
       <use style="stroke:#000000;stroke-width:0.8;" x="75.175" xlink:href="#m3bdb81b643" y="196.006946"/>
      </g>
     </g>
     <g id="text_5">
      <!-- 480 -->
      <g transform="translate(10.9125 207.404602)scale(0.3 -0.3)">
       <use xlink:href="#DejaVuSans-52"/>
       <use x="63.623047" xlink:href="#DejaVuSans-56"/>
       <use x="127.246094" xlink:href="#DejaVuSans-48"/>
      </g>
     </g>
    </g>
   </g>
   <g id="line2d_6">
    <path clip-path="url(#pbc6e6019af)" d="M 109.954494 385.2 
L 113.755531 325.217786 
L 117.556569 327.442057 
L 128.959682 339.978958 
L 132.760719 355.769547 
L 136.561757 351.54153 
L 140.362794 280.198924 
L 144.163832 260.842119 
L 159.367982 223.893273 
L 163.16902 242.036824 
L 166.970057 242.790515 
L 170.771095 252.331054 
L 182.174208 250.860418 
L 185.975245 262.478192 
L 189.776283 278.14009 
L 193.57732 273.783438 
L 197.378358 271.779749 
L 208.781471 258.434012 
L 212.582508 251.19129 
L 216.383546 258.415668 
L 220.184583 257.827413 
L 223.985621 267.349552 
L 239.189771 277.809218 
L 242.990809 294.647625 
L 246.791846 295.033642 
L 250.592884 307.11098 
L 261.995997 311.430886 
L 265.797034 293.838789 
L 269.598072 293.158644 
L 273.399109 291.779954 
L 277.200147 277.974654 
L 288.60326 280.548197 
L 296.205335 282.882815 
L 300.006372 285.879177 
L 303.80741 285.548248 
L 315.210523 259.022267 
L 319.01156 271.926785 
L 322.812598 267.055425 
L 326.613636 253.286925 
L 330.414673 243.599351 
L 341.817786 230.602886 
L 345.618823 227.385943 
L 353.220899 248.011147 
L 357.021936 243.801532 
L 368.425049 249.775855 
L 372.226086 239.297789 
L 376.027124 252.386199 
L 379.828162 253.470762 
L 383.629199 249.500128 
L 395.032312 247.845711 
L 398.833349 244.702258 
L 402.634387 267.367952 
L 406.435425 269.316496 
L 410.236462 266.926733 
L 421.639575 262.184065 
L 425.440612 276.908491 
L 429.24165 289.83141 
L 433.042688 285.364412 
L 436.843725 290.750537 
L 448.246838 279.004071 
L 452.047875 275.529801 
L 455.848913 291.2101 
L 459.649951 298.765294 
L 463.450988 295.235879 
L 474.854101 276.02611 
L 478.655138 276.173145 
L 482.456176 254.389889 
L 486.257214 277.147473 
L 490.058251 265.419408 
L 501.461364 262.772319 
L 505.262401 248.268474 
L 509.063439 237.772063 
L 516.665514 231.944775 
L 531.869665 220.179965 
L 535.670702 222.312346 
L 539.47174 236.283082 
L 543.272777 234.352883 
L 554.67589 229.426377 
L 558.476928 243.139787 
L 562.277965 220.161621 
L 566.079003 221.466765 
L 569.88004 247.606729 
L 581.283153 232.753611 
L 585.084191 232.735267 
L 588.885228 245.125076 
L 592.686266 261.687756 
L 596.487303 256.945031 
L 607.890416 255.143579 
L 611.691454 261.540665 
L 615.492491 257.202414 
L 619.293529 231.466868 
L 623.094566 234.66541 
L 634.497679 225.749871 
L 638.298717 249.831 
L 642.099754 230.345504 
L 645.900792 233.231575 
L 649.701829 208.396755 
L 661.104942 196.153981 
L 664.90598 177.422232 
L 668.707017 168.525037 
L 672.508055 166.172075 
L 676.309092 178.231012 
L 687.712205 174.021452 
L 691.513243 173.856016 
L 695.31428 185.473734 
L 699.115318 191.650294 
L 702.916355 218.72773 
L 714.319468 218.396858 
L 718.120506 218.01084 
L 721.921543 241.485314 
L 725.722581 244.647112 
L 729.523618 238.286772 
L 740.926731 231.044049 
L 744.727769 215.418896 
L 748.528806 204.499667 
L 752.329844 198.506943 
L 756.130881 181.41121 
L 767.533994 177.734704 
L 771.335032 161.043388 
L 775.136069 147.918233 
L 778.937107 149.738086 
L 782.738144 124.627539 
L 794.141257 117.182635 
L 797.942295 88.8 
L 801.743332 105.34428 
L 805.54437 97.752285 
L 805.54437 97.752285 
" style="fill:none;stroke:#000000;stroke-linecap:square;stroke-width:4;"/>
   </g>
   <g id="patch_3">
    <path d="M 75.175 385.2 
L 75.175 88.8 
" style="fill:none;stroke:#000000;stroke-linecap:square;stroke-linejoin:miter;stroke-width:0.8;"/>
   </g>
   <g id="patch_4">
    <path d="M 75.175 385.2 
L 840.323864 385.2 
" style="fill:none;stroke:#000000;stroke-linecap:square;stroke-linejoin:miter;stroke-width:0.8;"/>
   </g>
   <g id="text_6">
    <!-- SNPS   41% -->
    <defs>
     <path d="M 59.90625 70.609375 
L 59.90625 55.171875 
Q 53.90625 57.859375 48.1875 59.21875 
Q 42.484375 60.59375 37.40625 60.59375 
Q 30.671875 60.59375 27.4375 58.734375 
Q 24.21875 56.890625 24.21875 52.984375 
Q 24.21875 50.046875 26.390625 48.40625 
Q 28.5625 46.78125 34.28125 45.609375 
L 42.28125 44 
Q 54.4375 41.546875 59.5625 36.5625 
Q 64.703125 31.59375 64.703125 22.40625 
Q 64.703125 10.359375 57.546875 4.46875 
Q 50.390625 -1.421875 35.6875 -1.421875 
Q 28.765625 -1.421875 21.78125 -0.09375 
Q 14.796875 1.21875 7.8125 3.8125 
L 7.8125 19.671875 
Q 14.796875 15.96875 21.3125 14.078125 
Q 27.828125 12.203125 33.890625 12.203125 
Q 40.046875 12.203125 43.3125 14.25 
Q 46.578125 16.3125 46.578125 20.125 
Q 46.578125 23.53125 44.359375 25.390625 
Q 42.140625 27.25 35.5 28.71875 
L 28.21875 30.328125 
Q 17.28125 32.671875 12.21875 37.796875 
Q 7.171875 42.921875 7.171875 51.609375 
Q 7.171875 62.5 14.203125 68.359375 
Q 21.234375 74.21875 34.421875 74.21875 
Q 40.4375 74.21875 46.78125 73.3125 
Q 53.125 72.40625 59.90625 70.609375 
z
" id="DejaVuSans-Bold-83"/>
     <path d="M 9.1875 72.90625 
L 30.171875 72.90625 
L 56.6875 22.90625 
L 56.6875 72.90625 
L 74.515625 72.90625 
L 74.515625 0 
L 53.515625 0 
L 27 50 
L 27 0 
L 9.1875 0 
z
" id="DejaVuSans-Bold-78"/>
     <path d="M 9.1875 72.90625 
L 40.375 72.90625 
Q 54.296875 72.90625 61.734375 66.71875 
Q 69.1875 60.546875 69.1875 49.125 
Q 69.1875 37.640625 61.734375 31.46875 
Q 54.296875 25.296875 40.375 25.296875 
L 27.984375 25.296875 
L 27.984375 0 
L 9.1875 0 
z
M 27.984375 59.28125 
L 27.984375 38.921875 
L 38.375 38.921875 
Q 43.84375 38.921875 46.828125 41.578125 
Q 49.8125 44.234375 49.8125 49.125 
Q 49.8125 54 46.828125 56.640625 
Q 43.84375 59.28125 38.375 59.28125 
z
" id="DejaVuSans-Bold-80"/>
     <path id="DejaVuSans-Bold-32"/>
     <path d="M 36.8125 57.421875 
L 16.21875 26.90625 
L 36.8125 26.90625 
z
M 33.6875 72.90625 
L 54.59375 72.90625 
L 54.59375 26.90625 
L 64.984375 26.90625 
L 64.984375 13.28125 
L 54.59375 13.28125 
L 54.59375 0 
L 36.8125 0 
L 36.8125 13.28125 
L 4.5 13.28125 
L 4.5 29.390625 
z
" id="DejaVuSans-Bold-52"/>
     <path d="M 11.71875 12.984375 
L 28.328125 12.984375 
L 28.328125 60.109375 
L 11.28125 56.59375 
L 11.28125 69.390625 
L 28.21875 72.90625 
L 46.09375 72.90625 
L 46.09375 12.984375 
L 62.703125 12.984375 
L 62.703125 0 
L 11.71875 0 
z
" id="DejaVuSans-Bold-49"/>
     <path d="M 77.484375 30.078125 
Q 74.03125 30.078125 72.125 27.078125 
Q 70.21875 24.078125 70.21875 18.5 
Q 70.21875 12.890625 72.09375 9.890625 
Q 73.96875 6.890625 77.484375 6.890625 
Q 81 6.890625 82.859375 9.890625 
Q 84.71875 12.890625 84.71875 18.5 
Q 84.71875 24.078125 82.828125 27.078125 
Q 80.953125 30.078125 77.484375 30.078125 
z
M 77.484375 38.28125 
Q 86.578125 38.28125 91.796875 33 
Q 97.015625 27.734375 97.015625 18.5 
Q 97.015625 9.28125 91.796875 3.921875 
Q 86.578125 -1.421875 77.484375 -1.421875 
Q 68.40625 -1.421875 63.15625 3.921875 
Q 57.90625 9.28125 57.90625 18.5 
Q 57.90625 27.6875 63.15625 32.984375 
Q 68.40625 38.28125 77.484375 38.28125 
z
M 32.71875 -1.421875 
L 21.921875 -1.421875 
L 67.484375 74.21875 
L 78.328125 74.21875 
z
M 22.703125 74.21875 
Q 31.78125 74.21875 36.984375 68.921875 
Q 42.1875 63.625 42.1875 54.390625 
Q 42.1875 45.171875 36.984375 39.84375 
Q 31.78125 34.515625 22.703125 34.515625 
Q 13.625 34.515625 8.421875 39.84375 
Q 3.21875 45.171875 3.21875 54.390625 
Q 3.21875 63.625 8.421875 68.921875 
Q 13.625 74.21875 22.703125 74.21875 
z
M 22.703125 66.015625 
Q 19.1875 66.015625 17.28125 62.984375 
Q 15.375 59.96875 15.375 54.390625 
Q 15.375 48.78125 17.28125 45.71875 
Q 19.1875 42.671875 22.703125 42.671875 
Q 26.21875 42.671875 28.09375 45.71875 
Q 29.984375 48.78125 29.984375 54.390625 
Q 29.984375 59.96875 28.078125 62.984375 
Q 26.171875 66.015625 22.703125 66.015625 
z
" id="DejaVuSans-Bold-37"/>
    </defs>
    <g transform="translate(75.175 72.1625)scale(0.8 -0.8)">
     <use xlink:href="#DejaVuSans-Bold-83"/>
     <use x="72.021484" xlink:href="#DejaVuSans-Bold-78"/>
     <use x="155.712891" xlink:href="#DejaVuSans-Bold-80"/>
     <use x="229.003906" xlink:href="#DejaVuSans-Bold-83"/>
     <use x="301.025391" xlink:href="#DejaVuSans-Bold-32"/>
     <use x="335.839844" xlink:href="#DejaVuSans-Bold-32"/>
     <use x="370.654297" xlink:href="#DejaVuSans-Bold-32"/>
     <use x="405.46875" xlink:href="#DejaVuSans-Bold-52"/>
     <use x="475.048828" xlink:href="#DejaVuSans-Bold-49"/>
     <use x="544.628906" xlink:href="#DejaVuSans-Bold-37"/>
    </g>
   </g>
  </g>
 </g>
 <defs>
  <clipPath id="pbc6e6019af">
   <rect height="296.4" width="765.148864" x="75.175" y="88.8"/>
  </clipPath>
 </defs>
</svg>
