<?xml version="1.0" encoding="utf-8" standalone="no"?>
<!DOCTYPE svg PUBLIC "-//W3C//DTD SVG 1.1//EN"
  "http://www.w3.org/Graphics/SVG/1.1/DTD/svg11.dtd">
<!-- Created with matplotlib (https://matplotlib.org/) -->
<svg height="432pt" version="1.1" viewBox="0 0 864 432" width="864pt" xmlns="http://www.w3.org/2000/svg" xmlns:xlink="http://www.w3.org/1999/xlink">
 <defs>
  <style type="text/css">
*{stroke-linecap:butt;stroke-linejoin:round;}
  </style>
 </defs>
 <g id="figure_1">
  <g id="patch_1">
   <path d="M 0 432 
L 864 432 
L 864 0 
L 0 0 
z
" style="fill:#ffffff;"/>
  </g>
  <g id="axes_1">
   <g id="patch_2">
    <path d="M 30.55 404.2 
L 853.2 404.2 
L 853.2 28.8 
L 30.55 28.8 
z
" style="fill:#ffffff;"/>
   </g>
   <g id="PolyCollection_1">
    <defs>
     <path d="M 67.943182 -44.863636 
L 67.943182 -366.948333 
L 69.997752 -378.461141 
L 76.161464 -386.136364 
L 78.216034 -382.57285 
L 80.270604 -365.303639 
L 82.325175 -368.867125 
L 84.379745 -377.090571 
L 90.543457 -361.740152 
L 92.598027 -371.33414 
L 94.652597 -355.983748 
L 96.707168 -361.191902 
L 98.761738 -359.27311 
L 104.92545 -346.663858 
L 106.98002 -355.709624 
L 109.03459 -347.212053 
L 113.143731 -344.470914 
L 119.307443 -339.262733 
L 121.362013 -341.729774 
L 123.416583 -345.567413 
L 125.471154 -343.922691 
L 127.525724 -348.034428 
L 133.689436 -323.54272 
L 135.744006 -322.712522 
L 137.798576 -313.026539 
L 139.853147 -309.428913 
L 141.907717 -301.403381 
L 148.071429 -312.473064 
L 150.125999 -318.838145 
L 152.180569 -314.68699 
L 154.23514 -317.731168 
L 156.28971 -308.321964 
L 162.453422 -311.366115 
L 164.507992 -317.731168 
L 166.562562 -327.417151 
L 168.617133 -311.642866 
L 170.671703 -321.328822 
L 178.889985 -322.989273 
L 180.944555 -310.259139 
L 182.999126 -319.668371 
L 185.053696 -319.668371 
L 193.271978 -301.403381 
L 195.326548 -309.15219 
L 197.381119 -311.366115 
L 199.435689 -312.749788 
L 205.599401 -321.052043 
L 207.653971 -327.417151 
L 209.708541 -330.461275 
L 211.763112 -344.575137 
L 213.817682 -341.530985 
L 222.035964 -341.254234 
L 224.090534 -326.310147 
L 226.145105 -329.077602 
L 228.199675 -325.479949 
L 234.363387 -327.693875 
L 236.417957 -325.756673 
L 238.472527 -333.505481 
L 240.527098 -331.845003 
L 242.581668 -325.203198 
L 248.74538 -325.203198 
L 250.79995 -337.93336 
L 252.85452 -333.782177 
L 254.909091 -326.310147 
L 256.963661 -326.033396 
L 263.127373 -327.417151 
L 265.181943 -338.486807 
L 267.236513 -337.93336 
L 269.291084 -325.479949 
L 271.345654 -338.210083 
L 277.509366 -343.191409 
L 279.563936 -332.121726 
L 281.618506 -335.165905 
L 283.673077 -333.782177 
L 285.727647 -321.052043 
L 293.945929 -308.59866 
L 296.0005 -307.768462 
L 298.05507 -288.1198 
L 300.10964 -299.466207 
L 306.273352 -292.270901 
L 308.327922 -291.994177 
L 310.382493 -298.35923 
L 312.437063 -307.21496 
L 314.491633 -324.926475 
L 320.655345 -321.052043 
L 322.709915 -321.052043 
L 324.764486 -321.882296 
L 326.819056 -311.366115 
L 328.873626 -305.83126 
L 335.037338 -294.910963 
L 337.091908 -301.911146 
L 339.146479 -289.030805 
L 341.201049 -283.990639 
L 343.255619 -263.550035 
L 349.419331 -272.230282 
L 351.473901 -277.270435 
L 353.528472 -270.270238 
L 355.583042 -274.190353 
L 357.637612 -273.35032 
L 363.801324 -281.190522 
L 365.855894 -283.430626 
L 367.910465 -282.310574 
L 369.965035 -280.35053 
L 372.019605 -283.990639 
L 378.183317 -293.230898 
L 380.237887 -287.070707 
L 382.292458 -282.870586 
L 384.347028 -280.630537 
L 392.56531 -281.750562 
L 394.61988 -280.910543 
L 396.674451 -277.550441 
L 398.729021 -278.110453 
L 400.783591 -275.59037 
L 406.947303 -274.190353 
L 409.001873 -269.710212 
L 411.056444 -269.1502 
L 413.111014 -261.589964 
L 415.165584 -261.589964 
L 421.329296 -273.35032 
L 423.383866 -260.749945 
L 425.438437 -253.749749 
L 427.493007 -253.469743 
L 429.547577 -259.909926 
L 435.711289 -268.030161 
L 437.765859 -247.309565 
L 439.82043 -248.70961 
L 441.875 -253.469743 
L 443.92957 -259.349914 
L 450.093282 -258.789888 
L 452.147852 -259.069908 
L 454.202423 -264.110047 
L 456.256993 -257.389857 
L 458.311563 -258.789888 
L 464.475275 -260.469939 
L 466.529845 -257.669863 
L 468.584416 -265.790098 
L 470.638986 -266.070118 
L 472.693556 -267.190143 
L 478.857268 -271.110257 
L 480.911838 -277.270435 
L 482.966409 -275.870376 
L 485.020979 -268.870194 
L 487.075549 -266.910123 
L 495.293831 -259.62992 
L 497.348402 -250.109627 
L 499.402972 -254.309775 
L 501.457542 -273.070314 
L 507.621254 -271.651107 
L 509.675824 -276.192537 
L 511.730395 -288.397618 
L 513.784965 -288.113782 
L 515.839535 -282.153146 
L 522.003247 -278.179415 
L 524.057817 -285.559231 
L 526.112388 -280.733993 
L 528.166958 -286.126903 
L 530.221528 -279.882458 
L 538.43981 -277.044072 
L 540.494381 -273.638 
L 542.548951 -276.192537 
L 544.603521 -268.528885 
L 550.767233 -273.354164 
L 552.821803 -275.908728 
L 554.876374 -273.070314 
L 556.930944 -281.585501 
L 558.985514 -281.301638 
L 565.149226 -284.42386 
L 569.258367 -279.598622 
L 571.312937 -276.760236 
L 573.367507 -294.64209 
L 579.531219 -295.209762 
L 581.585789 -298.332012 
L 583.64036 -301.73807 
L 585.69493 -305.144129 
L 587.7495 -304.292621 
L 593.913212 -306.563336 
L 595.967782 -311.104765 
L 598.022353 -315.078523 
L 600.076923 -315.078523 
L 602.131494 -314.510823 
L 608.295205 -317.916909 
L 610.349775 -317.349237 
L 612.404346 -314.226988 
L 614.458916 -305.711801 
L 616.513487 -337.785642 
L 622.677198 -355.099825 
L 624.731768 -347.436173 
L 626.786339 -347.15231 
L 628.840909 -354.24829 
L 630.89548 -356.802868 
L 637.059191 -355.099825 
L 639.113761 -350.558423 
L 641.168332 -357.086704 
L 643.222902 -359.925118 
L 645.277473 -355.383661 
L 651.441184 -364.46652 
L 653.495754 -353.964481 
L 655.550325 -351.693767 
L 657.604895 -353.396782 
L 659.659466 -357.37054 
L 665.823177 -351.693767 
L 667.877747 -345.733158 
L 669.932318 -343.17858 
L 671.986888 -340.624029 
L 674.041459 -336.0826 
L 680.20517 -340.624029 
L 682.25974 -337.501807 
L 684.314311 -340.05633 
L 686.368881 -343.462443 
L 688.423452 -350.059713 
L 696.641733 -350.633376 
L 698.696304 -342.601908 
L 700.750874 -340.307203 
L 702.805445 -345.183458 
L 708.969156 -347.191318 
L 711.023726 -357.517491 
L 713.078297 -352.067573 
L 715.132867 -358.951688 
L 717.187438 -354.935968 
L 723.351149 -348.625516 
L 725.405719 -342.888753 
L 727.46029 -342.601908 
L 729.51486 -333.136243 
L 731.569431 -332.562553 
L 737.733142 -342.315063 
L 739.787712 -343.74926 
L 741.842283 -359.238533 
L 743.896853 -353.214926 
L 745.951424 -350.633376 
L 752.115135 -340.594048 
L 754.169705 -337.725653 
L 756.224276 -325.104775 
L 758.278846 -328.83365 
L 760.333417 -329.981003 
L 766.497128 -344.036105 
L 768.551698 -343.175571 
L 770.606269 -343.74926 
L 772.660839 -337.151963 
L 774.71541 -338.873005 
L 780.879121 -337.438808 
L 782.933691 -341.16771 
L 784.988262 -343.175571 
L 787.042832 -341.454555 
L 789.097403 -335.430948 
L 795.261114 -330.841538 
L 797.315684 -329.120495 
L 799.370255 -325.965282 
L 801.424825 -320.22852 
L 803.479396 -301.584007 
L 809.643107 -304.452402 
L 811.697677 -309.90232 
L 813.752248 -304.452402 
L 815.806818 -311.910207 
L 815.806818 -44.863636 
L 815.806818 -44.863636 
L 813.752248 -44.863636 
L 811.697677 -44.863636 
L 809.643107 -44.863636 
L 803.479396 -44.863636 
L 801.424825 -44.863636 
L 799.370255 -44.863636 
L 797.315684 -44.863636 
L 795.261114 -44.863636 
L 789.097403 -44.863636 
L 787.042832 -44.863636 
L 784.988262 -44.863636 
L 782.933691 -44.863636 
L 780.879121 -44.863636 
L 774.71541 -44.863636 
L 772.660839 -44.863636 
L 770.606269 -44.863636 
L 768.551698 -44.863636 
L 766.497128 -44.863636 
L 760.333417 -44.863636 
L 758.278846 -44.863636 
L 756.224276 -44.863636 
L 754.169705 -44.863636 
L 752.115135 -44.863636 
L 745.951424 -44.863636 
L 743.896853 -44.863636 
L 741.842283 -44.863636 
L 739.787712 -44.863636 
L 737.733142 -44.863636 
L 731.569431 -44.863636 
L 729.51486 -44.863636 
L 727.46029 -44.863636 
L 725.405719 -44.863636 
L 723.351149 -44.863636 
L 717.187438 -44.863636 
L 715.132867 -44.863636 
L 713.078297 -44.863636 
L 711.023726 -44.863636 
L 708.969156 -44.863636 
L 702.805445 -44.863636 
L 700.750874 -44.863636 
L 698.696304 -44.863636 
L 696.641733 -44.863636 
L 688.423452 -44.863636 
L 686.368881 -44.863636 
L 684.314311 -44.863636 
L 682.25974 -44.863636 
L 680.20517 -44.863636 
L 674.041459 -44.863636 
L 671.986888 -44.863636 
L 669.932318 -44.863636 
L 667.877747 -44.863636 
L 665.823177 -44.863636 
L 659.659466 -44.863636 
L 657.604895 -44.863636 
L 655.550325 -44.863636 
L 653.495754 -44.863636 
L 651.441184 -44.863636 
L 645.277473 -44.863636 
L 643.222902 -44.863636 
L 641.168332 -44.863636 
L 639.113761 -44.863636 
L 637.059191 -44.863636 
L 630.89548 -44.863636 
L 628.840909 -44.863636 
L 626.786339 -44.863636 
L 624.731768 -44.863636 
L 622.677198 -44.863636 
L 616.513487 -44.863636 
L 614.458916 -44.863636 
L 612.404346 -44.863636 
L 610.349775 -44.863636 
L 608.295205 -44.863636 
L 602.131494 -44.863636 
L 600.076923 -44.863636 
L 598.022353 -44.863636 
L 595.967782 -44.863636 
L 593.913212 -44.863636 
L 587.7495 -44.863636 
L 585.69493 -44.863636 
L 583.64036 -44.863636 
L 581.585789 -44.863636 
L 579.531219 -44.863636 
L 573.367507 -44.863636 
L 571.312937 -44.863636 
L 569.258367 -44.863636 
L 565.149226 -44.863636 
L 558.985514 -44.863636 
L 556.930944 -44.863636 
L 554.876374 -44.863636 
L 552.821803 -44.863636 
L 550.767233 -44.863636 
L 544.603521 -44.863636 
L 542.548951 -44.863636 
L 540.494381 -44.863636 
L 538.43981 -44.863636 
L 530.221528 -44.863636 
L 528.166958 -44.863636 
L 526.112388 -44.863636 
L 524.057817 -44.863636 
L 522.003247 -44.863636 
L 515.839535 -44.863636 
L 513.784965 -44.863636 
L 511.730395 -44.863636 
L 509.675824 -44.863636 
L 507.621254 -44.863636 
L 501.457542 -44.863636 
L 499.402972 -44.863636 
L 497.348402 -44.863636 
L 495.293831 -44.863636 
L 487.075549 -44.863636 
L 485.020979 -44.863636 
L 482.966409 -44.863636 
L 480.911838 -44.863636 
L 478.857268 -44.863636 
L 472.693556 -44.863636 
L 470.638986 -44.863636 
L 468.584416 -44.863636 
L 466.529845 -44.863636 
L 464.475275 -44.863636 
L 458.311563 -44.863636 
L 456.256993 -44.863636 
L 454.202423 -44.863636 
L 452.147852 -44.863636 
L 450.093282 -44.863636 
L 443.92957 -44.863636 
L 441.875 -44.863636 
L 439.82043 -44.863636 
L 437.765859 -44.863636 
L 435.711289 -44.863636 
L 429.547577 -44.863636 
L 427.493007 -44.863636 
L 425.438437 -44.863636 
L 423.383866 -44.863636 
L 421.329296 -44.863636 
L 415.165584 -44.863636 
L 413.111014 -44.863636 
L 411.056444 -44.863636 
L 409.001873 -44.863636 
L 406.947303 -44.863636 
L 400.783591 -44.863636 
L 398.729021 -44.863636 
L 396.674451 -44.863636 
L 394.61988 -44.863636 
L 392.56531 -44.863636 
L 384.347028 -44.863636 
L 382.292458 -44.863636 
L 380.237887 -44.863636 
L 378.183317 -44.863636 
L 372.019605 -44.863636 
L 369.965035 -44.863636 
L 367.910465 -44.863636 
L 365.855894 -44.863636 
L 363.801324 -44.863636 
L 357.637612 -44.863636 
L 355.583042 -44.863636 
L 353.528472 -44.863636 
L 351.473901 -44.863636 
L 349.419331 -44.863636 
L 343.255619 -44.863636 
L 341.201049 -44.863636 
L 339.146479 -44.863636 
L 337.091908 -44.863636 
L 335.037338 -44.863636 
L 328.873626 -44.863636 
L 326.819056 -44.863636 
L 324.764486 -44.863636 
L 322.709915 -44.863636 
L 320.655345 -44.863636 
L 314.491633 -44.863636 
L 312.437063 -44.863636 
L 310.382493 -44.863636 
L 308.327922 -44.863636 
L 306.273352 -44.863636 
L 300.10964 -44.863636 
L 298.05507 -44.863636 
L 296.0005 -44.863636 
L 293.945929 -44.863636 
L 285.727647 -44.863636 
L 283.673077 -44.863636 
L 281.618506 -44.863636 
L 279.563936 -44.863636 
L 277.509366 -44.863636 
L 271.345654 -44.863636 
L 269.291084 -44.863636 
L 267.236513 -44.863636 
L 265.181943 -44.863636 
L 263.127373 -44.863636 
L 256.963661 -44.863636 
L 254.909091 -44.863636 
L 252.85452 -44.863636 
L 250.79995 -44.863636 
L 248.74538 -44.863636 
L 242.581668 -44.863636 
L 240.527098 -44.863636 
L 238.472527 -44.863636 
L 236.417957 -44.863636 
L 234.363387 -44.863636 
L 228.199675 -44.863636 
L 226.145105 -44.863636 
L 224.090534 -44.863636 
L 222.035964 -44.863636 
L 213.817682 -44.863636 
L 211.763112 -44.863636 
L 209.708541 -44.863636 
L 207.653971 -44.863636 
L 205.599401 -44.863636 
L 199.435689 -44.863636 
L 197.381119 -44.863636 
L 195.326548 -44.863636 
L 193.271978 -44.863636 
L 185.053696 -44.863636 
L 182.999126 -44.863636 
L 180.944555 -44.863636 
L 178.889985 -44.863636 
L 170.671703 -44.863636 
L 168.617133 -44.863636 
L 166.562562 -44.863636 
L 164.507992 -44.863636 
L 162.453422 -44.863636 
L 156.28971 -44.863636 
L 154.23514 -44.863636 
L 152.180569 -44.863636 
L 150.125999 -44.863636 
L 148.071429 -44.863636 
L 141.907717 -44.863636 
L 139.853147 -44.863636 
L 137.798576 -44.863636 
L 135.744006 -44.863636 
L 133.689436 -44.863636 
L 127.525724 -44.863636 
L 125.471154 -44.863636 
L 123.416583 -44.863636 
L 121.362013 -44.863636 
L 119.307443 -44.863636 
L 113.143731 -44.863636 
L 109.03459 -44.863636 
L 106.98002 -44.863636 
L 104.92545 -44.863636 
L 98.761738 -44.863636 
L 96.707168 -44.863636 
L 94.652597 -44.863636 
L 92.598027 -44.863636 
L 90.543457 -44.863636 
L 84.379745 -44.863636 
L 82.325175 -44.863636 
L 80.270604 -44.863636 
L 78.216034 -44.863636 
L 76.161464 -44.863636 
L 69.997752 -44.863636 
L 67.943182 -44.863636 
z
" id="m19d83c8781" style="stroke:#ffcee0;"/>
    </defs>
    <g clip-path="url(#p638e219642)">
     <use style="fill:#ffcee0;stroke:#ffcee0;" x="0" xlink:href="#m19d83c8781" y="432"/>
    </g>
   </g>
   <g id="matplotlib.axis_1">
    <g id="xtick_1">
     <g id="line2d_1">
      <defs>
       <path d="M 0 0 
L 0 3.5 
" id="m89b8d21746" style="stroke:#000000;stroke-width:0.8;"/>
      </defs>
      <g>
       <use style="stroke:#000000;stroke-width:0.8;" x="63.834041" xlink:href="#m89b8d21746" y="404.2"/>
      </g>
     </g>
     <g id="text_1">
      <!-- 2022-11 -->
      <defs>
       <path d="M 19.1875 8.296875 
L 53.609375 8.296875 
L 53.609375 0 
L 7.328125 0 
L 7.328125 8.296875 
Q 12.9375 14.109375 22.625 23.890625 
Q 32.328125 33.6875 34.8125 36.53125 
Q 39.546875 41.84375 41.421875 45.53125 
Q 43.3125 49.21875 43.3125 52.78125 
Q 43.3125 58.59375 39.234375 62.25 
Q 35.15625 65.921875 28.609375 65.921875 
Q 23.96875 65.921875 18.8125 64.3125 
Q 13.671875 62.703125 7.8125 59.421875 
L 7.8125 69.390625 
Q 13.765625 71.78125 18.9375 73 
Q 24.125 74.21875 28.421875 74.21875 
Q 39.75 74.21875 46.484375 68.546875 
Q 53.21875 62.890625 53.21875 53.421875 
Q 53.21875 48.921875 51.53125 44.890625 
Q 49.859375 40.875 45.40625 35.40625 
Q 44.1875 33.984375 37.640625 27.21875 
Q 31.109375 20.453125 19.1875 8.296875 
z
" id="DejaVuSans-50"/>
       <path d="M 31.78125 66.40625 
Q 24.171875 66.40625 20.328125 58.90625 
Q 16.5 51.421875 16.5 36.375 
Q 16.5 21.390625 20.328125 13.890625 
Q 24.171875 6.390625 31.78125 6.390625 
Q 39.453125 6.390625 43.28125 13.890625 
Q 47.125 21.390625 47.125 36.375 
Q 47.125 51.421875 43.28125 58.90625 
Q 39.453125 66.40625 31.78125 66.40625 
z
M 31.78125 74.21875 
Q 44.046875 74.21875 50.515625 64.515625 
Q 56.984375 54.828125 56.984375 36.375 
Q 56.984375 17.96875 50.515625 8.265625 
Q 44.046875 -1.421875 31.78125 -1.421875 
Q 19.53125 -1.421875 13.0625 8.265625 
Q 6.59375 17.96875 6.59375 36.375 
Q 6.59375 54.828125 13.0625 64.515625 
Q 19.53125 74.21875 31.78125 74.21875 
z
" id="DejaVuSans-48"/>
       <path d="M 4.890625 31.390625 
L 31.203125 31.390625 
L 31.203125 23.390625 
L 4.890625 23.390625 
z
" id="DejaVuSans-45"/>
       <path d="M 12.40625 8.296875 
L 28.515625 8.296875 
L 28.515625 63.921875 
L 10.984375 60.40625 
L 10.984375 69.390625 
L 28.421875 72.90625 
L 38.28125 72.90625 
L 38.28125 8.296875 
L 54.390625 8.296875 
L 54.390625 0 
L 12.40625 0 
z
" id="DejaVuSans-49"/>
      </defs>
      <g transform="translate(42.942635 418.798437)scale(0.1 -0.1)">
       <use xlink:href="#DejaVuSans-50"/>
       <use x="63.623047" xlink:href="#DejaVuSans-48"/>
       <use x="127.246094" xlink:href="#DejaVuSans-50"/>
       <use x="190.869141" xlink:href="#DejaVuSans-50"/>
       <use x="254.492188" xlink:href="#DejaVuSans-45"/>
       <use x="290.576172" xlink:href="#DejaVuSans-49"/>
       <use x="354.199219" xlink:href="#DejaVuSans-49"/>
      </g>
     </g>
    </g>
    <g id="xtick_2">
     <g id="line2d_2">
      <g>
       <use style="stroke:#000000;stroke-width:0.8;" x="189.162837" xlink:href="#m89b8d21746" y="404.2"/>
      </g>
     </g>
     <g id="text_2">
      <!-- 2023-01 -->
      <defs>
       <path d="M 40.578125 39.3125 
Q 47.65625 37.796875 51.625 33 
Q 55.609375 28.21875 55.609375 21.1875 
Q 55.609375 10.40625 48.1875 4.484375 
Q 40.765625 -1.421875 27.09375 -1.421875 
Q 22.515625 -1.421875 17.65625 -0.515625 
Q 12.796875 0.390625 7.625 2.203125 
L 7.625 11.71875 
Q 11.71875 9.328125 16.59375 8.109375 
Q 21.484375 6.890625 26.8125 6.890625 
Q 36.078125 6.890625 40.9375 10.546875 
Q 45.796875 14.203125 45.796875 21.1875 
Q 45.796875 27.640625 41.28125 31.265625 
Q 36.765625 34.90625 28.71875 34.90625 
L 20.21875 34.90625 
L 20.21875 43.015625 
L 29.109375 43.015625 
Q 36.375 43.015625 40.234375 45.921875 
Q 44.09375 48.828125 44.09375 54.296875 
Q 44.09375 59.90625 40.109375 62.90625 
Q 36.140625 65.921875 28.71875 65.921875 
Q 24.65625 65.921875 20.015625 65.03125 
Q 15.375 64.15625 9.8125 62.3125 
L 9.8125 71.09375 
Q 15.4375 72.65625 20.34375 73.4375 
Q 25.25 74.21875 29.59375 74.21875 
Q 40.828125 74.21875 47.359375 69.109375 
Q 53.90625 64.015625 53.90625 55.328125 
Q 53.90625 49.265625 50.4375 45.09375 
Q 46.96875 40.921875 40.578125 39.3125 
z
" id="DejaVuSans-51"/>
      </defs>
      <g transform="translate(168.271431 418.798437)scale(0.1 -0.1)">
       <use xlink:href="#DejaVuSans-50"/>
       <use x="63.623047" xlink:href="#DejaVuSans-48"/>
       <use x="127.246094" xlink:href="#DejaVuSans-50"/>
       <use x="190.869141" xlink:href="#DejaVuSans-51"/>
       <use x="254.492188" xlink:href="#DejaVuSans-45"/>
       <use x="290.576172" xlink:href="#DejaVuSans-48"/>
       <use x="354.199219" xlink:href="#DejaVuSans-49"/>
      </g>
     </g>
    </g>
    <g id="xtick_3">
     <g id="line2d_3">
      <g>
       <use style="stroke:#000000;stroke-width:0.8;" x="310.382493" xlink:href="#m89b8d21746" y="404.2"/>
      </g>
     </g>
     <g id="text_3">
      <!-- 2023-03 -->
      <g transform="translate(289.491086 418.798437)scale(0.1 -0.1)">
       <use xlink:href="#DejaVuSans-50"/>
       <use x="63.623047" xlink:href="#DejaVuSans-48"/>
       <use x="127.246094" xlink:href="#DejaVuSans-50"/>
       <use x="190.869141" xlink:href="#DejaVuSans-51"/>
       <use x="254.492188" xlink:href="#DejaVuSans-45"/>
       <use x="290.576172" xlink:href="#DejaVuSans-48"/>
       <use x="354.199219" xlink:href="#DejaVuSans-51"/>
      </g>
     </g>
    </g>
    <g id="xtick_4">
     <g id="line2d_4">
      <g>
       <use style="stroke:#000000;stroke-width:0.8;" x="435.711289" xlink:href="#m89b8d21746" y="404.2"/>
      </g>
     </g>
     <g id="text_4">
      <!-- 2023-05 -->
      <defs>
       <path d="M 10.796875 72.90625 
L 49.515625 72.90625 
L 49.515625 64.59375 
L 19.828125 64.59375 
L 19.828125 46.734375 
Q 21.96875 47.46875 24.109375 47.828125 
Q 26.265625 48.1875 28.421875 48.1875 
Q 40.625 48.1875 47.75 41.5 
Q 54.890625 34.8125 54.890625 23.390625 
Q 54.890625 11.625 47.5625 5.09375 
Q 40.234375 -1.421875 26.90625 -1.421875 
Q 22.3125 -1.421875 17.546875 -0.640625 
Q 12.796875 0.140625 7.71875 1.703125 
L 7.71875 11.625 
Q 12.109375 9.234375 16.796875 8.0625 
Q 21.484375 6.890625 26.703125 6.890625 
Q 35.15625 6.890625 40.078125 11.328125 
Q 45.015625 15.765625 45.015625 23.390625 
Q 45.015625 31 40.078125 35.4375 
Q 35.15625 39.890625 26.703125 39.890625 
Q 22.75 39.890625 18.8125 39.015625 
Q 14.890625 38.140625 10.796875 36.28125 
z
" id="DejaVuSans-53"/>
      </defs>
      <g transform="translate(414.819882 418.798437)scale(0.1 -0.1)">
       <use xlink:href="#DejaVuSans-50"/>
       <use x="63.623047" xlink:href="#DejaVuSans-48"/>
       <use x="127.246094" xlink:href="#DejaVuSans-50"/>
       <use x="190.869141" xlink:href="#DejaVuSans-51"/>
       <use x="254.492188" xlink:href="#DejaVuSans-45"/>
       <use x="290.576172" xlink:href="#DejaVuSans-48"/>
       <use x="354.199219" xlink:href="#DejaVuSans-53"/>
      </g>
     </g>
    </g>
    <g id="xtick_5">
     <g id="line2d_5">
      <g>
       <use style="stroke:#000000;stroke-width:0.8;" x="561.040085" xlink:href="#m89b8d21746" y="404.2"/>
      </g>
     </g>
     <g id="text_5">
      <!-- 2023-07 -->
      <defs>
       <path d="M 8.203125 72.90625 
L 55.078125 72.90625 
L 55.078125 68.703125 
L 28.609375 0 
L 18.3125 0 
L 43.21875 64.59375 
L 8.203125 64.59375 
z
" id="DejaVuSans-55"/>
      </defs>
      <g transform="translate(540.148679 418.798437)scale(0.1 -0.1)">
       <use xlink:href="#DejaVuSans-50"/>
       <use x="63.623047" xlink:href="#DejaVuSans-48"/>
       <use x="127.246094" xlink:href="#DejaVuSans-50"/>
       <use x="190.869141" xlink:href="#DejaVuSans-51"/>
       <use x="254.492188" xlink:href="#DejaVuSans-45"/>
       <use x="290.576172" xlink:href="#DejaVuSans-48"/>
       <use x="354.199219" xlink:href="#DejaVuSans-55"/>
      </g>
     </g>
    </g>
    <g id="xtick_6">
     <g id="line2d_6">
      <g>
       <use style="stroke:#000000;stroke-width:0.8;" x="688.423452" xlink:href="#m89b8d21746" y="404.2"/>
      </g>
     </g>
     <g id="text_6">
      <!-- 2023-09 -->
      <defs>
       <path d="M 10.984375 1.515625 
L 10.984375 10.5 
Q 14.703125 8.734375 18.5 7.8125 
Q 22.3125 6.890625 25.984375 6.890625 
Q 35.75 6.890625 40.890625 13.453125 
Q 46.046875 20.015625 46.78125 33.40625 
Q 43.953125 29.203125 39.59375 26.953125 
Q 35.25 24.703125 29.984375 24.703125 
Q 19.046875 24.703125 12.671875 31.3125 
Q 6.296875 37.9375 6.296875 49.421875 
Q 6.296875 60.640625 12.9375 67.421875 
Q 19.578125 74.21875 30.609375 74.21875 
Q 43.265625 74.21875 49.921875 64.515625 
Q 56.59375 54.828125 56.59375 36.375 
Q 56.59375 19.140625 48.40625 8.859375 
Q 40.234375 -1.421875 26.421875 -1.421875 
Q 22.703125 -1.421875 18.890625 -0.6875 
Q 15.09375 0.046875 10.984375 1.515625 
z
M 30.609375 32.421875 
Q 37.25 32.421875 41.125 36.953125 
Q 45.015625 41.5 45.015625 49.421875 
Q 45.015625 57.28125 41.125 61.84375 
Q 37.25 66.40625 30.609375 66.40625 
Q 23.96875 66.40625 20.09375 61.84375 
Q 16.21875 57.28125 16.21875 49.421875 
Q 16.21875 41.5 20.09375 36.953125 
Q 23.96875 32.421875 30.609375 32.421875 
z
" id="DejaVuSans-57"/>
      </defs>
      <g transform="translate(667.532045 418.798437)scale(0.1 -0.1)">
       <use xlink:href="#DejaVuSans-50"/>
       <use x="63.623047" xlink:href="#DejaVuSans-48"/>
       <use x="127.246094" xlink:href="#DejaVuSans-50"/>
       <use x="190.869141" xlink:href="#DejaVuSans-51"/>
       <use x="254.492188" xlink:href="#DejaVuSans-45"/>
       <use x="290.576172" xlink:href="#DejaVuSans-48"/>
       <use x="354.199219" xlink:href="#DejaVuSans-57"/>
      </g>
     </g>
    </g>
    <g id="xtick_7">
     <g id="line2d_7">
      <g>
       <use style="stroke:#000000;stroke-width:0.8;" x="813.752248" xlink:href="#m89b8d21746" y="404.2"/>
      </g>
     </g>
     <g id="text_7">
      <!-- 2023-11 -->
      <g transform="translate(792.860842 418.798437)scale(0.1 -0.1)">
       <use xlink:href="#DejaVuSans-50"/>
       <use x="63.623047" xlink:href="#DejaVuSans-48"/>
       <use x="127.246094" xlink:href="#DejaVuSans-50"/>
       <use x="190.869141" xlink:href="#DejaVuSans-51"/>
       <use x="254.492188" xlink:href="#DejaVuSans-45"/>
       <use x="290.576172" xlink:href="#DejaVuSans-49"/>
       <use x="354.199219" xlink:href="#DejaVuSans-49"/>
      </g>
     </g>
    </g>
   </g>
   <g id="matplotlib.axis_2">
    <g id="ytick_1">
     <g id="line2d_8">
      <defs>
       <path d="M 0 0 
L -3.5 0 
" id="me8014109d7" style="stroke:#000000;stroke-width:0.8;"/>
      </defs>
      <g>
       <use style="stroke:#000000;stroke-width:0.8;" x="30.55" xlink:href="#me8014109d7" y="387.136364"/>
      </g>
     </g>
     <g id="text_8">
      <!-- 0 -->
      <g transform="translate(17.1875 390.935582)scale(0.1 -0.1)">
       <use xlink:href="#DejaVuSans-48"/>
      </g>
     </g>
    </g>
    <g id="ytick_2">
     <g id="line2d_9">
      <g>
       <use style="stroke:#000000;stroke-width:0.8;" x="30.55" xlink:href="#me8014109d7" y="329.768682"/>
      </g>
     </g>
     <g id="text_9">
      <!-- 2 -->
      <g transform="translate(17.1875 333.567901)scale(0.1 -0.1)">
       <use xlink:href="#DejaVuSans-50"/>
      </g>
     </g>
    </g>
    <g id="ytick_3">
     <g id="line2d_10">
      <g>
       <use style="stroke:#000000;stroke-width:0.8;" x="30.55" xlink:href="#me8014109d7" y="272.401"/>
      </g>
     </g>
     <g id="text_10">
      <!-- 4 -->
      <defs>
       <path d="M 37.796875 64.3125 
L 12.890625 25.390625 
L 37.796875 25.390625 
z
M 35.203125 72.90625 
L 47.609375 72.90625 
L 47.609375 25.390625 
L 58.015625 25.390625 
L 58.015625 17.1875 
L 47.609375 17.1875 
L 47.609375 0 
L 37.796875 0 
L 37.796875 17.1875 
L 4.890625 17.1875 
L 4.890625 26.703125 
z
" id="DejaVuSans-52"/>
      </defs>
      <g transform="translate(17.1875 276.200219)scale(0.1 -0.1)">
       <use xlink:href="#DejaVuSans-52"/>
      </g>
     </g>
    </g>
    <g id="ytick_4">
     <g id="line2d_11">
      <g>
       <use style="stroke:#000000;stroke-width:0.8;" x="30.55" xlink:href="#me8014109d7" y="215.033318"/>
      </g>
     </g>
     <g id="text_11">
      <!-- 6 -->
      <defs>
       <path d="M 33.015625 40.375 
Q 26.375 40.375 22.484375 35.828125 
Q 18.609375 31.296875 18.609375 23.390625 
Q 18.609375 15.53125 22.484375 10.953125 
Q 26.375 6.390625 33.015625 6.390625 
Q 39.65625 6.390625 43.53125 10.953125 
Q 47.40625 15.53125 47.40625 23.390625 
Q 47.40625 31.296875 43.53125 35.828125 
Q 39.65625 40.375 33.015625 40.375 
z
M 52.59375 71.296875 
L 52.59375 62.3125 
Q 48.875 64.0625 45.09375 64.984375 
Q 41.3125 65.921875 37.59375 65.921875 
Q 27.828125 65.921875 22.671875 59.328125 
Q 17.53125 52.734375 16.796875 39.40625 
Q 19.671875 43.65625 24.015625 45.921875 
Q 28.375 48.1875 33.59375 48.1875 
Q 44.578125 48.1875 50.953125 41.515625 
Q 57.328125 34.859375 57.328125 23.390625 
Q 57.328125 12.15625 50.6875 5.359375 
Q 44.046875 -1.421875 33.015625 -1.421875 
Q 20.359375 -1.421875 13.671875 8.265625 
Q 6.984375 17.96875 6.984375 36.375 
Q 6.984375 53.65625 15.1875 63.9375 
Q 23.390625 74.21875 37.203125 74.21875 
Q 40.921875 74.21875 44.703125 73.484375 
Q 48.484375 72.75 52.59375 71.296875 
z
" id="DejaVuSans-54"/>
      </defs>
      <g transform="translate(17.1875 218.832537)scale(0.1 -0.1)">
       <use xlink:href="#DejaVuSans-54"/>
      </g>
     </g>
    </g>
    <g id="ytick_5">
     <g id="line2d_12">
      <g>
       <use style="stroke:#000000;stroke-width:0.8;" x="30.55" xlink:href="#me8014109d7" y="157.665637"/>
      </g>
     </g>
     <g id="text_12">
      <!-- 8 -->
      <defs>
       <path d="M 31.78125 34.625 
Q 24.75 34.625 20.71875 30.859375 
Q 16.703125 27.09375 16.703125 20.515625 
Q 16.703125 13.921875 20.71875 10.15625 
Q 24.75 6.390625 31.78125 6.390625 
Q 38.8125 6.390625 42.859375 10.171875 
Q 46.921875 13.96875 46.921875 20.515625 
Q 46.921875 27.09375 42.890625 30.859375 
Q 38.875 34.625 31.78125 34.625 
z
M 21.921875 38.8125 
Q 15.578125 40.375 12.03125 44.71875 
Q 8.5 49.078125 8.5 55.328125 
Q 8.5 64.0625 14.71875 69.140625 
Q 20.953125 74.21875 31.78125 74.21875 
Q 42.671875 74.21875 48.875 69.140625 
Q 55.078125 64.0625 55.078125 55.328125 
Q 55.078125 49.078125 51.53125 44.71875 
Q 48 40.375 41.703125 38.8125 
Q 48.828125 37.15625 52.796875 32.3125 
Q 56.78125 27.484375 56.78125 20.515625 
Q 56.78125 9.90625 50.3125 4.234375 
Q 43.84375 -1.421875 31.78125 -1.421875 
Q 19.734375 -1.421875 13.25 4.234375 
Q 6.78125 9.90625 6.78125 20.515625 
Q 6.78125 27.484375 10.78125 32.3125 
Q 14.796875 37.15625 21.921875 38.8125 
z
M 18.3125 54.390625 
Q 18.3125 48.734375 21.84375 45.5625 
Q 25.390625 42.390625 31.78125 42.390625 
Q 38.140625 42.390625 41.71875 45.5625 
Q 45.3125 48.734375 45.3125 54.390625 
Q 45.3125 60.0625 41.71875 63.234375 
Q 38.140625 66.40625 31.78125 66.40625 
Q 25.390625 66.40625 21.84375 63.234375 
Q 18.3125 60.0625 18.3125 54.390625 
z
" id="DejaVuSans-56"/>
      </defs>
      <g transform="translate(17.1875 161.464855)scale(0.1 -0.1)">
       <use xlink:href="#DejaVuSans-56"/>
      </g>
     </g>
    </g>
    <g id="ytick_6">
     <g id="line2d_13">
      <g>
       <use style="stroke:#000000;stroke-width:0.8;" x="30.55" xlink:href="#me8014109d7" y="100.297955"/>
      </g>
     </g>
     <g id="text_13">
      <!-- 10 -->
      <g transform="translate(10.825 104.097174)scale(0.1 -0.1)">
       <use xlink:href="#DejaVuSans-49"/>
       <use x="63.623047" xlink:href="#DejaVuSans-48"/>
      </g>
     </g>
    </g>
    <g id="ytick_7">
     <g id="line2d_14">
      <g>
       <use style="stroke:#000000;stroke-width:0.8;" x="30.55" xlink:href="#me8014109d7" y="42.930273"/>
      </g>
     </g>
     <g id="text_14">
      <!-- 12 -->
      <g transform="translate(10.825 46.729492)scale(0.1 -0.1)">
       <use xlink:href="#DejaVuSans-49"/>
       <use x="63.623047" xlink:href="#DejaVuSans-50"/>
      </g>
     </g>
    </g>
   </g>
   <g id="patch_3">
    <path d="M 30.55 404.2 
L 30.55 28.8 
" style="fill:none;stroke:#000000;stroke-linecap:square;stroke-linejoin:miter;stroke-width:0.8;"/>
   </g>
   <g id="patch_4">
    <path d="M 853.2 404.2 
L 853.2 28.8 
" style="fill:none;stroke:#000000;stroke-linecap:square;stroke-linejoin:miter;stroke-width:0.8;"/>
   </g>
   <g id="patch_5">
    <path d="M 30.55 404.2 
L 853.2 404.2 
" style="fill:none;stroke:#000000;stroke-linecap:square;stroke-linejoin:miter;stroke-width:0.8;"/>
   </g>
   <g id="patch_6">
    <path d="M 30.55 28.8 
L 853.2 28.8 
" style="fill:none;stroke:#000000;stroke-linecap:square;stroke-linejoin:miter;stroke-width:0.8;"/>
   </g>
   <g id="text_15">
    <!-- SOI - -17.09% -->
    <defs>
     <path d="M 59.90625 70.609375 
L 59.90625 55.171875 
Q 53.90625 57.859375 48.1875 59.21875 
Q 42.484375 60.59375 37.40625 60.59375 
Q 30.671875 60.59375 27.4375 58.734375 
Q 24.21875 56.890625 24.21875 52.984375 
Q 24.21875 50.046875 26.390625 48.40625 
Q 28.5625 46.78125 34.28125 45.609375 
L 42.28125 44 
Q 54.4375 41.546875 59.5625 36.5625 
Q 64.703125 31.59375 64.703125 22.40625 
Q 64.703125 10.359375 57.546875 4.46875 
Q 50.390625 -1.421875 35.6875 -1.421875 
Q 28.765625 -1.421875 21.78125 -0.09375 
Q 14.796875 1.21875 7.8125 3.8125 
L 7.8125 19.671875 
Q 14.796875 15.96875 21.3125 14.078125 
Q 27.828125 12.203125 33.890625 12.203125 
Q 40.046875 12.203125 43.3125 14.25 
Q 46.578125 16.3125 46.578125 20.125 
Q 46.578125 23.53125 44.359375 25.390625 
Q 42.140625 27.25 35.5 28.71875 
L 28.21875 30.328125 
Q 17.28125 32.671875 12.21875 37.796875 
Q 7.171875 42.921875 7.171875 51.609375 
Q 7.171875 62.5 14.203125 68.359375 
Q 21.234375 74.21875 34.421875 74.21875 
Q 40.4375 74.21875 46.78125 73.3125 
Q 53.125 72.40625 59.90625 70.609375 
z
" id="DejaVuSans-Bold-83"/>
     <path d="M 42.484375 60.59375 
Q 33.890625 60.59375 29.15625 54.25 
Q 24.421875 47.90625 24.421875 36.375 
Q 24.421875 24.90625 29.15625 18.546875 
Q 33.890625 12.203125 42.484375 12.203125 
Q 51.125 12.203125 55.859375 18.546875 
Q 60.59375 24.90625 60.59375 36.375 
Q 60.59375 47.90625 55.859375 54.25 
Q 51.125 60.59375 42.484375 60.59375 
z
M 42.484375 74.21875 
Q 60.0625 74.21875 70.015625 64.15625 
Q 79.984375 54.109375 79.984375 36.375 
Q 79.984375 18.703125 70.015625 8.640625 
Q 60.0625 -1.421875 42.484375 -1.421875 
Q 24.953125 -1.421875 14.96875 8.640625 
Q 4.984375 18.703125 4.984375 36.375 
Q 4.984375 54.109375 14.96875 64.15625 
Q 24.953125 74.21875 42.484375 74.21875 
z
" id="DejaVuSans-Bold-79"/>
     <path d="M 9.1875 72.90625 
L 27.984375 72.90625 
L 27.984375 0 
L 9.1875 0 
z
" id="DejaVuSans-Bold-73"/>
     <path id="DejaVuSans-Bold-32"/>
     <path d="M 5.421875 35.890625 
L 36.078125 35.890625 
L 36.078125 21.6875 
L 5.421875 21.6875 
z
" id="DejaVuSans-Bold-45"/>
     <path d="M 11.71875 12.984375 
L 28.328125 12.984375 
L 28.328125 60.109375 
L 11.28125 56.59375 
L 11.28125 69.390625 
L 28.21875 72.90625 
L 46.09375 72.90625 
L 46.09375 12.984375 
L 62.703125 12.984375 
L 62.703125 0 
L 11.71875 0 
z
" id="DejaVuSans-Bold-49"/>
     <path d="M 6.6875 72.90625 
L 61.625 72.90625 
L 61.625 62.3125 
L 33.203125 0 
L 14.890625 0 
L 41.796875 59.078125 
L 6.6875 59.078125 
z
" id="DejaVuSans-Bold-55"/>
     <path d="M 10.203125 18.890625 
L 27.78125 18.890625 
L 27.78125 0 
L 10.203125 0 
z
" id="DejaVuSans-Bold-46"/>
     <path d="M 46 36.53125 
Q 46 50.203125 43.4375 55.78125 
Q 40.875 61.375 34.8125 61.375 
Q 28.765625 61.375 26.171875 55.78125 
Q 23.578125 50.203125 23.578125 36.53125 
Q 23.578125 22.703125 26.171875 17.03125 
Q 28.765625 11.375 34.8125 11.375 
Q 40.828125 11.375 43.40625 17.03125 
Q 46 22.703125 46 36.53125 
z
M 64.796875 36.375 
Q 64.796875 18.265625 56.984375 8.421875 
Q 49.171875 -1.421875 34.8125 -1.421875 
Q 20.40625 -1.421875 12.59375 8.421875 
Q 4.78125 18.265625 4.78125 36.375 
Q 4.78125 54.546875 12.59375 64.375 
Q 20.40625 74.21875 34.8125 74.21875 
Q 49.171875 74.21875 56.984375 64.375 
Q 64.796875 54.546875 64.796875 36.375 
z
" id="DejaVuSans-Bold-48"/>
     <path d="M 10.015625 1.609375 
L 10.015625 15.09375 
Q 14.5 12.984375 18.59375 11.9375 
Q 22.703125 10.890625 26.703125 10.890625 
Q 35.109375 10.890625 39.796875 15.546875 
Q 44.484375 20.21875 45.3125 29.390625 
Q 42 26.953125 38.234375 25.734375 
Q 34.46875 24.515625 30.078125 24.515625 
Q 18.890625 24.515625 12.03125 31.03125 
Q 5.171875 37.546875 5.171875 48.1875 
Q 5.171875 59.96875 12.8125 67.046875 
Q 20.453125 74.125 33.296875 74.125 
Q 47.5625 74.125 55.375 64.5 
Q 63.1875 54.890625 63.1875 37.3125 
Q 63.1875 19.234375 54.046875 8.90625 
Q 44.921875 -1.421875 29 -1.421875 
Q 23.875 -1.421875 19.1875 -0.65625 
Q 14.5 0.09375 10.015625 1.609375 
z
M 33.203125 36.71875 
Q 38.140625 36.71875 40.625 39.90625 
Q 43.109375 43.109375 43.109375 49.515625 
Q 43.109375 55.859375 40.625 59.078125 
Q 38.140625 62.3125 33.203125 62.3125 
Q 28.265625 62.3125 25.78125 59.078125 
Q 23.296875 55.859375 23.296875 49.515625 
Q 23.296875 43.109375 25.78125 39.90625 
Q 28.265625 36.71875 33.203125 36.71875 
z
" id="DejaVuSans-Bold-57"/>
     <path d="M 77.484375 30.078125 
Q 74.03125 30.078125 72.125 27.078125 
Q 70.21875 24.078125 70.21875 18.5 
Q 70.21875 12.890625 72.09375 9.890625 
Q 73.96875 6.890625 77.484375 6.890625 
Q 81 6.890625 82.859375 9.890625 
Q 84.71875 12.890625 84.71875 18.5 
Q 84.71875 24.078125 82.828125 27.078125 
Q 80.953125 30.078125 77.484375 30.078125 
z
M 77.484375 38.28125 
Q 86.578125 38.28125 91.796875 33 
Q 97.015625 27.734375 97.015625 18.5 
Q 97.015625 9.28125 91.796875 3.921875 
Q 86.578125 -1.421875 77.484375 -1.421875 
Q 68.40625 -1.421875 63.15625 3.921875 
Q 57.90625 9.28125 57.90625 18.5 
Q 57.90625 27.6875 63.15625 32.984375 
Q 68.40625 38.28125 77.484375 38.28125 
z
M 32.71875 -1.421875 
L 21.921875 -1.421875 
L 67.484375 74.21875 
L 78.328125 74.21875 
z
M 22.703125 74.21875 
Q 31.78125 74.21875 36.984375 68.921875 
Q 42.1875 63.625 42.1875 54.390625 
Q 42.1875 45.171875 36.984375 39.84375 
Q 31.78125 34.515625 22.703125 34.515625 
Q 13.625 34.515625 8.421875 39.84375 
Q 3.21875 45.171875 3.21875 54.390625 
Q 3.21875 63.625 8.421875 68.921875 
Q 13.625 74.21875 22.703125 74.21875 
z
M 22.703125 66.015625 
Q 19.1875 66.015625 17.28125 62.984375 
Q 15.375 59.96875 15.375 54.390625 
Q 15.375 48.78125 17.28125 45.71875 
Q 19.1875 42.671875 22.703125 42.671875 
Q 26.21875 42.671875 28.09375 45.71875 
Q 29.984375 48.78125 29.984375 54.390625 
Q 29.984375 59.96875 28.078125 62.984375 
Q 26.171875 66.015625 22.703125 66.015625 
z
" id="DejaVuSans-Bold-37"/>
    </defs>
    <g transform="translate(30.55 22.8)scale(0.16 -0.16)">
     <use xlink:href="#DejaVuSans-Bold-83"/>
     <use x="72.021484" xlink:href="#DejaVuSans-Bold-79"/>
     <use x="157.03125" xlink:href="#DejaVuSans-Bold-73"/>
     <use x="194.238281" xlink:href="#DejaVuSans-Bold-32"/>
     <use x="229.052734" xlink:href="#DejaVuSans-Bold-45"/>
     <use x="270.556641" xlink:href="#DejaVuSans-Bold-32"/>
     <use x="305.371094" xlink:href="#DejaVuSans-Bold-45"/>
     <use x="346.875" xlink:href="#DejaVuSans-Bold-49"/>
     <use x="416.455078" xlink:href="#DejaVuSans-Bold-55"/>
     <use x="486.035156" xlink:href="#DejaVuSans-Bold-46"/>
     <use x="524.023438" xlink:href="#DejaVuSans-Bold-48"/>
     <use x="593.603516" xlink:href="#DejaVuSans-Bold-57"/>
     <use x="663.183594" xlink:href="#DejaVuSans-Bold-37"/>
    </g>
   </g>
  </g>
 </g>
 <defs>
  <clipPath id="p638e219642">
   <rect height="375.4" width="822.65" x="30.55" y="28.8"/>
  </clipPath>
 </defs>
</svg>
