<?xml version="1.0" encoding="utf-8" standalone="no"?>
<!DOCTYPE svg PUBLIC "-//W3C//DTD SVG 1.1//EN"
  "http://www.w3.org/Graphics/SVG/1.1/DTD/svg11.dtd">
<!-- Created with matplotlib (https://matplotlib.org/) -->
<svg height="432pt" version="1.1" viewBox="0 0 864 432" width="864pt" xmlns="http://www.w3.org/2000/svg" xmlns:xlink="http://www.w3.org/1999/xlink">
 <defs>
  <style type="text/css">
*{stroke-linecap:butt;stroke-linejoin:round;}
  </style>
 </defs>
 <g id="figure_1">
  <g id="patch_1">
   <path d="M 0 432 
L 864 432 
L 864 0 
L 0 0 
z
" style="fill:none;"/>
  </g>
  <g id="axes_1">
   <g id="patch_2">
    <path d="M 75.175 385.2 
L 840.323864 385.2 
L 840.323864 88.8 
L 75.175 88.8 
z
" style="fill:none;"/>
   </g>
   <g id="PolyCollection_1">
    <path clip-path="url(#p3e400d055c)" d="M 109.954494 1580.379533 
L 109.954494 326.883055 
L 113.755531 316.950689 
L 117.556569 311.324528 
L 128.959682 287.257641 
L 132.760719 322.541918 
L 136.561757 343.344379 
L 140.362794 332.829779 
L 144.163832 324.264975 
L 159.367982 311.905057 
L 163.16902 301.111961 
L 166.970057 295.680482 
L 170.771095 271.169598 
L 182.174208 263.962557 
L 185.975245 260.202376 
L 189.776283 277.575869 
L 193.57732 249.826972 
L 197.378358 243.420701 
L 208.781471 239.03377 
L 212.582508 220.58101 
L 216.383546 211.772428 
L 220.184583 187.783712 
L 223.985621 204.39126 
L 239.189771 216.124534 
L 242.990809 225.629517 
L 246.791846 228.658472 
L 250.592884 221.277411 
L 261.995997 232.940927 
L 265.797034 219.014188 
L 269.598072 217.238626 
L 273.399109 202.197794 
L 277.200147 184.615349 
L 288.60326 198.437612 
L 296.205335 189.106756 
L 300.006372 203.869092 
L 303.80741 211.215328 
L 315.210523 193.180366 
L 319.01156 200.178455 
L 322.812598 164.874369 
L 326.613636 145.829685 
L 330.414673 131.937877 
L 341.817786 127.167973 
L 345.618823 111.639692 
L 349.419861 109.272205 
L 353.220899 104.885274 
L 357.021936 106.626116 
L 368.425049 108.33224 
L 372.226086 91.863887 
L 376.027124 88.8 
L 379.828162 202.754893 
L 383.629199 215.010335 
L 395.032312 206.828397 
L 398.833349 193.598164 
L 402.634387 207.733643 
L 406.435425 244.395599 
L 410.236462 233.532852 
L 421.639575 221.207653 
L 425.440612 234.68177 
L 429.24165 230.677811 
L 433.042688 230.155643 
L 436.843725 230.573335 
L 448.246838 227.091756 
L 452.047875 232.801732 
L 455.848913 233.846174 
L 459.649951 242.097657 
L 463.450988 250.384071 
L 474.854101 262.639513 
L 478.655138 245.022242 
L 482.456176 216.5074 
L 486.257214 232.906102 
L 490.058251 225.403099 
L 501.461364 217.865163 
L 505.262401 210.641295 
L 509.063439 211.060052 
L 512.864477 216.364584 
L 516.665514 204.569114 
L 531.869665 206.97707 
L 535.670702 204.883181 
L 539.47174 206.872381 
L 543.272777 216.888029 
L 554.67589 221.599252 
L 558.476928 228.823014 
L 562.277965 219.889188 
L 566.079003 197.764002 
L 569.88004 225.437924 
L 581.283153 221.040875 
L 585.084191 221.773699 
L 588.885228 232.487346 
L 592.686266 281.099941 
L 596.487303 283.263587 
L 607.890416 284.066274 
L 611.691454 309.855685 
L 615.492491 313.380396 
L 619.293529 294.291301 
L 623.094566 305.179394 
L 634.497679 300.607792 
L 638.298717 336.552473 
L 642.099754 316.102419 
L 645.900792 319.592198 
L 649.701829 309.890617 
L 661.104942 301.480237 
L 664.90598 290.627076 
L 668.707017 282.530763 
L 672.508055 303.748572 
L 676.309092 311.112061 
L 687.712205 297.746148 
L 691.513243 298.548836 
L 695.31428 324.40811 
L 699.115318 332.57418 
L 702.916355 358.852212 
L 714.319468 358.258902 
L 718.120506 366.145837 
L 721.921543 361.992991 
L 725.722581 365.029082 
L 729.523618 385.2 
L 740.926731 376.161485 
L 744.727769 361.364857 
L 748.528806 354.071231 
L 752.329844 268.501783 
L 756.130881 244.143195 
L 767.533994 238.036081 
L 771.335032 238.315217 
L 775.136069 231.998725 
L 778.937107 227.462055 
L 782.738144 205.511316 
L 794.141257 202.579914 
L 797.942295 170.822905 
L 801.743332 177.279017 
L 805.54437 170.578595 
L 805.54437 1580.379533 
L 805.54437 1580.379533 
L 801.743332 1580.379533 
L 797.942295 1580.379533 
L 794.141257 1580.379533 
L 782.738144 1580.379533 
L 778.937107 1580.379533 
L 775.136069 1580.379533 
L 771.335032 1580.379533 
L 767.533994 1580.379533 
L 756.130881 1580.379533 
L 752.329844 1580.379533 
L 748.528806 1580.379533 
L 744.727769 1580.379533 
L 740.926731 1580.379533 
L 729.523618 1580.379533 
L 725.722581 1580.379533 
L 721.921543 1580.379533 
L 718.120506 1580.379533 
L 714.319468 1580.379533 
L 702.916355 1580.379533 
L 699.115318 1580.379533 
L 695.31428 1580.379533 
L 691.513243 1580.379533 
L 687.712205 1580.379533 
L 676.309092 1580.379533 
L 672.508055 1580.379533 
L 668.707017 1580.379533 
L 664.90598 1580.379533 
L 661.104942 1580.379533 
L 649.701829 1580.379533 
L 645.900792 1580.379533 
L 642.099754 1580.379533 
L 638.298717 1580.379533 
L 634.497679 1580.379533 
L 623.094566 1580.379533 
L 619.293529 1580.379533 
L 615.492491 1580.379533 
L 611.691454 1580.379533 
L 607.890416 1580.379533 
L 596.487303 1580.379533 
L 592.686266 1580.379533 
L 588.885228 1580.379533 
L 585.084191 1580.379533 
L 581.283153 1580.379533 
L 569.88004 1580.379533 
L 566.079003 1580.379533 
L 562.277965 1580.379533 
L 558.476928 1580.379533 
L 554.67589 1580.379533 
L 543.272777 1580.379533 
L 539.47174 1580.379533 
L 535.670702 1580.379533 
L 531.869665 1580.379533 
L 516.665514 1580.379533 
L 512.864477 1580.379533 
L 509.063439 1580.379533 
L 505.262401 1580.379533 
L 501.461364 1580.379533 
L 490.058251 1580.379533 
L 486.257214 1580.379533 
L 482.456176 1580.379533 
L 478.655138 1580.379533 
L 474.854101 1580.379533 
L 463.450988 1580.379533 
L 459.649951 1580.379533 
L 455.848913 1580.379533 
L 452.047875 1580.379533 
L 448.246838 1580.379533 
L 436.843725 1580.379533 
L 433.042688 1580.379533 
L 429.24165 1580.379533 
L 425.440612 1580.379533 
L 421.639575 1580.379533 
L 410.236462 1580.379533 
L 406.435425 1580.379533 
L 402.634387 1580.379533 
L 398.833349 1580.379533 
L 395.032312 1580.379533 
L 383.629199 1580.379533 
L 379.828162 1580.379533 
L 376.027124 1580.379533 
L 372.226086 1580.379533 
L 368.425049 1580.379533 
L 357.021936 1580.379533 
L 353.220899 1580.379533 
L 349.419861 1580.379533 
L 345.618823 1580.379533 
L 341.817786 1580.379533 
L 330.414673 1580.379533 
L 326.613636 1580.379533 
L 322.812598 1580.379533 
L 319.01156 1580.379533 
L 315.210523 1580.379533 
L 303.80741 1580.379533 
L 300.006372 1580.379533 
L 296.205335 1580.379533 
L 288.60326 1580.379533 
L 277.200147 1580.379533 
L 273.399109 1580.379533 
L 269.598072 1580.379533 
L 265.797034 1580.379533 
L 261.995997 1580.379533 
L 250.592884 1580.379533 
L 246.791846 1580.379533 
L 242.990809 1580.379533 
L 239.189771 1580.379533 
L 223.985621 1580.379533 
L 220.184583 1580.379533 
L 216.383546 1580.379533 
L 212.582508 1580.379533 
L 208.781471 1580.379533 
L 197.378358 1580.379533 
L 193.57732 1580.379533 
L 189.776283 1580.379533 
L 185.975245 1580.379533 
L 182.174208 1580.379533 
L 170.771095 1580.379533 
L 166.970057 1580.379533 
L 163.16902 1580.379533 
L 159.367982 1580.379533 
L 144.163832 1580.379533 
L 140.362794 1580.379533 
L 136.561757 1580.379533 
L 132.760719 1580.379533 
L 128.959682 1580.379533 
L 117.556569 1580.379533 
L 113.755531 1580.379533 
L 109.954494 1580.379533 
z
" style="fill:#0000ff;fill-opacity:0.1;stroke:#0000ff;stroke-opacity:0.1;"/>
   </g>
   <g id="matplotlib.axis_1">
    <g id="xtick_1">
     <g id="line2d_1">
      <defs>
       <path d="M 0 0 
L 0 3.5 
" id="mca7e1f1f99" style="stroke:#000000;stroke-width:0.8;"/>
      </defs>
      <g>
       <use style="stroke:#000000;stroke-width:0.8;" x="109.954494" xlink:href="#mca7e1f1f99" y="385.2"/>
      </g>
     </g>
     <g id="text_1">
      <!-- 05/23 -->
      <defs>
       <path d="M 31.78125 66.40625 
Q 24.171875 66.40625 20.328125 58.90625 
Q 16.5 51.421875 16.5 36.375 
Q 16.5 21.390625 20.328125 13.890625 
Q 24.171875 6.390625 31.78125 6.390625 
Q 39.453125 6.390625 43.28125 13.890625 
Q 47.125 21.390625 47.125 36.375 
Q 47.125 51.421875 43.28125 58.90625 
Q 39.453125 66.40625 31.78125 66.40625 
z
M 31.78125 74.21875 
Q 44.046875 74.21875 50.515625 64.515625 
Q 56.984375 54.828125 56.984375 36.375 
Q 56.984375 17.96875 50.515625 8.265625 
Q 44.046875 -1.421875 31.78125 -1.421875 
Q 19.53125 -1.421875 13.0625 8.265625 
Q 6.59375 17.96875 6.59375 36.375 
Q 6.59375 54.828125 13.0625 64.515625 
Q 19.53125 74.21875 31.78125 74.21875 
z
" id="DejaVuSans-48"/>
       <path d="M 10.796875 72.90625 
L 49.515625 72.90625 
L 49.515625 64.59375 
L 19.828125 64.59375 
L 19.828125 46.734375 
Q 21.96875 47.46875 24.109375 47.828125 
Q 26.265625 48.1875 28.421875 48.1875 
Q 40.625 48.1875 47.75 41.5 
Q 54.890625 34.8125 54.890625 23.390625 
Q 54.890625 11.625 47.5625 5.09375 
Q 40.234375 -1.421875 26.90625 -1.421875 
Q 22.3125 -1.421875 17.546875 -0.640625 
Q 12.796875 0.140625 7.71875 1.703125 
L 7.71875 11.625 
Q 12.109375 9.234375 16.796875 8.0625 
Q 21.484375 6.890625 26.703125 6.890625 
Q 35.15625 6.890625 40.078125 11.328125 
Q 45.015625 15.765625 45.015625 23.390625 
Q 45.015625 31 40.078125 35.4375 
Q 35.15625 39.890625 26.703125 39.890625 
Q 22.75 39.890625 18.8125 39.015625 
Q 14.890625 38.140625 10.796875 36.28125 
z
" id="DejaVuSans-53"/>
       <path d="M 25.390625 72.90625 
L 33.6875 72.90625 
L 8.296875 -9.28125 
L 0 -9.28125 
z
" id="DejaVuSans-47"/>
       <path d="M 19.1875 8.296875 
L 53.609375 8.296875 
L 53.609375 0 
L 7.328125 0 
L 7.328125 8.296875 
Q 12.9375 14.109375 22.625 23.890625 
Q 32.328125 33.6875 34.8125 36.53125 
Q 39.546875 41.84375 41.421875 45.53125 
Q 43.3125 49.21875 43.3125 52.78125 
Q 43.3125 58.59375 39.234375 62.25 
Q 35.15625 65.921875 28.609375 65.921875 
Q 23.96875 65.921875 18.8125 64.3125 
Q 13.671875 62.703125 7.8125 59.421875 
L 7.8125 69.390625 
Q 13.765625 71.78125 18.9375 73 
Q 24.125 74.21875 28.421875 74.21875 
Q 39.75 74.21875 46.484375 68.546875 
Q 53.21875 62.890625 53.21875 53.421875 
Q 53.21875 48.921875 51.53125 44.890625 
Q 49.859375 40.875 45.40625 35.40625 
Q 44.1875 33.984375 37.640625 27.21875 
Q 31.109375 20.453125 19.1875 8.296875 
z
" id="DejaVuSans-50"/>
       <path d="M 40.578125 39.3125 
Q 47.65625 37.796875 51.625 33 
Q 55.609375 28.21875 55.609375 21.1875 
Q 55.609375 10.40625 48.1875 4.484375 
Q 40.765625 -1.421875 27.09375 -1.421875 
Q 22.515625 -1.421875 17.65625 -0.515625 
Q 12.796875 0.390625 7.625 2.203125 
L 7.625 11.71875 
Q 11.71875 9.328125 16.59375 8.109375 
Q 21.484375 6.890625 26.8125 6.890625 
Q 36.078125 6.890625 40.9375 10.546875 
Q 45.796875 14.203125 45.796875 21.1875 
Q 45.796875 27.640625 41.28125 31.265625 
Q 36.765625 34.90625 28.71875 34.90625 
L 20.21875 34.90625 
L 20.21875 43.015625 
L 29.109375 43.015625 
Q 36.375 43.015625 40.234375 45.921875 
Q 44.09375 48.828125 44.09375 54.296875 
Q 44.09375 59.90625 40.109375 62.90625 
Q 36.140625 65.921875 28.71875 65.921875 
Q 24.65625 65.921875 20.015625 65.03125 
Q 15.375 64.15625 9.8125 62.3125 
L 9.8125 71.09375 
Q 15.4375 72.65625 20.34375 73.4375 
Q 25.25 74.21875 29.59375 74.21875 
Q 40.828125 74.21875 47.359375 69.109375 
Q 53.90625 64.015625 53.90625 55.328125 
Q 53.90625 49.265625 50.4375 45.09375 
Q 46.96875 40.921875 40.578125 39.3125 
z
" id="DejaVuSans-51"/>
      </defs>
      <g transform="translate(66.726369 414.995312)scale(0.3 -0.3)">
       <use xlink:href="#DejaVuSans-48"/>
       <use x="63.623047" xlink:href="#DejaVuSans-53"/>
       <use x="127.246094" xlink:href="#DejaVuSans-47"/>
       <use x="160.9375" xlink:href="#DejaVuSans-50"/>
       <use x="224.560547" xlink:href="#DejaVuSans-51"/>
      </g>
     </g>
    </g>
    <g id="xtick_2">
     <g id="line2d_2">
      <g>
       <use style="stroke:#000000;stroke-width:0.8;" x="463.450988" xlink:href="#mca7e1f1f99" y="385.2"/>
      </g>
     </g>
     <g id="text_2">
      <!-- 08/23 -->
      <defs>
       <path d="M 31.78125 34.625 
Q 24.75 34.625 20.71875 30.859375 
Q 16.703125 27.09375 16.703125 20.515625 
Q 16.703125 13.921875 20.71875 10.15625 
Q 24.75 6.390625 31.78125 6.390625 
Q 38.8125 6.390625 42.859375 10.171875 
Q 46.921875 13.96875 46.921875 20.515625 
Q 46.921875 27.09375 42.890625 30.859375 
Q 38.875 34.625 31.78125 34.625 
z
M 21.921875 38.8125 
Q 15.578125 40.375 12.03125 44.71875 
Q 8.5 49.078125 8.5 55.328125 
Q 8.5 64.0625 14.71875 69.140625 
Q 20.953125 74.21875 31.78125 74.21875 
Q 42.671875 74.21875 48.875 69.140625 
Q 55.078125 64.0625 55.078125 55.328125 
Q 55.078125 49.078125 51.53125 44.71875 
Q 48 40.375 41.703125 38.8125 
Q 48.828125 37.15625 52.796875 32.3125 
Q 56.78125 27.484375 56.78125 20.515625 
Q 56.78125 9.90625 50.3125 4.234375 
Q 43.84375 -1.421875 31.78125 -1.421875 
Q 19.734375 -1.421875 13.25 4.234375 
Q 6.78125 9.90625 6.78125 20.515625 
Q 6.78125 27.484375 10.78125 32.3125 
Q 14.796875 37.15625 21.921875 38.8125 
z
M 18.3125 54.390625 
Q 18.3125 48.734375 21.84375 45.5625 
Q 25.390625 42.390625 31.78125 42.390625 
Q 38.140625 42.390625 41.71875 45.5625 
Q 45.3125 48.734375 45.3125 54.390625 
Q 45.3125 60.0625 41.71875 63.234375 
Q 38.140625 66.40625 31.78125 66.40625 
Q 25.390625 66.40625 21.84375 63.234375 
Q 18.3125 60.0625 18.3125 54.390625 
z
" id="DejaVuSans-56"/>
      </defs>
      <g transform="translate(420.222863 414.995312)scale(0.3 -0.3)">
       <use xlink:href="#DejaVuSans-48"/>
       <use x="63.623047" xlink:href="#DejaVuSans-56"/>
       <use x="127.246094" xlink:href="#DejaVuSans-47"/>
       <use x="160.9375" xlink:href="#DejaVuSans-50"/>
       <use x="224.560547" xlink:href="#DejaVuSans-51"/>
      </g>
     </g>
    </g>
    <g id="xtick_3">
     <g id="line2d_3">
      <g>
       <use style="stroke:#000000;stroke-width:0.8;" x="805.54437" xlink:href="#mca7e1f1f99" y="385.2"/>
      </g>
     </g>
     <g id="text_3">
      <!-- 11/23 -->
      <defs>
       <path d="M 12.40625 8.296875 
L 28.515625 8.296875 
L 28.515625 63.921875 
L 10.984375 60.40625 
L 10.984375 69.390625 
L 28.421875 72.90625 
L 38.28125 72.90625 
L 38.28125 8.296875 
L 54.390625 8.296875 
L 54.390625 0 
L 12.40625 0 
z
" id="DejaVuSans-49"/>
      </defs>
      <g transform="translate(762.316245 414.995312)scale(0.3 -0.3)">
       <use xlink:href="#DejaVuSans-49"/>
       <use x="63.623047" xlink:href="#DejaVuSans-49"/>
       <use x="127.246094" xlink:href="#DejaVuSans-47"/>
       <use x="160.9375" xlink:href="#DejaVuSans-50"/>
       <use x="224.560547" xlink:href="#DejaVuSans-51"/>
      </g>
     </g>
    </g>
   </g>
   <g id="matplotlib.axis_2">
    <g id="ytick_1">
     <g id="line2d_4">
      <defs>
       <path d="M 0 0 
L -3.5 0 
" id="mf16d574b93" style="stroke:#000000;stroke-width:0.8;"/>
      </defs>
      <g>
       <use style="stroke:#000000;stroke-width:0.8;" x="75.175" xlink:href="#mf16d574b93" y="324.059111"/>
      </g>
     </g>
     <g id="text_4">
      <!-- 360 -->
      <defs>
       <path d="M 33.015625 40.375 
Q 26.375 40.375 22.484375 35.828125 
Q 18.609375 31.296875 18.609375 23.390625 
Q 18.609375 15.53125 22.484375 10.953125 
Q 26.375 6.390625 33.015625 6.390625 
Q 39.65625 6.390625 43.53125 10.953125 
Q 47.40625 15.53125 47.40625 23.390625 
Q 47.40625 31.296875 43.53125 35.828125 
Q 39.65625 40.375 33.015625 40.375 
z
M 52.59375 71.296875 
L 52.59375 62.3125 
Q 48.875 64.0625 45.09375 64.984375 
Q 41.3125 65.921875 37.59375 65.921875 
Q 27.828125 65.921875 22.671875 59.328125 
Q 17.53125 52.734375 16.796875 39.40625 
Q 19.671875 43.65625 24.015625 45.921875 
Q 28.375 48.1875 33.59375 48.1875 
Q 44.578125 48.1875 50.953125 41.515625 
Q 57.328125 34.859375 57.328125 23.390625 
Q 57.328125 12.15625 50.6875 5.359375 
Q 44.046875 -1.421875 33.015625 -1.421875 
Q 20.359375 -1.421875 13.671875 8.265625 
Q 6.984375 17.96875 6.984375 36.375 
Q 6.984375 53.65625 15.1875 63.9375 
Q 23.390625 74.21875 37.203125 74.21875 
Q 40.921875 74.21875 44.703125 73.484375 
Q 48.484375 72.75 52.59375 71.296875 
z
" id="DejaVuSans-54"/>
      </defs>
      <g transform="translate(10.9125 335.456767)scale(0.3 -0.3)">
       <use xlink:href="#DejaVuSans-51"/>
       <use x="63.623047" xlink:href="#DejaVuSans-54"/>
       <use x="127.246094" xlink:href="#DejaVuSans-48"/>
      </g>
     </g>
    </g>
    <g id="ytick_2">
     <g id="line2d_5">
      <g>
       <use style="stroke:#000000;stroke-width:0.8;" x="75.175" xlink:href="#mf16d574b93" y="219.365743"/>
      </g>
     </g>
     <g id="text_5">
      <!-- 390 -->
      <defs>
       <path d="M 10.984375 1.515625 
L 10.984375 10.5 
Q 14.703125 8.734375 18.5 7.8125 
Q 22.3125 6.890625 25.984375 6.890625 
Q 35.75 6.890625 40.890625 13.453125 
Q 46.046875 20.015625 46.78125 33.40625 
Q 43.953125 29.203125 39.59375 26.953125 
Q 35.25 24.703125 29.984375 24.703125 
Q 19.046875 24.703125 12.671875 31.3125 
Q 6.296875 37.9375 6.296875 49.421875 
Q 6.296875 60.640625 12.9375 67.421875 
Q 19.578125 74.21875 30.609375 74.21875 
Q 43.265625 74.21875 49.921875 64.515625 
Q 56.59375 54.828125 56.59375 36.375 
Q 56.59375 19.140625 48.40625 8.859375 
Q 40.234375 -1.421875 26.421875 -1.421875 
Q 22.703125 -1.421875 18.890625 -0.6875 
Q 15.09375 0.046875 10.984375 1.515625 
z
M 30.609375 32.421875 
Q 37.25 32.421875 41.125 36.953125 
Q 45.015625 41.5 45.015625 49.421875 
Q 45.015625 57.28125 41.125 61.84375 
Q 37.25 66.40625 30.609375 66.40625 
Q 23.96875 66.40625 20.09375 61.84375 
Q 16.21875 57.28125 16.21875 49.421875 
Q 16.21875 41.5 20.09375 36.953125 
Q 23.96875 32.421875 30.609375 32.421875 
z
" id="DejaVuSans-57"/>
      </defs>
      <g transform="translate(10.9125 230.763399)scale(0.3 -0.3)">
       <use xlink:href="#DejaVuSans-51"/>
       <use x="63.623047" xlink:href="#DejaVuSans-57"/>
       <use x="127.246094" xlink:href="#DejaVuSans-48"/>
      </g>
     </g>
    </g>
    <g id="ytick_3">
     <g id="line2d_6">
      <g>
       <use style="stroke:#000000;stroke-width:0.8;" x="75.175" xlink:href="#mf16d574b93" y="114.672374"/>
      </g>
     </g>
     <g id="text_6">
      <!-- 420 -->
      <defs>
       <path d="M 37.796875 64.3125 
L 12.890625 25.390625 
L 37.796875 25.390625 
z
M 35.203125 72.90625 
L 47.609375 72.90625 
L 47.609375 25.390625 
L 58.015625 25.390625 
L 58.015625 17.1875 
L 47.609375 17.1875 
L 47.609375 0 
L 37.796875 0 
L 37.796875 17.1875 
L 4.890625 17.1875 
L 4.890625 26.703125 
z
" id="DejaVuSans-52"/>
      </defs>
      <g transform="translate(10.9125 126.07003)scale(0.3 -0.3)">
       <use xlink:href="#DejaVuSans-52"/>
       <use x="63.623047" xlink:href="#DejaVuSans-50"/>
       <use x="127.246094" xlink:href="#DejaVuSans-48"/>
      </g>
     </g>
    </g>
   </g>
   <g id="line2d_7">
    <path clip-path="url(#p3e400d055c)" d="M 109.954494 326.883055 
L 113.755531 316.950689 
L 117.556569 311.324528 
L 128.959682 287.257641 
L 132.760719 322.541918 
L 136.561757 343.344379 
L 140.362794 332.829779 
L 144.163832 324.264975 
L 159.367982 311.905057 
L 163.16902 301.111961 
L 166.970057 295.680482 
L 170.771095 271.169598 
L 182.174208 263.962557 
L 185.975245 260.202376 
L 189.776283 277.575869 
L 193.57732 249.826972 
L 197.378358 243.420701 
L 208.781471 239.03377 
L 212.582508 220.58101 
L 216.383546 211.772428 
L 220.184583 187.783712 
L 223.985621 204.39126 
L 239.189771 216.124534 
L 242.990809 225.629517 
L 246.791846 228.658472 
L 250.592884 221.277411 
L 261.995997 232.940927 
L 265.797034 219.014188 
L 269.598072 217.238626 
L 273.399109 202.197794 
L 277.200147 184.615349 
L 288.60326 198.437612 
L 296.205335 189.106756 
L 300.006372 203.869092 
L 303.80741 211.215328 
L 315.210523 193.180366 
L 319.01156 200.178455 
L 322.812598 164.874369 
L 326.613636 145.829685 
L 330.414673 131.937877 
L 341.817786 127.167973 
L 345.618823 111.639692 
L 349.419861 109.272205 
L 353.220899 104.885274 
L 357.021936 106.626116 
L 368.425049 108.33224 
L 372.226086 91.863887 
L 376.027124 88.8 
L 379.828162 202.754893 
L 383.629199 215.010335 
L 395.032312 206.828397 
L 398.833349 193.598164 
L 402.634387 207.733643 
L 406.435425 244.395599 
L 410.236462 233.532852 
L 421.639575 221.207653 
L 425.440612 234.68177 
L 429.24165 230.677811 
L 433.042688 230.155643 
L 436.843725 230.573335 
L 448.246838 227.091756 
L 452.047875 232.801732 
L 455.848913 233.846174 
L 463.450988 250.384071 
L 474.854101 262.639513 
L 478.655138 245.022242 
L 482.456176 216.5074 
L 486.257214 232.906102 
L 490.058251 225.403099 
L 501.461364 217.865163 
L 505.262401 210.641295 
L 509.063439 211.060052 
L 512.864477 216.364584 
L 516.665514 204.569114 
L 531.869665 206.97707 
L 535.670702 204.883181 
L 539.47174 206.872381 
L 543.272777 216.888029 
L 554.67589 221.599252 
L 558.476928 228.823014 
L 562.277965 219.889188 
L 566.079003 197.764002 
L 569.88004 225.437924 
L 581.283153 221.040875 
L 585.084191 221.773699 
L 588.885228 232.487346 
L 592.686266 281.099941 
L 596.487303 283.263587 
L 607.890416 284.066274 
L 611.691454 309.855685 
L 615.492491 313.380396 
L 619.293529 294.291301 
L 623.094566 305.179394 
L 634.497679 300.607792 
L 638.298717 336.552473 
L 642.099754 316.102419 
L 645.900792 319.592198 
L 649.701829 309.890617 
L 661.104942 301.480237 
L 664.90598 290.627076 
L 668.707017 282.530763 
L 672.508055 303.748572 
L 676.309092 311.112061 
L 687.712205 297.746148 
L 691.513243 298.548836 
L 695.31428 324.40811 
L 699.115318 332.57418 
L 702.916355 358.852212 
L 714.319468 358.258902 
L 718.120506 366.145837 
L 721.921543 361.992991 
L 725.722581 365.029082 
L 729.523618 385.2 
L 740.926731 376.161485 
L 744.727769 361.364857 
L 748.528806 354.071231 
L 752.329844 268.501783 
L 756.130881 244.143195 
L 767.533994 238.036081 
L 771.335032 238.315217 
L 775.136069 231.998725 
L 778.937107 227.462055 
L 782.738144 205.511316 
L 794.141257 202.579914 
L 797.942295 170.822905 
L 801.743332 177.279017 
L 805.54437 170.578595 
L 805.54437 170.578595 
" style="fill:none;stroke:#000000;stroke-linecap:square;stroke-width:4;"/>
   </g>
   <g id="patch_3">
    <path d="M 75.175 385.2 
L 75.175 88.8 
" style="fill:none;stroke:#000000;stroke-linecap:square;stroke-linejoin:miter;stroke-width:0.8;"/>
   </g>
   <g id="patch_4">
    <path d="M 75.175 385.2 
L 840.323864 385.2 
" style="fill:none;stroke:#000000;stroke-linecap:square;stroke-linejoin:miter;stroke-width:0.8;"/>
   </g>
   <g id="text_7">
    <!-- SPGI   12% -->
    <defs>
     <path d="M 59.90625 70.609375 
L 59.90625 55.171875 
Q 53.90625 57.859375 48.1875 59.21875 
Q 42.484375 60.59375 37.40625 60.59375 
Q 30.671875 60.59375 27.4375 58.734375 
Q 24.21875 56.890625 24.21875 52.984375 
Q 24.21875 50.046875 26.390625 48.40625 
Q 28.5625 46.78125 34.28125 45.609375 
L 42.28125 44 
Q 54.4375 41.546875 59.5625 36.5625 
Q 64.703125 31.59375 64.703125 22.40625 
Q 64.703125 10.359375 57.546875 4.46875 
Q 50.390625 -1.421875 35.6875 -1.421875 
Q 28.765625 -1.421875 21.78125 -0.09375 
Q 14.796875 1.21875 7.8125 3.8125 
L 7.8125 19.671875 
Q 14.796875 15.96875 21.3125 14.078125 
Q 27.828125 12.203125 33.890625 12.203125 
Q 40.046875 12.203125 43.3125 14.25 
Q 46.578125 16.3125 46.578125 20.125 
Q 46.578125 23.53125 44.359375 25.390625 
Q 42.140625 27.25 35.5 28.71875 
L 28.21875 30.328125 
Q 17.28125 32.671875 12.21875 37.796875 
Q 7.171875 42.921875 7.171875 51.609375 
Q 7.171875 62.5 14.203125 68.359375 
Q 21.234375 74.21875 34.421875 74.21875 
Q 40.4375 74.21875 46.78125 73.3125 
Q 53.125 72.40625 59.90625 70.609375 
z
" id="DejaVuSans-Bold-83"/>
     <path d="M 9.1875 72.90625 
L 40.375 72.90625 
Q 54.296875 72.90625 61.734375 66.71875 
Q 69.1875 60.546875 69.1875 49.125 
Q 69.1875 37.640625 61.734375 31.46875 
Q 54.296875 25.296875 40.375 25.296875 
L 27.984375 25.296875 
L 27.984375 0 
L 9.1875 0 
z
M 27.984375 59.28125 
L 27.984375 38.921875 
L 38.375 38.921875 
Q 43.84375 38.921875 46.828125 41.578125 
Q 49.8125 44.234375 49.8125 49.125 
Q 49.8125 54 46.828125 56.640625 
Q 43.84375 59.28125 38.375 59.28125 
z
" id="DejaVuSans-Bold-80"/>
     <path d="M 74.703125 5.421875 
Q 67.671875 2 60.109375 0.28125 
Q 52.546875 -1.421875 44.484375 -1.421875 
Q 26.265625 -1.421875 15.625 8.765625 
Q 4.984375 18.953125 4.984375 36.375 
Q 4.984375 54 15.8125 64.109375 
Q 26.65625 74.21875 45.515625 74.21875 
Q 52.78125 74.21875 59.4375 72.84375 
Q 66.109375 71.484375 72.015625 68.796875 
L 72.015625 53.71875 
Q 65.921875 57.171875 59.890625 58.875 
Q 53.859375 60.59375 47.796875 60.59375 
Q 36.578125 60.59375 30.5 54.3125 
Q 24.421875 48.046875 24.421875 36.375 
Q 24.421875 24.8125 30.28125 18.5 
Q 36.140625 12.203125 46.921875 12.203125 
Q 49.859375 12.203125 52.375 12.5625 
Q 54.890625 12.9375 56.890625 13.71875 
L 56.890625 27.875 
L 45.40625 27.875 
L 45.40625 40.484375 
L 74.703125 40.484375 
z
" id="DejaVuSans-Bold-71"/>
     <path d="M 9.1875 72.90625 
L 27.984375 72.90625 
L 27.984375 0 
L 9.1875 0 
z
" id="DejaVuSans-Bold-73"/>
     <path id="DejaVuSans-Bold-32"/>
     <path d="M 11.71875 12.984375 
L 28.328125 12.984375 
L 28.328125 60.109375 
L 11.28125 56.59375 
L 11.28125 69.390625 
L 28.21875 72.90625 
L 46.09375 72.90625 
L 46.09375 12.984375 
L 62.703125 12.984375 
L 62.703125 0 
L 11.71875 0 
z
" id="DejaVuSans-Bold-49"/>
     <path d="M 28.8125 13.8125 
L 60.890625 13.8125 
L 60.890625 0 
L 7.90625 0 
L 7.90625 13.8125 
L 34.515625 37.3125 
Q 38.09375 40.53125 39.796875 43.609375 
Q 41.5 46.6875 41.5 50 
Q 41.5 55.125 38.0625 58.25 
Q 34.625 61.375 28.90625 61.375 
Q 24.515625 61.375 19.28125 59.5 
Q 14.0625 57.625 8.109375 53.90625 
L 8.109375 69.921875 
Q 14.453125 72.015625 20.65625 73.109375 
Q 26.859375 74.21875 32.8125 74.21875 
Q 45.90625 74.21875 53.15625 68.453125 
Q 60.40625 62.703125 60.40625 52.390625 
Q 60.40625 46.4375 57.328125 41.28125 
Q 54.25 36.140625 44.390625 27.484375 
z
" id="DejaVuSans-Bold-50"/>
     <path d="M 77.484375 30.078125 
Q 74.03125 30.078125 72.125 27.078125 
Q 70.21875 24.078125 70.21875 18.5 
Q 70.21875 12.890625 72.09375 9.890625 
Q 73.96875 6.890625 77.484375 6.890625 
Q 81 6.890625 82.859375 9.890625 
Q 84.71875 12.890625 84.71875 18.5 
Q 84.71875 24.078125 82.828125 27.078125 
Q 80.953125 30.078125 77.484375 30.078125 
z
M 77.484375 38.28125 
Q 86.578125 38.28125 91.796875 33 
Q 97.015625 27.734375 97.015625 18.5 
Q 97.015625 9.28125 91.796875 3.921875 
Q 86.578125 -1.421875 77.484375 -1.421875 
Q 68.40625 -1.421875 63.15625 3.921875 
Q 57.90625 9.28125 57.90625 18.5 
Q 57.90625 27.6875 63.15625 32.984375 
Q 68.40625 38.28125 77.484375 38.28125 
z
M 32.71875 -1.421875 
L 21.921875 -1.421875 
L 67.484375 74.21875 
L 78.328125 74.21875 
z
M 22.703125 74.21875 
Q 31.78125 74.21875 36.984375 68.921875 
Q 42.1875 63.625 42.1875 54.390625 
Q 42.1875 45.171875 36.984375 39.84375 
Q 31.78125 34.515625 22.703125 34.515625 
Q 13.625 34.515625 8.421875 39.84375 
Q 3.21875 45.171875 3.21875 54.390625 
Q 3.21875 63.625 8.421875 68.921875 
Q 13.625 74.21875 22.703125 74.21875 
z
M 22.703125 66.015625 
Q 19.1875 66.015625 17.28125 62.984375 
Q 15.375 59.96875 15.375 54.390625 
Q 15.375 48.78125 17.28125 45.71875 
Q 19.1875 42.671875 22.703125 42.671875 
Q 26.21875 42.671875 28.09375 45.71875 
Q 29.984375 48.78125 29.984375 54.390625 
Q 29.984375 59.96875 28.078125 62.984375 
Q 26.171875 66.015625 22.703125 66.015625 
z
" id="DejaVuSans-Bold-37"/>
    </defs>
    <g transform="translate(75.175 72.1625)scale(0.8 -0.8)">
     <use xlink:href="#DejaVuSans-Bold-83"/>
     <use x="72.021484" xlink:href="#DejaVuSans-Bold-80"/>
     <use x="145.3125" xlink:href="#DejaVuSans-Bold-71"/>
     <use x="227.392578" xlink:href="#DejaVuSans-Bold-73"/>
     <use x="264.599609" xlink:href="#DejaVuSans-Bold-32"/>
     <use x="299.414062" xlink:href="#DejaVuSans-Bold-32"/>
     <use x="334.228516" xlink:href="#DejaVuSans-Bold-32"/>
     <use x="369.042969" xlink:href="#DejaVuSans-Bold-49"/>
     <use x="438.623047" xlink:href="#DejaVuSans-Bold-50"/>
     <use x="508.203125" xlink:href="#DejaVuSans-Bold-37"/>
    </g>
   </g>
  </g>
 </g>
 <defs>
  <clipPath id="p3e400d055c">
   <rect height="296.4" width="765.148864" x="75.175" y="88.8"/>
  </clipPath>
 </defs>
</svg>
