<?xml version="1.0" encoding="utf-8" standalone="no"?>
<!DOCTYPE svg PUBLIC "-//W3C//DTD SVG 1.1//EN"
  "http://www.w3.org/Graphics/SVG/1.1/DTD/svg11.dtd">
<svg xmlns:xlink="http://www.w3.org/1999/xlink" width="720pt" height="720pt" viewBox="0 0 720 720" xmlns="http://www.w3.org/2000/svg" version="1.1">
 <metadata>
  <rdf:RDF xmlns:dc="http://purl.org/dc/elements/1.1/" xmlns:cc="http://creativecommons.org/ns#" xmlns:rdf="http://www.w3.org/1999/02/22-rdf-syntax-ns#">
   <cc:Work>
    <dc:type rdf:resource="http://purl.org/dc/dcmitype/StillImage"/>
    <dc:date>2023-10-17T23:38:26.306345</dc:date>
    <dc:format>image/svg+xml</dc:format>
    <dc:creator>
     <cc:Agent>
      <dc:title>Matplotlib v3.7.2, https://matplotlib.org/</dc:title>
     </cc:Agent>
    </dc:creator>
   </cc:Work>
  </rdf:RDF>
 </metadata>
 <defs>
  <style type="text/css">*{stroke-linejoin: round; stroke-linecap: butt}</style>
 </defs>
 <g id="figure_1">
  <g id="patch_1">
   <path d="M 0 720 
L 720 720 
L 720 0 
L 0 0 
z
" style="fill: #ffffff"/>
  </g>
  <g id="axes_1">
   <g id="patch_2">
    <path d="M 90 640.8 
L 648 640.8 
L 648 86.4 
L 90 86.4 
z
" style="fill: #ffffff"/>
   </g>
   <g id="matplotlib.axis_1">
    <g id="xtick_1">
     <g id="line2d_1">
      <defs>
       <path id="m81bdeefd1a" d="M 0 0 
L 0 3.5 
" style="stroke: #000000; stroke-width: 0.8"/>
      </defs>
      <g>
       <use xlink:href="#m81bdeefd1a" x="264.47952" y="640.8" style="stroke: #000000; stroke-width: 0.8"/>
      </g>
     </g>
     <g id="text_1">
      <!-- Feb-2023 -->
      <g transform="translate(189.66202 672.115) scale(0.32 -0.32)">
       <defs>
        <path id="DejaVuSans-46" d="M 628 4666 
L 3309 4666 
L 3309 4134 
L 1259 4134 
L 1259 2759 
L 3109 2759 
L 3109 2228 
L 1259 2228 
L 1259 0 
L 628 0 
L 628 4666 
z
" transform="scale(0.015625)"/>
        <path id="DejaVuSans-65" d="M 3597 1894 
L 3597 1613 
L 953 1613 
Q 991 1019 1311 708 
Q 1631 397 2203 397 
Q 2534 397 2845 478 
Q 3156 559 3463 722 
L 3463 178 
Q 3153 47 2828 -22 
Q 2503 -91 2169 -91 
Q 1331 -91 842 396 
Q 353 884 353 1716 
Q 353 2575 817 3079 
Q 1281 3584 2069 3584 
Q 2775 3584 3186 3129 
Q 3597 2675 3597 1894 
z
M 3022 2063 
Q 3016 2534 2758 2815 
Q 2500 3097 2075 3097 
Q 1594 3097 1305 2825 
Q 1016 2553 972 2059 
L 3022 2063 
z
" transform="scale(0.015625)"/>
        <path id="DejaVuSans-62" d="M 3116 1747 
Q 3116 2381 2855 2742 
Q 2594 3103 2138 3103 
Q 1681 3103 1420 2742 
Q 1159 2381 1159 1747 
Q 1159 1113 1420 752 
Q 1681 391 2138 391 
Q 2594 391 2855 752 
Q 3116 1113 3116 1747 
z
M 1159 2969 
Q 1341 3281 1617 3432 
Q 1894 3584 2278 3584 
Q 2916 3584 3314 3078 
Q 3713 2572 3713 1747 
Q 3713 922 3314 415 
Q 2916 -91 2278 -91 
Q 1894 -91 1617 61 
Q 1341 213 1159 525 
L 1159 0 
L 581 0 
L 581 4863 
L 1159 4863 
L 1159 2969 
z
" transform="scale(0.015625)"/>
        <path id="DejaVuSans-2d" d="M 313 2009 
L 1997 2009 
L 1997 1497 
L 313 1497 
L 313 2009 
z
" transform="scale(0.015625)"/>
        <path id="DejaVuSans-32" d="M 1228 531 
L 3431 531 
L 3431 0 
L 469 0 
L 469 531 
Q 828 903 1448 1529 
Q 2069 2156 2228 2338 
Q 2531 2678 2651 2914 
Q 2772 3150 2772 3378 
Q 2772 3750 2511 3984 
Q 2250 4219 1831 4219 
Q 1534 4219 1204 4116 
Q 875 4013 500 3803 
L 500 4441 
Q 881 4594 1212 4672 
Q 1544 4750 1819 4750 
Q 2544 4750 2975 4387 
Q 3406 4025 3406 3419 
Q 3406 3131 3298 2873 
Q 3191 2616 2906 2266 
Q 2828 2175 2409 1742 
Q 1991 1309 1228 531 
z
" transform="scale(0.015625)"/>
        <path id="DejaVuSans-30" d="M 2034 4250 
Q 1547 4250 1301 3770 
Q 1056 3291 1056 2328 
Q 1056 1369 1301 889 
Q 1547 409 2034 409 
Q 2525 409 2770 889 
Q 3016 1369 3016 2328 
Q 3016 3291 2770 3770 
Q 2525 4250 2034 4250 
z
M 2034 4750 
Q 2819 4750 3233 4129 
Q 3647 3509 3647 2328 
Q 3647 1150 3233 529 
Q 2819 -91 2034 -91 
Q 1250 -91 836 529 
Q 422 1150 422 2328 
Q 422 3509 836 4129 
Q 1250 4750 2034 4750 
z
" transform="scale(0.015625)"/>
        <path id="DejaVuSans-33" d="M 2597 2516 
Q 3050 2419 3304 2112 
Q 3559 1806 3559 1356 
Q 3559 666 3084 287 
Q 2609 -91 1734 -91 
Q 1441 -91 1130 -33 
Q 819 25 488 141 
L 488 750 
Q 750 597 1062 519 
Q 1375 441 1716 441 
Q 2309 441 2620 675 
Q 2931 909 2931 1356 
Q 2931 1769 2642 2001 
Q 2353 2234 1838 2234 
L 1294 2234 
L 1294 2753 
L 1863 2753 
Q 2328 2753 2575 2939 
Q 2822 3125 2822 3475 
Q 2822 3834 2567 4026 
Q 2313 4219 1838 4219 
Q 1578 4219 1281 4162 
Q 984 4106 628 3988 
L 628 4550 
Q 988 4650 1302 4700 
Q 1616 4750 1894 4750 
Q 2613 4750 3031 4423 
Q 3450 4097 3450 3541 
Q 3450 3153 3228 2886 
Q 3006 2619 2597 2516 
z
" transform="scale(0.015625)"/>
       </defs>
       <use xlink:href="#DejaVuSans-46"/>
       <use xlink:href="#DejaVuSans-65" x="52.019531"/>
       <use xlink:href="#DejaVuSans-62" x="113.542969"/>
       <use xlink:href="#DejaVuSans-2d" x="177.019531"/>
       <use xlink:href="#DejaVuSans-32" x="213.103516"/>
       <use xlink:href="#DejaVuSans-30" x="276.726562"/>
       <use xlink:href="#DejaVuSans-32" x="340.349609"/>
       <use xlink:href="#DejaVuSans-33" x="403.972656"/>
      </g>
     </g>
    </g>
    <g id="xtick_2">
     <g id="line2d_2">
      <g>
       <use xlink:href="#m81bdeefd1a" x="516.722278" y="640.8" style="stroke: #000000; stroke-width: 0.8"/>
      </g>
     </g>
     <g id="text_2">
      <!-- Aug-2023 -->
      <g transform="translate(438.987278 672.115) scale(0.32 -0.32)">
       <defs>
        <path id="DejaVuSans-41" d="M 2188 4044 
L 1331 1722 
L 3047 1722 
L 2188 4044 
z
M 1831 4666 
L 2547 4666 
L 4325 0 
L 3669 0 
L 3244 1197 
L 1141 1197 
L 716 0 
L 50 0 
L 1831 4666 
z
" transform="scale(0.015625)"/>
        <path id="DejaVuSans-75" d="M 544 1381 
L 544 3500 
L 1119 3500 
L 1119 1403 
Q 1119 906 1312 657 
Q 1506 409 1894 409 
Q 2359 409 2629 706 
Q 2900 1003 2900 1516 
L 2900 3500 
L 3475 3500 
L 3475 0 
L 2900 0 
L 2900 538 
Q 2691 219 2414 64 
Q 2138 -91 1772 -91 
Q 1169 -91 856 284 
Q 544 659 544 1381 
z
M 1991 3584 
L 1991 3584 
z
" transform="scale(0.015625)"/>
        <path id="DejaVuSans-67" d="M 2906 1791 
Q 2906 2416 2648 2759 
Q 2391 3103 1925 3103 
Q 1463 3103 1205 2759 
Q 947 2416 947 1791 
Q 947 1169 1205 825 
Q 1463 481 1925 481 
Q 2391 481 2648 825 
Q 2906 1169 2906 1791 
z
M 3481 434 
Q 3481 -459 3084 -895 
Q 2688 -1331 1869 -1331 
Q 1566 -1331 1297 -1286 
Q 1028 -1241 775 -1147 
L 775 -588 
Q 1028 -725 1275 -790 
Q 1522 -856 1778 -856 
Q 2344 -856 2625 -561 
Q 2906 -266 2906 331 
L 2906 616 
Q 2728 306 2450 153 
Q 2172 0 1784 0 
Q 1141 0 747 490 
Q 353 981 353 1791 
Q 353 2603 747 3093 
Q 1141 3584 1784 3584 
Q 2172 3584 2450 3431 
Q 2728 3278 2906 2969 
L 2906 3500 
L 3481 3500 
L 3481 434 
z
" transform="scale(0.015625)"/>
       </defs>
       <use xlink:href="#DejaVuSans-41"/>
       <use xlink:href="#DejaVuSans-75" x="68.408203"/>
       <use xlink:href="#DejaVuSans-67" x="131.787109"/>
       <use xlink:href="#DejaVuSans-2d" x="195.263672"/>
       <use xlink:href="#DejaVuSans-32" x="231.347656"/>
       <use xlink:href="#DejaVuSans-30" x="294.970703"/>
       <use xlink:href="#DejaVuSans-32" x="358.59375"/>
       <use xlink:href="#DejaVuSans-33" x="422.216797"/>
      </g>
     </g>
    </g>
   </g>
   <g id="matplotlib.axis_2">
    <g id="ytick_1">
     <g id="line2d_3">
      <defs>
       <path id="m29adfff553" d="M 0 0 
L -3.5 0 
" style="stroke: #000000; stroke-width: 0.8"/>
      </defs>
      <g>
       <use xlink:href="#m29adfff553" x="90" y="636.189136" style="stroke: #000000; stroke-width: 0.8"/>
      </g>
     </g>
     <g id="text_3">
      <!-- 40 -->
      <g transform="translate(42.28 648.346636) scale(0.32 -0.32)">
       <defs>
        <path id="DejaVuSans-34" d="M 2419 4116 
L 825 1625 
L 2419 1625 
L 2419 4116 
z
M 2253 4666 
L 3047 4666 
L 3047 1625 
L 3713 1625 
L 3713 1100 
L 3047 1100 
L 3047 0 
L 2419 0 
L 2419 1100 
L 313 1100 
L 313 1709 
L 2253 4666 
z
" transform="scale(0.015625)"/>
       </defs>
       <use xlink:href="#DejaVuSans-34"/>
       <use xlink:href="#DejaVuSans-30" x="63.623047"/>
      </g>
     </g>
    </g>
    <g id="ytick_2">
     <g id="line2d_4">
      <g>
       <use xlink:href="#m29adfff553" x="90" y="527.825348" style="stroke: #000000; stroke-width: 0.8"/>
      </g>
     </g>
     <g id="text_4">
      <!-- 50 -->
      <g transform="translate(42.28 539.982848) scale(0.32 -0.32)">
       <defs>
        <path id="DejaVuSans-35" d="M 691 4666 
L 3169 4666 
L 3169 4134 
L 1269 4134 
L 1269 2991 
Q 1406 3038 1543 3061 
Q 1681 3084 1819 3084 
Q 2600 3084 3056 2656 
Q 3513 2228 3513 1497 
Q 3513 744 3044 326 
Q 2575 -91 1722 -91 
Q 1428 -91 1123 -41 
Q 819 9 494 109 
L 494 744 
Q 775 591 1075 516 
Q 1375 441 1709 441 
Q 2250 441 2565 725 
Q 2881 1009 2881 1497 
Q 2881 1984 2565 2268 
Q 2250 2553 1709 2553 
Q 1456 2553 1204 2497 
Q 953 2441 691 2322 
L 691 4666 
z
" transform="scale(0.015625)"/>
       </defs>
       <use xlink:href="#DejaVuSans-35"/>
       <use xlink:href="#DejaVuSans-30" x="63.623047"/>
      </g>
     </g>
    </g>
    <g id="ytick_3">
     <g id="line2d_5">
      <g>
       <use xlink:href="#m29adfff553" x="90" y="419.461561" style="stroke: #000000; stroke-width: 0.8"/>
      </g>
     </g>
     <g id="text_5">
      <!-- 60 -->
      <g transform="translate(42.28 431.619061) scale(0.32 -0.32)">
       <defs>
        <path id="DejaVuSans-36" d="M 2113 2584 
Q 1688 2584 1439 2293 
Q 1191 2003 1191 1497 
Q 1191 994 1439 701 
Q 1688 409 2113 409 
Q 2538 409 2786 701 
Q 3034 994 3034 1497 
Q 3034 2003 2786 2293 
Q 2538 2584 2113 2584 
z
M 3366 4563 
L 3366 3988 
Q 3128 4100 2886 4159 
Q 2644 4219 2406 4219 
Q 1781 4219 1451 3797 
Q 1122 3375 1075 2522 
Q 1259 2794 1537 2939 
Q 1816 3084 2150 3084 
Q 2853 3084 3261 2657 
Q 3669 2231 3669 1497 
Q 3669 778 3244 343 
Q 2819 -91 2113 -91 
Q 1303 -91 875 529 
Q 447 1150 447 2328 
Q 447 3434 972 4092 
Q 1497 4750 2381 4750 
Q 2619 4750 2861 4703 
Q 3103 4656 3366 4563 
z
" transform="scale(0.015625)"/>
       </defs>
       <use xlink:href="#DejaVuSans-36"/>
       <use xlink:href="#DejaVuSans-30" x="63.623047"/>
      </g>
     </g>
    </g>
    <g id="ytick_4">
     <g id="line2d_6">
      <g>
       <use xlink:href="#m29adfff553" x="90" y="311.097773" style="stroke: #000000; stroke-width: 0.8"/>
      </g>
     </g>
     <g id="text_6">
      <!-- 70 -->
      <g transform="translate(42.28 323.255273) scale(0.32 -0.32)">
       <defs>
        <path id="DejaVuSans-37" d="M 525 4666 
L 3525 4666 
L 3525 4397 
L 1831 0 
L 1172 0 
L 2766 4134 
L 525 4134 
L 525 4666 
z
" transform="scale(0.015625)"/>
       </defs>
       <use xlink:href="#DejaVuSans-37"/>
       <use xlink:href="#DejaVuSans-30" x="63.623047"/>
      </g>
     </g>
    </g>
    <g id="ytick_5">
     <g id="line2d_7">
      <g>
       <use xlink:href="#m29adfff553" x="90" y="202.733985" style="stroke: #000000; stroke-width: 0.8"/>
      </g>
     </g>
     <g id="text_7">
      <!-- 80 -->
      <g transform="translate(42.28 214.891485) scale(0.32 -0.32)">
       <defs>
        <path id="DejaVuSans-38" d="M 2034 2216 
Q 1584 2216 1326 1975 
Q 1069 1734 1069 1313 
Q 1069 891 1326 650 
Q 1584 409 2034 409 
Q 2484 409 2743 651 
Q 3003 894 3003 1313 
Q 3003 1734 2745 1975 
Q 2488 2216 2034 2216 
z
M 1403 2484 
Q 997 2584 770 2862 
Q 544 3141 544 3541 
Q 544 4100 942 4425 
Q 1341 4750 2034 4750 
Q 2731 4750 3128 4425 
Q 3525 4100 3525 3541 
Q 3525 3141 3298 2862 
Q 3072 2584 2669 2484 
Q 3125 2378 3379 2068 
Q 3634 1759 3634 1313 
Q 3634 634 3220 271 
Q 2806 -91 2034 -91 
Q 1263 -91 848 271 
Q 434 634 434 1313 
Q 434 1759 690 2068 
Q 947 2378 1403 2484 
z
M 1172 3481 
Q 1172 3119 1398 2916 
Q 1625 2713 2034 2713 
Q 2441 2713 2670 2916 
Q 2900 3119 2900 3481 
Q 2900 3844 2670 4047 
Q 2441 4250 2034 4250 
Q 1625 4250 1398 4047 
Q 1172 3844 1172 3481 
z
" transform="scale(0.015625)"/>
       </defs>
       <use xlink:href="#DejaVuSans-38"/>
       <use xlink:href="#DejaVuSans-30" x="63.623047"/>
      </g>
     </g>
    </g>
    <g id="ytick_6">
     <g id="line2d_8">
      <g>
       <use xlink:href="#m29adfff553" x="90" y="94.370197" style="stroke: #000000; stroke-width: 0.8"/>
      </g>
     </g>
     <g id="text_8">
      <!-- 90 -->
      <g transform="translate(42.28 106.527697) scale(0.32 -0.32)">
       <defs>
        <path id="DejaVuSans-39" d="M 703 97 
L 703 672 
Q 941 559 1184 500 
Q 1428 441 1663 441 
Q 2288 441 2617 861 
Q 2947 1281 2994 2138 
Q 2813 1869 2534 1725 
Q 2256 1581 1919 1581 
Q 1219 1581 811 2004 
Q 403 2428 403 3163 
Q 403 3881 828 4315 
Q 1253 4750 1959 4750 
Q 2769 4750 3195 4129 
Q 3622 3509 3622 2328 
Q 3622 1225 3098 567 
Q 2575 -91 1691 -91 
Q 1453 -91 1209 -44 
Q 966 3 703 97 
z
M 1959 2075 
Q 2384 2075 2632 2365 
Q 2881 2656 2881 3163 
Q 2881 3666 2632 3958 
Q 2384 4250 1959 4250 
Q 1534 4250 1286 3958 
Q 1038 3666 1038 3163 
Q 1038 2656 1286 2365 
Q 1534 2075 1959 2075 
z
" transform="scale(0.015625)"/>
       </defs>
       <use xlink:href="#DejaVuSans-39"/>
       <use xlink:href="#DejaVuSans-30" x="63.623047"/>
      </g>
     </g>
    </g>
   </g>
   <g id="line2d_9">
    <path d="M 115.363636 463.674006 
L 116.757243 449.04487 
L 118.150849 485.130031 
L 119.544456 471.692903 
L 120.938062 462.915421 
L 125.118881 452.079043 
L 126.512488 423.145931 
L 127.906094 425.204828 
L 129.2997 416.64412 
L 130.693307 405.482622 
L 134.874126 418.703017 
L 136.267732 430.297939 
L 137.661339 477.544558 
L 139.054945 485.455109 
L 140.448551 418.269552 
L 144.629371 390.528449 
L 146.022977 392.262268 
L 147.416583 449.695067 
L 148.81019 339.272341 
L 150.203796 293.109344 
L 154.384615 308.171987 
L 155.778222 274.470842 
L 157.171828 315.97411 
L 158.565435 332.878917 
L 159.959041 356.39384 
L 164.13986 399.414276 
L 165.533467 389.986597 
L 166.927073 376.982976 
L 169.714286 382.834589 
L 173.895105 404.615733 
L 175.288711 396.596795 
L 176.682318 335.262934 
L 178.075924 320.091987 
L 179.46953 330.819979 
L 183.65035 385.435338 
L 185.043956 405.374277 
L 186.437562 407.866639 
L 187.831169 382.942976 
L 189.224775 369.614235 
L 193.405594 352.276045 
L 194.799201 299.936316 
L 196.192807 297.552299 
L 197.586414 355.635296 
L 198.98002 392.262268 
L 203.160839 414.693569 
L 204.554446 404.182268 
L 205.948052 391.503684 
L 207.341658 413.068096 
L 208.735265 409.81719 
L 214.30969 420.978647 
L 215.703297 429.431009 
L 217.096903 387.819355 
L 218.490509 388.686243 
L 224.064935 369.18077 
L 225.458541 351.192341 
L 226.852148 368.422227 
L 228.245754 322.042539 
L 232.426573 321.283995 
L 233.82018 310.772695 
L 235.213786 293.00104 
L 236.607393 291.592258 
L 238.000999 293.217731 
L 243.575425 255.832258 
L 244.969031 288.233007 
L 246.362637 300.91155 
L 247.756244 244.34564 
L 251.937063 184.745557 
L 253.330669 194.173236 
L 254.724276 194.39001 
L 256.117882 189.838668 
L 257.511489 161.230635 
L 261.692308 205.009615 
L 263.085914 184.0954 
L 264.47952 160.472091 
L 265.873127 111.6 
L 267.266733 151.694651 
L 271.447552 175.101186 
L 272.841159 168.274297 
L 274.234765 190.488907 
L 275.628372 244.128949 
L 277.021978 254.423476 
L 281.202797 237.193673 
L 282.596404 215.737607 
L 283.99001 173.5841 
L 285.383616 217.579854 
L 286.777223 256.699188 
L 292.351648 289.966867 
L 293.745255 279.238793 
L 295.138861 266.126784 
L 296.532468 231.342019 
L 300.713287 255.398793 
L 302.106893 238.168907 
L 303.5005 239.252611 
L 304.894106 223.973278 
L 306.287712 193.198002 
L 310.468531 193.956545 
L 311.862138 223.973278 
L 313.255744 224.948595 
L 314.649351 269.919501 
L 316.042957 300.153007 
L 320.223776 316.949427 
L 321.617383 271.761748 
L 323.010989 266.993715 
L 324.404595 255.940645 
L 325.798202 267.968949 
L 329.979021 262.334068 
L 331.372627 230.258397 
L 332.766234 282.381353 
L 334.15984 399.089157 
L 335.553447 412.09282 
L 339.734266 371.781478 
L 341.127872 378.716795 
L 342.521479 349.133486 
L 343.915085 327.460728 
L 345.308691 325.726868 
L 349.48951 334.612695 
L 350.883117 323.668012 
L 352.276723 336.45486 
L 353.67033 331.686909 
L 359.244755 350.542185 
L 360.638362 349.892029 
L 362.031968 389.769865 
L 363.425574 370.0477 
L 364.819181 375.682581 
L 369 374.057107 
L 370.393606 377.199667 
L 371.787213 388.361165 
L 373.180819 393.8877 
L 374.574426 381.750968 
L 378.755245 370.697856 
L 380.148851 408.625182 
L 381.542458 413.284828 
L 382.936064 413.176441 
L 384.32967 410.900812 
L 388.51049 417.077544 
L 389.904096 443.735067 
L 391.297702 426.830302 
L 392.691309 414.801915 
L 394.084915 427.588845 
L 398.265734 432.465223 
L 399.659341 426.830302 
L 401.052947 446.22743 
L 402.446553 448.611405 
L 403.84016 467.575068 
L 408.020979 453.379438 
L 409.414585 467.7918 
L 410.808192 443.735067 
L 412.201798 424.663018 
L 413.595405 434.090656 
L 417.776224 412.743017 
L 419.16983 402.556795 
L 420.563437 399.30589 
L 421.957043 427.047034 
L 423.350649 430.297939 
L 428.925075 432.031758 
L 430.318681 415.23538 
L 431.712288 403.206993 
L 433.105894 381.9677 
L 437.286713 381.10077 
L 438.68032 354.659979 
L 440.073926 351.84258 
L 441.467532 364.304432 
L 442.861139 365.929823 
L 447.041958 373.948803 
L 448.435564 359.644786 
L 449.829171 379.475338 
L 451.222777 352.38435 
L 452.616384 348.916712 
L 458.190809 345.774152 
L 462.371628 388.469511 
L 466.552448 400.497898 
L 467.946054 376.874589 
L 469.33966 367.77207 
L 470.733267 371.889864 
L 472.126873 348.266555 
L 476.307692 352.276045 
L 479.094905 322.25923 
L 480.488511 369.505848 
L 481.882118 340.681123 
L 486.062937 321.283995 
L 487.456543 299.177773 
L 488.85015 297.877378 
L 490.243756 243.912258 
L 491.637363 251.931155 
L 495.818182 223.756586 
L 497.211788 213.245286 
L 498.605395 222.347804 
L 499.999001 244.237336 
L 501.392607 244.779105 
L 505.573427 233.726035 
L 506.967033 236.651821 
L 508.360639 230.800167 
L 509.754246 248.571904 
L 511.147852 220.50564 
L 515.328671 196.990718 
L 516.722278 216.171072 
L 518.115884 262.442455 
L 519.509491 272.628595 
L 520.903097 381.317502 
L 525.083916 376.007659 
L 526.477522 393.670968 
L 527.871129 390.094984 
L 529.264735 395.188054 
L 530.658342 413.284828 
L 534.839161 417.836087 
L 536.232767 437.233215 
L 537.626374 446.660853 
L 539.01998 461.723454 
L 540.413586 453.271051 
L 544.594406 445.90231 
L 545.988012 462.048533 
L 547.381618 449.58668 
L 548.775225 466.816524 
L 550.168831 464.324162 
L 554.34965 464.215817 
L 555.743257 443.735067 
L 557.136863 444.168491 
L 558.53047 444.927034 
L 559.924076 439.292154 
L 565.498501 433.11538 
L 566.892108 445.035421 
L 568.285714 462.373611 
L 569.679321 494.449282 
L 573.86014 485.130031 
L 575.253746 480.903809 
L 576.647353 482.85436 
L 578.040959 486.105307 
L 579.434565 497.158377 
L 583.615385 514.279875 
L 585.008991 529.992632 
L 586.402597 554.157752 
L 587.796204 575.288699 
L 589.18981 585.149802 
L 593.370629 575.613777 
L 594.764236 584.066139 
L 596.157842 591.326535 
L 597.551449 589.050905 
L 598.945055 590.026181 
L 603.125874 601.621103 
L 604.519481 615.6 
L 605.913087 615.6 
L 607.306693 607.581103 
L 608.7003 594.685786 
L 612.881119 595.986181 
L 614.274725 571.170864 
L 615.668332 563.693777 
L 617.061938 577.130864 
L 618.455544 601.837835 
L 622.636364 584.607991 
L 622.636364 584.607991 
" clip-path="url(#pded9770ab0)" style="fill: none; stroke: #000000; stroke-width: 2.5; stroke-linecap: square"/>
   </g>
   <g id="patch_3">
    <path d="M 90 640.8 
L 90 86.4 
" style="fill: none; stroke: #000000; stroke-width: 0.8; stroke-linejoin: miter; stroke-linecap: square"/>
   </g>
   <g id="patch_4">
    <path d="M 90 640.8 
L 648 640.8 
" style="fill: none; stroke: #000000; stroke-width: 0.8; stroke-linejoin: miter; stroke-linecap: square"/>
   </g>
   <g id="text_9">
    <!-- -20% -->
    <g transform="translate(529.632614 662.362366) scale(0.36 -0.36)">
     <defs>
      <path id="DejaVuSans-25" d="M 4653 2053 
Q 4381 2053 4226 1822 
Q 4072 1591 4072 1178 
Q 4072 772 4226 539 
Q 4381 306 4653 306 
Q 4919 306 5073 539 
Q 5228 772 5228 1178 
Q 5228 1588 5073 1820 
Q 4919 2053 4653 2053 
z
M 4653 2450 
Q 5147 2450 5437 2106 
Q 5728 1763 5728 1178 
Q 5728 594 5436 251 
Q 5144 -91 4653 -91 
Q 4153 -91 3862 251 
Q 3572 594 3572 1178 
Q 3572 1766 3864 2108 
Q 4156 2450 4653 2450 
z
M 1428 4353 
Q 1159 4353 1004 4120 
Q 850 3888 850 3481 
Q 850 3069 1003 2837 
Q 1156 2606 1428 2606 
Q 1700 2606 1854 2837 
Q 2009 3069 2009 3481 
Q 2009 3884 1853 4118 
Q 1697 4353 1428 4353 
z
M 4250 4750 
L 4750 4750 
L 1831 -91 
L 1331 -91 
L 4250 4750 
z
M 1428 4750 
Q 1922 4750 2215 4408 
Q 2509 4066 2509 3481 
Q 2509 2891 2217 2550 
Q 1925 2209 1428 2209 
Q 931 2209 642 2551 
Q 353 2894 353 3481 
Q 353 4063 643 4406 
Q 934 4750 1428 4750 
z
" transform="scale(0.015625)"/>
     </defs>
     <use xlink:href="#DejaVuSans-2d"/>
     <use xlink:href="#DejaVuSans-32" x="36.083984"/>
     <use xlink:href="#DejaVuSans-30" x="99.707031"/>
     <use xlink:href="#DejaVuSans-25" x="163.330078"/>
    </g>
   </g>
  </g>
 </g>
 <defs>
  <clipPath id="pded9770ab0">
   <rect x="90" y="86.4" width="558" height="554.4"/>
  </clipPath>
 </defs>
</svg>
