<?xml version="1.0" encoding="utf-8" standalone="no"?>
<!DOCTYPE svg PUBLIC "-//W3C//DTD SVG 1.1//EN"
  "http://www.w3.org/Graphics/SVG/1.1/DTD/svg11.dtd">
<!-- Created with matplotlib (https://matplotlib.org/) -->
<svg height="432pt" version="1.1" viewBox="0 0 864 432" width="864pt" xmlns="http://www.w3.org/2000/svg" xmlns:xlink="http://www.w3.org/1999/xlink">
 <defs>
  <style type="text/css">
*{stroke-linecap:butt;stroke-linejoin:round;}
  </style>
 </defs>
 <g id="figure_1">
  <g id="patch_1">
   <path d="M 0 432 
L 864 432 
L 864 0 
L 0 0 
z
" style="fill:none;"/>
  </g>
  <g id="axes_1">
   <g id="patch_2">
    <path d="M 56.05 385.2 
L 840.323864 385.2 
L 840.323864 88.8 
L 56.05 88.8 
z
" style="fill:none;"/>
   </g>
   <g id="PolyCollection_1">
    <path clip-path="url(#pf30024d64a)" d="M 91.698812 1750.632422 
L 91.698812 341.860804 
L 95.573683 282.58088 
L 99.448554 276.104861 
L 111.073166 275.606699 
L 114.948037 266.141894 
L 118.822908 274.112306 
L 122.697779 293.540172 
L 126.57265 300.016096 
L 142.072133 321.934775 
L 145.947004 286.566086 
L 149.821875 283.57711 
L 153.696746 257.67332 
L 165.321358 270.1271 
L 169.196229 215.828612 
L 173.0711 266.639962 
L 176.945971 259.665876 
L 180.820842 274.112306 
L 192.445455 218.817493 
L 196.320325 199.389626 
L 200.195196 223.799024 
L 204.070067 186.935847 
L 207.944938 118.689186 
L 223.444421 193.909933 
L 227.319292 233.761991 
L 231.194163 270.625263 
L 235.069034 310.975483 
L 246.693647 384.203675 
L 250.568518 368.262852 
L 254.443388 260.662201 
L 258.318259 221.806373 
L 262.19313 179.463503 
L 273.817743 156.548593 
L 281.567485 183.448803 
L 285.442355 205.86555 
L 289.317226 202.378507 
L 300.941839 189.426565 
L 304.81671 165.51533 
L 308.691581 166.511655 
L 312.566451 140.60777 
L 316.441322 147.083789 
L 328.065935 100.755712 
L 331.940806 88.8 
L 335.815677 188.928402 
L 339.690548 221.308211 
L 343.565418 246.713933 
L 355.190031 281.086392 
L 359.064902 221.806373 
L 362.939773 191.419215 
L 366.814644 180.459828 
L 370.689514 147.581856 
L 382.314127 99.759387 
L 386.188998 112.711235 
L 390.063869 141.604095 
L 393.93874 111.714909 
L 397.813611 159.039311 
L 409.438223 153.559618 
L 413.313094 220.311981 
L 417.187965 202.378507 
L 421.062836 181.456153 
L 424.937707 180.459828 
L 436.562319 206.363713 
L 440.43719 242.728727 
L 444.312061 240.736172 
L 448.186932 243.725053 
L 452.061803 244.721378 
L 463.686415 237.249129 
L 467.561286 242.230565 
L 471.436157 259.167713 
L 475.311028 293.540172 
L 479.185899 298.023541 
L 490.810511 290.551292 
L 494.685382 252.691789 
L 498.560253 246.215771 
L 502.435124 248.706584 
L 506.309995 248.706584 
L 521.809478 228.282392 
L 525.684349 179.961665 
L 529.55922 136.622469 
L 533.434091 180.459828 
L 545.058704 192.415445 
L 548.933574 257.175158 
L 552.808445 284.573435 
L 556.683316 281.584555 
L 560.558187 270.625263 
L 572.1828 299.518028 
L 576.05767 297.027215 
L 579.932541 332.396 
L 583.807412 380.716632 
L 587.682283 322.9311 
L 599.306896 310.975483 
L 603.181767 345.84601 
L 607.056637 310.975483 
L 610.931508 301.510584 
L 614.806379 307.48844 
L 626.430992 304.001302 
L 630.305863 332.396 
L 634.180733 324.425588 
L 638.055604 308.982833 
L 641.930475 262.654756 
L 653.555088 268.632612 
L 657.429959 235.754641 
L 661.30483 228.282392 
L 665.1797 267.636287 
L 669.054571 283.57711 
L 680.679184 257.67332 
L 684.554055 259.167713 
L 688.428926 259.665876 
L 692.303796 265.643732 
L 696.178667 288.060479 
L 707.80328 297.525378 
L 711.678151 269.628938 
L 715.553022 321.934775 
L 719.427893 345.84601 
L 723.302763 362.783158 
L 734.927376 333.39223 
L 738.802247 335.38488 
L 742.677118 385.2 
L 746.551989 314.462526 
L 750.42686 261.160363 
L 762.051472 252.193627 
L 765.926343 273.614143 
L 769.801214 298.023541 
L 773.676085 335.883043 
L 777.550956 301.012421 
L 789.175568 318.945895 
L 793.050439 241.732402 
L 796.92531 234.260153 
L 800.800181 320.440382 
L 804.675052 292.045684 
L 804.675052 1750.632422 
L 804.675052 1750.632422 
L 800.800181 1750.632422 
L 796.92531 1750.632422 
L 793.050439 1750.632422 
L 789.175568 1750.632422 
L 777.550956 1750.632422 
L 773.676085 1750.632422 
L 769.801214 1750.632422 
L 765.926343 1750.632422 
L 762.051472 1750.632422 
L 750.42686 1750.632422 
L 746.551989 1750.632422 
L 742.677118 1750.632422 
L 738.802247 1750.632422 
L 734.927376 1750.632422 
L 723.302763 1750.632422 
L 719.427893 1750.632422 
L 715.553022 1750.632422 
L 711.678151 1750.632422 
L 707.80328 1750.632422 
L 696.178667 1750.632422 
L 692.303796 1750.632422 
L 688.428926 1750.632422 
L 684.554055 1750.632422 
L 680.679184 1750.632422 
L 669.054571 1750.632422 
L 665.1797 1750.632422 
L 661.30483 1750.632422 
L 657.429959 1750.632422 
L 653.555088 1750.632422 
L 641.930475 1750.632422 
L 638.055604 1750.632422 
L 634.180733 1750.632422 
L 630.305863 1750.632422 
L 626.430992 1750.632422 
L 614.806379 1750.632422 
L 610.931508 1750.632422 
L 607.056637 1750.632422 
L 603.181767 1750.632422 
L 599.306896 1750.632422 
L 587.682283 1750.632422 
L 583.807412 1750.632422 
L 579.932541 1750.632422 
L 576.05767 1750.632422 
L 572.1828 1750.632422 
L 560.558187 1750.632422 
L 556.683316 1750.632422 
L 552.808445 1750.632422 
L 548.933574 1750.632422 
L 545.058704 1750.632422 
L 533.434091 1750.632422 
L 529.55922 1750.632422 
L 525.684349 1750.632422 
L 521.809478 1750.632422 
L 506.309995 1750.632422 
L 502.435124 1750.632422 
L 498.560253 1750.632422 
L 494.685382 1750.632422 
L 490.810511 1750.632422 
L 479.185899 1750.632422 
L 475.311028 1750.632422 
L 471.436157 1750.632422 
L 467.561286 1750.632422 
L 463.686415 1750.632422 
L 452.061803 1750.632422 
L 448.186932 1750.632422 
L 444.312061 1750.632422 
L 440.43719 1750.632422 
L 436.562319 1750.632422 
L 424.937707 1750.632422 
L 421.062836 1750.632422 
L 417.187965 1750.632422 
L 413.313094 1750.632422 
L 409.438223 1750.632422 
L 397.813611 1750.632422 
L 393.93874 1750.632422 
L 390.063869 1750.632422 
L 386.188998 1750.632422 
L 382.314127 1750.632422 
L 370.689514 1750.632422 
L 366.814644 1750.632422 
L 362.939773 1750.632422 
L 359.064902 1750.632422 
L 355.190031 1750.632422 
L 343.565418 1750.632422 
L 339.690548 1750.632422 
L 335.815677 1750.632422 
L 331.940806 1750.632422 
L 328.065935 1750.632422 
L 316.441322 1750.632422 
L 312.566451 1750.632422 
L 308.691581 1750.632422 
L 304.81671 1750.632422 
L 300.941839 1750.632422 
L 289.317226 1750.632422 
L 285.442355 1750.632422 
L 281.567485 1750.632422 
L 273.817743 1750.632422 
L 262.19313 1750.632422 
L 258.318259 1750.632422 
L 254.443388 1750.632422 
L 250.568518 1750.632422 
L 246.693647 1750.632422 
L 235.069034 1750.632422 
L 231.194163 1750.632422 
L 227.319292 1750.632422 
L 223.444421 1750.632422 
L 207.944938 1750.632422 
L 204.070067 1750.632422 
L 200.195196 1750.632422 
L 196.320325 1750.632422 
L 192.445455 1750.632422 
L 180.820842 1750.632422 
L 176.945971 1750.632422 
L 173.0711 1750.632422 
L 169.196229 1750.632422 
L 165.321358 1750.632422 
L 153.696746 1750.632422 
L 149.821875 1750.632422 
L 145.947004 1750.632422 
L 142.072133 1750.632422 
L 126.57265 1750.632422 
L 122.697779 1750.632422 
L 118.822908 1750.632422 
L 114.948037 1750.632422 
L 111.073166 1750.632422 
L 99.448554 1750.632422 
L 95.573683 1750.632422 
L 91.698812 1750.632422 
z
" style="fill:#0000ff;fill-opacity:0.1;stroke:#0000ff;stroke-opacity:0.1;"/>
   </g>
   <g id="matplotlib.axis_1">
    <g id="xtick_1">
     <g id="line2d_1">
      <defs>
       <path d="M 0 0 
L 0 3.5 
" id="mf47c5cc800" style="stroke:#000000;stroke-width:0.8;"/>
      </defs>
      <g>
       <use style="stroke:#000000;stroke-width:0.8;" x="91.698812" xlink:href="#mf47c5cc800" y="385.2"/>
      </g>
     </g>
     <g id="text_1">
      <!-- 05/23 -->
      <defs>
       <path d="M 31.78125 66.40625 
Q 24.171875 66.40625 20.328125 58.90625 
Q 16.5 51.421875 16.5 36.375 
Q 16.5 21.390625 20.328125 13.890625 
Q 24.171875 6.390625 31.78125 6.390625 
Q 39.453125 6.390625 43.28125 13.890625 
Q 47.125 21.390625 47.125 36.375 
Q 47.125 51.421875 43.28125 58.90625 
Q 39.453125 66.40625 31.78125 66.40625 
z
M 31.78125 74.21875 
Q 44.046875 74.21875 50.515625 64.515625 
Q 56.984375 54.828125 56.984375 36.375 
Q 56.984375 17.96875 50.515625 8.265625 
Q 44.046875 -1.421875 31.78125 -1.421875 
Q 19.53125 -1.421875 13.0625 8.265625 
Q 6.59375 17.96875 6.59375 36.375 
Q 6.59375 54.828125 13.0625 64.515625 
Q 19.53125 74.21875 31.78125 74.21875 
z
" id="DejaVuSans-48"/>
       <path d="M 10.796875 72.90625 
L 49.515625 72.90625 
L 49.515625 64.59375 
L 19.828125 64.59375 
L 19.828125 46.734375 
Q 21.96875 47.46875 24.109375 47.828125 
Q 26.265625 48.1875 28.421875 48.1875 
Q 40.625 48.1875 47.75 41.5 
Q 54.890625 34.8125 54.890625 23.390625 
Q 54.890625 11.625 47.5625 5.09375 
Q 40.234375 -1.421875 26.90625 -1.421875 
Q 22.3125 -1.421875 17.546875 -0.640625 
Q 12.796875 0.140625 7.71875 1.703125 
L 7.71875 11.625 
Q 12.109375 9.234375 16.796875 8.0625 
Q 21.484375 6.890625 26.703125 6.890625 
Q 35.15625 6.890625 40.078125 11.328125 
Q 45.015625 15.765625 45.015625 23.390625 
Q 45.015625 31 40.078125 35.4375 
Q 35.15625 39.890625 26.703125 39.890625 
Q 22.75 39.890625 18.8125 39.015625 
Q 14.890625 38.140625 10.796875 36.28125 
z
" id="DejaVuSans-53"/>
       <path d="M 25.390625 72.90625 
L 33.6875 72.90625 
L 8.296875 -9.28125 
L 0 -9.28125 
z
" id="DejaVuSans-47"/>
       <path d="M 19.1875 8.296875 
L 53.609375 8.296875 
L 53.609375 0 
L 7.328125 0 
L 7.328125 8.296875 
Q 12.9375 14.109375 22.625 23.890625 
Q 32.328125 33.6875 34.8125 36.53125 
Q 39.546875 41.84375 41.421875 45.53125 
Q 43.3125 49.21875 43.3125 52.78125 
Q 43.3125 58.59375 39.234375 62.25 
Q 35.15625 65.921875 28.609375 65.921875 
Q 23.96875 65.921875 18.8125 64.3125 
Q 13.671875 62.703125 7.8125 59.421875 
L 7.8125 69.390625 
Q 13.765625 71.78125 18.9375 73 
Q 24.125 74.21875 28.421875 74.21875 
Q 39.75 74.21875 46.484375 68.546875 
Q 53.21875 62.890625 53.21875 53.421875 
Q 53.21875 48.921875 51.53125 44.890625 
Q 49.859375 40.875 45.40625 35.40625 
Q 44.1875 33.984375 37.640625 27.21875 
Q 31.109375 20.453125 19.1875 8.296875 
z
" id="DejaVuSans-50"/>
       <path d="M 40.578125 39.3125 
Q 47.65625 37.796875 51.625 33 
Q 55.609375 28.21875 55.609375 21.1875 
Q 55.609375 10.40625 48.1875 4.484375 
Q 40.765625 -1.421875 27.09375 -1.421875 
Q 22.515625 -1.421875 17.65625 -0.515625 
Q 12.796875 0.390625 7.625 2.203125 
L 7.625 11.71875 
Q 11.71875 9.328125 16.59375 8.109375 
Q 21.484375 6.890625 26.8125 6.890625 
Q 36.078125 6.890625 40.9375 10.546875 
Q 45.796875 14.203125 45.796875 21.1875 
Q 45.796875 27.640625 41.28125 31.265625 
Q 36.765625 34.90625 28.71875 34.90625 
L 20.21875 34.90625 
L 20.21875 43.015625 
L 29.109375 43.015625 
Q 36.375 43.015625 40.234375 45.921875 
Q 44.09375 48.828125 44.09375 54.296875 
Q 44.09375 59.90625 40.109375 62.90625 
Q 36.140625 65.921875 28.71875 65.921875 
Q 24.65625 65.921875 20.015625 65.03125 
Q 15.375 64.15625 9.8125 62.3125 
L 9.8125 71.09375 
Q 15.4375 72.65625 20.34375 73.4375 
Q 25.25 74.21875 29.59375 74.21875 
Q 40.828125 74.21875 47.359375 69.109375 
Q 53.90625 64.015625 53.90625 55.328125 
Q 53.90625 49.265625 50.4375 45.09375 
Q 46.96875 40.921875 40.578125 39.3125 
z
" id="DejaVuSans-51"/>
      </defs>
      <g transform="translate(48.470687 414.995312)scale(0.3 -0.3)">
       <use xlink:href="#DejaVuSans-48"/>
       <use x="63.623047" xlink:href="#DejaVuSans-53"/>
       <use x="127.246094" xlink:href="#DejaVuSans-47"/>
       <use x="160.9375" xlink:href="#DejaVuSans-50"/>
       <use x="224.560547" xlink:href="#DejaVuSans-51"/>
      </g>
     </g>
    </g>
    <g id="xtick_2">
     <g id="line2d_2">
      <g>
       <use style="stroke:#000000;stroke-width:0.8;" x="452.061803" xlink:href="#mf47c5cc800" y="385.2"/>
      </g>
     </g>
     <g id="text_2">
      <!-- 08/23 -->
      <defs>
       <path d="M 31.78125 34.625 
Q 24.75 34.625 20.71875 30.859375 
Q 16.703125 27.09375 16.703125 20.515625 
Q 16.703125 13.921875 20.71875 10.15625 
Q 24.75 6.390625 31.78125 6.390625 
Q 38.8125 6.390625 42.859375 10.171875 
Q 46.921875 13.96875 46.921875 20.515625 
Q 46.921875 27.09375 42.890625 30.859375 
Q 38.875 34.625 31.78125 34.625 
z
M 21.921875 38.8125 
Q 15.578125 40.375 12.03125 44.71875 
Q 8.5 49.078125 8.5 55.328125 
Q 8.5 64.0625 14.71875 69.140625 
Q 20.953125 74.21875 31.78125 74.21875 
Q 42.671875 74.21875 48.875 69.140625 
Q 55.078125 64.0625 55.078125 55.328125 
Q 55.078125 49.078125 51.53125 44.71875 
Q 48 40.375 41.703125 38.8125 
Q 48.828125 37.15625 52.796875 32.3125 
Q 56.78125 27.484375 56.78125 20.515625 
Q 56.78125 9.90625 50.3125 4.234375 
Q 43.84375 -1.421875 31.78125 -1.421875 
Q 19.734375 -1.421875 13.25 4.234375 
Q 6.78125 9.90625 6.78125 20.515625 
Q 6.78125 27.484375 10.78125 32.3125 
Q 14.796875 37.15625 21.921875 38.8125 
z
M 18.3125 54.390625 
Q 18.3125 48.734375 21.84375 45.5625 
Q 25.390625 42.390625 31.78125 42.390625 
Q 38.140625 42.390625 41.71875 45.5625 
Q 45.3125 48.734375 45.3125 54.390625 
Q 45.3125 60.0625 41.71875 63.234375 
Q 38.140625 66.40625 31.78125 66.40625 
Q 25.390625 66.40625 21.84375 63.234375 
Q 18.3125 60.0625 18.3125 54.390625 
z
" id="DejaVuSans-56"/>
      </defs>
      <g transform="translate(408.833678 414.995312)scale(0.3 -0.3)">
       <use xlink:href="#DejaVuSans-48"/>
       <use x="63.623047" xlink:href="#DejaVuSans-56"/>
       <use x="127.246094" xlink:href="#DejaVuSans-47"/>
       <use x="160.9375" xlink:href="#DejaVuSans-50"/>
       <use x="224.560547" xlink:href="#DejaVuSans-51"/>
      </g>
     </g>
    </g>
    <g id="xtick_3">
     <g id="line2d_3">
      <g>
       <use style="stroke:#000000;stroke-width:0.8;" x="804.675052" xlink:href="#mf47c5cc800" y="385.2"/>
      </g>
     </g>
     <g id="text_3">
      <!-- 11/23 -->
      <defs>
       <path d="M 12.40625 8.296875 
L 28.515625 8.296875 
L 28.515625 63.921875 
L 10.984375 60.40625 
L 10.984375 69.390625 
L 28.421875 72.90625 
L 38.28125 72.90625 
L 38.28125 8.296875 
L 54.390625 8.296875 
L 54.390625 0 
L 12.40625 0 
z
" id="DejaVuSans-49"/>
      </defs>
      <g transform="translate(761.446927 414.995312)scale(0.3 -0.3)">
       <use xlink:href="#DejaVuSans-49"/>
       <use x="63.623047" xlink:href="#DejaVuSans-49"/>
       <use x="127.246094" xlink:href="#DejaVuSans-47"/>
       <use x="160.9375" xlink:href="#DejaVuSans-50"/>
       <use x="224.560547" xlink:href="#DejaVuSans-51"/>
      </g>
     </g>
    </g>
   </g>
   <g id="matplotlib.axis_2">
    <g id="ytick_1">
     <g id="line2d_4">
      <defs>
       <path d="M 0 0 
L -3.5 0 
" id="ma532cfbf99" style="stroke:#000000;stroke-width:0.8;"/>
      </defs>
      <g>
       <use style="stroke:#000000;stroke-width:0.8;" x="56.05" xlink:href="#ma532cfbf99" y="355.809072"/>
      </g>
     </g>
     <g id="text_4">
      <!-- 28 -->
      <g transform="translate(10.875 367.206728)scale(0.3 -0.3)">
       <use xlink:href="#DejaVuSans-50"/>
       <use x="63.623047" xlink:href="#DejaVuSans-56"/>
      </g>
     </g>
    </g>
    <g id="ytick_2">
     <g id="line2d_5">
      <g>
       <use style="stroke:#000000;stroke-width:0.8;" x="56.05" xlink:href="#ma532cfbf99" y="256.178832"/>
      </g>
     </g>
     <g id="text_5">
      <!-- 30 -->
      <g transform="translate(10.875 267.576489)scale(0.3 -0.3)">
       <use xlink:href="#DejaVuSans-51"/>
       <use x="63.623047" xlink:href="#DejaVuSans-48"/>
      </g>
     </g>
    </g>
    <g id="ytick_3">
     <g id="line2d_6">
      <g>
       <use style="stroke:#000000;stroke-width:0.8;" x="56.05" xlink:href="#ma532cfbf99" y="156.548593"/>
      </g>
     </g>
     <g id="text_6">
      <!-- 32 -->
      <g transform="translate(10.875 167.946249)scale(0.3 -0.3)">
       <use xlink:href="#DejaVuSans-51"/>
       <use x="63.623047" xlink:href="#DejaVuSans-50"/>
      </g>
     </g>
    </g>
   </g>
   <g id="line2d_7">
    <path clip-path="url(#pf30024d64a)" d="M 91.698812 341.860804 
L 95.573683 282.58088 
L 99.448554 276.104861 
L 111.073166 275.606699 
L 114.948037 266.141894 
L 118.822908 274.112306 
L 122.697779 293.540172 
L 126.57265 300.016096 
L 142.072133 321.934775 
L 145.947004 286.566086 
L 149.821875 283.57711 
L 153.696746 257.67332 
L 165.321358 270.1271 
L 169.196229 215.828612 
L 173.0711 266.639962 
L 176.945971 259.665876 
L 180.820842 274.112306 
L 192.445455 218.817493 
L 196.320325 199.389626 
L 200.195196 223.799024 
L 204.070067 186.935847 
L 207.944938 118.689186 
L 223.444421 193.909933 
L 227.319292 233.761991 
L 231.194163 270.625263 
L 235.069034 310.975483 
L 246.693647 384.203675 
L 250.568518 368.262852 
L 254.443388 260.662201 
L 258.318259 221.806373 
L 262.19313 179.463503 
L 273.817743 156.548593 
L 281.567485 183.448803 
L 285.442355 205.86555 
L 289.317226 202.378507 
L 300.941839 189.426565 
L 304.81671 165.51533 
L 308.691581 166.511655 
L 312.566451 140.60777 
L 316.441322 147.083789 
L 328.065935 100.755712 
L 331.940806 88.8 
L 335.815677 188.928402 
L 339.690548 221.308211 
L 343.565418 246.713933 
L 355.190031 281.086392 
L 359.064902 221.806373 
L 362.939773 191.419215 
L 366.814644 180.459828 
L 370.689514 147.581856 
L 382.314127 99.759387 
L 386.188998 112.711235 
L 390.063869 141.604095 
L 393.93874 111.714909 
L 397.813611 159.039311 
L 409.438223 153.559618 
L 413.313094 220.311981 
L 417.187965 202.378507 
L 421.062836 181.456153 
L 424.937707 180.459828 
L 436.562319 206.363713 
L 440.43719 242.728727 
L 444.312061 240.736172 
L 448.186932 243.725053 
L 452.061803 244.721378 
L 463.686415 237.249129 
L 467.561286 242.230565 
L 471.436157 259.167713 
L 475.311028 293.540172 
L 479.185899 298.023541 
L 490.810511 290.551292 
L 494.685382 252.691789 
L 498.560253 246.215771 
L 502.435124 248.706584 
L 506.309995 248.706584 
L 521.809478 228.282392 
L 525.684349 179.961665 
L 529.55922 136.622469 
L 533.434091 180.459828 
L 545.058704 192.415445 
L 548.933574 257.175158 
L 552.808445 284.573435 
L 556.683316 281.584555 
L 560.558187 270.625263 
L 572.1828 299.518028 
L 576.05767 297.027215 
L 579.932541 332.396 
L 583.807412 380.716632 
L 587.682283 322.9311 
L 599.306896 310.975483 
L 603.181767 345.84601 
L 607.056637 310.975483 
L 610.931508 301.510584 
L 614.806379 307.48844 
L 626.430992 304.001302 
L 630.305863 332.396 
L 634.180733 324.425588 
L 638.055604 308.982833 
L 641.930475 262.654756 
L 653.555088 268.632612 
L 657.429959 235.754641 
L 661.30483 228.282392 
L 665.1797 267.636287 
L 669.054571 283.57711 
L 680.679184 257.67332 
L 684.554055 259.167713 
L 688.428926 259.665876 
L 692.303796 265.643732 
L 696.178667 288.060479 
L 707.80328 297.525378 
L 711.678151 269.628938 
L 715.553022 321.934775 
L 719.427893 345.84601 
L 723.302763 362.783158 
L 734.927376 333.39223 
L 738.802247 335.38488 
L 742.677118 385.2 
L 746.551989 314.462526 
L 750.42686 261.160363 
L 762.051472 252.193627 
L 765.926343 273.614143 
L 769.801214 298.023541 
L 773.676085 335.883043 
L 777.550956 301.012421 
L 789.175568 318.945895 
L 793.050439 241.732402 
L 796.92531 234.260153 
L 800.800181 320.440382 
L 804.675052 292.045684 
L 804.675052 292.045684 
" style="fill:none;stroke:#000000;stroke-linecap:square;stroke-width:4;"/>
   </g>
   <g id="patch_3">
    <path d="M 56.05 385.2 
L 56.05 88.8 
" style="fill:none;stroke:#000000;stroke-linecap:square;stroke-linejoin:miter;stroke-width:0.8;"/>
   </g>
   <g id="patch_4">
    <path d="M 56.05 385.2 
L 840.323864 385.2 
" style="fill:none;stroke:#000000;stroke-linecap:square;stroke-linejoin:miter;stroke-width:0.8;"/>
   </g>
   <g id="text_7">
    <!-- SQSP   3% -->
    <defs>
     <path d="M 59.90625 70.609375 
L 59.90625 55.171875 
Q 53.90625 57.859375 48.1875 59.21875 
Q 42.484375 60.59375 37.40625 60.59375 
Q 30.671875 60.59375 27.4375 58.734375 
Q 24.21875 56.890625 24.21875 52.984375 
Q 24.21875 50.046875 26.390625 48.40625 
Q 28.5625 46.78125 34.28125 45.609375 
L 42.28125 44 
Q 54.4375 41.546875 59.5625 36.5625 
Q 64.703125 31.59375 64.703125 22.40625 
Q 64.703125 10.359375 57.546875 4.46875 
Q 50.390625 -1.421875 35.6875 -1.421875 
Q 28.765625 -1.421875 21.78125 -0.09375 
Q 14.796875 1.21875 7.8125 3.8125 
L 7.8125 19.671875 
Q 14.796875 15.96875 21.3125 14.078125 
Q 27.828125 12.203125 33.890625 12.203125 
Q 40.046875 12.203125 43.3125 14.25 
Q 46.578125 16.3125 46.578125 20.125 
Q 46.578125 23.53125 44.359375 25.390625 
Q 42.140625 27.25 35.5 28.71875 
L 28.21875 30.328125 
Q 17.28125 32.671875 12.21875 37.796875 
Q 7.171875 42.921875 7.171875 51.609375 
Q 7.171875 62.5 14.203125 68.359375 
Q 21.234375 74.21875 34.421875 74.21875 
Q 40.4375 74.21875 46.78125 73.3125 
Q 53.125 72.40625 59.90625 70.609375 
z
" id="DejaVuSans-Bold-83"/>
     <path d="M 44.484375 -1.3125 
L 43.015625 -1.3125 
Q 25 -1.3125 14.984375 8.640625 
Q 4.984375 18.609375 4.984375 36.375 
Q 4.984375 54.109375 14.96875 64.15625 
Q 24.953125 74.21875 42.484375 74.21875 
Q 60.203125 74.21875 70.09375 64.25 
Q 79.984375 54.296875 79.984375 36.375 
Q 79.984375 24.078125 74.734375 15.1875 
Q 69.484375 6.296875 59.625 1.8125 
L 74.3125 -14.59375 
L 56.390625 -14.59375 
z
M 42.484375 60.59375 
Q 33.890625 60.59375 29.15625 54.25 
Q 24.421875 47.90625 24.421875 36.375 
Q 24.421875 24.65625 29.046875 18.421875 
Q 33.6875 12.203125 42.484375 12.203125 
Q 51.125 12.203125 55.859375 18.546875 
Q 60.59375 24.90625 60.59375 36.375 
Q 60.59375 47.90625 55.859375 54.25 
Q 51.125 60.59375 42.484375 60.59375 
z
" id="DejaVuSans-Bold-81"/>
     <path d="M 9.1875 72.90625 
L 40.375 72.90625 
Q 54.296875 72.90625 61.734375 66.71875 
Q 69.1875 60.546875 69.1875 49.125 
Q 69.1875 37.640625 61.734375 31.46875 
Q 54.296875 25.296875 40.375 25.296875 
L 27.984375 25.296875 
L 27.984375 0 
L 9.1875 0 
z
M 27.984375 59.28125 
L 27.984375 38.921875 
L 38.375 38.921875 
Q 43.84375 38.921875 46.828125 41.578125 
Q 49.8125 44.234375 49.8125 49.125 
Q 49.8125 54 46.828125 56.640625 
Q 43.84375 59.28125 38.375 59.28125 
z
" id="DejaVuSans-Bold-80"/>
     <path id="DejaVuSans-Bold-32"/>
     <path d="M 46.578125 39.3125 
Q 53.953125 37.40625 57.78125 32.6875 
Q 61.625 27.984375 61.625 20.703125 
Q 61.625 9.859375 53.3125 4.21875 
Q 45.015625 -1.421875 29.109375 -1.421875 
Q 23.484375 -1.421875 17.84375 -0.515625 
Q 12.203125 0.390625 6.6875 2.203125 
L 6.6875 16.703125 
Q 11.96875 14.0625 17.15625 12.71875 
Q 22.359375 11.375 27.390625 11.375 
Q 34.859375 11.375 38.84375 13.953125 
Q 42.828125 16.546875 42.828125 21.390625 
Q 42.828125 26.375 38.75 28.9375 
Q 34.671875 31.5 26.703125 31.5 
L 19.1875 31.5 
L 19.1875 43.609375 
L 27.09375 43.609375 
Q 34.1875 43.609375 37.640625 45.828125 
Q 41.109375 48.046875 41.109375 52.59375 
Q 41.109375 56.78125 37.734375 59.078125 
Q 34.375 61.375 28.21875 61.375 
Q 23.6875 61.375 19.046875 60.34375 
Q 14.40625 59.328125 9.8125 57.328125 
L 9.8125 71.09375 
Q 15.375 72.65625 20.84375 73.4375 
Q 26.3125 74.21875 31.59375 74.21875 
Q 45.796875 74.21875 52.84375 69.546875 
Q 59.90625 64.890625 59.90625 55.515625 
Q 59.90625 49.125 56.53125 45.046875 
Q 53.171875 40.96875 46.578125 39.3125 
z
" id="DejaVuSans-Bold-51"/>
     <path d="M 77.484375 30.078125 
Q 74.03125 30.078125 72.125 27.078125 
Q 70.21875 24.078125 70.21875 18.5 
Q 70.21875 12.890625 72.09375 9.890625 
Q 73.96875 6.890625 77.484375 6.890625 
Q 81 6.890625 82.859375 9.890625 
Q 84.71875 12.890625 84.71875 18.5 
Q 84.71875 24.078125 82.828125 27.078125 
Q 80.953125 30.078125 77.484375 30.078125 
z
M 77.484375 38.28125 
Q 86.578125 38.28125 91.796875 33 
Q 97.015625 27.734375 97.015625 18.5 
Q 97.015625 9.28125 91.796875 3.921875 
Q 86.578125 -1.421875 77.484375 -1.421875 
Q 68.40625 -1.421875 63.15625 3.921875 
Q 57.90625 9.28125 57.90625 18.5 
Q 57.90625 27.6875 63.15625 32.984375 
Q 68.40625 38.28125 77.484375 38.28125 
z
M 32.71875 -1.421875 
L 21.921875 -1.421875 
L 67.484375 74.21875 
L 78.328125 74.21875 
z
M 22.703125 74.21875 
Q 31.78125 74.21875 36.984375 68.921875 
Q 42.1875 63.625 42.1875 54.390625 
Q 42.1875 45.171875 36.984375 39.84375 
Q 31.78125 34.515625 22.703125 34.515625 
Q 13.625 34.515625 8.421875 39.84375 
Q 3.21875 45.171875 3.21875 54.390625 
Q 3.21875 63.625 8.421875 68.921875 
Q 13.625 74.21875 22.703125 74.21875 
z
M 22.703125 66.015625 
Q 19.1875 66.015625 17.28125 62.984375 
Q 15.375 59.96875 15.375 54.390625 
Q 15.375 48.78125 17.28125 45.71875 
Q 19.1875 42.671875 22.703125 42.671875 
Q 26.21875 42.671875 28.09375 45.71875 
Q 29.984375 48.78125 29.984375 54.390625 
Q 29.984375 59.96875 28.078125 62.984375 
Q 26.171875 66.015625 22.703125 66.015625 
z
" id="DejaVuSans-Bold-37"/>
    </defs>
    <g transform="translate(56.05 72.1625)scale(0.8 -0.8)">
     <use xlink:href="#DejaVuSans-Bold-83"/>
     <use x="72.021484" xlink:href="#DejaVuSans-Bold-81"/>
     <use x="157.03125" xlink:href="#DejaVuSans-Bold-83"/>
     <use x="229.052734" xlink:href="#DejaVuSans-Bold-80"/>
     <use x="302.34375" xlink:href="#DejaVuSans-Bold-32"/>
     <use x="337.158203" xlink:href="#DejaVuSans-Bold-32"/>
     <use x="371.972656" xlink:href="#DejaVuSans-Bold-32"/>
     <use x="406.787109" xlink:href="#DejaVuSans-Bold-51"/>
     <use x="476.367188" xlink:href="#DejaVuSans-Bold-37"/>
    </g>
   </g>
  </g>
 </g>
 <defs>
  <clipPath id="pf30024d64a">
   <rect height="296.4" width="784.273864" x="56.05" y="88.8"/>
  </clipPath>
 </defs>
</svg>
