<?xml version="1.0" encoding="utf-8" standalone="no"?>
<!DOCTYPE svg PUBLIC "-//W3C//DTD SVG 1.1//EN"
  "http://www.w3.org/Graphics/SVG/1.1/DTD/svg11.dtd">
<svg xmlns:xlink="http://www.w3.org/1999/xlink" width="720pt" height="720pt" viewBox="0 0 720 720" xmlns="http://www.w3.org/2000/svg" version="1.1">
 <metadata>
  <rdf:RDF xmlns:dc="http://purl.org/dc/elements/1.1/" xmlns:cc="http://creativecommons.org/ns#" xmlns:rdf="http://www.w3.org/1999/02/22-rdf-syntax-ns#">
   <cc:Work>
    <dc:type rdf:resource="http://purl.org/dc/dcmitype/StillImage"/>
    <dc:date>2023-10-17T23:38:27.869102</dc:date>
    <dc:format>image/svg+xml</dc:format>
    <dc:creator>
     <cc:Agent>
      <dc:title>Matplotlib v3.7.2, https://matplotlib.org/</dc:title>
     </cc:Agent>
    </dc:creator>
   </cc:Work>
  </rdf:RDF>
 </metadata>
 <defs>
  <style type="text/css">*{stroke-linejoin: round; stroke-linecap: butt}</style>
 </defs>
 <g id="figure_1">
  <g id="patch_1">
   <path d="M 0 720 
L 720 720 
L 720 0 
L 0 0 
z
" style="fill: #ffffff"/>
  </g>
  <g id="axes_1">
   <g id="patch_2">
    <path d="M 90 640.8 
L 648 640.8 
L 648 86.4 
L 90 86.4 
z
" style="fill: #ffffff"/>
   </g>
   <g id="matplotlib.axis_1">
    <g id="xtick_1">
     <g id="line2d_1">
      <defs>
       <path id="m6115045b96" d="M 0 0 
L 0 3.5 
" style="stroke: #000000; stroke-width: 0.8"/>
      </defs>
      <g>
       <use xlink:href="#m6115045b96" x="264.47952" y="640.8" style="stroke: #000000; stroke-width: 0.8"/>
      </g>
     </g>
     <g id="text_1">
      <!-- Feb-2023 -->
      <g transform="translate(189.66202 672.115) scale(0.32 -0.32)">
       <defs>
        <path id="DejaVuSans-46" d="M 628 4666 
L 3309 4666 
L 3309 4134 
L 1259 4134 
L 1259 2759 
L 3109 2759 
L 3109 2228 
L 1259 2228 
L 1259 0 
L 628 0 
L 628 4666 
z
" transform="scale(0.015625)"/>
        <path id="DejaVuSans-65" d="M 3597 1894 
L 3597 1613 
L 953 1613 
Q 991 1019 1311 708 
Q 1631 397 2203 397 
Q 2534 397 2845 478 
Q 3156 559 3463 722 
L 3463 178 
Q 3153 47 2828 -22 
Q 2503 -91 2169 -91 
Q 1331 -91 842 396 
Q 353 884 353 1716 
Q 353 2575 817 3079 
Q 1281 3584 2069 3584 
Q 2775 3584 3186 3129 
Q 3597 2675 3597 1894 
z
M 3022 2063 
Q 3016 2534 2758 2815 
Q 2500 3097 2075 3097 
Q 1594 3097 1305 2825 
Q 1016 2553 972 2059 
L 3022 2063 
z
" transform="scale(0.015625)"/>
        <path id="DejaVuSans-62" d="M 3116 1747 
Q 3116 2381 2855 2742 
Q 2594 3103 2138 3103 
Q 1681 3103 1420 2742 
Q 1159 2381 1159 1747 
Q 1159 1113 1420 752 
Q 1681 391 2138 391 
Q 2594 391 2855 752 
Q 3116 1113 3116 1747 
z
M 1159 2969 
Q 1341 3281 1617 3432 
Q 1894 3584 2278 3584 
Q 2916 3584 3314 3078 
Q 3713 2572 3713 1747 
Q 3713 922 3314 415 
Q 2916 -91 2278 -91 
Q 1894 -91 1617 61 
Q 1341 213 1159 525 
L 1159 0 
L 581 0 
L 581 4863 
L 1159 4863 
L 1159 2969 
z
" transform="scale(0.015625)"/>
        <path id="DejaVuSans-2d" d="M 313 2009 
L 1997 2009 
L 1997 1497 
L 313 1497 
L 313 2009 
z
" transform="scale(0.015625)"/>
        <path id="DejaVuSans-32" d="M 1228 531 
L 3431 531 
L 3431 0 
L 469 0 
L 469 531 
Q 828 903 1448 1529 
Q 2069 2156 2228 2338 
Q 2531 2678 2651 2914 
Q 2772 3150 2772 3378 
Q 2772 3750 2511 3984 
Q 2250 4219 1831 4219 
Q 1534 4219 1204 4116 
Q 875 4013 500 3803 
L 500 4441 
Q 881 4594 1212 4672 
Q 1544 4750 1819 4750 
Q 2544 4750 2975 4387 
Q 3406 4025 3406 3419 
Q 3406 3131 3298 2873 
Q 3191 2616 2906 2266 
Q 2828 2175 2409 1742 
Q 1991 1309 1228 531 
z
" transform="scale(0.015625)"/>
        <path id="DejaVuSans-30" d="M 2034 4250 
Q 1547 4250 1301 3770 
Q 1056 3291 1056 2328 
Q 1056 1369 1301 889 
Q 1547 409 2034 409 
Q 2525 409 2770 889 
Q 3016 1369 3016 2328 
Q 3016 3291 2770 3770 
Q 2525 4250 2034 4250 
z
M 2034 4750 
Q 2819 4750 3233 4129 
Q 3647 3509 3647 2328 
Q 3647 1150 3233 529 
Q 2819 -91 2034 -91 
Q 1250 -91 836 529 
Q 422 1150 422 2328 
Q 422 3509 836 4129 
Q 1250 4750 2034 4750 
z
" transform="scale(0.015625)"/>
        <path id="DejaVuSans-33" d="M 2597 2516 
Q 3050 2419 3304 2112 
Q 3559 1806 3559 1356 
Q 3559 666 3084 287 
Q 2609 -91 1734 -91 
Q 1441 -91 1130 -33 
Q 819 25 488 141 
L 488 750 
Q 750 597 1062 519 
Q 1375 441 1716 441 
Q 2309 441 2620 675 
Q 2931 909 2931 1356 
Q 2931 1769 2642 2001 
Q 2353 2234 1838 2234 
L 1294 2234 
L 1294 2753 
L 1863 2753 
Q 2328 2753 2575 2939 
Q 2822 3125 2822 3475 
Q 2822 3834 2567 4026 
Q 2313 4219 1838 4219 
Q 1578 4219 1281 4162 
Q 984 4106 628 3988 
L 628 4550 
Q 988 4650 1302 4700 
Q 1616 4750 1894 4750 
Q 2613 4750 3031 4423 
Q 3450 4097 3450 3541 
Q 3450 3153 3228 2886 
Q 3006 2619 2597 2516 
z
" transform="scale(0.015625)"/>
       </defs>
       <use xlink:href="#DejaVuSans-46"/>
       <use xlink:href="#DejaVuSans-65" x="52.019531"/>
       <use xlink:href="#DejaVuSans-62" x="113.542969"/>
       <use xlink:href="#DejaVuSans-2d" x="177.019531"/>
       <use xlink:href="#DejaVuSans-32" x="213.103516"/>
       <use xlink:href="#DejaVuSans-30" x="276.726562"/>
       <use xlink:href="#DejaVuSans-32" x="340.349609"/>
       <use xlink:href="#DejaVuSans-33" x="403.972656"/>
      </g>
     </g>
    </g>
    <g id="xtick_2">
     <g id="line2d_2">
      <g>
       <use xlink:href="#m6115045b96" x="516.722278" y="640.8" style="stroke: #000000; stroke-width: 0.8"/>
      </g>
     </g>
     <g id="text_2">
      <!-- Aug-2023 -->
      <g transform="translate(438.987278 672.115) scale(0.32 -0.32)">
       <defs>
        <path id="DejaVuSans-41" d="M 2188 4044 
L 1331 1722 
L 3047 1722 
L 2188 4044 
z
M 1831 4666 
L 2547 4666 
L 4325 0 
L 3669 0 
L 3244 1197 
L 1141 1197 
L 716 0 
L 50 0 
L 1831 4666 
z
" transform="scale(0.015625)"/>
        <path id="DejaVuSans-75" d="M 544 1381 
L 544 3500 
L 1119 3500 
L 1119 1403 
Q 1119 906 1312 657 
Q 1506 409 1894 409 
Q 2359 409 2629 706 
Q 2900 1003 2900 1516 
L 2900 3500 
L 3475 3500 
L 3475 0 
L 2900 0 
L 2900 538 
Q 2691 219 2414 64 
Q 2138 -91 1772 -91 
Q 1169 -91 856 284 
Q 544 659 544 1381 
z
M 1991 3584 
L 1991 3584 
z
" transform="scale(0.015625)"/>
        <path id="DejaVuSans-67" d="M 2906 1791 
Q 2906 2416 2648 2759 
Q 2391 3103 1925 3103 
Q 1463 3103 1205 2759 
Q 947 2416 947 1791 
Q 947 1169 1205 825 
Q 1463 481 1925 481 
Q 2391 481 2648 825 
Q 2906 1169 2906 1791 
z
M 3481 434 
Q 3481 -459 3084 -895 
Q 2688 -1331 1869 -1331 
Q 1566 -1331 1297 -1286 
Q 1028 -1241 775 -1147 
L 775 -588 
Q 1028 -725 1275 -790 
Q 1522 -856 1778 -856 
Q 2344 -856 2625 -561 
Q 2906 -266 2906 331 
L 2906 616 
Q 2728 306 2450 153 
Q 2172 0 1784 0 
Q 1141 0 747 490 
Q 353 981 353 1791 
Q 353 2603 747 3093 
Q 1141 3584 1784 3584 
Q 2172 3584 2450 3431 
Q 2728 3278 2906 2969 
L 2906 3500 
L 3481 3500 
L 3481 434 
z
" transform="scale(0.015625)"/>
       </defs>
       <use xlink:href="#DejaVuSans-41"/>
       <use xlink:href="#DejaVuSans-75" x="68.408203"/>
       <use xlink:href="#DejaVuSans-67" x="131.787109"/>
       <use xlink:href="#DejaVuSans-2d" x="195.263672"/>
       <use xlink:href="#DejaVuSans-32" x="231.347656"/>
       <use xlink:href="#DejaVuSans-30" x="294.970703"/>
       <use xlink:href="#DejaVuSans-32" x="358.59375"/>
       <use xlink:href="#DejaVuSans-33" x="422.216797"/>
      </g>
     </g>
    </g>
   </g>
   <g id="matplotlib.axis_2">
    <g id="ytick_1">
     <g id="line2d_3">
      <defs>
       <path id="me9ec6adb6e" d="M 0 0 
L -3.5 0 
" style="stroke: #000000; stroke-width: 0.8"/>
      </defs>
      <g>
       <use xlink:href="#me9ec6adb6e" x="90" y="634.470497" style="stroke: #000000; stroke-width: 0.8"/>
      </g>
     </g>
     <g id="text_3">
      <!-- 8 -->
      <g transform="translate(62.64 646.627997) scale(0.32 -0.32)">
       <defs>
        <path id="DejaVuSans-38" d="M 2034 2216 
Q 1584 2216 1326 1975 
Q 1069 1734 1069 1313 
Q 1069 891 1326 650 
Q 1584 409 2034 409 
Q 2484 409 2743 651 
Q 3003 894 3003 1313 
Q 3003 1734 2745 1975 
Q 2488 2216 2034 2216 
z
M 1403 2484 
Q 997 2584 770 2862 
Q 544 3141 544 3541 
Q 544 4100 942 4425 
Q 1341 4750 2034 4750 
Q 2731 4750 3128 4425 
Q 3525 4100 3525 3541 
Q 3525 3141 3298 2862 
Q 3072 2584 2669 2484 
Q 3125 2378 3379 2068 
Q 3634 1759 3634 1313 
Q 3634 634 3220 271 
Q 2806 -91 2034 -91 
Q 1263 -91 848 271 
Q 434 634 434 1313 
Q 434 1759 690 2068 
Q 947 2378 1403 2484 
z
M 1172 3481 
Q 1172 3119 1398 2916 
Q 1625 2713 2034 2713 
Q 2441 2713 2670 2916 
Q 2900 3119 2900 3481 
Q 2900 3844 2670 4047 
Q 2441 4250 2034 4250 
Q 1625 4250 1398 4047 
Q 1172 3844 1172 3481 
z
" transform="scale(0.015625)"/>
       </defs>
       <use xlink:href="#DejaVuSans-38"/>
      </g>
     </g>
    </g>
    <g id="ytick_2">
     <g id="line2d_4">
      <g>
       <use xlink:href="#me9ec6adb6e" x="90" y="555.84335" style="stroke: #000000; stroke-width: 0.8"/>
      </g>
     </g>
     <g id="text_4">
      <!-- 9 -->
      <g transform="translate(62.64 568.00085) scale(0.32 -0.32)">
       <defs>
        <path id="DejaVuSans-39" d="M 703 97 
L 703 672 
Q 941 559 1184 500 
Q 1428 441 1663 441 
Q 2288 441 2617 861 
Q 2947 1281 2994 2138 
Q 2813 1869 2534 1725 
Q 2256 1581 1919 1581 
Q 1219 1581 811 2004 
Q 403 2428 403 3163 
Q 403 3881 828 4315 
Q 1253 4750 1959 4750 
Q 2769 4750 3195 4129 
Q 3622 3509 3622 2328 
Q 3622 1225 3098 567 
Q 2575 -91 1691 -91 
Q 1453 -91 1209 -44 
Q 966 3 703 97 
z
M 1959 2075 
Q 2384 2075 2632 2365 
Q 2881 2656 2881 3163 
Q 2881 3666 2632 3958 
Q 2384 4250 1959 4250 
Q 1534 4250 1286 3958 
Q 1038 3666 1038 3163 
Q 1038 2656 1286 2365 
Q 1534 2075 1959 2075 
z
" transform="scale(0.015625)"/>
       </defs>
       <use xlink:href="#DejaVuSans-39"/>
      </g>
     </g>
    </g>
    <g id="ytick_3">
     <g id="line2d_5">
      <g>
       <use xlink:href="#me9ec6adb6e" x="90" y="477.216203" style="stroke: #000000; stroke-width: 0.8"/>
      </g>
     </g>
     <g id="text_5">
      <!-- 10 -->
      <g transform="translate(42.28 489.373703) scale(0.32 -0.32)">
       <defs>
        <path id="DejaVuSans-31" d="M 794 531 
L 1825 531 
L 1825 4091 
L 703 3866 
L 703 4441 
L 1819 4666 
L 2450 4666 
L 2450 531 
L 3481 531 
L 3481 0 
L 794 0 
L 794 531 
z
" transform="scale(0.015625)"/>
       </defs>
       <use xlink:href="#DejaVuSans-31"/>
       <use xlink:href="#DejaVuSans-30" x="63.623047"/>
      </g>
     </g>
    </g>
    <g id="ytick_4">
     <g id="line2d_6">
      <g>
       <use xlink:href="#me9ec6adb6e" x="90" y="398.589056" style="stroke: #000000; stroke-width: 0.8"/>
      </g>
     </g>
     <g id="text_6">
      <!-- 11 -->
      <g transform="translate(42.28 410.746556) scale(0.32 -0.32)">
       <use xlink:href="#DejaVuSans-31"/>
       <use xlink:href="#DejaVuSans-31" x="63.623047"/>
      </g>
     </g>
    </g>
    <g id="ytick_5">
     <g id="line2d_7">
      <g>
       <use xlink:href="#me9ec6adb6e" x="90" y="319.961909" style="stroke: #000000; stroke-width: 0.8"/>
      </g>
     </g>
     <g id="text_7">
      <!-- 12 -->
      <g transform="translate(42.28 332.119409) scale(0.32 -0.32)">
       <use xlink:href="#DejaVuSans-31"/>
       <use xlink:href="#DejaVuSans-32" x="63.623047"/>
      </g>
     </g>
    </g>
    <g id="ytick_6">
     <g id="line2d_8">
      <g>
       <use xlink:href="#me9ec6adb6e" x="90" y="241.334762" style="stroke: #000000; stroke-width: 0.8"/>
      </g>
     </g>
     <g id="text_8">
      <!-- 13 -->
      <g transform="translate(42.28 253.492262) scale(0.32 -0.32)">
       <use xlink:href="#DejaVuSans-31"/>
       <use xlink:href="#DejaVuSans-33" x="63.623047"/>
      </g>
     </g>
    </g>
    <g id="ytick_7">
     <g id="line2d_9">
      <g>
       <use xlink:href="#me9ec6adb6e" x="90" y="162.707616" style="stroke: #000000; stroke-width: 0.8"/>
      </g>
     </g>
     <g id="text_9">
      <!-- 14 -->
      <g transform="translate(42.28 174.865116) scale(0.32 -0.32)">
       <defs>
        <path id="DejaVuSans-34" d="M 2419 4116 
L 825 1625 
L 2419 1625 
L 2419 4116 
z
M 2253 4666 
L 3047 4666 
L 3047 1625 
L 3713 1625 
L 3713 1100 
L 3047 1100 
L 3047 0 
L 2419 0 
L 2419 1100 
L 313 1100 
L 313 1709 
L 2253 4666 
z
" transform="scale(0.015625)"/>
       </defs>
       <use xlink:href="#DejaVuSans-31"/>
       <use xlink:href="#DejaVuSans-34" x="63.623047"/>
      </g>
     </g>
    </g>
   </g>
   <g id="line2d_10">
    <path d="M 115.363636 422.963505 
L 116.757243 414.314471 
L 118.150849 444.192796 
L 119.544456 469.353459 
L 120.938062 444.192796 
L 125.118881 454.414334 
L 126.512488 441.834002 
L 127.906094 459.91821 
L 129.2997 485.865163 
L 130.693307 463.849582 
L 134.874126 437.90263 
L 136.267732 397.802767 
L 137.661339 438.688919 
L 139.054945 316.816827 
L 140.448551 413.528181 
L 144.629371 422.177215 
L 146.022977 418.245843 
L 147.416583 459.131996 
L 148.81019 459.91821 
L 150.203796 394.657684 
L 154.384615 402.520429 
L 155.778222 367.924442 
L 157.171828 440.261423 
L 158.565435 487.437741 
L 159.959041 356.91669 
L 164.13986 384.436146 
L 165.533467 379.718559 
L 166.927073 442.620292 
L 169.714286 452.841755 
L 173.895105 431.612464 
L 175.288711 404.879222 
L 176.682318 345.122572 
L 178.075924 339.618696 
L 179.46953 327.038365 
L 183.65035 377.359691 
L 185.043956 401.734139 
L 186.437562 455.986838 
L 187.831169 455.200623 
L 189.224775 488.224031 
L 193.405594 516.529777 
L 194.799201 523.606232 
L 196.192807 514.957198 
L 197.586414 543.263019 
L 198.98002 556.62964 
L 203.160839 532.255191 
L 204.554446 535.400274 
L 205.948052 518.88857 
L 207.341658 536.972853 
L 208.735265 508.667032 
L 214.30969 544.835523 
L 215.703297 542.476729 
L 217.096903 516.529777 
L 218.490509 521.247439 
L 224.064935 597.515717 
L 225.458541 574.713848 
L 226.852148 555.057061 
L 228.245754 533.041481 
L 232.426573 529.896398 
L 233.82018 508.667032 
L 235.213786 484.292659 
L 236.607393 478.002493 
L 238.000999 502.376866 
L 243.575425 498.445569 
L 244.969031 496.086701 
L 246.362637 507.094528 
L 247.756244 496.086701 
L 251.937063 465.422161 
L 254.724276 383.649931 
L 256.117882 351.412738 
L 257.511489 356.91669 
L 261.692308 388.367518 
L 263.085914 386.008725 
L 264.47952 371.069525 
L 265.873127 361.634276 
L 267.266733 422.177215 
L 271.447552 463.849582 
L 272.841159 461.490789 
L 274.234765 465.422161 
L 277.021978 507.094528 
L 281.202797 505.521949 
L 282.596404 496.086701 
L 283.99001 470.139748 
L 285.383616 499.231784 
L 286.777223 533.041481 
L 292.351648 550.339474 
L 293.745255 550.339474 
L 295.138861 558.988433 
L 296.532468 583.362882 
L 300.713287 580.217799 
L 302.106893 594.370634 
L 303.5005 603.019668 
L 304.894106 615.6 
L 306.287712 594.370634 
L 310.468531 547.194391 
L 311.862138 547.980606 
L 313.255744 511.025901 
L 314.649351 562.133516 
L 316.042957 577.85893 
L 320.223776 588.080469 
L 321.617383 548.766895 
L 323.010989 540.117936 
L 324.404595 523.606232 
L 325.798202 566.064888 
L 329.979021 561.347227 
L 331.372627 511.025901 
L 332.766234 544.049308 
L 334.15984 569.209971 
L 335.553447 560.561012 
L 339.734266 541.69044 
L 341.127872 537.759143 
L 342.521479 520.461149 
L 343.915085 518.102356 
L 345.308691 513.384694 
L 349.48951 537.759143 
L 350.883117 559.774723 
L 352.276723 558.202144 
L 353.67033 559.774723 
L 359.244755 550.339474 
L 360.638362 463.063293 
L 362.031968 437.11634 
L 363.425574 367.924442 
L 364.819181 332.542241 
L 369 366.351938 
L 370.393606 348.267655 
L 371.787213 375.000897 
L 373.180819 351.412738 
L 374.574426 340.404986 
L 378.755245 341.191275 
L 380.148851 335.687324 
L 381.542458 341.97749 
L 382.936064 335.687324 
L 384.32967 294.801246 
L 388.51049 285.365998 
L 389.904096 315.244248 
L 391.297702 303.450206 
L 392.691309 266.495426 
L 394.084915 194.158444 
L 398.265734 177.64674 
L 399.659341 205.166272 
L 401.052947 209.883934 
L 402.446553 167.425277 
L 403.84016 177.64674 
L 408.020979 154.844871 
L 409.414585 161.135037 
L 410.808192 123.394042 
L 412.201798 192.58594 
L 413.595405 213.029017 
L 417.776224 179.219319 
L 419.16983 220.105397 
L 420.563437 268.068004 
L 421.957043 243.693556 
L 423.350649 299.518833 
L 428.925075 279.075757 
L 430.318681 278.289543 
L 431.712288 232.685803 
L 433.105894 242.121052 
L 437.286713 259.41897 
L 438.68032 229.54072 
L 440.073926 250.770011 
L 441.467532 258.632756 
L 442.861139 264.922922 
L 447.041958 221.677976 
L 448.435564 198.876106 
L 449.829171 235.830886 
L 451.222777 224.823059 
L 452.616384 200.44861 
L 458.190809 147.768491 
L 459.584416 145.409622 
L 460.978022 196.517313 
L 462.371628 198.089817 
L 466.552448 257.060177 
L 467.946054 256.273887 
L 469.33966 260.991549 
L 470.733267 283.007129 
L 472.126873 261.777839 
L 476.307692 268.068004 
L 479.094905 321.534488 
L 480.488511 372.642104 
L 481.882118 374.214608 
L 486.062937 366.351938 
L 487.456543 367.924442 
L 488.85015 298.732544 
L 490.243756 253.128805 
L 491.637363 306.595288 
L 495.818182 286.152212 
L 497.211788 294.014957 
L 498.605395 306.595288 
L 499.999001 285.365998 
L 501.392607 234.258307 
L 505.573427 209.097644 
L 506.967033 218.532893 
L 508.360639 206.738851 
L 509.754246 220.891686 
L 511.147852 177.64674 
L 515.328671 124.180332 
L 516.722278 111.6 
L 518.115884 194.158444 
L 519.509491 176.074237 
L 520.903097 202.807478 
L 525.083916 152.486077 
L 526.477522 180.791823 
L 527.871129 191.799651 
L 529.264735 187.868279 
L 530.658342 194.158444 
L 534.839161 207.525065 
L 536.232767 192.58594 
L 537.626374 214.601521 
L 539.01998 294.014957 
L 540.413586 294.801246 
L 544.594406 292.442378 
L 547.381618 298.732544 
L 548.775225 333.32853 
L 550.168831 305.022785 
L 554.34965 312.099165 
L 555.743257 268.068004 
L 557.136863 300.305123 
L 558.53047 299.518833 
L 559.924076 277.503253 
L 565.498501 297.946329 
L 566.892108 323.893282 
L 568.285714 344.336358 
L 569.679321 360.061772 
L 573.86014 345.908862 
L 575.253746 356.91669 
L 576.647353 352.985317 
L 578.040959 350.626524 
L 579.434565 370.28331 
L 583.615385 367.924442 
L 585.008991 401.734139 
L 586.402597 418.245843 
L 587.796204 445.765375 
L 589.18981 426.894802 
L 593.370629 436.330051 
L 594.764236 452.05554 
L 596.157842 458.345706 
L 597.551449 426.894802 
L 598.945055 424.536009 
L 603.125874 423.749719 
L 604.519481 457.559417 
L 605.913087 437.90263 
L 607.306693 470.926038 
L 608.7003 476.429914 
L 612.881119 484.292659 
L 614.274725 445.765375 
L 617.061938 507.880818 
L 618.455544 500.018073 
L 622.636364 496.086701 
L 622.636364 496.086701 
" clip-path="url(#p5241be305f)" style="fill: none; stroke: #000000; stroke-width: 2.5; stroke-linecap: square"/>
   </g>
   <g id="patch_3">
    <path d="M 90 640.8 
L 90 86.4 
" style="fill: none; stroke: #000000; stroke-width: 0.8; stroke-linejoin: miter; stroke-linecap: square"/>
   </g>
   <g id="patch_4">
    <path d="M 90 640.8 
L 648 640.8 
" style="fill: none; stroke: #000000; stroke-width: 0.8; stroke-linejoin: miter; stroke-linecap: square"/>
   </g>
   <g id="text_10">
    <!-- -9% -->
    <g transform="translate(552.537614 573.841076) scale(0.36 -0.36)">
     <defs>
      <path id="DejaVuSans-25" d="M 4653 2053 
Q 4381 2053 4226 1822 
Q 4072 1591 4072 1178 
Q 4072 772 4226 539 
Q 4381 306 4653 306 
Q 4919 306 5073 539 
Q 5228 772 5228 1178 
Q 5228 1588 5073 1820 
Q 4919 2053 4653 2053 
z
M 4653 2450 
Q 5147 2450 5437 2106 
Q 5728 1763 5728 1178 
Q 5728 594 5436 251 
Q 5144 -91 4653 -91 
Q 4153 -91 3862 251 
Q 3572 594 3572 1178 
Q 3572 1766 3864 2108 
Q 4156 2450 4653 2450 
z
M 1428 4353 
Q 1159 4353 1004 4120 
Q 850 3888 850 3481 
Q 850 3069 1003 2837 
Q 1156 2606 1428 2606 
Q 1700 2606 1854 2837 
Q 2009 3069 2009 3481 
Q 2009 3884 1853 4118 
Q 1697 4353 1428 4353 
z
M 4250 4750 
L 4750 4750 
L 1831 -91 
L 1331 -91 
L 4250 4750 
z
M 1428 4750 
Q 1922 4750 2215 4408 
Q 2509 4066 2509 3481 
Q 2509 2891 2217 2550 
Q 1925 2209 1428 2209 
Q 931 2209 642 2551 
Q 353 2894 353 3481 
Q 353 4063 643 4406 
Q 934 4750 1428 4750 
z
" transform="scale(0.015625)"/>
     </defs>
     <use xlink:href="#DejaVuSans-2d"/>
     <use xlink:href="#DejaVuSans-39" x="36.083984"/>
     <use xlink:href="#DejaVuSans-25" x="99.707031"/>
    </g>
   </g>
  </g>
 </g>
 <defs>
  <clipPath id="p5241be305f">
   <rect x="90" y="86.4" width="558" height="554.4"/>
  </clipPath>
 </defs>
</svg>
