<?xml version="1.0" encoding="utf-8" standalone="no"?>
<!DOCTYPE svg PUBLIC "-//W3C//DTD SVG 1.1//EN"
  "http://www.w3.org/Graphics/SVG/1.1/DTD/svg11.dtd">
<!-- Created with matplotlib (https://matplotlib.org/) -->
<svg height="432pt" version="1.1" viewBox="0 0 864 432" width="864pt" xmlns="http://www.w3.org/2000/svg" xmlns:xlink="http://www.w3.org/1999/xlink">
 <defs>
  <style type="text/css">
*{stroke-linecap:butt;stroke-linejoin:round;}
  </style>
 </defs>
 <g id="figure_1">
  <g id="patch_1">
   <path d="M 0 432 
L 864 432 
L 864 0 
L 0 0 
z
" style="fill:none;"/>
  </g>
  <g id="axes_1">
   <g id="patch_2">
    <path d="M 75.175 385.2 
L 840.323864 385.2 
L 840.323864 88.8 
L 75.175 88.8 
z
" style="fill:none;"/>
   </g>
   <g id="PolyCollection_1">
    <path clip-path="url(#pc63444dff0)" d="M 109.954494 1305.338544 
L 109.954494 263.968107 
L 113.755531 232.229783 
L 117.556569 236.959032 
L 128.959682 228.131165 
L 132.760719 245.68174 
L 136.561757 267.120859 
L 140.362794 254.614686 
L 144.163832 194.443373 
L 159.367982 195.289358 
L 163.16902 210.728787 
L 166.970057 185.56053 
L 170.771095 193.703116 
L 182.174208 220.140431 
L 185.975245 210.094258 
L 189.776283 194.866365 
L 193.57732 192.222683 
L 197.378358 200.36543 
L 208.781471 172.553328 
L 212.582508 145.270108 
L 216.383546 143.260793 
L 220.184583 146.644814 
L 223.985621 149.923026 
L 239.189771 170.649821 
L 242.990809 202.797576 
L 246.791846 208.29656 
L 250.592884 226.485481 
L 261.995997 199.202181 
L 265.797034 161.978353 
L 269.598072 161.66117 
L 273.399109 143.366602 
L 277.200147 134.800861 
L 288.60326 124.12024 
L 296.205335 170.649821 
L 300.006372 155.950649 
L 303.80741 159.651935 
L 315.210523 118.515447 
L 319.01156 129.513414 
L 322.812598 111.959104 
L 326.613636 97.154203 
L 330.414673 123.591438 
L 341.817786 90.068978 
L 345.618823 88.8 
L 349.419861 94.510439 
L 353.220899 126.446658 
L 357.021936 110.584317 
L 368.425049 114.708595 
L 372.226086 111.641839 
L 376.027124 113.439537 
L 379.828162 115.766036 
L 383.629199 98.105835 
L 395.032312 95.885145 
L 398.833349 100.643871 
L 402.634387 134.166413 
L 406.435425 151.826452 
L 410.236462 149.499952 
L 421.639575 140.299845 
L 425.440612 155.210473 
L 429.24165 171.495806 
L 433.042688 163.88186 
L 436.843725 171.284351 
L 448.246838 154.470216 
L 452.047875 189.684728 
L 455.848913 210.305795 
L 459.649951 207.239119 
L 463.450988 198.144659 
L 474.854101 173.399313 
L 478.655138 192.116955 
L 482.456176 171.390078 
L 486.257214 203.114841 
L 490.058251 190.847977 
L 501.461364 174.989047 
L 505.262401 158.172151 
L 509.063439 156.043384 
L 512.864477 147.954312 
L 516.665514 137.949309 
L 531.869665 143.803318 
L 535.670702 175.201883 
L 539.47174 258.221938 
L 543.272777 247.578345 
L 554.67589 259.818411 
L 558.476928 273.86795 
L 562.277965 276.741766 
L 566.079003 249.068441 
L 569.88004 260.031329 
L 581.283153 256.944677 
L 585.084191 264.182323 
L 588.885228 280.041254 
L 592.686266 280.573466 
L 596.487303 279.083369 
L 607.890416 264.820913 
L 611.691454 284.298707 
L 615.492491 280.360548 
L 619.293529 263.437275 
L 623.094566 255.986793 
L 634.497679 259.605575 
L 638.298717 272.590771 
L 642.099754 266.843222 
L 645.900792 275.464506 
L 649.701829 258.860527 
L 661.104942 259.92487 
L 664.90598 259.073363 
L 668.707017 263.543734 
L 672.508055 273.442278 
L 676.309092 298.454704 
L 687.712205 285.256672 
L 691.513243 287.172441 
L 695.31428 302.49924 
L 699.115318 309.311133 
L 702.916355 324.10572 
L 714.319468 342.519171 
L 718.120506 331.236989 
L 721.921543 362.635555 
L 725.722581 362.209801 
L 729.523618 366.254337 
L 740.926731 385.2 
L 744.727769 382.113348 
L 748.528806 378.707402 
L 752.329844 352.73701 
L 756.130881 336.239409 
L 767.533994 347.415214 
L 771.335032 354.227107 
L 775.136069 369.766742 
L 778.937107 384.667788 
L 782.738144 347.095919 
L 794.141257 359.016691 
L 797.942295 317.080991 
L 801.743332 304.41509 
L 805.54437 311.546278 
L 805.54437 1305.338544 
L 805.54437 1305.338544 
L 801.743332 1305.338544 
L 797.942295 1305.338544 
L 794.141257 1305.338544 
L 782.738144 1305.338544 
L 778.937107 1305.338544 
L 775.136069 1305.338544 
L 771.335032 1305.338544 
L 767.533994 1305.338544 
L 756.130881 1305.338544 
L 752.329844 1305.338544 
L 748.528806 1305.338544 
L 744.727769 1305.338544 
L 740.926731 1305.338544 
L 729.523618 1305.338544 
L 725.722581 1305.338544 
L 721.921543 1305.338544 
L 718.120506 1305.338544 
L 714.319468 1305.338544 
L 702.916355 1305.338544 
L 699.115318 1305.338544 
L 695.31428 1305.338544 
L 691.513243 1305.338544 
L 687.712205 1305.338544 
L 676.309092 1305.338544 
L 672.508055 1305.338544 
L 668.707017 1305.338544 
L 664.90598 1305.338544 
L 661.104942 1305.338544 
L 649.701829 1305.338544 
L 645.900792 1305.338544 
L 642.099754 1305.338544 
L 638.298717 1305.338544 
L 634.497679 1305.338544 
L 623.094566 1305.338544 
L 619.293529 1305.338544 
L 615.492491 1305.338544 
L 611.691454 1305.338544 
L 607.890416 1305.338544 
L 596.487303 1305.338544 
L 592.686266 1305.338544 
L 588.885228 1305.338544 
L 585.084191 1305.338544 
L 581.283153 1305.338544 
L 569.88004 1305.338544 
L 566.079003 1305.338544 
L 562.277965 1305.338544 
L 558.476928 1305.338544 
L 554.67589 1305.338544 
L 543.272777 1305.338544 
L 539.47174 1305.338544 
L 535.670702 1305.338544 
L 531.869665 1305.338544 
L 516.665514 1305.338544 
L 512.864477 1305.338544 
L 509.063439 1305.338544 
L 505.262401 1305.338544 
L 501.461364 1305.338544 
L 490.058251 1305.338544 
L 486.257214 1305.338544 
L 482.456176 1305.338544 
L 478.655138 1305.338544 
L 474.854101 1305.338544 
L 463.450988 1305.338544 
L 459.649951 1305.338544 
L 455.848913 1305.338544 
L 452.047875 1305.338544 
L 448.246838 1305.338544 
L 436.843725 1305.338544 
L 433.042688 1305.338544 
L 429.24165 1305.338544 
L 425.440612 1305.338544 
L 421.639575 1305.338544 
L 410.236462 1305.338544 
L 406.435425 1305.338544 
L 402.634387 1305.338544 
L 398.833349 1305.338544 
L 395.032312 1305.338544 
L 383.629199 1305.338544 
L 379.828162 1305.338544 
L 376.027124 1305.338544 
L 372.226086 1305.338544 
L 368.425049 1305.338544 
L 357.021936 1305.338544 
L 353.220899 1305.338544 
L 349.419861 1305.338544 
L 345.618823 1305.338544 
L 341.817786 1305.338544 
L 330.414673 1305.338544 
L 326.613636 1305.338544 
L 322.812598 1305.338544 
L 319.01156 1305.338544 
L 315.210523 1305.338544 
L 303.80741 1305.338544 
L 300.006372 1305.338544 
L 296.205335 1305.338544 
L 288.60326 1305.338544 
L 277.200147 1305.338544 
L 273.399109 1305.338544 
L 269.598072 1305.338544 
L 265.797034 1305.338544 
L 261.995997 1305.338544 
L 250.592884 1305.338544 
L 246.791846 1305.338544 
L 242.990809 1305.338544 
L 239.189771 1305.338544 
L 223.985621 1305.338544 
L 220.184583 1305.338544 
L 216.383546 1305.338544 
L 212.582508 1305.338544 
L 208.781471 1305.338544 
L 197.378358 1305.338544 
L 193.57732 1305.338544 
L 189.776283 1305.338544 
L 185.975245 1305.338544 
L 182.174208 1305.338544 
L 170.771095 1305.338544 
L 166.970057 1305.338544 
L 163.16902 1305.338544 
L 159.367982 1305.338544 
L 144.163832 1305.338544 
L 140.362794 1305.338544 
L 136.561757 1305.338544 
L 132.760719 1305.338544 
L 128.959682 1305.338544 
L 117.556569 1305.338544 
L 113.755531 1305.338544 
L 109.954494 1305.338544 
z
" style="fill:#0000ff;fill-opacity:0.1;stroke:#0000ff;stroke-opacity:0.1;"/>
   </g>
   <g id="matplotlib.axis_1">
    <g id="xtick_1">
     <g id="line2d_1">
      <defs>
       <path d="M 0 0 
L 0 3.5 
" id="m22ffb96703" style="stroke:#000000;stroke-width:0.8;"/>
      </defs>
      <g>
       <use style="stroke:#000000;stroke-width:0.8;" x="109.954494" xlink:href="#m22ffb96703" y="385.2"/>
      </g>
     </g>
     <g id="text_1">
      <!-- 05/23 -->
      <defs>
       <path d="M 31.78125 66.40625 
Q 24.171875 66.40625 20.328125 58.90625 
Q 16.5 51.421875 16.5 36.375 
Q 16.5 21.390625 20.328125 13.890625 
Q 24.171875 6.390625 31.78125 6.390625 
Q 39.453125 6.390625 43.28125 13.890625 
Q 47.125 21.390625 47.125 36.375 
Q 47.125 51.421875 43.28125 58.90625 
Q 39.453125 66.40625 31.78125 66.40625 
z
M 31.78125 74.21875 
Q 44.046875 74.21875 50.515625 64.515625 
Q 56.984375 54.828125 56.984375 36.375 
Q 56.984375 17.96875 50.515625 8.265625 
Q 44.046875 -1.421875 31.78125 -1.421875 
Q 19.53125 -1.421875 13.0625 8.265625 
Q 6.59375 17.96875 6.59375 36.375 
Q 6.59375 54.828125 13.0625 64.515625 
Q 19.53125 74.21875 31.78125 74.21875 
z
" id="DejaVuSans-48"/>
       <path d="M 10.796875 72.90625 
L 49.515625 72.90625 
L 49.515625 64.59375 
L 19.828125 64.59375 
L 19.828125 46.734375 
Q 21.96875 47.46875 24.109375 47.828125 
Q 26.265625 48.1875 28.421875 48.1875 
Q 40.625 48.1875 47.75 41.5 
Q 54.890625 34.8125 54.890625 23.390625 
Q 54.890625 11.625 47.5625 5.09375 
Q 40.234375 -1.421875 26.90625 -1.421875 
Q 22.3125 -1.421875 17.546875 -0.640625 
Q 12.796875 0.140625 7.71875 1.703125 
L 7.71875 11.625 
Q 12.109375 9.234375 16.796875 8.0625 
Q 21.484375 6.890625 26.703125 6.890625 
Q 35.15625 6.890625 40.078125 11.328125 
Q 45.015625 15.765625 45.015625 23.390625 
Q 45.015625 31 40.078125 35.4375 
Q 35.15625 39.890625 26.703125 39.890625 
Q 22.75 39.890625 18.8125 39.015625 
Q 14.890625 38.140625 10.796875 36.28125 
z
" id="DejaVuSans-53"/>
       <path d="M 25.390625 72.90625 
L 33.6875 72.90625 
L 8.296875 -9.28125 
L 0 -9.28125 
z
" id="DejaVuSans-47"/>
       <path d="M 19.1875 8.296875 
L 53.609375 8.296875 
L 53.609375 0 
L 7.328125 0 
L 7.328125 8.296875 
Q 12.9375 14.109375 22.625 23.890625 
Q 32.328125 33.6875 34.8125 36.53125 
Q 39.546875 41.84375 41.421875 45.53125 
Q 43.3125 49.21875 43.3125 52.78125 
Q 43.3125 58.59375 39.234375 62.25 
Q 35.15625 65.921875 28.609375 65.921875 
Q 23.96875 65.921875 18.8125 64.3125 
Q 13.671875 62.703125 7.8125 59.421875 
L 7.8125 69.390625 
Q 13.765625 71.78125 18.9375 73 
Q 24.125 74.21875 28.421875 74.21875 
Q 39.75 74.21875 46.484375 68.546875 
Q 53.21875 62.890625 53.21875 53.421875 
Q 53.21875 48.921875 51.53125 44.890625 
Q 49.859375 40.875 45.40625 35.40625 
Q 44.1875 33.984375 37.640625 27.21875 
Q 31.109375 20.453125 19.1875 8.296875 
z
" id="DejaVuSans-50"/>
       <path d="M 40.578125 39.3125 
Q 47.65625 37.796875 51.625 33 
Q 55.609375 28.21875 55.609375 21.1875 
Q 55.609375 10.40625 48.1875 4.484375 
Q 40.765625 -1.421875 27.09375 -1.421875 
Q 22.515625 -1.421875 17.65625 -0.515625 
Q 12.796875 0.390625 7.625 2.203125 
L 7.625 11.71875 
Q 11.71875 9.328125 16.59375 8.109375 
Q 21.484375 6.890625 26.8125 6.890625 
Q 36.078125 6.890625 40.9375 10.546875 
Q 45.796875 14.203125 45.796875 21.1875 
Q 45.796875 27.640625 41.28125 31.265625 
Q 36.765625 34.90625 28.71875 34.90625 
L 20.21875 34.90625 
L 20.21875 43.015625 
L 29.109375 43.015625 
Q 36.375 43.015625 40.234375 45.921875 
Q 44.09375 48.828125 44.09375 54.296875 
Q 44.09375 59.90625 40.109375 62.90625 
Q 36.140625 65.921875 28.71875 65.921875 
Q 24.65625 65.921875 20.015625 65.03125 
Q 15.375 64.15625 9.8125 62.3125 
L 9.8125 71.09375 
Q 15.4375 72.65625 20.34375 73.4375 
Q 25.25 74.21875 29.59375 74.21875 
Q 40.828125 74.21875 47.359375 69.109375 
Q 53.90625 64.015625 53.90625 55.328125 
Q 53.90625 49.265625 50.4375 45.09375 
Q 46.96875 40.921875 40.578125 39.3125 
z
" id="DejaVuSans-51"/>
      </defs>
      <g transform="translate(66.726369 414.995312)scale(0.3 -0.3)">
       <use xlink:href="#DejaVuSans-48"/>
       <use x="63.623047" xlink:href="#DejaVuSans-53"/>
       <use x="127.246094" xlink:href="#DejaVuSans-47"/>
       <use x="160.9375" xlink:href="#DejaVuSans-50"/>
       <use x="224.560547" xlink:href="#DejaVuSans-51"/>
      </g>
     </g>
    </g>
    <g id="xtick_2">
     <g id="line2d_2">
      <g>
       <use style="stroke:#000000;stroke-width:0.8;" x="463.450988" xlink:href="#m22ffb96703" y="385.2"/>
      </g>
     </g>
     <g id="text_2">
      <!-- 08/23 -->
      <defs>
       <path d="M 31.78125 34.625 
Q 24.75 34.625 20.71875 30.859375 
Q 16.703125 27.09375 16.703125 20.515625 
Q 16.703125 13.921875 20.71875 10.15625 
Q 24.75 6.390625 31.78125 6.390625 
Q 38.8125 6.390625 42.859375 10.171875 
Q 46.921875 13.96875 46.921875 20.515625 
Q 46.921875 27.09375 42.890625 30.859375 
Q 38.875 34.625 31.78125 34.625 
z
M 21.921875 38.8125 
Q 15.578125 40.375 12.03125 44.71875 
Q 8.5 49.078125 8.5 55.328125 
Q 8.5 64.0625 14.71875 69.140625 
Q 20.953125 74.21875 31.78125 74.21875 
Q 42.671875 74.21875 48.875 69.140625 
Q 55.078125 64.0625 55.078125 55.328125 
Q 55.078125 49.078125 51.53125 44.71875 
Q 48 40.375 41.703125 38.8125 
Q 48.828125 37.15625 52.796875 32.3125 
Q 56.78125 27.484375 56.78125 20.515625 
Q 56.78125 9.90625 50.3125 4.234375 
Q 43.84375 -1.421875 31.78125 -1.421875 
Q 19.734375 -1.421875 13.25 4.234375 
Q 6.78125 9.90625 6.78125 20.515625 
Q 6.78125 27.484375 10.78125 32.3125 
Q 14.796875 37.15625 21.921875 38.8125 
z
M 18.3125 54.390625 
Q 18.3125 48.734375 21.84375 45.5625 
Q 25.390625 42.390625 31.78125 42.390625 
Q 38.140625 42.390625 41.71875 45.5625 
Q 45.3125 48.734375 45.3125 54.390625 
Q 45.3125 60.0625 41.71875 63.234375 
Q 38.140625 66.40625 31.78125 66.40625 
Q 25.390625 66.40625 21.84375 63.234375 
Q 18.3125 60.0625 18.3125 54.390625 
z
" id="DejaVuSans-56"/>
      </defs>
      <g transform="translate(420.222863 414.995312)scale(0.3 -0.3)">
       <use xlink:href="#DejaVuSans-48"/>
       <use x="63.623047" xlink:href="#DejaVuSans-56"/>
       <use x="127.246094" xlink:href="#DejaVuSans-47"/>
       <use x="160.9375" xlink:href="#DejaVuSans-50"/>
       <use x="224.560547" xlink:href="#DejaVuSans-51"/>
      </g>
     </g>
    </g>
    <g id="xtick_3">
     <g id="line2d_3">
      <g>
       <use style="stroke:#000000;stroke-width:0.8;" x="805.54437" xlink:href="#m22ffb96703" y="385.2"/>
      </g>
     </g>
     <g id="text_3">
      <!-- 11/23 -->
      <defs>
       <path d="M 12.40625 8.296875 
L 28.515625 8.296875 
L 28.515625 63.921875 
L 10.984375 60.40625 
L 10.984375 69.390625 
L 28.421875 72.90625 
L 38.28125 72.90625 
L 38.28125 8.296875 
L 54.390625 8.296875 
L 54.390625 0 
L 12.40625 0 
z
" id="DejaVuSans-49"/>
      </defs>
      <g transform="translate(762.316245 414.995312)scale(0.3 -0.3)">
       <use xlink:href="#DejaVuSans-49"/>
       <use x="63.623047" xlink:href="#DejaVuSans-49"/>
       <use x="127.246094" xlink:href="#DejaVuSans-47"/>
       <use x="160.9375" xlink:href="#DejaVuSans-50"/>
       <use x="224.560547" xlink:href="#DejaVuSans-51"/>
      </g>
     </g>
    </g>
   </g>
   <g id="matplotlib.axis_2">
    <g id="ytick_1">
     <g id="line2d_4">
      <defs>
       <path d="M 0 0 
L -3.5 0 
" id="m4895de3ffc" style="stroke:#000000;stroke-width:0.8;"/>
      </defs>
      <g>
       <use style="stroke:#000000;stroke-width:0.8;" x="75.175" xlink:href="#m4895de3ffc" y="347.415214"/>
      </g>
     </g>
     <g id="text_4">
      <!-- 90 -->
      <defs>
       <path d="M 10.984375 1.515625 
L 10.984375 10.5 
Q 14.703125 8.734375 18.5 7.8125 
Q 22.3125 6.890625 25.984375 6.890625 
Q 35.75 6.890625 40.890625 13.453125 
Q 46.046875 20.015625 46.78125 33.40625 
Q 43.953125 29.203125 39.59375 26.953125 
Q 35.25 24.703125 29.984375 24.703125 
Q 19.046875 24.703125 12.671875 31.3125 
Q 6.296875 37.9375 6.296875 49.421875 
Q 6.296875 60.640625 12.9375 67.421875 
Q 19.578125 74.21875 30.609375 74.21875 
Q 43.265625 74.21875 49.921875 64.515625 
Q 56.59375 54.828125 56.59375 36.375 
Q 56.59375 19.140625 48.40625 8.859375 
Q 40.234375 -1.421875 26.421875 -1.421875 
Q 22.703125 -1.421875 18.890625 -0.6875 
Q 15.09375 0.046875 10.984375 1.515625 
z
M 30.609375 32.421875 
Q 37.25 32.421875 41.125 36.953125 
Q 45.015625 41.5 45.015625 49.421875 
Q 45.015625 57.28125 41.125 61.84375 
Q 37.25 66.40625 30.609375 66.40625 
Q 23.96875 66.40625 20.09375 61.84375 
Q 16.21875 57.28125 16.21875 49.421875 
Q 16.21875 41.5 20.09375 36.953125 
Q 23.96875 32.421875 30.609375 32.421875 
z
" id="DejaVuSans-57"/>
      </defs>
      <g transform="translate(30 358.81287)scale(0.3 -0.3)">
       <use xlink:href="#DejaVuSans-57"/>
       <use x="63.623047" xlink:href="#DejaVuSans-48"/>
      </g>
     </g>
    </g>
    <g id="ytick_2">
     <g id="line2d_5">
      <g>
       <use style="stroke:#000000;stroke-width:0.8;" x="75.175" xlink:href="#m4895de3ffc" y="240.979288"/>
      </g>
     </g>
     <g id="text_5">
      <!-- 100 -->
      <g transform="translate(10.9125 252.376945)scale(0.3 -0.3)">
       <use xlink:href="#DejaVuSans-49"/>
       <use x="63.623047" xlink:href="#DejaVuSans-48"/>
       <use x="127.246094" xlink:href="#DejaVuSans-48"/>
      </g>
     </g>
    </g>
    <g id="ytick_3">
     <g id="line2d_6">
      <g>
       <use style="stroke:#000000;stroke-width:0.8;" x="75.175" xlink:href="#m4895de3ffc" y="134.543363"/>
      </g>
     </g>
     <g id="text_6">
      <!-- 110 -->
      <g transform="translate(10.9125 145.941019)scale(0.3 -0.3)">
       <use xlink:href="#DejaVuSans-49"/>
       <use x="63.623047" xlink:href="#DejaVuSans-49"/>
       <use x="127.246094" xlink:href="#DejaVuSans-48"/>
      </g>
     </g>
    </g>
   </g>
   <g id="line2d_7">
    <path clip-path="url(#pc63444dff0)" d="M 109.954494 263.968107 
L 113.755531 232.229783 
L 117.556569 236.959032 
L 128.959682 228.131165 
L 132.760719 245.68174 
L 136.561757 267.120859 
L 140.362794 254.614686 
L 144.163832 194.443373 
L 159.367982 195.289358 
L 163.16902 210.728787 
L 166.970057 185.56053 
L 170.771095 193.703116 
L 182.174208 220.140431 
L 185.975245 210.094258 
L 189.776283 194.866365 
L 193.57732 192.222683 
L 197.378358 200.36543 
L 208.781471 172.553328 
L 212.582508 145.270108 
L 216.383546 143.260793 
L 223.985621 149.923026 
L 239.189771 170.649821 
L 242.990809 202.797576 
L 246.791846 208.29656 
L 250.592884 226.485481 
L 261.995997 199.202181 
L 265.797034 161.978353 
L 269.598072 161.66117 
L 273.399109 143.366602 
L 277.200147 134.800861 
L 288.60326 124.12024 
L 296.205335 170.649821 
L 300.006372 155.950649 
L 303.80741 159.651935 
L 315.210523 118.515447 
L 319.01156 129.513414 
L 322.812598 111.959104 
L 326.613636 97.154203 
L 330.414673 123.591438 
L 341.817786 90.068978 
L 345.618823 88.8 
L 349.419861 94.510439 
L 353.220899 126.446658 
L 357.021936 110.584317 
L 368.425049 114.708595 
L 372.226086 111.641839 
L 376.027124 113.439537 
L 379.828162 115.766036 
L 383.629199 98.105835 
L 395.032312 95.885145 
L 398.833349 100.643871 
L 402.634387 134.166413 
L 406.435425 151.826452 
L 410.236462 149.499952 
L 421.639575 140.299845 
L 425.440612 155.210473 
L 429.24165 171.495806 
L 433.042688 163.88186 
L 436.843725 171.284351 
L 448.246838 154.470216 
L 452.047875 189.684728 
L 455.848913 210.305795 
L 459.649951 207.239119 
L 463.450988 198.144659 
L 474.854101 173.399313 
L 478.655138 192.116955 
L 482.456176 171.390078 
L 486.257214 203.114841 
L 490.058251 190.847977 
L 501.461364 174.989047 
L 505.262401 158.172151 
L 509.063439 156.043384 
L 512.864477 147.954312 
L 516.665514 137.949309 
L 531.869665 143.803318 
L 535.670702 175.201883 
L 539.47174 258.221938 
L 543.272777 247.578345 
L 554.67589 259.818411 
L 558.476928 273.86795 
L 562.277965 276.741766 
L 566.079003 249.068441 
L 569.88004 260.031329 
L 581.283153 256.944677 
L 585.084191 264.182323 
L 588.885228 280.041254 
L 592.686266 280.573466 
L 596.487303 279.083369 
L 607.890416 264.820913 
L 611.691454 284.298707 
L 615.492491 280.360548 
L 619.293529 263.437275 
L 623.094566 255.986793 
L 634.497679 259.605575 
L 638.298717 272.590771 
L 642.099754 266.843222 
L 645.900792 275.464506 
L 649.701829 258.860527 
L 661.104942 259.92487 
L 664.90598 259.073363 
L 668.707017 263.543734 
L 672.508055 273.442278 
L 676.309092 298.454704 
L 687.712205 285.256672 
L 691.513243 287.172441 
L 695.31428 302.49924 
L 699.115318 309.311133 
L 702.916355 324.10572 
L 714.319468 342.519171 
L 718.120506 331.236989 
L 721.921543 362.635555 
L 725.722581 362.209801 
L 729.523618 366.254337 
L 740.926731 385.2 
L 744.727769 382.113348 
L 748.528806 378.707402 
L 752.329844 352.73701 
L 756.130881 336.239409 
L 767.533994 347.415214 
L 771.335032 354.227107 
L 775.136069 369.766742 
L 778.937107 384.667788 
L 782.738144 347.095919 
L 794.141257 359.016691 
L 797.942295 317.080991 
L 801.743332 304.41509 
L 805.54437 311.546278 
L 805.54437 311.546278 
" style="fill:none;stroke:#000000;stroke-linecap:square;stroke-width:4;"/>
   </g>
   <g id="patch_3">
    <path d="M 75.175 385.2 
L 75.175 88.8 
" style="fill:none;stroke:#000000;stroke-linecap:square;stroke-linejoin:miter;stroke-width:0.8;"/>
   </g>
   <g id="patch_4">
    <path d="M 75.175 385.2 
L 840.323864 385.2 
" style="fill:none;stroke:#000000;stroke-linecap:square;stroke-linejoin:miter;stroke-width:0.8;"/>
   </g>
   <g id="text_7">
    <!-- SWKS   -4% -->
    <defs>
     <path d="M 59.90625 70.609375 
L 59.90625 55.171875 
Q 53.90625 57.859375 48.1875 59.21875 
Q 42.484375 60.59375 37.40625 60.59375 
Q 30.671875 60.59375 27.4375 58.734375 
Q 24.21875 56.890625 24.21875 52.984375 
Q 24.21875 50.046875 26.390625 48.40625 
Q 28.5625 46.78125 34.28125 45.609375 
L 42.28125 44 
Q 54.4375 41.546875 59.5625 36.5625 
Q 64.703125 31.59375 64.703125 22.40625 
Q 64.703125 10.359375 57.546875 4.46875 
Q 50.390625 -1.421875 35.6875 -1.421875 
Q 28.765625 -1.421875 21.78125 -0.09375 
Q 14.796875 1.21875 7.8125 3.8125 
L 7.8125 19.671875 
Q 14.796875 15.96875 21.3125 14.078125 
Q 27.828125 12.203125 33.890625 12.203125 
Q 40.046875 12.203125 43.3125 14.25 
Q 46.578125 16.3125 46.578125 20.125 
Q 46.578125 23.53125 44.359375 25.390625 
Q 42.140625 27.25 35.5 28.71875 
L 28.21875 30.328125 
Q 17.28125 32.671875 12.21875 37.796875 
Q 7.171875 42.921875 7.171875 51.609375 
Q 7.171875 62.5 14.203125 68.359375 
Q 21.234375 74.21875 34.421875 74.21875 
Q 40.4375 74.21875 46.78125 73.3125 
Q 53.125 72.40625 59.90625 70.609375 
z
" id="DejaVuSans-Bold-83"/>
     <path d="M 2.984375 72.90625 
L 21 72.90625 
L 33.59375 19.921875 
L 46.09375 72.90625 
L 64.203125 72.90625 
L 76.703125 19.921875 
L 89.3125 72.90625 
L 107.171875 72.90625 
L 89.984375 0 
L 68.3125 0 
L 55.078125 55.421875 
L 42 0 
L 20.3125 0 
z
" id="DejaVuSans-Bold-87"/>
     <path d="M 9.1875 72.90625 
L 27.984375 72.90625 
L 27.984375 46.296875 
L 55.078125 72.90625 
L 76.90625 72.90625 
L 41.796875 38.375 
L 80.515625 0 
L 56.984375 0 
L 27.984375 28.71875 
L 27.984375 0 
L 9.1875 0 
z
" id="DejaVuSans-Bold-75"/>
     <path id="DejaVuSans-Bold-32"/>
     <path d="M 5.421875 35.890625 
L 36.078125 35.890625 
L 36.078125 21.6875 
L 5.421875 21.6875 
z
" id="DejaVuSans-Bold-45"/>
     <path d="M 36.8125 57.421875 
L 16.21875 26.90625 
L 36.8125 26.90625 
z
M 33.6875 72.90625 
L 54.59375 72.90625 
L 54.59375 26.90625 
L 64.984375 26.90625 
L 64.984375 13.28125 
L 54.59375 13.28125 
L 54.59375 0 
L 36.8125 0 
L 36.8125 13.28125 
L 4.5 13.28125 
L 4.5 29.390625 
z
" id="DejaVuSans-Bold-52"/>
     <path d="M 77.484375 30.078125 
Q 74.03125 30.078125 72.125 27.078125 
Q 70.21875 24.078125 70.21875 18.5 
Q 70.21875 12.890625 72.09375 9.890625 
Q 73.96875 6.890625 77.484375 6.890625 
Q 81 6.890625 82.859375 9.890625 
Q 84.71875 12.890625 84.71875 18.5 
Q 84.71875 24.078125 82.828125 27.078125 
Q 80.953125 30.078125 77.484375 30.078125 
z
M 77.484375 38.28125 
Q 86.578125 38.28125 91.796875 33 
Q 97.015625 27.734375 97.015625 18.5 
Q 97.015625 9.28125 91.796875 3.921875 
Q 86.578125 -1.421875 77.484375 -1.421875 
Q 68.40625 -1.421875 63.15625 3.921875 
Q 57.90625 9.28125 57.90625 18.5 
Q 57.90625 27.6875 63.15625 32.984375 
Q 68.40625 38.28125 77.484375 38.28125 
z
M 32.71875 -1.421875 
L 21.921875 -1.421875 
L 67.484375 74.21875 
L 78.328125 74.21875 
z
M 22.703125 74.21875 
Q 31.78125 74.21875 36.984375 68.921875 
Q 42.1875 63.625 42.1875 54.390625 
Q 42.1875 45.171875 36.984375 39.84375 
Q 31.78125 34.515625 22.703125 34.515625 
Q 13.625 34.515625 8.421875 39.84375 
Q 3.21875 45.171875 3.21875 54.390625 
Q 3.21875 63.625 8.421875 68.921875 
Q 13.625 74.21875 22.703125 74.21875 
z
M 22.703125 66.015625 
Q 19.1875 66.015625 17.28125 62.984375 
Q 15.375 59.96875 15.375 54.390625 
Q 15.375 48.78125 17.28125 45.71875 
Q 19.1875 42.671875 22.703125 42.671875 
Q 26.21875 42.671875 28.09375 45.71875 
Q 29.984375 48.78125 29.984375 54.390625 
Q 29.984375 59.96875 28.078125 62.984375 
Q 26.171875 66.015625 22.703125 66.015625 
z
" id="DejaVuSans-Bold-37"/>
    </defs>
    <g transform="translate(75.175 72.1625)scale(0.8 -0.8)">
     <use xlink:href="#DejaVuSans-Bold-83"/>
     <use x="72.021484" xlink:href="#DejaVuSans-Bold-87"/>
     <use x="182.324219" xlink:href="#DejaVuSans-Bold-75"/>
     <use x="259.814453" xlink:href="#DejaVuSans-Bold-83"/>
     <use x="331.835938" xlink:href="#DejaVuSans-Bold-32"/>
     <use x="366.650391" xlink:href="#DejaVuSans-Bold-32"/>
     <use x="401.464844" xlink:href="#DejaVuSans-Bold-32"/>
     <use x="436.279297" xlink:href="#DejaVuSans-Bold-45"/>
     <use x="477.783203" xlink:href="#DejaVuSans-Bold-52"/>
     <use x="547.363281" xlink:href="#DejaVuSans-Bold-37"/>
    </g>
   </g>
  </g>
 </g>
 <defs>
  <clipPath id="pc63444dff0">
   <rect height="296.4" width="765.148864" x="75.175" y="88.8"/>
  </clipPath>
 </defs>
</svg>
