<?xml version="1.0" encoding="utf-8" standalone="no"?>
<!DOCTYPE svg PUBLIC "-//W3C//DTD SVG 1.1//EN"
  "http://www.w3.org/Graphics/SVG/1.1/DTD/svg11.dtd">
<!-- Created with matplotlib (https://matplotlib.org/) -->
<svg height="432pt" version="1.1" viewBox="0 0 864 432" width="864pt" xmlns="http://www.w3.org/2000/svg" xmlns:xlink="http://www.w3.org/1999/xlink">
 <defs>
  <style type="text/css">
*{stroke-linecap:butt;stroke-linejoin:round;}
  </style>
 </defs>
 <g id="figure_1">
  <g id="patch_1">
   <path d="M 0 432 
L 864 432 
L 864 0 
L 0 0 
z
" style="fill:none;"/>
  </g>
  <g id="axes_1">
   <g id="patch_2">
    <path d="M 56.05 385.2 
L 840.323864 385.2 
L 840.323864 88.8 
L 56.05 88.8 
z
" style="fill:none;"/>
   </g>
   <g id="PolyCollection_1">
    <path clip-path="url(#pc08e33604d)" d="M 91.698812 702.608709 
L 91.698812 321.920752 
L 95.573683 319.769256 
L 99.448554 334.323479 
L 111.073166 320.908285 
L 114.948037 344.321611 
L 118.822908 343.941927 
L 122.697779 360.014862 
L 126.57265 352.67447 
L 142.072133 339.132715 
L 145.947004 326.476865 
L 149.821875 321.414506 
L 153.696746 310.277369 
L 165.321358 242.948253 
L 169.196229 249.023055 
L 173.0711 263.197593 
L 176.945971 243.454498 
L 180.820842 243.201376 
L 192.445455 247.124658 
L 196.320325 214.346005 
L 200.195196 183.212627 
L 204.070067 175.239476 
L 207.944938 163.97573 
L 223.444421 196.248185 
L 227.319292 217.130308 
L 231.194163 223.584818 
L 235.069034 228.394006 
L 246.693647 237.759356 
L 250.568518 166.253786 
L 254.443388 144.232635 
L 258.318259 149.801191 
L 262.19313 153.091739 
L 273.817743 152.585494 
L 281.567485 176.378456 
L 285.442355 189.414014 
L 289.317226 190.553043 
L 300.941839 196.880968 
L 304.81671 148.02938 
L 308.691581 149.674654 
L 312.566451 109.808709 
L 316.441322 141.448333 
L 328.065935 119.427133 
L 331.940806 106.138501 
L 335.815677 88.8 
L 339.690548 140.182767 
L 343.565418 139.549936 
L 355.190031 151.446465 
L 359.064902 155.875994 
L 362.939773 154.23072 
L 366.814644 155.749456 
L 370.689514 128.1597 
L 382.314127 122.464558 
L 386.188998 129.298729 
L 390.063869 178.02373 
L 393.93874 182.200184 
L 397.813611 194.223251 
L 409.438223 197.007505 
L 413.313094 210.422723 
L 417.187965 227.254978 
L 421.062836 233.203243 
L 424.937707 239.024922 
L 436.562319 240.16395 
L 440.43719 255.604102 
L 444.312061 263.450716 
L 448.186932 274.334754 
L 452.061803 267.120924 
L 463.686415 265.855358 
L 467.561286 271.677037 
L 471.436157 264.336621 
L 475.311028 274.208217 
L 479.185899 263.197593 
L 490.810511 263.577301 
L 494.685382 234.721931 
L 498.560253 228.394006 
L 502.435124 233.456365 
L 506.309995 233.203243 
L 521.809478 214.346005 
L 525.684349 205.360364 
L 529.55922 221.559884 
L 533.434091 225.736289 
L 545.058704 221.433299 
L 548.933574 209.410232 
L 552.808445 236.620328 
L 556.683316 250.668329 
L 560.558187 242.948253 
L 572.1828 279.270528 
L 576.05767 272.816066 
L 579.932541 280.915802 
L 583.807412 301.038605 
L 587.682283 302.557293 
L 599.306896 305.721255 
L 603.181767 317.238077 
L 607.056637 315.84595 
L 610.931508 313.947577 
L 614.806379 305.341595 
L 626.430992 316.099048 
L 630.305863 331.5392 
L 634.180733 330.020488 
L 638.055604 338.879592 
L 641.930475 321.034846 
L 653.555088 326.729964 
L 657.429959 322.680096 
L 661.30483 319.516134 
L 665.1797 334.956286 
L 669.054571 347.865234 
L 680.679184 343.435706 
L 684.554055 335.968753 
L 688.428926 354.572843 
L 692.303796 354.699404 
L 696.178667 358.749272 
L 707.80328 369.000504 
L 711.678151 355.205626 
L 715.553022 377.479924 
L 719.427893 374.822207 
L 723.302763 379.378297 
L 734.927376 385.2 
L 738.802247 381.529792 
L 742.677118 385.2 
L 746.551989 372.923835 
L 750.42686 352.801032 
L 762.051472 375.961236 
L 765.926343 363.431947 
L 769.801214 372.797273 
L 773.676085 383.175066 
L 777.550956 360.774206 
L 789.175568 346.219984 
L 793.050439 333.311012 
L 796.92531 320.528601 
L 800.800181 336.854658 
L 804.675052 335.272677 
L 804.675052 702.608709 
L 804.675052 702.608709 
L 800.800181 702.608709 
L 796.92531 702.608709 
L 793.050439 702.608709 
L 789.175568 702.608709 
L 777.550956 702.608709 
L 773.676085 702.608709 
L 769.801214 702.608709 
L 765.926343 702.608709 
L 762.051472 702.608709 
L 750.42686 702.608709 
L 746.551989 702.608709 
L 742.677118 702.608709 
L 738.802247 702.608709 
L 734.927376 702.608709 
L 723.302763 702.608709 
L 719.427893 702.608709 
L 715.553022 702.608709 
L 711.678151 702.608709 
L 707.80328 702.608709 
L 696.178667 702.608709 
L 692.303796 702.608709 
L 688.428926 702.608709 
L 684.554055 702.608709 
L 680.679184 702.608709 
L 669.054571 702.608709 
L 665.1797 702.608709 
L 661.30483 702.608709 
L 657.429959 702.608709 
L 653.555088 702.608709 
L 641.930475 702.608709 
L 638.055604 702.608709 
L 634.180733 702.608709 
L 630.305863 702.608709 
L 626.430992 702.608709 
L 614.806379 702.608709 
L 610.931508 702.608709 
L 607.056637 702.608709 
L 603.181767 702.608709 
L 599.306896 702.608709 
L 587.682283 702.608709 
L 583.807412 702.608709 
L 579.932541 702.608709 
L 576.05767 702.608709 
L 572.1828 702.608709 
L 560.558187 702.608709 
L 556.683316 702.608709 
L 552.808445 702.608709 
L 548.933574 702.608709 
L 545.058704 702.608709 
L 533.434091 702.608709 
L 529.55922 702.608709 
L 525.684349 702.608709 
L 521.809478 702.608709 
L 506.309995 702.608709 
L 502.435124 702.608709 
L 498.560253 702.608709 
L 494.685382 702.608709 
L 490.810511 702.608709 
L 479.185899 702.608709 
L 475.311028 702.608709 
L 471.436157 702.608709 
L 467.561286 702.608709 
L 463.686415 702.608709 
L 452.061803 702.608709 
L 448.186932 702.608709 
L 444.312061 702.608709 
L 440.43719 702.608709 
L 436.562319 702.608709 
L 424.937707 702.608709 
L 421.062836 702.608709 
L 417.187965 702.608709 
L 413.313094 702.608709 
L 409.438223 702.608709 
L 397.813611 702.608709 
L 393.93874 702.608709 
L 390.063869 702.608709 
L 386.188998 702.608709 
L 382.314127 702.608709 
L 370.689514 702.608709 
L 366.814644 702.608709 
L 362.939773 702.608709 
L 359.064902 702.608709 
L 355.190031 702.608709 
L 343.565418 702.608709 
L 339.690548 702.608709 
L 335.815677 702.608709 
L 331.940806 702.608709 
L 328.065935 702.608709 
L 316.441322 702.608709 
L 312.566451 702.608709 
L 308.691581 702.608709 
L 304.81671 702.608709 
L 300.941839 702.608709 
L 289.317226 702.608709 
L 285.442355 702.608709 
L 281.567485 702.608709 
L 273.817743 702.608709 
L 262.19313 702.608709 
L 258.318259 702.608709 
L 254.443388 702.608709 
L 250.568518 702.608709 
L 246.693647 702.608709 
L 235.069034 702.608709 
L 231.194163 702.608709 
L 227.319292 702.608709 
L 223.444421 702.608709 
L 207.944938 702.608709 
L 204.070067 702.608709 
L 200.195196 702.608709 
L 196.320325 702.608709 
L 192.445455 702.608709 
L 180.820842 702.608709 
L 176.945971 702.608709 
L 173.0711 702.608709 
L 169.196229 702.608709 
L 165.321358 702.608709 
L 153.696746 702.608709 
L 149.821875 702.608709 
L 145.947004 702.608709 
L 142.072133 702.608709 
L 126.57265 702.608709 
L 122.697779 702.608709 
L 118.822908 702.608709 
L 114.948037 702.608709 
L 111.073166 702.608709 
L 99.448554 702.608709 
L 95.573683 702.608709 
L 91.698812 702.608709 
z
" style="fill:#0000ff;fill-opacity:0.1;stroke:#0000ff;stroke-opacity:0.1;"/>
   </g>
   <g id="matplotlib.axis_1">
    <g id="xtick_1">
     <g id="line2d_1">
      <defs>
       <path d="M 0 0 
L 0 3.5 
" id="me5a5e4834a" style="stroke:#000000;stroke-width:0.8;"/>
      </defs>
      <g>
       <use style="stroke:#000000;stroke-width:0.8;" x="91.698812" xlink:href="#me5a5e4834a" y="385.2"/>
      </g>
     </g>
     <g id="text_1">
      <!-- 05/23 -->
      <defs>
       <path d="M 31.78125 66.40625 
Q 24.171875 66.40625 20.328125 58.90625 
Q 16.5 51.421875 16.5 36.375 
Q 16.5 21.390625 20.328125 13.890625 
Q 24.171875 6.390625 31.78125 6.390625 
Q 39.453125 6.390625 43.28125 13.890625 
Q 47.125 21.390625 47.125 36.375 
Q 47.125 51.421875 43.28125 58.90625 
Q 39.453125 66.40625 31.78125 66.40625 
z
M 31.78125 74.21875 
Q 44.046875 74.21875 50.515625 64.515625 
Q 56.984375 54.828125 56.984375 36.375 
Q 56.984375 17.96875 50.515625 8.265625 
Q 44.046875 -1.421875 31.78125 -1.421875 
Q 19.53125 -1.421875 13.0625 8.265625 
Q 6.59375 17.96875 6.59375 36.375 
Q 6.59375 54.828125 13.0625 64.515625 
Q 19.53125 74.21875 31.78125 74.21875 
z
" id="DejaVuSans-48"/>
       <path d="M 10.796875 72.90625 
L 49.515625 72.90625 
L 49.515625 64.59375 
L 19.828125 64.59375 
L 19.828125 46.734375 
Q 21.96875 47.46875 24.109375 47.828125 
Q 26.265625 48.1875 28.421875 48.1875 
Q 40.625 48.1875 47.75 41.5 
Q 54.890625 34.8125 54.890625 23.390625 
Q 54.890625 11.625 47.5625 5.09375 
Q 40.234375 -1.421875 26.90625 -1.421875 
Q 22.3125 -1.421875 17.546875 -0.640625 
Q 12.796875 0.140625 7.71875 1.703125 
L 7.71875 11.625 
Q 12.109375 9.234375 16.796875 8.0625 
Q 21.484375 6.890625 26.703125 6.890625 
Q 35.15625 6.890625 40.078125 11.328125 
Q 45.015625 15.765625 45.015625 23.390625 
Q 45.015625 31 40.078125 35.4375 
Q 35.15625 39.890625 26.703125 39.890625 
Q 22.75 39.890625 18.8125 39.015625 
Q 14.890625 38.140625 10.796875 36.28125 
z
" id="DejaVuSans-53"/>
       <path d="M 25.390625 72.90625 
L 33.6875 72.90625 
L 8.296875 -9.28125 
L 0 -9.28125 
z
" id="DejaVuSans-47"/>
       <path d="M 19.1875 8.296875 
L 53.609375 8.296875 
L 53.609375 0 
L 7.328125 0 
L 7.328125 8.296875 
Q 12.9375 14.109375 22.625 23.890625 
Q 32.328125 33.6875 34.8125 36.53125 
Q 39.546875 41.84375 41.421875 45.53125 
Q 43.3125 49.21875 43.3125 52.78125 
Q 43.3125 58.59375 39.234375 62.25 
Q 35.15625 65.921875 28.609375 65.921875 
Q 23.96875 65.921875 18.8125 64.3125 
Q 13.671875 62.703125 7.8125 59.421875 
L 7.8125 69.390625 
Q 13.765625 71.78125 18.9375 73 
Q 24.125 74.21875 28.421875 74.21875 
Q 39.75 74.21875 46.484375 68.546875 
Q 53.21875 62.890625 53.21875 53.421875 
Q 53.21875 48.921875 51.53125 44.890625 
Q 49.859375 40.875 45.40625 35.40625 
Q 44.1875 33.984375 37.640625 27.21875 
Q 31.109375 20.453125 19.1875 8.296875 
z
" id="DejaVuSans-50"/>
       <path d="M 40.578125 39.3125 
Q 47.65625 37.796875 51.625 33 
Q 55.609375 28.21875 55.609375 21.1875 
Q 55.609375 10.40625 48.1875 4.484375 
Q 40.765625 -1.421875 27.09375 -1.421875 
Q 22.515625 -1.421875 17.65625 -0.515625 
Q 12.796875 0.390625 7.625 2.203125 
L 7.625 11.71875 
Q 11.71875 9.328125 16.59375 8.109375 
Q 21.484375 6.890625 26.8125 6.890625 
Q 36.078125 6.890625 40.9375 10.546875 
Q 45.796875 14.203125 45.796875 21.1875 
Q 45.796875 27.640625 41.28125 31.265625 
Q 36.765625 34.90625 28.71875 34.90625 
L 20.21875 34.90625 
L 20.21875 43.015625 
L 29.109375 43.015625 
Q 36.375 43.015625 40.234375 45.921875 
Q 44.09375 48.828125 44.09375 54.296875 
Q 44.09375 59.90625 40.109375 62.90625 
Q 36.140625 65.921875 28.71875 65.921875 
Q 24.65625 65.921875 20.015625 65.03125 
Q 15.375 64.15625 9.8125 62.3125 
L 9.8125 71.09375 
Q 15.4375 72.65625 20.34375 73.4375 
Q 25.25 74.21875 29.59375 74.21875 
Q 40.828125 74.21875 47.359375 69.109375 
Q 53.90625 64.015625 53.90625 55.328125 
Q 53.90625 49.265625 50.4375 45.09375 
Q 46.96875 40.921875 40.578125 39.3125 
z
" id="DejaVuSans-51"/>
      </defs>
      <g transform="translate(48.470687 414.995312)scale(0.3 -0.3)">
       <use xlink:href="#DejaVuSans-48"/>
       <use x="63.623047" xlink:href="#DejaVuSans-53"/>
       <use x="127.246094" xlink:href="#DejaVuSans-47"/>
       <use x="160.9375" xlink:href="#DejaVuSans-50"/>
       <use x="224.560547" xlink:href="#DejaVuSans-51"/>
      </g>
     </g>
    </g>
    <g id="xtick_2">
     <g id="line2d_2">
      <g>
       <use style="stroke:#000000;stroke-width:0.8;" x="452.061803" xlink:href="#me5a5e4834a" y="385.2"/>
      </g>
     </g>
     <g id="text_2">
      <!-- 08/23 -->
      <defs>
       <path d="M 31.78125 34.625 
Q 24.75 34.625 20.71875 30.859375 
Q 16.703125 27.09375 16.703125 20.515625 
Q 16.703125 13.921875 20.71875 10.15625 
Q 24.75 6.390625 31.78125 6.390625 
Q 38.8125 6.390625 42.859375 10.171875 
Q 46.921875 13.96875 46.921875 20.515625 
Q 46.921875 27.09375 42.890625 30.859375 
Q 38.875 34.625 31.78125 34.625 
z
M 21.921875 38.8125 
Q 15.578125 40.375 12.03125 44.71875 
Q 8.5 49.078125 8.5 55.328125 
Q 8.5 64.0625 14.71875 69.140625 
Q 20.953125 74.21875 31.78125 74.21875 
Q 42.671875 74.21875 48.875 69.140625 
Q 55.078125 64.0625 55.078125 55.328125 
Q 55.078125 49.078125 51.53125 44.71875 
Q 48 40.375 41.703125 38.8125 
Q 48.828125 37.15625 52.796875 32.3125 
Q 56.78125 27.484375 56.78125 20.515625 
Q 56.78125 9.90625 50.3125 4.234375 
Q 43.84375 -1.421875 31.78125 -1.421875 
Q 19.734375 -1.421875 13.25 4.234375 
Q 6.78125 9.90625 6.78125 20.515625 
Q 6.78125 27.484375 10.78125 32.3125 
Q 14.796875 37.15625 21.921875 38.8125 
z
M 18.3125 54.390625 
Q 18.3125 48.734375 21.84375 45.5625 
Q 25.390625 42.390625 31.78125 42.390625 
Q 38.140625 42.390625 41.71875 45.5625 
Q 45.3125 48.734375 45.3125 54.390625 
Q 45.3125 60.0625 41.71875 63.234375 
Q 38.140625 66.40625 31.78125 66.40625 
Q 25.390625 66.40625 21.84375 63.234375 
Q 18.3125 60.0625 18.3125 54.390625 
z
" id="DejaVuSans-56"/>
      </defs>
      <g transform="translate(408.833678 414.995312)scale(0.3 -0.3)">
       <use xlink:href="#DejaVuSans-48"/>
       <use x="63.623047" xlink:href="#DejaVuSans-56"/>
       <use x="127.246094" xlink:href="#DejaVuSans-47"/>
       <use x="160.9375" xlink:href="#DejaVuSans-50"/>
       <use x="224.560547" xlink:href="#DejaVuSans-51"/>
      </g>
     </g>
    </g>
    <g id="xtick_3">
     <g id="line2d_3">
      <g>
       <use style="stroke:#000000;stroke-width:0.8;" x="804.675052" xlink:href="#me5a5e4834a" y="385.2"/>
      </g>
     </g>
     <g id="text_3">
      <!-- 11/23 -->
      <defs>
       <path d="M 12.40625 8.296875 
L 28.515625 8.296875 
L 28.515625 63.921875 
L 10.984375 60.40625 
L 10.984375 69.390625 
L 28.421875 72.90625 
L 38.28125 72.90625 
L 38.28125 8.296875 
L 54.390625 8.296875 
L 54.390625 0 
L 12.40625 0 
z
" id="DejaVuSans-49"/>
      </defs>
      <g transform="translate(761.446927 414.995312)scale(0.3 -0.3)">
       <use xlink:href="#DejaVuSans-49"/>
       <use x="63.623047" xlink:href="#DejaVuSans-49"/>
       <use x="127.246094" xlink:href="#DejaVuSans-47"/>
       <use x="160.9375" xlink:href="#DejaVuSans-50"/>
       <use x="224.560547" xlink:href="#DejaVuSans-51"/>
      </g>
     </g>
    </g>
   </g>
   <g id="matplotlib.axis_2">
    <g id="ytick_1">
     <g id="line2d_4">
      <defs>
       <path d="M 0 0 
L -3.5 0 
" id="mff3d53e82f" style="stroke:#000000;stroke-width:0.8;"/>
      </defs>
      <g>
       <use style="stroke:#000000;stroke-width:0.8;" x="56.05" xlink:href="#mff3d53e82f" y="297.621519"/>
      </g>
     </g>
     <g id="text_4">
      <!-- 32 -->
      <g transform="translate(10.875 309.019176)scale(0.3 -0.3)">
       <use xlink:href="#DejaVuSans-51"/>
       <use x="63.623047" xlink:href="#DejaVuSans-50"/>
      </g>
     </g>
    </g>
    <g id="ytick_2">
     <g id="line2d_5">
      <g>
       <use style="stroke:#000000;stroke-width:0.8;" x="56.05" xlink:href="#mff3d53e82f" y="196.374722"/>
      </g>
     </g>
     <g id="text_5">
      <!-- 40 -->
      <defs>
       <path d="M 37.796875 64.3125 
L 12.890625 25.390625 
L 37.796875 25.390625 
z
M 35.203125 72.90625 
L 47.609375 72.90625 
L 47.609375 25.390625 
L 58.015625 25.390625 
L 58.015625 17.1875 
L 47.609375 17.1875 
L 47.609375 0 
L 37.796875 0 
L 37.796875 17.1875 
L 4.890625 17.1875 
L 4.890625 26.703125 
z
" id="DejaVuSans-52"/>
      </defs>
      <g transform="translate(10.875 207.772378)scale(0.3 -0.3)">
       <use xlink:href="#DejaVuSans-52"/>
       <use x="63.623047" xlink:href="#DejaVuSans-48"/>
      </g>
     </g>
    </g>
    <g id="ytick_3">
     <g id="line2d_6">
      <g>
       <use style="stroke:#000000;stroke-width:0.8;" x="56.05" xlink:href="#mff3d53e82f" y="95.127925"/>
      </g>
     </g>
     <g id="text_6">
      <!-- 48 -->
      <g transform="translate(10.875 106.525581)scale(0.3 -0.3)">
       <use xlink:href="#DejaVuSans-52"/>
       <use x="63.623047" xlink:href="#DejaVuSans-56"/>
      </g>
     </g>
    </g>
   </g>
   <g id="line2d_7">
    <path clip-path="url(#pc08e33604d)" d="M 91.698812 321.920752 
L 95.573683 319.769256 
L 99.448554 334.323479 
L 111.073166 320.908285 
L 114.948037 344.321611 
L 118.822908 343.941927 
L 122.697779 360.014862 
L 126.57265 352.67447 
L 142.072133 339.132715 
L 145.947004 326.476865 
L 149.821875 321.414506 
L 153.696746 310.277369 
L 165.321358 242.948253 
L 169.196229 249.023055 
L 173.0711 263.197593 
L 176.945971 243.454498 
L 180.820842 243.201376 
L 192.445455 247.124658 
L 196.320325 214.346005 
L 200.195196 183.212627 
L 204.070067 175.239476 
L 207.944938 163.97573 
L 223.444421 196.248185 
L 227.319292 217.130308 
L 231.194163 223.584818 
L 235.069034 228.394006 
L 246.693647 237.759356 
L 250.568518 166.253786 
L 254.443388 144.232635 
L 258.318259 149.801191 
L 262.19313 153.091739 
L 273.817743 152.585494 
L 281.567485 176.378456 
L 285.442355 189.414014 
L 289.317226 190.553043 
L 300.941839 196.880968 
L 304.81671 148.02938 
L 308.691581 149.674654 
L 312.566451 109.808709 
L 316.441322 141.448333 
L 328.065935 119.427133 
L 331.940806 106.138501 
L 335.815677 88.8 
L 339.690548 140.182767 
L 343.565418 139.549936 
L 355.190031 151.446465 
L 359.064902 155.875994 
L 362.939773 154.23072 
L 366.814644 155.749456 
L 370.689514 128.1597 
L 382.314127 122.464558 
L 386.188998 129.298729 
L 390.063869 178.02373 
L 393.93874 182.200184 
L 397.813611 194.223251 
L 409.438223 197.007505 
L 413.313094 210.422723 
L 417.187965 227.254978 
L 424.937707 239.024922 
L 436.562319 240.16395 
L 440.43719 255.604102 
L 444.312061 263.450716 
L 448.186932 274.334754 
L 452.061803 267.120924 
L 463.686415 265.855358 
L 467.561286 271.677037 
L 471.436157 264.336621 
L 475.311028 274.208217 
L 479.185899 263.197593 
L 490.810511 263.577301 
L 494.685382 234.721931 
L 498.560253 228.394006 
L 502.435124 233.456365 
L 506.309995 233.203243 
L 521.809478 214.346005 
L 525.684349 205.360364 
L 529.55922 221.559884 
L 533.434091 225.736289 
L 545.058704 221.433299 
L 548.933574 209.410232 
L 552.808445 236.620328 
L 556.683316 250.668329 
L 560.558187 242.948253 
L 572.1828 279.270528 
L 576.05767 272.816066 
L 579.932541 280.915802 
L 583.807412 301.038605 
L 587.682283 302.557293 
L 599.306896 305.721255 
L 603.181767 317.238077 
L 607.056637 315.84595 
L 610.931508 313.947577 
L 614.806379 305.341595 
L 626.430992 316.099048 
L 630.305863 331.5392 
L 634.180733 330.020488 
L 638.055604 338.879592 
L 641.930475 321.034846 
L 653.555088 326.729964 
L 657.429959 322.680096 
L 661.30483 319.516134 
L 665.1797 334.956286 
L 669.054571 347.865234 
L 680.679184 343.435706 
L 684.554055 335.968753 
L 688.428926 354.572843 
L 692.303796 354.699404 
L 696.178667 358.749272 
L 707.80328 369.000504 
L 711.678151 355.205626 
L 715.553022 377.479924 
L 719.427893 374.822207 
L 723.302763 379.378297 
L 734.927376 385.2 
L 738.802247 381.529792 
L 742.677118 385.2 
L 746.551989 372.923835 
L 750.42686 352.801032 
L 762.051472 375.961236 
L 765.926343 363.431947 
L 769.801214 372.797273 
L 773.676085 383.175066 
L 777.550956 360.774206 
L 789.175568 346.219984 
L 796.92531 320.528601 
L 800.800181 336.854658 
L 804.675052 335.272677 
L 804.675052 335.272677 
" style="fill:none;stroke:#000000;stroke-linecap:square;stroke-width:4;"/>
   </g>
   <g id="patch_3">
    <path d="M 56.05 385.2 
L 56.05 88.8 
" style="fill:none;stroke:#000000;stroke-linecap:square;stroke-linejoin:miter;stroke-width:0.8;"/>
   </g>
   <g id="patch_4">
    <path d="M 56.05 385.2 
L 840.323864 385.2 
" style="fill:none;stroke:#000000;stroke-linecap:square;stroke-linejoin:miter;stroke-width:0.8;"/>
   </g>
   <g id="text_7">
    <!-- U   -3% -->
    <defs>
     <path d="M 9.1875 72.90625 
L 27.984375 72.90625 
L 27.984375 29.203125 
Q 27.984375 20.171875 30.9375 16.28125 
Q 33.890625 12.40625 40.578125 12.40625 
Q 47.3125 12.40625 50.265625 16.28125 
Q 53.21875 20.171875 53.21875 29.203125 
L 53.21875 72.90625 
L 72.015625 72.90625 
L 72.015625 29.203125 
Q 72.015625 13.71875 64.25 6.140625 
Q 56.5 -1.421875 40.578125 -1.421875 
Q 24.703125 -1.421875 16.9375 6.140625 
Q 9.1875 13.71875 9.1875 29.203125 
z
" id="DejaVuSans-Bold-85"/>
     <path id="DejaVuSans-Bold-32"/>
     <path d="M 5.421875 35.890625 
L 36.078125 35.890625 
L 36.078125 21.6875 
L 5.421875 21.6875 
z
" id="DejaVuSans-Bold-45"/>
     <path d="M 46.578125 39.3125 
Q 53.953125 37.40625 57.78125 32.6875 
Q 61.625 27.984375 61.625 20.703125 
Q 61.625 9.859375 53.3125 4.21875 
Q 45.015625 -1.421875 29.109375 -1.421875 
Q 23.484375 -1.421875 17.84375 -0.515625 
Q 12.203125 0.390625 6.6875 2.203125 
L 6.6875 16.703125 
Q 11.96875 14.0625 17.15625 12.71875 
Q 22.359375 11.375 27.390625 11.375 
Q 34.859375 11.375 38.84375 13.953125 
Q 42.828125 16.546875 42.828125 21.390625 
Q 42.828125 26.375 38.75 28.9375 
Q 34.671875 31.5 26.703125 31.5 
L 19.1875 31.5 
L 19.1875 43.609375 
L 27.09375 43.609375 
Q 34.1875 43.609375 37.640625 45.828125 
Q 41.109375 48.046875 41.109375 52.59375 
Q 41.109375 56.78125 37.734375 59.078125 
Q 34.375 61.375 28.21875 61.375 
Q 23.6875 61.375 19.046875 60.34375 
Q 14.40625 59.328125 9.8125 57.328125 
L 9.8125 71.09375 
Q 15.375 72.65625 20.84375 73.4375 
Q 26.3125 74.21875 31.59375 74.21875 
Q 45.796875 74.21875 52.84375 69.546875 
Q 59.90625 64.890625 59.90625 55.515625 
Q 59.90625 49.125 56.53125 45.046875 
Q 53.171875 40.96875 46.578125 39.3125 
z
" id="DejaVuSans-Bold-51"/>
     <path d="M 77.484375 30.078125 
Q 74.03125 30.078125 72.125 27.078125 
Q 70.21875 24.078125 70.21875 18.5 
Q 70.21875 12.890625 72.09375 9.890625 
Q 73.96875 6.890625 77.484375 6.890625 
Q 81 6.890625 82.859375 9.890625 
Q 84.71875 12.890625 84.71875 18.5 
Q 84.71875 24.078125 82.828125 27.078125 
Q 80.953125 30.078125 77.484375 30.078125 
z
M 77.484375 38.28125 
Q 86.578125 38.28125 91.796875 33 
Q 97.015625 27.734375 97.015625 18.5 
Q 97.015625 9.28125 91.796875 3.921875 
Q 86.578125 -1.421875 77.484375 -1.421875 
Q 68.40625 -1.421875 63.15625 3.921875 
Q 57.90625 9.28125 57.90625 18.5 
Q 57.90625 27.6875 63.15625 32.984375 
Q 68.40625 38.28125 77.484375 38.28125 
z
M 32.71875 -1.421875 
L 21.921875 -1.421875 
L 67.484375 74.21875 
L 78.328125 74.21875 
z
M 22.703125 74.21875 
Q 31.78125 74.21875 36.984375 68.921875 
Q 42.1875 63.625 42.1875 54.390625 
Q 42.1875 45.171875 36.984375 39.84375 
Q 31.78125 34.515625 22.703125 34.515625 
Q 13.625 34.515625 8.421875 39.84375 
Q 3.21875 45.171875 3.21875 54.390625 
Q 3.21875 63.625 8.421875 68.921875 
Q 13.625 74.21875 22.703125 74.21875 
z
M 22.703125 66.015625 
Q 19.1875 66.015625 17.28125 62.984375 
Q 15.375 59.96875 15.375 54.390625 
Q 15.375 48.78125 17.28125 45.71875 
Q 19.1875 42.671875 22.703125 42.671875 
Q 26.21875 42.671875 28.09375 45.71875 
Q 29.984375 48.78125 29.984375 54.390625 
Q 29.984375 59.96875 28.078125 62.984375 
Q 26.171875 66.015625 22.703125 66.015625 
z
" id="DejaVuSans-Bold-37"/>
    </defs>
    <g transform="translate(56.05 72.1625)scale(0.8 -0.8)">
     <use xlink:href="#DejaVuSans-Bold-85"/>
     <use x="81.201172" xlink:href="#DejaVuSans-Bold-32"/>
     <use x="116.015625" xlink:href="#DejaVuSans-Bold-32"/>
     <use x="150.830078" xlink:href="#DejaVuSans-Bold-32"/>
     <use x="185.644531" xlink:href="#DejaVuSans-Bold-45"/>
     <use x="227.148438" xlink:href="#DejaVuSans-Bold-51"/>
     <use x="296.728516" xlink:href="#DejaVuSans-Bold-37"/>
    </g>
   </g>
  </g>
 </g>
 <defs>
  <clipPath id="pc08e33604d">
   <rect height="296.4" width="784.273864" x="56.05" y="88.8"/>
  </clipPath>
 </defs>
</svg>
