<?xml version="1.0" encoding="utf-8" standalone="no"?>
<!DOCTYPE svg PUBLIC "-//W3C//DTD SVG 1.1//EN"
  "http://www.w3.org/Graphics/SVG/1.1/DTD/svg11.dtd">
<!-- Created with matplotlib (https://matplotlib.org/) -->
<svg height="432pt" version="1.1" viewBox="0 0 576 432" width="576pt" xmlns="http://www.w3.org/2000/svg" xmlns:xlink="http://www.w3.org/1999/xlink">
 <defs>
  <style type="text/css">
*{stroke-linecap:butt;stroke-linejoin:round;}
  </style>
 </defs>
 <g id="figure_1">
  <g id="patch_1">
   <path d="M 0 432 
L 576 432 
L 576 0 
L 0 0 
z
" style="fill:#ffffff;"/>
  </g>
  <g id="axes_1">
   <g id="patch_2">
    <path d="M 30.55 404.2 
L 565.2 404.2 
L 565.2 31.8 
L 30.55 31.8 
z
" style="fill:#ffffff;"/>
   </g>
   <g id="PolyCollection_1">
    <defs>
     <path d="M 54.852273 -44.727273 
L 54.852273 -241.379334 
L 56.183904 -239.052089 
L 60.178798 -234.260714 
L 61.51043 -232.549505 
L 62.842061 -226.457595 
L 64.173692 -242.200719 
L 65.505324 -244.254164 
L 69.500218 -243.706578 
L 70.831849 -260.818662 
L 72.163481 -250.346075 
L 73.495112 -242.406056 
L 74.826743 -242.953642 
L 78.821638 -238.093817 
L 80.153269 -236.930195 
L 81.4849 -241.790033 
L 84.148163 -239.805025 
L 88.143057 -234.73985 
L 89.474689 -234.73985 
L 90.80632 -244.185714 
L 92.137951 -238.709853 
L 93.469583 -241.516233 
L 97.464477 -234.329164 
L 98.796108 -228.990189 
L 100.12774 -225.430872 
L 101.459371 -225.773122 
L 102.791002 -226.457595 
L 106.785897 -229.743125 
L 108.117528 -229.400875 
L 109.449159 -232.754842 
L 110.780791 -224.3357 
L 112.112422 -222.487592 
L 116.107316 -215.505872 
L 117.438948 -215.574309 
L 118.770579 -218.312252 
L 120.10221 -213.383964 
L 121.433842 -213.383964 
L 126.760367 -211.741205 
L 128.091999 -213.041727 
L 129.42363 -215.232072 
L 130.755262 -214 
L 136.081787 -218.312252 
L 137.413418 -222.076906 
L 138.74505 -219.612761 
L 140.076681 -225.430872 
L 144.071575 -232.275706 
L 145.403207 -236.656408 
L 146.734838 -238.778303 
L 148.066469 -243.432792 
L 149.398101 -246.239172 
L 154.724626 -244.596414 
L 156.056258 -242.953642 
L 157.387889 -243.432792 
L 158.719521 -252.536419 
L 162.714415 -253.700042 
L 164.046046 -249.593139 
L 165.377677 -252.057283 
L 166.709309 -250.209175 
L 168.04094 -252.536419 
L 172.035834 -247.539681 
L 173.367466 -256.437972 
L 174.699097 -260.271075 
L 176.030729 -270.949012 
L 177.36236 -271.222812 
L 181.357254 -276.767136 
L 182.688885 -283.611969 
L 184.020517 -296.8225 
L 185.352148 -290.38834 
L 186.68378 -279.505054 
L 190.678674 -273.618493 
L 192.010305 -285.870751 
L 193.341936 -292.715584 
L 194.673568 -292.647147 
L 196.005199 -282.722134 
L 201.331725 -278.820581 
L 202.663356 -281.147825 
L 203.994988 -280.668689 
L 205.326619 -273.344719 
L 209.321513 -274.371429 
L 210.653144 -272.386421 
L 211.984776 -270.538339 
L 213.316407 -275.329701 
L 214.648039 -281.353162 
L 218.642933 -276.630236 
L 219.974564 -278.409881 
L 221.306196 -277.520046 
L 222.637827 -265.952287 
L 223.969458 -257.670045 
L 227.964352 -255.685037 
L 229.295984 -266.226086 
L 230.627615 -263.556592 
L 231.959247 -268.758667 
L 233.290878 -262.256083 
L 237.285772 -263.282806 
L 238.617403 -269.648503 
L 239.949035 -260.476425 
L 241.280666 -258.149181 
L 242.612298 -255.2059 
L 246.607192 -254.316078 
L 247.938823 -250.551411 
L 249.270455 -256.027286 
L 250.602086 -258.217631 
L 251.933717 -261.708497 
L 255.928611 -260.065726 
L 257.260243 -259.58659 
L 258.591874 -257.738494 
L 259.923506 -258.149181 
L 265.250031 -261.982284 
L 266.581663 -257.738494 
L 267.913294 -254.110728 
L 269.244925 -259.928839 
L 270.576557 -260.202626 
L 274.571451 -264.309541 
L 275.903082 -261.913834 
L 277.234714 -264.035742 
L 278.566345 -260.339525 
L 279.897976 -255.753486 
L 283.89287 -254.726764 
L 285.224502 -247.265895 
L 286.556133 -247.881931 
L 287.887765 -248.01883 
L 289.219396 -257.259345 
L 293.21429 -268.82713 
L 294.545922 -294.700592 
L 295.877553 -303.73577 
L 297.209184 -301.340089 
L 298.540816 -303.119734 
L 302.53571 -310.512167 
L 303.867341 -306.131452 
L 305.198973 -310.238367 
L 306.530604 -307.70576 
L 307.862235 -307.911123 
L 311.85713 -305.789215 
L 313.188761 -300.997826 
L 314.520392 -303.73577 
L 315.852024 -313.386984 
L 317.183655 -312.907848 
L 321.178549 -312.839385 
L 322.510181 -309.348532 
L 323.841812 -304.557143 
L 325.173443 -304.488706 
L 326.505075 -307.911123 
L 331.8316 -301.819225 
L 333.163232 -304.351806 
L 334.494863 -308.116459 
L 335.826494 -316.672501 
L 339.821389 -321.395427 
L 341.15302 -320.231818 
L 342.484651 -311.607339 
L 343.816283 -320.300255 
L 345.147914 -325.297006 
L 349.142808 -330.430631 
L 350.47444 -328.171823 
L 351.806071 -327.213551 
L 353.137702 -341.519254 
L 354.469334 -342.614426 
L 359.795859 -333.373885 
L 361.127491 -336.727865 
L 362.459122 -337.754601 
L 363.790753 -341.382354 
L 367.785648 -348.774761 
L 369.117279 -344.736334 
L 370.44891 -347.542715 
L 371.780542 -336.180292 
L 373.112173 -340.218719 
L 377.107067 -339.671146 
L 379.77033 -343.572699 
L 381.101961 -332.963212 
L 382.433593 -338.439074 
L 386.428487 -337.549238 
L 387.760118 -348.364087 
L 389.09175 -349.45926 
L 390.423381 -357.125466 
L 391.755012 -351.033568 
L 395.749907 -356.23563 
L 397.081538 -369.240824 
L 398.413169 -367.255816 
L 399.744801 -363.491163 
L 401.076432 -368.008752 
L 405.071326 -368.624788 
L 406.402958 -367.598052 
L 407.734589 -368.556351 
L 409.06622 -363.764962 
L 410.397852 -374.237549 
L 414.392746 -383.272727 
L 415.724377 -364.038762 
L 417.056009 -366.160644 
L 418.38764 -358.973574 
L 419.719271 -354.113748 
L 423.714166 -352.40254 
L 425.045797 -353.839949 
L 426.377428 -346.652879 
L 427.70906 -350.006833 
L 429.040691 -343.914935 
L 433.035585 -351.718041 
L 434.367217 -346.447542 
L 435.698848 -343.504262 
L 437.030479 -345.694606 
L 438.362111 -350.622869 
L 442.357005 -350.212195 
L 443.688636 -348.295624 
L 445.020268 -353.703049 
L 446.351899 -350.554432 
L 447.683531 -345.626143 
L 451.678425 -346.926679 
L 453.010056 -355.140458 
L 454.341687 -363.080463 
L 455.673319 -368.008752 
L 457.00495 -366.708243 
L 462.331476 -363.354263 
L 463.663107 -358.905137 
L 464.994738 -361.437718 
L 466.32637 -368.077215 
L 470.321264 -379.713411 
L 471.652895 -372.731678 
L 472.984527 -374.374449 
L 474.316158 -375.469621 
L 475.64779 -369.99376 
L 479.642684 -363.080463 
L 480.974315 -370.472896 
L 482.305946 -363.354263 
L 483.637578 -350.006833 
L 484.969209 -348.706324 
L 488.964103 -352.12874 
L 490.295735 -347.748051 
L 491.627366 -353.703049 
L 492.958998 -360.547882 
L 494.290629 -359.521173 
L 498.285523 -357.399265 
L 499.617154 -349.390797 
L 500.948786 -352.334077 
L 502.280417 -350.075296 
L 503.612049 -358.083738 
L 507.606943 -355.824957 
L 508.938574 -363.901862 
L 510.270205 -363.970299 
L 511.601837 -359.247373 
L 512.933468 -342.340627 
L 516.928362 -350.759769 
L 518.259994 -348.500987 
L 519.591625 -339.05511 
L 520.923257 -337.138565 
L 522.254888 -338.78131 
L 526.249782 -339.328909 
L 527.581413 -347.200452 
L 528.913045 -334.605957 
L 530.244676 -322.764399 
L 531.576308 -326.939751 
L 535.571202 -337.207002 
L 536.902833 -340.971655 
L 538.234465 -344.736334 
L 539.566096 -362.875127 
L 540.897727 -373.518845 
L 540.897727 -44.727273 
L 540.897727 -44.727273 
L 539.566096 -44.727273 
L 538.234465 -44.727273 
L 536.902833 -44.727273 
L 535.571202 -44.727273 
L 531.576308 -44.727273 
L 530.244676 -44.727273 
L 528.913045 -44.727273 
L 527.581413 -44.727273 
L 526.249782 -44.727273 
L 522.254888 -44.727273 
L 520.923257 -44.727273 
L 519.591625 -44.727273 
L 518.259994 -44.727273 
L 516.928362 -44.727273 
L 512.933468 -44.727273 
L 511.601837 -44.727273 
L 510.270205 -44.727273 
L 508.938574 -44.727273 
L 507.606943 -44.727273 
L 503.612049 -44.727273 
L 502.280417 -44.727273 
L 500.948786 -44.727273 
L 499.617154 -44.727273 
L 498.285523 -44.727273 
L 494.290629 -44.727273 
L 492.958998 -44.727273 
L 491.627366 -44.727273 
L 490.295735 -44.727273 
L 488.964103 -44.727273 
L 484.969209 -44.727273 
L 483.637578 -44.727273 
L 482.305946 -44.727273 
L 480.974315 -44.727273 
L 479.642684 -44.727273 
L 475.64779 -44.727273 
L 474.316158 -44.727273 
L 472.984527 -44.727273 
L 471.652895 -44.727273 
L 470.321264 -44.727273 
L 466.32637 -44.727273 
L 464.994738 -44.727273 
L 463.663107 -44.727273 
L 462.331476 -44.727273 
L 457.00495 -44.727273 
L 455.673319 -44.727273 
L 454.341687 -44.727273 
L 453.010056 -44.727273 
L 451.678425 -44.727273 
L 447.683531 -44.727273 
L 446.351899 -44.727273 
L 445.020268 -44.727273 
L 443.688636 -44.727273 
L 442.357005 -44.727273 
L 438.362111 -44.727273 
L 437.030479 -44.727273 
L 435.698848 -44.727273 
L 434.367217 -44.727273 
L 433.035585 -44.727273 
L 429.040691 -44.727273 
L 427.70906 -44.727273 
L 426.377428 -44.727273 
L 425.045797 -44.727273 
L 423.714166 -44.727273 
L 419.719271 -44.727273 
L 418.38764 -44.727273 
L 417.056009 -44.727273 
L 415.724377 -44.727273 
L 414.392746 -44.727273 
L 410.397852 -44.727273 
L 409.06622 -44.727273 
L 407.734589 -44.727273 
L 406.402958 -44.727273 
L 405.071326 -44.727273 
L 401.076432 -44.727273 
L 399.744801 -44.727273 
L 398.413169 -44.727273 
L 397.081538 -44.727273 
L 395.749907 -44.727273 
L 391.755012 -44.727273 
L 390.423381 -44.727273 
L 389.09175 -44.727273 
L 387.760118 -44.727273 
L 386.428487 -44.727273 
L 382.433593 -44.727273 
L 381.101961 -44.727273 
L 379.77033 -44.727273 
L 377.107067 -44.727273 
L 373.112173 -44.727273 
L 371.780542 -44.727273 
L 370.44891 -44.727273 
L 369.117279 -44.727273 
L 367.785648 -44.727273 
L 363.790753 -44.727273 
L 362.459122 -44.727273 
L 361.127491 -44.727273 
L 359.795859 -44.727273 
L 354.469334 -44.727273 
L 353.137702 -44.727273 
L 351.806071 -44.727273 
L 350.47444 -44.727273 
L 349.142808 -44.727273 
L 345.147914 -44.727273 
L 343.816283 -44.727273 
L 342.484651 -44.727273 
L 341.15302 -44.727273 
L 339.821389 -44.727273 
L 335.826494 -44.727273 
L 334.494863 -44.727273 
L 333.163232 -44.727273 
L 331.8316 -44.727273 
L 326.505075 -44.727273 
L 325.173443 -44.727273 
L 323.841812 -44.727273 
L 322.510181 -44.727273 
L 321.178549 -44.727273 
L 317.183655 -44.727273 
L 315.852024 -44.727273 
L 314.520392 -44.727273 
L 313.188761 -44.727273 
L 311.85713 -44.727273 
L 307.862235 -44.727273 
L 306.530604 -44.727273 
L 305.198973 -44.727273 
L 303.867341 -44.727273 
L 302.53571 -44.727273 
L 298.540816 -44.727273 
L 297.209184 -44.727273 
L 295.877553 -44.727273 
L 294.545922 -44.727273 
L 293.21429 -44.727273 
L 289.219396 -44.727273 
L 287.887765 -44.727273 
L 286.556133 -44.727273 
L 285.224502 -44.727273 
L 283.89287 -44.727273 
L 279.897976 -44.727273 
L 278.566345 -44.727273 
L 277.234714 -44.727273 
L 275.903082 -44.727273 
L 274.571451 -44.727273 
L 270.576557 -44.727273 
L 269.244925 -44.727273 
L 267.913294 -44.727273 
L 266.581663 -44.727273 
L 265.250031 -44.727273 
L 259.923506 -44.727273 
L 258.591874 -44.727273 
L 257.260243 -44.727273 
L 255.928611 -44.727273 
L 251.933717 -44.727273 
L 250.602086 -44.727273 
L 249.270455 -44.727273 
L 247.938823 -44.727273 
L 246.607192 -44.727273 
L 242.612298 -44.727273 
L 241.280666 -44.727273 
L 239.949035 -44.727273 
L 238.617403 -44.727273 
L 237.285772 -44.727273 
L 233.290878 -44.727273 
L 231.959247 -44.727273 
L 230.627615 -44.727273 
L 229.295984 -44.727273 
L 227.964352 -44.727273 
L 223.969458 -44.727273 
L 222.637827 -44.727273 
L 221.306196 -44.727273 
L 219.974564 -44.727273 
L 218.642933 -44.727273 
L 214.648039 -44.727273 
L 213.316407 -44.727273 
L 211.984776 -44.727273 
L 210.653144 -44.727273 
L 209.321513 -44.727273 
L 205.326619 -44.727273 
L 203.994988 -44.727273 
L 202.663356 -44.727273 
L 201.331725 -44.727273 
L 196.005199 -44.727273 
L 194.673568 -44.727273 
L 193.341936 -44.727273 
L 192.010305 -44.727273 
L 190.678674 -44.727273 
L 186.68378 -44.727273 
L 185.352148 -44.727273 
L 184.020517 -44.727273 
L 182.688885 -44.727273 
L 181.357254 -44.727273 
L 177.36236 -44.727273 
L 176.030729 -44.727273 
L 174.699097 -44.727273 
L 173.367466 -44.727273 
L 172.035834 -44.727273 
L 168.04094 -44.727273 
L 166.709309 -44.727273 
L 165.377677 -44.727273 
L 164.046046 -44.727273 
L 162.714415 -44.727273 
L 158.719521 -44.727273 
L 157.387889 -44.727273 
L 156.056258 -44.727273 
L 154.724626 -44.727273 
L 149.398101 -44.727273 
L 148.066469 -44.727273 
L 146.734838 -44.727273 
L 145.403207 -44.727273 
L 144.071575 -44.727273 
L 140.076681 -44.727273 
L 138.74505 -44.727273 
L 137.413418 -44.727273 
L 136.081787 -44.727273 
L 130.755262 -44.727273 
L 129.42363 -44.727273 
L 128.091999 -44.727273 
L 126.760367 -44.727273 
L 121.433842 -44.727273 
L 120.10221 -44.727273 
L 118.770579 -44.727273 
L 117.438948 -44.727273 
L 116.107316 -44.727273 
L 112.112422 -44.727273 
L 110.780791 -44.727273 
L 109.449159 -44.727273 
L 108.117528 -44.727273 
L 106.785897 -44.727273 
L 102.791002 -44.727273 
L 101.459371 -44.727273 
L 100.12774 -44.727273 
L 98.796108 -44.727273 
L 97.464477 -44.727273 
L 93.469583 -44.727273 
L 92.137951 -44.727273 
L 90.80632 -44.727273 
L 89.474689 -44.727273 
L 88.143057 -44.727273 
L 84.148163 -44.727273 
L 81.4849 -44.727273 
L 80.153269 -44.727273 
L 78.821638 -44.727273 
L 74.826743 -44.727273 
L 73.495112 -44.727273 
L 72.163481 -44.727273 
L 70.831849 -44.727273 
L 69.500218 -44.727273 
L 65.505324 -44.727273 
L 64.173692 -44.727273 
L 62.842061 -44.727273 
L 61.51043 -44.727273 
L 60.178798 -44.727273 
L 56.183904 -44.727273 
L 54.852273 -44.727273 
z
" id="m469d931da0" style="stroke:#c6a2d2;"/>
    </defs>
    <g clip-path="url(#p541e606d86)">
     <use style="fill:#c6a2d2;stroke:#c6a2d2;" x="0" xlink:href="#m469d931da0" y="432"/>
    </g>
   </g>
   <g id="matplotlib.axis_1">
    <g id="xtick_1">
     <g id="line2d_1">
      <defs>
       <path d="M 0 0 
L 0 3.5 
" id="m89cfad1e86" style="stroke:#000000;stroke-width:0.8;"/>
      </defs>
      <g>
       <use style="stroke:#000000;stroke-width:0.8;" x="52.18901" xlink:href="#m89cfad1e86" y="404.2"/>
      </g>
     </g>
     <g id="text_1">
      <!-- 2022-11 -->
      <defs>
       <path d="M 19.1875 8.296875 
L 53.609375 8.296875 
L 53.609375 0 
L 7.328125 0 
L 7.328125 8.296875 
Q 12.9375 14.109375 22.625 23.890625 
Q 32.328125 33.6875 34.8125 36.53125 
Q 39.546875 41.84375 41.421875 45.53125 
Q 43.3125 49.21875 43.3125 52.78125 
Q 43.3125 58.59375 39.234375 62.25 
Q 35.15625 65.921875 28.609375 65.921875 
Q 23.96875 65.921875 18.8125 64.3125 
Q 13.671875 62.703125 7.8125 59.421875 
L 7.8125 69.390625 
Q 13.765625 71.78125 18.9375 73 
Q 24.125 74.21875 28.421875 74.21875 
Q 39.75 74.21875 46.484375 68.546875 
Q 53.21875 62.890625 53.21875 53.421875 
Q 53.21875 48.921875 51.53125 44.890625 
Q 49.859375 40.875 45.40625 35.40625 
Q 44.1875 33.984375 37.640625 27.21875 
Q 31.109375 20.453125 19.1875 8.296875 
z
" id="DejaVuSans-50"/>
       <path d="M 31.78125 66.40625 
Q 24.171875 66.40625 20.328125 58.90625 
Q 16.5 51.421875 16.5 36.375 
Q 16.5 21.390625 20.328125 13.890625 
Q 24.171875 6.390625 31.78125 6.390625 
Q 39.453125 6.390625 43.28125 13.890625 
Q 47.125 21.390625 47.125 36.375 
Q 47.125 51.421875 43.28125 58.90625 
Q 39.453125 66.40625 31.78125 66.40625 
z
M 31.78125 74.21875 
Q 44.046875 74.21875 50.515625 64.515625 
Q 56.984375 54.828125 56.984375 36.375 
Q 56.984375 17.96875 50.515625 8.265625 
Q 44.046875 -1.421875 31.78125 -1.421875 
Q 19.53125 -1.421875 13.0625 8.265625 
Q 6.59375 17.96875 6.59375 36.375 
Q 6.59375 54.828125 13.0625 64.515625 
Q 19.53125 74.21875 31.78125 74.21875 
z
" id="DejaVuSans-48"/>
       <path d="M 4.890625 31.390625 
L 31.203125 31.390625 
L 31.203125 23.390625 
L 4.890625 23.390625 
z
" id="DejaVuSans-45"/>
       <path d="M 12.40625 8.296875 
L 28.515625 8.296875 
L 28.515625 63.921875 
L 10.984375 60.40625 
L 10.984375 69.390625 
L 28.421875 72.90625 
L 38.28125 72.90625 
L 38.28125 8.296875 
L 54.390625 8.296875 
L 54.390625 0 
L 12.40625 0 
z
" id="DejaVuSans-49"/>
      </defs>
      <g transform="translate(31.297604 418.798437)scale(0.1 -0.1)">
       <use xlink:href="#DejaVuSans-50"/>
       <use x="63.623047" xlink:href="#DejaVuSans-48"/>
       <use x="127.246094" xlink:href="#DejaVuSans-50"/>
       <use x="190.869141" xlink:href="#DejaVuSans-50"/>
       <use x="254.492188" xlink:href="#DejaVuSans-45"/>
       <use x="290.576172" xlink:href="#DejaVuSans-49"/>
       <use x="354.199219" xlink:href="#DejaVuSans-49"/>
      </g>
     </g>
    </g>
    <g id="xtick_2">
     <g id="line2d_2">
      <g>
       <use style="stroke:#000000;stroke-width:0.8;" x="133.418524" xlink:href="#m89cfad1e86" y="404.2"/>
      </g>
     </g>
     <g id="text_2">
      <!-- 2023-01 -->
      <defs>
       <path d="M 40.578125 39.3125 
Q 47.65625 37.796875 51.625 33 
Q 55.609375 28.21875 55.609375 21.1875 
Q 55.609375 10.40625 48.1875 4.484375 
Q 40.765625 -1.421875 27.09375 -1.421875 
Q 22.515625 -1.421875 17.65625 -0.515625 
Q 12.796875 0.390625 7.625 2.203125 
L 7.625 11.71875 
Q 11.71875 9.328125 16.59375 8.109375 
Q 21.484375 6.890625 26.8125 6.890625 
Q 36.078125 6.890625 40.9375 10.546875 
Q 45.796875 14.203125 45.796875 21.1875 
Q 45.796875 27.640625 41.28125 31.265625 
Q 36.765625 34.90625 28.71875 34.90625 
L 20.21875 34.90625 
L 20.21875 43.015625 
L 29.109375 43.015625 
Q 36.375 43.015625 40.234375 45.921875 
Q 44.09375 48.828125 44.09375 54.296875 
Q 44.09375 59.90625 40.109375 62.90625 
Q 36.140625 65.921875 28.71875 65.921875 
Q 24.65625 65.921875 20.015625 65.03125 
Q 15.375 64.15625 9.8125 62.3125 
L 9.8125 71.09375 
Q 15.4375 72.65625 20.34375 73.4375 
Q 25.25 74.21875 29.59375 74.21875 
Q 40.828125 74.21875 47.359375 69.109375 
Q 53.90625 64.015625 53.90625 55.328125 
Q 53.90625 49.265625 50.4375 45.09375 
Q 46.96875 40.921875 40.578125 39.3125 
z
" id="DejaVuSans-51"/>
      </defs>
      <g transform="translate(112.527118 418.798437)scale(0.1 -0.1)">
       <use xlink:href="#DejaVuSans-50"/>
       <use x="63.623047" xlink:href="#DejaVuSans-48"/>
       <use x="127.246094" xlink:href="#DejaVuSans-50"/>
       <use x="190.869141" xlink:href="#DejaVuSans-51"/>
       <use x="254.492188" xlink:href="#DejaVuSans-45"/>
       <use x="290.576172" xlink:href="#DejaVuSans-48"/>
       <use x="354.199219" xlink:href="#DejaVuSans-49"/>
      </g>
     </g>
    </g>
    <g id="xtick_3">
     <g id="line2d_3">
      <g>
       <use style="stroke:#000000;stroke-width:0.8;" x="211.984776" xlink:href="#m89cfad1e86" y="404.2"/>
      </g>
     </g>
     <g id="text_3">
      <!-- 2023-03 -->
      <g transform="translate(191.09337 418.798437)scale(0.1 -0.1)">
       <use xlink:href="#DejaVuSans-50"/>
       <use x="63.623047" xlink:href="#DejaVuSans-48"/>
       <use x="127.246094" xlink:href="#DejaVuSans-50"/>
       <use x="190.869141" xlink:href="#DejaVuSans-51"/>
       <use x="254.492188" xlink:href="#DejaVuSans-45"/>
       <use x="290.576172" xlink:href="#DejaVuSans-48"/>
       <use x="354.199219" xlink:href="#DejaVuSans-51"/>
      </g>
     </g>
    </g>
    <g id="xtick_4">
     <g id="line2d_4">
      <g>
       <use style="stroke:#000000;stroke-width:0.8;" x="293.21429" xlink:href="#m89cfad1e86" y="404.2"/>
      </g>
     </g>
     <g id="text_4">
      <!-- 2023-05 -->
      <defs>
       <path d="M 10.796875 72.90625 
L 49.515625 72.90625 
L 49.515625 64.59375 
L 19.828125 64.59375 
L 19.828125 46.734375 
Q 21.96875 47.46875 24.109375 47.828125 
Q 26.265625 48.1875 28.421875 48.1875 
Q 40.625 48.1875 47.75 41.5 
Q 54.890625 34.8125 54.890625 23.390625 
Q 54.890625 11.625 47.5625 5.09375 
Q 40.234375 -1.421875 26.90625 -1.421875 
Q 22.3125 -1.421875 17.546875 -0.640625 
Q 12.796875 0.140625 7.71875 1.703125 
L 7.71875 11.625 
Q 12.109375 9.234375 16.796875 8.0625 
Q 21.484375 6.890625 26.703125 6.890625 
Q 35.15625 6.890625 40.078125 11.328125 
Q 45.015625 15.765625 45.015625 23.390625 
Q 45.015625 31 40.078125 35.4375 
Q 35.15625 39.890625 26.703125 39.890625 
Q 22.75 39.890625 18.8125 39.015625 
Q 14.890625 38.140625 10.796875 36.28125 
z
" id="DejaVuSans-53"/>
      </defs>
      <g transform="translate(272.322884 418.798437)scale(0.1 -0.1)">
       <use xlink:href="#DejaVuSans-50"/>
       <use x="63.623047" xlink:href="#DejaVuSans-48"/>
       <use x="127.246094" xlink:href="#DejaVuSans-50"/>
       <use x="190.869141" xlink:href="#DejaVuSans-51"/>
       <use x="254.492188" xlink:href="#DejaVuSans-45"/>
       <use x="290.576172" xlink:href="#DejaVuSans-48"/>
       <use x="354.199219" xlink:href="#DejaVuSans-53"/>
      </g>
     </g>
    </g>
    <g id="xtick_5">
     <g id="line2d_5">
      <g>
       <use style="stroke:#000000;stroke-width:0.8;" x="374.443804" xlink:href="#m89cfad1e86" y="404.2"/>
      </g>
     </g>
     <g id="text_5">
      <!-- 2023-07 -->
      <defs>
       <path d="M 8.203125 72.90625 
L 55.078125 72.90625 
L 55.078125 68.703125 
L 28.609375 0 
L 18.3125 0 
L 43.21875 64.59375 
L 8.203125 64.59375 
z
" id="DejaVuSans-55"/>
      </defs>
      <g transform="translate(353.552398 418.798437)scale(0.1 -0.1)">
       <use xlink:href="#DejaVuSans-50"/>
       <use x="63.623047" xlink:href="#DejaVuSans-48"/>
       <use x="127.246094" xlink:href="#DejaVuSans-50"/>
       <use x="190.869141" xlink:href="#DejaVuSans-51"/>
       <use x="254.492188" xlink:href="#DejaVuSans-45"/>
       <use x="290.576172" xlink:href="#DejaVuSans-48"/>
       <use x="354.199219" xlink:href="#DejaVuSans-55"/>
      </g>
     </g>
    </g>
    <g id="xtick_6">
     <g id="line2d_6">
      <g>
       <use style="stroke:#000000;stroke-width:0.8;" x="457.00495" xlink:href="#m89cfad1e86" y="404.2"/>
      </g>
     </g>
     <g id="text_6">
      <!-- 2023-09 -->
      <defs>
       <path d="M 10.984375 1.515625 
L 10.984375 10.5 
Q 14.703125 8.734375 18.5 7.8125 
Q 22.3125 6.890625 25.984375 6.890625 
Q 35.75 6.890625 40.890625 13.453125 
Q 46.046875 20.015625 46.78125 33.40625 
Q 43.953125 29.203125 39.59375 26.953125 
Q 35.25 24.703125 29.984375 24.703125 
Q 19.046875 24.703125 12.671875 31.3125 
Q 6.296875 37.9375 6.296875 49.421875 
Q 6.296875 60.640625 12.9375 67.421875 
Q 19.578125 74.21875 30.609375 74.21875 
Q 43.265625 74.21875 49.921875 64.515625 
Q 56.59375 54.828125 56.59375 36.375 
Q 56.59375 19.140625 48.40625 8.859375 
Q 40.234375 -1.421875 26.421875 -1.421875 
Q 22.703125 -1.421875 18.890625 -0.6875 
Q 15.09375 0.046875 10.984375 1.515625 
z
M 30.609375 32.421875 
Q 37.25 32.421875 41.125 36.953125 
Q 45.015625 41.5 45.015625 49.421875 
Q 45.015625 57.28125 41.125 61.84375 
Q 37.25 66.40625 30.609375 66.40625 
Q 23.96875 66.40625 20.09375 61.84375 
Q 16.21875 57.28125 16.21875 49.421875 
Q 16.21875 41.5 20.09375 36.953125 
Q 23.96875 32.421875 30.609375 32.421875 
z
" id="DejaVuSans-57"/>
      </defs>
      <g transform="translate(436.113544 418.798437)scale(0.1 -0.1)">
       <use xlink:href="#DejaVuSans-50"/>
       <use x="63.623047" xlink:href="#DejaVuSans-48"/>
       <use x="127.246094" xlink:href="#DejaVuSans-50"/>
       <use x="190.869141" xlink:href="#DejaVuSans-51"/>
       <use x="254.492188" xlink:href="#DejaVuSans-45"/>
       <use x="290.576172" xlink:href="#DejaVuSans-48"/>
       <use x="354.199219" xlink:href="#DejaVuSans-57"/>
      </g>
     </g>
    </g>
    <g id="xtick_7">
     <g id="line2d_7">
      <g>
       <use style="stroke:#000000;stroke-width:0.8;" x="538.234465" xlink:href="#m89cfad1e86" y="404.2"/>
      </g>
     </g>
     <g id="text_7">
      <!-- 2023-11 -->
      <g transform="translate(517.343058 418.798437)scale(0.1 -0.1)">
       <use xlink:href="#DejaVuSans-50"/>
       <use x="63.623047" xlink:href="#DejaVuSans-48"/>
       <use x="127.246094" xlink:href="#DejaVuSans-50"/>
       <use x="190.869141" xlink:href="#DejaVuSans-51"/>
       <use x="254.492188" xlink:href="#DejaVuSans-45"/>
       <use x="290.576172" xlink:href="#DejaVuSans-49"/>
       <use x="354.199219" xlink:href="#DejaVuSans-49"/>
      </g>
     </g>
    </g>
   </g>
   <g id="matplotlib.axis_2">
    <g id="ytick_1">
     <g id="line2d_8">
      <defs>
       <path d="M 0 0 
L -3.5 0 
" id="mb91fc47ab2" style="stroke:#000000;stroke-width:0.8;"/>
      </defs>
      <g>
       <use style="stroke:#000000;stroke-width:0.8;" x="30.55" xlink:href="#mb91fc47ab2" y="387.272727"/>
      </g>
     </g>
     <g id="text_8">
      <!-- 0 -->
      <g transform="translate(17.1875 391.071946)scale(0.1 -0.1)">
       <use xlink:href="#DejaVuSans-48"/>
      </g>
     </g>
    </g>
    <g id="ytick_2">
     <g id="line2d_9">
      <g>
       <use style="stroke:#000000;stroke-width:0.8;" x="30.55" xlink:href="#mb91fc47ab2" y="318.824393"/>
      </g>
     </g>
     <g id="text_9">
      <!-- 10 -->
      <g transform="translate(10.825 322.623612)scale(0.1 -0.1)">
       <use xlink:href="#DejaVuSans-49"/>
       <use x="63.623047" xlink:href="#DejaVuSans-48"/>
      </g>
     </g>
    </g>
    <g id="ytick_3">
     <g id="line2d_10">
      <g>
       <use style="stroke:#000000;stroke-width:0.8;" x="30.55" xlink:href="#mb91fc47ab2" y="250.376059"/>
      </g>
     </g>
     <g id="text_10">
      <!-- 20 -->
      <g transform="translate(10.825 254.175278)scale(0.1 -0.1)">
       <use xlink:href="#DejaVuSans-50"/>
       <use x="63.623047" xlink:href="#DejaVuSans-48"/>
      </g>
     </g>
    </g>
    <g id="ytick_4">
     <g id="line2d_11">
      <g>
       <use style="stroke:#000000;stroke-width:0.8;" x="30.55" xlink:href="#mb91fc47ab2" y="181.927725"/>
      </g>
     </g>
     <g id="text_11">
      <!-- 30 -->
      <g transform="translate(10.825 185.726944)scale(0.1 -0.1)">
       <use xlink:href="#DejaVuSans-51"/>
       <use x="63.623047" xlink:href="#DejaVuSans-48"/>
      </g>
     </g>
    </g>
    <g id="ytick_5">
     <g id="line2d_12">
      <g>
       <use style="stroke:#000000;stroke-width:0.8;" x="30.55" xlink:href="#mb91fc47ab2" y="113.479391"/>
      </g>
     </g>
     <g id="text_12">
      <!-- 40 -->
      <defs>
       <path d="M 37.796875 64.3125 
L 12.890625 25.390625 
L 37.796875 25.390625 
z
M 35.203125 72.90625 
L 47.609375 72.90625 
L 47.609375 25.390625 
L 58.015625 25.390625 
L 58.015625 17.1875 
L 47.609375 17.1875 
L 47.609375 0 
L 37.796875 0 
L 37.796875 17.1875 
L 4.890625 17.1875 
L 4.890625 26.703125 
z
" id="DejaVuSans-52"/>
      </defs>
      <g transform="translate(10.825 117.278609)scale(0.1 -0.1)">
       <use xlink:href="#DejaVuSans-52"/>
       <use x="63.623047" xlink:href="#DejaVuSans-48"/>
      </g>
     </g>
    </g>
    <g id="ytick_6">
     <g id="line2d_13">
      <g>
       <use style="stroke:#000000;stroke-width:0.8;" x="30.55" xlink:href="#mb91fc47ab2" y="45.031056"/>
      </g>
     </g>
     <g id="text_13">
      <!-- 50 -->
      <g transform="translate(10.825 48.830275)scale(0.1 -0.1)">
       <use xlink:href="#DejaVuSans-53"/>
       <use x="63.623047" xlink:href="#DejaVuSans-48"/>
      </g>
     </g>
    </g>
   </g>
   <g id="patch_3">
    <path d="M 30.55 404.2 
L 30.55 31.8 
" style="fill:none;stroke:#000000;stroke-linecap:square;stroke-linejoin:miter;stroke-width:0.8;"/>
   </g>
   <g id="patch_4">
    <path d="M 565.2 404.2 
L 565.2 31.8 
" style="fill:none;stroke:#000000;stroke-linecap:square;stroke-linejoin:miter;stroke-width:0.8;"/>
   </g>
   <g id="patch_5">
    <path d="M 30.55 404.2 
L 565.2 404.2 
" style="fill:none;stroke:#000000;stroke-linecap:square;stroke-linejoin:miter;stroke-width:0.8;"/>
   </g>
   <g id="patch_6">
    <path d="M 30.55 31.8 
L 565.2 31.8 
" style="fill:none;stroke:#000000;stroke-linecap:square;stroke-linejoin:miter;stroke-width:0.8;"/>
   </g>
   <g id="text_14">
    <!-- UBER - 67% -->
    <defs>
     <path d="M 9.1875 72.90625 
L 27.984375 72.90625 
L 27.984375 29.203125 
Q 27.984375 20.171875 30.9375 16.28125 
Q 33.890625 12.40625 40.578125 12.40625 
Q 47.3125 12.40625 50.265625 16.28125 
Q 53.21875 20.171875 53.21875 29.203125 
L 53.21875 72.90625 
L 72.015625 72.90625 
L 72.015625 29.203125 
Q 72.015625 13.71875 64.25 6.140625 
Q 56.5 -1.421875 40.578125 -1.421875 
Q 24.703125 -1.421875 16.9375 6.140625 
Q 9.1875 13.71875 9.1875 29.203125 
z
" id="DejaVuSans-Bold-85"/>
     <path d="M 38.375 44.671875 
Q 42.828125 44.671875 45.109375 46.625 
Q 47.40625 48.578125 47.40625 52.390625 
Q 47.40625 56.15625 45.109375 58.125 
Q 42.828125 60.109375 38.375 60.109375 
L 27.984375 60.109375 
L 27.984375 44.671875 
z
M 39.015625 12.796875 
Q 44.671875 12.796875 47.53125 15.1875 
Q 50.390625 17.578125 50.390625 22.40625 
Q 50.390625 27.15625 47.5625 29.515625 
Q 44.734375 31.890625 39.015625 31.890625 
L 27.984375 31.890625 
L 27.984375 12.796875 
z
M 56.5 39.015625 
Q 62.546875 37.25 65.859375 32.515625 
Q 69.1875 27.78125 69.1875 20.90625 
Q 69.1875 10.359375 62.0625 5.171875 
Q 54.9375 0 40.375 0 
L 9.1875 0 
L 9.1875 72.90625 
L 37.40625 72.90625 
Q 52.59375 72.90625 59.40625 68.3125 
Q 66.21875 63.71875 66.21875 53.609375 
Q 66.21875 48.296875 63.71875 44.5625 
Q 61.234375 40.828125 56.5 39.015625 
z
" id="DejaVuSans-Bold-66"/>
     <path d="M 9.1875 72.90625 
L 59.90625 72.90625 
L 59.90625 58.6875 
L 27.984375 58.6875 
L 27.984375 45.125 
L 58.015625 45.125 
L 58.015625 30.90625 
L 27.984375 30.90625 
L 27.984375 14.203125 
L 60.984375 14.203125 
L 60.984375 0 
L 9.1875 0 
z
" id="DejaVuSans-Bold-69"/>
     <path d="M 35.890625 40.578125 
Q 41.796875 40.578125 44.359375 42.765625 
Q 46.921875 44.96875 46.921875 50 
Q 46.921875 54.984375 44.359375 57.125 
Q 41.796875 59.28125 35.890625 59.28125 
L 27.984375 59.28125 
L 27.984375 40.578125 
z
M 27.984375 27.59375 
L 27.984375 0 
L 9.1875 0 
L 9.1875 72.90625 
L 37.890625 72.90625 
Q 52.296875 72.90625 59 68.0625 
Q 65.71875 63.234375 65.71875 52.78125 
Q 65.71875 45.5625 62.21875 40.921875 
Q 58.734375 36.28125 51.703125 34.078125 
Q 55.5625 33.203125 58.609375 30.09375 
Q 61.671875 27 64.796875 20.703125 
L 75 0 
L 54.984375 0 
L 46.09375 18.109375 
Q 43.40625 23.578125 40.640625 25.578125 
Q 37.890625 27.59375 33.296875 27.59375 
z
" id="DejaVuSans-Bold-82"/>
     <path id="DejaVuSans-Bold-32"/>
     <path d="M 5.421875 35.890625 
L 36.078125 35.890625 
L 36.078125 21.6875 
L 5.421875 21.6875 
z
" id="DejaVuSans-Bold-45"/>
     <path d="M 36.1875 35.984375 
Q 31.25 35.984375 28.78125 32.78125 
Q 26.3125 29.59375 26.3125 23.1875 
Q 26.3125 16.796875 28.78125 13.59375 
Q 31.25 10.40625 36.1875 10.40625 
Q 41.15625 10.40625 43.625 13.59375 
Q 46.09375 16.796875 46.09375 23.1875 
Q 46.09375 29.59375 43.625 32.78125 
Q 41.15625 35.984375 36.1875 35.984375 
z
M 59.421875 71 
L 59.421875 57.515625 
Q 54.78125 59.71875 50.671875 60.765625 
Q 46.578125 61.8125 42.671875 61.8125 
Q 34.28125 61.8125 29.59375 57.140625 
Q 24.90625 52.484375 24.125 43.3125 
Q 27.34375 45.703125 31.09375 46.890625 
Q 34.859375 48.09375 39.3125 48.09375 
Q 50.484375 48.09375 57.34375 41.546875 
Q 64.203125 35.015625 64.203125 24.421875 
Q 64.203125 12.703125 56.53125 5.640625 
Q 48.875 -1.421875 35.984375 -1.421875 
Q 21.78125 -1.421875 13.984375 8.171875 
Q 6.203125 17.78125 6.203125 35.40625 
Q 6.203125 53.46875 15.3125 63.796875 
Q 24.421875 74.125 40.28125 74.125 
Q 45.3125 74.125 50.046875 73.34375 
Q 54.78125 72.5625 59.421875 71 
z
" id="DejaVuSans-Bold-54"/>
     <path d="M 6.6875 72.90625 
L 61.625 72.90625 
L 61.625 62.3125 
L 33.203125 0 
L 14.890625 0 
L 41.796875 59.078125 
L 6.6875 59.078125 
z
" id="DejaVuSans-Bold-55"/>
     <path d="M 77.484375 30.078125 
Q 74.03125 30.078125 72.125 27.078125 
Q 70.21875 24.078125 70.21875 18.5 
Q 70.21875 12.890625 72.09375 9.890625 
Q 73.96875 6.890625 77.484375 6.890625 
Q 81 6.890625 82.859375 9.890625 
Q 84.71875 12.890625 84.71875 18.5 
Q 84.71875 24.078125 82.828125 27.078125 
Q 80.953125 30.078125 77.484375 30.078125 
z
M 77.484375 38.28125 
Q 86.578125 38.28125 91.796875 33 
Q 97.015625 27.734375 97.015625 18.5 
Q 97.015625 9.28125 91.796875 3.921875 
Q 86.578125 -1.421875 77.484375 -1.421875 
Q 68.40625 -1.421875 63.15625 3.921875 
Q 57.90625 9.28125 57.90625 18.5 
Q 57.90625 27.6875 63.15625 32.984375 
Q 68.40625 38.28125 77.484375 38.28125 
z
M 32.71875 -1.421875 
L 21.921875 -1.421875 
L 67.484375 74.21875 
L 78.328125 74.21875 
z
M 22.703125 74.21875 
Q 31.78125 74.21875 36.984375 68.921875 
Q 42.1875 63.625 42.1875 54.390625 
Q 42.1875 45.171875 36.984375 39.84375 
Q 31.78125 34.515625 22.703125 34.515625 
Q 13.625 34.515625 8.421875 39.84375 
Q 3.21875 45.171875 3.21875 54.390625 
Q 3.21875 63.625 8.421875 68.921875 
Q 13.625 74.21875 22.703125 74.21875 
z
M 22.703125 66.015625 
Q 19.1875 66.015625 17.28125 62.984375 
Q 15.375 59.96875 15.375 54.390625 
Q 15.375 48.78125 17.28125 45.71875 
Q 19.1875 42.671875 22.703125 42.671875 
Q 26.21875 42.671875 28.09375 45.71875 
Q 29.984375 48.78125 29.984375 54.390625 
Q 29.984375 59.96875 28.078125 62.984375 
Q 26.171875 66.015625 22.703125 66.015625 
z
" id="DejaVuSans-Bold-37"/>
    </defs>
    <g transform="translate(30.55 25.8)scale(0.2 -0.2)">
     <use xlink:href="#DejaVuSans-Bold-85"/>
     <use x="81.201172" xlink:href="#DejaVuSans-Bold-66"/>
     <use x="157.421875" xlink:href="#DejaVuSans-Bold-69"/>
     <use x="225.732422" xlink:href="#DejaVuSans-Bold-82"/>
     <use x="302.734375" xlink:href="#DejaVuSans-Bold-32"/>
     <use x="337.548828" xlink:href="#DejaVuSans-Bold-45"/>
     <use x="379.052734" xlink:href="#DejaVuSans-Bold-32"/>
     <use x="413.867188" xlink:href="#DejaVuSans-Bold-54"/>
     <use x="483.447266" xlink:href="#DejaVuSans-Bold-55"/>
     <use x="553.027344" xlink:href="#DejaVuSans-Bold-37"/>
    </g>
   </g>
  </g>
 </g>
 <defs>
  <clipPath id="p541e606d86">
   <rect height="372.4" width="534.65" x="30.55" y="31.8"/>
  </clipPath>
 </defs>
</svg>
