<?xml version="1.0" encoding="utf-8" standalone="no"?>
<!DOCTYPE svg PUBLIC "-//W3C//DTD SVG 1.1//EN"
  "http://www.w3.org/Graphics/SVG/1.1/DTD/svg11.dtd">
<!-- Created with matplotlib (https://matplotlib.org/) -->
<svg height="432pt" version="1.1" viewBox="0 0 864 432" width="864pt" xmlns="http://www.w3.org/2000/svg" xmlns:xlink="http://www.w3.org/1999/xlink">
 <defs>
  <style type="text/css">
*{stroke-linecap:butt;stroke-linejoin:round;}
  </style>
 </defs>
 <g id="figure_1">
  <g id="patch_1">
   <path d="M 0 432 
L 864 432 
L 864 0 
L 0 0 
z
" style="fill:none;"/>
  </g>
  <g id="axes_1">
   <g id="patch_2">
    <path d="M 75.175 385.2 
L 840.323864 385.2 
L 840.323864 88.8 
L 75.175 88.8 
z
" style="fill:none;"/>
   </g>
   <g id="PolyCollection_1">
    <path clip-path="url(#pd36af04992)" d="M 109.954494 2680.882296 
L 109.954494 264.511315 
L 113.755531 254.64423 
L 117.556569 257.65634 
L 128.959682 278.740469 
L 132.760719 348.328789 
L 136.561757 372.528773 
L 140.362794 360.792048 
L 144.163832 343.862498 
L 159.367982 378.864387 
L 163.16902 385.2 
L 166.970057 328.38697 
L 170.771095 304.602444 
L 182.174208 325.58251 
L 185.975245 310.52244 
L 189.776283 341.162101 
L 193.57732 364.219616 
L 197.378358 358.922567 
L 208.781471 331.814537 
L 212.582508 360.584558 
L 216.383546 360.1691 
L 220.184583 331.814537 
L 223.985621 303.355911 
L 239.189771 328.698683 
L 242.990809 320.597175 
L 246.791846 308.756864 
L 250.592884 296.708744 
L 261.995997 330.46426 
L 265.797034 319.662514 
L 269.598072 313.222837 
L 273.399109 247.166148 
L 277.200147 214.345612 
L 288.60326 209.256213 
L 296.205335 193.884589 
L 300.006372 199.804586 
L 303.80741 225.043294 
L 315.210523 207.282669 
L 319.01156 182.459577 
L 322.812598 165.218155 
L 326.613636 153.793461 
L 330.414673 155.351229 
L 341.817786 146.730677 
L 345.618823 180.174638 
L 349.419861 173.423567 
L 353.220899 192.118854 
L 357.021936 195.96172 
L 368.425049 180.486033 
L 372.226086 201.777971 
L 376.027124 218.292223 
L 379.828162 245.919774 
L 383.629199 232.313887 
L 395.032312 211.74896 
L 398.833349 190.457022 
L 402.634387 213.514696 
L 406.435425 201.051119 
L 410.236462 198.662116 
L 421.639575 172.488906 
L 425.440612 195.546421 
L 429.24165 190.664831 
L 433.042688 181.819763 
L 436.843725 183.068523 
L 448.246838 153.307832 
L 452.047875 185.253695 
L 455.848913 190.872957 
L 459.649951 210.85201 
L 463.450988 202.527418 
L 474.854101 189.103721 
L 478.655138 177.553324 
L 482.456176 159.551316 
L 486.257214 188.999817 
L 490.058251 156.741605 
L 501.461364 143.630416 
L 505.262401 127.917643 
L 509.063439 118.65648 
L 512.864477 124.379647 
L 516.665514 99.093522 
L 531.869665 127.917643 
L 535.670702 119.384765 
L 539.47174 109.187032 
L 543.272777 107.626241 
L 554.67589 108.354684 
L 558.476928 107.522177 
L 562.277965 102.007137 
L 566.079003 167.875908 
L 569.88004 172.350314 
L 581.283153 134.993475 
L 585.084191 146.439968 
L 588.885228 164.129786 
L 592.686266 218.760349 
L 596.487303 234.681249 
L 607.890416 252.579352 
L 611.691454 291.184952 
L 615.492491 292.745744 
L 619.293529 270.26917 
L 623.094566 287.438989 
L 634.497679 274.327482 
L 638.298717 299.925798 
L 642.099754 274.847799 
L 645.900792 251.330751 
L 649.701829 235.097661 
L 661.104942 241.340986 
L 664.90598 218.864412 
L 668.707017 228.437924 
L 672.508055 216.991431 
L 676.309092 207.730268 
L 687.712205 182.756174 
L 691.513243 170.99765 
L 695.31428 209.811377 
L 699.115318 247.896819 
L 702.916355 252.371226 
L 714.319468 271.621994 
L 718.120506 239.155973 
L 721.921543 216.262987 
L 725.722581 274.223419 
L 729.523618 295.139042 
L 740.926731 255.492967 
L 744.727769 234.473122 
L 748.528806 198.260979 
L 752.329844 149.665773 
L 756.130881 146.023714 
L 767.533994 147.168252 
L 771.335032 133.848777 
L 775.136069 137.394411 
L 778.937107 161.065963 
L 782.738144 123.42096 
L 794.141257 129.469205 
L 797.942295 105.797653 
L 801.743332 93.596939 
L 805.54437 88.8 
L 805.54437 2680.882296 
L 805.54437 2680.882296 
L 801.743332 2680.882296 
L 797.942295 2680.882296 
L 794.141257 2680.882296 
L 782.738144 2680.882296 
L 778.937107 2680.882296 
L 775.136069 2680.882296 
L 771.335032 2680.882296 
L 767.533994 2680.882296 
L 756.130881 2680.882296 
L 752.329844 2680.882296 
L 748.528806 2680.882296 
L 744.727769 2680.882296 
L 740.926731 2680.882296 
L 729.523618 2680.882296 
L 725.722581 2680.882296 
L 721.921543 2680.882296 
L 718.120506 2680.882296 
L 714.319468 2680.882296 
L 702.916355 2680.882296 
L 699.115318 2680.882296 
L 695.31428 2680.882296 
L 691.513243 2680.882296 
L 687.712205 2680.882296 
L 676.309092 2680.882296 
L 672.508055 2680.882296 
L 668.707017 2680.882296 
L 664.90598 2680.882296 
L 661.104942 2680.882296 
L 649.701829 2680.882296 
L 645.900792 2680.882296 
L 642.099754 2680.882296 
L 638.298717 2680.882296 
L 634.497679 2680.882296 
L 623.094566 2680.882296 
L 619.293529 2680.882296 
L 615.492491 2680.882296 
L 611.691454 2680.882296 
L 607.890416 2680.882296 
L 596.487303 2680.882296 
L 592.686266 2680.882296 
L 588.885228 2680.882296 
L 585.084191 2680.882296 
L 581.283153 2680.882296 
L 569.88004 2680.882296 
L 566.079003 2680.882296 
L 562.277965 2680.882296 
L 558.476928 2680.882296 
L 554.67589 2680.882296 
L 543.272777 2680.882296 
L 539.47174 2680.882296 
L 535.670702 2680.882296 
L 531.869665 2680.882296 
L 516.665514 2680.882296 
L 512.864477 2680.882296 
L 509.063439 2680.882296 
L 505.262401 2680.882296 
L 501.461364 2680.882296 
L 490.058251 2680.882296 
L 486.257214 2680.882296 
L 482.456176 2680.882296 
L 478.655138 2680.882296 
L 474.854101 2680.882296 
L 463.450988 2680.882296 
L 459.649951 2680.882296 
L 455.848913 2680.882296 
L 452.047875 2680.882296 
L 448.246838 2680.882296 
L 436.843725 2680.882296 
L 433.042688 2680.882296 
L 429.24165 2680.882296 
L 425.440612 2680.882296 
L 421.639575 2680.882296 
L 410.236462 2680.882296 
L 406.435425 2680.882296 
L 402.634387 2680.882296 
L 398.833349 2680.882296 
L 395.032312 2680.882296 
L 383.629199 2680.882296 
L 379.828162 2680.882296 
L 376.027124 2680.882296 
L 372.226086 2680.882296 
L 368.425049 2680.882296 
L 357.021936 2680.882296 
L 353.220899 2680.882296 
L 349.419861 2680.882296 
L 345.618823 2680.882296 
L 341.817786 2680.882296 
L 330.414673 2680.882296 
L 326.613636 2680.882296 
L 322.812598 2680.882296 
L 319.01156 2680.882296 
L 315.210523 2680.882296 
L 303.80741 2680.882296 
L 300.006372 2680.882296 
L 296.205335 2680.882296 
L 288.60326 2680.882296 
L 277.200147 2680.882296 
L 273.399109 2680.882296 
L 269.598072 2680.882296 
L 265.797034 2680.882296 
L 261.995997 2680.882296 
L 250.592884 2680.882296 
L 246.791846 2680.882296 
L 242.990809 2680.882296 
L 239.189771 2680.882296 
L 223.985621 2680.882296 
L 220.184583 2680.882296 
L 216.383546 2680.882296 
L 212.582508 2680.882296 
L 208.781471 2680.882296 
L 197.378358 2680.882296 
L 193.57732 2680.882296 
L 189.776283 2680.882296 
L 185.975245 2680.882296 
L 182.174208 2680.882296 
L 170.771095 2680.882296 
L 166.970057 2680.882296 
L 163.16902 2680.882296 
L 159.367982 2680.882296 
L 144.163832 2680.882296 
L 140.362794 2680.882296 
L 136.561757 2680.882296 
L 132.760719 2680.882296 
L 128.959682 2680.882296 
L 117.556569 2680.882296 
L 113.755531 2680.882296 
L 109.954494 2680.882296 
z
" style="fill:#0000ff;fill-opacity:0.1;stroke:#0000ff;stroke-opacity:0.1;"/>
   </g>
   <g id="matplotlib.axis_1">
    <g id="xtick_1">
     <g id="line2d_1">
      <defs>
       <path d="M 0 0 
L 0 3.5 
" id="mc0ca47345f" style="stroke:#000000;stroke-width:0.8;"/>
      </defs>
      <g>
       <use style="stroke:#000000;stroke-width:0.8;" x="109.954494" xlink:href="#mc0ca47345f" y="385.2"/>
      </g>
     </g>
     <g id="text_1">
      <!-- 05/23 -->
      <defs>
       <path d="M 31.78125 66.40625 
Q 24.171875 66.40625 20.328125 58.90625 
Q 16.5 51.421875 16.5 36.375 
Q 16.5 21.390625 20.328125 13.890625 
Q 24.171875 6.390625 31.78125 6.390625 
Q 39.453125 6.390625 43.28125 13.890625 
Q 47.125 21.390625 47.125 36.375 
Q 47.125 51.421875 43.28125 58.90625 
Q 39.453125 66.40625 31.78125 66.40625 
z
M 31.78125 74.21875 
Q 44.046875 74.21875 50.515625 64.515625 
Q 56.984375 54.828125 56.984375 36.375 
Q 56.984375 17.96875 50.515625 8.265625 
Q 44.046875 -1.421875 31.78125 -1.421875 
Q 19.53125 -1.421875 13.0625 8.265625 
Q 6.59375 17.96875 6.59375 36.375 
Q 6.59375 54.828125 13.0625 64.515625 
Q 19.53125 74.21875 31.78125 74.21875 
z
" id="DejaVuSans-48"/>
       <path d="M 10.796875 72.90625 
L 49.515625 72.90625 
L 49.515625 64.59375 
L 19.828125 64.59375 
L 19.828125 46.734375 
Q 21.96875 47.46875 24.109375 47.828125 
Q 26.265625 48.1875 28.421875 48.1875 
Q 40.625 48.1875 47.75 41.5 
Q 54.890625 34.8125 54.890625 23.390625 
Q 54.890625 11.625 47.5625 5.09375 
Q 40.234375 -1.421875 26.90625 -1.421875 
Q 22.3125 -1.421875 17.546875 -0.640625 
Q 12.796875 0.140625 7.71875 1.703125 
L 7.71875 11.625 
Q 12.109375 9.234375 16.796875 8.0625 
Q 21.484375 6.890625 26.703125 6.890625 
Q 35.15625 6.890625 40.078125 11.328125 
Q 45.015625 15.765625 45.015625 23.390625 
Q 45.015625 31 40.078125 35.4375 
Q 35.15625 39.890625 26.703125 39.890625 
Q 22.75 39.890625 18.8125 39.015625 
Q 14.890625 38.140625 10.796875 36.28125 
z
" id="DejaVuSans-53"/>
       <path d="M 25.390625 72.90625 
L 33.6875 72.90625 
L 8.296875 -9.28125 
L 0 -9.28125 
z
" id="DejaVuSans-47"/>
       <path d="M 19.1875 8.296875 
L 53.609375 8.296875 
L 53.609375 0 
L 7.328125 0 
L 7.328125 8.296875 
Q 12.9375 14.109375 22.625 23.890625 
Q 32.328125 33.6875 34.8125 36.53125 
Q 39.546875 41.84375 41.421875 45.53125 
Q 43.3125 49.21875 43.3125 52.78125 
Q 43.3125 58.59375 39.234375 62.25 
Q 35.15625 65.921875 28.609375 65.921875 
Q 23.96875 65.921875 18.8125 64.3125 
Q 13.671875 62.703125 7.8125 59.421875 
L 7.8125 69.390625 
Q 13.765625 71.78125 18.9375 73 
Q 24.125 74.21875 28.421875 74.21875 
Q 39.75 74.21875 46.484375 68.546875 
Q 53.21875 62.890625 53.21875 53.421875 
Q 53.21875 48.921875 51.53125 44.890625 
Q 49.859375 40.875 45.40625 35.40625 
Q 44.1875 33.984375 37.640625 27.21875 
Q 31.109375 20.453125 19.1875 8.296875 
z
" id="DejaVuSans-50"/>
       <path d="M 40.578125 39.3125 
Q 47.65625 37.796875 51.625 33 
Q 55.609375 28.21875 55.609375 21.1875 
Q 55.609375 10.40625 48.1875 4.484375 
Q 40.765625 -1.421875 27.09375 -1.421875 
Q 22.515625 -1.421875 17.65625 -0.515625 
Q 12.796875 0.390625 7.625 2.203125 
L 7.625 11.71875 
Q 11.71875 9.328125 16.59375 8.109375 
Q 21.484375 6.890625 26.8125 6.890625 
Q 36.078125 6.890625 40.9375 10.546875 
Q 45.796875 14.203125 45.796875 21.1875 
Q 45.796875 27.640625 41.28125 31.265625 
Q 36.765625 34.90625 28.71875 34.90625 
L 20.21875 34.90625 
L 20.21875 43.015625 
L 29.109375 43.015625 
Q 36.375 43.015625 40.234375 45.921875 
Q 44.09375 48.828125 44.09375 54.296875 
Q 44.09375 59.90625 40.109375 62.90625 
Q 36.140625 65.921875 28.71875 65.921875 
Q 24.65625 65.921875 20.015625 65.03125 
Q 15.375 64.15625 9.8125 62.3125 
L 9.8125 71.09375 
Q 15.4375 72.65625 20.34375 73.4375 
Q 25.25 74.21875 29.59375 74.21875 
Q 40.828125 74.21875 47.359375 69.109375 
Q 53.90625 64.015625 53.90625 55.328125 
Q 53.90625 49.265625 50.4375 45.09375 
Q 46.96875 40.921875 40.578125 39.3125 
z
" id="DejaVuSans-51"/>
      </defs>
      <g transform="translate(66.726369 414.995312)scale(0.3 -0.3)">
       <use xlink:href="#DejaVuSans-48"/>
       <use x="63.623047" xlink:href="#DejaVuSans-53"/>
       <use x="127.246094" xlink:href="#DejaVuSans-47"/>
       <use x="160.9375" xlink:href="#DejaVuSans-50"/>
       <use x="224.560547" xlink:href="#DejaVuSans-51"/>
      </g>
     </g>
    </g>
    <g id="xtick_2">
     <g id="line2d_2">
      <g>
       <use style="stroke:#000000;stroke-width:0.8;" x="463.450988" xlink:href="#mc0ca47345f" y="385.2"/>
      </g>
     </g>
     <g id="text_2">
      <!-- 08/23 -->
      <defs>
       <path d="M 31.78125 34.625 
Q 24.75 34.625 20.71875 30.859375 
Q 16.703125 27.09375 16.703125 20.515625 
Q 16.703125 13.921875 20.71875 10.15625 
Q 24.75 6.390625 31.78125 6.390625 
Q 38.8125 6.390625 42.859375 10.171875 
Q 46.921875 13.96875 46.921875 20.515625 
Q 46.921875 27.09375 42.890625 30.859375 
Q 38.875 34.625 31.78125 34.625 
z
M 21.921875 38.8125 
Q 15.578125 40.375 12.03125 44.71875 
Q 8.5 49.078125 8.5 55.328125 
Q 8.5 64.0625 14.71875 69.140625 
Q 20.953125 74.21875 31.78125 74.21875 
Q 42.671875 74.21875 48.875 69.140625 
Q 55.078125 64.0625 55.078125 55.328125 
Q 55.078125 49.078125 51.53125 44.71875 
Q 48 40.375 41.703125 38.8125 
Q 48.828125 37.15625 52.796875 32.3125 
Q 56.78125 27.484375 56.78125 20.515625 
Q 56.78125 9.90625 50.3125 4.234375 
Q 43.84375 -1.421875 31.78125 -1.421875 
Q 19.734375 -1.421875 13.25 4.234375 
Q 6.78125 9.90625 6.78125 20.515625 
Q 6.78125 27.484375 10.78125 32.3125 
Q 14.796875 37.15625 21.921875 38.8125 
z
M 18.3125 54.390625 
Q 18.3125 48.734375 21.84375 45.5625 
Q 25.390625 42.390625 31.78125 42.390625 
Q 38.140625 42.390625 41.71875 45.5625 
Q 45.3125 48.734375 45.3125 54.390625 
Q 45.3125 60.0625 41.71875 63.234375 
Q 38.140625 66.40625 31.78125 66.40625 
Q 25.390625 66.40625 21.84375 63.234375 
Q 18.3125 60.0625 18.3125 54.390625 
z
" id="DejaVuSans-56"/>
      </defs>
      <g transform="translate(420.222863 414.995312)scale(0.3 -0.3)">
       <use xlink:href="#DejaVuSans-48"/>
       <use x="63.623047" xlink:href="#DejaVuSans-56"/>
       <use x="127.246094" xlink:href="#DejaVuSans-47"/>
       <use x="160.9375" xlink:href="#DejaVuSans-50"/>
       <use x="224.560547" xlink:href="#DejaVuSans-51"/>
      </g>
     </g>
    </g>
    <g id="xtick_3">
     <g id="line2d_3">
      <g>
       <use style="stroke:#000000;stroke-width:0.8;" x="805.54437" xlink:href="#mc0ca47345f" y="385.2"/>
      </g>
     </g>
     <g id="text_3">
      <!-- 11/23 -->
      <defs>
       <path d="M 12.40625 8.296875 
L 28.515625 8.296875 
L 28.515625 63.921875 
L 10.984375 60.40625 
L 10.984375 69.390625 
L 28.421875 72.90625 
L 38.28125 72.90625 
L 38.28125 8.296875 
L 54.390625 8.296875 
L 54.390625 0 
L 12.40625 0 
z
" id="DejaVuSans-49"/>
      </defs>
      <g transform="translate(762.316245 414.995312)scale(0.3 -0.3)">
       <use xlink:href="#DejaVuSans-49"/>
       <use x="63.623047" xlink:href="#DejaVuSans-49"/>
       <use x="127.246094" xlink:href="#DejaVuSans-47"/>
       <use x="160.9375" xlink:href="#DejaVuSans-50"/>
       <use x="224.560547" xlink:href="#DejaVuSans-51"/>
      </g>
     </g>
    </g>
   </g>
   <g id="matplotlib.axis_2">
    <g id="ytick_1">
     <g id="line2d_4">
      <defs>
       <path d="M 0 0 
L -3.5 0 
" id="m753a730341" style="stroke:#000000;stroke-width:0.8;"/>
      </defs>
      <g>
       <use style="stroke:#000000;stroke-width:0.8;" x="75.175" xlink:href="#m753a730341" y="282.447608"/>
      </g>
     </g>
     <g id="text_4">
      <!-- 230 -->
      <g transform="translate(10.9125 293.845264)scale(0.3 -0.3)">
       <use xlink:href="#DejaVuSans-50"/>
       <use x="63.623047" xlink:href="#DejaVuSans-51"/>
       <use x="127.246094" xlink:href="#DejaVuSans-48"/>
      </g>
     </g>
    </g>
    <g id="ytick_2">
     <g id="line2d_5">
      <g>
       <use style="stroke:#000000;stroke-width:0.8;" x="75.175" xlink:href="#m753a730341" y="178.167838"/>
      </g>
     </g>
     <g id="text_5">
      <!-- 240 -->
      <defs>
       <path d="M 37.796875 64.3125 
L 12.890625 25.390625 
L 37.796875 25.390625 
z
M 35.203125 72.90625 
L 47.609375 72.90625 
L 47.609375 25.390625 
L 58.015625 25.390625 
L 58.015625 17.1875 
L 47.609375 17.1875 
L 47.609375 0 
L 37.796875 0 
L 37.796875 17.1875 
L 4.890625 17.1875 
L 4.890625 26.703125 
z
" id="DejaVuSans-52"/>
      </defs>
      <g transform="translate(10.9125 189.565495)scale(0.3 -0.3)">
       <use xlink:href="#DejaVuSans-50"/>
       <use x="63.623047" xlink:href="#DejaVuSans-52"/>
       <use x="127.246094" xlink:href="#DejaVuSans-48"/>
      </g>
     </g>
    </g>
   </g>
   <g id="line2d_6">
    <path clip-path="url(#pd36af04992)" d="M 109.954494 264.511315 
L 113.755531 254.64423 
L 117.556569 257.65634 
L 128.959682 278.740469 
L 132.760719 348.328789 
L 136.561757 372.528773 
L 140.362794 360.792048 
L 144.163832 343.862498 
L 159.367982 378.864387 
L 163.16902 385.2 
L 166.970057 328.38697 
L 170.771095 304.602444 
L 182.174208 325.58251 
L 185.975245 310.52244 
L 189.776283 341.162101 
L 193.57732 364.219616 
L 197.378358 358.922567 
L 208.781471 331.814537 
L 212.582508 360.584558 
L 216.383546 360.1691 
L 223.985621 303.355911 
L 239.189771 328.698683 
L 242.990809 320.597175 
L 250.592884 296.708744 
L 261.995997 330.46426 
L 265.797034 319.662514 
L 269.598072 313.222837 
L 273.399109 247.166148 
L 277.200147 214.345612 
L 288.60326 209.256213 
L 296.205335 193.884589 
L 300.006372 199.804586 
L 303.80741 225.043294 
L 315.210523 207.282669 
L 319.01156 182.459577 
L 322.812598 165.218155 
L 326.613636 153.793461 
L 330.414673 155.351229 
L 341.817786 146.730677 
L 345.618823 180.174638 
L 349.419861 173.423567 
L 353.220899 192.118854 
L 357.021936 195.96172 
L 368.425049 180.486033 
L 372.226086 201.777971 
L 376.027124 218.292223 
L 379.828162 245.919774 
L 383.629199 232.313887 
L 395.032312 211.74896 
L 398.833349 190.457022 
L 402.634387 213.514696 
L 406.435425 201.051119 
L 410.236462 198.662116 
L 421.639575 172.488906 
L 425.440612 195.546421 
L 429.24165 190.664831 
L 433.042688 181.819763 
L 436.843725 183.068523 
L 448.246838 153.307832 
L 452.047875 185.253695 
L 455.848913 190.872957 
L 459.649951 210.85201 
L 463.450988 202.527418 
L 474.854101 189.103721 
L 478.655138 177.553324 
L 482.456176 159.551316 
L 486.257214 188.999817 
L 490.058251 156.741605 
L 501.461364 143.630416 
L 505.262401 127.917643 
L 509.063439 118.65648 
L 512.864477 124.379647 
L 516.665514 99.093522 
L 531.869665 127.917643 
L 535.670702 119.384765 
L 539.47174 109.187032 
L 543.272777 107.626241 
L 554.67589 108.354684 
L 558.476928 107.522177 
L 562.277965 102.007137 
L 566.079003 167.875908 
L 569.88004 172.350314 
L 581.283153 134.993475 
L 585.084191 146.439968 
L 588.885228 164.129786 
L 592.686266 218.760349 
L 596.487303 234.681249 
L 607.890416 252.579352 
L 611.691454 291.184952 
L 615.492491 292.745744 
L 619.293529 270.26917 
L 623.094566 287.438989 
L 634.497679 274.327482 
L 638.298717 299.925798 
L 642.099754 274.847799 
L 645.900792 251.330751 
L 649.701829 235.097661 
L 661.104942 241.340986 
L 664.90598 218.864412 
L 668.707017 228.437924 
L 672.508055 216.991431 
L 676.309092 207.730268 
L 687.712205 182.756174 
L 691.513243 170.99765 
L 699.115318 247.896819 
L 702.916355 252.371226 
L 714.319468 271.621994 
L 718.120506 239.155973 
L 721.921543 216.262987 
L 725.722581 274.223419 
L 729.523618 295.139042 
L 740.926731 255.492967 
L 744.727769 234.473122 
L 748.528806 198.260979 
L 752.329844 149.665773 
L 756.130881 146.023714 
L 767.533994 147.168252 
L 771.335032 133.848777 
L 775.136069 137.394411 
L 778.937107 161.065963 
L 782.738144 123.42096 
L 794.141257 129.469205 
L 797.942295 105.797653 
L 801.743332 93.596939 
L 805.54437 88.8 
L 805.54437 88.8 
" style="fill:none;stroke:#000000;stroke-linecap:square;stroke-width:4;"/>
   </g>
   <g id="patch_3">
    <path d="M 75.175 385.2 
L 75.175 88.8 
" style="fill:none;stroke:#000000;stroke-linecap:square;stroke-linejoin:miter;stroke-width:0.8;"/>
   </g>
   <g id="patch_4">
    <path d="M 75.175 385.2 
L 840.323864 385.2 
" style="fill:none;stroke:#000000;stroke-linecap:square;stroke-linejoin:miter;stroke-width:0.8;"/>
   </g>
   <g id="text_6">
    <!-- V   7% -->
    <defs>
     <path d="M 0.484375 72.90625 
L 19.390625 72.90625 
L 38.71875 19.09375 
L 58.015625 72.90625 
L 76.90625 72.90625 
L 49.90625 0 
L 27.484375 0 
z
" id="DejaVuSans-Bold-86"/>
     <path id="DejaVuSans-Bold-32"/>
     <path d="M 6.6875 72.90625 
L 61.625 72.90625 
L 61.625 62.3125 
L 33.203125 0 
L 14.890625 0 
L 41.796875 59.078125 
L 6.6875 59.078125 
z
" id="DejaVuSans-Bold-55"/>
     <path d="M 77.484375 30.078125 
Q 74.03125 30.078125 72.125 27.078125 
Q 70.21875 24.078125 70.21875 18.5 
Q 70.21875 12.890625 72.09375 9.890625 
Q 73.96875 6.890625 77.484375 6.890625 
Q 81 6.890625 82.859375 9.890625 
Q 84.71875 12.890625 84.71875 18.5 
Q 84.71875 24.078125 82.828125 27.078125 
Q 80.953125 30.078125 77.484375 30.078125 
z
M 77.484375 38.28125 
Q 86.578125 38.28125 91.796875 33 
Q 97.015625 27.734375 97.015625 18.5 
Q 97.015625 9.28125 91.796875 3.921875 
Q 86.578125 -1.421875 77.484375 -1.421875 
Q 68.40625 -1.421875 63.15625 3.921875 
Q 57.90625 9.28125 57.90625 18.5 
Q 57.90625 27.6875 63.15625 32.984375 
Q 68.40625 38.28125 77.484375 38.28125 
z
M 32.71875 -1.421875 
L 21.921875 -1.421875 
L 67.484375 74.21875 
L 78.328125 74.21875 
z
M 22.703125 74.21875 
Q 31.78125 74.21875 36.984375 68.921875 
Q 42.1875 63.625 42.1875 54.390625 
Q 42.1875 45.171875 36.984375 39.84375 
Q 31.78125 34.515625 22.703125 34.515625 
Q 13.625 34.515625 8.421875 39.84375 
Q 3.21875 45.171875 3.21875 54.390625 
Q 3.21875 63.625 8.421875 68.921875 
Q 13.625 74.21875 22.703125 74.21875 
z
M 22.703125 66.015625 
Q 19.1875 66.015625 17.28125 62.984375 
Q 15.375 59.96875 15.375 54.390625 
Q 15.375 48.78125 17.28125 45.71875 
Q 19.1875 42.671875 22.703125 42.671875 
Q 26.21875 42.671875 28.09375 45.71875 
Q 29.984375 48.78125 29.984375 54.390625 
Q 29.984375 59.96875 28.078125 62.984375 
Q 26.171875 66.015625 22.703125 66.015625 
z
" id="DejaVuSans-Bold-37"/>
    </defs>
    <g transform="translate(75.175 72.1625)scale(0.8 -0.8)">
     <use xlink:href="#DejaVuSans-Bold-86"/>
     <use x="77.392578" xlink:href="#DejaVuSans-Bold-32"/>
     <use x="112.207031" xlink:href="#DejaVuSans-Bold-32"/>
     <use x="147.021484" xlink:href="#DejaVuSans-Bold-32"/>
     <use x="181.835938" xlink:href="#DejaVuSans-Bold-55"/>
     <use x="251.416016" xlink:href="#DejaVuSans-Bold-37"/>
    </g>
   </g>
  </g>
 </g>
 <defs>
  <clipPath id="pd36af04992">
   <rect height="296.4" width="765.148864" x="75.175" y="88.8"/>
  </clipPath>
 </defs>
</svg>
