<?xml version="1.0" encoding="utf-8" standalone="no"?>
<!DOCTYPE svg PUBLIC "-//W3C//DTD SVG 1.1//EN"
  "http://www.w3.org/Graphics/SVG/1.1/DTD/svg11.dtd">
<!-- Created with matplotlib (https://matplotlib.org/) -->
<svg height="432pt" version="1.1" viewBox="0 0 864 432" width="864pt" xmlns="http://www.w3.org/2000/svg" xmlns:xlink="http://www.w3.org/1999/xlink">
 <defs>
  <style type="text/css">
*{stroke-linecap:butt;stroke-linejoin:round;}
  </style>
 </defs>
 <g id="figure_1">
  <g id="patch_1">
   <path d="M 0 432 
L 864 432 
L 864 0 
L 0 0 
z
" style="fill:none;"/>
  </g>
  <g id="axes_1">
   <g id="patch_2">
    <path d="M 75.175 361.2 
L 840.323864 361.2 
L 840.323864 88.8 
L 75.175 88.8 
z
" style="fill:none;"/>
   </g>
   <g id="PolyCollection_1">
    <path clip-path="url(#p9e82307bf1)" d="M 109.954494 2479.193839 
L 109.954494 270.742294 
L 113.734874 249.852759 
L 117.515253 240.749398 
L 121.295633 243.528366 
L 132.636772 262.98056 
L 136.417152 327.182517 
L 140.197532 349.509541 
L 143.977912 338.681399 
L 147.758291 323.062215 
L 162.87981 355.35477 
L 166.66019 361.2 
L 170.44057 308.784364 
L 174.22095 286.840788 
L 185.562089 306.197119 
L 189.342469 292.302716 
L 193.122849 320.570685 
L 196.903228 341.843522 
L 200.683608 336.956618 
L 212.024747 311.946634 
L 215.805127 338.489822 
L 219.585507 338.106374 
L 223.365887 311.946634 
L 227.146266 285.690885 
L 242.267785 309.071803 
L 246.048165 301.597655 
L 249.828545 290.673651 
L 253.608925 279.558069 
L 264.950064 310.700869 
L 268.730444 300.735191 
L 272.510824 294.794099 
L 276.291203 233.84998 
L 280.071583 203.569791 
L 291.412722 198.874465 
L 298.973482 184.692476 
L 302.753862 190.154405 
L 306.534241 213.439608 
L 317.875381 197.053822 
L 321.65576 174.15192 
L 325.43614 158.24515 
L 329.21652 147.704594 
L 332.9969 149.141936 
L 344.338039 141.188477 
L 348.118419 172.043838 
L 351.898799 165.815307 
L 355.679178 183.063557 
L 359.459558 186.608981 
L 370.800697 172.33113 
L 374.581077 191.975194 
L 378.361457 207.211077 
L 382.141837 232.700224 
L 385.922216 220.147301 
L 397.263356 201.174271 
L 401.043735 181.530353 
L 404.824115 202.803336 
L 408.604495 191.304307 
L 412.384875 189.100364 
L 423.726014 164.952843 
L 427.506394 186.225827 
L 431.286773 181.72193 
L 435.067153 173.561627 
L 438.847533 174.713732 
L 450.188672 147.256553 
L 453.969052 176.729769 
L 457.749432 181.914095 
L 461.529812 200.346746 
L 465.310191 192.666487 
L 476.651331 180.281799 
L 480.43171 169.625416 
L 484.21209 153.016784 
L 487.99247 180.185937 
L 491.77285 150.424548 
L 503.113989 138.32818 
L 506.894369 123.831594 
L 510.674748 115.287256 
L 514.455128 120.567444 
L 518.235508 97.238493 
L 533.357027 123.831594 
L 537.137407 115.959171 
L 540.917787 106.550754 
L 544.698166 105.11077 
L 556.039306 105.782831 
L 559.819685 105.014761 
L 563.600065 99.926591 
L 567.380445 160.697043 
L 571.160825 164.825125 
L 582.501964 130.359748 
L 586.282344 140.92027 
L 590.062723 157.240875 
L 593.843103 207.64297 
L 597.623483 222.331574 
L 608.964622 238.844343 
L 612.745002 274.461826 
L 616.525382 275.90181 
L 620.305762 255.164949 
L 624.086141 271.005804 
L 635.427281 258.909143 
L 639.20766 282.52612 
L 642.98804 259.389187 
L 646.76842 237.692385 
L 650.5488 222.715755 
L 661.889939 228.475839 
L 665.670319 207.738979 
L 669.450698 216.571489 
L 673.231078 206.010968 
L 677.011458 197.46663 
L 688.352597 174.425559 
L 692.132977 163.577159 
L 695.913357 199.386658 
L 699.693737 234.524244 
L 703.474116 238.652326 
L 714.815256 256.413063 
L 718.595635 226.459949 
L 722.376015 205.338907 
L 726.156395 258.813134 
L 729.936775 278.109864 
L 741.277914 241.532441 
L 745.058294 222.139556 
L 748.838673 188.730275 
L 752.619053 143.896394 
L 756.399433 140.536235 
L 767.740572 141.592184 
L 771.520952 129.303652 
L 775.301332 132.574849 
L 779.081712 154.414196 
L 782.862091 119.682959 
L 794.203231 125.263064 
L 797.98361 103.423717 
L 801.76399 92.167353 
L 805.54437 88.8 
L 805.54437 2479.193839 
L 805.54437 2479.193839 
L 801.76399 2479.193839 
L 797.98361 2479.193839 
L 794.203231 2479.193839 
L 782.862091 2479.193839 
L 779.081712 2479.193839 
L 775.301332 2479.193839 
L 771.520952 2479.193839 
L 767.740572 2479.193839 
L 756.399433 2479.193839 
L 752.619053 2479.193839 
L 748.838673 2479.193839 
L 745.058294 2479.193839 
L 741.277914 2479.193839 
L 729.936775 2479.193839 
L 726.156395 2479.193839 
L 722.376015 2479.193839 
L 718.595635 2479.193839 
L 714.815256 2479.193839 
L 703.474116 2479.193839 
L 699.693737 2479.193839 
L 695.913357 2479.193839 
L 692.132977 2479.193839 
L 688.352597 2479.193839 
L 677.011458 2479.193839 
L 673.231078 2479.193839 
L 669.450698 2479.193839 
L 665.670319 2479.193839 
L 661.889939 2479.193839 
L 650.5488 2479.193839 
L 646.76842 2479.193839 
L 642.98804 2479.193839 
L 639.20766 2479.193839 
L 635.427281 2479.193839 
L 624.086141 2479.193839 
L 620.305762 2479.193839 
L 616.525382 2479.193839 
L 612.745002 2479.193839 
L 608.964622 2479.193839 
L 597.623483 2479.193839 
L 593.843103 2479.193839 
L 590.062723 2479.193839 
L 586.282344 2479.193839 
L 582.501964 2479.193839 
L 571.160825 2479.193839 
L 567.380445 2479.193839 
L 563.600065 2479.193839 
L 559.819685 2479.193839 
L 556.039306 2479.193839 
L 544.698166 2479.193839 
L 540.917787 2479.193839 
L 537.137407 2479.193839 
L 533.357027 2479.193839 
L 518.235508 2479.193839 
L 514.455128 2479.193839 
L 510.674748 2479.193839 
L 506.894369 2479.193839 
L 503.113989 2479.193839 
L 491.77285 2479.193839 
L 487.99247 2479.193839 
L 484.21209 2479.193839 
L 480.43171 2479.193839 
L 476.651331 2479.193839 
L 465.310191 2479.193839 
L 461.529812 2479.193839 
L 457.749432 2479.193839 
L 453.969052 2479.193839 
L 450.188672 2479.193839 
L 438.847533 2479.193839 
L 435.067153 2479.193839 
L 431.286773 2479.193839 
L 427.506394 2479.193839 
L 423.726014 2479.193839 
L 412.384875 2479.193839 
L 408.604495 2479.193839 
L 404.824115 2479.193839 
L 401.043735 2479.193839 
L 397.263356 2479.193839 
L 385.922216 2479.193839 
L 382.141837 2479.193839 
L 378.361457 2479.193839 
L 374.581077 2479.193839 
L 370.800697 2479.193839 
L 359.459558 2479.193839 
L 355.679178 2479.193839 
L 351.898799 2479.193839 
L 348.118419 2479.193839 
L 344.338039 2479.193839 
L 332.9969 2479.193839 
L 329.21652 2479.193839 
L 325.43614 2479.193839 
L 321.65576 2479.193839 
L 317.875381 2479.193839 
L 306.534241 2479.193839 
L 302.753862 2479.193839 
L 298.973482 2479.193839 
L 291.412722 2479.193839 
L 280.071583 2479.193839 
L 276.291203 2479.193839 
L 272.510824 2479.193839 
L 268.730444 2479.193839 
L 264.950064 2479.193839 
L 253.608925 2479.193839 
L 249.828545 2479.193839 
L 246.048165 2479.193839 
L 242.267785 2479.193839 
L 227.146266 2479.193839 
L 223.365887 2479.193839 
L 219.585507 2479.193839 
L 215.805127 2479.193839 
L 212.024747 2479.193839 
L 200.683608 2479.193839 
L 196.903228 2479.193839 
L 193.122849 2479.193839 
L 189.342469 2479.193839 
L 185.562089 2479.193839 
L 174.22095 2479.193839 
L 170.44057 2479.193839 
L 166.66019 2479.193839 
L 162.87981 2479.193839 
L 147.758291 2479.193839 
L 143.977912 2479.193839 
L 140.197532 2479.193839 
L 136.417152 2479.193839 
L 132.636772 2479.193839 
L 121.295633 2479.193839 
L 117.515253 2479.193839 
L 113.734874 2479.193839 
L 109.954494 2479.193839 
z
" style="fill:#0000ff;fill-opacity:0.1;stroke:#0000ff;stroke-opacity:0.1;"/>
   </g>
   <g id="matplotlib.axis_1">
    <g id="xtick_1">
     <g id="line2d_1">
      <defs>
       <path d="M 0 0 
L 0 3.5 
" id="me26e4cccfe" style="stroke:#000000;stroke-width:0.8;"/>
      </defs>
      <g>
       <use style="stroke:#000000;stroke-width:0.8;" x="109.954494" xlink:href="#me26e4cccfe" y="361.2"/>
      </g>
     </g>
     <g id="text_1">
      <!-- 05/23 -->
      <defs>
       <path d="M 31.78125 66.40625 
Q 24.171875 66.40625 20.328125 58.90625 
Q 16.5 51.421875 16.5 36.375 
Q 16.5 21.390625 20.328125 13.890625 
Q 24.171875 6.390625 31.78125 6.390625 
Q 39.453125 6.390625 43.28125 13.890625 
Q 47.125 21.390625 47.125 36.375 
Q 47.125 51.421875 43.28125 58.90625 
Q 39.453125 66.40625 31.78125 66.40625 
z
M 31.78125 74.21875 
Q 44.046875 74.21875 50.515625 64.515625 
Q 56.984375 54.828125 56.984375 36.375 
Q 56.984375 17.96875 50.515625 8.265625 
Q 44.046875 -1.421875 31.78125 -1.421875 
Q 19.53125 -1.421875 13.0625 8.265625 
Q 6.59375 17.96875 6.59375 36.375 
Q 6.59375 54.828125 13.0625 64.515625 
Q 19.53125 74.21875 31.78125 74.21875 
z
" id="DejaVuSans-48"/>
       <path d="M 10.796875 72.90625 
L 49.515625 72.90625 
L 49.515625 64.59375 
L 19.828125 64.59375 
L 19.828125 46.734375 
Q 21.96875 47.46875 24.109375 47.828125 
Q 26.265625 48.1875 28.421875 48.1875 
Q 40.625 48.1875 47.75 41.5 
Q 54.890625 34.8125 54.890625 23.390625 
Q 54.890625 11.625 47.5625 5.09375 
Q 40.234375 -1.421875 26.90625 -1.421875 
Q 22.3125 -1.421875 17.546875 -0.640625 
Q 12.796875 0.140625 7.71875 1.703125 
L 7.71875 11.625 
Q 12.109375 9.234375 16.796875 8.0625 
Q 21.484375 6.890625 26.703125 6.890625 
Q 35.15625 6.890625 40.078125 11.328125 
Q 45.015625 15.765625 45.015625 23.390625 
Q 45.015625 31 40.078125 35.4375 
Q 35.15625 39.890625 26.703125 39.890625 
Q 22.75 39.890625 18.8125 39.015625 
Q 14.890625 38.140625 10.796875 36.28125 
z
" id="DejaVuSans-53"/>
       <path d="M 25.390625 72.90625 
L 33.6875 72.90625 
L 8.296875 -9.28125 
L 0 -9.28125 
z
" id="DejaVuSans-47"/>
       <path d="M 19.1875 8.296875 
L 53.609375 8.296875 
L 53.609375 0 
L 7.328125 0 
L 7.328125 8.296875 
Q 12.9375 14.109375 22.625 23.890625 
Q 32.328125 33.6875 34.8125 36.53125 
Q 39.546875 41.84375 41.421875 45.53125 
Q 43.3125 49.21875 43.3125 52.78125 
Q 43.3125 58.59375 39.234375 62.25 
Q 35.15625 65.921875 28.609375 65.921875 
Q 23.96875 65.921875 18.8125 64.3125 
Q 13.671875 62.703125 7.8125 59.421875 
L 7.8125 69.390625 
Q 13.765625 71.78125 18.9375 73 
Q 24.125 74.21875 28.421875 74.21875 
Q 39.75 74.21875 46.484375 68.546875 
Q 53.21875 62.890625 53.21875 53.421875 
Q 53.21875 48.921875 51.53125 44.890625 
Q 49.859375 40.875 45.40625 35.40625 
Q 44.1875 33.984375 37.640625 27.21875 
Q 31.109375 20.453125 19.1875 8.296875 
z
" id="DejaVuSans-50"/>
       <path d="M 40.578125 39.3125 
Q 47.65625 37.796875 51.625 33 
Q 55.609375 28.21875 55.609375 21.1875 
Q 55.609375 10.40625 48.1875 4.484375 
Q 40.765625 -1.421875 27.09375 -1.421875 
Q 22.515625 -1.421875 17.65625 -0.515625 
Q 12.796875 0.390625 7.625 2.203125 
L 7.625 11.71875 
Q 11.71875 9.328125 16.59375 8.109375 
Q 21.484375 6.890625 26.8125 6.890625 
Q 36.078125 6.890625 40.9375 10.546875 
Q 45.796875 14.203125 45.796875 21.1875 
Q 45.796875 27.640625 41.28125 31.265625 
Q 36.765625 34.90625 28.71875 34.90625 
L 20.21875 34.90625 
L 20.21875 43.015625 
L 29.109375 43.015625 
Q 36.375 43.015625 40.234375 45.921875 
Q 44.09375 48.828125 44.09375 54.296875 
Q 44.09375 59.90625 40.109375 62.90625 
Q 36.140625 65.921875 28.71875 65.921875 
Q 24.65625 65.921875 20.015625 65.03125 
Q 15.375 64.15625 9.8125 62.3125 
L 9.8125 71.09375 
Q 15.4375 72.65625 20.34375 73.4375 
Q 25.25 74.21875 29.59375 74.21875 
Q 40.828125 74.21875 47.359375 69.109375 
Q 53.90625 64.015625 53.90625 55.328125 
Q 53.90625 49.265625 50.4375 45.09375 
Q 46.96875 40.921875 40.578125 39.3125 
z
" id="DejaVuSans-51"/>
      </defs>
      <g transform="translate(66.726369 390.995313)scale(0.3 -0.3)">
       <use xlink:href="#DejaVuSans-48"/>
       <use x="63.623047" xlink:href="#DejaVuSans-53"/>
       <use x="127.246094" xlink:href="#DejaVuSans-47"/>
       <use x="160.9375" xlink:href="#DejaVuSans-50"/>
       <use x="224.560547" xlink:href="#DejaVuSans-51"/>
      </g>
     </g>
    </g>
    <g id="xtick_2">
     <g id="line2d_2">
      <g>
       <use style="stroke:#000000;stroke-width:0.8;" x="461.529812" xlink:href="#me26e4cccfe" y="361.2"/>
      </g>
     </g>
     <g id="text_2">
      <!-- 08/23 -->
      <defs>
       <path d="M 31.78125 34.625 
Q 24.75 34.625 20.71875 30.859375 
Q 16.703125 27.09375 16.703125 20.515625 
Q 16.703125 13.921875 20.71875 10.15625 
Q 24.75 6.390625 31.78125 6.390625 
Q 38.8125 6.390625 42.859375 10.171875 
Q 46.921875 13.96875 46.921875 20.515625 
Q 46.921875 27.09375 42.890625 30.859375 
Q 38.875 34.625 31.78125 34.625 
z
M 21.921875 38.8125 
Q 15.578125 40.375 12.03125 44.71875 
Q 8.5 49.078125 8.5 55.328125 
Q 8.5 64.0625 14.71875 69.140625 
Q 20.953125 74.21875 31.78125 74.21875 
Q 42.671875 74.21875 48.875 69.140625 
Q 55.078125 64.0625 55.078125 55.328125 
Q 55.078125 49.078125 51.53125 44.71875 
Q 48 40.375 41.703125 38.8125 
Q 48.828125 37.15625 52.796875 32.3125 
Q 56.78125 27.484375 56.78125 20.515625 
Q 56.78125 9.90625 50.3125 4.234375 
Q 43.84375 -1.421875 31.78125 -1.421875 
Q 19.734375 -1.421875 13.25 4.234375 
Q 6.78125 9.90625 6.78125 20.515625 
Q 6.78125 27.484375 10.78125 32.3125 
Q 14.796875 37.15625 21.921875 38.8125 
z
M 18.3125 54.390625 
Q 18.3125 48.734375 21.84375 45.5625 
Q 25.390625 42.390625 31.78125 42.390625 
Q 38.140625 42.390625 41.71875 45.5625 
Q 45.3125 48.734375 45.3125 54.390625 
Q 45.3125 60.0625 41.71875 63.234375 
Q 38.140625 66.40625 31.78125 66.40625 
Q 25.390625 66.40625 21.84375 63.234375 
Q 18.3125 60.0625 18.3125 54.390625 
z
" id="DejaVuSans-56"/>
      </defs>
      <g transform="translate(418.301687 390.995313)scale(0.3 -0.3)">
       <use xlink:href="#DejaVuSans-48"/>
       <use x="63.623047" xlink:href="#DejaVuSans-56"/>
       <use x="127.246094" xlink:href="#DejaVuSans-47"/>
       <use x="160.9375" xlink:href="#DejaVuSans-50"/>
       <use x="224.560547" xlink:href="#DejaVuSans-51"/>
      </g>
     </g>
    </g>
    <g id="xtick_3">
     <g id="line2d_3">
      <g>
       <use style="stroke:#000000;stroke-width:0.8;" x="805.54437" xlink:href="#me26e4cccfe" y="361.2"/>
      </g>
     </g>
     <g id="text_3">
      <!-- 11/23 -->
      <defs>
       <path d="M 12.40625 8.296875 
L 28.515625 8.296875 
L 28.515625 63.921875 
L 10.984375 60.40625 
L 10.984375 69.390625 
L 28.421875 72.90625 
L 38.28125 72.90625 
L 38.28125 8.296875 
L 54.390625 8.296875 
L 54.390625 0 
L 12.40625 0 
z
" id="DejaVuSans-49"/>
      </defs>
      <g transform="translate(762.316245 390.995313)scale(0.3 -0.3)">
       <use xlink:href="#DejaVuSans-49"/>
       <use x="63.623047" xlink:href="#DejaVuSans-49"/>
       <use x="127.246094" xlink:href="#DejaVuSans-47"/>
       <use x="160.9375" xlink:href="#DejaVuSans-50"/>
       <use x="224.560547" xlink:href="#DejaVuSans-51"/>
      </g>
     </g>
    </g>
    <g id="text_4">
     <!-- Over last 6 months -->
     <defs>
      <path d="M 39.40625 66.21875 
Q 28.65625 66.21875 22.328125 58.203125 
Q 16.015625 50.203125 16.015625 36.375 
Q 16.015625 22.609375 22.328125 14.59375 
Q 28.65625 6.59375 39.40625 6.59375 
Q 50.140625 6.59375 56.421875 14.59375 
Q 62.703125 22.609375 62.703125 36.375 
Q 62.703125 50.203125 56.421875 58.203125 
Q 50.140625 66.21875 39.40625 66.21875 
z
M 39.40625 74.21875 
Q 54.734375 74.21875 63.90625 63.9375 
Q 73.09375 53.65625 73.09375 36.375 
Q 73.09375 19.140625 63.90625 8.859375 
Q 54.734375 -1.421875 39.40625 -1.421875 
Q 24.03125 -1.421875 14.8125 8.828125 
Q 5.609375 19.09375 5.609375 36.375 
Q 5.609375 53.65625 14.8125 63.9375 
Q 24.03125 74.21875 39.40625 74.21875 
z
" id="DejaVuSans-79"/>
      <path d="M 2.984375 54.6875 
L 12.5 54.6875 
L 29.59375 8.796875 
L 46.6875 54.6875 
L 56.203125 54.6875 
L 35.6875 0 
L 23.484375 0 
z
" id="DejaVuSans-118"/>
      <path d="M 56.203125 29.59375 
L 56.203125 25.203125 
L 14.890625 25.203125 
Q 15.484375 15.921875 20.484375 11.0625 
Q 25.484375 6.203125 34.421875 6.203125 
Q 39.59375 6.203125 44.453125 7.46875 
Q 49.3125 8.734375 54.109375 11.28125 
L 54.109375 2.78125 
Q 49.265625 0.734375 44.1875 -0.34375 
Q 39.109375 -1.421875 33.890625 -1.421875 
Q 20.796875 -1.421875 13.15625 6.1875 
Q 5.515625 13.8125 5.515625 26.8125 
Q 5.515625 40.234375 12.765625 48.109375 
Q 20.015625 56 32.328125 56 
Q 43.359375 56 49.78125 48.890625 
Q 56.203125 41.796875 56.203125 29.59375 
z
M 47.21875 32.234375 
Q 47.125 39.59375 43.09375 43.984375 
Q 39.0625 48.390625 32.421875 48.390625 
Q 24.90625 48.390625 20.390625 44.140625 
Q 15.875 39.890625 15.1875 32.171875 
z
" id="DejaVuSans-101"/>
      <path d="M 41.109375 46.296875 
Q 39.59375 47.171875 37.8125 47.578125 
Q 36.03125 48 33.890625 48 
Q 26.265625 48 22.1875 43.046875 
Q 18.109375 38.09375 18.109375 28.8125 
L 18.109375 0 
L 9.078125 0 
L 9.078125 54.6875 
L 18.109375 54.6875 
L 18.109375 46.1875 
Q 20.953125 51.171875 25.484375 53.578125 
Q 30.03125 56 36.53125 56 
Q 37.453125 56 38.578125 55.875 
Q 39.703125 55.765625 41.0625 55.515625 
z
" id="DejaVuSans-114"/>
      <path id="DejaVuSans-32"/>
      <path d="M 9.421875 75.984375 
L 18.40625 75.984375 
L 18.40625 0 
L 9.421875 0 
z
" id="DejaVuSans-108"/>
      <path d="M 34.28125 27.484375 
Q 23.390625 27.484375 19.1875 25 
Q 14.984375 22.515625 14.984375 16.5 
Q 14.984375 11.71875 18.140625 8.90625 
Q 21.296875 6.109375 26.703125 6.109375 
Q 34.1875 6.109375 38.703125 11.40625 
Q 43.21875 16.703125 43.21875 25.484375 
L 43.21875 27.484375 
z
M 52.203125 31.203125 
L 52.203125 0 
L 43.21875 0 
L 43.21875 8.296875 
Q 40.140625 3.328125 35.546875 0.953125 
Q 30.953125 -1.421875 24.3125 -1.421875 
Q 15.921875 -1.421875 10.953125 3.296875 
Q 6 8.015625 6 15.921875 
Q 6 25.140625 12.171875 29.828125 
Q 18.359375 34.515625 30.609375 34.515625 
L 43.21875 34.515625 
L 43.21875 35.40625 
Q 43.21875 41.609375 39.140625 45 
Q 35.0625 48.390625 27.6875 48.390625 
Q 23 48.390625 18.546875 47.265625 
Q 14.109375 46.140625 10.015625 43.890625 
L 10.015625 52.203125 
Q 14.9375 54.109375 19.578125 55.046875 
Q 24.21875 56 28.609375 56 
Q 40.484375 56 46.34375 49.84375 
Q 52.203125 43.703125 52.203125 31.203125 
z
" id="DejaVuSans-97"/>
      <path d="M 44.28125 53.078125 
L 44.28125 44.578125 
Q 40.484375 46.53125 36.375 47.5 
Q 32.28125 48.484375 27.875 48.484375 
Q 21.1875 48.484375 17.84375 46.4375 
Q 14.5 44.390625 14.5 40.28125 
Q 14.5 37.15625 16.890625 35.375 
Q 19.28125 33.59375 26.515625 31.984375 
L 29.59375 31.296875 
Q 39.15625 29.25 43.1875 25.515625 
Q 47.21875 21.78125 47.21875 15.09375 
Q 47.21875 7.46875 41.1875 3.015625 
Q 35.15625 -1.421875 24.609375 -1.421875 
Q 20.21875 -1.421875 15.453125 -0.5625 
Q 10.6875 0.296875 5.421875 2 
L 5.421875 11.28125 
Q 10.40625 8.6875 15.234375 7.390625 
Q 20.0625 6.109375 24.8125 6.109375 
Q 31.15625 6.109375 34.5625 8.28125 
Q 37.984375 10.453125 37.984375 14.40625 
Q 37.984375 18.0625 35.515625 20.015625 
Q 33.0625 21.96875 24.703125 23.78125 
L 21.578125 24.515625 
Q 13.234375 26.265625 9.515625 29.90625 
Q 5.8125 33.546875 5.8125 39.890625 
Q 5.8125 47.609375 11.28125 51.796875 
Q 16.75 56 26.8125 56 
Q 31.78125 56 36.171875 55.265625 
Q 40.578125 54.546875 44.28125 53.078125 
z
" id="DejaVuSans-115"/>
      <path d="M 18.3125 70.21875 
L 18.3125 54.6875 
L 36.8125 54.6875 
L 36.8125 47.703125 
L 18.3125 47.703125 
L 18.3125 18.015625 
Q 18.3125 11.328125 20.140625 9.421875 
Q 21.96875 7.515625 27.59375 7.515625 
L 36.8125 7.515625 
L 36.8125 0 
L 27.59375 0 
Q 17.1875 0 13.234375 3.875 
Q 9.28125 7.765625 9.28125 18.015625 
L 9.28125 47.703125 
L 2.6875 47.703125 
L 2.6875 54.6875 
L 9.28125 54.6875 
L 9.28125 70.21875 
z
" id="DejaVuSans-116"/>
      <path d="M 33.015625 40.375 
Q 26.375 40.375 22.484375 35.828125 
Q 18.609375 31.296875 18.609375 23.390625 
Q 18.609375 15.53125 22.484375 10.953125 
Q 26.375 6.390625 33.015625 6.390625 
Q 39.65625 6.390625 43.53125 10.953125 
Q 47.40625 15.53125 47.40625 23.390625 
Q 47.40625 31.296875 43.53125 35.828125 
Q 39.65625 40.375 33.015625 40.375 
z
M 52.59375 71.296875 
L 52.59375 62.3125 
Q 48.875 64.0625 45.09375 64.984375 
Q 41.3125 65.921875 37.59375 65.921875 
Q 27.828125 65.921875 22.671875 59.328125 
Q 17.53125 52.734375 16.796875 39.40625 
Q 19.671875 43.65625 24.015625 45.921875 
Q 28.375 48.1875 33.59375 48.1875 
Q 44.578125 48.1875 50.953125 41.515625 
Q 57.328125 34.859375 57.328125 23.390625 
Q 57.328125 12.15625 50.6875 5.359375 
Q 44.046875 -1.421875 33.015625 -1.421875 
Q 20.359375 -1.421875 13.671875 8.265625 
Q 6.984375 17.96875 6.984375 36.375 
Q 6.984375 53.65625 15.1875 63.9375 
Q 23.390625 74.21875 37.203125 74.21875 
Q 40.921875 74.21875 44.703125 73.484375 
Q 48.484375 72.75 52.59375 71.296875 
z
" id="DejaVuSans-54"/>
      <path d="M 52 44.1875 
Q 55.375 50.25 60.0625 53.125 
Q 64.75 56 71.09375 56 
Q 79.640625 56 84.28125 50.015625 
Q 88.921875 44.046875 88.921875 33.015625 
L 88.921875 0 
L 79.890625 0 
L 79.890625 32.71875 
Q 79.890625 40.578125 77.09375 44.375 
Q 74.3125 48.1875 68.609375 48.1875 
Q 61.625 48.1875 57.5625 43.546875 
Q 53.515625 38.921875 53.515625 30.90625 
L 53.515625 0 
L 44.484375 0 
L 44.484375 32.71875 
Q 44.484375 40.625 41.703125 44.40625 
Q 38.921875 48.1875 33.109375 48.1875 
Q 26.21875 48.1875 22.15625 43.53125 
Q 18.109375 38.875 18.109375 30.90625 
L 18.109375 0 
L 9.078125 0 
L 9.078125 54.6875 
L 18.109375 54.6875 
L 18.109375 46.1875 
Q 21.1875 51.21875 25.484375 53.609375 
Q 29.78125 56 35.6875 56 
Q 41.65625 56 45.828125 52.96875 
Q 50 49.953125 52 44.1875 
z
" id="DejaVuSans-109"/>
      <path d="M 30.609375 48.390625 
Q 23.390625 48.390625 19.1875 42.75 
Q 14.984375 37.109375 14.984375 27.296875 
Q 14.984375 17.484375 19.15625 11.84375 
Q 23.34375 6.203125 30.609375 6.203125 
Q 37.796875 6.203125 41.984375 11.859375 
Q 46.1875 17.53125 46.1875 27.296875 
Q 46.1875 37.015625 41.984375 42.703125 
Q 37.796875 48.390625 30.609375 48.390625 
z
M 30.609375 56 
Q 42.328125 56 49.015625 48.375 
Q 55.71875 40.765625 55.71875 27.296875 
Q 55.71875 13.875 49.015625 6.21875 
Q 42.328125 -1.421875 30.609375 -1.421875 
Q 18.84375 -1.421875 12.171875 6.21875 
Q 5.515625 13.875 5.515625 27.296875 
Q 5.515625 40.765625 12.171875 48.375 
Q 18.84375 56 30.609375 56 
z
" id="DejaVuSans-111"/>
      <path d="M 54.890625 33.015625 
L 54.890625 0 
L 45.90625 0 
L 45.90625 32.71875 
Q 45.90625 40.484375 42.875 44.328125 
Q 39.84375 48.1875 33.796875 48.1875 
Q 26.515625 48.1875 22.3125 43.546875 
Q 18.109375 38.921875 18.109375 30.90625 
L 18.109375 0 
L 9.078125 0 
L 9.078125 54.6875 
L 18.109375 54.6875 
L 18.109375 46.1875 
Q 21.34375 51.125 25.703125 53.5625 
Q 30.078125 56 35.796875 56 
Q 45.21875 56 50.046875 50.171875 
Q 54.890625 44.34375 54.890625 33.015625 
z
" id="DejaVuSans-110"/>
      <path d="M 54.890625 33.015625 
L 54.890625 0 
L 45.90625 0 
L 45.90625 32.71875 
Q 45.90625 40.484375 42.875 44.328125 
Q 39.84375 48.1875 33.796875 48.1875 
Q 26.515625 48.1875 22.3125 43.546875 
Q 18.109375 38.921875 18.109375 30.90625 
L 18.109375 0 
L 9.078125 0 
L 9.078125 75.984375 
L 18.109375 75.984375 
L 18.109375 46.1875 
Q 21.34375 51.125 25.703125 53.5625 
Q 30.078125 56 35.796875 56 
Q 45.21875 56 50.046875 50.171875 
Q 54.890625 44.34375 54.890625 33.015625 
z
" id="DejaVuSans-104"/>
     </defs>
     <g transform="translate(352.532713 417.950938)scale(0.22 -0.22)">
      <use xlink:href="#DejaVuSans-79"/>
      <use x="78.710938" xlink:href="#DejaVuSans-118"/>
      <use x="137.890625" xlink:href="#DejaVuSans-101"/>
      <use x="199.414062" xlink:href="#DejaVuSans-114"/>
      <use x="240.527344" xlink:href="#DejaVuSans-32"/>
      <use x="272.314453" xlink:href="#DejaVuSans-108"/>
      <use x="300.097656" xlink:href="#DejaVuSans-97"/>
      <use x="361.376953" xlink:href="#DejaVuSans-115"/>
      <use x="413.476562" xlink:href="#DejaVuSans-116"/>
      <use x="452.685547" xlink:href="#DejaVuSans-32"/>
      <use x="484.472656" xlink:href="#DejaVuSans-54"/>
      <use x="548.095703" xlink:href="#DejaVuSans-32"/>
      <use x="579.882812" xlink:href="#DejaVuSans-109"/>
      <use x="677.294922" xlink:href="#DejaVuSans-111"/>
      <use x="738.476562" xlink:href="#DejaVuSans-110"/>
      <use x="801.855469" xlink:href="#DejaVuSans-116"/>
      <use x="841.064453" xlink:href="#DejaVuSans-104"/>
      <use x="904.443359" xlink:href="#DejaVuSans-115"/>
     </g>
    </g>
   </g>
   <g id="matplotlib.axis_2">
    <g id="ytick_1">
     <g id="line2d_4">
      <defs>
       <path d="M 0 0 
L -3.5 0 
" id="m6657cc461e" style="stroke:#000000;stroke-width:0.8;"/>
      </defs>
      <g>
       <use style="stroke:#000000;stroke-width:0.8;" x="75.175" xlink:href="#m6657cc461e" y="266.400761"/>
      </g>
     </g>
     <g id="text_5">
      <!-- 230 -->
      <g transform="translate(10.9125 277.798417)scale(0.3 -0.3)">
       <use xlink:href="#DejaVuSans-50"/>
       <use x="63.623047" xlink:href="#DejaVuSans-51"/>
       <use x="127.246094" xlink:href="#DejaVuSans-48"/>
      </g>
     </g>
    </g>
    <g id="ytick_2">
     <g id="line2d_5">
      <g>
       <use style="stroke:#000000;stroke-width:0.8;" x="75.175" xlink:href="#m6657cc461e" y="170.192366"/>
      </g>
     </g>
     <g id="text_6">
      <!-- 240 -->
      <defs>
       <path d="M 37.796875 64.3125 
L 12.890625 25.390625 
L 37.796875 25.390625 
z
M 35.203125 72.90625 
L 47.609375 72.90625 
L 47.609375 25.390625 
L 58.015625 25.390625 
L 58.015625 17.1875 
L 47.609375 17.1875 
L 47.609375 0 
L 37.796875 0 
L 37.796875 17.1875 
L 4.890625 17.1875 
L 4.890625 26.703125 
z
" id="DejaVuSans-52"/>
      </defs>
      <g transform="translate(10.9125 181.590023)scale(0.3 -0.3)">
       <use xlink:href="#DejaVuSans-50"/>
       <use x="63.623047" xlink:href="#DejaVuSans-52"/>
       <use x="127.246094" xlink:href="#DejaVuSans-48"/>
      </g>
     </g>
    </g>
   </g>
   <g id="line2d_6">
    <path clip-path="url(#p9e82307bf1)" d="M 109.954494 270.742294 
L 113.734874 249.852759 
L 117.515253 240.749398 
L 121.295633 243.528366 
L 132.636772 262.98056 
L 136.417152 327.182517 
L 140.197532 349.509541 
L 143.977912 338.681399 
L 147.758291 323.062215 
L 162.87981 355.35477 
L 166.66019 361.2 
L 170.44057 308.784364 
L 174.22095 286.840788 
L 185.562089 306.197119 
L 189.342469 292.302716 
L 193.122849 320.570685 
L 196.903228 341.843522 
L 200.683608 336.956618 
L 212.024747 311.946634 
L 215.805127 338.489822 
L 219.585507 338.106374 
L 227.146266 285.690885 
L 242.267785 309.071803 
L 246.048165 301.597655 
L 253.608925 279.558069 
L 264.950064 310.700869 
L 268.730444 300.735191 
L 272.510824 294.794099 
L 276.291203 233.84998 
L 280.071583 203.569791 
L 291.412722 198.874465 
L 298.973482 184.692476 
L 302.753862 190.154405 
L 306.534241 213.439608 
L 317.875381 197.053822 
L 321.65576 174.15192 
L 325.43614 158.24515 
L 329.21652 147.704594 
L 332.9969 149.141936 
L 344.338039 141.188477 
L 348.118419 172.043838 
L 351.898799 165.815307 
L 355.679178 183.063557 
L 359.459558 186.608981 
L 370.800697 172.33113 
L 374.581077 191.975194 
L 378.361457 207.211077 
L 382.141837 232.700224 
L 385.922216 220.147301 
L 397.263356 201.174271 
L 401.043735 181.530353 
L 404.824115 202.803336 
L 408.604495 191.304307 
L 412.384875 189.100364 
L 423.726014 164.952843 
L 427.506394 186.225827 
L 431.286773 181.72193 
L 435.067153 173.561627 
L 438.847533 174.713732 
L 450.188672 147.256553 
L 453.969052 176.729769 
L 457.749432 181.914095 
L 461.529812 200.346746 
L 465.310191 192.666487 
L 476.651331 180.281799 
L 480.43171 169.625416 
L 484.21209 153.016784 
L 487.99247 180.185937 
L 491.77285 150.424548 
L 503.113989 138.32818 
L 506.894369 123.831594 
L 510.674748 115.287256 
L 514.455128 120.567444 
L 518.235508 97.238493 
L 533.357027 123.831594 
L 537.137407 115.959171 
L 540.917787 106.550754 
L 544.698166 105.11077 
L 556.039306 105.782831 
L 559.819685 105.014761 
L 563.600065 99.926591 
L 567.380445 160.697043 
L 571.160825 164.825125 
L 582.501964 130.359748 
L 586.282344 140.92027 
L 590.062723 157.240875 
L 593.843103 207.64297 
L 597.623483 222.331574 
L 608.964622 238.844343 
L 612.745002 274.461826 
L 616.525382 275.90181 
L 620.305762 255.164949 
L 624.086141 271.005804 
L 635.427281 258.909143 
L 639.20766 282.52612 
L 642.98804 259.389187 
L 646.76842 237.692385 
L 650.5488 222.715755 
L 661.889939 228.475839 
L 665.670319 207.738979 
L 669.450698 216.571489 
L 673.231078 206.010968 
L 677.011458 197.46663 
L 688.352597 174.425559 
L 692.132977 163.577159 
L 699.693737 234.524244 
L 703.474116 238.652326 
L 714.815256 256.413063 
L 718.595635 226.459949 
L 722.376015 205.338907 
L 726.156395 258.813134 
L 729.936775 278.109864 
L 741.277914 241.532441 
L 745.058294 222.139556 
L 748.838673 188.730275 
L 752.619053 143.896394 
L 756.399433 140.536235 
L 767.740572 141.592184 
L 771.520952 129.303652 
L 775.301332 132.574849 
L 779.081712 154.414196 
L 782.862091 119.682959 
L 794.203231 125.263064 
L 797.98361 103.423717 
L 801.76399 92.167353 
L 805.54437 88.8 
L 805.54437 88.8 
" style="fill:none;stroke:#000000;stroke-linecap:square;stroke-width:4;"/>
   </g>
   <g id="patch_3">
    <path d="M 75.175 361.2 
L 75.175 88.8 
" style="fill:none;stroke:#000000;stroke-linecap:square;stroke-linejoin:miter;stroke-width:0.8;"/>
   </g>
   <g id="patch_4">
    <path d="M 75.175 361.2 
L 840.323864 361.2 
" style="fill:none;stroke:#000000;stroke-linecap:square;stroke-linejoin:miter;stroke-width:0.8;"/>
   </g>
   <g id="text_7">
    <!-- V   8% -->
    <defs>
     <path d="M 0.484375 72.90625 
L 19.390625 72.90625 
L 38.71875 19.09375 
L 58.015625 72.90625 
L 76.90625 72.90625 
L 49.90625 0 
L 27.484375 0 
z
" id="DejaVuSans-Bold-86"/>
     <path id="DejaVuSans-Bold-32"/>
     <path d="M 34.8125 32.625 
Q 29.546875 32.625 26.703125 29.734375 
Q 23.875 26.859375 23.875 21.484375 
Q 23.875 16.109375 26.703125 13.25 
Q 29.546875 10.40625 34.8125 10.40625 
Q 40.046875 10.40625 42.828125 13.25 
Q 45.609375 16.109375 45.609375 21.484375 
Q 45.609375 26.90625 42.828125 29.765625 
Q 40.046875 32.625 34.8125 32.625 
z
M 21.09375 38.8125 
Q 14.453125 40.828125 11.078125 44.96875 
Q 7.71875 49.125 7.71875 55.328125 
Q 7.71875 64.546875 14.59375 69.375 
Q 21.484375 74.21875 34.8125 74.21875 
Q 48.046875 74.21875 54.921875 69.40625 
Q 61.8125 64.59375 61.8125 55.328125 
Q 61.8125 49.125 58.421875 44.96875 
Q 55.03125 40.828125 48.390625 38.8125 
Q 55.8125 36.765625 59.59375 32.15625 
Q 63.375 27.546875 63.375 20.515625 
Q 63.375 9.671875 56.171875 4.125 
Q 48.96875 -1.421875 34.8125 -1.421875 
Q 20.609375 -1.421875 13.359375 4.125 
Q 6.109375 9.671875 6.109375 20.515625 
Q 6.109375 27.546875 9.890625 32.15625 
Q 13.671875 36.765625 21.09375 38.8125 
z
M 25.484375 53.421875 
Q 25.484375 49.078125 27.90625 46.734375 
Q 30.328125 44.390625 34.8125 44.390625 
Q 39.203125 44.390625 41.59375 46.734375 
Q 44 49.078125 44 53.421875 
Q 44 57.765625 41.59375 60.078125 
Q 39.203125 62.40625 34.8125 62.40625 
Q 30.328125 62.40625 27.90625 60.0625 
Q 25.484375 57.71875 25.484375 53.421875 
z
" id="DejaVuSans-Bold-56"/>
     <path d="M 77.484375 30.078125 
Q 74.03125 30.078125 72.125 27.078125 
Q 70.21875 24.078125 70.21875 18.5 
Q 70.21875 12.890625 72.09375 9.890625 
Q 73.96875 6.890625 77.484375 6.890625 
Q 81 6.890625 82.859375 9.890625 
Q 84.71875 12.890625 84.71875 18.5 
Q 84.71875 24.078125 82.828125 27.078125 
Q 80.953125 30.078125 77.484375 30.078125 
z
M 77.484375 38.28125 
Q 86.578125 38.28125 91.796875 33 
Q 97.015625 27.734375 97.015625 18.5 
Q 97.015625 9.28125 91.796875 3.921875 
Q 86.578125 -1.421875 77.484375 -1.421875 
Q 68.40625 -1.421875 63.15625 3.921875 
Q 57.90625 9.28125 57.90625 18.5 
Q 57.90625 27.6875 63.15625 32.984375 
Q 68.40625 38.28125 77.484375 38.28125 
z
M 32.71875 -1.421875 
L 21.921875 -1.421875 
L 67.484375 74.21875 
L 78.328125 74.21875 
z
M 22.703125 74.21875 
Q 31.78125 74.21875 36.984375 68.921875 
Q 42.1875 63.625 42.1875 54.390625 
Q 42.1875 45.171875 36.984375 39.84375 
Q 31.78125 34.515625 22.703125 34.515625 
Q 13.625 34.515625 8.421875 39.84375 
Q 3.21875 45.171875 3.21875 54.390625 
Q 3.21875 63.625 8.421875 68.921875 
Q 13.625 74.21875 22.703125 74.21875 
z
M 22.703125 66.015625 
Q 19.1875 66.015625 17.28125 62.984375 
Q 15.375 59.96875 15.375 54.390625 
Q 15.375 48.78125 17.28125 45.71875 
Q 19.1875 42.671875 22.703125 42.671875 
Q 26.21875 42.671875 28.09375 45.71875 
Q 29.984375 48.78125 29.984375 54.390625 
Q 29.984375 59.96875 28.078125 62.984375 
Q 26.171875 66.015625 22.703125 66.015625 
z
" id="DejaVuSans-Bold-37"/>
    </defs>
    <g transform="translate(75.175 72.1625)scale(0.8 -0.8)">
     <use xlink:href="#DejaVuSans-Bold-86"/>
     <use x="77.392578" xlink:href="#DejaVuSans-Bold-32"/>
     <use x="112.207031" xlink:href="#DejaVuSans-Bold-32"/>
     <use x="147.021484" xlink:href="#DejaVuSans-Bold-32"/>
     <use x="181.835938" xlink:href="#DejaVuSans-Bold-56"/>
     <use x="251.416016" xlink:href="#DejaVuSans-Bold-37"/>
    </g>
   </g>
  </g>
 </g>
 <defs>
  <clipPath id="p9e82307bf1">
   <rect height="272.4" width="765.148864" x="75.175" y="88.8"/>
  </clipPath>
 </defs>
</svg>
