<?xml version="1.0" encoding="utf-8" standalone="no"?>
<!DOCTYPE svg PUBLIC "-//W3C//DTD SVG 1.1//EN"
  "http://www.w3.org/Graphics/SVG/1.1/DTD/svg11.dtd">
<!-- Created with matplotlib (https://matplotlib.org/) -->
<svg height="432pt" version="1.1" viewBox="0 0 864 432" width="864pt" xmlns="http://www.w3.org/2000/svg" xmlns:xlink="http://www.w3.org/1999/xlink">
 <defs>
  <style type="text/css">
*{stroke-linecap:butt;stroke-linejoin:round;}
  </style>
 </defs>
 <g id="figure_1">
  <g id="patch_1">
   <path d="M 0 432 
L 864 432 
L 864 0 
L 0 0 
z
" style="fill:none;"/>
  </g>
  <g id="axes_1">
   <g id="patch_2">
    <path d="M 56.05 385.2 
L 840.323864 385.2 
L 840.323864 88.8 
L 56.05 88.8 
z
" style="fill:none;"/>
   </g>
   <g id="PolyCollection_1">
    <path clip-path="url(#p3f429f08b9)" d="M 91.698812 589.48163 
L 91.698812 279.816608 
L 95.573683 271.268027 
L 99.448554 265.003991 
L 111.073166 248.127904 
L 114.948037 221.229337 
L 118.822908 227.346009 
L 122.697779 236.189375 
L 126.57265 212.164896 
L 142.072133 222.261058 
L 145.947004 235.452412 
L 149.821875 229.483161 
L 153.696746 227.935552 
L 165.321358 229.114665 
L 169.196229 224.840389 
L 173.0711 209.36449 
L 176.945971 194.994052 
L 180.820842 197.941822 
L 192.445455 184.676786 
L 196.320325 161.462953 
L 200.195196 173.180407 
L 204.070067 184.676786 
L 207.944938 198.384 
L 223.444421 209.511883 
L 227.319292 217.249846 
L 231.194163 206.41672 
L 235.069034 225.061464 
L 246.693647 215.112694 
L 250.568518 175.170166 
L 254.443388 189.835419 
L 258.318259 182.90813 
L 262.19313 179.812939 
L 273.817743 171.33804 
L 281.567485 125.278869 
L 285.442355 155.272627 
L 289.317226 120.488732 
L 300.941839 113.266629 
L 304.81671 112.824479 
L 308.691581 108.550175 
L 312.566451 93.737586 
L 316.441322 114.372061 
L 328.065935 97.495974 
L 331.940806 91.747798 
L 335.815677 88.8 
L 339.690548 121.962631 
L 343.565418 124.026073 
L 355.190031 129.405781 
L 359.064902 130.511212 
L 362.939773 124.541934 
L 366.814644 132.500972 
L 370.689514 116.803998 
L 382.314127 103.83372 
L 386.188998 123.36282 
L 390.063869 143.039284 
L 393.93874 154.756738 
L 397.813611 149.892891 
L 409.438223 155.051524 
L 413.313094 164.779219 
L 417.187965 172.738257 
L 421.062836 188.140445 
L 424.937707 188.36152 
L 436.562319 175.39127 
L 440.43719 188.36152 
L 444.312061 197.647064 
L 448.186932 264.488131 
L 452.061803 275.321229 
L 463.686415 261.687725 
L 467.561286 257.708206 
L 471.436157 236.041982 
L 475.311028 260.508612 
L 479.185899 255.718447 
L 490.810511 245.106424 
L 494.685382 231.693996 
L 498.560253 238.694995 
L 502.435124 237.073703 
L 506.309995 251.001992 
L 521.809478 254.539333 
L 525.684349 268.615015 
L 529.55922 272.078673 
L 533.434091 280.037683 
L 545.058704 277.163596 
L 548.933574 263.751167 
L 552.808445 263.677485 
L 556.683316 262.056193 
L 560.558187 267.657004 
L 572.1828 288.95476 
L 576.05767 287.554544 
L 579.932541 298.092884 
L 583.807412 324.696666 
L 587.682283 308.557542 
L 599.306896 289.912771 
L 603.181767 301.777618 
L 607.056637 312.758136 
L 610.931508 311.136845 
L 614.806379 308.704935 
L 626.430992 309.589263 
L 630.305863 340.246246 
L 634.180733 333.245247 
L 638.055604 347.763106 
L 641.930475 345.183776 
L 653.555088 358.596218 
L 657.429959 344.44684 
L 661.30483 341.130575 
L 665.1797 344.225765 
L 669.054571 349.752866 
L 680.679184 333.318957 
L 684.554055 327.275968 
L 688.428926 336.856298 
L 692.303796 338.91974 
L 696.178667 354.543017 
L 707.80328 359.627939 
L 711.678151 353.658675 
L 715.553022 364.123319 
L 719.427893 363.681155 
L 723.302763 377.977911 
L 734.927376 385.2 
L 738.802247 340.098854 
L 742.677118 345.257486 
L 746.551989 336.340438 
L 750.42686 332.876779 
L 762.051472 342.088613 
L 765.926343 341.42536 
L 769.801214 335.824577 
L 773.676085 356.974941 
L 777.550956 350.858269 
L 789.175568 351.595233 
L 793.050439 349.015902 
L 796.92531 321.601503 
L 800.800181 332.508311 
L 804.675052 323.775482 
L 804.675052 589.48163 
L 804.675052 589.48163 
L 800.800181 589.48163 
L 796.92531 589.48163 
L 793.050439 589.48163 
L 789.175568 589.48163 
L 777.550956 589.48163 
L 773.676085 589.48163 
L 769.801214 589.48163 
L 765.926343 589.48163 
L 762.051472 589.48163 
L 750.42686 589.48163 
L 746.551989 589.48163 
L 742.677118 589.48163 
L 738.802247 589.48163 
L 734.927376 589.48163 
L 723.302763 589.48163 
L 719.427893 589.48163 
L 715.553022 589.48163 
L 711.678151 589.48163 
L 707.80328 589.48163 
L 696.178667 589.48163 
L 692.303796 589.48163 
L 688.428926 589.48163 
L 684.554055 589.48163 
L 680.679184 589.48163 
L 669.054571 589.48163 
L 665.1797 589.48163 
L 661.30483 589.48163 
L 657.429959 589.48163 
L 653.555088 589.48163 
L 641.930475 589.48163 
L 638.055604 589.48163 
L 634.180733 589.48163 
L 630.305863 589.48163 
L 626.430992 589.48163 
L 614.806379 589.48163 
L 610.931508 589.48163 
L 607.056637 589.48163 
L 603.181767 589.48163 
L 599.306896 589.48163 
L 587.682283 589.48163 
L 583.807412 589.48163 
L 579.932541 589.48163 
L 576.05767 589.48163 
L 572.1828 589.48163 
L 560.558187 589.48163 
L 556.683316 589.48163 
L 552.808445 589.48163 
L 548.933574 589.48163 
L 545.058704 589.48163 
L 533.434091 589.48163 
L 529.55922 589.48163 
L 525.684349 589.48163 
L 521.809478 589.48163 
L 506.309995 589.48163 
L 502.435124 589.48163 
L 498.560253 589.48163 
L 494.685382 589.48163 
L 490.810511 589.48163 
L 479.185899 589.48163 
L 475.311028 589.48163 
L 471.436157 589.48163 
L 467.561286 589.48163 
L 463.686415 589.48163 
L 452.061803 589.48163 
L 448.186932 589.48163 
L 444.312061 589.48163 
L 440.43719 589.48163 
L 436.562319 589.48163 
L 424.937707 589.48163 
L 421.062836 589.48163 
L 417.187965 589.48163 
L 413.313094 589.48163 
L 409.438223 589.48163 
L 397.813611 589.48163 
L 393.93874 589.48163 
L 390.063869 589.48163 
L 386.188998 589.48163 
L 382.314127 589.48163 
L 370.689514 589.48163 
L 366.814644 589.48163 
L 362.939773 589.48163 
L 359.064902 589.48163 
L 355.190031 589.48163 
L 343.565418 589.48163 
L 339.690548 589.48163 
L 335.815677 589.48163 
L 331.940806 589.48163 
L 328.065935 589.48163 
L 316.441322 589.48163 
L 312.566451 589.48163 
L 308.691581 589.48163 
L 304.81671 589.48163 
L 300.941839 589.48163 
L 289.317226 589.48163 
L 285.442355 589.48163 
L 281.567485 589.48163 
L 273.817743 589.48163 
L 262.19313 589.48163 
L 258.318259 589.48163 
L 254.443388 589.48163 
L 250.568518 589.48163 
L 246.693647 589.48163 
L 235.069034 589.48163 
L 231.194163 589.48163 
L 227.319292 589.48163 
L 223.444421 589.48163 
L 207.944938 589.48163 
L 204.070067 589.48163 
L 200.195196 589.48163 
L 196.320325 589.48163 
L 192.445455 589.48163 
L 180.820842 589.48163 
L 176.945971 589.48163 
L 173.0711 589.48163 
L 169.196229 589.48163 
L 165.321358 589.48163 
L 153.696746 589.48163 
L 149.821875 589.48163 
L 145.947004 589.48163 
L 142.072133 589.48163 
L 126.57265 589.48163 
L 122.697779 589.48163 
L 118.822908 589.48163 
L 114.948037 589.48163 
L 111.073166 589.48163 
L 99.448554 589.48163 
L 95.573683 589.48163 
L 91.698812 589.48163 
z
" style="fill:#0000ff;fill-opacity:0.1;stroke:#0000ff;stroke-opacity:0.1;"/>
   </g>
   <g id="matplotlib.axis_1">
    <g id="xtick_1">
     <g id="line2d_1">
      <defs>
       <path d="M 0 0 
L 0 3.5 
" id="m4941e91606" style="stroke:#000000;stroke-width:0.8;"/>
      </defs>
      <g>
       <use style="stroke:#000000;stroke-width:0.8;" x="91.698812" xlink:href="#m4941e91606" y="385.2"/>
      </g>
     </g>
     <g id="text_1">
      <!-- 05/23 -->
      <defs>
       <path d="M 31.78125 66.40625 
Q 24.171875 66.40625 20.328125 58.90625 
Q 16.5 51.421875 16.5 36.375 
Q 16.5 21.390625 20.328125 13.890625 
Q 24.171875 6.390625 31.78125 6.390625 
Q 39.453125 6.390625 43.28125 13.890625 
Q 47.125 21.390625 47.125 36.375 
Q 47.125 51.421875 43.28125 58.90625 
Q 39.453125 66.40625 31.78125 66.40625 
z
M 31.78125 74.21875 
Q 44.046875 74.21875 50.515625 64.515625 
Q 56.984375 54.828125 56.984375 36.375 
Q 56.984375 17.96875 50.515625 8.265625 
Q 44.046875 -1.421875 31.78125 -1.421875 
Q 19.53125 -1.421875 13.0625 8.265625 
Q 6.59375 17.96875 6.59375 36.375 
Q 6.59375 54.828125 13.0625 64.515625 
Q 19.53125 74.21875 31.78125 74.21875 
z
" id="DejaVuSans-48"/>
       <path d="M 10.796875 72.90625 
L 49.515625 72.90625 
L 49.515625 64.59375 
L 19.828125 64.59375 
L 19.828125 46.734375 
Q 21.96875 47.46875 24.109375 47.828125 
Q 26.265625 48.1875 28.421875 48.1875 
Q 40.625 48.1875 47.75 41.5 
Q 54.890625 34.8125 54.890625 23.390625 
Q 54.890625 11.625 47.5625 5.09375 
Q 40.234375 -1.421875 26.90625 -1.421875 
Q 22.3125 -1.421875 17.546875 -0.640625 
Q 12.796875 0.140625 7.71875 1.703125 
L 7.71875 11.625 
Q 12.109375 9.234375 16.796875 8.0625 
Q 21.484375 6.890625 26.703125 6.890625 
Q 35.15625 6.890625 40.078125 11.328125 
Q 45.015625 15.765625 45.015625 23.390625 
Q 45.015625 31 40.078125 35.4375 
Q 35.15625 39.890625 26.703125 39.890625 
Q 22.75 39.890625 18.8125 39.015625 
Q 14.890625 38.140625 10.796875 36.28125 
z
" id="DejaVuSans-53"/>
       <path d="M 25.390625 72.90625 
L 33.6875 72.90625 
L 8.296875 -9.28125 
L 0 -9.28125 
z
" id="DejaVuSans-47"/>
       <path d="M 19.1875 8.296875 
L 53.609375 8.296875 
L 53.609375 0 
L 7.328125 0 
L 7.328125 8.296875 
Q 12.9375 14.109375 22.625 23.890625 
Q 32.328125 33.6875 34.8125 36.53125 
Q 39.546875 41.84375 41.421875 45.53125 
Q 43.3125 49.21875 43.3125 52.78125 
Q 43.3125 58.59375 39.234375 62.25 
Q 35.15625 65.921875 28.609375 65.921875 
Q 23.96875 65.921875 18.8125 64.3125 
Q 13.671875 62.703125 7.8125 59.421875 
L 7.8125 69.390625 
Q 13.765625 71.78125 18.9375 73 
Q 24.125 74.21875 28.421875 74.21875 
Q 39.75 74.21875 46.484375 68.546875 
Q 53.21875 62.890625 53.21875 53.421875 
Q 53.21875 48.921875 51.53125 44.890625 
Q 49.859375 40.875 45.40625 35.40625 
Q 44.1875 33.984375 37.640625 27.21875 
Q 31.109375 20.453125 19.1875 8.296875 
z
" id="DejaVuSans-50"/>
       <path d="M 40.578125 39.3125 
Q 47.65625 37.796875 51.625 33 
Q 55.609375 28.21875 55.609375 21.1875 
Q 55.609375 10.40625 48.1875 4.484375 
Q 40.765625 -1.421875 27.09375 -1.421875 
Q 22.515625 -1.421875 17.65625 -0.515625 
Q 12.796875 0.390625 7.625 2.203125 
L 7.625 11.71875 
Q 11.71875 9.328125 16.59375 8.109375 
Q 21.484375 6.890625 26.8125 6.890625 
Q 36.078125 6.890625 40.9375 10.546875 
Q 45.796875 14.203125 45.796875 21.1875 
Q 45.796875 27.640625 41.28125 31.265625 
Q 36.765625 34.90625 28.71875 34.90625 
L 20.21875 34.90625 
L 20.21875 43.015625 
L 29.109375 43.015625 
Q 36.375 43.015625 40.234375 45.921875 
Q 44.09375 48.828125 44.09375 54.296875 
Q 44.09375 59.90625 40.109375 62.90625 
Q 36.140625 65.921875 28.71875 65.921875 
Q 24.65625 65.921875 20.015625 65.03125 
Q 15.375 64.15625 9.8125 62.3125 
L 9.8125 71.09375 
Q 15.4375 72.65625 20.34375 73.4375 
Q 25.25 74.21875 29.59375 74.21875 
Q 40.828125 74.21875 47.359375 69.109375 
Q 53.90625 64.015625 53.90625 55.328125 
Q 53.90625 49.265625 50.4375 45.09375 
Q 46.96875 40.921875 40.578125 39.3125 
z
" id="DejaVuSans-51"/>
      </defs>
      <g transform="translate(48.470687 414.995312)scale(0.3 -0.3)">
       <use xlink:href="#DejaVuSans-48"/>
       <use x="63.623047" xlink:href="#DejaVuSans-53"/>
       <use x="127.246094" xlink:href="#DejaVuSans-47"/>
       <use x="160.9375" xlink:href="#DejaVuSans-50"/>
       <use x="224.560547" xlink:href="#DejaVuSans-51"/>
      </g>
     </g>
    </g>
    <g id="xtick_2">
     <g id="line2d_2">
      <g>
       <use style="stroke:#000000;stroke-width:0.8;" x="452.061803" xlink:href="#m4941e91606" y="385.2"/>
      </g>
     </g>
     <g id="text_2">
      <!-- 08/23 -->
      <defs>
       <path d="M 31.78125 34.625 
Q 24.75 34.625 20.71875 30.859375 
Q 16.703125 27.09375 16.703125 20.515625 
Q 16.703125 13.921875 20.71875 10.15625 
Q 24.75 6.390625 31.78125 6.390625 
Q 38.8125 6.390625 42.859375 10.171875 
Q 46.921875 13.96875 46.921875 20.515625 
Q 46.921875 27.09375 42.890625 30.859375 
Q 38.875 34.625 31.78125 34.625 
z
M 21.921875 38.8125 
Q 15.578125 40.375 12.03125 44.71875 
Q 8.5 49.078125 8.5 55.328125 
Q 8.5 64.0625 14.71875 69.140625 
Q 20.953125 74.21875 31.78125 74.21875 
Q 42.671875 74.21875 48.875 69.140625 
Q 55.078125 64.0625 55.078125 55.328125 
Q 55.078125 49.078125 51.53125 44.71875 
Q 48 40.375 41.703125 38.8125 
Q 48.828125 37.15625 52.796875 32.3125 
Q 56.78125 27.484375 56.78125 20.515625 
Q 56.78125 9.90625 50.3125 4.234375 
Q 43.84375 -1.421875 31.78125 -1.421875 
Q 19.734375 -1.421875 13.25 4.234375 
Q 6.78125 9.90625 6.78125 20.515625 
Q 6.78125 27.484375 10.78125 32.3125 
Q 14.796875 37.15625 21.921875 38.8125 
z
M 18.3125 54.390625 
Q 18.3125 48.734375 21.84375 45.5625 
Q 25.390625 42.390625 31.78125 42.390625 
Q 38.140625 42.390625 41.71875 45.5625 
Q 45.3125 48.734375 45.3125 54.390625 
Q 45.3125 60.0625 41.71875 63.234375 
Q 38.140625 66.40625 31.78125 66.40625 
Q 25.390625 66.40625 21.84375 63.234375 
Q 18.3125 60.0625 18.3125 54.390625 
z
" id="DejaVuSans-56"/>
      </defs>
      <g transform="translate(408.833678 414.995312)scale(0.3 -0.3)">
       <use xlink:href="#DejaVuSans-48"/>
       <use x="63.623047" xlink:href="#DejaVuSans-56"/>
       <use x="127.246094" xlink:href="#DejaVuSans-47"/>
       <use x="160.9375" xlink:href="#DejaVuSans-50"/>
       <use x="224.560547" xlink:href="#DejaVuSans-51"/>
      </g>
     </g>
    </g>
    <g id="xtick_3">
     <g id="line2d_3">
      <g>
       <use style="stroke:#000000;stroke-width:0.8;" x="804.675052" xlink:href="#m4941e91606" y="385.2"/>
      </g>
     </g>
     <g id="text_3">
      <!-- 11/23 -->
      <defs>
       <path d="M 12.40625 8.296875 
L 28.515625 8.296875 
L 28.515625 63.921875 
L 10.984375 60.40625 
L 10.984375 69.390625 
L 28.421875 72.90625 
L 38.28125 72.90625 
L 38.28125 8.296875 
L 54.390625 8.296875 
L 54.390625 0 
L 12.40625 0 
z
" id="DejaVuSans-49"/>
      </defs>
      <g transform="translate(761.446927 414.995312)scale(0.3 -0.3)">
       <use xlink:href="#DejaVuSans-49"/>
       <use x="63.623047" xlink:href="#DejaVuSans-49"/>
       <use x="127.246094" xlink:href="#DejaVuSans-47"/>
       <use x="160.9375" xlink:href="#DejaVuSans-50"/>
       <use x="224.560547" xlink:href="#DejaVuSans-51"/>
      </g>
     </g>
    </g>
   </g>
   <g id="matplotlib.axis_2">
    <g id="ytick_1">
     <g id="line2d_4">
      <defs>
       <path d="M 0 0 
L -3.5 0 
" id="m94cb6afe6d" style="stroke:#000000;stroke-width:0.8;"/>
      </defs>
      <g>
       <use style="stroke:#000000;stroke-width:0.8;" x="56.05" xlink:href="#m94cb6afe6d" y="368.397609"/>
      </g>
     </g>
     <g id="text_4">
      <!-- 30 -->
      <g transform="translate(10.875 379.795266)scale(0.3 -0.3)">
       <use xlink:href="#DejaVuSans-51"/>
       <use x="63.623047" xlink:href="#DejaVuSans-48"/>
      </g>
     </g>
    </g>
    <g id="ytick_2">
     <g id="line2d_5">
      <g>
       <use style="stroke:#000000;stroke-width:0.8;" x="56.05" xlink:href="#m94cb6afe6d" y="257.855599"/>
      </g>
     </g>
     <g id="text_5">
      <!-- 45 -->
      <defs>
       <path d="M 37.796875 64.3125 
L 12.890625 25.390625 
L 37.796875 25.390625 
z
M 35.203125 72.90625 
L 47.609375 72.90625 
L 47.609375 25.390625 
L 58.015625 25.390625 
L 58.015625 17.1875 
L 47.609375 17.1875 
L 47.609375 0 
L 37.796875 0 
L 37.796875 17.1875 
L 4.890625 17.1875 
L 4.890625 26.703125 
z
" id="DejaVuSans-52"/>
      </defs>
      <g transform="translate(10.875 269.253255)scale(0.3 -0.3)">
       <use xlink:href="#DejaVuSans-52"/>
       <use x="63.623047" xlink:href="#DejaVuSans-53"/>
      </g>
     </g>
    </g>
    <g id="ytick_3">
     <g id="line2d_6">
      <g>
       <use style="stroke:#000000;stroke-width:0.8;" x="56.05" xlink:href="#m94cb6afe6d" y="147.313589"/>
      </g>
     </g>
     <g id="text_6">
      <!-- 60 -->
      <defs>
       <path d="M 33.015625 40.375 
Q 26.375 40.375 22.484375 35.828125 
Q 18.609375 31.296875 18.609375 23.390625 
Q 18.609375 15.53125 22.484375 10.953125 
Q 26.375 6.390625 33.015625 6.390625 
Q 39.65625 6.390625 43.53125 10.953125 
Q 47.40625 15.53125 47.40625 23.390625 
Q 47.40625 31.296875 43.53125 35.828125 
Q 39.65625 40.375 33.015625 40.375 
z
M 52.59375 71.296875 
L 52.59375 62.3125 
Q 48.875 64.0625 45.09375 64.984375 
Q 41.3125 65.921875 37.59375 65.921875 
Q 27.828125 65.921875 22.671875 59.328125 
Q 17.53125 52.734375 16.796875 39.40625 
Q 19.671875 43.65625 24.015625 45.921875 
Q 28.375 48.1875 33.59375 48.1875 
Q 44.578125 48.1875 50.953125 41.515625 
Q 57.328125 34.859375 57.328125 23.390625 
Q 57.328125 12.15625 50.6875 5.359375 
Q 44.046875 -1.421875 33.015625 -1.421875 
Q 20.359375 -1.421875 13.671875 8.265625 
Q 6.984375 17.96875 6.984375 36.375 
Q 6.984375 53.65625 15.1875 63.9375 
Q 23.390625 74.21875 37.203125 74.21875 
Q 40.921875 74.21875 44.703125 73.484375 
Q 48.484375 72.75 52.59375 71.296875 
z
" id="DejaVuSans-54"/>
      </defs>
      <g transform="translate(10.875 158.711245)scale(0.3 -0.3)">
       <use xlink:href="#DejaVuSans-54"/>
       <use x="63.623047" xlink:href="#DejaVuSans-48"/>
      </g>
     </g>
    </g>
   </g>
   <g id="line2d_7">
    <path clip-path="url(#p3f429f08b9)" d="M 91.698812 279.816608 
L 95.573683 271.268027 
L 99.448554 265.003991 
L 111.073166 248.127904 
L 114.948037 221.229337 
L 118.822908 227.346009 
L 122.697779 236.189375 
L 126.57265 212.164896 
L 142.072133 222.261058 
L 145.947004 235.452412 
L 149.821875 229.483161 
L 153.696746 227.935552 
L 165.321358 229.114665 
L 169.196229 224.840389 
L 173.0711 209.36449 
L 176.945971 194.994052 
L 180.820842 197.941822 
L 192.445455 184.676786 
L 196.320325 161.462953 
L 204.070067 184.676786 
L 207.944938 198.384 
L 223.444421 209.511883 
L 227.319292 217.249846 
L 231.194163 206.41672 
L 235.069034 225.061464 
L 246.693647 215.112694 
L 250.568518 175.170166 
L 254.443388 189.835419 
L 258.318259 182.90813 
L 262.19313 179.812939 
L 273.817743 171.33804 
L 281.567485 125.278869 
L 285.442355 155.272627 
L 289.317226 120.488732 
L 300.941839 113.266629 
L 304.81671 112.824479 
L 308.691581 108.550175 
L 312.566451 93.737586 
L 316.441322 114.372061 
L 331.940806 91.747798 
L 335.815677 88.8 
L 339.690548 121.962631 
L 343.565418 124.026073 
L 355.190031 129.405781 
L 359.064902 130.511212 
L 362.939773 124.541934 
L 366.814644 132.500972 
L 370.689514 116.803998 
L 382.314127 103.83372 
L 390.063869 143.039284 
L 393.93874 154.756738 
L 397.813611 149.892891 
L 409.438223 155.051524 
L 413.313094 164.779219 
L 417.187965 172.738257 
L 421.062836 188.140445 
L 424.937707 188.36152 
L 436.562319 175.39127 
L 440.43719 188.36152 
L 444.312061 197.647064 
L 448.186932 264.488131 
L 452.061803 275.321229 
L 463.686415 261.687725 
L 467.561286 257.708206 
L 471.436157 236.041982 
L 475.311028 260.508612 
L 479.185899 255.718447 
L 490.810511 245.106424 
L 494.685382 231.693996 
L 498.560253 238.694995 
L 502.435124 237.073703 
L 506.309995 251.001992 
L 521.809478 254.539333 
L 525.684349 268.615015 
L 529.55922 272.078673 
L 533.434091 280.037683 
L 545.058704 277.163596 
L 548.933574 263.751167 
L 552.808445 263.677485 
L 556.683316 262.056193 
L 560.558187 267.657004 
L 572.1828 288.95476 
L 576.05767 287.554544 
L 579.932541 298.092884 
L 583.807412 324.696666 
L 587.682283 308.557542 
L 599.306896 289.912771 
L 603.181767 301.777618 
L 607.056637 312.758136 
L 610.931508 311.136845 
L 614.806379 308.704935 
L 626.430992 309.589263 
L 630.305863 340.246246 
L 634.180733 333.245247 
L 638.055604 347.763106 
L 641.930475 345.183776 
L 653.555088 358.596218 
L 657.429959 344.44684 
L 661.30483 341.130575 
L 665.1797 344.225765 
L 669.054571 349.752866 
L 680.679184 333.318957 
L 684.554055 327.275968 
L 688.428926 336.856298 
L 692.303796 338.91974 
L 696.178667 354.543017 
L 707.80328 359.627939 
L 711.678151 353.658675 
L 715.553022 364.123319 
L 719.427893 363.681155 
L 723.302763 377.977911 
L 734.927376 385.2 
L 738.802247 340.098854 
L 742.677118 345.257486 
L 746.551989 336.340438 
L 750.42686 332.876779 
L 762.051472 342.088613 
L 765.926343 341.42536 
L 769.801214 335.824577 
L 773.676085 356.974941 
L 777.550956 350.858269 
L 789.175568 351.595233 
L 793.050439 349.015902 
L 796.92531 321.601503 
L 800.800181 332.508311 
L 804.675052 323.775482 
L 804.675052 323.775482 
" style="fill:none;stroke:#000000;stroke-linecap:square;stroke-width:4;"/>
   </g>
   <g id="patch_3">
    <path d="M 56.05 385.2 
L 56.05 88.8 
" style="fill:none;stroke:#000000;stroke-linecap:square;stroke-linejoin:miter;stroke-width:0.8;"/>
   </g>
   <g id="patch_4">
    <path d="M 56.05 385.2 
L 840.323864 385.2 
" style="fill:none;stroke:#000000;stroke-linecap:square;stroke-linejoin:miter;stroke-width:0.8;"/>
   </g>
   <g id="text_7">
    <!-- WOLF   -14% -->
    <defs>
     <path d="M 2.984375 72.90625 
L 21 72.90625 
L 33.59375 19.921875 
L 46.09375 72.90625 
L 64.203125 72.90625 
L 76.703125 19.921875 
L 89.3125 72.90625 
L 107.171875 72.90625 
L 89.984375 0 
L 68.3125 0 
L 55.078125 55.421875 
L 42 0 
L 20.3125 0 
z
" id="DejaVuSans-Bold-87"/>
     <path d="M 42.484375 60.59375 
Q 33.890625 60.59375 29.15625 54.25 
Q 24.421875 47.90625 24.421875 36.375 
Q 24.421875 24.90625 29.15625 18.546875 
Q 33.890625 12.203125 42.484375 12.203125 
Q 51.125 12.203125 55.859375 18.546875 
Q 60.59375 24.90625 60.59375 36.375 
Q 60.59375 47.90625 55.859375 54.25 
Q 51.125 60.59375 42.484375 60.59375 
z
M 42.484375 74.21875 
Q 60.0625 74.21875 70.015625 64.15625 
Q 79.984375 54.109375 79.984375 36.375 
Q 79.984375 18.703125 70.015625 8.640625 
Q 60.0625 -1.421875 42.484375 -1.421875 
Q 24.953125 -1.421875 14.96875 8.640625 
Q 4.984375 18.703125 4.984375 36.375 
Q 4.984375 54.109375 14.96875 64.15625 
Q 24.953125 74.21875 42.484375 74.21875 
z
" id="DejaVuSans-Bold-79"/>
     <path d="M 9.1875 72.90625 
L 27.984375 72.90625 
L 27.984375 14.203125 
L 60.984375 14.203125 
L 60.984375 0 
L 9.1875 0 
z
" id="DejaVuSans-Bold-76"/>
     <path d="M 9.1875 72.90625 
L 59.90625 72.90625 
L 59.90625 58.6875 
L 27.984375 58.6875 
L 27.984375 45.125 
L 58.015625 45.125 
L 58.015625 30.90625 
L 27.984375 30.90625 
L 27.984375 0 
L 9.1875 0 
z
" id="DejaVuSans-Bold-70"/>
     <path id="DejaVuSans-Bold-32"/>
     <path d="M 5.421875 35.890625 
L 36.078125 35.890625 
L 36.078125 21.6875 
L 5.421875 21.6875 
z
" id="DejaVuSans-Bold-45"/>
     <path d="M 11.71875 12.984375 
L 28.328125 12.984375 
L 28.328125 60.109375 
L 11.28125 56.59375 
L 11.28125 69.390625 
L 28.21875 72.90625 
L 46.09375 72.90625 
L 46.09375 12.984375 
L 62.703125 12.984375 
L 62.703125 0 
L 11.71875 0 
z
" id="DejaVuSans-Bold-49"/>
     <path d="M 36.8125 57.421875 
L 16.21875 26.90625 
L 36.8125 26.90625 
z
M 33.6875 72.90625 
L 54.59375 72.90625 
L 54.59375 26.90625 
L 64.984375 26.90625 
L 64.984375 13.28125 
L 54.59375 13.28125 
L 54.59375 0 
L 36.8125 0 
L 36.8125 13.28125 
L 4.5 13.28125 
L 4.5 29.390625 
z
" id="DejaVuSans-Bold-52"/>
     <path d="M 77.484375 30.078125 
Q 74.03125 30.078125 72.125 27.078125 
Q 70.21875 24.078125 70.21875 18.5 
Q 70.21875 12.890625 72.09375 9.890625 
Q 73.96875 6.890625 77.484375 6.890625 
Q 81 6.890625 82.859375 9.890625 
Q 84.71875 12.890625 84.71875 18.5 
Q 84.71875 24.078125 82.828125 27.078125 
Q 80.953125 30.078125 77.484375 30.078125 
z
M 77.484375 38.28125 
Q 86.578125 38.28125 91.796875 33 
Q 97.015625 27.734375 97.015625 18.5 
Q 97.015625 9.28125 91.796875 3.921875 
Q 86.578125 -1.421875 77.484375 -1.421875 
Q 68.40625 -1.421875 63.15625 3.921875 
Q 57.90625 9.28125 57.90625 18.5 
Q 57.90625 27.6875 63.15625 32.984375 
Q 68.40625 38.28125 77.484375 38.28125 
z
M 32.71875 -1.421875 
L 21.921875 -1.421875 
L 67.484375 74.21875 
L 78.328125 74.21875 
z
M 22.703125 74.21875 
Q 31.78125 74.21875 36.984375 68.921875 
Q 42.1875 63.625 42.1875 54.390625 
Q 42.1875 45.171875 36.984375 39.84375 
Q 31.78125 34.515625 22.703125 34.515625 
Q 13.625 34.515625 8.421875 39.84375 
Q 3.21875 45.171875 3.21875 54.390625 
Q 3.21875 63.625 8.421875 68.921875 
Q 13.625 74.21875 22.703125 74.21875 
z
M 22.703125 66.015625 
Q 19.1875 66.015625 17.28125 62.984375 
Q 15.375 59.96875 15.375 54.390625 
Q 15.375 48.78125 17.28125 45.71875 
Q 19.1875 42.671875 22.703125 42.671875 
Q 26.21875 42.671875 28.09375 45.71875 
Q 29.984375 48.78125 29.984375 54.390625 
Q 29.984375 59.96875 28.078125 62.984375 
Q 26.171875 66.015625 22.703125 66.015625 
z
" id="DejaVuSans-Bold-37"/>
    </defs>
    <g transform="translate(56.05 72.1625)scale(0.8 -0.8)">
     <use xlink:href="#DejaVuSans-Bold-87"/>
     <use x="110.302734" xlink:href="#DejaVuSans-Bold-79"/>
     <use x="195.3125" xlink:href="#DejaVuSans-Bold-76"/>
     <use x="259.033203" xlink:href="#DejaVuSans-Bold-70"/>
     <use x="327.34375" xlink:href="#DejaVuSans-Bold-32"/>
     <use x="362.158203" xlink:href="#DejaVuSans-Bold-32"/>
     <use x="396.972656" xlink:href="#DejaVuSans-Bold-32"/>
     <use x="431.787109" xlink:href="#DejaVuSans-Bold-45"/>
     <use x="473.291016" xlink:href="#DejaVuSans-Bold-49"/>
     <use x="542.871094" xlink:href="#DejaVuSans-Bold-52"/>
     <use x="612.451172" xlink:href="#DejaVuSans-Bold-37"/>
    </g>
   </g>
  </g>
 </g>
 <defs>
  <clipPath id="p3f429f08b9">
   <rect height="296.4" width="784.273864" x="56.05" y="88.8"/>
  </clipPath>
 </defs>
</svg>
