<?xml version="1.0" encoding="utf-8" standalone="no"?>
<!DOCTYPE svg PUBLIC "-//W3C//DTD SVG 1.1//EN"
  "http://www.w3.org/Graphics/SVG/1.1/DTD/svg11.dtd">
<!-- Created with matplotlib (https://matplotlib.org/) -->
<svg height="432pt" version="1.1" viewBox="0 0 864 432" width="864pt" xmlns="http://www.w3.org/2000/svg" xmlns:xlink="http://www.w3.org/1999/xlink">
 <defs>
  <style type="text/css">
*{stroke-linecap:butt;stroke-linejoin:round;}
  </style>
 </defs>
 <g id="figure_1">
  <g id="patch_1">
   <path d="M 0 432 
L 864 432 
L 864 0 
L 0 0 
z
" style="fill:none;"/>
  </g>
  <g id="axes_1">
   <g id="patch_2">
    <path d="M 56.05 385.2 
L 840.323864 385.2 
L 840.323864 88.8 
L 56.05 88.8 
z
" style="fill:none;"/>
   </g>
   <g id="PolyCollection_1">
    <path clip-path="url(#p635b9daf1d)" d="M 91.698812 953.550801 
L 91.698812 260.380623 
L 95.573683 261.750145 
L 99.448554 257.054705 
L 111.073166 239.348804 
L 114.948037 239.83794 
L 118.822908 240.327002 
L 122.697779 233.088142 
L 126.57265 220.860329 
L 138.197262 223.501561 
L 142.072133 219.979943 
L 145.947004 221.54509 
L 149.821875 214.990991 
L 153.696746 203.937076 
L 165.321358 209.512977 
L 169.196229 212.643271 
L 173.0711 205.208786 
L 176.945971 230.251285 
L 180.820842 211.273749 
L 196.320325 172.82954 
L 200.195196 187.600697 
L 204.070067 179.383639 
L 207.944938 170.188308 
L 219.569551 165.492868 
L 223.444421 163.438584 
L 227.319292 169.992683 
L 231.194163 201.295844 
L 235.069034 202.274042 
L 246.693647 197.578602 
L 250.568518 204.426138 
L 254.443388 193.861285 
L 258.318259 177.329356 
L 262.19313 172.82954 
L 273.817743 195.81783 
L 277.692614 192.980974 
L 281.567485 202.861066 
L 285.442355 195.524393 
L 289.317226 212.545459 
L 300.941839 211.469373 
L 304.81671 202.176305 
L 308.691581 213.034595 
L 312.566451 198.654687 
L 316.441322 180.557537 
L 328.065935 167.253639 
L 331.940806 162.166874 
L 335.815677 156.004025 
L 339.690548 151.602021 
L 343.565418 170.481745 
L 355.190031 155.710588 
L 359.064902 148.862977 
L 362.939773 129.298492 
L 366.814644 115.212096 
L 370.689514 111.103529 
L 382.314127 114.331635 
L 386.188998 106.994963 
L 390.063869 106.799338 
L 393.93874 118.440202 
L 397.813611 102.495147 
L 409.438223 97.017133 
L 413.313094 95.745348 
L 417.187965 88.8 
L 421.062836 97.604007 
L 424.937707 110.027444 
L 436.562319 107.190662 
L 440.43719 96.527997 
L 444.312061 127.92897 
L 448.186932 131.352775 
L 452.061803 132.037536 
L 463.686415 129.689816 
L 467.561286 106.505901 
L 471.436157 272.706323 
L 475.311028 217.436599 
L 479.185899 252.652627 
L 490.810511 264.391377 
L 494.685382 266.836985 
L 498.560253 260.380623 
L 502.435124 273.684521 
L 506.309995 268.793381 
L 517.934607 268.793381 
L 521.809478 267.815183 
L 525.684349 271.434538 
L 529.55922 273.684521 
L 533.434091 281.186779 
L 545.058704 283.145641 
L 548.933574 287.55295 
L 552.808445 294.212932 
L 556.683316 291.176789 
L 560.558187 276.093887 
L 572.1828 292.841766 
L 576.05767 288.238533 
L 579.932541 287.55295 
L 583.807412 294.212932 
L 587.682283 298.816164 
L 599.306896 288.140571 
L 603.181767 299.599709 
L 607.056637 309.883454 
L 610.931508 317.131057 
L 614.806379 316.445474 
L 626.430992 321.048707 
L 630.305863 339.853371 
L 634.180733 344.65249 
L 638.055604 344.162756 
L 641.930475 341.322499 
L 653.555088 344.750414 
L 657.429959 332.213996 
L 661.30483 318.893996 
L 665.1797 321.73429 
L 669.054571 332.116034 
L 680.679184 346.317466 
L 684.554055 340.049257 
L 688.428926 339.951296 
L 692.303796 349.941268 
L 696.178667 365.905639 
L 707.80328 365.905639 
L 711.678151 365.709752 
L 715.553022 366.395335 
L 719.427893 377.658549 
L 723.302763 377.854435 
L 734.927376 375.797649 
L 738.802247 383.926758 
L 742.677118 385.2 
L 746.551989 366.101525 
L 750.42686 365.415942 
L 762.051472 359.833316 
L 765.926343 344.260717 
L 769.801214 330.255171 
L 773.676085 346.905125 
L 777.550956 344.162756 
L 789.175568 345.82777 
L 793.050439 335.543987 
L 796.92531 299.012013 
L 800.800181 298.62024 
L 804.675052 294.898515 
L 804.675052 953.550801 
L 804.675052 953.550801 
L 800.800181 953.550801 
L 796.92531 953.550801 
L 793.050439 953.550801 
L 789.175568 953.550801 
L 777.550956 953.550801 
L 773.676085 953.550801 
L 769.801214 953.550801 
L 765.926343 953.550801 
L 762.051472 953.550801 
L 750.42686 953.550801 
L 746.551989 953.550801 
L 742.677118 953.550801 
L 738.802247 953.550801 
L 734.927376 953.550801 
L 723.302763 953.550801 
L 719.427893 953.550801 
L 715.553022 953.550801 
L 711.678151 953.550801 
L 707.80328 953.550801 
L 696.178667 953.550801 
L 692.303796 953.550801 
L 688.428926 953.550801 
L 684.554055 953.550801 
L 680.679184 953.550801 
L 669.054571 953.550801 
L 665.1797 953.550801 
L 661.30483 953.550801 
L 657.429959 953.550801 
L 653.555088 953.550801 
L 641.930475 953.550801 
L 638.055604 953.550801 
L 634.180733 953.550801 
L 630.305863 953.550801 
L 626.430992 953.550801 
L 614.806379 953.550801 
L 610.931508 953.550801 
L 607.056637 953.550801 
L 603.181767 953.550801 
L 599.306896 953.550801 
L 587.682283 953.550801 
L 583.807412 953.550801 
L 579.932541 953.550801 
L 576.05767 953.550801 
L 572.1828 953.550801 
L 560.558187 953.550801 
L 556.683316 953.550801 
L 552.808445 953.550801 
L 548.933574 953.550801 
L 545.058704 953.550801 
L 533.434091 953.550801 
L 529.55922 953.550801 
L 525.684349 953.550801 
L 521.809478 953.550801 
L 517.934607 953.550801 
L 506.309995 953.550801 
L 502.435124 953.550801 
L 498.560253 953.550801 
L 494.685382 953.550801 
L 490.810511 953.550801 
L 479.185899 953.550801 
L 475.311028 953.550801 
L 471.436157 953.550801 
L 467.561286 953.550801 
L 463.686415 953.550801 
L 452.061803 953.550801 
L 448.186932 953.550801 
L 444.312061 953.550801 
L 440.43719 953.550801 
L 436.562319 953.550801 
L 424.937707 953.550801 
L 421.062836 953.550801 
L 417.187965 953.550801 
L 413.313094 953.550801 
L 409.438223 953.550801 
L 397.813611 953.550801 
L 393.93874 953.550801 
L 390.063869 953.550801 
L 386.188998 953.550801 
L 382.314127 953.550801 
L 370.689514 953.550801 
L 366.814644 953.550801 
L 362.939773 953.550801 
L 359.064902 953.550801 
L 355.190031 953.550801 
L 343.565418 953.550801 
L 339.690548 953.550801 
L 335.815677 953.550801 
L 331.940806 953.550801 
L 328.065935 953.550801 
L 316.441322 953.550801 
L 312.566451 953.550801 
L 308.691581 953.550801 
L 304.81671 953.550801 
L 300.941839 953.550801 
L 289.317226 953.550801 
L 285.442355 953.550801 
L 281.567485 953.550801 
L 277.692614 953.550801 
L 273.817743 953.550801 
L 262.19313 953.550801 
L 258.318259 953.550801 
L 254.443388 953.550801 
L 250.568518 953.550801 
L 246.693647 953.550801 
L 235.069034 953.550801 
L 231.194163 953.550801 
L 227.319292 953.550801 
L 223.444421 953.550801 
L 219.569551 953.550801 
L 207.944938 953.550801 
L 204.070067 953.550801 
L 200.195196 953.550801 
L 196.320325 953.550801 
L 180.820842 953.550801 
L 176.945971 953.550801 
L 173.0711 953.550801 
L 169.196229 953.550801 
L 165.321358 953.550801 
L 153.696746 953.550801 
L 149.821875 953.550801 
L 145.947004 953.550801 
L 142.072133 953.550801 
L 138.197262 953.550801 
L 126.57265 953.550801 
L 122.697779 953.550801 
L 118.822908 953.550801 
L 114.948037 953.550801 
L 111.073166 953.550801 
L 99.448554 953.550801 
L 95.573683 953.550801 
L 91.698812 953.550801 
z
" style="fill:#0000ff;fill-opacity:0.1;stroke:#0000ff;stroke-opacity:0.1;"/>
   </g>
   <g id="matplotlib.axis_1">
    <g id="xtick_1">
     <g id="line2d_1">
      <defs>
       <path d="M 0 0 
L 0 3.5 
" id="m9bab47ab0e" style="stroke:#000000;stroke-width:0.8;"/>
      </defs>
      <g>
       <use style="stroke:#000000;stroke-width:0.8;" x="91.698812" xlink:href="#m9bab47ab0e" y="385.2"/>
      </g>
     </g>
     <g id="text_1">
      <!-- 05/23 -->
      <defs>
       <path d="M 31.78125 66.40625 
Q 24.171875 66.40625 20.328125 58.90625 
Q 16.5 51.421875 16.5 36.375 
Q 16.5 21.390625 20.328125 13.890625 
Q 24.171875 6.390625 31.78125 6.390625 
Q 39.453125 6.390625 43.28125 13.890625 
Q 47.125 21.390625 47.125 36.375 
Q 47.125 51.421875 43.28125 58.90625 
Q 39.453125 66.40625 31.78125 66.40625 
z
M 31.78125 74.21875 
Q 44.046875 74.21875 50.515625 64.515625 
Q 56.984375 54.828125 56.984375 36.375 
Q 56.984375 17.96875 50.515625 8.265625 
Q 44.046875 -1.421875 31.78125 -1.421875 
Q 19.53125 -1.421875 13.0625 8.265625 
Q 6.59375 17.96875 6.59375 36.375 
Q 6.59375 54.828125 13.0625 64.515625 
Q 19.53125 74.21875 31.78125 74.21875 
z
" id="DejaVuSans-48"/>
       <path d="M 10.796875 72.90625 
L 49.515625 72.90625 
L 49.515625 64.59375 
L 19.828125 64.59375 
L 19.828125 46.734375 
Q 21.96875 47.46875 24.109375 47.828125 
Q 26.265625 48.1875 28.421875 48.1875 
Q 40.625 48.1875 47.75 41.5 
Q 54.890625 34.8125 54.890625 23.390625 
Q 54.890625 11.625 47.5625 5.09375 
Q 40.234375 -1.421875 26.90625 -1.421875 
Q 22.3125 -1.421875 17.546875 -0.640625 
Q 12.796875 0.140625 7.71875 1.703125 
L 7.71875 11.625 
Q 12.109375 9.234375 16.796875 8.0625 
Q 21.484375 6.890625 26.703125 6.890625 
Q 35.15625 6.890625 40.078125 11.328125 
Q 45.015625 15.765625 45.015625 23.390625 
Q 45.015625 31 40.078125 35.4375 
Q 35.15625 39.890625 26.703125 39.890625 
Q 22.75 39.890625 18.8125 39.015625 
Q 14.890625 38.140625 10.796875 36.28125 
z
" id="DejaVuSans-53"/>
       <path d="M 25.390625 72.90625 
L 33.6875 72.90625 
L 8.296875 -9.28125 
L 0 -9.28125 
z
" id="DejaVuSans-47"/>
       <path d="M 19.1875 8.296875 
L 53.609375 8.296875 
L 53.609375 0 
L 7.328125 0 
L 7.328125 8.296875 
Q 12.9375 14.109375 22.625 23.890625 
Q 32.328125 33.6875 34.8125 36.53125 
Q 39.546875 41.84375 41.421875 45.53125 
Q 43.3125 49.21875 43.3125 52.78125 
Q 43.3125 58.59375 39.234375 62.25 
Q 35.15625 65.921875 28.609375 65.921875 
Q 23.96875 65.921875 18.8125 64.3125 
Q 13.671875 62.703125 7.8125 59.421875 
L 7.8125 69.390625 
Q 13.765625 71.78125 18.9375 73 
Q 24.125 74.21875 28.421875 74.21875 
Q 39.75 74.21875 46.484375 68.546875 
Q 53.21875 62.890625 53.21875 53.421875 
Q 53.21875 48.921875 51.53125 44.890625 
Q 49.859375 40.875 45.40625 35.40625 
Q 44.1875 33.984375 37.640625 27.21875 
Q 31.109375 20.453125 19.1875 8.296875 
z
" id="DejaVuSans-50"/>
       <path d="M 40.578125 39.3125 
Q 47.65625 37.796875 51.625 33 
Q 55.609375 28.21875 55.609375 21.1875 
Q 55.609375 10.40625 48.1875 4.484375 
Q 40.765625 -1.421875 27.09375 -1.421875 
Q 22.515625 -1.421875 17.65625 -0.515625 
Q 12.796875 0.390625 7.625 2.203125 
L 7.625 11.71875 
Q 11.71875 9.328125 16.59375 8.109375 
Q 21.484375 6.890625 26.8125 6.890625 
Q 36.078125 6.890625 40.9375 10.546875 
Q 45.796875 14.203125 45.796875 21.1875 
Q 45.796875 27.640625 41.28125 31.265625 
Q 36.765625 34.90625 28.71875 34.90625 
L 20.21875 34.90625 
L 20.21875 43.015625 
L 29.109375 43.015625 
Q 36.375 43.015625 40.234375 45.921875 
Q 44.09375 48.828125 44.09375 54.296875 
Q 44.09375 59.90625 40.109375 62.90625 
Q 36.140625 65.921875 28.71875 65.921875 
Q 24.65625 65.921875 20.015625 65.03125 
Q 15.375 64.15625 9.8125 62.3125 
L 9.8125 71.09375 
Q 15.4375 72.65625 20.34375 73.4375 
Q 25.25 74.21875 29.59375 74.21875 
Q 40.828125 74.21875 47.359375 69.109375 
Q 53.90625 64.015625 53.90625 55.328125 
Q 53.90625 49.265625 50.4375 45.09375 
Q 46.96875 40.921875 40.578125 39.3125 
z
" id="DejaVuSans-51"/>
      </defs>
      <g transform="translate(48.470687 414.995312)scale(0.3 -0.3)">
       <use xlink:href="#DejaVuSans-48"/>
       <use x="63.623047" xlink:href="#DejaVuSans-53"/>
       <use x="127.246094" xlink:href="#DejaVuSans-47"/>
       <use x="160.9375" xlink:href="#DejaVuSans-50"/>
       <use x="224.560547" xlink:href="#DejaVuSans-51"/>
      </g>
     </g>
    </g>
    <g id="xtick_2">
     <g id="line2d_2">
      <g>
       <use style="stroke:#000000;stroke-width:0.8;" x="452.061803" xlink:href="#m9bab47ab0e" y="385.2"/>
      </g>
     </g>
     <g id="text_2">
      <!-- 08/23 -->
      <defs>
       <path d="M 31.78125 34.625 
Q 24.75 34.625 20.71875 30.859375 
Q 16.703125 27.09375 16.703125 20.515625 
Q 16.703125 13.921875 20.71875 10.15625 
Q 24.75 6.390625 31.78125 6.390625 
Q 38.8125 6.390625 42.859375 10.171875 
Q 46.921875 13.96875 46.921875 20.515625 
Q 46.921875 27.09375 42.890625 30.859375 
Q 38.875 34.625 31.78125 34.625 
z
M 21.921875 38.8125 
Q 15.578125 40.375 12.03125 44.71875 
Q 8.5 49.078125 8.5 55.328125 
Q 8.5 64.0625 14.71875 69.140625 
Q 20.953125 74.21875 31.78125 74.21875 
Q 42.671875 74.21875 48.875 69.140625 
Q 55.078125 64.0625 55.078125 55.328125 
Q 55.078125 49.078125 51.53125 44.71875 
Q 48 40.375 41.703125 38.8125 
Q 48.828125 37.15625 52.796875 32.3125 
Q 56.78125 27.484375 56.78125 20.515625 
Q 56.78125 9.90625 50.3125 4.234375 
Q 43.84375 -1.421875 31.78125 -1.421875 
Q 19.734375 -1.421875 13.25 4.234375 
Q 6.78125 9.90625 6.78125 20.515625 
Q 6.78125 27.484375 10.78125 32.3125 
Q 14.796875 37.15625 21.921875 38.8125 
z
M 18.3125 54.390625 
Q 18.3125 48.734375 21.84375 45.5625 
Q 25.390625 42.390625 31.78125 42.390625 
Q 38.140625 42.390625 41.71875 45.5625 
Q 45.3125 48.734375 45.3125 54.390625 
Q 45.3125 60.0625 41.71875 63.234375 
Q 38.140625 66.40625 31.78125 66.40625 
Q 25.390625 66.40625 21.84375 63.234375 
Q 18.3125 60.0625 18.3125 54.390625 
z
" id="DejaVuSans-56"/>
      </defs>
      <g transform="translate(408.833678 414.995312)scale(0.3 -0.3)">
       <use xlink:href="#DejaVuSans-48"/>
       <use x="63.623047" xlink:href="#DejaVuSans-56"/>
       <use x="127.246094" xlink:href="#DejaVuSans-47"/>
       <use x="160.9375" xlink:href="#DejaVuSans-50"/>
       <use x="224.560547" xlink:href="#DejaVuSans-51"/>
      </g>
     </g>
    </g>
    <g id="xtick_3">
     <g id="line2d_3">
      <g>
       <use style="stroke:#000000;stroke-width:0.8;" x="804.675052" xlink:href="#m9bab47ab0e" y="385.2"/>
      </g>
     </g>
     <g id="text_3">
      <!-- 11/23 -->
      <defs>
       <path d="M 12.40625 8.296875 
L 28.515625 8.296875 
L 28.515625 63.921875 
L 10.984375 60.40625 
L 10.984375 69.390625 
L 28.421875 72.90625 
L 38.28125 72.90625 
L 38.28125 8.296875 
L 54.390625 8.296875 
L 54.390625 0 
L 12.40625 0 
z
" id="DejaVuSans-49"/>
      </defs>
      <g transform="translate(761.446927 414.995312)scale(0.3 -0.3)">
       <use xlink:href="#DejaVuSans-49"/>
       <use x="63.623047" xlink:href="#DejaVuSans-49"/>
       <use x="127.246094" xlink:href="#DejaVuSans-47"/>
       <use x="160.9375" xlink:href="#DejaVuSans-50"/>
       <use x="224.560547" xlink:href="#DejaVuSans-51"/>
      </g>
     </g>
    </g>
   </g>
   <g id="matplotlib.axis_2">
    <g id="ytick_1">
     <g id="line2d_4">
      <defs>
       <path d="M 0 0 
L -3.5 0 
" id="mcc1bf2fcbf" style="stroke:#000000;stroke-width:0.8;"/>
      </defs>
      <g>
       <use style="stroke:#000000;stroke-width:0.8;" x="56.05" xlink:href="#mcc1bf2fcbf" y="365.905639"/>
      </g>
     </g>
     <g id="text_4">
      <!-- 60 -->
      <defs>
       <path d="M 33.015625 40.375 
Q 26.375 40.375 22.484375 35.828125 
Q 18.609375 31.296875 18.609375 23.390625 
Q 18.609375 15.53125 22.484375 10.953125 
Q 26.375 6.390625 33.015625 6.390625 
Q 39.65625 6.390625 43.53125 10.953125 
Q 47.40625 15.53125 47.40625 23.390625 
Q 47.40625 31.296875 43.53125 35.828125 
Q 39.65625 40.375 33.015625 40.375 
z
M 52.59375 71.296875 
L 52.59375 62.3125 
Q 48.875 64.0625 45.09375 64.984375 
Q 41.3125 65.921875 37.59375 65.921875 
Q 27.828125 65.921875 22.671875 59.328125 
Q 17.53125 52.734375 16.796875 39.40625 
Q 19.671875 43.65625 24.015625 45.921875 
Q 28.375 48.1875 33.59375 48.1875 
Q 44.578125 48.1875 50.953125 41.515625 
Q 57.328125 34.859375 57.328125 23.390625 
Q 57.328125 12.15625 50.6875 5.359375 
Q 44.046875 -1.421875 33.015625 -1.421875 
Q 20.359375 -1.421875 13.671875 8.265625 
Q 6.984375 17.96875 6.984375 36.375 
Q 6.984375 53.65625 15.1875 63.9375 
Q 23.390625 74.21875 37.203125 74.21875 
Q 40.921875 74.21875 44.703125 73.484375 
Q 48.484375 72.75 52.59375 71.296875 
z
" id="DejaVuSans-54"/>
      </defs>
      <g transform="translate(10.875 377.303295)scale(0.3 -0.3)">
       <use xlink:href="#DejaVuSans-54"/>
       <use x="63.623047" xlink:href="#DejaVuSans-48"/>
      </g>
     </g>
    </g>
    <g id="ytick_2">
     <g id="line2d_5">
      <g>
       <use style="stroke:#000000;stroke-width:0.8;" x="56.05" xlink:href="#mcc1bf2fcbf" y="218.994348"/>
      </g>
     </g>
     <g id="text_5">
      <!-- 75 -->
      <defs>
       <path d="M 8.203125 72.90625 
L 55.078125 72.90625 
L 55.078125 68.703125 
L 28.609375 0 
L 18.3125 0 
L 43.21875 64.59375 
L 8.203125 64.59375 
z
" id="DejaVuSans-55"/>
      </defs>
      <g transform="translate(10.875 230.392004)scale(0.3 -0.3)">
       <use xlink:href="#DejaVuSans-55"/>
       <use x="63.623047" xlink:href="#DejaVuSans-53"/>
      </g>
     </g>
    </g>
   </g>
   <g id="line2d_6">
    <path clip-path="url(#p635b9daf1d)" d="M 91.698812 260.380623 
L 95.573683 261.750145 
L 99.448554 257.054705 
L 111.073166 239.348804 
L 118.822908 240.327002 
L 122.697779 233.088142 
L 126.57265 220.860329 
L 138.197262 223.501561 
L 142.072133 219.979943 
L 145.947004 221.54509 
L 149.821875 214.990991 
L 153.696746 203.937076 
L 165.321358 209.512977 
L 169.196229 212.643271 
L 173.0711 205.208786 
L 176.945971 230.251285 
L 180.820842 211.273749 
L 196.320325 172.82954 
L 200.195196 187.600697 
L 204.070067 179.383639 
L 207.944938 170.188308 
L 219.569551 165.492868 
L 223.444421 163.438584 
L 227.319292 169.992683 
L 231.194163 201.295844 
L 235.069034 202.274042 
L 246.693647 197.578602 
L 250.568518 204.426138 
L 254.443388 193.861285 
L 258.318259 177.329356 
L 262.19313 172.82954 
L 273.817743 195.81783 
L 277.692614 192.980974 
L 281.567485 202.861066 
L 285.442355 195.524393 
L 289.317226 212.545459 
L 300.941839 211.469373 
L 304.81671 202.176305 
L 308.691581 213.034595 
L 312.566451 198.654687 
L 316.441322 180.557537 
L 328.065935 167.253639 
L 331.940806 162.166874 
L 335.815677 156.004025 
L 339.690548 151.602021 
L 343.565418 170.481745 
L 355.190031 155.710588 
L 359.064902 148.862977 
L 362.939773 129.298492 
L 366.814644 115.212096 
L 370.689514 111.103529 
L 382.314127 114.331635 
L 386.188998 106.994963 
L 390.063869 106.799338 
L 393.93874 118.440202 
L 397.813611 102.495147 
L 409.438223 97.017133 
L 413.313094 95.745348 
L 417.187965 88.8 
L 421.062836 97.604007 
L 424.937707 110.027444 
L 436.562319 107.190662 
L 440.43719 96.527997 
L 444.312061 127.92897 
L 448.186932 131.352775 
L 452.061803 132.037536 
L 463.686415 129.689816 
L 467.561286 106.505901 
L 471.436157 272.706323 
L 475.311028 217.436599 
L 479.185899 252.652627 
L 490.810511 264.391377 
L 494.685382 266.836985 
L 498.560253 260.380623 
L 502.435124 273.684521 
L 506.309995 268.793381 
L 517.934607 268.793381 
L 521.809478 267.815183 
L 525.684349 271.434538 
L 529.55922 273.684521 
L 533.434091 281.186779 
L 545.058704 283.145641 
L 548.933574 287.55295 
L 552.808445 294.212932 
L 556.683316 291.176789 
L 560.558187 276.093887 
L 572.1828 292.841766 
L 576.05767 288.238533 
L 579.932541 287.55295 
L 583.807412 294.212932 
L 587.682283 298.816164 
L 599.306896 288.140571 
L 603.181767 299.599709 
L 607.056637 309.883454 
L 610.931508 317.131057 
L 614.806379 316.445474 
L 626.430992 321.048707 
L 630.305863 339.853371 
L 634.180733 344.65249 
L 638.055604 344.162756 
L 641.930475 341.322499 
L 653.555088 344.750414 
L 657.429959 332.213996 
L 661.30483 318.893996 
L 665.1797 321.73429 
L 669.054571 332.116034 
L 680.679184 346.317466 
L 684.554055 340.049257 
L 688.428926 339.951296 
L 692.303796 349.941268 
L 696.178667 365.905639 
L 707.80328 365.905639 
L 711.678151 365.709752 
L 715.553022 366.395335 
L 719.427893 377.658549 
L 723.302763 377.854435 
L 734.927376 375.797649 
L 738.802247 383.926758 
L 742.677118 385.2 
L 746.551989 366.101525 
L 750.42686 365.415942 
L 762.051472 359.833316 
L 765.926343 344.260717 
L 769.801214 330.255171 
L 773.676085 346.905125 
L 777.550956 344.162756 
L 789.175568 345.82777 
L 793.050439 335.543987 
L 796.92531 299.012013 
L 800.800181 298.62024 
L 804.675052 294.898515 
L 804.675052 294.898515 
" style="fill:none;stroke:#000000;stroke-linecap:square;stroke-width:4;"/>
   </g>
   <g id="patch_3">
    <path d="M 56.05 385.2 
L 56.05 88.8 
" style="fill:none;stroke:#000000;stroke-linecap:square;stroke-linejoin:miter;stroke-width:0.8;"/>
   </g>
   <g id="patch_4">
    <path d="M 56.05 385.2 
L 840.323864 385.2 
" style="fill:none;stroke:#000000;stroke-linecap:square;stroke-linejoin:miter;stroke-width:0.8;"/>
   </g>
   <g id="text_6">
    <!-- WTC   -4% -->
    <defs>
     <path d="M 2.984375 72.90625 
L 21 72.90625 
L 33.59375 19.921875 
L 46.09375 72.90625 
L 64.203125 72.90625 
L 76.703125 19.921875 
L 89.3125 72.90625 
L 107.171875 72.90625 
L 89.984375 0 
L 68.3125 0 
L 55.078125 55.421875 
L 42 0 
L 20.3125 0 
z
" id="DejaVuSans-Bold-87"/>
     <path d="M 0.484375 72.90625 
L 67.671875 72.90625 
L 67.671875 58.6875 
L 43.5 58.6875 
L 43.5 0 
L 24.703125 0 
L 24.703125 58.6875 
L 0.484375 58.6875 
z
" id="DejaVuSans-Bold-84"/>
     <path d="M 67 4 
Q 61.8125 1.3125 56.203125 -0.046875 
Q 50.59375 -1.421875 44.484375 -1.421875 
Q 26.265625 -1.421875 15.625 8.765625 
Q 4.984375 18.953125 4.984375 36.375 
Q 4.984375 53.859375 15.625 64.03125 
Q 26.265625 74.21875 44.484375 74.21875 
Q 50.59375 74.21875 56.203125 72.84375 
Q 61.8125 71.484375 67 68.796875 
L 67 53.71875 
Q 61.765625 57.28125 56.6875 58.9375 
Q 51.609375 60.59375 46 60.59375 
Q 35.9375 60.59375 30.171875 54.140625 
Q 24.421875 47.703125 24.421875 36.375 
Q 24.421875 25.09375 30.171875 18.640625 
Q 35.9375 12.203125 46 12.203125 
Q 51.609375 12.203125 56.6875 13.859375 
Q 61.765625 15.53125 67 19.09375 
z
" id="DejaVuSans-Bold-67"/>
     <path id="DejaVuSans-Bold-32"/>
     <path d="M 5.421875 35.890625 
L 36.078125 35.890625 
L 36.078125 21.6875 
L 5.421875 21.6875 
z
" id="DejaVuSans-Bold-45"/>
     <path d="M 36.8125 57.421875 
L 16.21875 26.90625 
L 36.8125 26.90625 
z
M 33.6875 72.90625 
L 54.59375 72.90625 
L 54.59375 26.90625 
L 64.984375 26.90625 
L 64.984375 13.28125 
L 54.59375 13.28125 
L 54.59375 0 
L 36.8125 0 
L 36.8125 13.28125 
L 4.5 13.28125 
L 4.5 29.390625 
z
" id="DejaVuSans-Bold-52"/>
     <path d="M 77.484375 30.078125 
Q 74.03125 30.078125 72.125 27.078125 
Q 70.21875 24.078125 70.21875 18.5 
Q 70.21875 12.890625 72.09375 9.890625 
Q 73.96875 6.890625 77.484375 6.890625 
Q 81 6.890625 82.859375 9.890625 
Q 84.71875 12.890625 84.71875 18.5 
Q 84.71875 24.078125 82.828125 27.078125 
Q 80.953125 30.078125 77.484375 30.078125 
z
M 77.484375 38.28125 
Q 86.578125 38.28125 91.796875 33 
Q 97.015625 27.734375 97.015625 18.5 
Q 97.015625 9.28125 91.796875 3.921875 
Q 86.578125 -1.421875 77.484375 -1.421875 
Q 68.40625 -1.421875 63.15625 3.921875 
Q 57.90625 9.28125 57.90625 18.5 
Q 57.90625 27.6875 63.15625 32.984375 
Q 68.40625 38.28125 77.484375 38.28125 
z
M 32.71875 -1.421875 
L 21.921875 -1.421875 
L 67.484375 74.21875 
L 78.328125 74.21875 
z
M 22.703125 74.21875 
Q 31.78125 74.21875 36.984375 68.921875 
Q 42.1875 63.625 42.1875 54.390625 
Q 42.1875 45.171875 36.984375 39.84375 
Q 31.78125 34.515625 22.703125 34.515625 
Q 13.625 34.515625 8.421875 39.84375 
Q 3.21875 45.171875 3.21875 54.390625 
Q 3.21875 63.625 8.421875 68.921875 
Q 13.625 74.21875 22.703125 74.21875 
z
M 22.703125 66.015625 
Q 19.1875 66.015625 17.28125 62.984375 
Q 15.375 59.96875 15.375 54.390625 
Q 15.375 48.78125 17.28125 45.71875 
Q 19.1875 42.671875 22.703125 42.671875 
Q 26.21875 42.671875 28.09375 45.71875 
Q 29.984375 48.78125 29.984375 54.390625 
Q 29.984375 59.96875 28.078125 62.984375 
Q 26.171875 66.015625 22.703125 66.015625 
z
" id="DejaVuSans-Bold-37"/>
    </defs>
    <g transform="translate(56.05 72.1625)scale(0.8 -0.8)">
     <use xlink:href="#DejaVuSans-Bold-87"/>
     <use x="110.302734" xlink:href="#DejaVuSans-Bold-84"/>
     <use x="178.515625" xlink:href="#DejaVuSans-Bold-67"/>
     <use x="251.904297" xlink:href="#DejaVuSans-Bold-32"/>
     <use x="286.71875" xlink:href="#DejaVuSans-Bold-32"/>
     <use x="321.533203" xlink:href="#DejaVuSans-Bold-32"/>
     <use x="356.347656" xlink:href="#DejaVuSans-Bold-45"/>
     <use x="397.851562" xlink:href="#DejaVuSans-Bold-52"/>
     <use x="467.431641" xlink:href="#DejaVuSans-Bold-37"/>
    </g>
   </g>
  </g>
 </g>
 <defs>
  <clipPath id="p635b9daf1d">
   <rect height="296.4" width="784.273864" x="56.05" y="88.8"/>
  </clipPath>
 </defs>
</svg>
