<?xml version="1.0" encoding="utf-8" standalone="no"?>
<!DOCTYPE svg PUBLIC "-//W3C//DTD SVG 1.1//EN"
  "http://www.w3.org/Graphics/SVG/1.1/DTD/svg11.dtd">
<!-- Created with matplotlib (https://matplotlib.org/) -->
<svg height="432pt" version="1.1" viewBox="0 0 576 432" width="576pt" xmlns="http://www.w3.org/2000/svg" xmlns:xlink="http://www.w3.org/1999/xlink">
 <defs>
  <style type="text/css">
*{stroke-linecap:butt;stroke-linejoin:round;}
  </style>
 </defs>
 <g id="figure_1">
  <g id="patch_1">
   <path d="M 0 432 
L 576 432 
L 576 0 
L 0 0 
z
" style="fill:#ffffff;"/>
  </g>
  <g id="axes_1">
   <g id="patch_2">
    <path d="M 36.925 404.2 
L 565.2 404.2 
L 565.2 31.8 
L 36.925 31.8 
z
" style="fill:#ffffff;"/>
   </g>
   <g id="PolyCollection_1">
    <defs>
     <path d="M 60.9375 -44.727273 
L 60.9375 -241.919349 
L 62.253253 -244.048574 
L 66.200514 -239.843366 
L 67.516267 -236.915697 
L 68.832021 -238.00693 
L 70.147774 -217.034132 
L 71.463527 -231.273265 
L 75.410788 -224.033945 
L 76.726541 -229.543293 
L 78.042295 -226.16315 
L 79.358048 -229.303745 
L 80.673801 -228.159291 
L 84.621062 -221.292562 
L 85.936815 -225.045316 
L 87.252568 -225.950223 
L 88.568322 -227.201141 
L 89.884075 -228.505301 
L 93.831336 -227.866522 
L 95.147089 -229.702978 
L 96.462842 -232.73711 
L 97.778596 -244.314722 
L 99.094349 -244.740575 
L 103.04161 -243.755805 
L 104.357363 -235.877705 
L 105.673116 -227.839921 
L 106.98887 -229.569893 
L 108.304623 -231.060359 
L 112.251884 -232.710489 
L 113.567637 -238.965079 
L 114.88339 -244.740575 
L 116.199144 -246.523789 
L 117.514897 -240.402283 
L 121.462158 -239.550597 
L 122.777911 -227.307605 
L 124.093664 -231.725739 
L 125.409418 -234.759871 
L 126.725171 -231.166822 
L 133.303938 -229.223903 
L 134.619692 -227.733458 
L 135.935445 -231.75234 
L 141.198459 -231.326507 
L 142.514212 -238.086773 
L 143.829966 -239.018301 
L 145.145719 -235.345409 
L 149.092979 -236.383401 
L 150.408733 -235.398631 
L 151.724486 -229.144061 
L 153.04024 -232.710489 
L 154.355993 -233.881565 
L 158.303253 -242.504887 
L 159.619007 -238.00693 
L 160.93476 -242.824277 
L 162.250514 -240.721673 
L 163.566267 -238.592448 
L 167.513527 -241.28059 
L 168.829281 -247.827929 
L 170.145034 -242.132275 
L 172.776541 -245.193029 
L 176.723801 -251.47422 
L 178.039555 -249.132088 
L 179.355308 -249.291773 
L 180.671062 -264.568898 
L 181.986815 -262.945368 
L 185.934075 -259.858015 
L 187.249829 -259.831394 
L 188.565582 -261.854155 
L 189.881336 -256.690798 
L 191.197089 -252.325905 
L 195.144349 -249.344995 
L 196.460103 -253.763129 
L 197.775856 -255.360038 
L 199.09161 -264.063223 
L 200.407363 -251.687146 
L 204.354623 -249.424857 
L 205.670377 -250.542691 
L 206.98613 -250.382986 
L 208.301884 -248.120698 
L 209.617637 -251.341135 
L 213.564897 -246.390705 
L 214.880651 -251.527441 
L 216.196404 -250.888682 
L 217.512158 -244.953501 
L 218.827911 -245.991493 
L 222.775171 -253.576824 
L 224.090925 -256.531113 
L 225.406678 -253.976056 
L 226.722432 -276.279594 
L 228.038185 -275.560992 
L 231.985445 -274.656064 
L 233.301199 -271.2227 
L 234.616952 -280.192033 
L 235.932705 -280.112191 
L 237.248459 -282.853554 
L 241.195719 -282.560785 
L 242.511473 -281.496172 
L 243.827226 -283.359249 
L 245.142979 -281.336488 
L 246.458733 -278.14265 
L 250.405993 -281.549414 
L 251.721747 -274.762528 
L 253.0375 -276.652205 
L 254.353253 -280.990477 
L 255.669007 -282.72047 
L 259.616267 -286.260297 
L 260.932021 -290.518727 
L 262.247774 -293.526258 
L 263.563527 -287.00552 
L 270.142295 -286.792593 
L 271.458048 -288.283059 
L 272.773801 -288.256438 
L 274.089555 -288.65567 
L 278.036815 -291.210728 
L 279.352568 -288.123354 
L 280.668322 -289.587199 
L 281.984075 -289.587199 
L 283.299829 -289.241208 
L 287.247089 -290.571969 
L 289.878596 -293.765786 
L 291.194349 -292.062414 
L 292.510103 -293.153627 
L 296.457363 -290.838117 
L 297.773116 -289.986431 
L 299.08887 -286.845835 
L 300.404623 -291.263949 
L 301.720377 -289.800125 
L 305.667637 -292.568109 
L 306.98339 -289.773504 
L 308.299144 -290.225958 
L 309.614897 -292.674573 
L 310.930651 -294.484387 
L 314.877911 -295.628842 
L 316.193664 -290.62519 
L 317.509418 -295.176388 
L 318.825171 -317.506547 
L 320.140925 -332.171533 
L 324.088185 -336.163815 
L 325.403938 -338.63903 
L 326.719692 -334.167674 
L 328.035445 -340.901319 
L 329.351199 -339.27779 
L 333.298459 -336.775974 
L 334.614212 -337.255048 
L 335.929966 -337.361491 
L 337.245719 -342.89746 
L 338.561473 -342.471627 
L 342.508733 -336.98888 
L 343.824486 -340.874698 
L 345.14024 -343.110386 
L 346.455993 -327.407409 
L 347.771747 -335.045981 
L 353.03476 -347.129288 
L 354.350514 -341.061004 
L 355.666267 -347.581742 
L 356.982021 -355.379999 
L 360.929281 -359.34566 
L 362.245034 -363.790395 
L 363.560788 -360.223967 
L 364.876541 -346.357445 
L 366.192295 -341.061004 
L 370.139555 -345.984834 
L 371.455308 -345.53236 
L 372.771062 -349.977115 
L 374.086815 -356.870444 
L 375.402568 -361.261958 
L 379.349829 -358.414132 
L 380.665582 -356.524454 
L 381.981336 -357.243056 
L 383.297089 -357.562446 
L 384.612842 -351.334476 
L 388.560103 -354.208924 
L 389.875856 -361.448264 
L 391.19161 -360.436893 
L 392.507363 -368.820668 
L 393.823116 -374.063867 
L 397.770377 -375.847102 
L 399.08613 -377.76338 
L 400.401884 -382.208135 
L 401.717637 -383.272727 
L 403.03339 -369.965123 
L 406.980651 -366.026083 
L 408.296404 -362.246728 
L 409.612158 -364.375933 
L 410.927911 -371.18944 
L 412.243664 -369.778817 
L 416.190925 -369.991744 
L 417.506678 -374.436479 
L 418.822432 -374.037267 
L 420.138185 -365.094555 
L 421.453938 -369.965123 
L 425.401199 -366.23901 
L 426.716952 -367.010833 
L 428.032705 -369.53929 
L 429.348459 -357.455982 
L 430.664212 -356.737381 
L 434.611473 -355.779231 
L 435.927226 -361.900717 
L 437.242979 -353.543543 
L 438.558733 -348.087438 
L 439.874486 -348.912503 
L 443.821747 -350.722338 
L 445.1375 -361.128874 
L 446.453253 -360.33043 
L 447.769007 -371.428967 
L 449.08476 -360.569957 
L 453.032021 -363.045172 
L 454.347774 -366.26561 
L 455.663527 -371.562051 
L 456.979281 -377.683537 
L 458.295034 -374.383257 
L 462.242295 -374.250173 
L 463.558048 -375.47447 
L 464.873801 -370.044985 
L 466.189555 -369.592511 
L 467.505308 -370.896671 
L 471.452568 -366.797927 
L 472.768322 -368.820668 
L 474.084075 -362.619339 
L 475.399829 -364.109785 
L 476.715582 -372.866191 
L 480.662842 -359.319039 
L 481.978596 -357.855215 
L 483.294349 -349.15203 
L 484.610103 -351.680487 
L 485.925856 -350.003716 
L 489.873116 -356.125222 
L 491.18887 -348.140659 
L 492.504623 -344.148378 
L 493.820377 -342.817617 
L 495.13613 -343.962072 
L 499.08339 -345.346054 
L 500.399144 -341.806247 
L 501.714897 -339.384253 
L 503.030651 -347.288973 
L 504.346404 -345.399296 
L 508.293664 -344.680674 
L 509.609418 -357.801973 
L 510.925171 -363.417784 
L 512.240925 -366.585 
L 513.556678 -358.839964 
L 517.503938 -348.140659 
L 518.819692 -354.129081 
L 520.135445 -347.927733 
L 521.451199 -340.369023 
L 522.766952 -336.296899 
L 526.714212 -331.905385 
L 528.029966 -333.182904 
L 529.345719 -333.36921 
L 530.661473 -327.646956 
L 531.977226 -322.909432 
L 535.924486 -329.030938 
L 537.24024 -328.684948 
L 538.555993 -329.669697 
L 539.871747 -339.490716 
L 541.1875 -343.589461 
L 541.1875 -44.727273 
L 541.1875 -44.727273 
L 539.871747 -44.727273 
L 538.555993 -44.727273 
L 537.24024 -44.727273 
L 535.924486 -44.727273 
L 531.977226 -44.727273 
L 530.661473 -44.727273 
L 529.345719 -44.727273 
L 528.029966 -44.727273 
L 526.714212 -44.727273 
L 522.766952 -44.727273 
L 521.451199 -44.727273 
L 520.135445 -44.727273 
L 518.819692 -44.727273 
L 517.503938 -44.727273 
L 513.556678 -44.727273 
L 512.240925 -44.727273 
L 510.925171 -44.727273 
L 509.609418 -44.727273 
L 508.293664 -44.727273 
L 504.346404 -44.727273 
L 503.030651 -44.727273 
L 501.714897 -44.727273 
L 500.399144 -44.727273 
L 499.08339 -44.727273 
L 495.13613 -44.727273 
L 493.820377 -44.727273 
L 492.504623 -44.727273 
L 491.18887 -44.727273 
L 489.873116 -44.727273 
L 485.925856 -44.727273 
L 484.610103 -44.727273 
L 483.294349 -44.727273 
L 481.978596 -44.727273 
L 480.662842 -44.727273 
L 476.715582 -44.727273 
L 475.399829 -44.727273 
L 474.084075 -44.727273 
L 472.768322 -44.727273 
L 471.452568 -44.727273 
L 467.505308 -44.727273 
L 466.189555 -44.727273 
L 464.873801 -44.727273 
L 463.558048 -44.727273 
L 462.242295 -44.727273 
L 458.295034 -44.727273 
L 456.979281 -44.727273 
L 455.663527 -44.727273 
L 454.347774 -44.727273 
L 453.032021 -44.727273 
L 449.08476 -44.727273 
L 447.769007 -44.727273 
L 446.453253 -44.727273 
L 445.1375 -44.727273 
L 443.821747 -44.727273 
L 439.874486 -44.727273 
L 438.558733 -44.727273 
L 437.242979 -44.727273 
L 435.927226 -44.727273 
L 434.611473 -44.727273 
L 430.664212 -44.727273 
L 429.348459 -44.727273 
L 428.032705 -44.727273 
L 426.716952 -44.727273 
L 425.401199 -44.727273 
L 421.453938 -44.727273 
L 420.138185 -44.727273 
L 418.822432 -44.727273 
L 417.506678 -44.727273 
L 416.190925 -44.727273 
L 412.243664 -44.727273 
L 410.927911 -44.727273 
L 409.612158 -44.727273 
L 408.296404 -44.727273 
L 406.980651 -44.727273 
L 403.03339 -44.727273 
L 401.717637 -44.727273 
L 400.401884 -44.727273 
L 399.08613 -44.727273 
L 397.770377 -44.727273 
L 393.823116 -44.727273 
L 392.507363 -44.727273 
L 391.19161 -44.727273 
L 389.875856 -44.727273 
L 388.560103 -44.727273 
L 384.612842 -44.727273 
L 383.297089 -44.727273 
L 381.981336 -44.727273 
L 380.665582 -44.727273 
L 379.349829 -44.727273 
L 375.402568 -44.727273 
L 374.086815 -44.727273 
L 372.771062 -44.727273 
L 371.455308 -44.727273 
L 370.139555 -44.727273 
L 366.192295 -44.727273 
L 364.876541 -44.727273 
L 363.560788 -44.727273 
L 362.245034 -44.727273 
L 360.929281 -44.727273 
L 356.982021 -44.727273 
L 355.666267 -44.727273 
L 354.350514 -44.727273 
L 353.03476 -44.727273 
L 347.771747 -44.727273 
L 346.455993 -44.727273 
L 345.14024 -44.727273 
L 343.824486 -44.727273 
L 342.508733 -44.727273 
L 338.561473 -44.727273 
L 337.245719 -44.727273 
L 335.929966 -44.727273 
L 334.614212 -44.727273 
L 333.298459 -44.727273 
L 329.351199 -44.727273 
L 328.035445 -44.727273 
L 326.719692 -44.727273 
L 325.403938 -44.727273 
L 324.088185 -44.727273 
L 320.140925 -44.727273 
L 318.825171 -44.727273 
L 317.509418 -44.727273 
L 316.193664 -44.727273 
L 314.877911 -44.727273 
L 310.930651 -44.727273 
L 309.614897 -44.727273 
L 308.299144 -44.727273 
L 306.98339 -44.727273 
L 305.667637 -44.727273 
L 301.720377 -44.727273 
L 300.404623 -44.727273 
L 299.08887 -44.727273 
L 297.773116 -44.727273 
L 296.457363 -44.727273 
L 292.510103 -44.727273 
L 291.194349 -44.727273 
L 289.878596 -44.727273 
L 287.247089 -44.727273 
L 283.299829 -44.727273 
L 281.984075 -44.727273 
L 280.668322 -44.727273 
L 279.352568 -44.727273 
L 278.036815 -44.727273 
L 274.089555 -44.727273 
L 272.773801 -44.727273 
L 271.458048 -44.727273 
L 270.142295 -44.727273 
L 263.563527 -44.727273 
L 262.247774 -44.727273 
L 260.932021 -44.727273 
L 259.616267 -44.727273 
L 255.669007 -44.727273 
L 254.353253 -44.727273 
L 253.0375 -44.727273 
L 251.721747 -44.727273 
L 250.405993 -44.727273 
L 246.458733 -44.727273 
L 245.142979 -44.727273 
L 243.827226 -44.727273 
L 242.511473 -44.727273 
L 241.195719 -44.727273 
L 237.248459 -44.727273 
L 235.932705 -44.727273 
L 234.616952 -44.727273 
L 233.301199 -44.727273 
L 231.985445 -44.727273 
L 228.038185 -44.727273 
L 226.722432 -44.727273 
L 225.406678 -44.727273 
L 224.090925 -44.727273 
L 222.775171 -44.727273 
L 218.827911 -44.727273 
L 217.512158 -44.727273 
L 216.196404 -44.727273 
L 214.880651 -44.727273 
L 213.564897 -44.727273 
L 209.617637 -44.727273 
L 208.301884 -44.727273 
L 206.98613 -44.727273 
L 205.670377 -44.727273 
L 204.354623 -44.727273 
L 200.407363 -44.727273 
L 199.09161 -44.727273 
L 197.775856 -44.727273 
L 196.460103 -44.727273 
L 195.144349 -44.727273 
L 191.197089 -44.727273 
L 189.881336 -44.727273 
L 188.565582 -44.727273 
L 187.249829 -44.727273 
L 185.934075 -44.727273 
L 181.986815 -44.727273 
L 180.671062 -44.727273 
L 179.355308 -44.727273 
L 178.039555 -44.727273 
L 176.723801 -44.727273 
L 172.776541 -44.727273 
L 170.145034 -44.727273 
L 168.829281 -44.727273 
L 167.513527 -44.727273 
L 163.566267 -44.727273 
L 162.250514 -44.727273 
L 160.93476 -44.727273 
L 159.619007 -44.727273 
L 158.303253 -44.727273 
L 154.355993 -44.727273 
L 153.04024 -44.727273 
L 151.724486 -44.727273 
L 150.408733 -44.727273 
L 149.092979 -44.727273 
L 145.145719 -44.727273 
L 143.829966 -44.727273 
L 142.514212 -44.727273 
L 141.198459 -44.727273 
L 135.935445 -44.727273 
L 134.619692 -44.727273 
L 133.303938 -44.727273 
L 126.725171 -44.727273 
L 125.409418 -44.727273 
L 124.093664 -44.727273 
L 122.777911 -44.727273 
L 121.462158 -44.727273 
L 117.514897 -44.727273 
L 116.199144 -44.727273 
L 114.88339 -44.727273 
L 113.567637 -44.727273 
L 112.251884 -44.727273 
L 108.304623 -44.727273 
L 106.98887 -44.727273 
L 105.673116 -44.727273 
L 104.357363 -44.727273 
L 103.04161 -44.727273 
L 99.094349 -44.727273 
L 97.778596 -44.727273 
L 96.462842 -44.727273 
L 95.147089 -44.727273 
L 93.831336 -44.727273 
L 89.884075 -44.727273 
L 88.568322 -44.727273 
L 87.252568 -44.727273 
L 85.936815 -44.727273 
L 84.621062 -44.727273 
L 80.673801 -44.727273 
L 79.358048 -44.727273 
L 78.042295 -44.727273 
L 76.726541 -44.727273 
L 75.410788 -44.727273 
L 71.463527 -44.727273 
L 70.147774 -44.727273 
L 68.832021 -44.727273 
L 67.516267 -44.727273 
L 66.200514 -44.727273 
L 62.253253 -44.727273 
L 60.9375 -44.727273 
z
" id="m5d99b72551" style="stroke:#f5f6f8;"/>
    </defs>
    <g clip-path="url(#pd8691dc35b)">
     <use style="fill:#f5f6f8;stroke:#f5f6f8;" x="0" xlink:href="#m5d99b72551" y="432"/>
    </g>
   </g>
   <g id="matplotlib.axis_1">
    <g id="xtick_1">
     <g id="line2d_1">
      <defs>
       <path d="M 0 0 
L 0 3.5 
" id="m39ed7cb755" style="stroke:#000000;stroke-width:0.8;"/>
      </defs>
      <g>
       <use style="stroke:#000000;stroke-width:0.8;" x="58.305993" xlink:href="#m39ed7cb755" y="404.2"/>
      </g>
     </g>
     <g id="text_1">
      <!-- 2022-11 -->
      <defs>
       <path d="M 19.1875 8.296875 
L 53.609375 8.296875 
L 53.609375 0 
L 7.328125 0 
L 7.328125 8.296875 
Q 12.9375 14.109375 22.625 23.890625 
Q 32.328125 33.6875 34.8125 36.53125 
Q 39.546875 41.84375 41.421875 45.53125 
Q 43.3125 49.21875 43.3125 52.78125 
Q 43.3125 58.59375 39.234375 62.25 
Q 35.15625 65.921875 28.609375 65.921875 
Q 23.96875 65.921875 18.8125 64.3125 
Q 13.671875 62.703125 7.8125 59.421875 
L 7.8125 69.390625 
Q 13.765625 71.78125 18.9375 73 
Q 24.125 74.21875 28.421875 74.21875 
Q 39.75 74.21875 46.484375 68.546875 
Q 53.21875 62.890625 53.21875 53.421875 
Q 53.21875 48.921875 51.53125 44.890625 
Q 49.859375 40.875 45.40625 35.40625 
Q 44.1875 33.984375 37.640625 27.21875 
Q 31.109375 20.453125 19.1875 8.296875 
z
" id="DejaVuSans-50"/>
       <path d="M 31.78125 66.40625 
Q 24.171875 66.40625 20.328125 58.90625 
Q 16.5 51.421875 16.5 36.375 
Q 16.5 21.390625 20.328125 13.890625 
Q 24.171875 6.390625 31.78125 6.390625 
Q 39.453125 6.390625 43.28125 13.890625 
Q 47.125 21.390625 47.125 36.375 
Q 47.125 51.421875 43.28125 58.90625 
Q 39.453125 66.40625 31.78125 66.40625 
z
M 31.78125 74.21875 
Q 44.046875 74.21875 50.515625 64.515625 
Q 56.984375 54.828125 56.984375 36.375 
Q 56.984375 17.96875 50.515625 8.265625 
Q 44.046875 -1.421875 31.78125 -1.421875 
Q 19.53125 -1.421875 13.0625 8.265625 
Q 6.59375 17.96875 6.59375 36.375 
Q 6.59375 54.828125 13.0625 64.515625 
Q 19.53125 74.21875 31.78125 74.21875 
z
" id="DejaVuSans-48"/>
       <path d="M 4.890625 31.390625 
L 31.203125 31.390625 
L 31.203125 23.390625 
L 4.890625 23.390625 
z
" id="DejaVuSans-45"/>
       <path d="M 12.40625 8.296875 
L 28.515625 8.296875 
L 28.515625 63.921875 
L 10.984375 60.40625 
L 10.984375 69.390625 
L 28.421875 72.90625 
L 38.28125 72.90625 
L 38.28125 8.296875 
L 54.390625 8.296875 
L 54.390625 0 
L 12.40625 0 
z
" id="DejaVuSans-49"/>
      </defs>
      <g transform="translate(37.414587 418.798437)scale(0.1 -0.1)">
       <use xlink:href="#DejaVuSans-50"/>
       <use x="63.623047" xlink:href="#DejaVuSans-48"/>
       <use x="127.246094" xlink:href="#DejaVuSans-50"/>
       <use x="190.869141" xlink:href="#DejaVuSans-50"/>
       <use x="254.492188" xlink:href="#DejaVuSans-45"/>
       <use x="290.576172" xlink:href="#DejaVuSans-49"/>
       <use x="354.199219" xlink:href="#DejaVuSans-49"/>
      </g>
     </g>
    </g>
    <g id="xtick_2">
     <g id="line2d_2">
      <g>
       <use style="stroke:#000000;stroke-width:0.8;" x="138.566952" xlink:href="#m39ed7cb755" y="404.2"/>
      </g>
     </g>
     <g id="text_2">
      <!-- 2023-01 -->
      <defs>
       <path d="M 40.578125 39.3125 
Q 47.65625 37.796875 51.625 33 
Q 55.609375 28.21875 55.609375 21.1875 
Q 55.609375 10.40625 48.1875 4.484375 
Q 40.765625 -1.421875 27.09375 -1.421875 
Q 22.515625 -1.421875 17.65625 -0.515625 
Q 12.796875 0.390625 7.625 2.203125 
L 7.625 11.71875 
Q 11.71875 9.328125 16.59375 8.109375 
Q 21.484375 6.890625 26.8125 6.890625 
Q 36.078125 6.890625 40.9375 10.546875 
Q 45.796875 14.203125 45.796875 21.1875 
Q 45.796875 27.640625 41.28125 31.265625 
Q 36.765625 34.90625 28.71875 34.90625 
L 20.21875 34.90625 
L 20.21875 43.015625 
L 29.109375 43.015625 
Q 36.375 43.015625 40.234375 45.921875 
Q 44.09375 48.828125 44.09375 54.296875 
Q 44.09375 59.90625 40.109375 62.90625 
Q 36.140625 65.921875 28.71875 65.921875 
Q 24.65625 65.921875 20.015625 65.03125 
Q 15.375 64.15625 9.8125 62.3125 
L 9.8125 71.09375 
Q 15.4375 72.65625 20.34375 73.4375 
Q 25.25 74.21875 29.59375 74.21875 
Q 40.828125 74.21875 47.359375 69.109375 
Q 53.90625 64.015625 53.90625 55.328125 
Q 53.90625 49.265625 50.4375 45.09375 
Q 46.96875 40.921875 40.578125 39.3125 
z
" id="DejaVuSans-51"/>
      </defs>
      <g transform="translate(117.675546 418.798437)scale(0.1 -0.1)">
       <use xlink:href="#DejaVuSans-50"/>
       <use x="63.623047" xlink:href="#DejaVuSans-48"/>
       <use x="127.246094" xlink:href="#DejaVuSans-50"/>
       <use x="190.869141" xlink:href="#DejaVuSans-51"/>
       <use x="254.492188" xlink:href="#DejaVuSans-45"/>
       <use x="290.576172" xlink:href="#DejaVuSans-48"/>
       <use x="354.199219" xlink:href="#DejaVuSans-49"/>
      </g>
     </g>
    </g>
    <g id="xtick_3">
     <g id="line2d_3">
      <g>
       <use style="stroke:#000000;stroke-width:0.8;" x="216.196404" xlink:href="#m39ed7cb755" y="404.2"/>
      </g>
     </g>
     <g id="text_3">
      <!-- 2023-03 -->
      <g transform="translate(195.304998 418.798437)scale(0.1 -0.1)">
       <use xlink:href="#DejaVuSans-50"/>
       <use x="63.623047" xlink:href="#DejaVuSans-48"/>
       <use x="127.246094" xlink:href="#DejaVuSans-50"/>
       <use x="190.869141" xlink:href="#DejaVuSans-51"/>
       <use x="254.492188" xlink:href="#DejaVuSans-45"/>
       <use x="290.576172" xlink:href="#DejaVuSans-48"/>
       <use x="354.199219" xlink:href="#DejaVuSans-51"/>
      </g>
     </g>
    </g>
    <g id="xtick_4">
     <g id="line2d_4">
      <g>
       <use style="stroke:#000000;stroke-width:0.8;" x="296.457363" xlink:href="#m39ed7cb755" y="404.2"/>
      </g>
     </g>
     <g id="text_4">
      <!-- 2023-05 -->
      <defs>
       <path d="M 10.796875 72.90625 
L 49.515625 72.90625 
L 49.515625 64.59375 
L 19.828125 64.59375 
L 19.828125 46.734375 
Q 21.96875 47.46875 24.109375 47.828125 
Q 26.265625 48.1875 28.421875 48.1875 
Q 40.625 48.1875 47.75 41.5 
Q 54.890625 34.8125 54.890625 23.390625 
Q 54.890625 11.625 47.5625 5.09375 
Q 40.234375 -1.421875 26.90625 -1.421875 
Q 22.3125 -1.421875 17.546875 -0.640625 
Q 12.796875 0.140625 7.71875 1.703125 
L 7.71875 11.625 
Q 12.109375 9.234375 16.796875 8.0625 
Q 21.484375 6.890625 26.703125 6.890625 
Q 35.15625 6.890625 40.078125 11.328125 
Q 45.015625 15.765625 45.015625 23.390625 
Q 45.015625 31 40.078125 35.4375 
Q 35.15625 39.890625 26.703125 39.890625 
Q 22.75 39.890625 18.8125 39.015625 
Q 14.890625 38.140625 10.796875 36.28125 
z
" id="DejaVuSans-53"/>
      </defs>
      <g transform="translate(275.565957 418.798437)scale(0.1 -0.1)">
       <use xlink:href="#DejaVuSans-50"/>
       <use x="63.623047" xlink:href="#DejaVuSans-48"/>
       <use x="127.246094" xlink:href="#DejaVuSans-50"/>
       <use x="190.869141" xlink:href="#DejaVuSans-51"/>
       <use x="254.492188" xlink:href="#DejaVuSans-45"/>
       <use x="290.576172" xlink:href="#DejaVuSans-48"/>
       <use x="354.199219" xlink:href="#DejaVuSans-53"/>
      </g>
     </g>
    </g>
    <g id="xtick_5">
     <g id="line2d_5">
      <g>
       <use style="stroke:#000000;stroke-width:0.8;" x="376.718322" xlink:href="#m39ed7cb755" y="404.2"/>
      </g>
     </g>
     <g id="text_5">
      <!-- 2023-07 -->
      <defs>
       <path d="M 8.203125 72.90625 
L 55.078125 72.90625 
L 55.078125 68.703125 
L 28.609375 0 
L 18.3125 0 
L 43.21875 64.59375 
L 8.203125 64.59375 
z
" id="DejaVuSans-55"/>
      </defs>
      <g transform="translate(355.826916 418.798437)scale(0.1 -0.1)">
       <use xlink:href="#DejaVuSans-50"/>
       <use x="63.623047" xlink:href="#DejaVuSans-48"/>
       <use x="127.246094" xlink:href="#DejaVuSans-50"/>
       <use x="190.869141" xlink:href="#DejaVuSans-51"/>
       <use x="254.492188" xlink:href="#DejaVuSans-45"/>
       <use x="290.576172" xlink:href="#DejaVuSans-48"/>
       <use x="354.199219" xlink:href="#DejaVuSans-55"/>
      </g>
     </g>
    </g>
    <g id="xtick_6">
     <g id="line2d_6">
      <g>
       <use style="stroke:#000000;stroke-width:0.8;" x="458.295034" xlink:href="#m39ed7cb755" y="404.2"/>
      </g>
     </g>
     <g id="text_6">
      <!-- 2023-09 -->
      <defs>
       <path d="M 10.984375 1.515625 
L 10.984375 10.5 
Q 14.703125 8.734375 18.5 7.8125 
Q 22.3125 6.890625 25.984375 6.890625 
Q 35.75 6.890625 40.890625 13.453125 
Q 46.046875 20.015625 46.78125 33.40625 
Q 43.953125 29.203125 39.59375 26.953125 
Q 35.25 24.703125 29.984375 24.703125 
Q 19.046875 24.703125 12.671875 31.3125 
Q 6.296875 37.9375 6.296875 49.421875 
Q 6.296875 60.640625 12.9375 67.421875 
Q 19.578125 74.21875 30.609375 74.21875 
Q 43.265625 74.21875 49.921875 64.515625 
Q 56.59375 54.828125 56.59375 36.375 
Q 56.59375 19.140625 48.40625 8.859375 
Q 40.234375 -1.421875 26.421875 -1.421875 
Q 22.703125 -1.421875 18.890625 -0.6875 
Q 15.09375 0.046875 10.984375 1.515625 
z
M 30.609375 32.421875 
Q 37.25 32.421875 41.125 36.953125 
Q 45.015625 41.5 45.015625 49.421875 
Q 45.015625 57.28125 41.125 61.84375 
Q 37.25 66.40625 30.609375 66.40625 
Q 23.96875 66.40625 20.09375 61.84375 
Q 16.21875 57.28125 16.21875 49.421875 
Q 16.21875 41.5 20.09375 36.953125 
Q 23.96875 32.421875 30.609375 32.421875 
z
" id="DejaVuSans-57"/>
      </defs>
      <g transform="translate(437.403628 418.798437)scale(0.1 -0.1)">
       <use xlink:href="#DejaVuSans-50"/>
       <use x="63.623047" xlink:href="#DejaVuSans-48"/>
       <use x="127.246094" xlink:href="#DejaVuSans-50"/>
       <use x="190.869141" xlink:href="#DejaVuSans-51"/>
       <use x="254.492188" xlink:href="#DejaVuSans-45"/>
       <use x="290.576172" xlink:href="#DejaVuSans-48"/>
       <use x="354.199219" xlink:href="#DejaVuSans-57"/>
      </g>
     </g>
    </g>
    <g id="xtick_7">
     <g id="line2d_7">
      <g>
       <use style="stroke:#000000;stroke-width:0.8;" x="538.555993" xlink:href="#m39ed7cb755" y="404.2"/>
      </g>
     </g>
     <g id="text_7">
      <!-- 2023-11 -->
      <g transform="translate(517.664587 418.798437)scale(0.1 -0.1)">
       <use xlink:href="#DejaVuSans-50"/>
       <use x="63.623047" xlink:href="#DejaVuSans-48"/>
       <use x="127.246094" xlink:href="#DejaVuSans-50"/>
       <use x="190.869141" xlink:href="#DejaVuSans-51"/>
       <use x="254.492188" xlink:href="#DejaVuSans-45"/>
       <use x="290.576172" xlink:href="#DejaVuSans-49"/>
       <use x="354.199219" xlink:href="#DejaVuSans-49"/>
      </g>
     </g>
    </g>
   </g>
   <g id="matplotlib.axis_2">
    <g id="ytick_1">
     <g id="line2d_8">
      <defs>
       <path d="M 0 0 
L -3.5 0 
" id="m125a75fa3d" style="stroke:#000000;stroke-width:0.8;"/>
      </defs>
      <g>
       <use style="stroke:#000000;stroke-width:0.8;" x="36.925" xlink:href="#m125a75fa3d" y="387.272727"/>
      </g>
     </g>
     <g id="text_8">
      <!-- 0 -->
      <g transform="translate(23.5625 391.071946)scale(0.1 -0.1)">
       <use xlink:href="#DejaVuSans-48"/>
      </g>
     </g>
    </g>
    <g id="ytick_2">
     <g id="line2d_9">
      <g>
       <use style="stroke:#000000;stroke-width:0.8;" x="36.925" xlink:href="#m125a75fa3d" y="334.042309"/>
      </g>
     </g>
     <g id="text_9">
      <!-- 20 -->
      <g transform="translate(17.2 337.841527)scale(0.1 -0.1)">
       <use xlink:href="#DejaVuSans-50"/>
       <use x="63.623047" xlink:href="#DejaVuSans-48"/>
      </g>
     </g>
    </g>
    <g id="ytick_3">
     <g id="line2d_10">
      <g>
       <use style="stroke:#000000;stroke-width:0.8;" x="36.925" xlink:href="#m125a75fa3d" y="280.81189"/>
      </g>
     </g>
     <g id="text_10">
      <!-- 40 -->
      <defs>
       <path d="M 37.796875 64.3125 
L 12.890625 25.390625 
L 37.796875 25.390625 
z
M 35.203125 72.90625 
L 47.609375 72.90625 
L 47.609375 25.390625 
L 58.015625 25.390625 
L 58.015625 17.1875 
L 47.609375 17.1875 
L 47.609375 0 
L 37.796875 0 
L 37.796875 17.1875 
L 4.890625 17.1875 
L 4.890625 26.703125 
z
" id="DejaVuSans-52"/>
      </defs>
      <g transform="translate(17.2 284.611109)scale(0.1 -0.1)">
       <use xlink:href="#DejaVuSans-52"/>
       <use x="63.623047" xlink:href="#DejaVuSans-48"/>
      </g>
     </g>
    </g>
    <g id="ytick_4">
     <g id="line2d_11">
      <g>
       <use style="stroke:#000000;stroke-width:0.8;" x="36.925" xlink:href="#m125a75fa3d" y="227.581471"/>
      </g>
     </g>
     <g id="text_11">
      <!-- 60 -->
      <defs>
       <path d="M 33.015625 40.375 
Q 26.375 40.375 22.484375 35.828125 
Q 18.609375 31.296875 18.609375 23.390625 
Q 18.609375 15.53125 22.484375 10.953125 
Q 26.375 6.390625 33.015625 6.390625 
Q 39.65625 6.390625 43.53125 10.953125 
Q 47.40625 15.53125 47.40625 23.390625 
Q 47.40625 31.296875 43.53125 35.828125 
Q 39.65625 40.375 33.015625 40.375 
z
M 52.59375 71.296875 
L 52.59375 62.3125 
Q 48.875 64.0625 45.09375 64.984375 
Q 41.3125 65.921875 37.59375 65.921875 
Q 27.828125 65.921875 22.671875 59.328125 
Q 17.53125 52.734375 16.796875 39.40625 
Q 19.671875 43.65625 24.015625 45.921875 
Q 28.375 48.1875 33.59375 48.1875 
Q 44.578125 48.1875 50.953125 41.515625 
Q 57.328125 34.859375 57.328125 23.390625 
Q 57.328125 12.15625 50.6875 5.359375 
Q 44.046875 -1.421875 33.015625 -1.421875 
Q 20.359375 -1.421875 13.671875 8.265625 
Q 6.984375 17.96875 6.984375 36.375 
Q 6.984375 53.65625 15.1875 63.9375 
Q 23.390625 74.21875 37.203125 74.21875 
Q 40.921875 74.21875 44.703125 73.484375 
Q 48.484375 72.75 52.59375 71.296875 
z
" id="DejaVuSans-54"/>
      </defs>
      <g transform="translate(17.2 231.38069)scale(0.1 -0.1)">
       <use xlink:href="#DejaVuSans-54"/>
       <use x="63.623047" xlink:href="#DejaVuSans-48"/>
      </g>
     </g>
    </g>
    <g id="ytick_5">
     <g id="line2d_12">
      <g>
       <use style="stroke:#000000;stroke-width:0.8;" x="36.925" xlink:href="#m125a75fa3d" y="174.351053"/>
      </g>
     </g>
     <g id="text_12">
      <!-- 80 -->
      <defs>
       <path d="M 31.78125 34.625 
Q 24.75 34.625 20.71875 30.859375 
Q 16.703125 27.09375 16.703125 20.515625 
Q 16.703125 13.921875 20.71875 10.15625 
Q 24.75 6.390625 31.78125 6.390625 
Q 38.8125 6.390625 42.859375 10.171875 
Q 46.921875 13.96875 46.921875 20.515625 
Q 46.921875 27.09375 42.890625 30.859375 
Q 38.875 34.625 31.78125 34.625 
z
M 21.921875 38.8125 
Q 15.578125 40.375 12.03125 44.71875 
Q 8.5 49.078125 8.5 55.328125 
Q 8.5 64.0625 14.71875 69.140625 
Q 20.953125 74.21875 31.78125 74.21875 
Q 42.671875 74.21875 48.875 69.140625 
Q 55.078125 64.0625 55.078125 55.328125 
Q 55.078125 49.078125 51.53125 44.71875 
Q 48 40.375 41.703125 38.8125 
Q 48.828125 37.15625 52.796875 32.3125 
Q 56.78125 27.484375 56.78125 20.515625 
Q 56.78125 9.90625 50.3125 4.234375 
Q 43.84375 -1.421875 31.78125 -1.421875 
Q 19.734375 -1.421875 13.25 4.234375 
Q 6.78125 9.90625 6.78125 20.515625 
Q 6.78125 27.484375 10.78125 32.3125 
Q 14.796875 37.15625 21.921875 38.8125 
z
M 18.3125 54.390625 
Q 18.3125 48.734375 21.84375 45.5625 
Q 25.390625 42.390625 31.78125 42.390625 
Q 38.140625 42.390625 41.71875 45.5625 
Q 45.3125 48.734375 45.3125 54.390625 
Q 45.3125 60.0625 41.71875 63.234375 
Q 38.140625 66.40625 31.78125 66.40625 
Q 25.390625 66.40625 21.84375 63.234375 
Q 18.3125 60.0625 18.3125 54.390625 
z
" id="DejaVuSans-56"/>
      </defs>
      <g transform="translate(17.2 178.150271)scale(0.1 -0.1)">
       <use xlink:href="#DejaVuSans-56"/>
       <use x="63.623047" xlink:href="#DejaVuSans-48"/>
      </g>
     </g>
    </g>
    <g id="ytick_6">
     <g id="line2d_13">
      <g>
       <use style="stroke:#000000;stroke-width:0.8;" x="36.925" xlink:href="#m125a75fa3d" y="121.120634"/>
      </g>
     </g>
     <g id="text_13">
      <!-- 100 -->
      <g transform="translate(10.8375 124.919853)scale(0.1 -0.1)">
       <use xlink:href="#DejaVuSans-49"/>
       <use x="63.623047" xlink:href="#DejaVuSans-48"/>
       <use x="127.246094" xlink:href="#DejaVuSans-48"/>
      </g>
     </g>
    </g>
    <g id="ytick_7">
     <g id="line2d_14">
      <g>
       <use style="stroke:#000000;stroke-width:0.8;" x="36.925" xlink:href="#m125a75fa3d" y="67.890215"/>
      </g>
     </g>
     <g id="text_14">
      <!-- 120 -->
      <g transform="translate(10.8375 71.689434)scale(0.1 -0.1)">
       <use xlink:href="#DejaVuSans-49"/>
       <use x="63.623047" xlink:href="#DejaVuSans-50"/>
       <use x="127.246094" xlink:href="#DejaVuSans-48"/>
      </g>
     </g>
    </g>
   </g>
   <g id="patch_3">
    <path d="M 36.925 404.2 
L 36.925 31.8 
" style="fill:none;stroke:#000000;stroke-linecap:square;stroke-linejoin:miter;stroke-width:0.8;"/>
   </g>
   <g id="patch_4">
    <path d="M 565.2 404.2 
L 565.2 31.8 
" style="fill:none;stroke:#000000;stroke-linecap:square;stroke-linejoin:miter;stroke-width:0.8;"/>
   </g>
   <g id="patch_5">
    <path d="M 36.925 404.2 
L 565.2 404.2 
" style="fill:none;stroke:#000000;stroke-linecap:square;stroke-linejoin:miter;stroke-width:0.8;"/>
   </g>
   <g id="patch_6">
    <path d="M 36.925 31.8 
L 565.2 31.8 
" style="fill:none;stroke:#000000;stroke-linecap:square;stroke-linejoin:miter;stroke-width:0.8;"/>
   </g>
   <g id="text_15">
    <!-- XRO.AX - 51% -->
    <defs>
     <path d="M 49.8125 37.203125 
L 75.09375 0 
L 55.515625 0 
L 38.484375 24.90625 
L 21.578125 0 
L 1.90625 0 
L 27.203125 37.203125 
L 2.875 72.90625 
L 22.515625 72.90625 
L 38.484375 49.421875 
L 54.390625 72.90625 
L 74.125 72.90625 
z
" id="DejaVuSans-Bold-88"/>
     <path d="M 35.890625 40.578125 
Q 41.796875 40.578125 44.359375 42.765625 
Q 46.921875 44.96875 46.921875 50 
Q 46.921875 54.984375 44.359375 57.125 
Q 41.796875 59.28125 35.890625 59.28125 
L 27.984375 59.28125 
L 27.984375 40.578125 
z
M 27.984375 27.59375 
L 27.984375 0 
L 9.1875 0 
L 9.1875 72.90625 
L 37.890625 72.90625 
Q 52.296875 72.90625 59 68.0625 
Q 65.71875 63.234375 65.71875 52.78125 
Q 65.71875 45.5625 62.21875 40.921875 
Q 58.734375 36.28125 51.703125 34.078125 
Q 55.5625 33.203125 58.609375 30.09375 
Q 61.671875 27 64.796875 20.703125 
L 75 0 
L 54.984375 0 
L 46.09375 18.109375 
Q 43.40625 23.578125 40.640625 25.578125 
Q 37.890625 27.59375 33.296875 27.59375 
z
" id="DejaVuSans-Bold-82"/>
     <path d="M 42.484375 60.59375 
Q 33.890625 60.59375 29.15625 54.25 
Q 24.421875 47.90625 24.421875 36.375 
Q 24.421875 24.90625 29.15625 18.546875 
Q 33.890625 12.203125 42.484375 12.203125 
Q 51.125 12.203125 55.859375 18.546875 
Q 60.59375 24.90625 60.59375 36.375 
Q 60.59375 47.90625 55.859375 54.25 
Q 51.125 60.59375 42.484375 60.59375 
z
M 42.484375 74.21875 
Q 60.0625 74.21875 70.015625 64.15625 
Q 79.984375 54.109375 79.984375 36.375 
Q 79.984375 18.703125 70.015625 8.640625 
Q 60.0625 -1.421875 42.484375 -1.421875 
Q 24.953125 -1.421875 14.96875 8.640625 
Q 4.984375 18.703125 4.984375 36.375 
Q 4.984375 54.109375 14.96875 64.15625 
Q 24.953125 74.21875 42.484375 74.21875 
z
" id="DejaVuSans-Bold-79"/>
     <path d="M 10.203125 18.890625 
L 27.78125 18.890625 
L 27.78125 0 
L 10.203125 0 
z
" id="DejaVuSans-Bold-46"/>
     <path d="M 53.421875 13.28125 
L 24.03125 13.28125 
L 19.390625 0 
L 0.484375 0 
L 27.484375 72.90625 
L 49.90625 72.90625 
L 76.90625 0 
L 58.015625 0 
z
M 28.71875 26.8125 
L 48.6875 26.8125 
L 38.71875 55.8125 
z
" id="DejaVuSans-Bold-65"/>
     <path id="DejaVuSans-Bold-32"/>
     <path d="M 5.421875 35.890625 
L 36.078125 35.890625 
L 36.078125 21.6875 
L 5.421875 21.6875 
z
" id="DejaVuSans-Bold-45"/>
     <path d="M 10.59375 72.90625 
L 57.328125 72.90625 
L 57.328125 59.078125 
L 25.59375 59.078125 
L 25.59375 47.796875 
Q 27.734375 48.390625 29.90625 48.703125 
Q 32.078125 49.03125 34.421875 49.03125 
Q 47.75 49.03125 55.171875 42.359375 
Q 62.59375 35.6875 62.59375 23.78125 
Q 62.59375 11.96875 54.515625 5.265625 
Q 46.4375 -1.421875 32.078125 -1.421875 
Q 25.875 -1.421875 19.796875 -0.21875 
Q 13.71875 0.984375 7.71875 3.421875 
L 7.71875 18.21875 
Q 13.671875 14.796875 19.015625 13.078125 
Q 24.359375 11.375 29.109375 11.375 
Q 35.9375 11.375 39.859375 14.71875 
Q 43.796875 18.0625 43.796875 23.78125 
Q 43.796875 29.546875 39.859375 32.859375 
Q 35.9375 36.1875 29.109375 36.1875 
Q 25.046875 36.1875 20.453125 35.125 
Q 15.875 34.078125 10.59375 31.890625 
z
" id="DejaVuSans-Bold-53"/>
     <path d="M 11.71875 12.984375 
L 28.328125 12.984375 
L 28.328125 60.109375 
L 11.28125 56.59375 
L 11.28125 69.390625 
L 28.21875 72.90625 
L 46.09375 72.90625 
L 46.09375 12.984375 
L 62.703125 12.984375 
L 62.703125 0 
L 11.71875 0 
z
" id="DejaVuSans-Bold-49"/>
     <path d="M 77.484375 30.078125 
Q 74.03125 30.078125 72.125 27.078125 
Q 70.21875 24.078125 70.21875 18.5 
Q 70.21875 12.890625 72.09375 9.890625 
Q 73.96875 6.890625 77.484375 6.890625 
Q 81 6.890625 82.859375 9.890625 
Q 84.71875 12.890625 84.71875 18.5 
Q 84.71875 24.078125 82.828125 27.078125 
Q 80.953125 30.078125 77.484375 30.078125 
z
M 77.484375 38.28125 
Q 86.578125 38.28125 91.796875 33 
Q 97.015625 27.734375 97.015625 18.5 
Q 97.015625 9.28125 91.796875 3.921875 
Q 86.578125 -1.421875 77.484375 -1.421875 
Q 68.40625 -1.421875 63.15625 3.921875 
Q 57.90625 9.28125 57.90625 18.5 
Q 57.90625 27.6875 63.15625 32.984375 
Q 68.40625 38.28125 77.484375 38.28125 
z
M 32.71875 -1.421875 
L 21.921875 -1.421875 
L 67.484375 74.21875 
L 78.328125 74.21875 
z
M 22.703125 74.21875 
Q 31.78125 74.21875 36.984375 68.921875 
Q 42.1875 63.625 42.1875 54.390625 
Q 42.1875 45.171875 36.984375 39.84375 
Q 31.78125 34.515625 22.703125 34.515625 
Q 13.625 34.515625 8.421875 39.84375 
Q 3.21875 45.171875 3.21875 54.390625 
Q 3.21875 63.625 8.421875 68.921875 
Q 13.625 74.21875 22.703125 74.21875 
z
M 22.703125 66.015625 
Q 19.1875 66.015625 17.28125 62.984375 
Q 15.375 59.96875 15.375 54.390625 
Q 15.375 48.78125 17.28125 45.71875 
Q 19.1875 42.671875 22.703125 42.671875 
Q 26.21875 42.671875 28.09375 45.71875 
Q 29.984375 48.78125 29.984375 54.390625 
Q 29.984375 59.96875 28.078125 62.984375 
Q 26.171875 66.015625 22.703125 66.015625 
z
" id="DejaVuSans-Bold-37"/>
    </defs>
    <g transform="translate(36.925 25.8)scale(0.2 -0.2)">
     <use xlink:href="#DejaVuSans-Bold-88"/>
     <use x="77.099609" xlink:href="#DejaVuSans-Bold-82"/>
     <use x="154.101562" xlink:href="#DejaVuSans-Bold-79"/>
     <use x="239.080078" xlink:href="#DejaVuSans-Bold-46"/>
     <use x="277.068359" xlink:href="#DejaVuSans-Bold-65"/>
     <use x="354.460938" xlink:href="#DejaVuSans-Bold-88"/>
     <use x="431.560547" xlink:href="#DejaVuSans-Bold-32"/>
     <use x="466.375" xlink:href="#DejaVuSans-Bold-45"/>
     <use x="507.878906" xlink:href="#DejaVuSans-Bold-32"/>
     <use x="542.693359" xlink:href="#DejaVuSans-Bold-53"/>
     <use x="612.273438" xlink:href="#DejaVuSans-Bold-49"/>
     <use x="681.853516" xlink:href="#DejaVuSans-Bold-37"/>
    </g>
   </g>
  </g>
 </g>
 <defs>
  <clipPath id="pd8691dc35b">
   <rect height="372.4" width="528.275" x="36.925" y="31.8"/>
  </clipPath>
 </defs>
</svg>
