<?xml version="1.0" encoding="utf-8" standalone="no"?>
<!DOCTYPE svg PUBLIC "-//W3C//DTD SVG 1.1//EN"
  "http://www.w3.org/Graphics/SVG/1.1/DTD/svg11.dtd">
<!-- Created with matplotlib (https://matplotlib.org/) -->
<svg height="432pt" version="1.1" viewBox="0 0 864 432" width="864pt" xmlns="http://www.w3.org/2000/svg" xmlns:xlink="http://www.w3.org/1999/xlink">
 <defs>
  <style type="text/css">
*{stroke-linecap:butt;stroke-linejoin:round;}
  </style>
 </defs>
 <g id="figure_1">
  <g id="patch_1">
   <path d="M 0 432 
L 864 432 
L 864 0 
L 0 0 
z
" style="fill:#ffffff;"/>
  </g>
  <g id="axes_1">
   <g id="patch_2">
    <path d="M 36.925 404.2 
L 853.2 404.2 
L 853.2 28.8 
L 36.925 28.8 
z
" style="fill:#ffffff;"/>
   </g>
   <g id="PolyCollection_1">
    <defs>
     <path d="M 74.028409 -44.863636 
L 74.028409 -303.347416 
L 76.067058 -283.488307 
L 82.183004 -276.309847 
L 84.221653 -281.378156 
L 86.260302 -274.12081 
L 88.298951 -307.390207 
L 90.3376 -325.277211 
L 96.453546 -314.746179 
L 98.492195 -335.275766 
L 100.530844 -321.648545 
L 102.569493 -314.548956 
L 104.608142 -318.453715 
L 110.724088 -312.912106 
L 112.762737 -314.568667 
L 114.801386 -321.116069 
L 118.878684 -318.493166 
L 124.99463 -314.489796 
L 127.033279 -310.801969 
L 129.071928 -308.041005 
L 131.110577 -329.832768 
L 133.149226 -299.245435 
L 139.265172 -283.074167 
L 141.303821 -273.568623 
L 143.34247 -270.156875 
L 145.381119 -280.589311 
L 147.419768 -276.014028 
L 153.535714 -283.961608 
L 155.574363 -288.93132 
L 157.613012 -287.70861 
L 159.651661 -275.935142 
L 161.69031 -270.097714 
L 167.806256 -266.271826 
L 169.844905 -268.776408 
L 171.883554 -267.257879 
L 173.922203 -260.533009 
L 175.960852 -259.389185 
L 184.115447 -257.00294 
L 186.154096 -257.574852 
L 188.192745 -265.482996 
L 190.231394 -265.542157 
L 198.385989 -262.16986 
L 200.424638 -264.930794 
L 202.463287 -250.731647 
L 204.501936 -249.883641 
L 210.617882 -251.441605 
L 212.656531 -251.875471 
L 214.69518 -257.949557 
L 216.733829 -251.264123 
L 218.772478 -256.470479 
L 226.927073 -268.717247 
L 228.965722 -267.77063 
L 231.004371 -262.524839 
L 233.043019 -275.836546 
L 239.158966 -288.93132 
L 241.197615 -286.742283 
L 243.236264 -281.33872 
L 245.274913 -291.751431 
L 247.313561 -296.346423 
L 253.429508 -286.643672 
L 255.468157 -289.720165 
L 257.506806 -304.234857 
L 259.545455 -323.62065 
L 261.584103 -311.078063 
L 267.70005 -307.252175 
L 269.738699 -317.132409 
L 271.777348 -316.284418 
L 273.815997 -319.104513 
L 275.854645 -308.869285 
L 281.970592 -308.869285 
L 284.009241 -313.444583 
L 286.04789 -326.421035 
L 288.086538 -307.015502 
L 290.125187 -305.871708 
L 298.279783 -296.977496 
L 300.318432 -305.497003 
L 302.35708 -308.139616 
L 304.395729 -302.972711 
L 310.511676 -304.865915 
L 312.550325 -303.505158 
L 314.588974 -298.160771 
L 316.627622 -309.382052 
L 318.666271 -280.017399 
L 324.782218 -281.141498 
L 326.820867 -277.335335 
L 328.859515 -271.557068 
L 330.898164 -262.682596 
L 332.936813 -252.822073 
L 339.05276 -261.519062 
L 341.091409 -257.791785 
L 343.130057 -257.200148 
L 345.168706 -258.107314 
L 347.207355 -252.900959 
L 353.323302 -252.841798 
L 355.361951 -267.750905 
L 357.400599 -259.546957 
L 359.439248 -266.843738 
L 361.477897 -265.601318 
L 367.593844 -265.482996 
L 369.632493 -262.288181 
L 371.671141 -263.175623 
L 373.70979 -266.17323 
L 375.748439 -275.264634 
L 381.864386 -267.514262 
L 383.903034 -262.800933 
L 385.941683 -244.63785 
L 387.980332 -249.449775 
L 396.134928 -251.83602 
L 398.173576 -253.82785 
L 400.212225 -253.650368 
L 402.250874 -256.647961 
L 404.289523 -252.822073 
L 410.40547 -253.098166 
L 412.444118 -249.094796 
L 414.482767 -247.911536 
L 416.521416 -243.040435 
L 418.560065 -245.446405 
L 424.676011 -243.375704 
L 426.71466 -226.928343 
L 428.753309 -228.407422 
L 430.791958 -229.097655 
L 432.830607 -222.550268 
L 438.946553 -219.868205 
L 440.985202 -216.436747 
L 443.023851 -217.166431 
L 445.0625 -217.8961 
L 447.101149 -221.288123 
L 453.217095 -257.693174 
L 455.255744 -261.883896 
L 457.294393 -275.185748 
L 459.333042 -272.483959 
L 461.371691 -270.334372 
L 467.487637 -283.113602 
L 469.526286 -278.262227 
L 471.564935 -279.090507 
L 473.603584 -289.325735 
L 475.642233 -291.909188 
L 481.758179 -298.989051 
L 483.796828 -290.331513 
L 485.835477 -294.394044 
L 487.874126 -294.709588 
L 489.912775 -302.459945 
L 498.06737 -310.545586 
L 500.106019 -312.044375 
L 502.144668 -311.275255 
L 504.183317 -325.671626 
L 510.299263 -336.833746 
L 512.337912 -346.575948 
L 514.376561 -330.661048 
L 516.41521 -338.352275 
L 518.453859 -342.335905 
L 524.569805 -352.472522 
L 526.608454 -355.647611 
L 528.647103 -355.568741 
L 530.685752 -357.12669 
L 532.724401 -348.587473 
L 540.878996 -338.036731 
L 542.917645 -330.523017 
L 544.956294 -330.503276 
L 546.994943 -326.282973 
L 553.110889 -324.330609 
L 555.149538 -330.148312 
L 557.188187 -329.063648 
L 559.226836 -330.503276 
L 561.265485 -333.382562 
L 567.381431 -333.95446 
L 571.458729 -334.703869 
L 573.497378 -324.38977 
L 575.536026 -327.229575 
L 581.651973 -349.100239 
L 583.690622 -335.532149 
L 585.729271 -316.382999 
L 587.76792 -331.094914 
L 589.806568 -331.666811 
L 595.922515 -344.268589 
L 597.961164 -350.165163 
L 599.999813 -362.451367 
L 602.038462 -336.537912 
L 604.07711 -338.726949 
L 610.193057 -337.385933 
L 612.231706 -350.954023 
L 614.270355 -353.734667 
L 616.309003 -351.032894 
L 618.347652 -355.450419 
L 624.463599 -361.1498 
L 626.502248 -365.92229 
L 628.540897 -341.744267 
L 630.579545 -342.197873 
L 632.618194 -333.106469 
L 638.734141 -331.489329 
L 640.77279 -318.374844 
L 642.811439 -321.549934 
L 644.850087 -329.438353 
L 646.888736 -326.776 
L 653.004683 -330.641338 
L 655.043332 -326.302714 
L 657.081981 -321.21468 
L 659.120629 -312.379629 
L 661.159278 -313.484033 
L 667.275225 -326.440745 
L 669.313874 -324.705284 
L 671.352522 -331.745712 
L 673.391171 -320.44556 
L 675.42982 -326.401295 
L 681.545767 -323.60091 
L 683.584416 -329.615835 
L 685.623064 -335.315217 
L 687.661713 -352.610583 
L 689.700362 -357.205591 
L 697.854958 -365.803969 
L 699.893606 -357.14643 
L 701.932255 -362.411946 
L 703.970904 -361.91892 
L 710.086851 -370.359526 
L 712.1255 -360.834257 
L 714.164148 -357.245011 
L 716.202797 -358.881862 
L 718.241446 -352.709195 
L 724.357393 -349.987681 
L 726.396041 -350.638479 
L 728.43469 -349.021338 
L 730.473339 -338.293084 
L 732.511988 -344.051656 
L 738.627935 -338.648078 
L 740.666583 -336.794295 
L 742.705232 -338.450856 
L 744.743881 -342.493677 
L 746.78253 -351.703402 
L 752.898477 -362.155563 
L 754.937125 -343.55863 
L 756.975774 -350.77651 
L 759.014423 -347.187295 
L 761.053072 -367.48024 
L 767.169018 -377.87324 
L 769.207667 -383.829005 
L 771.246316 -386.136364 
L 773.284965 -381.403294 
L 775.323614 -377.202732 
L 781.43956 -384.479803 
L 783.478209 -384.637545 
L 785.516858 -380.910268 
L 787.555507 -378.287395 
L 789.594156 -364.719305 
L 795.710102 -365.291202 
L 797.748751 -369.846759 
L 799.7874 -355.687062 
L 801.826049 -349.770748 
L 803.864698 -349.297432 
L 809.980644 -354.109372 
L 812.019293 -357.816939 
L 814.057942 -353.793828 
L 816.096591 -358.802991 
L 816.096591 -44.863636 
L 816.096591 -44.863636 
L 814.057942 -44.863636 
L 812.019293 -44.863636 
L 809.980644 -44.863636 
L 803.864698 -44.863636 
L 801.826049 -44.863636 
L 799.7874 -44.863636 
L 797.748751 -44.863636 
L 795.710102 -44.863636 
L 789.594156 -44.863636 
L 787.555507 -44.863636 
L 785.516858 -44.863636 
L 783.478209 -44.863636 
L 781.43956 -44.863636 
L 775.323614 -44.863636 
L 773.284965 -44.863636 
L 771.246316 -44.863636 
L 769.207667 -44.863636 
L 767.169018 -44.863636 
L 761.053072 -44.863636 
L 759.014423 -44.863636 
L 756.975774 -44.863636 
L 754.937125 -44.863636 
L 752.898477 -44.863636 
L 746.78253 -44.863636 
L 744.743881 -44.863636 
L 742.705232 -44.863636 
L 740.666583 -44.863636 
L 738.627935 -44.863636 
L 732.511988 -44.863636 
L 730.473339 -44.863636 
L 728.43469 -44.863636 
L 726.396041 -44.863636 
L 724.357393 -44.863636 
L 718.241446 -44.863636 
L 716.202797 -44.863636 
L 714.164148 -44.863636 
L 712.1255 -44.863636 
L 710.086851 -44.863636 
L 703.970904 -44.863636 
L 701.932255 -44.863636 
L 699.893606 -44.863636 
L 697.854958 -44.863636 
L 689.700362 -44.863636 
L 687.661713 -44.863636 
L 685.623064 -44.863636 
L 683.584416 -44.863636 
L 681.545767 -44.863636 
L 675.42982 -44.863636 
L 673.391171 -44.863636 
L 671.352522 -44.863636 
L 669.313874 -44.863636 
L 667.275225 -44.863636 
L 661.159278 -44.863636 
L 659.120629 -44.863636 
L 657.081981 -44.863636 
L 655.043332 -44.863636 
L 653.004683 -44.863636 
L 646.888736 -44.863636 
L 644.850087 -44.863636 
L 642.811439 -44.863636 
L 640.77279 -44.863636 
L 638.734141 -44.863636 
L 632.618194 -44.863636 
L 630.579545 -44.863636 
L 628.540897 -44.863636 
L 626.502248 -44.863636 
L 624.463599 -44.863636 
L 618.347652 -44.863636 
L 616.309003 -44.863636 
L 614.270355 -44.863636 
L 612.231706 -44.863636 
L 610.193057 -44.863636 
L 604.07711 -44.863636 
L 602.038462 -44.863636 
L 599.999813 -44.863636 
L 597.961164 -44.863636 
L 595.922515 -44.863636 
L 589.806568 -44.863636 
L 587.76792 -44.863636 
L 585.729271 -44.863636 
L 583.690622 -44.863636 
L 581.651973 -44.863636 
L 575.536026 -44.863636 
L 573.497378 -44.863636 
L 571.458729 -44.863636 
L 567.381431 -44.863636 
L 561.265485 -44.863636 
L 559.226836 -44.863636 
L 557.188187 -44.863636 
L 555.149538 -44.863636 
L 553.110889 -44.863636 
L 546.994943 -44.863636 
L 544.956294 -44.863636 
L 542.917645 -44.863636 
L 540.878996 -44.863636 
L 532.724401 -44.863636 
L 530.685752 -44.863636 
L 528.647103 -44.863636 
L 526.608454 -44.863636 
L 524.569805 -44.863636 
L 518.453859 -44.863636 
L 516.41521 -44.863636 
L 514.376561 -44.863636 
L 512.337912 -44.863636 
L 510.299263 -44.863636 
L 504.183317 -44.863636 
L 502.144668 -44.863636 
L 500.106019 -44.863636 
L 498.06737 -44.863636 
L 489.912775 -44.863636 
L 487.874126 -44.863636 
L 485.835477 -44.863636 
L 483.796828 -44.863636 
L 481.758179 -44.863636 
L 475.642233 -44.863636 
L 473.603584 -44.863636 
L 471.564935 -44.863636 
L 469.526286 -44.863636 
L 467.487637 -44.863636 
L 461.371691 -44.863636 
L 459.333042 -44.863636 
L 457.294393 -44.863636 
L 455.255744 -44.863636 
L 453.217095 -44.863636 
L 447.101149 -44.863636 
L 445.0625 -44.863636 
L 443.023851 -44.863636 
L 440.985202 -44.863636 
L 438.946553 -44.863636 
L 432.830607 -44.863636 
L 430.791958 -44.863636 
L 428.753309 -44.863636 
L 426.71466 -44.863636 
L 424.676011 -44.863636 
L 418.560065 -44.863636 
L 416.521416 -44.863636 
L 414.482767 -44.863636 
L 412.444118 -44.863636 
L 410.40547 -44.863636 
L 404.289523 -44.863636 
L 402.250874 -44.863636 
L 400.212225 -44.863636 
L 398.173576 -44.863636 
L 396.134928 -44.863636 
L 387.980332 -44.863636 
L 385.941683 -44.863636 
L 383.903034 -44.863636 
L 381.864386 -44.863636 
L 375.748439 -44.863636 
L 373.70979 -44.863636 
L 371.671141 -44.863636 
L 369.632493 -44.863636 
L 367.593844 -44.863636 
L 361.477897 -44.863636 
L 359.439248 -44.863636 
L 357.400599 -44.863636 
L 355.361951 -44.863636 
L 353.323302 -44.863636 
L 347.207355 -44.863636 
L 345.168706 -44.863636 
L 343.130057 -44.863636 
L 341.091409 -44.863636 
L 339.05276 -44.863636 
L 332.936813 -44.863636 
L 330.898164 -44.863636 
L 328.859515 -44.863636 
L 326.820867 -44.863636 
L 324.782218 -44.863636 
L 318.666271 -44.863636 
L 316.627622 -44.863636 
L 314.588974 -44.863636 
L 312.550325 -44.863636 
L 310.511676 -44.863636 
L 304.395729 -44.863636 
L 302.35708 -44.863636 
L 300.318432 -44.863636 
L 298.279783 -44.863636 
L 290.125187 -44.863636 
L 288.086538 -44.863636 
L 286.04789 -44.863636 
L 284.009241 -44.863636 
L 281.970592 -44.863636 
L 275.854645 -44.863636 
L 273.815997 -44.863636 
L 271.777348 -44.863636 
L 269.738699 -44.863636 
L 267.70005 -44.863636 
L 261.584103 -44.863636 
L 259.545455 -44.863636 
L 257.506806 -44.863636 
L 255.468157 -44.863636 
L 253.429508 -44.863636 
L 247.313561 -44.863636 
L 245.274913 -44.863636 
L 243.236264 -44.863636 
L 241.197615 -44.863636 
L 239.158966 -44.863636 
L 233.043019 -44.863636 
L 231.004371 -44.863636 
L 228.965722 -44.863636 
L 226.927073 -44.863636 
L 218.772478 -44.863636 
L 216.733829 -44.863636 
L 214.69518 -44.863636 
L 212.656531 -44.863636 
L 210.617882 -44.863636 
L 204.501936 -44.863636 
L 202.463287 -44.863636 
L 200.424638 -44.863636 
L 198.385989 -44.863636 
L 190.231394 -44.863636 
L 188.192745 -44.863636 
L 186.154096 -44.863636 
L 184.115447 -44.863636 
L 175.960852 -44.863636 
L 173.922203 -44.863636 
L 171.883554 -44.863636 
L 169.844905 -44.863636 
L 167.806256 -44.863636 
L 161.69031 -44.863636 
L 159.651661 -44.863636 
L 157.613012 -44.863636 
L 155.574363 -44.863636 
L 153.535714 -44.863636 
L 147.419768 -44.863636 
L 145.381119 -44.863636 
L 143.34247 -44.863636 
L 141.303821 -44.863636 
L 139.265172 -44.863636 
L 133.149226 -44.863636 
L 131.110577 -44.863636 
L 129.071928 -44.863636 
L 127.033279 -44.863636 
L 124.99463 -44.863636 
L 118.878684 -44.863636 
L 114.801386 -44.863636 
L 112.762737 -44.863636 
L 110.724088 -44.863636 
L 104.608142 -44.863636 
L 102.569493 -44.863636 
L 100.530844 -44.863636 
L 98.492195 -44.863636 
L 96.453546 -44.863636 
L 90.3376 -44.863636 
L 88.298951 -44.863636 
L 86.260302 -44.863636 
L 84.221653 -44.863636 
L 82.183004 -44.863636 
L 76.067058 -44.863636 
L 74.028409 -44.863636 
z
" id="me11d22014b" style="stroke:#f5f6f8;"/>
    </defs>
    <g clip-path="url(#p4a0f07edd8)">
     <use style="fill:#f5f6f8;stroke:#f5f6f8;" x="0" xlink:href="#me11d22014b" y="432"/>
    </g>
   </g>
   <g id="matplotlib.axis_1">
    <g id="xtick_1">
     <g id="line2d_1">
      <defs>
       <path d="M 0 0 
L 0 3.5 
" id="m97e95f66e4" style="stroke:#000000;stroke-width:0.8;"/>
      </defs>
      <g>
       <use style="stroke:#000000;stroke-width:0.8;" x="69.951111" xlink:href="#m97e95f66e4" y="404.2"/>
      </g>
     </g>
     <g id="text_1">
      <!-- 2022-11 -->
      <defs>
       <path d="M 19.1875 8.296875 
L 53.609375 8.296875 
L 53.609375 0 
L 7.328125 0 
L 7.328125 8.296875 
Q 12.9375 14.109375 22.625 23.890625 
Q 32.328125 33.6875 34.8125 36.53125 
Q 39.546875 41.84375 41.421875 45.53125 
Q 43.3125 49.21875 43.3125 52.78125 
Q 43.3125 58.59375 39.234375 62.25 
Q 35.15625 65.921875 28.609375 65.921875 
Q 23.96875 65.921875 18.8125 64.3125 
Q 13.671875 62.703125 7.8125 59.421875 
L 7.8125 69.390625 
Q 13.765625 71.78125 18.9375 73 
Q 24.125 74.21875 28.421875 74.21875 
Q 39.75 74.21875 46.484375 68.546875 
Q 53.21875 62.890625 53.21875 53.421875 
Q 53.21875 48.921875 51.53125 44.890625 
Q 49.859375 40.875 45.40625 35.40625 
Q 44.1875 33.984375 37.640625 27.21875 
Q 31.109375 20.453125 19.1875 8.296875 
z
" id="DejaVuSans-50"/>
       <path d="M 31.78125 66.40625 
Q 24.171875 66.40625 20.328125 58.90625 
Q 16.5 51.421875 16.5 36.375 
Q 16.5 21.390625 20.328125 13.890625 
Q 24.171875 6.390625 31.78125 6.390625 
Q 39.453125 6.390625 43.28125 13.890625 
Q 47.125 21.390625 47.125 36.375 
Q 47.125 51.421875 43.28125 58.90625 
Q 39.453125 66.40625 31.78125 66.40625 
z
M 31.78125 74.21875 
Q 44.046875 74.21875 50.515625 64.515625 
Q 56.984375 54.828125 56.984375 36.375 
Q 56.984375 17.96875 50.515625 8.265625 
Q 44.046875 -1.421875 31.78125 -1.421875 
Q 19.53125 -1.421875 13.0625 8.265625 
Q 6.59375 17.96875 6.59375 36.375 
Q 6.59375 54.828125 13.0625 64.515625 
Q 19.53125 74.21875 31.78125 74.21875 
z
" id="DejaVuSans-48"/>
       <path d="M 4.890625 31.390625 
L 31.203125 31.390625 
L 31.203125 23.390625 
L 4.890625 23.390625 
z
" id="DejaVuSans-45"/>
       <path d="M 12.40625 8.296875 
L 28.515625 8.296875 
L 28.515625 63.921875 
L 10.984375 60.40625 
L 10.984375 69.390625 
L 28.421875 72.90625 
L 38.28125 72.90625 
L 38.28125 8.296875 
L 54.390625 8.296875 
L 54.390625 0 
L 12.40625 0 
z
" id="DejaVuSans-49"/>
      </defs>
      <g transform="translate(49.059705 418.798437)scale(0.1 -0.1)">
       <use xlink:href="#DejaVuSans-50"/>
       <use x="63.623047" xlink:href="#DejaVuSans-48"/>
       <use x="127.246094" xlink:href="#DejaVuSans-50"/>
       <use x="190.869141" xlink:href="#DejaVuSans-50"/>
       <use x="254.492188" xlink:href="#DejaVuSans-45"/>
       <use x="290.576172" xlink:href="#DejaVuSans-49"/>
       <use x="354.199219" xlink:href="#DejaVuSans-49"/>
      </g>
     </g>
    </g>
    <g id="xtick_2">
     <g id="line2d_2">
      <g>
       <use style="stroke:#000000;stroke-width:0.8;" x="194.308691" xlink:href="#m97e95f66e4" y="404.2"/>
      </g>
     </g>
     <g id="text_2">
      <!-- 2023-01 -->
      <defs>
       <path d="M 40.578125 39.3125 
Q 47.65625 37.796875 51.625 33 
Q 55.609375 28.21875 55.609375 21.1875 
Q 55.609375 10.40625 48.1875 4.484375 
Q 40.765625 -1.421875 27.09375 -1.421875 
Q 22.515625 -1.421875 17.65625 -0.515625 
Q 12.796875 0.390625 7.625 2.203125 
L 7.625 11.71875 
Q 11.71875 9.328125 16.59375 8.109375 
Q 21.484375 6.890625 26.8125 6.890625 
Q 36.078125 6.890625 40.9375 10.546875 
Q 45.796875 14.203125 45.796875 21.1875 
Q 45.796875 27.640625 41.28125 31.265625 
Q 36.765625 34.90625 28.71875 34.90625 
L 20.21875 34.90625 
L 20.21875 43.015625 
L 29.109375 43.015625 
Q 36.375 43.015625 40.234375 45.921875 
Q 44.09375 48.828125 44.09375 54.296875 
Q 44.09375 59.90625 40.109375 62.90625 
Q 36.140625 65.921875 28.71875 65.921875 
Q 24.65625 65.921875 20.015625 65.03125 
Q 15.375 64.15625 9.8125 62.3125 
L 9.8125 71.09375 
Q 15.4375 72.65625 20.34375 73.4375 
Q 25.25 74.21875 29.59375 74.21875 
Q 40.828125 74.21875 47.359375 69.109375 
Q 53.90625 64.015625 53.90625 55.328125 
Q 53.90625 49.265625 50.4375 45.09375 
Q 46.96875 40.921875 40.578125 39.3125 
z
" id="DejaVuSans-51"/>
      </defs>
      <g transform="translate(173.417285 418.798437)scale(0.1 -0.1)">
       <use xlink:href="#DejaVuSans-50"/>
       <use x="63.623047" xlink:href="#DejaVuSans-48"/>
       <use x="127.246094" xlink:href="#DejaVuSans-50"/>
       <use x="190.869141" xlink:href="#DejaVuSans-51"/>
       <use x="254.492188" xlink:href="#DejaVuSans-45"/>
       <use x="290.576172" xlink:href="#DejaVuSans-48"/>
       <use x="354.199219" xlink:href="#DejaVuSans-49"/>
      </g>
     </g>
    </g>
    <g id="xtick_3">
     <g id="line2d_3">
      <g>
       <use style="stroke:#000000;stroke-width:0.8;" x="314.588974" xlink:href="#m97e95f66e4" y="404.2"/>
      </g>
     </g>
     <g id="text_3">
      <!-- 2023-03 -->
      <g transform="translate(293.697567 418.798437)scale(0.1 -0.1)">
       <use xlink:href="#DejaVuSans-50"/>
       <use x="63.623047" xlink:href="#DejaVuSans-48"/>
       <use x="127.246094" xlink:href="#DejaVuSans-50"/>
       <use x="190.869141" xlink:href="#DejaVuSans-51"/>
       <use x="254.492188" xlink:href="#DejaVuSans-45"/>
       <use x="290.576172" xlink:href="#DejaVuSans-48"/>
       <use x="354.199219" xlink:href="#DejaVuSans-51"/>
      </g>
     </g>
    </g>
    <g id="xtick_4">
     <g id="line2d_4">
      <g>
       <use style="stroke:#000000;stroke-width:0.8;" x="438.946553" xlink:href="#m97e95f66e4" y="404.2"/>
      </g>
     </g>
     <g id="text_4">
      <!-- 2023-05 -->
      <defs>
       <path d="M 10.796875 72.90625 
L 49.515625 72.90625 
L 49.515625 64.59375 
L 19.828125 64.59375 
L 19.828125 46.734375 
Q 21.96875 47.46875 24.109375 47.828125 
Q 26.265625 48.1875 28.421875 48.1875 
Q 40.625 48.1875 47.75 41.5 
Q 54.890625 34.8125 54.890625 23.390625 
Q 54.890625 11.625 47.5625 5.09375 
Q 40.234375 -1.421875 26.90625 -1.421875 
Q 22.3125 -1.421875 17.546875 -0.640625 
Q 12.796875 0.140625 7.71875 1.703125 
L 7.71875 11.625 
Q 12.109375 9.234375 16.796875 8.0625 
Q 21.484375 6.890625 26.703125 6.890625 
Q 35.15625 6.890625 40.078125 11.328125 
Q 45.015625 15.765625 45.015625 23.390625 
Q 45.015625 31 40.078125 35.4375 
Q 35.15625 39.890625 26.703125 39.890625 
Q 22.75 39.890625 18.8125 39.015625 
Q 14.890625 38.140625 10.796875 36.28125 
z
" id="DejaVuSans-53"/>
      </defs>
      <g transform="translate(418.055147 418.798437)scale(0.1 -0.1)">
       <use xlink:href="#DejaVuSans-50"/>
       <use x="63.623047" xlink:href="#DejaVuSans-48"/>
       <use x="127.246094" xlink:href="#DejaVuSans-50"/>
       <use x="190.869141" xlink:href="#DejaVuSans-51"/>
       <use x="254.492188" xlink:href="#DejaVuSans-45"/>
       <use x="290.576172" xlink:href="#DejaVuSans-48"/>
       <use x="354.199219" xlink:href="#DejaVuSans-53"/>
      </g>
     </g>
    </g>
    <g id="xtick_5">
     <g id="line2d_5">
      <g>
       <use style="stroke:#000000;stroke-width:0.8;" x="563.304133" xlink:href="#m97e95f66e4" y="404.2"/>
      </g>
     </g>
     <g id="text_5">
      <!-- 2023-07 -->
      <defs>
       <path d="M 8.203125 72.90625 
L 55.078125 72.90625 
L 55.078125 68.703125 
L 28.609375 0 
L 18.3125 0 
L 43.21875 64.59375 
L 8.203125 64.59375 
z
" id="DejaVuSans-55"/>
      </defs>
      <g transform="translate(542.412727 418.798437)scale(0.1 -0.1)">
       <use xlink:href="#DejaVuSans-50"/>
       <use x="63.623047" xlink:href="#DejaVuSans-48"/>
       <use x="127.246094" xlink:href="#DejaVuSans-50"/>
       <use x="190.869141" xlink:href="#DejaVuSans-51"/>
       <use x="254.492188" xlink:href="#DejaVuSans-45"/>
       <use x="290.576172" xlink:href="#DejaVuSans-48"/>
       <use x="354.199219" xlink:href="#DejaVuSans-55"/>
      </g>
     </g>
    </g>
    <g id="xtick_6">
     <g id="line2d_6">
      <g>
       <use style="stroke:#000000;stroke-width:0.8;" x="689.700362" xlink:href="#m97e95f66e4" y="404.2"/>
      </g>
     </g>
     <g id="text_6">
      <!-- 2023-09 -->
      <defs>
       <path d="M 10.984375 1.515625 
L 10.984375 10.5 
Q 14.703125 8.734375 18.5 7.8125 
Q 22.3125 6.890625 25.984375 6.890625 
Q 35.75 6.890625 40.890625 13.453125 
Q 46.046875 20.015625 46.78125 33.40625 
Q 43.953125 29.203125 39.59375 26.953125 
Q 35.25 24.703125 29.984375 24.703125 
Q 19.046875 24.703125 12.671875 31.3125 
Q 6.296875 37.9375 6.296875 49.421875 
Q 6.296875 60.640625 12.9375 67.421875 
Q 19.578125 74.21875 30.609375 74.21875 
Q 43.265625 74.21875 49.921875 64.515625 
Q 56.59375 54.828125 56.59375 36.375 
Q 56.59375 19.140625 48.40625 8.859375 
Q 40.234375 -1.421875 26.421875 -1.421875 
Q 22.703125 -1.421875 18.890625 -0.6875 
Q 15.09375 0.046875 10.984375 1.515625 
z
M 30.609375 32.421875 
Q 37.25 32.421875 41.125 36.953125 
Q 45.015625 41.5 45.015625 49.421875 
Q 45.015625 57.28125 41.125 61.84375 
Q 37.25 66.40625 30.609375 66.40625 
Q 23.96875 66.40625 20.09375 61.84375 
Q 16.21875 57.28125 16.21875 49.421875 
Q 16.21875 41.5 20.09375 36.953125 
Q 23.96875 32.421875 30.609375 32.421875 
z
" id="DejaVuSans-57"/>
      </defs>
      <g transform="translate(668.808956 418.798437)scale(0.1 -0.1)">
       <use xlink:href="#DejaVuSans-50"/>
       <use x="63.623047" xlink:href="#DejaVuSans-48"/>
       <use x="127.246094" xlink:href="#DejaVuSans-50"/>
       <use x="190.869141" xlink:href="#DejaVuSans-51"/>
       <use x="254.492188" xlink:href="#DejaVuSans-45"/>
       <use x="290.576172" xlink:href="#DejaVuSans-48"/>
       <use x="354.199219" xlink:href="#DejaVuSans-57"/>
      </g>
     </g>
    </g>
    <g id="xtick_7">
     <g id="line2d_7">
      <g>
       <use style="stroke:#000000;stroke-width:0.8;" x="814.057942" xlink:href="#m97e95f66e4" y="404.2"/>
      </g>
     </g>
     <g id="text_7">
      <!-- 2023-11 -->
      <g transform="translate(793.166536 418.798437)scale(0.1 -0.1)">
       <use xlink:href="#DejaVuSans-50"/>
       <use x="63.623047" xlink:href="#DejaVuSans-48"/>
       <use x="127.246094" xlink:href="#DejaVuSans-50"/>
       <use x="190.869141" xlink:href="#DejaVuSans-51"/>
       <use x="254.492188" xlink:href="#DejaVuSans-45"/>
       <use x="290.576172" xlink:href="#DejaVuSans-49"/>
       <use x="354.199219" xlink:href="#DejaVuSans-49"/>
      </g>
     </g>
    </g>
   </g>
   <g id="matplotlib.axis_2">
    <g id="ytick_1">
     <g id="line2d_8">
      <defs>
       <path d="M 0 0 
L -3.5 0 
" id="m19c1512e8b" style="stroke:#000000;stroke-width:0.8;"/>
      </defs>
      <g>
       <use style="stroke:#000000;stroke-width:0.8;" x="36.925" xlink:href="#m19c1512e8b" y="387.136364"/>
      </g>
     </g>
     <g id="text_8">
      <!-- 0 -->
      <g transform="translate(23.5625 390.935582)scale(0.1 -0.1)">
       <use xlink:href="#DejaVuSans-48"/>
      </g>
     </g>
    </g>
    <g id="ytick_2">
     <g id="line2d_9">
      <g>
       <use style="stroke:#000000;stroke-width:0.8;" x="36.925" xlink:href="#m19c1512e8b" y="337.833746"/>
      </g>
     </g>
     <g id="text_9">
      <!-- 25 -->
      <g transform="translate(17.2 341.632964)scale(0.1 -0.1)">
       <use xlink:href="#DejaVuSans-50"/>
       <use x="63.623047" xlink:href="#DejaVuSans-53"/>
      </g>
     </g>
    </g>
    <g id="ytick_3">
     <g id="line2d_10">
      <g>
       <use style="stroke:#000000;stroke-width:0.8;" x="36.925" xlink:href="#m19c1512e8b" y="288.531128"/>
      </g>
     </g>
     <g id="text_10">
      <!-- 50 -->
      <g transform="translate(17.2 292.330347)scale(0.1 -0.1)">
       <use xlink:href="#DejaVuSans-53"/>
       <use x="63.623047" xlink:href="#DejaVuSans-48"/>
      </g>
     </g>
    </g>
    <g id="ytick_4">
     <g id="line2d_11">
      <g>
       <use style="stroke:#000000;stroke-width:0.8;" x="36.925" xlink:href="#m19c1512e8b" y="239.22851"/>
      </g>
     </g>
     <g id="text_11">
      <!-- 75 -->
      <g transform="translate(17.2 243.027729)scale(0.1 -0.1)">
       <use xlink:href="#DejaVuSans-55"/>
       <use x="63.623047" xlink:href="#DejaVuSans-53"/>
      </g>
     </g>
    </g>
    <g id="ytick_5">
     <g id="line2d_12">
      <g>
       <use style="stroke:#000000;stroke-width:0.8;" x="36.925" xlink:href="#m19c1512e8b" y="189.925892"/>
      </g>
     </g>
     <g id="text_12">
      <!-- 100 -->
      <g transform="translate(10.8375 193.725111)scale(0.1 -0.1)">
       <use xlink:href="#DejaVuSans-49"/>
       <use x="63.623047" xlink:href="#DejaVuSans-48"/>
       <use x="127.246094" xlink:href="#DejaVuSans-48"/>
      </g>
     </g>
    </g>
    <g id="ytick_6">
     <g id="line2d_13">
      <g>
       <use style="stroke:#000000;stroke-width:0.8;" x="36.925" xlink:href="#m19c1512e8b" y="140.623274"/>
      </g>
     </g>
     <g id="text_13">
      <!-- 125 -->
      <g transform="translate(10.8375 144.422493)scale(0.1 -0.1)">
       <use xlink:href="#DejaVuSans-49"/>
       <use x="63.623047" xlink:href="#DejaVuSans-50"/>
       <use x="127.246094" xlink:href="#DejaVuSans-53"/>
      </g>
     </g>
    </g>
    <g id="ytick_7">
     <g id="line2d_14">
      <g>
       <use style="stroke:#000000;stroke-width:0.8;" x="36.925" xlink:href="#m19c1512e8b" y="91.320656"/>
      </g>
     </g>
     <g id="text_14">
      <!-- 150 -->
      <g transform="translate(10.8375 95.119875)scale(0.1 -0.1)">
       <use xlink:href="#DejaVuSans-49"/>
       <use x="63.623047" xlink:href="#DejaVuSans-53"/>
       <use x="127.246094" xlink:href="#DejaVuSans-48"/>
      </g>
     </g>
    </g>
    <g id="ytick_8">
     <g id="line2d_15">
      <g>
       <use style="stroke:#000000;stroke-width:0.8;" x="36.925" xlink:href="#m19c1512e8b" y="42.018038"/>
      </g>
     </g>
     <g id="text_15">
      <!-- 175 -->
      <g transform="translate(10.8375 45.817257)scale(0.1 -0.1)">
       <use xlink:href="#DejaVuSans-49"/>
       <use x="63.623047" xlink:href="#DejaVuSans-55"/>
       <use x="127.246094" xlink:href="#DejaVuSans-53"/>
      </g>
     </g>
    </g>
   </g>
   <g id="patch_3">
    <path d="M 36.925 404.2 
L 36.925 28.8 
" style="fill:none;stroke:#000000;stroke-linecap:square;stroke-linejoin:miter;stroke-width:0.8;"/>
   </g>
   <g id="patch_4">
    <path d="M 853.2 404.2 
L 853.2 28.8 
" style="fill:none;stroke:#000000;stroke-linecap:square;stroke-linejoin:miter;stroke-width:0.8;"/>
   </g>
   <g id="patch_5">
    <path d="M 36.925 404.2 
L 853.2 404.2 
" style="fill:none;stroke:#000000;stroke-linecap:square;stroke-linejoin:miter;stroke-width:0.8;"/>
   </g>
   <g id="patch_6">
    <path d="M 36.925 28.8 
L 853.2 28.8 
" style="fill:none;stroke:#000000;stroke-linecap:square;stroke-linejoin:miter;stroke-width:0.8;"/>
   </g>
   <g id="text_16">
    <!-- ZS - 21.45% -->
    <defs>
     <path d="M 5.609375 72.90625 
L 66.890625 72.90625 
L 66.890625 61.53125 
L 27.78125 14.203125 
L 68.015625 14.203125 
L 68.015625 0 
L 4.5 0 
L 4.5 11.375 
L 43.609375 58.6875 
L 5.609375 58.6875 
z
" id="DejaVuSans-Bold-90"/>
     <path d="M 59.90625 70.609375 
L 59.90625 55.171875 
Q 53.90625 57.859375 48.1875 59.21875 
Q 42.484375 60.59375 37.40625 60.59375 
Q 30.671875 60.59375 27.4375 58.734375 
Q 24.21875 56.890625 24.21875 52.984375 
Q 24.21875 50.046875 26.390625 48.40625 
Q 28.5625 46.78125 34.28125 45.609375 
L 42.28125 44 
Q 54.4375 41.546875 59.5625 36.5625 
Q 64.703125 31.59375 64.703125 22.40625 
Q 64.703125 10.359375 57.546875 4.46875 
Q 50.390625 -1.421875 35.6875 -1.421875 
Q 28.765625 -1.421875 21.78125 -0.09375 
Q 14.796875 1.21875 7.8125 3.8125 
L 7.8125 19.671875 
Q 14.796875 15.96875 21.3125 14.078125 
Q 27.828125 12.203125 33.890625 12.203125 
Q 40.046875 12.203125 43.3125 14.25 
Q 46.578125 16.3125 46.578125 20.125 
Q 46.578125 23.53125 44.359375 25.390625 
Q 42.140625 27.25 35.5 28.71875 
L 28.21875 30.328125 
Q 17.28125 32.671875 12.21875 37.796875 
Q 7.171875 42.921875 7.171875 51.609375 
Q 7.171875 62.5 14.203125 68.359375 
Q 21.234375 74.21875 34.421875 74.21875 
Q 40.4375 74.21875 46.78125 73.3125 
Q 53.125 72.40625 59.90625 70.609375 
z
" id="DejaVuSans-Bold-83"/>
     <path id="DejaVuSans-Bold-32"/>
     <path d="M 5.421875 35.890625 
L 36.078125 35.890625 
L 36.078125 21.6875 
L 5.421875 21.6875 
z
" id="DejaVuSans-Bold-45"/>
     <path d="M 28.8125 13.8125 
L 60.890625 13.8125 
L 60.890625 0 
L 7.90625 0 
L 7.90625 13.8125 
L 34.515625 37.3125 
Q 38.09375 40.53125 39.796875 43.609375 
Q 41.5 46.6875 41.5 50 
Q 41.5 55.125 38.0625 58.25 
Q 34.625 61.375 28.90625 61.375 
Q 24.515625 61.375 19.28125 59.5 
Q 14.0625 57.625 8.109375 53.90625 
L 8.109375 69.921875 
Q 14.453125 72.015625 20.65625 73.109375 
Q 26.859375 74.21875 32.8125 74.21875 
Q 45.90625 74.21875 53.15625 68.453125 
Q 60.40625 62.703125 60.40625 52.390625 
Q 60.40625 46.4375 57.328125 41.28125 
Q 54.25 36.140625 44.390625 27.484375 
z
" id="DejaVuSans-Bold-50"/>
     <path d="M 11.71875 12.984375 
L 28.328125 12.984375 
L 28.328125 60.109375 
L 11.28125 56.59375 
L 11.28125 69.390625 
L 28.21875 72.90625 
L 46.09375 72.90625 
L 46.09375 12.984375 
L 62.703125 12.984375 
L 62.703125 0 
L 11.71875 0 
z
" id="DejaVuSans-Bold-49"/>
     <path d="M 10.203125 18.890625 
L 27.78125 18.890625 
L 27.78125 0 
L 10.203125 0 
z
" id="DejaVuSans-Bold-46"/>
     <path d="M 36.8125 57.421875 
L 16.21875 26.90625 
L 36.8125 26.90625 
z
M 33.6875 72.90625 
L 54.59375 72.90625 
L 54.59375 26.90625 
L 64.984375 26.90625 
L 64.984375 13.28125 
L 54.59375 13.28125 
L 54.59375 0 
L 36.8125 0 
L 36.8125 13.28125 
L 4.5 13.28125 
L 4.5 29.390625 
z
" id="DejaVuSans-Bold-52"/>
     <path d="M 10.59375 72.90625 
L 57.328125 72.90625 
L 57.328125 59.078125 
L 25.59375 59.078125 
L 25.59375 47.796875 
Q 27.734375 48.390625 29.90625 48.703125 
Q 32.078125 49.03125 34.421875 49.03125 
Q 47.75 49.03125 55.171875 42.359375 
Q 62.59375 35.6875 62.59375 23.78125 
Q 62.59375 11.96875 54.515625 5.265625 
Q 46.4375 -1.421875 32.078125 -1.421875 
Q 25.875 -1.421875 19.796875 -0.21875 
Q 13.71875 0.984375 7.71875 3.421875 
L 7.71875 18.21875 
Q 13.671875 14.796875 19.015625 13.078125 
Q 24.359375 11.375 29.109375 11.375 
Q 35.9375 11.375 39.859375 14.71875 
Q 43.796875 18.0625 43.796875 23.78125 
Q 43.796875 29.546875 39.859375 32.859375 
Q 35.9375 36.1875 29.109375 36.1875 
Q 25.046875 36.1875 20.453125 35.125 
Q 15.875 34.078125 10.59375 31.890625 
z
" id="DejaVuSans-Bold-53"/>
     <path d="M 77.484375 30.078125 
Q 74.03125 30.078125 72.125 27.078125 
Q 70.21875 24.078125 70.21875 18.5 
Q 70.21875 12.890625 72.09375 9.890625 
Q 73.96875 6.890625 77.484375 6.890625 
Q 81 6.890625 82.859375 9.890625 
Q 84.71875 12.890625 84.71875 18.5 
Q 84.71875 24.078125 82.828125 27.078125 
Q 80.953125 30.078125 77.484375 30.078125 
z
M 77.484375 38.28125 
Q 86.578125 38.28125 91.796875 33 
Q 97.015625 27.734375 97.015625 18.5 
Q 97.015625 9.28125 91.796875 3.921875 
Q 86.578125 -1.421875 77.484375 -1.421875 
Q 68.40625 -1.421875 63.15625 3.921875 
Q 57.90625 9.28125 57.90625 18.5 
Q 57.90625 27.6875 63.15625 32.984375 
Q 68.40625 38.28125 77.484375 38.28125 
z
M 32.71875 -1.421875 
L 21.921875 -1.421875 
L 67.484375 74.21875 
L 78.328125 74.21875 
z
M 22.703125 74.21875 
Q 31.78125 74.21875 36.984375 68.921875 
Q 42.1875 63.625 42.1875 54.390625 
Q 42.1875 45.171875 36.984375 39.84375 
Q 31.78125 34.515625 22.703125 34.515625 
Q 13.625 34.515625 8.421875 39.84375 
Q 3.21875 45.171875 3.21875 54.390625 
Q 3.21875 63.625 8.421875 68.921875 
Q 13.625 74.21875 22.703125 74.21875 
z
M 22.703125 66.015625 
Q 19.1875 66.015625 17.28125 62.984375 
Q 15.375 59.96875 15.375 54.390625 
Q 15.375 48.78125 17.28125 45.71875 
Q 19.1875 42.671875 22.703125 42.671875 
Q 26.21875 42.671875 28.09375 45.71875 
Q 29.984375 48.78125 29.984375 54.390625 
Q 29.984375 59.96875 28.078125 62.984375 
Q 26.171875 66.015625 22.703125 66.015625 
z
" id="DejaVuSans-Bold-37"/>
    </defs>
    <g transform="translate(36.925 22.8)scale(0.16 -0.16)">
     <use xlink:href="#DejaVuSans-Bold-90"/>
     <use x="72.509766" xlink:href="#DejaVuSans-Bold-83"/>
     <use x="144.53125" xlink:href="#DejaVuSans-Bold-32"/>
     <use x="179.345703" xlink:href="#DejaVuSans-Bold-45"/>
     <use x="220.849609" xlink:href="#DejaVuSans-Bold-32"/>
     <use x="255.664062" xlink:href="#DejaVuSans-Bold-50"/>
     <use x="325.244141" xlink:href="#DejaVuSans-Bold-49"/>
     <use x="394.824219" xlink:href="#DejaVuSans-Bold-46"/>
     <use x="432.8125" xlink:href="#DejaVuSans-Bold-52"/>
     <use x="502.392578" xlink:href="#DejaVuSans-Bold-53"/>
     <use x="571.972656" xlink:href="#DejaVuSans-Bold-37"/>
    </g>
   </g>
  </g>
 </g>
 <defs>
  <clipPath id="p4a0f07edd8">
   <rect height="375.4" width="816.275" x="36.925" y="28.8"/>
  </clipPath>
 </defs>
</svg>
